<svg width="64" height="33" viewBox="0 0 64 33" fill="none" xmlns="http://www.w3.org/2000/svg">
<path d="M8.85417 17.213C8.4373 15.1355 8.67526 12.8654 9.62456 10.9745C10.662 8.90986 12.5041 7.44779 14.3282 6.16979C17.9688 3.61893 22.0827 1.87186 26.3687 0.899446C30.9277 -0.135451 35.6716 -0.247625 40.2897 0.410635C42.5821 0.737625 44.8496 1.25811 47.0692 1.93349C49.3299 2.62171 51.7147 3.3792 53.7348 4.6649C55.7644 5.95745 57.2358 8.11801 58.352 10.2589C59.6651 12.7772 59.922 15.3683 58.8631 18.0459C57.5997 21.2422 54.9444 23.7468 51.8362 24.9383C47.7129 25.8003 43.7505 23.0312 40.0714 21.3329C36.4275 19.65 32.1483 18.7632 28.6559 21.3063C26.8198 22.6425 25.2225 24.042 23.0457 24.7722C20.9982 25.4587 18.7786 25.6368 16.6746 25.1258C12.9159 24.2125 9.65453 21.2011 8.85417 17.213Z" fill="#F7C300"/>
<path d="M57.6271 26.072C55.8534 26.1627 54.079 26.2414 52.3036 26.315C53.9018 25.3392 55.3022 24.0347 56.3816 22.4469C57.55 20.7289 58.3641 18.6162 58.3675 16.5207C58.3709 14.3123 57.4156 12.251 56.2403 10.4303C55.0805 8.6336 53.7126 6.96791 51.8508 5.86625C49.7485 4.62249 47.2755 3.86314 44.9395 3.19889C40.1126 1.82673 35.0228 1.21221 30.0127 1.61281C25.4776 1.97576 21.0239 3.13984 16.9331 5.14201C13.1085 7.01408 8.7121 9.71304 7.39302 14.0178C6.21174 17.8732 7.45549 22.1301 10.4061 24.8411C11.1303 25.5062 11.9264 26.0583 12.767 26.5145C11.3828 26.4717 9.99866 26.4306 8.61452 26.3767C7.51286 26.3339 7.51457 28.0459 8.61452 28.0887C24.9478 28.7221 41.3041 28.6194 57.6279 27.7822C58.7227 27.7283 58.7296 26.0155 57.6271 26.072ZM8.84307 18.8526C8.45017 16.9642 8.67444 14.8995 9.56981 13.1807C10.5474 11.3035 12.2842 9.97503 14.0039 8.81259C17.4355 6.4937 21.3132 4.90496 25.3535 4.02072C29.6506 3.07998 34.1232 2.97722 38.4759 3.57642C40.6364 3.87345 42.7738 4.34771 44.8659 4.96145C46.9973 5.58719 49.2452 6.27541 51.1489 7.44469C53.062 8.61998 54.4487 10.5836 55.5008 12.5301C56.7385 14.819 56.9799 17.1747 55.9827 19.61C54.7911 22.5161 52.2891 24.7931 49.359 25.876C45.4719 26.66 41.7372 24.1426 38.2687 22.5984C34.8336 21.0687 30.8002 20.2623 27.508 22.5743C25.7781 23.7898 24.2715 25.0619 22.2197 25.7261C20.2903 26.3501 18.1974 26.5119 16.214 26.0471C12.6719 25.2159 9.5972 22.4785 8.84307 18.8526ZM24.1517 26.7508C25.636 26.0223 26.9465 25.0508 28.3717 24.0518C30.688 22.4272 33.4409 22.6146 36.0089 23.5185C38.2995 24.324 40.5902 25.6585 42.9365 26.6198C36.6766 26.7713 30.4141 26.815 24.1517 26.7508Z" fill="black"/>
<path d="M63.1833 30.2754C53.4678 30.349 43.7514 30.4226 34.0358 30.4954C32.9359 30.5039 32.9119 32.2159 34.0153 32.2074C43.7309 32.1338 53.4472 32.0602 63.1628 31.9874C64.2636 31.9789 64.2876 30.2669 63.1833 30.2754Z" fill="black"/>
<path d="M30.6333 30.5509C20.6892 30.5261 10.7459 30.5004 0.801853 30.4756C-0.300668 30.473 -0.249296 32.1841 0.851513 32.1866C10.7956 32.2115 20.7388 32.2372 30.6829 32.262C31.7854 32.2654 31.7349 30.5535 30.6333 30.5509Z" fill="black"/>
<path d="M52.8805 20.6713C52.4491 20.4188 51.98 20.6018 51.7095 20.9785C50.8304 22.1983 48.8051 22.1024 47.498 21.9355C45.697 21.7053 43.9953 21.0034 42.5136 19.9642C41.6096 19.3307 40.7528 20.8141 41.6499 21.4424C43.4808 22.7256 45.6268 23.4874 47.8524 23.6843C49.8143 23.8581 51.9637 23.5422 53.1878 21.843C53.4574 21.4673 53.252 20.8887 52.8805 20.6713Z" fill="black"/>
<path d="M55.2303 16.4774C55.0822 16.3293 54.8382 16.2172 54.6251 16.2266C54.162 16.2472 53.7691 16.6024 53.7691 17.0826C53.7691 17.4293 53.7434 17.7751 53.7006 18.1192C53.6749 18.2861 53.6484 18.453 53.6124 18.6182C53.5636 18.8425 53.5799 19.0753 53.6989 19.2782C53.8025 19.4554 54.0062 19.6248 54.2108 19.6719C54.4299 19.7216 54.6756 19.7113 54.8707 19.5855C55.0522 19.4682 55.2166 19.2919 55.2637 19.0736C55.4049 18.4213 55.4819 17.7503 55.4811 17.0835C55.4811 16.8626 55.3861 16.6323 55.2303 16.4774Z" fill="black"/>
<path d="M21.0683 6.66074C18.9677 7.40032 16.8372 8.16729 15.0584 9.54544C13.2891 10.9167 12.0171 12.788 10.8366 14.6634C10.2477 15.5982 11.7286 16.4585 12.3149 15.5272C13.3764 13.8409 14.5063 12.1289 16.0967 10.8902C17.6906 9.64905 19.6405 8.97362 21.5229 8.31108C22.556 7.94814 22.1109 6.29352 21.0683 6.66074Z" fill="black"/>
</svg>
