<svg width="38" height="64" viewBox="0 0 38 64" fill="none" xmlns="http://www.w3.org/2000/svg">
<path d="M26.8391 27.1C26.8767 25.5873 27.4295 22.7296 25.6331 22.5125C25.5 22.4701 25.363 22.4402 25.2221 22.4306C25.144 22.4248 24.5246 22.5067 24.5275 22.5096C24.3924 22.3909 24.4783 22.0099 24.485 21.8681C24.5207 21.131 24.6114 20.4016 24.6297 19.6626C24.6481 18.9053 24.6346 18.1459 24.5873 17.3895C24.5487 16.7701 24.568 16.0553 24.3558 15.4687C23.9534 14.3573 22.8584 14.4865 21.885 14.4142C21.8811 14.3148 21.8772 14.2155 21.8734 14.1161C21.8608 13.79 21.8483 13.4639 21.8358 13.1378C21.8087 12.4316 21.7817 11.7244 21.7547 11.0181C21.7161 10.0254 21.7402 8.8879 20.9202 8.17976C20.0789 7.45425 18.5931 7.51608 17.5531 7.47266C16.6231 7.43407 15.0447 7.18712 14.3173 7.90877C13.5599 8.65936 13.8783 10.1904 13.8754 11.1475C13.8715 12.5126 13.8503 13.8778 13.8127 15.2429C13.7355 17.9713 13.5869 20.6968 13.3756 23.4175C13.3708 23.4561 13.3515 23.484 13.3506 23.5245C13.2068 29.1588 13.0611 34.7931 12.9193 40.4284C12.8518 43.1297 12.8064 45.8311 12.791 48.5334C12.7823 49.9709 12.7784 51.4085 12.79 52.845C12.7968 53.7287 12.8498 54.5749 13.1943 55.3641C13.1914 55.5609 13.2551 55.7307 13.365 55.8677C13.4934 56.1832 13.7693 56.434 14.2092 56.4427C17.8503 56.5112 21.4923 56.5806 25.1334 56.6491C25.3167 56.6973 25.5087 56.6984 25.7016 56.626C26.1927 56.5527 26.4532 56.1581 26.4618 55.7336C26.7629 54.8508 26.6172 53.6081 26.6085 52.845C26.5911 51.3593 26.4676 49.8764 26.3364 48.3974C26.2795 47.7607 26.2216 47.122 26.1676 46.4823C26.3538 42.6551 26.512 38.8268 26.6278 34.9967C26.7059 32.3657 26.7744 29.7329 26.8391 27.1Z" fill="#F7C300"/>
<path d="M20.6588 61.9488C14.0838 61.8504 7.50788 61.8379 0.931973 61.9112C-0.308728 61.9247 -0.312587 63.8543 0.931973 63.8408C7.50692 63.7675 14.0828 63.78 20.6588 63.8784C21.9004 63.8977 21.9014 61.9681 20.6588 61.9488Z" fill="black"/>
<path d="M36.6084 62.068C32.3962 61.8239 28.1782 61.7283 23.9602 61.7795C22.7195 61.7949 22.7156 63.7245 23.9602 63.709C28.1792 63.6579 32.3971 63.7544 36.6084 63.9976C37.8491 64.0699 37.8443 62.1394 36.6084 62.068Z" fill="black"/>
<path d="M32.455 58.2354C29.9833 58.1524 27.5106 58.11 25.0379 58.0646C25.0388 58.0289 25.0542 58.0029 25.0513 57.9643C24.3239 46.9832 25.3418 35.9819 24.8208 24.996C24.8005 24.5792 24.5622 24.3148 24.266 24.1778C24.129 24.0843 23.9718 24.0119 23.7692 24.0022C23.5077 23.9887 23.2453 23.9811 22.9838 23.9686C23.0417 22.5455 23.0986 21.1224 23.1565 19.7003C23.1864 18.9575 23.3543 18.0708 23.2009 17.3395C23.0186 16.4683 22.3037 16.3073 21.5212 16.3362C21.0987 16.3517 20.6771 16.367 20.2545 16.3834C20.2921 14.2841 20.3288 12.1848 20.3664 10.0864C20.3799 9.33192 19.6737 9.04243 19.1122 9.20451C18.3847 9.17364 17.6554 9.16012 16.927 9.14468C16.9607 6.40665 16.9945 3.66964 17.0292 0.931611C17.0447 -0.310055 15.1151 -0.311019 15.0997 0.931611C15.0659 3.66096 15.0322 6.39131 14.9974 9.12066C14.2825 9.11873 13.5676 9.11391 12.8527 9.12549C12.8933 7.17954 12.9405 5.23354 12.9753 3.28855C12.9974 2.04688 11.0679 2.04592 11.0457 3.28855C10.7119 21.516 10.0964 39.7658 10.1832 57.9971C8.1678 58.0203 6.15236 58.0492 4.13791 58.0975C2.89817 58.1274 2.89335 60.0569 4.13791 60.027C13.5763 59.8022 23.0176 59.8485 32.4531 60.1649C33.6967 60.2064 33.6948 58.2769 32.455 58.2354ZM12.8132 11.056C14.6829 11.0251 16.5517 11.0473 18.4195 11.1149C18.3876 12.8949 18.3558 14.6748 18.324 16.4558C16.4475 16.5252 14.571 16.5947 12.6955 16.6642C12.7379 14.7945 12.7727 12.9247 12.8132 11.056ZM12.6521 18.5947C14.0896 18.5416 15.5271 18.4886 16.9646 18.4345C17.7934 18.4037 18.6211 18.3728 19.4499 18.3429C19.8637 18.3275 20.2786 18.3121 20.6925 18.2966C20.8893 18.2889 21.0852 18.2821 21.281 18.2744C21.281 18.2966 21.281 18.3198 21.281 18.341C21.2685 18.6546 21.2559 18.969 21.2424 19.2826C21.2193 19.8759 21.1951 20.4683 21.171 21.0616C21.1334 22.0042 21.0948 22.9458 21.0572 23.8874C18.2188 23.7649 15.3804 23.6656 12.5402 23.6038C12.5778 21.9338 12.6144 20.2647 12.6521 18.5947ZM12.1147 57.9778C12.1012 55.1713 12.1079 52.3638 12.1253 49.5563C13.2975 49.6904 14.4765 49.7521 15.6564 49.7145C16.16 49.6981 16.6453 49.2823 16.6212 48.7497C16.599 48.2403 16.1967 47.7676 15.6564 47.7849C14.4823 47.8225 13.3081 47.7618 12.1417 47.6286C12.162 45.1289 12.188 42.6283 12.2247 40.1285C12.2555 40.1257 12.2845 40.1314 12.3163 40.1265C12.3983 40.1121 12.4813 40.0976 12.5643 40.0851C12.5787 40.0832 12.6395 40.0735 12.6849 40.0658C12.5286 40.0909 12.8141 40.0503 12.8421 40.0474C12.9135 40.0397 12.9849 40.032 13.0563 40.0253C13.3544 39.9973 13.6535 39.9789 13.9526 39.9721C14.5623 39.9577 15.173 39.9905 15.7789 40.0648C16.0066 40.0928 16.3066 39.9366 16.461 39.7822C16.6279 39.6153 16.7543 39.3403 16.7437 39.1001C16.7321 38.8502 16.6501 38.5916 16.461 38.4179C16.2603 38.2337 16.0481 38.1681 15.7789 38.1353C14.6019 37.9906 13.4239 38.032 12.2546 38.2018C12.2864 36.2723 12.3202 34.3437 12.3578 32.4141H15.3438C15.8484 32.4141 16.3317 31.9703 16.3086 31.4493C16.2854 30.9264 15.885 30.4846 15.3438 30.4846H12.3974C12.4311 28.8338 12.463 27.1841 12.4996 25.5334C15.9748 25.6086 19.4489 25.7312 22.9211 25.8981C23.3485 36.5849 22.4156 47.2851 23.1228 57.9662C23.1237 57.9874 23.1353 58.0019 23.1382 58.0232C19.4624 57.9691 15.7885 57.9499 12.1147 57.9778Z" fill="black"/>
</svg>
