<svg width="46" height="64" viewBox="0 0 46 64" fill="none" xmlns="http://www.w3.org/2000/svg">
<path d="M36.1385 30.3803C35.8887 26.1383 35.6234 21.8972 35.3649 17.6562C35.118 13.6068 35.057 9.45972 33.8505 5.55274C33.6897 5.03374 33.2434 4.85267 32.8212 4.89721C32.6789 4.78295 32.5094 4.69288 32.2867 4.67642C30.0839 4.50987 27.8705 4.61738 25.6657 4.67547C23.3912 4.73454 21.1167 4.79453 18.8422 4.8536C17.9427 4.87684 17.7006 5.89066 18.1034 6.44064C18.0453 14.6032 17.6319 22.7609 16.8311 30.8838C16.4361 34.8828 15.8348 38.8731 15.6479 42.8895C15.4514 47.1044 15.8057 51.3522 15.1541 55.539C15.005 56.4947 16.1108 57.0098 16.6917 56.6012C23.061 56.3543 29.4361 56.4375 35.7958 56.8616C36.6595 56.9187 36.9064 56.0115 36.5713 55.4189C36.9887 47.0724 36.6285 38.7171 36.1385 30.3803Z" fill="#F7C300"/>
<path d="M38.1913 58.5156C36.7989 58.5359 35.4065 58.5407 34.0132 58.5524C33.3141 54.6105 33.3887 50.5535 33.2889 46.5642C33.1834 42.356 33.0778 38.1489 32.9723 33.9408C32.952 33.1255 32.9316 32.3102 32.9113 31.4949C33.225 31.1105 33.1514 30.6622 32.8822 30.3465C32.7031 23.2074 32.525 16.0684 32.3458 8.92933C32.3439 8.86155 32.3178 8.81209 32.3052 8.75109C32.4068 8.29891 32.2296 7.81091 31.64 7.7015C30.0714 7.41004 28.4931 7.29674 26.9099 7.25317V0.969078C26.9099 0.46267 26.4645 -0.0224359 25.9417 0.000802666C25.4168 0.0240413 24.9734 0.425875 24.9734 0.969078V7.22705C24.344 7.22899 23.7136 7.23477 23.0833 7.24348C22.4219 7.25219 21.7616 7.261 21.1003 7.26972V1.34766C21.1003 0.824796 20.6549 0.37939 20.132 0.37939C19.6072 0.37939 19.1637 0.82286 19.1637 1.34766V7.29584C17.6348 7.31617 16.1059 7.33647 14.578 7.35778C13.631 7.37036 13.4073 8.48963 13.9012 9.01928C13.9108 12.538 13.9728 16.0722 13.9699 19.6035C13.8498 19.8543 13.8605 20.1312 13.9679 20.381C13.9495 24.7925 13.8111 29.2001 13.2979 33.5719C12.8177 37.657 12.3006 41.7161 12.0566 45.8254C11.8077 49.9987 11.5715 54.1729 11.3294 58.3472C9.92929 58.3104 8.5282 58.2754 7.12808 58.229C5.88094 58.1873 5.88288 60.1239 7.12808 60.1655C17.4789 60.5093 27.8365 60.6042 38.1922 60.4512C39.4365 60.4338 39.4404 58.4972 38.1913 58.5156ZM31.6322 54.7287C29.3132 53.5522 26.8741 52.5181 24.4931 51.391C26.8808 50.1632 29.2212 48.859 31.3688 47.2372C31.4288 49.7315 31.4512 52.2373 31.6322 54.7287ZM31.3088 44.8174C28.6208 47.1142 25.5292 48.7719 22.3813 50.3453C19.7418 48.9762 17.2543 47.3882 15.186 45.226C17.9785 43.4919 20.6927 41.6357 23.3157 39.6585L31.2943 44.2578C31.2991 44.4446 31.3039 44.6315 31.3088 44.8174ZM23.0107 26.5335C25.4217 28.1282 27.8162 29.7472 30.203 31.3787C27.9392 33.4625 25.6008 35.461 23.1685 37.3394C23.0823 37.29 22.9971 37.2407 22.9109 37.1913C20.2792 35.674 17.3986 34.1984 15.5279 31.7245C18.0221 29.9932 20.5164 28.2628 23.0107 26.5335ZM15.614 29.3135C15.7815 26.8502 15.8454 24.3782 15.8764 21.9052C17.6784 23.0584 19.4726 24.2232 21.262 25.3967C19.3787 26.702 17.4963 28.0082 15.614 29.3135ZM22.9807 24.2048C20.8689 22.8154 18.7464 21.4414 16.6172 20.08C18.8297 18.7254 20.9754 17.2642 23.0368 15.6907C25.2145 16.9911 27.427 18.2451 29.5078 19.6772C27.3321 21.1857 25.1564 22.6953 22.9807 24.2048ZM15.1608 34.1886C16.9512 35.9635 19.1453 37.2552 21.3472 38.5246C21.3946 38.5517 21.4421 38.5788 21.4886 38.6059C19.1221 40.3604 16.684 42.0181 14.1761 43.5741C14.1742 43.5732 14.1713 43.5722 14.1684 43.5722C14.425 40.435 14.791 37.3171 15.1608 34.1886ZM31.0474 34.4172L31.2371 41.9891C29.1495 40.7855 27.0619 39.582 24.9743 38.3784C27.0484 36.7517 29.0663 35.0543 31.0193 33.2813C31.029 33.6609 31.0377 34.0386 31.0474 34.4172ZM30.9253 29.5341C28.8648 28.1272 26.7957 26.731 24.7158 25.3512C26.7163 23.9637 28.7157 22.5772 30.7162 21.1896C30.7859 23.9705 30.8556 26.7523 30.9253 29.5341ZM30.6388 18.095C28.7206 16.7665 26.6795 15.6017 24.6597 14.4107C26.5527 12.8818 28.374 11.2648 30.112 9.55968C30.1527 9.51901 30.1662 9.47437 30.1982 9.43274C30.2727 9.44339 30.3473 9.44632 30.4219 9.45697L30.6388 18.095ZM22.757 9.18488C24.3914 9.16261 26.0346 9.13748 27.6691 9.21301C26.1334 10.6596 24.5386 12.0374 22.8877 13.3446C20.9028 12.1265 18.9778 10.8319 17.2659 9.25946C19.0959 9.23428 20.927 9.20908 22.757 9.18488ZM21.2562 14.6005C19.5259 15.8941 17.7394 17.1131 15.8978 18.2509C15.8919 15.6937 15.8638 13.1364 15.8464 10.586C17.5012 12.1217 19.3467 13.4027 21.2562 14.6005ZM13.9399 46.7249C15.7931 48.6402 17.9601 50.1188 20.2695 51.393C17.9388 52.5472 15.6189 53.7217 13.4509 55.1393C13.6126 52.3342 13.7743 49.529 13.9399 46.7249ZM13.2621 58.4024C13.2853 57.9967 13.3095 57.5899 13.3327 57.1842C13.5506 57.2501 13.8014 57.223 14.0571 57.0516C16.6811 55.2864 19.523 53.8883 22.3513 52.4765C25.4372 54.0045 28.6664 55.3145 31.6603 56.9228C31.7223 56.9567 31.7823 56.9586 31.8443 56.9789C31.9082 57.5105 31.9788 58.0412 32.065 58.5699C25.7964 58.6028 19.5278 58.5486 13.2621 58.4024Z" fill="black"/>
<path d="M44.7581 61.3498C37.5212 61.6742 30.2795 61.8611 23.0368 61.9086C21.7906 61.9173 21.7877 63.8538 23.0368 63.8451C30.2795 63.7977 37.5212 63.6108 44.7581 63.2864C45.9994 63.2302 46.0062 61.2937 44.7581 61.3498Z" fill="black"/>
<path d="M18.9914 62.0604C12.9823 61.6295 6.9596 61.4358 0.934991 61.4804C-0.310211 61.4891 -0.313116 63.4266 0.934991 63.4169C6.9596 63.3733 12.9823 63.566 18.9914 63.9969C20.2347 64.086 20.2288 62.1494 18.9914 62.0604Z" fill="black"/>
</svg>
