<svg width="170" height="14" viewBox="0 0 170 14" fill="none" xmlns="http://www.w3.org/2000/svg">
<path d="M169.339 9.35537C167.391 7.53615 165.312 5.86581 163.365 4.04659C161.421 2.37195 160.044 1.54755 157.791 3.21117C155.936 4.5727 153.687 6.38089 152.255 8.30781C152.119 8.31212 152.115 8.16754 151.98 8.17185C151.693 7.60215 151.004 7.18995 150.586 6.76913C149.61 5.78723 148.769 4.80102 147.797 3.9637C146.263 2.42072 144.603 1.1712 142.469 2.25218C140.33 3.18859 139.045 5.54494 137.334 7.19132C137.203 7.34021 137.072 7.4891 136.941 7.63799C137.338 7.3359 137.194 7.05105 136.654 7.06828C136.235 6.64747 135.555 6.52443 135.006 6.2525C134.042 5.70434 133.079 5.15618 132.115 4.60802C129.914 3.37573 127.839 1.84998 125.765 0.324222C125.072 -0.232556 123.863 0.0953758 123.339 0.690927C122.43 2.0223 121.518 3.20909 120.609 4.54047C120.089 5.2806 119.569 6.02073 119.049 6.76086C118.918 6.90974 118.787 7.05863 118.66 7.3521C118.529 7.50099 118.529 7.50099 118.529 7.50099C117.296 6.96144 116.18 5.83927 115.073 5.00626C113.831 4.17755 112.584 3.20427 111.207 2.37987C108.858 0.718152 106.534 -0.0760888 104.023 2.02988C102.176 3.68057 100.465 5.32695 98.618 6.97764C97.0969 5.86839 95.58 4.90372 93.9236 3.79878C92.4067 2.83411 90.8772 1.4357 88.9967 1.92976C87.2514 2.4195 85.6792 4.20615 84.2254 5.41018C83.4309 6.01435 82.6364 6.61851 81.9771 7.21837C81.1826 7.82254 80.6417 7.83977 79.6825 7.43619C76.5303 6.08948 74.0164 3.42001 70.488 3.09828C66.8243 2.78086 64.3308 5.46515 61.55 7.57973C60.6245 8.33279 60.7555 8.1839 59.7879 7.49116C58.9597 6.93869 58.2668 6.38191 57.4386 5.82944C55.7823 4.7245 54.126 3.61956 52.2202 3.24613C50.3187 3.01729 48.7212 3.93646 46.9886 4.85994C46.0546 5.32384 45.1207 5.78773 44.1868 6.25163C43.2528 6.71552 41.7948 7.77497 40.582 7.95832C38.9593 8.01002 36.8847 6.48426 35.503 5.51529C33.9819 4.40604 32.7144 2.70986 30.8087 2.33643C29.0382 1.9587 27.3013 2.7376 25.9827 3.93732C24.5289 5.14134 23.2314 7.06396 21.3214 6.54595C19.4157 6.17253 17.882 4.62954 16.2298 3.66918C14.4383 2.56855 12.5199 1.76138 10.3479 1.54115C6.40962 1.08777 2.3992 2.80739 0.345014 6.63539C-0.935696 9.13632 2.64321 11.193 3.92392 8.69207C5.72028 5.30643 9.64175 5.18149 12.6629 6.67709C15.6841 8.17269 18.2023 10.9867 21.7223 11.0193C23.3492 11.1122 24.8156 10.3419 26.1426 9.43134C27.1991 8.5294 29.0249 6.15581 30.4024 6.98021C31.7757 7.66003 33.039 9.21163 34.4206 10.1806C35.9376 11.1453 37.7249 12.1013 39.356 12.3388C41.1223 12.5719 42.5887 11.8017 44.1904 11.0271C46.1935 10.095 48.184 8.72913 50.1913 7.94161C51.9324 7.30729 53.6013 8.84596 54.9788 9.67036C56.3605 10.6393 57.8984 12.3269 59.6647 12.5601C62.7959 13.1839 65.2473 9.05379 67.7829 7.8153C70.7199 6.4193 73.6438 9.22043 76.1199 10.5887C77.6368 11.5533 79.4199 12.3648 81.1694 12.0197C83.0541 11.6702 84.6305 10.0281 86.0843 8.82408C86.8788 8.21992 88.058 6.87993 88.9961 6.56061C89.1313 6.5563 89.3891 6.11395 89.3891 6.11395C89.6596 6.10533 90.6314 6.94265 90.9061 7.07862C92.8413 8.4641 94.9117 9.84528 96.8469 11.2308C96.8469 11.2308 96.9821 11.2264 96.9863 11.371C97.6792 11.9278 98.7652 12.0379 99.5513 11.1446C100.739 10.0938 101.791 9.04725 102.979 7.99642C103.503 7.40086 104.166 6.94559 104.69 6.35003C105.088 6.04795 105.87 5.01005 106.406 4.84823C107.484 4.66919 109.436 6.63299 110.264 7.18546C111.506 8.01417 112.613 8.84718 113.856 9.67588C115.791 11.0614 118.153 13.1568 120.257 11.0638C121.31 10.0173 122.079 8.54561 122.857 7.36313C123.376 6.623 124.027 5.73398 124.547 4.99385C128.003 7.48858 131.587 9.68985 135.423 11.3042C137.752 12.243 139.062 10.7541 140.638 9.11205C141.424 8.21872 142.202 7.03623 143.132 6.42776C143.926 5.82359 143.394 6.12998 144.082 6.54218C144.496 6.81842 145.058 7.52408 145.477 7.9449C146.453 8.9268 147.294 9.91301 148.265 10.7503C148.962 11.4517 149.803 12.4379 150.762 12.8415C152.951 13.64 154.249 11.7174 155.698 10.3688C156.62 9.47117 157.541 8.57354 158.598 7.67159C158.598 7.67159 159.392 7.06743 159.789 6.76534C159.929 6.90561 160.068 7.04589 160.208 7.18616C162.155 9.00538 164.234 10.6757 166.182 12.4949C168.536 14.3012 171.287 11.1746 169.339 9.35537Z" fill="#F7C300"/>
</svg>
