<svg width="203" height="14" viewBox="0 0 203 14" fill="none" xmlns="http://www.w3.org/2000/svg">
<path d="M202.21 10.034C199.884 8.07484 197.4 6.27601 195.073 4.31685C192.751 2.51339 191.106 1.62558 188.415 3.41716C186.198 4.88343 183.513 6.83071 181.801 8.90586C181.639 8.9105 181.634 8.7548 181.473 8.75944C181.13 8.14591 180.307 7.702 179.807 7.24882C178.641 6.19139 177.637 5.12932 176.476 4.22759C174.644 2.56591 172.66 1.22027 170.11 2.38441C167.556 3.39285 166.021 5.93046 163.976 7.70349C163.82 7.86383 163.663 8.02417 163.507 8.18451C163.981 7.85919 163.81 7.55243 163.163 7.57098C162.664 7.1178 161.851 6.98529 161.195 6.69245C160.044 6.10212 158.893 5.51179 157.742 4.92147C155.112 3.59439 152.634 1.95127 150.155 0.308147C149.328 -0.29146 147.884 0.0616968 147.258 0.703059C146.172 2.13685 145.082 3.41493 143.996 4.84872C143.375 5.64578 142.754 6.44284 142.133 7.23991C141.976 7.40025 141.82 7.56059 141.668 7.87663C141.512 8.03697 141.512 8.03697 141.512 8.03697C140.038 7.45592 138.705 6.24743 137.383 5.35034C135.899 4.45789 134.41 3.40973 132.764 2.52192C129.958 0.732378 127.181 -0.122957 124.182 2.14501C121.976 3.92267 119.931 5.6957 117.725 7.47336C115.908 6.27879 114.096 5.23991 112.117 4.04998C110.305 3.01111 108.478 1.50513 106.231 2.03718C104.146 2.5646 102.268 4.48869 100.531 5.78533C99.5822 6.43597 98.6331 7.08661 97.8455 7.73261C96.8963 8.38325 96.2502 8.40181 95.1043 7.96719C91.3386 6.51688 88.3354 3.64207 84.1202 3.29559C79.7435 2.95376 76.7647 5.84453 73.4427 8.12177C72.337 8.93275 72.4936 8.77241 71.3376 8.02638C70.3483 7.43142 69.5205 6.83181 68.5311 6.23684C66.5524 5.04691 64.5737 3.85697 62.2971 3.45482C60.0254 3.20837 58.1171 4.19825 56.0472 5.19277C54.9315 5.69235 53.8158 6.19193 52.7001 6.69151C51.5844 7.19109 49.8426 8.33203 48.3938 8.52948C46.4553 8.58516 43.9769 6.94204 42.3263 5.89853C40.5091 4.70395 38.9949 2.87729 36.7183 2.47514C34.6031 2.06835 32.5282 2.90717 30.953 4.19917C29.2163 5.49582 27.6662 7.56633 25.3845 7.00847C23.1079 6.60632 21.2756 4.94464 19.302 3.91041C17.1617 2.72511 14.87 1.85586 12.2753 1.61869C7.57048 1.13043 2.77953 2.98233 0.325541 7.10479C-1.20443 9.7981 3.07103 12.013 4.601 9.31968C6.74698 5.6736 11.4317 5.53905 15.0409 7.1497C18.6501 8.76034 21.6583 11.7909 25.8634 11.8259C27.8069 11.926 29.5588 11.0964 31.144 10.1158C32.4062 9.14449 34.5874 6.58832 36.2329 7.47613C37.8735 8.20825 39.3826 9.8792 41.0332 10.9227C42.8454 11.9616 44.9806 12.9912 46.9291 13.2469C49.0392 13.498 50.791 12.6685 52.7044 11.8343C55.0974 10.8305 57.4753 9.35958 59.8732 8.51149C61.9532 7.82837 63.947 9.4854 65.5925 10.3732C67.2431 11.4167 69.0804 13.2341 71.1905 13.4852C74.931 14.157 77.8596 9.70922 80.8887 8.37546C84.3973 6.87208 87.8902 9.88867 90.8482 11.3622C92.6604 12.401 94.7906 13.2749 96.8805 12.9032C99.1321 12.5269 101.015 10.7585 102.752 9.46184C103.701 8.8112 105.11 7.36814 106.231 7.02426C106.392 7.01962 106.7 6.54324 106.7 6.54324C107.023 6.53396 108.184 7.43569 108.512 7.58211C110.824 9.07417 113.297 10.5616 115.609 12.0536C115.609 12.0536 115.771 12.049 115.776 12.2047C116.604 12.8043 117.901 12.9229 118.84 11.9609C120.259 10.8292 121.516 9.70217 122.935 8.57051C123.561 7.92915 124.353 7.43885 124.979 6.79748C125.454 6.47216 126.388 5.35442 127.029 5.18016C128.316 4.98734 130.648 7.1022 131.638 7.69717C133.122 8.58962 134.444 9.48672 135.928 10.3792C138.24 11.8712 141.062 14.1279 143.576 11.8738C144.833 10.7468 145.752 9.16195 146.681 7.88851C147.302 7.09144 148.08 6.13404 148.701 5.33698C152.83 8.02361 157.11 10.3942 161.694 12.1327C164.475 13.1437 166.04 11.5403 167.924 9.77196C168.863 8.80991 169.792 7.53647 170.902 6.88119C171.851 6.23055 171.215 6.5605 172.038 7.00441C172.533 7.30189 173.204 8.06184 173.704 8.51503C174.87 9.57246 175.874 10.6345 177.035 11.5363C177.868 12.2916 178.872 13.3536 180.018 13.7883C182.633 14.6482 184.183 12.5777 185.915 11.1254C187.016 10.1587 188.116 9.19202 189.378 8.2207C189.378 8.2207 190.327 7.57006 190.802 7.24474C190.969 7.3958 191.135 7.54686 191.302 7.69792C193.629 9.65709 196.112 11.4559 198.439 13.4151C201.251 15.3603 204.537 11.9932 202.21 10.034Z" fill="#59C69F"/>
</svg>
