<svg width="255" height="15" viewBox="0 0 255 15" fill="none" xmlns="http://www.w3.org/2000/svg">
<path d="M127.042 7.15038C128.643 4.79219 130.982 3.73441 133.327 4.0293C134.986 4.20737 136.469 4.99144 137.865 6.07851C138.273 6.37898 138.674 6.73977 139.078 7.1032C139.946 7.88472 140.828 8.67847 141.825 8.91095C142.966 9.29051 143.78 8.17015 144.588 7.05893C144.819 6.74023 145.05 6.42229 145.289 6.1407C146.254 4.8846 147.551 4.04994 148.909 4.39788C149.93 4.63609 150.734 5.54306 151.532 6.44375C151.876 6.83086 152.218 7.21682 152.576 7.54801C152.632 7.59796 152.689 7.6494 152.748 7.70204C153.824 8.66249 155.344 10.0206 156.512 9.93697C157.169 9.78357 157.909 9.16669 158.531 8.64738C158.776 8.44236 159.004 8.25255 159.201 8.11247L161.288 6.62771C161.352 6.57923 161.415 6.53077 161.478 6.48247C162.695 5.55183 163.835 4.67959 165.216 4.86285C166.677 5.20344 167.97 6.29786 169.263 7.39228C169.587 7.66588 169.884 7.94133 170.182 8.21677C170.48 8.49221 170.777 8.76765 171.101 9.04126C171.211 9.14148 171.303 9.23039 171.382 9.30671C171.846 9.75408 171.862 9.7689 172.443 9.09355C172.789 8.71805 173.128 8.3261 173.467 7.93516C175.133 6.01077 176.778 4.11055 179.101 4.31423C180.808 4.47424 182.234 5.60841 183.67 6.75087C184.5 7.41056 185.333 8.07302 186.225 8.55228C186.967 8.94431 187.378 8.91492 187.963 8.27952C188.446 7.65158 189.031 7.01629 189.617 6.38101C189.88 6.0699 190.148 5.72216 190.421 5.36714C191.257 4.28041 192.149 3.12241 193.138 2.71613C194.317 2.2606 195.352 3.15626 196.348 4.01954C196.547 4.19168 196.745 4.36253 196.941 4.52113C197.27 4.79918 197.591 5.06817 197.908 5.33282C198.836 6.10982 199.72 6.84941 200.608 7.67126C201.285 6.80678 201.936 5.94413 202.587 5.08149C203.238 4.21884 203.889 3.35619 204.566 2.49171C206.41 0.282518 208.201 1.04454 210.039 2.69352C210.715 3.20657 211.354 3.78133 211.977 4.34181C212.341 4.67001 212.701 4.99331 213.059 5.29644C213.313 5.53919 213.569 5.80733 213.827 6.07836C214.45 6.73198 215.089 7.40235 215.763 7.77358L215.859 7.61841C215.946 7.31541 216.041 7.16023 216.136 7.00506L217.253 4.69949C217.578 4.00848 217.905 3.35444 218.232 2.7004C218.559 2.04648 218.886 1.39256 219.211 0.701691C219.591 0.0809923 220.5 -0.280799 221.044 0.27376C222.668 1.78961 224.293 3.30546 226.004 4.51831L228.252 6.13789C228.394 6.22664 228.547 6.29815 228.699 6.36966C229.005 6.51268 229.31 6.6557 229.53 6.93666C229.831 6.91514 229.975 7.06387 229.915 7.26976L230.051 7.04774C230.468 6.47387 230.847 5.82031 231.225 5.16676C231.982 3.85967 232.739 2.55258 233.804 1.88289C235.393 0.730525 236.694 1.97277 237.908 3.51802C238.413 4.07047 238.877 4.69076 239.357 5.33191C239.603 5.66042 239.852 5.99441 240.114 6.32755C240.221 6.46318 240.348 6.59728 240.481 6.736C240.759 7.02836 241.057 7.34128 241.217 7.73232C241.269 7.72865 241.296 7.76377 241.324 7.79889C241.351 7.83401 241.379 7.86913 241.43 7.86545C242.46 5.86288 244.114 3.96404 245.483 2.53072C247.144 0.779709 248.217 1.59317 249.746 3.2642C250.515 4.17363 251.307 5.04426 252.099 5.91489C252.891 6.78552 253.684 7.65615 254.452 8.56558C255.989 10.3844 253.993 13.6431 252.148 11.8463C251.38 10.9369 250.588 10.0662 249.795 9.1956C249.003 8.32497 248.211 7.45434 247.443 6.54491L247.112 6.12348L246.233 7.07658C245.458 8.02232 244.785 8.96072 244.112 9.89912C243.935 10.1352 243.761 10.3876 243.587 10.6407C242.72 11.9005 241.841 13.1769 240.435 12.5362C239.813 12.2075 239.242 11.4578 238.748 10.8101C238.653 10.6854 238.561 10.5645 238.472 10.4511C237.967 9.89869 237.503 9.27842 237.023 8.63729C236.777 8.30876 236.527 7.97475 236.266 7.64159C236.159 7.50596 236.04 7.34046 235.918 7.16926C235.659 6.8085 235.382 6.42237 235.162 6.23682C234.856 6.00408 234.854 5.79809 234.799 5.78349C234.757 5.77258 234.687 5.86863 234.436 6.14044C233.942 6.60198 233.516 7.36464 233.105 8.10271C232.943 8.39248 232.783 8.67845 232.623 8.94093C232.583 9.00012 232.544 9.05912 232.504 9.11784C231.408 10.7594 230.462 12.1755 228.725 11.2971C225.758 9.72896 222.966 7.55481 220.262 5.07767C220.076 5.46193 219.866 5.88499 219.656 6.30805C219.445 6.7311 219.235 7.15416 219.049 7.53842C218.908 7.85149 218.767 8.18381 218.623 8.52335C218.204 9.51423 217.759 10.5666 217.187 11.381C215.789 13.3709 214.124 11.8184 212.694 10.4864C212.553 10.3543 212.413 10.2244 212.277 10.1004C211.792 9.68995 211.332 9.2777 210.873 8.86546C210.414 8.45321 209.954 8.04097 209.469 7.63056C209.304 7.49046 209.079 7.2573 208.823 6.99139C208.08 6.21874 207.07 5.16958 206.464 5.32329C206.202 5.43867 205.872 5.93621 205.593 6.35707C205.443 6.58266 205.308 6.78622 205.206 6.89709C205.016 7.20743 204.798 7.48266 204.581 7.75789C204.363 8.03312 204.145 8.30835 203.955 8.6187C203.52 9.16921 203.11 9.71788 202.7 10.2665C202.291 10.8151 201.881 11.3637 201.446 11.9141C200.876 12.8452 200.047 12.7561 199.503 12.2016C199.495 12.0537 199.392 12.0611 199.392 12.0611C198.635 11.3735 197.853 10.6877 197.07 10.0019C196.288 9.31596 195.505 8.63006 194.748 7.94232C194.671 7.89412 194.521 7.75386 194.352 7.59521C194.054 7.31565 193.696 6.979 193.565 6.98838C193.565 6.98838 193.382 7.44655 193.28 7.4539C192.804 7.68855 192.259 8.40283 191.775 9.03733C191.543 9.34138 191.325 9.62712 191.135 9.83296C190.948 10.0544 190.758 10.2897 190.565 10.5294C189.656 11.6569 188.67 12.8805 187.497 13.2092C186.177 13.6004 184.796 12.809 183.613 11.855C183.203 11.5677 182.774 11.2141 182.333 10.85C180.708 9.50842 178.912 8.02538 177.189 9.19898C176.517 9.66966 175.863 10.515 175.193 11.3829C173.979 12.953 172.708 14.597 171.163 14.2299C170.17 14.0828 169.248 13.129 168.399 12.2522C168.094 11.9361 167.797 11.6301 167.511 11.3754C167.308 11.2213 167.096 11.0412 166.877 10.8552C165.94 10.0592 164.875 9.1541 163.818 9.71085C162.96 10.1962 162.111 10.8746 161.263 11.5531C160.627 12.0619 159.991 12.5707 159.35 12.9981C159.29 13.04 159.229 13.0819 159.169 13.1237C158.045 13.9059 156.997 14.6352 155.715 14.4452C154.467 14.2378 153.079 13.2985 151.896 12.3446C151.447 11.9453 151.011 11.4429 150.578 10.9441C149.969 10.2418 149.365 9.5469 148.743 9.1577C147.89 8.51084 146.883 9.93902 146.117 11.0267C145.919 11.3068 145.738 11.5644 145.579 11.7581C144.598 12.7185 143.507 13.5385 142.267 13.4788C140.457 13.5081 138.957 12.2273 137.451 10.9418C136.728 10.3255 136.005 9.70805 135.245 9.23345C133.221 7.96826 130.723 7.95522 129.267 10.234C129.536 11.9616 127.941 13.8271 126.445 12.3706C125.677 11.4612 124.885 10.5905 124.093 9.71989C123.3 8.84926 122.508 7.97863 121.74 7.06921L121.409 6.64778L120.53 7.60087C119.755 8.54661 119.082 9.48501 118.409 10.4234C118.232 10.6595 118.058 10.9119 117.884 11.165C117.017 12.4248 116.138 13.7012 114.732 13.0605C114.11 12.7318 113.539 11.9821 113.045 11.3344C112.95 11.2097 112.858 11.0888 112.769 10.9754C112.264 10.423 111.8 9.80271 111.32 9.16158C111.074 8.83305 110.824 8.49904 110.563 8.16588C110.456 8.03025 110.337 7.86476 110.215 7.69355C109.956 7.33279 109.679 6.94666 109.459 6.76111C109.153 6.52837 109.151 6.32238 109.096 6.30778C109.055 6.29687 108.984 6.39292 108.733 6.66473C108.239 7.12627 107.813 7.88891 107.402 8.62698C107.24 8.91675 107.08 9.20274 106.92 9.46522C106.88 9.52441 106.841 9.58341 106.801 9.64211C105.705 11.2837 104.759 12.6998 103.022 11.8214C100.055 10.2532 97.2634 8.07911 94.5588 5.60196C94.3725 5.98623 94.1625 6.40928 93.9525 6.83234C93.7425 7.25539 93.5325 7.67845 93.3463 8.06271C93.2046 8.37577 93.064 8.70808 92.9203 9.04761C92.501 10.0385 92.0557 11.0908 91.4838 11.9053C90.0864 13.8952 88.4206 12.3427 86.9914 11.0107C86.8497 10.8786 86.7103 10.7487 86.5737 10.6246C86.0887 10.2142 85.6294 9.80199 85.17 9.38975C84.7107 8.9775 84.2514 8.56526 83.7664 8.15485C83.6008 8.01475 83.3764 7.7816 83.1205 7.5157C82.3767 6.74305 81.3668 5.69387 80.7614 5.84758C80.499 5.96296 80.1689 6.46053 79.8898 6.8814C79.7401 7.10697 79.6051 7.31052 79.503 7.42138C79.3129 7.73172 79.0952 8.00696 78.8776 8.28218C78.6599 8.55742 78.4423 8.83265 78.2522 9.14299C77.8169 9.69345 77.4073 10.2421 76.9976 10.7907C76.588 11.3393 76.1783 11.8879 75.743 12.4384C75.1728 13.3695 74.3437 13.2804 73.7998 12.7259C73.7921 12.578 73.6894 12.5854 73.6894 12.5854C72.9325 11.8977 72.1498 11.2119 71.3672 10.5261C70.5845 9.84019 69.8018 9.15432 69.0448 8.46661C68.9677 8.41841 68.8183 8.27814 68.6493 8.11948C68.3515 7.83993 67.9929 7.50329 67.8618 7.51267C67.8618 7.51267 67.6794 7.97084 67.5767 7.97819C67.1012 8.21284 66.5562 8.92715 66.0721 9.56165C65.8401 9.8657 65.6221 10.1514 65.4324 10.3573C65.2452 10.5787 65.0555 10.814 64.8622 11.0537C63.9532 12.1812 62.9667 13.4048 61.7938 13.7335C60.4742 14.1247 59.0935 13.3333 57.9105 12.3793C57.4996 12.092 57.0713 11.7383 56.6303 11.3743C55.0054 10.0327 53.2091 8.54967 51.4864 9.72327C50.8137 10.194 50.1604 11.0393 49.4896 11.9072C48.2761 13.4773 47.0055 15.1213 45.4599 14.7541C44.4675 14.6071 43.5447 13.6533 42.6963 12.7765C42.3906 12.4604 42.0945 12.1544 41.8082 11.8997C41.6051 11.7456 41.3932 11.5655 41.1742 11.3795C40.2374 10.5834 39.1723 9.6784 38.115 10.2351C37.2567 10.7205 36.4085 11.3989 35.5602 12.0774C34.9239 12.5862 34.2877 13.095 33.6473 13.5224C33.5868 13.5643 33.5265 13.6062 33.4665 13.648C32.342 14.4302 31.2936 15.1595 30.0119 14.9695C28.7645 14.7621 27.3761 13.8228 26.1931 12.8689C25.7445 12.4696 25.3082 11.9672 24.8752 11.4684C24.2656 10.7661 23.6623 10.0712 23.0396 9.68199C22.1866 9.03513 21.1802 10.4633 20.4138 11.551C20.2164 11.8311 20.0349 12.0887 19.8761 12.2824C18.8951 13.2428 17.8039 14.0628 16.5641 14.0031C14.7544 14.0324 13.2537 12.7516 11.7475 11.4661C11.0253 10.8498 10.3019 10.2323 9.54253 9.75774C7.19947 8.29333 4.22173 8.50645 2.96002 12.0093C2.06317 14.5959 -0.721193 12.5695 0.175662 9.98301C1.6198 6.02196 4.61614 4.17541 7.62445 4.5536C9.28263 4.73167 10.766 5.51574 12.162 6.60281C12.5701 6.90328 12.971 7.26407 13.3747 7.6275C14.243 8.40902 15.1249 9.20276 16.1217 9.43524C17.2626 9.8148 18.077 8.69444 18.8847 7.58322C19.1164 7.26452 19.3475 6.94658 19.5856 6.66499C20.5513 5.4089 21.8479 4.57423 23.2057 4.92217C24.2271 5.16039 25.0311 6.06737 25.8295 6.96805C26.1726 7.35516 26.5147 7.74111 26.8726 8.07231C26.9288 8.12225 26.9864 8.17369 27.0453 8.22633C28.1207 9.18678 29.6413 10.5449 30.8094 10.4613C31.4665 10.3079 32.2056 9.69098 32.8277 9.17166C33.0733 8.96665 33.3008 8.77684 33.4977 8.63676L35.5852 7.152C35.6488 7.10352 35.7122 7.05506 35.7753 7.00676C36.9919 6.07613 38.1322 5.20388 39.5133 5.38714C40.9738 5.72773 42.2671 6.82215 43.5604 7.91657C43.8837 8.19017 44.1814 8.46561 44.479 8.74105C44.7767 9.01649 45.0744 9.29194 45.3977 9.56555C45.508 9.66577 45.6003 9.75468 45.6794 9.831C46.1435 10.2784 46.1588 10.2932 46.7402 9.61784C47.0862 9.24234 47.4255 8.85039 47.7639 8.45945C49.4298 6.53506 51.0748 4.63484 53.3981 4.83852C55.1051 4.99853 56.5311 6.1327 57.9675 7.27516C58.7969 7.93485 59.6299 8.59731 60.5223 9.07657C61.264 9.4686 61.6748 9.43921 62.2603 8.80381C62.7431 8.17579 63.3285 7.54043 63.914 6.90507C64.1771 6.59396 64.4446 6.24645 64.7179 5.89144C65.5545 4.80471 66.4459 3.64671 67.4348 3.24042C68.6142 2.78489 69.6486 3.68056 70.6455 4.54384C70.8443 4.71598 71.0416 4.88683 71.2383 5.04542C71.5669 5.32344 71.8883 5.59239 72.2045 5.857C73.1332 6.63404 74.0171 7.37367 74.9053 8.19555C75.582 7.3311 76.233 6.46849 76.884 5.60588C77.5351 4.7432 78.1862 3.88052 78.8629 3.016C80.7068 0.80681 82.4983 1.56883 84.3356 3.21781C85.0121 3.73086 85.6508 4.30562 86.2737 4.8661C86.6384 5.1943 86.9976 5.5176 87.3559 5.82073C87.6101 6.06348 87.8656 6.33163 88.1239 6.60266C88.7468 7.25628 89.3856 7.92665 90.0605 8.29788L90.1555 8.1427C90.2429 7.8397 90.3379 7.68453 90.433 7.52935L91.5505 5.22378C91.8755 4.53287 92.2023 3.87892 92.5292 3.22498C92.8561 2.57096 93.183 1.91695 93.508 1.22598C93.8882 0.605284 94.797 0.243493 95.341 0.798051C96.9653 2.3139 98.5896 3.82975 100.301 5.0426L102.549 6.66218C102.691 6.75094 102.844 6.82245 102.996 6.89396C103.302 7.03698 103.607 7.18 103.827 7.46095C104.128 7.43943 104.272 7.58817 104.212 7.79405L104.348 7.57204C104.765 6.99816 105.144 6.34461 105.522 5.69107C106.279 4.38397 107.036 3.07687 108.101 2.40718C109.69 1.25482 110.991 2.49706 112.205 4.04231C112.71 4.59474 113.174 5.21502 113.654 5.85615C113.9 6.18468 114.149 6.51868 114.411 6.85185C114.518 6.98747 114.645 7.12157 114.778 7.26031C115.056 7.55266 115.354 7.86557 115.514 8.25661C115.566 8.25294 115.593 8.28806 115.621 8.32318C115.648 8.3583 115.676 8.39342 115.727 8.38974C116.757 6.38717 118.411 4.48833 119.78 3.05501C121.442 1.304 122.514 2.11747 124.043 3.78849C124.812 4.6979 125.604 5.56852 126.396 6.43913C126.612 6.67596 126.827 6.91278 127.042 7.15038Z" fill="#F7C300"/>
</svg>
