<svg width="120" height="14" viewBox="0 0 120 14" fill="none" xmlns="http://www.w3.org/2000/svg">
<path d="M119.533 10.034C118.158 8.07484 116.69 6.27601 115.314 4.31685C113.942 2.51339 112.969 1.62558 111.378 3.41716C110.068 4.88343 108.48 6.83071 107.469 8.90586C107.373 8.9105 107.37 8.7548 107.275 8.75944C107.072 8.14591 106.585 7.702 106.29 7.24882C105.601 6.19139 105.007 5.12932 104.321 4.22759C103.238 2.56591 102.065 1.22027 100.558 2.38441C99.0478 3.39285 98.1404 5.93046 96.9317 7.70349C96.8392 7.86383 96.7467 8.02417 96.6542 8.18451C96.9347 7.85919 96.8332 7.55243 96.4513 7.57098C96.1559 7.1178 95.6755 6.98529 95.2875 6.69245C94.6072 6.10212 93.9269 5.51179 93.2466 4.92147C91.6919 3.59439 90.2269 1.95127 88.7618 0.308147C88.2725 -0.29146 87.419 0.0616968 87.0489 0.703059C86.4072 2.13685 85.7625 3.41493 85.1208 4.84872C84.7537 5.64578 84.3866 6.44284 84.0194 7.23991C83.9269 7.40025 83.8344 7.56059 83.7449 7.87663C83.6523 8.03697 83.6523 8.03697 83.6523 8.03697C82.781 7.45592 81.9933 6.24743 81.2115 5.35034C80.3343 4.45789 79.4541 3.40973 78.4813 2.52192C76.8223 0.732378 75.1811 -0.122957 73.4083 2.14501C72.1041 3.92267 70.8954 5.6957 69.5912 7.47336C68.517 6.27879 67.4458 5.23991 66.2761 4.04998C65.2049 3.01111 64.1248 1.50513 62.7968 2.03718C61.5643 2.5646 60.4541 4.48869 59.4274 5.78533C58.8663 6.43597 58.3053 7.08661 57.8397 7.73261C57.2786 8.38325 56.8967 8.40181 56.2193 7.96719C53.9933 6.51688 52.2179 3.64207 49.7262 3.29559C47.139 2.95376 45.3782 5.84453 43.4144 8.12177C42.7608 8.93275 42.8533 8.77241 42.17 8.02638C41.5852 7.43142 41.0958 6.83181 40.511 6.23684C39.3413 5.04691 38.1717 3.85697 36.8259 3.45482C35.483 3.20837 34.3549 4.19825 33.1314 5.19277C32.4718 5.69235 31.8123 6.19193 31.1528 6.69151C30.4932 7.19109 29.4636 8.33203 28.6071 8.52948C27.4612 8.58516 25.9962 6.94204 25.0204 5.89853C23.9463 4.70395 23.0512 2.87729 21.7054 2.47514C20.4551 2.06835 19.2285 2.90717 18.2974 4.19917C17.2707 5.49582 16.3544 7.56633 15.0056 7.00847C13.6598 6.60632 12.5767 4.94464 11.41 3.91041C10.1449 2.72511 8.79014 1.85586 7.25632 1.61869C4.47516 1.13043 1.64307 2.98233 0.192438 7.10479C-0.711978 9.7981 1.81539 12.013 2.7198 9.31968C3.98836 5.6736 6.75764 5.53905 8.89116 7.1497C11.0247 8.76034 12.8029 11.7909 15.2887 11.8259C16.4376 11.926 17.4732 11.0964 18.4103 10.1158C19.1564 9.14449 20.4457 6.58832 21.4185 7.47613C22.3883 8.20825 23.2804 9.8792 24.2561 10.9227C25.3273 11.9616 26.5895 12.9912 27.7414 13.2469C28.9887 13.498 30.0243 12.6685 31.1553 11.8343C32.5699 10.8305 33.9755 9.35958 35.393 8.51149C36.6226 7.82837 37.8012 9.4854 38.7739 10.3732C39.7496 11.4167 40.8357 13.2341 42.083 13.4852C44.2942 14.157 46.0254 9.70922 47.816 8.37546C49.8901 6.87208 51.9548 9.88867 53.7034 11.3622C54.7746 12.401 56.0338 13.2749 57.2693 12.9032C58.6002 12.5269 59.7135 10.7585 60.7401 9.46184C61.3012 8.8112 62.1339 7.36814 62.7964 7.02426C62.8919 7.01962 63.0739 6.54324 63.0739 6.54324C63.2649 6.53396 63.9512 7.43569 64.1452 7.58211C65.5118 9.07417 66.9738 10.5616 68.3405 12.0536C68.3405 12.0536 68.4359 12.049 68.4389 12.2047C68.9283 12.8043 69.6952 12.9229 70.2503 11.9609C71.0889 10.8292 71.8321 9.70217 72.6707 8.57051C73.0408 7.92915 73.5093 7.43885 73.8794 6.79748C74.16 6.47216 74.7121 5.35442 75.0911 5.18016C75.8521 4.98734 77.2306 7.1022 77.8154 7.69717C78.6927 8.58962 79.4744 9.48672 80.3517 10.3792C81.7183 11.8712 83.3862 14.1279 84.8725 11.8738C85.6157 10.7468 86.1589 9.16195 86.7081 7.88851C87.0752 7.09144 87.5348 6.13404 87.902 5.33698C90.3427 8.02361 92.8731 10.3942 95.5825 12.1327C97.2267 13.1437 98.1519 11.5403 99.2651 9.77196C99.8203 8.80991 100.369 7.53647 101.026 6.88119C101.587 6.23055 101.211 6.5605 101.697 7.00441C101.99 7.30189 102.387 8.06184 102.682 8.51503C103.371 9.57246 103.965 10.6345 104.651 11.5363C105.144 12.2916 105.737 13.3536 106.415 13.7883C107.96 14.6482 108.877 12.5777 109.9 11.1254C110.551 10.1587 111.202 9.19202 111.948 8.2207C111.948 8.2207 112.509 7.57006 112.789 7.24474C112.888 7.3958 112.986 7.54686 113.085 7.69792C114.46 9.65709 115.928 11.4559 117.304 13.4151C118.966 15.3603 120.909 11.9932 119.533 10.034Z" fill="#59C69F"/>
</svg>
