<svg width="141" height="13" viewBox="0 0 141 13" fill="none" xmlns="http://www.w3.org/2000/svg">
<path d="M140.452 9.31728C138.835 7.49806 137.11 5.82773 135.494 4.00851C133.881 2.33386 132.738 1.50947 130.869 3.17308C129.33 4.53461 127.464 6.3428 126.276 8.26972C126.163 8.27403 126.16 8.12945 126.048 8.13376C125.809 7.56406 125.238 7.15186 124.891 6.73105C124.081 5.74915 123.383 4.76294 122.577 3.92562C121.304 2.38263 119.926 1.13311 118.156 2.2141C116.381 3.1505 115.315 5.50686 113.895 7.15324C113.786 7.30213 113.677 7.45101 113.569 7.5999C113.898 7.29782 113.779 7.01297 113.33 7.0302C112.983 6.60938 112.419 6.48634 111.963 6.21442C111.163 5.66626 110.364 5.11809 109.565 4.56993C107.738 3.33765 106.017 1.81189 104.295 0.286136C103.72 -0.270642 102.717 0.0572899 102.282 0.652841C101.528 1.98421 100.771 3.17101 100.017 4.50238C99.5856 5.24251 99.1542 5.98264 98.7229 6.72277C98.6141 6.87166 98.5054 7.02055 98.4002 7.31401C98.2915 7.4629 98.2915 7.4629 98.2915 7.4629C97.2677 6.92336 96.3421 5.80118 95.4236 4.96817C94.3928 4.13946 93.3585 3.16618 92.2156 2.34178C90.2662 0.680066 88.3378 -0.114175 86.2548 1.99179C84.7223 3.64248 83.3021 5.28886 81.7697 6.93955C80.5075 5.8303 79.2488 4.86563 77.8744 3.76069C76.6158 2.79603 75.3466 1.39762 73.7862 1.89167C72.3381 2.38141 71.0335 4.16807 69.8272 5.37209C69.168 5.97626 68.5087 6.58042 67.9616 7.18028C67.3024 7.78445 66.8536 7.80168 66.0577 7.3981C63.4421 6.05139 61.3561 3.38192 58.4283 3.06019C55.3884 2.74277 53.3193 5.42706 51.0119 7.54164C50.244 8.2947 50.3527 8.14581 49.5498 7.45307C48.8626 6.9006 48.2876 6.34382 47.6004 5.79135C46.2261 4.68641 44.8517 3.58147 43.2704 3.20805C41.6925 2.9792 40.3671 3.89837 38.9294 4.82186C38.1544 5.28575 37.3794 5.74965 36.6045 6.21354C35.8295 6.67744 34.6197 7.73688 33.6134 7.92024C32.267 7.97193 30.5455 6.44618 29.399 5.4772C28.1369 4.36795 27.0851 2.67177 25.5038 2.29835C24.0347 1.92061 22.5935 2.69951 21.4994 3.89923C20.2931 5.10326 19.2164 7.02587 17.6316 6.50787C16.0503 6.13444 14.7777 4.59145 13.4068 3.63109C11.9202 2.53046 10.3284 1.7233 8.52618 1.50307C5.25831 1.04968 1.93061 2.7693 0.226115 6.5973C-0.836575 9.09823 2.13308 11.1549 3.19577 8.65398C4.68633 5.26834 7.94023 5.14341 10.4471 6.63901C12.954 8.1346 15.0435 10.9486 17.9642 10.9812C19.3142 11.0741 20.531 10.3038 21.6321 9.39326C22.5087 8.49131 24.0237 6.11773 25.1667 6.94213C26.3062 7.62194 27.3544 9.17354 28.5009 10.1425C29.7596 11.1072 31.2427 12.0632 32.5961 12.3007C34.0617 12.5339 35.2785 11.7636 36.6075 10.989C38.2696 10.0569 39.9212 8.69104 41.5868 7.90352C43.0315 7.2692 44.4164 8.80788 45.5593 9.63227C46.7058 10.6012 47.9819 12.2888 49.4476 12.522C52.0457 13.1458 54.0798 9.0157 56.1838 7.77721C58.6208 6.38122 61.0469 9.18234 63.1015 10.5506C64.3602 11.5153 65.8398 12.3267 67.2914 11.9816C68.8553 11.6321 70.1633 9.99002 71.3696 8.786C72.0289 8.18183 73.0073 6.84184 73.7858 6.52253C73.898 6.51822 74.1119 6.07586 74.1119 6.07586C74.3363 6.06725 75.1427 6.90457 75.3706 7.04053C76.9763 8.42601 78.6943 9.80719 80.3 11.1927C80.3 11.1927 80.4122 11.1884 80.4157 11.3329C80.9907 11.8897 81.8918 11.9998 82.5441 11.1065C83.5295 10.0557 84.4027 9.00916 85.3881 7.95833C85.8229 7.36278 86.3735 6.9075 86.8083 6.31195C87.138 6.00986 87.7868 4.97196 88.2321 4.81015C89.1262 4.6311 90.7459 6.5949 91.4331 7.14737C92.4639 7.97608 93.3825 8.80909 94.4132 9.6378C96.019 11.0233 97.9788 13.1187 99.7252 11.0257C100.598 9.97917 101.237 8.50753 101.882 7.32504C102.313 6.58491 102.853 5.69589 103.285 4.95576C106.153 7.45049 109.126 9.65176 112.309 11.2661C114.241 12.2049 115.328 10.716 116.637 9.07396C117.289 8.18063 117.934 6.99815 118.706 6.38967C119.365 5.78551 118.923 6.0919 119.494 6.5041C119.838 6.78033 120.304 7.486 120.651 7.90681C121.461 8.88871 122.159 9.87492 122.965 10.7122C123.544 11.4136 124.241 12.3998 125.037 12.8034C126.854 13.6019 127.93 11.6793 129.133 10.3307C129.897 9.43308 130.662 8.53545 131.539 7.63351C131.539 7.63351 132.198 7.02934 132.528 6.72726C132.643 6.86753 132.759 7.0078 132.875 7.14807C134.491 8.96729 136.216 10.6376 137.832 12.4568C139.785 14.2631 142.068 11.1365 140.452 9.31728Z" fill="#F7C300"/>
</svg>
