<svg width="114" height="14" viewBox="0 0 114 14" fill="none" xmlns="http://www.w3.org/2000/svg">
<path d="M113.557 10.034C112.25 8.07484 110.855 6.27601 109.548 4.31685C108.245 2.51339 107.32 1.62558 105.809 3.41716C104.565 4.88343 103.056 6.83071 102.095 8.90586C102.004 8.9105 102.002 8.7548 101.911 8.75944C101.718 8.14591 101.256 7.702 100.975 7.24882C100.321 6.19139 99.7566 5.12932 99.1047 4.22759C98.0757 2.56591 96.9617 1.22027 95.53 2.38441C94.0954 3.39285 93.2334 5.93046 92.0851 7.70349C91.9972 7.86383 91.9093 8.02417 91.8214 8.18451C92.088 7.85919 91.9916 7.55243 91.6287 7.57098C91.3481 7.1178 90.8917 6.98529 90.5232 6.69245C89.8769 6.10212 89.2305 5.51179 88.5842 4.92147C87.1073 3.59439 85.7155 1.95127 84.3237 0.308147C83.8588 -0.29146 83.048 0.0616968 82.6964 0.703059C82.0868 2.13685 81.4744 3.41493 80.8648 4.84872C80.516 5.64578 80.1672 6.44284 79.8185 7.23991C79.7306 7.40025 79.6427 7.56059 79.5576 7.87663C79.4697 8.03697 79.4697 8.03697 79.4697 8.03697C78.642 7.45592 77.8936 6.24743 77.151 5.35034C76.3176 4.45789 75.4814 3.40973 74.5573 2.52192C72.9812 0.732378 71.422 -0.122957 69.7379 2.14501C68.4989 3.92267 67.3506 5.6957 66.1116 7.47336C65.0912 6.27879 64.0735 5.23991 62.9623 4.04998C61.9447 3.01111 60.9185 1.50513 59.657 2.03718C58.4861 2.5646 57.4314 4.48869 56.456 5.78533C55.923 6.43597 55.39 7.08661 54.9477 7.73261C54.4147 8.38325 54.0518 8.40181 53.4083 7.96719C51.2936 6.51688 49.607 3.64207 47.2399 3.29559C44.7821 2.95376 43.1092 5.84453 41.2437 8.12177C40.6228 8.93275 40.7107 8.77241 40.0615 8.02638C39.5059 7.43142 39.0411 6.83181 38.4855 6.23684C37.3743 5.04691 36.2631 3.85697 34.9846 3.45482C33.7089 3.20837 32.6372 4.19825 31.4748 5.19277C30.8482 5.69235 30.2217 6.19193 29.5951 6.69151C28.9686 7.19109 27.9904 8.33203 27.1768 8.52948C26.0882 8.58516 24.6964 6.94204 23.7694 5.89853C22.749 4.70395 21.8986 2.87729 20.6201 2.47514C19.4323 2.06835 18.2671 2.90717 17.3825 4.19917C16.4072 5.49582 15.5367 7.56633 14.2554 7.00847C12.9768 6.60632 11.9479 4.94464 10.8395 3.91041C9.63762 2.72511 8.35063 1.85586 6.89351 1.61869C4.2514 1.13043 1.56092 2.98233 0.182816 7.10479C-0.67638 9.7981 1.72462 12.013 2.58381 9.31968C3.78895 5.6736 6.41976 5.53905 8.4466 7.1497C10.4734 8.76034 12.1628 11.7909 14.5243 11.8259C15.6157 11.926 16.5995 11.0964 17.4897 10.1158C18.1986 9.14449 19.4234 6.58832 20.3476 7.47613C21.2688 8.20825 22.1164 9.8792 23.0433 10.9227C24.0609 11.9616 25.26 12.9912 26.3543 13.2469C27.5393 13.498 28.523 12.6685 29.5975 11.8343C30.9414 10.8305 32.2767 9.35958 33.6234 8.51149C34.7914 7.82837 35.9111 9.4854 36.8352 10.3732C37.7621 11.4167 38.7939 13.2341 39.9789 13.4852C42.0795 14.157 43.7241 9.70922 45.4252 8.37546C47.3956 6.87208 49.3571 9.88867 51.0182 11.3622C52.0359 12.401 53.2321 13.2749 54.4058 12.9032C55.6702 12.5269 56.7278 10.7585 57.7031 9.46184C58.2361 8.8112 59.0272 7.36814 59.6566 7.02426C59.7473 7.01962 59.9202 6.54324 59.9202 6.54324C60.1017 6.53396 60.7536 7.43569 60.9379 7.58211C62.2362 9.07417 63.6252 10.5616 64.9234 12.0536C64.9234 12.0536 65.0141 12.049 65.017 12.2047C65.4818 12.8043 66.2104 12.9229 66.7378 11.9609C67.5345 10.8292 68.2405 9.70217 69.0372 8.57051C69.3888 7.92915 69.8339 7.43885 70.1855 6.79748C70.452 6.47216 70.9765 5.35442 71.3366 5.18016C72.0595 4.98734 73.369 7.1022 73.9246 7.69717C74.758 8.58962 75.5007 9.48672 76.3341 10.3792C77.6324 11.8712 79.2169 14.1279 80.6289 11.8738C81.3349 10.7468 81.851 9.16195 82.3727 7.88851C82.7214 7.09144 83.1581 6.13404 83.5069 5.33698C85.8256 8.02361 88.2294 10.3942 90.8034 12.1327C92.3653 13.1437 93.2443 11.5403 94.3019 9.77196C94.8292 8.80991 95.351 7.53647 95.9747 6.88119C96.5077 6.23055 96.1505 6.5605 96.6125 7.00441C96.8904 7.30189 97.2673 8.06184 97.5479 8.51503C98.2027 9.57246 98.7668 10.6345 99.4187 11.5363C99.8865 12.2916 100.451 13.3536 101.094 13.7883C102.562 14.6482 103.433 12.5777 104.405 11.1254C105.023 10.1587 105.642 9.19202 106.35 8.2207C106.35 8.2207 106.883 7.57006 107.15 7.24474C107.243 7.3958 107.337 7.54686 107.431 7.69792C108.737 9.65709 110.132 11.4559 111.439 13.4151C113.018 15.3603 114.863 11.9932 113.557 10.034Z" fill="#59C69F"/>
</svg>
