<svg width="131" height="13" viewBox="0 0 131 13" fill="none" xmlns="http://www.w3.org/2000/svg">
<path d="M130.49 9.31728C128.989 7.49806 127.386 5.82773 125.885 4.00851C124.386 2.33386 123.324 1.50947 121.588 3.17308C120.158 4.53461 118.424 6.3428 117.32 8.26972C117.216 8.27403 117.212 8.12945 117.108 8.13376C116.887 7.56406 116.356 7.15186 116.033 6.73105C115.281 5.74915 114.633 4.76294 113.883 3.92562C112.701 2.38263 111.421 1.13311 109.776 2.2141C108.127 3.1505 107.137 5.50686 105.817 7.15324C105.716 7.30213 105.615 7.45101 105.514 7.5999C105.82 7.29782 105.71 7.01297 105.293 7.0302C104.97 6.60938 104.446 6.48634 104.022 6.21442C103.28 5.66626 102.537 5.11809 101.794 4.56993C100.097 3.33765 98.4977 1.81189 96.8983 0.286136C96.3641 -0.270642 95.4324 0.0572899 95.0284 0.652841C94.3278 1.98421 93.6241 3.17101 92.9235 4.50238C92.5228 5.24251 92.122 5.98264 91.7212 6.72277C91.6202 6.87166 91.5192 7.02055 91.4215 7.31401C91.3205 7.4629 91.3205 7.4629 91.3205 7.4629C90.3693 6.92336 89.5094 5.80118 88.6559 4.96817C87.6983 4.13946 86.7374 3.16618 85.6754 2.34178C83.8643 0.680066 82.0727 -0.114175 80.1374 1.99179C78.7137 3.64248 77.3941 5.28886 75.9704 6.93955C74.7977 5.8303 73.6283 4.86563 72.3514 3.76069C71.182 2.79603 70.0029 1.39762 68.5532 1.89167C67.2077 2.38141 65.9957 4.16807 64.8749 5.37209C64.2624 5.97626 63.6499 6.58042 63.1417 7.18028C62.5292 7.78445 62.1122 7.80168 61.3727 7.3981C58.9426 6.05139 57.0046 3.38192 54.2845 3.06019C51.4601 2.74277 49.5378 5.42706 47.3941 7.54164C46.6806 8.2947 46.7816 8.14581 46.0356 7.45307C45.3972 6.9006 44.863 6.34382 44.2245 5.79135C42.9476 4.68641 41.6707 3.58147 40.2016 3.20805C38.7356 2.9792 37.5041 3.89837 36.1684 4.82186C35.4484 5.28575 34.7284 5.74965 34.0084 6.21354C33.2884 6.67744 32.1644 7.73688 31.2295 7.92024C29.9785 7.97193 28.3792 6.44618 27.314 5.4772C26.1413 4.36795 25.1642 2.67177 23.695 2.29835C22.3301 1.92061 20.9911 2.69951 19.9746 3.89923C18.8539 5.10326 17.8536 7.02587 16.3812 6.50787C14.912 6.13444 13.7296 4.59145 12.4559 3.63109C11.0748 2.53046 9.5959 1.7233 7.92148 1.50307C4.88538 1.04968 1.79368 2.7693 0.210078 6.5973C-0.777243 9.09823 1.9818 11.1549 2.96912 8.65398C4.35396 5.26834 7.37709 5.14341 9.70618 6.63901C12.0353 8.1346 13.9766 10.9486 16.6902 10.9812C17.9444 11.0741 19.0749 10.3038 20.0979 9.39326C20.9124 8.49131 22.3199 6.11773 23.3818 6.94213C24.4405 7.62194 25.4144 9.17354 26.4796 10.1425C27.649 11.1072 29.0269 12.0632 30.2843 12.3007C31.646 12.5339 32.7765 11.7636 34.0112 10.989C35.5554 10.0569 37.0899 8.69104 38.6374 7.90352C39.9796 7.2692 41.2663 8.80788 42.3282 9.63227C43.3933 10.6012 44.579 12.2888 45.9406 12.522C48.3545 13.1458 50.2444 9.0157 52.1991 7.77721C54.4633 6.38122 56.7173 9.18234 58.6262 10.5506C59.7956 11.5153 61.1703 12.3267 62.519 11.9816C63.9719 11.6321 65.1872 9.99002 66.308 8.786C66.9205 8.18183 67.8295 6.84184 68.5527 6.52253C68.657 6.51822 68.8557 6.07586 68.8557 6.07586C69.0642 6.06725 69.8134 6.90457 70.0251 7.04053C71.517 8.42601 73.1131 9.80719 74.605 11.1927C74.605 11.1927 74.7092 11.1884 74.7125 11.3329C75.2467 11.8897 76.0839 11.9998 76.6899 11.1065C77.6054 10.0557 78.4167 9.00916 79.3322 7.95833C79.7362 7.36278 80.2477 6.9075 80.6517 6.31195C80.958 6.00986 81.5607 4.97196 81.9745 4.81015C82.8052 4.6311 84.3101 6.5949 84.9485 7.14737C85.9062 7.97608 86.7596 8.80909 87.7173 9.6378C89.2091 11.0233 91.03 13.1187 92.6525 11.0257C93.4638 9.97917 94.0568 8.50753 94.6563 7.32504C95.0571 6.58491 95.5589 5.69589 95.9596 4.95576C98.6242 7.45049 101.386 9.65176 104.344 11.2661C106.139 12.2049 107.149 10.716 108.364 9.07396C108.97 8.18063 109.57 6.99815 110.287 6.38967C110.899 5.78551 110.489 6.0919 111.02 6.5041C111.339 6.78033 111.772 7.486 112.095 7.90681C112.847 8.88871 113.495 9.87492 114.244 10.7122C114.782 11.4136 115.43 12.3998 116.169 12.8034C117.857 13.6019 118.857 11.6793 119.975 10.3307C120.685 9.43308 121.395 8.53545 122.21 7.63351C122.21 7.63351 122.822 7.02934 123.128 6.72726C123.236 6.86753 123.343 7.0078 123.451 7.14807C124.952 8.96729 126.555 10.6376 128.057 12.4568C129.871 14.2631 131.992 11.1365 130.49 9.31728Z" fill="#F7C300"/>
</svg>
