<svg width="64" height="36" viewBox="0 0 64 36" fill="none" xmlns="http://www.w3.org/2000/svg">
<path d="M63.1717 33.6359C47.0182 33.8993 30.8612 33.9808 14.706 33.8778C10.08 33.8478 5.45402 33.8032 0.828915 33.744C-0.276305 33.7303 -0.276305 35.4464 0.828915 35.4602C16.9833 35.6678 33.1394 35.6936 49.2947 35.5348C53.9207 35.4894 58.5466 35.4284 63.1717 35.3529C64.2744 35.334 64.2778 33.6179 63.1717 33.6359Z" fill="black"/>
<path d="M56.1457 25.991C56.1749 25.5397 55.9114 25.096 55.3348 25.1535C48.6966 25.8185 42.0241 25.9859 35.3602 25.6615C33.9358 25.592 32.556 25.58 31.1504 25.8537C29.6599 26.1446 28.2046 26.6269 26.7535 27.0671C23.6704 28.0016 20.5727 28.9557 17.3532 29.2783C16.2771 29.3864 16.2265 31.0091 17.3532 30.9945C30.0023 30.8263 42.7329 30.2438 55.3717 30.9328C55.8608 30.9594 56.1946 30.5166 56.2298 30.0747C56.3242 28.8837 56.3602 27.6944 56.3388 26.4999C56.3362 26.2845 56.2547 26.1232 56.1457 25.991Z" fill="#F7C300"/>
<path d="M57.9348 20.3198C57.8979 16.4619 57.8155 12.603 57.7546 8.74505C57.7254 6.85039 57.6954 4.95571 57.6662 3.06104C57.6439 1.64605 57.8747 0.261159 56.3044 0.0998383C55.5416 0.020894 54.7684 0.00883299 54.003 0.0079749C53.4839 0.00711681 52.8283 -0.0743682 52.4147 0.364116C51.9976 0.80689 52.0345 1.59031 52.0028 2.16608C51.9796 2.57797 51.9676 2.99072 51.9667 3.40346C51.9667 3.59482 51.9719 3.78612 51.9762 3.97748C51.7213 4.03669 51.4845 4.1757 51.2949 4.37049C50.6882 4.99175 50.7706 5.85416 50.883 6.67535C51.2236 9.14579 51.1833 11.6308 51.1507 14.1227C51.119 16.5356 51.0881 18.9478 51.0572 21.3607C51.0477 22.1064 50.9765 22.9499 51.5574 23.4664C51.8346 23.7127 52.1607 23.7779 52.4705 23.7127C53.2024 23.7839 53.9344 23.8371 54.6689 23.8525C55.3622 23.8671 56.3216 23.9993 56.9952 23.759C58.2257 23.318 57.9459 21.4173 57.9348 20.3198Z" fill="#F7C300"/>
<path d="M9.70156 23.7576C10.3254 23.9978 11.2135 23.8648 11.8562 23.8511C12.5367 23.8357 13.2146 23.7825 13.8925 23.7113C14.1799 23.7765 14.482 23.7113 14.7377 23.465C15.2757 22.9484 15.2105 22.104 15.2011 21.3592C15.1719 18.9462 15.1436 16.5342 15.1144 14.1212C15.0844 11.6293 15.0466 9.14424 15.3624 6.6738C15.4671 5.85347 15.5426 4.99116 14.9814 4.36905C14.8055 4.17426 14.5867 4.0361 14.3507 3.97603C14.355 3.78468 14.3593 3.59327 14.3593 3.40191C14.3575 2.98917 14.3472 2.57652 14.3258 2.16464C14.2966 1.58972 14.331 0.806198 13.944 0.362565C13.5612 -0.0759185 12.9537 0.00567123 12.4732 0.00652932C11.7635 0.00738741 11.0479 0.0202018 10.3417 0.098288C8.88723 0.259609 9.1009 1.64461 9.0803 3.0596C9.05284 4.95426 9.02538 6.84895 8.99792 8.74361C8.94214 12.6016 8.86577 16.4603 8.83145 20.3183C8.82115 21.4175 8.56201 23.3182 9.70156 23.7576Z" fill="#F7C300"/>
<path d="M56.6245 31.1661C57.1153 21.3324 55.7819 11.5107 56.313 1.67784C56.3525 0.942452 55.6094 0.709895 55.0877 0.95445C53.87 0.76567 52.6404 0.718412 51.4142 0.867719C51.1782 0.896036 50.9817 0.944167 50.8075 1.11922C50.7835 1.14324 50.7698 1.18098 50.7475 1.2093C50.5561 1.31313 50.4042 1.4813 50.3587 1.71041C50.212 2.44408 50.1305 3.18973 50.1262 3.93713C49.8576 3.96201 49.589 3.98095 49.3213 4.01527C48.9 4.06933 48.5447 4.32935 48.4864 4.76097C48.4109 4.88367 48.3559 5.02524 48.3611 5.20887C48.4323 7.92815 48.4383 10.6474 48.4152 13.3667C47.9269 13.3847 47.4378 13.3942 46.9495 13.4113C43.6974 7.76337 37.7388 4.1028 31.1976 3.87198C24.7705 3.64458 17.5308 6.96275 16.0489 13.7382C15.3581 13.7288 14.6682 13.7288 13.9774 13.7168C14.0487 10.6843 14.1508 7.65178 14.2898 4.62186C14.3078 4.21599 14.0838 3.96971 13.7955 3.86245C13.7372 3.82297 13.6745 3.79387 13.6067 3.76985C13.5484 3.74325 13.4866 3.72521 13.4222 3.71234C13.4197 3.71234 13.418 3.71142 13.4154 3.71056C13.3768 3.70284 13.3399 3.68921 13.2978 3.68835C13.2266 3.68664 13.1554 3.68313 13.0833 3.67798C13.085 3.64109 13.0867 3.60931 13.0876 3.6033C13.0979 3.39393 13.109 3.18545 13.1211 2.97607C13.1417 2.58478 13.2069 2.1695 13.1339 1.78164C13.0464 1.31913 12.7049 0.945019 12.2415 0.833467C11.8734 0.745084 11.4752 0.788789 11.1003 0.795653C10.6867 0.803376 10.2731 0.81108 9.85945 0.818802C9.03225 0.834248 8.20506 0.84976 7.37786 0.865205C6.91363 0.873786 6.51977 1.25306 6.51977 1.7233C6.51977 1.80653 6.54551 1.88456 6.56954 1.96264C6.65363 7.90492 6.52149 13.8481 6.17311 19.7809C6.10789 20.8844 7.82407 20.8801 7.88929 19.7809C8.16302 15.1258 8.29345 10.4647 8.29945 5.80268C9.71873 5.81813 11.1337 5.722 12.5384 5.52206C12.3985 8.71759 12.2896 11.914 12.2261 15.1121C12.1634 18.2424 11.9103 21.5057 12.5418 24.5982C11.0479 24.6025 9.55397 24.6102 8.06004 24.6386C8.06519 23.9349 8.0712 23.2313 8.07635 22.5277C8.08493 21.4233 6.36875 21.4216 6.36017 22.5277C6.35417 23.3617 6.34729 24.1958 6.34043 25.0299C6.15508 25.3242 6.1525 25.7163 6.3327 26.0055C6.33013 26.3976 6.3267 26.7906 6.32326 27.1828C6.31125 28.7093 6.216 30.2651 6.54894 31.7667C6.69138 32.4068 7.32809 32.4969 7.77515 32.2463C21.9808 31.6757 36.2045 31.687 50.4094 32.2825C51.5137 32.3288 51.512 30.6126 50.4094 30.5663C36.3084 29.9751 22.1885 29.9613 8.08578 30.5191C7.95363 29.3606 8.03173 28.161 8.04031 27.0077C8.04202 26.7898 8.04374 26.5727 8.04545 26.3556C11.7807 26.2843 15.5168 26.2835 19.2521 26.3822C23.3229 26.4894 27.3885 26.7847 31.4627 26.7057C39.3125 26.5547 47.1495 25.5095 55.0001 26.1119C55.0027 27.5827 54.9881 29.0526 54.9263 30.5242C54.3162 30.5534 53.707 30.5826 53.0978 30.6126C52.6498 30.6341 52.2182 30.9919 52.2397 31.4707C52.2594 31.9169 52.6172 32.352 53.0978 32.3288C53.9927 32.2859 54.8877 32.2421 55.7827 32.1992C56.2298 32.1778 56.6623 31.8199 56.6408 31.3411C56.6391 31.2974 56.6202 31.257 56.6116 31.2132C56.6134 31.1969 56.6228 31.185 56.6245 31.1661ZM11.4255 2.57877C11.4152 2.7684 11.4057 2.95895 11.3954 3.14859C11.3817 3.41203 11.356 3.68577 11.3748 3.95263C10.3554 4.05989 9.32487 4.1045 8.29431 4.09163C8.29173 3.58364 8.29516 3.07567 8.29001 2.56683C8.81345 2.55739 9.33688 2.54704 9.86032 2.5376C10.2542 2.52988 10.648 2.52301 11.0419 2.51529C11.1715 2.51272 11.3011 2.51011 11.4306 2.50754C11.428 2.53157 11.4263 2.55474 11.4255 2.57877ZM44.9759 13.4723C44.4139 13.4903 43.8518 13.5015 43.2898 13.5169C43.4288 12.9137 43.5215 12.3009 43.6244 11.6908C44.1067 12.2563 44.5666 12.8433 44.9759 13.4723ZM40.2341 8.60258C40.9283 9.08139 41.5745 9.62629 42.1949 10.2021C41.8954 11.3073 41.843 12.4657 41.511 13.564C41.0176 13.576 40.5233 13.5915 40.0299 13.6035C40.12 11.9371 40.1792 10.2698 40.2341 8.60258ZM36.5392 6.67103C37.2325 6.93361 37.9087 7.23479 38.56 7.58317C38.5025 9.60483 38.421 11.6265 38.312 13.6465C38.312 13.6473 38.312 13.6481 38.312 13.649C37.7113 13.6619 37.1098 13.6619 36.5083 13.6731C36.5186 11.3391 36.5289 9.00504 36.5392 6.67103ZM34.8247 6.12446C34.8144 8.64811 34.8033 11.1717 34.7921 13.6962C33.9778 13.7091 33.1626 13.7108 32.3483 13.7211C32.2599 11.0344 32.1707 8.34858 32.0823 5.6619C33.0159 5.74513 33.934 5.89192 34.8247 6.12446ZM28.1153 5.77607C28.8644 5.66366 29.617 5.59671 30.3644 5.5847C30.4536 8.30227 30.5429 11.0207 30.633 13.7382C29.8238 13.7468 29.0137 13.7486 28.2046 13.7546C28.0819 11.0971 28.051 8.43615 28.1153 5.77607ZM24.6933 6.67271C25.2476 6.45819 25.8174 6.27203 26.3966 6.12101C26.3425 8.66953 26.3708 11.2198 26.4875 13.7666C25.9735 13.7692 25.4604 13.7692 24.9464 13.7709C24.7319 11.4112 24.6461 9.04276 24.6933 6.67271ZM22.9685 7.47329C22.9522 9.57733 23.0397 11.6806 23.2311 13.7769C22.7737 13.7777 22.3172 13.7718 21.8598 13.7718C21.8598 13.6971 21.8659 13.6242 21.8453 13.5478C21.4308 12.0341 21.1124 10.4964 20.8765 8.94416C21.5149 8.38554 22.2142 7.88947 22.9685 7.47329ZM19.4177 10.5101C19.6151 11.6042 19.8459 12.6914 20.1334 13.7648C19.3628 13.7614 18.5931 13.7648 17.8225 13.7562C18.1512 12.5292 18.7081 11.454 19.4177 10.5101ZM48.3946 15.9006C44.0938 15.9487 39.7939 15.9976 35.4932 16.0456C31.0817 16.0954 26.6068 16.358 22.2117 15.8878C21.115 15.7702 21.1227 17.4872 22.2117 17.6039C26.6068 18.0742 31.0817 17.8116 35.4932 17.7618L48.3551 17.6168C48.3002 19.8204 48.2264 22.024 48.1114 24.2267C42.5621 24.3331 37.0163 24.884 31.4636 24.9912C27.3894 25.0693 23.3237 24.775 19.253 24.6678C17.5977 24.624 15.9425 24.6069 14.2863 24.6C13.7621 22.3647 13.7766 19.9911 13.8547 17.6528C15.5898 17.6503 17.3248 17.6468 19.0599 17.6443C19.5087 17.6434 19.9386 17.2504 19.918 16.7862C19.8974 16.3219 19.5413 15.9272 19.0599 15.9281C17.3446 15.9307 15.6293 15.9341 13.9139 15.9367C13.9199 15.7676 13.9234 15.6011 13.9285 15.4329C25.4209 15.6303 36.9159 15.511 48.4014 15.0845C48.3971 15.3557 48.3997 15.6286 48.3946 15.9006ZM51.923 2.71012C51.9316 2.65263 51.9419 2.59509 51.9514 2.5376C52.3916 2.50242 52.8326 2.48099 53.2745 2.49214C53.5791 2.49986 53.8829 2.51869 54.1867 2.54787C54.2596 2.55473 54.3317 2.56254 54.4046 2.57112C54.4269 2.57369 54.4544 2.57703 54.4793 2.5796C54.5085 2.58304 54.5376 2.59 54.5668 2.59343C54.5479 3.04479 54.5471 3.49698 54.5342 3.94834C53.6409 3.85995 52.7451 3.82215 51.8492 3.83846C51.8552 3.46261 51.8776 3.08511 51.923 2.71012ZM49.8284 24.1992C49.9915 21.0406 50.0927 17.8793 50.1331 14.7181C50.3699 14.3981 50.3716 13.9245 50.1373 13.6207C50.1597 10.9658 50.1476 8.31084 50.0824 5.65677C51.5498 5.51861 53.0257 5.51946 54.493 5.6619C54.4295 11.9088 54.904 18.1522 54.9933 24.3983C53.2719 24.2653 51.5506 24.1984 49.8284 24.1992Z" fill="black"/>
<path d="M11.2719 7.69867C10.9536 7.63602 10.6138 7.65402 10.2826 7.69521C10.2422 7.66689 10.1976 7.64455 10.141 7.64284C9.92044 7.63854 9.69991 7.63175 9.47939 7.63089C9.27344 7.62918 9.0735 7.69095 8.96453 7.93979C8.85898 8.18006 8.91218 8.47688 8.92591 8.7386C8.94136 9.03807 8.95166 9.33754 8.95767 9.63701C8.97912 10.7972 8.93021 11.9616 8.80407 13.1115C8.77318 13.3912 8.8873 13.6426 9.12327 13.6546C9.83463 13.6906 10.5443 13.6049 11.2402 13.411C11.4109 13.3629 11.4702 13.1981 11.4624 13.0282C11.4633 13.0188 11.4667 13.0119 11.4676 13.0024C11.4968 12.497 11.5088 11.9917 11.5139 11.4854C11.5697 10.7165 11.6169 9.94598 11.6426 9.17455C11.6581 8.6803 11.804 7.80335 11.2719 7.69867ZM10.0706 11.4536C10.0706 10.9285 10.0655 10.4025 10.0655 9.8773C10.0655 9.61988 10.4053 9.61988 10.4053 9.8773C10.4053 10.4025 10.4104 10.9285 10.4104 11.4536C10.4104 11.7119 10.0706 11.7111 10.0706 11.4536Z" fill="black"/>
<path d="M51.5472 13.6251C51.8492 13.6783 52.1693 13.65 52.48 13.5985C52.5186 13.626 52.5615 13.6466 52.6147 13.6466C52.8232 13.644 53.0308 13.644 53.2394 13.6388C53.4333 13.6345 53.6203 13.5667 53.7147 13.3144C53.8066 13.0707 53.7473 12.7764 53.7259 12.5147C53.7019 12.2161 53.6821 11.9167 53.6675 11.6172C53.6101 10.4579 53.6186 9.29264 53.701 8.14022C53.7208 7.85963 53.6058 7.61156 53.3827 7.60727C52.7108 7.59268 52.044 7.69997 51.3945 7.91449C51.2349 7.9677 51.1842 8.13417 51.1971 8.30321C51.1963 8.31265 51.1937 8.3204 51.1928 8.32898C51.1817 8.83439 51.1859 9.3406 51.198 9.84687C51.1696 10.6174 51.1499 11.388 51.1508 12.1603C51.1516 12.6554 51.0426 13.5367 51.5472 13.6251ZM52.5906 9.65466C52.6112 10.2991 52.6378 10.9444 52.6584 11.5888C52.6687 11.9046 52.2749 11.9166 52.2646 11.6017C52.244 10.9564 52.2174 10.312 52.1968 9.66754C52.1865 9.35091 52.5803 9.33888 52.5906 9.65466Z" fill="black"/>
</svg>
