<svg width="19" height="64" viewBox="0 0 19 64" fill="none" xmlns="http://www.w3.org/2000/svg">
<path d="M18.342 11.0725C17.6006 10.2248 15.9409 10.6605 14.7621 10.6342C14.7595 10.595 14.7578 10.56 14.7587 10.5354C14.7689 10.2179 14.7791 9.90132 14.7766 9.58384C14.7706 9.00251 14.7323 8.41772 14.6361 7.84405C14.4684 6.84652 14.1059 5.87542 13.4777 5.07535C12.2861 3.55691 10.3098 3.00878 8.44321 3.11602C6.48133 3.22922 4.77394 3.76801 4.39433 5.89927C4.11345 7.47388 4.11176 9.08422 4.34242 10.6614C3.90493 10.6529 3.46829 10.663 3.02825 10.6996C2.60268 10.7354 2.132 11.0614 2.17711 11.5508C2.57119 15.8005 2.78567 20.064 2.81887 24.3316C2.82057 24.5478 2.90058 24.7086 3.00782 24.8397C3.01889 24.8967 3.01974 24.9589 3.03165 25.0142C3.18826 25.7113 3.6998 25.8756 4.34752 25.9011C6.59709 25.9905 8.86367 25.9299 11.1149 25.9444L14.3952 25.9657C15.409 25.9725 16.4763 26.182 17.4721 26.1403C17.8628 26.1241 18.1726 25.8849 18.2926 25.5155C18.5165 24.827 18.4058 23.9485 18.4186 23.2318C18.4339 22.3356 18.4492 21.4385 18.4646 20.5423C18.4943 18.8179 18.5241 17.0934 18.5539 15.3699C18.5692 14.4736 18.5846 13.5765 18.5999 12.6802C18.6101 12.1466 18.7233 11.5074 18.342 11.0725Z" fill="#F7C300"/>
<path d="M16.1852 49.4758C16.0405 48.7548 15.592 48.0832 14.9213 47.7589C14.1791 47.3998 13.316 47.4559 12.5134 47.4568C10.6987 47.4593 8.88496 47.5045 7.07202 47.5913C6.63539 47.6126 6.19962 47.6355 5.76383 47.6611C5.29315 47.6891 4.80544 47.6917 4.52456 48.1343C4.16368 48.7029 4.22325 49.7319 4.47094 50.3294C4.4786 50.3481 4.49222 50.3618 4.50073 50.3805C4.52201 51.0682 4.5918 52.0087 5.22505 52.373C5.56125 52.567 5.94256 52.5296 6.31451 52.516L7.7155 52.4649L13.1219 52.2666C13.5892 52.2496 14.0565 52.2326 14.5229 52.2156C14.9621 52.1994 15.5205 52.2564 15.8601 51.9168C16.415 51.3635 16.3282 50.1848 16.1852 49.4758Z" fill="#F7C300"/>
<path d="M17.0976 61.9783C11.6784 62.3749 6.24217 62.4021 0.818692 62.06C-0.275024 61.991 -0.270769 63.6933 0.818692 63.7623C6.24217 64.1044 11.6784 64.0772 17.0976 63.6806C18.1837 63.6014 18.193 61.8983 17.0976 61.9783Z" fill="black"/>
<path d="M15.9112 12.1899C15.0762 12.1882 14.2404 12.172 13.4054 12.166C13.4079 12.149 13.4165 12.1337 13.4182 12.1167C13.5969 10.6025 13.6165 9.07477 13.4616 7.55718C13.3901 6.85754 13.3543 6.09909 12.8232 5.57479C12.2844 5.04112 11.355 5.05909 10.6519 4.98589C10.154 4.93397 9.65186 4.91602 9.15139 4.89134C9.27565 3.54824 9.3463 2.20091 9.3429 0.851847C9.34205 0.4067 8.95222 -0.0197218 8.49176 0.000705566C8.03129 0.021133 7.63976 0.374357 7.64062 0.851847C7.64402 2.19239 7.57337 3.53036 7.4508 4.86495C7.02523 4.87091 6.59966 4.86412 6.17409 4.89051C5.43871 4.93647 4.72035 5.03773 4.17902 5.58757C3.7543 6.0191 3.53811 6.6183 3.44618 7.20559C3.20105 8.76743 3.25553 10.4144 3.36278 11.9959C2.59079 11.9754 1.8188 11.9643 1.04596 11.9396C0.407608 11.9192 0.153121 12.4861 0.258662 12.9721C0.218659 13.0657 0.187163 13.167 0.182907 13.287C0.0109764 17.9291 -0.0307257 22.5747 0.057793 27.2194C0.0663044 27.6466 0.33186 27.902 0.650187 27.9956C0.78722 28.1641 0.991494 28.2842 1.26641 28.2995C1.59666 28.3182 1.9269 28.325 2.25799 28.3403C2.9338 31.7219 3.6062 35.112 3.98921 38.5412C4.36627 41.9245 4.50756 45.2959 5.19103 48.64C5.14847 48.6562 5.10506 48.6723 5.06676 48.6945C5.03357 48.6902 5.00973 48.675 4.97398 48.6741C3.99772 48.6562 2.89464 48.7916 2.31331 49.6887C2.02052 50.1398 1.97286 50.6632 1.9669 51.1875C1.96009 51.8097 1.93796 52.4438 1.972 53.0643C1.99839 53.54 2.12947 53.9869 2.54227 54.2703C3.02828 54.604 3.70493 54.5393 4.26753 54.558C4.56373 54.5674 4.85907 54.5708 5.15527 54.5759C4.33988 56.3054 3.52449 58.0358 2.7091 59.7653C2.51333 60.1807 2.59334 60.6837 3.01465 60.9296C3.3849 61.1458 3.98241 61.042 4.17902 60.6241C4.76631 59.378 5.35359 58.132 5.94088 56.8859C5.97152 57.2289 5.99961 57.5728 6.03621 57.9141C6.15537 59.0146 6.37667 60.2964 7.47123 60.8496C8.42281 61.3305 9.64335 61.2233 10.6196 60.8522C11.3107 60.5901 11.498 60.0164 11.5235 59.3321C11.5439 58.7695 11.5533 58.206 11.5499 57.6426C11.549 57.4621 11.538 57.2825 11.5337 57.1029C11.6222 57.2638 11.7108 57.4238 11.8001 57.5847C12.3883 58.6486 12.9764 59.7134 13.5646 60.7773C13.7867 61.1791 14.3391 61.311 14.7298 61.0829C15.1349 60.8454 15.2583 60.3219 15.0345 59.9185C14.4659 58.8895 13.8974 57.8613 13.3288 56.8323L12.5049 55.3428C12.3287 55.0236 12.138 54.7215 12.0053 54.4006C12.5228 54.3632 13.0411 54.3232 13.5577 54.2721C14.0812 54.2202 14.5817 54.1477 14.946 53.7264C15.2983 53.3204 15.346 52.7928 15.3826 52.2787C15.4217 51.728 15.4464 51.1645 15.4158 50.613C15.3579 49.5831 14.9111 48.6639 13.8088 48.463C13.1424 48.3413 12.4342 48.32 11.7252 48.3302C11.8946 44.9656 12.4104 41.6249 12.853 38.2893C13.2896 35.0039 13.4454 31.4819 14.5195 28.319C15.0779 28.2901 15.6362 28.2714 16.1937 28.2348C16.7666 28.1973 17.0312 27.7088 17.0015 27.2636C17.0023 27.2474 17.0108 27.2364 17.0108 27.2202C17.0661 22.4461 17.1223 17.6721 17.1785 12.898C17.1896 12.1541 16.4184 11.9269 15.9112 12.1899ZM5.0974 7.59968C5.16124 7.16815 5.25996 6.71541 5.74086 6.62604C6.49072 6.48645 7.33676 6.53495 8.09512 6.54261C8.8952 6.55027 9.69612 6.59281 10.4928 6.67196C10.8707 6.70941 11.2452 6.76392 11.6205 6.81669C11.6308 6.8184 11.6299 6.81832 11.6384 6.82002C11.6699 6.93237 11.698 7.04306 11.715 7.15966C11.818 7.87122 11.8589 8.59466 11.8674 9.31983C9.5778 9.24833 7.29079 9.11648 5.00888 8.90881C5.01739 8.46791 5.03442 8.0278 5.0974 7.59968ZM11.7167 12.1499C9.5012 12.127 7.28653 12.0886 5.07101 12.0367C5.04037 11.5618 5.02164 11.0859 5.01058 10.6102C7.27462 10.8161 9.54462 10.9472 11.8172 11.0187C11.7908 11.3864 11.7584 11.7533 11.7159 12.1159C11.715 12.1278 11.7176 12.1389 11.7167 12.1499ZM9.82974 59.1388C9.82889 59.1805 9.81868 59.2487 9.80931 59.3193C9.61525 59.3687 9.41949 59.4172 9.22373 59.4453C8.83561 59.5015 8.42367 59.4947 8.17258 59.287C7.89255 59.0546 7.82105 58.509 7.76488 58.109C7.59976 56.9472 7.55038 55.7581 7.44995 54.5887C7.66869 54.5861 7.88744 54.5887 8.10619 54.5844C8.63815 54.5742 9.16841 54.5342 9.69952 54.5121C9.77782 55.4458 9.834 56.3812 9.84677 57.3183C9.85443 57.9252 9.84932 58.532 9.82974 59.1388ZM12.4351 50.0879C12.6853 50.0921 13.4233 49.9857 13.6139 50.1567C13.848 50.367 13.7246 51.1551 13.7203 51.4156C13.7161 51.6318 13.7084 51.8471 13.6965 52.0633C13.6897 52.1876 13.5867 52.5519 13.688 52.5638C13.5033 52.6336 13.1526 52.608 12.9815 52.6225C12.7117 52.6463 12.441 52.6676 12.1704 52.6889C9.89017 52.8617 7.60231 52.9273 5.31615 52.8847C4.80461 52.8754 4.19434 52.7553 3.68876 52.8362C3.6828 52.8345 3.6811 52.8353 3.67429 52.8344C3.67429 52.8115 3.67344 52.7894 3.67344 52.7664C3.67173 52.4659 3.67259 52.1655 3.67174 51.8651C3.67174 51.5552 3.55172 50.8547 3.7543 50.5994C4.00198 50.2853 4.63267 50.3713 4.97568 50.3772C5.13825 50.3798 5.26848 50.3372 5.38338 50.2759C5.40551 50.2759 5.42084 50.2853 5.44467 50.2844C7.76999 50.1202 10.103 50.0513 12.4351 50.0879ZM11.2094 37.8688C10.7456 41.3602 10.1957 44.8585 10.023 48.3805C9.93444 48.383 9.84166 48.3872 9.75399 48.3889C9.61015 48.3915 9.46631 48.4017 9.32247 48.4051C9.35822 48.2664 9.37438 48.1192 9.34885 47.96C9.33778 47.8877 9.32672 47.8153 9.31565 47.743C9.3148 47.7353 9.31395 47.7267 9.31225 47.7191C9.29693 47.5846 9.27991 47.4501 9.26714 47.3156C9.24161 47.056 9.22373 46.7956 9.21266 46.5343C9.19053 46.0023 9.1982 45.4687 9.23395 44.9376C9.26374 44.4924 8.82114 44.0669 8.38281 44.0864C7.89595 44.1086 7.56316 44.4609 7.53166 44.9376C7.45336 46.1019 7.52571 47.2604 7.70785 48.412C7.7104 48.4298 7.72061 48.4477 7.72572 48.4656C7.43889 48.4792 7.15121 48.4834 6.86437 48.4987C6.86267 48.446 6.87543 48.3983 6.86352 48.3421C6.12813 44.8312 6.03877 41.276 5.59702 37.7284C5.2072 34.6005 4.61821 31.5049 4.00454 28.4144C4.62332 28.4357 5.24209 28.4535 5.86002 28.4654C5.63362 30.646 5.71107 32.8352 6.07961 34.9996C6.15706 35.4533 6.71542 35.7069 7.12652 35.5937C7.60657 35.4618 7.79807 35.0014 7.72062 34.5468C7.38016 32.5458 7.34697 30.5013 7.55805 28.4841C9.2731 28.4926 10.9882 28.4748 12.7015 28.411C11.7831 31.4385 11.6214 34.7647 11.2094 37.8688ZM15.3562 23.3773C14.1203 23.3347 12.8845 23.2931 11.6486 23.2505C11.2035 23.2352 10.7779 23.6531 10.7975 24.1017C10.8188 24.5757 11.1712 24.9366 11.6486 24.9528L15.3366 25.0787C15.3307 25.5775 15.3247 26.0763 15.3188 26.5751C10.8009 26.8406 6.27368 26.8567 1.75411 26.6184C1.74475 26.0422 1.74305 25.4651 1.73965 24.8889C3.96198 25.0779 6.20473 25.0038 8.43131 24.991C9.52673 24.9851 9.52843 23.2828 8.43131 23.2888C6.20217 23.3015 3.95772 23.3756 1.73369 23.1858C1.73454 22.4819 1.73709 21.7781 1.74305 21.0733C6.28729 20.8656 10.8366 20.8281 15.3834 20.9558C15.3749 21.7635 15.3656 22.5704 15.3562 23.3773ZM15.4439 15.8516C12.9015 15.8873 10.3592 15.854 7.81935 15.7264C6.72478 15.671 6.72733 17.3742 7.81935 17.4286C10.3523 17.5555 12.8879 17.5896 15.4235 17.5538C15.4166 18.1207 15.4098 18.6875 15.4039 19.2544C10.8579 19.1267 6.30857 19.1634 1.76518 19.371C1.77369 18.8135 1.77539 18.2551 1.78646 17.6976C2.90912 17.6678 4.03177 17.6372 5.15443 17.6074C5.59872 17.5955 6.02685 17.2244 6.00557 16.7563C5.98599 16.3052 5.63192 15.8924 5.15443 15.9052L1.82476 15.9945C1.84519 15.2174 1.85029 14.4395 1.87753 13.6624C6.4056 13.7986 10.9362 13.8743 15.4669 13.8888C15.4592 14.5425 15.4515 15.197 15.4439 15.8516Z" fill="black"/>
</svg>
