<svg width="64" height="29" viewBox="0 0 64 29" fill="none" xmlns="http://www.w3.org/2000/svg">
<path d="M54.6252 17.8011C54.563 17.4754 54.3554 17.1665 54.0101 17.1088C52.9841 16.9375 51.9492 16.8453 50.9108 16.8399C50.665 11.9097 50.5532 6.75934 52.8519 2.26308C53.2823 1.78647 53.0684 0.774617 52.2128 0.731127C47.382 0.487942 42.2183 1.59741 38.7871 5.17596C35.6488 2.37134 31.9566 -0.0728909 27.5908 0.00166207C27.4346 0.00432468 27.3041 0.0451219 27.1905 0.104587C26.5568 0.248368 26.0909 1.02227 26.7184 1.54326C29.8709 4.16238 30.5037 7.81545 30.5534 11.7277C30.5783 13.6483 30.4416 15.5788 29.8629 17.4204C29.6215 18.1917 29.2026 18.9195 29.0198 19.7076C28.8076 20.62 29.0047 21.5617 28.6816 22.4501C28.4269 23.1495 29.0615 23.5799 29.6437 23.5098C29.6614 23.5115 29.6721 23.5205 29.6898 23.5214C33.6518 23.7015 37.6164 23.8169 41.5828 23.8426C43.4919 23.855 45.4019 23.8471 47.311 23.8178C49.2494 23.7876 51.3271 23.5063 53.2477 23.8178C53.2832 23.8231 53.3116 23.8124 53.3453 23.8142C53.4749 23.8914 53.6169 23.9456 53.7714 23.9393C54.2577 23.9172 54.6518 23.5497 54.6589 23.0518C54.682 21.4312 54.705 19.8105 54.7281 18.1899C54.7308 18.0532 54.6873 17.9227 54.6252 17.8011Z" fill="#F7C300"/>
<path d="M15.3677 8.90448C14.5485 8.50775 13.7666 9.3038 14.1536 10.1186C14.9399 11.7729 15.2497 13.7264 15.0136 15.5157C14.9506 15.6373 14.9062 15.7687 14.9062 15.9089C14.9062 16.397 15.3127 16.7884 15.7937 16.7964C16.9378 16.8159 18.0782 16.7538 19.2134 16.6109C19.6456 16.5559 20.1604 16.2471 20.1009 15.7234C19.769 12.8345 18.0099 10.1843 15.3677 8.90448Z" fill="#F7C300"/>
<path d="M63.1429 27.1477C61.398 27.1663 59.6522 27.1655 57.9064 27.1681C58.1114 25.9034 57.8886 24.4895 56.3923 24.2153C55.3734 24.0289 54.2018 24.2064 53.1634 24.2339C53.0942 22.9079 53.0249 21.5819 52.9566 20.2559C52.9087 19.3364 53.0338 18.2369 51.9235 17.9928C51.1008 17.8117 50.1582 17.841 49.2467 17.8738C49.2325 17.8339 49.2272 17.794 49.2094 17.7523L49.2582 17.8667C49.0958 17.4815 48.9867 17.0786 48.9201 16.6668C48.881 16.3073 48.8722 15.9461 48.9077 15.5849C48.9281 15.3719 48.7941 15.1029 48.6476 14.9574C48.4941 14.8038 48.2411 14.6876 48.0201 14.6973C47.7903 14.708 47.5524 14.7834 47.3926 14.9574C47.2249 15.1402 47.1566 15.3381 47.1326 15.5849C47.0563 16.3721 47.1592 17.1514 47.3935 17.896C46.1962 17.8836 44.9981 17.8729 43.8008 17.8702C42.9931 14.5517 41.5606 11.3433 39.4208 8.67268C40.8444 7.32628 42.5946 6.29236 44.3271 5.40216C45.7942 4.64864 47.3421 4.05842 48.9591 3.79394C47.5577 6.52755 47.3882 9.69157 47.3163 12.7775C47.2897 13.9198 49.0648 13.9198 49.0914 12.7775C49.1651 9.59305 49.221 6.00039 51.2836 3.36707C51.5792 2.98987 51.6519 2.47948 51.2836 2.11204C51.1052 1.93364 50.8141 1.84931 50.5398 1.87239C50.5336 1.87239 50.5301 1.86979 50.5239 1.86979C48.2163 1.92481 46.0321 2.60469 43.9659 3.60228C41.9379 4.58212 39.9045 5.79268 38.2475 7.32989C38.2288 7.31125 38.2137 7.29078 38.1951 7.27214C36.6694 5.71097 34.8669 4.51374 32.9098 3.5623C31.9043 3.07327 30.8685 2.58065 29.7751 2.32504C28.5804 2.04547 27.3468 2.02597 26.1255 2.01887C25.6267 2.0162 25.3587 2.35523 25.2957 2.73598C25.2504 2.89751 25.246 3.06708 25.3249 3.23305C25.3853 3.40523 25.506 3.5481 25.6649 3.65017C26.3944 4.35398 26.7628 5.28057 26.958 6.28526C26.2595 5.80865 25.4741 5.44566 24.6939 5.16164C23.2197 4.62557 21.6062 4.42856 20.0459 4.57855C19.4592 4.63535 18.8317 5.32053 19.2799 5.91429C19.7583 6.548 19.8684 7.2864 19.8737 8.04169C17.4436 7.19232 14.7748 7.07868 12.216 7.00324C12.0075 6.99703 11.8504 7.06454 11.7181 7.15773C11.2424 7.2598 11.0188 7.6911 11.0614 8.11179C11.0631 8.13753 11.0693 8.16061 11.0738 8.18546C11.1048 8.36208 11.1776 8.52357 11.3019 8.6496C11.9489 9.63565 12.0874 10.8774 12.2666 12.0197C12.477 13.359 12.611 14.708 12.6953 16.0606C12.0829 16.0677 11.4705 16.0704 10.8599 16.0979C9.09813 16.176 9.38924 17.8915 9.40699 19.2299C9.42208 20.3713 11.1972 20.3749 11.1821 19.2299C11.1767 18.819 11.1741 18.4081 11.1803 17.9972C11.1803 17.9733 11.1812 17.9492 11.1821 17.9253C11.8096 17.9235 12.8391 17.8463 13.0308 17.8436C14.5902 17.825 16.1487 17.8126 17.7081 17.8046C20.5269 17.7904 23.3466 17.7984 26.1646 17.8179C26.1299 20.0243 26.122 22.2307 26.1459 24.4372C21.2112 24.4123 16.2756 24.3546 11.3418 24.2667C11.3427 24.2463 11.3542 24.2294 11.3542 24.2081V22.4136C11.3542 22.1863 11.2548 21.9467 11.0942 21.786C10.9407 21.6325 10.6877 21.5163 10.4667 21.526C9.98567 21.5473 9.57918 21.9156 9.57918 22.4136V24.2081C9.57918 24.2179 9.5845 24.2277 9.58539 24.2375C9.04222 24.2268 8.49816 24.2224 7.95498 24.21C7.85558 24.1691 7.7473 24.1416 7.63015 24.1363C7.19259 24.115 6.75326 24.1185 6.31571 24.1514C6.07607 24.1691 5.8249 24.186 5.5968 24.265C5.24978 24.3866 4.97819 24.5801 4.76784 24.8854C4.63383 25.0806 4.55839 25.3176 4.52288 25.5502C4.48206 25.8235 4.45188 26.0995 4.43413 26.3755C4.41993 26.5823 4.43591 26.7891 4.43591 26.9959C3.24306 26.995 2.05021 26.9861 0.85736 26.9861C-0.284899 26.9861 -0.286674 28.7612 0.85736 28.7612C15.2896 28.7594 29.7209 28.8375 44.1531 28.9964C45.2954 29.0088 45.2963 27.2338 44.1531 27.2213C31.5013 27.082 18.8486 27.0154 6.19589 27.0003C6.19855 26.6586 6.21364 26.3178 6.25003 25.9779C6.2518 25.9637 6.25713 25.9504 6.25979 25.9362C6.43109 25.9193 6.60327 25.9131 6.77634 25.9078C6.86154 25.9371 6.94586 25.9672 7.05059 25.9699C15.4618 26.1616 23.8756 26.2548 32.2894 26.2451C36.4227 26.2397 40.5551 26.2095 44.6883 26.1554C46.7545 26.1278 48.8207 26.0951 50.8869 26.0551C51.92 26.0356 52.9531 26.0143 53.9862 25.9912C54.4849 25.9806 55.2828 25.8093 55.7568 25.9504C56.4393 26.1536 56.2405 26.5779 56.1145 27.1059C56.1091 27.1299 56.1162 27.1495 56.1127 27.1734C53.2841 27.169 50.4555 27.1477 47.6278 27.1015C46.4847 27.0829 46.4847 28.8579 47.6278 28.8766C52.7986 28.9618 57.9694 28.9769 63.1411 28.9219C64.2842 28.9103 64.2878 27.1352 63.1429 27.1477ZM38.2066 9.99076C40.011 12.3063 41.2278 15.0452 41.9725 17.8844C41.7142 17.8853 41.4568 17.8924 41.1985 17.8933C41.2163 17.3865 41.1639 16.8789 40.9722 16.4023C40.698 15.7225 40.2373 15.1056 39.5743 14.7586C38.8865 14.3982 38.0229 14.3352 37.2712 14.5172C36.4245 14.7222 35.955 15.4402 35.6665 16.2044C35.4562 16.7635 35.3878 17.3635 35.4153 17.9581C35.0985 17.9634 34.7808 17.9625 34.4639 17.9687C35.2378 15.118 36.3464 12.2904 38.2066 9.99076ZM37.1771 17.9386C37.1691 17.7771 37.1718 17.6155 37.1851 17.4549C37.1869 17.4256 37.1904 17.3963 37.194 17.367C37.1957 17.3572 37.1949 17.3617 37.1975 17.3466C37.217 17.2561 37.233 17.1647 37.2552 17.075C37.2916 16.9303 37.3253 16.7404 37.4043 16.6126C37.2889 16.799 37.423 16.5789 37.4451 16.5372C37.4798 16.4706 37.5197 16.4085 37.5587 16.3446C37.5765 16.325 37.5934 16.3056 37.612 16.2869C37.6164 16.2816 37.6129 16.2834 37.6164 16.2789C37.6342 16.2683 37.6528 16.2585 37.6706 16.2487C37.6777 16.246 37.6732 16.2488 37.683 16.2452C37.7229 16.2337 37.7638 16.2239 37.8046 16.2159C37.9031 16.199 37.8871 16.2008 37.7567 16.2203C37.7939 16.1892 37.9599 16.207 38.0096 16.2052C38.0904 16.2026 38.1711 16.2026 38.251 16.2044C38.3158 16.2062 38.3877 16.2079 38.4543 16.2177C38.4986 16.231 38.5528 16.2461 38.5714 16.2514C38.5963 16.2585 38.6211 16.2673 38.646 16.2762C38.6992 16.3046 38.7525 16.3313 38.8031 16.3632C38.8279 16.3783 38.8519 16.3943 38.8759 16.4102C38.9051 16.4315 38.9087 16.4334 38.9122 16.4351C38.9531 16.476 38.9966 16.5221 39.0063 16.5319C39.0374 16.5638 39.1572 16.6614 39.1607 16.7067C39.0818 16.6037 39.0702 16.5904 39.1252 16.6676C39.1421 16.6916 39.1581 16.7165 39.1732 16.7413C39.2096 16.799 39.2424 16.8575 39.2735 16.9188C39.2823 16.9365 39.2903 16.9543 39.2992 16.9721C39.3028 16.9827 39.3019 16.98 39.3099 17.0013C39.3542 17.1584 39.3951 17.3111 39.427 17.4709C39.4297 17.5028 39.4323 17.5339 39.435 17.5658C39.4403 17.6572 39.4421 17.7487 39.4403 17.8401C39.4403 17.865 39.4368 17.8889 39.4359 17.9138C38.6833 17.92 37.9297 17.928 37.1771 17.9386ZM29.4502 4.07173C30.486 4.33266 31.4596 4.81284 32.4093 5.29122C34.1337 6.15834 35.6843 7.23755 37.0271 8.62566C34.7816 11.2865 33.4814 14.6636 32.6169 18.014C31.4348 18.0415 30.2526 18.061 29.0712 18.0974C29.618 15.3203 29.2922 12.5202 29.0304 9.72088C28.8494 7.79049 28.8857 5.60981 28.016 3.85515C28.4988 3.89243 28.9789 3.9528 29.4502 4.07173ZM16.2082 16.041C15.6304 16.0454 15.0499 16.0446 14.4704 16.0437C14.3754 14.5384 14.2139 13.0394 13.9805 11.5493C13.8527 10.7354 13.7266 9.88153 13.4684 9.08275C14.8006 9.40848 16.02 10.1407 16.9706 11.1525C18.2167 12.4785 18.9631 14.2474 19.2294 16.042C18.222 16.0455 17.2155 16.0339 16.2082 16.041ZM21.0062 16.0437C20.6911 13.7698 19.816 11.591 18.2256 9.89846C18.0046 9.66415 17.7694 9.444 17.5244 9.23454C18.7039 9.47062 19.8489 9.83805 20.9103 10.446C22.1715 11.1685 23.0857 12.2185 23.959 13.3607C24.6114 14.2137 25.2548 15.0932 25.7563 16.0464C24.1729 16.0411 22.5887 16.0428 21.0062 16.0437ZM27.5828 15.7952C27.0255 14.6032 26.2977 13.5196 25.4918 12.4634C24.4862 11.1455 23.4522 9.90902 22.0189 9.03746C21.892 8.96025 21.7579 8.90264 21.6284 8.83075C21.6656 7.99646 21.6559 7.13201 21.4375 6.32968C22.2949 6.36784 23.1425 6.50977 23.9715 6.7858C25.0614 7.1488 26.3589 7.74612 27.0033 8.74548C27.0681 8.84666 27.1453 8.92214 27.2269 8.98427C27.2482 9.43869 27.2713 9.88599 27.3121 10.3022C27.4897 12.1261 27.6858 13.9695 27.5828 15.7952ZM31.9584 24.454L31.9619 23.3286C31.9619 23.1618 31.9628 22.9949 31.9628 22.8281C32.2335 22.8014 32.5042 22.7819 32.7758 22.7703C33.2542 22.749 33.7361 22.7775 34.2136 22.7642C34.2172 22.8565 34.219 22.9487 34.2207 23.0419C34.2278 23.515 34.2358 23.9881 34.2429 24.4611C33.4814 24.4602 32.719 24.4566 31.9584 24.454ZM38.8572 24.4247C38.8625 24.0289 38.8679 23.6339 38.8732 23.238C38.875 23.0783 38.8767 22.9186 38.8794 22.7588C38.9025 22.7588 38.9256 22.758 38.9486 22.758C39.2167 22.7598 39.4856 22.765 39.7536 22.7686C40.0225 22.7721 40.2915 22.7765 40.5613 22.7801C40.587 22.7801 40.6136 22.7811 40.6385 22.7811C40.6518 22.9515 40.6642 23.1218 40.6722 23.2931C40.69 23.6632 40.6882 24.0342 40.682 24.4043C40.0749 24.4097 39.4661 24.4203 38.8572 24.4247ZM47.4264 23.1014C47.4219 23.5115 47.4166 23.9206 47.4113 24.3298C46.672 24.3387 45.9335 24.3475 45.1942 24.3546C45.188 24.0795 45.1809 23.8043 45.1738 23.5283C45.1703 23.3818 45.1632 23.2346 45.1569 23.0872C45.1587 23.0872 45.1605 23.0872 45.1632 23.0864C45.4294 23.0615 45.6957 23.0411 45.9628 23.0233C46.4501 22.9914 46.9391 22.9735 47.4281 22.9656L47.4264 23.1014ZM49.5609 24.3067C49.4366 24.3094 49.3115 24.3085 49.1872 24.3112C49.1935 23.7618 49.2006 23.2115 49.2068 22.6621C49.213 22.1571 49.1331 21.7018 48.6849 21.3956C48.3654 21.1772 47.9758 21.1826 47.6048 21.187C46.9231 21.1941 46.2424 21.2242 45.5625 21.2784C45.2297 21.3041 44.8969 21.3361 44.5641 21.3734C44.3182 21.4009 44.0697 21.4098 43.8505 21.5385C43.5363 21.7231 43.3819 22.0523 43.3703 22.4082C43.3499 23.0597 43.389 23.72 43.4138 24.375C43.0961 24.3776 42.7775 24.3822 42.4588 24.3857C42.4659 23.8319 42.4544 23.2789 42.4109 22.7269C42.3825 22.3665 42.3887 21.9414 42.2476 21.6086C42.0967 21.2491 41.7586 21.0459 41.376 21.0202C41.2216 21.0104 41.0654 21.0131 40.911 21.0113C40.2915 21.0024 39.672 20.9917 39.0516 20.9846C38.6841 20.9811 38.3114 20.9811 37.9475 21.0441C37.6653 21.0938 37.4043 21.2802 37.2596 21.5269C37.123 21.7603 37.1123 22.0213 37.1088 22.284L37.0795 24.4425C37.0795 24.4434 37.0804 24.4443 37.0804 24.446C36.7262 24.4478 36.3721 24.4558 36.018 24.4575C36.0144 23.8735 36.0206 23.286 35.9843 22.7047C35.9612 22.3426 35.8982 21.96 35.6789 21.66C35.3656 21.2322 34.9503 21.0521 34.4364 20.9971C33.7903 20.9279 33.1069 20.9713 32.4599 21.013C32.0534 21.0388 31.6504 21.0858 31.2475 21.1426C30.7638 21.2109 30.3511 21.4896 30.2259 21.9893C30.17 22.2129 30.1878 22.4553 30.1869 22.6843C30.1869 22.8858 30.186 23.0881 30.1851 23.2896C30.1842 23.6766 30.1824 24.0635 30.1815 24.4514C29.428 24.4478 28.6754 24.4478 27.9228 24.4452C27.9068 22.9302 27.9068 21.415 27.9183 19.9009C31.748 19.774 35.5787 19.6888 39.411 19.6595C41.4568 19.6444 43.5035 19.6426 45.5492 19.6559C46.5717 19.663 47.595 19.6728 48.6183 19.6862C49.4056 19.6968 50.3588 19.5876 51.1886 19.6923C51.2801 20.3802 51.2268 21.139 51.2614 21.7994C51.304 22.6239 51.3475 23.4484 51.3901 24.2729C50.7813 24.2827 50.1715 24.2961 49.5609 24.3067Z" fill="black"/>
</svg>
