<svg width="155" height="14" viewBox="0 0 155 14" fill="none" xmlns="http://www.w3.org/2000/svg">
<path d="M154.397 9.35513C152.622 7.5359 150.726 5.86557 148.95 4.04635C147.178 2.37171 145.922 1.54731 143.869 3.21092C142.177 4.57245 140.127 6.38064 138.821 8.30757C138.698 8.31188 138.694 8.1673 138.571 8.1716C138.309 7.6019 137.681 7.1897 137.299 6.76889C136.41 5.78699 135.643 4.80078 134.757 3.96346C133.359 2.42047 131.845 1.17095 129.899 2.25194C127.949 3.18835 126.778 5.5447 125.217 7.19108C125.098 7.33997 124.979 7.48886 124.859 7.63774C125.221 7.33566 125.09 7.05081 124.597 7.06804C124.216 6.64723 123.596 6.52419 123.095 6.25226C122.216 5.7041 121.338 5.15594 120.46 4.60777C118.453 3.37549 116.561 1.84973 114.67 0.323978C114.038 -0.2328 112.936 0.0951317 112.458 0.690682C111.63 2.02206 110.797 3.20885 109.969 4.54022C109.495 5.28035 109.021 6.02048 108.547 6.76061C108.427 6.9095 108.308 7.05839 108.192 7.35186C108.073 7.50074 108.073 7.50074 108.073 7.50074C106.948 6.9612 105.931 5.83903 104.922 5.00601C103.789 4.17731 102.653 3.20402 101.397 2.37963C99.2549 0.717907 97.136 -0.0763329 94.8473 2.02963C93.1634 3.68032 91.6029 5.3267 89.9191 6.97739C88.5322 5.86814 87.1492 4.90348 85.6391 3.79854C84.2561 2.83387 82.8616 1.43546 81.1471 1.92951C79.5559 2.41926 78.1225 4.20591 76.797 5.40993C76.0726 6.0141 75.3483 6.61827 74.7472 7.21813C74.0228 7.82229 73.5296 7.83953 72.6551 7.43594C69.7812 6.08923 67.4891 3.41977 64.2722 3.09804C60.9319 2.78062 58.6585 5.4649 56.1232 7.57949C55.2794 8.33254 55.3988 8.18365 54.5167 7.49091C53.7616 6.93844 53.1298 6.38166 52.3748 5.82919C50.8646 4.72425 49.3545 3.61931 47.617 3.24589C45.8833 3.01704 44.4269 3.93622 42.8472 4.8597C41.9957 5.32359 41.1442 5.78749 40.2927 6.25138C39.4412 6.71528 38.1119 7.77473 37.0061 7.95808C35.5267 8.00977 33.6352 6.48402 32.3755 5.51504C30.9886 4.4058 29.833 2.70961 28.0955 2.33619C26.4813 1.95845 24.8977 2.73736 23.6955 3.93707C22.3701 5.1411 21.1871 7.06372 19.4457 6.54571C17.7082 6.17228 16.3099 4.6293 14.8036 3.66894C13.1702 2.5683 11.4211 1.76114 9.44088 1.54091C5.85022 1.08753 2.19382 2.80714 0.32096 6.63514C-0.846699 9.13608 2.41629 11.1928 3.58395 8.69183C5.22174 5.30618 8.79705 5.18125 11.5515 6.67685C14.306 8.17245 16.6019 10.9865 19.8112 11.0191C21.2945 11.1119 22.6315 10.3417 23.8413 9.4311C24.8046 8.52916 26.4692 6.15557 27.7251 6.97997C28.9771 7.65978 30.1289 9.21139 31.3886 10.1804C32.7716 11.145 34.4012 12.1011 35.8883 12.3385C37.4987 12.5717 38.8357 11.8014 40.296 11.0268C42.1222 10.0947 43.937 8.72888 45.7671 7.94136C47.3545 7.30704 48.8762 8.84572 50.132 9.67012C51.3918 10.6391 52.7939 12.3267 54.4043 12.5598C57.2591 13.1836 59.4941 9.05354 61.8059 7.81505C64.4837 6.41906 67.1494 9.22018 69.4069 10.5884C70.7899 11.5531 72.4157 12.3646 74.0107 12.0194C75.7291 11.6699 77.1663 10.0279 78.4918 8.82384C79.2162 8.21967 80.2912 6.87968 81.1466 6.56037C81.2698 6.55606 81.5049 6.1137 81.5049 6.1137C81.7515 6.10509 82.6375 6.94241 82.8879 7.07837C84.6523 8.46386 86.5399 9.84503 88.3043 11.2305C88.3043 11.2305 88.4276 11.2262 88.4314 11.3708C89.0632 11.9276 90.0533 12.0377 90.77 11.1444C91.8528 10.0935 92.8122 9.047 93.8949 7.99617C94.3727 7.40062 94.9777 6.94534 95.4555 6.34979C95.8177 6.04771 96.5305 5.0098 97.0198 4.84799C98.0023 4.66895 99.782 6.63275 100.537 7.18522C101.67 8.01392 102.679 8.84694 103.812 9.67564C105.576 11.0611 107.729 13.1566 109.648 11.0635C110.608 10.017 111.309 8.54537 112.018 7.36288C112.492 6.62275 113.085 5.73374 113.559 4.99361C116.711 7.48834 119.977 9.6896 123.476 11.3039C125.598 12.2428 126.793 10.7539 128.23 9.1118C128.947 8.21848 129.656 7.03599 130.503 6.42752C131.228 5.82335 130.742 6.12974 131.37 6.54194C131.748 6.81817 132.26 7.52384 132.641 7.94465C133.531 8.92655 134.298 9.91276 135.184 10.7501C135.82 11.4514 136.586 12.4376 137.461 12.8412C139.456 13.6398 140.639 11.7172 141.961 10.3686C142.801 9.47093 143.641 8.57329 144.604 7.67135C144.604 7.67135 145.328 7.06718 145.691 6.7651C145.818 6.90537 145.945 7.04564 146.072 7.18591C147.848 9.00514 149.743 10.6755 151.519 12.4947C153.665 14.301 156.173 11.1743 154.397 9.35513Z" fill="#F7C300"/>
</svg>
