<svg width="15" height="12" viewBox="0 0 15 12" fill="none" xmlns="http://www.w3.org/2000/svg">
<path d="M14.1864 0.22694C13.3595 -0.271003 12.5111 0.105221 11.9849 0.824472C10.954 2.21871 9.90155 3.61295 8.82764 4.974C8.27995 5.67112 7.73225 6.36824 7.17382 7.04323C6.88387 7.40839 6.59391 7.76248 6.30396 8.11657C6.261 8.16083 6.22879 8.21616 6.18583 8.26042C6.14288 8.22723 6.11066 8.19403 6.0677 8.14977C5.63814 7.79568 5.23006 7.40839 4.84345 6.99897C4.11319 6.22439 3.55476 5.48301 3.00707 4.56458C2.54529 3.80107 1.5573 3.5023 0.794824 3.96705C0.0538293 4.40966 -0.236125 5.47194 0.214915 6.23545C1.0633 7.62969 2.08351 8.93541 3.26481 10.042C3.86619 10.6063 4.52128 11.1374 5.19784 11.6022C6.17509 12.2772 7.23826 12.0669 7.98999 11.1706C10.3526 8.37108 12.5863 5.44981 14.7556 2.49535C15.2926 1.7761 14.8737 0.63636 14.1864 0.22694Z" fill="#00AA9F"/>
</svg>
