<svg width="241" height="192" viewBox="0 0 241 192" fill="none" xmlns="http://www.w3.org/2000/svg">
<path d="M50.5625 174.313C57.2733 174.348 64.0045 174.225 70.7153 173.962C73.3466 173.857 73.3262 177.364 70.7153 177.469C64.0045 177.732 57.2733 177.855 50.5625 177.82C47.9312 177.802 47.9312 174.295 50.5625 174.313Z" fill="black"/>
<path d="M35.2341 181.664C71.4642 180.73 107.713 179.815 143.943 179.367C154.249 179.25 164.555 179.153 174.879 179.114C177.31 179.114 177.215 182.987 174.804 183.007C138.555 183.143 102.325 183.883 66.0758 184.778C55.7701 185.031 45.4644 185.284 35.1587 185.556C32.7283 185.615 32.8037 181.722 35.2341 181.664Z" fill="black"/>
<path d="M130.261 188.261C140.904 188.442 151.547 188.406 162.19 188.135C164.574 188.081 164.574 191.699 162.19 191.754C151.547 192.025 140.904 192.079 130.261 191.88C127.878 191.844 127.878 188.225 130.261 188.261Z" fill="black"/>
<path d="M18.0886 129.576C16.857 126.61 16.497 123.452 16.2506 120.275C16.0232 117.348 16.0422 114.402 16.7622 111.533C16.7622 111.475 16.7433 111.436 16.7622 111.398C17.7286 106.854 18.7708 102.232 18.7897 97.5529C18.8087 93.4129 17.5391 89.4847 17.1412 85.4216C17.1223 85.3446 17.0654 85.2868 17.0465 85.2098C16.5159 82.8028 14.3937 78.0081 17.5202 76.6024C18.8465 76.0055 20.7793 76.1402 22.2194 76.0825C24.2279 76.0247 26.2364 76.0825 28.226 76.3136C32.0346 76.7372 35.578 77.9118 39.1971 79.0672C43.0626 80.2995 46.8144 80.4151 50.7935 79.8181C54.6779 79.2212 58.5055 78.1814 62.4278 77.7578C66.2933 77.3341 70.0451 77.777 73.8537 78.528C77.9844 79.3367 81.9825 80.0685 86.208 79.8374C90.263 79.6256 94.28 78.9324 98.335 78.8553C102.2 78.7783 106.218 79.1249 109.78 80.7617C111.068 81.3586 112.357 82.1096 112.679 83.6116C113.02 85.1713 111.637 86.5192 111.94 87.8864C112.054 88.4256 111.94 88.8492 111.713 89.1766C111.447 89.889 110.803 90.4282 109.856 90.2356C109.837 90.2356 109.818 90.2356 109.799 90.2356H109.78C109.761 90.2356 109.761 90.2356 109.742 90.2356C109.515 90.2356 109.287 90.1779 109.06 90.1008C109.041 90.1008 109.022 90.1008 109.022 90.1008C108.927 90.1008 108.851 90.1394 108.757 90.1201C104.758 89.5809 100.76 89.061 96.7433 88.83C92.8779 88.6181 88.9555 89.2536 85.109 88.8685C84.8437 88.8492 84.5785 88.7722 84.3132 88.7337C80.6751 89.0418 77.037 89.5039 73.4368 90.1394C71.5041 90.486 69.3629 90.8133 67.8092 92.1035C66.3691 93.2973 65.289 95.8776 67.5249 96.8982C67.9039 97.0715 68.1881 97.3796 68.3776 97.7647C69.325 98.612 69.4766 100.403 67.9607 101.019C66.2364 101.712 64.55 102.463 62.8636 103.214C59.7561 105.043 56.6486 106.873 53.56 108.76C53.4652 108.952 53.3516 109.145 53.2379 109.338C51.8736 111.571 49.6566 112.938 47.5344 114.325C45.2606 115.827 42.9678 117.271 40.8077 118.946C38.6287 120.622 36.6012 122.509 35.0853 124.819C34.3653 125.917 32.9441 128.285 34.8579 128.882C36.1843 129.287 38.136 128.805 39.4434 128.613C45.6585 127.708 51.4378 125.05 56.3643 121.103C57.236 120.41 58.9413 120.737 59.2634 121.931C60.4951 126.552 62.5605 130.731 65.5164 134.467C66.0659 135.16 66.028 135.911 65.668 136.489C65.5354 137.201 65.0237 137.836 64.0953 137.913C60.6277 138.222 57.1412 138.51 53.7495 139.281C50.3009 140.07 47.0038 141.437 43.7826 142.862C37.6812 145.577 31.6557 148.389 25.3459 150.526C24.2658 151.913 21.5751 150.449 22.2004 148.35C23.1099 145.346 22.2194 141.688 21.4804 138.741C20.6656 135.526 19.3392 132.599 18.0886 129.576Z" fill="#00A99D"/>
<path d="M81.5656 96.2051C81.6983 95.3 82.3804 94.5298 83.2141 94.2217C83.7257 94.0484 84.2373 94.0676 84.7489 93.9714C85.6206 93.721 86.4922 93.4129 87.4207 93.644C88.027 93.7981 88.5576 94.0484 89.0502 94.4528C89.4292 94.7609 89.7513 95.1267 90.0734 95.4733C90.3956 95.8199 90.4903 96.4939 90.4335 96.9175C90.3577 97.3797 90.0734 97.8996 89.6945 98.1499C89.2776 98.4388 88.766 98.6121 88.2733 98.5158C88.2354 98.5158 88.2165 98.4965 88.1786 98.4965C87.3638 98.7661 86.4922 98.7083 85.6395 98.6698C85.3932 98.6698 85.1658 98.6891 84.9384 98.7468C84.7679 98.8046 84.5784 98.8624 84.4079 98.8816C83.9531 98.9587 83.4794 98.9009 83.0436 98.7276C82.0393 98.3232 81.414 97.2834 81.5656 96.2051Z" fill="#FBB03B"/>
<path d="M178.259 74.5806C178.051 74.2725 177.937 73.9259 177.918 73.5408C177.918 73.5215 177.918 73.483 177.918 73.4638C177.729 73.1749 177.539 72.732 177.331 72.1544C176.042 68.5727 173.219 67.7062 170.869 70.1902C169.372 71.75 167.629 72.8861 166 74.234C163.631 76.1789 163.536 77.9697 165.867 80.0686C166.625 80.7425 167.383 81.4357 168.235 81.9749C169.486 82.7452 169.372 83.708 168.804 84.8055C169.6 84.1894 170.49 83.6694 171.191 82.957C173.711 80.3959 176.213 77.8156 178.714 75.2353C178.543 75.0428 178.373 74.8309 178.259 74.5806Z" fill="#FBB03B"/>
<path d="M168.179 66.8013C168.311 65.203 167.383 64.0477 166.36 62.9886C165.621 62.2376 164.256 62.5457 163.669 63.3159C163.347 63.7203 163.252 64.1632 163.29 64.6061C162.987 64.8179 162.722 65.0875 162.532 65.4148C162.324 65.8 161.755 66.0888 161.414 66.3199C160.884 66.705 160.353 67.0901 159.822 67.456C158.894 68.1107 157.947 68.7461 156.942 69.2853C155.786 69.9207 154.441 70.2481 153.342 70.9413C152.66 71.3842 152.148 72.0774 152.035 72.9054C151.921 73.7527 152.338 74.5037 152.755 75.1969C153.456 76.3715 154.081 77.7579 155.578 77.9698C157.018 78.1816 158.269 76.7951 159.311 75.9864C161.509 74.2726 163.764 72.6166 165.734 70.6332C166.739 69.6319 168.046 68.3225 168.179 66.8013Z" fill="#FBB03B"/>
<path d="M165.469 87.0586C165.526 87.02 165.602 87.02 165.659 86.9623C166.416 86.3461 166.776 85.0752 166.075 84.2279C165.204 83.1881 164.37 82.0713 163.423 81.1085C162.835 80.5115 161.964 80.1457 161.13 80.2804C160.448 80.3767 159.917 80.7426 159.462 81.224C159.349 81.3395 159.235 81.4743 159.121 81.6091C158.875 81.8209 158.591 81.9942 158.307 82.1675C157.814 82.4564 157.416 82.7645 157.018 83.1688C156.071 84.1509 155.9 85.6336 156.336 86.9045C156.734 88.0214 157.643 88.9071 158.591 89.5618C159.424 90.1395 160.41 90.6787 161.433 90.6979C162.077 90.7172 162.703 90.6594 163.29 90.3513C163.858 90.0432 164.37 89.6774 164.73 89.1189C165.166 88.522 165.412 87.8095 165.469 87.0586Z" fill="#FBB03B"/>
<path d="M150.784 86.6348C150.86 86.0186 150.614 85.1713 150.841 84.6129C150.86 84.5936 150.841 84.5936 150.841 84.5936C150.86 84.5744 150.841 84.5744 150.86 84.5551C150.974 84.3818 151.315 84.324 151.504 84.2085C151.731 84.0545 151.959 83.8811 152.148 83.6501C152.906 82.7258 152.793 81.6667 152.433 80.5884C151.845 78.7783 151.22 76.9682 150.614 75.1582C150.272 74.1569 149.06 73.6755 148.131 74.0413C147.62 74.2339 147.26 74.6383 147.089 75.1004C146.426 74.9271 145.687 75.1197 145.175 75.7551C144.361 76.7564 143.11 77.2186 141.954 77.7385C140.533 78.3739 139.188 79.0672 138.108 80.2033C137.028 81.3201 136.383 82.8606 136.459 84.4203C136.535 85.9223 137.369 87.2124 138.202 88.4063C139.093 89.6965 140.078 91.3525 141.443 92.1612C142.92 93.0663 144.531 92.219 145.914 91.5643C147.354 90.8903 148.946 90.1393 149.931 88.8299C150.405 88.1945 150.708 87.4243 150.784 86.6348Z" fill="#FBB03B"/>
<path d="M156.26 94.549C156.45 94.0483 156.431 93.5862 156.279 93.0855C155.9 91.8146 154.593 90.9481 153.323 90.9288C152.603 90.9288 151.94 91.1407 151.352 91.5643C150.992 91.8339 150.689 92.1612 150.367 92.4886C149.685 93.124 148.946 93.6825 148.15 94.1446C148.112 94.1639 148.074 94.1831 148.036 94.2024C147.639 94.3949 147.335 94.6452 147.108 95.0304C146.919 95.377 146.748 95.8391 146.843 96.2435C146.975 96.8404 147.165 97.3218 147.601 97.784C148.018 98.2269 148.51 98.4579 149.117 98.5927C149.552 98.7083 150.159 98.4964 150.519 98.2269C150.898 97.938 151.239 97.4181 151.277 96.9367C151.277 96.8789 151.258 96.8212 151.277 96.7634C151.428 96.6479 151.599 96.5709 151.75 96.4553C152.262 96.0702 152.717 95.6273 153.172 95.1652C153.361 95.3385 153.569 95.4925 153.778 95.5888C154.195 95.7814 154.801 95.8006 155.218 95.6081C155.654 95.3962 156.071 95.0304 156.26 94.549Z" fill="#FBB03B"/>
<path d="M143.47 103.214C140.912 105.217 138.127 106.988 135.171 108.298C134.47 108.606 133.731 108.798 132.973 108.664C132.859 108.644 132.764 108.587 132.669 108.567L128.406 104.485C128.16 104.196 127.913 103.927 127.667 103.638C126.625 102.367 125.545 100.923 126.265 99.1704C126.871 97.6684 128.444 97.0137 129.751 96.2627C131.059 95.5117 132.347 94.7607 133.655 94.029C134.981 93.2973 136.44 92.7389 137.899 93.4513C138.638 93.8172 139.282 94.4334 139.908 94.9726C140.514 95.4925 141.101 96.0124 141.689 96.5323C142.864 97.5914 144.02 98.6697 145.156 99.7673C145.914 100.499 146.161 101.616 145.479 102.502C145.024 103.099 144.19 103.387 143.47 103.214Z" fill="#FBB03B"/>
<path d="M131.229 87.2318C130.945 86.2497 130.244 85.518 129.524 84.844C128.861 84.2278 127.724 84.3434 127.061 84.9596C126.966 84.9788 126.871 84.9788 126.777 85.0173C126.739 85.0366 126.739 85.0366 126.72 85.0366C126.72 85.0366 126.72 85.0366 126.701 85.0366C126.682 85.0366 126.587 85.0366 126.53 85.0366C126.473 85.0173 126.417 84.9981 126.36 84.9596C126.587 85.1136 126.568 85.0944 126.303 84.9403C126.208 84.8825 126.113 84.8248 126.019 84.767C125.791 84.6515 125.602 84.5745 125.318 84.5167C124.844 84.4397 124.427 84.4589 123.972 84.613C123.404 84.8055 122.873 85.2099 122.362 85.518C122.343 85.5373 122.343 85.518 122.343 85.5372C122.324 85.5372 122.324 85.5565 122.267 85.5758C122.172 85.6335 122.058 85.6913 121.964 85.7298C121.698 85.8646 121.433 85.9801 121.168 86.0957C120.694 86.3075 120.202 86.5001 119.709 86.6541C119.463 86.7311 119.216 86.8081 118.951 86.8852C118.913 86.9044 118.761 86.9429 118.724 86.9429C118.648 86.9622 118.572 86.9815 118.496 87.0007C117.416 87.251 116.317 87.3666 115.218 87.4051C114.403 87.4243 113.608 88.2716 113.532 89.0611C113.456 89.9084 113.873 90.7941 114.688 91.1215C116.431 91.8532 118.307 92.2961 120.183 92.5272C121.945 92.7582 123.783 92.9123 125.564 92.7968C127.421 92.6812 129.278 92.0265 130.509 90.5631C131.286 89.6388 131.571 88.4064 131.229 87.2318Z" fill="#FBB03B"/>
<path d="M112.433 96.3784C112.546 96.0703 112.736 95.8007 112.906 95.5311C112.925 95.4926 112.944 95.4733 112.963 95.4348C112.982 95.3771 112.982 95.3193 113.001 95.2615C113.039 94.9727 113.096 94.7416 113.191 94.4528C113.456 93.7018 114.062 93.1819 114.82 93.0086C115.464 92.8545 116.09 92.9315 116.715 93.1241C117.7 93.3359 118.648 93.6055 119.5 94.0676C120.751 94.7416 121.736 95.7429 122.494 96.9175C122.93 97.3604 123.366 97.8226 123.688 98.3617C124.389 99.5556 124.73 101.058 123.802 102.251C123.1 103.176 122.02 103.407 120.978 103.657C119.936 103.907 118.913 104.062 117.833 104.004C116.829 103.946 115.9 103.599 115.047 103.041C114.271 102.54 113.702 101.77 113.247 100.961C112.755 100.095 112.281 99.1705 112.186 98.1499C112.129 97.5722 112.205 96.956 112.433 96.3784Z" fill="#FBB03B"/>
<path d="M177.122 83.9391C171.987 88.4065 166.473 92.3925 160.618 95.7815C159.728 96.3014 159.197 97.3413 159.652 98.3618C160.05 99.2476 161.281 99.8638 162.191 99.3439C168.349 95.7623 174.185 91.6222 179.567 86.943C181.443 85.3063 178.998 82.3023 177.122 83.9391Z" fill="black"/>
<path d="M179.567 63.6816C180.021 62.9306 180.495 62.1989 180.95 61.4479C181.48 60.6007 181.992 59.7727 182.523 58.9254C182.977 58.1937 183.489 57.4812 183.887 56.7302C184.493 55.5363 184.398 54.2269 183.47 53.2256C182.845 52.5517 182.087 51.9932 181.405 51.3963C180.647 50.7223 179.396 50.6453 178.695 51.4733C178.657 51.5311 178.638 51.5889 178.581 51.6659C178.089 51.6851 177.615 51.8199 177.179 52.0703C176.459 52.5132 175.796 53.1293 175.133 53.6685C174.507 54.1884 173.901 54.7276 173.314 55.286C172.726 55.8444 172.158 56.4221 171.627 57.0383C171.021 57.7123 170.225 58.4825 169.808 59.2913C168.766 61.3517 171.135 62.9307 172.556 63.9705C174.034 65.0681 176.061 66.7818 177.937 65.588C178.657 65.1258 179.112 64.4134 179.567 63.6816Z" fill="#FBB03B"/>
<path d="M203.896 35.2599C204.086 34.8555 204.256 34.4319 204.37 33.989C204.503 33.4498 204.521 32.8144 204.351 32.2945C204.105 31.5435 203.593 30.9273 202.911 30.5422C202.475 30.3111 201.963 30.157 201.471 30.08C201.092 30.0223 200.751 29.9837 200.372 30.1185C200.012 30.2341 199.709 30.4266 199.424 30.6962C199.159 30.9465 199.026 31.2546 198.913 31.582C198.894 31.6205 198.856 31.6783 198.837 31.7168C198.78 31.7745 198.723 31.8323 198.666 31.8901C198.401 32.0826 198.136 32.2559 197.871 32.41C197.643 32.5448 197.435 32.7181 197.264 32.9299C196.355 33.5654 195.881 34.9325 196.923 35.9338C197.151 36.1457 197.397 36.2997 197.643 36.3767C197.662 36.396 197.662 36.4152 197.681 36.4152C197.946 36.6656 198.231 36.8966 198.572 37.0507C199.273 37.378 200.088 37.4743 200.827 37.1855C200.864 37.1662 200.902 37.147 200.94 37.1277C200.959 37.1277 200.978 37.147 201.016 37.147C201.584 37.1855 202.134 37.0122 202.646 36.7426C202.702 36.7041 202.759 36.6656 202.816 36.6271C203.006 36.4923 203.195 36.3382 203.347 36.1649C203.536 35.8761 203.745 35.5872 203.896 35.2599Z" fill="#FBB03B"/>
<path d="M215.985 58.7522C215.265 59.0026 214.432 58.6752 213.958 58.0975C213.655 57.7317 213.541 57.2888 213.541 56.8459C213.257 56.5378 212.991 56.2297 212.783 55.8638C212.461 55.3054 212.234 54.6314 212.252 53.9767C212.271 53.6879 212.328 53.3991 212.404 53.1102C212.082 52.8599 211.798 52.5325 211.665 52.1282C211.324 51.1269 212.006 49.9907 212.973 49.7019C213.958 49.4131 215.038 49.3746 216.023 49.6249C216.952 49.856 217.842 50.3181 218.524 50.9728C219.453 51.8586 219.889 53.1102 219.642 54.3811C219.453 55.3247 218.884 56.0949 218.335 56.8459C217.729 57.7124 216.99 58.4056 215.985 58.7522Z" fill="#FBB03B"/>
<path d="M199.046 57.6159C198.591 58.598 197.359 58.8676 196.45 58.4247C195.066 57.77 193.702 57.0768 192.357 56.3258C191.675 55.9599 190.841 55.6133 190.272 55.0742C189.42 54.2654 189.306 52.9752 189.874 51.9739C190.235 51.3385 190.784 50.8186 191.277 50.2987C191.864 49.6632 192.414 48.9122 193.247 48.6234C194.138 48.3153 195.123 48.7774 195.616 49.5477C195.673 49.6247 195.786 50.0868 195.862 50.1061C195.9 50.1061 195.654 49.7402 195.786 49.9328C195.824 49.9906 195.862 50.0483 195.9 50.1061C195.9 50.1254 195.919 50.1254 195.938 50.1639C195.976 50.2216 196.014 50.2602 196.033 50.2987C196.014 50.2602 196.014 50.2409 195.995 50.2216C196.033 50.2602 196.09 50.3179 196.127 50.3564C196.241 50.472 196.374 50.5875 196.506 50.703C196.734 50.8956 196.98 51.0882 197.226 51.2807C198.288 52.128 199.368 52.9945 200.429 53.8418C201.281 54.5157 201.13 55.8636 200.505 56.5954C200.145 57.019 199.671 57.1923 199.178 57.1923C199.121 57.3271 199.102 57.4811 199.046 57.6159Z" fill="#FBB03B"/>
<path d="M195.976 50.2226C195.9 50.0675 195.861 50.0481 195.9 50.1063C195.919 50.1257 195.919 50.1451 195.938 50.1644C195.938 50.1644 195.938 50.2032 195.976 50.2226Z" fill="#FBB03B"/>
<path d="M222.769 33.8541C224.228 31.813 225.573 28.5395 224.001 26.1902C222.636 24.1683 220.59 22.0309 217.956 22.2813C216.744 22.3968 215.663 22.936 214.508 23.2633C213.39 23.5907 212.234 23.7832 211.116 24.0913C209.979 24.3994 208.804 24.8423 207.8 25.5163C207.345 25.8244 206.928 26.2095 206.663 26.6716C205.735 26.7294 204.844 27.3841 204.882 28.5972C204.92 30.0992 205.772 31.3508 206.966 32.1788C208.008 32.8913 209.221 33.1609 210.339 33.7193C211.438 34.2777 212.158 34.8554 213.086 35.6642C214.186 36.627 215.379 37.3972 216.857 37.4742C219.283 37.5705 221.424 35.7219 222.769 33.8541Z" fill="#FBB03B"/>
<path d="M183.962 69.5741C184.285 69.7089 184.588 69.8629 184.853 70.1132C184.891 70.1517 184.91 70.1903 184.948 70.2095C188.207 67.3981 191.466 64.5868 194.725 61.7561C193.171 59.6187 190.973 58.6752 188.472 58.2708C187.695 58.1553 186.843 58.3093 186.52 59.0025C185.061 62.1413 182.068 64.8564 183.811 68.9194C183.925 69.1697 183.962 69.3815 183.962 69.5741Z" fill="#FBB03B"/>
<path d="M194.707 38.3792C196.715 41.1906 196.583 41.0943 193.229 44.9262C191.258 47.1792 189.629 46.8518 187.734 45.1188C187.866 44.7529 187.999 44.3678 188.132 44.002C189.894 41.9223 191.561 39.7271 193.854 38.1866C194.138 38.2444 194.422 38.3022 194.707 38.3792Z" fill="#FBB03B"/>
<path d="M203.214 50.2602C202.665 50.8187 201.547 51.7237 200.069 50.2025C198.818 48.9316 199.159 44.9456 200.865 43.3281C202.229 42.0187 203.593 42.7889 204.749 43.8672C206.303 45.3692 205.962 47.3141 203.214 50.2602Z" fill="#FBB03B"/>
<path d="M187.392 30.0993C182.901 35.2214 177.956 39.9198 172.594 44.0984C171.779 44.7338 171.4 45.8314 171.987 46.7942C172.499 47.6222 173.806 48.0651 174.64 47.4104C180.268 43.02 185.497 38.129 190.234 32.7566C191.864 30.8695 189.041 28.2314 187.392 30.0993Z" fill="black"/>
<path d="M227.62 2.38986C227.014 2.98679 226.445 3.60299 225.877 4.23843C225.138 5.0857 224.058 5.99073 224.74 7.22311C224.986 7.666 225.365 7.99335 225.744 8.30145C226.369 8.84062 226.995 9.36053 227.639 9.88044C227.942 10.1308 228.264 10.3811 228.586 10.6314C228.871 10.8625 229.155 11.1321 229.458 11.3246C229.951 11.6135 230.386 11.9986 230.841 12.3452C231.125 12.5378 231.447 12.7111 231.789 12.6533C232.092 12.5955 232.376 12.4607 232.622 12.2682C232.925 12.0371 233.191 11.729 233.418 11.4209C233.627 11.1321 233.854 10.8047 234.043 10.4774C234.877 9.1102 235.616 7.70451 236.564 6.41436C236.677 6.26031 236.81 6.08701 236.886 5.89445C237.018 5.54784 236.886 5.18198 236.715 4.87388C236.147 3.89183 235.237 3.04456 234.384 2.31283C233.475 1.54259 232.509 0.887891 231.504 0.252443C231.315 0.136907 231.106 0.0213711 230.879 0.0021151C230.652 -0.0171409 230.424 0.0983951 230.216 0.213931C229.799 0.445003 229.42 0.733843 229.06 1.04194C228.548 1.46557 228.094 1.92771 227.62 2.38986ZM231.883 9.5916C231.826 9.70714 231.751 9.84193 231.637 9.8997C231.391 10.0537 231.22 9.7649 231.05 9.63011C230.784 9.43755 230.538 9.24499 230.273 9.05243C229.249 8.26294 228.245 7.45419 227.26 6.60692C227.014 6.41436 227.336 6.16403 227.468 6.00998C227.658 5.77891 227.847 5.5671 228.037 5.33603C228.416 4.91239 228.795 4.48876 229.212 4.08439C229.572 3.73778 229.932 3.39117 230.311 3.06382C230.519 2.89051 230.709 2.58242 231.012 2.65944C231.599 2.81349 232.13 3.37191 232.584 3.73778C233.096 4.16141 233.608 4.6043 234.062 5.10495C234.176 5.22049 234.29 5.37454 234.252 5.52859C234.233 5.62487 234.195 5.70189 234.138 5.75966C233.323 6.97278 232.584 8.24368 231.902 9.55309C231.902 9.57234 231.883 9.57234 231.883 9.5916Z" fill="#FBB03B"/>
<path d="M132.385 145.751C131.779 146.348 131.21 146.964 130.661 147.599C129.922 148.447 128.842 149.352 129.524 150.584C129.77 151.027 130.149 151.354 130.528 151.662C131.154 152.202 131.779 152.722 132.423 153.241C132.745 153.492 133.048 153.742 133.371 153.992C133.655 154.223 133.939 154.493 134.242 154.686C134.735 154.974 135.171 155.36 135.644 155.706C135.91 155.918 136.232 156.072 136.573 156.014C136.876 155.957 137.16 155.822 137.407 155.629C137.71 155.398 137.975 155.09 138.202 154.782C138.43 154.474 138.638 154.166 138.847 153.838C139.68 152.471 140.419 151.065 141.367 149.756C141.48 149.602 141.613 149.429 141.689 149.255C141.822 148.909 141.689 148.543 141.518 148.235C140.95 147.253 140.04 146.406 139.188 145.674C138.278 144.904 137.312 144.249 136.308 143.613C136.118 143.498 135.91 143.363 135.682 143.344C135.455 143.325 135.227 143.44 135.019 143.556C134.602 143.787 134.223 144.076 133.863 144.384C133.314 144.807 132.859 145.289 132.385 145.751ZM136.649 152.933C136.592 153.049 136.516 153.184 136.402 153.241C136.156 153.395 135.985 153.107 135.815 152.972C135.55 152.779 135.303 152.587 135.038 152.394C134.015 151.605 133.011 150.796 132.025 149.949C131.779 149.756 132.101 149.506 132.234 149.352C132.423 149.121 132.613 148.909 132.802 148.678C133.181 148.254 133.56 147.83 133.977 147.426C134.337 147.08 134.697 146.733 135.076 146.406C135.284 146.232 135.474 145.924 135.777 146.001C136.364 146.155 136.895 146.694 137.35 147.08C137.861 147.503 138.373 147.946 138.828 148.447C138.941 148.562 139.055 148.716 139.017 148.87C138.998 148.947 138.96 149.024 138.903 149.101C138.089 150.315 137.35 151.585 136.668 152.895C136.668 152.914 136.649 152.933 136.649 152.933Z" fill="#FBB03B"/>
<path d="M192.186 82.0712C191.39 82.3408 190.613 82.6489 189.836 82.9762C188.813 83.4191 187.449 83.7657 187.544 85.1522C187.582 85.6528 187.79 86.115 187.98 86.5771C188.321 87.3281 188.662 88.0791 189.022 88.8301C189.192 89.1959 189.382 89.5618 189.552 89.9277C189.704 90.255 189.855 90.6209 190.045 90.929C190.367 91.4104 190.594 91.9495 190.86 92.4694C191.011 92.7775 191.239 93.0664 191.58 93.1627C191.883 93.2397 192.186 93.2397 192.489 93.1819C192.868 93.1049 193.228 92.9508 193.569 92.7775C193.91 92.6042 194.232 92.4117 194.555 92.1999C195.881 91.3333 197.151 90.3705 198.553 89.6388C198.723 89.5425 198.913 89.4463 199.045 89.3115C199.311 89.0611 199.349 88.676 199.33 88.3294C199.235 87.1933 198.78 86.0187 198.306 84.9981C197.814 83.9198 197.207 82.8992 196.582 81.8787C196.468 81.6861 196.336 81.4743 196.127 81.3587C195.919 81.2432 195.673 81.2432 195.445 81.2625C194.971 81.2817 194.517 81.378 194.043 81.4935C193.437 81.6476 192.811 81.8594 192.186 82.0712ZM192.982 90.4476C192.868 90.5246 192.755 90.6209 192.622 90.6209C192.338 90.6401 192.3 90.3128 192.205 90.1202C192.053 89.8314 191.902 89.5425 191.75 89.2537C191.163 88.0983 190.594 86.9237 190.064 85.7299C189.931 85.441 190.329 85.364 190.519 85.287C190.784 85.1714 191.049 85.0366 191.314 84.9211C191.845 84.69 192.357 84.4975 192.906 84.3049C193.38 84.1509 193.854 83.9968 194.327 83.862C194.592 83.785 194.896 83.5924 195.142 83.8043C195.616 84.1894 195.843 84.9211 196.108 85.4603C196.393 86.0765 196.658 86.6927 196.847 87.3474C196.885 87.5014 196.942 87.6747 196.847 87.8095C196.791 87.8865 196.715 87.925 196.658 87.9635C195.407 88.6953 194.195 89.5233 193.02 90.4091C193.001 90.4283 193.001 90.4283 192.982 90.4476Z" fill="#00A99D"/>
<path d="M33.7207 162.33C32.9249 162.6 32.148 162.908 31.3711 163.235C30.3479 163.678 28.9836 164.025 29.0784 165.411C29.1163 165.912 29.3247 166.374 29.5142 166.836C29.8553 167.587 30.1963 168.338 30.5564 169.089C30.7269 169.455 30.9164 169.821 31.0869 170.187C31.2385 170.514 31.3901 170.88 31.5796 171.188C31.9017 171.669 32.1291 172.208 32.3943 172.728C32.5459 173.036 32.7733 173.325 33.1144 173.422C33.4176 173.499 33.7207 173.499 34.0239 173.441C34.4029 173.364 34.7629 173.21 35.104 173.036C35.445 172.863 35.7672 172.671 36.0893 172.459C37.4157 171.592 38.6852 170.629 40.0874 169.898C40.2579 169.801 40.4474 169.705 40.58 169.57C40.8453 169.32 40.8832 168.935 40.8643 168.588C40.7695 167.452 40.3148 166.278 39.8411 165.257C39.3484 164.179 38.742 163.158 38.1168 162.138C38.0031 161.945 37.8704 161.733 37.662 161.618C37.4536 161.502 37.2072 161.502 36.9799 161.521C36.5061 161.541 36.0514 161.637 35.5777 161.752C34.9524 161.906 34.346 162.118 33.7207 162.33ZM34.5166 170.706C34.4029 170.783 34.2892 170.88 34.1565 170.88C33.8723 170.899 33.8344 170.572 33.7397 170.379C33.5881 170.09 33.4365 169.801 33.2849 169.513C32.6975 168.357 32.1291 167.183 31.5985 165.989C31.4659 165.7 31.8638 165.623 32.0533 165.546C32.3186 165.43 32.5838 165.295 32.8491 165.18C33.3797 164.949 33.8913 164.756 34.4408 164.564C34.9145 164.41 35.3882 164.256 35.8619 164.121C36.1272 164.044 36.4303 163.851 36.6767 164.063C37.1504 164.448 37.3778 165.18 37.643 165.719C37.9273 166.335 38.1925 166.952 38.382 167.606C38.4199 167.76 38.4768 167.934 38.382 168.068C38.3252 168.145 38.2494 168.184 38.1925 168.222C36.942 168.954 35.7293 169.782 34.5545 170.668C34.5355 170.687 34.5166 170.687 34.5166 170.706Z" fill="#00A99D"/>
<path d="M5.05203 63.8549C4.2562 64.1244 3.4793 64.4325 2.70242 64.7599C1.67921 65.2028 0.314927 65.5494 0.409669 66.9358C0.447565 67.4365 0.656004 67.8986 0.845488 68.3608C1.18656 69.1117 1.52762 69.8627 1.88764 70.6137C2.05818 70.9796 2.24767 71.3454 2.41821 71.7113C2.56979 72.0387 2.72137 72.4045 2.91085 72.7126C3.23298 73.194 3.46036 73.7332 3.72563 74.2531C3.87722 74.5612 4.10461 74.85 4.44568 74.9463C4.74886 75.0233 5.05202 75.0233 5.3552 74.9656C5.73416 74.8885 6.09418 74.7345 6.43525 74.5612C6.77632 74.3879 7.09845 74.1953 7.42058 73.9835C8.74696 73.117 10.0165 72.1542 11.4187 71.4225C11.5892 71.3262 11.7787 71.2299 11.9113 71.0951C12.1766 70.8448 12.2145 70.4597 12.1956 70.1131C12.1008 68.9769 11.6461 67.8023 11.1723 66.7818C10.6797 65.7034 10.0733 64.6829 9.44805 63.6623C9.33436 63.4697 9.20171 63.2579 8.99328 63.1424C8.78485 63.0268 8.53852 63.0269 8.31114 63.0461C7.83743 63.0654 7.38267 63.1616 6.90896 63.2772C6.28366 63.4312 5.67733 63.643 5.05203 63.8549ZM5.84786 72.212C5.73417 72.289 5.62047 72.3853 5.48783 72.3853C5.20361 72.4045 5.16571 72.0772 5.07097 71.8846C4.91938 71.5958 4.7678 71.3069 4.61621 71.0181C4.02881 69.8627 3.46036 68.6881 2.92981 67.4942C2.79717 67.2054 3.19508 67.1284 3.38456 67.0513C3.64984 66.9358 3.91511 66.801 4.18039 66.6855C4.71095 66.4544 5.22256 66.2619 5.77206 66.0693C6.24577 65.9152 6.71948 65.7612 7.19319 65.6264C7.45847 65.5494 7.76164 65.3568 8.00797 65.5686C8.48168 65.9538 8.70906 66.6855 8.97434 67.2247C9.25857 67.8408 9.52384 68.457 9.71333 69.1117C9.75122 69.2658 9.80807 69.4391 9.71333 69.5739C9.65648 69.6509 9.58069 69.6894 9.52385 69.7279C8.27325 70.4597 7.06055 71.2877 5.88575 72.1734C5.8668 72.212 5.84786 72.212 5.84786 72.212Z" fill="#FBB03B"/>
<path d="M147.033 49.1434C146.881 49.9714 146.786 50.8187 146.71 51.6659C146.616 52.7828 146.256 54.1885 147.525 54.7469C147.98 54.9587 148.473 54.9972 148.965 55.0165C149.78 55.0742 150.595 55.1127 151.41 55.1513C151.808 55.1705 152.205 55.1898 152.622 55.1898C152.982 55.209 153.361 55.2475 153.721 55.2283C154.29 55.1705 154.877 55.2283 155.446 55.2283C155.787 55.2283 156.147 55.1705 156.374 54.9202C156.583 54.6891 156.734 54.4003 156.829 54.1114C156.943 53.7456 156.962 53.3412 156.98 52.9561C156.98 52.571 156.98 52.1858 156.943 51.82C156.81 50.2217 156.583 48.6427 156.601 47.0252C156.601 46.8327 156.601 46.6209 156.564 46.4283C156.469 46.0624 156.166 45.8506 155.844 45.7158C154.801 45.2729 153.589 45.1189 152.471 45.0419C151.296 44.9648 150.121 45.0226 148.965 45.0996C148.738 45.1189 148.492 45.1381 148.302 45.2537C148.113 45.3885 147.98 45.6003 147.885 45.8121C147.677 46.255 147.544 46.6979 147.43 47.1793C147.241 47.8147 147.146 48.4887 147.033 49.1434ZM154.669 52.3784C154.688 52.5132 154.707 52.648 154.65 52.7828C154.536 53.0524 154.233 52.9176 154.025 52.9176C153.702 52.9176 153.38 52.9176 153.058 52.9176C151.77 52.8983 150.481 52.8405 149.212 52.7635C148.908 52.7443 149.022 52.3591 149.041 52.1473C149.06 51.8585 149.079 51.5696 149.098 51.2616C149.155 50.6839 149.231 50.1254 149.325 49.5478C149.401 49.0471 149.496 48.5465 149.61 48.0651C149.666 47.7955 149.647 47.4296 149.932 47.3141C150.481 47.083 151.239 47.2178 151.827 47.2371C152.49 47.2756 153.153 47.3333 153.816 47.4489C153.968 47.4874 154.138 47.5259 154.214 47.6799C154.252 47.757 154.252 47.8532 154.252 47.9303C154.29 49.3937 154.441 50.8764 154.65 52.3399C154.669 52.3591 154.669 52.3591 154.669 52.3784Z" fill="#00A99D"/>
<path d="M232.072 35.5872C230.367 33.8541 227.392 32.4677 226.085 31.8323C220.211 28.9824 214.413 25.9592 208.69 22.7819C206.17 21.3762 203.517 21.2992 202.267 24.4187C201.755 25.6896 201.395 26.999 201.149 28.3469C200.656 31.0428 201.243 34.0659 203.309 35.953C205.507 37.9749 208.501 38.1675 211.191 37.1662C213.143 36.4344 214.659 34.971 215.947 33.3342C216.251 33.5075 216.554 33.7001 216.876 33.8734C216.592 35.048 216.497 36.2804 216.592 37.4935C216.895 41.2677 219.908 44.6375 223.678 45.0034C227.525 45.3692 230.462 42.5193 232.698 39.7465C233.891 38.283 233.304 36.8388 232.072 35.5872Z" fill="black"/>
<path d="M167.781 115.057C168.558 113.689 167.895 111.918 166.833 110.936C165.886 110.05 164.598 109.607 163.309 109.819C161.793 110.069 160.732 111.109 159.917 112.342C159.595 112.823 159.311 113.343 159.046 113.863C158.856 114.248 158.686 114.672 158.553 115.076C158.42 115.5 158.382 115.923 158.345 116.366C158.307 116.828 158.629 117.425 158.951 117.733C159.292 118.061 159.841 118.292 160.315 118.272C160.599 118.253 160.865 118.157 161.13 118.041C161.623 118.176 162.153 118.138 162.627 117.849C163.101 117.579 163.593 117.329 164.086 117.098C164.541 116.905 164.976 116.732 165.431 116.578C166.341 116.251 167.25 115.962 167.781 115.057Z" fill="#FBB03B"/>
<path d="M148.889 109.819C148.681 109.838 148.491 109.877 148.302 109.915C147.885 109.973 147.525 110.166 147.203 110.435C146.237 110.474 145.384 111.533 145.498 112.496C145.611 113.593 146.426 114.267 147.468 114.306C147.468 114.306 147.449 114.306 147.487 114.325C147.582 114.344 147.696 114.364 147.79 114.383C147.79 114.383 147.79 114.383 147.809 114.383C147.885 114.421 147.961 114.46 148.037 114.498C148.112 114.575 148.188 114.633 148.264 114.71C148.416 114.864 148.548 115.038 148.719 115.172C149.95 116.193 151.466 115.808 152.812 115.326C153.323 115.153 153.835 114.941 154.346 114.691C154.877 114.441 155.445 114.19 155.9 113.805C156.544 113.247 156.942 112.592 157.132 111.745C157.17 111.533 157.208 111.34 157.227 111.129C157.246 111.032 157.246 110.917 157.264 110.82C157.283 110.686 157.416 110.32 157.246 110.82C157.473 110.224 157.511 109.684 157.208 109.087C156.961 108.587 156.469 108.105 155.881 108.048C154.403 107.894 153.058 108.259 151.694 108.818C151.144 109.049 150.595 109.299 150.007 109.492C149.704 109.588 149.382 109.684 149.06 109.761C149.022 109.8 148.965 109.8 148.889 109.819Z" fill="#FBB03B"/>
<path d="M132.935 121.045C134.488 120.776 135.891 120.102 137.331 119.466C139.131 118.696 141.007 118.099 142.996 118.215C144.834 118.311 146.483 119.158 147.695 120.545C148.378 121.334 148.074 122.644 147.316 123.241C146.862 123.587 146.331 123.664 145.857 123.568C145.611 125.089 144.114 125.994 142.56 125.994C141.897 125.994 141.594 126.052 140.988 126.379C140.135 126.841 139.396 127.265 138.449 127.496C135.625 128.209 130.017 128.728 129.638 124.531C129.448 122.432 131.153 121.353 132.935 121.045Z" fill="#FBB03B"/>
<path d="M104.455 142.054C104.55 141.206 104.645 140.359 104.739 139.512C104.853 138.491 104.891 137.451 105.782 136.777C106.615 136.142 107.752 136.354 108.7 136.412C109.533 136.469 110.367 136.527 111.201 136.604C111.599 136.643 112.016 136.681 112.414 136.72C112.622 136.739 112.83 136.758 113.039 136.777C113.645 136.7 114.195 136.951 114.536 137.471C114.801 137.759 114.972 138.106 115.028 138.491C115.786 140.244 116.525 141.996 117.226 143.767C117.549 144.595 117.113 145.462 116.355 145.828C116.298 145.847 116.241 145.886 116.203 145.905C116.165 145.924 116.165 145.924 116.165 145.924C116.127 145.963 116.09 145.982 116.052 146.001C115.881 146.117 115.711 146.271 115.559 146.405C115.407 146.559 115.199 146.636 114.991 146.675C114.896 147.465 114.706 148.215 114.024 148.774C113.19 149.467 112.11 149.525 111.087 149.371C110.727 149.313 110.386 149.255 110.045 149.159C109.098 149.043 108.169 148.832 107.316 148.408C106.009 147.753 104.853 146.656 104.398 145.231V145.212C104.379 145.154 104.323 145.115 104.323 145.058C104.038 144.152 104.342 142.997 104.455 142.054Z" fill="#FBB03B"/>
<path d="M98.0318 89.6581C98.0697 89.4078 98.1076 89.1575 98.1644 88.9071C99.6424 89.5618 101.272 89.947 102.826 90.2551C103.887 90.4669 104.948 90.6402 106.028 90.6979C106.464 90.7172 106.919 90.7557 107.354 90.7365C109.041 91.757 110.045 93.7019 109.609 95.8008C109.458 96.5518 108.719 97.2835 107.885 97.0717C105.497 96.4362 103.091 97.168 100.609 97.6686C99.9645 97.8034 99.2255 98.0152 98.5813 97.8997C97.5391 97.7264 97.1791 96.7636 97.0654 95.82C96.9328 94.6069 97.1222 93.3553 97.577 92.2192C97.7096 91.3334 97.8612 90.4861 98.0318 89.6581Z" fill="#FBB03B"/>
<path d="M84.7114 107.547C84.8819 106.873 85.0524 106.199 85.223 105.525C85.223 105.467 85.204 105.429 85.204 105.39C85.1851 104.87 85.2609 104.447 85.4314 103.946C85.5451 103.599 85.7535 103.253 85.9809 102.964C86.1704 102.694 86.3978 102.463 86.6631 102.271C86.7389 102.194 86.7957 102.078 86.8904 102.02C87.421 101.655 88.0652 101.481 88.6905 101.597C89.2969 101.693 89.8274 102.059 90.2064 102.54C90.4148 102.81 90.5475 103.099 90.6422 103.407C90.6991 103.484 90.7748 103.561 90.8127 103.657C91.438 105.044 91.5138 106.661 91.2486 108.144C91.1159 108.876 90.9075 109.588 90.6801 110.3C90.4527 110.994 90.2443 111.725 89.8653 112.342C89.3348 113.189 88.2926 113.497 87.3831 113.131C86.8146 112.9 86.2272 112.399 85.8104 111.976C85.2419 111.417 84.8251 110.801 84.6166 110.012C84.4082 109.184 84.5219 108.356 84.7114 107.547Z" fill="#FBB03B"/>
<path d="M70.8596 100.249C71.1059 99.6711 71.5607 99.2282 72.0533 98.8623C72.1481 98.9008 72.2239 98.9393 72.3186 98.9586C75.7104 99.4978 79.14 100.364 82.5697 99.9984C82.5697 100.152 82.5886 100.307 82.5886 100.461C82.5697 101.616 82.0391 102.521 81.1485 103.214C79.879 104.196 78.2684 104.678 76.7904 105.236C75.7483 105.621 74.7629 105.756 73.7018 105.371C72.8681 105.043 72.1102 104.389 71.6365 103.619C71.0491 102.675 70.3859 101.366 70.8596 100.249Z" fill="#FBB03B"/>
<path d="M85.9049 132.965C86.3975 131.867 87.1744 131.02 88.0271 130.192C88.3871 129.845 89.0124 129.845 89.4293 130.038C89.5619 130.096 89.6756 130.173 89.7703 130.269C90.4714 130.519 90.983 131.097 91.2294 131.79C91.4188 131.925 91.5325 131.983 91.8547 132.156C92.2905 132.368 92.7263 132.56 93.181 132.715C93.2189 132.734 93.2189 132.734 93.2379 132.734C93.3516 132.772 93.4653 132.792 93.579 132.83C93.7874 132.869 93.9769 132.907 94.1853 132.946C94.7348 133.061 95.2654 133.215 95.7391 133.543C96.6486 134.159 96.9518 135.353 96.9897 136.412C97.0276 137.49 96.8381 138.588 96.3833 139.57C96.0991 140.167 95.7201 140.687 95.0948 140.918C94.4885 141.149 93.7684 141.033 93.1432 140.937C92.1578 140.783 91.1915 140.494 90.263 140.128C88.4818 139.454 86.3407 138.472 85.6775 136.508C85.2796 135.353 85.4122 134.062 85.9049 132.965Z" fill="#FBB03B"/>
<path d="M116.506 133.215C116.847 132.618 117.473 132.233 118.155 131.944C118.553 131.771 119.083 131.694 119.443 131.463C119.462 131.444 119.5 131.424 119.519 131.424C119.614 131.367 119.709 131.328 119.803 131.27C120.012 131.155 120.22 131.02 120.429 130.904C120.864 130.635 121.319 130.365 121.793 130.115C122.532 129.749 123.252 129.402 124.124 129.499C124.938 129.595 125.658 130.019 126.17 130.539C126.947 131.367 127.155 132.58 126.795 133.6C126.416 134.659 125.677 135.603 124.711 136.373C124.048 136.893 123.138 137.201 122.267 137.22C122.323 137.355 122.399 137.471 122.456 137.605C122.778 138.356 122.342 139.358 121.357 139.666C120.41 139.955 119.292 139.647 118.951 138.838C118.78 138.414 118.572 138.01 118.363 137.605C118.25 137.394 118.136 137.163 117.984 136.97C118.231 137.297 117.984 136.951 117.927 136.893C117.852 136.797 117.776 136.681 117.7 136.585C117.435 136.219 117.113 135.872 116.828 135.507C116.26 134.833 116.052 134.005 116.506 133.215Z" fill="#FBB03B"/>
<path d="M119.974 110.32C120.05 109.684 120.448 109.164 121.035 108.933C121.433 108.76 121.907 108.76 122.324 108.722C122.779 108.683 123.233 108.645 123.707 108.625C124.749 108.568 126.019 108.375 126.758 109.318C127.137 109.819 127.137 110.378 127.099 110.975V110.994C127.193 111.88 127.307 112.765 127.478 113.651C127.516 113.863 127.572 114.075 127.61 114.287C127.629 114.364 127.648 114.46 127.667 114.537C127.667 114.575 127.686 114.595 127.686 114.614V114.633C127.838 115.211 127.97 115.769 127.743 116.347C127.497 116.925 126.966 117.175 126.417 117.368C126 117.502 125.583 117.656 125.166 117.772C124.124 118.041 122.835 118.08 122.115 117.117C121.831 116.751 121.717 116.27 121.566 115.846C121.414 115.403 121.263 114.98 121.111 114.537C120.827 113.69 120.562 112.823 120.296 111.957C120.145 111.398 119.898 110.859 119.974 110.32Z" fill="#FBB03B"/>
<path d="M83.3281 153.241C83.4038 151.547 83.707 149.833 84.0292 148.158C84.1807 147.349 84.3513 146.56 84.5408 145.751C84.7681 144.807 84.9008 143.729 85.6966 143.074C86.4356 142.458 87.2883 142.516 88.1788 142.612C89.1073 142.708 90.0358 142.824 90.9642 142.959C92.6507 143.209 94.3181 143.633 96.0235 143.806C96.8761 143.883 97.653 143.671 98.4868 143.633C99.6805 143.575 100.401 144.287 101.064 145.173C102.276 146.791 103.489 148.427 104.702 150.064C106.009 151.836 103.735 153.838 102.182 152.837C101.973 153.087 101.727 153.338 101.424 153.492C99.9079 154.339 98.0131 154.589 96.3456 154.897C94.5644 155.244 92.7643 155.533 90.9832 155.937C89.4105 156.303 87.8378 156.977 86.2272 157.15C84.0291 157.42 83.2333 155.051 83.3281 153.241Z" fill="#FBB03B"/>
<path d="M65.8384 155.071C65.8005 154.435 65.7815 153.704 66.0657 153.126C66.6342 151.932 68.0743 151.701 69.2112 151.431C69.4007 151.393 69.5901 151.335 69.7796 151.297C70.9923 150.565 72.1861 149.795 73.323 148.967C73.6072 148.755 73.9293 148.678 74.2704 148.639C74.2893 148.601 74.3272 148.581 74.3462 148.543C74.403 148.466 74.4599 148.389 74.5546 148.331C74.5736 148.312 74.5925 148.273 74.6304 148.254C74.6872 148.196 74.782 148.177 74.8388 148.139C74.9146 148.1 74.9904 148.023 75.0662 147.985C75.1041 147.965 75.1231 147.985 75.161 147.965C75.2747 147.927 75.3883 147.907 75.521 147.907C75.6726 147.888 75.8242 147.888 75.9758 147.888C76.0136 147.888 76.0515 147.907 76.0894 147.907C76.241 147.927 76.3926 147.927 76.5252 148.004C76.5821 148.042 76.6389 148.081 76.6958 148.119C76.7337 148.139 76.7526 148.158 76.7905 148.177C76.9611 148.293 77.1126 148.427 77.2263 148.581C77.2263 148.601 77.2453 148.601 77.2642 148.62C77.2832 148.658 77.3021 148.697 77.3211 148.735C77.3779 148.832 77.4727 148.909 77.5106 149.024C77.719 149.621 77.8895 150.257 77.9843 150.892C78.0222 151.123 78.0411 151.354 78.0411 151.585C78.0411 151.643 78.0411 151.682 78.0411 151.739C78.4201 152.972 78.3443 154.204 77.3969 155.148C76.999 155.533 76.5063 155.764 76.0326 156.034C75.6157 156.265 75.2178 156.476 74.782 156.65C73.8346 157.035 72.8303 157.17 71.845 157.343C71.7313 157.362 71.6176 157.381 71.5039 157.401C71.485 157.401 71.485 157.401 71.466 157.401C71.2765 157.458 71.0871 157.516 70.8976 157.593C70.367 157.786 69.8365 157.959 69.287 158.075C68.0174 158.325 66.5584 157.901 66.0847 156.573C65.9521 156.111 65.8573 155.571 65.8384 155.071Z" fill="#FBB03B"/>
<path d="M37.2645 121.912C37.6624 120.949 38.5909 120.564 39.3867 120.063C40.1067 119.601 40.8078 119.12 41.49 118.6C42.21 118.061 42.9111 117.483 43.5932 116.867C43.9153 116.578 44.2754 116.27 44.5785 115.962C44.6733 115.865 44.787 115.75 44.8817 115.654C45.0523 115.48 45.2228 115.288 45.4123 115.114C46.0944 114.383 47.2503 114.094 48.084 114.806C48.444 115.114 48.6903 115.596 48.7661 116.077C49.0883 116.867 49.1072 117.752 48.8609 118.6C48.5577 119.659 47.8945 120.468 47.0797 121.161C46.4165 121.738 45.6776 122.22 44.9765 122.74C44.1996 123.317 43.4416 123.857 42.589 124.319C41.7363 124.781 40.732 125.07 39.7657 125.127C39.0835 125.166 38.4203 125.089 37.8708 124.627C37.1129 123.991 36.8855 122.855 37.2645 121.912Z" fill="#FBB03B"/>
<path d="M53.8819 109.665C54.1093 109.492 54.3746 109.396 54.6399 109.338C54.7346 108.856 54.962 108.413 55.3978 108.048C55.9473 107.585 56.7052 107.316 57.3495 106.989C58.1643 106.565 58.979 106.103 59.7749 105.641C59.7559 105.198 59.8507 104.755 60.1538 104.389C60.8739 103.465 61.935 102.945 63.015 102.579C64.0761 102.213 65.1752 101.963 66.2931 101.866C66.9184 101.809 67.5626 101.847 68.15 102.136C68.908 102.502 69.3059 103.137 69.6849 103.869C69.7417 103.985 69.7796 104.119 69.8364 104.235C70.6323 105.159 70.9734 106.488 71.3902 107.605C71.826 108.779 72.2618 109.935 72.6977 111.109C72.8871 111.591 72.8492 112.149 72.6408 112.631C72.3945 113.266 71.826 113.728 71.106 113.844C68.908 114.21 66.7858 114.826 64.6067 115.307C62.4466 115.769 60.2486 116.039 58.0506 116.308C57.8232 116.328 57.5958 116.328 57.4063 116.27C56.7431 116.308 56.042 116.02 55.682 115.519C54.943 114.479 54.223 113.439 53.503 112.361C52.9156 111.494 53.0292 110.301 53.8819 109.665Z" fill="#FBB03B"/>
<path d="M59.5284 123.394C59.3958 122.278 60.1916 121.488 61.1958 121.276C62.958 120.891 64.7581 120.545 66.5393 120.294C68.2067 120.063 70.1774 119.601 71.769 120.371C72.6028 120.776 73.1144 121.469 73.5502 122.239C73.9481 122.971 74.4218 123.645 74.9145 124.3C75.9566 125.705 76.9798 127.111 77.662 128.748C77.9652 129.499 78.2683 130.327 78.3631 131.135C78.5146 132.194 78.1546 133.138 77.6241 134.024C76.7335 135.487 75.5019 136.739 74.4029 138.048C73.8534 138.684 73.3417 139.512 72.6786 140.012C71.6743 140.783 70.5184 140.475 69.5521 139.801C68.1688 138.819 67.1646 137.297 66.3119 135.834C65.2887 134.043 64.3981 132.194 63.4696 130.346C62.977 129.364 62.4843 128.382 61.9727 127.4C61.9348 127.303 61.878 127.226 61.8401 127.13C61.5369 127.015 61.2337 126.822 60.9685 126.514C60.419 125.898 59.8695 124.993 59.7558 124.088C59.6421 123.876 59.5473 123.626 59.5284 123.394Z" fill="#FBB03B"/>
<path d="M74.8581 114.267C75.4076 113.844 76.0898 113.439 76.4498 113.073C76.8098 112.707 77.1698 112.361 77.5867 112.11C78.0983 111.706 78.7804 111.533 79.3868 111.745C79.9931 111.86 80.5237 112.207 80.8079 112.765C80.9216 112.9 81.0164 113.054 81.0921 113.208C83.2333 115.365 85.2418 117.675 86.9282 120.198C86.9282 120.198 86.9282 120.217 86.9472 120.217C87.4398 120.91 87.5346 121.816 86.9661 122.566C85.5829 124.377 84.1997 126.167 82.7975 127.977C81.869 129.171 80.1447 128.767 79.5573 127.496C78.8752 125.994 78.1362 124.531 77.3025 123.106C76.5066 121.719 75.7108 120.217 74.6497 119.023C74.6118 119.004 74.4413 118.812 74.4223 118.792C74.2328 118.619 74.0623 118.484 73.8918 118.272C73.5696 117.868 73.3801 117.444 73.3423 116.924C73.2854 115.769 74.0244 114.903 74.8581 114.267Z" fill="#FBB03B"/>
<path d="M75.6539 140.763C76.2413 140.012 76.8287 139.281 77.4161 138.549C78.1361 137.663 78.932 136.412 80.0499 136.065C80.6373 135.872 81.2247 135.872 81.7932 136.142C82.248 136.354 82.5322 136.643 82.8732 137.028C83.0059 137.163 83.1385 137.317 83.2712 137.471C83.7638 137.625 84.2186 137.914 84.5217 138.337C85.0902 139.107 85.0902 140.07 84.7681 140.937C84.4839 141.745 84.067 142.516 83.688 143.286C83.2522 144.191 82.7596 145.058 82.1911 145.886C81.9637 146.213 81.7363 146.559 81.4711 146.848C80.7131 147.696 79.7847 147.907 78.7235 147.58C76.9045 147.022 74.1001 146.463 73.9107 144.056C73.8349 142.785 74.9339 141.707 75.6539 140.763Z" fill="#FBB03B"/>
<path d="M17.9181 116.713C17.9181 113.824 18.0697 110.974 18.6571 108.144C19.2445 105.39 20.0404 102.694 20.4004 99.9021C21.2152 93.6439 20.3435 87.3472 18.0697 81.4741C17.4444 79.8566 18.9793 78.7013 20.2677 78.9324C20.4004 78.8746 20.533 78.7783 20.6846 78.7398C24.929 77.777 29.2682 78.1236 33.4369 79.2404C37.3781 80.2803 41.1678 82.514 45.2227 82.9376C49.524 83.3805 54.3369 82.4369 58.5814 81.7245C62.75 81.012 66.7292 79.4908 71.0115 79.5871C74.9717 79.6833 78.7803 80.7809 82.6268 81.6282C87.0229 82.6102 91.1536 82.7065 95.6254 82.2636C102.466 81.5704 110.026 81.2046 115.066 86.654C115.294 86.5577 115.521 86.4614 115.749 86.3652C119.368 84.9787 123.157 84.0929 126.777 82.7258C133.162 80.338 139.377 77.4496 145.289 74.0221C148.548 72.135 151.637 69.9976 154.612 67.6869C154.669 67.6291 154.725 67.5906 154.801 67.5521C166.947 58.1744 178.941 48.5079 190.197 38.0326C192.035 36.3381 193.835 34.5858 195.597 32.8142C198.079 30.3302 200.372 27.5188 203.138 25.3429C205.981 23.1285 209.467 22.0501 213.011 21.8576C213.067 19.9705 213.465 18.1027 214.129 16.3119C214.83 14.444 215.891 12.6917 217.198 11.209C217.899 10.4195 218.79 9.3797 219.832 9.11012C221.253 8.74426 222.485 9.72631 223.224 10.8624C224.436 12.7495 224.342 15.1565 224.171 17.2554C224.114 17.9679 224.001 18.6611 223.906 19.3543C224.095 19.2003 224.247 19.0655 224.399 18.9307C224.683 18.6996 224.948 18.43 225.232 18.1797C225.782 17.6598 226.312 17.1399 226.824 16.5814C227.582 15.7919 228.738 15.8112 229.534 16.5044C230.329 17.1976 230.31 18.5263 229.628 19.258C227.999 20.9718 226.218 22.5315 224.304 23.918C224.418 24.0143 224.531 24.1298 224.645 24.2261C224.929 24.4957 225.232 24.7652 225.535 25.0348C227.146 23.2248 228.757 21.4147 230.386 19.6046C231.106 18.7959 232.319 18.8344 233.096 19.5084C233.892 20.2016 233.854 21.511 233.172 22.262L230.841 24.8808C231.542 24.7267 232.243 24.5727 232.963 24.4379C234.081 24.2261 235.237 24.1105 236.336 24.4764C237.435 24.8423 238.458 25.497 239.33 26.248C240.353 27.1145 240.732 28.6164 240.088 29.8296C239.633 30.6961 238.856 31.293 238.022 31.7359C234.763 33.4497 231.277 34.6821 227.677 35.4523C228.416 38.9377 228.681 42.5 228.435 46.0624C228.188 49.798 227.525 53.4759 226.502 57.0768C225.971 58.9254 225.46 60.9473 223.925 62.2182C222.542 63.3735 220.59 63.6046 218.904 63.0462C215.303 61.8908 212.878 57.7315 211.21 54.535C210.263 52.7442 209.486 50.8571 208.861 48.9123C208.69 48.3923 208.728 48.2768 208.198 48.4501C207.838 48.5656 207.478 48.7775 207.174 48.9893C206.53 49.4129 206.019 49.9136 205.564 50.5105C196.374 62.4877 185.801 73.3481 173.882 82.5332C167.838 87.1932 161.736 91.8146 155.597 96.3398C149.571 100.769 143.678 105.352 137.331 109.318C136.478 109.857 135.625 110.416 134.83 111.032C134.602 111.205 134.318 111.398 134.166 111.648C134.072 111.822 134.053 112.053 134.185 112.207C134.261 112.303 134.394 112.341 134.526 112.38C134.868 112.457 135.209 112.476 135.569 112.476C137.16 112.438 138.714 111.937 140.249 111.513C141.916 111.051 143.565 110.493 145.194 109.896C147.923 108.914 150.651 108.009 153.399 107.142C158.686 105.467 163.972 103.773 169.24 102.078C171.21 101.443 173.219 100.826 175.265 100.942C180.798 101.289 182.826 107.701 178.695 111.321C175.625 114.017 171.173 114.826 167.497 116.347C164.029 117.791 160.524 119.197 157.056 120.66C151.372 123.029 145.725 125.455 140.135 128.035C135.019 130.384 128.482 132.31 125.261 137.182C121.679 142.593 116.923 147.464 111.409 150.815C107.866 152.991 103.641 153.934 99.7183 155.167C92.9727 157.285 86.246 159.384 79.7846 162.33C73.5695 165.161 66.9376 168.896 60.0214 169.455C56.3454 169.744 49.543 169.108 50.6799 163.736C51.6841 158.96 56.156 155.802 60.1351 153.723C64.6638 151.335 69.344 149.197 73.9864 147.022C71.6747 145.539 69.4577 143.96 67.4871 142.111C60.2488 142.939 53.1621 144.595 46.3407 147.195C39.7846 149.679 33.4179 153.992 26.1986 153.838C25.8007 153.838 25.4975 153.703 25.2133 153.53C24.5122 153.222 23.9627 152.548 24.0195 151.566C24.4743 145.5 23.5837 139.415 21.3289 133.773C20.3246 131.27 19.0551 128.882 18.5056 126.225C17.8045 123.144 17.8992 119.851 17.9181 116.713ZM171.608 107.47C172.063 108.317 172.461 109.184 172.878 110.05C174.697 109.395 176.952 108.452 177.331 106.988C177.691 105.602 175.967 104.947 174.924 104.889C173.408 104.812 171.912 105.39 170.471 105.852C170.926 106.334 171.305 106.892 171.608 107.47ZM60.9499 161.733C60.6846 160.944 60.4572 160.135 60.192 159.326C60.0783 158.999 59.9646 158.652 59.8509 158.325C58.6572 159.057 57.5392 159.885 56.5728 160.886C55.7012 161.791 54.9812 162.811 54.5643 164.005C54.3559 164.564 54.2043 164.776 54.6211 165.141C54.9812 165.488 55.9286 165.527 56.4023 165.584C58.4108 165.873 60.4193 165.719 62.39 165.295C61.8026 164.159 61.3478 162.946 60.9499 161.733ZM73.8916 142.458C75.4265 143.536 81.831 146.117 78.9129 148.832C78.5908 149.14 78.174 149.332 77.7761 149.525C72.8874 151.816 67.9987 154.088 63.1669 156.515C63.6406 157.766 64.0764 159.057 64.4932 160.347C64.7396 161.136 65.0238 161.926 65.3459 162.715C65.3838 162.792 65.4217 162.888 65.4596 162.946C65.5544 163.158 65.668 163.37 65.7628 163.562C65.8765 163.794 66.0281 164.005 66.1607 164.217C67.2787 163.832 68.3587 163.389 69.4198 162.927C74.5169 160.751 79.4056 158.113 84.5975 156.11C88.6714 154.531 92.8211 153.164 97.0087 151.99C98.9982 151.45 100.95 150.911 102.902 150.314C104.493 149.833 107.544 149.274 108.719 148.004C112.679 145.808 115.976 142.631 118.951 139.242C121.585 136.238 123.726 132.483 127.004 130.153C131.495 126.938 137.672 125.378 142.617 122.797C146.331 120.853 149.969 119.428 153.854 117.849C156.488 116.77 159.102 115.673 161.717 114.594C164.256 113.555 166.777 112.496 169.316 111.456C169.088 110.955 168.861 110.474 168.615 109.973C168.368 109.492 168.084 109.01 167.743 108.587C167.553 108.394 167.364 108.201 167.137 108.047C166.814 107.836 166.549 107.527 166.398 107.162C164.541 107.759 162.684 108.336 160.808 108.933C156.147 110.416 151.353 111.668 146.748 113.381C142.864 114.826 138.866 116.77 134.602 116.25C132.385 115.981 129.941 114.575 129.827 112.322C129.732 110.262 131.57 108.721 133.238 107.547C151.599 94.5104 170.32 81.8207 186.559 66.0308C191.845 60.8895 196.829 55.44 201.376 49.6055C201.926 48.9123 202.437 48.142 203.025 47.4873C203.214 47.2755 204.522 45.9468 204.749 46.0624L204.124 45.7543C202.816 45.0996 202.835 43.3665 203.934 42.5C204.56 41.9994 205.242 42.0186 205.962 42.3267C207.137 42.8274 208.255 43.4436 209.391 44.002C210.547 44.5797 211.608 45.0996 212.12 46.3705C212.916 48.3731 213.446 50.4142 214.451 52.3398C215.171 53.7455 219.813 62.1604 221.935 58.7521C222.428 57.9626 222.617 56.9227 222.864 56.0177C223.148 54.9972 223.413 53.9766 223.641 52.9368C224.095 50.9149 224.436 48.8545 224.607 46.7748C224.948 42.7503 224.683 38.6873 223.641 34.7784C223.432 34.0081 223.679 33.4112 224.114 32.9683C224.342 32.4869 224.74 32.1018 225.251 32.0247C227.392 31.6396 229.496 31.1005 231.561 30.3687C232.452 30.0606 233.532 29.6178 234.233 29.3097C234.763 29.0786 235.351 28.8283 235.881 28.5394C235.862 28.5202 235.824 28.5009 235.805 28.4816C235.066 28.058 234.574 28.0773 233.759 28.2506C231.409 28.732 229.06 29.2904 226.729 29.7911C226.18 29.9066 225.611 29.8103 225.156 29.5215C224.91 29.4444 224.664 29.3097 224.455 29.1171C224.38 29.0593 224.361 28.963 224.285 28.886C223.944 28.6935 223.622 28.4816 223.318 28.1928C222.996 27.904 222.655 27.5959 222.333 27.307C221.67 26.7101 221.007 26.0939 220.344 25.497C220.306 25.4585 220.287 25.4007 220.249 25.3622C219.965 25.2081 219.718 24.9963 219.529 24.7075C219.339 24.4186 219.282 24.072 219.282 23.7254C219.245 23.4751 219.245 23.2055 219.301 22.9552C219.908 20.8178 220.325 18.5456 220.438 16.4274C220.495 15.4839 220.514 14.4248 220.344 13.7123C220.344 13.693 220.325 13.6545 220.306 13.616C219.15 14.8484 218.43 16.0423 217.729 17.7561C217.691 17.8523 217.672 17.8909 217.672 17.9101C217.634 18.0256 217.596 18.1219 217.558 18.2375C217.482 18.4878 217.407 18.7574 217.331 19.027C217.217 19.4891 217.103 19.9512 217.028 20.4134C216.876 21.2992 216.857 22.0887 216.914 23.167C216.952 23.7447 216.668 24.2646 216.27 24.6497C216.023 25.2659 215.493 25.728 214.64 25.728C210.983 25.6895 207.459 26.6331 204.673 29.1364C203.063 30.5613 201.661 32.1981 200.183 33.7385C197.321 36.7425 194.365 39.5924 191.296 42.3845C180.003 52.6479 168.69 62.8536 156.147 71.5766C150.121 75.7744 143.697 79.3175 137.047 82.3599C130.358 85.4216 123.423 88.0789 116.45 90.3319C116.203 90.4089 115.957 90.4859 115.711 90.563C112.774 91.4873 109.931 93.047 106.824 93.3166C103.243 93.6247 99.813 92.219 96.3265 91.6028C93.1432 91.0636 89.903 90.8518 86.6818 90.8133C85.5828 90.794 84.4269 90.717 83.3469 90.8325C82.6458 90.9096 81.9636 90.9481 81.2625 91.0444C81.1489 91.0636 81.0162 91.0636 80.9025 91.1214C80.7509 91.1984 80.6562 91.3139 80.5615 91.4487C79.5762 92.7581 79.0456 94.3564 78.6287 95.9354C78.5719 96.1665 78.3066 96.7441 78.4771 96.9559C78.6287 97.1293 79.5572 96.9945 79.7656 96.9945C84.8817 96.9174 89.9599 95.7236 95.0191 96.8982C95.5686 97.033 96.2128 97.2641 96.4402 97.8417C96.7055 98.4964 96.3265 99.7866 95.7391 100.095C95.057 100.441 94.4127 100.249 93.7116 100.133C93.0295 100.018 92.3094 100.018 91.6273 100.037C90.1114 100.056 88.6145 100.287 87.0986 100.461C82.3805 101.038 77.5108 101.404 72.7926 100.826C68.3587 102.521 64.1143 104.735 60.3056 107.605C57.9182 109.376 56.0612 111.841 53.6358 113.516C52.3663 114.402 50.8883 114.903 49.4672 115.538C46.8523 116.674 44.4269 118.234 42.2289 120.063C42.93 120.968 43.5553 121.912 44.0858 122.932C44.3701 123.471 44.5975 124.011 44.8438 124.569C49.0882 122.624 53.3327 120.641 57.5202 118.523C60.0972 117.213 60.8362 121.257 61.3289 122.913C63.6406 130.847 67.0134 137.644 73.8916 142.458ZM75.8623 91.9687C73.6453 92.4308 71.4852 93.0855 69.4388 94.0676C67.9229 94.7993 68.0555 94.9533 69.4767 95.8006C70.443 96.3783 71.6368 96.6479 72.7358 96.8597C73.2474 96.956 73.759 97.033 74.2706 97.0715C74.6875 95.6658 75.1043 94.2601 75.5401 92.8544C75.6349 92.5656 75.7486 92.2575 75.8623 91.9687ZM46.3976 143.093C52.2147 141.014 58.2213 139.569 64.3227 138.703C63.9627 138.241 63.6216 137.74 63.2995 137.239C63.1669 137.047 63.0532 136.835 62.9395 136.643C62.8637 136.681 62.8069 136.739 62.7121 136.758C60.2109 137.317 57.5771 136.989 55.3222 135.718C55.2843 135.699 55.2464 135.641 55.2085 135.622C54.7538 136.007 54.2043 136.219 53.4842 136.065C52.6695 135.872 52.1958 135.256 51.9115 134.544C51.3241 134.736 50.6799 134.698 50.1304 134.409C49.7325 134.197 49.4293 133.87 49.2019 133.485C48.8798 133.523 48.5577 133.523 48.2924 133.446C48.084 133.388 47.8755 133.311 47.6861 133.196C47.2881 132.984 47.1176 132.714 46.8523 132.387C46.587 132.04 46.5302 131.366 46.6249 130.962C46.7386 130.5 47.0607 129.98 47.4776 129.749C47.8755 129.537 48.3303 129.422 48.785 129.518C48.8798 129.441 48.9935 129.345 49.1072 129.287C49.7135 128.959 50.3956 128.825 51.0778 128.998C51.6652 129.152 52.1768 129.518 52.4989 129.999C52.6884 129.941 52.8969 129.884 53.1053 129.884C53.5979 129.884 54.0527 130.057 54.4127 130.327C54.7348 130.23 55.057 130.192 55.3601 130.269C56.1749 130.5 56.876 131.347 56.8002 132.233C56.8949 132.271 56.9897 132.271 57.0844 132.31C57.4066 132.483 57.7287 132.637 58.0508 132.772C58.5624 132.945 59.074 133.061 59.5856 133.138C60.0593 133.176 60.5141 133.138 60.9878 133.099C59.434 129.826 58.2782 126.321 57.2171 122.836C54.2232 124.319 51.2294 125.801 48.2166 127.188C46.3407 128.054 44.4459 128.902 42.551 129.749C40.8267 130.519 38.9129 131.694 37.0181 131.925C35.3317 132.137 33.7969 131.251 33.039 129.71C31.7694 127.188 33.1716 124.338 34.6685 122.278C36.3739 119.928 38.4582 117.906 40.7699 116.173C43.1763 114.363 45.8291 112.881 48.5766 111.668C49.4293 111.302 50.3009 110.936 51.0778 110.435C51.9684 109.838 52.7263 109.068 53.4842 108.317C57.5013 104.408 62.1626 101.443 67.1839 99.1126C65.4407 98.1113 64.0385 96.5901 64.1901 94.4719C64.6638 88.0789 78.9888 87.2894 83.3848 86.9621C87.4776 86.6733 91.5894 86.7888 95.6444 87.3472C95.9286 87.3857 96.7434 87.5975 97.8234 87.8864C97.8803 87.8864 97.9561 87.8864 98.0129 87.9056C100.021 88.5026 102.049 88.984 104.095 89.3691C105.1 89.5617 105.839 89.7157 106.71 89.5424C107.582 89.3691 108.681 89.0225 109.628 88.7529C109.666 88.7529 109.704 88.7529 109.742 88.7337C110.235 88.5603 110.727 88.3485 111.201 88.156C105.744 83.6115 97.0655 86.3266 90.6988 86.4037C83.1005 86.4999 75.8054 82.514 68.2261 83.4768C64.2469 83.9774 60.4004 85.3253 56.4212 85.8645C52.5747 86.3844 48.5008 87.0776 44.6164 86.6732C40.7888 86.2881 37.3023 84.2663 33.6263 83.2072C29.9125 82.1096 26.1417 81.6667 22.3521 82.2636C23.9248 87.1354 24.6259 92.219 24.3795 97.3603C24.0574 103.773 21.6699 109.742 21.651 116.212C21.632 119.331 21.4994 122.682 22.2005 125.744C22.8826 128.728 24.5501 131.443 25.5354 134.332C27.2408 139.358 27.9608 144.595 27.8092 149.871C34.3464 149.294 40.3341 145.269 46.3976 143.093ZM41.3383 126.11C41.3194 126.071 41.3004 126.013 41.2815 125.975C40.7699 124.8 40.1067 123.722 39.3677 122.682C38.9887 123.067 38.6098 123.452 38.2498 123.857C37.9087 124.261 36.2791 126.629 36.3549 127.631C36.3739 127.862 36.4876 128.016 36.7149 128.054C36.9613 128.093 37.1886 127.997 37.416 127.9C38.7234 127.303 40.0309 126.687 41.3383 126.11Z" fill="black"/>
<path d="M98.1453 115.172C99.0359 114.383 99.8885 113.555 100.798 112.804C101.764 111.995 102.541 112.611 103.394 113.516C105.535 115.808 107.582 118.176 109.514 120.66C109.931 121.199 109.874 121.796 109.571 122.162C109.533 122.297 109.439 122.432 109.325 122.547C108.491 123.356 107.619 124.126 106.71 124.819C106.293 125.147 105.857 125.455 105.403 125.763C104.986 126.052 104.55 126.437 103.962 126.341C103.394 126.244 103.034 125.782 102.655 125.359C102.181 124.819 101.689 124.261 101.215 123.722C100.324 122.701 99.4148 121.681 98.5242 120.66C98.1074 120.198 97.6905 119.717 97.2926 119.254C96.9136 118.831 96.421 118.388 96.2694 117.829C95.9283 116.597 97.4442 115.788 98.1453 115.172Z" fill="#FBB03B"/>
<path d="M110.007 119.1C110.197 118.927 110.273 118.677 110.216 118.369C110.159 118.06 109.988 117.733 109.704 117.406C109.174 116.828 108.738 116.674 108.359 116.944C108.093 117.136 107.809 117.348 107.487 117.598C107.165 117.849 106.824 118.099 106.464 118.388C106.104 118.657 105.744 118.946 105.365 119.254C104.986 119.562 104.626 119.851 104.266 120.159C103.906 120.448 103.565 120.737 103.224 121.026C102.902 121.315 102.598 121.565 102.333 121.815C102.049 122.066 101.954 122.374 102.03 122.74C102.106 123.106 102.333 123.491 102.731 123.934C102.902 124.126 103.091 124.261 103.281 124.299C103.47 124.338 103.622 124.28 103.792 124.145C104.55 123.452 105.289 122.817 105.99 122.239C106.691 121.681 107.317 121.18 107.885 120.737C108.453 120.313 108.908 119.967 109.306 119.678C109.609 119.408 109.875 119.216 110.007 119.1Z" fill="black"/>
<path d="M106.142 114.768C106.331 114.594 106.407 114.344 106.35 114.036C106.293 113.728 106.123 113.4 105.839 113.073C105.308 112.495 104.872 112.341 104.493 112.611C104.228 112.804 103.944 113.015 103.622 113.266C103.299 113.516 102.958 113.766 102.598 114.055C102.238 114.325 101.878 114.614 101.499 114.922C101.12 115.23 100.76 115.519 100.4 115.827C100.04 116.116 99.6993 116.404 99.3582 116.693C99.0361 116.982 98.7329 117.232 98.4677 117.483C98.1834 117.733 98.0887 118.041 98.1645 118.407C98.2403 118.773 98.4677 119.158 98.8656 119.601C99.0361 119.793 99.2256 119.928 99.4151 119.967C99.6046 120.005 99.7562 119.948 99.9267 119.813C100.685 119.12 101.424 118.484 102.125 117.906C102.826 117.348 103.451 116.847 104.02 116.404C104.588 115.981 105.043 115.634 105.441 115.345C105.763 115.076 106.009 114.883 106.142 114.768Z" fill="black"/>
<path d="M110.898 115.923C111.011 116.154 111.144 116.347 111.315 116.52C111.485 116.693 111.656 116.809 111.845 116.886C112.035 116.963 112.243 117.021 112.433 117.021C112.641 117.021 112.83 116.982 113.02 116.867C113.342 116.693 113.532 116.424 113.607 116.058C113.683 115.692 113.607 115.288 113.38 114.845C113.285 114.633 113.153 114.46 112.982 114.306C112.811 114.152 112.641 114.036 112.433 113.959C112.243 113.882 112.035 113.844 111.826 113.844C111.618 113.844 111.428 113.882 111.239 113.978C110.917 114.152 110.708 114.402 110.651 114.749C110.613 115.134 110.689 115.5 110.898 115.923Z" fill="black"/>
<path d="M106.54 111.956C106.71 112.149 106.9 112.303 107.089 112.419C107.298 112.534 107.487 112.611 107.695 112.63C107.904 112.669 108.112 112.65 108.302 112.592C108.491 112.534 108.681 112.438 108.832 112.284C109.098 112.033 109.23 111.725 109.192 111.359C109.173 110.994 108.984 110.628 108.662 110.262C108.51 110.089 108.34 109.954 108.131 109.857C107.923 109.761 107.733 109.703 107.525 109.665C107.316 109.646 107.108 109.646 106.9 109.703C106.691 109.761 106.521 109.857 106.369 109.992C106.085 110.243 105.971 110.551 105.99 110.897C106.066 111.244 106.236 111.61 106.54 111.956Z" fill="black"/>
<path d="M100.893 99.5556C101.215 99.3438 101.537 99.2668 101.86 99.2475C102.295 99.0165 102.826 98.9394 103.432 99.1898C109.42 101.655 115.275 105.332 119.008 110.82C121.111 113.921 122.324 117.444 123.025 121.103C123.347 122.759 123.859 124.8 123.536 126.495C123.29 127.746 122.362 128.844 121.187 129.152C121.13 129.191 121.111 129.229 121.035 129.248C112.111 133.138 102.314 131.79 93.0106 130.307C92.9538 130.307 92.9159 130.269 92.859 130.25C92.6506 130.211 92.4422 130.134 92.2527 130.019C91.8169 129.768 91.4758 129.325 91.4 128.651C90.32 118.215 91.4947 105.91 100.893 99.5556ZM118.629 126.129C119.065 125.879 119.425 125.57 119.69 125.205C120.126 124.569 119.33 122.22 119.197 121.507C118.932 120.102 118.591 118.696 118.098 117.367C117.208 114.922 115.843 112.746 114.138 110.801C111.031 107.297 106.881 104.87 102.636 103.041C95.3223 108.413 94.337 118.176 95.0191 126.745C95.076 127.477 104.721 127.958 105.611 127.977C108.169 128.016 110.727 127.843 113.247 127.419C114.688 127.169 117.075 127.015 118.629 126.129Z" fill="black"/>
<path d="M12.5938 105.332C14.3749 100.172 14.6971 94.6453 13.7117 89.2922C13.5223 88.2716 14.4128 87.2703 15.3792 87.174C16.4593 87.0585 17.293 87.848 17.4635 88.8685C18.5625 94.8957 18.032 101.115 16.0424 106.911C15.7013 107.893 14.4318 108.279 13.5412 107.893C12.5559 107.412 12.2527 106.314 12.5938 105.332Z" fill="black"/>
</svg>
