<svg width="1281" height="603" viewBox="0 0 1281 603" fill="none" xmlns="http://www.w3.org/2000/svg">
<path d="M904.637 520.271C904.199 520.434 903.737 520.596 903.299 520.759C902.277 521.153 901.279 521.548 900.281 521.989C898.334 522.848 896.485 523.869 894.805 525.146C894.294 525.54 894.319 526.353 894.732 526.794C894.757 526.84 894.805 526.863 894.854 526.886C894.951 527.049 895.073 527.211 895.243 527.327C897.896 529.323 900.524 531.32 903.177 533.316C903.591 533.641 904.272 533.501 904.661 533.2C905.562 532.434 905.586 531.157 905.781 530.089L906.365 526.747C906.584 525.563 906.779 524.38 906.998 523.196C907.168 522.175 907.849 520.457 906.438 519.97C905.781 519.761 905.221 520.039 904.637 520.271ZM903.956 526.538C903.81 527.42 903.639 528.302 903.493 529.184C903.42 529.602 903.347 530.02 903.274 530.438C901.376 528.999 899.454 527.559 897.555 526.12C898.699 525.378 899.892 524.705 901.133 524.148C901.96 523.776 902.812 523.428 903.664 523.103C903.98 522.987 904.296 522.848 904.637 522.708C904.564 523.057 904.515 523.405 904.442 523.753L903.956 526.538Z" fill="#E5E5E5"/>
<path d="M271.596 334.083C271.158 334.245 270.695 334.408 270.257 334.57C269.235 334.965 268.237 335.359 267.239 335.8C265.293 336.659 263.443 337.68 261.764 338.957C261.253 339.351 261.277 340.164 261.691 340.605C261.715 340.651 261.764 340.674 261.813 340.698C261.91 340.86 262.032 341.023 262.202 341.139C264.855 343.135 267.483 345.131 270.135 347.127C270.549 347.452 271.231 347.313 271.62 347.011C272.52 346.245 272.545 344.968 272.739 343.901L273.323 340.558C273.542 339.375 273.737 338.191 273.956 337.007C274.127 335.986 274.808 334.268 273.396 333.781C272.739 333.572 272.18 333.851 271.596 334.083ZM270.914 340.35C270.768 341.231 270.598 342.113 270.452 342.995C270.379 343.413 270.306 343.831 270.233 344.249C268.335 342.81 266.412 341.371 264.514 339.932C265.658 339.189 266.85 338.516 268.091 337.959C268.919 337.587 269.77 337.239 270.622 336.914C270.939 336.798 271.255 336.659 271.596 336.52C271.523 336.868 271.474 337.216 271.401 337.564L270.914 340.35Z" fill="#E5E5E5"/>
<path d="M954.319 228.894C953.808 229.09 953.269 229.287 952.758 229.484C951.565 229.961 950.401 230.439 949.237 230.973C946.966 232.012 944.808 233.249 942.849 234.794C942.253 235.272 942.281 236.255 942.764 236.789C942.792 236.845 942.849 236.873 942.906 236.901C943.019 237.098 943.161 237.294 943.36 237.435C946.455 239.851 949.521 242.268 952.616 244.684C953.098 245.077 953.893 244.909 954.348 244.544C955.398 243.616 955.426 242.071 955.654 240.779L956.335 236.733C956.59 235.3 956.818 233.867 957.073 232.434C957.272 231.197 958.067 229.118 956.42 228.528C955.654 228.275 955.001 228.613 954.319 228.894ZM953.524 236.48C953.354 237.547 953.155 238.615 952.985 239.683C952.9 240.188 952.814 240.694 952.729 241.2C950.515 239.458 948.272 237.716 946.057 235.974C947.392 235.075 948.783 234.26 950.231 233.586C951.196 233.136 952.19 232.715 953.183 232.321C953.553 232.181 953.922 232.012 954.319 231.844C954.234 232.265 954.177 232.687 954.092 233.108L953.524 236.48Z" fill="#E5E5E5"/>
<path d="M316.981 516.77C316.47 516.967 315.93 517.163 315.419 517.36C314.227 517.838 313.063 518.315 311.899 518.849C309.627 519.889 307.469 521.125 305.51 522.67C304.914 523.148 304.943 524.131 305.425 524.665C305.454 524.721 305.51 524.749 305.567 524.777C305.681 524.974 305.823 525.171 306.021 525.311C309.116 527.728 312.183 530.144 315.277 532.56C315.76 532.954 316.555 532.785 317.009 532.42C318.06 531.493 318.088 529.947 318.315 528.655L318.997 524.609C319.252 523.176 319.479 521.743 319.735 520.31C319.933 519.074 320.728 516.995 319.082 516.405C318.315 516.152 317.662 516.489 316.981 516.77ZM316.186 524.356C316.015 525.424 315.817 526.491 315.646 527.559C315.561 528.065 315.476 528.571 315.391 529.076C313.176 527.334 310.933 525.592 308.719 523.85C310.053 522.951 311.444 522.136 312.892 521.462C313.858 521.013 314.851 520.591 315.845 520.198C316.214 520.057 316.583 519.889 316.981 519.72C316.896 520.142 316.839 520.563 316.754 520.984L316.186 524.356Z" fill="#E5E5E5"/>
<path d="M328.439 85.6715C327.928 85.8681 327.388 86.0648 326.877 86.2615C325.685 86.7391 324.521 87.2168 323.357 87.7506C321.085 88.7902 318.927 90.0265 316.968 91.5718C316.372 92.0495 316.401 93.0328 316.883 93.5667C316.912 93.6229 316.968 93.651 317.025 93.6791C317.139 93.8758 317.281 94.0724 317.479 94.2129C320.574 96.6293 323.641 99.0456 326.735 101.462C327.218 101.855 328.013 101.687 328.467 101.321C329.518 100.394 329.546 98.8489 329.773 97.5565L330.455 93.5105C330.71 92.0776 330.937 90.6446 331.193 89.2117C331.392 87.9754 332.186 85.8962 330.54 85.3062C329.773 85.0533 329.12 85.3905 328.439 85.6715ZM327.644 93.2576C327.473 94.3253 327.275 95.393 327.104 96.4607C327.019 96.9664 326.934 97.4722 326.849 97.9779C324.634 96.2359 322.391 94.4939 320.177 92.7519C321.511 91.8528 322.902 91.038 324.35 90.3636C325.316 89.9141 326.309 89.4926 327.303 89.0993C327.672 88.9588 328.041 88.7902 328.439 88.6216C328.354 89.0431 328.297 89.4645 328.212 89.886L327.644 93.2576Z" fill="#E5E5E5"/>
<path fill-rule="evenodd" clip-rule="evenodd" d="M1067.4 344.886C1068.02 345.114 1068.76 345.463 1069.37 346.101C1070.08 346.842 1070.45 347.8 1070.69 348.554C1071.24 350.222 1071.7 352.556 1070.75 354.646L1070.75 354.651C1069.99 356.318 1068.52 357.326 1067.09 357.756C1065.65 358.191 1064.17 358.096 1062.83 357.825L1062.83 357.823L1062.82 357.822C1062.17 357.68 1061.33 357.459 1060.58 356.876C1059.89 356.342 1059.41 355.598 1059.09 354.847C1057.76 351.801 1058.51 348.689 1060.25 346.706C1061.97 344.749 1064.67 343.844 1067.4 344.886ZM1061.91 348.828C1060.85 350.037 1060.47 351.755 1061.23 353.494L1061.24 353.507L1061.24 353.519C1061.41 353.913 1061.62 354.22 1061.88 354.419L1061.89 354.424L1061.9 354.43C1062.2 354.671 1062.63 354.817 1063.24 354.951C1064.4 355.185 1065.51 355.228 1066.51 354.926C1067.53 354.619 1068.3 353.97 1068.63 353.244C1069.04 352.347 1068.93 351.097 1068.44 349.635L1068.44 349.622L1068.43 349.609C1068.24 348.984 1068.04 348.567 1067.78 348.299C1067.56 348.065 1067.21 347.861 1066.69 347.675L1066.69 347.672L1066.68 347.668C1064.79 346.943 1063 347.592 1061.91 348.828Z" fill="#E5E5E5"/>
<path fill-rule="evenodd" clip-rule="evenodd" d="M1067.4 92.8156C1068.02 93.0435 1068.76 93.3925 1069.37 94.03C1070.08 94.7713 1070.45 95.729 1070.69 96.4831C1071.24 98.1512 1071.7 100.485 1070.75 102.576L1070.75 102.58C1069.99 104.248 1068.52 105.256 1067.09 105.685C1065.65 106.12 1064.17 106.025 1062.83 105.754L1062.83 105.753L1062.82 105.751C1062.17 105.61 1061.33 105.388 1060.58 104.805C1059.89 104.271 1059.41 103.527 1059.09 102.776C1057.76 99.7299 1058.51 96.6185 1060.25 94.6353C1061.97 92.6783 1064.67 91.7733 1067.4 92.8156ZM1061.91 96.757C1060.85 97.9659 1060.47 99.6842 1061.23 101.423L1061.24 101.436L1061.24 101.449C1061.41 101.842 1061.62 102.149 1061.88 102.348L1061.89 102.354L1061.9 102.359C1062.2 102.6 1062.63 102.746 1063.24 102.88C1064.4 103.114 1065.51 103.157 1066.51 102.856C1067.53 102.548 1068.3 101.9 1068.63 101.173C1069.04 100.276 1068.93 99.0258 1068.44 97.5646L1068.44 97.5515L1068.43 97.5382C1068.24 96.9127 1068.04 96.4958 1067.78 96.2283C1067.56 95.9938 1067.21 95.7905 1066.69 95.6039L1066.69 95.6007L1066.68 95.5974C1064.79 94.872 1063 95.5213 1061.91 96.757Z" fill="#E5E5E5"/>
<path fill-rule="evenodd" clip-rule="evenodd" d="M203.771 99.2605C204.396 99.4884 205.134 99.8374 205.741 100.475C206.446 101.216 206.817 102.174 207.057 102.928C207.616 104.596 208.073 106.93 207.124 109.021L207.122 109.025C206.36 110.693 204.894 111.701 203.465 112.13C202.016 112.565 200.541 112.47 199.205 112.199L199.198 112.197L199.191 112.196C198.541 112.055 197.698 111.833 196.955 111.25C196.259 110.716 195.779 109.972 195.462 109.221C194.131 106.175 194.88 103.063 196.624 101.08C198.345 99.1233 201.043 98.2183 203.771 99.2605ZM198.282 103.202C197.218 104.411 196.839 106.129 197.603 107.868L197.609 107.881L197.614 107.894C197.779 108.287 197.995 108.594 198.256 108.793L198.263 108.799L198.27 108.804C198.575 109.045 198.998 109.191 199.612 109.325C200.771 109.559 201.878 109.602 202.881 109.301C203.904 108.993 204.673 108.344 205.006 107.618C205.412 106.721 205.304 105.471 204.813 104.01L204.809 103.996L204.804 103.983C204.606 103.358 204.408 102.941 204.154 102.673C203.93 102.439 203.578 102.235 203.065 102.049L203.056 102.046L203.048 102.042C201.156 101.317 199.368 101.966 198.282 103.202Z" fill="#E5E5E5"/>
<path d="M1088.57 129.408C1088.54 128.985 1088.51 128.542 1088.46 128.107C1088.37 127.118 1088.27 126.119 1088.13 125.146C1087.86 123.211 1087.39 121.343 1086.68 119.556C1086.46 119.018 1085.73 118.854 1085.23 119.128C1085.19 119.155 1085.14 119.201 1085.11 119.239C1084.93 119.286 1084.76 119.363 1084.61 119.482C1082.15 121.385 1079.67 123.276 1077.21 125.197C1076.82 125.489 1076.74 126.135 1076.95 126.531C1077.41 127.518 1078.54 127.802 1079.46 128.221L1082.29 129.494C1083.3 129.939 1084.32 130.396 1085.31 130.86C1086.2 131.257 1087.55 132.239 1088.35 131.085C1088.73 130.553 1088.61 129.992 1088.57 129.408ZM1083.13 127.401C1082.36 127.053 1081.62 126.717 1080.85 126.37C1080.5 126.204 1080.14 126.057 1079.79 125.891C1081.56 124.518 1083.34 123.146 1085.12 121.786C1085.5 122.956 1085.79 124.18 1085.97 125.416C1086.1 126.248 1086.18 127.076 1086.27 127.904C1086.3 128.217 1086.33 128.53 1086.37 128.854C1086.08 128.722 1085.78 128.59 1085.49 128.458L1083.13 127.401Z" fill="#E5E5E5"/>
<path d="M978.161 598.67C977.885 598.313 977.609 597.932 977.31 597.574C976.666 596.741 975.999 595.908 975.309 595.122C973.952 593.551 972.456 592.146 970.777 590.955C970.271 590.598 969.512 590.86 969.213 591.384C969.19 591.431 969.167 591.503 969.167 591.551C969.029 591.693 968.914 591.86 968.845 592.051C967.695 595.122 966.522 598.194 965.372 601.289C965.188 601.765 965.487 602.384 965.901 602.622C966.89 603.241 968.086 602.86 969.167 602.717L972.479 602.265C973.653 602.098 974.849 601.932 976.022 601.789C977.057 601.646 978.851 601.765 978.92 600.289C978.966 599.598 978.529 599.17 978.161 598.67ZM972.042 599.932C971.145 600.051 970.271 600.17 969.374 600.289C968.96 600.336 968.546 600.408 968.132 600.456C968.96 598.241 969.788 596.027 970.639 593.813C971.651 594.646 972.617 595.574 973.492 596.574C974.09 597.241 974.642 597.932 975.194 598.622C975.401 598.884 975.608 599.146 975.838 599.408C975.493 599.455 975.148 599.503 974.803 599.551L972.042 599.932Z" fill="#E5E5E5"/>
<path fill-rule="evenodd" clip-rule="evenodd" d="M1095.76 311.83C1096.32 311.998 1096.97 312.255 1097.51 312.725C1098.14 313.271 1098.47 313.977 1098.68 314.533C1099.18 315.762 1099.59 317.481 1098.74 319.022L1098.74 319.025C1098.06 320.254 1096.76 320.997 1095.49 321.313C1094.2 321.633 1092.89 321.563 1091.7 321.364L1091.7 321.363L1091.69 321.362C1091.11 321.257 1090.36 321.094 1089.7 320.665C1089.08 320.271 1088.66 319.723 1088.38 319.169C1087.19 316.925 1087.86 314.632 1089.41 313.171C1090.94 311.729 1093.34 311.062 1095.76 311.83ZM1090.88 314.734C1089.94 315.625 1089.6 316.891 1090.28 318.173L1090.28 318.182L1090.29 318.191C1090.44 318.481 1090.63 318.708 1090.86 318.854L1090.87 318.858L1090.87 318.862C1091.14 319.04 1091.52 319.147 1092.07 319.246C1093.1 319.419 1094.08 319.45 1094.97 319.228C1095.88 319.002 1096.56 318.524 1096.86 317.989C1097.22 317.328 1097.13 316.406 1096.69 315.329L1096.69 315.32L1096.68 315.31C1096.5 314.849 1096.33 314.542 1096.1 314.345C1095.9 314.172 1095.59 314.022 1095.13 313.885L1095.13 313.882L1095.12 313.88C1093.44 313.345 1091.85 313.824 1090.88 314.734Z" fill="#E5E5E5"/>
<path fill-rule="evenodd" clip-rule="evenodd" d="M363.182 498.019C363.737 498.187 364.394 498.444 364.933 498.914C365.56 499.46 365.89 500.166 366.103 500.721C366.6 501.95 367.006 503.67 366.163 505.21L366.161 505.214C365.483 506.442 364.18 507.185 362.91 507.501C361.622 507.822 360.311 507.752 359.123 507.552L359.116 507.551L359.11 507.55C358.532 507.446 357.783 507.283 357.123 506.853C356.504 506.46 356.077 505.911 355.796 505.358C354.612 503.114 355.278 500.821 356.828 499.36C358.358 497.918 360.757 497.251 363.182 498.019ZM358.302 500.923C357.357 501.814 357.02 503.08 357.699 504.361L357.704 504.371L357.708 504.38C357.855 504.67 358.047 504.896 358.279 505.043L358.285 505.047L358.291 505.051C358.563 505.228 358.939 505.336 359.485 505.435C360.515 505.607 361.499 505.639 362.391 505.417C363.301 505.19 363.983 504.712 364.28 504.177C364.64 503.516 364.545 502.595 364.108 501.518L364.104 501.508L364.101 501.499C363.924 501.038 363.748 500.731 363.522 500.533C363.324 500.361 363.01 500.211 362.554 500.073L362.547 500.071L362.539 500.069C360.858 499.534 359.268 500.013 358.302 500.923Z" fill="#E5E5E5"/>
<path fill-rule="evenodd" clip-rule="evenodd" d="M235.714 369.119C236.269 369.287 236.926 369.544 237.465 370.014C238.092 370.56 238.422 371.266 238.636 371.821C239.132 373.051 239.539 374.77 238.695 376.311L238.694 376.314C238.015 377.543 236.712 378.285 235.442 378.602C234.154 378.922 232.843 378.852 231.655 378.653L231.649 378.652L231.642 378.65C231.064 378.546 230.315 378.383 229.655 377.954C229.036 377.56 228.609 377.011 228.328 376.458C227.144 374.214 227.81 371.921 229.361 370.46C230.89 369.018 233.289 368.351 235.714 369.119ZM230.834 372.023C229.889 372.914 229.552 374.18 230.231 375.462L230.236 375.471L230.241 375.48C230.387 375.77 230.58 375.996 230.811 376.143L230.817 376.147L230.824 376.151C231.095 376.329 231.471 376.436 232.017 376.535C233.047 376.708 234.032 376.739 234.923 376.517C235.833 376.291 236.516 375.812 236.812 375.277C237.173 374.616 237.077 373.695 236.641 372.618L236.637 372.609L236.633 372.599C236.457 372.138 236.28 371.831 236.054 371.634C235.856 371.461 235.543 371.311 235.087 371.174L235.079 371.171L235.071 371.169C233.39 370.634 231.8 371.113 230.834 372.023Z" fill="#E5E5E5"/>
<path d="M139.452 206.58C139.89 206.418 140.353 206.256 140.791 206.093C141.813 205.698 142.811 205.304 143.808 204.863C145.755 204.004 147.605 202.983 149.284 201.706C149.795 201.312 149.771 200.499 149.357 200.058C149.333 200.012 149.284 199.989 149.235 199.966C149.138 199.803 149.016 199.641 148.846 199.525C146.193 197.528 143.565 195.532 140.912 193.536C140.499 193.211 139.817 193.351 139.428 193.652C138.527 194.418 138.503 195.695 138.308 196.762L137.724 200.105C137.505 201.289 137.311 202.472 137.092 203.656C136.921 204.677 136.24 206.395 137.651 206.882C138.308 207.091 138.868 206.813 139.452 206.58ZM140.134 200.314C140.28 199.432 140.45 198.55 140.596 197.668C140.669 197.25 140.742 196.832 140.815 196.414C142.713 197.853 144.636 199.292 146.534 200.731C145.39 201.474 144.198 202.147 142.957 202.704C142.129 203.076 141.277 203.424 140.426 203.749C140.109 203.865 139.793 204.004 139.452 204.143C139.525 203.795 139.574 203.447 139.647 203.099L140.134 200.314Z" fill="#E5E5E5"/>
<path d="M1154.18 134.969C1154.62 134.807 1155.08 134.644 1155.52 134.482C1156.54 134.087 1157.54 133.693 1158.54 133.252C1160.48 132.393 1162.33 131.372 1164.01 130.095C1164.52 129.701 1164.5 128.888 1164.09 128.447C1164.06 128.401 1164.01 128.378 1163.96 128.354C1163.87 128.192 1163.75 128.029 1163.58 127.913C1160.92 125.917 1158.29 123.921 1155.64 121.925C1155.23 121.6 1154.55 121.739 1154.16 122.041C1153.26 122.807 1153.23 124.084 1153.04 125.151L1152.45 128.494C1152.23 129.677 1152.04 130.861 1151.82 132.045C1151.65 133.066 1150.97 134.784 1152.38 135.271C1153.04 135.48 1153.6 135.202 1154.18 134.969ZM1154.86 128.703C1155.01 127.821 1155.18 126.939 1155.33 126.057C1155.4 125.639 1155.47 125.221 1155.54 124.803C1157.44 126.242 1159.37 127.681 1161.26 129.12C1160.12 129.863 1158.93 130.536 1157.69 131.093C1156.86 131.465 1156.01 131.813 1155.16 132.138C1154.84 132.254 1154.52 132.393 1154.18 132.532C1154.25 132.184 1154.3 131.836 1154.38 131.488L1154.86 128.703Z" fill="#E5E5E5"/>
<path d="M1131.98 577.526C1132.42 577.363 1132.88 577.201 1133.32 577.038C1134.34 576.644 1135.34 576.249 1136.34 575.808C1138.29 574.949 1140.13 573.928 1141.81 572.651C1142.32 572.257 1142.3 571.444 1141.89 571.003C1141.86 570.957 1141.81 570.934 1141.77 570.911C1141.67 570.748 1141.55 570.586 1141.38 570.47C1138.72 568.474 1136.09 566.477 1133.44 564.481C1133.03 564.156 1132.35 564.296 1131.96 564.597C1131.06 565.363 1131.03 566.64 1130.84 567.708L1130.25 571.05C1130.04 572.234 1129.84 573.417 1129.62 574.601C1129.45 575.622 1128.77 577.34 1130.18 577.827C1130.84 578.036 1131.4 577.758 1131.98 577.526ZM1132.66 571.259C1132.81 570.377 1132.98 569.495 1133.13 568.613C1133.2 568.195 1133.27 567.777 1133.34 567.359C1135.24 568.798 1137.17 570.238 1139.06 571.677C1137.92 572.419 1136.73 573.092 1135.49 573.649C1134.66 574.021 1133.81 574.369 1132.96 574.694C1132.64 574.81 1132.32 574.949 1131.98 575.089C1132.06 574.74 1132.1 574.392 1132.18 574.044L1132.66 571.259Z" fill="#E5E5E5"/>
<path d="M144.912 503.687C145.423 503.491 145.962 503.294 146.473 503.097C147.666 502.62 148.83 502.142 149.994 501.608C152.265 500.568 154.423 499.332 156.382 497.787C156.978 497.309 156.95 496.326 156.467 495.792C156.439 495.736 156.382 495.708 156.325 495.68C156.212 495.483 156.07 495.286 155.871 495.146C152.776 492.729 149.71 490.313 146.615 487.897C146.133 487.503 145.338 487.672 144.883 488.037C143.833 488.964 143.805 490.51 143.577 491.802L142.896 495.848C142.64 497.281 142.413 498.714 142.158 500.147C141.959 501.383 141.164 503.462 142.811 504.052C143.577 504.305 144.23 503.968 144.912 503.687ZM145.707 496.101C145.877 495.033 146.076 493.966 146.246 492.898C146.331 492.392 146.417 491.886 146.502 491.381C148.716 493.123 150.959 494.865 153.174 496.607C151.839 497.506 150.448 498.321 149 498.995C148.035 499.445 147.041 499.866 146.048 500.259C145.678 500.4 145.309 500.568 144.912 500.737C144.997 500.316 145.054 499.894 145.139 499.473L145.707 496.101Z" fill="#E5E5E5"/>
<path fill-rule="evenodd" clip-rule="evenodd" d="M31.8308 387.694C31.2064 387.466 30.4677 387.117 29.8611 386.48C29.1558 385.739 28.7847 384.781 28.5448 384.027C27.9863 382.359 27.5292 380.025 28.4778 377.934L28.4797 377.93C29.2425 376.262 30.7082 375.254 32.1373 374.825C33.5859 374.39 35.0609 374.485 36.3973 374.756L36.4043 374.757L36.4113 374.759C37.0615 374.9 37.904 375.122 38.647 375.704C39.3428 376.239 39.8235 376.983 40.1397 377.734C41.4715 380.78 40.722 383.891 38.978 385.875C37.2571 387.832 34.5586 388.737 31.8308 387.694ZM37.3205 383.753C38.3836 382.544 38.7626 380.826 37.9989 379.087L37.9933 379.074L37.988 379.061C37.8233 378.668 37.6067 378.361 37.3465 378.162L37.3393 378.156L37.3323 378.151C37.0266 377.91 36.604 377.764 35.9896 377.63C34.8312 377.396 33.7238 377.353 32.721 377.654C31.6977 377.962 30.9295 378.61 30.5965 379.337C30.1905 380.234 30.2983 381.484 30.7889 382.945L30.7933 382.958L30.7976 382.972C30.9959 383.597 31.1941 384.014 31.4485 384.282C31.6716 384.516 32.0241 384.719 32.5371 384.906L32.5457 384.909L32.5543 384.913C34.4456 385.638 36.2339 384.989 37.3205 383.753Z" fill="#E5E5E5"/>
<path d="M65.9287 128.182C66.2047 128.539 66.4807 128.92 66.7798 129.277C67.4238 130.111 68.0908 130.944 68.7808 131.73C70.1378 133.301 71.6329 134.706 73.3119 135.897C73.8179 136.254 74.5769 135.992 74.8759 135.468C74.8989 135.42 74.9219 135.349 74.9219 135.301C75.0599 135.158 75.1749 134.992 75.2439 134.801C76.394 131.73 77.567 128.658 78.717 125.563C78.901 125.087 78.602 124.468 78.188 124.23C77.199 123.611 76.003 123.992 74.9219 124.134L71.6099 124.587C70.4368 124.753 69.2408 124.92 68.0678 125.063C67.0328 125.206 65.2387 125.087 65.1697 126.563C65.1237 127.254 65.5607 127.682 65.9287 128.182ZM72.0469 126.92C72.9439 126.801 73.8179 126.682 74.7149 126.563C75.1289 126.515 75.5429 126.444 75.957 126.396C75.1289 128.611 74.3009 130.825 73.4499 133.039C72.4379 132.206 71.4719 131.277 70.5978 130.277C69.9998 129.611 69.4478 128.92 68.8958 128.23C68.6888 127.968 68.4818 127.706 68.2518 127.444C68.5968 127.396 68.9418 127.349 69.2868 127.301L72.0469 126.92Z" fill="#E5E5E5"/>
<path d="M1196.67 141.788C1196.94 142.145 1197.22 142.526 1197.52 142.883C1198.16 143.717 1198.83 144.55 1199.52 145.336C1200.88 146.907 1202.37 148.312 1204.05 149.503C1204.56 149.86 1205.32 149.598 1205.62 149.074C1205.64 149.026 1205.66 148.955 1205.66 148.907C1205.8 148.764 1205.91 148.598 1205.98 148.407C1207.13 145.336 1208.31 142.264 1209.46 139.169C1209.64 138.693 1209.34 138.074 1208.93 137.836C1207.94 137.217 1206.74 137.598 1205.66 137.74L1202.35 138.193C1201.18 138.359 1199.98 138.526 1198.81 138.669C1197.77 138.812 1195.98 138.693 1195.91 140.169C1195.86 140.86 1196.3 141.288 1196.67 141.788ZM1202.79 140.526C1203.68 140.407 1204.56 140.288 1205.45 140.169C1205.87 140.121 1206.28 140.05 1206.7 140.002C1205.87 142.217 1205.04 144.431 1204.19 146.645C1203.18 145.812 1202.21 144.883 1201.34 143.883C1200.74 143.217 1200.19 142.526 1199.64 141.836C1199.43 141.574 1199.22 141.312 1198.99 141.05C1199.34 141.002 1199.68 140.955 1200.03 140.907L1202.79 140.526Z" fill="#E5E5E5"/>
<path fill-rule="evenodd" clip-rule="evenodd" d="M141.676 9.7033C141.121 9.53538 140.464 9.27823 139.925 8.80844C139.298 8.2622 138.968 7.55656 138.755 7.00093C138.258 5.77176 137.852 4.05202 138.695 2.51165L138.697 2.50846C139.375 1.27968 140.678 0.536859 141.949 0.220605C143.237 -0.0999569 144.548 -0.030005 145.736 0.169732L145.742 0.17078L145.748 0.171901C146.326 0.276099 147.075 0.439104 147.736 0.868589C148.354 1.26243 148.782 1.81083 149.063 2.36401C150.247 4.60851 149.581 6.90111 148.03 8.36242C146.5 9.80444 144.101 10.4713 141.676 9.7033ZM146.557 6.79907C147.502 5.90829 147.839 4.6422 147.16 3.36063L147.155 3.35138L147.15 3.34203C147.004 3.052 146.811 2.82585 146.58 2.67931L146.573 2.67528L146.567 2.67117C146.295 2.49363 145.92 2.38603 145.373 2.28728C144.344 2.11468 143.359 2.08341 142.468 2.30532C141.558 2.53177 140.875 3.00983 140.579 3.54491C140.218 4.20597 140.314 5.12731 140.75 6.20399L140.754 6.21369L140.758 6.22346C140.934 6.68432 141.11 6.99157 141.336 7.18863C141.535 7.36141 141.848 7.51124 142.304 7.64876L142.312 7.65108L142.319 7.65351C144.001 8.18806 145.591 7.70957 146.557 6.79907Z" fill="#E5E5E5"/>
<path fill-rule="evenodd" clip-rule="evenodd" d="M3.46819 420.751C2.91315 420.583 2.25637 420.325 1.71714 419.856C1.09014 419.309 0.760186 418.604 0.54691 418.048C0.05047 416.819 -0.355899 415.099 0.487336 413.559L0.48909 413.556C1.16718 412.327 2.47017 411.584 3.74069 411.268C5.0285 410.947 6.3398 411.017 7.5278 411.217L7.53404 411.218L7.54025 411.219C8.11832 411.323 8.86732 411.486 9.5278 411.916C10.1464 412.31 10.5737 412.858 10.8548 413.411C12.0388 415.656 11.3725 417.948 9.8221 419.41C8.29217 420.852 5.89327 421.518 3.46819 420.751ZM8.34858 417.846C9.29366 416.956 9.63055 415.689 8.95162 414.408L8.94672 414.399L8.942 414.389C8.79552 414.099 8.60296 413.873 8.37167 413.727L8.36532 413.722L8.35902 413.718C8.08732 413.541 7.71157 413.433 7.16535 413.334C6.13556 413.162 5.15109 413.131 4.25961 413.353C3.34988 413.579 2.66694 414.057 2.37087 414.592C2.01 415.253 2.1058 416.175 2.54198 417.251L2.54591 417.261L2.54965 417.271C2.72597 417.732 2.90216 418.039 3.12835 418.236C3.32667 418.409 3.64006 418.558 4.09608 418.696L4.10375 418.698L4.11139 418.701C5.79273 419.235 7.38257 418.757 8.34858 417.846Z" fill="#E5E5E5"/>
<path fill-rule="evenodd" clip-rule="evenodd" d="M1272.42 416.454C1271.86 416.286 1271.2 416.029 1270.66 415.559C1270.04 415.013 1269.71 414.307 1269.49 413.751C1269 412.522 1268.59 410.803 1269.43 409.262L1269.44 409.259C1270.11 408.03 1271.42 407.287 1272.69 406.971C1273.98 406.651 1275.29 406.721 1276.48 406.92L1276.48 406.921L1276.49 406.922C1277.07 407.027 1277.81 407.19 1278.48 407.619C1279.09 408.013 1279.52 408.561 1279.8 409.115C1280.99 411.359 1280.32 413.652 1278.77 415.113C1277.24 416.555 1274.84 417.222 1272.42 416.454ZM1277.3 413.55C1278.24 412.659 1278.58 411.393 1277.9 410.111L1277.89 410.102L1277.89 410.093C1277.74 409.803 1277.55 409.576 1277.32 409.43L1277.31 409.426L1277.31 409.422C1277.03 409.244 1276.66 409.137 1276.11 409.038C1275.08 408.865 1274.1 408.834 1273.21 409.056C1272.3 409.282 1271.61 409.76 1271.32 410.295C1270.96 410.956 1271.05 411.878 1271.49 412.955L1271.49 412.964L1271.5 412.974C1271.67 413.435 1271.85 413.742 1272.08 413.939C1272.27 414.112 1272.59 414.262 1273.04 414.399L1273.05 414.402L1273.06 414.404C1274.74 414.939 1276.33 414.46 1277.3 413.55Z" fill="#E5E5E5"/>
<path fill-rule="evenodd" clip-rule="evenodd" d="M1167.86 542.489C1167.31 542.321 1166.65 542.064 1166.11 541.595C1165.49 541.048 1165.16 540.343 1164.94 539.787C1164.45 538.558 1164.04 536.838 1164.88 535.298L1164.88 535.295C1165.56 534.066 1166.87 533.323 1168.14 533.007C1169.42 532.686 1170.73 532.756 1171.92 532.956L1171.93 532.957L1171.94 532.958C1172.51 533.062 1173.26 533.225 1173.92 533.655C1174.54 534.048 1174.97 534.597 1175.25 535.15C1176.43 537.395 1175.77 539.687 1174.22 541.148C1172.69 542.591 1170.29 543.257 1167.86 542.489ZM1172.74 539.585C1173.69 538.694 1174.03 537.428 1173.35 536.147L1173.34 536.137L1173.34 536.128C1173.19 535.838 1173 535.612 1172.77 535.465L1172.76 535.461L1172.75 535.457C1172.48 535.28 1172.11 535.172 1171.56 535.073C1170.53 534.901 1169.55 534.869 1168.65 535.091C1167.74 535.318 1167.06 535.796 1166.77 536.331C1166.41 536.992 1166.5 537.913 1166.94 538.99L1166.94 539L1166.94 539.01C1167.12 539.47 1167.3 539.778 1167.52 539.975C1167.72 540.147 1168.04 540.297 1168.49 540.435L1168.5 540.437L1168.51 540.44C1170.19 540.974 1171.78 540.496 1172.74 539.585Z" fill="#E5E5E5"/>
</svg>
