<svg width="64" height="54" viewBox="0 0 64 54" fill="none" xmlns="http://www.w3.org/2000/svg">
<path d="M59.7811 33.3016C59.4776 28.2608 59.1956 23.2182 58.8707 18.1784C58.8083 17.214 58.7246 16.2598 57.8142 15.7143C56.8954 15.1641 55.5921 15.3578 54.5681 15.342C51.9337 15.301 49.2993 15.2675 46.6649 15.2414C36.2818 15.139 25.8978 15.1512 15.5147 15.2787C14.419 15.2917 12.9305 15.0515 12.0164 15.8064C11.0874 16.5735 11.1413 17.9336 11.0082 19.0265C10.7131 21.443 10.4562 23.8642 10.2235 26.2882C10.7364 26.4511 11.3117 26.4623 11.793 26.7137C12.4064 27.0348 12.6643 27.7162 12.8598 28.3371C12.9854 28.7346 13.0459 29.1563 13.1064 29.5678C13.1995 30.1952 13.2805 30.8281 13.2991 31.4621C13.3168 32.0625 13.2861 32.6927 13.0208 33.241C12.7257 33.8535 12.022 34.2342 11.3741 34.3469C10.7709 34.4511 10.1248 34.427 9.58303 34.1561C9.33821 37.7996 9.15669 41.4468 9.05057 45.0968C9.01706 46.239 10.1313 46.6524 10.9626 46.3424C11.0371 46.3517 11.1106 46.3619 11.1925 46.36C21.612 46.1338 32.0314 45.8778 42.4517 45.6842C44.9567 45.6377 47.4618 45.607 49.9668 45.6302C51.1806 45.6414 52.3945 45.6655 53.6084 45.7065C54.8884 45.7493 56.3145 46.0165 57.5805 45.8173C59.8453 45.4598 60.3201 42.9474 60.2466 41.0223C60.1451 38.4475 59.9356 35.8727 59.7811 33.3016ZM23.8452 42.0984C21.9015 42.009 19.9531 42.0984 18.0169 42.2809C17.4044 42.3386 16.9436 41.7316 16.9194 41.1833C16.8914 40.5522 17.4472 40.1398 18.0169 40.0858C19.9531 39.9034 21.9005 39.8149 23.8452 39.9033C24.4605 39.9313 24.9147 40.3837 24.9427 41.0009C24.9678 41.5753 24.4186 42.1254 23.8452 42.0984ZM34.5904 42.0072C32.6774 42.0053 30.7663 41.9179 28.8533 41.916C28.3004 41.9151 27.8945 41.5036 27.7949 40.9898C27.3686 41.7885 26.0253 41.9458 25.7916 40.8371C25.5515 39.6967 24.5619 39.1214 24.0816 38.0937C23.619 37.1061 23.5873 35.9453 23.5659 34.8729C23.5054 31.8847 23.43 28.8938 23.3955 25.9056C23.3806 24.553 23.0139 18.4353 25.2182 18.2808C26.0383 17.8302 27.0381 17.2977 28.0006 17.59C29.0097 17.8963 29.3541 18.87 29.477 19.8195C29.868 22.8346 29.3076 25.8265 29.4128 28.8435C29.49 31.0748 30.0207 33.2801 29.7228 35.518C29.5924 36.4926 29.3048 37.4822 28.629 38.226C28.4521 38.4205 28.2743 38.5816 28.0388 38.711C27.9076 38.7836 27.7083 38.939 27.6497 38.8953C27.6218 39.3049 27.8498 39.9109 27.9094 40.2544C27.9103 40.259 27.9094 40.2627 27.9103 40.2664C28.1086 39.9452 28.4745 39.7209 28.8543 39.7219C30.7672 39.7237 32.6783 39.8113 34.5913 39.8131C35.2066 39.814 35.6618 40.3158 35.6888 40.9106C35.7149 41.5026 35.1647 42.0081 34.5904 42.0072ZM45.7917 41.8257C43.754 41.8322 41.7303 42.1831 39.6907 42.0984C39.2811 42.0816 38.9553 41.862 38.7673 41.5427C38.7738 41.5744 38.7812 41.606 38.785 41.6376C38.933 42.8748 36.872 43.1224 36.63 41.929C36.5555 41.565 36.4987 41.1991 36.4578 40.8342C36.0305 38.656 35.026 36.6202 34.8026 34.3861C34.5206 31.5692 34.6556 28.689 34.6723 25.8619C34.6891 23.0785 33.4082 18.036 37.5972 17.8638C37.7871 17.8563 37.9462 17.8935 38.0849 17.9559C39.902 17.4504 40.67 19.1176 40.684 20.7011C40.7044 23.0488 40.4252 25.4095 40.3572 27.7562C40.2818 30.3637 40.5713 32.918 40.6607 35.5096C40.6951 36.4963 40.5629 37.6218 39.8341 38.36C39.458 38.7416 38.9581 38.9083 38.7319 39.4165C38.5485 39.828 38.5662 40.2739 38.6323 40.7133C38.7589 40.2563 39.2141 39.881 39.6917 39.9015C41.7312 39.9853 43.755 39.6353 45.7927 39.6288C46.408 39.6269 46.8632 40.1333 46.8902 40.7263C46.9153 41.322 46.3661 41.8238 45.7917 41.8257ZM54.4006 33.1004C54.1669 33.6767 53.7974 34.1775 53.1737 34.3646C52.6021 34.5359 51.9859 34.3693 51.4916 34.0639C50.3838 33.3788 50.2507 31.8131 50.1688 30.6439C50.0915 29.5473 50.0971 28.4089 50.2889 27.3225C50.3373 27.0451 50.5653 26.8132 50.7934 26.6662C51.0578 26.4958 51.3463 26.5163 51.6396 26.5554C51.3566 26.5172 51.6312 26.5499 51.6954 26.5564C51.7876 26.5648 51.8797 26.5713 51.9728 26.5768C52.1339 26.5871 52.2949 26.5926 52.4559 26.5973C52.8153 26.6075 53.1746 26.6075 53.5339 26.6075C54.1493 26.6075 54.6044 27.1103 54.6314 27.7051C54.6398 27.8987 54.583 28.0802 54.4881 28.2403C54.5644 28.932 54.6482 29.6227 54.6808 30.319C54.7208 31.2229 54.745 32.2496 54.4006 33.1004Z" fill="#F7C300"/>
<path d="M35.0308 5.23692C34.8967 4.71376 34.5635 4.28469 34.1073 4.00263C33.5144 3.63586 32.6822 3.57999 32.0324 3.81923C31.7774 3.91325 31.5409 4.04446 31.3175 4.19433C31.0969 4.20178 30.8772 4.24932 30.7022 4.37592C30.3522 4.62819 30.0906 4.87016 29.8607 5.24158C29.6903 5.51619 29.5702 5.8346 29.4855 6.14644C29.3086 6.79155 29.2258 7.46079 29.3319 8.12265C29.4678 8.97441 30.1269 9.62698 30.9256 9.89135C31.6396 10.1269 32.4578 9.98545 33.0936 9.60193C33.6661 9.25657 34.1409 8.72871 34.4741 8.15435C34.8195 7.55951 34.9945 6.93022 35.0755 6.2544C35.1146 5.91648 35.1155 5.57018 35.0308 5.23692Z" fill="#F7C300"/>
<path d="M57.6011 37.9893C57.5424 37.2678 57.2538 36.5342 56.4709 36.3452C56.3546 36.3173 56.2271 36.3109 56.1033 36.2979C56.0567 30.6381 55.837 24.9819 55.4405 19.3361C55.4349 19.2579 55.4032 19.1984 55.3837 19.1295C55.9199 19.1183 56.457 19.1146 56.9932 19.1007C57.7696 19.0802 58.0348 18.2936 57.804 17.749C57.9194 16.8591 57.9632 15.9384 57.5769 15.1089C57.0742 14.031 56.0009 13.5386 55.0216 12.9689C52.5184 11.5139 50.0153 10.059 47.5121 8.60398C43.0913 6.03473 38.6687 3.46725 34.2442 0.903593C34.1967 0.878459 34.1502 0.852453 34.1064 0.823595C33.95 0.733299 33.7936 0.64208 33.6373 0.551784C33.4194 0.472658 33.1997 0.395364 32.9837 0.310653C32.8776 0.268763 32.7669 0.252052 32.6598 0.216678C32.4289 0.141276 32.2009 0.0593419 31.9616 0.0137284C31.7252 -0.00395842 31.4878 -0.00486749 31.2514 0.0128194C31.2411 0.0146811 31.2318 0.0193447 31.2207 0.0221373C31.176 0.0342388 31.1313 0.048173 31.0866 0.0621363C26.178 2.90506 21.2723 5.7536 16.3684 8.60398C13.8652 10.059 11.3621 11.5139 8.8589 12.9689C7.87961 13.5386 6.8063 14.031 6.30362 15.1089C5.91731 15.9384 5.96104 16.8591 6.07647 17.749C5.84468 18.2936 6.11091 19.0802 6.88727 19.1007C7.42346 19.1146 7.96059 19.1183 8.49678 19.1295C8.47723 19.1975 8.44558 19.257 8.43999 19.3361C8.04343 24.9819 7.82377 30.6381 7.77722 36.2979C7.65342 36.3109 7.5268 36.3173 7.40951 36.3452C6.6257 36.5351 6.33806 37.2678 6.27942 37.9893C6.14165 39.7012 6.14349 41.4382 6.10439 43.1538C6.06437 44.9253 6.04576 46.6967 6.04576 48.4691C6.04576 49.0174 6.43673 49.3024 6.85935 49.3489C7.00922 49.5183 7.23078 49.63 7.52587 49.6263C15.6646 49.5323 23.8015 49.4392 31.9403 49.3451C40.0781 49.4392 48.2158 49.5323 56.3546 49.6263C56.6497 49.63 56.8722 49.5174 57.0211 49.3489C57.4437 49.3024 57.8356 49.0174 57.8347 48.4691C57.8347 46.6967 57.8161 44.9253 57.7761 43.1538C57.7379 41.4382 57.7398 39.7012 57.6011 37.9893ZM49.9529 13.6102C50.7209 13.6437 51.4889 13.6782 52.2568 13.7117C52.3434 13.7154 52.4263 13.6875 52.5091 13.6633C53.0965 14.0049 53.6839 14.3465 54.2713 14.6872C54.8373 15.0168 55.621 15.3306 55.8984 15.9487C56.0707 16.3341 56.0567 16.8097 56.0055 17.2565C53.4688 17.3142 50.9313 17.3366 48.3946 17.3422C48.5407 16.0873 48.6869 14.8326 48.834 13.5777C49.1858 13.5954 49.5377 13.6028 49.8896 13.6204C49.9138 13.6223 49.9296 13.6111 49.9529 13.6102ZM54.1968 33.4139C53.7062 33.4242 53.2156 33.4196 52.726 33.3833C52.4542 33.3628 52.1814 33.3375 51.9115 33.3003C51.7709 33.2817 51.6303 33.2576 51.4898 33.2334C51.4879 33.1896 51.487 33.1468 51.4851 33.104C51.4777 32.8917 51.4693 32.6795 51.4619 32.4682L51.4079 31.0365C51.3734 30.1084 51.3381 29.1811 51.3036 28.253C51.2952 28.0408 51.2878 27.8286 51.2794 27.6173C51.2766 27.5391 51.2896 27.4134 51.2943 27.2906C51.3986 27.2841 51.5037 27.2728 51.5903 27.2728C52.3993 27.2728 53.2082 27.2719 54.0171 27.2719C54.1 29.318 54.1586 31.3651 54.1968 33.4139ZM19.2979 9.05635C23.511 6.60812 27.7252 4.16177 31.9412 1.72005C36.1571 4.16177 40.3713 6.60812 44.5845 9.05635C46.1176 9.94721 47.6508 10.839 49.184 11.7298C43.6796 11.4552 38.1707 11.3091 32.6607 11.257V11.2328C32.4206 11.2346 32.1813 11.243 31.9421 11.2448C31.7019 11.243 31.4627 11.2346 31.2225 11.2328V11.257C25.7126 11.3091 20.2036 11.4552 14.6993 11.7298C16.2315 10.839 17.7647 9.94814 19.2979 9.05635ZM31.9412 44.3108C28.2595 44.2699 24.5779 44.2764 20.8971 44.3574C19.2085 44.3947 17.5003 44.3966 15.8061 44.4775C15.8098 44.2001 15.8089 43.906 15.7307 43.7021C15.7307 43.7002 15.7307 43.6993 15.7307 43.6974C16.441 43.8287 17.3737 43.6583 18.097 43.6462C19.6553 43.6201 21.2136 43.6016 22.7719 43.5895C25.7089 43.5662 28.6458 43.5746 31.5818 43.5988C31.5837 43.5988 31.5846 43.5997 31.5856 43.5997C31.7038 43.5988 31.822 43.6007 31.9403 43.5997C32.0575 43.6007 32.1757 43.5988 32.294 43.5997C32.2949 43.5997 32.2958 43.5988 32.2977 43.5988C35.2337 43.5737 38.1716 43.5662 41.1076 43.5895C42.6659 43.6016 44.2242 43.6201 45.7825 43.6462C46.5058 43.6583 47.4376 43.8287 48.1488 43.6974C48.1488 43.6993 48.1488 43.7002 48.1488 43.7021C48.0706 43.906 48.0706 44.2001 48.0734 44.4775C46.3792 44.3966 44.672 44.3947 42.9824 44.3574C39.3036 44.2764 35.6219 44.2699 31.9412 44.3108ZM22.192 27.9981C21.9183 29.1654 23.714 29.6587 23.9877 28.4933C24.3889 26.7842 24.1385 25.0862 24.0575 23.3594C23.9905 21.9417 24.2381 20.5379 24.2753 19.1267C25.6502 19.0969 27.0252 19.0745 28.4001 19.0299C28.6198 25.4139 28.5518 31.8026 28.1916 38.1801C28.1823 38.1819 28.1729 38.182 28.1636 38.1838C27.6759 38.3039 27.3305 38.6734 27.1769 39.1416C27.0466 39.5382 27.0698 39.9897 27.0549 40.4021C27.0382 40.8396 27.0214 41.278 27.0047 41.7156C26.8027 41.7156 26.5997 41.7128 26.3977 41.7128C26.4043 41.0882 26.4284 40.457 26.3996 39.8342C26.3605 39.0011 25.882 38.518 25.0591 38.4556C24.926 38.4454 24.791 38.4445 24.6579 38.4361C24.4661 37.3609 24.4689 36.2634 24.4782 35.1742C24.4894 33.9203 24.4782 32.6795 24.2865 31.4367C24.2092 30.9368 23.5827 30.665 23.1415 30.787C22.6174 30.9312 22.4145 31.4358 22.4908 31.9319C22.6695 33.0909 22.6221 34.2797 22.6137 35.4489C22.6072 36.4207 22.6332 37.3897 22.7636 38.3504C22.1939 38.3346 21.6242 38.3216 21.0572 38.3002C20.3609 38.2732 19.6656 38.2462 18.9693 38.2192C18.8948 38.2164 18.8175 38.2098 18.7421 38.2061C18.785 31.8714 18.7114 25.5368 18.5345 19.2039C19.8276 19.1965 21.1196 19.1909 22.4126 19.1704C22.3689 20.5035 22.138 21.83 22.1855 23.1695C22.2441 24.7725 22.5643 26.4118 22.192 27.9981ZM18.9702 40.0809C19.6665 40.1079 20.3619 40.135 21.0582 40.162C21.7545 40.189 22.4498 40.2159 23.1461 40.2429C23.4943 40.2568 23.8424 40.2699 24.1897 40.2839C24.306 40.2885 24.4215 40.2932 24.5378 40.2979C24.5378 40.4608 24.5369 40.6237 24.5369 40.7875C24.5369 41.1003 24.536 41.4121 24.535 41.724C23.3705 41.7296 22.2069 41.7314 21.0424 41.7435C19.903 41.7556 18.7533 41.7444 17.6064 41.7584C17.666 41.5834 17.693 41.3944 17.6558 41.2026C17.6018 40.9261 17.5729 40.6563 17.5674 40.3751C17.5646 40.2532 17.5673 40.1312 17.572 40.0092C17.7321 40.0204 17.895 40.0381 18.0151 40.0428C18.3325 40.0558 18.6518 40.0688 18.9702 40.0809ZM30.2591 18.9545C30.8195 18.9331 31.3799 18.907 31.9403 18.8819C32.5006 18.907 33.061 18.934 33.6214 18.9545C33.3989 25.3711 33.466 31.7914 33.829 38.2014L33.4985 38.2145C33.4315 38.1987 33.3626 38.1885 33.2928 38.1931C32.7045 38.2304 32.1153 38.2499 31.5269 38.2583L30.0533 38.2014C30.4145 31.7923 30.4825 25.3711 30.2591 18.9545ZM30.5728 40.0791C32.0305 40.1229 33.4799 40.1294 34.9433 40.0019C34.9693 40.5753 34.9954 41.1477 35.0215 41.7211C32.9679 41.737 30.9153 41.737 28.8618 41.7211C28.886 41.1542 28.9093 40.5873 28.9316 40.0204C29.075 40.026 29.2174 40.0316 29.3607 40.0372C29.7657 40.0521 30.1697 40.067 30.5728 40.0791ZM39.8937 28.4933C40.1674 29.6597 41.9631 29.1654 41.6894 27.9981C41.3171 26.4118 41.6373 24.7734 41.6941 23.1695C41.7425 21.83 41.5107 20.5035 41.4669 19.1704C42.7599 19.1918 44.052 19.1965 45.345 19.2039C45.1681 25.5368 45.0946 31.8714 45.1374 38.2061C45.062 38.2108 44.9847 38.2164 44.9103 38.2192C44.214 38.2462 43.5186 38.2732 42.8223 38.3002C42.2554 38.3225 41.6857 38.3346 41.116 38.3504C41.2463 37.3897 41.2724 36.4207 41.2659 35.4489C41.2584 34.2797 41.21 33.0909 41.3887 31.9319C41.4651 31.4358 41.2631 30.9312 40.738 30.787C40.2968 30.6659 39.6703 30.9368 39.593 31.4367C39.4013 32.6795 39.3911 33.9194 39.4013 35.1742C39.4106 36.2634 39.4134 37.3609 39.2216 38.4361C39.0876 38.4445 38.9535 38.4454 38.8204 38.4556C37.9975 38.518 37.519 39.0011 37.4799 39.8342C37.4511 40.457 37.4753 41.0873 37.4818 41.7128C37.2798 41.7128 37.0769 41.7156 36.8749 41.7156C36.8581 41.2771 36.8413 40.8396 36.8246 40.4021C36.8088 39.9906 36.8321 39.5382 36.7027 39.1416C36.5491 38.6734 36.2037 38.3039 35.7159 38.1838C35.7066 38.182 35.6973 38.1819 35.688 38.1801C35.3277 31.8026 35.2607 25.4139 35.4795 19.0299C36.8544 19.0745 38.2293 19.0969 39.6042 19.1267C39.6424 20.5379 39.89 21.9417 39.822 23.3594C39.7429 25.0862 39.4925 26.7842 39.8937 28.4933ZM46.2768 41.7584C45.13 41.7444 43.9803 41.7565 42.8409 41.7435C41.6764 41.7305 40.5128 41.7286 39.3482 41.724C39.3482 41.4121 39.3473 41.0994 39.3464 40.7875C39.3464 40.6246 39.3454 40.4617 39.3454 40.2979C39.4618 40.2932 39.5772 40.2885 39.6936 40.2839C40.0417 40.2699 40.3899 40.2568 40.7371 40.2429C41.4334 40.2159 42.1288 40.189 42.8251 40.162C43.5214 40.135 44.2168 40.1079 44.9131 40.0809C45.2314 40.0688 45.5507 40.0558 45.87 40.0437C45.9901 40.039 46.153 40.0204 46.3131 40.0101C46.3178 40.1321 46.3206 40.2541 46.3178 40.376C46.3122 40.6572 46.2833 40.9272 46.2293 41.2036C46.1902 41.3954 46.2172 41.5843 46.2768 41.7584ZM46.5589 17.115C46.2405 17.0405 45.8812 17.1057 45.6392 17.3431C44.0734 17.3356 42.5077 17.3235 40.9428 17.2956C40.7557 17.2295 40.5426 17.2315 40.3415 17.2817C37.7806 17.2324 35.2197 17.1458 32.6598 17.0443V16.9893C32.4206 16.9996 32.1804 17.0071 31.9412 17.0164C31.701 17.0061 31.4608 16.9996 31.2216 16.9893V17.0443C28.6617 17.1467 26.1017 17.2324 23.5399 17.2817C23.3388 17.2315 23.1266 17.2295 22.9386 17.2956C21.3728 17.3235 19.808 17.3347 18.2422 17.3431C18.0002 17.1057 17.6409 17.0405 17.3225 17.115C17.182 15.9105 17.0414 14.7059 16.9008 13.5023C21.9118 13.2789 26.9256 13.1532 31.9403 13.1103C36.9549 13.1532 41.9687 13.2789 46.9796 13.5023C46.8391 14.7068 46.6994 15.9105 46.5589 17.115ZM7.87589 17.2575C7.82469 16.8107 7.81165 16.335 7.98293 15.9496C8.2594 15.3315 9.04415 15.0178 9.61013 14.6883C10.1975 14.3466 10.7849 14.0049 11.3723 13.6642C11.4552 13.6884 11.538 13.7163 11.6246 13.7126C12.3926 13.6791 13.1596 13.6446 13.9285 13.6111C13.9518 13.6111 13.9676 13.6233 13.9927 13.6215C14.3446 13.6028 14.6965 13.5954 15.0484 13.5786C15.1945 14.8335 15.3407 16.0882 15.4877 17.3431C12.9502 17.3375 10.4126 17.3143 7.87589 17.2575ZM9.86518 27.271C10.6741 27.271 11.4831 27.2719 12.292 27.2719C12.3786 27.2719 12.4838 27.2831 12.588 27.2897C12.5927 27.4125 12.6057 27.5382 12.6029 27.6164C12.5946 27.8286 12.5871 28.0408 12.5787 28.2521C12.5434 29.1802 12.5089 30.1074 12.4745 31.0355L12.4205 32.4673C12.413 32.6795 12.4046 32.8917 12.3972 33.103C12.3953 33.1459 12.3944 33.1895 12.3925 33.2324C12.2529 33.2566 12.1123 33.2808 11.9708 33.2994C11.7 33.3357 11.4281 33.3618 11.1563 33.3822C10.6667 33.4185 10.1761 33.4233 9.68553 33.413C9.72277 31.3651 9.78047 29.318 9.86518 27.271ZM13.9266 44.659C12.6625 45.0323 12.7426 46.4556 12.7751 47.7048C11.1554 47.7235 9.53565 47.7421 7.91498 47.7608C7.91963 46.1513 7.93266 44.5417 7.97083 42.9322C7.99224 42.0097 8.02017 41.0872 8.05182 40.1647C8.06764 39.7216 8.08439 39.2794 8.10301 38.8363C8.11232 38.612 8.10769 38.3774 8.13003 38.1521C8.30503 38.1568 8.48655 38.18 8.63922 38.1866L9.52264 38.2229C10.1482 38.249 10.7737 38.2741 11.4002 38.3002C12.6886 38.3532 13.976 38.4063 15.2643 38.4594C16.4652 38.5087 16.4587 36.647 15.2643 36.5976C13.4985 36.525 11.7316 36.4524 9.96478 36.3798C9.86053 36.3751 9.74697 36.364 9.63806 36.3556C9.64085 35.9944 9.65108 35.6332 9.65573 35.272C10.2571 35.285 10.8594 35.2748 11.4598 35.2189C11.8461 35.1826 12.2324 35.1323 12.616 35.0728C12.9865 35.016 13.37 34.9778 13.6893 34.7683C14.4005 34.301 14.2515 33.2845 14.2785 32.5473C14.3083 31.7523 14.3381 30.9573 14.3679 30.1614C14.3977 29.3664 14.4275 28.5715 14.4582 27.7756C14.4833 27.1007 14.5671 26.356 14.057 25.8254C13.5087 25.2538 12.5461 25.4111 11.8303 25.4102C11.2038 25.4102 10.5773 25.4093 9.95084 25.4093C9.96945 25.0239 9.9983 24.6394 10.0179 24.2541C10.0374 24.255 10.0551 24.2661 10.0756 24.2661H15.2662C15.7884 24.2661 16.1747 23.8398 16.1971 23.3352C16.2194 22.8325 15.753 22.4043 15.2662 22.4043H10.1258C10.1845 21.3813 10.231 20.3582 10.3027 19.3361C10.3074 19.2691 10.286 19.2207 10.2794 19.1611C12.4112 19.1928 14.5429 19.2114 16.6746 19.2095C16.8515 25.5367 16.925 31.8668 16.8822 38.1959C15.3853 38.4537 15.6395 40.5696 15.8592 41.696C15.8675 41.7388 15.8973 41.7695 15.9122 41.8086C15.7177 41.8179 15.5222 41.8226 15.3286 41.8357C13.6614 41.9511 13.8298 43.3958 13.9266 44.659ZM49.211 47.6835L32.6598 47.4927V47.4759L31.9412 47.4843L31.2216 47.4759V47.4927L14.6704 47.6835C14.6956 47.3158 14.7226 46.9304 14.6574 46.6074C14.6769 46.5329 14.6862 46.4799 14.6956 46.4259C14.7225 46.4203 14.7384 46.4193 14.7691 46.4128C15.6423 46.518 16.6513 46.3402 17.5366 46.3123C19.3155 46.2546 21.0954 46.2118 22.8753 46.183C25.6577 46.1383 28.4401 46.1401 31.2225 46.1661V46.1755C31.4617 46.1727 31.7019 46.1736 31.9421 46.1708C32.1813 46.1736 32.4215 46.1727 32.6607 46.1755V46.1661C35.4432 46.1401 38.2256 46.1373 41.008 46.183C42.7879 46.2118 44.5677 46.2546 46.3466 46.3123C47.2319 46.3411 48.241 46.518 49.1142 46.4128C49.1449 46.4193 49.1607 46.4212 49.1877 46.4259C49.197 46.4799 49.2063 46.5329 49.2259 46.6074C49.1598 46.9304 49.1858 47.3158 49.211 47.6835ZM51.1053 47.7048C51.1388 46.4565 51.2189 45.0323 49.9538 44.659C50.0506 43.3958 50.2201 41.9511 48.5528 41.8375C48.3592 41.8245 48.1637 41.8199 47.9692 41.8106C47.9841 41.7715 48.0138 41.7407 48.0222 41.6978C48.2428 40.5705 48.496 38.4547 46.9992 38.1978C46.9564 31.8678 47.0299 25.5387 47.2068 19.2114C49.3385 19.2124 51.4702 19.1938 53.602 19.163C53.5955 19.2217 53.5741 19.271 53.5787 19.338C53.6504 20.3601 53.6969 21.3831 53.7556 22.4061H48.6152C48.1284 22.4061 47.662 22.8343 47.6843 23.337C47.7067 23.8416 48.093 24.2679 48.6152 24.2679H53.8058C53.8254 24.2679 53.844 24.2568 53.8636 24.2559C53.8831 24.6413 53.912 25.0257 53.9306 25.4111C53.3041 25.4111 52.6776 25.412 52.0511 25.412C51.3352 25.412 50.3727 25.2556 49.8244 25.8272C49.3152 26.3587 49.3981 27.1025 49.4232 27.7774C49.453 28.5724 49.4828 29.3682 49.5135 30.1632C49.5433 30.9582 49.5731 31.7542 49.6029 32.5492C49.6308 33.2874 49.4809 34.3039 50.1921 34.7703C50.5114 34.9807 50.8949 35.0178 51.2654 35.0746C51.649 35.1332 52.0353 35.1845 52.4216 35.2208C53.022 35.2776 53.6243 35.2868 54.2257 35.2738C54.2303 35.635 54.2406 35.9962 54.2433 36.3574C54.1344 36.3658 54.0209 36.3769 53.9166 36.3816C52.1507 36.4542 50.3839 36.5268 48.6171 36.5994C47.4227 36.6488 47.4162 38.5105 48.6171 38.4612C49.9054 38.4081 51.1928 38.3551 52.4812 38.302C53.1067 38.2759 53.7323 38.2508 54.3588 38.2247L55.2422 38.1885C55.3949 38.182 55.5764 38.1587 55.7514 38.1541C55.7737 38.3793 55.7691 38.6148 55.7784 38.8382C55.797 39.2804 55.8138 39.7235 55.8296 40.1666C55.8622 41.0891 55.8891 42.0115 55.9106 42.9341C55.9487 44.5436 55.9618 46.1531 55.9664 47.7626C54.3448 47.7421 52.7251 47.7235 51.1053 47.7048Z" fill="black"/>
<path d="M35.9859 4.79441C35.1723 3.08065 33.1942 2.81167 31.5065 2.77071C31.2254 2.76419 30.9396 2.91491 30.7701 3.14297C30.543 3.08991 30.2935 3.1207 30.0692 3.2324C28.7045 3.91474 27.7159 5.46654 27.8257 7.01368C27.9356 8.5664 28.9745 9.98044 30.4825 10.4403C32.0641 10.9225 33.9798 10.3006 35.1416 9.17147C36.3071 8.03951 36.6887 6.27545 35.9859 4.79441ZM34.4751 6.63198C34.4741 6.64129 34.4751 6.6366 34.4751 6.64312C34.4741 6.64963 34.4741 6.64502 34.4723 6.65619C34.4453 6.7921 34.408 6.92149 34.3699 7.05368C34.3671 7.06485 34.3513 7.10486 34.3438 7.1272C34.3243 7.16816 34.3047 7.20912 34.2842 7.24822C34.2544 7.30407 34.2228 7.3599 34.1883 7.41389C34.1893 7.41203 34.1157 7.52188 34.0971 7.55446C33.4744 8.3755 32.4532 8.78237 31.3845 8.72466C31.2616 8.71814 31.2197 8.7088 31.0661 8.66784C31.0084 8.65295 30.9517 8.63337 30.8949 8.61568C30.8846 8.61289 30.8642 8.60361 30.8446 8.59523C30.7459 8.54775 30.6501 8.49558 30.5579 8.43694C30.5216 8.41367 30.4862 8.38855 30.4518 8.36342C30.4397 8.34945 30.3438 8.26754 30.3261 8.25172C30.2488 8.17817 30.1772 8.09907 30.1092 8.01808C30.0906 7.99295 30.0534 7.94268 30.0422 7.92593C30.0087 7.87566 29.9779 7.82533 29.9472 7.7732C29.9165 7.72107 29.8886 7.66902 29.8616 7.61503C29.8569 7.60572 29.8383 7.56386 29.8234 7.53128C29.8095 7.48846 29.7676 7.36827 29.7713 7.38037C29.7499 7.30869 29.7313 7.2371 29.7145 7.16356C29.7126 7.15239 29.7033 7.10303 29.6959 7.06765C29.694 7.0239 29.6838 6.8992 29.6838 6.87686C29.6829 6.81542 29.6838 6.75396 29.6866 6.69346C29.6884 6.66367 29.6931 6.61239 29.6959 6.58539C29.7192 6.44762 29.7517 6.31079 29.7946 6.17767C29.8085 6.13578 29.8234 6.09389 29.8392 6.052C29.8476 6.04176 29.9137 5.89754 29.9156 5.89382C29.9873 5.75977 30.0673 5.62941 30.1576 5.50746C30.1669 5.49722 30.1716 5.4917 30.1855 5.47587C30.2479 5.40699 30.3084 5.33897 30.3745 5.27474C30.4183 5.23192 30.4648 5.19186 30.5104 5.14997C30.5281 5.13508 30.5458 5.12021 30.5626 5.10531C30.5681 5.10159 30.5663 5.10251 30.5756 5.096C30.7152 4.99918 30.8595 4.9154 31.0112 4.83907C31.0513 4.81859 31.0755 4.78048 31.1108 4.75441C31.3873 4.84471 31.6964 4.81207 31.9365 4.6501C32.0678 4.65568 32.199 4.65761 32.3303 4.66692C32.3955 4.67157 32.4597 4.6771 32.5239 4.68362C32.5444 4.68548 32.6142 4.69296 32.6477 4.69669C32.779 4.71531 32.9103 4.73951 33.0397 4.7693C33.1784 4.80095 33.3124 4.84379 33.4483 4.88475C33.4585 4.88754 33.5041 4.90424 33.5255 4.91168C33.5684 4.93123 33.6121 4.95175 33.6531 4.97316C33.9259 5.11558 33.9752 5.15006 34.1576 5.35951C34.1707 5.37534 34.1986 5.40968 34.206 5.42178C34.2377 5.47298 34.2694 5.52238 34.2991 5.57451C34.3196 5.61174 34.3382 5.64986 34.3568 5.68803C34.3624 5.70758 34.3904 5.78018 34.3978 5.80439C34.4332 5.91889 34.4611 6.03434 34.4806 6.15256C34.4806 6.16001 34.4797 6.15722 34.4797 6.17677C34.4835 6.26799 34.4881 6.35826 34.4862 6.44949C34.4834 6.51092 34.4797 6.57147 34.4751 6.63198Z" fill="black"/>
<path d="M31.768 5.87598C30.57 5.87598 30.5681 7.73775 31.768 7.73775C32.9661 7.73775 32.968 5.87598 31.768 5.87598Z" fill="black"/>
<path d="M19.1992 51.329C13.0972 51.5477 6.99061 51.4723 0.896096 51.1036C-0.301025 51.031 -0.29637 52.8928 0.896096 52.9654C6.99061 53.334 13.0972 53.4095 19.1992 53.1907C20.3935 53.1479 20.4 51.2861 19.1992 51.329Z" fill="black"/>
<path d="M63.1249 51.3764C49.8551 51.4183 36.5863 51.3476 23.3174 51.1642C22.1203 51.1474 22.0682 53.0083 23.269 53.025C36.5369 53.2084 49.8067 53.2792 63.0765 53.2373C64.2727 53.2336 64.3257 51.3727 63.1249 51.3764Z" fill="black"/>
</svg>
