<svg width="44" height="64" viewBox="0 0 44 64" fill="none" xmlns="http://www.w3.org/2000/svg">
<path d="M33.7919 14.7539C33.8289 13.9408 33.0749 13.2672 32.2919 13.2592C31.9739 13.2562 31.6549 13.2533 31.3359 13.2503C31.5919 11.5224 31.4239 9.41188 29.4589 8.88774C28.6389 8.66852 27.7299 8.73422 26.8879 8.71927C25.9429 8.70134 24.9979 8.68439 24.0529 8.66745C23.1079 8.65051 22.1629 8.63365 21.2179 8.6177C20.7639 8.60973 20.3109 8.60169 19.8569 8.59471C19.3979 8.58674 18.8779 8.51604 18.4269 8.6396C17.1859 8.98039 17.1599 10.1771 17.0759 11.2344C17.0259 11.8592 16.9759 12.4839 16.9269 13.1087C16.6699 13.1057 16.4119 13.1038 16.1549 13.1008C15.3529 13.0928 14.6429 13.7924 14.6549 14.5955C14.7579 21.4801 14.7589 28.3645 14.6509 35.2491C14.5979 38.6092 14.5199 41.9693 14.4169 45.3273C14.3159 48.5967 14.3959 51.9798 13.7749 55.2073C13.1269 56.0951 13.4969 57.6686 14.9089 57.6098C15.4269 57.5879 15.9459 57.5748 16.4639 57.5559C16.4359 57.4533 16.4199 57.3487 16.4329 57.2421C16.6419 55.5909 16.4829 53.9258 16.6069 52.2697C16.6579 51.5901 16.7589 50.8168 17.4459 50.4711C17.9609 50.212 18.4949 50.3076 19.0459 50.2797C20.4939 50.205 21.9389 50.1004 23.3889 50.1991C24.0699 50.2459 24.8529 50.3057 25.2329 50.9714C25.5379 51.5055 25.4739 52.19 25.4989 52.7829C25.5619 54.2816 25.8419 55.8559 25.4339 57.3267C25.4289 57.3467 25.4139 57.3596 25.4069 57.3795C27.1749 57.3735 28.9429 57.3775 30.7099 57.4054C31.5489 57.6525 32.7129 57.2012 32.8569 56.0533C33.2689 52.748 33.1209 49.4019 33.1149 46.0787C33.1089 42.5971 33.1309 39.1154 33.1789 35.6337C33.2739 28.6714 33.4819 21.7102 33.7919 14.7539Z" fill="#F7C300"/>
<path d="M35.7419 58.1078C34.0509 58.1905 32.3579 58.2392 30.6659 58.298C31.2849 42.8509 31.5529 27.3918 31.4619 11.9327C31.5229 11.8012 31.5629 11.6606 31.5559 11.5261C31.5439 11.268 31.4589 11.0011 31.2629 10.8217C31.0799 10.6543 30.8139 10.5007 30.5559 10.5296C29.8359 10.6103 29.1129 10.6453 28.3889 10.6582C28.4209 10.1022 28.4389 9.54516 28.4259 8.98714C28.4239 8.88749 28.3929 8.79179 28.3619 8.69812C28.2959 8.26167 27.9929 7.85812 27.4249 7.83619C26.6359 7.8063 25.8459 7.80431 25.0569 7.78936C25.0379 7.5263 25.0119 7.26326 25.0049 6.9992C24.9909 6.48502 25.0529 5.95395 24.9659 5.44575C24.9039 5.08503 24.6769 4.74815 24.3599 4.56181C24.0379 4.37148 23.6789 4.38152 23.3189 4.38251C23.0809 4.38351 22.8419 4.38346 22.6029 4.38446C22.5889 3.25447 22.5329 2.12446 22.4349 0.996462C22.3879 0.460366 22.0089 0 21.4349 0C20.9299 0 20.3879 0.457376 20.4349 0.996462C20.6309 3.24448 20.6579 5.50255 20.5259 7.75555C19.2209 7.7675 17.9159 7.77647 16.6109 7.8233C16.0439 7.84422 15.7409 8.24778 15.6739 8.68523C15.5839 8.83171 15.5169 8.99416 15.5179 9.18249C15.5189 9.72556 15.4799 10.2675 15.4529 10.8106C14.6319 10.8106 13.8109 10.8355 12.9939 10.9093C12.7229 10.9332 12.4849 11.004 12.2869 11.2013C12.1129 11.3737 11.9829 11.6576 11.9939 11.9057C11.9969 11.9825 12.0259 12.0583 12.0469 12.135C12.0449 12.1609 12.0309 12.1788 12.0309 12.2067C11.6669 27.6518 11.3019 43.097 10.9379 58.5422C9.74885 58.5292 8.56087 58.5173 7.37187 58.4924C6.08388 58.4645 6.08488 60.4574 7.37187 60.4853C16.8299 60.6886 26.2909 60.5601 35.7399 60.0997C37.0229 60.038 37.0299 58.045 35.7419 58.1078ZM22.5839 6.3685C22.7239 6.36551 22.8619 6.3695 23.0009 6.3685C22.9999 6.58972 23.0009 6.81085 23.0069 7.03107C23.0129 7.27122 23.0379 7.51139 23.0539 7.75153C22.8789 7.75054 22.7029 7.74156 22.5279 7.74156C22.5549 7.28319 22.5709 6.82588 22.5839 6.3685ZM19.4899 58.5561C18.9659 58.5631 18.4429 58.5681 17.9189 58.5651C17.9219 58.5293 17.9419 58.4964 17.9399 58.4605C17.9139 57.8597 17.8919 57.2587 17.8749 56.6569C17.8739 56.6011 17.8509 56.5493 17.8409 56.4945C17.8629 54.7108 17.8849 52.9272 17.9079 51.1425C18.9429 51.0987 19.9789 51.0558 21.0139 51.0468C21.6849 51.0408 22.3569 51.0428 23.0289 51.0518C23.3369 51.0558 23.6439 51.0617 23.9519 51.0687C24.0529 51.0707 24.1539 51.0737 24.2549 51.0767C24.2599 51.1534 24.2659 51.2301 24.2709 51.3069C24.2909 51.6297 24.3059 51.9536 24.3179 52.2764C24.3449 52.962 24.3569 53.6486 24.3549 54.3342C24.3519 55.4263 24.2999 56.5174 24.2239 57.6075C24.2489 57.6095 24.2729 57.6105 24.2979 57.6125C24.2979 57.9005 24.2999 58.1875 24.3259 58.4734C22.7149 58.5073 21.1049 58.5402 19.4939 58.5552C19.4919 58.5552 19.4909 58.5561 19.4899 58.5561ZM28.6629 58.3738C28.3699 58.3828 28.0769 58.3957 27.7839 58.4067C27.4259 58.5312 26.9809 58.4545 26.6229 58.4366C26.5239 58.4316 26.4239 58.4376 26.3239 58.4416C26.2869 58.026 26.2649 57.6095 26.2829 57.192C26.2849 57.1431 26.2609 57.0934 26.2529 57.0426C26.3169 55.9604 26.3589 54.8783 26.3479 53.7941C26.3399 53.0139 26.3129 52.2346 26.2679 51.4573C26.2229 50.6542 26.2939 49.597 25.6199 49.0938C25.0659 48.6802 24.2149 48.8157 23.5779 48.8038C22.8779 48.7908 22.1789 48.7868 21.4799 48.7898C20.0739 48.7968 18.6689 48.8407 17.2639 48.9124C17.1759 48.8765 17.0889 48.8366 16.9879 48.8307C16.4689 48.8008 15.9319 49.287 15.9239 49.8999C15.8929 52.3382 15.8619 54.7776 15.8319 57.2159C15.8529 57.2179 15.8729 57.2189 15.8939 57.2209C15.9079 57.6335 15.9209 58.0459 15.9389 58.4585C15.9409 58.4963 15.9569 58.5312 15.9619 58.5681C14.9539 58.5681 13.9459 58.5681 12.9389 58.5621C13.2979 43.3212 13.6579 28.0814 14.0179 12.8405C14.7359 12.8027 15.4559 12.7827 16.1749 12.8016C16.2509 12.8036 16.3219 12.7757 16.3959 12.7578C16.4029 12.7578 16.4099 12.7627 16.4169 12.7617C16.6759 12.7497 16.9439 12.6651 17.1239 12.4698C17.3119 12.2655 17.3939 12.0413 17.4169 11.7652C17.4709 11.1116 17.4839 10.4559 17.4959 9.80126C20.4699 9.71258 23.4449 9.71562 26.4189 9.80929C26.4089 10.4301 26.3799 11.0498 26.3149 11.6666C26.2899 11.9047 26.4449 12.2087 26.6079 12.3711C26.7809 12.5435 27.0659 12.674 27.3149 12.6631C27.3439 12.6621 27.3719 12.6491 27.3999 12.6461C27.4259 12.6491 27.4479 12.6621 27.4749 12.6621C28.1389 12.676 28.8009 12.6512 29.4629 12.6083C29.5419 27.8681 29.2759 43.1269 28.6629 58.3738Z" fill="black"/>
<path d="M42.1488 61.7517C28.4228 62.1104 14.6899 62.0924 0.964875 61.6978C-0.322125 61.6609 -0.321125 63.6538 0.964875 63.6907C14.6899 64.0853 28.4228 64.1033 42.1488 63.7446C43.4328 63.7107 43.4378 61.7178 42.1488 61.7517Z" fill="black"/>
<path d="M18.2299 14.2421C18.0699 13.9851 17.8068 13.7648 17.4998 13.713C17.3228 13.6831 17.1408 13.6632 16.9608 13.6572C16.6618 13.6462 16.3718 13.6841 16.0758 13.724C15.9578 13.7519 15.8589 13.8107 15.7689 13.8844C15.7449 13.8964 15.7169 13.8954 15.6939 13.9103C15.6269 13.9621 15.5589 14.014 15.4909 14.0658C15.3669 14.1903 15.2818 14.3367 15.2338 14.5051C15.1688 14.9535 15.1168 15.401 15.1068 15.8534C15.1018 16.0895 15.1468 16.3117 15.2548 16.524C15.3908 16.79 15.6658 16.9924 15.9548 17.0611C16.2058 17.1209 16.4878 17.112 16.7448 17.111C16.8388 17.111 16.9328 17.109 17.0278 17.106C17.0698 17.105 17.1129 17.103 17.1549 17.101C17.1759 17.1 17.1959 17.099 17.2169 17.098C17.3089 17.091 17.4329 17.082 17.5219 17.0571C17.9009 16.9495 18.1838 16.6755 18.2998 16.2998C18.3488 16.1423 18.3508 15.961 18.3618 15.7956C18.3738 15.6053 18.3818 15.4159 18.3848 15.2256C18.3898 14.8958 18.4109 14.5341 18.2299 14.2421Z" fill="black"/>
<path d="M20.0749 16.5261C20.2349 16.7832 20.4979 17.0034 20.8049 17.0553C20.9819 17.0852 21.1639 17.1051 21.3439 17.1111C21.6429 17.1221 21.9329 17.0842 22.2289 17.0443C22.3469 17.0164 22.4459 16.9576 22.5359 16.8839C22.5599 16.8719 22.5879 16.8729 22.6109 16.858C22.6779 16.8061 22.7459 16.7543 22.8139 16.7025C22.9379 16.5779 23.0229 16.4314 23.0709 16.263C23.1359 15.8146 23.1879 15.3672 23.1979 14.9148C23.2029 14.6786 23.1579 14.4564 23.0499 14.2442C22.9139 13.9781 22.6389 13.7759 22.3499 13.7072C22.0989 13.6474 21.8169 13.6563 21.5599 13.6573C21.4659 13.6573 21.3719 13.6593 21.2769 13.6623C21.2349 13.6633 21.1919 13.6653 21.1499 13.6673C21.1289 13.6683 21.1089 13.6693 21.0879 13.6703C20.9959 13.6773 20.8719 13.6861 20.7829 13.7111C20.4039 13.8187 20.1209 14.0927 20.0049 14.4684C19.9559 14.6258 19.9539 14.8072 19.9429 14.9726C19.9309 15.1629 19.9229 15.3522 19.9199 15.5426C19.9139 15.8724 19.8929 16.2342 20.0749 16.5261Z" fill="black"/>
<path d="M27.8489 14.2421C27.6889 13.9851 27.426 13.7648 27.119 13.713C26.942 13.6831 26.76 13.6632 26.58 13.6572C26.281 13.6462 25.991 13.6841 25.695 13.724C25.577 13.7519 25.4779 13.8107 25.3879 13.8844C25.3639 13.8964 25.3359 13.8954 25.3129 13.9103C25.2459 13.9621 25.1779 14.014 25.1099 14.0658C24.9859 14.1903 24.901 14.3367 24.853 14.5051C24.788 14.9535 24.736 15.401 24.726 15.8534C24.721 16.0895 24.766 16.3117 24.874 16.524C25.01 16.79 25.285 16.9924 25.574 17.0611C25.825 17.1209 26.107 17.112 26.364 17.111C26.458 17.111 26.552 17.109 26.647 17.106C26.689 17.105 26.7319 17.103 26.7739 17.101C26.7949 17.1 26.8149 17.099 26.8359 17.098C26.9279 17.091 27.0519 17.082 27.1409 17.0571C27.5199 16.9495 27.803 16.6755 27.919 16.2998C27.968 16.1423 27.97 15.961 27.981 15.7956C27.993 15.6053 28.001 15.4159 28.004 15.2256C28.009 14.8958 28.0299 14.5341 27.8489 14.2421Z" fill="black"/>
<path d="M18.2299 18.7918C18.0699 18.5348 17.8068 18.3145 17.4998 18.2627C17.3228 18.2328 17.1408 18.213 16.9608 18.207C16.6618 18.196 16.3718 18.2338 16.0758 18.2737C15.9578 18.3016 15.8589 18.3604 15.7689 18.4341C15.7449 18.4461 15.7169 18.4451 15.6939 18.46C15.6269 18.5118 15.5589 18.5636 15.4909 18.6155C15.3669 18.74 15.2818 18.8865 15.2338 19.0549C15.1688 19.5024 15.1168 19.9508 15.1068 20.4032C15.1018 20.6393 15.1468 20.8625 15.2548 21.0738C15.3908 21.3398 15.6658 21.5421 15.9548 21.6108C16.2058 21.6706 16.4878 21.6617 16.7448 21.6607C16.8388 21.6607 16.9328 21.6587 17.0278 21.6557C17.0698 21.6547 17.1129 21.6527 17.1549 21.6507C17.1759 21.6497 17.1959 21.6487 17.2169 21.6477C17.3089 21.6407 17.4329 21.6318 17.5219 21.6069C17.9009 21.4993 18.1838 21.2253 18.2998 20.8496C18.3488 20.6922 18.3508 20.5108 18.3618 20.3454C18.3738 20.1551 18.3818 19.9657 18.3848 19.7754C18.3898 19.4456 18.4109 19.0838 18.2299 18.7918Z" fill="black"/>
<path d="M20.0749 21.0749C20.2349 21.3319 20.4979 21.5522 20.8049 21.604C20.9819 21.6339 21.1639 21.6538 21.3439 21.6598C21.6429 21.6708 21.9329 21.6329 22.2289 21.593C22.3469 21.5651 22.4459 21.5063 22.5359 21.4326C22.5599 21.4206 22.5879 21.4216 22.6109 21.4067C22.6779 21.3549 22.7459 21.303 22.8139 21.2512C22.9379 21.1267 23.0229 20.9803 23.0709 20.8119C23.1359 20.3645 23.1879 19.916 23.1979 19.4636C23.2029 19.2275 23.1579 19.0043 23.0499 18.793C22.9139 18.527 22.6389 18.3246 22.3499 18.2559C22.0989 18.1961 21.8169 18.2051 21.5599 18.2061C21.4659 18.2061 21.3719 18.208 21.2769 18.211C21.2349 18.212 21.1919 18.214 21.1499 18.216C21.1289 18.217 21.1089 18.218 21.0879 18.219C20.9959 18.226 20.8719 18.235 20.7829 18.2599C20.4039 18.3675 20.1209 18.6416 20.0049 19.0172C19.9559 19.1747 19.9539 19.356 19.9429 19.5214C19.9309 19.7117 19.9229 19.9011 19.9199 20.0914C19.9139 20.4212 19.8929 20.7829 20.0749 21.0749Z" fill="black"/>
<path d="M27.8489 18.7918C27.6889 18.5348 27.426 18.3145 27.119 18.2627C26.942 18.2328 26.76 18.213 26.58 18.207C26.281 18.196 25.991 18.2338 25.695 18.2737C25.577 18.3016 25.4779 18.3604 25.3879 18.4341C25.3639 18.4461 25.3359 18.4451 25.3129 18.46C25.2459 18.5118 25.1779 18.5636 25.1099 18.6155C24.9859 18.74 24.901 18.8865 24.853 19.0549C24.788 19.5024 24.736 19.9508 24.726 20.4032C24.721 20.6393 24.766 20.8625 24.874 21.0738C25.01 21.3398 25.285 21.5421 25.574 21.6108C25.825 21.6706 26.107 21.6617 26.364 21.6607C26.458 21.6607 26.552 21.6587 26.647 21.6557C26.689 21.6547 26.7319 21.6527 26.7739 21.6507C26.7949 21.6497 26.8149 21.6487 26.8359 21.6477C26.9279 21.6407 27.0519 21.6318 27.1409 21.6069C27.5199 21.4993 27.803 21.2253 27.919 20.8496C27.968 20.6922 27.97 20.5108 27.981 20.3454C27.993 20.1551 28.001 19.9657 28.004 19.7754C28.009 19.4456 28.0299 19.0838 27.8489 18.7918Z" fill="black"/>
<path d="M18.2299 23.3408C18.0699 23.0837 17.8068 22.8635 17.4998 22.8117C17.3228 22.7818 17.1408 22.7618 16.9608 22.7558C16.6618 22.7449 16.3718 22.7827 16.0758 22.8226C15.9578 22.8505 15.8589 22.9093 15.7689 22.983C15.7449 22.995 15.7169 22.994 15.6939 23.009C15.6269 23.0608 15.5589 23.1126 15.4909 23.1644C15.3669 23.289 15.2818 23.4355 15.2338 23.6039C15.1688 24.0513 15.1168 24.4996 15.1068 24.952C15.1018 25.1882 15.1468 25.4115 15.2548 25.6227C15.3908 25.8888 15.6658 26.091 15.9548 26.1598C16.2058 26.2195 16.4878 26.2106 16.7448 26.2096C16.8388 26.2096 16.9328 26.2076 17.0278 26.2046C17.0698 26.2036 17.1129 26.2016 17.1549 26.1997C17.1759 26.1987 17.1959 26.1976 17.2169 26.1966C17.3089 26.1896 17.4329 26.1807 17.5219 26.1557C17.9009 26.0481 18.1838 25.7741 18.2998 25.3984C18.3488 25.241 18.3508 25.0596 18.3618 24.8942C18.3738 24.7039 18.3818 24.5146 18.3848 24.3242C18.3898 23.9944 18.4109 23.6317 18.2299 23.3408Z" fill="black"/>
<path d="M20.0749 25.6238C20.2349 25.8809 20.4979 26.1011 20.8049 26.1529C20.9819 26.1828 21.1639 26.2026 21.3439 26.2086C21.6429 26.2196 21.9329 26.1818 22.2289 26.142C22.3469 26.1141 22.4459 26.0553 22.5359 25.9815C22.5599 25.9696 22.5879 25.9706 22.6109 25.9556C22.6779 25.9038 22.7459 25.852 22.8139 25.8002C22.9379 25.6756 23.0229 25.5291 23.0709 25.3607C23.1359 24.9133 23.1879 24.4648 23.1979 24.0124C23.2029 23.7763 23.1579 23.5531 23.0499 23.3418C22.9139 23.0758 22.6389 22.8736 22.3499 22.8048C22.0989 22.745 21.8169 22.7539 21.5599 22.7549C21.4659 22.7549 21.3719 22.7569 21.2769 22.7599C21.2349 22.7609 21.1919 22.7629 21.1499 22.7649C21.1289 22.7659 21.1089 22.7668 21.0879 22.7678C20.9959 22.7748 20.8719 22.7838 20.7829 22.8087C20.4039 22.9163 20.1209 23.1904 20.0049 23.566C19.9559 23.7235 19.9539 23.9048 19.9429 24.0702C19.9309 24.2605 19.9229 24.4499 19.9199 24.6402C19.9139 24.97 19.8929 25.3328 20.0749 25.6238Z" fill="black"/>
<path d="M27.8489 23.3408C27.6889 23.0837 27.426 22.8635 27.119 22.8117C26.942 22.7818 26.76 22.7618 26.58 22.7558C26.281 22.7449 25.991 22.7827 25.695 22.8226C25.577 22.8505 25.4779 22.9093 25.3879 22.983C25.3639 22.995 25.3359 22.994 25.3129 23.009C25.2459 23.0608 25.1779 23.1126 25.1099 23.1644C24.9859 23.289 24.901 23.4355 24.853 23.6039C24.788 24.0513 24.736 24.4996 24.726 24.952C24.721 25.1882 24.766 25.4115 24.874 25.6227C25.01 25.8888 25.285 26.091 25.574 26.1598C25.825 26.2195 26.107 26.2106 26.364 26.2096C26.458 26.2096 26.552 26.2076 26.647 26.2046C26.689 26.2036 26.7319 26.2016 26.7739 26.1997C26.7949 26.1987 26.8149 26.1976 26.8359 26.1966C26.9279 26.1896 27.0519 26.1807 27.1409 26.1557C27.5199 26.0481 27.803 25.7741 27.919 25.3984C27.968 25.241 27.97 25.0596 27.981 24.8942C27.993 24.7039 28.001 24.5146 28.004 24.3242C28.009 23.9944 28.0299 23.6317 27.8489 23.3408Z" fill="black"/>
<path d="M18.2299 27.8905C18.0699 27.6334 17.8068 27.4132 17.4998 27.3613C17.3228 27.3314 17.1408 27.3116 16.9608 27.3056C16.6618 27.2947 16.3718 27.3325 16.0758 27.3724C15.9578 27.4003 15.8589 27.459 15.7689 27.5327C15.7449 27.5447 15.7169 27.5437 15.6939 27.5586C15.6269 27.6105 15.5589 27.6623 15.4909 27.7141C15.3669 27.8386 15.2818 27.9852 15.2338 28.1536C15.1688 28.602 15.1168 29.0494 15.1068 29.5018C15.1018 29.738 15.1468 29.9602 15.2548 30.1724C15.3908 30.4385 15.6658 30.6408 15.9548 30.7096C16.2058 30.7693 16.4878 30.7603 16.7448 30.7593C16.8388 30.7593 16.9328 30.7573 17.0278 30.7543C17.0698 30.7533 17.1129 30.7513 17.1549 30.7493C17.1759 30.7483 17.1959 30.7474 17.2169 30.7464C17.3089 30.7394 17.4329 30.7305 17.5219 30.7055C17.9009 30.5979 18.1838 30.3239 18.2998 29.9482C18.3488 29.7908 18.3508 29.6094 18.3618 29.444C18.3738 29.2537 18.3818 29.0644 18.3848 28.874C18.3898 28.5442 18.4109 28.1814 18.2299 27.8905Z" fill="black"/>
<path d="M20.0749 30.1736C20.2349 30.4307 20.4979 30.6509 20.8049 30.7027C20.9819 30.7326 21.1639 30.7526 21.3439 30.7586C21.6429 30.7695 21.9329 30.7316 22.2289 30.6918C22.3469 30.6639 22.4459 30.6051 22.5359 30.5313C22.5599 30.5194 22.5879 30.5204 22.6109 30.5054C22.6779 30.4536 22.7459 30.4018 22.8139 30.35C22.9379 30.2254 23.0229 30.079 23.0709 29.9106C23.1359 29.4622 23.1879 29.0148 23.1979 28.5624C23.2029 28.3262 23.1579 28.104 23.0499 27.8918C22.9139 27.6257 22.6389 27.4234 22.3499 27.3546C22.0989 27.2948 21.8169 27.3038 21.5599 27.3047C21.4659 27.3047 21.3719 27.3067 21.2769 27.3097C21.2349 27.3107 21.1919 27.3127 21.1499 27.3147C21.1289 27.3157 21.1089 27.3168 21.0879 27.3178C20.9959 27.3247 20.8719 27.3337 20.7829 27.3586C20.4039 27.4663 20.1209 27.7403 20.0049 28.116C19.9559 28.2734 19.9539 28.4547 19.9429 28.6201C19.9309 28.8105 19.9229 28.9998 19.9199 29.1901C19.9139 29.52 19.8929 29.8826 20.0749 30.1736Z" fill="black"/>
<path d="M27.8489 27.8905C27.6889 27.6334 27.426 27.4132 27.119 27.3613C26.942 27.3314 26.76 27.3116 26.58 27.3056C26.281 27.2947 25.991 27.3325 25.695 27.3724C25.577 27.4003 25.4779 27.459 25.3879 27.5327C25.3639 27.5447 25.3359 27.5437 25.3129 27.5586C25.2459 27.6105 25.1779 27.6623 25.1099 27.7141C24.9859 27.8386 24.901 27.9852 24.853 28.1536C24.788 28.602 24.736 29.0494 24.726 29.5018C24.721 29.738 24.766 29.9602 24.874 30.1724C25.01 30.4385 25.285 30.6408 25.574 30.7096C25.825 30.7693 26.107 30.7603 26.364 30.7593C26.458 30.7593 26.552 30.7573 26.647 30.7543C26.689 30.7533 26.7319 30.7513 26.7739 30.7493C26.7949 30.7483 26.8149 30.7474 26.8359 30.7464C26.9279 30.7394 27.0519 30.7305 27.1409 30.7055C27.5199 30.5979 27.803 30.3239 27.919 29.9482C27.968 29.7908 27.97 29.6094 27.981 29.444C27.993 29.2537 28.001 29.0644 28.004 28.874C28.009 28.5442 28.0299 28.1814 27.8489 27.8905Z" fill="black"/>
<path d="M18.2299 32.4384C18.0699 32.1814 17.8068 31.9611 17.4998 31.9093C17.3228 31.8794 17.1408 31.8595 16.9608 31.8535C16.6618 31.8425 16.3718 31.8804 16.0758 31.9203C15.9578 31.9482 15.8589 32.007 15.7689 32.0807C15.7449 32.0927 15.7169 32.0917 15.6939 32.1066C15.6269 32.1584 15.5589 32.2102 15.4909 32.2621C15.3669 32.3866 15.2818 32.5331 15.2338 32.7015C15.1688 33.15 15.1168 33.5973 15.1068 34.0497C15.1018 34.2858 15.1468 34.5081 15.2548 34.7204C15.3908 34.9864 15.6658 35.1887 15.9548 35.2574C16.2058 35.3172 16.4878 35.3083 16.7448 35.3073C16.8388 35.3073 16.9328 35.3053 17.0278 35.3023C17.0698 35.3013 17.1129 35.2993 17.1549 35.2973C17.1759 35.2963 17.1959 35.2953 17.2169 35.2943C17.3089 35.2873 17.4329 35.2783 17.5219 35.2534C17.9009 35.1458 18.1838 34.8717 18.2998 34.4961C18.3488 34.3386 18.3508 34.1573 18.3618 33.9919C18.3738 33.8016 18.3818 33.6122 18.3848 33.4219C18.3898 33.0921 18.4109 32.7304 18.2299 32.4384Z" fill="black"/>
<path d="M20.0749 34.7224C20.2349 34.9795 20.4979 35.1997 20.8049 35.2515C20.9819 35.2814 21.1639 35.3014 21.3439 35.3074C21.6429 35.3183 21.9329 35.2805 22.2289 35.2406C22.3469 35.2127 22.4459 35.1539 22.5359 35.0802C22.5599 35.0682 22.5879 35.0692 22.6109 35.0542C22.6779 35.0024 22.7459 34.9506 22.8139 34.8988C22.9379 34.7742 23.0229 34.6277 23.0709 34.4593C23.1359 34.0119 23.1879 33.5635 23.1979 33.1111C23.2029 32.8749 23.1579 32.6517 23.0499 32.4405C22.9139 32.1744 22.6389 31.9722 22.3499 31.9034C22.0989 31.8437 21.8169 31.8526 21.5599 31.8536C21.4659 31.8536 21.3719 31.8556 21.2769 31.8586C21.2349 31.8596 21.1919 31.8616 21.1499 31.8636C21.1289 31.8645 21.1089 31.8656 21.0879 31.8666C20.9959 31.8736 20.8719 31.8826 20.7829 31.9075C20.4039 32.0151 20.1209 32.289 20.0049 32.6647C19.9559 32.8221 19.9539 33.0036 19.9429 33.169C19.9309 33.3593 19.9229 33.5485 19.9199 33.7389C19.9139 34.0687 19.8929 34.4305 20.0749 34.7224Z" fill="black"/>
<path d="M27.8489 32.4384C27.6889 32.1814 27.426 31.9611 27.119 31.9093C26.942 31.8794 26.76 31.8595 26.58 31.8535C26.281 31.8425 25.991 31.8804 25.695 31.9203C25.577 31.9482 25.4779 32.007 25.3879 32.0807C25.3639 32.0927 25.3359 32.0917 25.3129 32.1066C25.2459 32.1584 25.1779 32.2102 25.1099 32.2621C24.9859 32.3866 24.901 32.5331 24.853 32.7015C24.788 33.15 24.736 33.5973 24.726 34.0497C24.721 34.2858 24.766 34.5081 24.874 34.7204C25.01 34.9864 25.285 35.1887 25.574 35.2574C25.825 35.3172 26.107 35.3083 26.364 35.3073C26.458 35.3073 26.552 35.3053 26.647 35.3023C26.689 35.3013 26.7319 35.2993 26.7739 35.2973C26.7949 35.2963 26.8149 35.2953 26.8359 35.2943C26.9279 35.2873 27.0519 35.2783 27.1409 35.2534C27.5199 35.1458 27.803 34.8717 27.919 34.4961C27.968 34.3386 27.97 34.1573 27.981 33.9919C27.993 33.8016 28.001 33.6122 28.004 33.4219C28.009 33.0921 28.0299 32.7304 27.8489 32.4384Z" fill="black"/>
<path d="M18.2299 36.9881C18.0699 36.731 17.8068 36.5108 17.4998 36.459C17.3228 36.4291 17.1408 36.4093 16.9608 36.4033C16.6618 36.3923 16.3718 36.4301 16.0758 36.4699C15.9578 36.4978 15.8589 36.5566 15.7689 36.6304C15.7449 36.6423 15.7169 36.6414 15.6939 36.6563C15.6269 36.7081 15.5589 36.7599 15.4909 36.8118C15.3669 36.9363 15.2818 37.0828 15.2338 37.2512C15.1688 37.6986 15.1168 38.1471 15.1068 38.5995C15.1018 38.8356 15.1468 39.0588 15.2548 39.2701C15.3908 39.5361 15.6658 39.7383 15.9548 39.8071C16.2058 39.8669 16.4878 39.858 16.7448 39.857C16.8388 39.857 16.9328 39.855 17.0278 39.852C17.0698 39.851 17.1129 39.849 17.1549 39.847C17.1759 39.846 17.1959 39.8451 17.2169 39.8441C17.3089 39.8371 17.4329 39.8281 17.5219 39.8032C17.9009 39.6956 18.1838 39.4216 18.2998 39.0459C18.3488 38.8884 18.3508 38.7071 18.3618 38.5417C18.3738 38.3514 18.3818 38.162 18.3848 37.9717C18.3898 37.6419 18.4109 37.2801 18.2299 36.9881Z" fill="black"/>
<path d="M20.0749 39.2721C20.2349 39.5292 20.4979 39.7494 20.8049 39.8013C20.9819 39.8311 21.1639 39.8511 21.3439 39.8571C21.6429 39.868 21.9329 39.8302 22.2289 39.7903C22.3469 39.7624 22.4459 39.7036 22.5359 39.6299C22.5599 39.6179 22.5879 39.6189 22.6109 39.604C22.6779 39.5521 22.7459 39.5003 22.8139 39.4485C22.9379 39.3239 23.0229 39.1775 23.0709 39.0091C23.1359 38.5617 23.1879 38.1133 23.1979 37.6609C23.2029 37.4247 23.1579 37.2016 23.0499 36.9903C22.9139 36.7243 22.6389 36.5219 22.3499 36.4532C22.0989 36.3934 21.8169 36.4024 21.5599 36.4034C21.4659 36.4034 21.3719 36.4054 21.2769 36.4084C21.2349 36.4094 21.1919 36.4114 21.1499 36.4134C21.1289 36.4144 21.1089 36.4153 21.0879 36.4163C20.9959 36.4233 20.8719 36.4323 20.7829 36.4572C20.4039 36.5648 20.1209 36.8388 20.0049 37.2145C19.9559 37.3719 19.9539 37.5533 19.9429 37.7187C19.9309 37.909 19.9229 38.0984 19.9199 38.2887C19.9139 38.6185 19.8929 38.9802 20.0749 39.2721Z" fill="black"/>
<path d="M27.8489 36.9881C27.6889 36.731 27.426 36.5108 27.119 36.459C26.942 36.4291 26.76 36.4093 26.58 36.4033C26.281 36.3923 25.991 36.4301 25.695 36.4699C25.577 36.4978 25.4779 36.5566 25.3879 36.6304C25.3639 36.6423 25.3359 36.6414 25.3129 36.6563C25.2459 36.7081 25.1779 36.7599 25.1099 36.8118C24.9859 36.9363 24.901 37.0828 24.853 37.2512C24.788 37.6986 24.736 38.1471 24.726 38.5995C24.721 38.8356 24.766 39.0588 24.874 39.2701C25.01 39.5361 25.285 39.7383 25.574 39.8071C25.825 39.8669 26.107 39.858 26.364 39.857C26.458 39.857 26.552 39.855 26.647 39.852C26.689 39.851 26.7319 39.849 26.7739 39.847C26.7949 39.846 26.8149 39.8451 26.8359 39.8441C26.9279 39.8371 27.0519 39.8281 27.1409 39.8032C27.5199 39.6956 27.803 39.4216 27.919 39.0459C27.968 38.8884 27.97 38.7071 27.981 38.5417C27.993 38.3514 28.001 38.162 28.004 37.9717C28.009 37.6419 28.0299 37.2801 27.8489 36.9881Z" fill="black"/>
<path d="M18.2299 41.5361C18.0699 41.279 17.8068 41.0588 17.4998 41.007C17.3228 40.9771 17.1408 40.9571 16.9608 40.9511C16.6618 40.9402 16.3718 40.9781 16.0758 41.0179C15.9578 41.0458 15.8589 41.1046 15.7689 41.1784C15.7449 41.1903 15.7169 41.1893 15.6939 41.2043C15.6269 41.2561 15.5589 41.3079 15.4909 41.3597C15.3669 41.4843 15.2818 41.6307 15.2338 41.7991C15.1688 42.2465 15.1168 42.6949 15.1068 43.1473C15.1018 43.3835 15.1468 43.6067 15.2548 43.8179C15.3908 44.084 15.6658 44.2863 15.9548 44.3551C16.2058 44.4149 16.4878 44.4059 16.7448 44.4049C16.8388 44.4049 16.9328 44.4029 17.0278 44.4C17.0698 44.399 17.1129 44.397 17.1549 44.395C17.1759 44.394 17.1959 44.3929 17.2169 44.3919C17.3089 44.3849 17.4329 44.376 17.5219 44.3511C17.9009 44.2434 18.1838 43.9694 18.2998 43.5937C18.3488 43.4363 18.3508 43.255 18.3618 43.0895C18.3738 42.8992 18.3818 42.7099 18.3848 42.5195C18.3898 42.1897 18.4109 41.8281 18.2299 41.5361Z" fill="black"/>
<path d="M20.0749 43.8201C20.2349 44.0772 20.4979 44.2974 20.8049 44.3492C20.9819 44.3791 21.1639 44.3991 21.3439 44.405C21.6429 44.416 21.9329 44.3781 22.2289 44.3383C22.3469 44.3104 22.4459 44.2516 22.5359 44.1778C22.5599 44.1659 22.5879 44.1669 22.6109 44.1519C22.6779 44.1001 22.7459 44.0483 22.8139 43.9965C22.9379 43.8719 23.0229 43.7254 23.0709 43.557C23.1359 43.1086 23.1879 42.6611 23.1979 42.2087C23.2029 41.9726 23.1579 41.7504 23.0499 41.5381C22.9139 41.2721 22.6389 41.0699 22.3499 41.0011C22.0989 40.9413 21.8169 40.9502 21.5599 40.9512C21.4659 40.9512 21.3719 40.9532 21.2769 40.9562C21.2349 40.9572 21.1919 40.9592 21.1499 40.9612C21.1289 40.9622 21.1089 40.9633 21.0879 40.9642C20.9959 40.9712 20.8719 40.9801 20.7829 41.005C20.4039 41.1126 20.1209 41.3867 20.0049 41.7623C19.9559 41.9198 19.9539 42.1012 19.9429 42.2666C19.9309 42.457 19.9229 42.6462 19.9199 42.8365C19.9139 43.1663 19.8929 43.5281 20.0749 43.8201Z" fill="black"/>
<path d="M27.8489 41.5361C27.6889 41.279 27.426 41.0588 27.119 41.007C26.942 40.9771 26.76 40.9571 26.58 40.9511C26.281 40.9402 25.991 40.9781 25.695 41.0179C25.577 41.0458 25.4779 41.1046 25.3879 41.1784C25.3639 41.1903 25.3359 41.1893 25.3129 41.2043C25.2459 41.2561 25.1779 41.3079 25.1099 41.3597C24.9859 41.4843 24.901 41.6307 24.853 41.7991C24.788 42.2465 24.736 42.6949 24.726 43.1473C24.721 43.3835 24.766 43.6067 24.874 43.8179C25.01 44.084 25.285 44.2863 25.574 44.3551C25.825 44.4149 26.107 44.4059 26.364 44.4049C26.458 44.4049 26.552 44.4029 26.647 44.4C26.689 44.399 26.7319 44.397 26.7739 44.395C26.7949 44.394 26.8149 44.3929 26.8359 44.3919C26.9279 44.3849 27.0519 44.376 27.1409 44.3511C27.5199 44.2434 27.803 43.9694 27.919 43.5937C27.968 43.4363 27.97 43.255 27.981 43.0895C27.993 42.8992 28.001 42.7099 28.004 42.5195C28.009 42.1897 28.0299 41.8281 27.8489 41.5361Z" fill="black"/>
</svg>
