<svg width="52" height="64" viewBox="0 0 52 64" fill="none" xmlns="http://www.w3.org/2000/svg">
<path d="M37.3074 33.2488C37.259 30.8421 37.3528 28.3386 37.0605 25.9497C36.8423 24.1691 35.1259 24.017 33.5379 23.9962C33.5556 22.8279 33.5734 21.6597 33.5922 20.4914C33.6159 18.9083 33.7156 17.5682 32.9256 16.1461C31.3287 13.2752 29.5639 10.4862 27.7625 7.73979C27.6105 7.50771 27.4238 7.34782 27.2223 7.23721C26.8095 6.83132 26.1943 6.67131 25.5573 7.09399C23.9021 8.19316 22.9235 9.80985 21.9655 11.5055C21.3789 12.5434 20.7933 13.5823 20.2066 14.6212C19.6625 15.5861 19.0354 16.5499 18.8349 17.656C18.436 19.8573 18.6226 22.2532 18.5673 24.4851C18.5594 24.7863 18.5525 25.0875 18.5456 25.3897C17.4365 25.3571 16.0312 25.208 15.2402 26.0128C14.4155 26.8533 14.6081 28.1934 14.6298 29.2679C14.6891 32.2336 14.8846 35.2031 15.0703 38.1639C15.256 41.1256 15.5394 44.0705 15.8613 47.0204C16.1853 49.99 16.1873 52.9597 16.2208 55.9431C16.2277 56.513 16.4993 56.9089 16.8736 57.138C17.1067 57.3573 17.4227 57.5044 17.8306 57.5143C22.719 57.6318 27.6075 57.6753 32.498 57.6368C33.4835 57.6289 34.8651 57.858 35.753 57.306C36.5213 56.828 36.7534 55.9974 36.8354 55.1481C37.0674 52.7335 37.1099 50.2774 37.1958 47.8539C37.3667 42.9872 37.4042 38.1165 37.3074 33.2488Z" fill="#F7C300"/>
<path d="M37.4081 58.5813C36.6121 58.5773 35.8162 58.5744 35.0212 58.5704C35.3579 52.1157 35.5693 45.655 35.6355 39.1913C35.668 35.9541 35.6671 32.7159 35.6305 29.4786C35.6196 28.4693 35.9505 26.7608 34.8632 26.1811C34.3911 25.9293 33.8746 26.0171 33.3611 26.0487C32.7527 26.0863 32.1444 26.1248 31.5351 26.1623C31.542 23.6608 31.5499 21.1583 31.5568 18.6568C31.8787 18.3842 32.0279 17.9379 31.7237 17.4777C29.6379 14.3125 27.7586 11.015 25.8605 7.73326C26.2871 7.11505 26.5083 6.35956 26.538 5.61394C26.5528 5.22879 26.5034 4.8269 26.4037 4.45459C26.295 4.04672 26.1182 3.60724 25.8081 3.30801C25.7074 3.21123 25.5988 3.13225 25.4852 3.06509C25.4882 2.37182 25.5158 1.67852 25.583 0.988207C25.6057 0.75119 25.4566 0.452913 25.2936 0.289964C25.1228 0.119115 24.8413 -0.0102261 24.5954 0.000637139C24.3396 0.012488 24.075 0.0964005 23.8962 0.289964C23.7096 0.493404 23.6335 0.713662 23.6078 0.988207C23.5377 1.70716 23.5091 2.42803 23.5091 3.15093C23.3866 3.22697 23.2691 3.31095 23.1634 3.41168C22.5403 4.00225 22.2776 4.90293 22.1867 5.73052C22.1028 6.4949 22.2529 7.26912 22.5571 7.97425C20.3449 10.8975 18.3964 14.0053 16.7907 17.3067C16.7116 17.4697 16.6869 17.6425 16.6869 17.8144C16.6869 17.8193 16.685 17.8222 16.685 17.8262C16.5043 20.5282 16.4569 23.2312 16.4796 25.9342C15.6846 25.8582 14.8896 25.9243 14.217 26.4319C13.2778 27.1419 13.1297 28.3191 13.186 29.4193C13.3559 32.7276 13.7124 36.0291 13.9168 39.3355C14.3109 45.7122 14.4244 52.1147 13.7272 58.4736L5.97576 58.4381C4.70377 58.4321 4.70278 60.4073 5.97576 60.4132C16.4529 60.4606 26.93 60.509 37.4072 60.5564C38.6791 60.5624 38.6811 58.5872 37.4081 58.5813ZM24.1579 5.78573C24.1579 5.77981 24.1599 5.7749 24.1609 5.76897C24.1747 5.69491 24.1895 5.6218 24.2073 5.54872C24.2399 5.41639 24.2873 5.29098 24.3288 5.16259V5.16163C24.3584 5.09941 24.391 5.03716 24.4265 4.97791C24.4404 4.9542 24.4572 4.92761 24.4749 4.90292C24.4828 4.9286 24.4917 4.95331 24.4976 4.97899C24.5164 5.04713 24.5312 5.11528 24.545 5.18441C24.545 5.18836 24.546 5.19228 24.547 5.19623C24.5549 5.31474 24.5658 5.43321 24.5628 5.5527C24.5618 5.62282 24.5579 5.69391 24.552 5.76403C24.552 5.76897 24.552 5.76994 24.551 5.77488C24.5233 5.91215 24.4937 6.04744 24.4502 6.18175C24.4463 6.19459 24.4414 6.20749 24.4364 6.22032C24.4177 6.22032 24.3989 6.21642 24.3801 6.2184C24.3732 6.2184 24.3673 6.2184 24.3604 6.2184C24.3031 6.22432 24.2488 6.23022 24.1935 6.24504C24.1767 6.24701 24.1619 6.25483 24.1461 6.25878C24.1431 6.22125 24.1382 6.18285 24.1382 6.14631C24.1392 6.02582 24.15 5.90621 24.1579 5.78573ZM24.2794 8.94398C25.9375 11.8129 27.5947 14.6857 29.3832 17.4756C27.3527 17.3709 25.3223 17.2653 23.2918 17.1606C22.1818 17.1033 21.0708 17.0461 19.9607 16.9888C19.7287 16.977 19.4699 16.9532 19.2092 16.9364C20.6679 14.1327 22.3606 11.4554 24.2794 8.94398ZM16.5813 58.4864L15.7043 58.4826C16.2781 53.2573 16.3097 47.9964 16.0757 42.7475C15.9562 40.0643 15.7725 37.384 15.57 34.7067C15.4663 33.3281 15.3567 31.9485 15.2481 30.5698C15.2026 29.9862 15.0288 29.2297 15.1631 28.6539C15.3448 27.8708 15.8712 27.8214 16.5052 27.9123C16.7116 38.1109 17.7585 48.3164 16.5813 58.4864ZM29.4681 58.5448C25.8309 58.528 22.1936 58.5121 18.5564 58.4953C20.0793 45.3508 17.8938 32.148 18.6009 18.9758C18.6374 18.958 18.6651 18.9244 18.6986 18.9016C18.7233 18.9016 18.7401 18.9016 18.7717 18.9016C18.8507 18.9056 18.9307 18.9096 19.0097 18.9145L19.8422 18.9579C20.3182 18.9826 20.7933 19.0074 21.2693 19.0321C22.2608 19.0834 23.2523 19.1348 24.2438 19.1862C26.0224 19.278 27.801 19.3698 29.5797 19.4616C29.5421 32.4886 29.5046 45.5167 29.4681 58.5448ZM33.604 43.0764C33.5072 48.2404 33.3166 53.4025 33.048 58.5615C32.5128 58.5595 31.9785 58.5566 31.4432 58.5546C31.4719 48.4163 31.5015 38.2768 31.5301 28.1384C31.9143 28.1147 32.2975 28.091 32.6816 28.0663C32.9601 28.0495 33.3324 27.9794 33.6751 27.9695C33.6781 28.3083 33.6475 28.7645 33.6504 28.9936C33.6583 29.6415 33.6652 30.2884 33.6702 30.9362C33.681 32.3119 33.686 33.6876 33.684 35.0643C33.6801 37.7347 33.6544 40.405 33.604 43.0764Z" fill="black"/>
<path d="M44.8781 58.5248C43.5054 58.4498 42.1317 58.4093 40.758 58.4033C40.2415 58.4014 39.7467 58.8596 39.7704 59.3909C39.7941 59.9281 40.204 60.3755 40.758 60.3785C42.1327 60.3844 43.5064 60.4249 44.8781 60.5C45.3946 60.5276 45.8884 60.0259 45.8657 59.5124C45.84 58.9525 45.4312 58.5545 44.8781 58.5248Z" fill="black"/>
<path d="M21.4036 20.7713C21.3147 20.6755 21.208 20.6074 21.0856 20.5669C20.968 20.5047 20.8406 20.4771 20.7053 20.482C20.4506 20.4939 20.1849 20.5778 20.0071 20.7713C19.8294 20.9649 19.7178 21.2019 19.7178 21.4696V22.8699C19.7178 23.1227 19.8284 23.3894 20.0071 23.5682C20.097 23.6649 20.2027 23.732 20.3251 23.7725C20.4426 23.8347 20.57 23.8624 20.7053 23.8575C20.9611 23.8456 21.2258 23.7617 21.4036 23.5682C21.5813 23.3746 21.6929 23.1376 21.6929 22.8699V21.4696C21.6929 21.2158 21.5823 20.9501 21.4036 20.7713Z" fill="black"/>
<path d="M24.7692 20.7713C24.6804 20.6755 24.5737 20.6074 24.4513 20.5669C24.3337 20.5047 24.2064 20.4771 24.0711 20.482C23.8163 20.4939 23.5506 20.5778 23.3729 20.7713C23.1951 20.9649 23.0835 21.2019 23.0835 21.4696V22.8699C23.0835 23.1227 23.1941 23.3894 23.3729 23.5682C23.4627 23.6649 23.5684 23.732 23.6908 23.7725C23.8084 23.8347 23.9358 23.8624 24.0711 23.8575C24.3268 23.8456 24.5915 23.7617 24.7692 23.5682C24.947 23.3746 25.0586 23.1376 25.0586 22.8699V21.4696C25.0586 21.2158 24.948 20.9501 24.7692 20.7713Z" fill="black"/>
<path d="M28.1349 20.7713C28.046 20.6755 27.9393 20.6074 27.8169 20.5669C27.6994 20.5047 27.572 20.4771 27.4367 20.482C27.1819 20.4939 26.9162 20.5778 26.7385 20.7713C26.5607 20.9649 26.4491 21.2019 26.4491 21.4696V22.8699C26.4491 23.1227 26.5597 23.3894 26.7385 23.5682C26.8283 23.6649 26.934 23.732 27.0564 23.7725C27.174 23.8347 27.3014 23.8624 27.4367 23.8575C27.6924 23.8456 27.9571 23.7617 28.1349 23.5682C28.3126 23.3746 28.4242 23.1376 28.4242 22.8699V21.4696C28.4242 21.2158 28.3146 20.9501 28.1349 20.7713Z" fill="black"/>
<path d="M21.4036 25.4071C21.3147 25.3103 21.208 25.2422 21.0856 25.2027C20.968 25.1405 20.8406 25.1128 20.7053 25.1177C20.4506 25.1286 20.1849 25.2125 20.0071 25.4071C19.8294 25.6006 19.7178 25.8377 19.7178 26.1053V27.5057C19.7178 27.7585 19.8284 28.0252 20.0071 28.2039C20.097 28.3007 20.2027 28.3689 20.3251 28.4084C20.4426 28.4706 20.57 28.4982 20.7053 28.4932C20.9611 28.4814 21.2258 28.3975 21.4036 28.2039C21.5813 28.0103 21.6929 27.7733 21.6929 27.5057V26.1053C21.6929 25.8525 21.5823 25.5868 21.4036 25.4071Z" fill="black"/>
<path d="M24.7692 25.4071C24.6804 25.3103 24.5737 25.2422 24.4513 25.2027C24.3337 25.1405 24.2064 25.1128 24.0711 25.1177C23.8163 25.1286 23.5506 25.2125 23.3729 25.4071C23.1951 25.6006 23.0835 25.8377 23.0835 26.1053V27.5057C23.0835 27.7585 23.1941 28.0252 23.3729 28.2039C23.4627 28.3007 23.5684 28.3689 23.6908 28.4084C23.8084 28.4706 23.9358 28.4982 24.0711 28.4932C24.3268 28.4814 24.5915 28.3975 24.7692 28.2039C24.947 28.0103 25.0586 27.7733 25.0586 27.5057V26.1053C25.0586 25.8525 24.948 25.5868 24.7692 25.4071Z" fill="black"/>
<path d="M28.1349 25.4071C28.046 25.3103 27.9393 25.2422 27.8169 25.2027C27.6994 25.1405 27.572 25.1128 27.4367 25.1177C27.1819 25.1286 26.9162 25.2125 26.7385 25.4071C26.5607 25.6006 26.4491 25.8377 26.4491 26.1053V27.5057C26.4491 27.7585 26.5597 28.0252 26.7385 28.2039C26.8283 28.3007 26.934 28.3689 27.0564 28.4084C27.174 28.4706 27.3014 28.4982 27.4367 28.4932C27.6924 28.4814 27.9571 28.3975 28.1349 28.2039C28.3126 28.0103 28.4242 27.7733 28.4242 27.5057V26.1053C28.4242 25.8525 28.3146 25.5868 28.1349 25.4071Z" fill="black"/>
<path d="M21.4036 30.0448C21.3147 29.948 21.208 29.8798 21.0856 29.8403C20.968 29.7781 20.8406 29.7505 20.7053 29.7554C20.4506 29.7663 20.1849 29.8502 20.0071 30.0448C19.8294 30.2383 19.7178 30.4754 19.7178 30.743V32.1434C19.7178 32.3962 19.8284 32.6628 20.0071 32.8416C20.097 32.9384 20.2027 33.0064 20.3251 33.0459C20.4426 33.1082 20.57 33.1359 20.7053 33.1309C20.9611 33.1191 21.2258 33.0352 21.4036 32.8416C21.5813 32.648 21.6929 32.411 21.6929 32.1434V30.743C21.6929 30.4902 21.5823 30.2235 21.4036 30.0448Z" fill="black"/>
<path d="M24.7692 30.0448C24.6804 29.948 24.5737 29.8798 24.4513 29.8403C24.3337 29.7781 24.2064 29.7505 24.0711 29.7554C23.8163 29.7663 23.5506 29.8502 23.3729 30.0448C23.1951 30.2383 23.0835 30.4754 23.0835 30.743V32.1434C23.0835 32.3962 23.1941 32.6628 23.3729 32.8416C23.4627 32.9384 23.5684 33.0064 23.6908 33.0459C23.8084 33.1082 23.9358 33.1359 24.0711 33.1309C24.3268 33.1191 24.5915 33.0352 24.7692 32.8416C24.947 32.648 25.0586 32.411 25.0586 32.1434V30.743C25.0586 30.4902 24.948 30.2235 24.7692 30.0448Z" fill="black"/>
<path d="M28.1349 30.0448C28.046 29.948 27.9393 29.8798 27.8169 29.8403C27.6994 29.7781 27.572 29.7505 27.4367 29.7554C27.1819 29.7663 26.9162 29.8502 26.7385 30.0448C26.5607 30.2383 26.4491 30.4754 26.4491 30.743V32.1434C26.4491 32.3962 26.5597 32.6628 26.7385 32.8416C26.8283 32.9384 26.934 33.0064 27.0564 33.0459C27.174 33.1082 27.3014 33.1359 27.4367 33.1309C27.6924 33.1191 27.9571 33.0352 28.1349 32.8416C28.3126 32.648 28.4242 32.411 28.4242 32.1434V30.743C28.4242 30.4902 28.3146 30.2235 28.1349 30.0448Z" fill="black"/>
<path d="M21.4036 34.6836C21.3147 34.5878 21.208 34.5196 21.0856 34.4791C20.968 34.4169 20.8406 34.3892 20.7053 34.3941C20.4506 34.406 20.1849 34.49 20.0071 34.6836C19.8294 34.8771 19.7178 35.1141 19.7178 35.3817V36.7821C19.7178 37.035 19.8284 37.3015 20.0071 37.4803C20.097 37.5771 20.2027 37.6442 20.3251 37.6847C20.4426 37.7469 20.57 37.7747 20.7053 37.7697C20.9611 37.7579 21.2258 37.6738 21.4036 37.4803C21.5813 37.2867 21.6929 37.0498 21.6929 36.7821V35.3817C21.6929 35.1279 21.5823 34.8623 21.4036 34.6836Z" fill="black"/>
<path d="M24.7692 34.6836C24.6804 34.5878 24.5737 34.5196 24.4513 34.4791C24.3337 34.4169 24.2064 34.3892 24.0711 34.3941C23.8163 34.406 23.5506 34.49 23.3729 34.6836C23.1951 34.8771 23.0835 35.1141 23.0835 35.3817V36.7821C23.0835 37.035 23.1941 37.3015 23.3729 37.4803C23.4627 37.5771 23.5684 37.6442 23.6908 37.6847C23.8084 37.7469 23.9358 37.7747 24.0711 37.7697C24.3268 37.7579 24.5915 37.6738 24.7692 37.4803C24.947 37.2867 25.0586 37.0498 25.0586 36.7821V35.3817C25.0586 35.1279 24.948 34.8623 24.7692 34.6836Z" fill="black"/>
<path d="M28.1349 34.6836C28.046 34.5878 27.9393 34.5196 27.8169 34.4791C27.6994 34.4169 27.572 34.3892 27.4367 34.3941C27.1819 34.406 26.9162 34.49 26.7385 34.6836C26.5607 34.8771 26.4491 35.1141 26.4491 35.3817V36.7821C26.4491 37.035 26.5597 37.3015 26.7385 37.4803C26.8283 37.5771 26.934 37.6442 27.0564 37.6847C27.174 37.7469 27.3014 37.7747 27.4367 37.7697C27.6924 37.7579 27.9571 37.6738 28.1349 37.4803C28.3126 37.2867 28.4242 37.0498 28.4242 36.7821V35.3817C28.4242 35.1279 28.3146 34.8623 28.1349 34.6836Z" fill="black"/>
<path d="M21.4036 39.3192C21.3147 39.2234 21.208 39.1552 21.0856 39.1147C20.968 39.0525 20.8406 39.0249 20.7053 39.0299C20.4506 39.0417 20.1849 39.1256 20.0071 39.3192C19.8294 39.5127 19.7178 39.7498 19.7178 40.0174V41.4178C19.7178 41.6706 19.8284 41.9373 20.0071 42.116C20.097 42.2128 20.2027 42.28 20.3251 42.3205C20.4426 42.3827 20.57 42.4103 20.7053 42.4053C20.9611 42.3935 21.2258 42.3096 21.4036 42.116C21.5813 41.9224 21.6929 41.6854 21.6929 41.4178V40.0174C21.6929 39.7646 21.5823 39.4989 21.4036 39.3192Z" fill="black"/>
<path d="M24.7692 39.3192C24.6804 39.2234 24.5737 39.1552 24.4513 39.1147C24.3337 39.0525 24.2064 39.0249 24.0711 39.0299C23.8163 39.0417 23.5506 39.1256 23.3729 39.3192C23.1951 39.5127 23.0835 39.7498 23.0835 40.0174V41.4178C23.0835 41.6706 23.1941 41.9373 23.3729 42.116C23.4627 42.2128 23.5684 42.28 23.6908 42.3205C23.8084 42.3827 23.9358 42.4103 24.0711 42.4053C24.3268 42.3935 24.5915 42.3096 24.7692 42.116C24.947 41.9224 25.0586 41.6854 25.0586 41.4178V40.0174C25.0586 39.7646 24.948 39.4989 24.7692 39.3192Z" fill="black"/>
<path d="M28.1349 39.3192C28.046 39.2234 27.9393 39.1552 27.8169 39.1147C27.6994 39.0525 27.572 39.0249 27.4367 39.0299C27.1819 39.0417 26.9162 39.1256 26.7385 39.3192C26.5607 39.5127 26.4491 39.7498 26.4491 40.0174V41.4178C26.4491 41.6706 26.5597 41.9373 26.7385 42.116C26.8283 42.2128 26.934 42.28 27.0564 42.3205C27.174 42.3827 27.3014 42.4103 27.4367 42.4053C27.6924 42.3935 27.9571 42.3096 28.1349 42.116C28.3126 41.9224 28.4242 41.6854 28.4242 41.4178V40.0174C28.4242 39.7646 28.3146 39.4989 28.1349 39.3192Z" fill="black"/>
<path d="M21.4036 43.957C21.3147 43.8612 21.208 43.793 21.0856 43.7525C20.968 43.6903 20.8406 43.6626 20.7053 43.6676C20.4506 43.6794 20.1849 43.7634 20.0071 43.957C19.8294 44.1506 19.7178 44.3875 19.7178 44.6551V46.0556C19.7178 46.3084 19.8284 46.575 20.0071 46.7537C20.097 46.8505 20.2027 46.9177 20.3251 46.9582C20.4426 47.0204 20.57 47.0481 20.7053 47.0432C20.9611 47.0313 21.2258 46.9473 21.4036 46.7537C21.5813 46.5601 21.6929 46.3232 21.6929 46.0556V44.6551C21.6929 44.4023 21.5823 44.1357 21.4036 43.957Z" fill="black"/>
<path d="M24.7692 43.957C24.6804 43.8612 24.5737 43.793 24.4513 43.7525C24.3337 43.6903 24.2064 43.6626 24.0711 43.6676C23.8163 43.6794 23.5506 43.7634 23.3729 43.957C23.1951 44.1506 23.0835 44.3875 23.0835 44.6551V46.0556C23.0835 46.3084 23.1941 46.575 23.3729 46.7537C23.4627 46.8505 23.5684 46.9177 23.6908 46.9582C23.8084 47.0204 23.9358 47.0481 24.0711 47.0432C24.3268 47.0313 24.5915 46.9473 24.7692 46.7537C24.947 46.5601 25.0586 46.3232 25.0586 46.0556V44.6551C25.0586 44.4023 24.948 44.1357 24.7692 43.957Z" fill="black"/>
<path d="M28.1349 43.957C28.046 43.8612 27.9393 43.793 27.8169 43.7525C27.6994 43.6903 27.572 43.6626 27.4367 43.6676C27.1819 43.6794 26.9162 43.7634 26.7385 43.957C26.5607 44.1506 26.4491 44.3875 26.4491 44.6551V46.0556C26.4491 46.3084 26.5597 46.575 26.7385 46.7537C26.8283 46.8505 26.934 46.9177 27.0564 46.9582C27.174 47.0204 27.3014 47.0481 27.4367 47.0432C27.6924 47.0313 27.9571 46.9473 28.1349 46.7537C28.3126 46.5601 28.4242 46.3232 28.4242 46.0556V44.6551C28.4242 44.4023 28.3146 44.1357 28.1349 43.957Z" fill="black"/>
<path d="M21.4036 48.5946C21.3147 48.4978 21.208 48.4297 21.0856 48.3902C20.968 48.328 20.8406 48.3003 20.7053 48.3052C20.4506 48.3161 20.1849 48.4 20.0071 48.5946C19.8294 48.7881 19.7178 49.0252 19.7178 49.2928V50.6932C19.7178 50.946 19.8284 51.2127 20.0071 51.3914C20.097 51.4882 20.2027 51.5564 20.3251 51.5959C20.4426 51.6581 20.57 51.6857 20.7053 51.6807C20.9611 51.6689 21.2258 51.585 21.4036 51.3914C21.5813 51.1978 21.6929 50.9608 21.6929 50.6932V49.2928C21.6929 49.039 21.5823 48.7733 21.4036 48.5946Z" fill="black"/>
<path d="M24.7692 48.5946C24.6804 48.4978 24.5737 48.4297 24.4513 48.3902C24.3337 48.328 24.2064 48.3003 24.0711 48.3052C23.8163 48.3161 23.5506 48.4 23.3729 48.5946C23.1951 48.7881 23.0835 49.0252 23.0835 49.2928V50.6932C23.0835 50.946 23.1941 51.2127 23.3729 51.3914C23.4627 51.4882 23.5684 51.5564 23.6908 51.5959C23.8084 51.6581 23.9358 51.6857 24.0711 51.6807C24.3268 51.6689 24.5915 51.585 24.7692 51.3914C24.947 51.1978 25.0586 50.9608 25.0586 50.6932V49.2928C25.0586 49.039 24.948 48.7733 24.7692 48.5946Z" fill="black"/>
<path d="M28.1349 48.5946C28.046 48.4978 27.9393 48.4297 27.8169 48.3902C27.6994 48.328 27.572 48.3003 27.4367 48.3052C27.1819 48.3161 26.9162 48.4 26.7385 48.5946C26.5607 48.7881 26.4491 49.0252 26.4491 49.2928V50.6932C26.4491 50.946 26.5597 51.2127 26.7385 51.3914C26.8283 51.4882 26.934 51.5564 27.0564 51.5959C27.174 51.6581 27.3014 51.6857 27.4367 51.6807C27.6924 51.6689 27.9571 51.585 28.1349 51.3914C28.3126 51.1978 28.4242 50.9608 28.4242 50.6932V49.2928C28.4242 49.039 28.3146 48.7733 28.1349 48.5946Z" fill="black"/>
<path d="M21.4036 53.2324C21.3147 53.1356 21.208 53.0674 21.0856 53.0279C20.968 52.9657 20.8406 52.938 20.7053 52.9429C20.4506 52.9538 20.1849 53.0378 20.0071 53.2324C19.8294 53.426 19.7178 53.6629 19.7178 53.9305V55.331C19.7178 55.5838 19.8284 55.8503 20.0071 56.0291C20.097 56.1259 20.2027 56.1941 20.3251 56.2336C20.4426 56.2958 20.57 56.3235 20.7053 56.3185C20.9611 56.3067 21.2258 56.2227 21.4036 56.0291C21.5813 55.8355 21.6929 55.5986 21.6929 55.331V53.9305C21.6929 53.6777 21.5823 53.4121 21.4036 53.2324Z" fill="black"/>
<path d="M24.7692 53.2324C24.6804 53.1356 24.5737 53.0674 24.4513 53.0279C24.3337 52.9657 24.2064 52.938 24.0711 52.9429C23.8163 52.9538 23.5506 53.0378 23.3729 53.2324C23.1951 53.426 23.0835 53.6629 23.0835 53.9305V55.331C23.0835 55.5838 23.1941 55.8503 23.3729 56.0291C23.4627 56.1259 23.5684 56.1941 23.6908 56.2336C23.8084 56.2958 23.9358 56.3235 24.0711 56.3185C24.3268 56.3067 24.5915 56.2227 24.7692 56.0291C24.947 55.8355 25.0586 55.5986 25.0586 55.331V53.9305C25.0586 53.6777 24.948 53.4121 24.7692 53.2324Z" fill="black"/>
<path d="M28.1349 53.2324C28.046 53.1356 27.9393 53.0674 27.8169 53.0279C27.6994 52.9657 27.572 52.938 27.4367 52.9429C27.1819 52.9538 26.9162 53.0378 26.7385 53.2324C26.5607 53.426 26.4491 53.6629 26.4491 53.9305V55.331C26.4491 55.5838 26.5597 55.8503 26.7385 56.0291C26.8283 56.1259 26.934 56.1941 27.0564 56.2336C27.174 56.2958 27.3014 56.3235 27.4367 56.3185C27.6924 56.3067 27.9571 56.2227 28.1349 56.0291C28.3126 55.8355 28.4242 55.5986 28.4242 55.331V53.9305C28.4242 53.6777 28.3146 53.4121 28.1349 53.2324Z" fill="black"/>
<path d="M50.9329 62.0247C34.2736 61.9556 17.6133 61.8865 0.953992 61.8164C-0.31701 61.8115 -0.318985 63.7866 0.953992 63.7916C17.6133 63.8607 34.2736 63.9307 50.9329 63.9999C52.2039 64.0048 52.2059 62.0297 50.9329 62.0247Z" fill="black"/>
</svg>
