<svg width="155" height="14" viewBox="0 0 155 14" fill="none" xmlns="http://www.w3.org/2000/svg">
<path d="M154.397 9.35537C152.622 7.53615 150.726 5.86581 148.95 4.04659C147.178 2.37195 145.922 1.54755 143.869 3.21117C142.177 4.5727 140.127 6.38089 138.821 8.30781C138.698 8.31212 138.694 8.16754 138.571 8.17185C138.309 7.60215 137.681 7.18995 137.299 6.76913C136.41 5.78723 135.643 4.80102 134.757 3.9637C133.359 2.42072 131.845 1.1712 129.899 2.25218C127.949 3.18859 126.778 5.54494 125.217 7.19132C125.098 7.34021 124.979 7.4891 124.859 7.63799C125.221 7.3359 125.09 7.05105 124.597 7.06828C124.216 6.64747 123.596 6.52443 123.095 6.2525C122.216 5.70434 121.338 5.15618 120.46 4.60802C118.453 3.37573 116.561 1.84998 114.67 0.324222C114.038 -0.232556 112.936 0.0953758 112.458 0.690927C111.63 2.0223 110.797 3.20909 109.969 4.54047C109.495 5.2806 109.021 6.02073 108.547 6.76086C108.427 6.90974 108.308 7.05863 108.192 7.3521C108.073 7.50099 108.073 7.50099 108.073 7.50099C106.948 6.96144 105.931 5.83927 104.922 5.00626C103.789 4.17755 102.653 3.20427 101.397 2.37987C99.2549 0.718152 97.136 -0.0760888 94.8473 2.02988C93.1634 3.68057 91.6029 5.32695 89.9191 6.97764C88.5322 5.86839 87.1492 4.90372 85.6391 3.79878C84.2561 2.83411 82.8616 1.4357 81.1471 1.92976C79.5559 2.4195 78.1225 4.20615 76.797 5.41018C76.0726 6.01435 75.3483 6.61851 74.7472 7.21837C74.0228 7.82254 73.5296 7.83977 72.6551 7.43619C69.7812 6.08948 67.4891 3.42001 64.2722 3.09828C60.9319 2.78086 58.6585 5.46515 56.1232 7.57973C55.2794 8.33279 55.3988 8.1839 54.5167 7.49116C53.7616 6.93869 53.1298 6.38191 52.3748 5.82944C50.8646 4.7245 49.3545 3.61956 47.617 3.24613C45.8833 3.01729 44.4269 3.93646 42.8472 4.85994C41.9957 5.32384 41.1442 5.78773 40.2927 6.25163C39.4412 6.71552 38.1119 7.77497 37.0061 7.95832C35.5267 8.01002 33.6352 6.48426 32.3755 5.51529C30.9886 4.40604 29.833 2.70986 28.0955 2.33643C26.4813 1.9587 24.8977 2.7376 23.6955 3.93732C22.3701 5.14134 21.1871 7.06396 19.4457 6.54595C17.7082 6.17253 16.3099 4.62954 14.8036 3.66918C13.1702 2.56855 11.4211 1.76138 9.44088 1.54115C5.85022 1.08777 2.19382 2.80739 0.32096 6.63539C-0.846699 9.13632 2.41629 11.193 3.58395 8.69207C5.22174 5.30643 8.79705 5.18149 11.5515 6.67709C14.306 8.17269 16.6019 10.9867 19.8112 11.0193C21.2945 11.1122 22.6315 10.3419 23.8413 9.43134C24.8046 8.5294 26.4692 6.15581 27.7251 6.98021C28.9771 7.66003 30.1289 9.21163 31.3886 10.1806C32.7716 11.1453 34.4012 12.1013 35.8883 12.3388C37.4987 12.5719 38.8357 11.8017 40.296 11.0271C42.1222 10.095 43.937 8.72913 45.7671 7.94161C47.3545 7.30729 48.8762 8.84596 50.132 9.67036C51.3918 10.6393 52.7939 12.3269 54.4043 12.5601C57.2591 13.1839 59.4941 9.05379 61.8059 7.8153C64.4837 6.4193 67.1494 9.22043 69.4069 10.5887C70.7899 11.5533 72.4157 12.3648 74.0107 12.0197C75.7291 11.6702 77.1663 10.0281 78.4918 8.82408C79.2162 8.21992 80.2912 6.87993 81.1466 6.56061C81.2698 6.5563 81.5049 6.11395 81.5049 6.11395C81.7515 6.10533 82.6375 6.94265 82.8879 7.07862C84.6523 8.4641 86.5399 9.84528 88.3043 11.2308C88.3043 11.2308 88.4276 11.2264 88.4314 11.371C89.0632 11.9278 90.0533 12.0379 90.77 11.1446C91.8528 10.0938 92.8122 9.04725 93.8949 7.99642C94.3727 7.40086 94.9777 6.94559 95.4555 6.35003C95.8177 6.04795 96.5305 5.01005 97.0198 4.84823C98.0023 4.66919 99.782 6.63299 100.537 7.18546C101.67 8.01417 102.679 8.84718 103.812 9.67588C105.576 11.0614 107.729 13.1568 109.648 11.0638C110.608 10.0173 111.309 8.54561 112.018 7.36313C112.492 6.623 113.085 5.73398 113.559 4.99385C116.711 7.48858 119.977 9.68985 123.476 11.3042C125.598 12.243 126.793 10.7541 128.23 9.11205C128.947 8.21872 129.656 7.03623 130.503 6.42776C131.228 5.82359 130.742 6.12998 131.37 6.54218C131.748 6.81842 132.26 7.52408 132.641 7.9449C133.531 8.9268 134.298 9.91301 135.184 10.7503C135.82 11.4517 136.586 12.4379 137.461 12.8415C139.456 13.64 140.639 11.7174 141.961 10.3688C142.801 9.47117 143.641 8.57354 144.604 7.67159C144.604 7.67159 145.328 7.06743 145.691 6.76534C145.818 6.90561 145.945 7.04589 146.072 7.18616C147.848 9.00538 149.743 10.6757 151.519 12.4949C153.665 14.3012 156.173 11.1746 154.397 9.35537Z" fill="#F7C300"/>
</svg>
