<svg width="47" height="50" viewBox="0 0 47 50" fill="none" xmlns="http://www.w3.org/2000/svg">
<path d="M46.817 9.53917C46.9274 8.65602 46.9274 7.77287 46.7066 6.88971C46.0442 4.01947 43.6156 1.03883 40.4141 1.37001C37.4335 1.70119 35.5568 4.35065 35.0048 7.1105C34.8944 7.77287 34.784 8.54563 34.6736 9.20799H34.5633C33.9009 9.42878 33.2385 9.75996 32.6866 10.0911C32.1346 9.53917 31.5826 9.0976 30.9202 8.87681C29.2643 8.21444 27.7188 9.0976 26.6149 10.3119C25.7317 11.3055 24.959 12.6302 24.8486 14.0653C24.7382 15.1693 25.1798 16.1628 25.9525 17.046C23.5238 19.6954 20.9848 22.3449 18.3353 24.6632C16.7898 26.0983 15.1339 27.6438 13.2572 28.7477C12.1532 29.5205 10.9389 29.5205 9.94537 28.8581C9.94537 28.6373 9.94537 28.527 9.94537 28.4166C9.94537 27.423 10.0558 26.4295 10.1662 25.4359C10.6077 21.7929 12.0429 18.9227 15.4651 17.3772C17.7833 16.2732 16.1274 12.6302 13.8092 13.2926C8.95182 14.7277 4.42566 17.8187 3.54251 23.1176C3.10093 25.7671 3.43212 28.4166 4.20488 30.9556C4.53606 32.17 5.30882 33.3843 5.5296 34.709C5.75039 35.9234 5.19843 37.3585 5.08803 38.5728C4.97764 39.7872 6.19198 40.7807 7.29592 40.7807C8.39986 40.7807 9.5038 41.2223 10.6077 41.5535C11.8221 41.8846 13.0364 42.2158 14.3611 42.3262C16.6794 42.547 19.1081 42.3262 21.4263 41.7742C23.6342 41.3327 25.9525 40.6703 27.9396 39.5664C28.9332 39.1248 29.7059 38.4624 30.3683 37.5793C30.4787 37.4689 30.4787 37.3585 30.5891 37.2481C30.9202 37.6897 31.2514 38.1312 31.5826 38.5728C33.0177 40.4495 36.2192 39.456 35.6672 36.9169C35.1152 34.8194 34.6736 32.6115 34.2321 30.4037C34.1217 29.6309 33.5697 29.1893 33.0177 28.9685C32.3554 28.0854 31.141 27.5334 30.1475 28.3062C29.0435 29.0789 28.2708 30.0725 27.498 31.1764C27.1668 31.3972 26.8357 31.5076 26.6149 31.618C25.2902 32.3907 23.855 33.0531 22.4199 33.7155C21.6471 34.0467 20.8744 34.3778 20.1016 34.709C21.4263 33.3843 22.7511 32.0596 23.855 30.6244C25.9525 27.7542 27.7188 24.6632 30.1475 22.1241C33.0177 23.6696 36.7711 24.884 39.3102 22.3449C40.6349 21.0202 40.8557 19.0331 40.083 17.3772C39.7518 16.7148 39.3102 16.1628 38.7582 15.7212C39.0894 15.7212 39.4206 15.7212 39.6414 15.6108C40.5245 15.5005 41.4077 15.3901 42.2908 15.0589C45.2715 15.3901 47.5897 12.7406 46.817 9.53917Z" fill="#F7C300"/>
<path d="M44.719 5.45452C44.3878 4.24019 43.7255 3.35703 42.7319 2.58427C41.7384 1.81152 40.6344 1.14915 39.5305 0.597181C38.3162 0.0452108 36.9914 -0.175577 35.6667 0.155605C34.6731 0.486787 33.6796 1.14915 33.0172 1.92191C32.1341 3.02585 31.8029 4.24019 31.5821 5.56492C31.4717 6.22728 31.5821 7.00004 31.5821 7.6624C31.5821 7.7728 31.5821 7.99359 31.6925 8.10398C31.5821 8.10398 31.4717 8.21437 31.2509 8.32477C29.8158 6.66886 27.8287 5.45452 25.5104 6.00649C24.2961 6.33767 23.1922 7.33122 22.861 8.54556C22.5298 9.87028 22.861 11.3054 23.6337 12.4093C24.1857 13.2925 24.9585 14.1757 25.8416 14.838V14.9484C20.3219 19.2538 14.9126 23.7799 9.17211 27.7541C8.73053 22.3448 13.0359 17.9291 17.3413 15.1692C17.5621 15.0588 17.6725 14.9484 17.6725 14.7276C18.4452 14.3964 18.7764 13.2925 17.8932 12.7405C16.8997 12.1886 15.7958 12.0782 14.6918 12.0782C13.4775 11.9678 12.2631 11.9678 10.9384 11.8574C8.39934 11.747 5.86028 11.747 3.32122 11.747C2.10689 11.747 1.8861 13.5133 2.87965 13.8445C2.99005 13.9549 3.10043 14.0653 3.21082 14.0653C3.98358 14.3964 4.64594 14.7276 5.4187 15.0588C2.43806 17.5979 0.230186 21.1305 0.00939821 25.1047C-0.100996 27.6437 0.78215 29.962 1.55491 32.2803C2.54846 35.1505 2.76925 37.9104 1.66531 40.7806C1.44452 41.5534 1.8861 41.995 2.54847 42.1054C2.87965 42.3261 3.21083 42.4365 3.65241 42.2158C6.08108 41.2222 8.73053 41.995 11.0488 42.6573C13.2567 43.3197 15.3542 43.8717 17.6725 43.7613C21.9778 43.5405 25.8416 41.2222 29.3742 38.9039L31.2509 40.3391C31.8029 40.7806 32.3549 41.2222 33.0172 41.443C33.6796 42.1054 35.1147 41.5534 34.8939 40.3391C34.1212 36.1441 33.0172 32.0595 31.8029 28.0853C31.6925 27.6437 31.2509 27.3126 30.9197 27.3126C30.4782 26.9814 29.8158 26.9814 29.4846 27.6437C28.3807 30.1828 26.2832 32.0595 23.8545 33.2738C22.5298 33.9362 21.0947 34.3778 19.6595 34.709C18.9972 34.8193 18.114 35.1505 17.3413 35.1505C21.6466 29.8516 27.3871 25.6566 30.9197 19.8058C31.4717 20.3577 31.9133 20.7993 32.5757 21.1305C33.6796 21.6825 34.8939 21.6825 36.1083 21.1305C37.1018 20.6889 38.0954 20.0265 38.5369 19.033C39.0889 17.8187 38.5369 16.4939 37.7642 15.5004C37.1018 14.7276 36.2187 13.9549 35.3355 13.4029C35.5563 13.0717 35.7771 12.8509 36.1083 12.6301C38.3161 13.2925 40.9656 13.0717 42.8423 11.747C45.271 10.5326 45.271 7.7728 44.719 5.45452ZM42.4007 9.6495C41.8488 10.4223 40.7448 10.7534 39.8617 10.9742C38.7577 11.195 37.6538 10.9742 36.5498 10.643C36.4395 10.643 36.2187 10.5326 36.1083 10.643C35.8875 10.643 35.5563 10.7534 35.3355 10.9742C34.7835 11.5262 34.2316 12.0782 33.79 12.7405C33.5692 13.0717 33.3484 13.4029 33.238 13.7341C33.1276 14.0653 33.1276 14.286 33.238 14.6172C33.3484 14.9484 33.5692 15.2796 33.9004 15.5004C34.0108 15.6108 34.2316 15.6108 34.4523 15.6108C34.7835 15.8316 35.0043 16.0524 35.3355 16.2731C35.5563 16.4939 35.7771 16.7147 35.9979 16.9355C36.1083 17.0459 36.1083 17.0459 36.2187 17.1563C36.2187 17.1563 36.3291 17.3771 36.4394 17.3771C36.5498 17.5979 36.6602 17.7083 36.7706 17.9291L36.881 18.1498C36.881 18.2602 36.881 18.2602 36.881 18.3706C36.881 18.1498 36.881 18.3706 36.881 18.481C36.881 18.481 36.881 18.5914 36.7706 18.5914C36.7706 18.5914 36.7706 18.7018 36.6602 18.7018C36.5498 18.8122 36.5498 18.8122 36.4394 18.9226L36.329 19.033C36.2187 19.1434 36.1083 19.1434 35.9979 19.2538L35.7771 19.3642C35.6667 19.3642 35.5563 19.4746 35.4459 19.4746C35.3355 19.4746 35.1147 19.585 35.0043 19.585C34.8939 19.585 34.8939 19.585 34.7835 19.585C34.8939 19.585 34.8939 19.585 34.7835 19.585C34.6731 19.585 34.5627 19.585 34.5627 19.585C34.5627 19.585 34.342 19.585 34.2316 19.4746C34.2316 19.4746 33.79 19.2538 34.0108 19.3642C33.9004 19.3642 33.79 19.2538 33.79 19.2538C33.6796 19.1434 33.5692 19.1434 33.4588 19.033L33.3484 18.9226C32.9068 18.5914 32.5756 18.1498 32.2445 17.8187C32.0237 17.4875 31.5821 17.4875 31.1405 17.5979C30.6989 17.4875 30.2574 17.5979 29.9262 18.0394C26.3936 24.6631 19.8803 29.0789 15.3542 35.0401C15.023 35.1505 14.8022 35.2609 14.6918 35.5921C14.3606 36.1441 14.5814 36.696 15.1334 37.1376C16.4581 38.1312 18.3348 37.6896 19.7699 37.4688C21.5362 37.1376 23.3026 36.5857 24.9585 35.8129C27.2767 34.709 29.2638 33.053 30.699 31.066C31.4717 33.605 32.0237 36.1441 32.5757 38.6831C31.9133 38.1312 31.1405 37.5792 30.4782 37.0272C30.147 36.696 29.7054 36.5857 29.1534 36.9168C25.4 39.5663 21.0947 42.3261 16.2373 41.8846C12.9255 41.5534 9.83447 40.0079 6.63304 40.0079C8.62014 38.2416 10.6072 36.3649 12.2631 34.157C12.5943 33.7154 12.3735 32.9426 11.8216 32.6115C11.2696 32.2803 10.6072 32.5011 10.2761 33.053C9.3929 34.3778 8.17856 35.5921 6.96423 36.696C6.30186 37.3584 5.5291 38.0208 4.86673 38.5728C4.97713 37.3584 4.97714 36.0337 4.75635 34.8193C4.31477 32.3907 3.21083 30.1828 2.76925 27.7541C1.99649 23.3384 4.53556 19.033 8.06817 16.4939C8.28896 16.3835 8.39935 16.1627 8.50974 15.942L8.62014 15.8316C8.84093 15.39 8.73054 14.838 8.39936 14.5068C9.17211 14.5068 9.94486 14.5068 10.7176 14.6172C11.8216 14.6172 13.0359 14.7276 14.1398 14.838C14.471 14.838 14.6918 14.838 15.023 14.838C12.8151 16.4939 10.7176 18.3706 9.28249 20.7993C7.51619 23.6695 6.74344 27.3126 7.73698 30.6244C7.95777 31.6179 9.17211 31.6179 9.72408 30.9556C16.1269 26.6502 21.9778 21.6825 27.9391 17.0459C28.0495 16.9355 28.1599 16.8251 28.1599 16.8251C28.2703 16.7147 28.3807 16.6043 28.4911 16.3835C28.6015 16.2731 28.6015 16.2731 28.7119 16.1627C29.2638 15.6108 29.043 14.838 28.4911 14.3964C27.4975 13.6237 26.3936 12.7405 25.8416 11.6366C25.6208 11.195 25.4 10.643 25.4 10.2015C25.4 9.75989 25.5104 9.31831 25.8416 8.98713L25.952 8.87674C25.8416 8.98713 25.8416 8.98713 25.952 8.87674C26.0624 8.87674 26.1728 8.76634 26.2832 8.76634C26.0624 8.87674 26.504 8.65595 26.504 8.65595C26.6144 8.65595 26.6144 8.65595 26.7248 8.65595C26.6144 8.65595 26.6144 8.65595 26.7248 8.65595C27.2767 8.65595 27.4975 8.65595 28.0495 8.87674C28.0495 8.87674 28.0495 8.87674 28.1599 8.87674C28.2703 8.87674 28.2703 8.98713 28.3807 8.98713C28.4911 9.09753 28.7119 9.20792 28.8223 9.20792C29.043 9.31831 29.1534 9.5391 29.3742 9.6495C29.8158 10.0911 30.2574 10.643 30.699 11.0846C31.0301 11.5262 31.8029 11.4158 32.1341 11.0846C32.1341 11.0846 32.1341 11.0846 32.2445 11.0846C33.0172 10.4223 34.2316 9.87029 34.2316 8.65595C34.2316 7.6624 34.0108 6.77925 34.1212 5.7857C34.3419 4.24019 35.3355 2.47388 36.9914 2.47388C37.985 2.47388 38.9785 2.91546 39.7513 3.46743C40.524 3.909 41.4072 4.46097 42.0696 5.12334C42.7319 5.7857 42.8423 6.66886 42.9527 7.55201C42.8423 7.99359 42.8423 8.98713 42.4007 9.6495Z" fill="#1E1E1E"/>
<path d="M40.083 6.22727C40.083 6.11688 40.083 6.11688 40.083 6.11688C40.083 6.00649 39.9726 5.7857 39.8622 5.6753C39.7518 5.56491 39.7518 5.45452 39.6414 5.34412C39.531 5.23373 39.4206 5.23373 39.4206 5.12333C39.4206 5.12333 39.4206 5.12333 39.3102 5.12333C39.1998 5.01294 39.0894 5.01294 38.8686 5.01294C38.6479 5.01294 38.5375 5.01294 38.3167 5.01294C38.2063 5.01294 38.2063 5.01294 38.0959 5.01294C37.9855 5.01294 37.8751 5.12333 37.7647 5.12333C37.6543 5.23373 37.5439 5.23373 37.4335 5.34412L37.3231 5.45452C37.2127 5.56491 37.1024 5.6753 37.1024 5.7857C36.992 5.89609 36.9919 6.00649 36.8816 6.22727C36.8816 6.33767 36.8816 6.33767 36.7712 6.44806C36.7712 6.55846 36.7712 6.66885 36.7712 6.66885C36.7712 6.77924 36.6608 6.88964 36.6608 7.00003C36.6608 7.11043 36.6608 7.22082 36.6608 7.33122C36.6608 7.44161 36.6608 7.552 36.6608 7.552C36.6608 7.6624 36.6608 7.77279 36.6608 7.77279C36.6608 7.88319 36.7712 7.99358 36.7712 8.10397C36.8816 8.21437 36.8816 8.32476 36.992 8.43516C37.1023 8.54555 37.2127 8.65594 37.3231 8.65594C37.4335 8.76634 37.5439 8.76634 37.7647 8.76634C38.0959 8.76634 38.3167 8.87673 38.6479 8.76634C38.7583 8.76634 38.8687 8.65594 38.979 8.65594C39.0894 8.65594 39.0894 8.54555 39.1998 8.54555C39.4206 8.43516 39.531 8.21437 39.6414 7.99358C39.6414 7.99358 39.6414 7.88319 39.7518 7.88319C39.8622 7.77279 39.8622 7.6624 39.8622 7.44161C39.9726 7.22082 39.9726 7.00003 39.9726 6.88964C40.083 6.66885 40.083 6.44806 40.083 6.22727Z" fill="#1E1E1E"/>
<path d="M14.1409 29.8516C12.7058 29.8516 12.7058 32.0594 14.1409 32.0594C15.576 32.0594 15.576 29.8516 14.1409 29.8516Z" fill="#1E1E1E"/>
<path d="M17.2309 27.3125C15.7958 27.3125 15.7958 29.5204 17.2309 29.5204C18.666 29.5204 18.666 27.3125 17.2309 27.3125Z" fill="#1E1E1E"/>
<path d="M20.3222 25.1047C18.8871 25.1047 18.8871 27.3126 20.3222 27.3126C21.6469 27.3126 21.6469 25.1047 20.3222 25.1047Z" fill="#1E1E1E"/>
<path d="M40.1923 45.638C40.4131 45.5276 40.5235 45.4172 40.5235 45.3068C40.6339 44.9756 40.5235 44.534 40.3027 44.2028C40.0819 43.8717 39.6403 43.7613 39.3092 43.6509C38.6468 43.5405 37.9844 43.6509 37.3221 43.6509C36.5493 43.6509 35.7766 43.7613 35.1142 43.7613C33.5687 43.8717 32.1335 43.8717 30.588 43.8717C29.4841 43.8717 28.2698 43.8717 27.1658 43.8717C26.1723 43.8717 26.1723 46.0795 27.1658 46.0795C30.1465 46.0795 33.1271 46.0795 36.1077 45.8588C37.3221 45.7484 38.6468 45.7484 39.8611 45.638C39.9715 45.7484 40.0819 45.7484 40.1923 45.638Z" fill="#1E1E1E"/>
<path d="M44.2775 46.8523C30.0366 47.9562 15.6854 48.177 1.33415 47.2939C0.340603 47.1835 0.340603 49.3914 1.33415 49.5018C15.6854 50.2745 29.9262 50.1641 44.2775 49.0602C45.271 49.0602 45.271 46.8523 44.2775 46.8523Z" fill="#1E1E1E"/>
</svg>
