<svg width="37" height="36" viewBox="0 0 37 36" fill="none" xmlns="http://www.w3.org/2000/svg">
<path d="M32.2695 6.43533C31.8964 6.06228 31.3368 5.78248 30.684 5.78248C24.6218 5.59595 18.5596 5.50269 12.4974 5.31616C12.1244 5.31616 11.7513 5.40943 11.4715 5.50269C10.4456 5.50269 9.41972 6.15554 9.13993 7.18145C7.92749 12.5908 9.23319 18.0001 11.4715 22.9431C12.0311 24.0623 12.5907 25.2747 13.2436 26.3006C13.8964 27.5131 14.456 28.912 15.7617 29.5649C16.9741 30.1245 18.5596 29.8447 19.8653 29.9379C21.2643 29.9379 22.6632 29.9379 24.0622 30.0312C24.8083 30.2177 25.6477 29.9379 26.3005 29.4716C29.0985 27.2333 30.4974 23.596 31.2436 20.2384C32.1762 16.4146 33.0156 12.4042 33.1088 8.39388C33.2021 7.36798 32.829 6.80839 32.2695 6.43533Z" fill="#F7C300"/>
<path d="M5.03668 31.057C5.22321 30.9637 5.12995 30.9637 5.03668 31.057V31.057Z" fill="#1E1E1E"/>
<path d="M35.9067 32.3627C35.1606 31.9896 34.5078 31.5233 33.8549 31.057C33.7617 30.9637 33.6684 30.9637 33.6684 30.8705L33.5751 30.7772C33.3886 30.6839 33.2953 30.4974 33.1088 30.4041C32.9223 30.3109 32.829 30.1244 32.6425 30.0311C33.6684 29.1917 34.601 28.2591 35.5337 27.3264C35.7202 27.1399 35.8135 26.7668 35.7202 26.487C35.7202 26.0207 35.2539 25.5544 34.7876 25.5544C32.0829 25.7409 29.3782 25.8342 26.7668 25.8342C26.9534 25.5544 27.0466 25.2746 27.2332 24.9016C28.0725 23.1295 29.0052 21.3575 29.5648 19.4922C30.2176 17.5337 30.3109 15.5751 30.4974 13.5233C30.5907 11.3782 30.7772 9.32642 30.8705 7.18135C30.8705 7.08808 30.8705 7.08808 30.8705 6.99482C31.6166 6.99482 32.2694 7.08808 33.0155 7.08808C34.228 7.18135 34.228 5.31606 33.0155 5.2228C31.7098 5.12953 30.3109 5.12953 29.0052 5.03627C29.0052 4.94301 29.0052 4.94301 29.0052 4.84974C28.9119 3.9171 28.8187 3.07772 28.9119 2.14508C29.3782 2.14508 29.9378 2.23834 30.4041 2.33161C30.8705 2.42487 31.3368 1.86529 31.3368 1.39896C31.3368 0.839378 30.8705 0.559586 30.4041 0.466321C28.4456 0.186528 26.3938 -5.55898e-08 24.6218 0.746114C23.0363 1.39896 21.7306 2.51813 21.2642 4.19689C21.171 4.38342 21.2642 4.56995 21.2642 4.75648C20.6114 4.75648 19.9585 4.75648 19.2124 4.75648C19.2124 4.75648 19.2124 4.75648 19.2124 4.66321V0.932643C19.2124 0.466321 18.7461 0 18.2798 0C17.8135 0 17.3472 0.373057 17.3472 0.932643V4.66321C16.8808 4.66321 16.5078 4.66321 16.0415 4.66321V4.56995C15.7617 2.79793 14.2694 1.58549 12.6839 0.932643C10.8187 0.279793 8.76684 0.466321 6.80829 0.373057C5.59586 0.279793 5.59586 2.14508 6.80829 2.23834C7.27461 2.23834 7.8342 2.23834 8.39378 2.23834C8.30052 3.17098 8.39378 3.9171 8.39378 4.75648C7.18135 4.75648 5.96891 4.75648 4.75648 4.84974C3.54404 4.84974 3.54404 6.71503 4.75648 6.71503C5.2228 6.71503 5.68912 6.71503 6.15544 6.71503C5.59586 10.7254 5.68912 14.6425 6.90155 18.5596C7.64767 20.9845 8.76684 23.3161 9.97927 25.5544C7.46114 25.6477 4.94301 25.7409 2.33161 25.7409C2.23834 25.7409 2.14508 25.6477 1.95855 25.6477C1.77202 25.6477 1.49223 25.7409 1.3057 25.9275C1.11917 26.114 1.02591 26.3005 1.02591 26.5803C1.02591 26.8601 1.11917 27.0466 1.3057 27.2332C1.95855 28.0725 2.70466 28.9119 3.54404 29.658C3.17098 29.8446 2.89119 30.0311 2.6114 30.3109C1.95855 30.7772 1.3057 31.2435 0.559586 31.6166C0.466321 31.7098 0.373057 31.8031 0.279793 31.8964C0.0932643 32.0829 0 32.2694 0 32.5492C0 33.0155 0.466321 33.4819 0.932643 33.4819C3.26425 33.3886 5.59586 33.4819 7.92746 33.6684H8.02073V34.6943C8.02073 34.9741 8.11399 35.1606 8.30052 35.3472C8.48705 35.5337 8.67358 35.7202 9.04663 35.7202L27.886 36C28.6321 36 28.9119 35.2539 28.7254 34.6943C28.7254 34.4145 28.7254 34.1347 28.7254 33.8549L35.1606 33.9482C35.1606 33.9482 35.1606 33.9482 35.2539 33.9482C35.6269 34.0415 36.0933 33.8549 36.2798 33.4819C36.4663 33.2021 36.2798 32.6425 35.9067 32.3627ZM22.8497 4.75648C23.1295 3.63731 24.1554 2.79793 25.2746 2.42487C25.8342 2.23834 26.3938 2.14508 26.9534 2.14508C26.9534 3.07772 26.9534 4.01036 27.1399 4.94301C25.7409 4.84974 24.2487 4.84974 22.8497 4.84974C22.7565 4.84974 22.7565 4.75648 22.8497 4.75648ZM28.4456 6.90155C27.4197 8.67358 25.2746 9.41969 23.2228 9.1399C21.6373 8.95337 19.4922 8.20725 18.8394 6.5285C22.1036 6.71503 25.2746 6.80829 28.4456 6.90155ZM13.9896 4.75648C12.7772 4.75648 11.4715 4.75648 10.2591 4.75648C10.2591 4.01036 10.1658 3.26425 10.1658 2.42487C11.9378 2.6114 13.5233 3.07772 13.9896 4.75648ZM8.76684 6.62176C8.95337 6.80829 9.1399 6.90155 9.41969 6.90155C9.60622 6.90155 9.88601 6.80829 10.0725 6.62176C12.2176 6.62176 14.456 6.62176 16.601 6.62176C15.7617 8.02073 13.8964 8.48705 12.4974 8.58031C10.9119 8.76684 8.48705 8.67358 8.20725 6.62176C8.30052 6.62176 8.58031 6.62176 8.76684 6.62176ZM8.48705 17.4404C7.74093 14.829 7.46114 12.1244 7.64767 9.41969C7.8342 9.60622 8.11399 9.79275 8.39378 9.88601C9.60622 10.5389 11.0052 10.5389 12.4041 10.4456C14.3627 10.2591 16.3212 9.69948 17.6269 8.20725C18.8394 9.88601 21.171 10.8187 23.1295 11.0052C25.1813 11.285 27.3264 10.7254 28.8187 9.41969C28.7254 10.6321 28.6321 11.9378 28.5389 13.1503C28.4456 14.829 28.3523 16.4145 27.9793 18C21.544 17.5337 15.0155 17.3472 8.48705 17.4404C8.58031 17.4404 8.58031 17.4404 8.48705 17.4404ZM9.1399 19.3057C15.2021 19.2124 21.3575 19.399 27.4197 19.8653C26.8601 21.4508 26.114 22.8497 25.3679 24.342C24.6218 25.9275 23.7824 27.6062 22.7565 29.0984C19.772 28.9119 16.7876 28.9119 13.7098 28.9119C13.7098 28.7254 13.7098 28.6321 13.6166 28.4456C11.9378 25.4611 10.3523 22.4767 9.1399 19.3057ZM9.04663 29.0052C9.04663 29.0052 8.95337 29.0052 9.04663 29.0052C8.48705 29.0052 8.02073 29.3782 8.02073 29.9378V31.8964H7.92746C6.62176 31.7098 5.31606 31.7098 4.01036 31.6166C4.19689 31.5233 4.38342 31.3368 4.56995 31.2435C4.75648 31.1503 4.94301 31.057 5.12953 30.9637C5.12953 30.9637 5.2228 30.9637 5.2228 30.8705C5.31606 30.8705 5.40933 30.7772 5.50259 30.7772C5.96891 30.5907 6.34197 30.1244 6.15544 29.658V29.5648C6.15544 29.3782 6.06218 29.1917 5.87565 29.0052C5.31606 28.5389 4.75648 28.0725 4.19689 27.513C6.34197 27.513 8.48705 27.4197 10.5389 27.3264C10.6321 27.3264 10.8187 27.3264 10.9119 27.2332C11.1917 27.7927 11.4715 28.2591 11.7513 28.8187C10.9119 29.0052 9.97927 29.0052 9.04663 29.0052ZM26.8601 34.228C21.2642 34.1347 15.5751 34.0415 9.97927 33.9482V30.8705C15.5751 30.6839 21.2642 30.7772 26.8601 31.057C26.8601 32.1762 26.8601 33.2021 26.8601 34.228ZM28.7254 32.0829C28.7254 31.5233 28.7254 30.8705 28.6321 30.3109V30.2176V30.1244V30.0311V29.9378C28.5389 29.5648 28.1658 29.1917 27.7927 29.1917C27.6995 29.1917 27.6062 29.1917 27.513 29.285C26.6736 29.1917 25.8342 29.1917 24.9948 29.1917C25.2746 28.7254 25.5544 28.1658 25.8342 27.6995C28.1658 27.6995 30.4041 27.6995 32.7358 27.6062C32.0829 28.2591 31.3368 28.9119 30.5907 29.4715C30.4041 29.5648 30.3109 29.9378 30.3109 30.1244C30.3109 30.3109 30.4041 30.5907 30.5907 30.7772C30.6839 30.8705 30.7772 30.8705 30.8705 30.9637C30.8705 30.9637 30.8705 30.9637 30.8705 31.057C31.3368 31.5233 31.8031 31.8964 32.2694 32.2694C31.057 32.0829 29.8446 32.0829 28.7254 32.0829Z" fill="#1E1E1E"/>
<path d="M25.7406 13.4302C21.1707 13.2437 16.6007 13.0571 12.0308 13.0571C10.8184 13.0571 10.8184 14.9224 12.0308 14.9224C16.6007 14.9224 21.1707 15.1089 25.7406 15.2955C26.9531 15.3887 26.9531 13.5234 25.7406 13.4302Z" fill="#1E1E1E"/>
</svg>
