<svg width="249" height="15" viewBox="0 0 249 15" fill="none" xmlns="http://www.w3.org/2000/svg">
<path d="M248.032 10.7507C245.177 8.65161 242.131 6.7243 239.277 4.6252C236.429 2.69292 234.41 1.74169 231.11 3.66125C228.391 5.23224 225.097 7.31862 222.997 9.54199C222.799 9.54696 222.793 9.38014 222.595 9.38511C222.174 8.72776 221.165 8.25215 220.552 7.76659C219.122 6.63363 217.889 5.4957 216.465 4.52956C214.218 2.74919 211.785 1.30743 208.658 2.55473C205.524 3.6352 203.641 6.35407 201.133 8.25374C200.941 8.42553 200.749 8.59732 200.557 8.76912C201.139 8.42056 200.929 8.09188 200.136 8.11177C199.523 7.62621 198.527 7.48424 197.722 7.17048C196.31 6.53799 194.898 5.90549 193.487 5.273C190.261 3.85113 187.221 2.09064 184.181 0.330157C183.165 -0.312279 181.394 0.0661037 180.626 0.753278C179.295 2.28948 177.957 3.65885 176.626 5.19505C175.864 6.04905 175.102 6.90305 174.34 7.75704C174.148 7.92884 173.956 8.10063 173.771 8.43925C173.579 8.61104 173.579 8.61104 173.579 8.61104C171.771 7.98849 170.136 6.69367 168.514 5.7325C166.694 4.77631 164.867 3.65329 162.849 2.70206C159.406 0.784691 156.001 -0.13174 152.322 2.29822C149.616 4.20286 147.108 6.10253 144.402 8.00717C142.173 6.72727 139.95 5.61419 137.523 4.33926C135.3 3.22618 133.059 1.61264 130.303 2.1827C127.746 2.74779 125.442 4.80931 123.312 6.19857C122.148 6.89568 120.983 7.5928 120.017 8.28494C118.853 8.98206 118.061 9.00194 116.655 8.53627C112.036 6.98237 108.352 3.90222 103.182 3.53099C97.8135 3.16474 94.1597 6.26199 90.0849 8.7019C88.7287 9.57081 88.9207 9.39901 87.5028 8.5997C86.2893 7.96223 85.2739 7.31979 84.0603 6.68233C81.6333 5.4074 79.2062 4.13247 76.4136 3.70159C73.6273 3.43754 71.2865 4.49812 68.7476 5.56368C67.379 6.09894 66.0105 6.63421 64.642 7.16947C63.2734 7.70474 61.137 8.92717 59.3598 9.13873C56.9821 9.19838 53.9421 7.4379 51.9174 6.31985C49.6885 5.03995 47.8312 3.08281 45.0387 2.65194C42.4443 2.21609 39.8992 3.11482 37.967 4.49911C35.8367 5.88837 33.9354 8.10678 31.1367 7.50908C28.3442 7.0782 26.0967 5.29783 23.6758 4.18972C21.0506 2.91976 18.2395 1.98842 15.0569 1.73431C9.28596 1.21117 3.40937 3.19535 0.399309 7.61227C-1.47736 10.498 3.76693 12.8711 5.64359 9.98537C8.27586 6.07886 14.0221 5.9347 18.4491 7.66039C22.8762 9.38608 26.5661 12.6331 31.7241 12.6706C34.108 12.7778 36.2568 11.889 38.2013 10.8384C39.7495 9.79767 42.4249 7.05892 44.4433 8.01014C46.4556 8.79455 48.3068 10.5849 50.3314 11.7029C52.5542 12.816 55.1732 13.9191 57.5633 14.1931C60.1515 14.4621 62.3003 13.5734 64.6473 12.6796C67.5825 11.6041 70.4992 10.0281 73.4406 9.11945C75.9918 8.38754 78.4374 10.1629 80.4558 11.1142C82.4805 12.2322 84.7341 14.1794 87.3223 14.4484C91.9105 15.1682 95.5027 10.4027 99.2181 8.97371C103.522 7.36294 107.806 10.595 111.435 12.1738C113.657 13.2868 116.27 14.2232 118.834 13.8249C121.595 13.4216 123.905 11.5269 126.036 10.1377C127.2 9.44057 128.928 7.89443 130.302 7.52599C130.501 7.52102 130.878 7.01061 130.878 7.01061C131.275 7.00067 132.699 7.96681 133.101 8.12369C135.937 9.72232 138.971 11.316 141.806 12.9146C141.806 12.9146 142.005 12.9096 142.011 13.0765C143.026 13.7189 144.617 13.846 145.769 12.8152C147.51 11.6027 149.052 10.3952 150.792 9.18269C151.56 8.49551 152.532 7.97019 153.3 7.28302C153.882 6.93446 155.028 5.73688 155.814 5.55017C157.393 5.34358 160.253 7.60951 161.467 8.24697C163.287 9.20317 164.909 10.1643 166.73 11.1205C169.565 12.7192 173.026 15.137 176.11 12.722C177.652 11.5144 178.78 9.81638 179.919 8.45197C180.681 7.59798 181.635 6.57219 182.397 5.71819C187.461 8.59672 192.712 11.1366 198.334 12.9993C201.745 14.0826 203.665 12.3647 205.975 10.47C207.127 9.43919 208.267 8.07479 209.629 7.3727C210.793 6.67558 210.013 7.02911 211.022 7.50473C211.629 7.82346 212.452 8.63769 213.065 9.12324C214.495 10.2562 215.727 11.3941 217.151 12.3603C218.173 13.1695 219.405 14.3075 220.811 14.7731C224.018 15.6945 225.919 13.4761 228.043 11.9201C229.393 10.8843 230.743 9.8486 232.292 8.80789C232.292 8.80789 233.456 8.11078 234.038 7.76222C234.242 7.92407 234.447 8.08592 234.651 8.24778C237.505 10.3469 240.551 12.2742 243.405 14.3733C246.854 16.4575 250.886 12.8498 248.032 10.7507Z" fill="#59C69F"/>
</svg>
