<svg width="64" height="37" viewBox="0 0 64 37" fill="none" xmlns="http://www.w3.org/2000/svg">
<path d="M58.0745 22.1828C55.8029 19.5162 52.4449 18.2322 49.1856 17.5409C48.3955 17.3433 47.5066 17.047 46.7165 17.047C46.6177 16.7507 46.4202 16.3557 46.3214 16.1581C45.7288 14.7754 44.8399 13.4915 43.6548 12.4051C40.9881 9.93592 37.5313 8.94827 33.9757 9.54086C32.7906 9.73839 32.0004 11.1211 32.198 12.3063C32.0004 12.6026 31.9017 12.9976 31.9017 13.4915C32.0004 14.6767 32.0004 15.8618 32.0992 17.047C32.198 18.2322 32.2967 19.3186 33.1856 20.2075C33.877 20.8989 34.8646 21.1952 35.7535 21.7878C36.3461 22.1828 36.8399 22.7754 37.3338 23.2693C38.3214 24.4544 39.0128 25.8372 39.4078 27.4174C39.9017 29.3927 39.5066 31.368 39.8029 33.4421C39.9017 34.4298 41.1856 35.3186 42.1733 35.2199C47.6054 34.9236 53.0375 34.726 58.3708 34.5285C59.7535 34.5285 60.7412 33.4421 60.8399 32.0594C61.0375 28.4051 60.4449 24.8495 58.0745 22.1828Z" fill="#F7C300"/>
<path d="M17.6788 19.6151C17.2837 18.4299 15.9998 17.4422 14.6171 17.9361C13.0368 18.4299 11.5553 18.9237 10.0739 19.7138C8.69114 20.4052 7.40719 21.3929 6.32077 22.4793C5.43188 23.3682 5.33311 25.0472 6.32077 25.9361C7.30842 26.825 8.88867 26.9237 9.77756 25.9361C10.0739 25.541 10.4689 25.2447 10.864 24.9484C11.6541 24.3558 12.4442 23.9608 13.2343 23.5657C14.1232 23.2694 15.0121 22.9731 15.8022 22.6768C16.3948 22.4793 16.9874 22.0842 17.2837 21.5904C17.7776 20.9978 17.8763 20.2077 17.6788 19.6151Z" fill="#F7C300"/>
<path d="M63.0123 31.4669C61.8272 31.4669 60.5432 31.4669 59.358 31.4669C59.358 29.7879 59.0617 28.1089 58.1728 26.5286C57.0864 24.6521 55.4074 23.2693 53.5309 22.2817C51.0617 20.9977 48.4938 20.0101 45.7284 19.4175C45.7284 19.3187 45.7284 19.3187 45.7284 19.22C44.3457 14.8743 40.8889 11.9113 36.7407 10.7261C36.7407 9.73848 36.642 8.75083 36.2469 7.76317C35.8519 6.57799 35.2593 5.59033 34.2716 4.89898C33.9753 4.70145 33.679 4.50392 33.284 4.40515C33.3827 3.21996 33.3827 1.93601 33.0864 0.750829C32.8889 -0.533121 31.0123 -0.0392942 31.3086 1.24466C31.5062 2.23231 31.5062 3.21996 31.4074 4.10885C31.3086 4.10885 31.1111 4.20762 31.0123 4.20762C29.8272 4.60268 29.1358 5.49157 28.7407 6.67675C28.3457 7.96071 28.3457 9.34342 28.4444 10.6274C28.4444 10.7261 28.4444 10.8249 28.5432 10.9237C24.6914 12.1089 21.4321 14.6768 19.358 18.1335C19.2593 18.2323 19.2593 18.3311 19.2593 18.4298C15.6049 19.22 12.0494 20.5039 8.88889 22.7755C7.01235 24.0595 5.4321 25.8372 4.74074 28.0101C4.24692 29.1953 4.24692 30.4792 4.24692 31.8619C3.1605 31.8619 2.07407 31.8619 0.987654 31.8619C0.493827 31.8619 0 32.257 0 32.8496C0 33.3434 0.395062 33.8372 0.987654 33.8372C2.07407 33.7385 3.25926 33.7385 4.34568 33.8372C4.44445 34.3311 4.64198 34.8249 5.03704 35.22C5.03704 35.22 5.13581 35.22 5.13581 35.3187C5.33334 35.615 5.53086 35.8126 5.92593 35.8126C23.4074 36.8002 40.9877 36.6027 58.4691 35.22C59.2593 35.1212 59.5556 34.3311 59.358 33.7385V33.6397C59.358 33.541 59.358 33.541 59.358 33.4422C60.5432 33.4422 61.8272 33.541 63.0123 33.4422C63.5062 33.4422 64 32.9484 64 32.4545C64 31.9607 63.6049 31.4669 63.0123 31.4669ZM43.5556 18.8249C42.7654 18.6274 41.8765 18.5286 41.0864 18.4298C40.9877 18.4298 40.8889 18.3311 40.7901 18.4298C40.4938 18.4298 40.1975 18.3311 39.9012 18.3311C40 16.9484 39.5062 15.5656 38.9136 14.3805C38.716 14.0842 38.6173 13.7879 38.4198 13.4916C40.5926 14.4792 42.5679 16.3558 43.5556 18.8249ZM33.1852 6.47922C33.284 6.57799 33.284 6.57799 33.3827 6.67675C33.4815 6.77552 33.4815 6.77552 33.5802 6.87429L33.679 6.97305C33.7778 7.17058 33.8765 7.36811 34.0741 7.56564C33.7778 7.56564 33.3827 7.56564 33.0864 7.56564C33.0864 7.17058 33.1852 6.87429 33.1852 6.47922ZM32.9877 9.54095C33.5802 9.54095 34.1728 9.54095 34.7654 9.54095C34.7654 9.83725 34.8642 10.0348 34.8642 10.2323C34.3704 10.1335 33.9753 10.1335 33.4815 10.1335C33.3827 10.0348 33.2839 10.0348 33.0864 10.0348C33.0864 10.0348 33.0864 10.0348 32.9877 10.0348C32.9877 9.93601 32.9877 9.73848 32.9877 9.54095ZM30.6173 7.26935C30.6173 7.17058 30.7161 7.07182 30.7161 6.97305C30.6173 7.17058 30.8148 6.87429 30.8148 6.77552C30.8148 6.67675 30.9136 6.57799 30.9136 6.57799C31.0123 6.47922 31.0123 6.47922 31.1111 6.38046C31.1111 6.77552 31.0123 7.26935 31.0123 7.66441C30.8148 7.66441 30.6173 7.66441 30.321 7.66441C30.5185 7.46688 30.5185 7.36811 30.6173 7.26935ZM31.0123 9.54095C31.0123 9.83725 31.0123 10.0348 30.9136 10.3311C30.7161 10.3311 30.5185 10.4298 30.321 10.4298C30.321 10.1335 30.321 9.83725 30.321 9.54095C30.5185 9.54095 30.8148 9.54095 31.0123 9.54095ZM29.5309 13.7879C29.6296 13.6891 29.7284 13.5903 29.9259 13.3928C30.0247 13.294 30.0247 13.294 30.1235 13.1953L30.321 13.0965C30.6173 12.899 30.9136 12.7014 31.3086 12.5039C31.3086 12.5039 31.4074 12.4052 31.5062 12.4052C31.5062 12.4052 31.6049 12.3064 31.7037 12.3064C31.9012 12.2076 32.0988 12.2076 32.1975 12.1089C32.2963 12.1089 32.4938 12.0101 32.5926 12.0101C32.6914 12.0101 32.6914 12.0101 32.7901 12.0101C32.9877 12.0101 33.284 12.0101 33.4815 12.0101C33.679 12.0101 33.7778 12.1089 33.8765 12.1089C34.3704 12.2076 35.0617 12.3064 35.4568 12.6027C35.8519 12.899 36.0494 13.3928 36.3457 13.7879C36.4444 13.9854 36.5432 14.0842 36.642 14.2817C34.1728 14.0842 31.8025 13.9854 29.3333 13.9854C29.3333 13.9854 29.4321 13.8866 29.5309 13.7879ZM28.0494 17.3434C28.0494 17.2447 28.0494 17.1459 28.0494 17.0471C28.0494 17.0471 28.0494 16.9484 28.0494 16.8496V16.6521C28.0494 16.5533 28.0494 16.4545 28.1481 16.4545C28.1481 16.3558 28.2469 16.257 28.2469 16.1582C31.3086 16.0595 34.4691 16.1582 37.5309 16.4545C37.7284 16.9484 37.8272 17.541 37.8272 18.1335C34.6667 17.8372 31.3086 17.541 27.9506 17.541C27.9506 17.4422 28.0494 17.3434 28.0494 17.3434ZM27.2593 13.4916C26.4691 14.6768 26.0741 15.9607 26.0741 17.3434C26.0741 17.4422 26.0741 17.541 26.0741 17.541C24.5926 17.6397 23.1111 17.7385 21.7284 17.936C23.2099 15.9607 25.0864 14.4792 27.2593 13.4916ZM16 34.1335C12.8395 34.0348 9.58025 33.936 6.41975 33.7385C6.32099 33.6397 6.22222 33.4422 6.22222 33.1459C6.22222 33.0471 6.32099 32.9484 6.32099 32.8496C6.32099 32.6521 6.22222 32.5533 6.22222 32.4545C6.22222 31.8619 6.32099 31.1706 6.32099 30.7755C6.32099 30.3805 6.41975 30.0842 6.41975 29.6891C9.77778 29.0965 13.2346 28.8002 16.6914 28.7014C16.1975 30.4792 16.0988 32.3558 16 34.1335ZM16.9877 26.7261C13.6296 26.8249 10.2716 27.1212 6.91358 27.615C6.91358 27.5163 7.01235 27.5163 7.01235 27.4175C7.90124 25.7385 9.48149 24.5533 11.0617 23.5656C14.0247 21.7879 17.3827 20.7014 20.7407 20.1089C19.358 21.4916 18.2716 23.0718 17.5802 24.9484C17.284 25.541 17.1852 26.1335 16.9877 26.7261ZM24.5926 34.3311C22.4198 34.3311 20.1482 34.2323 17.9753 34.2323V34.1335C18.0741 32.257 18.2716 30.4792 18.5679 28.6027C20.7407 28.6027 22.9136 28.7014 25.1852 28.899C24.8889 30.7755 24.7901 32.5533 24.5926 34.3311ZM36.8395 34.0348C36.8395 34.1335 36.8395 34.1335 36.8395 34.2323C33.3827 34.3311 30.0247 34.3311 26.5679 34.3311C26.7654 32.3558 26.8642 30.3805 27.2593 28.4051C27.6543 26.7261 28.3457 24.9484 29.6296 23.8619C30.8148 22.8743 32.5926 22.4792 33.9753 23.3681C35.358 24.257 36.0494 26.0348 36.4444 27.5163C37.1358 29.6891 37.2346 31.9607 36.8395 34.0348ZM38.321 26.8249C37.8272 25.0471 36.9383 23.2693 35.5556 22.0842C33.8765 20.7014 31.6049 20.6027 29.7284 21.5903C27.7531 22.4792 26.5679 24.4545 25.8765 26.4298C25.7778 26.6274 25.7778 26.8249 25.679 27.0224C23.5062 26.8249 21.3333 26.7261 19.1605 26.6274C19.2593 26.4298 19.2593 26.1335 19.358 25.936C20.2469 23.5656 21.8272 21.4916 23.9012 20.0101C24.0988 19.9113 24.1975 19.8126 24.1975 19.615C28.4444 19.22 32.6914 19.5163 36.8395 19.9113C38.0247 20.0101 39.2099 20.1089 40.3951 20.3064C42.4691 21.5903 43.5556 23.7632 44.5432 25.8372C44.7407 26.2323 44.8395 26.5286 45.037 26.9237C42.8642 26.7261 40.6914 26.7261 38.5185 26.7261C38.4198 26.8249 38.321 26.8249 38.321 26.8249ZM46.0247 33.936C43.6543 34.0348 41.1852 34.1335 38.8148 34.2323C39.1111 32.4545 39.1111 30.578 38.8148 28.8002C41.0864 28.8002 43.4568 28.8002 45.7284 28.9977C45.8272 29.1953 45.8272 29.4916 45.9259 29.6891C46.1235 31.0718 46.1235 32.5533 46.0247 33.936ZM46.2222 24.8496C45.6296 23.4669 44.8395 22.0842 43.9506 20.899C46.0247 21.3928 48 22.0842 49.9753 22.7755C52.1482 23.5656 54.4198 24.6521 55.9012 26.5286C56.4938 27.22 56.8889 28.0101 57.0864 28.899C53.8272 28.1089 50.5679 27.5163 47.2099 27.1212C46.9136 26.3311 46.5185 25.6397 46.2222 24.8496ZM57.3827 33.2447C54.321 33.4422 51.1605 33.6397 48 33.8372C48 32.257 48.0988 30.6768 47.8025 29.1953C50.963 29.5903 54.1235 30.1829 57.2839 30.9731H57.3827C57.3827 31.7632 57.3827 32.4545 57.3827 33.2447Z" fill="#1E1E1E"/>
</svg>
