<svg width="210" height="11" viewBox="0 0 210 11" fill="none" xmlns="http://www.w3.org/2000/svg">
<path d="M209.183 7.88385C206.776 6.34451 204.207 4.93115 201.8 3.39181C199.398 1.97481 197.696 1.27724 194.912 2.68491C192.619 3.83698 189.841 5.36699 188.07 6.99746C187.903 7.00111 187.898 6.87877 187.731 6.88241C187.376 6.40036 186.524 6.05158 186.007 5.6955C184.801 4.86466 183.762 4.03018 182.561 3.32168C180.666 2.01607 178.614 0.958786 175.976 1.87347C173.334 2.66581 171.746 4.65965 169.63 6.05274C169.469 6.17872 169.307 6.3047 169.145 6.43069C169.636 6.17508 169.458 5.93405 168.79 5.94863C168.273 5.59256 167.432 5.48845 166.753 5.25835C165.563 4.79452 164.372 4.3307 163.181 3.86687C160.461 2.82416 157.897 1.53314 155.333 0.242115C154.477 -0.229005 152.983 0.0484761 152.336 0.552404C151.213 1.67895 150.084 2.68316 148.961 3.80971C148.319 4.43597 147.676 5.06223 147.034 5.6885C146.872 5.81448 146.71 5.94046 146.553 6.18878C146.392 6.31476 146.392 6.31476 146.392 6.31476C144.867 5.85822 143.488 4.90869 142.12 4.20384C140.585 3.50262 139.045 2.67908 137.342 1.98151C134.439 0.57544 131.567 -0.0966094 128.465 1.68536C126.182 3.0821 124.067 4.47519 121.785 5.87193C119.905 4.93333 118.03 4.11708 115.983 3.18213C114.109 2.36587 112.218 1.1826 109.894 1.60064C107.738 2.01504 105.795 3.52683 103.998 4.54562C103.016 5.05683 102.034 5.56805 101.219 6.07562C100.238 6.58684 99.5691 6.60142 98.3838 6.25993C94.4882 5.12041 91.3814 2.86163 87.0209 2.5894C82.4933 2.32081 79.4118 4.59213 75.9752 6.38139C74.8314 7.01859 74.9933 6.89261 73.7976 6.30644C72.7741 5.83897 71.9177 5.36785 70.8943 4.90037C68.8473 3.96543 66.8004 3.03048 64.4452 2.7145C62.0953 2.52086 60.1211 3.29862 57.9799 4.08003C56.8257 4.47256 55.6715 4.86509 54.5173 5.25761C53.3631 5.65014 51.5613 6.54659 50.0625 6.70174C48.0572 6.74548 45.4933 5.45446 43.7858 4.63456C41.906 3.69596 40.3396 2.26073 37.9844 1.94475C35.7964 1.62513 33.6499 2.2842 32.0204 3.29935C30.2237 4.31814 28.6202 5.94497 26.2599 5.50666C23.9047 5.19068 22.0093 3.88508 19.9676 3.07246C17.7535 2.14116 15.3827 1.45818 12.6986 1.27183C7.83153 0.888194 2.87537 2.34326 0.336767 5.58233C-1.24596 7.69851 3.17693 9.43878 4.75966 7.3226C6.97964 4.45783 11.8259 4.35211 15.5595 5.61762C19.2932 6.88313 22.4052 9.26424 26.7553 9.2918C28.7658 9.37039 30.578 8.71861 32.218 7.94814C33.5237 7.18496 35.78 5.17654 37.4823 5.87411C39.1795 6.44934 40.7406 7.76223 42.4482 8.58213C44.3228 9.39839 46.5316 10.2074 48.5474 10.4083C50.7302 10.6056 52.5424 9.95379 54.5218 9.29836C56.9973 8.50967 59.4572 7.35396 61.9378 6.6876C64.0895 6.15086 66.152 7.45282 67.8543 8.15038C69.5618 8.97029 71.4625 10.3982 73.6453 10.5955C77.5149 11.1234 80.5444 7.62867 83.6779 6.58072C87.3076 5.39949 90.9209 7.76967 93.9809 8.92742C95.8556 9.74368 98.0592 10.4303 100.221 10.1382C102.55 9.84254 104.499 8.4531 106.295 7.43431C107.277 6.92309 108.734 5.78925 109.894 5.51906C110.061 5.51542 110.379 5.14111 110.379 5.14111C110.714 5.13382 111.915 5.84233 112.254 5.95737C114.646 7.1297 117.204 8.29839 119.596 9.47072C119.596 9.47072 119.763 9.46708 119.768 9.58941C120.624 10.0605 121.967 10.1537 122.938 9.39782C124.406 8.50865 125.706 7.62313 127.174 6.73397C127.821 6.23004 128.641 5.84481 129.289 5.34088C129.78 5.08527 130.746 4.20704 131.409 4.07012C132.741 3.91863 135.154 5.5803 136.177 6.04778C137.712 6.74899 139.08 7.45385 140.615 8.15506C143.007 9.32739 145.926 11.1005 148.527 9.32943C149.827 8.44391 150.778 7.19868 151.739 6.19811C152.382 5.57185 153.186 4.8196 153.828 4.19334C158.1 6.30427 162.528 8.16687 167.269 9.53284C170.147 10.3272 171.766 9.06741 173.714 7.67797C174.685 6.92207 175.647 5.92151 176.796 5.40665C177.777 4.89543 177.119 5.15468 177.97 5.50347C178.482 5.7372 179.177 6.3343 179.694 6.69038C180.9 7.52122 181.939 8.3557 183.14 9.0642C184.001 9.65766 185.04 10.4921 186.226 10.8336C188.931 11.5093 190.534 9.8825 192.326 8.74138C193.464 7.98184 194.603 7.2223 195.909 6.45912C195.909 6.45912 196.89 5.9479 197.381 5.69229C197.554 5.81099 197.726 5.92968 197.898 6.04837C200.306 7.58771 202.875 9.00107 205.282 10.5404C208.19 12.0688 211.59 9.4232 209.183 7.88385Z" fill="#F7C300"/>
</svg>
