<svg width="149" height="15" viewBox="0 0 149 15" fill="none" xmlns="http://www.w3.org/2000/svg">
<path d="M148.42 10.7507C146.713 8.65161 144.89 6.7243 143.182 4.6252C141.478 2.69292 140.27 1.74169 138.295 3.66125C136.668 5.23224 134.696 7.31862 133.44 9.54199C133.322 9.54696 133.318 9.38014 133.199 9.38511C132.947 8.72776 132.343 8.25215 131.977 7.76659C131.121 6.63363 130.384 5.4957 129.532 4.52956C128.187 2.74919 126.731 1.30743 124.859 2.55473C122.984 3.6352 121.858 6.35407 120.357 8.25374C120.242 8.42553 120.127 8.59732 120.012 8.76912C120.361 8.42056 120.235 8.09188 119.76 8.11177C119.394 7.62621 118.797 7.48424 118.315 7.17048C117.471 6.53799 116.626 5.90549 115.781 5.273C113.851 3.85113 112.032 2.09064 110.213 0.330157C109.605 -0.312279 108.545 0.0661037 108.086 0.753278C107.289 2.28948 106.488 3.65885 105.692 5.19505C105.236 6.04905 104.78 6.90305 104.324 7.75704C104.209 7.92884 104.094 8.10063 103.983 8.43925C103.868 8.61104 103.868 8.61104 103.868 8.61104C102.786 7.98849 101.808 6.69367 100.838 5.7325C99.7484 4.77631 98.6555 3.65329 97.4476 2.70206C95.3877 0.784691 93.3499 -0.13174 91.1487 2.29822C89.5293 4.20286 88.0285 6.10253 86.4091 8.00717C85.0753 6.72727 83.7452 5.61419 82.2928 4.33926C80.9628 3.22618 79.6216 1.61264 77.9727 2.1827C76.4424 2.74779 75.0638 4.80931 73.789 6.19857C73.0924 6.89568 72.3957 7.5928 71.8176 8.28494C71.121 8.98206 70.6467 9.00194 69.8056 8.53627C67.0416 6.98237 64.8373 3.90222 61.7434 3.53099C58.531 3.16474 56.3445 6.26199 53.9062 8.7019C53.0947 9.57081 53.2096 9.39901 52.3611 8.5997C51.6349 7.96223 51.0273 7.31979 50.3012 6.68233C48.8488 5.4074 47.3965 4.13247 45.7254 3.70159C44.0581 3.43754 42.6574 4.49812 41.1381 5.56368C40.3192 6.09894 39.5003 6.63421 38.6813 7.16947C37.8624 7.70474 36.584 8.92717 35.5205 9.13873C34.0977 9.19838 32.2786 7.4379 31.0671 6.31985C29.7333 5.03995 28.6219 3.08281 26.9508 2.65194C25.3984 2.21609 23.8754 3.11482 22.7192 4.49911C21.4445 5.88837 20.3067 8.10678 18.632 7.50908C16.961 7.0782 15.6161 5.29783 14.1675 4.18972C12.5965 2.91976 10.9144 1.98842 9.00993 1.73431C5.55666 1.21117 2.04015 3.19535 0.238944 7.61227C-0.88404 10.498 2.25411 12.8711 3.37709 9.98537C4.95222 6.07886 8.39074 5.9347 11.0399 7.66039C13.689 9.38608 15.897 12.6331 18.9835 12.6706C20.41 12.7778 21.6958 11.889 22.8594 10.8384C23.7858 9.79767 25.3868 7.05892 26.5946 8.01014C27.7988 8.79455 28.9065 10.5849 30.118 11.7029C31.4481 12.816 33.0153 13.9191 34.4455 14.1931C35.9943 14.4621 37.2801 13.5734 38.6845 12.6796C40.4409 11.6041 42.1863 10.0281 43.9464 9.11945C45.473 8.38754 46.9364 10.1629 48.1443 11.1142C49.3558 12.2322 50.7043 14.1794 52.2531 14.4484C54.9986 15.1682 57.1482 10.4027 59.3715 8.97371C61.9468 7.36294 64.5106 10.595 66.6817 12.1738C68.0118 13.2868 69.5753 14.2232 71.1094 13.8249C72.762 13.4216 74.1442 11.5269 75.419 10.1377C76.1156 9.44057 77.1496 7.89443 77.9722 7.52599C78.0907 7.52102 78.3168 7.01061 78.3168 7.01061C78.5539 7.00067 79.4061 7.96681 79.6469 8.12369C81.3438 9.72232 83.1592 11.316 84.8561 12.9146C84.8561 12.9146 84.9746 12.9096 84.9783 13.0765C85.5859 13.7189 86.5382 13.846 87.2275 12.8152C88.2688 11.6027 89.1915 10.3952 90.2328 9.18269C90.6923 8.49551 91.2741 7.97019 91.7336 7.28302C92.082 6.93446 92.7676 5.73688 93.2382 5.55017C94.183 5.34358 95.8946 7.60951 96.6208 8.24697C97.7101 9.20317 98.6808 10.1643 99.77 11.1205C101.467 12.7192 103.538 15.137 105.383 12.722C106.306 11.5144 106.981 9.81638 107.663 8.45197C108.118 7.59798 108.689 6.57219 109.145 5.71819C112.176 8.59672 115.317 11.1366 118.682 12.9993C120.723 14.0826 121.872 12.3647 123.254 10.47C123.943 9.43919 124.625 8.07479 125.441 7.3727C126.137 6.67558 125.67 7.02911 126.274 7.50473C126.637 7.82346 127.13 8.63769 127.497 9.12324C128.353 10.2562 129.09 11.3941 129.942 12.3603C130.553 13.1695 131.291 14.3075 132.132 14.7731C134.051 15.6945 135.189 13.4761 136.46 11.9201C137.268 10.8843 138.075 9.8486 139.002 8.80789C139.002 8.80789 139.698 8.11078 140.047 7.76222C140.169 7.92407 140.291 8.08592 140.414 8.24778C142.122 10.3469 143.944 12.2742 145.652 14.3733C147.716 16.4575 150.128 12.8498 148.42 10.7507Z" fill="#59C69F"/>
</svg>
