<svg width="176" height="13" viewBox="0 0 176 13" fill="none" xmlns="http://www.w3.org/2000/svg">
<path d="M175.315 9.31728C173.298 7.49806 171.145 5.82773 169.128 4.00851C167.114 2.33386 165.688 1.50947 163.355 3.17308C161.433 4.53461 159.105 6.3428 157.621 8.26972C157.48 8.27403 157.476 8.12945 157.336 8.13376C157.039 7.56406 156.325 7.15186 155.892 6.73105C154.881 5.74915 154.01 4.76294 153.004 3.92562C151.415 2.38263 149.695 1.13311 147.485 2.2141C145.27 3.1505 143.939 5.50686 142.167 7.15324C142.031 7.30213 141.895 7.45101 141.759 7.5999C142.171 7.29782 142.022 7.01297 141.462 7.0302C141.029 6.60938 140.324 6.48634 139.755 6.21442C138.757 5.66626 137.759 5.11809 136.762 4.56993C134.482 3.33765 132.333 1.81189 130.184 0.286136C129.466 -0.270642 128.214 0.0572899 127.672 0.652841C126.731 1.98421 125.785 3.17101 124.844 4.50238C124.305 5.24251 123.767 5.98264 123.229 6.72277C123.093 6.87166 122.957 7.02055 122.826 7.31401C122.69 7.4629 122.69 7.4629 122.69 7.4629C121.412 6.92336 120.257 5.80118 119.11 4.96817C117.824 4.13946 116.533 3.16618 115.106 2.34178C112.673 0.680066 110.266 -0.114175 107.666 1.99179C105.753 3.64248 103.98 5.28886 102.067 6.93955C100.492 5.8303 98.9205 4.86563 97.205 3.76069C95.6339 2.79603 94.0497 1.39762 92.102 1.89167C90.2943 2.38141 88.666 4.16807 87.1602 5.37209C86.3373 5.97626 85.5144 6.58042 84.8316 7.18028C84.0087 7.78445 83.4484 7.80168 82.455 7.3981C79.1901 6.05139 76.5863 3.38192 72.9318 3.06019C69.1372 2.74277 66.5546 5.42706 63.6745 7.54164C62.7159 8.2947 62.8516 8.14581 61.8494 7.45307C60.9916 6.9006 60.2739 6.34382 59.4161 5.79135C57.7006 4.68641 55.9851 3.58147 54.0112 3.20805C52.0418 2.9792 50.3872 3.89837 48.5927 4.82186C47.6254 5.28575 46.658 5.74965 45.6907 6.21354C44.7234 6.67744 43.2133 7.73688 41.9571 7.92024C40.2765 7.97193 38.1277 6.44618 36.6967 5.4772C35.1212 4.36795 33.8084 2.67177 31.8346 2.29835C30.0008 1.92061 28.2018 2.69951 26.8361 3.89923C25.3304 5.10326 23.9865 7.02587 22.0083 6.50787C20.0344 6.13444 18.4459 4.59145 16.7347 3.63109C14.8791 2.53046 12.8922 1.7233 10.6426 1.50307C6.56357 1.04968 2.40984 2.7693 0.282243 6.5973C-1.04424 9.09823 2.66257 11.1549 3.98905 8.65398C5.8496 5.26834 9.91121 5.14341 13.0404 6.63901C16.1695 8.1346 18.7777 10.9486 22.4235 10.9812C24.1085 11.0741 25.6273 10.3038 27.0017 9.39326C28.096 8.49131 29.9871 6.11773 31.4138 6.94213C32.8361 7.62194 34.1445 9.17354 35.5756 10.1425C37.1467 11.1072 38.9979 12.0632 40.6873 12.3007C42.5168 12.5339 44.0356 11.7636 45.6945 10.989C47.7691 10.0569 49.8308 8.69104 51.9098 7.90352C53.7131 7.2692 55.4417 8.80788 56.8684 9.63227C58.2994 10.6012 59.8923 12.2888 61.7218 12.522C64.9648 13.1458 67.5039 9.0157 70.1301 7.77721C73.1721 6.38122 76.2004 9.18234 78.765 10.5506C80.3361 11.5153 82.183 12.3267 83.995 11.9816C85.947 11.6321 87.5798 9.99002 89.0855 8.786C89.9084 8.18183 91.1297 6.84184 92.1014 6.52253C92.2414 6.51822 92.5085 6.07586 92.5085 6.07586C92.7886 6.06725 93.7951 6.90457 94.0796 7.04053C96.0839 8.42601 98.2283 9.80719 100.233 11.1927C100.233 11.1927 100.373 11.1884 100.377 11.3329C101.095 11.8897 102.22 11.9998 103.034 11.1065C104.264 10.0557 105.354 9.00916 106.584 7.95833C107.127 7.36278 107.814 6.9075 108.357 6.31195C108.768 6.00986 109.578 4.97196 110.134 4.81015C111.25 4.6311 113.272 6.5949 114.129 7.14737C115.416 7.97608 116.563 8.80909 117.849 9.6378C119.854 11.0233 122.3 13.1187 124.48 11.0257C125.57 9.97917 126.366 8.50753 127.172 7.32504C127.71 6.58491 128.384 5.69589 128.923 4.95576C132.503 7.45049 136.214 9.65176 140.188 11.2661C142.599 12.2049 143.956 10.716 145.589 9.07396C146.403 8.18063 147.209 6.99815 148.171 6.38967C148.994 5.78551 148.443 6.0919 149.156 6.5041C149.585 6.78033 150.167 7.486 150.6 7.90681C151.611 8.88871 152.482 9.87492 153.489 10.7122C154.211 11.4136 155.082 12.3998 156.075 12.8034C158.342 13.6019 159.686 11.6793 161.187 10.3307C162.142 9.43308 163.096 8.53545 164.19 7.63351C164.19 7.63351 165.013 7.02934 165.424 6.72726C165.569 6.86753 165.713 7.0078 165.858 7.14807C167.875 8.96729 170.028 10.6376 172.046 12.4568C174.483 14.2631 177.333 11.1365 175.315 9.31728Z" fill="#F7C300"/>
</svg>
