<svg width="65" height="63" viewBox="0 0 65 63" fill="none" xmlns="http://www.w3.org/2000/svg">
<path d="M56.8463 21.6993C56.458 20.6118 55.1322 19.9092 54.2405 20.9956C54.0626 21.1164 53.9171 21.2787 53.8153 21.4789C52.8867 22.5452 51.7735 23.3955 50.404 23.8464C50.2485 23.8978 49.538 23.984 48.9585 24.0691C48.9607 23.9807 48.9629 23.8922 48.964 23.8027C48.9752 23.3406 48.9865 22.8786 48.9965 22.4154C49.0245 21.2261 47.5163 20.2113 46.4713 20.9665C45.0627 21.9835 43.5153 23.1907 41.6793 22.6951C39.8735 22.2073 38.6349 20.6733 37.3113 19.4672C35.9989 18.2723 34.4203 17.3292 32.5798 17.5171C30.5759 17.7219 29.8319 19.3721 28.298 20.3679C26.7115 21.3972 24.7032 21.6009 22.8683 21.3077C21.8479 21.1444 20.8689 20.8222 19.9011 20.4742C19.062 20.1721 18.3146 19.9137 17.4576 20.3232C16.6945 20.6868 16.2683 21.4498 16.2571 22.2912C16.2504 22.8394 16.8243 23.8273 16.529 24.342C15.899 25.4373 12.7965 22.807 12.1017 22.3416C11.7001 22.073 11.2111 22.0551 10.7703 22.1995C9.80697 22.2375 8.79218 23.052 9.0372 24.2928C9.43998 26.3324 10.4995 28.2434 12.0715 29.6163C12.6499 30.122 13.4499 30.6377 14.2678 30.9118C14.5374 31.2206 14.9424 31.422 15.4806 31.4131C23.9066 31.2754 32.3336 31.1379 40.7596 31.0003C44.4641 30.9398 48.5221 31.2621 52.0028 29.7651C54.9229 28.5086 57.3005 25.6332 57.0174 22.3214C56.9973 22.0865 56.9335 21.8828 56.8463 21.6993Z" fill="#F7C300"/>
<path d="M56.8463 6.92685C56.458 5.83934 55.1322 5.13674 54.2405 6.22314C54.0626 6.34397 53.9171 6.50621 53.8153 6.70648C52.8867 7.77273 51.7735 8.62301 50.404 9.0739C50.2485 9.12537 49.538 9.21156 48.9585 9.29659C48.9607 9.20821 48.9629 9.11978 48.964 9.03027C48.9752 8.56819 48.9865 8.10612 48.9965 7.64292C49.0245 6.4536 47.5163 5.43883 46.4713 6.19405C45.0627 7.21107 43.5153 8.41828 41.6793 7.92263C39.8735 7.43482 38.6349 5.90088 37.3113 4.69477C35.9989 3.49985 34.4203 2.5567 32.5798 2.74466C30.5759 2.94941 29.8319 4.59966 28.298 5.59543C26.7115 6.62476 24.7032 6.82842 22.8683 6.53528C21.8479 6.37193 20.8689 6.04971 19.9011 5.70175C19.062 5.39967 18.3146 5.14121 17.4576 5.5507C16.6945 5.91432 16.2683 6.67741 16.2571 7.51877C16.2504 8.067 16.8243 9.05488 16.529 9.56954C15.899 10.6649 12.7965 8.03454 12.1017 7.5691C11.7001 7.30058 11.2111 7.28266 10.7703 7.42699C9.80697 7.46503 8.79218 8.27952 9.0372 9.52031C9.43998 11.5599 10.4995 13.471 12.0715 14.8438C12.6499 15.3495 13.4499 15.8653 14.2678 16.1394C14.5374 16.4482 14.9424 16.6496 15.4806 16.6406C23.9066 16.503 32.3336 16.3654 40.7596 16.2278C44.4641 16.1674 48.5221 16.4896 52.0028 14.9926C54.9229 13.7361 57.3005 10.8607 57.0174 7.54896C56.9973 7.31512 56.9335 7.11034 56.8463 6.92685Z" fill="#F7C300"/>
<path d="M62.4505 57.3961C61.9996 58.6123 60.9927 59.5577 59.8034 60.0299C59.9791 57.7005 60.0238 55.3409 59.791 53.0159C59.6333 51.4361 58.9396 50.3385 57.2703 50.1204C55.0897 49.8351 52.7659 49.9962 50.5405 50.0219C50.2988 46.1362 50.1746 42.2449 50.1556 38.3513C50.4353 37.953 50.4353 37.3757 50.1523 36.9785C50.1534 36.0734 50.1646 35.1671 50.1769 34.2619C52.4023 33.8782 54.4844 32.7706 56.0866 31.1662C58.1307 29.1209 59.3749 26.3619 59.856 23.5323C60.4053 22.6328 59.0224 21.4412 58.0188 22.24C55.4399 24.2897 52.3966 25.3169 49.1677 25.5955C49.3825 24.7698 49.4989 23.9161 49.5078 23.0288C49.5157 22.2345 48.53 21.5621 47.824 22.0633C46.8349 22.7659 45.7966 23.219 44.7505 23.4596C44.746 23.4193 44.7404 23.3802 44.736 23.3399C44.708 23.0859 44.6834 22.8308 44.6632 22.5757C44.6241 22.0845 44.6006 21.5933 44.5905 21.1011C44.5838 20.7598 44.5939 20.4197 44.6017 20.0784C46.3314 20.093 48.0612 20.1031 49.7909 20.1366C49.9889 20.2205 50.2116 20.2642 50.4756 20.1993C51.8059 19.8726 53.0076 19.1073 54.1566 18.3856C55.318 17.6562 56.3696 16.8148 57.1886 15.7061C58.6744 13.6933 59.131 11.1334 59.5181 8.72002C59.6143 8.12368 59.3648 7.51617 58.7371 7.34387C58.7069 7.33604 58.6711 7.34387 58.6398 7.33827C58.1911 7.16933 57.6742 7.25431 57.3968 7.8182C56.6561 9.32304 54.6243 9.86126 53.1272 10.2517C52.1908 10.4956 51.2387 10.6579 50.2731 10.7205C50.0169 10.7373 49.7439 10.7328 49.4675 10.7272C49.6958 9.99438 49.8301 9.23133 49.8659 8.46046C49.8927 7.8753 49.3311 7.31589 48.747 7.34162C48.4886 7.35281 48.2693 7.45238 48.0858 7.59224C47.9191 7.63699 47.7535 7.71309 47.6002 7.85965C46.666 8.74801 45.1421 8.53875 43.9718 8.39442C42.3764 8.19751 40.7663 7.92454 39.2447 7.39085C36.6278 6.47229 34.1495 4.24802 34.4941 1.24394C34.5053 1.14772 34.493 1.05483 34.4718 0.965323C34.4035 -0.103167 32.6537 -0.44776 32.2733 0.778486C31.3413 3.78704 30.2 7.39641 27.0863 8.81733C25.6352 9.47968 23.9759 9.50435 22.414 9.38911C21.6062 9.32981 20.7929 9.23918 19.9963 9.08926C19.4178 8.98073 18.6548 8.84756 18.2855 8.33289C17.5281 7.27559 15.8543 8.11025 16.2 9.15413C16.1978 9.17874 16.1855 9.1989 16.1844 9.22351C16.1631 10.0257 16.2817 10.829 16.5088 11.6021C16.1721 11.5585 15.8342 11.5171 15.503 11.4421C14.6012 11.2396 13.7151 10.9734 12.8502 10.6478C11.1574 10.0112 9.5821 9.09369 8.13432 8.01289C8.09293 7.97485 8.04707 7.94804 8.00119 7.91784C7.97322 7.89658 7.94411 7.87866 7.91614 7.8574C7.89265 7.8395 7.86133 7.8406 7.83559 7.82606C7.78413 7.80256 7.73489 7.78019 7.68007 7.76453C7.57714 7.72984 7.47645 7.70968 7.36792 7.71304C7.30415 7.7108 7.24374 7.72426 7.18108 7.73209C7.13857 7.74104 7.0983 7.73881 7.0569 7.75224C6.6586 7.84174 6.33301 8.12702 6.26476 8.607C6.25692 8.64952 6.2435 8.69096 6.24126 8.73347C6.24015 8.75361 6.23007 8.76701 6.23119 8.78715C6.30951 13.7693 9.37959 18.1585 13.9355 20.0236C14.1111 20.2821 14.392 20.4678 14.806 20.4577C16.7751 20.4096 18.7454 20.3638 20.7134 20.319C20.7324 20.4622 20.7492 20.6054 20.766 20.7486C20.8432 21.4356 20.8913 22.1248 20.926 22.8152C20.6832 22.7671 20.4359 22.7402 20.1954 22.6853C19.7646 22.5869 18.5306 22.4739 18.3359 22.0129C17.838 20.8325 16.2974 21.0205 16.1385 22.3105C16.0221 23.2537 15.9908 24.1868 16.0031 25.1267C12.5056 25.1826 9.32589 23.4596 6.33188 21.7746C5.64827 21.3897 5.01612 21.7925 4.77221 22.3475C4.58536 22.5265 4.46342 22.7816 4.47461 23.124C4.5753 26.0777 5.66952 28.9811 7.91727 30.9681C9.75552 32.5927 12.0178 33.5548 14.2969 34.3962C14.2745 34.9165 14.3215 35.4557 14.3249 35.9167C14.3417 37.9631 14.3584 40.0106 14.3741 42.0569C14.3853 43.4958 16.6229 43.4991 16.6118 42.0569C16.605 41.2346 16.5984 40.4122 16.5916 39.5899C17.9846 39.5205 19.3787 39.4668 20.7716 39.4064C20.7582 42.8916 20.7447 46.3767 20.7302 49.8608L17.0291 49.8396C17.0895 48.5988 17.0067 47.3624 16.8042 46.134C16.7606 45.8744 16.5077 45.5924 16.2907 45.4649C16.0512 45.325 15.6977 45.2646 15.428 45.3518C15.1573 45.4391 14.8955 45.607 14.759 45.8665C14.6102 46.1485 14.5945 46.4159 14.646 46.7292C14.6616 46.8231 14.675 46.9171 14.6885 47.0122C14.8071 47.9464 14.8294 48.8874 14.7836 49.8272C13.8393 49.8216 12.8961 49.8161 11.9518 49.8105C10.5119 49.8015 10.5096 52.0392 11.9518 52.0481C20.9473 52.1007 29.9427 52.1521 38.9382 52.2047C43.39 52.2305 47.8419 52.2562 52.2926 52.282C53.4059 52.2887 54.518 52.2954 55.6312 52.3009C56.1325 52.3043 56.7389 52.1824 57.1763 52.4733C57.6697 52.8011 57.5679 53.2229 57.6059 53.8204C57.7469 55.9808 57.7112 58.1413 57.54 60.2996C57.4404 60.285 57.3397 60.285 57.2401 60.2626C55.149 59.7927 53.4517 58.1782 51.2096 58.2677C48.9014 58.3583 47.3988 60.718 45.028 60.1317C42.636 59.5399 40.7126 57.6893 38.1057 57.9198C36.009 58.1044 34.7045 60.4427 32.5518 59.6137C30.774 58.929 29.2613 57.592 27.2597 57.5852C26.3367 57.5819 25.4606 57.8829 24.6226 58.242C23.6325 58.6672 22.4868 59.4694 21.3657 59.4123C20.323 59.3597 19.5084 58.4412 18.6134 57.9948C17.5639 57.4711 16.3734 57.2026 15.1987 57.2451C14.0172 57.2876 12.9386 57.6479 11.8836 58.1581C10.7144 58.7231 9.45568 59.673 8.08734 59.5332C6.89018 59.4112 5.83958 58.5027 4.80577 57.9612C3.84134 57.4566 2.85566 57.1254 1.75584 57.1836C0.32373 57.2608 0.31366 59.4984 1.75584 59.4212C3.93086 59.3049 5.56884 61.4273 7.71141 61.7204C10.1975 62.0606 11.9093 60.2469 14.1581 59.6461C15.5041 59.287 16.8814 59.5275 18.0595 60.2548C19.0083 60.8399 19.8452 61.5068 20.9965 61.622C23.3281 61.8559 25.031 59.8173 27.2597 59.8229C29.3139 59.8285 30.9642 61.7361 32.9916 62.0427C33.8407 62.1714 34.6776 62.0584 35.4552 61.6802C36.7497 61.0492 37.5743 59.9248 39.1675 60.1855C41.6849 60.5983 43.6317 62.6704 46.3113 62.4903C48.709 62.3292 50.2037 59.8934 52.6965 60.7717C55.159 61.6399 57.0835 63.0866 59.8257 62.3817C62.0735 61.8032 63.8043 60.1373 64.6009 57.9892C65.11 56.6398 62.9484 56.0558 62.4505 57.3961ZM54.9487 12.0385C55.5473 11.8326 56.1616 11.5977 56.7445 11.3079C56.4625 12.3685 56.0687 13.3912 55.4499 14.3053C54.8335 15.2149 53.9473 15.8739 53.0288 16.4523C52.1583 17.0005 51.2543 17.5857 50.2675 17.9112C50.253 17.9101 50.244 17.9023 50.2283 17.9023C48.3767 17.862 46.525 17.8564 44.6733 17.8408C44.6599 17.7803 44.6252 17.7278 44.6006 17.6707C44.9407 17.4145 45.2708 17.1437 45.5875 16.8528C46.2509 16.2431 46.8383 15.5583 47.3686 14.8311C47.6327 14.4697 47.8743 14.0938 48.097 13.7066C48.3398 13.2848 48.3465 13.0175 48.8354 12.9906C50.941 12.8732 52.9326 12.7311 54.9487 12.0385ZM20.5042 18.0869C18.7857 18.1272 17.0683 18.1663 15.3508 18.2077C15.3038 18.1842 15.2725 18.1496 15.2188 18.1306C12.0066 17.0319 9.65596 14.3456 8.82243 11.149C9.79023 11.7219 10.7972 12.2264 11.85 12.6482C13.6614 13.3733 15.4694 13.6339 17.3636 13.9998C17.4061 14.0076 17.4285 13.9987 17.4431 13.9864C17.4464 14.0132 17.4531 14.0479 17.4654 14.0927C17.5068 14.2583 17.6075 14.4339 17.6803 14.5883C17.8582 14.9654 18.0629 15.3312 18.2934 15.6781C18.7611 16.3818 19.3115 17.0397 19.9392 17.6058C20.1227 17.7714 20.3218 17.9135 20.5165 18.0645C20.5132 18.0746 20.5064 18.0802 20.5042 18.0869ZM19.6673 13.5736C19.5677 13.3688 19.4771 13.1707 19.3798 12.9861C19.4021 12.7668 19.3798 12.5431 19.2534 12.3384C19.099 12.0855 18.9703 11.8192 18.8494 11.5496C18.7857 11.3862 18.7364 11.2195 18.6861 11.0528C19.5241 11.3124 20.4359 11.4175 21.3332 11.5227C23.3662 11.761 25.5188 11.8046 27.4634 11.0718C30.2705 10.0145 31.9119 7.70972 33.0609 5.12409C34.1786 7.13576 36.2619 8.66072 38.4123 9.46293C40.2562 10.151 42.2454 10.4385 44.1933 10.6589C45.1958 10.7719 46.2196 10.7719 47.1683 10.528C47.1594 10.5515 47.1527 10.5761 47.1437 10.6008C46.986 10.9565 46.8125 11.3034 46.6033 11.6312C46.5172 11.7655 46.4769 11.9199 46.4635 12.0788C46.3169 12.3205 46.1781 12.5688 46.0327 12.8093C45.6187 13.4963 45.1366 14.1285 44.5827 14.708C43.4158 15.9298 41.9903 16.8842 40.4072 17.476C40.1969 17.5543 40.0492 17.683 39.9295 17.8262C38.0767 17.8285 36.2239 17.8273 34.3722 17.8464C34.1887 17.4481 34.0175 17.0431 33.8833 16.6179C33.5129 15.4353 31.6803 15.621 31.6859 16.9155C31.687 17.2377 31.6612 17.5588 31.6142 17.8744C29.5455 17.9034 27.4768 17.9471 25.4081 17.9885C25.295 17.9034 25.1574 17.8341 24.9885 17.7949C23.4445 17.4313 22.0762 16.6604 20.9864 15.5024C20.446 14.9285 20.0097 14.2795 19.6673 13.5736ZM42.5531 23.6587C39.9507 23.539 37.4926 22.1774 35.773 20.0763C37.9737 20.0583 40.1745 20.046 42.3752 20.0539C42.3551 21.2566 42.4144 22.4582 42.5531 23.6587ZM22.9422 20.2675C25.5681 20.2093 28.1928 20.1635 30.8187 20.1243C30.068 21.4434 28.8731 22.4951 27.3559 22.9516C26.0077 23.3566 24.5555 23.3141 23.1547 23.1653C23.1603 23.1139 23.1849 23.0702 23.1827 23.0165C23.1424 22.098 23.0552 21.1805 22.9422 20.2675ZM18.2374 24.4867C19.1213 24.8335 20.135 24.9778 21.0737 25.1333C23.242 25.4936 25.549 25.7442 27.7062 25.1803C30.2459 24.5169 32.2083 22.635 33.2008 20.3067C36.1668 24.8693 41.8785 27.305 46.9994 25.0774C46.8193 25.7532 46.5496 26.4055 46.1815 27.0488C46.1524 27.1003 46.1525 27.1484 46.1323 27.1987C45.8862 27.578 45.6434 27.9595 45.3323 28.3008C44.2191 29.5169 42.8194 30.3651 41.234 30.8081C40.7216 30.9513 40.4822 31.3384 40.4508 31.7491C38.3004 31.7435 36.15 31.7446 33.9996 31.768V26.5185C33.9996 25.9334 33.485 25.3728 32.8808 25.3997C32.2744 25.4265 31.7619 25.8908 31.7619 26.5185V31.7904C29.8532 31.8218 27.9445 31.8654 26.0369 31.9224C25.2503 31.9459 24.4638 31.9807 23.6772 32.0086C23.5955 31.852 23.4747 31.7054 23.2979 31.5857C21.2281 30.1905 19.5275 28.3679 18.2117 26.26C18.2307 26.1672 18.2609 26.081 18.2554 25.9702C18.2263 25.4723 18.2285 24.9801 18.2374 24.4867ZM43.0007 36.6104C36.3391 36.6697 29.6798 36.8062 23.0238 37.0713C23.0272 36.1349 23.0305 35.1984 23.035 34.2631C24.8621 34.196 26.6891 34.1389 28.5162 34.0942C33.3317 33.9778 38.1471 33.9744 42.9637 34.0214C42.9761 34.8852 42.9873 35.7478 43.0007 36.6104ZM15.4694 32.4506C13.4242 31.7155 11.2906 30.92 9.62461 29.4946C8.13097 28.2158 7.24036 26.5084 6.88905 24.6333C9.80362 26.1929 12.9252 27.5153 16.2593 27.3598C17.3726 29.16 18.7342 30.7723 20.3386 32.1339C19.391 32.1753 18.4444 32.2189 17.4968 32.2659C16.8579 32.2961 16.0893 32.238 15.4694 32.4506ZM20.785 37.1698C19.3831 37.2313 17.9801 37.284 16.5782 37.3545C16.5771 37.1553 16.5748 36.955 16.5737 36.7558C16.5681 36.0208 16.5637 35.2857 16.5558 34.5506C16.6867 34.5439 16.8165 34.5372 16.9474 34.5305C17.3144 34.5114 17.6814 34.4936 18.0483 34.4757C18.9635 34.4309 19.881 34.3974 20.7962 34.3593C20.7929 35.2958 20.7895 36.2333 20.785 37.1698ZM45.0537 50.0052V46.003C45.0537 45.4179 44.539 44.8574 43.9349 44.8842C43.3285 44.9111 42.816 45.3754 42.816 46.003V49.9928L42.2846 49.9895L22.9735 49.8776C22.988 46.3555 23.0015 42.8334 23.0149 39.3113C29.6843 39.045 36.3581 38.9085 43.032 38.8492C43.0454 39.7745 43.0588 40.6997 43.0723 41.625C43.0935 43.0638 45.3312 43.0683 45.3099 41.625C45.2965 40.6919 45.2831 39.7588 45.2696 38.8246C46.1546 38.8201 47.0397 38.7966 47.9258 38.7955C47.9504 42.5413 48.0712 46.285 48.304 50.0241L45.0537 50.0052ZM45.2014 34.0438C46.0305 34.0561 46.8596 34.055 47.6886 34.0684C47.7557 34.1479 47.8486 34.2049 47.9414 34.2608C47.9314 35.0261 47.9291 35.7914 47.9269 36.5567C47.0307 36.5578 46.1346 36.5813 45.2384 36.5858C45.2249 35.7388 45.2137 34.8918 45.2014 34.0438ZM49.1878 31.8553C47.6371 31.8195 46.0865 31.8084 44.5357 31.7894C45.1422 31.4268 45.7228 31.0185 46.2542 30.5396C46.8841 29.9724 47.4369 29.3167 47.9135 28.6174C48.003 28.4876 48.4718 27.8096 48.2525 27.8958V27.8947C48.5467 27.7582 49.2717 27.8644 49.6051 27.8365C52.2422 27.6161 54.7429 26.8206 57.013 25.5496C56.4827 26.9973 55.7051 28.3467 54.6187 29.4678C53.3208 30.8081 51.6359 31.7435 49.8099 32.0579C49.6477 31.9404 49.4429 31.862 49.1878 31.8553Z" fill="black"/>
<path d="M8.5807 49.7969C6.4605 49.8193 4.34367 49.9368 2.23466 50.1505C1.65398 50.2086 1.08673 50.6226 1.11582 51.2693C1.14043 51.8254 1.61035 52.4508 2.23466 52.3881C4.34367 52.1744 6.46162 52.057 8.5807 52.0346C9.16585 52.029 9.72639 51.5244 9.69954 50.9158C9.67269 50.315 9.20837 49.7902 8.5807 49.7969Z" fill="black"/>
<path d="M42.6248 11.4515C40.1857 11.6104 37.8787 11.0722 35.7864 9.82919C35.2673 9.52039 34.5591 9.71172 34.2559 10.2309C33.9482 10.7578 34.1361 11.4527 34.6575 11.7615C37.044 13.179 39.8534 13.8693 42.6248 13.6892C43.2077 13.6511 43.7716 13.2014 43.7436 12.5704C43.719 11.9964 43.2502 11.4101 42.6248 11.4515Z" fill="black"/>
</svg>
