<svg width="72" height="42" viewBox="0 0 72 42" fill="none" xmlns="http://www.w3.org/2000/svg">
<path d="M66.3941 10.5651C66.2908 9.47906 65.2926 8.99435 64.4602 9.11707C64.3047 9.09355 64.1411 9.08429 63.9662 9.10883C58.5123 9.88914 52.9877 9.33382 47.7537 7.64947C43.1117 6.15635 38.436 4.25214 33.5333 5.17154C32.8358 2.72528 30.9448 0.649234 28.3544 0.13278C25.1779 -0.50026 21.9882 1.18203 20.6014 4.0752C20.2527 4.80232 20.0952 5.26355 19.2229 5.31366C18.3935 5.36173 17.5804 5.26462 16.7613 5.46915C16.0065 5.65732 15.2968 6.05514 14.8161 6.67079C14.5758 6.97964 14.4316 7.30586 14.3027 7.673C14.3355 7.57993 14.2496 8.124 14.3283 8.02991C14.2444 8.12911 13.8763 8.15979 13.7525 8.20069C12.149 8.72942 11.385 9.7787 11.428 11.4866C11.4801 13.5913 11.6744 15.7031 11.7972 17.8057C12.0876 22.777 12.377 27.7472 12.6675 32.7185C12.736 33.9007 13.8763 34.3701 14.7476 34.1288C31.4807 33.4722 48.2445 34.0367 64.8948 35.8223C65.5279 35.8898 65.9512 35.6147 66.1742 35.2056C66.4319 34.9622 66.616 34.6269 66.6477 34.1861C67.2214 26.3155 67.1365 18.4193 66.3941 10.5651Z" fill="#F7C300"/>
<path d="M64.059 12.303C64.1163 11.5922 63.5446 11.2824 62.9893 11.3417C62.8706 11.2997 62.7356 11.2783 62.5802 11.2906C59.0877 11.5657 55.5083 11.8756 52.0343 11.263C48.5909 10.6555 45.4329 9.02532 42.0805 8.0865C38.5594 7.10063 34.5424 6.4011 30.8832 7.03517C30.9936 6.88074 31.0714 6.69465 31.057 6.44511C30.9231 4.005 28.6568 2.32572 26.274 2.71536C25.0447 2.91683 23.9187 3.61023 23.1118 4.55212C22.2978 5.50219 21.993 6.65678 20.5623 6.67007C19.4169 6.6803 18.2817 6.43488 17.1874 6.89816C16.2251 7.30518 15.6718 8.13049 15.1605 9.00182C14.9754 9.31578 14.7483 9.87824 14.4098 10.0623C13.9302 10.3231 13.2562 9.95801 12.7429 9.94267C12.1078 9.92324 11.5514 10.1196 11.081 10.542C10.9358 10.6718 10.1176 11.7273 10.133 11.7365C9.34244 11.2568 8.61634 11.9829 8.63066 12.6937C8.47112 12.8573 8.36271 13.0792 8.36987 13.3789C8.54884 20.7534 8.64294 28.13 8.64907 35.5076C8.1541 36.0722 8.39953 37.2299 9.38847 37.2503C27.0379 37.6185 44.6904 37.8404 62.3429 37.9171C63.069 37.9202 63.3799 37.3014 63.3053 36.7431C63.5661 36.5886 63.7542 36.3237 63.7328 35.9177C63.3135 28.0451 63.4229 20.1592 64.059 12.303ZM61.6843 35.8656C46.3676 35.7961 31.0519 35.5987 15.7373 35.3093C17.169 32.5746 19.3882 30.3257 22.6956 30.3063C23.5189 30.3012 24.3401 30.2879 25.1265 30.0179C25.8547 29.7684 26.5593 29.2928 27.3396 29.2355C28.9595 29.1169 30.7574 30.7676 31.8517 31.7964C32.8099 32.6984 34.2591 31.2543 33.2977 30.3503C31.8854 29.0208 30.062 27.5338 28.0861 27.2372C27.1371 27.0951 26.2913 27.3293 25.4241 27.6995C24.3718 28.1494 23.5137 28.2405 22.3765 28.264C18.2142 28.3499 15.2321 31.4711 13.5927 35.0434C13.5569 35.1221 13.5549 35.1967 13.5385 35.2734C12.5894 35.255 11.6404 35.2459 10.6913 35.2264C10.6821 28.0636 10.5922 20.9007 10.4204 13.7409C10.9153 13.6478 11.3847 13.3707 11.756 12.9657C12.2448 12.4329 12.2898 11.9747 13.0977 12.0596C13.6091 12.1138 14.0693 12.256 14.5909 12.1548C15.4704 11.984 16.0737 11.3754 16.5544 10.6565C17.0596 9.89971 17.3664 8.82694 18.386 8.67149C19.4312 8.51196 20.4866 8.82283 21.54 8.62955C22.6138 8.43217 23.345 7.76638 23.9525 6.89404C24.6223 5.93169 25.283 4.98677 26.5225 4.74337C27.6495 4.52247 28.9442 5.21177 29.0127 6.44717C29.0372 6.89 29.2929 7.17123 29.611 7.31543C27.7067 7.83086 25.9314 8.75945 24.4198 10.2771C23.4892 11.2108 24.9353 12.6579 25.8659 11.7232C30.5171 7.05464 38.2138 8.86884 43.7332 10.7393C46.7143 11.7497 49.539 13.0117 52.6898 13.4178C55.7661 13.8135 58.8627 13.6253 61.9441 13.387C61.3847 20.8669 61.2885 28.3724 61.6843 35.8656Z" fill="black"/>
<path d="M49.4042 39.7929C33.2622 40.0076 17.1171 39.799 0.986377 39.166C-0.329815 39.1148 -0.327769 41.1602 0.986377 41.2113C17.1171 41.8444 33.2622 42.053 49.4042 41.8382C50.7194 41.8208 50.7225 39.7755 49.4042 39.7929Z" fill="black"/>
<path d="M71.0125 39.5793C65.1873 39.5067 59.3611 39.5323 53.537 39.656C52.2228 39.6837 52.2177 41.729 53.537 41.7014C59.3611 41.5777 65.1873 41.5521 71.0125 41.6247C72.3287 41.6411 72.3297 39.5957 71.0125 39.5793Z" fill="black"/>
<path d="M17.6582 16.4015C17.6265 16.2082 17.5528 16.0548 17.4403 15.9474C17.3197 15.8308 17.1867 15.7715 17.0446 15.7705C17.0435 15.7705 17.0425 15.7705 17.0415 15.7705C16.9178 15.7705 16.7347 15.8155 16.5629 16.0262C16.4381 16.1786 16.3727 16.3565 16.3737 16.5948L16.4371 17.1194C16.4483 17.2063 16.4586 17.2933 16.4657 17.3792C16.1456 17.4661 15.8071 17.5459 15.4604 17.6154C15.1332 17.6809 14.8233 17.7361 14.5318 17.7801C14.5185 17.6564 14.5083 17.5336 14.5012 17.4109C14.4879 17.1818 14.4797 16.9497 14.4746 16.7185C14.4746 16.6541 14.4654 16.5815 14.4459 16.4833C14.4265 16.3974 14.3989 16.3115 14.361 16.2256C14.315 16.1192 14.2526 16.0282 14.1719 15.9525C14.0665 15.8543 13.9356 15.8032 13.7914 15.8022C13.6554 15.8073 13.5439 15.8421 13.4222 15.9249C13.32 15.9924 13.1921 16.1253 13.1533 16.4056C13.1349 16.7461 13.1359 17.1133 13.1574 17.4958C13.1778 17.8691 13.2156 18.2444 13.2698 18.6125C13.324 18.9787 13.3915 19.3274 13.4693 19.6587C13.5511 20.0024 13.636 20.2877 13.7382 20.5536C13.7832 20.6507 13.862 20.7367 13.9735 20.8113C14.1033 20.9013 14.224 20.9259 14.315 20.9259C14.3365 20.9259 14.357 20.9249 14.3754 20.9228L14.4602 20.9003C14.5922 20.844 14.6965 20.7479 14.764 20.6231C14.8141 20.5301 14.8478 20.4278 14.8652 20.3235C14.8816 20.2274 14.8867 20.1353 14.8836 20.0392C14.8785 19.9523 14.8693 19.8898 14.8611 19.8438C14.8253 19.6833 14.7936 19.5228 14.765 19.3622L14.7313 19.1648C15.3837 19.041 16.0127 18.903 16.6079 18.7516C16.6232 18.9152 16.6355 19.0778 16.6478 19.2415L16.7101 20.1097C16.7316 20.3071 16.8073 20.4718 16.9351 20.6027C17.0722 20.7407 17.2256 20.8113 17.3943 20.8133C17.4792 20.8133 17.5651 20.7847 17.649 20.7285C17.7042 20.6917 17.7574 20.6446 17.8034 20.5945C17.8607 20.5341 17.9087 20.4626 17.9404 20.391C17.9895 20.2938 18.0069 20.1803 17.9977 20.0678C17.9721 19.4634 17.9343 18.8569 17.8862 18.2484C17.8361 17.644 17.7604 17.0233 17.6582 16.4015Z" fill="black"/>
<path d="M22.1456 14.9643C21.893 14.7526 21.5534 14.6175 21.1444 14.5633C20.9102 14.5255 20.6944 14.5296 20.496 14.5746C20.4377 14.5879 20.3845 14.6032 20.3334 14.6216C20.227 14.5347 20.0951 14.502 19.9765 14.5306C19.6932 14.5664 19.4314 14.682 19.1982 14.8752C18.9814 15.0532 18.7932 15.2802 18.6357 15.5543C18.5099 15.7772 18.4066 16.0299 18.3279 16.304C18.2481 16.5811 18.2031 16.8736 18.197 17.1763C18.1898 17.4769 18.2256 17.7766 18.3033 18.066C18.3831 18.3708 18.5242 18.649 18.7421 18.9159C19.0427 19.2217 19.3946 19.4037 19.7883 19.4558C19.8895 19.4691 19.9908 19.4763 20.0941 19.4763C20.3681 19.4763 20.6443 19.4272 20.9204 19.3291C21.1249 19.2544 21.3223 19.1531 21.5238 19.0182C21.7191 18.8872 21.9042 18.7277 22.0719 18.5467C22.2346 18.3698 22.3828 18.1744 22.5107 17.9689C22.6457 17.751 22.7418 17.5179 22.795 17.2765C22.8471 17.0526 22.8717 16.7999 22.8696 16.5238C22.8676 16.2334 22.8072 15.9501 22.6917 15.6811C22.573 15.4081 22.389 15.1667 22.1456 14.9643ZM20.9214 15.9256C21.0871 15.944 21.2231 15.992 21.3325 16.0728C21.401 16.124 21.4491 16.1833 21.4798 16.2518C21.5166 16.3397 21.5381 16.4297 21.5432 16.5238C21.5483 16.6332 21.5411 16.7376 21.5217 16.8347V16.8368C21.5023 16.936 21.4808 17.0147 21.4512 17.0782C21.3918 17.2121 21.3131 17.343 21.217 17.4667C21.1188 17.5915 21.0124 17.6989 20.8979 17.7858C20.7834 17.8727 20.6596 17.9423 20.5256 17.9945C20.3998 18.0425 20.2577 18.0711 20.1493 18.066C19.8691 18.064 19.7852 17.9586 19.7576 17.9249C19.6615 17.8022 19.6083 17.6447 19.5919 17.4401C19.5786 17.2857 19.5817 17.117 19.6001 16.9421C19.6195 16.7764 19.6553 16.623 19.7085 16.488C19.7617 16.352 19.8312 16.2283 19.9141 16.1229C19.9345 16.0974 19.955 16.0749 19.9775 16.0534C19.9898 16.0585 20.001 16.0636 20.0143 16.0687C20.1636 16.1209 20.3119 16.1025 20.4009 16.0391C20.5921 15.9429 20.766 15.9072 20.9214 15.9256Z" fill="black"/>
<path d="M32.9523 18.9264C32.8797 18.8896 32.8061 18.8712 32.7365 18.8712L32.712 18.8723C32.4502 18.8937 32.1597 18.9275 31.8407 18.9745C31.5246 19.0215 31.2025 19.0768 30.8763 19.1392L29.9231 19.3171C29.7636 19.3468 29.6102 19.3744 29.466 19.401C29.4762 19.2721 29.4885 19.1351 29.5018 18.9899L29.692 17.0723C29.7227 16.7594 29.7585 16.474 29.7984 16.1918C29.8106 16.0271 29.7943 15.8717 29.7503 15.7264C29.7207 15.6303 29.6 15.3215 29.106 15.3798C28.927 15.4043 28.7695 15.4902 28.654 15.6242C28.5394 15.7531 28.4689 15.9146 28.4454 16.1038C28.3666 16.7154 28.296 17.328 28.2408 17.9416C28.2173 18.1962 28.1999 18.4499 28.1784 18.7035C28.1365 18.6483 28.0895 18.5951 28.0209 18.5593C27.9483 18.5225 27.8747 18.504 27.8052 18.504L27.7806 18.5051C27.5188 18.5266 27.2284 18.5603 26.9093 18.6074C26.5933 18.6544 26.2711 18.7096 25.9449 18.772L24.9918 18.95C24.8322 18.9796 24.6788 19.0072 24.5346 19.0328C24.5449 18.9039 24.5571 18.7669 24.5704 18.6217L24.7607 16.7042C24.7913 16.3912 24.8271 16.1059 24.867 15.8236C24.8793 15.659 24.8629 15.5035 24.8189 15.3583C24.7903 15.2622 24.641 14.9513 24.1736 15.0116C23.9947 15.0362 23.8372 15.1221 23.7226 15.256C23.6081 15.3849 23.5375 15.5465 23.514 15.7357C23.4352 16.3462 23.3647 16.9588 23.3095 17.5734C23.2512 18.187 23.2021 18.7996 23.1602 19.4071C23.1284 19.8172 23.197 20.1179 23.3708 20.3245C23.4608 20.4329 23.6429 20.5883 23.9497 20.5883C24.0284 20.5883 24.1153 20.5781 24.2115 20.5535C24.4641 20.4891 24.7371 20.4247 25.0245 20.3592L25.905 20.1628C26.1985 20.0974 26.4859 20.032 26.7661 19.9665C27.0453 19.9001 27.302 19.8387 27.5383 19.7793L27.6651 19.7282L27.7264 19.6679C27.7929 19.6423 27.8573 19.6147 27.9146 19.585C27.9954 19.5451 28.0618 19.4838 28.1212 19.4153C28.113 19.5339 28.0997 19.6536 28.0925 19.7722C28.0608 20.1823 28.1294 20.483 28.3032 20.6895C28.3932 20.7979 28.5753 20.9534 28.8821 20.9534C28.9608 20.9534 29.0477 20.9432 29.1438 20.9186C29.3964 20.8542 29.6695 20.7898 29.9569 20.7243L30.8374 20.5279C31.1309 20.4625 31.4183 20.3971 31.6985 20.3316C31.9777 20.2652 32.2344 20.2037 32.4707 20.1444L32.5975 20.0933L32.6588 20.033C32.7253 20.0074 32.7897 19.9798 32.847 19.9501C32.9431 19.9031 33.0249 19.8366 33.0924 19.7497C33.1712 19.6464 33.2121 19.5114 33.2131 19.3447C33.2111 19.1668 33.119 19.0134 32.9523 18.9264Z" fill="black"/>
<path d="M36.7058 14.8502H36.7037C36.5074 14.8778 36.3376 15.0015 36.1791 15.2377C35.9142 15.6611 35.63 16.108 35.3231 16.5764C35.1115 16.9006 34.8864 17.2258 34.6533 17.5459C34.6441 17.5275 34.6349 17.5101 34.6267 17.4917C34.5316 17.3025 34.4365 17.1052 34.3434 16.9006C34.2493 16.691 34.1562 16.4854 34.0683 16.2798C33.9814 16.0835 33.9108 15.9086 33.8535 15.7552L33.8147 15.6826C33.7104 15.5384 33.5805 15.4474 33.4332 15.4116C33.3238 15.3839 33.2082 15.3737 33.0589 15.3891C32.8585 15.4279 32.7521 15.5364 32.6969 15.6233C32.6406 15.7133 32.6079 15.8186 32.5987 15.9444C32.5946 16.0425 32.6038 16.1438 32.6273 16.2502C32.6509 16.3473 32.6805 16.4383 32.7122 16.511C32.8667 16.9016 33.062 17.3414 33.2911 17.819C33.5058 18.2638 33.7359 18.7138 33.9793 19.172C33.9445 19.533 33.9149 19.8838 33.8904 20.2254C33.8648 20.5997 33.8505 20.9474 33.8474 21.2685C33.8443 21.5661 33.9803 21.7164 34.0939 21.789C34.2135 21.8657 34.3455 21.9056 34.4886 21.9066C34.4907 21.9066 34.4937 21.9066 34.4958 21.9066C34.7024 21.9066 34.867 21.8473 34.9856 21.7307C35.0634 21.653 35.1575 21.5108 35.1585 21.2787C35.1595 21.1539 35.1677 20.979 35.18 20.754C35.1943 20.5229 35.2096 20.2846 35.2301 20.0351C35.2516 19.7876 35.274 19.5514 35.3016 19.3264C35.3231 19.1454 35.3456 19.0012 35.3702 18.8938C35.5062 18.6954 35.6545 18.4745 35.8181 18.2311L36.3489 17.4354C36.5289 17.1644 36.7037 16.8965 36.8756 16.6306C37.0494 16.3616 37.2018 16.1121 37.346 15.8615C37.4084 15.7306 37.4309 15.5824 37.4155 15.4198C37.393 15.1815 37.2816 15.0485 37.209 14.9933C37.1159 14.9104 36.9492 14.8185 36.7058 14.8502Z" fill="black"/>
<path d="M44.9064 17.4296C44.8522 17.2404 44.752 17.0962 44.6058 17.0011H44.6047C44.3961 16.8671 44.165 16.863 43.9778 16.9888C43.8367 17.0809 43.7334 17.2015 43.6669 17.3539C43.5688 17.5973 43.4583 17.8551 43.3335 18.1271C43.2098 18.4002 43.0809 18.6711 42.9439 18.9411C42.8099 19.2101 42.6708 19.4739 42.5287 19.7317C42.4908 19.8002 42.454 19.8666 42.4162 19.9321C42.3548 19.7869 42.2965 19.6356 42.2382 19.4771C42.1094 19.1201 41.9805 18.7826 41.8568 18.4687C41.73 18.1302 41.4651 17.943 41.1102 17.9399C41.0141 17.9399 40.9067 17.9645 40.7789 18.0177C40.6163 18.0852 40.4864 18.2191 40.3933 18.4134C40.3064 18.5914 40.2072 18.7734 40.0988 18.9555C39.9873 19.1416 39.8697 19.3257 39.747 19.5098C39.6253 19.6908 39.5026 19.8656 39.3747 20.0333C39.3665 20.0446 39.3584 20.0549 39.3502 20.0661C39.3451 20.0457 39.339 20.0242 39.3338 20.0027C39.2766 19.7797 39.2326 19.5497 39.1988 19.3124C39.1641 19.07 39.1364 18.8327 39.116 18.6026C39.0945 18.3684 39.0792 18.1568 39.0638 17.9594C39.0424 17.7671 38.9769 17.5994 38.8665 17.4572C38.7376 17.2946 38.5525 17.2015 38.3398 17.1883C38.1363 17.1709 37.9767 17.2415 37.8632 17.3867C37.7773 17.5022 37.7333 17.6239 37.7333 17.7518C37.7354 18.4134 37.7845 19.0731 37.8796 19.7112C37.9778 20.3668 38.1731 20.9763 38.4605 21.5204C38.6282 21.8507 38.8757 21.9529 39.0413 21.9785C39.071 21.9847 39.1017 21.9877 39.1334 21.9877C39.2009 21.9877 39.2755 21.9744 39.3553 21.9458C39.4668 21.9069 39.5731 21.8343 39.6652 21.7331C39.9924 21.3864 40.2992 21.009 40.5764 20.6112C40.7216 20.4025 40.8586 20.194 40.9885 19.9884C41.0683 20.1919 41.1501 20.3841 41.2319 20.5621C41.3925 20.9149 41.5756 21.2514 41.776 21.5633C41.8404 21.6615 41.9192 21.7443 42.0122 21.8108C42.1227 21.8895 42.2577 21.9294 42.4111 21.9294C42.5819 21.9458 42.8386 21.8629 43.0533 21.5377C43.4624 20.9272 43.8213 20.3054 44.1179 19.6897C44.4176 19.0659 44.6804 18.4687 44.8993 17.9144C44.9545 17.7763 44.9565 17.6137 44.9064 17.4296Z" fill="black"/>
<path d="M48.5993 17.7167C48.3436 17.504 48.0051 17.37 47.5981 17.3158C47.3608 17.278 47.1491 17.2821 46.9477 17.3281C46.8904 17.3414 46.8362 17.3568 46.7861 17.3752C46.6807 17.2872 46.5468 17.2544 46.4312 17.2841C46.1469 17.3189 45.8841 17.4355 45.6519 17.6288C45.4331 17.8088 45.2449 18.0368 45.0895 18.3078C44.9647 18.5287 44.8604 18.7813 44.7806 19.0574C44.7008 19.3315 44.6579 19.6251 44.6507 19.9298C44.6435 20.2315 44.6793 20.5312 44.7571 20.8185C44.8348 21.1243 44.9759 21.4025 45.1948 21.6694C45.4975 21.9762 45.8503 22.1572 46.241 22.2094C46.3433 22.2227 46.4445 22.2298 46.5468 22.2298C46.8219 22.2298 47.098 22.1807 47.3741 22.0825C47.5807 22.0069 47.7781 21.9056 47.9785 21.7716C48.1749 21.6387 48.359 21.4812 48.5267 21.3002C48.6913 21.1192 48.8396 20.9248 48.9644 20.7224C49.1004 20.5025 49.1966 20.2683 49.2477 20.0311C49.3009 19.8081 49.3254 19.5545 49.3233 19.2763C49.3213 18.9889 49.261 18.7057 49.1454 18.4326C49.0258 18.1616 48.8417 17.9202 48.5993 17.7167ZM47.3741 18.6781C47.5408 18.6965 47.6758 18.7445 47.7852 18.8253C47.8537 18.8764 47.9018 18.9358 47.9335 19.0063C47.9704 19.0912 47.9908 19.1812 47.9969 19.2763C48.002 19.3867 47.9949 19.489 47.9755 19.5872C47.956 19.6884 47.9325 19.7682 47.9049 19.8296C47.8425 19.9687 47.7658 20.0965 47.6707 20.2193C47.5715 20.345 47.4651 20.4524 47.3537 20.5383C47.2361 20.6273 47.1144 20.6958 46.9814 20.747C46.8526 20.796 46.7257 20.8175 46.602 20.8185C46.3514 20.8165 46.2584 20.7357 46.2113 20.6774C46.1162 20.5557 46.062 20.3982 46.0467 20.1906C46.0324 20.0362 46.0354 19.8725 46.0538 19.6956C46.0733 19.5289 46.1101 19.3755 46.1612 19.2415C46.2165 19.1045 46.287 18.9807 46.3698 18.8734C46.3893 18.8498 46.4097 18.8263 46.4312 18.8059C46.4435 18.811 46.4558 18.8161 46.4691 18.8202C46.6132 18.8703 46.7605 18.8539 46.8566 18.7905C47.0458 18.6975 47.2207 18.6627 47.3741 18.6781Z" fill="black"/>
<path d="M53.4408 17.1341C53.1882 16.9234 52.8487 16.7885 52.4396 16.7332C52.2085 16.6954 51.9917 16.6994 51.7902 16.7455C51.7319 16.7588 51.6788 16.7741 51.6276 16.7925C51.5233 16.7056 51.3914 16.6729 51.2717 16.7015C50.9884 16.7373 50.7266 16.8529 50.4935 17.0461C50.2767 17.2241 50.0885 17.4521 49.931 17.7252C49.8052 17.9492 49.7009 18.2018 49.6232 18.4749C49.5434 18.752 49.4984 19.0445 49.4923 19.3472C49.4851 19.6478 49.5209 19.9475 49.5986 20.2369C49.6784 20.5417 49.8195 20.8209 50.0374 21.0878C50.338 21.3936 50.6908 21.5756 51.0836 21.6278C51.1848 21.6411 51.2861 21.6482 51.3893 21.6482C51.6634 21.6482 51.9395 21.5991 52.2167 21.501C52.4222 21.4253 52.6196 21.324 52.819 21.19C53.0164 21.0581 53.2005 20.8986 53.3672 20.7186C53.5298 20.5417 53.6781 20.3474 53.8059 20.1408C53.9409 19.9229 54.0371 19.6898 54.0902 19.4484C54.1424 19.2245 54.1669 18.9708 54.1649 18.6947C54.1628 18.4053 54.1025 18.122 53.987 17.852C53.8683 17.578 53.6842 17.3366 53.4408 17.1341ZM52.2167 18.0954C52.3824 18.1138 52.5184 18.1619 52.6288 18.2437C52.6963 18.2938 52.7444 18.3532 52.7751 18.4217C52.8119 18.5086 52.8334 18.6016 52.8385 18.6947C52.8436 18.8041 52.8364 18.9085 52.817 19.0046V19.0066C52.7986 19.1058 52.7761 19.1846 52.7464 19.248C52.6871 19.382 52.6084 19.5129 52.5122 19.6356C52.4141 19.7604 52.3077 19.8677 52.1932 19.9546C52.0796 20.0405 51.9549 20.1112 51.8219 20.1633C51.6931 20.2124 51.5448 20.2267 51.4436 20.2349C51.1644 20.2329 51.0805 20.1275 51.0529 20.0938C50.9567 19.9711 50.9036 19.8135 50.8872 19.608C50.8739 19.4535 50.877 19.2848 50.8954 19.1099C50.9148 18.9442 50.9506 18.7909 51.0038 18.6559C51.057 18.5199 51.1265 18.3971 51.2094 18.2908C51.2298 18.2652 51.2502 18.2427 51.2727 18.2212C51.285 18.2273 51.2983 18.2325 51.3116 18.2376C51.4609 18.2877 51.6082 18.2693 51.6972 18.2069C51.8864 18.1149 52.0551 18.077 52.2167 18.0954Z" fill="black"/>
<path d="M57.9429 17.1C57.8386 16.8075 57.6862 16.5406 57.4868 16.3074C57.2884 16.0763 57.043 15.883 56.7597 15.7316C56.4764 15.5803 56.1614 15.4851 55.8219 15.4483C55.4875 15.4135 55.1694 15.4299 54.8749 15.4995C54.5875 15.567 54.341 15.6569 54.1396 15.7674C53.9616 15.8676 53.8481 16.0006 53.799 16.1693C53.754 16.3401 53.7837 16.5099 53.8757 16.6418C53.9432 16.7564 54.0496 16.8474 54.1887 16.9108C54.295 16.9619 54.4678 17.0018 54.6857 16.9241C54.6857 17.3792 54.6908 17.87 54.702 18.3957C54.7153 19.0328 54.7603 19.7057 54.836 20.3991C54.7747 20.484 54.7399 20.5771 54.7297 20.6783C54.7235 20.7836 54.7358 20.8767 54.7972 21.0199C54.8708 21.1293 54.9894 21.2122 55.1592 21.2735C55.2338 21.3012 55.3187 21.3165 55.4179 21.3165C55.5355 21.3165 55.6746 21.295 55.8413 21.2521C56.1645 21.1232 56.4652 20.9381 56.7372 20.7039C57.0021 20.4748 57.2332 20.2161 57.4255 19.9338C57.6187 19.6495 57.7731 19.3417 57.8846 19.0206C57.9961 18.6974 58.0636 18.3671 58.083 18.0296C58.0922 17.7023 58.0452 17.3904 57.9429 17.1ZM56.7495 18.0449C56.7341 18.3957 56.6237 18.7209 56.413 19.04L56.412 19.041C56.3087 19.1985 56.1941 19.3437 56.0704 19.4767C56.0458 19.0962 56.0295 18.7373 56.0244 18.4049C56.0182 17.8813 56.0162 17.3914 56.0182 16.9414C56.0193 16.9118 56.0182 16.8821 56.0162 16.8535C56.2463 16.9374 56.413 17.0621 56.5255 17.2319C56.684 17.4691 56.7576 17.7371 56.7495 18.0449Z" fill="black"/>
<path d="M38.3838 27.7744C36.8805 25.7403 34.9302 24.0672 32.6384 22.978C32.1557 22.7489 31.5124 22.8287 31.2394 23.3452C30.999 23.8003 31.0901 24.4987 31.6065 24.7442C32.123 24.9896 32.6261 25.2637 33.1098 25.5695C33.3451 25.7178 33.5772 25.8732 33.8032 26.0358C33.9126 26.1135 34.02 26.1943 34.1274 26.2751C34.1458 26.2895 34.1693 26.3078 34.1929 26.3263C34.2501 26.3723 34.3074 26.4183 34.3636 26.4643C34.7942 26.8182 35.2033 27.1976 35.5888 27.5996C35.7923 27.8112 35.9887 28.0291 36.1779 28.253C36.2628 28.3543 36.3476 28.4555 36.4294 28.5588C36.453 28.5885 36.4775 28.6201 36.4918 28.6375C36.5348 28.6938 36.5767 28.7501 36.6187 28.8063C36.9357 29.2348 37.5186 29.4946 38.0177 29.1735C38.4411 28.8994 38.7244 28.2336 38.3838 27.7744Z" fill="black"/>
<path d="M40.3215 30.9447C40.3184 30.9294 40.3133 30.9151 40.3082 30.9008C40.2734 30.8108 40.2315 30.6778 40.165 30.5878C40.1343 30.5459 40.0464 30.417 39.9789 30.3506C39.9073 30.28 39.8214 30.2217 39.7416 30.1644C39.7293 30.1552 39.7161 30.1471 39.7028 30.1399C39.6128 30.0939 39.5176 30.053 39.4225 30.0213C39.4072 30.0162 39.3929 30.0131 39.3776 30.0111C39.3305 30.0039 39.1648 29.9691 39.0656 29.9732C38.9245 29.9681 38.7936 29.9968 38.6719 30.0612C38.6555 30.0663 38.6463 30.0816 38.63 30.0878C38.6269 30.0878 38.6228 30.0888 38.6198 30.0888C38.4469 30.1379 38.2966 30.2248 38.1687 30.3516C38.1023 30.4222 38.045 30.503 37.9898 30.5817C37.9836 30.5909 37.9765 30.6012 37.9714 30.6124C37.9264 30.6993 37.8906 30.7913 37.8568 30.8834C37.8517 30.8967 37.8486 30.91 37.8456 30.9233C37.7975 31.1656 37.7842 31.358 37.8507 31.6003C37.91 31.8171 38.0235 32.0053 38.1779 32.1679C38.2526 32.2467 38.3426 32.3141 38.4356 32.3683C38.5205 32.4174 38.6167 32.4502 38.7077 32.4849C38.721 32.49 38.7343 32.4941 38.7486 32.4972C38.856 32.5186 38.9685 32.5422 39.0799 32.5381C39.1812 32.534 39.2824 32.5156 39.3816 32.4982C39.396 32.4962 39.4092 32.4931 39.4236 32.489C39.6434 32.4215 39.8286 32.3172 39.9942 32.1556C40.1446 32.0083 40.2714 31.7966 40.3235 31.5921C40.3481 31.4929 40.3583 31.3886 40.3665 31.2884C40.3675 31.2751 40.3675 31.2618 40.3665 31.2485C40.3552 31.1472 40.343 31.045 40.3215 30.9447Z" fill="black"/>
<path d="M52.7311 30.6289C52.4315 30.7046 52.1544 30.4193 51.957 30.2179C51.6001 29.8538 51.2943 29.4477 50.9149 29.1062C50.1703 28.4332 49.3185 27.9393 48.3858 27.5783C46.5736 26.8757 44.5292 26.8491 42.6526 27.295C41.3733 27.5998 41.9142 29.5725 43.1967 29.2678C44.8647 28.871 46.73 28.9589 48.2743 29.7515C49.0914 30.1697 49.6785 30.7415 50.2839 31.4195C51.056 32.2847 52.0828 32.9044 53.2742 32.6017C54.5505 32.2785 54.0105 30.3058 52.7311 30.6289Z" fill="black"/>
<path d="M60.4045 30.8267C60.0874 30.3358 59.5188 30.2039 59.0054 30.4596C58.9666 30.479 58.9267 30.4963 58.8868 30.5147C58.5626 30.6436 58.2272 30.7347 57.8836 30.7929C57.5082 30.8318 57.1319 30.8338 56.7565 30.7858C56.7872 30.7899 56.8169 30.794 56.8476 30.7981C56.5796 30.7582 56.3342 30.7602 56.0898 30.9024C55.8771 31.0261 55.6756 31.2695 55.6203 31.514C55.561 31.7758 55.5733 32.0693 55.7237 32.3024C55.8597 32.5121 56.0775 32.7309 56.3352 32.7728C56.6758 32.8281 57.0204 32.8721 57.3661 32.8731C57.6954 32.8741 58.0216 32.8352 58.3468 32.7861C58.94 32.6972 59.5035 32.4936 60.0394 32.2267C60.517 31.9864 60.6898 31.2695 60.4045 30.8267Z" fill="black"/>
</svg>
