<svg width="65" height="43" viewBox="0 0 65 43" fill="none" xmlns="http://www.w3.org/2000/svg">
<path d="M35.0351 25.3658C32.5883 24.152 29.5545 23.7307 26.8831 23.3297C21.1511 22.4699 15.3613 21.9255 9.60362 21.254C8.72029 21.1513 8.02838 22.0731 7.99951 22.8581C7.88829 25.939 7.05095 28.866 5.53454 31.5491C4.62554 33.1586 6.74085 34.6151 7.92575 33.6216C12.7456 33.9403 17.5654 34.259 22.3852 34.5766C23.6118 34.6579 24.8384 34.7392 26.065 34.8194C27.0456 34.8846 27.9974 35.03 28.8123 34.3595C29.4507 33.8344 29.5972 32.9971 30.4378 32.7008C31.4013 32.3608 32.4985 32.7308 33.4278 33.0099C34.2427 33.2548 35.1945 32.7169 35.4009 31.8892C35.9003 29.8894 37.5033 26.5903 35.0351 25.3658Z" fill="#F7C300"/>
<path d="M62.2366 34.0589C61.5907 32.4569 60.3886 31.4485 58.9738 30.7448C55.4972 28.5921 51.2623 28.0607 47.235 27.3452C46.465 27.2083 45.8747 27.4553 45.4234 28.082C44.9742 28.7065 44.8416 29.5674 45.0491 30.3139C45.0309 30.4112 45.0063 30.5064 45.0052 30.6154C44.9871 31.8442 44.9956 33.0719 45.0298 34.3006C45.0534 35.1294 45.7463 35.956 46.634 35.9047C51.3179 35.632 56.0137 35.694 60.6891 36.0886C61.6537 36.171 62.6098 34.9861 62.2366 34.0589Z" fill="#F7C300"/>
<path d="M52.0814 7.39703C51.5264 6.37468 50.4399 6.20465 49.3865 6.17685C47.7322 6.133 46.0511 6.33298 44.4459 6.7308C42.8439 7.12862 41.2783 7.75529 39.8379 8.56055C39.1695 8.93484 38.3557 9.35509 37.8242 9.91545C36.8949 10.895 37.4071 12.1045 38.3289 12.8339C39.0668 13.4178 39.8389 13.9161 40.6987 14.3001C40.7533 14.3246 41.0623 14.4519 41.3478 14.5674C41.3093 14.7 41.2773 14.8144 41.2676 14.8412C40.6516 16.6934 39.8421 18.5081 40.0068 20.509C40.0111 20.5635 40.0239 20.6159 40.0325 20.6694C39.7416 21.0758 39.6218 21.6233 39.748 22.0821C39.995 22.9836 40.8645 23.3525 41.7211 23.2028C43.4845 22.8927 45.2683 22.7323 47.0595 22.7098C48.7706 22.6895 51.1799 23.2616 51.8387 21.1186C52.0868 20.3101 52.0355 19.3604 52.0804 18.521C52.1328 17.5318 52.1788 16.5426 52.2183 15.5534C52.291 13.7087 52.3403 11.8639 52.367 10.0181C52.3809 9.16367 52.506 8.17662 52.0814 7.39703Z" fill="#F7C300"/>
<path d="M63.4128 40.0171C62.0772 40.016 60.7415 40 59.4058 39.9979C59.4282 39.5124 59.4293 39.0258 59.4133 38.5403C59.979 38.5382 60.5458 38.536 61.1115 38.5339C61.1233 38.5339 61.1307 38.5274 61.1414 38.5274C61.782 38.5863 62.5573 38.0462 62.4279 37.1928C62.0247 34.5332 60.2281 32.4222 57.992 31.0481C57.9995 31.0203 58.0123 30.9935 58.0166 30.9646C58.3535 28.4943 58.8614 26.0507 59.5373 23.6509C59.6763 23.1579 59.4058 22.6425 58.9577 22.4222C58.7491 22.0372 58.3428 21.7699 57.7953 21.9239C55.4116 22.5922 52.9968 23.1109 50.5629 23.4895C50.5768 23.4125 50.6046 23.3472 50.6014 23.2585C50.4207 18.582 50.5469 13.9012 50.98 9.24073C51.0281 8.72314 50.7521 8.40336 50.3832 8.27824C50.1854 8.08468 49.9127 7.96279 49.6111 7.92643C46.9483 7.6024 44.3378 8.4141 41.8921 9.39046C39.9929 10.1487 37.8369 10.9058 36.6007 12.6158C36.097 12.2639 35.618 11.8961 35.1731 11.5817C33.7401 10.5679 32.3648 9.47493 31.0484 8.31355C28.4551 6.02609 26.0821 3.48095 24.0032 0.717606C23.893 0.572167 23.7646 0.467323 23.6256 0.393534C23.3294 0.034214 22.846 -0.155064 22.3284 0.159341C18.7063 2.36338 15.6436 5.53098 13.9646 9.45998C12.7722 12.2511 12.384 15.2871 12.8064 18.2312C12.2258 17.8002 11.6227 17.3938 10.9971 17.0313C9.23575 16.009 7.33647 15.1545 5.84037 13.7408C4.93352 12.8831 3.63314 13.9579 4.16035 15.0369C5.12496 17.0089 5.78798 19.107 6.18259 21.264C5.90026 21.2555 5.61795 21.2362 5.33563 21.2298C4.98379 21.2213 4.72393 21.356 4.55283 21.5592C4.29296 21.756 4.12399 22.0618 4.08549 22.4147C3.84166 24.6444 3.56682 26.8763 2.77118 28.9894C2.39796 29.9797 1.98518 30.9389 1.81835 31.9912C1.66329 32.9772 1.66327 34.0584 1.17883 34.9557C0.977778 35.3267 1.02807 35.6764 1.19168 35.9609C1.2227 36.4699 1.55633 36.9607 2.21187 36.9714C2.71236 36.98 3.21394 36.9961 3.71442 37.0057C3.51979 37.842 3.44707 38.7114 3.51658 39.5616L1.47933 39.5851C0.10408 39.6011 0.0998026 41.7399 1.47933 41.7239L9.74477 41.6266C11.12 41.6105 11.1243 39.4717 9.74477 39.4878L5.65428 39.5359C5.61685 39.0504 5.62539 38.5638 5.67993 38.0805C5.73447 37.7329 5.81895 37.3928 5.91948 37.056C13.924 37.242 21.9232 37.6013 29.9127 38.1457V39.4717C29.9127 39.5754 29.9448 39.6792 29.9768 39.7819C24.4534 39.7199 18.9299 39.6567 13.4064 39.5605C12.029 39.5359 12.029 41.6747 13.4064 41.6993C30.0731 41.9912 46.743 42.1431 63.4128 42.1538C64.7902 42.157 64.7913 40.0182 63.4128 40.0171ZM57.1547 24.3012C56.667 26.2004 56.282 28.1232 56.0051 30.0653C55.9452 30.0417 55.8864 30.0107 55.8265 29.9883C51.8323 28.5103 47.2884 28.8729 43.1049 28.8386C42.7156 28.8354 42.4482 29.0119 42.2792 29.2568C42.0568 29.4557 41.9135 29.7402 41.8804 30.0631C41.8215 30.6566 41.7841 31.2512 41.7349 31.8448C41.52 31.8309 41.305 31.8265 41.0901 31.8137C41.2943 29.9936 41.1692 28.1425 40.7639 26.3566C46.2917 26.3822 51.8045 25.6893 57.1547 24.3012ZM42.892 11.2812C44.7945 10.5422 46.7462 9.9412 48.7834 10.0032C48.4059 14.4113 48.2925 18.8354 48.4636 23.2574C48.4711 23.4595 48.5331 23.6221 48.6176 23.7643C45.5505 24.1418 42.4557 24.2905 39.3512 24.207C38.4529 24.1824 38.1514 25.0797 38.4262 25.7202C38.4326 25.7609 38.423 25.8004 38.4358 25.8422C38.7374 26.8517 38.9331 27.8494 39.0101 28.783C39.0903 29.7615 39.0635 30.7432 38.9598 31.7185C38.1631 31.6961 37.3675 31.6811 36.5708 31.6768C36.5815 31.6405 36.6039 31.618 36.6114 31.5785C37.5942 26.2988 38.8176 21.0683 40.2763 15.8999C40.9831 15.4101 40.7896 13.9942 39.671 13.9386C39.2689 13.9183 38.8711 13.82 38.4797 13.6702C39.5277 12.4094 41.4451 11.8426 42.892 11.2812ZM23.6128 3.60606C25.5452 5.97479 27.6455 8.19701 29.964 10.1979C31.3938 11.432 32.8909 12.5933 34.4426 13.6713C35.5923 14.4712 36.775 15.3181 38.0979 15.7641C37.0734 19.4311 36.1591 23.1269 35.3741 26.8506C32.3146 25.5449 29.1705 24.5257 25.9719 23.7344C25.9687 23.6285 25.9666 23.5216 25.9227 23.4018C23.6064 17.0784 22.7979 10.2866 23.6128 3.60606ZM21.5114 3.34295C20.719 10.0353 21.4013 16.81 23.6032 23.1922C21.104 22.6629 18.577 22.2596 16.0329 21.9602C16.0168 21.8511 16.004 21.741 15.9505 21.6277C12.7883 14.8958 16.0596 7.63447 21.5114 3.34295ZM9.51162 18.6461C10.9329 19.446 12.3402 20.3701 13.324 21.6854C11.6312 21.5325 9.93407 21.4277 8.23478 21.3486C8.2797 21.171 8.30001 20.9839 8.26579 20.7914C8.06367 19.661 7.77813 18.552 7.42522 17.4655C8.11499 17.8665 8.81437 18.2537 9.51162 18.6461ZM29.2517 32.172C28.0807 32.9184 28.4989 34.7396 28.5727 35.9245C20.2164 35.3749 11.8483 35.0198 3.47592 34.8615C3.65665 34.1985 3.75076 33.5173 3.84594 32.8125C4.00207 31.6651 4.42982 30.6331 4.83513 29.5573C5.5805 27.5789 5.87567 25.4839 6.11307 23.3921C15.9441 23.6916 25.8821 24.9652 34.9495 28.9723C34.9495 28.9723 34.9496 28.9723 34.9506 28.9723C34.8159 29.6514 34.6737 30.3272 34.5475 31.0084C34.4983 31.2726 34.556 31.4961 34.6544 31.6929C34.1913 31.7014 33.7283 31.6886 33.2653 31.7057C32.5712 31.7303 31.8772 31.7635 31.1831 31.8063C30.5479 31.8448 29.81 31.8169 29.2517 32.172ZM57.267 39.9872C48.839 39.9647 40.41 39.9006 31.982 39.8107C32.0183 39.7049 32.0515 39.5947 32.0515 39.4739V37.2773C32.0515 37.0035 31.9317 36.7148 31.7381 36.5213C31.6355 36.4186 31.4943 36.3384 31.3446 36.2817C31.1906 36.1694 31.0131 36.0817 30.7821 36.0657C30.7586 36.0635 30.7351 36.0625 30.7115 36.0614C30.7115 36.0464 30.7179 36.0368 30.7179 36.0208C30.688 35.3866 30.6559 34.7524 30.6292 34.1183C30.627 34.0809 30.626 34.0434 30.6249 34.0071C30.8388 33.991 31.1243 33.9493 31.1821 33.9461C32.3648 33.8745 33.5497 33.8274 34.7346 33.8071C37.0124 33.7664 39.2902 33.8306 41.5638 33.9761C41.4857 35.2155 41.4269 36.4549 41.3906 37.6965C41.3735 38.274 41.8943 38.7659 42.46 38.7659C42.6589 38.7659 42.8311 38.6964 42.9883 38.6023C47.7503 38.5841 52.5124 38.567 57.2745 38.5488C57.2905 39.0269 57.2894 39.507 57.267 39.9872ZM58.2541 36.2111C58.0477 36.2207 57.8487 36.2935 57.6744 36.4068C52.9797 36.4239 48.2839 36.4421 43.5882 36.4592C43.662 34.6284 43.7786 32.8008 43.9443 30.9764C47.3889 30.9678 50.9939 30.786 54.3111 31.741C56.7622 32.4468 59.0422 34.0338 59.98 36.3983L58.8251 36.4025C58.6519 36.2902 58.4498 36.2025 58.2541 36.2111Z" fill="black"/>
</svg>
