<svg width="258" height="15" viewBox="0 0 258 15" fill="none" xmlns="http://www.w3.org/2000/svg">
<path fill-rule="evenodd" clip-rule="evenodd" d="M144.726 12.4202C144.737 12.4324 144.748 12.4446 144.76 12.4569C145.943 13.4985 147.241 12.8997 147.802 11.8571C147.814 11.8472 147.826 11.8371 147.838 11.8269C149.455 10.4654 151.414 8.6572 152.663 6.73028C152.722 6.72812 152.752 6.76319 152.783 6.79826C152.813 6.83332 152.843 6.86839 152.902 6.86624C153.072 7.2526 153.403 7.56652 153.712 7.85982C153.858 7.999 154 8.13353 154.117 8.26896C154.405 8.60163 154.68 8.93481 154.95 9.26252C155.477 9.90204 155.988 10.5208 156.547 11.0744C157.884 12.6174 159.331 13.8669 161.191 12.7859C162.433 12.1616 163.345 10.9063 164.257 9.65093C164.713 9.02324 165.169 8.39556 165.666 7.84676L165.829 7.63375C165.754 7.83315 165.914 7.98242 166.259 7.9698C166.502 8.25034 166.846 8.39854 167.191 8.54674C167.363 8.62084 167.535 8.69494 167.695 8.78558L170.214 10.4301C172.132 11.6624 173.94 13.1881 175.748 14.7139C176.352 15.2706 177.405 14.9427 177.862 14.3472C178.258 13.6815 178.655 13.0519 179.052 12.4224C179.448 11.7929 179.845 11.1633 180.241 10.4976L181.6 8.27723C181.715 8.12834 181.829 7.97945 181.939 7.68599L182.053 7.5371C182.814 7.91849 183.522 8.59102 184.213 9.24674C184.499 9.51864 184.783 9.78766 185.066 10.0318C185.465 10.3379 185.866 10.6637 186.272 10.9944C186.966 11.5591 187.678 12.1383 188.435 12.6582C190.482 14.3199 192.507 15.1142 194.695 13.0082C195.5 12.1829 196.275 11.3586 197.05 10.5343C197.826 9.71005 198.601 8.88579 199.406 8.06045C200.395 8.8879 201.381 9.6349 202.418 10.4197C202.771 10.687 203.13 10.9586 203.497 11.2393C203.716 11.3997 203.937 11.5721 204.158 11.7457C205.27 12.6166 206.424 13.5202 207.79 13.1083C208.937 12.7392 209.998 11.6332 210.993 10.5952C211.318 10.2562 211.636 9.92438 211.948 9.62791C212.641 9.02374 213.333 8.41957 213.908 7.81971C214.6 7.21554 215.072 7.19831 215.907 7.6019C216.913 8.09487 217.844 8.7651 218.771 9.43253C220.377 10.5884 221.971 11.7358 223.92 11.9398C226.574 12.2036 228.523 10.3938 230.497 8.56103C230.898 8.18869 231.3 7.8154 231.709 7.45835C232.398 6.81504 232.416 6.82994 232.932 7.27981C233.02 7.35656 233.122 7.44597 233.245 7.54692C233.606 7.82316 233.937 8.10047 234.269 8.37779C234.6 8.6551 234.932 8.93241 235.292 9.20864C236.736 10.3136 238.179 11.4185 239.84 11.792C241.415 12.0095 242.751 11.1895 244.177 10.3147C244.251 10.2693 244.325 10.2237 244.399 10.1781L246.841 8.78645C247.071 8.65515 247.338 8.47614 247.627 8.28278C248.357 7.79301 249.225 7.21121 249.982 7.07976C251.323 7.03075 253.018 8.39956 254.216 9.36758C254.282 9.42062 254.346 9.47246 254.409 9.52279C255.587 10.4383 256.125 9.68448 256.76 8.79519C256.989 8.47465 257.231 8.13652 257.519 7.85262C258.39 6.99541 257.882 6.40304 257.519 6.214L255.352 4.85747C254.03 3.8928 252.472 2.93675 251.051 2.69928C249.59 2.47795 248.364 3.16091 247.049 3.89339C246.979 3.9325 246.909 3.97175 246.838 4.01101C246.09 4.41048 245.344 4.88962 244.597 5.36876C243.603 6.00761 242.608 6.64646 241.608 7.09647C240.378 7.61065 239.19 6.69703 238.144 5.89342C237.9 5.70564 237.663 5.52387 237.436 5.36772C237.117 5.111 236.788 4.80384 236.449 4.48665C235.508 3.60662 234.484 2.6494 233.352 2.47802C231.595 2.07627 230.083 3.64626 228.64 5.14576C227.842 5.9746 227.064 6.78191 226.278 7.22278C224.264 8.32079 222.258 6.82227 220.444 5.46672C219.951 5.09883 219.473 4.74147 219.012 4.4494C217.69 3.48473 216.136 2.67326 214.612 3.01842C213.257 3.30664 212.085 4.47404 211.005 5.54982C210.776 5.77846 210.551 6.00296 210.328 6.214C210.104 6.40972 209.845 6.68266 209.569 6.97311C208.992 7.57924 208.344 8.2616 207.791 8.47747C207.673 8.48178 207.448 8.92414 207.448 8.92414C207.298 8.92963 206.899 8.59084 206.567 8.30951C206.379 8.14985 206.213 8.00869 206.126 7.95947C205.283 7.26668 204.41 6.57498 203.538 5.88327C202.665 5.19165 201.792 4.50002 200.949 3.80732C200.949 3.80732 200.831 3.81163 200.828 3.66705C200.224 3.11027 199.277 3.00016 198.592 3.89348C198.075 4.41893 197.587 4.94331 197.099 5.46768C196.611 5.99198 196.123 6.51629 195.605 7.04167C195.377 7.33944 195.118 7.60214 194.86 7.86484C194.601 8.12755 194.342 8.39027 194.114 8.68805C193.993 8.79347 193.831 8.98849 193.652 9.20462C193.318 9.60783 192.923 10.0845 192.618 10.1899C191.92 10.3231 190.799 9.27022 189.974 8.49487C189.69 8.22804 189.441 7.99407 189.257 7.85262C188.715 7.43827 188.203 7.02284 187.692 6.60741C187.18 6.19198 186.668 5.77655 186.127 5.3622C185.975 5.23721 185.819 5.10645 185.662 4.97351C184.071 3.63274 182.216 2.07007 180.548 3.9743C179.865 4.75376 179.318 5.76904 178.804 6.72504C178.628 7.0526 178.455 7.37319 178.282 7.67496C178.056 8.04489 177.801 8.45201 177.546 8.85915C177.291 9.26659 177.036 9.67404 176.809 10.0442C173.797 7.5495 170.675 5.34824 167.331 3.73391C165.372 2.82751 164.24 4.18403 162.928 5.75656C162.881 5.81281 162.834 5.86933 162.786 5.92604C162.593 6.17789 162.401 6.45273 162.206 6.73121C161.709 7.44049 161.195 8.1734 160.613 8.61033C160.312 8.87331 160.23 8.96377 160.183 8.94808C160.123 8.92772 160.124 8.72868 159.785 8.49591C159.54 8.30857 159.236 7.92374 158.952 7.56418C158.817 7.39355 158.687 7.22862 158.57 7.09319C158.282 6.76054 158.007 6.4274 157.737 6.09971C157.21 5.46016 156.699 4.84141 156.139 4.28776C156.041 4.17454 155.94 4.05389 155.836 3.92948C155.293 3.28318 154.664 2.53504 153.963 2.19661C152.375 1.53164 151.325 2.75358 150.289 3.95971C150.081 4.20202 149.873 4.44368 149.662 4.66928C148.859 5.56692 148.056 6.46455 147.135 7.36649L146.32 8.07766C145.852 7.6022 145.38 7.13255 144.908 6.66289C144.031 5.7905 143.153 4.91812 142.305 4.00851C141.676 3.38753 141.116 2.88346 140.56 2.57981C140.548 2.56759 140.537 2.55538 140.525 2.54315C139.343 1.50151 138.045 2.1003 137.483 3.14284C137.471 3.15283 137.459 3.16291 137.447 3.17308C135.83 4.53461 133.871 6.3428 132.623 8.26973C132.564 8.27188 132.533 8.23681 132.503 8.20174C132.472 8.16668 132.442 8.13161 132.383 8.13376C132.213 7.7474 131.883 7.43348 131.574 7.14019C131.427 7.00101 131.285 6.86648 131.168 6.73105C130.88 6.39841 130.605 6.06528 130.335 5.73761C129.808 5.09804 129.298 4.47928 128.738 3.92562C127.401 2.38263 125.954 1.13311 124.094 2.2141C122.852 2.83837 121.94 4.09373 121.028 5.34909C120.573 5.97677 120.117 6.60445 119.619 7.15324L119.456 7.36626C119.531 7.16685 119.372 7.01758 119.027 7.0302C118.784 6.74966 118.439 6.60146 118.095 6.45326C117.922 6.37916 117.75 6.30506 117.59 6.21442L115.072 4.56993C113.153 3.33765 111.345 1.81189 109.537 0.286136C108.933 -0.270642 107.88 0.0572899 107.423 0.652841C107.027 1.31855 106.631 1.94812 106.234 2.57769C105.837 3.2072 105.44 3.83672 105.044 4.50238L103.685 6.72277C103.571 6.87166 103.457 7.02055 103.346 7.31401L103.232 7.4629C102.472 7.0815 101.763 6.40897 101.072 5.75325C100.786 5.48135 100.503 5.21234 100.22 4.96817C99.82 4.66211 99.4197 4.33633 99.0133 4.00561C98.3193 3.44086 97.6076 2.86171 96.8506 2.34178C94.8032 0.680066 92.7779 -0.114175 90.5902 1.99179C89.7855 2.81714 89.0102 3.6414 88.2349 4.46567C87.4596 5.28994 86.6844 6.11421 85.8796 6.93955C84.8908 6.11212 83.904 5.36514 82.8673 4.58038C82.5142 4.31309 82.1554 4.04142 81.7886 3.76069C81.5689 3.60032 81.3488 3.42795 81.127 3.25429C80.015 2.38336 78.8613 1.47976 77.4949 1.89167C76.3485 2.26082 75.2878 3.36682 74.2923 4.40474C73.9671 4.74381 73.6489 5.07561 73.3369 5.37209C72.6445 5.97626 71.9521 6.58043 71.3776 7.18028C70.6852 7.78445 70.2138 7.80168 69.3779 7.3981C68.3723 6.90512 67.4413 6.2349 66.5141 5.56747C64.9084 4.41162 63.3144 3.26415 61.3651 3.06019C58.7114 2.79637 56.7622 4.60616 54.7882 6.43897C54.3872 6.81131 53.9851 7.1846 53.5759 7.54164C52.8869 8.18495 52.8698 8.17005 52.3538 7.72018C52.2657 7.64343 52.1632 7.55403 52.0403 7.45307C51.6794 7.17684 51.348 6.89952 51.0166 6.62221C50.6852 6.3449 50.3538 6.06759 49.993 5.79135C48.5495 4.68641 47.1061 3.58147 45.4453 3.20805C43.8699 2.99049 42.534 3.81046 41.1087 4.68533C41.0348 4.73074 40.9606 4.77629 40.886 4.82186L38.4443 6.21354C38.214 6.34484 37.947 6.52386 37.6587 6.71721C36.9283 7.20699 36.0607 7.78878 35.3029 7.92024C33.9623 7.96925 32.2676 6.60047 31.0691 5.63245C31.0035 5.5794 30.9393 5.52755 30.8767 5.4772C30.4782 5.14376 30.0997 4.75729 29.7201 4.36965C28.8368 3.46774 27.9473 2.55952 26.7857 2.29835C25.2428 1.92061 23.7291 2.69951 22.58 3.89923C22.2976 4.16758 22.022 4.47162 21.7458 4.77639C20.7825 5.83903 19.8113 6.91042 18.5178 6.50787C17.3842 6.25298 16.4016 5.45318 15.4342 4.66569C14.9843 4.29948 14.5377 3.93594 14.0806 3.63109C12.5194 2.53046 10.8476 1.7233 8.95473 1.50307C5.52261 1.04968 2.02765 2.7693 0.23748 6.5973C-0.878623 9.09824 2.24029 11.1549 3.3564 8.65399C4.92188 5.26834 8.33933 5.14341 10.9722 6.63901C11.8255 7.12372 12.6327 7.74691 13.4386 8.36902C15.1192 9.66647 16.7938 10.9592 18.8672 10.9812C20.285 11.0741 21.5629 10.3038 22.7193 9.39326C22.9079 9.20854 23.1246 8.96209 23.3603 8.69404C24.2754 7.65322 25.4771 6.28657 26.4317 6.94213C27.1314 7.33961 27.7984 8.03513 28.4724 8.73796C28.9511 9.23718 29.4334 9.7401 29.9334 10.1425C31.2554 11.1072 32.813 12.0632 34.2345 12.3007C35.6957 12.522 36.9215 11.8391 38.2361 11.1066C38.3063 11.0675 38.3767 11.0282 38.4475 10.989C39.1956 10.5895 39.9417 10.1104 40.6879 9.63123C41.6827 8.99238 42.6775 8.35353 43.6771 7.90352C44.907 7.38934 46.0956 8.30297 47.1411 9.10659C47.3854 9.29436 47.6219 9.47613 47.8493 9.63227C48.1683 9.889 48.4969 10.1962 48.8362 10.5134C49.7775 11.3934 50.8015 12.3506 51.9329 12.522C53.6903 12.9237 55.202 11.3537 56.6457 9.85423C57.4438 9.02539 58.2211 8.21809 59.0077 7.77721C61.0209 6.67921 63.027 8.17773 64.8417 9.53328C65.3341 9.90117 65.8125 10.2585 66.2731 10.5506C67.5951 11.5153 69.149 12.3267 70.6737 11.9816C72.0282 11.6934 73.2001 10.526 74.2799 9.45018C74.5095 9.22154 74.7348 8.99704 74.9569 8.786C75.1812 8.59028 75.4407 8.31734 75.7168 8.02689C76.293 7.42076 76.9417 6.7384 77.4944 6.52253C77.6123 6.51822 77.837 6.07586 77.837 6.07586C77.9873 6.07037 78.3864 6.40914 78.7178 6.69047C78.9059 6.85014 79.0722 6.9913 79.1589 7.04053C80.0022 7.73329 80.8749 8.42497 81.7476 9.11666C82.6202 9.8083 83.4929 10.4999 84.3361 11.1927C84.3361 11.1927 84.454 11.1884 84.4576 11.3329C85.0615 11.8897 86.0079 11.9998 86.693 11.1065C87.2105 10.5811 87.6985 10.0568 88.1865 9.53242C88.6745 9.00808 89.1625 8.48374 89.6799 7.95833C89.9083 7.66055 90.167 7.39784 90.4258 7.13513C90.6845 6.87242 90.9432 6.60972 91.1716 6.31195C91.2924 6.20654 91.454 6.01154 91.6331 5.79542C91.9673 5.3922 92.3624 4.9155 92.6669 4.81015C93.3655 4.67694 94.4859 5.72978 95.3111 6.50513C95.595 6.77196 95.844 7.00592 96.0288 7.14737C96.5701 7.56174 97.082 7.97718 97.5938 8.39262C98.1056 8.80804 98.6174 9.22346 99.1587 9.6378C99.3108 9.76278 99.466 9.89355 99.6238 10.0265C101.215 11.3673 103.069 12.9299 104.738 11.0257C105.421 10.2463 105.967 9.23101 106.481 8.27504C106.657 7.94745 106.83 7.62683 107.003 7.32504C107.229 6.95498 107.484 6.54769 107.74 6.1404C107.995 5.73312 108.25 5.32583 108.476 4.95576C111.488 7.4505 114.611 9.65176 117.954 11.2661C119.913 12.1725 121.045 10.816 122.357 9.24344C122.404 9.18719 122.452 9.13067 122.499 9.07396C122.692 8.82211 122.885 8.54728 123.08 8.2688C123.577 7.55951 124.09 6.8266 124.672 6.38967C124.973 6.12669 125.056 6.03623 125.102 6.05192C125.162 6.07228 125.162 6.27132 125.501 6.5041C125.745 6.69143 126.049 7.07626 126.333 7.43581C126.468 7.60644 126.598 7.77138 126.716 7.90681C127.004 8.23948 127.278 8.57263 127.549 8.90033C128.076 9.53987 128.586 10.1586 129.146 10.7122C129.244 10.8255 129.345 10.9461 129.45 11.0705C129.993 11.7168 130.621 12.465 131.322 12.8034C132.91 13.4684 133.96 12.2464 134.996 11.0403C135.205 10.798 135.412 10.5563 135.624 10.3307C136.426 9.43308 137.229 8.53545 138.15 7.63351L138.965 6.92235C139.433 7.3978 139.905 7.86746 140.378 8.33711C141.255 9.2095 142.132 10.0819 142.981 10.9915C143.609 11.6125 144.169 12.1166 144.726 12.4202Z" fill="#F7C300"/>
</svg>
