<svg width="65" height="33" viewBox="0 0 65 33" fill="none" xmlns="http://www.w3.org/2000/svg">
<path d="M58.169 16.0549C57.915 14.8586 56.3271 14.03 55.5323 13.1632C54.5936 12.1393 53.812 10.9856 53.1353 9.77515C51.7658 7.32668 50.8414 4.66863 49.9817 2.0079C49.6158 0.878242 49.3102 0.0567246 47.9799 0.0132079C46.1806 -0.0462945 44.344 0.111767 42.5439 0.159724C42.1824 0.169493 41.7579 0.42616 41.6878 0.811594C40.7961 5.71921 38.8254 12.5469 32.8796 13.2147C27.4178 13.8284 23.9152 8.75561 23.7686 3.8409C23.8086 3.73965 23.8335 3.63129 23.8397 3.51317C23.8672 2.90838 23.8024 2.29562 23.6683 1.70592C23.6203 1.49456 23.4445 1.28317 23.2607 1.17482C23.1923 1.13486 23.1052 1.11532 23.0209 1.094C22.8965 1.02473 22.7615 0.974155 22.6052 0.974155H17.2189C17.1523 0.974155 17.0902 0.998985 17.0262 1.01497C16.6355 0.959909 16.2385 1.12778 16.1461 1.63399C15.7296 3.91906 14.8682 6.06381 13.8166 8.12597C13.2962 9.14639 12.7385 10.1472 12.1737 11.1428C11.7083 11.9652 11.2856 12.9421 10.4135 13.4039C10.1142 13.5629 9.99696 13.8098 9.98541 14.0637C9.80868 14.5859 10.076 15.2733 10.79 15.2662C11.0813 15.2636 11.3717 15.26 11.663 15.2573C11.774 15.2565 11.8859 15.2547 11.997 15.2538C11.9996 15.451 11.9863 15.6517 11.9907 15.8284C12.0014 16.2405 12.012 16.6534 12.0209 17.0655C12.0396 17.9243 12.0538 18.784 12.0636 19.6428C12.0831 21.3613 12.084 23.0797 12.0689 24.7982C12.0689 24.8008 12.0698 24.8026 12.0698 24.8062C11.9073 25.3248 12.1737 25.9944 12.8779 25.9882C19.5369 25.9323 26.1958 25.8772 32.8547 25.8213C36.1478 25.7937 39.4409 25.7662 42.7339 25.7386C46.0252 25.7111 49.5758 25.3186 52.8085 26.0353C53.3884 26.1641 53.9061 25.7751 53.9328 25.1791C54.0207 23.2031 53.9959 21.2298 53.8689 19.2573C54.8733 19.6073 56.0474 19.9447 56.7561 19.3169C57.2427 18.8853 57.5269 18.1206 57.8226 17.5557C58.0864 17.0557 58.2916 16.6303 58.169 16.0549Z" fill="#F7C300"/>
<path d="M10.8283 16.1973C10.8097 15.9593 10.7413 15.7425 10.5681 15.5694C10.4145 15.4157 10.1613 15.2994 9.94021 15.3092C9.7102 15.3198 9.47219 15.3953 9.31233 15.5694C9.16047 15.7354 9.03436 15.9646 9.05212 16.1973C9.10274 16.8527 9.1134 17.5107 9.08321 18.1679C9.06189 18.6324 9.50683 19.0765 9.9713 19.056C10.4704 19.0338 10.8363 18.6662 10.8594 18.1679C10.8896 17.5107 10.8798 16.8527 10.8283 16.1973Z" fill="black"/>
<path d="M55.4434 26.7712C54.0864 26.7872 52.7294 26.7943 51.3723 26.8085C51.7684 22.8751 51.9177 18.924 51.8289 14.972C52.8182 15.9107 53.9088 16.7499 55.097 17.4542C56.0819 18.0385 56.9771 16.5039 55.9931 15.9204C51.2933 13.1354 48.1175 8.05014 47.7356 2.59191C47.6859 1.87699 46.9621 1.61147 46.4532 1.79797C44.5464 1.97115 42.6415 2.12302 40.7259 2.01734C40.3147 1.99513 39.9381 2.34947 39.8671 2.75089C39.8608 2.76865 39.8476 2.7811 39.8422 2.79886C39.5314 3.90543 39.1975 5.00487 38.836 6.09545C38.6682 6.60255 38.5012 7.11057 38.3147 7.61146C38.296 7.66208 38.2774 7.71176 38.2579 7.7615C38.2517 7.77482 38.2481 7.78195 38.2348 7.81126C38.1957 7.8903 38.1575 7.97024 38.1122 8.04662C38.0208 8.20203 37.9461 8.28193 37.8431 8.34409C37.4346 8.59365 37.2792 9.13986 37.5243 9.55904C37.7641 9.96757 38.3289 10.1292 38.7401 9.87788C39.6966 9.29351 40.0243 8.17181 40.3546 7.15494C40.3839 13.7268 40.4132 20.2979 40.4426 26.8689C39.3653 26.8742 38.2881 26.8698 37.2108 26.8733C37.2561 26.1593 37.2987 25.4444 37.336 24.7304C37.4106 23.2792 37.4674 21.8281 37.5056 20.376C37.5838 17.4178 37.5829 14.4586 37.511 11.5004C37.5021 11.1523 37.3245 10.9232 37.0909 10.7873C37.0465 10.1319 36.185 9.57415 35.5722 10.1763C33.0243 12.678 29.0963 13.2384 26.0021 11.3912C23.043 9.62475 21.0288 6.31393 20.1629 3.04929C20.067 2.68606 19.8121 2.50666 19.5306 2.45071C19.4258 2.40541 19.3095 2.37525 19.1851 2.35926C17.4578 2.13635 15.7171 2.0351 13.9756 2.05642C13.5111 2.06175 13.0662 2.46139 13.0875 2.94451C13.0884 2.97915 13.1052 3.00931 13.1097 3.04306C11.4258 7.62918 9.5715 12.3956 5.58395 15.479C5.20118 15.7748 5.27845 16.4231 5.58395 16.7348C5.95429 17.1131 6.46228 17.027 6.83972 16.7348C9.53598 14.6496 11.3104 11.8103 12.71 8.76949C13.0013 14.805 13.5688 20.8352 13.2127 26.8796C12.5422 26.8778 11.8708 26.8778 11.2003 26.8742C11.0644 25.1336 10.9791 23.3884 10.9747 21.6424C10.9738 21.1629 10.568 20.7543 10.0866 20.7543C9.60614 20.7543 9.19762 21.1611 9.19851 21.6424C9.20295 23.3866 9.2882 25.1291 9.42319 26.868C8.37257 26.8609 7.32108 26.8653 6.27046 26.8573C5.12748 26.8485 5.12571 28.6246 6.27046 28.6335C7.52267 28.6433 8.77487 28.646 10.0271 28.654C10.1319 28.701 10.2491 28.7277 10.3788 28.7277C10.4889 28.7277 10.6008 28.7019 10.7065 28.6575C25.6194 28.7508 40.5314 28.7179 55.4434 28.5465C56.5855 28.5341 56.5881 26.7579 55.4434 26.7712ZM14.3548 5.30596C14.3521 5.17718 14.321 5.06794 14.2784 4.96847C14.4187 4.59547 14.5608 4.22248 14.6985 3.85125C15.8859 3.86014 17.0706 3.93384 18.2509 4.05284L18.186 9.07147C16.9578 9.05637 15.7287 9.05017 14.5004 9.06171C14.4374 7.80861 14.3823 6.55728 14.3548 5.30596ZM14.5901 10.837C15.7811 10.8272 16.972 10.8316 18.162 10.8467C18.1576 11.1753 18.1532 11.503 18.1496 11.8316C16.9835 11.7446 15.8139 11.7535 14.6496 11.8618C14.6292 11.519 14.6088 11.178 14.5901 10.837ZM14.988 26.8849C15.0537 25.765 15.0848 24.646 15.0937 23.527C15.29 23.4906 15.4862 23.4524 15.6842 23.4231C15.6887 23.4222 15.6896 23.4222 15.694 23.4213C15.7038 23.4204 15.7082 23.4195 15.7224 23.4178C15.7917 23.4098 15.8601 23.4018 15.9285 23.3938C16.0777 23.3778 16.2278 23.3645 16.377 23.3529C16.9516 23.3103 17.5271 23.3059 18.1026 23.3343C18.1363 24.4684 18.1922 25.6025 18.2828 26.7348C18.2873 26.7898 18.3095 26.8396 18.3219 26.8929C17.2109 26.8911 16.0999 26.8866 14.988 26.8849ZM15.067 20.4417C16.0688 20.4391 17.0715 20.4355 18.0741 20.4328C18.0697 20.8085 18.0839 21.1842 18.0857 21.559C17.0803 21.5119 16.0724 21.5767 15.0786 21.7339C15.0733 21.3032 15.0786 20.8716 15.067 20.4417ZM23.3974 12.0261C23.2712 16.9808 23.2206 21.9373 23.2375 26.8938C22.1691 26.8929 21.1007 26.9 20.0324 26.8982C20.0412 26.844 20.0652 26.7925 20.0599 26.7357C19.8263 23.8263 19.7802 20.9071 19.9205 17.9915C19.9755 16.8494 18.1994 16.8521 18.1443 17.9915C18.1336 18.2126 18.131 18.4347 18.123 18.6558C17.083 18.6585 16.0421 18.662 15.0022 18.6647C14.9356 16.9853 14.8503 15.3068 14.7509 13.6274C15.8734 13.5297 17.0013 13.5217 18.1247 13.6043C18.1221 13.8503 18.1185 14.0972 18.115 14.3441C18.0999 15.4871 19.8761 15.488 19.8912 14.3441C19.9213 12.0066 19.9515 9.66917 19.9826 7.33171C20.8743 9.00221 22.0457 10.5403 23.4604 11.7464C23.4311 11.8334 23.4 11.9196 23.3974 12.0261ZM35.7481 19.5705C35.7197 20.8609 35.677 22.1522 35.6202 23.4417C35.5918 24.0865 35.5598 24.7313 35.5243 25.376C35.5039 25.7517 35.4808 26.1282 35.4577 26.5039C35.4524 26.5944 35.4195 26.741 35.3947 26.8769C31.9346 26.884 28.4746 26.8929 25.0146 26.8911C24.9986 22.2419 25.0483 17.5936 25.1584 12.9453C25.3032 13.0288 25.4444 13.1194 25.5936 13.1958C26.8228 13.8245 28.1362 14.1629 29.4515 14.2331C29.543 17.6292 29.5643 21.0261 29.5137 24.4231C29.4968 25.5661 31.273 25.567 31.2899 24.4231C31.3414 20.9977 31.3192 17.5714 31.2259 14.1469C32.8387 13.9346 34.4 13.3361 35.7472 12.3485C35.7925 14.7553 35.8005 17.1638 35.7481 19.5705ZM42.1148 3.81304C43.3937 3.81126 44.6699 3.72778 45.9461 3.61676C45.8768 5.44535 45.8848 7.27484 45.9221 9.10432C44.6628 9.0084 43.4008 8.94447 42.1379 8.91428C42.1299 7.21357 42.1219 5.51285 42.1148 3.81304ZM42.146 10.6905C43.4213 10.7207 44.6948 10.7855 45.9665 10.8832C45.9763 11.1896 45.9834 11.496 45.9932 11.8024C45.4914 11.7962 44.9888 11.8085 44.4861 11.8343C44.0873 11.8547 43.6877 11.8734 43.2881 11.8734C43.1042 11.8734 42.9204 11.8689 42.7374 11.8592C42.646 11.8547 42.5545 11.8477 42.463 11.8397C42.4026 11.8343 42.3413 11.8281 42.2801 11.821C42.3644 11.8343 42.352 11.8325 42.2428 11.8157C42.2126 11.8112 42.1815 11.8175 42.1513 11.8148C42.1486 11.44 42.1477 11.0652 42.146 10.6905ZM42.1584 13.5608C42.9017 13.6407 43.6406 13.6514 44.3928 13.6141C44.9461 13.5865 45.4994 13.5599 46.0518 13.5697C46.1015 14.9622 46.1494 16.3556 46.1832 17.7482C44.8511 17.8672 43.5154 17.94 42.1779 17.9622C42.1717 16.495 42.1655 15.0279 42.1584 13.5608ZM45.987 26.8423C44.7303 26.8476 43.4745 26.8538 42.2179 26.8618C42.2126 25.6247 42.2072 24.3875 42.201 23.1504C43.5305 23.0856 44.8617 23.1203 46.1868 23.2508C46.1504 24.4488 46.0944 25.646 45.987 26.8423ZM42.193 21.3751C42.1903 20.8299 42.1886 20.2845 42.1859 19.7384C43.5323 19.7162 44.876 19.6424 46.2161 19.5217C46.2232 20.1735 46.2285 20.8263 46.2232 21.4781C44.8839 21.344 43.5376 21.3085 42.193 21.3751ZM49.5944 26.8236C48.9842 26.8289 48.3733 26.8298 47.7632 26.8325C48.0083 24.0909 48.0349 21.3476 47.9825 18.6034C47.9825 18.5883 47.9905 18.5767 47.9896 18.5616C47.9887 18.5403 47.9834 18.5181 47.9807 18.4959C47.9195 15.3974 47.7596 12.2988 47.6903 9.19934C48.3138 10.5439 49.0837 11.8192 50.0029 12.9826C50.2027 17.6016 50.0588 22.2251 49.5944 26.8236Z" fill="black"/>
<path d="M26.7021 30.3719C18.179 29.9252 9.64974 31.0655 1.1338 30.3399C-0.00473756 30.2431 0.00147909 32.0193 1.1338 32.1161C9.64886 32.8417 18.179 31.7014 26.7021 32.1481C27.8442 32.2085 27.8415 30.4314 26.7021 30.3719Z" fill="black"/>
<path d="M63.4337 29.5214C52.4373 30.6795 41.4613 30.7088 30.4312 30.1067C29.2891 30.0445 29.2926 31.8207 30.4312 31.8829C41.4613 32.485 52.4373 32.4557 63.4337 31.2976C64.5589 31.1786 64.5713 29.4015 63.4337 29.5214Z" fill="black"/>
</svg>
