<svg width="48" height="64" viewBox="0 0 48 64" fill="none" xmlns="http://www.w3.org/2000/svg">
<path d="M43.7603 20.7876C43.7541 20.3095 43.4764 20.0094 43.1306 19.8812C38.6138 15.0725 33.9242 10.4287 29.0687 5.96383C28.617 5.54878 28.0667 5.65356 27.7025 5.96383C27.6994 5.96586 27.6964 5.96583 27.6923 5.96787C24.3628 7.95868 22.0373 11.2089 19.0658 13.6494C17.4504 14.9759 15.8532 16.2669 14.4758 17.8497C12.9336 19.6218 11.424 21.4224 9.9001 23.2098C9.80956 23.3156 9.75669 23.4285 9.71498 23.5414C9.62139 23.6899 9.55425 23.8639 9.56646 24.0927C9.8808 29.6766 9.74039 35.2289 9.40062 40.8077C9.05576 46.4831 9.11478 52.1534 9.65292 57.8156C9.65902 57.8827 9.6824 57.9407 9.69868 58.0027C9.67732 58.5287 9.99066 59.0251 10.657 58.9356C11.1137 58.8746 11.5715 58.8298 12.0293 58.7698C11.836 57.9092 12.0181 56.9926 11.9733 56.1218C11.8441 53.6396 11.6661 51.1534 11.7272 48.6662C11.7648 47.1352 11.7587 45.3925 12.7444 44.126C14.5959 41.7486 18.4453 42.9185 19.899 45.0945C21.2499 47.1169 21.3119 49.8869 21.2448 52.2317C21.1919 54.0822 20.9284 55.9255 20.842 57.7729C27.8236 57.0842 34.8265 56.6233 41.8427 56.4371C41.9638 56.4341 42.0614 56.3985 42.1601 56.3639C42.7318 56.487 43.4256 56.1818 43.448 55.4219C43.7949 43.8798 43.8996 32.3338 43.7603 20.7876ZM33.3576 27.8201C33.3576 27.0805 33.9618 26.5332 34.677 26.5007C35.3891 26.4691 35.9964 27.1293 35.9964 27.8201C35.9954 29.5454 35.9313 31.2697 35.9303 32.995C35.9303 33.7346 35.326 34.2819 34.6109 34.3144C33.8988 34.3459 33.2914 33.6847 33.2914 32.995C33.2925 31.2697 33.3566 29.5454 33.3576 27.8201ZM13.8095 24.2606C13.8177 24.0847 13.8695 23.9218 13.9662 23.7703C14.0496 23.6166 14.1625 23.4936 14.306 23.4C14.4331 23.283 14.5826 23.2047 14.7546 23.164C15.0913 23.1172 15.4229 23.0775 15.7607 23.0531C15.9875 23.0368 16.2144 23.0205 16.4402 22.991C16.5765 22.9849 16.7128 22.9941 16.8492 23.0307L17.1645 23.164C17.4697 23.3247 17.6671 23.6329 17.7708 23.9524C17.8258 24.1273 17.8339 24.3034 17.7942 24.4783C17.7861 24.6543 17.7342 24.8171 17.6375 24.9686C17.5541 25.1223 17.4412 25.2454 17.2978 25.339C17.1706 25.4559 17.0211 25.5343 16.8492 25.575C16.5135 25.6217 16.1808 25.6614 15.8431 25.6858C15.6162 25.7021 15.3894 25.7184 15.1645 25.7469C15.0282 25.753 14.8919 25.7448 14.7556 25.7072L14.4402 25.5739C14.135 25.4122 13.9367 25.105 13.8339 24.7855C13.778 24.6116 13.7698 24.4366 13.8095 24.2606ZM18.1024 37.1271C18.0618 37.2991 17.9834 37.4486 17.8664 37.5758C17.8074 37.6745 17.7291 37.7538 17.6294 37.8128C17.5023 37.9298 17.3527 38.0081 17.1808 38.0488L16.8298 38.0956C16.5928 38.0875 16.3731 38.0224 16.1421 37.9868C16.2215 37.9969 16.3018 38.0081 16.3812 38.0193C16.0821 37.9979 15.8237 37.8881 15.5938 37.7049C15.3181 37.8423 14.9804 37.8504 14.6874 37.7833C14.3507 37.707 14.0801 37.4588 13.8991 37.177C13.8024 37.0254 13.7505 36.8616 13.7424 36.6867C13.7027 36.5117 13.7108 36.3357 13.7658 36.1608C13.8065 35.9889 13.8848 35.8393 14.0018 35.7121C14.0944 35.5687 14.2185 35.4558 14.3721 35.3724C14.5033 35.2818 14.6396 35.2238 14.7871 35.1617C14.9153 35.1078 15.0394 35.0499 15.1767 35.0265C15.3588 34.9959 15.5521 34.9573 15.7393 34.9675C15.9214 34.9766 16.1055 35.0011 16.2836 35.0428C16.3629 35.0611 16.4382 35.0885 16.5134 35.118C16.6884 35.1892 16.8654 35.2594 17.0323 35.3489C17.192 35.4354 17.3446 35.5361 17.4961 35.6379C17.7698 35.8199 18.0261 36.0936 18.1024 36.4263C18.1553 36.6572 18.1553 36.8952 18.1024 37.1271ZM19.9539 31.0235C19.9203 31.4141 19.9376 31.8068 19.8857 32.1964C19.8115 32.7478 19.5205 33.2086 19.018 33.4731C18.3954 33.8027 17.6864 33.9299 16.9987 34.0367C16.0913 34.1771 15.1727 34.29 14.2531 34.3022C13.4789 34.3123 12.5908 34.2808 11.9153 33.8556C11.0191 33.291 10.8726 32.1099 10.8096 31.1455C10.7638 30.4446 10.775 29.6359 11.0385 28.9574C10.9784 28.8088 10.9408 28.6502 10.9337 28.4844C10.9021 27.7692 11.5634 27.169 12.2531 27.165C13.9285 27.1558 15.5857 26.7245 17.2683 26.9035C18.2143 27.0042 19.1604 27.2433 19.7199 28.0846C20.3028 28.9594 20.0363 30.055 19.9539 31.0235ZM25.8643 15.0176C25.7951 15.1072 25.727 15.1956 25.6578 15.2841C25.436 15.5262 25.0474 15.6717 24.7249 15.6707C24.1034 15.6676 23.4798 15.5527 22.8582 15.6025C22.8236 15.6096 22.789 15.6147 22.7545 15.6239C22.4615 15.7002 22.1685 15.6727 21.8949 15.5578C21.6782 15.4662 21.5113 15.338 21.3669 15.1519C21.1899 14.922 21.0841 14.6463 21.0841 14.3523L21.1309 14.0014L21.2631 13.686C21.4615 13.4134 21.6721 13.157 21.905 12.9139C22.0281 12.7857 22.1461 12.6545 22.2611 12.5202C22.2824 12.4887 22.3058 12.4581 22.3252 12.4256C22.5022 12.1224 22.786 11.9251 23.1136 11.8193C23.4523 11.7094 23.8236 11.7908 24.1298 11.9526C24.4157 12.1031 24.6517 12.4347 24.7361 12.7409C24.7422 12.7623 24.7361 12.7877 24.7402 12.8101C24.7473 12.8223 24.7544 12.8335 24.7615 12.8457C24.7849 12.8702 24.8094 12.8935 24.8338 12.9159C24.963 13.0014 25.0922 13.0837 25.2346 13.1468C25.3902 13.2129 25.5347 13.2974 25.6578 13.4194C25.7259 13.509 25.7951 13.5975 25.8643 13.686C26.023 13.9322 26.0586 14.2465 26.0209 14.5273C26.0128 14.7032 25.9609 14.8661 25.8643 15.0176ZM29.7625 44.6316C29.7147 45.3966 29.6303 46.1596 29.6272 46.9266C29.6242 47.6661 29.025 48.2134 28.3078 48.246C27.5977 48.2775 26.9853 47.6173 26.9884 46.9266C26.9935 45.5472 27.26 44.1667 27.1054 42.7873C27.1044 42.7802 27.1033 42.7731 27.1023 42.7659C26.969 42.0366 27.2946 41.3794 28.024 41.1434C28.3414 41.0406 28.7584 41.1108 29.0412 41.2767C29.3027 41.4293 29.5916 41.7558 29.6475 42.065C29.8022 42.9195 29.8154 43.768 29.7625 44.6316ZM29.7788 28.3033C29.7188 28.5291 29.6679 28.758 29.6272 28.9879C29.6069 29.0968 29.5906 29.2066 29.5733 29.3165C29.5733 29.3195 29.5733 29.3195 29.5723 29.3226C29.5702 29.3419 29.5682 29.3603 29.5641 29.3948C29.5122 29.8465 29.4817 30.3012 29.4583 30.7559C29.4115 31.6572 29.3952 32.5616 29.2945 33.4599C29.2121 34.1974 28.7554 34.7437 27.9751 34.7793C27.318 34.8088 26.5784 34.1486 26.6557 33.4599C26.8734 31.5097 26.731 29.5179 27.2335 27.6024C27.4207 26.8882 28.1664 26.5241 28.8561 26.6807C29.558 26.8404 29.9537 27.637 29.7788 28.3033ZM35.0269 48.067C34.1449 48.2674 33.3108 47.7526 33.1216 46.8574C33.03 46.4251 33.0463 45.9958 33.0748 45.5594C33.1449 44.4688 33.2864 43.3773 33.2904 42.2838C33.2925 41.5442 33.8926 40.9969 34.6098 40.9644C35.3199 40.9328 35.9313 41.593 35.9292 42.2838C35.9262 43.1729 35.8173 44.0548 35.7492 44.9409C35.7237 45.2776 35.6993 45.6286 35.6963 45.9765C35.8041 46.1098 35.8906 46.2664 35.9486 46.4444C36.1612 47.1005 35.7014 47.9134 35.0269 48.067Z" fill="#F7C300"/>
<path d="M45.159 61.9658H37.3301C36.0208 61.9658 36.0188 64.0004 37.3301 64.0004H45.159C46.4683 64.0004 46.4703 61.9658 45.159 61.9658Z" fill="black"/>
<path d="M27.4737 14.7773L26.4279 13.2972C25.727 12.3053 25.0261 11.3145 24.3252 10.3227C24.2764 10.1874 24.2041 10.0612 24.0983 9.96359C23.6772 9.57702 23.08 9.58007 22.6599 9.96359C21.1167 11.3746 19.9926 13.1161 18.8369 14.8384C18.5267 15.0144 18.3018 15.3358 18.3018 15.7112C18.3018 16.2605 18.7678 16.7315 19.3191 16.7285C20.5653 16.7213 21.8115 16.7132 23.0566 16.7051C24.2641 16.698 25.4981 16.7641 26.7026 16.6787C27.1715 16.6451 27.5906 16.3785 27.73 15.9086C27.8551 15.4854 27.7158 15.1212 27.4737 14.7773ZM24.8887 14.6604C24.2774 14.6644 23.667 14.6675 23.0566 14.6715C22.4992 14.6746 21.9427 14.6787 21.3852 14.6817C21.666 14.2646 21.9498 13.8486 22.2459 13.4417C22.2825 13.3908 22.3191 13.3409 22.3567 13.2911C22.3608 13.285 22.3842 13.2545 22.4035 13.227C22.4239 13.2006 22.4574 13.1568 22.4646 13.1487C22.5002 13.1029 22.5368 13.0581 22.5734 13.0134C22.7291 12.8221 22.8898 12.634 23.0546 12.4508C23.1085 12.3908 23.1706 12.3379 23.2255 12.2789C23.5541 12.7438 23.8827 13.2077 24.2102 13.6726C24.4432 14.0022 24.6761 14.3308 24.9081 14.6604C24.901 14.6604 24.8948 14.6604 24.8887 14.6604Z" fill="black"/>
<path d="M15.8847 18.6426C14.5755 18.6426 14.5735 20.6771 15.8847 20.6771C17.194 20.6771 17.196 18.6426 15.8847 18.6426Z" fill="black"/>
<path d="M18.8705 18.543C17.5613 18.543 17.5592 20.5775 18.8705 20.5775C20.1797 20.5775 20.1818 18.543 18.8705 18.543Z" fill="black"/>
<path d="M23.134 19.1188C23.0923 18.9926 23.0232 18.8838 22.9235 18.7913C22.8553 18.7384 22.7861 18.6855 22.718 18.6326C22.5593 18.54 22.3884 18.4942 22.2042 18.4932C22.1137 18.5054 22.0242 18.5176 21.9337 18.5298C21.7607 18.5776 21.6112 18.6651 21.485 18.7913C21.4515 18.8248 21.4189 18.8573 21.3853 18.8909C21.2867 18.9835 21.2155 19.0924 21.1748 19.2185C21.1107 19.3396 21.0822 19.4708 21.0873 19.6102C21.0822 19.7505 21.1107 19.8808 21.1748 20.0018C21.2155 20.128 21.2856 20.2368 21.3853 20.3293C21.4545 20.3822 21.5227 20.4351 21.5919 20.488C21.7505 20.5796 21.9215 20.6264 22.1056 20.6264C22.1951 20.6142 22.2856 20.602 22.3762 20.5898C22.5481 20.541 22.6976 20.4545 22.8248 20.3284C22.8574 20.2948 22.8909 20.2622 22.9245 20.2286C23.0242 20.1361 23.0944 20.0273 23.1351 19.9011C23.1992 19.7801 23.2276 19.6488 23.2225 19.5094C23.2266 19.3711 23.1981 19.2398 23.134 19.1188Z" fill="black"/>
<path d="M25.1401 18.6426C23.8309 18.6426 23.8288 20.6771 25.1401 20.6771C26.4493 20.6771 26.4514 18.6426 25.1401 18.6426Z" fill="black"/>
<path d="M29.0566 19.3391C29.0088 19.1671 28.9213 19.0165 28.7952 18.8904C28.726 18.8375 28.6578 18.7846 28.5887 18.7317C28.43 18.6401 28.2591 18.5934 28.075 18.5924H27.9753C27.8349 18.5873 27.7047 18.6168 27.5836 18.6798C27.4575 18.7205 27.3486 18.7907 27.256 18.8904C27.1563 18.983 27.0862 19.0918 27.0455 19.218C26.9814 19.339 26.9529 19.4703 26.958 19.6096L26.9946 19.8802C27.0424 20.0521 27.1299 20.2027 27.256 20.3288C27.3242 20.3817 27.3934 20.4346 27.4615 20.4875C27.6202 20.5791 27.7911 20.6259 27.9753 20.6259H28.075C28.2154 20.6309 28.3456 20.6025 28.4676 20.5384C28.5938 20.4977 28.7026 20.4275 28.7952 20.3278C28.8939 20.2353 28.9651 20.1264 29.0058 20.0002C29.0698 19.8792 29.0983 19.7479 29.0932 19.6086C29.081 19.5201 29.0688 19.4296 29.0566 19.3391Z" fill="black"/>
<path d="M31.0118 18.543C29.7026 18.543 29.7005 20.5775 31.0118 20.5775C32.32 20.5775 32.3231 18.543 31.0118 18.543Z" fill="black"/>
<path d="M37.0676 27.7481C37.0533 27.3259 37.0818 26.8519 36.9801 26.4389C36.8428 25.8794 36.3667 25.5691 35.8184 25.5264C34.9781 25.4612 34.1185 25.4775 33.2762 25.4897C32.8031 25.4968 32.3515 25.5609 31.9995 25.9129C31.6139 26.2985 31.6211 26.8519 31.6089 27.3574C31.5865 28.2425 31.5661 29.1265 31.5458 30.0115C31.5234 31.0298 31.503 32.0492 31.4847 33.0675C31.4756 33.5466 31.3952 34.0929 31.5081 34.5628C31.6434 35.1244 32.1287 35.6656 32.7563 35.5984C32.854 35.5883 32.9445 35.5557 33.0351 35.5262C33.0585 35.5283 33.0758 35.5404 33.1012 35.5404C33.5223 35.5466 33.9435 35.5517 34.3647 35.5578C34.8468 35.5639 35.3616 35.6229 35.8255 35.4672C36.8407 35.1285 36.86 33.9942 36.9343 33.1071C37.0849 31.3259 37.1286 29.5355 37.0676 27.7481ZM33.5122 33.512C33.5122 33.4713 33.5132 33.4307 33.5142 33.39C33.5193 33.0685 33.5254 32.747 33.5315 32.4245C33.5427 31.8081 33.5549 31.1916 33.5681 30.5751C33.5814 29.9587 33.5946 29.3422 33.6098 28.7257C33.6169 28.4043 33.6251 28.0828 33.6332 27.7603L33.6393 27.5233C33.8835 27.5223 34.1266 27.5233 34.3708 27.5253C34.5885 27.5274 34.8062 27.5314 35.0239 27.5365C35.0279 27.6606 35.034 27.7848 35.0381 27.9089C35.0513 28.3351 35.0584 28.7623 35.0595 29.1896C35.0615 29.9902 35.0432 30.7908 35.0025 31.5904C34.9811 32.0166 34.9536 32.4429 34.9201 32.8691C34.9069 33.0288 34.8947 33.1885 34.8794 33.3472C34.8743 33.4082 34.8682 33.4693 34.8621 33.5304C34.6963 33.5283 34.5305 33.5263 34.3647 33.5232C34.0818 33.5191 33.797 33.5161 33.5122 33.512Z" fill="black"/>
<path d="M30.441 27.7481C30.4287 27.3259 30.4532 26.8519 30.3657 26.4389C30.2466 25.8794 29.8347 25.5691 29.3596 25.5264C28.6322 25.4612 27.8886 25.4775 27.1592 25.4897C26.7502 25.4968 26.3586 25.5609 26.0544 25.9129C25.7208 26.2985 25.7269 26.8519 25.7157 27.3574C25.6964 28.2425 25.6781 29.1265 25.6618 30.0115C25.6424 31.0298 25.6252 32.0492 25.6089 33.0675C25.6007 33.5466 25.5316 34.0929 25.6292 34.5628C25.7462 35.1244 26.1663 35.6656 26.7096 35.5984C26.794 35.5883 26.8723 35.5557 26.9517 35.5262C26.972 35.5283 26.9873 35.5404 27.0087 35.5404C27.3728 35.5466 27.738 35.5517 28.1022 35.5578C28.5193 35.5639 28.9649 35.6229 29.3667 35.4672C30.2456 35.1285 30.2619 33.9942 30.326 33.1071C30.4562 31.3259 30.4938 29.5355 30.441 27.7481ZM27.3637 33.512C27.3637 33.4713 27.3647 33.4307 27.3657 33.39C27.3708 33.0685 27.3759 32.747 27.381 32.4245C27.3912 31.8081 27.4013 31.1916 27.4125 30.5751C27.4237 29.9587 27.4359 29.3422 27.4491 28.7257C27.4552 28.4043 27.4624 28.0828 27.4695 27.7603L27.4745 27.5233C27.6851 27.5223 27.8967 27.5233 28.1083 27.5253C28.2965 27.5274 28.4847 27.5314 28.6739 27.5365C28.678 27.6606 28.6821 27.7848 28.6861 27.9089C28.6973 28.3351 28.7034 28.7623 28.7045 29.1896C28.7065 29.9902 28.6902 30.7908 28.6556 31.5904C28.6373 32.0166 28.6139 32.4429 28.5844 32.8691C28.5732 33.0288 28.562 33.1885 28.5498 33.3472C28.5447 33.4082 28.5396 33.4693 28.5356 33.5304C28.3921 33.5283 28.2487 33.5263 28.1053 33.5232C27.8561 33.5191 27.6099 33.5161 27.3637 33.512Z" fill="black"/>
<path d="M25.6049 47.0422C25.6191 47.4095 25.5907 47.8214 25.6924 48.1816C25.8297 48.6678 26.3058 48.9385 26.8541 48.9751C27.6944 49.031 28.554 49.0178 29.3963 49.0076C29.8693 49.0015 30.321 48.9456 30.673 48.6394C31.0585 48.3037 31.0514 47.8225 31.0636 47.382C31.086 46.6119 31.1064 45.8429 31.1267 45.0728C31.1491 44.1867 31.1694 43.2997 31.1877 42.4136C31.1969 41.9965 31.2772 41.5215 31.1643 41.1125C31.029 40.6232 30.5438 40.1522 29.9161 40.2122C29.8185 40.2214 29.7279 40.2488 29.6374 40.2753C29.614 40.2733 29.5967 40.2631 29.5713 40.2631C29.1501 40.258 28.7289 40.2529 28.3078 40.2478C27.8256 40.2417 27.3109 40.1919 26.847 40.3262C25.8318 40.6212 25.8124 41.6069 25.7381 42.379C25.5876 43.9294 25.5439 45.4868 25.6049 47.0422ZM29.1603 42.027C29.1603 42.0626 29.1593 42.0982 29.1583 42.1338C29.1532 42.4136 29.147 42.6934 29.1409 42.9742C29.1298 43.5103 29.1176 44.0474 29.1043 44.5835C29.0911 45.1196 29.0779 45.6567 29.0626 46.1928C29.0555 46.4726 29.0474 46.7523 29.0392 47.032L29.0331 47.2385C28.789 47.2396 28.5459 47.2386 28.3017 47.2366C28.084 47.2345 27.8663 47.2315 27.6486 47.2264C27.6445 47.1185 27.6384 47.0107 27.6344 46.9029C27.6211 46.5316 27.614 46.1602 27.613 45.7889C27.611 45.0921 27.6293 44.3952 27.67 43.6994C27.6913 43.3281 27.7188 42.9579 27.7524 42.5876C27.7656 42.4492 27.7778 42.3099 27.7931 42.1715C27.7982 42.1186 27.8043 42.0657 27.8104 42.0128C27.9762 42.0149 28.142 42.0169 28.3078 42.0189C28.5906 42.0209 28.8754 42.024 29.1603 42.027Z" fill="black"/>
<path d="M32.2324 47.0422C32.2446 47.4095 32.2202 47.8214 32.3077 48.1816C32.4267 48.6678 32.8388 48.9385 33.3138 48.9751C34.0412 49.031 34.7848 49.0178 35.5142 49.0076C35.9231 49.0015 36.3148 48.9456 36.619 48.6394C36.9526 48.3037 36.9465 47.8225 36.9577 47.382C36.9771 46.6119 36.9953 45.8429 37.0116 45.0728C37.0309 44.1867 37.0482 43.2997 37.0645 42.4136C37.0727 41.9965 37.1418 41.5215 37.0442 41.1125C36.9272 40.6232 36.507 40.1522 35.9638 40.2122C35.8794 40.2214 35.8011 40.2488 35.7217 40.2753C35.7014 40.2733 35.6861 40.2631 35.6648 40.2631C35.3006 40.258 34.9354 40.2529 34.5712 40.2478C34.1541 40.2417 33.7085 40.1919 33.3077 40.3262C32.4288 40.6212 32.4125 41.6069 32.3484 42.379C32.2162 43.9294 32.1785 45.4868 32.2324 47.0422ZM35.3087 42.027C35.3087 42.0626 35.3077 42.0982 35.3067 42.1338C35.3016 42.4136 35.2965 42.6934 35.2914 42.9742C35.2812 43.5103 35.2711 44.0474 35.2599 44.5835C35.2487 45.1196 35.2365 45.6567 35.2243 46.1928C35.2182 46.4726 35.2111 46.7523 35.2039 47.032L35.1988 47.2385C34.9873 47.2396 34.7767 47.2386 34.5651 47.2366C34.3769 47.2345 34.1887 47.2315 33.9995 47.2264C33.9954 47.1185 33.9913 47.0107 33.9873 46.9029C33.9761 46.5316 33.97 46.1602 33.9689 45.7889C33.9669 45.0921 33.9832 44.3952 34.0178 43.6994C34.0361 43.3281 34.0595 42.9579 34.089 42.5876C34.1002 42.4492 34.1114 42.3099 34.1236 42.1715C34.1287 42.1186 34.1338 42.0657 34.1378 42.0128C34.2813 42.0149 34.4247 42.0169 34.5681 42.0189C34.8164 42.0209 35.0625 42.024 35.3087 42.027Z" fill="black"/>
<path d="M26.7321 52.7275C25.4228 52.7275 25.4208 54.7621 26.7321 54.7621C28.0413 54.7621 28.0434 52.7275 26.7321 52.7275Z" fill="black"/>
<path d="M29.8674 52.7275C28.5581 52.7275 28.5561 54.7621 29.8674 54.7621C31.1756 54.7621 31.1786 52.7275 29.8674 52.7275Z" fill="black"/>
<path d="M32.8022 52.5781C31.493 52.5781 31.491 54.6127 32.8022 54.6127C34.1115 54.6127 34.1145 52.5781 32.8022 52.5781Z" fill="black"/>
<path d="M35.5387 52.5283C34.2294 52.5283 34.2274 54.5629 35.5387 54.5629C36.8489 54.5629 36.8499 52.5283 35.5387 52.5283Z" fill="black"/>
<path d="M46.2323 57.5952C44.1764 57.7589 42.1204 57.9228 40.0655 58.0865C40.5742 46.6584 40.6942 35.2181 40.4653 23.7829C40.8 23.4034 40.7858 22.7514 40.4338 22.3617C40.3992 20.8185 40.3809 19.2753 40.3321 17.7331C40.2904 16.4269 38.2558 16.4218 38.2975 17.7331C38.325 18.61 38.3392 19.4869 38.3555 20.3638C36.3281 18.0952 33.8886 16.1634 31.8052 13.963C29.1888 11.1991 26.7779 8.25206 24.3832 5.29686C24.3679 5.21751 24.3374 5.14428 24.3058 5.07104C24.2672 3.72009 24.2275 2.36914 24.1889 1.01819C24.1736 0.48717 23.7321 -0.0245219 23.1716 0.000910115C22.6334 0.0253248 22.138 0.448513 22.1543 1.01819C22.1919 2.30403 22.2286 3.58986 22.2662 4.8757C22.1757 5.05475 22.1248 5.25716 22.1431 5.46469C17.9834 10.7434 13.7109 16.2173 8.34982 20.3241C8.39051 19.3729 8.42815 18.4218 8.47698 17.4717C8.5431 16.1635 6.50854 16.1665 6.44242 17.4717C5.70998 31.8926 5.71609 46.3431 6.4526 60.764C4.6276 60.9095 2.80159 61.0549 0.976594 61.2004C-0.31942 61.3032 -0.331628 63.3387 0.976594 63.235C16.0618 62.0336 31.1471 60.8332 46.2323 59.6318C47.5283 59.527 47.5395 57.4914 46.2323 57.5952ZM8.19724 24.1379C9.53191 24.085 10.8666 24.0555 12.2013 24.0158L12.2694 25.6547C11.7089 25.6811 11.1351 25.7218 10.7079 26.1348C9.79842 27.0148 9.84422 28.5061 9.82998 29.6739C9.8137 31.0167 9.88184 32.3585 10.0243 33.6932C10.0405 33.8417 10.0833 33.9811 10.1433 34.1103C9.93067 34.7084 10.2338 35.5101 11.0588 35.505C11.5614 35.5019 12.0629 35.4978 12.5654 35.4927C12.5481 36.0624 12.5837 36.6291 12.6702 37.1947C12.6794 37.2344 12.7109 37.2628 12.7251 37.2994C11.1382 37.3106 9.55021 37.3188 7.96325 37.3391C7.98156 32.9384 8.04363 28.5376 8.19724 24.1379ZM19.0414 35.2079C19.367 35.1774 19.6874 35.1205 19.9499 34.9852C20.6091 34.6444 20.6752 34.0126 20.7311 33.3463C20.8298 32.1541 20.901 30.9598 20.9448 29.7645C20.9651 29.2263 20.9793 28.6882 20.9875 28.1501C20.9977 27.5316 21.0383 26.8947 20.6925 26.3505C20.3598 25.8266 19.841 25.617 19.2764 25.5336C19.2835 24.9812 19.2907 24.4278 19.2978 23.8754C20.4575 23.8592 21.6162 23.8266 22.7748 23.8215C22.7809 28.3098 22.7881 32.797 22.7942 37.2852C21.5429 37.2781 20.2917 37.2852 19.0404 37.2852V35.2079H19.0414ZM17.2439 25.497C16.2632 25.5071 15.2816 25.5245 14.3009 25.5621C14.2785 25.026 14.2561 24.4909 14.2338 23.9548C15.2439 23.9304 16.2541 23.9273 17.2653 23.908C17.2571 24.437 17.25 24.967 17.2439 25.497ZM15.7933 27.5478C16.6987 27.5264 17.605 27.5142 18.5104 27.5183C18.6528 27.5193 18.8003 27.5203 18.9448 27.5315C18.9255 27.7553 18.9519 28.263 18.9509 28.3291C18.9417 28.8062 18.9173 29.2833 18.9 29.7604C16.5511 29.8397 14.2022 29.9201 11.8533 29.9995C11.8421 29.4176 11.8452 28.8296 11.9235 28.265C11.9479 28.087 11.9968 27.8754 12.068 27.7025C12.1636 27.6974 12.2592 27.6912 12.3549 27.6861C12.596 27.6729 12.8381 27.6597 13.0781 27.6475C13.9815 27.6028 14.8869 27.5692 15.7933 27.5478ZM14.6458 36.7634C14.5898 36.33 14.5776 35.8946 14.5949 35.4582C15.3996 35.4368 16.2032 35.3972 17.0069 35.3453V37.2852C16.2022 37.2873 15.3975 37.2812 14.5939 37.2852C14.6061 37.2557 14.6193 37.2252 14.6315 37.1957C14.6702 37.0522 14.6692 36.9078 14.6458 36.7634ZM15.1839 33.4063C14.1361 33.442 13.0873 33.447 12.0385 33.4551C11.9907 32.9811 11.954 32.5061 11.9245 32.031C14.2175 31.9537 16.5115 31.8753 18.8054 31.798C18.7912 32.0157 18.78 32.2334 18.7647 32.4521C18.7474 32.6911 18.7301 32.9292 18.7108 33.1683C18.7108 33.1713 18.7108 33.1754 18.7108 33.1785C18.5491 33.1948 18.3873 33.211 18.2256 33.2252C17.898 33.2547 17.5704 33.2802 17.2429 33.3036C16.5572 33.3504 15.8706 33.3829 15.1839 33.4063ZM12.5064 60.2808C12.5268 57.2564 12.5461 54.2331 12.5654 51.2087C12.5756 49.7042 12.4769 48.1467 12.6407 46.6482C12.7994 45.1986 13.482 44.2068 15.0191 44.0684C18.3863 43.7653 19.4514 47.1843 19.4758 49.9361C19.5053 53.1975 19.5307 56.4579 19.5582 59.7193C17.2073 59.9064 14.8563 60.0936 12.5064 60.2808ZM21.5165 50.6391C21.4941 47.9595 21.1411 44.8731 18.841 43.0888C17.0282 41.6829 13.9347 41.5792 12.1504 43.0949C10.1412 44.8019 10.5522 47.9778 10.537 50.3206C10.5146 53.6949 10.4932 57.0692 10.4708 60.4425C9.80757 60.4954 9.14329 60.5483 8.48002 60.6012C8.12092 53.5301 7.96225 46.453 7.95716 39.3747C12.9042 39.3106 17.8512 39.2933 22.7982 39.3208C22.8064 44.8456 22.8145 50.3694 22.8216 55.8943C22.4015 55.9014 21.9814 55.9136 21.5602 55.9177C21.547 54.1578 21.5317 52.399 21.5165 50.6391ZM21.5917 59.5575C21.5877 59.0224 21.5826 58.4874 21.5785 57.9513C21.9936 57.9462 22.4096 57.935 22.8257 57.9278C22.8257 58.4375 22.8267 58.9482 22.8277 59.4589L21.5917 59.5575ZM9.39659 22.0667C14.8065 17.9365 19.132 12.5378 23.3344 7.21339C25.5337 9.92342 27.7544 12.6192 30.145 15.1645C31.4543 16.5592 32.8205 17.8918 34.2315 19.1827C35.2091 20.078 36.1897 20.9813 37.0686 21.9731C27.845 21.6995 18.6182 21.729 9.39659 22.0667ZM38.0249 58.2493C33.6373 58.5982 29.2498 58.9482 24.8623 59.2971L24.8603 57.8902C29.2661 57.7834 33.6669 57.5627 38.0615 57.2249C38.0462 57.5657 38.0401 57.9075 38.0249 58.2493ZM38.1317 55.1853C33.7126 55.5261 29.2865 55.7478 24.8562 55.8557C24.8542 54.6197 24.8532 53.3847 24.8511 52.1487C29.2946 52.0968 33.736 51.9808 38.1754 51.7916C38.1999 51.7906 38.2171 51.7784 38.2405 51.7754C38.2029 52.9117 38.1754 54.049 38.1317 55.1853ZM38.3036 49.7774C38.2589 49.7733 38.2243 49.755 38.1754 49.7571C33.735 49.9463 29.2925 50.0623 24.848 50.1142C24.843 46.5221 24.8379 42.9311 24.8328 39.3391C29.3922 39.3757 33.9527 39.4449 38.5111 39.5588C38.4816 42.9657 38.4023 46.3715 38.3036 49.7774ZM24.8298 37.3045C24.8237 32.8112 24.8165 28.3179 24.8104 23.8246C29.3526 23.8266 33.8947 23.8917 38.4359 24.0413C38.5234 28.5356 38.5417 33.0299 38.5193 37.5243C33.9568 37.4103 29.3933 37.3412 24.8298 37.3045Z" fill="black"/>
</svg>
