<svg width="44" height="64" viewBox="0 0 44 64" fill="none" xmlns="http://www.w3.org/2000/svg">
<path d="M34.4551 17.5801C33.7349 16.5237 32.2643 15.8882 31.2176 15.2233C29.9205 14.3991 28.6233 13.5737 27.3262 12.7494C27.042 9.63019 26.6559 6.52287 25.9683 3.45245C25.8436 2.89715 25.4228 2.677 24.9878 2.68893C24.0811 2.71171 23.7015 3.10651 23.4347 3.96223C22.9196 5.6097 22.527 7.29507 22.258 9.00002C22.001 10.6312 21.9912 12.3676 21.591 13.9706C21.1907 16.8794 20.7906 19.7872 20.3915 22.696C20.2722 23.5636 20.2667 24.5625 20.0194 25.4009C19.0336 28.7392 18.1757 32.0526 17.6475 35.5319C17.0293 39.6055 16.6041 43.716 15.692 47.7398C14.8103 51.6302 13.1249 55.334 12.8667 59.3513C12.7984 60.4217 14.0543 60.6592 14.6844 60.0866C20.6192 59.6463 26.5702 59.5117 32.518 59.695C33.0722 59.7124 33.3976 59.3784 33.5115 58.9684C33.8629 58.7395 34.1069 58.3361 34.0125 57.8166C33.5017 55.0249 32.9768 52.2332 32.4541 49.4426C32.7317 47.5858 32.7708 45.69 32.8413 43.8169C32.953 40.882 33.0646 37.9472 33.1763 35.0124C33.1818 34.8649 33.1514 34.7402 33.1124 34.6241C33.2436 32.4745 33.3781 30.3249 33.6926 28.1959C33.9171 26.6775 34.2284 25.0419 34.2783 23.4357C34.3954 22.6873 34.5137 21.9379 34.6319 21.1885C34.8173 19.9922 35.1947 18.6636 34.4551 17.5801Z" fill="#F7C300"/>
<path d="M42.3474 61.2374C39.0839 61.2743 35.8194 61.322 32.556 61.3643C32.5928 61.1463 32.6004 60.9023 32.5505 60.6149C31.9811 57.3872 31.4182 54.1584 30.8532 50.9307C31.1536 46.022 31.3792 41.1099 31.4985 36.1936C31.5625 33.5331 31.6004 30.8716 31.6102 28.2101C31.62 25.6592 31.2197 22.7004 32.2664 20.3003C32.5765 19.5888 32.12 18.9446 31.5647 18.7288C31.5375 18.706 31.5191 18.6767 31.4898 18.6561L27.5929 15.8677C26.5138 15.0954 25.4444 14.2993 24.349 13.5477C23.6429 9.4795 22.9304 5.41237 22.2308 1.34306C22.1376 0.795348 21.9109 0.434225 21.6408 0.21731C21.5606 0.145729 21.4727 0.100171 21.3783 0.062211C21.3426 0.0481116 21.31 0.0285723 21.2742 0.0177266C21.2015 -0.000711074 21.1278 -0.000701541 21.0519 0.00038303C20.976 -0.000701541 20.9033 -0.000711074 20.8296 0.0177266C20.7938 0.0274878 20.7612 0.047027 20.7254 0.062211C20.6311 0.100171 20.5432 0.145688 20.463 0.216185C20.1929 0.432015 19.9662 0.794288 19.873 1.342C19.1918 5.3061 18.4978 9.26805 17.8123 13.2322C15.1551 14.5857 12.8341 16.5303 10.4795 18.335C10.1053 18.6213 9.88952 19.0519 9.98062 19.4955C10.2453 30.3466 10.6031 41.1956 11.0554 52.0403C10.5543 54.8981 10.0565 57.757 9.55325 60.6138C9.47299 61.0671 9.53051 61.4229 9.65089 61.7016C7.00346 61.7461 4.356 61.7829 1.70964 61.8307C0.31597 61.8556 0.310547 64.0247 1.70964 63.9998C15.2548 63.7568 28.8012 63.5595 42.3485 63.4055C43.7422 63.3903 43.7465 61.2211 42.3474 61.2374ZM26.4986 17.7418C27.671 18.5801 28.8424 19.4185 30.0137 20.2569C29.4129 22.2276 29.4432 24.2589 29.4443 26.3478C29.4465 29.2751 29.4172 32.2034 29.3543 35.1307C29.3131 37.0634 29.2361 38.995 29.1656 40.9266C29.1363 40.8811 29.1135 40.8323 29.0767 40.7911C28.4899 37.4387 27.9151 34.0841 27.3305 30.7306C27.3988 30.4215 27.3467 30.0918 27.1743 29.8283C26.4042 25.4054 25.6397 20.9814 24.8707 16.5574C25.413 16.9533 25.9542 17.3524 26.4986 17.7418ZM26.3587 37.7521C26.5094 38.6143 26.6581 39.4755 26.8088 40.3378C22.9651 40.1046 19.1127 40.1436 15.2733 40.4549C15.4306 39.5579 15.5846 38.661 15.7419 37.764C19.2797 37.6328 22.8208 37.6285 26.3587 37.7521ZM16.1214 35.583C16.3557 34.2424 16.5867 32.9008 16.8221 31.5614C19.6409 31.5245 22.4597 31.5245 25.2785 31.544C25.5127 32.8867 25.7448 34.2305 25.9791 35.5732C22.6939 35.4659 19.4066 35.4691 16.1214 35.583ZM27.1906 42.5297C27.4292 43.8941 27.6634 45.2595 27.9031 46.6239C23.3555 46.3929 18.8025 46.3018 14.2495 46.3463C14.4653 45.1153 14.6768 43.8843 14.8915 42.6544C18.9836 42.3019 23.092 42.2618 27.1906 42.5297ZM28.2828 48.8093C28.4151 49.562 28.5452 50.3147 28.6754 51.0674C28.6667 51.2171 28.6601 51.3668 28.6515 51.5164C23.5312 51.0804 18.4012 51.1834 13.3016 51.7919C13.4936 50.7008 13.6801 49.6075 13.8709 48.5165C18.6767 48.4622 23.4835 48.5566 28.2828 48.8093ZM21.0519 7.25292C21.3654 9.07175 21.6853 10.8884 22.0009 12.7061C21.3654 12.692 20.7308 12.7051 20.0964 12.7463C20.4142 10.9144 20.7363 9.08476 21.0519 7.25292ZM19.7146 14.9371C20.6007 14.8644 21.4901 14.8449 22.3794 14.8807C22.9391 18.0975 23.4965 21.3155 24.0583 24.5323C22.066 24.3664 20.0671 24.3251 18.0704 24.3891C18.6203 21.2384 19.1658 18.0877 19.7146 14.9371ZM24.3143 26.7156C24.3555 26.7188 24.3934 26.6982 24.4347 26.6949C24.5908 27.5875 24.7448 28.4812 24.901 29.3749C22.3338 29.3586 19.7667 29.3597 17.1995 29.3912C17.3644 28.4487 17.527 27.5051 17.6919 26.5626C19.9012 26.4758 22.1115 26.5203 24.3143 26.7156ZM12.1562 19.7569C13.8384 18.4522 15.5206 17.1095 17.3329 15.9902C16.1605 22.7601 14.9946 29.53 13.8135 36.2988C13.7473 36.4626 13.717 36.635 13.7235 36.8107C13.4306 38.4886 13.1346 40.1653 12.8417 41.842C12.576 34.4821 12.3374 27.1201 12.1562 19.7569ZM11.4426 61.6734C11.5521 61.4793 11.6432 61.2526 11.6931 60.9663C11.8179 60.2613 11.9404 59.5552 12.064 58.8503C12.358 59.4305 12.6747 59.9989 13.0391 60.5379C13.2593 60.8633 13.5152 61.2537 13.8026 61.6354C13.0163 61.6484 12.2289 61.6604 11.4426 61.6734ZM16.2429 60.681C16.1974 60.7797 16.1388 60.8697 16.0715 60.9543C15.9034 60.8231 15.7364 60.5455 15.6171 60.3979C15.1822 59.8633 14.7939 59.2917 14.4414 58.6995C13.7853 57.5965 13.2929 56.4317 12.9339 55.1996C12.8948 55.0673 12.8287 54.9664 12.7604 54.871C12.8113 54.5814 12.8623 54.2918 12.9133 54.0023C15.0249 53.7257 17.1474 53.5457 19.2743 53.46C18.8708 54.5131 18.4685 55.5662 18.0357 56.6084C17.4772 57.9566 16.9663 59.4121 16.2429 60.681ZM18.2179 61.5639C18.6561 60.6897 19.0281 59.7743 19.4142 58.8774C19.9001 57.7473 20.3643 56.6095 20.8187 55.4664C21.3068 56.3709 21.8458 57.2495 22.4098 58.1204C22.9575 58.9674 23.5084 59.8123 24.0583 60.6582C24.2232 60.912 24.3935 61.1951 24.5768 61.4684C22.4564 61.4988 20.3372 61.5313 18.2179 61.5639ZM26.4259 59.1062C26.3739 59.2559 26.2405 59.5238 26.1288 59.7906C25.8435 59.27 25.4065 58.757 25.1028 58.2896C24.7113 57.6866 24.3154 57.0846 23.9282 56.4783C23.2937 55.4848 22.6809 54.474 22.1853 53.4057C24.2123 53.4046 26.2383 53.486 28.2589 53.6498C27.8803 54.8016 27.5029 55.9523 27.1125 57.0998C26.8858 57.7689 26.6569 58.4382 26.4259 59.1062ZM27.8739 61.4251C28.2578 60.6886 28.4855 59.7776 28.6905 59.181C29.0061 58.2635 29.3044 57.3406 29.6135 56.4208C29.8803 57.936 30.1428 59.4511 30.4096 60.9663C30.4389 61.1311 30.4953 61.2558 30.5452 61.3903C29.6558 61.4022 28.7643 61.4131 27.8739 61.4251Z" fill="black"/>
</svg>
