<svg width="296" height="15" viewBox="0 0 296 15" fill="none" xmlns="http://www.w3.org/2000/svg">
<path fill-rule="evenodd" clip-rule="evenodd" d="M144.29 6.79403L144.642 7.18616C145.521 8.09577 146.43 8.96815 147.339 9.84054C148.248 10.7129 149.156 11.5853 150.036 12.4949C151.066 13.3712 152.182 13.0866 152.856 12.3534C153.097 12.2176 153.348 12.0433 153.612 11.8269C155.287 10.4654 157.317 8.65721 158.611 6.73029C158.672 6.72813 158.703 6.7632 158.735 6.79827C158.766 6.83334 158.797 6.8684 158.859 6.86625C159.034 7.2526 159.377 7.56652 159.697 7.85981C159.849 7.999 159.996 8.13353 160.117 8.26896C160.416 8.60165 160.7 8.93484 160.98 9.26255C161.526 9.90207 162.055 10.5208 162.635 11.0744C164.019 12.6174 165.519 13.8669 167.445 12.7859C168.732 12.1616 169.677 10.9063 170.621 9.65092C171.094 9.02324 171.566 8.39556 172.081 7.84677L172.25 7.63374C172.172 7.83315 172.338 7.98243 172.695 7.96981C172.947 8.25036 173.304 8.39855 173.661 8.54675C173.839 8.62085 174.018 8.69495 174.183 8.78559L176.792 10.4301C178.78 11.6624 180.653 13.1881 182.526 14.7139C183.151 15.2707 184.242 14.9427 184.715 14.3472C185.126 13.6815 185.537 13.0519 185.948 12.4224C186.359 11.7929 186.77 11.1633 187.18 10.4976L188.588 8.27724C188.707 8.12835 188.825 7.97946 188.939 7.686L189.058 7.53711C189.845 7.9185 190.579 8.59103 191.295 9.24675C191.591 9.51866 191.885 9.78767 192.178 10.0318C192.592 10.3379 193.007 10.6637 193.428 10.9944C194.147 11.5592 194.884 12.1383 195.668 12.6582C197.789 14.3199 199.887 15.1142 202.154 13.0082C202.987 12.1828 203.791 11.3585 204.594 10.5342C205.397 9.70996 206.2 8.88575 207.034 8.06046C208.058 8.88789 209.08 9.63488 210.154 10.4196C210.52 10.6869 210.892 10.9586 211.272 11.2393C211.499 11.3997 211.727 11.572 211.957 11.7457C213.109 12.6166 214.304 13.5203 215.72 13.1083C216.907 12.7392 218.006 11.6332 219.037 10.5953C219.374 10.2562 219.704 9.92439 220.027 9.62791L220.027 9.62766C220.745 9.02358 221.462 8.4195 222.057 7.81972C222.774 7.21556 223.262 7.19832 224.128 7.60191C225.17 8.09488 226.135 8.76511 227.095 9.43254C228.759 10.5884 230.41 11.7359 232.429 11.9398C235.178 12.2036 237.198 10.3938 239.243 8.56102C239.658 8.18869 240.074 7.8154 240.498 7.45836C241.212 6.81505 241.23 6.82995 241.764 7.27982C241.856 7.35657 241.962 7.44598 242.089 7.54693C242.463 7.82315 242.806 8.10045 243.15 8.37774C243.493 8.65507 243.836 8.9324 244.21 9.20865C245.705 10.3136 247.201 11.4185 248.921 11.792C250.553 12.0095 251.937 11.1895 253.414 10.3147C253.49 10.2693 253.567 10.2237 253.644 10.1781L256.174 8.78646C256.412 8.65517 256.689 8.47616 256.988 8.28282C257.744 7.79304 258.643 7.21123 259.428 7.07977C260.817 7.03076 262.573 8.39953 263.814 9.36755C263.882 9.4206 263.949 9.47245 264.013 9.5228C264.426 9.85624 264.818 10.2427 265.212 10.6304C266.127 11.5323 267.048 12.4405 268.252 12.7017C269.85 13.0794 271.418 12.3005 272.608 11.1008C272.901 10.8324 273.186 10.5284 273.473 10.2236C274.47 9.16098 275.477 8.08958 276.817 8.49213C277.991 8.74702 279.009 9.54681 280.011 10.3343C280.477 10.7005 280.94 11.0641 281.413 11.3689C283.031 12.4695 284.763 13.2767 286.723 13.4969C290.279 13.9503 293.9 12.2307 295.754 8.4027C296.91 5.90176 293.679 3.84508 292.523 6.34601C290.901 9.73166 287.361 9.85659 284.633 8.361C283.749 7.87628 282.913 7.25308 282.078 6.63097C280.337 5.33353 278.603 4.0408 276.455 4.01878C274.986 3.9259 273.662 4.69619 272.464 5.60674C272.269 5.79146 272.044 6.0379 271.8 6.30595C270.852 7.34676 269.607 8.71344 268.618 8.05788C267.893 7.66039 267.202 6.96487 266.504 6.26204C266.008 5.76281 265.509 5.2599 264.991 4.85748C263.621 3.89281 262.008 2.93676 260.535 2.6993C259.021 2.47796 257.751 3.16093 256.39 3.89341C256.317 3.93252 256.244 3.97177 256.171 4.01103C255.396 4.4105 254.623 4.88963 253.85 5.36877C252.819 6.00762 251.789 6.64647 250.753 7.09648C249.479 7.61066 248.248 6.69703 247.164 5.89341C246.911 5.70564 246.666 5.52387 246.431 5.36773C246.1 5.11101 245.76 4.80384 245.408 4.48664C244.433 3.60663 243.373 2.64941 242.2 2.47803C240.38 2.07628 238.814 3.64628 237.318 5.14578C236.491 5.97462 235.686 6.78192 234.871 7.22279C232.786 8.3208 230.708 6.82228 228.828 5.46672C228.318 5.09884 227.822 4.74148 227.345 4.44941C225.975 3.48475 224.366 2.67327 222.786 3.01844C221.383 3.30666 220.169 4.47407 219.05 5.54986C218.812 5.77849 218.579 6.00298 218.349 6.21401C218.117 6.40973 217.848 6.68268 217.562 6.97313C216.965 7.57926 216.293 8.26161 215.72 8.47748C215.598 8.48179 215.365 8.92414 215.365 8.92414C215.21 8.92964 214.796 8.59085 214.453 8.30952C214.258 8.14986 214.086 8.0087 213.996 7.95948C213.122 7.26674 212.218 6.57507 211.314 5.88341C210.41 5.19174 209.506 4.50008 208.633 3.80733C208.633 3.80733 208.51 3.81164 208.507 3.66706C207.881 3.11029 206.901 3.00017 206.191 3.8935C205.655 4.41891 205.149 4.94325 204.644 5.46759C204.138 5.99192 203.633 6.51626 203.097 7.04168C202.86 7.33945 202.592 7.60216 202.324 7.86487C202.056 8.12758 201.788 8.39028 201.551 8.68806C201.426 8.79347 201.259 8.98848 201.073 9.2046C200.727 9.60782 200.318 10.0845 200.002 10.1899C199.279 10.3231 198.118 9.27022 197.263 8.49488C196.969 8.22805 196.711 7.99408 196.52 7.85263C195.959 7.43828 195.429 7.02285 194.898 6.60742C194.368 6.19199 193.838 5.77656 193.277 5.36221C193.12 5.23722 192.959 5.10645 192.795 4.97349C191.147 3.63273 189.226 2.0701 187.498 3.97432C186.79 4.75376 186.224 5.76904 185.691 6.72502C185.509 7.05259 185.33 7.37319 185.151 7.67497C184.916 8.0449 184.652 8.45203 184.388 8.85917C184.124 9.2666 183.86 9.67405 183.625 10.0442C180.504 7.54951 177.27 5.34825 173.806 3.73392C171.776 2.82752 170.604 4.18406 169.245 5.75661C169.196 5.81284 169.147 5.86936 169.098 5.92605C168.898 6.1779 168.698 6.45274 168.496 6.73121C167.981 7.4405 167.45 8.17341 166.847 8.61034C166.533 8.87428 166.449 8.96444 166.401 8.94791C166.339 8.9266 166.339 8.72803 165.988 8.49592C165.735 8.30858 165.42 7.92373 165.126 7.56417C164.986 7.39355 164.851 7.22863 164.73 7.0932C164.431 6.7605 164.147 6.4273 163.867 6.09957C163.321 5.46007 162.792 4.84138 162.212 4.28777C162.111 4.17453 162.006 4.05386 161.897 3.92942C161.335 3.28313 160.684 2.53504 159.958 2.19662C158.312 1.53166 157.225 2.7536 156.151 3.95975C155.936 4.20204 155.721 4.4437 155.502 4.66929C154.67 5.56693 153.838 6.46456 152.884 7.36651L151.81 8.27123C151.801 8.26219 151.792 8.25316 151.783 8.24412L151.431 7.85194C150.551 6.94233 149.643 6.06994 148.734 5.19755C147.825 4.32516 146.916 3.45277 146.037 2.54316C145.006 1.6669 143.891 1.95154 143.217 2.68465C142.976 2.82046 142.725 2.99476 142.46 3.21117C140.785 4.5727 138.755 6.38089 137.462 8.30781C137.401 8.30997 137.369 8.2749 137.338 8.23983C137.307 8.20476 137.275 8.16969 137.214 8.17185C137.038 7.78549 136.696 7.47158 136.376 7.17828C136.224 7.0391 136.077 6.90456 135.955 6.76913C135.657 6.43645 135.372 6.10326 135.092 5.77555C134.546 5.13603 134.018 4.51732 133.438 3.9637C132.053 2.42072 130.554 1.1712 128.627 2.25218C127.34 2.87645 126.396 4.13181 125.451 5.38717C124.979 6.01485 124.507 6.64253 123.992 7.19132L123.822 7.40434C123.9 7.20494 123.735 7.05567 123.377 7.06828C123.126 6.78774 122.769 6.63954 122.412 6.49134C122.233 6.41725 122.055 6.34315 121.89 6.2525L119.28 4.60802C117.293 3.37573 115.42 1.84998 113.547 0.324222C112.921 -0.232556 111.83 0.0953758 111.357 0.690926C110.947 1.35661 110.536 1.98616 110.125 2.6157C109.714 3.24524 109.302 3.87478 108.892 4.54047L107.484 6.76086C107.366 6.90974 107.248 7.05863 107.133 7.3521L107.015 7.50099C106.228 7.11959 105.494 6.44706 104.778 5.79134C104.481 5.51944 104.188 5.25042 103.895 5.00626C103.48 4.7002 103.066 4.37443 102.645 4.04371C101.926 3.47896 101.189 2.8998 100.404 2.37987C98.2833 0.718152 96.1852 -0.0760888 93.9189 2.02988C93.0852 2.8552 92.2821 3.67944 91.479 4.50368C90.6758 5.32797 89.8727 6.15227 89.039 6.97764C88.0146 6.15019 86.9923 5.4032 85.9184 4.61842C85.5526 4.35115 85.1808 4.07949 84.8009 3.79878C84.5733 3.63841 84.3453 3.46604 84.1156 3.29238C82.9636 2.42145 81.7684 1.51784 80.3529 1.92976C79.1653 2.29891 78.0664 3.40491 77.0352 4.44284C76.6983 4.78191 76.3686 5.1137 76.0454 5.41018C75.3282 6.01435 74.6109 6.61851 74.0157 7.21837C73.2984 7.82254 72.8101 7.83977 71.9441 7.43619C70.9024 6.94321 69.9379 6.27298 68.9774 5.60555C67.314 4.4497 65.6627 3.30224 63.6433 3.09828C60.8943 2.83446 58.875 4.64424 56.83 6.47705C56.4146 6.84939 55.9981 7.22268 55.5742 7.57973C54.8604 8.22304 54.8427 8.20814 54.3081 7.75826C54.2169 7.68152 54.1106 7.59211 53.9833 7.49116C53.6095 7.21492 53.2662 6.93761 52.9229 6.6603C52.5796 6.38299 52.2363 6.10567 51.8624 5.82944C50.3671 4.7245 48.8718 3.61956 47.1513 3.24613C45.5193 3.02858 44.1354 3.84855 42.6589 4.72342C42.5822 4.76883 42.5053 4.81438 42.4282 4.85994L39.8987 6.25163C39.66 6.38293 39.3835 6.56194 39.0848 6.7553C38.3281 7.24507 37.4293 7.82687 36.6443 7.95832C35.2555 8.00733 33.4999 6.63855 32.2584 5.67053C32.1903 5.61748 32.1239 5.56563 32.059 5.51529C31.6462 5.18185 31.2541 4.79537 30.8608 4.40774C29.9458 3.50582 29.0243 2.59761 27.821 2.33643C26.2226 1.9587 24.6545 2.7376 23.4641 3.93732C23.1716 4.20567 22.8861 4.50971 22.5999 4.81447C21.602 5.87712 20.5959 6.94851 19.256 6.54595C18.0816 6.29106 17.0637 5.49126 16.0615 4.70378C15.5954 4.33757 15.1327 3.97402 14.6593 3.66918C13.0419 2.56855 11.31 1.76138 9.34911 1.54115C5.79362 1.08777 2.17304 2.80739 0.318526 6.63539C-0.837695 9.13632 2.39333 11.193 3.54955 8.69207C5.1713 5.30643 8.71159 5.18149 11.4391 6.67709C12.3231 7.1618 13.1593 7.78499 13.9941 8.40711C15.7352 9.70455 17.4699 10.9973 19.6179 11.0193C21.0866 11.1122 22.4105 10.3419 23.6085 9.43134C23.8038 9.24662 24.0283 9.00018 24.2725 8.73212C25.2205 7.69131 26.4653 6.32465 27.4542 6.98021C28.1791 7.3777 28.8701 8.07321 29.5683 8.77605C30.0642 9.27527 30.5638 9.77818 31.0819 10.1806C32.4513 11.1453 34.0649 12.1013 35.5375 12.3388C37.0513 12.5601 38.3211 11.8772 39.683 11.1447C39.7557 11.1056 39.8287 11.0663 39.9019 11.0271C40.677 10.6276 41.4499 10.1485 42.2228 9.66932C43.2534 9.03047 44.284 8.39162 45.3195 7.94161C46.5937 7.42743 47.825 8.34105 48.9081 9.14468C49.1612 9.33245 49.4061 9.51422 49.6417 9.67036C49.9722 9.92708 50.3125 10.2342 50.664 10.5514C51.6392 11.4315 52.7 12.3887 53.8721 12.5601C55.6926 12.9618 57.2586 11.3918 58.7543 9.89232C59.5811 9.06348 60.3863 8.25617 61.2012 7.8153C63.2867 6.71729 65.3649 8.21581 67.2448 9.57136C67.755 9.93925 68.2506 10.2966 68.7278 10.5887C70.0972 11.5533 71.707 12.3648 73.2865 12.0197C74.6897 11.7314 75.9037 10.564 77.0224 9.48827C77.2601 9.25963 77.4936 9.03513 77.7236 8.82408C77.956 8.62836 78.2248 8.35542 78.5108 8.06497C79.1078 7.45885 79.7798 6.77649 80.3524 6.56061C80.4745 6.5563 80.7072 6.11395 80.7072 6.11395C80.863 6.10845 81.2764 6.44724 81.6198 6.72857C81.8146 6.88823 81.9869 7.02939 82.0767 7.07862C82.9502 7.77136 83.8543 8.46302 84.7583 9.15468C85.6624 9.84635 86.5665 10.538 87.44 11.2308C87.44 11.2308 87.5621 11.2264 87.5659 11.371C88.1915 11.9278 89.1719 12.0379 89.8816 11.1446C90.4177 10.6192 90.9232 10.0948 91.4287 9.57051C91.9343 9.04617 92.4398 8.52183 92.9759 7.99642C93.2124 7.69864 93.4805 7.43593 93.7485 7.17321C94.0165 6.91051 94.2846 6.64781 94.5211 6.35003C94.6463 6.24462 94.8137 6.04962 94.9993 5.8335C95.3455 5.43028 95.7547 4.95358 96.0702 4.84823C96.7939 4.71503 97.9547 5.76787 98.8094 6.54322C99.1036 6.81005 99.3615 7.04401 99.553 7.18546C100.114 7.59981 100.644 8.01524 101.174 8.43067C101.704 8.8461 102.235 9.26153 102.795 9.67588C102.953 9.80087 103.114 9.93163 103.277 10.0646C104.925 11.4053 106.846 12.968 108.575 11.0638C109.282 10.2843 109.848 9.26906 110.381 8.31307C110.564 7.98551 110.742 7.6649 110.921 7.36313C111.156 6.993 111.42 6.58563 111.685 6.17827C111.949 5.77106 112.213 5.36385 112.448 4.99385C115.568 7.48858 118.803 9.68985 122.267 11.3042C124.296 12.2106 125.469 10.854 126.828 9.28151C126.877 9.22527 126.925 9.16875 126.975 9.11205C127.175 8.8602 127.374 8.58538 127.576 8.30691C128.091 7.59761 128.623 6.86469 129.226 6.42776C129.539 6.16382 129.624 6.07366 129.672 6.09019C129.733 6.11149 129.734 6.31006 130.084 6.54218C130.338 6.72952 130.653 7.11437 130.947 7.47393C131.086 7.64455 131.221 7.80947 131.343 7.9449C131.641 8.2776 131.926 8.61079 132.206 8.93852C132.752 9.57802 133.28 10.1967 133.86 10.7503C133.962 10.8636 134.067 10.9842 134.175 11.1087C134.738 11.755 135.389 12.5031 136.115 12.8415C137.76 13.5064 138.848 12.2845 139.921 11.0784C140.137 10.8361 140.352 10.5944 140.571 10.3688C141.403 9.47117 142.234 8.57354 143.188 7.67159L144.262 6.76687C144.272 6.77593 144.281 6.78498 144.29 6.79403Z" fill="#F7C300"/>
</svg>
