<svg width="45" height="64" viewBox="0 0 45 64" fill="none" xmlns="http://www.w3.org/2000/svg">
<path d="M36.9358 18.1276C36.9338 17.9918 36.8986 17.8791 36.8563 17.7714C36.976 12.8655 36.803 7.95545 36.3321 3.06355C36.2677 2.39446 35.6871 2.08155 35.164 2.11173C35.0986 2.09664 35.0382 2.07048 34.9677 2.06847C33.7855 2.02722 32.6033 2.06243 31.4251 2.17311C31.1524 2.19927 30.914 2.26769 30.7137 2.46791C30.5819 2.59971 30.4964 2.79591 30.4572 2.99211C30.3727 3.13398 30.3234 3.29496 30.3435 3.47204C30.5749 5.49541 30.6383 7.53186 30.5467 9.5663C30.5095 9.56227 30.4793 9.54416 30.4411 9.54416H27.98C27.968 9.54416 27.9569 9.5512 27.9448 9.5512C27.4508 9.39424 26.8451 9.55623 26.6529 10.1951C25.6991 13.3665 24.3509 16.387 22.6515 19.2273C21.9482 19.342 21.2187 19.3551 20.5275 19.3441C18.9408 19.3189 17.3541 19.2404 15.7694 19.1861C14.9917 19.1589 14.6908 19.8723 14.8468 20.4579C14.8468 20.4699 14.8407 20.478 14.8407 20.4911C14.9645 32.4341 14.8488 44.3791 14.4916 56.317C14.4846 56.5495 14.559 56.7245 14.6606 56.8734C14.7723 57.2417 15.0732 57.5365 15.5782 57.5184C20.8193 57.3312 26.0633 57.3534 31.3023 57.5536C32.6415 57.7095 33.9817 57.8504 35.3249 57.9641C35.336 57.9651 35.3461 57.9581 35.3561 57.9591C35.4688 57.9571 35.5795 57.94 35.6841 57.9017C35.7063 57.8927 35.7264 57.8796 35.7475 57.8695C35.8441 57.8263 35.9296 57.7649 36.0061 57.6894C36.0212 57.6753 36.0353 57.6623 36.0494 57.6472C36.0886 57.6029 36.1198 57.5516 36.15 57.4983C36.2597 57.3322 36.3391 57.1491 36.3311 56.96C36.3281 56.8905 36.3029 56.8342 36.2888 56.7708C36.308 55.9568 36.31 55.1439 36.2959 54.3299C36.2979 54.2977 36.3039 54.2595 36.3059 54.2283C36.3462 53.2553 36.3643 52.2804 36.3874 51.3064C36.4327 49.4179 36.4679 47.5293 36.4921 45.6398C36.5343 42.3487 36.5353 39.0565 36.5122 35.7654C36.8955 29.8935 37.0374 24.0106 36.9358 18.1276Z" fill="#F7C300"/>
<path d="M37.4952 58.8495C36.1922 58.8434 34.8903 58.8263 33.5873 58.8183C34.1246 49.943 34.4969 41.0577 34.688 32.1684C34.7856 27.6588 34.8369 23.1483 34.845 18.6377C34.851 14.4692 34.9496 10.2706 34.4284 6.12723C34.4898 5.99442 34.5321 5.85255 34.5532 5.68855C34.6256 5.12813 34.2423 4.58078 33.7976 4.28698C33.4142 4.03444 32.9504 3.98816 32.5067 3.9469C31.8879 3.88955 31.2661 3.88352 30.6453 3.90666C30.6363 3.03735 30.6262 2.16803 30.6181 1.29872C30.6161 1.11359 30.5658 0.962664 30.4944 0.830858C30.4169 0.406263 30.1141 0.030971 29.5556 0.030971C28.2959 0.030971 27.0363 0.0309716 25.7766 0.0299654C25.1467 0.0299654 24.5168 0.0299654 23.887 0.0299654C23.3024 0.0299654 22.6142 -0.0696442 22.0468 0.0943582C21.3706 0.289551 21.1523 0.895254 21.0617 1.51907C20.9692 2.14791 20.8937 2.77877 20.8454 3.41264C20.8233 3.70141 20.8243 3.99118 20.8142 4.28095C19.3563 4.2075 17.8853 4.29503 16.5894 5.05166C15.2391 5.83947 14.2833 7.17765 13.6454 8.57821C12.2368 11.6721 11.7035 15.2128 11.8263 18.6105C11.4661 18.7957 11.1542 19.0965 10.9429 19.507C10.2577 20.8412 10.7105 22.8575 10.7578 24.2913C10.8835 28.0331 10.9761 31.776 11.0345 35.5189C11.1532 43.0891 11.1321 50.6604 10.9791 58.2297C10.9771 58.3565 11.0073 58.4601 11.0405 58.5617C9.79788 58.5426 8.55529 58.5315 7.3127 58.5084C6.01678 58.4852 6.01678 60.4975 7.3127 60.5207C17.3732 60.7028 27.4347 60.8165 37.4962 60.8628C38.7901 60.8678 38.7921 58.8555 37.4952 58.8495ZM22.8708 3.22952C22.896 2.92768 22.9261 2.62583 22.9644 2.32499C22.9764 2.22941 22.9905 2.13483 23.0046 2.04025C23.1093 2.04025 23.2139 2.04025 23.3195 2.04025H24.1697C24.7684 2.04025 25.366 2.04025 25.9647 2.04025C26.8471 2.04025 27.7305 2.04025 28.6129 2.04025C28.626 3.32008 28.64 4.6009 28.6531 5.88072C28.6612 6.6293 28.6692 7.37788 28.6763 8.12645C28.6803 8.50074 28.6843 8.87502 28.6883 9.24931C28.6883 9.31672 28.6914 9.40527 28.6934 9.49984C28.6481 9.49381 28.6018 9.48576 28.5555 9.47972C28.1913 9.42941 27.8261 9.38313 27.4598 9.34993C26.8139 9.29057 26.1659 9.26642 25.517 9.27447C24.869 9.28252 24.2211 9.32377 23.5771 9.39923C23.4735 9.41131 23.3316 9.42036 23.1938 9.43646C23.1616 9.27145 23.1304 9.10644 23.1012 8.94043C22.8869 7.71594 22.7903 6.47033 22.7883 5.22774C22.7893 4.56066 22.8155 3.89459 22.8708 3.22952ZM25.3993 11.3079V14.1684C24.7231 14.1734 24.046 14.1754 23.3688 14.1915C23.6133 13.281 23.7914 12.3533 23.8639 11.4135C24.1547 11.3733 24.4354 11.33 24.6859 11.3159C24.9223 11.3029 25.1618 11.3129 25.3993 11.3079ZM14.1002 14.1291L21.2922 14.1503C21.2177 14.4008 21.1412 14.6513 21.0567 14.8999C20.6371 16.1364 20.1934 17.4575 19.5565 18.6206C17.6499 18.7443 15.7412 18.7494 13.8356 18.6276C13.7833 17.1295 13.8647 15.6162 14.1002 14.1291ZM21.6111 29.3643C21.4783 32.7017 21.2237 36.033 21.0305 39.3674C20.6563 45.8188 20.8645 52.2501 21.0446 58.7026C18.3331 58.6724 15.6225 58.6261 12.9109 58.5869C12.9532 58.4792 12.9884 58.3645 12.9914 58.2277C13.1182 51.906 13.1554 45.5834 13.094 39.2607C13.0649 36.1829 13.0115 33.1051 12.9361 30.0273C12.8978 28.4477 12.8526 26.867 12.8022 25.2873C12.7761 24.4563 12.7469 23.6242 12.7177 22.7931C12.7087 22.5295 12.7962 21.0112 12.7016 20.5403C12.7439 20.5484 12.7831 20.5675 12.8274 20.5715C15.1848 20.7768 17.5523 20.7929 19.9117 20.6198C19.959 20.6168 20.0003 20.5957 20.0465 20.5866C20.1582 20.6027 20.2719 20.5947 20.3826 20.5745C20.4349 20.5745 20.4812 20.5906 20.5365 20.5816C21.5729 20.4266 21.5718 20.8532 21.6272 21.803C21.6745 22.614 21.6866 23.429 21.6956 24.242C21.7157 25.9504 21.6785 27.6578 21.6111 29.3643ZM14.5208 12.1178C14.7149 11.3773 14.9514 10.6489 15.2351 9.93853C15.6818 8.82069 16.3348 7.65054 17.346 6.95127C18.3733 6.23992 19.6129 6.20873 20.8223 6.2852C20.8343 6.53774 20.8333 6.7923 20.8535 7.04484C20.9038 7.67872 20.9812 8.30957 21.0768 8.93741C21.1634 9.51393 21.2046 10.2152 21.4743 10.7404C21.5769 10.9396 21.7127 11.0765 21.8616 11.1882C21.8395 11.5071 21.8033 11.8241 21.756 12.139C19.3432 12.1319 16.9325 12.1249 14.5208 12.1178ZM32.8307 19.3883C32.8186 23.8153 32.7632 28.2424 32.6646 32.6685C32.4705 41.3857 32.1022 50.098 31.575 58.8012C28.7357 58.7801 25.8963 58.7499 23.0579 58.7207C22.8587 51.1856 22.7561 43.7281 23.2391 36.194C23.4835 32.3767 23.7341 28.5553 23.7119 24.7289C23.7039 23.2217 24.0067 21.0504 23.2501 19.6841C22.9 19.0522 22.3677 18.7504 21.7681 18.6266C21.8878 18.3399 22.0025 18.0521 22.1172 17.7654C22.3224 17.2522 22.5106 16.7331 22.7018 16.2149C23.6003 16.1887 24.4998 16.1807 25.3982 16.1746V17.8972C25.3982 19.1921 27.4105 19.1941 27.4105 17.8972V16.1837C28.1692 16.1928 28.9268 16.1968 29.6854 16.2239C30.2288 16.2431 30.6916 15.748 30.6916 15.2178C30.6916 14.6564 30.2308 14.2308 29.6854 14.2116C28.9278 14.1855 28.1692 14.1784 27.4105 14.1704V11.3773C27.7053 11.4045 28.0032 11.4145 28.296 11.4578C28.8805 11.5443 29.4832 11.7436 30.0356 11.4246C30.6755 11.0533 30.7127 10.3752 30.7057 9.71617C30.6916 8.44942 30.6785 7.18168 30.6654 5.91493C31.252 5.89481 31.8416 5.90387 32.4262 5.9582C32.4272 6.00247 32.4121 6.0407 32.4192 6.08799C33.0329 10.4708 32.8427 14.9773 32.8307 19.3883Z" fill="black"/>
<path d="M11.4047 61.6971C7.92644 61.688 4.44919 61.68 0.971941 61.6709C-0.322974 61.6679 -0.324986 63.6802 0.971941 63.6832C4.44919 63.6923 7.92744 63.7003 11.4047 63.7094C12.6996 63.7124 12.7016 61.7001 11.4047 61.6971Z" fill="black"/>
<path d="M43.8359 61.8316C34.1738 62.052 24.5098 62.0399 14.8487 61.7924C13.5528 61.7592 13.5538 63.7715 14.8487 63.8047C24.5098 64.0512 34.1749 64.0643 43.8359 63.8439C45.1288 63.8148 45.1338 61.8014 43.8359 61.8316Z" fill="black"/>
<path d="M27.9187 24.3943C26.2766 24.3842 24.6356 24.4185 22.9956 24.4939C22.4703 24.5181 21.9964 25.0262 22.0538 25.5604C22.1132 26.1098 22.5569 26.5283 23.1203 26.5022C24.7603 26.4257 26.4024 26.3925 28.0434 26.4026C28.5716 26.4056 29.0405 25.8512 28.9852 25.3361C28.9238 24.7626 28.4841 24.3973 27.9187 24.3943Z" fill="black"/>
<path d="M18.3341 24.3066C16.5281 24.3076 14.7231 24.3509 12.918 24.4374C12.3395 24.4646 11.8163 24.9757 11.8756 25.51C11.937 26.0594 12.423 26.4749 13.0428 26.4457C14.8478 26.3592 16.6528 26.3159 18.4589 26.3149C19.0394 26.3149 19.5596 25.7565 19.5013 25.2424C19.4379 24.6689 18.9559 24.3056 18.3341 24.3066Z" fill="black"/>
<path d="M18.3341 28.29C16.5281 28.291 14.7231 28.3343 12.918 28.4208C12.3395 28.448 11.8163 28.9591 11.8756 29.4934C11.937 30.0428 12.423 30.4583 13.0428 30.4291C14.8478 30.3426 16.6528 30.2993 18.4589 30.2983C19.0394 30.2983 19.5596 29.7399 19.5013 29.2258C19.4379 28.6523 18.9559 28.29 18.3341 28.29Z" fill="black"/>
<path d="M18.3341 32.2734C16.5281 32.2744 14.7231 32.3177 12.918 32.4042C12.3395 32.4314 11.8163 32.9425 11.8756 33.4768C11.937 34.0261 12.423 34.4417 13.0428 34.4125C14.8478 34.326 16.6528 34.2827 18.4589 34.2817C19.0394 34.2817 19.5596 33.7233 19.5013 33.2092C19.4379 32.6367 18.9559 32.2734 18.3341 32.2734Z" fill="black"/>
<path d="M18.3341 36.2578C16.5281 36.2588 14.7231 36.3021 12.918 36.3886C12.3395 36.4158 11.8163 36.9269 11.8756 37.4612C11.937 38.0105 12.423 38.4261 13.0428 38.3969C14.8478 38.3104 16.6528 38.2671 18.4589 38.2661C19.0394 38.2661 19.5596 37.7077 19.5013 37.1935C19.4379 36.62 18.9559 36.2568 18.3341 36.2578Z" fill="black"/>
<path d="M18.3341 40.2412C16.5281 40.2422 14.7231 40.2855 12.918 40.372C12.3395 40.3992 11.8163 40.9103 11.8756 41.4446C11.937 41.9939 12.423 42.4095 13.0428 42.3803C14.8478 42.2938 16.6528 42.2505 18.4589 42.2495C19.0394 42.2495 19.5596 41.6911 19.5013 41.1769C19.4379 40.6034 18.9559 40.2412 18.3341 40.2412Z" fill="black"/>
<path d="M18.1268 44.2375C16.3782 44.2344 14.6305 44.2747 12.8828 44.3572C12.3234 44.3834 11.8163 44.8935 11.8757 45.4277C11.937 45.9771 12.4079 46.3936 13.0076 46.3655C14.7553 46.283 16.5029 46.2427 18.2516 46.2457C18.8141 46.2467 19.3161 45.6903 19.2588 45.1752C19.1964 44.6027 18.7285 44.2385 18.1268 44.2375Z" fill="black"/>
<path d="M17.8803 48.2362C16.2 48.2292 14.5197 48.2644 12.8405 48.3429C12.3022 48.368 11.8172 48.8761 11.8756 49.4114C11.9359 49.9608 12.3897 50.3783 12.9662 50.3512C14.6455 50.2727 16.3258 50.2375 18.006 50.2445C18.5463 50.2465 19.0273 49.6911 18.9709 49.176C18.9096 48.6035 18.4588 48.2382 17.8803 48.2362Z" fill="black"/>
<path d="M17.8732 52.2216C16.195 52.2145 14.5167 52.2498 12.8395 52.3282C12.3022 52.3534 11.8172 52.8615 11.8756 53.3968C11.9359 53.9461 12.3887 54.3637 12.9652 54.3365C14.6425 54.258 16.3207 54.2228 17.999 54.2299C18.5383 54.2319 19.0192 53.6765 18.9629 53.1613C18.9005 52.5888 18.4518 52.2236 17.8732 52.2216Z" fill="black"/>
<path d="M27.9187 28.4627C26.2766 28.4526 24.6356 28.4868 22.9956 28.5623C22.4703 28.5864 21.9964 29.0945 22.0538 29.6288C22.1132 30.1781 22.5569 30.5967 23.1203 30.5705C24.7603 30.4941 26.4024 30.4609 28.0434 30.4709C28.5716 30.4739 29.0405 29.9196 28.9852 29.4044C28.9238 28.8309 28.4841 28.4657 27.9187 28.4627Z" fill="black"/>
<path d="M27.9187 32.531C26.2766 32.521 24.6356 32.5552 22.9956 32.6306C22.4703 32.6548 21.9964 33.1629 22.0538 33.6971C22.1132 34.2465 22.5569 34.6651 23.1203 34.6389C24.7603 34.5624 26.4024 34.5292 28.0434 34.5393C28.5716 34.5423 29.0405 33.9879 28.9852 33.4728C28.9238 32.8993 28.4841 32.534 27.9187 32.531Z" fill="black"/>
<path d="M27.9187 36.5994C26.2766 36.5893 24.6356 36.6235 22.9956 36.699C22.4703 36.7231 21.9964 37.2312 22.0538 37.7655C22.1132 38.3149 22.5569 38.7334 23.1203 38.7073C24.7603 38.6308 26.4024 38.5976 28.0434 38.6077C28.5716 38.6107 29.0405 38.0563 28.9852 37.5411C28.9238 36.9676 28.4841 36.6024 27.9187 36.5994Z" fill="black"/>
<path d="M27.9187 40.6677C26.2766 40.6577 24.6356 40.6919 22.9956 40.7673C22.4703 40.7915 21.9964 41.2996 22.0538 41.8339C22.1132 42.3832 22.5569 42.8018 23.1203 42.7756C24.7603 42.6992 26.4024 42.666 28.0434 42.676C28.5716 42.679 29.0405 42.1246 28.9852 41.6095C28.9238 41.036 28.4841 40.6708 27.9187 40.6677Z" fill="black"/>
<path d="M27.6389 44.5388C25.9968 44.5288 24.3558 44.563 22.7158 44.6384C22.1906 44.6626 21.7167 45.1707 21.774 45.705C21.8334 46.2543 22.2771 46.6729 22.8406 46.6467C24.4806 46.5702 26.1226 46.537 27.7636 46.5471C28.2918 46.5501 28.7607 45.9957 28.7054 45.4806C28.644 44.9071 28.2043 44.5418 27.6389 44.5388Z" fill="black"/>
<path d="M27.3582 48.4109C25.7162 48.4008 24.0752 48.435 22.4351 48.5105C21.9099 48.5347 21.436 49.0428 21.4934 49.577C21.5527 50.1264 21.9964 50.5449 22.5599 50.5188C24.1999 50.4423 25.842 50.4091 27.483 50.4192C28.0112 50.4222 28.4801 49.8678 28.4247 49.3527C28.3644 48.7791 27.9237 48.4139 27.3582 48.4109Z" fill="black"/>
<path d="M27.0785 52.282C25.4365 52.2719 23.7955 52.3061 22.1555 52.3816C21.6303 52.4057 21.1564 52.9139 21.2137 53.4481C21.2731 53.9975 21.7168 54.416 22.2802 54.3899C23.9202 54.3134 25.5623 54.2802 27.2033 54.2903C27.7315 54.2933 28.2004 53.7389 28.145 53.2237C28.0837 52.6502 27.644 52.285 27.0785 52.282Z" fill="black"/>
</svg>
