<svg width="66" height="44" viewBox="0 0 66 44" fill="none" xmlns="http://www.w3.org/2000/svg">
<path d="M51.337 24.2871C51.2378 22.7536 50.9603 21.2393 50.8296 19.7096C50.6952 18.139 50.6504 16.5617 50.6475 14.9853C50.6456 14.2215 50.6551 13.4576 50.6675 12.6947C50.678 12.0996 50.8469 11.2576 50.5121 10.7197C50.1736 10.1771 49.5661 10.1618 49.0073 10.137C48.2406 10.1027 47.4729 10.0808 46.7052 10.0703C43.2979 10.0236 39.8914 10.2181 36.5079 10.6329C35.8785 10.7102 35.6173 11.331 35.704 11.8288C35.6955 11.8851 35.6726 11.9308 35.6735 11.9947C35.7355 16.7515 35.725 21.5082 35.6411 26.2649C35.6325 26.758 36.0492 27.1747 36.5156 27.1757C39.5071 27.1814 42.5006 27.1594 45.4921 27.2024C46.2598 27.2129 47.0275 27.2329 47.7942 27.271C48.5514 27.3092 49.3334 27.4618 50.0887 27.4513C51.6441 27.4265 51.4095 25.4162 51.337 24.2871Z" fill="#F7C300"/>
<path d="M27.8727 35.2409C27.7879 31.9012 27.5952 28.5654 27.5304 25.2248C27.3978 18.3491 27.4779 11.4705 27.559 4.59479C27.5685 3.79755 26.7722 3.52672 26.2058 3.76513C26.0217 3.80137 25.8405 3.8748 25.6832 4.00164C21.6598 7.2688 18.0741 11.0147 14.93 15.1315C14.6134 15.2555 14.3635 15.5321 14.3626 15.9745C14.3597 22.4764 14.2929 28.9783 14.1709 35.4793C14.0955 36.1916 14.0231 36.9031 13.9487 37.6154C13.9124 37.9606 14.0478 38.1962 14.2519 38.3459C14.4283 38.5681 14.6954 38.7131 15.0034 38.7464C18.4603 39.1231 21.903 39.6161 25.3275 40.2227C25.4181 40.2389 25.5077 40.2322 25.5973 40.2284C26.3727 40.4096 27.1718 40.0558 27.5647 39.2766C28.1388 38.1399 27.9042 36.4634 27.8727 35.2409Z" fill="#F7C300"/>
<path d="M49.0921 34.2912C49.0912 34.2902 49.0892 34.2892 49.0883 34.2873C49.0835 34.2769 49.0854 34.2664 49.0797 34.2549C46.9064 30.0074 44.5175 25.8753 41.9217 21.8719C41.7014 21.5325 41.3734 21.4132 41.0577 21.438C40.4331 21.377 39.7741 21.8357 40.0592 22.5738C40.9862 24.9694 41.0653 27.5165 41.1674 30.0513C41.2751 32.732 41.3543 35.4136 41.4105 38.0962C41.3362 38.3584 41.3533 38.6512 41.4897 38.8619C41.7958 39.3369 42.3041 39.4198 42.7943 39.2043C43.8261 38.7504 44.7836 38.1591 45.7296 37.5497C46.7376 36.9003 47.7437 36.2471 48.7497 35.5957C49.1674 35.3259 49.3791 34.7375 49.0921 34.2912Z" fill="#F7C300"/>
<path d="M65.0455 37.6061C63.2098 37.6929 61.3731 37.6919 59.5373 37.629C59.3304 34.4667 59.2369 31.2987 59.2741 28.1298C59.276 27.9753 59.2464 27.8409 59.1949 27.7245C59.1864 27.4441 59.0671 27.1676 58.7582 26.9788C55.7685 25.1506 52.2 24.69 49.1417 23.0326C49.0759 19.5957 49.0711 16.1588 49.1398 12.7209C49.3782 12.1411 49.1112 11.3601 48.3149 11.4135C43.5973 11.7339 38.8758 11.9857 34.1505 12.1697C34.1238 12.1287 34.1143 12.0849 34.08 12.0458C30.8433 8.34375 27.7621 4.51013 24.8497 0.547772C24.7543 0.418078 24.6323 0.318902 24.5016 0.238796C24.1641 -0.0511092 23.6691 -0.129313 23.2867 0.302684C19.1374 4.98027 14.9347 9.60923 10.6768 14.1886C10.5785 14.2944 10.5156 14.407 10.4737 14.5214C10.3525 14.5681 10.2314 14.6149 10.1093 14.6597C9.71835 14.8008 9.32261 14.9315 8.92399 15.0507C8.11149 15.2929 7.28659 15.4865 6.45216 15.6353C5.96008 15.723 5.63775 16.3495 5.78652 16.8082C5.81322 16.8902 5.85898 16.9522 5.89999 17.0199C6.0192 24.0597 6.13746 31.0994 6.25571 38.1392C4.48862 38.1678 2.72152 38.1973 0.954427 38.226C0.455675 38.2345 -0.0220967 38.6589 0.000790531 39.1796C0.0236778 39.6888 0.419437 40.1418 0.954427 40.1332C2.69767 40.1046 4.44189 40.076 6.18514 40.0474C6.0316 40.2066 5.93051 40.4107 5.94196 40.6568C5.96389 41.1431 6.36251 41.6485 6.89559 41.6104C8.60546 41.4883 10.3163 41.3672 12.0271 41.2452C12.1273 41.2385 12.2245 41.208 12.3189 41.1746C16.0705 42.2961 20.0119 42.6785 23.8837 43.181C24.0277 43.2898 24.2003 43.3708 24.4311 43.3708C25.8987 43.3708 27.2939 42.6146 28.6271 42.0796C29.9955 41.5313 31.3631 40.982 32.7306 40.4336C32.7649 40.4393 32.7925 40.4546 32.8288 40.4584C34.7189 40.652 36.6223 40.6768 38.5172 40.5337C38.6364 40.5242 38.7547 40.4937 38.8653 40.4489C38.8644 41.1937 38.8634 41.9385 38.8624 42.6832C38.8624 42.7767 38.892 42.8501 38.912 42.9293C38.8891 43.6788 39.8466 44.3588 40.5199 43.6684C41.5221 42.6413 42.9412 42.0672 44.1961 41.4168C44.6472 41.1832 45.0973 40.9495 45.5484 40.7159C45.6018 40.7245 45.6447 40.7483 45.7029 40.7483C49.9666 40.7855 54.2303 40.673 58.4864 40.4126C58.8068 40.3926 59.0385 40.2438 59.1911 40.0398C59.3933 39.9444 59.5545 39.7775 59.6174 39.5372C61.4264 39.5973 63.2374 39.5982 65.0455 39.5124C65.5424 39.4886 66.023 39.0909 65.9992 38.5588C65.9772 38.0638 65.5796 37.5813 65.0455 37.6061ZM10.467 39.4485C9.70691 39.5029 8.94783 39.5572 8.18778 39.6106C8.06285 32.1713 7.93696 24.7329 7.81108 17.2936C8.82956 17.0686 9.82708 16.7701 10.8065 16.4125C10.4326 24.0864 10.3125 31.7679 10.467 39.4485ZM12.5783 39.2654C12.5039 39.2425 12.441 39.2521 12.3723 39.2454C12.2131 31.0889 12.3494 22.9296 12.7872 14.7837C12.7881 14.7598 12.7776 14.7446 12.7776 14.7217C16.2212 11.0073 19.6247 7.2566 22.9978 3.47734C23.3487 16.0549 23.5099 28.6381 23.4736 41.2204C19.8155 40.7521 16.1106 40.3554 12.5783 39.2654ZM32.7744 38.5597C32.6152 38.512 32.4464 38.5054 32.2862 38.5693C30.9473 39.1062 29.6084 39.6431 28.2694 40.18C27.6248 40.4384 26.9811 40.6978 26.3364 40.9553C26.0227 41.0802 25.7051 41.2022 25.3809 41.2967C25.4181 28.7783 25.2579 16.2589 24.9117 3.74531C27.3339 6.93713 29.8392 10.0651 32.4693 13.0871C32.4006 13.2025 32.3481 13.3341 32.331 13.4915C31.426 21.7824 32.3243 30.2516 32.7859 38.5569C32.7821 38.5588 32.7782 38.5597 32.7744 38.5597ZM38.8682 38.6856C38.7604 38.6417 38.6441 38.616 38.5182 38.6255C37.247 38.7218 35.9729 38.7352 34.7008 38.6799C34.5425 35.8056 34.3336 32.9113 34.1629 30.0123C35.7345 29.9322 37.308 29.8998 38.8815 29.9255C38.8758 32.8455 38.872 35.7656 38.8682 38.6856ZM38.8834 28.0173C38.5754 28.0125 38.2674 28.0192 37.9603 28.0192C38.2683 27.6396 38.5764 27.2591 38.8853 26.8796C38.8844 27.2591 38.8834 27.6377 38.8834 28.0173ZM40.4855 23.3263C39.9887 22.9144 39.0637 23.0851 38.9178 23.8279C37.8821 25.1039 36.8465 26.3808 35.8108 27.6568C35.7097 27.7817 35.6392 27.9133 35.5915 28.0535C35.0813 28.0697 34.5711 28.0821 34.0618 28.1088C33.8206 23.4179 33.7309 18.7212 34.1906 14.0761C38.5382 13.9063 42.883 13.6727 47.224 13.3875C47.1391 18.2949 47.1896 23.2033 47.3794 28.1088H43.4284C42.6684 26.6927 41.9608 25.246 41.2647 23.7984C41.0882 23.4303 40.7878 23.3063 40.4855 23.3263ZM43.087 39.8452C42.3146 40.2458 41.5202 40.6358 40.7716 41.0935L40.7917 27.16C41.6118 28.8069 42.4739 30.4319 43.4742 31.9777C44.7073 33.8812 46.1616 35.6874 47.1496 37.7396C45.7954 38.4415 44.4412 39.1433 43.087 39.8452ZM49.0625 38.8382C49.2991 38.5969 49.4354 38.2431 49.3057 37.9303C48.293 35.4814 46.6975 33.4168 45.2528 31.2177C44.9943 30.8238 44.7559 30.4195 44.5146 30.0161H48.0345C48.1232 30.0161 48.2081 29.9875 48.293 29.9617C48.806 30.0142 49.3467 29.7233 49.3191 29.0606C49.2647 27.7693 49.2208 26.4781 49.1855 25.1869C51.8548 26.397 54.8006 26.9559 57.3658 28.393C57.3344 31.7803 57.445 35.1667 57.691 38.5445C54.8177 38.7066 51.9416 38.8096 49.0625 38.8382Z" fill="black"/>
</svg>
