<svg width="57" height="58" viewBox="0 0 57 58" fill="none" xmlns="http://www.w3.org/2000/svg">
<path d="M20.9607 14.5686C20.9052 14.1356 20.8394 13.7047 20.7437 13.2779C20.5463 12.3955 20.2388 11.549 19.8654 10.7273C19.7646 10.5062 19.4746 10.3159 19.2504 10.2553C19.0036 10.1874 18.6765 10.2182 18.4575 10.3591C18.3156 10.4507 18.2137 10.5617 18.1335 10.6831C18.0204 10.7993 17.9237 10.9351 17.8733 11.1058C17.646 11.8689 17.4188 12.633 17.1904 13.3961C17.0773 13.7777 16.9621 14.1592 16.849 14.5418C16.7708 14.8072 16.7287 15.0972 16.8099 15.3677C16.9333 15.7811 17.2624 16.0783 17.6748 16.1904C17.9104 16.2542 18.1798 16.2398 18.4246 16.248L19.0077 16.2665C19.4685 16.2809 20.029 16.3776 20.4383 16.1164C20.7972 15.887 21.0029 15.5168 21.0111 15.092C21.0173 14.9182 20.9834 14.7403 20.9607 14.5686Z" fill="#F7C300"/>
<path d="M23.6779 27.5535C23.6646 26.8346 23.6512 26.1157 23.6378 25.3969C23.6327 25.114 23.6399 24.8281 23.6142 24.5463C23.5566 23.9334 23.1709 23.4695 22.5682 23.3214C22.1764 23.2248 21.7414 23.2772 21.3434 23.2834C20.9217 23.2906 20.499 23.2968 20.0773 23.304C19.2679 23.3173 18.4596 23.3307 17.6512 23.3441C17.5947 23.3451 17.5422 23.3698 17.4856 23.3801C17.4476 23.377 17.4147 23.3574 17.3756 23.3595C16.8295 23.3842 16.3338 23.812 16.3472 24.3879C16.3646 25.1161 16.3811 25.8432 16.3986 26.5713L16.4202 27.5072C16.4305 27.9289 16.3986 28.3814 16.4819 28.7959C16.5837 29.2926 16.9478 29.6865 17.4342 29.8346C17.7705 29.9364 18.1284 29.92 18.475 29.9179C19.199 29.9138 19.9231 29.9015 20.6461 29.8819C20.9567 29.8727 21.2662 29.8624 21.5758 29.8511C22.0376 29.8336 22.5436 29.8593 22.9549 29.6155C23.7088 29.1682 23.6913 28.3166 23.6779 27.5535Z" fill="#F7C300"/>
<path d="M24.8566 43.1852C20.5875 43.4063 16.3112 43.4073 12.0421 43.1883C11.459 43.1584 11.0507 43.685 11.0137 44.2167C10.8615 46.3764 10.7093 48.5362 10.557 50.6949C10.5241 51.1649 10.9036 51.5444 11.3119 51.6863C11.9938 51.9239 12.7075 52.0278 13.4295 52.0041C14.135 51.9815 14.5505 51.3685 14.4209 50.7021C14.1134 49.1255 14.7079 47.6023 15.8165 46.5986C16.6331 46.2643 17.4723 46.0052 18.3527 45.9784C19.5652 45.9424 20.7654 46.4577 21.149 47.6095C21.2745 48.2801 21.3249 48.9774 21.2982 49.6582C21.1963 50.2352 21.1223 50.8204 21.0955 51.4158C21.038 52.7394 23.0948 52.7364 23.1524 51.4158C23.1524 51.4117 23.1535 51.4076 23.1535 51.4035C23.1576 51.387 23.172 51.3747 23.1751 51.3572C23.2913 50.6702 23.3838 49.9781 23.462 49.2839C23.8415 47.7042 24.5552 46.2078 25.5837 44.9397C26.0979 44.3072 25.8285 43.1348 24.8566 43.1852Z" fill="#F7C300"/>
<path d="M16.1517 32.2871C16.1743 31.9642 16.1918 31.6114 16.0951 31.2998C15.9779 30.9234 15.6766 30.5984 15.2899 30.4925C15.0801 30.4349 14.8774 30.4318 14.6635 30.4421L12.7743 30.5295C12.4133 30.546 12.0101 30.5172 11.6584 30.6077C11.2676 30.7085 10.9508 31.0149 10.849 31.4078C10.7935 31.6207 10.8079 31.8346 10.8727 32.0424C10.8922 32.1072 10.9241 32.1617 10.9519 32.2193C10.9611 32.246 10.9652 32.2738 10.9724 32.3015C10.9765 32.4825 10.9611 32.6615 10.9375 32.8415L10.9745 32.5679C10.9015 33.1099 10.8655 33.6365 10.8819 34.1836C10.8902 34.488 10.8902 34.7924 11.0105 35.0773C11.1123 35.318 11.2861 35.5329 11.5196 35.6604C11.7417 35.7818 11.9587 35.8106 12.2086 35.8312C13.163 35.9104 14.1267 35.9021 15.0811 35.8281C15.3577 35.8065 15.6076 35.7283 15.8082 35.5267C15.9861 35.3488 16.1208 35.0557 16.1095 34.7996C16.1064 34.7215 16.0766 34.6454 16.0561 34.5682C16.1054 34.3965 16.127 34.2144 16.0838 34.0201C16.0776 33.9933 16.0746 33.9666 16.0684 33.9398C16.0201 33.3855 16.1136 32.8373 16.1517 32.2871Z" fill="#F7C300"/>
<path d="M29.9999 35.7784C29.789 35.5871 29.6049 35.4853 29.3375 35.3906C29.173 35.332 28.9879 35.3166 28.8172 35.3001C28.5354 35.2734 28.2412 35.3259 27.9666 35.3834C27.7229 35.4338 27.474 35.6467 27.3516 35.8555C27.2426 36.0427 27.2045 36.2998 27.2405 36.5261C27.1521 36.7636 27.0883 36.9971 27.076 37.2727C27.0647 37.5288 27.1038 37.8024 27.1984 38.042C27.3043 38.3073 27.3866 38.4739 27.5779 38.6909C27.6581 38.7814 27.762 38.8555 27.8586 38.9234C27.8792 38.9378 27.8988 38.9511 27.9204 38.9635C28.0037 39.0087 28.1199 39.0612 28.2104 39.0848C28.5528 39.1753 28.8891 39.126 29.1987 38.9635C29.3561 38.8802 29.4908 38.7557 29.6214 38.6354C29.8363 38.4379 30.0318 38.223 30.1912 37.9762C30.3835 37.6779 30.4987 37.2922 30.4894 36.9364C30.4781 36.5106 30.3207 36.0684 29.9999 35.7784Z" fill="#F7C300"/>
<path d="M36.0738 14.5686C36.1293 14.1356 36.1952 13.7047 36.2908 13.2779C36.4883 12.3955 36.7958 11.549 37.1691 10.7273C37.2699 10.5062 37.5599 10.3159 37.7841 10.2553C38.0309 10.1874 38.358 10.2182 38.577 10.3591C38.719 10.4507 38.8208 10.5617 38.901 10.6831C39.0141 10.7993 39.1108 10.9351 39.1612 11.1058C39.3885 11.8689 39.6158 12.633 39.8441 13.3961C39.9572 13.7777 40.0724 14.1592 40.1855 14.5418C40.2637 14.8072 40.3059 15.0972 40.2246 15.3677C40.1012 15.7811 39.7721 16.0783 39.3597 16.1904C39.1242 16.2542 38.8547 16.2398 38.61 16.248L38.0268 16.2665C37.5661 16.2809 37.0056 16.3776 36.5963 16.1164C36.2373 15.887 36.0316 15.5168 36.0234 15.092C36.0183 14.9182 36.0522 14.7403 36.0738 14.5686Z" fill="#F7C300"/>
<path d="M33.3567 27.5535C33.3701 26.8346 33.3835 26.1157 33.3968 25.3969C33.402 25.114 33.3948 24.8281 33.4205 24.5463C33.4781 23.9334 33.8637 23.4695 34.4664 23.3214C34.8582 23.2248 35.2933 23.2772 35.6913 23.2834C36.113 23.2906 36.5356 23.2968 36.9573 23.304C37.7667 23.3173 38.5751 23.3307 39.3834 23.3441C39.44 23.3451 39.4924 23.3698 39.549 23.3801C39.587 23.377 39.62 23.3574 39.659 23.3595C40.2051 23.3842 40.7009 23.812 40.6875 24.3879C40.67 25.1161 40.6535 25.8432 40.6361 26.5713L40.6145 27.5072C40.6042 27.9289 40.6361 28.3814 40.5528 28.7959C40.4509 29.2926 40.0869 29.6865 39.6004 29.8346C39.2641 29.9364 38.9062 29.92 38.5596 29.9179C37.8356 29.9138 37.1116 29.9015 36.3886 29.8819C36.078 29.8727 35.7684 29.8624 35.4589 29.8511C34.9971 29.8336 34.4911 29.8593 34.0797 29.6155C33.3269 29.1682 33.3433 28.3166 33.3567 27.5535Z" fill="#F7C300"/>
<path d="M32.1781 43.1852C36.4472 43.4063 40.7234 43.4073 44.9925 43.1883C45.5757 43.1584 45.9839 43.685 46.021 44.2167C46.1732 46.3764 46.3254 48.5362 46.4776 50.6949C46.5105 51.1649 46.131 51.5444 45.7227 51.6863C45.0409 51.9239 44.3271 52.0278 43.6051 52.0041C42.8996 51.9815 42.4841 51.3685 42.6137 50.7021C42.9212 49.1255 42.3268 47.6023 41.2181 46.5986C40.4015 46.2643 39.5623 46.0052 38.682 45.9784C37.4694 45.9424 36.2692 46.4577 35.8856 47.6095C35.7602 48.2801 35.7098 48.9774 35.7365 49.6582C35.8383 50.2352 35.9124 50.8204 35.9391 51.4158C35.9967 52.7394 33.9398 52.7364 33.8822 51.4158C33.8822 51.4117 33.8812 51.4076 33.8812 51.4035C33.8771 51.387 33.8627 51.3747 33.8596 51.3572C33.7434 50.6702 33.6508 49.9781 33.5726 49.2839C33.1931 47.7042 32.4794 46.2078 31.451 44.9397C30.9367 44.3072 31.2062 43.1348 32.1781 43.1852Z" fill="#F7C300"/>
<path d="M40.9651 33.9377C40.96 33.9645 40.9559 33.9912 40.9497 34.018C40.9065 34.2113 40.9281 34.3944 40.9775 34.5661C40.9569 34.6432 40.9271 34.7194 40.924 34.7975C40.9127 35.0536 41.0474 35.3467 41.2253 35.5246C41.4259 35.7262 41.6758 35.8044 41.9525 35.826C42.9079 35.901 43.8705 35.9082 44.8249 35.829C45.0759 35.8085 45.2929 35.7797 45.514 35.6583C45.7474 35.5308 45.9212 35.3159 46.0231 35.0752C46.1434 34.7903 46.1434 34.4859 46.1516 34.1815C46.1681 33.6343 46.131 33.1078 46.059 32.5658L46.0961 32.8393C46.0724 32.6594 46.057 32.4804 46.0611 32.2994C46.0683 32.2727 46.0724 32.2439 46.0817 32.2171C46.1094 32.1595 46.1413 32.1061 46.1609 32.0402C46.2257 31.8325 46.2401 31.6186 46.1845 31.4057C46.0827 31.0139 45.767 30.7063 45.3751 30.6056C45.0234 30.5161 44.6202 30.5449 44.2593 30.5274L42.37 30.44C42.1561 30.4297 41.9535 30.4338 41.7437 30.4904C41.357 30.5963 41.0556 30.9213 40.9384 31.2977C40.8417 31.6093 40.8582 31.9621 40.8818 32.285C40.922 32.8373 41.0145 33.3855 40.9651 33.9377Z" fill="#F7C300"/>
<path d="M37.5918 25.2698C37.4129 25.0918 37.1208 24.9571 36.8637 24.9684C36.5983 24.9797 36.3217 25.0672 36.1366 25.2698C35.9514 25.4713 35.8352 25.7182 35.8352 25.9969V27.6064C35.8352 27.8697 35.9504 28.1474 36.1366 28.3335C36.3155 28.5125 36.6076 28.6462 36.8637 28.6349C37.1301 28.6225 37.4057 28.5351 37.5918 28.3335C37.7759 28.1319 37.8921 27.8851 37.8921 27.6064V25.9969C37.8921 25.7326 37.778 25.4559 37.5918 25.2698Z" fill="black"/>
<path d="M55.9794 55.8454C53.1604 55.8557 50.3425 55.8649 47.5235 55.8752C48.0655 53.2362 47.6685 50.2887 47.6192 47.625C47.5626 44.5006 47.505 41.3762 47.4474 38.2518C47.3343 32.0872 47.2222 25.9227 47.1091 19.7582C47.0844 18.4356 45.0275 18.4315 45.0522 19.7582C45.0655 20.4648 45.0779 21.1713 45.0913 21.8778C44.7837 21.8861 44.4773 21.8933 44.1698 21.9015C44.3353 18.7308 44.1255 15.556 43.5424 12.4326C43.4406 11.8865 42.7803 11.5759 42.2774 11.7147C41.7046 11.8721 41.4567 12.4315 41.5596 12.9797C41.7251 13.8673 41.8455 14.761 41.9432 15.6568C41.7241 15.6578 41.504 15.666 41.285 15.6681C41.3333 13.3057 40.3727 11.1347 39.7474 8.89266C39.4903 7.97117 39.3494 7.02294 39.2682 6.0634C39.2641 5.81863 39.2589 5.57386 39.2558 5.32806C39.2373 3.88309 39.2198 2.43813 39.2013 0.993157C39.1869 -0.166932 37.6031 -0.310914 37.2257 0.566351C37.1187 0.71959 37.0406 0.902654 37.0498 1.14537C37.1095 2.79294 37.0776 4.49399 37.2092 6.16419C37.2092 7.17001 37.1311 8.08739 36.6024 9.05721C35.4475 11.1768 34.4345 13.4415 34.453 15.8882C34.271 15.8984 34.0889 15.9046 33.9069 15.9159C33.9511 14.7682 34.0365 13.6225 34.2144 12.4799C34.416 11.1851 32.4342 10.6266 32.2315 11.9328C31.7965 14.7291 31.7924 17.5182 31.9086 20.3105C31.1753 20.3383 30.44 20.3444 29.7057 20.3537C29.6573 19.5186 29.61 18.6825 29.5617 17.8474C29.5308 17.3115 29.1102 16.7932 28.5332 16.8189C28.5178 16.8199 28.5024 16.8261 28.487 16.8292C28.4715 16.8261 28.4561 16.8189 28.4407 16.8189C27.8637 16.7932 27.4431 17.3115 27.4122 17.8474C27.3649 18.6825 27.3166 19.5186 27.2683 20.3537C26.5339 20.3444 25.7996 20.3393 25.0653 20.3105C25.1805 17.5172 25.1774 14.7291 24.7424 11.9328C24.5398 10.6266 22.558 11.184 22.7595 12.4799C22.9375 13.6225 23.0228 14.7682 23.0671 15.9159C22.885 15.9046 22.703 15.8984 22.5209 15.8882C22.5395 13.4415 21.5264 11.1768 20.3715 9.05721C19.8429 8.08739 19.7647 7.17001 19.7647 6.16419C19.8963 4.49296 19.8645 2.79191 19.9241 1.14537C19.9313 0.903682 19.8542 0.720618 19.7472 0.566351C19.3698 -0.311943 17.786 -0.16796 17.7716 0.993157C17.7531 2.43813 17.7356 3.88309 17.7171 5.32806C17.714 5.57283 17.7088 5.81863 17.7047 6.0634C17.6235 7.02294 17.4826 7.97117 17.2255 8.89266C16.6002 11.1347 15.6396 13.3057 15.6879 15.6681C15.4689 15.666 15.2488 15.6578 15.0297 15.6568C15.1274 14.761 15.2467 13.8673 15.4133 12.9797C15.5162 12.4315 15.2683 11.8721 14.6955 11.7147C14.1926 11.5769 13.5323 11.8865 13.4305 12.4326C12.8474 15.556 12.6376 18.7308 12.8031 21.9015C12.4956 21.8933 12.1892 21.8861 11.8817 21.8778C11.895 21.1713 11.9074 20.4648 11.9207 19.7582C11.9454 18.4315 9.88852 18.4356 9.86384 19.7582C9.75174 25.9227 9.63861 32.0872 9.52548 38.2518C9.46789 41.3762 9.41132 44.5006 9.35373 47.625C9.30437 50.2887 8.90738 53.2362 9.44938 55.8752C6.6304 55.866 3.81245 55.8557 0.99348 55.8454C-0.332188 55.8403 -0.330131 57.8972 0.99348 57.9023C10.122 57.9342 19.2505 57.9661 28.379 57.999V58C28.415 58 28.4499 58 28.4859 58H28.5929V57.999C37.7214 57.9671 46.8499 57.9352 55.9784 57.9023C57.303 57.8982 57.3051 55.8413 55.9794 55.8454ZM45.373 37.2151C45.3761 37.392 45.3792 37.5689 45.3823 37.7458C45.4049 38.9984 45.4276 40.2511 45.4512 41.5037C44.3189 41.6179 43.1773 41.6652 42.0337 41.6898C41.9319 40.2768 41.8393 38.8616 41.7581 37.4465C42.2116 37.4742 42.6888 37.4136 43.1135 37.3817C43.8664 37.3261 44.6192 37.2706 45.373 37.2151ZM45.335 35.1602C44.685 35.2086 44.035 35.2559 43.3851 35.3042C42.9943 35.333 42.6024 35.3649 42.2106 35.3906C42.1334 35.3958 42.0573 35.4009 41.9792 35.4009C41.9555 35.4009 41.9092 35.3937 41.864 35.3886C41.8013 35.3279 41.7303 35.2785 41.6511 35.2405C41.5945 33.8726 41.5534 32.5048 41.5544 31.138C42.7896 31.1431 44.0247 31.1534 45.2609 31.138C45.2856 32.4801 45.3103 33.8202 45.335 35.1602ZM45.1293 23.9337C45.1602 25.6502 45.192 27.3667 45.2239 29.0831C44.0114 29.0975 42.7999 29.0873 41.5884 29.0821C41.6367 27.3913 41.7437 25.7026 41.9411 24.016C43.0035 23.9882 44.0669 23.9604 45.1293 23.9337ZM37.1362 12.6671C37.4067 11.9523 37.7667 11.2859 38.1235 10.6163C38.6614 12.2824 39.262 13.9372 39.226 15.703C38.321 15.7236 37.417 15.7493 36.5119 15.7853C36.5253 14.7116 36.7505 13.6852 37.1362 12.6671ZM42.1129 17.7106C42.1879 19.1226 42.19 20.5398 42.1139 21.9539C41.1358 21.9786 40.1588 22.0043 39.1808 22.029C39.1695 21.4418 39.118 20.8556 38.9998 20.2817C38.9504 20.039 38.7365 19.7891 38.5277 19.6667C38.3076 19.5381 37.9826 19.4826 37.7348 19.5628C37.4859 19.643 37.2452 19.7973 37.1198 20.0359C36.9861 20.2899 36.9583 20.546 37.0159 20.8288C37.0437 20.9636 37.0642 21.1003 37.0848 21.2361C37.1177 21.5169 37.1342 21.7997 37.1383 22.0825C36.1026 22.1092 35.067 22.136 34.0313 22.1627C34.0241 22.0516 34.0169 21.9406 34.0097 21.8295C34.1167 21.6773 34.1794 21.4963 34.1702 21.2916C34.1609 21.0798 34.0735 20.8792 33.9521 20.7034C33.9069 19.7932 33.8832 18.884 33.874 17.9759C36.6179 17.799 39.3649 17.7157 42.1129 17.7106ZM37.9559 38.4502C37.9127 37.2675 37.8695 36.0858 37.8263 34.9042C37.8057 34.3488 37.3686 33.8757 36.7979 33.8757C36.2569 33.8757 35.7488 34.3467 35.7694 34.9042C35.8126 36.0869 35.8558 37.2686 35.899 38.4502C35.9401 39.5527 35.9813 40.6552 35.9031 41.7567C35.3138 41.766 34.7245 41.7742 34.1352 41.7834C34.2833 38.1931 34.4263 34.5987 34.4108 31.0053C36.1057 31.068 37.8026 31.1061 39.4986 31.1298C39.4955 34.6594 39.7238 38.1921 39.9788 41.7156C39.3052 41.7186 38.6316 41.7217 37.9621 41.7289C38.0361 40.6377 37.996 39.5435 37.9559 38.4502ZM34.1609 24.2155L39.8781 24.0684C39.6857 25.7345 39.5788 27.4047 39.5315 29.0749C37.8098 29.0513 36.0882 29.0112 34.3676 28.9474C34.3563 28.4393 34.3563 27.9323 34.3368 27.4243C34.2956 26.3567 34.2298 25.2871 34.1609 24.2155ZM32.3395 31.0084C32.3406 31.7149 32.3447 32.4225 32.3354 33.1291C31.8922 32.6971 31.4571 32.2569 31.0385 31.8013C30.7989 31.5401 30.5685 31.2696 30.3371 31.0002C31.0046 31.0022 31.671 31.0033 32.3395 31.0084ZM28.3327 40.3395C29.6861 40.3148 31.2154 39.6679 31.6608 38.333C31.8448 38.3279 32.0279 38.3114 32.213 38.3217C32.1709 39.4869 32.1246 40.6511 32.0762 41.8153C30.8791 41.8338 29.682 41.8513 28.4859 41.8698C27.2888 41.8513 26.0917 41.8338 24.8956 41.8153C24.8473 40.6511 24.801 39.4869 24.7588 38.3217C25.0725 38.3042 25.3862 38.3093 25.6988 38.3412C25.7945 38.6508 25.9282 38.9501 26.1071 39.201C26.355 39.5476 26.6409 39.8736 27.0317 40.0639C27.44 40.2603 27.8812 40.3488 28.3327 40.3395ZM27.1438 37.322C27.1222 37.068 27.2066 36.7893 27.3361 36.5723C27.4678 36.3522 27.6663 36.1496 27.8966 36.0324C28.1733 35.8935 28.4664 35.8483 28.7708 35.9131C28.996 35.9614 29.2203 36.0972 29.3755 36.2668C29.6769 36.5949 29.8394 37.069 29.8003 37.5144C29.7787 37.7519 29.7273 37.9967 29.5946 38.1993C29.4321 38.4482 29.174 38.6467 28.8778 38.7053C28.5744 38.7649 28.2607 38.73 27.9913 38.5716C27.8504 38.4883 27.7311 38.3741 27.6334 38.2425C27.6004 38.2137 27.5562 38.1993 27.5264 38.1664C27.3084 37.9226 27.1716 37.6491 27.1438 37.322ZM31.5713 36.2792C31.526 36.1938 31.4746 36.1136 31.418 36.0385C31.3728 35.8915 31.3337 35.7423 31.2669 35.6014C30.9141 34.8682 30.1983 34.3673 29.4547 34.0917C29.1812 33.9909 28.8881 33.9426 28.5939 33.9107V33.8839C28.5579 33.887 28.523 33.8942 28.487 33.8973C28.451 33.8942 28.415 33.887 28.38 33.8839V33.9107C28.3461 33.9148 28.3121 33.9189 28.2782 33.923C28.2566 33.9251 28.2371 33.9282 28.2165 33.9302C28.0931 33.9477 27.9738 33.9734 27.8534 34.0022C27.8504 34.0032 27.8473 34.0032 27.8442 34.0043C27.7352 34.031 27.6241 34.0516 27.5192 34.0907C26.7756 34.3652 26.0609 34.8661 25.7071 35.6004C25.6011 35.8195 25.522 36.0468 25.4716 36.2792C25.2144 36.2668 24.9563 36.2463 24.7002 36.2638C24.6951 36.0961 24.693 35.9285 24.6889 35.7608C24.8298 35.7105 24.9635 35.6405 25.0746 35.5397C26.3118 34.429 27.4287 33.2031 28.487 31.9258C29.5442 33.2031 30.6621 34.428 31.8983 35.5397C32.0094 35.6395 32.1441 35.7105 32.284 35.7608C32.2799 35.9285 32.2778 36.0961 32.2727 36.2638C32.0403 36.2494 31.8058 36.2658 31.5713 36.2792ZM32.2223 28.9515C31.416 28.9453 30.6097 28.9443 29.8034 28.9433C29.8291 28.1946 29.8558 27.4459 29.9062 26.6992C29.9083 26.6704 29.9319 26.4657 29.9319 26.4328C29.9515 26.3248 29.971 26.2169 30.0019 26.112C30.0152 26.0636 30.0317 26.0153 30.0481 25.9669C30.0759 25.9135 30.1099 25.8435 30.15 25.7849C30.1582 25.7757 30.1572 25.7777 30.1777 25.7541C30.2024 25.7273 30.2292 25.7026 30.2559 25.678C30.2754 25.6656 30.297 25.6564 30.3166 25.645C30.3269 25.643 30.332 25.643 30.3701 25.6317C30.3886 25.6276 30.3824 25.6286 30.3947 25.6265C30.442 25.6286 30.4955 25.6368 30.5284 25.6409C30.5891 25.6605 30.6806 25.6882 30.6961 25.6924C30.4595 25.6234 30.7619 25.7386 30.8195 25.7664C30.8514 25.788 30.8565 25.7911 30.8658 25.7962C30.8904 25.8178 30.9162 25.8384 30.9398 25.861C31.0036 25.9207 31.0601 25.9865 31.1177 26.0513C31.1208 26.0626 31.2401 26.2158 31.2597 26.2457C31.3214 26.3423 31.3779 26.4411 31.4324 26.5418C31.4869 26.6426 31.5384 26.7445 31.5867 26.8473C31.598 26.8699 31.668 27.0293 31.6885 27.0725C31.8736 27.5209 32.0207 27.9868 32.1297 28.4599C32.1668 28.6224 32.1925 28.7869 32.2223 28.9515ZM24.9656 22.3622C26.4815 22.4239 27.9985 22.4281 29.5154 22.3622C29.7118 22.354 29.9103 22.3437 30.1047 22.3777C30.2991 22.4116 30.4966 22.3951 30.695 22.3931C31.1321 22.3869 31.5703 22.3808 32.0073 22.3622C32.0413 22.967 32.0721 23.5727 32.1071 24.1785C31.2885 23.5768 30.2189 23.3619 29.283 23.8648C28.9405 24.0489 28.6906 24.3153 28.487 24.6156C28.2833 24.3153 28.0324 24.0489 27.6899 23.8648C26.754 23.3619 25.6844 23.5768 24.8658 24.1785C24.9008 23.5737 24.9316 22.967 24.9656 22.3622ZM24.8442 28.4589C24.9532 27.9858 25.1013 27.5209 25.2854 27.0715C25.306 27.0283 25.3759 26.8689 25.3872 26.8463C25.4356 26.7434 25.487 26.6416 25.5415 26.5408C25.596 26.44 25.6526 26.3413 25.7143 26.2446C25.7338 26.2148 25.8531 26.0616 25.8562 26.0503C25.9138 25.9855 25.9704 25.9196 26.0341 25.86C26.0578 25.8374 26.0835 25.8168 26.1082 25.7952C26.1174 25.789 26.1236 25.787 26.1544 25.7654C26.211 25.7376 26.5144 25.6224 26.2779 25.6913C26.2933 25.6872 26.3848 25.6594 26.4455 25.6399C26.4784 25.6348 26.5309 25.6276 26.5792 25.6255C26.5915 25.6276 26.5854 25.6276 26.6039 25.6306C26.6419 25.643 26.6471 25.643 26.6574 25.644C26.6779 25.6553 26.6985 25.6646 26.718 25.6769C26.7448 25.7016 26.7715 25.7263 26.7962 25.753C26.8168 25.7767 26.8157 25.7746 26.824 25.7839C26.8641 25.8425 26.898 25.9124 26.9258 25.9659C26.9433 26.0132 26.9587 26.0616 26.9721 26.1109C27.0029 26.2158 27.0225 26.3238 27.042 26.4318C27.042 26.4647 27.0657 26.6694 27.0677 26.6982C27.1181 27.4448 27.1438 28.1935 27.1706 28.9422C26.3643 28.9433 25.559 28.9453 24.7516 28.9505C24.7804 28.7869 24.8062 28.6224 24.8442 28.4589ZM26.6358 31.0012C26.4044 31.2696 26.174 31.5411 25.9344 31.8024C25.5158 32.258 25.0807 32.6981 24.6375 33.1301C24.6282 32.4235 24.6323 31.716 24.6334 31.0094C25.3019 31.0033 25.9693 31.0022 26.6358 31.0012ZM18.8494 10.6163C19.2063 11.2848 19.5662 11.9523 19.8367 12.6671C20.2224 13.6863 20.4476 14.7126 20.461 15.7853C19.557 15.7493 18.6519 15.7236 17.7469 15.703C17.7109 13.9372 18.3115 12.2824 18.8494 10.6163ZM14.86 17.7106C17.608 17.7157 20.355 17.8 23.0979 17.9759C23.0886 18.8851 23.065 19.7942 23.0197 20.7034C22.8984 20.8782 22.811 21.0798 22.8017 21.2916C22.7925 21.4963 22.8552 21.6773 22.9621 21.8295C22.956 21.9406 22.9477 22.0516 22.9405 22.1627C21.9049 22.136 20.8693 22.1092 19.8336 22.0825C19.8367 21.7997 19.8542 21.5179 19.8871 21.2361C19.9087 21.1003 19.9293 20.9636 19.956 20.8288C20.0146 20.546 19.9868 20.2899 19.8521 20.0359C19.7267 19.7983 19.487 19.6441 19.2371 19.5628C18.9903 19.4826 18.6653 19.5371 18.4442 19.6667C18.2354 19.7891 18.0215 20.0379 17.9721 20.2817C17.8538 20.8556 17.8024 21.4428 17.7911 22.029C16.8131 22.0043 15.836 21.9786 14.858 21.9539C14.7829 20.5398 14.786 19.1226 14.86 17.7106ZM20.1761 33.8757C19.6053 33.8757 19.1682 34.3488 19.1476 34.9042C19.1044 36.0869 19.0612 37.2686 19.0181 38.4502C18.9779 39.5435 18.9378 40.6367 19.0129 41.7289C18.3424 41.7217 17.6698 41.7186 16.9961 41.7156C17.2512 38.1921 17.4795 34.6594 17.4764 31.1298C19.1723 31.1061 20.8693 31.068 22.5641 31.0053C22.5487 34.5987 22.6917 38.1931 22.8398 41.7834C22.2505 41.7742 21.6612 41.766 21.0719 41.7567C20.9937 40.6552 21.0359 39.5517 21.076 38.4502C21.1192 37.2675 21.1624 36.0858 21.2056 34.9042C21.2241 34.3467 20.717 33.8757 20.1761 33.8757ZM17.0949 24.0684L22.812 24.2155C22.7441 25.2861 22.6783 26.3567 22.6372 27.4243C22.6176 27.9323 22.6176 28.4393 22.6063 28.9474C20.8857 29.0112 19.1641 29.0513 17.4425 29.0749C17.3941 27.4047 17.2872 25.7355 17.0949 24.0684ZM11.8436 23.9337C12.907 23.9615 13.9694 23.9882 15.0328 24.016C15.2292 25.7026 15.3372 27.3913 15.3856 29.0821C14.1741 29.0873 12.9626 29.0975 11.75 29.0831C11.7809 27.3656 11.8117 25.6502 11.8436 23.9337ZM11.712 31.139C12.9471 31.1534 14.1823 31.1441 15.4185 31.139C15.4195 32.5058 15.3784 33.8736 15.3218 35.2415C15.2436 35.2795 15.1717 35.3289 15.1089 35.3896C15.0637 35.3947 15.0174 35.4019 14.9937 35.4019C14.9166 35.4009 14.8395 35.3968 14.7623 35.3916C14.3705 35.3649 13.9787 35.334 13.5878 35.3052C12.9379 35.2569 12.2879 35.2096 11.6379 35.1613C11.6626 33.8202 11.6873 32.4801 11.712 31.139ZM11.5906 37.7447C11.5937 37.5678 11.5968 37.3909 11.5999 37.214C12.3527 37.2696 13.1055 37.3251 13.8594 37.3807C14.2841 37.4125 14.7603 37.4732 15.2149 37.4454C15.1346 38.8606 15.0421 40.2757 14.9392 41.6888C13.7956 41.6641 12.654 41.6168 11.5217 41.5027C11.5454 40.25 11.568 38.9974 11.5906 37.7447ZM11.5042 55.8824C11.5022 55.8115 11.5155 55.7467 11.497 55.6706C11.3232 54.9424 11.279 54.1824 11.279 53.4193C15.003 53.7587 18.7373 53.9417 22.4767 53.9654C22.488 54.6205 22.5127 55.2746 22.5425 55.9215C18.8628 55.9081 15.184 55.8958 11.5042 55.8824ZM18.8988 46.8866C18.9872 46.9329 19.0726 46.9802 19.1559 47.0337C19.1723 47.0439 19.1939 47.0604 19.2104 47.0738C19.2577 47.1159 19.305 47.1602 19.3492 47.2054C19.3729 47.2311 19.4603 47.3453 19.4685 47.3504C19.5158 47.4214 19.5621 47.4944 19.6022 47.5695C19.6259 47.6137 19.6475 47.659 19.6711 47.7042C19.6814 47.7238 19.6804 47.7207 19.6845 47.7279C19.6865 47.733 19.6845 47.7299 19.6876 47.7371C19.8542 48.166 19.9488 48.6247 20.0177 49.0782C20.0218 49.107 20.0218 49.108 20.0239 49.1183C20.0249 49.1286 20.0239 49.1296 20.028 49.1584C20.0352 49.2171 20.0414 49.2767 20.0475 49.3353C20.0609 49.4731 20.0712 49.611 20.0784 49.7498C20.0918 50.0069 20.0959 50.264 20.0897 50.5211C20.0835 50.7782 20.0671 51.0354 20.0403 51.2914C20.0352 51.3398 20.03 51.3881 20.0239 51.4364C20.0218 51.4539 20.0074 51.5434 20.0074 51.5475C19.9889 51.6545 19.9704 51.7604 19.9498 51.8674C18.5223 51.8303 17.0959 51.7666 15.6694 51.6833C15.6252 50.5571 15.653 49.6068 16.051 48.5588C16.0674 48.527 16.1363 48.3686 16.1569 48.3264C16.2011 48.24 16.2474 48.1547 16.2968 48.0714C16.3461 47.9881 16.3976 47.9058 16.4521 47.8256C16.4798 47.7844 16.5086 47.7443 16.5385 47.7042C16.5436 47.698 16.5446 47.698 16.5529 47.6878C16.6896 47.5294 16.8347 47.3823 16.991 47.2445C17.0044 47.2332 17.0064 47.2311 17.0157 47.2229C17.0527 47.1962 17.0907 47.1704 17.1288 47.1458C17.21 47.0923 17.2933 47.0429 17.3787 46.9977C17.3869 46.9936 17.4363 46.9689 17.4702 46.9514C17.5052 46.938 17.5649 46.9133 17.5782 46.9082C17.6708 46.8763 17.7633 46.8496 17.858 46.8269C17.8909 46.8187 18.0235 46.7961 18.0616 46.7868C18.0842 46.7848 18.1068 46.7837 18.111 46.7837C18.1758 46.7817 18.2395 46.7776 18.3043 46.7786C18.3691 46.7786 18.4329 46.7827 18.4966 46.7858C18.5018 46.7858 18.5254 46.7899 18.548 46.793C18.5912 46.8043 18.7116 46.8321 18.7414 46.8403C18.8021 46.8547 19.0489 46.9648 18.8988 46.8866ZM22.5076 51.9085C22.341 51.9075 22.1744 51.9013 22.0077 51.9003C22.2001 50.5767 22.1836 49.2366 21.8895 47.9233C21.6128 46.6891 20.9351 45.528 19.7277 45.0179C18.5933 44.5397 17.2728 44.6662 16.2155 45.2904C14.0414 46.575 13.5508 49.216 13.6136 51.5496C12.8535 51.494 12.0935 51.4354 11.3345 51.3665C11.3397 51.2174 11.3469 51.0652 11.3499 50.9181L11.4281 46.611C11.4466 45.5928 11.4651 44.5736 11.4836 43.5555C14.1082 43.8228 16.7853 43.7488 19.415 43.7889C21.4596 43.8198 23.5052 43.8506 25.5497 43.8815C24.5367 44.9428 23.7818 46.2592 23.2861 47.6456C22.7966 49.0196 22.5837 50.4563 22.5076 51.9085ZM32.3735 55.9287C31.4983 55.9318 30.6241 55.9349 29.7489 55.938C29.7622 54.7645 29.5545 53.5952 29.4146 52.4238C29.4054 52.3764 29.393 52.3291 29.3848 52.2818C29.2984 51.8211 29.2573 51.3501 29.1308 50.8975C29.03 50.5376 28.8253 50.1355 28.5775 49.8722C28.4705 49.758 28.3636 49.6932 28.2 49.6562C28.1404 49.6428 28.1188 49.6408 28.0818 49.6397C27.5809 49.686 27.1603 50.1468 27.1654 50.6466C27.185 52.4104 27.2045 54.1742 27.224 55.939C26.3488 55.9359 25.4746 55.9328 24.5994 55.9297C24.4195 51.7871 24.4431 46.4598 28.487 44.2013C32.5298 46.4577 32.5545 51.7861 32.3735 55.9287ZM31.4222 43.8825C33.4667 43.8516 35.5123 43.8208 37.5568 43.7899C40.1876 43.7498 42.8636 43.8239 45.4882 43.5565C45.5067 44.5746 45.5253 45.5928 45.5438 46.612L45.6219 50.9191C45.625 51.0662 45.6322 51.2184 45.6374 51.3675C44.8784 51.4364 44.1183 51.494 43.3583 51.5506C43.4221 49.2171 42.9305 46.576 40.7563 45.2915C39.6991 44.6672 38.3786 44.5407 37.2442 45.0189C36.0368 45.528 35.3591 46.6902 35.0824 47.9243C34.7883 49.2376 34.7718 50.5767 34.9641 51.9013C34.7975 51.9023 34.6309 51.9085 34.4643 51.9095C34.3882 50.4574 34.1753 49.0206 33.6847 47.6476C33.1901 46.2603 32.4352 44.9439 31.4222 43.8825ZM38.2295 46.8372C38.2593 46.829 38.3796 46.8012 38.4228 46.7899C38.4454 46.7868 38.4691 46.7837 38.4742 46.7827C38.539 46.7796 38.6028 46.7755 38.6665 46.7755C38.7313 46.7755 38.7951 46.7786 38.8599 46.7807C38.864 46.7807 38.8866 46.7827 38.9093 46.7837C38.9473 46.793 39.081 46.8156 39.1129 46.8239C39.2075 46.8465 39.3011 46.8743 39.3926 46.9051C39.406 46.9102 39.4656 46.9339 39.5006 46.9483C39.5346 46.9658 39.5839 46.9905 39.5921 46.9946C39.6775 47.0398 39.7608 47.0892 39.8421 47.1427C39.8801 47.1674 39.9182 47.1941 39.9552 47.2198C39.9644 47.228 39.9665 47.2301 39.9799 47.2414C40.1362 47.3792 40.2812 47.5263 40.418 47.6847C40.4262 47.695 40.4272 47.696 40.4324 47.7011C40.4622 47.7412 40.491 47.7813 40.5188 47.8225C40.5733 47.9027 40.6247 47.985 40.6741 48.0683C40.7234 48.1516 40.7697 48.2369 40.8139 48.3233C40.8355 48.3655 40.9034 48.5229 40.9199 48.5558C41.3168 49.6038 41.3456 50.554 41.3014 51.6802C39.876 51.7625 38.4495 51.8273 37.021 51.8643C37.0005 51.7584 36.9819 51.6514 36.9634 51.5444C36.9634 51.5413 36.9501 51.4508 36.947 51.4334C36.9408 51.385 36.9357 51.3367 36.9305 51.2883C36.9038 51.0323 36.8873 50.7752 36.8812 50.518C36.875 50.2609 36.8791 50.0038 36.8925 49.7467C36.8997 49.6089 36.911 49.4701 36.9233 49.3322C36.9295 49.2736 36.9357 49.214 36.9429 49.1553C36.9459 49.1266 36.9459 49.1255 36.947 49.1152C36.949 49.105 36.949 49.1039 36.9531 49.0751C37.021 48.6206 37.1167 48.1629 37.2833 47.734C37.2853 47.7268 37.2843 47.7299 37.2864 47.7248C37.2905 47.7176 37.2895 47.7207 37.2997 47.7011C37.3224 47.6559 37.344 47.6106 37.3686 47.5664C37.4098 47.4913 37.455 47.4193 37.5023 47.3473C37.5106 47.3422 37.598 47.227 37.6216 47.2023C37.6659 47.1571 37.7132 47.1129 37.7605 47.0707C37.7769 47.0573 37.7985 47.0409 37.815 47.0306C37.8993 46.9771 37.9847 46.9288 38.0721 46.8835C37.924 46.9648 38.1708 46.8547 38.2295 46.8372ZM45.4759 55.6706C45.4574 55.7467 45.4707 55.8115 45.4687 55.8824C41.7889 55.8948 38.1101 55.9081 34.4314 55.9215C34.4612 55.2736 34.4859 54.6205 34.4972 53.9654C38.2366 53.9417 41.9709 53.7587 45.695 53.4193C45.695 54.1824 45.6507 54.9424 45.4759 55.6706Z" fill="black"/>
<path d="M20.0105 25.2698C20.1895 25.0918 20.4816 24.9571 20.7387 24.9684C21.004 24.9797 21.2807 25.0672 21.4658 25.2698C21.6509 25.4713 21.7671 25.7182 21.7671 25.9969V27.6064C21.7671 27.8697 21.652 28.1474 21.4658 28.3335C21.2869 28.5125 20.9948 28.6462 20.7387 28.6349C20.4723 28.6225 20.1967 28.5351 20.0105 28.3335C19.8265 28.1319 19.7102 27.8851 19.7102 27.6064V25.9969C19.7092 25.7326 19.8244 25.4559 20.0105 25.2698Z" fill="black"/>
</svg>
