<svg width="237" height="15" viewBox="0 0 237 15" fill="none" xmlns="http://www.w3.org/2000/svg">
<path fill-rule="evenodd" clip-rule="evenodd" d="M132.913 12.4202C132.923 12.4324 132.934 12.4446 132.944 12.4569C134.031 13.4985 135.223 12.8997 135.738 11.8572C135.749 11.8472 135.76 11.8371 135.771 11.8269C137.256 10.4654 139.056 8.6572 140.202 6.73028C140.256 6.72812 140.284 6.76319 140.312 6.79826C140.34 6.83333 140.368 6.8684 140.422 6.86624C140.578 7.2526 140.882 7.56652 141.165 7.85981C141.3 7.99899 141.43 8.13353 141.538 8.26896C141.803 8.60162 142.055 8.93478 142.303 9.26248C142.787 9.90202 143.256 10.5208 143.77 11.0744C144.997 12.6174 146.326 13.8669 148.034 12.7859C149.175 12.1616 150.013 10.9063 150.85 9.6509C151.269 9.02322 151.687 8.39555 152.144 7.84677L152.294 7.63375C152.225 7.83315 152.372 7.98242 152.689 7.96981C152.912 8.25035 153.228 8.39855 153.545 8.54675C153.703 8.62085 153.861 8.69495 154.007 8.78559L156.321 10.4301C158.082 11.6623 159.743 13.188 161.403 14.7137L161.403 14.7139C161.958 15.2707 162.925 14.9427 163.345 14.3472C163.708 13.6815 164.073 13.0519 164.437 12.4224C164.802 11.7929 165.166 11.1633 165.53 10.4976L166.778 8.27723C166.883 8.12834 166.988 7.97946 167.089 7.68599L167.194 7.5371C167.892 7.9185 168.543 8.59102 169.177 9.24675C169.44 9.51865 169.701 9.78766 169.96 10.0318C170.327 10.3379 170.695 10.6637 171.068 10.9944C171.706 11.5592 172.359 12.1383 173.055 12.6582C174.935 14.3199 176.795 15.1142 178.804 13.0082C179.543 12.1829 180.255 11.3587 180.967 10.5345C181.679 9.71018 182.391 8.88585 183.13 8.06045C184.038 8.88794 184.944 9.63498 185.897 10.4198C186.221 10.687 186.55 10.9586 186.887 11.2393C187.089 11.3997 187.291 11.5721 187.495 11.7457C188.516 12.6167 189.575 13.5202 190.83 13.1083C191.883 12.7392 192.857 11.6332 193.772 10.5953C194.07 10.2562 194.362 9.92439 194.649 9.62791C195.285 9.02374 195.921 8.41957 196.448 7.81972C197.084 7.21555 197.517 7.19832 198.285 7.6019C199.208 8.09488 200.063 8.7651 200.915 9.43253C202.389 10.5884 203.853 11.7359 205.644 11.9398C208.081 12.2036 209.871 10.3938 211.684 8.56102C212.052 8.18868 212.421 7.8154 212.797 7.45835C213.43 6.81504 213.445 6.82995 213.919 7.27982C214 7.35656 214.094 7.44597 214.207 7.54693C214.539 7.82316 214.843 8.10048 215.147 8.37779C215.452 8.6551 215.756 8.93241 216.088 9.20865C217.413 10.3136 218.739 11.4185 220.264 11.792C221.711 12.0095 222.938 11.1895 224.247 10.3147C224.315 10.2693 224.383 10.2237 224.451 10.1781L226.694 8.78646C226.905 8.65515 227.15 8.47614 227.415 8.28279C228.086 7.79302 228.883 7.21122 229.579 7.07976C230.81 7.03075 232.366 8.39951 233.467 9.36753C233.527 9.42059 233.586 9.47244 233.643 9.52279C234.726 10.4383 235.22 9.68449 235.803 8.7952C236.013 8.47466 236.235 8.13652 236.5 7.85263C237.3 6.99542 236.833 6.40304 236.5 6.214L234.51 4.85747C233.296 3.8928 231.865 2.93675 230.56 2.69929C229.218 2.47795 228.092 3.16091 226.885 3.89338C226.82 3.9325 226.756 3.97175 226.691 4.01101C226.004 4.41049 225.318 4.88963 224.633 5.36878C223.719 6.00762 222.806 6.64647 221.888 7.09647C220.758 7.61066 219.667 6.69703 218.707 5.8934C218.482 5.70563 218.265 5.52386 218.056 5.36772C217.763 5.111 217.462 4.80384 217.15 4.48665C216.285 3.60663 215.345 2.6494 214.306 2.47802C212.692 2.07627 211.304 3.64627 209.978 5.14577C209.245 5.97461 208.531 6.78191 207.809 7.22279C205.96 8.32079 204.117 6.82228 202.451 5.46672C201.999 5.09883 201.559 4.74147 201.136 4.4494C199.922 3.48474 198.495 2.67326 197.095 3.01843C195.851 3.30665 194.775 4.47405 193.783 5.54983C193.572 5.77847 193.365 6.00296 193.161 6.214C192.955 6.40972 192.717 6.68266 192.463 6.97311C191.934 7.57924 191.338 8.2616 190.831 8.47747C190.723 8.48178 190.516 8.92414 190.516 8.92414C190.378 8.92963 190.012 8.59085 189.707 8.30952C189.534 8.14986 189.382 8.00869 189.302 7.95947C188.528 7.26673 187.726 6.57507 186.925 5.8834C186.123 5.19173 185.322 4.50007 184.547 3.80732C184.547 3.80732 184.439 3.81163 184.436 3.66705C183.881 3.11027 183.012 3.00016 182.383 3.89348C181.908 4.4189 181.46 4.94324 181.011 5.46758C180.563 5.99192 180.115 6.51625 179.64 7.04167C179.43 7.33945 179.193 7.60215 178.955 7.86486C178.717 8.12757 178.48 8.39028 178.27 8.68805C178.159 8.79346 178.011 8.98847 177.846 9.20458C177.539 9.6078 177.176 10.0845 176.897 10.1899C176.255 10.3231 175.226 9.27021 174.468 8.49486C174.208 8.22804 173.979 7.99408 173.809 7.85263C173.312 7.43825 172.842 7.02279 172.372 6.60733C171.902 6.19193 171.432 5.77653 170.935 5.3622C170.795 5.23722 170.653 5.10645 170.508 4.97351C169.047 3.63274 167.344 2.07007 165.811 3.9743C165.184 4.75375 164.682 5.76903 164.21 6.72502C164.048 7.05258 163.89 7.37319 163.731 7.67496C163.523 8.04503 163.289 8.45231 163.054 8.8596C162.82 9.26689 162.586 9.67418 162.378 10.0442C159.612 7.54951 156.744 5.34824 153.673 3.73391C151.874 2.82751 150.835 4.18404 149.63 5.75659C149.586 5.81283 149.543 5.86934 149.5 5.92604C149.322 6.17788 149.145 6.4527 148.966 6.73116C148.51 7.44046 148.038 8.17339 147.504 8.61033C147.229 8.87111 147.153 8.96224 147.11 8.94845C147.054 8.93029 147.056 8.73019 146.743 8.49591C146.518 8.30858 146.239 7.92376 145.978 7.56421C145.854 7.39358 145.735 7.22863 145.627 7.09319C145.362 6.76052 145.11 6.42734 144.862 6.09964C144.378 5.46011 143.909 4.84139 143.395 4.28776C143.305 4.17452 143.212 4.05386 143.116 3.92942C142.617 3.28313 142.04 2.53503 141.397 2.19661C139.938 1.53164 138.974 2.75359 138.022 3.95973C137.831 4.20203 137.64 4.44369 137.446 4.66928C136.709 5.56692 135.971 6.46455 135.126 7.3665L134.377 8.07767C133.948 7.6022 133.514 7.13255 133.08 6.66289C132.275 5.7905 131.469 4.91812 130.689 4.00851C130.113 3.38753 129.598 2.88346 129.087 2.57981C129.077 2.5676 129.066 2.55538 129.056 2.54315C127.969 1.50151 126.777 2.1003 126.262 3.14283C126.251 3.15282 126.24 3.1629 126.229 3.17308C124.744 4.53461 122.944 6.3428 121.798 8.26973C121.744 8.27188 121.716 8.23681 121.688 8.20174C121.66 8.16668 121.632 8.13161 121.578 8.13376C121.422 7.74741 121.118 7.43349 120.835 7.1402C120.7 7.00102 120.57 6.86648 120.462 6.73105C120.197 6.39838 119.945 6.06523 119.697 5.73753C119.213 5.09799 118.744 4.47926 118.23 3.92562C117.003 2.38263 115.674 1.13311 113.966 2.2141C112.825 2.83837 111.987 4.09373 111.15 5.34909C110.731 5.97677 110.313 6.60445 109.856 7.15324L109.706 7.36626C109.775 7.16685 109.628 7.01758 109.311 7.0302C109.088 6.74966 108.772 6.60146 108.455 6.45326C108.297 6.37916 108.139 6.30506 107.993 6.21442L105.679 4.56993C103.918 3.33765 102.257 1.81189 100.597 0.286136C100.042 -0.270642 99.0748 0.0572899 98.6554 0.652841C98.2918 1.31856 97.9273 1.94812 97.5628 2.57769C97.1983 3.20721 96.8338 3.83672 96.4702 4.50238L95.222 6.72277C95.1172 6.87166 95.0123 7.02055 94.9108 7.31401L94.806 7.4629C94.1079 7.0815 93.4572 6.40898 92.8228 5.75325C92.5597 5.48135 92.2994 5.21234 92.0397 4.96817C91.6726 4.66211 91.3049 4.33634 90.9317 4.00563C90.2944 3.44087 89.6408 2.86172 88.9455 2.34178C87.0653 0.680066 85.2052 -0.114175 83.1961 1.99179C82.4571 2.81714 81.7451 3.6414 81.0331 4.46567C80.3211 5.28994 79.6091 6.11421 78.87 6.93955C77.9619 6.11208 77.0556 5.36506 76.1034 4.58025C75.7792 4.313 75.4497 4.04137 75.1129 3.76069C74.9111 3.60032 74.709 3.42796 74.5054 3.2543C73.4841 2.38337 72.4245 1.47975 71.1697 1.89167C70.1168 2.26082 69.1427 3.36682 68.2285 4.40474C67.9298 4.74381 67.6376 5.07561 67.3511 5.37209C66.7152 5.97626 66.0793 6.58043 65.5517 7.18028C64.9158 7.78445 64.4829 7.80168 63.7152 7.3981C62.7917 6.90512 61.9366 6.2349 61.0851 5.56747C59.6105 4.41162 58.1466 3.26415 56.3564 3.06019C53.9193 2.79637 52.1292 4.60616 50.3163 6.43897C49.948 6.81131 49.5788 7.1846 49.203 7.54164C48.5702 8.18495 48.5545 8.17005 48.0806 7.72018C47.9997 7.64343 47.9056 7.55403 47.7927 7.45307C47.4613 7.17684 47.157 6.89953 46.8526 6.62223C46.5483 6.34491 46.2439 6.06759 45.9125 5.79135C44.5868 4.68641 43.2612 3.58147 41.736 3.20805C40.2892 2.99049 39.0624 3.81046 37.7534 4.68533C37.6855 4.73074 37.6173 4.77629 37.5489 4.82186L35.3065 6.21354C35.0949 6.34484 34.8497 6.52386 34.5849 6.71721C33.9142 7.20699 33.1174 7.78878 32.4214 7.92024C31.1902 7.96925 29.6339 6.60046 28.5332 5.63244C28.4729 5.57939 28.414 5.52755 28.3565 5.4772C27.9906 5.14376 27.6429 4.75729 27.2943 4.36965C26.4831 3.46773 25.6662 2.55952 24.5994 2.29835C23.1824 1.92061 21.7923 2.69951 20.737 3.89923C20.4777 4.16758 20.2246 4.47162 19.9709 4.77639C19.0862 5.83903 18.1943 6.91042 17.0064 6.50787C15.9653 6.25298 15.0629 5.45318 14.1744 4.66569C13.7613 4.29948 13.3511 3.93594 12.9314 3.63109C11.4975 2.53046 9.96216 1.7233 8.22383 1.50307C5.07185 1.04968 1.86215 2.7693 0.218097 6.5973C-0.806909 9.09824 2.05744 11.1549 3.08244 8.65399C4.52015 5.26834 7.65866 5.14341 10.0766 6.63901C10.8603 7.12372 11.6016 7.74691 12.3417 8.36902C13.8852 9.66647 15.423 10.9592 17.3272 10.9812C18.6293 11.0741 19.8029 10.3038 20.865 9.39326C21.0381 9.20854 21.2371 8.96209 21.4536 8.69403C22.294 7.65322 23.3976 6.28657 24.2743 6.94213C24.9169 7.33961 25.5294 8.03513 26.1484 8.73796C26.5881 9.23718 27.031 9.7401 27.4902 10.1425C28.7043 11.1072 30.1348 12.0632 31.4402 12.3007C32.7822 12.522 33.9079 11.8391 35.1152 11.1066C35.1797 11.0675 35.2444 11.0282 35.3094 10.989C35.9964 10.5895 36.6816 10.1104 37.3669 9.63123C38.2805 8.99238 39.1941 8.35353 40.1121 7.90352C41.2416 7.38934 42.3333 8.30297 43.2934 9.10659C43.5178 9.29436 43.7349 9.47613 43.9438 9.63227C44.2367 9.889 44.5385 10.1962 44.8501 10.5134C45.7146 11.3934 46.655 12.3506 47.6941 12.522C49.308 12.9237 50.6963 11.3537 52.0223 9.85423C52.7552 9.02539 53.469 8.21809 54.1914 7.77721C56.0403 6.67921 57.8826 8.17772 59.5492 9.53328C60.0015 9.90117 60.4408 10.2585 60.8638 10.5506C62.0779 11.5153 63.505 12.3267 64.9052 11.9816C66.1492 11.6934 67.2254 10.526 68.2171 9.45018C68.4279 9.22154 68.6349 8.99704 68.8388 8.786C69.0448 8.59028 69.2831 8.31733 69.5367 8.02688C70.0659 7.42076 70.6616 6.7384 71.1692 6.52253C71.2775 6.51822 71.4838 6.07586 71.4838 6.07586C71.6219 6.07037 71.9884 6.40915 72.2928 6.69048C72.4655 6.85015 72.6183 6.99131 72.6978 7.04053C73.4722 7.73325 74.2737 8.42488 75.0751 9.11652C75.8766 9.80821 76.6781 10.4999 77.4525 11.1927C77.4525 11.1927 77.5607 11.1884 77.5641 11.3329C78.1187 11.8897 78.9879 11.9998 79.617 11.1065C80.0923 10.5811 80.5404 10.0567 80.9886 9.53236C81.4368 9.00804 81.8849 8.48372 82.3601 7.95833C82.5699 7.66056 82.8075 7.39785 83.0451 7.13515C83.2827 6.87244 83.5203 6.60973 83.73 6.31195C83.841 6.20654 83.9894 6.01153 84.1539 5.79541C84.4608 5.39219 84.8236 4.9155 85.1033 4.81015C85.7449 4.67694 86.7739 5.72979 87.5317 6.50514C87.7924 6.77197 88.0211 7.00593 88.1908 7.14737C88.6879 7.56173 89.158 7.97715 89.628 8.39258C90.0981 8.80801 90.5681 9.22344 91.0653 9.6378C91.205 9.76278 91.3475 9.89354 91.4923 10.0265C92.9534 11.3673 94.6564 12.9299 96.1889 11.0257C96.8161 10.2463 97.3177 9.231 97.7901 8.27502C97.9519 7.94744 98.1103 7.62683 98.2692 7.32504C98.4772 6.95498 98.7114 6.54769 98.9457 6.1404C99.1799 5.73312 99.4142 5.32583 99.6222 4.95576C102.388 7.4505 105.256 9.65176 108.327 11.2661C110.126 12.1725 111.165 10.816 112.37 9.24343C112.414 9.18718 112.457 9.13066 112.5 9.07396C112.678 8.8221 112.855 8.54726 113.034 8.26877C113.49 7.55949 113.962 6.8266 114.496 6.38967C114.771 6.1289 114.847 6.03776 114.89 6.05155C114.946 6.06972 114.944 6.26982 115.257 6.5041C115.482 6.69143 115.761 7.07626 116.022 7.43581C116.146 7.60644 116.265 7.77138 116.373 7.90681C116.638 8.23949 116.89 8.57266 117.138 8.90037C117.622 9.5399 118.091 10.1586 118.605 10.7122C118.695 10.8255 118.788 10.9461 118.884 11.0706C119.383 11.7168 119.96 12.465 120.603 12.8034C122.062 13.4684 123.026 12.2464 123.978 11.0403C124.169 10.798 124.36 10.5563 124.554 10.3307C125.291 9.43308 126.029 8.53545 126.874 7.63351L127.623 6.92234C128.052 7.39779 128.486 7.86743 128.92 8.33707C129.725 9.20947 130.531 10.0819 131.311 10.9915C131.887 11.6125 132.402 12.1166 132.913 12.4202Z" fill="#F7C300"/>
</svg>
