<svg width="56" height="72" viewBox="0 0 56 72" fill="none" xmlns="http://www.w3.org/2000/svg">
<g clip-path="url(#clip0)">
<path d="M45.3484 44.8384C44.009 46.4329 42.4144 47.7723 40.6286 48.7928C39.7356 49.3031 38.5876 49.5582 37.8222 50.196C37.0568 50.8338 36.993 51.9181 36.7379 52.8111C36.6103 53.5764 36.3552 54.2142 35.9725 54.7245C36.993 54.4056 37.9498 53.8953 38.6513 53.13C39.2892 52.4284 39.6718 51.663 40.1821 50.8976C40.1821 50.8976 40.2459 50.8338 40.3734 50.6425C40.4372 50.6425 40.501 50.5787 40.5648 50.5149C40.8199 50.3236 41.1388 50.196 41.3939 50.0047C42.3507 49.3031 43.0523 48.4101 43.5625 47.4534C45.157 45.8589 46.5602 43.9454 47.7721 42.032C50.2596 38.2051 51.4076 33.8042 50.0044 29.3395C49.7493 28.5741 49.4304 27.8088 49.1115 27.1072C50.706 33.1664 49.6217 39.7997 45.3484 44.8384Z" fill="#F7C300"/>
<path d="M33.4215 53.959C34.3144 53.5763 34.442 52.6196 34.6333 51.7904C34.9522 50.5148 35.3349 49.2392 36.4192 48.3462C37.8862 47.2619 39.672 46.8155 41.139 45.6674C42.5422 44.5831 43.6903 43.3075 44.647 41.8405C49.0479 35.3348 48.0274 26.8519 43.4351 20.7289C42.9249 20.3462 42.3509 19.9635 41.8406 19.6446C39.9272 18.4328 37.8224 17.5398 35.7176 16.8383C33.4215 16.0091 31.0616 15.2437 28.5741 15.1799C27.8725 13.9681 26.4055 13.4578 25.0661 13.8405C17.1572 15.8815 9.56726 23.2164 9.18457 31.6993C8.99322 35.9727 11.3531 39.5444 14.4146 42.287C15.9454 43.6902 17.6675 45.0934 19.4534 46.369C19.4534 46.4966 19.5171 46.6241 19.5171 46.7517C19.5809 47.1344 19.5809 47.5171 19.5809 47.8998C19.836 50.3234 21.303 51.5353 23.4078 52.5558C23.4078 52.5558 23.4716 52.5558 23.5354 52.6196C25.7039 53.0023 27.9363 53.3212 30.1048 53.7039C30.9978 53.8314 32.5285 54.3417 33.4215 53.959ZM23.5354 48.7289C23.0889 50.1959 20.9203 49.2392 21.3668 47.7722C22.5149 44.3918 22.196 40.3736 21.4944 36.8656C20.7928 33.3576 19.3258 30.041 17.2848 27.1708C16.3919 25.959 18.3053 24.492 19.1345 25.7676C21.4306 29.0205 23.0251 32.7198 23.7905 36.6105C24.6834 40.5011 24.811 44.902 23.5354 48.7289ZM26.2142 27.4897C25.4488 27.7449 24.6834 27.8086 23.9181 27.6811C22.0684 27.3622 20.8566 25.1936 20.8566 23.4077C20.8566 22.7699 21.1755 22.1959 21.8771 22.0683C22.4511 22.0045 23.1527 22.451 23.2165 23.0888C23.2165 23.7266 23.4716 24.6834 23.9181 25.1298C24.1732 25.385 24.5559 25.385 24.9386 25.385C24.8748 25.1298 24.811 24.8747 24.811 24.5558C24.6834 23.025 25.7039 20.7927 27.6174 21.1754C29.7222 21.6219 29.4032 24.5558 28.5103 25.8314C28.4465 25.959 28.3827 26.0228 28.2552 26.1503C28.4465 26.2779 28.7017 26.3417 28.9568 26.3417C29.1481 26.3417 29.4032 26.3417 29.5946 26.2779C29.5308 26.0865 29.467 25.8952 29.4032 25.7676C29.2119 24.8747 29.2757 23.7266 29.8497 23.025C30.4237 22.3234 31.3805 22.1959 32.0821 22.7699C33.2939 23.6629 33.2301 25.385 32.5923 26.6606C32.7837 26.7881 32.9112 26.9157 33.1026 26.9795C33.6128 27.2346 33.9955 27.2346 34.3782 26.8519C34.8247 26.4055 35.2711 25.7676 35.2711 25.066C35.3349 23.5353 37.6948 23.918 37.5673 25.385C37.4397 27.2984 35.59 29.5945 33.549 29.5307C32.5285 29.467 31.5718 29.0205 30.8064 28.3189C29.3395 29.0205 27.4898 28.6378 26.2142 27.4897ZM29.2757 48.5376C30.8702 40.0547 35.016 32.3371 41.2666 26.3417C42.3508 25.3212 43.754 27.1708 42.6698 28.1913C36.9294 33.7403 33.0388 41.0114 31.6356 48.8565C31.3167 50.3872 29.0206 50.0683 29.2757 48.5376Z" fill="#F7C300"/>
<path d="M49.1117 27.107C48.6014 25.066 47.7085 23.025 46.5604 21.1753C41.2028 12.3097 29.2119 7.14342 19.8998 13.0751C18.6242 13.9042 20.0274 15.7539 21.303 14.9247C28.8292 10.0774 38.4602 14.0956 43.4351 20.6651C45.795 22.4509 47.836 24.5557 49.1117 27.107Z" fill="#1E1E1E"/>
<path d="M8.16395 39.2255C9.12067 41.0752 10.3963 42.7335 11.9271 44.2004C12.6924 44.902 13.5216 45.4761 14.287 46.1139C15.3712 47.0068 14.6696 48.2187 14.6696 49.4305C14.7334 54.6606 22.1321 54.7881 25.7676 55.426C28.1275 55.8086 30.8063 56.7016 33.23 56.3827C34.5056 56.2551 35.3348 55.6173 35.9726 54.7244C35.271 54.9157 34.5694 55.0433 33.8678 54.9795C30.4236 54.9157 26.5968 54.0865 23.5353 52.6196C23.4715 52.6196 23.4077 52.6196 23.3439 52.6196C21.4305 52.3007 17.7949 52.2369 17.0933 49.9408C16.5831 48.2824 17.8587 46.7517 16.6469 45.1572C15.5626 43.6902 13.7129 42.861 12.5011 41.4578C9.63092 38.2688 8.10017 33.9317 8.41908 29.5945C8.61042 27.2984 9.24824 25.066 10.3325 23.0888C11.353 21.1754 12.9476 18.8155 15.1161 18.1139C16.5193 17.6036 15.6264 15.4351 14.2232 15.9453C10.1412 17.3485 7.52614 22.5786 6.56942 26.4692C5.54892 30.7426 6.12295 35.3348 8.16395 39.2255Z" fill="#1E1E1E"/>
<path d="M33.868 54.9795C34.5696 54.9795 35.3349 54.9157 35.9728 54.7244C36.3554 54.2141 36.6106 53.5763 36.7381 52.8747C36.9933 51.9818 37.057 50.8975 37.8224 50.2597C38.5878 49.6219 39.7996 49.3668 40.6288 48.8565C42.4147 47.836 44.0092 46.4328 45.3486 44.9021C49.622 39.8633 50.7062 33.2301 49.1117 27.1709C47.8361 24.6196 45.7951 22.5148 43.4352 20.7927C48.0274 26.9157 49.0479 35.3986 44.647 41.9043C43.6903 43.3713 42.4785 44.6469 41.139 45.7312C39.6721 46.8793 37.8862 47.3258 36.4192 48.41C35.2712 49.2392 34.9523 50.5148 34.6333 51.8542C34.442 52.6834 34.3144 53.6401 33.4215 54.0228C32.4648 54.4055 30.9978 53.959 30.0411 53.7677C27.8725 53.385 25.6402 53.0661 23.4716 52.6834C26.5969 54.0866 30.4238 54.9157 33.868 54.9795Z" fill="#1E1E1E"/>
<path d="M29.5946 63.2711C31.0616 63.2711 32.7199 63.3349 34.0593 62.6971C35.2074 62.1231 35.909 60.8474 35.1436 59.6994C34.442 58.5513 32.9113 58.4875 31.6994 58.4238C29.9773 58.2962 28.1915 58.0411 26.4694 57.7222C24.5559 57.4033 22.6425 56.9568 20.729 56.5103C19.0707 56.1276 17.4124 55.8087 16.1368 54.6607C14.9887 53.6402 13.5855 55.4898 14.6698 56.5103C16.9659 58.5513 20.4739 58.934 23.3441 59.508C25.0662 59.8907 26.7883 60.2096 28.5104 60.4648C29.3395 60.5923 30.1049 60.6561 30.934 60.7837C31.3167 60.8475 31.7632 60.8474 32.1459 60.9112C31.9546 60.9112 31.7632 60.975 31.6356 60.975C30.8065 61.1026 29.9773 61.1026 29.0844 61.1026C27.4261 61.0388 25.704 60.8474 24.0457 60.7199C22.6425 60.5923 20.7928 60.2096 19.3896 60.5923C18.0502 60.975 17.6675 62.3782 18.6243 63.3987C19.7085 64.5468 21.4306 65.1208 22.8976 65.631C24.811 66.2689 26.6607 66.9067 28.5741 67.5445C29.9773 68.0547 30.934 65.8862 29.5309 65.3759C27.8725 64.8019 26.2142 64.2279 24.5559 63.6538C23.9181 63.3987 23.2165 63.2074 22.5787 62.9522C22.5149 62.9522 22.4511 62.8884 22.4511 62.8884C23.2165 62.9522 23.9819 63.016 24.7473 63.0798C26.4056 63.1436 28.0001 63.2711 29.5946 63.2711Z" fill="#1E1E1E"/>
<path d="M25.1299 67.9908C24.1094 68.1184 22.9613 68.6286 22.5786 69.7129C22.3873 70.2869 22.5786 71.0523 23.2164 71.2436C23.7904 71.435 24.5558 71.2436 24.7472 70.6058V70.542C24.7472 70.542 24.8109 70.5421 24.8109 70.4783C24.8747 70.4145 24.9385 70.4145 25.0661 70.3507H25.1299C25.2574 70.3507 25.3212 70.2869 25.4488 70.2869C25.6401 70.2869 25.8314 70.2231 26.0866 70.2231C26.4693 70.2231 26.7882 70.2869 27.1709 70.3507C27.2984 70.4145 27.4898 70.4145 27.6173 70.4783C28.1914 70.7334 28.9567 70.4783 29.1481 69.8405C29.3394 69.2664 29.1481 68.5648 28.5103 68.3097C27.426 68.0546 26.2779 67.8632 25.1299 67.9908Z" fill="#1E1E1E"/>
<path d="M19.198 25.7677C18.3051 24.5558 16.4554 25.959 17.3484 27.1709C19.3894 30.1048 20.8563 33.4214 21.5579 36.8656C22.2595 40.3098 22.5784 44.328 21.4304 47.7722C20.9839 49.1754 23.0887 50.1321 23.5989 48.7289C24.8746 44.9021 24.747 40.5012 23.9179 36.6105C23.0249 32.7198 21.4304 29.0205 19.198 25.7677Z" fill="#1E1E1E"/>
<path d="M31.5718 48.8564C33.0388 41.0113 36.8656 33.7402 42.606 28.1912C43.6902 27.1707 42.287 25.2573 41.2028 26.3416C35.016 32.337 30.8064 40.0546 29.2119 48.5375C29.0205 50.0682 31.3167 50.3871 31.5718 48.8564Z" fill="#1E1E1E"/>
<path d="M37.6311 25.3211C37.6948 23.7903 35.3987 23.4714 35.3349 25.0022C35.2711 25.64 34.8885 26.2778 34.442 26.7881C34.0593 27.2345 33.6766 27.1707 33.1664 26.9156C32.975 26.8518 32.7837 26.7243 32.6561 26.5967C33.2939 25.3211 33.3577 23.599 32.1459 22.706C31.4443 22.132 30.4875 22.3234 29.9135 22.9612C29.2757 23.6628 29.2119 24.8108 29.467 25.7038C29.5308 25.8951 29.5946 26.0865 29.6584 26.214C29.467 26.2778 29.2119 26.2778 29.0206 26.2778C28.7655 26.2778 28.5741 26.1502 28.319 26.0865C28.3828 26.0227 28.5103 25.8951 28.5741 25.7676C29.467 24.4281 29.786 21.4942 27.6812 21.1115C25.7677 20.7288 24.7472 22.9612 24.8748 24.4919C24.8748 24.7471 24.9386 25.066 25.0024 25.3211C24.6197 25.3849 24.237 25.3211 23.9819 25.066C23.5354 24.6195 23.2803 23.6628 23.2803 23.025C23.2803 22.3871 22.5149 21.9407 21.9409 22.0045C21.2393 22.0682 20.9203 22.706 20.9203 23.3439C20.9841 25.1297 22.1322 27.2345 23.9819 27.6172C24.7472 27.7448 25.5126 27.681 26.278 27.4259C27.5536 28.5739 29.4033 28.9566 30.9978 28.1912C31.7632 28.8928 32.7199 29.3393 33.7404 29.4031C35.6538 29.5944 37.5035 27.2983 37.6311 25.3211Z" fill="#1E1E1E"/>
<path d="M54.0866 0.191382C52.6196 1.02054 50.8975 0.956758 49.4305 0.191382C48.5376 -0.318868 47.1344 0.57407 47.5809 1.65835C48.0911 2.99776 48.729 4.27339 49.4943 5.42145C49.5581 5.54901 49.6219 5.61279 49.6857 5.67658C46.8155 4.52851 43.8178 3.63557 40.8201 3.06154C39.3531 2.74264 38.6515 4.52851 39.8633 5.42145C41.713 6.69708 43.3713 8.22783 44.7745 9.94993C45.1572 10.3964 45.4761 10.8429 45.795 11.2893C41.8406 8.41917 37.5034 6.18683 32.8474 4.71986C31.2529 4.20961 30.6151 6.69708 32.1458 7.20733C38.1413 9.12077 43.6902 12.3736 48.3463 16.647C49.1754 17.4123 50.451 16.8383 50.5148 15.754C50.5786 14.2871 49.877 13.0114 49.1754 11.7996C48.4738 10.6515 47.7085 9.56724 46.8793 8.54674C46.4328 7.9727 45.9226 7.46245 45.4761 6.9522C47.7722 7.6538 50.0684 8.54674 52.2369 9.63102C53.1299 10.0775 54.0866 9.56724 54.1504 8.54674C54.2141 7.01598 52.9385 5.99548 52.1094 4.9112C51.7905 4.40095 51.4715 3.95448 51.1526 3.44423C52.5558 3.57179 54.0228 3.25289 55.2984 2.55129C56.7654 1.59457 55.4898 -0.637775 54.0866 0.191382Z" fill="#59C59F"/>
<path d="M50.5787 41.3304C49.5582 45.4124 46.9432 48.9841 43.3076 51.2165C41.9045 52.0456 43.1801 54.278 44.5833 53.4488C48.7291 50.8976 51.8543 46.7518 53.0024 42.032C53.4489 40.3736 50.9614 39.7358 50.5787 41.3304Z" fill="#1E1E1E"/>
<path d="M4.40082 37.1207C2.80629 34.3144 2.16848 30.9977 2.67873 27.8087C2.80629 27.1071 2.48738 26.4055 1.78579 26.2141C1.14798 26.0228 0.318819 26.4055 0.191257 27.1071C-0.446557 30.9977 0.191257 34.9522 2.16848 38.3964C2.99763 39.8633 5.22998 38.5877 4.40082 37.1207Z" fill="#59C59F"/>
</g>
<defs>
<clipPath id="clip0">
<rect width="56" height="71.3713" fill="white"/>
</clipPath>
</defs>
</svg>
