<svg width="56" height="64" viewBox="0 0 56 64" fill="none" xmlns="http://www.w3.org/2000/svg">
<g clip-path="url(#clip0)">
<path d="M43.6965 47.8346C43.6414 46.4553 43.6414 45.0209 43.5862 43.6415C43.4207 33.9864 43.4758 24.3312 43.7517 14.676C41.4345 14.7864 39.062 14.676 36.7448 14.6209C34.1517 14.5657 31.5034 14.5105 28.9103 14.4553C24.662 14.345 20.0276 14.2346 15.6138 14.2898C15.5586 14.2898 15.5034 14.345 15.4483 14.2898C15.2276 14.2898 15.062 14.2898 14.8414 14.2898C14.731 15.4484 14.6758 16.5519 14.6207 17.7105C16.9931 17.7657 19.3655 17.8209 21.6276 17.876C24.662 17.9312 27.6414 18.0415 30.6758 18.0967C33.6552 18.1519 36.6345 18.3174 39.6138 18.1519C39.8896 18.1519 40.1103 18.2071 40.2758 18.3174C40.6069 18.4278 40.8276 18.7036 40.8276 19.0346C40.7172 22.345 40.662 25.6002 40.6069 28.9105C40.4965 34.6484 40.4965 40.4415 40.5517 46.1795C40.5517 47.8898 40.6069 49.6553 40.6069 51.3657C41.5448 51.4209 42.5379 51.4209 43.4758 51.476C43.8621 50.2622 43.7517 49.0484 43.6965 47.8346Z" fill="#59C59F"/>
<path d="M45.1309 13.2415C45.4067 13.3518 45.5723 13.5725 45.5723 13.9036C45.4619 16.7725 45.4067 19.5863 45.3516 22.4553C45.2412 27.476 45.2412 32.4415 45.2964 37.4622C45.2964 40.0001 45.3516 42.4829 45.4067 45.0208C45.4067 45.4622 45.4067 45.9587 45.4619 46.4001C46.455 46.4553 47.393 46.4553 48.3861 46.5105C48.7723 45.3518 48.6619 44.138 48.6067 42.9243C48.5516 41.5449 48.5516 40.1105 48.4964 38.7311C48.3309 29.076 48.3861 19.4208 48.6619 9.76563C46.3447 9.87597 43.9723 9.76563 41.655 9.71046C39.0619 9.65528 36.4136 9.60011 33.8205 9.54494C29.5723 9.43459 24.9378 9.32425 20.524 9.37942C20.4688 9.37942 20.4136 9.43459 20.3585 9.37942C20.1378 9.37942 19.9723 9.37942 19.7516 9.37942C19.6412 10.4829 19.5861 11.6415 19.5309 12.7449L19.5861 12.8001C22.7309 12.8001 25.9309 12.9105 28.9102 12.9656C31.5033 13.0208 34.1516 13.076 36.7447 13.1311C38.124 13.1863 39.5585 13.2415 40.9378 13.2415C42.0964 13.1863 43.1999 13.1863 44.3585 13.1311C44.3585 13.1311 44.3585 13.1311 44.3585 13.1863C44.4136 13.1863 44.4688 13.1863 44.524 13.1863C44.7998 13.076 45.0205 13.1311 45.1309 13.2415Z" fill="#F7C300"/>
<path d="M32.8828 45.0759C32.2207 45.2414 31.669 45.5725 30.9517 45.5173C30.6759 45.5173 30.3448 45.4069 30.1241 45.2966C29.8483 45.1863 29.6276 44.9656 29.3517 44.9104C29.131 44.8552 29.1862 44.8552 28.9103 44.9656C28.6897 45.0759 28.469 45.1863 28.1931 45.2966C27.7517 45.4621 27.2552 45.4621 26.8138 45.3518C26.4828 45.2414 26.2621 45.0759 25.9862 44.9104C25.9862 44.9104 25.8759 44.8 25.8207 44.7449V44.8C25.4345 45.0759 24.9931 45.3518 24.5517 45.4621C24 45.6276 23.4483 45.5173 22.8965 45.3518C22.4552 45.1863 21.9586 44.9104 21.5172 44.8552C21.3517 44.8552 21.131 44.8552 20.9655 44.9104C21.0207 45.1311 21.131 45.3518 21.4069 45.4621C22.6207 46.069 23.8897 46.5104 25.2138 45.8483C25.4897 45.738 25.7103 45.5725 25.9862 45.5725C26.2621 45.5725 26.5931 45.6828 26.8138 45.738C27.4759 45.9035 28.0828 45.9035 28.6897 45.6828C28.9103 45.6276 29.131 45.4621 29.3517 45.4621C29.6276 45.4621 29.9034 45.6828 30.1241 45.738C30.731 45.9587 31.2828 46.069 31.9448 45.9035C32.2207 45.8483 32.4966 45.6828 32.7724 45.6276C33.0483 45.5725 33.269 45.6276 33.5448 45.6828C34.2069 45.7932 34.8138 45.738 35.2552 45.2966C35.4207 45.1311 35.4759 44.9656 35.531 44.8C35.2552 44.9104 34.9793 44.9656 34.6483 44.9656C34.0414 45.0759 33.4345 44.9656 32.8828 45.0759Z" fill="#F7C300"/>
<path d="M12.6896 28.7449C12.7448 29.1311 13.0207 29.4621 13.5724 29.4621C19.9724 29.6828 26.3724 29.6276 32.7724 29.3518C33.3241 29.3518 33.6 28.9104 33.6552 28.5242C33.5448 28.5242 33.4345 28.5242 33.3241 28.5793C26.4827 28.8552 19.5862 28.9104 12.6896 28.7449Z" fill="#F7C300"/>
<path d="M4.63464 59.531C5.24153 58.9793 5.62774 58.0965 5.46222 56.9379C4.96567 53.7931 5.46222 50.4276 5.2967 47.2276C5.18636 44.0276 5.62774 40.8827 5.62774 37.6276C5.62774 36.5241 5.18636 35.8069 4.52429 35.4207C4.3036 43.4758 4.3036 51.531 4.63464 59.531Z" fill="#59C59F"/>
<path d="M2.81382 35.2C1.87589 35.4758 1.10348 36.2482 1.10348 37.6827C1.10348 44.5241 0.0552009 51.5862 1.0483 58.3724C1.26899 59.6413 2.04141 60.2482 2.86899 60.2482C2.75865 57.8758 2.70348 55.5586 2.6483 53.1862C2.53796 47.1724 2.59313 41.2137 2.81382 35.2Z" fill="#59C59F"/>
<path d="M7.55865 25.1034C12.8 25.1034 18.0414 25.3241 23.2828 25.6551C24.7173 25.7655 24.7173 23.8344 23.2828 23.7793C18.0414 23.4482 12.8 23.2275 7.55865 23.2275C6.12417 23.2275 6.12417 25.1034 7.55865 25.1034Z" fill="#1E1E1E"/>
<path d="M8.11019 28.6345C9.65502 28.6897 11.1447 28.6897 12.6895 28.7449C12.5792 28.2483 12.9102 27.6966 13.5723 27.7518C19.9723 27.9725 26.3723 27.9173 32.7723 27.6414C33.3792 27.5863 33.655 28.0828 33.655 28.5242C35.4757 28.2483 35.4205 26.5931 33.324 26.6483C24.9378 26.9794 16.5516 27.0345 8.11019 26.7587C5.95847 26.7035 5.95847 28.5794 8.11019 28.6345Z" fill="#1E1E1E"/>
<path d="M32.7725 27.6414C26.3725 27.9725 19.9725 27.9725 13.5725 27.7518C12.9105 27.7518 12.6346 28.2483 12.6898 28.7449C19.5312 28.8552 26.4277 28.8001 33.2691 28.5242C33.3794 28.5242 33.4898 28.5242 33.6001 28.469C33.6553 28.0828 33.3794 27.5863 32.7725 27.6414Z" fill="#1E1E1E"/>
<path d="M12.6896 55.8345C12.7448 56.2207 13.0207 56.5517 13.5724 56.5517C19.9724 56.7724 26.3724 56.7172 32.7724 56.4414C33.3241 56.4414 33.6 56 33.6552 55.6138C33.5448 55.6138 33.4345 55.6138 33.3241 55.6689C26.4827 55.8896 19.5862 56 12.6896 55.8345Z" fill="#F7C300"/>
<path d="M7.55865 52.1932C12.8 52.1932 18.0414 52.4139 23.2828 52.745C24.7173 52.8553 24.7173 50.9243 23.2828 50.8691C18.0414 50.5381 12.8 50.3174 7.55865 50.3174C6.12417 50.3174 6.12417 52.1932 7.55865 52.1932Z" fill="#1E1E1E"/>
<path d="M33.324 53.7379C24.9378 54.069 16.5516 54.1241 8.11025 53.8483C5.90335 53.7931 5.90335 55.669 8.11025 55.7241C9.65508 55.7793 11.1447 55.7793 12.6896 55.8345C12.5792 55.3379 12.9103 54.7862 13.5723 54.8414C19.9723 55.0621 26.3723 55.0069 32.7723 54.731C33.3792 54.6758 33.6551 55.1724 33.6551 55.6138C35.4758 55.3379 35.3654 53.6827 33.324 53.7379Z" fill="#1E1E1E"/>
<path d="M32.7725 54.731C26.3725 55.0621 19.9725 55.0621 13.5725 54.8414C12.9105 54.8414 12.6346 55.3379 12.6898 55.8345C19.5312 55.9448 26.4277 55.8897 33.2691 55.6138C33.3794 55.6138 33.4898 55.6138 33.6001 55.5586C33.6553 55.1724 33.3794 54.6759 32.7725 54.731Z" fill="#1E1E1E"/>
<path d="M39.945 63.3931C40.0553 63.2827 40.1657 63.1724 40.2209 63.0069C40.7726 61.7931 40.7726 60.5241 40.7174 59.2C40.6622 57.7103 40.6622 56.2758 40.6071 54.7862C40.6071 54.1241 40.6071 53.462 40.5519 52.7448C40.3312 52.7448 40.1657 52.7448 39.945 52.7448V51.3103C40.0002 51.3103 40.0553 51.3103 40.1657 51.3103C39.8898 50.8689 39.7243 50.3172 39.8347 49.6551C40.7174 44.1379 39.7243 38.4551 39.8347 32.8827C39.8898 30.0689 40.0553 27.2 39.8898 24.3862C39.7795 22.3448 39.1726 20.2482 39.5036 18.262C31.945 18.4827 24.3864 18.8138 16.8278 18.4276C16.6622 18.4276 16.4967 18.3724 16.3312 18.3724C16.276 18.3724 16.2209 18.3724 16.1105 18.3724C15.7795 18.3724 15.5036 18.3172 15.2278 18.1517C15.0071 18.0965 14.7864 17.931 14.5657 17.7655C14.5657 17.931 14.5657 18.0414 14.5105 18.2069H13.0209C13.0209 17.9862 13.076 17.7655 13.076 17.6C10.7036 17.5448 8.27603 17.5448 5.95879 17.6C5.51741 17.6551 5.02086 17.6551 4.52431 17.7103C4.41396 17.7103 4.30362 17.7103 4.19328 17.7655C4.08293 17.8207 3.97259 17.8758 3.91741 17.931C3.7519 18.0965 3.64155 18.3172 3.64155 18.5379C3.64155 18.6482 3.64155 18.7586 3.69672 18.8689C3.25534 24.331 2.97948 29.7931 2.81396 35.2C3.42086 35.0345 4.02776 35.1448 4.52431 35.4207C4.57948 33.1034 4.68983 30.731 4.80017 28.4138C4.96569 25.4345 5.18638 22.4 5.40707 19.3655C5.62776 19.3655 5.84845 19.3655 6.12431 19.3655C6.17948 19.3655 6.28983 19.3655 6.345 19.3103C11.4209 19.2 16.7726 19.3655 21.6829 19.4758C24.7174 19.531 27.6967 19.6414 30.7312 19.6965C33.3795 19.7517 36.0829 19.9172 38.7864 19.8069C38.4553 30.9517 38.4002 42.0965 38.5657 53.2414C38.6209 54.8414 38.6209 56.4965 38.676 58.0965C38.7312 59.4758 38.8416 60.9103 38.4002 62.2345C31.2278 61.9034 24.1105 61.9586 16.9381 62.0138C15.0622 62.0138 12.5795 62.0689 10.7036 62.0689C9.26914 62.0689 7.83465 62.0138 6.40017 62.1241C6.345 62.1241 6.28983 62.0689 6.17948 62.1241C5.79328 62.1241 5.46224 62.1241 5.07603 62.0689C4.96569 62.0689 4.85534 62.0138 4.745 62.0138C4.68983 61.1862 4.68983 60.3034 4.63465 59.4758C4.1381 59.9172 3.53121 60.1931 2.92431 60.1931C2.97948 61.0758 2.97948 62.0138 3.03465 62.8965C3.08983 63.6138 3.7519 63.8345 4.24845 63.6689C4.24845 63.6689 4.24845 63.6689 4.30362 63.6689C4.745 63.7793 5.13121 63.7793 5.57259 63.8345V63.9448C5.90362 63.8896 6.17948 63.8896 6.40017 63.8345C7.17259 63.7793 7.945 63.7793 8.71741 63.7793C10.4829 63.7793 12.9657 63.7241 14.7312 63.7241C18.3174 63.6689 21.9036 63.6138 25.4347 63.6689C29.9588 63.6689 34.4278 63.7241 38.9519 63.9448C39.5036 64 39.8347 63.7241 39.945 63.3931Z" fill="#1E1E1E"/>
<path d="M40.4964 46.1242C40.4412 40.3863 40.4964 34.5932 40.5516 28.8553C40.6067 25.5449 40.6619 22.2898 40.7723 18.9794C40.7723 18.5932 40.5516 18.3725 40.2205 18.2622C40.055 18.1518 39.8343 18.0967 39.5585 18.0967C36.5792 18.3173 33.5999 18.1518 30.6205 18.0415C27.5861 17.9863 24.6067 17.876 21.5723 17.8208C19.3102 17.7656 16.9378 17.7104 14.5654 17.6553C14.5654 17.7104 14.5654 17.7656 14.5654 17.8208C14.7309 17.9863 14.9516 18.1518 15.2274 18.207C15.5033 18.3725 15.8343 18.4277 16.1102 18.4277C16.1654 18.4277 16.2205 18.4277 16.3309 18.4277C16.4964 18.4829 16.6619 18.4829 16.8274 18.4829C24.3861 18.8691 31.9447 18.538 39.5033 18.3173C39.1723 20.3035 39.7792 22.4001 39.8895 24.4415C40.055 27.2553 39.8895 30.1242 39.8343 32.938C39.724 38.5104 40.7171 44.1932 39.8343 49.7104C39.724 50.3725 39.8895 50.9242 40.1654 51.3656C40.2757 51.3656 40.4412 51.3656 40.5516 51.3656C40.5516 49.6001 40.5516 47.8346 40.4964 46.1242Z" fill="#1E1E1E"/>
<path d="M4.52411 35.4759C4.02755 35.1448 3.36549 35.0897 2.81376 35.2552C2.59307 41.2138 2.5379 47.1724 2.70342 53.1862C2.75859 55.5586 2.81376 57.8759 2.92411 60.2483C3.531 60.2483 4.1379 60.0276 4.63445 59.531C4.30342 51.531 4.30342 43.4759 4.52411 35.4759Z" fill="#1E1E1E"/>
<path d="M14.0138 16.9931C13.8483 16.7173 13.7931 16.4414 13.7931 16.1104V16C13.7931 15.5587 13.9035 15.1725 14.1242 14.8414C14.2345 14.6759 14.3448 14.5104 14.5104 14.3449C14.7862 14.069 15.1724 13.8483 15.5586 13.738C15.7793 13.6828 16 13.6828 16.1655 13.6276C16.4414 13.6276 16.7173 13.6828 16.9379 13.7931C25.1035 14.1794 33.3242 13.7931 41.4897 13.5725C41.8759 13.5725 42.2069 13.6276 42.4828 13.738C42.4828 13.738 42.4828 13.738 42.5379 13.738C43.4207 13.738 44.0276 14.1242 44.4138 14.6759C44.4138 14.1242 44.4138 13.6276 44.469 13.0759C43.3655 13.1311 42.2069 13.1311 41.0483 13.1311C34.5931 13.3518 28.1379 13.5725 21.7379 13.2414C21.5724 13.2414 21.4069 13.1862 21.2414 13.1862C21.1862 13.1862 21.131 13.1862 21.0207 13.1862C20.6897 13.1862 20.4138 13.1311 20.1379 12.9656C19.9724 12.9104 19.8069 12.8 19.6414 12.6897H19.5862C19.5862 12.8552 19.5862 13.0207 19.5311 13.1862H18.0414C18.0414 13.0207 18.0414 12.8552 18.0966 12.6897C17.2138 12.6897 16.331 12.6897 15.4483 12.6897C15.0069 12.6897 14.5655 12.6897 14.1793 12.6897C14.069 12.6897 13.9586 12.6897 13.9035 12.7449C13.7931 12.8 13.7379 12.8 13.6828 12.9104C13.5724 13.0207 13.4621 13.2414 13.4621 13.4621C13.4621 13.5725 13.4621 13.6276 13.5173 13.738C13.4069 15.0069 13.3517 16.2759 13.2414 17.6C13.6828 17.6 14.1242 17.6 14.5655 17.6C14.2345 17.4897 14.1242 17.269 14.0138 16.9931Z" fill="#1E1E1E"/>
<path d="M44.9657 46.3449C45.076 46.3449 45.1864 46.3449 45.2415 46.3449C45.0208 46.1242 44.9105 45.8484 44.8002 45.5173C44.8002 47.2829 44.6898 49.1035 44.414 50.8691C44.0829 52.9104 41.8208 52.9104 40.6071 51.7518C40.6071 52.0829 40.6071 52.4139 40.6071 52.7449C41.7105 52.8001 42.8691 52.8001 43.9726 52.8553C44.4691 52.8553 44.745 52.6346 44.8002 52.3587C44.9105 52.3035 45.0208 52.1932 45.076 52.0277C45.5174 50.9794 45.5174 49.876 45.5174 48.7173C45.5174 48.3863 45.5174 48.0553 45.5174 47.7242C45.3519 47.7242 45.1312 47.7242 44.9657 47.7242V46.3449Z" fill="#1E1E1E"/>
<path d="M44.7448 27.6966C44.8 24.8828 44.9655 22.0139 44.8 19.2001C44.7448 18.4828 44.6896 17.7656 44.5793 17.0483C44.5241 17.1587 44.4689 17.269 44.4689 17.3242C44.5241 17.6552 44.5241 18.0414 44.3586 18.4828C43.9172 19.807 44.4138 21.2966 44.5241 22.6208C44.6345 23.9449 44.6896 25.269 44.6896 26.6483C44.6896 29.3518 44.5241 32.0001 44.5241 34.7035C44.5241 37.7932 44.7448 40.8828 44.8 43.9173C45.5172 38.5656 44.6345 33.1035 44.7448 27.6966Z" fill="#1E1E1E"/>
<path d="M14.8414 14.2346C15.0621 14.2346 15.2276 14.2346 15.4483 14.2346C15.5034 14.2346 15.5586 14.2346 15.6138 14.2346C20.0276 14.1794 24.6621 14.2898 28.9103 14.4001C31.5034 14.4553 34.1517 14.5104 36.7448 14.5656C39.0621 14.6208 41.4345 14.7311 43.7517 14.6208C43.4759 24.276 43.4207 33.9311 43.5862 43.5863C43.5862 44.9656 43.6414 46.4001 43.6965 47.7794C43.7517 48.9932 43.8621 50.207 43.4759 51.3656C42.5379 51.3104 41.5448 51.3104 40.6069 51.2553C40.6069 51.4208 40.6069 51.5863 40.6069 51.7518C41.8207 52.9104 44.0827 52.9104 44.4138 50.8691C44.6896 49.0484 44.8 47.2829 44.8 45.5173C44.6896 45.1863 44.6896 44.8553 44.7448 44.4139C44.7448 44.2484 44.8 44.0829 44.8 43.9173C44.7448 40.8277 44.5241 37.7932 44.5241 34.7035C44.5241 32.0001 44.6896 29.3518 44.6896 26.6484C44.6896 25.3242 44.6345 23.9449 44.5241 22.6208C44.4138 21.2415 43.9172 19.807 44.3586 18.4829C44.5241 18.0415 44.5241 17.6553 44.469 17.3242C44.5241 17.2139 44.5793 17.1587 44.5793 17.0484C44.469 16.276 44.3586 15.5035 44.3586 14.7311C43.9724 14.1794 43.3655 13.7932 42.4827 13.7932C42.4827 13.7932 42.4827 13.7932 42.4276 13.7932C42.1517 13.6829 41.8207 13.6277 41.4345 13.6277C33.269 13.8484 25.0483 14.2346 16.8827 13.8484C16.6621 13.738 16.3862 13.6829 16.1103 13.6829C15.8896 13.738 15.669 13.738 15.5034 13.7932C15.1172 13.9035 14.7862 14.1242 14.4552 14.4001C14.3448 14.5656 14.2345 14.7311 14.069 14.8967C13.9034 15.1725 13.7931 15.5587 13.7931 16.0001V16.1104C13.7931 16.4415 13.8483 16.7173 14.0138 16.9932C14.1241 17.2691 14.2345 17.4898 14.4552 17.6553C14.5103 17.6553 14.5655 17.6553 14.6207 17.6553C14.6758 16.5518 14.7862 15.3932 14.8414 14.2346Z" fill="#1E1E1E"/>
<path d="M28.9105 12.8552C25.9312 12.8 22.7864 12.7449 19.6415 12.6897C19.8071 12.8 19.9726 12.9104 20.1381 12.9656C20.414 13.1311 20.745 13.1862 21.0209 13.1862C21.076 13.1862 21.1312 13.1862 21.2415 13.1862C21.4071 13.2414 21.5726 13.2414 21.7381 13.2414C28.1381 13.5725 34.5933 13.3518 40.9933 13.1862C39.5588 13.1862 38.1795 13.1311 36.8002 13.0759C34.1519 13.0207 31.5588 12.9656 28.9105 12.8552Z" fill="#1E1E1E"/>
<path d="M44.5792 17.0483C44.6896 17.7656 44.7999 18.4828 44.7999 19.2001C44.9654 22.0139 44.7999 24.8828 44.7447 27.6966C44.6344 33.1035 45.5723 38.6208 44.7999 43.9725C44.7999 44.469 44.7999 45.0208 44.7999 45.5173C44.9103 45.8483 45.0206 46.1242 45.2413 46.3449C45.2965 46.3449 45.4068 46.3449 45.462 46.3449C45.462 45.9035 45.462 45.407 45.4068 44.9656C45.3517 42.4277 45.2965 39.9449 45.2965 37.407C45.2413 32.3863 45.2965 27.4208 45.3516 22.4001C45.4068 19.5311 45.462 16.7173 45.5723 13.8483C45.5723 13.5173 45.4068 13.2966 45.131 13.1863C44.9654 13.0759 44.7999 13.0208 44.5241 13.0208C44.4689 13.0208 44.4137 13.0208 44.3585 13.0208C44.3034 13.5725 44.2482 14.069 44.3034 14.6208C44.7999 15.3932 44.8551 16.2759 44.5792 17.0483Z" fill="#1E1E1E"/>
<path d="M44.3035 14.6758C44.3587 15.4482 44.4139 16.2206 44.5242 16.993C44.8553 16.2758 44.8001 15.393 44.3035 14.6758Z" fill="#1E1E1E"/>
<path d="M44.8001 43.9724C44.8001 44.1379 44.7449 44.3034 44.7449 44.469C44.6897 44.8552 44.6897 45.2414 44.8001 45.5724C44.8001 45.0207 44.8001 44.469 44.8001 43.9724Z" fill="#1E1E1E"/>
<path d="M14.5655 18.2622C14.5655 18.0967 14.5655 17.9863 14.6206 17.8208C14.5655 17.7656 14.5655 17.7656 14.5103 17.7104L14.4551 17.6553C14.0137 17.6553 13.5724 17.6553 13.131 17.6553C13.131 17.876 13.0758 18.0967 13.0758 18.2622H14.5655Z" fill="#1E1E1E"/>
<path d="M40.2207 51.3103C40.1655 51.3103 40.1103 51.3103 40 51.3103V52.8C40.2207 52.8 40.3862 52.8 40.6069 52.8C40.6069 52.4689 40.6069 52.1379 40.6069 51.8069C40.4414 51.6413 40.331 51.4758 40.2207 51.3103Z" fill="#1E1E1E"/>
<path d="M40.6067 51.3103C40.4964 51.3103 40.3309 51.3103 40.2205 51.3103C40.3309 51.4758 40.4412 51.6413 40.6067 51.8069C40.6067 51.6413 40.6067 51.4758 40.6067 51.3103Z" fill="#1E1E1E"/>
<path d="M14.4551 17.6553L14.5103 17.7104C14.5654 17.7656 14.5654 17.7656 14.6206 17.8208C14.6206 17.7656 14.6206 17.7104 14.6206 17.6553C14.5654 17.6553 14.5103 17.6553 14.4551 17.6553Z" fill="#1E1E1E"/>
<path d="M19.5311 12.6897C19.4759 12.5793 19.4208 12.5242 19.3656 12.469C19.1449 12.2483 18.9794 12.0276 18.869 11.6966C18.7035 11.4207 18.6483 11.1449 18.6483 10.8138V10.7035C18.6483 10.2621 18.7587 9.87589 18.9794 9.54485C19.0897 9.37934 19.2001 9.21382 19.3656 9.0483C19.6414 8.77244 20.0277 8.55175 20.4139 8.4414C20.6346 8.38623 20.8552 8.38623 21.0208 8.33106C21.2966 8.33106 21.5725 8.38623 21.7932 8.49658C29.9587 8.88278 38.1794 8.49658 46.3449 8.27589C46.7311 8.27589 47.0621 8.33106 47.338 8.4414C47.338 8.4414 47.338 8.4414 47.3932 8.4414C49.4897 8.4414 50.0966 10.6483 49.3242 11.9724C49.3794 12.3035 49.3794 12.6897 49.2139 13.1311C48.7725 14.4552 49.269 15.9449 49.3794 17.269C49.4897 18.5931 49.5449 19.9173 49.5449 21.2966C49.5449 24 49.3794 26.6483 49.3794 29.3517C49.3794 34.7586 50.0966 40.1104 49.269 45.5173C48.938 47.5586 46.6759 47.5586 45.4621 46.4552C45.4621 46.8966 45.4621 47.2828 45.5173 47.7242C46.6759 47.7793 47.7794 47.7793 48.938 47.8345C49.4346 47.8345 49.7104 47.6138 49.7656 47.338C49.8759 47.2828 49.9863 47.1724 50.0414 47.0069C50.4828 45.9586 50.4828 44.8552 50.4828 43.6966C50.4277 42.4276 50.4277 41.1586 50.3725 39.8345C50.3173 37.2966 50.2621 34.8138 50.2621 32.2759C50.207 27.2552 50.2621 22.2897 50.3173 17.269C50.3725 14.4 50.4277 11.5862 50.538 8.71727C50.538 8.38623 50.3725 8.16554 50.0966 8.0552C49.9311 7.94485 49.7656 7.88968 49.4897 7.88968C46.8966 8.0552 44.3035 7.88968 41.7104 7.83451C39.1173 7.77934 36.469 7.72416 33.8759 7.66899C29.5173 7.55865 24.8277 7.4483 20.3035 7.55865C19.8621 7.55865 19.4208 7.55865 19.0346 7.55865C18.9242 7.55865 18.8139 7.55865 18.7587 7.61382C18.6483 7.66899 18.5932 7.66899 18.538 7.77934C18.4277 7.88968 18.3173 8.11037 18.3173 8.33106C18.3173 8.4414 18.3173 8.49658 18.3725 8.60692C18.2621 9.87589 18.207 11.2 18.0966 12.469C18.538 12.6897 19.0346 12.6897 19.5311 12.6897Z" fill="#1E1E1E"/>
<path d="M20.4136 9.32416C20.4688 9.32416 20.5239 9.32416 20.5791 9.32416C24.9929 9.26899 29.6274 9.37933 33.8757 9.48968C36.4688 9.54485 39.117 9.60002 41.7101 9.6552C44.0274 9.71037 46.3998 9.82071 48.717 9.71037C48.4412 19.3655 48.386 29.0207 48.5515 38.6759C48.5515 40.0552 48.6067 41.4897 48.6619 42.869C48.717 44.0828 48.8274 45.2966 48.4412 46.4552C47.4481 46.4 46.5101 46.4 45.517 46.3449C45.517 46.4 45.517 46.5104 45.517 46.5655C46.7308 47.7242 48.9929 47.669 49.3239 45.6276C50.1515 40.2207 49.4343 34.869 49.4343 29.4621C49.4343 26.7586 49.5998 24.1104 49.5998 21.4069C49.5998 20.0828 49.5446 18.7035 49.4343 17.3793C49.3239 16 48.8274 14.5655 49.2688 13.2414C49.4343 12.8 49.4343 12.4138 49.3791 12.0828C50.1515 10.7035 49.4894 8.55175 47.4481 8.55175C47.4481 8.55175 47.4481 8.55175 47.3929 8.55175C47.117 8.4414 46.786 8.38623 46.3998 8.38623C38.2343 8.60692 30.0136 8.99313 21.8481 8.60692C21.6274 8.49658 21.3515 8.4414 21.0757 8.4414C20.855 8.49658 20.6343 8.49658 20.4688 8.55175C20.0826 8.66209 19.7515 8.88278 19.4205 9.15864C19.3101 9.32416 19.1998 9.48968 19.0343 9.6552C18.8136 10.0414 18.7032 10.4276 18.7032 10.8138V10.9242C18.7032 11.2552 18.7584 11.5311 18.9239 11.8069C19.0343 12.0828 19.1998 12.3586 19.4205 12.5793C19.4757 12.6345 19.5308 12.6897 19.586 12.7449C19.6412 11.6414 19.7515 10.4828 19.8067 9.37933C19.9722 9.26899 20.1929 9.26899 20.4136 9.32416Z" fill="#1E1E1E"/>
<path d="M19.531 13.1862C19.531 13.0207 19.531 12.8552 19.5861 12.6897C19.0896 12.6897 18.593 12.6897 18.0965 12.6897C18.0965 12.8552 18.0965 13.0207 18.0413 13.1862H19.531Z" fill="#1E1E1E"/>
<path d="M45.2414 46.3447C45.131 46.3447 45.0207 46.3447 44.9655 46.3447V47.8344C45.131 47.8344 45.3517 47.8344 45.5172 47.8344C45.5172 47.393 45.5172 47.0068 45.4621 46.5654C45.4069 46.5102 45.2965 46.4551 45.2414 46.3447Z" fill="#1E1E1E"/>
<path d="M45.2414 46.3447C45.2966 46.4551 45.4069 46.5102 45.4621 46.5654C45.4621 46.5102 45.4621 46.3999 45.4621 46.3447C45.4069 46.3447 45.2966 46.3447 45.2414 46.3447Z" fill="#1E1E1E"/>
<path d="M7.88959 37.9035C8.11028 37.6828 8.38614 37.4069 8.60683 37.1862C9.04821 37.6276 9.59993 37.9035 10.3723 37.6828C10.8689 37.5173 11.1999 37.131 11.6413 36.9104C11.6413 36.9104 11.7517 36.8552 11.9172 36.8C11.9723 36.8552 12.0275 36.9104 12.0827 36.9655C12.6896 37.5173 13.5172 38.2345 14.5103 38.069C15.1172 37.9586 15.6137 37.5173 16.0551 37.0207C16.7172 37.6828 17.5448 38.2345 18.593 38.0138C18.9792 37.9035 19.5861 37.5724 19.7517 37.2414C19.8068 37.1862 19.8068 37.131 19.862 37.131C19.9723 37.1862 20.0827 37.3517 20.193 37.4069C20.8551 37.9586 21.6275 38.4552 22.6758 38.2897C23.2275 38.1793 23.6689 37.9035 23.9999 37.5724C24.0551 37.6276 24.1103 37.6828 24.1655 37.6828C25.0482 38.4 25.9861 37.9586 26.7586 37.4621C26.8137 37.4069 26.8689 37.4069 26.8689 37.3517C26.9241 37.4069 27.0344 37.4621 27.0896 37.5173C27.4206 37.7931 27.7517 38.069 28.193 38.2345C28.6896 38.4 29.1861 38.3448 29.6275 38.1242C29.8482 38.0138 30.0689 37.9035 30.1792 37.7379C30.2344 37.6828 30.2896 37.6828 30.2896 37.6276C30.3448 37.6276 30.3448 37.6828 30.3999 37.6828C31.2827 38.3448 32.7723 38.2897 33.7103 37.7379C34.8137 37.0759 33.7655 35.4759 32.662 36.1931C31.7792 36.7448 31.0068 35.6414 29.9586 35.8069C29.5723 35.8621 28.9103 36.0828 28.7448 36.4138C28.6896 36.3586 28.5792 36.3035 28.5241 36.2483C27.9172 35.7517 27.1999 35.3104 26.3172 35.531C25.9861 35.6414 25.5448 35.8069 25.3241 36.0828C25.2137 35.9724 25.0482 35.8621 24.993 35.8069C24.6068 35.531 24.1103 35.3655 23.6137 35.4759C23.062 35.5862 22.8413 35.9173 22.5103 36.2483C22.2344 36.5241 22.2344 36.6345 21.9034 36.3586C21.5723 36.1379 21.3517 35.8621 21.0206 35.6414C20.3034 35.2 19.4758 35.1448 18.7034 35.5862C18.4827 35.6966 18.262 35.9724 18.0413 36.1379C17.9861 36.0828 17.9861 36.0828 17.8758 36.0276C17.7655 35.9173 17.6551 35.8069 17.5448 35.6966C17.2689 35.4207 16.993 35.2 16.7172 34.9241C16.331 34.5931 15.5586 34.5379 15.2275 34.9241L14.3448 35.8621C14.2896 35.9173 14.1792 36.0276 14.1241 36.0828C13.7379 35.7517 13.0758 35.1448 12.9655 35.0897C12.4137 34.7586 11.8068 34.7586 11.2551 35.0345C10.8689 35.2 10.4275 35.5862 10.0413 35.8621C9.82062 35.6414 9.59993 35.3655 9.43442 35.2C9.10338 34.869 8.2758 34.869 7.94476 35.2C7.44821 35.6966 6.95166 36.1931 6.45511 36.6897C5.51718 37.5173 7.00683 38.7862 7.88959 37.9035Z" fill="#1E1E1E"/>
<path d="M8.49649 41.2138C8.71718 40.9931 8.93787 40.7724 9.21373 40.662C9.2689 40.7724 9.2689 40.8827 9.32407 40.9379C9.65511 41.5448 10.3172 41.931 11.0896 41.8207C11.4758 41.7655 11.8068 41.5448 12.0827 41.3241C12.2482 41.2138 12.4689 40.8276 12.6896 40.7172C12.6344 40.7724 12.8551 40.8276 12.9655 40.9379C13.2413 41.1034 13.462 41.3241 13.7379 41.4896C14.2896 41.8207 15.0068 41.8758 15.6137 41.6551C15.8896 41.5448 16.1103 41.3793 16.331 41.2138C16.331 41.2138 16.3861 41.1586 16.4413 41.1034C16.8275 41.5448 17.8758 41.7103 18.3723 41.7103C18.8689 41.7103 19.3655 41.5448 19.7517 41.2689C20.3034 41.6551 20.9655 41.8758 21.7379 41.7655C22.0137 41.7103 22.3448 41.6551 22.5655 41.5448C22.6758 41.4896 22.7861 41.4345 22.8965 41.3241C22.9517 41.3241 22.9517 41.2689 23.0068 41.2689C23.0068 41.2689 23.0068 41.2689 23.062 41.2689C23.2275 41.3793 23.3379 41.4344 23.5034 41.4896C23.8896 41.6 24.2758 41.6551 24.662 41.6551C26.0413 41.6 26.0413 39.7793 24.662 39.8345C24.1655 39.8896 23.9999 39.5586 23.5586 39.3931C23.1172 39.2276 22.6206 39.2827 22.2344 39.4482C21.9586 39.5586 21.1861 40.331 20.9655 39.6689C20.6896 39.0069 19.8068 38.8413 19.1999 39.2827C18.9241 39.4482 18.4827 39.8896 18.0965 39.8345C17.8206 39.7793 17.5999 39.4482 17.3792 39.3379C16.7723 38.9517 15.9999 38.9517 15.3379 39.3379C15.1172 39.5034 14.8965 39.6689 14.731 39.8896C14.731 39.8896 14.731 39.8896 14.6758 39.9448C14.6758 39.9448 14.6206 39.9448 14.6206 39.8896C14.3448 39.5034 13.5723 39.1172 13.0758 39.0069C12.4137 38.8413 11.6965 39.0069 11.1999 39.3931C11.1448 39.4482 10.9792 39.5586 10.8689 39.6689L10.8137 39.6138C9.76545 38.2345 7.83442 39.062 6.89649 40C6.12407 40.8276 7.61373 42.0965 8.49649 41.2138Z" fill="#1E1E1E"/>
<path d="M33.5447 43.2C32.993 43.2 32.4412 43.2552 31.8895 43.4759C31.6688 43.531 31.3378 43.7517 31.0619 43.7517C30.8412 43.7517 30.6757 43.5862 30.5102 43.4759C30.0137 43.2 29.5171 43.0345 28.9102 43.0345C28.4688 43.0896 27.9723 43.2 27.6412 43.4759C27.5861 43.531 27.4757 43.5862 27.4206 43.5862L27.3654 43.531C27.1999 43.3655 26.924 43.2 26.7033 43.0896C26.2619 42.869 25.7654 42.869 25.324 42.9793C24.7723 43.0896 24.4964 43.5862 23.9999 43.6965C23.6137 43.8069 23.2274 43.531 22.8412 43.3655C22.3447 43.2 21.8481 43.0345 21.2964 43.0345C20.6895 43.0345 20.3033 43.3655 19.7516 43.4207C19.255 43.531 18.8688 43.0896 18.4274 42.9793C17.8757 42.8138 17.2688 42.869 16.7171 43.0345C16.2206 43.2 15.4481 43.7517 14.9516 43.6965C14.5654 43.6414 14.2895 43.2 13.9585 43.0345C13.4619 42.7586 12.9102 42.7034 12.4137 42.869C11.8068 43.0896 11.3654 43.531 10.924 43.9172C10.924 43.9172 10.8688 43.9724 10.7585 44.0276C10.593 43.7517 10.1516 43.4759 9.98607 43.2552C8.88262 42.0414 7.77917 43.0345 6.84124 43.8069C5.84814 44.5793 7.33779 45.8483 8.3309 45.0759C8.44124 44.9655 8.60676 44.8552 8.7171 44.8C9.10331 45.1862 9.48952 45.5724 9.98607 45.7931C11.1447 46.3448 12.0274 45.4621 12.7999 44.8552C12.855 44.8 12.9102 44.8 13.0206 44.7448C13.1309 44.9103 13.4068 45.0207 13.5723 45.131C14.0688 45.4621 14.6757 45.5172 15.2826 45.4621C15.8895 45.4069 16.3861 45.1862 16.8826 44.9655C17.1033 44.8552 17.4343 44.6896 17.7102 44.6896C17.9861 44.6896 18.2619 44.9103 18.5378 45.0207C19.0343 45.2414 19.5861 45.2965 20.1378 45.1862C20.4137 45.131 20.6895 44.9655 20.9654 44.9103C20.855 44.3034 21.5723 43.5862 22.3447 43.9724C22.8412 44.1931 23.4481 44.5241 23.9999 44.469C24.5516 44.4138 24.9378 43.9724 25.4895 43.8621C26.0412 43.7517 26.593 43.9172 27.1447 44.0276C27.6412 44.1379 27.9171 44.1379 28.4137 43.9172C28.9102 43.7517 29.4068 43.6414 29.9033 43.7517C30.3447 43.8621 30.8412 44.2483 31.2826 44.2483C31.7792 44.3034 32.2757 43.9172 32.7723 43.8621C33.0481 43.8069 33.324 43.8069 33.655 43.8621C33.7654 43.9172 33.9309 43.9172 34.0412 43.9724C34.0964 43.9724 34.1516 43.9724 34.1516 43.9724C34.8137 43.4207 35.6964 44.0827 35.6412 44.7448C35.9171 44.6345 36.2481 44.469 36.4688 44.3034C37.4619 43.531 35.9723 42.2621 34.9792 43.0345C34.593 43.3655 33.9309 43.2 33.5447 43.2Z" fill="#1E1E1E"/>
<path d="M34.0964 44.0827C34.0964 44.0827 34.0412 44.0827 33.9861 44.0827C33.8757 44.0276 33.7102 44.0276 33.5999 43.9724C33.324 43.9172 33.0481 43.9172 32.7171 43.9724C32.2205 44.0276 31.724 44.4138 31.2274 44.3586C30.7309 44.3586 30.2895 43.9724 29.8481 43.8621C29.3516 43.7517 28.855 43.8069 28.3585 44.0276C27.8619 44.1931 27.5861 44.2483 27.0895 44.1379C26.5378 44.0276 25.9861 43.8621 25.4343 43.9724C24.8826 44.0827 24.4412 44.469 23.9447 44.5793C23.393 44.6345 22.7861 44.3034 22.2895 44.0827C21.5171 43.6965 20.7999 44.4138 20.9102 45.0207C21.0757 44.9655 21.2964 44.9103 21.4619 44.9655C21.9033 45.0207 22.3999 45.3517 22.8412 45.4621C23.3378 45.6276 23.9447 45.6827 24.4964 45.5724C24.993 45.4621 25.4343 45.1862 25.7654 44.9103V44.8552C25.8205 44.9103 25.8757 44.9655 25.9309 45.0207C26.1516 45.1862 26.4274 45.4069 26.7585 45.4621C27.255 45.6276 27.6964 45.5724 28.1378 45.4069C28.4136 45.3517 28.5792 45.1862 28.855 45.0759C29.1309 44.9655 29.0757 44.9655 29.2964 45.0207C29.5723 45.0759 29.8481 45.2965 30.0688 45.4069C30.3447 45.5172 30.6205 45.5724 30.8964 45.6276C31.6136 45.6827 32.1654 45.3517 32.8274 45.1862C33.4343 45.0207 34.0412 45.131 34.6481 45.131C34.9792 45.131 35.255 45.0759 35.5309 44.9655C35.6412 44.1931 34.7585 43.531 34.0964 44.0827Z" fill="#1E1E1E"/>
<path d="M13.4069 2.97931C13.4621 2.81379 13.5172 2.53793 13.6276 2.37241C13.6828 2.37241 13.7379 2.31724 13.7931 2.31724C15.0069 2.15172 16.2759 2.2069 17.4897 2.26207C18.9793 2.31724 18.9793 0.0551724 17.4897 0C16.4414 0 15.3931 0 14.3448 0.0551724C13.4069 0.110345 12.4138 0.165517 11.7517 0.937931C11.2 1.65517 10.9793 2.64828 10.869 3.53103C10.8138 4.02759 10.7034 4.52414 10.7034 5.02069C10.7034 5.24138 10.7034 5.51724 10.7586 5.7931C10.5379 5.7931 10.3724 5.84828 10.1517 5.84828C9.76552 5.90345 9.32414 5.95862 8.93793 6.01379C8.22069 6.12414 7.55862 6.28966 7.17241 6.89655C6.84138 7.44828 6.89655 8.11034 6.95172 8.71724L7.06207 9.98621C7.06207 10.1517 7.11724 10.3724 7.17241 10.5931C6.95172 10.5931 6.67586 10.5931 6.45517 10.6483C5.84828 10.7034 5.24138 10.7586 4.63448 10.8138C3.47586 10.9241 2.31724 11.0345 1.15862 11.1448C0.551724 11.2552 0 11.6414 0 12.3034C0 12.8552 0.551724 13.5172 1.15862 13.4621C2.37241 13.3517 3.58621 13.2414 4.74483 13.131C5.84828 13.0207 7.0069 12.9655 8.11034 12.8C9.43448 12.5793 9.48966 11.4207 9.37931 10.3172C9.32414 9.76552 9.26897 9.21379 9.21379 8.66207C9.21379 8.66207 9.21379 8.44138 9.21379 8.27586C9.26897 8.27586 9.26897 8.27586 9.32414 8.27586C9.87586 8.22069 10.4828 8.11034 11.0897 8.05517C11.5862 8 12.1379 7.94483 12.5241 7.55862C13.2966 6.78621 12.9655 5.57241 13.0759 4.63448C13.131 4.02759 13.2414 3.53103 13.4069 2.97931Z" fill="#1E1E1E"/>
<path d="M49.2691 58.6482C50.1519 58.6482 51.145 58.7034 51.7519 57.931C52.3036 57.2689 52.2485 56.2758 52.2485 55.5034C52.2485 54.9517 52.3036 54.3448 52.3036 53.7931C53.1312 53.7931 54.014 53.7379 54.8416 53.6827C55.4485 53.6275 56.0002 53.1862 56.0002 52.5241C56.0002 51.9724 55.4485 51.3655 54.8416 51.3655C53.6278 51.4758 52.3588 51.4758 51.145 51.4758C50.5381 51.4758 49.9864 52.0275 49.9864 52.6344C49.9864 53.2965 49.9864 53.9034 49.9864 54.5655C49.9864 55.1724 49.876 55.7793 49.876 56.331C49.6002 56.331 49.2691 56.3862 49.214 56.3862C48.6071 56.3862 47.945 56.4413 47.3381 56.4413C46.676 56.4413 46.014 56.4413 45.5174 56.9379C45.0209 57.4344 45.076 58.1517 45.076 58.8138C45.076 60.1379 45.076 61.4069 45.076 62.731C45.076 64.1655 47.3933 64.2206 47.3933 62.731C47.3933 61.9034 47.3933 61.131 47.3933 60.3034C47.3933 59.9172 47.3933 59.4758 47.3933 59.0896C47.3933 58.9241 47.3933 58.8138 47.3933 58.6482C47.5588 58.6482 47.6691 58.6482 47.8347 58.6482C48.3312 58.7034 48.7726 58.7034 49.2691 58.6482Z" fill="#1E1E1E"/>
</g>
<defs>
<clipPath id="clip0">
<rect width="56" height="64" fill="white"/>
</clipPath>
</defs>
</svg>
