<svg width="72" height="64" viewBox="0 0 72 64" fill="none" xmlns="http://www.w3.org/2000/svg">
<path d="M59.5637 30.1574C59.5092 36.2994 59.4547 42.5028 59.4547 48.6449C59.4001 53.0057 65.4001 53.0057 65.4547 48.6449C65.5092 42.5028 65.5637 36.2994 65.5637 30.1574C65.5637 25.7965 59.5637 25.7965 59.5637 30.1574Z" fill="#59C59F"/>
<path d="M49.473 49.9962C49.0366 48.9521 48.4366 47.9694 47.6184 47.2937C46.8003 46.6181 45.8184 46.2496 44.7821 46.1882C42.7639 46.0653 40.9094 47.4166 39.9275 49.382C39.3821 50.4876 38.9457 52.0845 39.6003 53.2515C40.0366 54.7256 41.1275 55.8312 42.4912 56.2611C43.2548 56.5068 43.9639 56.5068 44.673 56.3839C45.273 56.4454 45.9275 56.3839 46.5275 56.0154C48.4912 55.0327 50.5639 52.5145 49.473 49.9962Z" fill="#F7C300"/>
<path d="M65.1819 2.08829L65.291 2.57965C65.3456 2.82533 65.4001 3.07101 65.4001 3.3167C65.6183 4.5451 65.8365 5.77351 66.2183 6.75623L67.2547 7.18618C67.1456 7.12476 66.9819 7.00192 66.8728 6.9405C66.3274 6.51055 66.2729 5.65067 66.1638 4.91362C66.0001 3.99232 65.9456 3.00959 65.891 2.08829C65.891 1.71977 65.6183 1.41266 65.3456 1.35124C65.1274 1.28982 64.9638 1.35124 64.8001 1.47408C65.0183 1.59693 65.1274 1.84261 65.1819 2.08829Z" fill="#F7C300"/>
<path d="M71.6732 10.5028C72.2732 10.1343 71.9459 9.27443 71.455 9.09016C71.2368 9.02874 71.0732 8.96732 70.855 8.84448C70.9641 9.02874 71.0186 9.213 71.0732 9.45869C71.0732 9.64295 71.0186 9.82721 70.9641 9.95005C70.4186 10.8099 69.655 11.3013 68.9459 11.7927C68.5095 12.0998 68.1277 12.3454 67.7459 12.714L67.6914 12.7754C67.5277 12.8982 67.4186 12.9596 67.3095 13.0825L66.9823 13.3282L66.8732 16.0307C66.8732 16.2149 66.8732 16.3992 66.8732 16.5834C66.8732 17.1976 66.9277 17.8733 66.7641 18.3032C67.2004 18.4875 67.7459 18.119 67.6914 17.5662C67.6368 16.7677 67.6368 15.9078 67.6914 15.1094C67.6914 14.6794 67.7459 14.2495 67.8004 13.881C67.855 13.5124 68.0732 13.3282 68.3459 13.0825C69.3277 12.0998 70.4732 11.2399 71.6732 10.5028Z" fill="#F7C300"/>
<path d="M61.9635 5.77365C61.8544 5.83507 61.7453 5.89649 61.5817 5.95791C60.6544 7.18632 59.0726 6.94064 57.709 6.69496C57.4362 6.63354 57.2181 6.63354 56.9999 6.57212C57.0544 6.75638 57.109 6.87922 57.2181 7.06348C57.6544 7.61626 58.1453 8.23047 58.5272 8.78325C58.7453 9.09035 58.9635 9.39745 59.1817 9.70456C59.2908 9.88882 59.3999 10.0117 59.509 10.1959C59.5635 10.2573 59.6181 10.3802 59.6726 10.4416L59.7272 10.503V10.5644C59.6726 10.6873 59.6726 10.7487 59.6181 10.8715C59.5635 11.0558 59.4544 11.2401 59.3999 11.4243C59.2362 11.7928 59.1271 12.1614 58.9635 12.5299C58.6362 13.2669 58.309 14.0654 57.9817 14.8024C57.8181 15.1095 57.9271 15.4781 58.1453 15.7238L61.0908 14.741C61.1453 14.741 61.1999 14.741 61.2544 14.6796C61.3635 14.6796 61.4726 14.6796 61.5817 14.6796C61.7453 14.6182 61.909 14.5568 62.0726 14.4953C62.3999 14.4339 62.4544 14.4953 62.6726 14.741C63.5999 15.6009 64.5817 16.4608 65.509 17.3207C65.509 17.075 65.509 16.7679 65.509 16.6451C65.509 16.4608 65.509 16.2151 65.509 16.0309L65.6181 13.2055C65.6181 12.7142 65.8362 12.3456 66.2181 12.0999L66.5999 11.8543C66.709 11.7928 66.8181 11.67 66.9817 11.6086C67.3635 11.2401 67.8544 10.8715 68.2908 10.5644C68.7817 10.2573 69.2181 9.95024 69.5453 9.58172L65.8362 8.04621C65.6726 7.98479 65.4544 7.86195 65.3453 7.67768C65.2908 7.61626 65.2908 7.55484 65.2362 7.49342C64.6908 6.32644 64.4181 4.91377 64.1999 3.5011C64.1453 3.25542 64.1453 3.07116 64.0908 2.82548V2.70264C63.8181 3.13258 63.5999 3.56252 63.3271 3.99246C62.8908 4.66809 62.509 5.34371 61.9635 5.77365ZM62.8362 6.57212C62.9453 6.38786 63.109 6.32644 63.2726 6.26502C63.6544 6.2036 63.9817 6.44928 64.0362 6.87922C64.1453 7.432 64.3635 7.92337 64.6908 8.29189C65.0726 8.72183 65.6726 8.96751 66.2726 9.21319C66.5999 9.33603 66.7635 9.76598 66.6544 10.1345C66.5453 10.3802 66.3817 10.6259 66.109 10.6259C66.0544 10.6259 65.9453 10.6259 65.8908 10.6259C65.8362 10.6259 65.8362 10.6259 65.7817 10.6259C65.0181 10.3188 64.2544 9.95024 63.6544 9.27461C63.1635 8.66041 62.7817 7.92337 62.6726 7.06348C62.6726 6.94064 62.7271 6.75638 62.8362 6.57212Z" fill="#F7C300"/>
<path d="M66.491 18.3033C66.1637 17.9962 65.8364 17.6891 65.5092 17.4434C65.5092 17.5662 65.5092 17.6891 65.5092 17.8119C65.291 17.8733 64.9637 17.5662 64.3092 16.952C63.9273 16.5835 63.5455 16.1536 63.1637 15.9079L62.291 15.048C62.0728 14.8637 61.8546 14.7409 61.5819 14.7409C61.4182 14.8023 61.2001 14.8637 61.0364 14.9866C60.2728 15.2937 59.5637 15.6622 58.8001 15.9693C58.5273 16.0921 58.3092 15.9693 58.1455 15.785L57.2182 16.0921C57.6001 15.2323 57.8728 14.311 58.1455 13.4511C58.3092 12.8983 58.4728 12.3455 58.691 11.7927C58.7455 11.6085 58.8001 11.3628 58.7455 11.1171C58.7455 10.8714 58.6364 10.6872 58.5273 10.5029L56.2364 6.63341H56.5092C56.6728 6.63341 56.8364 6.63341 57.0001 6.69483C57.0001 6.63341 57.0001 6.51057 57.0001 6.44915C56.7819 5.83494 57.1637 5.28216 57.7637 5.34358C58.5819 5.46642 59.4001 5.83494 60.2182 6.0192C60.7092 6.14205 61.2001 6.20347 61.6364 6.0192L61.691 5.95778L63.9819 2.70251L64.0364 2.88677C64.2546 2.51824 64.4728 2.14972 64.691 1.7812C64.7455 1.65836 64.8546 1.59694 64.9092 1.53552C64.7455 1.35126 64.5273 1.22842 64.2546 1.167C63.7637 1.04416 63.3273 1.22842 63.0001 1.65836L60.6546 5.0979C60.2182 5.77352 59.0728 5.58926 57.9273 5.34358C57.4364 5.28216 57.0001 5.15932 56.6182 5.15932H56.1819C55.691 5.0979 55.2546 5.405 55.0364 5.83494C54.8182 6.32631 54.8182 6.87909 55.091 7.30903L57.491 11.2399C57.2728 11.7927 57.1092 12.4069 56.9455 12.9597C56.6728 13.881 56.4001 14.8023 55.9637 15.6008C55.9637 15.6008 55.9092 15.6622 55.9092 15.7236C55.8001 15.9693 55.8001 16.2764 55.8546 16.5221C55.9092 16.8906 56.1273 17.2591 56.4546 17.4434C56.5637 17.5048 56.7273 17.5662 56.8364 17.6276C57.0546 17.6891 57.2182 17.6891 57.4364 17.6276L61.5273 16.3378L62.4546 17.1977C62.5092 17.2591 62.5092 17.2591 62.5637 17.2591C62.8364 17.4434 63.1637 17.7505 63.491 18.119C64.091 18.7332 64.9092 19.5931 65.7273 19.4088C65.891 19.3474 66.0546 19.286 66.2728 19.1632C66.5455 19.0403 66.7092 18.8561 66.8182 18.549C66.6001 18.3647 66.5455 18.3647 66.491 18.3033Z" fill="#1E1E1E"/>
<path d="M70.8549 8.90595C70.8549 8.90595 70.8549 8.84453 70.8003 8.84453C70.6367 8.59884 70.4731 8.476 70.2549 8.35316L67.3094 7.12476C67.8549 7.49328 68.5094 7.8618 69.1094 8.1689C69.6549 8.41458 70.2549 8.66026 70.8549 8.90595Z" fill="#1E1E1E"/>
<path d="M61.0908 14.7409L58.0908 15.7236C58.2544 15.9079 58.5272 16.0307 58.7454 15.9079C59.509 15.6007 60.2181 15.2322 60.9817 14.9251C61.1454 14.8637 61.3635 14.8023 61.5272 14.6794C61.4181 14.6794 61.309 14.6794 61.1999 14.6794C61.1999 14.7409 61.1454 14.7409 61.0908 14.7409Z" fill="#1E1E1E"/>
<path d="M66.8183 16.7064C66.8183 16.5221 66.8183 16.3378 66.8183 16.1536L66.9274 13.4511L67.2547 13.2054C67.3638 13.144 67.5274 13.0211 67.6365 12.8983C67.6911 12.8983 67.6911 12.8369 67.6911 12.8369C68.0183 12.5298 68.4547 12.2227 68.8911 11.9156C69.6002 11.4242 70.3638 10.9329 70.9093 10.073C71.0183 9.95013 71.0729 9.76587 71.0183 9.58161C71.0183 9.33593 70.9093 9.15166 70.8002 8.9674C70.2002 8.72172 69.6002 8.53746 69.0547 8.23036C68.4547 7.92326 67.8547 7.61616 67.2547 7.18621L66.2183 6.75627C65.782 5.77355 65.5638 4.54514 65.4002 3.31673C65.3456 3.07105 65.3456 2.88679 65.2911 2.57969L65.182 2.08832C65.1274 1.84264 65.0183 1.59696 64.8547 1.47412C64.7456 1.53554 64.6911 1.65838 64.6365 1.7198C64.4183 2.08832 64.2002 2.45685 63.982 2.82537V2.94821C64.0365 3.19389 64.0365 3.37815 64.0911 3.62383C64.3093 5.0365 64.582 6.44917 65.1274 7.61616C65.1274 7.67758 65.182 7.739 65.2365 7.80042C65.3456 7.98468 65.5638 8.10752 65.7274 8.16894L69.4365 9.70445C69.0547 10.073 68.6183 10.3801 68.182 10.6872C67.7456 10.9943 67.2547 11.3014 66.8729 11.7313C66.7093 11.8542 66.6002 11.9156 66.4911 11.977L66.1092 12.2227C65.782 12.4684 65.5638 12.8983 65.5093 13.3282L65.4002 16.1536C65.4002 16.3378 65.4002 16.5835 65.4002 16.7678C65.4002 16.8906 65.4002 17.1977 65.4002 17.4434C65.7274 17.7505 66.0547 18.0576 66.382 18.3033C66.4365 18.3647 66.5456 18.4261 66.6002 18.4261C66.8729 17.9348 66.8183 17.3206 66.8183 16.7064Z" fill="#1E1E1E"/>
<path d="M61.5818 5.95789C61.1454 6.14215 60.6 6.08073 60.1636 5.95789C59.3454 5.77363 58.5818 5.34369 57.709 5.28227C57.109 5.22085 56.7272 5.77363 56.9454 6.38783C56.9454 6.44925 56.9454 6.57209 56.9454 6.63351C57.1636 6.69493 57.4363 6.69493 57.6545 6.75635C59.0727 6.94061 60.6545 7.24772 61.5818 5.95789Z" fill="#1E1E1E"/>
<path d="M63.7092 9.33583C64.3092 10.0115 65.0729 10.38 65.8365 10.6871C65.8911 10.6871 65.8911 10.6871 65.9456 10.6871C66.0547 10.6871 66.1092 10.6871 66.1638 10.6871C66.382 10.6257 66.6002 10.4414 66.7092 10.1957C66.8183 9.82719 66.6547 9.39725 66.3274 9.27441C65.6729 9.02873 65.1274 8.78305 64.7456 8.35311C64.4183 7.98458 64.1456 7.4318 64.0911 6.94044C64.0365 6.5105 63.7092 6.26481 63.3274 6.32623C63.1638 6.38765 63.0002 6.44907 62.8911 6.63334C62.782 6.8176 62.782 7.00186 62.782 7.18612C62.8365 7.98458 63.2183 8.72163 63.7092 9.33583Z" fill="#1E1E1E"/>
<path d="M29.9462 14.0038C29.8917 13.6967 29.8917 13.451 29.8917 13.2053V12.6525L30.3826 12.5911C34.8007 12.284 39.1644 12.0383 43.5826 11.9155C45.2735 11.8541 46.9098 11.8541 48.6007 11.7926C49.4189 11.7926 50.2917 11.7926 51.1098 11.7926C51.9826 11.7926 52.8553 11.6698 53.728 11.6698C53.9462 11.6698 54.2189 11.6698 54.4371 11.547C54.6553 11.3627 54.7644 11.0556 54.7098 10.7485C54.4371 9.45867 52.6917 9.88862 51.8735 9.88862C50.7826 9.88862 49.6917 9.88862 48.5462 9.88862C46.3644 9.88862 44.128 9.95003 41.9462 10.0115C39.8735 10.0729 37.7462 10.1957 35.6735 10.3186C33.6007 10.4414 31.528 10.6871 29.5098 10.7485H29.3462H29.2917C29.1826 10.7485 29.128 10.6871 29.0735 10.6871C28.8007 10.6871 28.528 10.8099 28.3644 10.9942C28.2007 11.1784 28.0917 11.4241 28.0917 11.7312C27.928 13.3282 28.1462 14.9865 28.6371 16.522C28.7462 16.8291 28.8553 17.0134 29.0735 17.1362C29.2917 17.2591 29.6189 17.3205 29.7826 17.2591C30.0553 17.1362 30.328 16.8905 30.4371 16.6449C30.4917 16.4606 30.5462 16.2763 30.4917 16.1535C30.2735 15.4164 30.0553 14.7408 29.9462 14.0038Z" fill="#1E1E1E"/>
<path d="M63.1097 20.3916C63.0551 20.3302 63.0551 20.2688 63.0006 20.2688C62.837 20.1459 62.6188 20.1459 62.4006 20.2073C62.2915 20.2073 62.1824 20.2073 62.0733 20.2688C61.9642 20.3302 61.9097 20.453 61.8551 20.5759C61.4733 21.1901 61.637 21.8657 61.6915 22.5413C61.6915 23.1555 61.7461 23.7697 61.7461 24.3839C61.8006 25.6123 61.8006 26.8407 61.8551 28.0691C61.9097 30.526 61.9097 33.0442 61.8551 35.501C61.8006 40.476 61.5824 45.3897 61.2006 50.3647C61.0915 51.4703 61.037 52.5759 60.9279 53.6814L60.8733 54.1114L56.946 54.9713C56.5097 55.0327 55.8551 55.3398 55.9097 55.8926C55.9097 56.1997 56.0733 56.5068 56.2915 56.691C56.4551 56.8753 56.6188 56.9367 56.837 56.8753L60.7642 56.0154C61.0915 55.954 61.3642 55.8311 61.5824 55.6469L61.6915 55.524H61.8551C62.2915 55.4626 62.7279 55.2169 62.7824 54.6027C63.2188 49.6891 63.5461 44.7141 63.7097 39.8004C63.8733 34.8254 63.8733 29.8503 63.7097 24.9367C63.7097 24.1997 63.6551 23.524 63.6551 22.787C63.6006 22.0499 63.6551 21.3129 63.3279 20.6373C63.2188 20.5144 63.1642 20.453 63.1097 20.3916Z" fill="#1E1E1E"/>
<path d="M12.546 45.0211C12.3823 44.8369 12.1642 44.714 11.946 44.6526C11.7823 44.5912 11.6187 44.5912 11.4551 44.5912L9.98234 44.4069C9.98234 44.4069 9.92779 44.4069 9.87325 44.4069C9.70961 44.4069 9.49143 44.4069 9.27325 44.2841C8.83688 44.0384 8.83688 43.4856 8.83688 43.1171C8.83688 43.0557 8.83688 42.9943 8.83688 42.9329L8.72779 41.8887C8.6187 40.5989 8.50961 39.2476 8.40052 37.7121C8.23688 34.8868 8.07325 32.0615 8.0187 29.359C7.96416 26.595 7.90961 23.8311 7.90961 21.0058C7.90961 19.0403 7.96416 16.952 8.0187 14.6181C8.0187 14.4338 8.0187 14.311 8.0187 14.1267V13.5125C8.0187 13.2054 8.0187 12.8983 8.0187 12.5912C8.12779 9.82728 8.29143 7.00195 8.45507 4.23803C8.67325 3.68525 8.72779 3.13247 8.78234 2.57968L8.83688 2.08832H9.27325C13.2005 1.96548 17.4005 1.90406 22.0369 1.96548C22.0914 1.96548 22.2005 1.96548 22.2551 1.96548C28.2005 2.0269 33.9823 2.334 39.4914 2.70252L39.9823 2.76394V3.31673C39.9823 3.56241 39.9278 3.86951 39.9278 4.11519C39.8187 4.91366 39.6551 5.58928 39.4369 6.20348C39.3823 6.38775 39.3823 6.51059 39.4914 6.69485C39.6005 7.00195 39.8732 7.24763 40.146 7.30905C40.3642 7.37047 40.6914 7.30905 40.8551 7.18621C41.0732 7.06337 41.1823 6.87911 41.2914 6.57201C41.8369 5.09792 42.0005 3.37815 41.8369 1.78122C41.7823 1.4127 41.7278 1.22844 41.5641 1.04417C41.346 0.798493 41.0732 0.798493 40.8551 0.737073C40.8005 0.737073 40.746 0.737073 40.6369 0.798493H40.5278H40.4187C34.6369 0.429971 28.5278 0.122869 22.2551 0.061449C22.2005 0.061449 22.146 0.061449 22.0369 0.061449C20.6187 0.061449 19.2005 0.061449 17.7823 0.061449C14.2914 2.86661e-05 10.9096 0.061449 7.58234 0.18429C7.09143 0.18429 6.87325 0.491391 6.76416 0.675653C6.60052 0.982754 6.60052 1.4127 6.8187 1.7198L6.92779 1.90406V2.08832C6.60052 6.20348 6.38234 10.5029 6.2187 15.1709C5.94597 25.0595 6.27325 35.0096 7.14597 44.714C7.20052 45.3283 7.69143 45.6354 8.07325 45.6354H8.23688L8.34597 45.7582C8.50961 45.9425 8.83688 46.0653 9.10961 46.1267L10.8005 46.311C11.346 46.3724 11.8369 46.4338 12.3823 46.4952C12.4914 46.4952 12.546 46.4952 12.6005 46.4952C12.6005 46.4952 12.6551 46.4338 12.7642 46.311C12.9278 45.881 12.9823 45.5125 12.8732 45.2054C12.7642 45.2668 12.7096 45.144 12.546 45.0211Z" fill="#1E1E1E"/>
<path d="M27.3825 7.06354C27.3825 6.63359 27.1643 6.08081 26.5098 6.08081C21.8188 6.08081 17.0734 6.20365 12.3825 6.51075C11.7279 6.57217 11.4552 7.12496 11.4552 7.61632C11.4552 7.80058 11.5643 8.4762 12.3279 8.4762C17.0189 8.23052 21.8188 8.10768 26.5098 8.04626C27.1643 8.04626 27.3825 7.49348 27.3825 7.06354Z" fill="#1E1E1E"/>
<path d="M23.237 12.1611C19.637 12.284 15.9279 12.284 12.3279 12.1611C12.0552 12.1611 11.8916 12.3454 11.7825 12.4682C11.5643 12.6525 11.4552 12.8982 11.4552 13.1439C11.4552 13.7581 12.0007 14.0652 12.4916 14.0652C16.0916 14.2494 19.7461 14.2494 23.3461 14.0652C23.7279 14.0652 23.9461 13.8809 24.1098 13.5738C24.2734 13.2667 24.2189 12.8368 24.0552 12.5297C23.8916 12.284 23.6188 12.1611 23.237 12.1611Z" fill="#1E1E1E"/>
<path d="M30.7099 34.334C34.0917 34.334 37.4735 34.4568 40.8553 34.7639C41.1826 34.8253 41.4008 34.7025 41.5644 34.4568C41.7281 34.2111 41.7281 33.7812 41.619 33.4126C41.5099 33.2284 41.2917 32.8599 40.8008 32.7984C35.019 32.2457 29.1826 32.1842 23.4008 32.6142C22.9099 32.6756 22.6917 32.9213 22.5826 33.167C22.419 33.4741 22.419 33.904 22.5826 34.2111C22.7462 34.4568 22.9644 34.5796 23.2917 34.5796C25.7462 34.4568 28.2008 34.334 30.7099 34.334Z" fill="#1E1E1E"/>
<path d="M46.964 28.0078C42.9822 27.7007 38.8913 27.3322 34.8549 27.2707C30.9822 27.1479 27.164 27.3322 22.964 27.5164C22.3095 27.5778 22.0367 28.1306 22.0367 28.622C22.0367 29.0519 22.2549 29.4819 22.9095 29.4819C26.4004 29.2976 30.7095 29.1133 34.8549 29.2362C38.8913 29.359 43.0367 29.6661 47.0186 30.0346C47.7822 30.0961 47.8367 29.4819 47.8913 29.2362C47.8913 28.7448 47.6731 28.0692 46.964 28.0078Z" fill="#1E1E1E"/>
<path d="M45.6008 41.5203C46.3644 41.6431 46.7463 41.0289 46.8008 40.599C46.8553 40.3533 46.8553 39.8005 46.2008 39.6777C42.4917 38.9406 38.619 38.8178 34.9644 38.8178C31.2553 38.8178 27.4372 38.7564 23.6735 38.6335C23.019 38.6335 22.8008 39.0635 22.8008 39.4934C22.8008 39.862 22.9644 40.5376 23.7281 40.5376C27.4917 40.6604 31.0372 40.7218 34.5281 40.7218C38.5099 40.7833 42.0553 40.8447 45.6008 41.5203Z" fill="#1E1E1E"/>
<path d="M33.3279 44.2841C30.0552 43.6699 26.837 43.5471 23.7825 43.8542C23.2916 43.9156 22.7461 44.2227 22.8007 44.7755C22.8007 45.0212 22.9643 45.3283 23.1279 45.574C23.237 45.6968 23.4552 45.8197 23.6734 45.7582C24.8189 45.6354 25.9643 45.574 27.0552 45.574C28.9643 45.574 30.8734 45.7582 32.6734 46.0653C33.1643 46.1268 33.7643 45.9425 33.8734 45.4511C33.9279 45.2055 33.8734 44.8369 33.7098 44.5912C33.6552 44.4684 33.4916 44.3456 33.3279 44.2841Z" fill="#1E1E1E"/>
<path d="M41.7275 57.3053C42.873 57.6738 44.0185 57.4281 44.7275 57.0596C45.5457 56.6911 46.473 56.2611 47.073 55.4627C47.3457 55.0941 47.5639 54.6642 47.7821 54.1114C47.9457 53.6815 48.0003 53.1287 48.0548 52.5759C48.0548 52.5145 48.0548 52.3916 48.0548 52.3302C48.1094 51.2861 47.8366 50.3033 47.3457 49.5049C45.9275 47.4166 43.5821 46.9866 41.2366 46.741C41.0184 46.741 40.8003 46.8024 40.6366 46.9866C40.473 47.1095 40.4185 47.2938 40.3639 47.478C40.3639 47.5394 40.3639 47.6009 40.3639 47.6009V47.6623V47.7237C40.3639 47.7851 40.3639 47.8465 40.4184 47.8465L40.5275 48.3379L40.0912 48.5222C39.3821 48.8293 38.8912 49.2592 38.5639 49.9348C38.1275 50.7947 38.0184 51.9003 38.2366 53.0673C38.5094 55.0941 39.9275 56.7525 41.7275 57.3053ZM39.9821 51.6546C39.9821 51.5318 40.0366 51.4703 40.0366 51.4089C40.0366 51.4089 40.0366 51.3475 40.0912 51.3475C40.0912 51.2861 40.1457 51.2861 40.1457 51.2247V51.1018L40.2003 50.979V50.9176L40.4184 50.7333L40.473 50.6719L40.6366 50.549L41.7821 49.812C41.8366 49.7506 41.8366 49.6277 41.8366 49.5049V48.7678L42.8185 48.9521C42.9275 48.9521 42.9821 49.0135 43.0366 49.0135C43.5275 49.0135 43.9639 49.1364 44.4003 49.3206C44.8912 49.5049 45.4366 49.7506 45.873 50.1805C46.4184 50.7947 46.5275 51.9003 46.2548 52.7602C46.2548 52.7602 46.2548 52.7602 46.2548 52.8216C46.2548 52.8216 46.2548 52.8216 46.2548 52.883C46.2548 52.9444 46.2003 53.0058 46.2003 53.0673C46.1457 53.2515 46.1457 53.4358 46.0912 53.6815C46.0912 53.7429 46.0366 53.8043 46.0366 53.9272L45.9821 54.1114C45.9821 54.1114 45.9821 54.1728 45.9275 54.1728V54.2957L45.7094 54.4799C45.6548 54.5414 45.6003 54.6028 45.4912 54.6642H45.273L45.1094 54.7256C45.0548 54.787 45.0003 54.787 44.8912 54.8485C44.7821 54.9099 44.6185 55.0327 44.4548 55.0941L44.1821 55.217C44.1821 55.217 44.1275 55.217 44.073 55.2784C43.8548 55.3398 43.6912 55.4012 43.5275 55.4627C43.473 55.4627 43.4185 55.4627 43.3639 55.5241C43.3094 55.5241 43.3094 55.5241 43.2548 55.5241L43.2003 55.5855H43.0366C42.873 55.5855 42.7639 55.5855 42.6548 55.5855C42.6548 55.5855 42.5457 55.5855 42.4912 55.5855H42.3821C42.3275 55.5855 42.3275 55.5855 42.273 55.5855C42.1639 55.5855 42.1094 55.5241 42.0003 55.5241H41.9457L42.0003 55.4012C41.8912 55.3398 41.8366 55.2784 41.7275 55.2784C41.673 55.2784 41.5639 55.217 41.5094 55.1556L41.4548 55.0941H41.4003L41.2366 54.9099C41.1821 54.8485 41.1275 54.787 41.073 54.787C40.9094 54.6028 40.8003 54.4799 40.6912 54.3571L40.5821 54.2343C40.5821 54.1728 40.5275 54.1728 40.5275 54.1728C40.4185 54.05 40.3639 53.8657 40.2548 53.6815L40.0912 53.3129C40.0366 53.0673 39.9821 52.883 39.9275 52.6987C39.9275 52.6373 39.9275 52.5759 39.9275 52.5759V52.5145C39.9275 52.3916 39.9275 52.2688 39.9275 52.2688C39.9275 52.2074 39.9275 52.0845 39.9275 52.0231L39.9821 51.6546Z" fill="#1E1E1E"/>
<path d="M54.0549 21.3129C54.0003 21.2515 53.9458 21.2515 53.8912 21.1901C53.7276 21.0058 53.5094 20.883 53.1822 20.883C41.1822 20.3916 29.0731 20.8216 17.1276 22.2957C16.4185 22.3571 16.2549 22.9713 16.2003 23.1556C16.2003 23.2784 16.0912 23.4012 16.0367 23.4627C15.8185 23.7083 15.7094 23.954 15.764 24.3225C16.964 30.3417 16.9094 36.3609 16.6912 42.0116C16.5822 44.5913 16.4731 47.1709 16.364 49.6891L15.8731 60.0078C15.8731 60.2534 15.9276 60.4377 16.0367 60.5605C16.2003 60.7448 16.5276 60.8676 16.9094 60.8062C16.964 60.8062 17.0185 60.8062 17.0731 60.8062C17.1276 60.7448 17.1822 60.7448 17.2367 60.6834C17.4549 60.5605 17.7276 60.3763 17.7276 59.9463C17.8367 57.858 17.9458 55.7698 18.0549 53.62L18.2185 50.3033C18.2185 50.2419 18.2185 50.2419 18.2185 50.1805C18.3276 47.5394 18.4912 44.4684 18.6003 41.4588C18.8185 34.5797 18.6003 29.4204 17.7276 24.6296C17.6731 24.4454 17.7276 24.3225 17.8367 24.1383C17.9458 24.0154 18.0549 23.8926 18.2185 23.8926C29.4003 22.6028 40.7458 22.1728 51.9822 22.6028C52.1458 22.6028 52.2549 22.6642 52.364 22.787C52.4731 22.9099 52.5276 23.0327 52.4731 23.217C51.8185 35.7467 51.4367 48.4607 51.3276 61.0519C51.3276 61.359 51.1094 61.6047 50.8367 61.6047H34.4731H34.3094H32.6185C30.4912 61.6047 28.3094 61.6047 26.1822 61.6661C25.4185 61.7275 24.6549 61.789 23.8367 61.9118C21.8185 62.1575 19.7458 62.4032 17.8367 61.7275C17.7276 61.6661 17.564 61.6661 17.4549 61.6661C17.4003 61.6661 17.3458 61.6661 17.2912 61.6661C17.2367 61.7275 17.2367 61.7275 17.1822 61.789C16.9094 61.9732 16.6912 62.3417 16.7458 62.7103C16.7458 62.9559 16.8549 63.3245 17.4003 63.5087C19.3094 64.1843 21.2185 63.9387 23.2912 63.7544C23.9458 63.693 24.6003 63.6316 25.2003 63.5701C27.4912 63.3859 29.8367 63.4473 32.1276 63.4473C32.7822 63.4473 33.4367 63.4473 34.0367 63.4473H34.364H51.3822C51.4912 63.4473 51.5458 63.4473 51.6549 63.5087C51.9822 63.7544 52.5276 63.7544 52.8549 63.5087C53.0731 63.3859 53.1822 63.1402 53.1822 62.8331C53.2912 49.2592 53.7276 35.501 54.4367 21.9886C54.4367 21.6815 54.3276 21.4358 54.0549 21.3129Z" fill="#1E1E1E"/>
<path d="M4.36426 30.1573C4.20062 30.0959 4.03699 29.9731 3.87335 29.9731C4.03699 29.666 4.20062 29.3589 4.30971 29.0518C4.58244 28.069 4.30971 27.0863 3.54608 26.4721C3.27335 26.2879 3.00062 26.165 2.72789 26.0422C2.83699 25.7965 3.00062 25.5508 3.05517 25.428C3.38244 24.998 3.76426 24.6295 4.14608 24.261C4.52789 23.9539 4.63699 23.1554 4.36426 22.7255C3.92789 22.1113 3.43699 21.6199 2.83699 21.2514C3.16426 20.76 3.43699 20.2687 3.76426 19.7773C4.25517 19.0403 4.90971 18.1804 5.18244 17.3205C5.6188 15.8464 4.69153 15.2322 3.60062 14.9251C4.03699 14.4337 4.47335 13.9424 4.96426 13.5124C5.50971 12.9596 5.29153 11.9769 4.74608 11.6084C4.25517 11.2399 3.76426 10.9328 3.27335 10.5642C3.10971 10.4414 2.83699 10.3186 2.6188 10.1957C2.72789 10.0729 2.83699 9.95004 2.94608 9.88862C3.2188 9.58152 3.54608 9.27442 3.87335 8.96732C4.96426 7.92317 3.38244 6.2034 2.34608 7.24755C1.47335 8.04601 -0.21756 9.45868 0.218803 10.9328C0.436985 11.6698 1.09153 11.9769 1.63699 12.3454C1.90971 12.5297 2.18244 12.714 2.45517 12.8982C1.85517 13.5738 1.30971 14.2495 0.764258 14.9251C0.327894 15.5393 0.38244 16.8291 1.25517 16.952C1.63699 17.0748 2.12789 17.1362 2.56426 17.1976C2.6188 17.1976 2.67335 17.1976 2.72789 17.1976C2.40062 17.689 2.07335 18.1804 1.80062 18.6717C1.25517 19.5316 0.709713 20.3915 0.164258 21.3128C-0.326651 22.1727 0.38244 23.094 1.09153 23.1554C1.30971 23.1554 1.52789 23.2783 1.74608 23.3397C0.600622 24.6295 -0.544833 26.595 0.98244 27.7619C1.25517 27.9462 1.52789 28.069 1.80062 28.1919C1.90971 28.2533 2.0188 28.3147 2.12789 28.3147C1.96426 28.499 1.80062 28.8061 1.63699 28.9904C1.25517 29.4203 0.98244 29.9117 0.818803 30.5259C0.655167 31.0786 0.927894 31.6314 1.30971 31.9385C1.58244 32.1842 1.96426 32.2456 2.29153 32.307C2.12789 32.4913 2.0188 32.6756 1.85517 32.9213C1.4188 33.5969 1.14608 34.3339 0.927894 35.071C0.764258 35.7466 1.14608 36.3608 1.69153 36.6065C2.0188 36.7293 2.34608 36.975 2.6188 37.2207C3.65517 38.2648 5.23699 36.5451 4.14608 35.5009C3.87335 35.2552 3.65517 35.071 3.38244 34.8253C3.54608 34.4568 3.70971 34.1497 3.98244 33.8426C4.47335 33.2284 5.12789 32.8598 5.23699 32.0614C5.40062 31.2629 4.96426 30.5259 4.36426 30.1573Z" fill="#59C59F"/>
</svg>
