<svg width="280" height="17" viewBox="0 0 280 17" fill="none" xmlns="http://www.w3.org/2000/svg">
<path d="M139.004 8.59834C140.8 5.33974 143.653 3.89341 146.48 4.31788C148.284 4.55453 149.885 5.47041 151.384 6.72591C151.822 7.0734 152.252 7.48873 152.684 7.9071C153.614 8.80678 154.558 9.72054 155.641 10.0042C156.877 10.4567 157.789 9.21158 158.695 7.97662C158.954 7.62245 159.213 7.26911 159.479 6.95689C160.56 5.56207 161.992 4.64942 163.465 5.07101C164.574 5.36164 165.431 6.40135 166.282 7.43383C166.648 7.87757 167.013 8.31998 167.396 8.70102C167.456 8.75853 167.518 8.81777 167.581 8.87838C168.733 9.98422 170.362 11.5479 171.637 11.4789C172.357 11.3203 173.177 10.641 173.867 10.0692C174.139 9.84345 174.391 9.63443 174.609 9.4808L176.918 7.85257C176.989 7.79929 177.059 7.74603 177.129 7.69295C178.476 6.6704 179.739 5.71203 181.241 5.94851C182.827 6.36405 184.213 7.62561 185.6 8.88717C185.947 9.2026 186.265 9.51954 186.584 9.83649C186.903 10.1534 187.221 10.4702 187.568 10.7856C187.686 10.9009 187.785 11.0031 187.869 11.0909C188.366 11.6052 188.382 11.6222 189.031 10.8736C189.417 10.4579 189.795 10.0235 190.173 9.59015C192.032 7.45726 193.867 5.35117 196.397 5.63109C198.255 5.84844 199.786 7.15767 201.327 8.47647C202.217 9.238 203.111 10.0027 204.074 10.5622C204.875 11.0202 205.323 10.9959 205.976 10.2925C206.516 9.59528 207.168 8.89204 207.82 8.18879C208.114 7.84383 208.414 7.45738 208.72 7.06315C209.656 5.85643 210.654 4.57058 211.741 4.13409C213.037 3.64623 214.146 4.67813 215.214 5.67274C215.427 5.87108 215.639 6.06793 215.85 6.25096C216.202 6.57145 216.547 6.88158 216.886 7.1867C217.882 8.08261 218.83 8.93539 219.78 9.88096C220.537 8.92127 221.266 7.96308 221.995 7.0049C222.724 6.04671 223.453 5.08853 224.21 4.12883C226.269 1.67881 228.207 2.57651 230.174 4.47491C230.901 5.06784 231.585 5.72952 232.252 6.37476C232.643 6.75256 233.028 7.12472 233.412 7.47414C233.684 7.75325 233.956 8.06101 234.232 8.37209C234.897 9.12229 235.579 9.89171 236.307 10.3248L236.414 10.1519C236.516 9.8123 236.623 9.63946 236.73 9.46662L238 6.89222C238.369 6.12051 238.74 5.3905 239.111 4.66048C239.482 3.93046 239.852 3.20043 240.222 2.4287C240.65 1.73735 241.649 1.34927 242.231 1.98611C243.969 3.72984 245.707 5.47356 247.548 6.87767L249.964 8.75184C250.117 8.85495 250.282 8.93885 250.447 9.02276C250.776 9.19057 251.106 9.35838 251.341 9.67983C251.669 9.66209 251.823 9.83286 251.753 10.0636L251.906 9.81633C252.374 9.17856 252.801 8.45017 253.228 7.72177C254.082 6.26492 254.936 4.80805 256.112 4.07631C257.87 2.81192 259.262 4.24026 260.552 6.00822C261.091 6.64181 261.584 7.35097 262.093 8.08397C262.354 8.4596 262.619 8.84149 262.897 9.22269C263.01 9.37787 263.147 9.53179 263.288 9.69103C263.585 10.0266 263.904 10.3857 264.07 10.8299C264.126 10.8269 264.155 10.8671 264.184 10.9072C264.214 10.9474 264.243 10.9876 264.299 10.9846C265.466 8.74981 267.312 6.64545 268.836 5.05962C270.686 3.12205 271.838 4.06216 273.47 5.97873C274.288 7.0204 275.133 8.01886 275.978 9.01733C276.823 10.0158 277.668 11.0143 278.486 12.0559C280.123 14.1393 277.875 17.7689 275.902 15.7037C275.084 14.6621 274.239 13.6637 273.394 12.6653C272.549 11.6668 271.704 10.6682 270.885 9.62651L270.534 9.14434L269.555 10.1995C268.688 11.2487 267.934 12.2918 267.179 13.3349C266.981 13.5971 266.786 13.8778 266.59 14.1593C265.617 15.5605 264.631 16.9801 263.112 16.2275C262.44 15.8435 261.834 14.9861 261.31 14.2454C261.209 14.1028 261.111 13.9645 261.016 13.8348C260.477 13.2012 259.984 12.4919 259.475 11.7589C259.214 11.3833 258.949 11.0015 258.671 10.6203C258.558 10.4651 258.432 10.276 258.302 10.0803C258.027 9.66812 257.734 9.22697 257.499 9.01311C257.169 8.74399 257.172 8.51167 257.112 8.49424C257.067 8.48123 256.987 8.58801 256.708 8.88873C256.159 9.39824 255.679 10.2487 255.213 11.0717C255.031 11.3947 254.851 11.7135 254.67 12.0059C254.625 12.0717 254.581 12.1374 254.537 12.2027C253.305 14.0292 252.242 15.6048 250.367 14.5771C247.166 12.7453 244.168 10.2343 241.272 7.38367C241.061 7.81274 240.823 8.28502 240.584 8.7573C240.346 9.22957 240.108 9.70185 239.896 10.1309C239.735 10.4807 239.574 10.8522 239.41 11.2318C238.931 12.3395 238.422 13.516 237.781 14.4216C236.213 16.634 234.431 14.8482 232.901 13.3159C232.749 13.164 232.6 13.0145 232.454 12.8717C231.934 12.3987 231.442 11.9242 230.95 11.4496C230.458 10.975 229.966 10.5003 229.446 10.0271C229.268 9.86565 229.029 9.59801 228.755 9.29279C227.961 8.4058 226.882 7.20134 226.219 7.36147C225.93 7.48584 225.559 8.0395 225.246 8.50782C225.077 8.75882 224.926 8.9853 224.812 9.10803C224.598 9.45371 224.354 9.75921 224.111 10.0647C223.868 10.3702 223.624 10.6757 223.41 11.0214C222.923 11.6324 222.465 12.2418 222.006 12.8513C221.547 13.4608 221.088 14.0703 220.601 14.6813C219.959 15.7183 219.057 15.6 218.476 14.9631C218.471 14.7964 218.358 14.8024 218.358 14.8024C217.548 14.011 216.709 13.2211 215.871 12.4312C215.032 11.6412 214.193 10.8511 213.383 10.0595C213.3 10.0035 213.14 9.84213 212.959 9.65964C212.64 9.3381 212.256 8.9509 212.113 8.95863C212.113 8.95863 211.904 9.47108 211.792 9.47714C211.268 9.73131 210.658 10.5246 210.117 11.2292C209.857 11.5669 209.613 11.8842 209.402 12.1121C209.192 12.3577 208.98 12.6187 208.765 12.8846C207.748 14.1358 206.646 15.4936 205.359 15.8386C203.912 16.251 202.423 15.329 201.154 14.2282C200.712 13.8954 200.252 13.4875 199.779 13.0676C198.036 11.5203 196.11 9.80986 194.205 11.0953C193.461 11.6112 192.73 12.5499 191.98 13.5135C190.622 15.257 189.2 17.0823 187.522 16.635C186.443 16.4477 185.458 15.3527 184.551 14.3461C184.225 13.9832 183.909 13.6318 183.602 13.3386C183.384 13.1605 183.157 12.953 182.922 12.7386C181.917 11.821 180.776 10.7778 179.61 11.3824C178.664 11.9109 177.724 12.6571 176.784 13.4034C176.079 13.9631 175.374 14.5228 174.666 14.9906C174.599 15.0366 174.532 15.0825 174.466 15.1283C173.222 15.9855 172.063 16.7849 170.669 16.543C169.313 16.2821 167.819 15.1934 166.55 14.0925C166.069 13.6328 165.605 13.057 165.143 12.4854C164.494 11.6807 163.851 10.8844 163.18 10.4322C162.264 9.68465 161.135 11.2726 160.276 12.4819C160.054 12.7934 159.851 13.0797 159.673 13.2946C158.582 14.3558 157.374 15.2564 156.023 15.1623C154.049 15.156 152.44 13.6799 150.825 12.1984C150.051 11.488 149.276 10.7765 148.458 10.2251C145.934 8.52375 142.682 8.69942 141.229 12.6202C141.068 13.0725 140.858 13.397 140.624 13.6115C140.042 14.6327 138.922 15.1322 137.879 14.0406C137.061 12.999 136.216 12.0006 135.371 11.0022C134.526 10.0037 133.681 9.00516 132.863 7.96343L132.511 7.48125L131.532 8.53646C130.666 9.5856 129.911 10.6287 129.157 11.6718C128.958 11.934 128.763 12.2148 128.568 12.4962C127.595 13.8974 126.609 15.317 125.089 14.5644C124.418 14.1804 123.811 13.3229 123.287 12.5822C123.186 12.4397 123.088 12.3014 122.994 12.1717C122.454 11.5381 121.962 10.8289 121.453 10.0958C121.192 9.72022 120.927 9.33839 120.649 8.95726C120.535 8.80205 120.409 8.6129 120.279 8.41723C120.005 8.00504 119.711 7.56389 119.476 7.35002C119.146 7.0809 119.149 6.84858 119.089 6.83115C119.044 6.81814 118.965 6.92493 118.686 7.22564C118.137 7.73512 117.656 8.58545 117.191 9.40838C117.008 9.7315 116.828 10.0504 116.647 10.3428C116.602 10.4086 116.558 10.4743 116.514 10.5396C115.282 12.3661 114.22 13.9417 112.345 12.914C109.143 11.0822 106.145 8.57121 103.25 5.72059C103.038 6.14965 102.8 6.62193 102.562 7.09421C102.323 7.56649 102.085 8.03876 101.874 8.46783C101.712 8.81761 101.552 9.18912 101.388 9.56869C100.909 10.6764 100.4 11.8529 99.7583 12.7585C98.1908 14.971 96.4079 13.1851 94.8782 11.6528C94.7265 11.5009 94.5773 11.3514 94.431 11.2086C93.911 10.7355 93.4191 10.2609 92.9271 9.78634C92.4352 9.31174 91.9432 8.83714 91.4232 8.36405C91.2457 8.20256 91.006 7.93491 90.7327 7.62967C89.9384 6.74269 88.8599 5.53825 88.1962 5.69839C87.9075 5.82275 87.5366 6.37641 87.223 6.84473C87.0549 7.09573 86.9032 7.32221 86.7893 7.44494C86.5752 7.79061 86.3318 8.0961 86.0884 8.40159C85.845 8.70709 85.6016 9.0126 85.3875 9.35828C84.9008 9.96922 84.442 10.5787 83.9833 11.1881C83.5245 11.7976 83.0657 12.4071 82.5788 13.0182C81.9366 14.0552 81.0343 13.9369 80.4531 13.3001C80.448 13.1333 80.3359 13.1393 80.3359 13.1393C79.5253 12.3478 78.6867 11.5578 77.848 10.7679C77.0094 9.97786 76.1708 9.18787 75.3602 8.39637C75.2772 8.34038 75.1173 8.17905 74.9364 7.99658C74.6177 7.67503 74.2339 7.28781 74.0908 7.29554C74.0908 7.29554 73.8818 7.808 73.7697 7.81406C73.2459 8.06822 72.6359 8.86148 72.094 9.56613C71.8344 9.9038 71.5903 10.2211 71.379 10.449C71.1699 10.6946 70.9579 10.9557 70.7419 11.2216C69.7258 12.4728 68.6232 13.8305 67.3367 14.1756C65.8889 14.5879 64.4003 13.6659 63.1309 12.5651C62.6891 12.2324 62.2296 11.8245 61.7566 11.4045C60.0137 9.85724 58.087 8.14677 56.1825 9.43221C55.4385 9.94814 54.7075 10.8868 53.9569 11.8504C52.5991 13.5939 51.1774 15.4193 49.4997 14.9719C48.4205 14.7846 47.4349 13.6896 46.5288 12.683C46.2022 12.3201 45.8859 11.9687 45.5794 11.6755C45.3611 11.4974 45.1339 11.2899 44.8992 11.0755C43.8948 10.1579 42.753 9.11474 41.5877 9.71934C40.641 10.2478 39.701 10.9941 38.761 11.7403C38.0559 12.3 37.3509 12.8597 36.6431 13.3275C36.5762 13.3735 36.5095 13.4194 36.4431 13.4652C35.1997 14.3225 34.0403 15.1218 32.6465 14.8799C31.2905 14.619 29.7968 13.5303 28.5274 12.4294C28.0468 11.9697 27.582 11.3939 27.1206 10.8223C26.4711 10.0176 25.8283 9.22131 25.1576 8.76914C24.2414 8.02157 23.1127 9.60947 22.253 10.8188C22.0316 11.1303 21.828 11.4166 21.6505 11.6315C20.5597 12.6927 19.3515 13.5933 18.0006 13.4992C16.0263 13.4929 14.4175 12.0168 12.8029 10.5353C12.0287 9.82496 11.2531 9.11338 10.4353 8.56199C7.91183 6.86067 4.65948 7.03633 3.20683 10.9571C2.17215 13.853 -0.82036 11.5087 0.214335 8.61288C1.87595 4.17966 5.18429 2.16334 8.45707 2.6548C10.2617 2.89144 11.8624 3.80732 13.3612 5.06282C13.7998 5.41033 14.2291 5.82567 14.6615 6.24405C15.5914 7.14372 16.5359 8.05746 17.618 8.34109C18.8541 8.79363 19.7668 7.54851 20.672 6.31355C20.9316 5.95937 21.1906 5.60603 21.4565 5.29381C22.5371 3.89898 23.9695 2.98633 25.4428 3.40793C26.5516 3.69855 27.4087 4.73825 28.2598 5.77073C28.6256 6.21447 28.9903 6.65689 29.3734 7.03793C29.4335 7.09544 29.4952 7.15467 29.5583 7.21527C30.7102 8.32111 32.339 9.88478 33.6148 9.81586C34.3348 9.6572 35.1544 8.97792 35.8443 8.40609C36.1167 8.18034 36.3688 7.97134 36.5867 7.81772L38.8959 6.18948C38.9663 6.13623 39.0365 6.08299 39.1064 6.02992C40.4536 5.00735 41.7164 4.04894 43.2187 4.28543C44.8041 4.70097 46.1908 5.96252 47.5774 7.22408C47.9241 7.53949 48.2428 7.85641 48.5614 8.17334C48.88 8.49022 49.1986 8.80711 49.5453 9.12248C49.6634 9.23782 49.762 9.34003 49.8467 9.42776C50.343 9.94207 50.3595 9.95911 51.0083 9.21051C51.3939 8.79477 51.7726 8.36036 52.1502 7.92705C54.0092 5.79417 55.8448 3.68809 58.3743 3.96801C60.2325 4.18535 61.763 5.49458 63.3046 6.81338C64.1949 7.57491 65.0888 8.33963 66.0518 8.89915C66.8521 9.35709 67.3007 9.33286 67.9532 8.62939C68.4935 7.93197 69.146 7.22851 69.7985 6.52504C70.0922 6.18008 70.3915 5.79432 70.6973 5.4001C71.6335 4.19337 72.631 2.9075 73.7184 2.47101C75.0147 1.98314 76.1233 3.01507 77.1918 4.00968C77.4048 4.20801 77.6163 4.40485 77.8273 4.58787C78.1796 4.90837 78.5243 5.21849 78.8635 5.52362C79.8593 6.41953 80.8072 7.2723 81.7579 8.21788C82.5148 7.25817 83.2438 6.29997 83.9727 5.34177C84.7016 4.3836 85.4305 3.42543 86.1875 2.46574C88.2469 0.0157192 90.1841 0.913428 92.1519 2.81182C92.8785 3.40473 93.5626 4.06639 94.2296 4.7116C94.6202 5.08943 95.005 5.46161 95.3891 5.81105C95.661 6.09015 95.9339 6.3979 96.2096 6.70897C96.8747 7.45918 97.5568 8.22862 98.2848 8.66167L98.3918 8.48883C98.4938 8.14921 98.6008 7.97637 98.7079 7.80353L99.9771 5.22913C100.347 4.45741 100.717 3.7274 101.088 2.99738C101.459 2.26735 101.83 1.53733 102.199 0.765617C102.628 0.0742648 103.627 -0.313816 104.208 0.323021C105.946 2.06675 107.685 3.81048 109.525 5.21459L111.942 7.08875C112.095 7.19186 112.259 7.27577 112.424 7.35968C112.754 7.52749 113.083 7.6953 113.318 8.01674C113.646 7.999 113.8 8.16977 113.731 8.40055L113.884 8.15324C114.351 7.51548 114.778 6.78708 115.205 6.05868C116.059 4.60183 116.913 3.14497 118.089 2.41322C119.848 1.14884 121.24 2.57717 122.529 4.34513C123.069 4.97882 123.561 5.68807 124.071 6.42118C124.331 6.79671 124.597 7.1785 124.875 7.5596C124.988 7.71478 125.124 7.86871 125.265 8.02795C125.563 8.36349 125.881 8.72263 126.047 9.16684C126.103 9.16381 126.133 9.20399 126.162 9.24416C126.191 9.28435 126.22 9.32454 126.277 9.3215C127.444 7.08672 129.289 4.98237 130.813 3.39654C132.664 1.45896 133.816 2.39908 135.447 4.31564C136.265 5.35732 137.11 6.35579 137.955 7.35427C138.305 7.76793 138.656 8.1816 139.004 8.59834Z" fill="#F7C60F"/>
</svg>
