<svg width="167" height="133" viewBox="0 0 167 133" fill="none" xmlns="http://www.w3.org/2000/svg">
<g clip-path="url(#clip0)">
<path d="M110.608 17.5818C109.647 19.9933 108.492 22.3202 107.107 24.5413C106.422 25.6413 103.33 31.2682 101.885 28.4054C101.021 26.699 98.5038 26.6849 97.2078 27.8343C94.3848 30.3304 92.4333 33.3624 90.9287 36.7118C90.5786 37.4874 90.2732 38.2842 89.9381 39.0598C89.804 39.3912 89.6625 39.7226 89.5284 40.0541C89.4018 39.8919 89.29 39.7579 89.2453 39.7085C88.7984 39.2361 88.3962 38.8553 87.8525 38.4675C87.0704 37.9034 85.6328 37.9669 84.8433 38.4675C82.1022 40.2162 80.4636 43.9111 79.1452 46.6681C77.5736 49.9469 82.7056 52.8168 84.2921 49.5168C84.739 48.586 85.4913 46.6752 86.3553 45.1803C86.8171 45.7937 87.3609 46.372 88.1802 46.6681C90.1987 47.3944 91.964 46.4354 93.2899 44.9758C94.869 43.2412 95.4499 40.9496 96.3884 38.8906C97.1929 37.1137 98.1463 35.4707 99.3529 33.9829C101.863 35.499 105.304 35.6752 107.576 33.6092C111.71 29.858 114.369 24.0407 116.35 19.0766C117.706 15.6779 111.948 14.2113 110.608 17.5818Z" fill="#F7C300"/>
<path d="M93.1479 58.2884L78.7724 58.3589C74.9364 58.3801 74.9289 64.021 78.7724 63.9999L93.1479 63.9294C96.9765 63.9082 96.9914 58.2672 93.1479 58.2884Z" fill="#F7C300"/>
<path d="M90.1686 0.151049C84.3587 0.623481 78.616 -0.405998 72.8136 0.193356C72.4114 0.186305 72.0017 0.235664 71.6218 0.355534C70.2438 0.637584 69.6629 1.61065 69.6927 2.66129C69.6852 2.7459 69.6629 2.82347 69.6629 2.90808C69.4841 8.85227 69.4096 14.8106 69.0074 20.7477C68.7616 24.372 74.7204 24.3579 74.9662 20.7477C75.3088 15.692 75.4206 10.6151 75.5472 5.55229C80.4036 5.2914 85.2972 6.19395 90.1686 5.79908C93.9598 5.48178 93.9971 -0.159205 90.1686 0.151049Z" fill="#F7C300"/>
<path d="M121.96 60.1359C121.431 57.8866 121.289 55.6091 121.483 53.3174C121.639 51.5052 118.66 51.5193 118.504 53.3174C118.332 55.3341 118.436 57.3437 118.779 59.3321C117.855 59.3533 116.902 59.2334 116.023 59.1981C114.496 59.1417 112.969 59.0924 111.442 59.0501C108.388 58.9725 105.327 58.9443 102.273 58.9654C96.0985 59.0007 89.9312 59.2122 83.7712 59.6142C80.4045 59.8327 77.0453 60.1077 73.6934 60.4391C74.1925 47.211 74.401 33.9759 74.3117 20.7407C74.2819 16.9472 74.2297 13.1465 74.1552 9.35298C74.118 7.54081 71.1386 7.53376 71.1758 9.35298C71.4365 22.6093 71.4067 35.8656 71.0716 49.1149C70.9822 52.9084 70.8556 56.702 70.714 60.4956C70.6842 61.2923 71.2354 61.7366 71.876 61.8353C71.876 61.8494 71.8686 61.8635 71.8686 61.8776C71.8686 62.5757 72.5538 63.3654 73.3583 63.2878C85.76 62.068 98.2437 61.5814 110.705 61.8564C112.418 61.8917 114.124 61.9481 115.837 62.0116C117.513 62.075 119.278 62.3218 120.917 61.8776C121.721 61.652 122.138 60.8904 121.96 60.1359Z" fill="#1E1E1E"/>
<path d="M121.698 10.7138C121.728 7.35038 121.393 3.17605 117.557 2.87285C112.649 2.48503 107.68 2.44978 102.764 2.23824L87.9122 1.60363C82.5939 1.36389 77.164 0.947861 71.95 2.25939C70.0954 2.71772 70.8849 5.4395 72.7396 4.97412C76.9703 3.91643 81.3575 4.13502 85.6851 4.31835C90.2659 4.51579 94.8467 4.71322 99.4201 4.91066C103.934 5.10104 108.455 5.29847 112.969 5.48886C114.086 5.53821 115.196 5.58757 116.313 5.62988C116.79 5.65103 117.565 5.4818 117.952 5.80616C118.399 6.17988 118.481 7.49141 118.548 8.02025C118.615 8.5914 118.622 9.1696 118.637 9.7478C118.689 12.9914 118.838 16.249 118.667 19.4926C118.503 22.574 118.242 25.6483 118.101 28.7297C117.818 34.9277 117.825 41.1399 118.093 47.3379C118.175 49.143 121.155 49.1571 121.073 47.3379C120.805 41.1399 120.797 34.9277 121.08 28.7297C121.311 23.5823 121.698 18.4349 121.661 13.2734C121.654 12.5612 121.691 11.6657 121.698 10.7138Z" fill="#1E1E1E"/>
<path d="M115.328 14.2747C114.695 13.9221 113.615 14.0772 113.287 14.7824C111.767 18.0753 110.136 21.3259 108.386 24.5131C107.529 26.0855 106.643 27.6438 105.727 29.188C105.302 29.9072 104.885 30.6406 104.423 31.3457C104.192 31.6983 103.917 32.1213 103.544 32.3611C103.083 31.938 102.516 30.8874 102.293 30.5489C101.757 29.731 101.287 28.8778 100.863 28.0034C100.401 27.0444 98.7773 27.122 98.2931 28.0034C96.8481 30.6124 95.4031 33.2143 93.9581 35.8232C92.7738 37.9597 91.6789 40.1879 90.4201 42.2963C89.5486 41.4783 88.7963 40.5193 87.9248 39.7367C87.3141 39.1867 86.4426 38.9328 85.6679 39.37C84.9603 39.7649 84.6103 40.5758 84.2229 41.2174C82.3832 44.2353 80.5508 47.2533 78.7111 50.2641C77.7502 51.8366 80.3274 53.2609 81.2808 51.6885C82.3385 49.9609 83.3887 48.2263 84.4464 46.4988C84.9603 45.6597 85.4743 44.8206 85.9808 43.9745C86.2191 43.5796 86.4649 43.1847 86.7033 42.7898C86.7182 42.7616 86.7331 42.7264 86.7554 42.6982C87.0906 43.0366 87.4258 43.368 87.7684 43.6924C88.4239 44.32 89.2656 45.3988 90.1966 45.6385C91.5001 45.977 92.1779 45.1168 92.7142 44.1507C93.2505 43.1777 93.7942 42.2116 94.3305 41.2386C96.0884 38.0726 97.8462 34.8995 99.6041 31.7335C99.8201 32.072 100.021 32.4175 100.26 32.7418C100.937 33.6938 101.697 34.97 102.948 35.2591C105.593 35.8655 107.224 32.4668 108.229 30.7604C111.03 26.0361 113.577 21.1778 115.872 16.2138C116.192 15.5016 116.08 14.6907 115.328 14.2747Z" fill="#1E1E1E"/>
<path d="M112.343 42.973C107.971 42.8955 103.591 42.9801 99.226 43.2339C98.4216 43.2833 97.7363 43.8474 97.7363 44.6442C97.7363 45.3705 98.4216 46.1038 99.226 46.0544C103.591 45.8006 107.971 45.716 112.343 45.7935C114.264 45.8288 114.264 43.0083 112.343 42.973Z" fill="#1E1E1E"/>
<path d="M112.349 50.0315C104.707 49.6789 97.0572 49.5943 89.4151 49.7847C87.5008 49.8341 87.4933 52.6545 89.4151 52.6052C97.0647 52.4148 104.714 52.4994 112.349 52.852C114.263 52.9436 114.263 50.1232 112.349 50.0315Z" fill="#1E1E1E"/>
<path d="M103.216 12.0605C95.7158 11.9759 88.2301 11.6022 80.7592 10.9535C79.9548 10.883 79.2695 11.6516 79.2695 12.3637C79.2695 13.1817 79.9548 13.7035 80.7592 13.774C88.2301 14.4227 95.7158 14.7894 103.216 14.881C105.131 14.9022 105.131 12.0817 103.216 12.0605Z" fill="#1E1E1E"/>
<path d="M93.5951 19.0907C89.5133 18.992 85.4315 18.8933 81.3498 18.7946C79.4355 18.7452 79.4355 21.5657 81.3498 21.6151C85.4315 21.7138 89.5133 21.8125 93.5951 21.9112C95.5168 21.9535 95.5093 19.133 93.5951 19.0907Z" fill="#1E1E1E"/>
</g>
<g clip-path="url(#clip1)">
<path d="M24.8645 58.2909L10.0539 58.3614C6.14027 58.3614 6.06353 64.0002 10.0539 64.0002L24.8645 63.9297C28.8549 63.8592 28.8549 58.2205 24.8645 58.2909Z" fill="#F7C60F"/>
<path d="M21.7942 0.141274C15.8086 0.634666 9.89974 -0.422603 3.91412 0.211758C3.53043 0.211758 3.07 0.211758 2.68631 0.352727C1.30501 0.634666 0.691103 1.62145 0.691103 2.67872C0.691103 2.7492 0.691103 2.81969 0.691103 2.89017C0.537626 8.88136 0.384149 14.8021 0.00045585 20.7228C-0.22976 24.3175 5.90933 24.3175 6.13954 20.7228C6.52324 15.6479 6.59998 10.573 6.75345 5.4981C11.7415 5.21616 16.8062 6.13246 21.7942 5.70956C25.7079 5.4981 25.7846 -0.140665 21.7942 0.141274Z" fill="#F7C60F"/>
<path d="M58.1687 30.5199C55.7898 33.2688 52.797 35.3833 50.1112 37.9207C48.1927 39.7533 46.5045 41.8679 44.586 43.771C42.9745 42.3613 41.2095 41.163 39.2143 40.1762C35.761 38.3436 32.6915 43.2071 36.1447 45.0397C38.6004 46.3084 40.5956 47.8591 42.3606 49.8326C43.5117 51.0309 45.5069 50.8194 46.7347 49.8326C49.574 47.5066 51.7227 44.4758 54.4085 41.9384C57.0177 39.4714 60.0872 37.2864 62.4661 34.5375C64.9217 31.6476 60.6244 27.63 58.1687 30.5199Z" fill="#F7C60F"/>
<path d="M54.5618 60.1233C54.0246 57.8678 53.8711 55.6123 54.1014 53.2863C54.2548 51.4537 51.1853 51.4537 51.0318 53.2863C50.8783 55.3304 50.9551 57.304 51.3388 59.2775C50.4179 59.2775 49.4203 59.207 48.4994 59.1366C46.9647 59.0661 45.3532 58.9956 43.7416 58.9956C40.5954 58.9251 37.4491 58.9251 34.3028 58.9251C27.9335 58.9251 21.5642 59.207 15.2716 59.5595C11.8184 59.7709 8.36515 60.0529 4.91192 60.4053C5.44909 47.1542 5.67929 33.9736 5.52582 20.7225C5.44908 16.9163 5.37234 13.1101 5.2956 9.37445C5.2956 7.54185 2.22606 7.54185 2.22606 9.37445C2.53301 22.6255 2.45627 35.8766 2.14932 49.1277C2.07258 52.8634 1.9191 56.6696 1.76562 60.4758C1.76562 61.2511 2.3028 61.7445 2.99344 61.815C2.99344 61.815 2.99344 61.815 2.99344 61.8855C2.99344 62.5903 3.6841 63.3656 4.52823 63.2952C17.3436 62.0969 30.1589 61.6035 42.9743 61.8855C44.7393 61.9559 46.5042 61.9559 48.2692 62.0264C49.9575 62.0969 51.7992 62.3084 53.4874 61.8855C54.3316 61.6035 54.7153 60.8282 54.5618 60.1233Z" fill="#1E1E1E"/>
<path d="M54.5619 13.4627C54.4084 11.1367 54.1782 8.8812 53.7945 6.62569C53.4875 4.51115 52.4132 3.10146 49.9575 2.89001C44.8928 2.4671 39.7513 2.4671 34.6866 2.25565C29.6985 2.04419 24.5571 1.83274 19.4923 1.62129C13.9671 1.33935 8.44195 0.916438 3.07024 2.25565C1.15178 2.74904 1.91917 5.42745 3.83763 5.00455C8.21173 3.94728 12.7393 4.15873 17.1901 4.37018C21.9479 4.51115 26.629 4.72261 31.3101 4.93406C35.9911 5.07503 40.6722 5.28648 45.2765 5.49794C46.4276 5.56842 47.5786 5.56842 48.7297 5.63891C49.1134 5.63891 49.8041 5.56842 50.2645 5.70939C50.5714 5.85036 50.5714 5.92084 50.6482 6.27327C51.1854 8.10587 51.2621 10.1499 51.4156 12.053C51.7993 16.846 51.569 21.6389 50.8017 26.3614C50.6482 27.1367 51.0319 27.8415 51.876 28.1235C52.5666 28.3349 53.641 27.912 53.7945 27.1367C54.5619 22.6257 54.7921 18.0442 54.5619 13.4627Z" fill="#1E1E1E"/>
<path d="M61.3143 29.0398C55.3287 34.3966 49.65 40.0354 44.2783 45.8856C42.6668 44.7579 41.132 43.5596 39.674 42.2204C38.2927 40.9517 36.144 42.9253 37.5253 44.194C39.4438 45.9561 41.5157 47.5773 43.7411 48.9165C44.2783 49.2689 45.1992 49.1279 45.5829 48.705C51.2615 42.5729 57.2471 36.6521 63.5397 31.0134C64.921 29.7447 62.7723 27.7711 61.3143 29.0398Z" fill="#1E1E1E"/>
<path d="M42.5132 14.9428C32.8442 13.8855 23.0984 13.7445 13.4293 14.5199C12.5852 14.5904 11.8945 15.0837 11.8945 15.9296C11.8945 16.6344 12.5852 17.4097 13.4293 17.3393C23.0984 16.4934 32.8442 16.6344 42.5132 17.7622C43.3574 17.8326 44.048 17.0573 44.048 16.3525C44.048 15.5067 43.3574 15.0133 42.5132 14.9428Z" fill="#1E1E1E"/>
<path d="M36.9112 22.7668C32.9208 22.6258 28.9304 22.4143 24.94 22.2029C20.9496 21.9914 17.0359 21.8505 13.0455 22.4848C12.2014 22.6258 11.741 23.5421 11.9712 24.2469C12.2014 25.0223 13.0455 25.3747 13.8896 25.2337C17.6498 24.5994 21.5635 24.8813 25.3237 25.0927C29.1606 25.3042 32.9976 25.4452 36.9112 25.6566C38.9064 25.6566 38.9064 22.8372 36.9112 22.7668Z" fill="#1E1E1E"/>
<path d="M43.8944 30.3789C33.9184 29.8855 23.8657 30.0265 13.8896 30.8018C11.9712 30.9428 11.8944 33.7621 13.8896 33.6212C23.8657 32.8458 33.9184 32.7049 43.8944 33.1983C45.8896 33.2687 45.8896 30.4494 43.8944 30.3789Z" fill="#1E1E1E"/>
<path d="M25.861 39.8239C21.7171 39.26 17.5732 39.119 13.4293 39.401C12.5852 39.4715 11.8945 40.0353 11.8945 40.8107C11.8945 41.5155 12.5852 42.2908 13.4293 42.2204C17.2662 41.9384 21.1799 42.0089 25.0168 42.5728C25.861 42.7138 26.6283 42.3613 26.9353 41.586C27.1655 40.8812 26.7051 39.8944 25.861 39.8239Z" fill="#1E1E1E"/>
<path d="M33.3809 48.3525C26.7814 47.8591 20.1819 47.7886 13.5823 48.2115C11.5871 48.3525 11.5871 51.1719 13.5823 51.0309C20.1819 50.608 26.7814 50.608 33.3809 51.1719C35.3761 51.3833 35.3761 48.4935 33.3809 48.3525Z" fill="#1E1E1E"/>
</g>
<g clip-path="url(#clip2)">
<path d="M127.43 14.5608C129.744 3.04468 140.289 0.165656 145.271 0.165656C155.398 -1.32349 166.488 7.61141 166.97 11.5825C167.356 14.7593 163.916 14.8917 162.148 14.5608C162.63 16.7118 163.016 22.3043 160.702 27.4667C154.433 38.3872 143.825 35.9053 140.449 35.4089C137.074 34.9125 124.537 28.9559 127.43 14.5608Z" fill="white"/>
<path d="M149.305 16.6339C148.034 16.5601 146.835 16.5601 145.565 16.7815C145.212 15.527 144.788 14.3463 144.294 13.1656C144.083 12.5752 143.165 12.4276 142.671 12.7228C142.036 13.0918 141.966 13.8297 142.248 14.4201C142.601 15.3794 142.954 16.2649 143.236 17.2242C141.966 17.5932 140.696 18.1098 139.567 18.7001C139.002 18.9953 138.861 19.8808 139.143 20.3974C139.496 20.9878 140.202 21.1353 140.766 20.8402C141.825 20.3236 142.883 19.9546 143.942 19.6595C144.224 20.914 144.506 22.2423 144.718 23.5706C144.788 24.2347 145.635 24.6037 146.2 24.4561C146.905 24.2347 147.117 23.5706 147.047 22.9064C146.905 21.6519 146.623 20.4712 146.341 19.2167C147.329 19.0691 148.387 19.0691 149.375 19.1429C150.01 19.2167 150.575 18.5525 150.575 17.8884C150.504 17.1504 149.94 16.7077 149.305 16.6339Z" fill="#59C69F"/>
<path d="M130.116 13.1843C131.949 7.96255 137.088 3.92835 143.214 2.90394C149.975 1.77074 157.436 4.42696 163.662 10.1927C164.197 10.6822 164.215 11.4165 163.708 11.9514C163.22 12.4591 162.336 12.6313 161.691 12.0421C156.938 7.64525 151.329 5.2338 145.996 5.33352C141.003 5.39698 136.186 7.97161 133.736 11.8698C131.064 16.1307 131.709 22.0505 135.311 26.2569C138.885 30.4271 145.074 33.2919 149.993 30.7172C152.406 29.448 154.571 27.1816 156.082 24.335C157.694 21.2981 157.73 18.0707 156.192 15.6864C155.805 15.0881 155.971 14.3719 156.579 13.9821C157.178 13.6104 158.09 13.6557 158.559 14.3901C162.179 19.9473 158.771 27.5624 153.392 31.6963C151.062 33.4913 148.519 34.416 145.949 34.416C145.489 34.416 145.028 34.3888 144.577 34.3253C141.445 33.9174 138.221 32.4487 135.495 30.1733C130.235 25.8037 128.08 18.9773 130.116 13.1843Z" fill="#1E1E1E"/>
</g>
<g clip-path="url(#clip3)">
<path d="M109.51 85.9963C109.038 80.6797 102.924 77.965 98.1719 77.281C92.7425 77.281 87.306 81.3566 85.9451 87.47C84.5842 93.5835 87.306 99.6969 93.4123 101.728C98.1649 103.088 104.278 103.088 107.67 99.0129C109.708 96.9751 109.708 93.5835 109.983 90.6078C110.074 89.0425 109.94 87.4841 109.51 85.9963Z" fill="#F7C300"/>
<path d="M91.8604 127.288L78.2516 127.359C74.6202 127.38 74.6131 133.021 78.2516 133L91.8604 132.929C95.4848 132.908 95.4918 127.267 91.8604 127.288Z" fill="#F7C300"/>
<path d="M89.0395 69.151C83.5396 69.6235 78.1031 68.594 72.6102 69.1934C72.2294 69.1863 71.8416 69.2357 71.482 69.3555C70.1775 69.6305 69.6275 70.6036 69.6557 71.6613C69.6487 71.7459 69.6275 71.8164 69.6275 71.9081C69.4583 77.8523 69.3878 83.8106 69.007 89.7477C68.7743 93.372 74.4153 93.3579 74.648 89.7477C74.9723 84.692 75.0781 79.6151 75.198 74.5523C79.7954 74.2914 84.428 75.1939 89.0395 74.7991C92.6286 74.4888 92.6639 68.8408 89.0395 69.151Z" fill="#F7C300"/>
<path d="M118.683 122.317C118.704 122.092 118.676 121.894 118.605 121.718C117.794 111.804 119.874 101.946 119.811 92.0394C119.797 90.2273 116.976 90.2202 116.99 92.0394C117.054 102.2 114.861 112.298 115.841 122.458C115.841 122.473 115.848 122.494 115.848 122.508C115.707 124.461 115.806 126.407 116.116 128.332C115.242 128.353 114.339 128.233 113.507 128.198C112.062 128.142 110.616 128.092 109.171 128.05C106.28 127.973 103.381 127.944 100.49 127.965C94.645 128.001 88.8065 128.212 82.9752 128.614C79.788 128.833 76.6079 129.108 73.4349 129.439C73.9073 116.211 74.1047 102.976 74.0201 89.7407C73.9919 85.9472 73.9426 82.1465 73.872 78.353C73.8368 76.5408 71.0163 76.5338 71.0516 78.353C71.2983 91.6093 71.2701 104.866 70.9528 118.115C70.8612 121.908 70.7484 125.702 70.6144 129.496C70.5862 130.292 71.108 130.737 71.7144 130.835C71.7144 130.849 71.7073 130.864 71.7073 130.878C71.7073 131.576 72.356 132.365 73.1176 132.288C84.8579 131.068 96.6757 130.581 108.472 130.856C110.094 130.892 111.709 130.948 113.331 131.012C114.917 131.075 116.588 131.322 118.14 130.878C118.901 130.659 119.296 129.898 119.127 129.143C118.633 126.887 118.499 124.609 118.683 122.317Z" fill="#1E1E1E"/>
<path d="M119.176 84.3606C119.211 81.4273 118.894 78.4869 118.463 75.5959C118.153 73.5017 117.222 72.0633 114.966 71.8729C110.319 71.4851 105.616 71.4498 100.962 71.2383L86.9021 70.6037C81.8605 70.378 76.7201 69.962 71.7843 71.2665C70.0285 71.7319 70.776 74.4536 72.5317 73.9883C76.5368 72.9306 80.69 73.1492 84.7867 73.3325C89.1232 73.5299 93.4598 73.7274 97.7892 73.9248C102.062 74.1152 106.342 74.3126 110.615 74.503C111.673 74.5524 112.724 74.6017 113.781 74.644C114.169 74.6581 114.804 74.5876 115.171 74.7286C115.439 74.8344 115.453 74.9684 115.551 75.3068C116.383 78.3671 116.44 81.9138 116.292 85.0657C116.263 85.7215 116.228 86.4337 116.63 86.9555C117.152 87.6394 118.372 87.5901 118.837 86.8638C119.084 86.483 119.119 86.0106 119.14 85.5593C119.154 85.1504 119.168 84.7555 119.176 84.3606Z" fill="#1E1E1E"/>
<path d="M107.619 88.3798C105.885 83.4158 101.231 80.01 96.034 79.8479C95.8788 79.8056 95.7026 79.8056 95.5122 79.8408C95.2442 79.8408 94.9692 79.8479 94.6942 79.869C94.2148 79.9043 93.8763 80.1511 93.6718 80.4754C93.3968 80.278 93.0442 80.1793 92.6212 80.2709C88.1507 81.244 84.8507 85.0305 83.4616 89.2542C83.0738 90.4388 82.7988 91.7221 82.9398 92.9702C83.0879 94.2888 83.6097 95.5368 84.2796 96.6721C85.4642 98.6887 87.2129 100.388 89.2295 101.559C93.4039 103.97 98.6429 103.893 102.803 101.467C104.961 100.212 106.872 98.315 107.739 95.9388C108.62 93.5696 108.451 90.742 107.619 88.3798ZM95.2372 82.8376C95.2724 83.6837 95.3006 84.5299 95.3077 85.3831C94.7577 85.2985 94.2077 85.1997 93.6577 85.0869C94.0314 84.2337 94.5109 83.3735 95.2372 82.8376ZM91.8808 90.2837C92.1064 89.36 92.3885 88.4504 92.7058 87.5478C93.5731 87.7241 94.4404 87.8792 95.3148 87.9991C95.3077 89.0779 95.2936 90.1568 95.2724 91.2356C94.0878 91.2285 92.8962 91.1651 91.7116 91.0734C91.768 90.8125 91.8173 90.5446 91.8808 90.2837ZM89.0109 98.0964C88.9757 98.1105 88.9545 98.1387 88.9193 98.1529C87.2481 96.7779 85.8731 94.9093 85.6052 92.8997C86.6558 93.0971 87.7065 93.2522 88.7642 93.3862C88.6654 94.9586 88.7571 96.524 89.0815 98.0612C89.0603 98.0753 89.0321 98.0894 89.0109 98.0964ZM89.427 89.3036C89.3 89.8042 89.1872 90.3048 89.0885 90.8125C88.0167 90.6715 86.9449 90.5164 85.8802 90.3048C86.3244 88.8241 87.0577 87.4068 88.0308 86.201C88.6795 86.5818 89.3846 86.8074 90.118 86.9978C89.8641 87.7593 89.6244 88.5279 89.427 89.3036ZM90.7949 84.4594C90.5622 84.403 90.3013 84.3536 90.0475 84.2831C90.527 83.9376 91.0417 83.6344 91.5846 83.3876C91.5564 83.451 91.5212 83.5074 91.493 83.5639C91.3449 83.8741 91.2109 84.1985 91.0699 84.5158C90.9782 84.4946 90.8866 84.4805 90.7949 84.4594ZM91.359 93.6542C92.6494 93.7529 93.9468 93.8234 95.2442 93.8375C95.2372 94.6907 95.2442 95.5439 95.2513 96.3971C93.9891 96.5381 92.741 96.7638 91.5282 97.1234C91.3308 95.9811 91.2814 94.8176 91.359 93.6542ZM92.4026 100.141C92.3814 99.9862 92.3321 99.824 92.2686 99.6689C92.2616 99.6548 92.2545 99.6336 92.2475 99.6195C93.2487 99.3234 94.2923 99.133 95.3359 99.0061C95.3641 99.5772 95.3994 100.141 95.4487 100.712C94.4192 100.677 93.3898 100.487 92.4026 100.141ZM104.552 87.8369C104.954 88.6055 105.25 89.4375 105.447 90.2978C104.622 90.46 103.79 90.5939 102.958 90.7138C102.944 90.3894 102.937 90.0651 102.909 89.7407C102.853 89.0497 102.754 88.3657 102.613 87.6888C103.135 87.5478 103.656 87.3786 104.164 87.1741C104.305 87.3856 104.432 87.6113 104.552 87.8369ZM97.9308 88.2247C98.6429 88.2388 99.3481 88.2106 100.053 88.1401C100.201 88.8734 100.293 89.6138 100.335 90.3401C100.349 90.5657 100.349 90.7914 100.356 91.017C99.5384 91.0946 98.7205 91.158 97.9025 91.1933C97.9096 90.2061 97.9237 89.2119 97.9308 88.2247ZM97.8814 83.5921C98.4314 84.1844 98.8686 84.8613 99.2141 85.5946C98.784 85.6158 98.3609 85.6228 97.9308 85.6087C97.9308 84.9388 97.9025 84.269 97.8814 83.5921ZM101.872 85.1927C101.76 84.9036 101.633 84.6215 101.492 84.3465C101.802 84.5651 102.105 84.8049 102.387 85.0587C102.218 85.1151 102.042 85.1504 101.872 85.1927ZM97.8602 93.7952C98.6711 93.7599 99.4891 93.7035 100.3 93.633C100.265 94.2535 100.222 94.867 100.166 95.4804C100.145 95.7061 100.124 95.9388 100.096 96.1644C99.3551 96.1574 98.6077 96.1644 97.8673 96.1926C97.8602 95.3958 97.8602 94.592 97.8602 93.7952ZM97.9519 98.8157C98.5019 98.7945 99.0519 98.7945 99.6019 98.7945C99.4538 99.2952 99.2775 99.7887 99.0519 100.261C98.7275 100.36 98.3961 100.444 98.0647 100.508C98.0154 99.9439 97.9731 99.3798 97.9519 98.8157ZM105.638 93.5484C105.511 94.6272 105.116 95.5933 104.538 96.4535C104.495 96.4465 104.46 96.4394 104.418 96.4324C103.847 96.3689 103.283 96.3125 102.712 96.2772C102.726 96.1574 102.74 96.0445 102.754 95.9247C102.838 95.0715 102.909 94.2112 102.951 93.3439C103.868 93.217 104.785 93.083 105.694 92.9138C105.673 93.1183 105.659 93.3369 105.638 93.5484Z" fill="#1E1E1E"/>
<path d="M113.02 116.902C112.759 116.662 112.386 116.451 112.026 116.486C110.686 116.634 109.354 116.359 108.021 116.415C107.288 116.444 106.575 117.043 106.611 117.826C106.646 118.566 107.231 119.271 108.021 119.236C109.361 119.179 110.693 119.454 112.026 119.306C112.414 119.264 112.738 119.179 113.02 118.89C113.267 118.644 113.45 118.242 113.436 117.896C113.415 117.53 113.295 117.156 113.02 116.902Z" fill="#1E1E1E"/>
<path d="M111.081 122.31C105.63 122.071 100.173 121.93 94.7223 121.887C92.0216 121.866 89.3281 121.873 86.6274 121.901C83.9973 121.93 81.1345 121.683 78.5608 122.303C76.798 122.726 77.5454 125.448 79.3083 125.025C80.5422 124.729 81.8467 124.8 83.1018 124.778C84.4486 124.757 85.8024 124.736 87.1492 124.722C89.7864 124.701 92.4306 124.694 95.0678 124.715C100.405 124.757 105.743 124.898 111.074 125.131C112.893 125.216 112.893 122.395 111.081 122.31Z" fill="#1E1E1E"/>
<path d="M78.9129 113.39C84.3635 113.63 89.8212 113.771 95.2718 113.814C97.9724 113.835 100.666 113.828 103.367 113.799C105.997 113.771 108.86 114.018 111.433 113.398C113.196 112.974 112.449 110.253 110.686 110.676C109.452 110.972 108.147 110.901 106.892 110.923C105.545 110.944 104.192 110.965 102.845 110.979C100.208 111 97.5634 111.007 94.9263 110.986C89.5885 110.944 84.2507 110.803 78.92 110.57C77.1008 110.492 77.1008 113.313 78.9129 113.39Z" fill="#1E1E1E"/>
<path d="M102.805 116.528C94.7734 115.971 86.7139 115.816 78.6684 116.07C76.8562 116.127 76.8492 118.947 78.6684 118.891C86.7209 118.637 94.7734 118.792 102.805 119.349C104.617 119.476 104.61 116.655 102.805 116.528Z" fill="#1E1E1E"/>
</g>
<g clip-path="url(#clip4)">
<path d="M41.8344 114.744C41.1081 114.547 40.2549 114.632 39.5075 114.617L37.0677 114.575C35.4459 114.547 33.8171 114.519 32.1953 114.49C29.0011 114.434 25.8069 114.378 22.6198 114.321C19.4397 114.265 16.2243 114.06 13.0442 114.152C12.9102 114.159 12.7974 114.18 12.6775 114.201C12.5788 114.159 12.473 114.117 12.3461 114.096C8.86281 113.398 8.82756 118.467 8.86281 120.724C8.89102 122.317 9.41281 123.58 11.1686 123.77C12.6352 123.925 14.1442 123.692 15.6108 123.643C22.0345 123.439 28.4934 123.671 34.9171 123.714C36.4966 123.728 38.0831 123.791 39.6626 123.742C40.8825 123.699 42.1305 123.368 42.8286 122.275C43.576 121.105 43.3433 119.306 43.3927 117.974C43.435 116.676 43.3222 115.16 41.8344 114.744Z" fill="#F7C300"/>
<path d="M31.8287 87.6042C31.7794 86.5113 31.7371 85.4184 31.6877 84.3254C31.6101 82.5203 31.6665 80.4825 29.946 79.3896C28.4653 78.4518 26.4275 78.6069 24.7493 78.5152C22.3942 78.3812 20.0391 78.2473 17.684 78.1133C16.725 78.0569 15.4064 77.7396 14.5179 78.205C14.2147 78.3601 14.0032 78.5716 13.841 78.8114C13.6789 78.9735 13.5519 79.171 13.5026 79.4107C13.1007 81.4979 13.1712 83.5427 13.4814 85.637C13.6154 86.5818 13.8058 87.5126 14.0032 88.4504C14.2077 89.4164 14.3558 90.3754 15.1455 91.0523C15.7872 91.6023 16.591 91.7504 17.3949 91.8702C18.4525 92.0254 19.5173 92.1593 20.582 92.2581C22.5634 92.4343 24.5589 92.4908 26.5473 92.4202C28.4723 92.3568 30.771 92.4696 31.596 90.3401C31.9345 89.4587 31.864 88.528 31.8287 87.6042Z" fill="#F7C300"/>
<path d="M22.8605 127.288L9.25157 127.359C5.62019 127.38 5.61314 133.021 9.25157 133L22.8605 132.929C26.4848 132.908 26.4918 127.267 22.8605 127.288Z" fill="#F7C300"/>
<path d="M20.0396 69.151C14.5396 69.6235 9.10309 68.594 3.61018 69.1934C3.22942 69.1863 2.84161 69.2357 2.48199 69.3555C1.17752 69.6305 0.627511 70.6036 0.655716 71.6613C0.648665 71.7459 0.627516 71.8164 0.627516 71.9081C0.458286 77.8523 0.38777 83.8106 0.00700398 89.7477C-0.225687 93.372 5.4153 93.3579 5.64799 89.7477C5.97234 84.692 6.07811 79.6151 6.19798 74.5523C10.7954 74.2914 15.428 75.1939 20.0396 74.7991C23.6286 74.4818 23.6639 68.8408 20.0396 69.151Z" fill="#F7C300"/>
<path d="M50.078 129.192C49.119 124.863 49.6831 120.442 49.8453 116.063C50.0005 111.677 49.7678 107.263 49.3165 102.898C49.2178 101.946 48.8722 100.755 47.9203 100.663C47.2928 100.607 46.7357 101.128 46.5312 101.728C46.3338 102.327 46.4043 102.969 46.4748 103.596C46.9473 107.848 47.1658 112.121 47.1376 116.401C47.1306 117.388 46.6864 128.381 47.0671 128.374C46.1928 128.395 45.2902 128.268 44.4582 128.233C43.0127 128.17 41.5672 128.12 40.1217 128.078C37.2307 128.001 34.3397 127.958 31.4416 127.972C25.5961 127.994 19.7507 128.191 13.9264 128.579C10.7392 128.79 7.55909 129.058 4.38604 129.383C4.89373 116.154 5.11936 102.919 5.06295 89.6842C5.04885 85.8906 5.00654 82.09 4.94308 78.2965C4.91488 76.4843 2.09438 76.4702 2.12259 78.2894C2.34118 91.5457 2.27772 104.802 1.93221 118.051C1.8335 121.845 1.70657 125.638 1.56555 129.432C1.53734 130.229 2.05913 130.673 2.66554 130.772C2.66554 130.786 2.65849 130.8 2.65849 130.814C2.65849 131.512 3.30015 132.302 4.06873 132.224C15.8161 131.033 27.6269 130.574 39.4307 130.87C41.0524 130.913 42.6672 130.969 44.2889 131.04C45.8755 131.11 47.5466 131.357 49.0979 130.913C49.8453 130.708 50.2472 129.947 50.078 129.192Z" fill="#1E1E1E"/>
<path d="M50.1486 82.4568C50.0358 80.1581 49.796 77.8735 49.4576 75.5959C49.1473 73.5017 48.2165 72.0633 45.9601 71.8729C41.3134 71.4851 36.6102 71.4498 31.9564 71.2383C27.2673 71.0267 22.5853 70.8152 17.8963 70.6037C12.8546 70.378 7.71428 69.962 2.77842 71.2665C1.02266 71.7319 1.77009 74.4536 3.52585 73.9883C7.53094 72.9306 11.6841 73.1492 15.7809 73.3325C20.1174 73.5299 24.4539 73.7274 28.7833 73.9248C33.0564 74.1152 37.3365 74.3126 41.6095 74.503C42.6672 74.5524 43.7179 74.6017 44.7755 74.644C45.1634 74.6581 45.798 74.5876 46.1646 74.7286C46.4326 74.8344 46.4467 74.9684 46.5454 75.3068C47.046 77.1402 47.1025 79.1991 47.2364 81.0889C47.5678 85.8696 47.4057 90.6856 46.7005 95.424C46.5877 96.1785 46.8909 96.94 47.6877 97.1586C48.3505 97.3419 49.3095 96.933 49.4223 96.1714C50.1063 91.6304 50.3742 87.0471 50.1486 82.4568Z" fill="#1E1E1E"/>
<path d="M30.6086 90.3189C30.6015 89.226 30.5945 88.1331 30.5874 87.0472C30.5733 85.1363 30.9823 82.6472 29.0996 81.4626C28.3804 81.0113 27.5413 80.8844 26.7233 80.7786C25.5951 80.6306 24.4669 80.5107 23.3317 80.419C21.1811 80.2357 19.0234 80.1511 16.8587 80.1581C15.8362 80.1652 14.8138 80.1863 13.7914 80.2357C12.8536 80.278 11.7747 80.2216 10.8863 80.5671C9.84973 80.969 9.4055 81.8998 9.45486 82.9716C9.51127 84.1844 9.6664 85.4042 9.77216 86.617C9.99075 89.1061 10.2023 91.5952 10.4209 94.0773C10.5266 95.2689 11.81 95.6708 12.6068 95.276C12.8324 95.5228 13.1638 95.692 13.5939 95.692C15.801 95.7061 18.001 95.7272 20.208 95.7413C22.3304 95.7554 24.474 95.8683 26.5893 95.7836C28.2816 95.7131 30.0021 95.1067 30.4816 93.3016C30.7355 92.3497 30.6156 91.285 30.6086 90.3189ZM27.7881 92.4766C27.4708 93.3369 25.2496 92.9561 24.5586 92.9491C20.9061 92.9208 17.2535 92.8926 13.5939 92.8644C13.4247 92.8644 13.2766 92.8926 13.1427 92.935C13.0016 91.3484 12.8677 89.7548 12.7266 88.1683C12.6491 87.2446 12.5644 86.3138 12.4869 85.3901C12.4516 84.96 12.2189 83.7049 12.233 83.0914C12.7266 82.9857 13.3683 83.0632 13.7914 83.0491C14.701 83.0068 15.6106 82.9857 16.5202 82.9786C18.2266 82.9645 19.933 83.0068 21.6323 83.1126C23.3599 83.2184 25.1438 83.2959 26.8502 83.6273C27.6118 83.7754 27.7387 83.86 27.7528 84.6427C27.7669 85.503 27.7669 86.3632 27.774 87.2305C27.781 88.0908 27.7881 88.951 27.7951 89.8183C27.7951 90.2766 27.8022 90.735 27.8022 91.2003C27.8022 91.5388 27.915 92.1311 27.7881 92.4766Z" fill="#1E1E1E"/>
<path d="M44.6348 118.616C44.6348 118.573 44.6277 118.531 44.6207 118.481C44.8322 117.685 44.4021 116.655 43.3162 116.599C37.5553 116.31 31.7874 116.014 26.0195 115.929C23.199 115.887 20.3715 115.908 17.551 115.943C14.7305 115.978 11.8042 115.816 9.0331 116.437C8.63118 116.528 8.36324 116.74 8.20106 117.008C8.06709 117.156 7.96837 117.332 7.93311 117.551C7.72863 118.82 7.67222 120.096 7.60171 121.38C7.5453 122.367 7.48889 123.347 7.43953 124.334C7.34081 124.517 7.27734 124.736 7.27734 124.976C7.27734 125.533 7.68632 126.139 8.23631 126.322C8.41964 126.407 8.61004 126.457 8.80747 126.449C9.0049 126.442 9.19529 126.4 9.35747 126.322C14.8715 125.78 20.4138 125.519 25.9561 125.568C31.7169 125.617 37.506 126.344 43.2598 125.949C43.7463 125.913 44.0989 125.681 44.3245 125.363C44.6771 125.11 44.938 124.722 44.8745 124.271C44.6489 122.388 44.5643 120.505 44.6348 118.616ZM25.9631 122.748C20.7381 122.705 15.5202 122.938 10.3164 123.417L10.4222 121.514C10.4504 120.956 10.4857 120.392 10.5139 119.835C10.528 119.56 10.5491 119.285 10.5773 119.01C10.5773 119.01 10.5773 119.01 10.5773 119.003C12.9677 118.615 15.5061 118.785 17.9036 118.756C20.724 118.721 23.5516 118.7 26.3721 118.749C31.5195 118.834 36.6669 119.081 41.8072 119.342C41.7861 120.625 41.8213 121.901 41.9483 123.178C36.6316 123.403 31.2868 122.79 25.9631 122.748Z" fill="#1E1E1E"/>
<path d="M42.5263 82.1676C39.7764 81.9067 37.0123 81.8644 34.2553 82.0407C33.5219 82.0901 32.8098 82.6542 32.845 83.451C32.8803 84.1772 33.4655 84.9106 34.2553 84.8612C37.0123 84.6849 39.7764 84.7272 42.5263 84.9881C43.2597 85.0586 43.9648 84.29 43.9366 83.5779C43.9013 82.7529 43.3161 82.2381 42.5263 82.1676Z" fill="#1E1E1E"/>
<path d="M42.5263 91.7362C39.7764 91.4753 37.0123 91.433 34.2553 91.6093C33.5219 91.6587 32.8098 92.2228 32.845 93.0196C32.8803 93.7458 33.4655 94.4792 34.2553 94.4298C37.0123 94.2535 39.7764 94.2958 42.5263 94.5567C43.2597 94.6272 43.9648 93.8586 43.9366 93.1465C43.9013 92.3285 43.3161 91.8138 42.5263 91.7362Z" fill="#1E1E1E"/>
<path d="M42.949 87.174C39.9875 86.6451 36.9837 87.1458 34.001 87.0189C33.2677 86.9907 32.5202 87.5618 32.5061 88.3374C32.492 89.0919 33.035 89.8041 33.8247 89.8323C36.8074 89.9592 39.8112 89.4515 42.7727 89.9874C43.499 90.1214 44.2535 89.374 44.2676 88.6689C44.2887 87.8368 43.7317 87.315 42.949 87.174Z" fill="#1E1E1E"/>
<path d="M25.4892 104.647C20.6098 105.289 15.6175 105.599 10.7169 105.084C9.95535 105.007 9.30664 105.789 9.30664 106.494C9.30664 107.326 9.95535 107.827 10.7169 107.905C15.6175 108.419 20.6168 108.109 25.4892 107.467C26.2437 107.369 26.8995 106.889 26.8995 106.057C26.8995 105.373 26.2507 104.548 25.4892 104.647Z" fill="#1E1E1E"/>
<path d="M39.3104 109.696C29.4739 110.168 19.6233 110.246 9.78686 109.935C7.97469 109.879 7.97469 112.7 9.78686 112.756C19.6304 113.073 29.4809 112.989 39.3104 112.516C41.1155 112.432 41.1296 109.604 39.3104 109.696Z" fill="#1E1E1E"/>
</g>
<defs>
<clipPath id="clip0">
<rect width="53" height="64" fill="white" transform="translate(69)"/>
</clipPath>
<clipPath id="clip1">
<rect width="64" height="64" fill="white"/>
</clipPath>
<clipPath id="clip2">
<rect width="40" height="36" fill="white" transform="translate(127)"/>
</clipPath>
<clipPath id="clip3">
<rect width="64" height="64" fill="white" transform="translate(69 69)"/>
</clipPath>
<clipPath id="clip4">
<rect width="51" height="64" fill="white" transform="translate(0 69)"/>
</clipPath>
</defs>
</svg>
