<svg width="36" height="64" viewBox="0 0 36 64" fill="none" xmlns="http://www.w3.org/2000/svg">
<path d="M27.9219 26.6429C27.7515 25.9552 27.4482 25.3527 27.0518 24.8245C26.8229 24.3112 26.4939 23.8424 26.0618 23.4708C24.9638 22.5254 23.5259 22.0765 22.0909 22.0151C22.1524 20.7525 22.0751 19.4929 21.9046 18.2383C21.9274 18.1531 21.9403 18.0659 21.9413 17.9747V17.1027C21.9433 17.0323 21.9125 16.9709 21.8967 16.9055C22.2941 16.9124 22.6915 16.9184 23.0898 16.9253C23.7498 16.9362 24.7071 17.1195 25.271 16.6845C25.7526 16.3129 25.7794 15.7193 25.827 15.1604C25.8914 14.3923 25.8914 13.6193 25.825 12.8522C25.7735 12.2666 25.7834 11.4807 25.4623 10.9664C25.0897 10.3708 24.3781 10.4045 23.7607 10.3797C23.0433 10.35 22.3248 10.3213 21.6073 10.2915C21.5062 10.2876 21.2694 10.239 21.1643 10.2697C21.2307 10.0131 20.9622 9.33422 20.8987 9.09935C20.5955 7.98746 19.9781 6.73582 18.8642 6.23537C17.4798 5.61401 16.7405 7.18376 16.2728 8.23223C16.0112 8.82088 15.7981 9.42642 15.6673 10.0577C15.6098 10.3371 15.5692 10.6206 15.5355 10.904C14.9449 10.8217 14.2224 10.8742 13.6556 10.9C13.0521 10.9278 12.5229 11.2082 12.3366 11.8147C12.1285 12.4895 12.1443 13.3468 12.1156 14.0484C12.0888 14.7134 11.9431 15.7083 12.3098 16.3089C12.7052 16.955 13.5376 16.8816 14.1917 16.9084C14.6079 16.9252 15.0241 16.9431 15.4413 16.9599C15.5969 16.9659 15.7535 16.9728 15.9101 16.9798C15.9329 16.9808 15.9557 16.9818 15.9795 16.9828C15.9676 17.3455 15.9121 17.7468 15.9061 18.0292C15.8922 18.6823 15.8784 19.3353 15.8645 19.9894L15.8229 21.9496C15.8199 22.1002 15.8169 22.2519 15.813 22.4025C14.82 22.795 13.8488 23.2478 13.0531 23.9772C11.9669 24.9741 11.5576 26.3774 11.4694 27.8084C11.4248 28.5417 11.4823 29.28 11.8203 29.9449C12.1176 30.5306 12.619 30.9925 13.166 31.3423C14.1144 31.9478 15.2679 32.2778 16.3887 32.5127C17.5512 40.5407 16.3858 48.6628 15.1956 56.6195C15.1371 57.007 15.2927 57.3133 15.5246 57.5313C15.6703 57.8097 15.9349 58.0228 16.3461 58.0208C19.2478 58.008 22.1494 57.995 25.051 57.9821C25.6575 57.9792 26.2244 57.3459 26.0063 56.7275C23.4238 49.3833 22.2733 41.6546 22.6132 33.8763C22.6142 33.8426 22.6003 33.8198 22.5993 33.7881C22.6419 33.1261 22.7172 32.467 22.7925 31.809C23.2553 31.6821 23.6993 31.5038 24.1264 31.2976C24.3534 31.2273 24.5823 31.158 24.8072 31.0787C25.3979 30.8706 26.0162 30.6565 26.5464 30.3196C27.8337 29.503 28.2826 28.0987 27.9219 26.6429Z" fill="#F7C300"/>
<path d="M31.4529 58.8759C28.9883 58.8938 26.5237 58.9106 24.0591 58.9285C21.7451 50.3375 20.878 41.4524 21.4696 32.5751C21.4845 32.359 21.425 32.1934 21.3398 32.0517C21.6639 32.0438 21.9879 32.0438 22.311 32.0309C23.8153 31.9725 25.3078 31.6633 26.1729 30.3056C26.9647 29.0639 27.0965 27.1375 26.2482 25.8958C25.4049 24.66 23.8916 24.1208 22.5052 23.7522C22.1247 23.6511 21.7392 23.5718 21.3507 23.5025C21.3854 23.4044 21.4171 23.3032 21.426 23.1903C21.5786 21.2519 21.5449 19.3056 21.3448 17.3731C21.651 17.3731 21.9572 17.3742 22.2624 17.3742C22.7282 17.3752 23.2544 17.4396 23.7053 17.2929C24.399 17.068 24.5714 16.4278 24.5913 15.7757C24.624 14.7361 24.6012 13.6966 24.5318 12.659C24.5219 12.5163 24.4832 12.3805 24.4258 12.2567C24.3514 11.8375 24.0532 11.4708 23.5012 11.4827C22.535 11.5035 21.5687 11.4995 20.6025 11.4936C20.3617 9.93375 19.7582 8.41562 18.8683 7.11345C18.8138 7.03417 18.7464 6.96576 18.674 6.90333C18.7523 4.93323 18.8207 2.96307 18.8475 0.990994C18.8544 0.455857 18.3866 0 17.8565 0C17.3134 0 16.8724 0.453875 16.8655 0.990994C16.8377 3.01163 16.7693 5.03127 16.6871 7.05091C16.6693 7.07271 16.6455 7.08957 16.6296 7.11237C15.7407 8.41453 15.1372 9.93377 14.8954 11.4926C13.9292 11.4985 12.9629 11.5025 11.9967 11.4817C11.4447 11.4698 11.1464 11.8365 11.0721 12.2557C11.0146 12.3806 10.976 12.5153 10.9661 12.658C10.8967 13.6956 10.8739 14.7352 10.9066 15.7747C10.9274 16.4268 11.0989 17.066 11.7926 17.2919C12.2425 17.4376 12.7687 17.3731 13.2355 17.3731C13.5417 17.3731 13.8479 17.3722 14.1531 17.3722C13.9529 19.3056 13.9192 21.2509 14.0719 23.1893C14.0808 23.3013 14.1125 23.4024 14.1472 23.5015C13.7587 23.5709 13.3732 23.6501 12.9927 23.7512C11.6063 24.1189 10.093 24.6589 9.24969 25.8947C8.40139 27.1364 8.5332 29.063 9.325 30.3047C10.1901 31.6623 11.6826 31.9715 13.1869 32.03C13.51 32.0428 13.834 32.0428 14.1581 32.0508C14.0729 32.1935 14.0134 32.3589 14.0283 32.574C14.6209 41.4513 13.7528 50.3366 11.4388 58.9275C8.97419 58.9096 6.50859 58.8928 4.04498 58.875C2.7666 58.8661 2.76957 60.8481 4.04498 60.857C8.61247 60.8897 13.18 60.9224 17.7475 60.9541C22.315 60.9214 26.8824 60.8897 31.4499 60.857C32.7273 60.8481 32.7303 58.866 31.4529 58.8759ZM17.3669 9.91696C17.3937 9.84858 17.4204 9.78014 17.4492 9.71276C17.472 9.66222 17.5017 9.59876 17.5106 9.57993C17.5859 9.41642 17.6672 9.25596 17.7514 9.09641C17.8357 9.25596 17.9169 9.41642 17.9922 9.57993C18.0012 9.59975 18.0299 9.66321 18.0537 9.71276C18.0824 9.78014 18.1092 9.84858 18.1359 9.91696C18.3302 10.4174 18.4669 10.9367 18.5789 11.4609C18.3034 11.454 18.0279 11.4411 17.7524 11.4342C17.4769 11.4411 17.2014 11.454 16.9259 11.4609C17.0349 10.9367 17.1727 10.4184 17.3669 9.91696ZM13.9083 15.3922C13.6101 15.3922 13.3118 15.3932 13.0145 15.3932C12.9709 15.3932 12.9263 15.3932 12.8827 15.3932C12.8817 15.3516 12.8807 15.3109 12.8797 15.2693C12.8757 14.979 12.8757 14.6895 12.8797 14.3992C12.8837 14.089 12.9045 13.7798 12.9183 13.4696C14.5297 13.4904 16.1411 13.4667 17.7514 13.4171C19.3618 13.4667 20.9731 13.4904 22.5845 13.4696C22.5984 13.7798 22.6192 14.089 22.6231 14.3992C22.6271 14.6895 22.6271 14.979 22.6231 15.2693C22.6222 15.3109 22.6212 15.3516 22.6202 15.3932C22.5766 15.3932 22.532 15.3932 22.4884 15.3932C22.1901 15.3932 21.8918 15.3922 21.5945 15.3922C20.9741 15.3912 20.3538 15.3902 19.7324 15.3902L17.7524 15.3882L15.7724 15.3902C15.1501 15.3902 14.5287 15.3912 13.9083 15.3922ZM19.4629 23.2954C18.8921 23.2686 18.3203 23.2805 17.7504 23.3171C17.1806 23.2795 16.6098 23.2676 16.038 23.2954C16.04 23.2597 16.0588 23.227 16.0568 23.1913C15.9042 21.252 15.9379 19.3056 16.1381 17.3712C16.6752 17.3702 17.2123 17.3702 17.7504 17.3692C18.2875 17.3702 18.8257 17.3702 19.3628 17.3712C19.563 19.3046 19.5967 21.251 19.444 23.1913C19.4411 23.227 19.4599 23.2597 19.4629 23.2954ZM13.4465 25.6836C14.8547 25.3011 16.3016 25.1931 17.7504 25.2982C19.1983 25.1941 20.6461 25.3011 22.0543 25.6836C22.8758 25.9066 23.9005 26.197 24.4466 26.853C22.2149 26.7906 19.9831 26.7291 17.7504 26.6667C15.5187 26.7291 13.287 26.7906 11.0543 26.853C11.6003 26.197 12.626 25.9075 13.4465 25.6836ZM12.849 30.0331C12.2801 29.9984 11.6182 29.931 11.199 29.5029C11.0186 29.3186 10.8997 29.0877 10.8164 28.8419L17.7504 28.6497L24.6844 28.8419C24.6012 29.0867 24.4823 29.3186 24.3019 29.5029C23.8827 29.93 23.2207 29.9984 22.6519 30.0331C21.0237 30.1312 19.3826 30.1174 17.7504 30.0827C16.1193 30.1164 14.4772 30.1312 12.849 30.0331ZM21.4191 58.9473C20.8978 57.2696 20.4836 55.5611 20.1952 53.8288C20.11 53.3165 19.449 52.9835 18.9763 53.1371C18.4213 53.3165 18.1924 53.8071 18.2846 54.3561C18.5442 55.914 18.9178 57.449 19.3658 58.9622C18.8276 58.9662 18.2895 58.9701 17.7514 58.9741C16.3284 58.9641 14.9043 58.9542 13.4812 58.9433C15.7367 50.3514 16.6058 41.4415 16.0142 32.5751C16.0013 32.3759 15.93 32.2192 15.8378 32.0815C16.476 32.0835 17.1132 32.0745 17.7504 32.0626C18.3886 32.0745 19.0258 32.0825 19.663 32.0815C19.5709 32.2183 19.4995 32.3749 19.4867 32.5751C18.895 41.4415 19.7641 50.3504 22.0196 58.9433C21.8204 58.9443 21.6203 58.9453 21.4191 58.9473Z" fill="black"/>
<path d="M0.97583 63.9983C7.65017 63.6624 14.3344 63.6405 21.0108 63.9348C22.2862 63.9913 22.2416 62.0093 20.9711 61.9528C14.2948 61.6595 7.61054 61.6804 0.936193 62.0164C-0.335252 62.0808 -0.301561 64.0628 0.97583 63.9983Z" fill="black"/>
<path d="M34.3921 61.8242C31.0713 61.9382 27.7475 61.9709 24.4247 61.9233C23.1513 61.9054 23.069 63.8855 24.3474 63.9043C27.6702 63.9519 30.994 63.9191 34.3148 63.8051C34.85 63.7873 35.3217 63.4167 35.3435 62.8538C35.3633 62.3474 34.9302 61.8054 34.3921 61.8242Z" fill="black"/>
</svg>
