<svg width="64" height="38" viewBox="0 0 64 38" fill="none" xmlns="http://www.w3.org/2000/svg">
<path d="M31.7522 29.6373C31.7702 29.4955 31.7575 29.34 31.6961 29.1697C29.2905 22.4691 20.2869 20.9553 14.1904 22.4946C11.0294 23.2922 7.4115 25.1583 7.0624 28.7974C6.89737 30.508 7.92034 31.1088 9.486 31.0992C11.5986 31.0865 13.7112 31.0559 15.8227 31.0336C20.8021 30.9818 25.7815 30.931 30.7599 30.8792C31.5163 30.8728 31.8379 30.2181 31.7522 29.6373Z" fill="#F7C300"/>
<path d="M61.03 27.9095C60.9781 27.3785 60.793 26.8549 60.3043 26.5682C59.8102 26.2794 59.1491 26.3492 58.5979 26.3333C57.4575 26.3005 56.3182 26.2667 55.1778 26.2339C54.0967 26.2021 52.9753 26.1557 51.9418 26.5291C51.8286 19.143 51.8772 11.7547 52.0983 4.37074C52.1078 4.03328 51.9851 3.78148 51.7947 3.61116C51.6265 3.37314 51.3652 3.19867 50.9886 3.18915C46.4524 3.06961 41.9173 2.95008 37.3811 2.83054C36.464 2.80621 36.1804 3.74877 36.4978 4.38456C36.4872 4.44909 36.4587 4.51043 36.4639 4.57813C36.702 7.57298 36.7908 10.5774 36.7295 13.5807C36.7242 13.8272 36.8056 14.0133 36.9157 14.171C36.9918 14.6978 37.3959 15.104 37.9482 15.1167C39.681 15.1569 41.4138 15.1982 43.1466 15.2384C43.5327 18.0259 43.3126 20.9911 43.1825 23.7701C43.0376 26.8581 42.8239 29.9439 42.826 33.0371C42.826 33.0858 42.8482 33.1176 42.8535 33.162C42.8197 33.326 42.7996 33.4898 42.8197 33.6506C42.9096 34.3658 43.484 34.589 44.105 34.6673C45.0846 34.7911 46.0695 34.7731 47.0554 34.7688C48.0308 34.7646 49.0019 34.8388 49.9773 34.8578C50.9283 34.8768 51.8825 34.8249 52.8335 34.7953C52.9118 34.7932 52.97 34.7625 53.0398 34.7466C53.4725 34.7403 53.9062 34.7224 54.3389 34.7097L57.4406 34.6219C57.905 34.6092 58.3705 34.5954 58.8359 34.5827C59.4802 34.5648 60.1731 34.607 60.5889 34.0125C60.9083 33.5576 60.8988 32.9493 60.9506 32.4108C60.9993 31.9062 61.0353 31.4016 61.0564 30.8949C61.1019 29.909 61.1262 28.8944 61.03 27.9095Z" fill="#F7C300"/>
<path d="M62.9786 35.6483C61.6573 35.6419 60.3361 35.6367 59.0158 35.6303C59.0634 34.3736 59.1004 33.1157 59.1205 31.8569C59.1301 31.1872 59.1586 30.5122 59.1375 29.8426C59.1142 29.0957 58.7831 28.3404 57.9897 28.1447C57.3676 27.9913 56.6324 28.1204 55.9987 28.1405L53.9126 28.2093C52.7066 28.2484 51.5006 28.2886 50.2957 28.3277C50.3391 21.1341 50.4195 13.9406 50.5771 6.74918C50.5888 6.22976 50.2873 5.91138 49.9085 5.78867C49.7467 5.65643 49.5489 5.55699 49.2833 5.5517C47.2469 5.51256 45.2105 5.49454 43.173 5.48184C43.1223 4.00822 43.0704 2.53351 43.0186 1.05882C42.9985 0.506612 42.5457 -0.0255005 41.9607 0.000946437C41.4043 0.0263355 40.8817 0.466413 40.9028 1.05882C40.9536 2.52927 41.0054 4.0008 41.0573 5.47125C38.9193 5.46808 36.7813 5.47231 34.6434 5.49876C34.0605 5.41095 33.411 5.73042 33.4215 6.49104C33.4564 8.95377 33.4184 11.4166 33.3337 13.8772C31.6813 13.7936 30.03 13.7491 28.3765 13.8697C28.3289 13.8729 28.295 13.8962 28.2496 13.9047C27.7185 13.9015 27.1822 14.24 27.1779 14.9255C27.1557 18.2811 27.1346 21.6367 27.1123 24.9912C27.0901 25.0769 27.0774 25.1647 27.0774 25.2567V25.2916C27.0764 25.3255 27.0965 25.3541 27.0996 25.3879C27.0901 25.4419 27.0774 25.4947 27.0774 25.5508V25.5815C25.0156 24.5945 22.737 24.0327 20.4033 23.947C14.8716 23.7439 9.79594 26.2447 5.392 29.3697C5.15503 29.5379 5.02386 29.7549 4.96567 29.9834C4.57849 30.1738 4.27383 30.5069 4.11515 31.0888C3.74701 32.4397 3.70151 33.9482 3.74065 35.3742C2.83405 35.37 1.92745 35.3658 1.02191 35.3616C-0.339578 35.3552 -0.341694 37.471 1.02191 37.4773C21.6738 37.5726 42.3257 37.6678 62.9776 37.763C64.3401 37.7704 64.3412 35.6546 62.9786 35.6483ZM19.4396 26.0544C23.25 25.9825 27.1441 27.3048 29.8205 30.0278C29.4545 30.0585 29.1191 30.0913 28.86 30.0934C25.2685 30.1219 21.6738 30.4043 18.0834 30.3102C14.9013 30.2277 11.7297 29.9199 8.54976 29.8057C11.8514 27.7291 15.481 26.1295 19.4396 26.0544ZM30.9884 35.5002C22.6079 35.4621 14.2274 35.4229 5.84689 35.3848C5.80246 34.2984 5.79188 33.1294 6.07222 32.1244C6.07962 31.5849 6.13887 31.5003 6.24888 31.8695C6.50595 31.8685 6.76407 31.8695 7.02113 31.8738C7.62201 31.8812 8.22288 31.8981 8.82376 31.9214C11.3986 32.0219 13.9672 32.2504 16.541 32.3689C19.0185 32.4831 21.4707 32.3985 23.9461 32.3075C25.1532 32.2631 26.3602 32.2377 27.5672 32.2218C28.6103 32.208 29.9189 32.0197 31.0254 32.1297C31.1841 33.2013 31.0201 34.5036 30.9884 35.5002ZM33.101 35.5107C33.1232 34.5713 33.1264 33.633 33.0925 32.6936C33.0745 32.2261 33.1232 31.6009 32.9888 31.0846C33.0439 30.8572 33.0068 30.6011 32.8206 30.342C31.9172 29.0789 30.8139 28.0294 29.5973 27.1408C30.2606 27.1493 30.9228 27.1577 31.5861 27.1651C32.1394 27.1714 32.6694 26.6732 32.644 26.1072C32.6186 25.5286 32.1796 25.0568 31.5861 25.0493C30.8001 25.0398 30.0152 25.0293 29.2291 25.0198C29.2366 24.5183 29.2514 24.0179 29.2524 23.5165C29.9951 23.4774 30.7388 23.4657 31.4814 23.4943C32.0347 23.5155 32.5647 22.9929 32.5393 22.4364C32.5128 21.8451 32.0749 21.4008 31.4814 21.3785C30.7388 21.351 29.9951 21.3627 29.2524 21.4008V21.35C29.2545 21.0094 29.2567 20.6698 29.2588 20.3292C30.1104 20.2699 30.9641 20.235 31.8178 20.2371C32.3711 20.2392 32.9011 19.7494 32.8757 19.1792C32.8503 18.6048 32.4113 18.1235 31.8178 18.1214C30.9683 18.1182 30.1199 18.1541 29.2725 18.2123C29.2746 17.8272 29.2768 17.4433 29.2799 17.0582C29.282 16.6858 29.2842 16.3144 29.2873 15.9421C30.8911 15.8786 32.4948 15.9378 34.0975 16.0299C34.1843 16.0542 34.2689 16.0849 34.3588 16.0849C34.4128 16.0849 34.4572 16.0617 34.508 16.0543C36.9993 16.2024 39.4895 16.3653 41.9798 16.1876C41.9533 16.8519 41.9353 17.5151 41.9131 18.1795C39.8079 18.1086 37.6996 18.3064 35.5955 18.1298C35.0433 18.0832 34.5143 18.6492 34.5376 19.1876C34.5651 19.8001 35.0031 20.1958 35.5955 20.2455C37.6753 20.4211 39.7603 20.2297 41.8412 20.2932C41.8317 20.6264 41.8168 20.9596 41.8073 21.2928C39.7286 21.3118 37.6488 21.331 35.5701 21.35C34.9988 21.3553 34.5122 21.8324 34.5122 22.4079C34.5122 22.977 34.9967 23.4711 35.5701 23.4658C37.635 23.4467 39.699 23.4276 41.7639 23.4086C41.7534 23.9692 41.7354 24.53 41.729 25.0896C39.6672 25.0896 37.6065 25.0896 35.5447 25.0896C34.9914 25.0896 34.4614 25.5763 34.4868 26.1475C34.5122 26.7209 34.9512 27.2054 35.5447 27.2054C37.6044 27.2054 39.6651 27.2054 41.7259 27.2054C41.7269 27.7195 41.7237 28.2337 41.7301 28.7478C39.6418 28.7689 37.5546 28.7594 35.4675 28.7097C34.9142 28.697 34.3842 29.2058 34.4096 29.7676C34.435 30.3515 34.874 30.8117 35.4675 30.8254C37.5695 30.8752 39.6736 30.8847 41.7756 30.8635C41.8242 32.426 41.9046 33.9874 42.0274 35.5478C39.0526 35.5383 36.0768 35.5234 33.101 35.5107ZM45.3523 19.8679C45.5564 20.0552 45.8156 20.1831 46.1002 20.1778C46.8217 20.163 47.5431 20.1969 48.2604 20.2667C48.2551 20.7935 48.2477 21.3204 48.2424 21.8472C47.5463 21.808 46.8492 21.7774 46.151 21.7647C45.8833 21.7594 45.5913 21.8863 45.403 22.0746C45.219 22.2576 45.0814 22.5591 45.0931 22.8225C45.1185 23.4044 45.5575 23.8698 46.151 23.8804C46.8418 23.8931 47.5315 23.9238 48.2212 23.9619C48.217 24.493 48.2096 25.025 48.2054 25.5561C47.4849 25.5624 46.7645 25.5932 46.0483 25.6746C45.7585 25.7074 45.5141 25.7709 45.3004 25.9845C45.1164 26.1676 44.9788 26.4691 44.9905 26.7325C45.0021 27.0065 45.092 27.2899 45.3004 27.4803C45.494 27.658 45.7754 27.8211 46.0483 27.7904C46.7592 27.71 47.4733 27.6792 48.1874 27.6718C48.1831 28.4028 48.1726 29.1328 48.1694 29.8638C47.4786 29.9093 46.7867 29.9262 46.0981 29.8426C45.8484 29.8119 45.5205 29.9822 45.3502 30.1525C45.1671 30.3355 45.0285 30.6371 45.0402 30.9005C45.0529 31.1745 45.1428 31.458 45.3502 31.6484L45.5638 31.8135C45.7289 31.9087 45.9066 31.9573 46.0981 31.9584C46.7836 32.0419 47.4712 32.025 48.1578 31.9795C48.1535 33.1792 48.1366 34.3788 48.1366 35.5784C46.8058 35.5721 45.4739 35.5657 44.1431 35.5605C43.6121 28.8123 43.8564 22.043 44.1315 15.2874C44.1516 15.208 44.1812 15.135 44.1823 15.0451C44.1875 14.5257 43.6914 13.9195 43.1244 13.9872C40.5664 14.294 38.0064 14.1522 35.4463 13.9966C35.5193 11.8693 35.5521 9.74079 35.5373 7.61129C39.8397 7.56791 44.1431 7.58279 48.4455 7.6579C48.4 9.82444 48.3757 11.9899 48.3461 14.1564C48.0498 14.1384 47.7526 14.1067 47.4585 14.0877C46.9634 14.057 46.4662 14.057 45.9711 14.0834C45.6908 14.0993 45.4253 14.1913 45.2232 14.3933C45.0391 14.5764 44.9016 14.8779 44.9132 15.1413C44.9376 15.6882 45.3787 16.232 45.9711 16.1992C46.4853 16.1706 47.0015 16.1727 47.5156 16.2065C47.7653 16.2235 48.0139 16.2532 48.2636 16.2743C48.2805 16.2754 48.2963 16.2733 48.3133 16.2743C48.3059 16.8995 48.291 17.5247 48.2847 18.1509C47.5579 18.079 46.8301 18.0452 46.1002 18.06C45.8262 18.0653 45.548 18.1742 45.3523 18.3699C45.1693 18.553 45.0307 18.8545 45.0423 19.1179C45.055 19.3929 45.1449 19.6764 45.3523 19.8679ZM57.0154 30.8772C57.0101 31.4485 57.0016 32.0198 56.991 32.59C56.9709 33.6002 56.9381 34.6095 56.9011 35.6197C54.6849 35.6092 52.4697 35.5996 50.2534 35.589C50.2545 33.8742 50.2756 32.1593 50.283 30.4435C51.4668 30.4043 52.6495 30.3663 53.8322 30.3271C54.4733 30.306 55.1154 30.2849 55.7576 30.2637L56.7202 30.2319C56.8207 30.2288 56.9202 30.2256 57.0207 30.2224C57.0196 30.4414 57.0175 30.6593 57.0154 30.8772Z" fill="black"/>
</svg>
