<svg width="64" height="36" viewBox="0 0 64 36" fill="none" xmlns="http://www.w3.org/2000/svg">
<path d="M63.8511 21.7854C63.823 21.6967 63.7851 21.6059 63.7268 21.5151C59.7309 15.2684 52.8258 11.9721 47.8883 6.62382C47.3532 6.04434 46.6472 6.29192 46.2915 6.79248C46.2494 6.826 46.1964 6.84217 46.1607 6.88433C43.7066 9.77742 41.0556 12.4974 38.2253 15.024C38.0912 15.1429 38.0155 15.2976 37.9734 15.4609C37.8015 15.5841 37.6512 15.7506 37.5744 16.0079C36.236 20.4999 34.5505 24.8742 32.531 29.1035C32.1991 29.6592 31.8521 30.2074 31.4877 30.7469C31.0207 31.4388 31.505 32.1005 32.1342 32.2778C32.2672 32.3491 32.4207 32.3967 32.6002 32.4075C41.8514 32.974 51.069 32.7674 60.3083 32.1014C60.7072 32.0723 60.9786 31.8636 61.1472 31.5944C61.2218 31.5252 61.2996 31.4561 61.3483 31.362C62.8165 28.5338 63.7008 25.4796 63.997 22.3076C64.0154 22.1173 63.9473 21.9443 63.8511 21.7854Z" fill="#F7C300"/>
<path d="M13.1486 1.13665C11.8426 0.445817 10.2263 0.810126 9.45113 2.10639C6.39696 7.20928 3.66929 12.4992 1.28433 17.947C0.718908 19.2389 0.86162 20.9093 2.2541 21.6444C3.42496 22.2628 5.34611 22.0575 5.95154 20.6747C8.33757 15.2269 11.0642 9.93703 14.1183 4.83414C14.8448 3.62004 14.4297 1.81344 13.1486 1.13665Z" fill="#F7C300"/>
<path d="M58.2822 29.2877C59.2141 27.6314 60.0185 25.8908 60.5439 24.0616C60.8174 23.7567 60.9266 23.3146 60.6617 22.854C56.6551 15.8862 48.9305 12.4968 43.8741 6.47064C43.5692 6.10738 43.194 6.06098 42.8632 6.1799C42.4967 6.08152 42.0816 6.1431 41.8199 6.435C39.7853 8.7032 37.623 10.9173 35.2619 12.8568C31.7904 9.18423 28.3211 5.50953 24.8517 1.83588C23.9793 0.912605 22.6581 2.09646 23.1447 3.0792C23.1425 3.12353 23.1241 3.15595 23.1263 3.20352C23.2593 5.45982 23.3317 7.7183 23.3609 9.97676C22.7025 9.22754 22.0289 8.49243 21.3143 7.7843C19.0926 5.58205 16.792 3.44996 15.4784 0.553635C15.1638 -0.138283 14.4741 -0.111129 13.9984 0.249965C13.7605 0.307265 13.5346 0.4413 13.3594 0.684552C8.40897 7.54427 4.20773 14.9089 0.82166 22.6616C0.731927 22.8692 0.72327 23.0659 0.745973 23.2551C0.74273 23.4367 0.77301 23.6249 0.896258 23.8216C1.94495 25.5006 2.70064 27.2779 3.37418 29.1331C3.86933 30.4964 4.36665 31.8694 5.0164 33.1668C3.69203 33.1808 2.36766 33.196 1.04436 33.2101C-0.345958 33.2252 -0.350283 35.3874 1.04436 35.3723C9.99389 35.275 18.9456 35.1777 27.8951 35.0804C28.0746 35.129 28.2551 35.1279 28.4292 35.075C38.7604 34.9625 49.0926 34.8501 59.4238 34.7376C60.8142 34.7225 60.8185 32.5603 59.4238 32.5754C58.3687 32.5873 57.3146 32.5981 56.2605 32.61C56.4335 32.344 56.6021 32.0738 56.774 31.8014C57.293 30.9722 57.8032 30.1385 58.2822 29.2877ZM11.9356 6.61343C13.6665 14.6775 15.8968 22.6215 18.5639 30.424C17.6396 29.8369 16.7455 29.2066 15.9249 28.4812C14.5195 27.2379 13.3443 25.7785 12.3551 24.1881C10.3723 21.001 9.1117 17.4462 7.88138 13.9196C7.84246 13.8104 7.77975 13.7325 7.72137 13.6493C9.05006 11.2589 10.4458 8.90757 11.9356 6.61343ZM5.3321 28.2045C4.68559 26.4368 3.94392 24.7233 2.98173 23.107C3.04984 22.9513 3.12768 22.801 3.19687 22.6454C4.7018 24.8098 6.20564 26.9742 7.71056 29.1386C8.68033 30.5332 9.67496 31.8976 10.8469 33.102C9.72361 33.1139 8.6014 33.1268 7.4792 33.1387C6.55159 31.5883 5.9505 29.8964 5.3321 28.2045ZM13.967 33.0684C13.8848 32.9603 13.7865 32.8619 13.6719 32.7776C11.8426 31.4391 10.5734 29.4813 9.29872 27.6466C7.74191 25.4065 6.18401 23.1653 4.6272 20.9252C4.50935 20.7566 4.35044 20.6356 4.17854 20.5437C4.88559 19.0636 5.61317 17.5933 6.37645 16.1424C7.52892 19.3858 8.7906 22.6227 10.6458 25.5276C11.6945 27.171 12.9345 28.7159 14.3973 30.0089C15.7087 31.169 17.1714 32.1225 18.6699 33.0166C17.1012 33.035 15.5346 33.0522 13.967 33.0684ZM21.843 32.9831L21.7305 32.9841C21.7597 32.703 21.6711 32.4241 21.4408 32.197C18.2699 23.2691 15.7001 14.1412 13.7648 4.86519C13.714 4.62194 13.594 4.46088 13.4524 4.33439C13.7508 3.89762 14.0438 3.45873 14.3476 3.02628C15.66 5.22744 17.4958 7.05556 19.324 8.85671C20.7792 10.2903 22.1079 11.793 23.363 13.3682C23.296 19.9306 22.7976 26.4844 21.843 32.9831ZM49.7532 21.7285C49.2429 22.2518 48.7272 22.7686 48.2115 23.2865C47.8731 21.5145 47.4612 19.7588 46.965 18.0279C47.7899 16.9662 48.6429 15.9261 49.5489 14.9272C49.6408 17.1943 49.6959 19.4614 49.7532 21.7285ZM48.0677 13.339C47.4169 14.0515 46.7996 14.79 46.1931 15.5381C45.5293 13.5456 44.7628 11.5865 43.8979 9.6686C45.2006 10.9757 46.618 12.1736 48.0677 13.339ZM36.5711 14.6721C36.5819 14.6343 36.5711 14.6029 36.5776 14.5661C38.3593 13.1228 40.0199 11.5152 41.6026 9.84597C42.7811 12.3628 43.7735 14.9575 44.5822 17.6106C42.3086 20.654 40.2393 23.8573 37.9906 26.919C37.9787 26.9115 37.9744 26.8996 37.9614 26.892C36.3808 25.9352 35.0143 24.7513 33.7602 23.4529C34.8175 20.5674 35.7624 17.6409 36.5711 14.6721ZM30.5763 11.0438C31.6531 12.1833 32.7288 13.3229 33.8056 14.4624C33.9569 14.6224 34.1234 14.7013 34.291 14.7456C33.6456 17.0592 32.8985 19.3382 32.1017 21.5999C31.2477 20.5663 30.4476 19.4809 29.6638 18.3846C29.9654 15.938 30.2822 13.4925 30.5763 11.0438ZM25.6929 32.9408C25.1318 32.9473 24.5717 32.9527 24.0117 32.9592C24.8096 27.3827 25.2939 21.775 25.4604 16.1553C26.1156 17.0851 26.7707 18.0214 27.4324 18.9533C26.8561 23.6162 26.294 28.2812 25.6929 32.9408ZM27.8259 15.777C27.4648 15.2591 27.1037 14.7424 26.7383 14.2331C26.3415 13.6796 25.9361 13.1347 25.5242 12.5973C25.5372 10.2524 25.4961 7.90645 25.3966 5.56042C26.5286 6.75938 27.6616 7.95824 28.7946 9.15721C28.6919 9.30316 28.6097 9.46866 28.5849 9.67731C28.3405 11.712 28.0746 13.7434 27.8259 15.777ZM28.0292 31.5354C28.4595 28.1818 28.8627 24.8238 29.2811 21.468C29.9254 22.3091 30.5828 23.1384 31.2801 23.9287C30.3028 26.5061 29.2054 29.037 28.0292 31.5354ZM33.2585 32.8587C32.1071 32.8717 30.9568 32.8835 29.8054 32.8965C30.9352 30.5191 31.958 28.0941 32.9148 25.6443C34.0586 26.7535 35.2943 27.7709 36.6792 28.6336C35.6846 29.9061 34.6543 31.1505 33.5277 32.3192C33.3645 32.489 33.2931 32.6739 33.2585 32.8587ZM38.2566 32.8046C37.4944 32.8133 36.7311 32.8208 35.9689 32.8294C39.4772 28.9331 42.2481 24.4594 45.3174 20.2204C45.7131 21.7685 46.0547 23.3318 46.3282 24.9113C46.3401 24.9794 46.3736 25.0216 46.3952 25.08C43.8589 27.5406 41.2459 29.9213 38.5452 32.2014C38.3625 32.3538 38.2836 32.5744 38.2566 32.8046ZM44.1995 32.7398C43.1919 32.7506 42.1854 32.7613 41.1777 32.7732C44.1714 30.1969 47.0428 27.4844 49.8289 24.6854C49.8397 25.2735 49.8354 25.8628 49.844 26.4509C49.8192 26.4834 49.7954 26.5136 49.7889 26.5201C49.7424 26.5785 49.6959 26.6369 49.6483 26.6942C49.4364 26.9547 49.2181 27.2098 48.9943 27.4607C48.5348 27.9774 48.0548 28.4758 47.5672 28.9666C46.5607 29.9774 45.5304 30.9656 44.5087 31.9613C44.3033 32.1613 44.1995 32.4512 44.1995 32.7398ZM46.8439 32.7105C47.8731 31.7191 48.8948 30.717 49.8711 29.6737C49.8765 30.6748 49.897 31.6759 49.8959 32.677L46.8439 32.7105ZM51.7511 16.284C54.3101 18.3792 56.7221 20.6031 58.4757 23.4356C58.333 23.9351 58.1622 24.4217 57.9795 24.9028C56.174 23.3222 54.1253 22.0789 51.8982 21.1869C51.856 19.5523 51.8127 17.9176 51.7511 16.284ZM55.1805 30.2694C54.9383 30.6597 54.6929 31.0478 54.4474 31.4359C54.2993 31.6705 54.1447 32.0046 53.9177 32.1754C53.749 32.3019 53.6269 32.4641 53.5328 32.6393C53.0409 32.6447 52.549 32.6501 52.0571 32.6555C52.0582 30.8414 52.0257 29.0283 52.0041 27.2141C52.975 28.0455 53.9642 28.8564 54.988 29.6218C55.1134 29.7159 55.2994 29.7549 55.481 29.7613C55.3794 29.9289 55.2842 30.1019 55.1805 30.2694ZM56.441 28.1451C56.3481 27.9991 56.2345 27.8704 56.081 27.7547C55.908 27.625 55.7351 27.4942 55.5632 27.3623C55.5534 27.3548 55.5253 27.333 55.5026 27.3157C55.4929 27.3082 55.4832 27.3006 55.4788 27.2974C55.3988 27.2347 55.3177 27.172 55.2377 27.1093C54.8972 26.8412 54.5599 26.5687 54.2258 26.2919C53.5685 25.747 52.9231 25.186 52.2928 24.6098C52.2009 24.5265 52.0917 24.4649 51.9782 24.4141C51.9728 24.1222 51.976 23.8302 51.9695 23.5383C52.1047 23.601 52.242 23.6605 52.3771 23.7265C52.936 23.9989 53.4809 24.2984 54.0107 24.6217C54.5253 24.9363 55.0248 25.2746 55.5069 25.6357C55.5556 25.6725 55.6042 25.7092 55.6529 25.7459C55.668 25.7578 55.7026 25.7849 55.7221 25.8011C55.8356 25.8919 55.9502 25.9838 56.0626 26.0768C56.3156 26.2865 56.5621 26.5038 56.8054 26.7254C56.8919 26.8044 56.9957 26.8595 57.1005 26.9093C56.9092 27.292 56.7091 27.6704 56.5005 28.0456C56.481 28.0791 56.4594 28.1116 56.441 28.1451Z" fill="black"/>
</svg>
