<svg width="197" height="814" viewBox="0 0 197 814" fill="none" xmlns="http://www.w3.org/2000/svg">
<g clip-path="url(#clip0)">
<path d="M122.744 97.1891C124.216 97.6651 125.623 98.4113 126.965 99.1833C128.645 100.148 127.121 102.747 125.441 101.769C124.464 101.203 123.434 100.586 122.353 100.174C122.223 101.293 122.119 102.425 122.001 103.558C122.496 103.738 123.005 103.892 123.487 104.072C122.978 104.072 122.457 104.072 121.949 104.098C121.91 104.51 121.858 104.921 121.819 105.333C124.281 106.131 129.505 107.958 127.72 111.329C127.043 112.602 125.402 113.542 124.138 114.146C123.226 114.571 122.275 114.88 121.311 115.098C121.311 116.398 121.337 117.684 121.428 118.984C121.454 119.331 121.35 119.589 121.207 119.807C124.828 120.502 128.333 121.763 131.655 123.32C132.436 123.68 133.257 124.092 134.104 124.503C134.117 124.4 134.143 124.298 134.182 124.195C134.586 123.05 135.029 121.93 135.498 120.811C133.075 119.666 130.938 117.44 131.603 114.61C131.785 113.825 132.41 113.207 133.296 113.31C134.052 113.4 134.794 114.198 134.612 114.983C134.26 116.501 135.289 117.504 136.67 118.122C137.374 116.591 138.142 115.086 138.924 113.58C137.217 111.998 135.641 110.042 136.123 107.713C136.722 104.831 139.745 103.185 142.572 103.673C143.145 103.776 143.666 103.944 144.174 104.15C144.278 103.995 144.382 103.841 144.487 103.686C137.986 99.3763 131.225 95.5294 123.76 93.2135C123.76 93.3808 123.734 93.5609 123.656 93.7539C123.213 94.8732 122.939 96.0183 122.744 97.1891Z" fill="#F7C300"/>
<path d="M164.614 126.33C165.187 128.17 162.282 129.058 161.709 127.205C161.37 126.125 161.044 124.992 160.536 123.963C159.221 125.095 157.905 126.227 156.602 127.385C156.615 127.411 156.641 127.45 156.654 127.488C157.553 128.325 158.413 129.187 159.182 130.139C163.103 134.951 169.838 129.598 167.754 124.439C167.167 122.972 166.399 121.621 165.513 120.361C164.575 120.849 163.715 121.416 162.881 122.046C163.637 123.358 164.158 124.851 164.614 126.33Z" fill="#F7C300"/>
<path d="M149.841 109.193C151.013 110.737 148.603 112.538 147.418 110.994C146.727 110.094 146.024 109.142 145.19 108.344C144.343 109.849 143.497 111.367 142.676 112.886C144.63 114.558 148.747 118.238 145.776 120.669C144.656 121.596 142.78 121.827 141.36 121.905C140.344 121.956 139.354 121.879 138.377 121.699C137.869 122.895 137.387 124.092 136.957 125.327C136.879 125.533 136.774 125.713 136.657 125.841C140.136 127.72 143.783 130.01 146.727 132.75C146.845 132.635 146.936 132.506 147.053 132.377C145.177 130.473 143.94 127.668 145.555 125.224C146.011 124.542 146.806 124.182 147.6 124.581C148.278 124.928 148.695 125.919 148.252 126.601C147.392 127.9 148.004 129.187 149.098 130.242C150.297 129.045 151.534 127.887 152.798 126.742C152.303 125.764 151.873 124.722 151.678 123.693C151.548 123.59 151.417 123.487 151.287 123.384C151.417 123.461 151.534 123.551 151.665 123.641C151.456 122.496 151.548 121.351 152.212 120.296C153.775 117.787 157.175 117.273 159.677 118.688C160.185 118.971 160.615 119.318 161.018 119.679C161.839 119.048 162.699 118.469 163.611 117.968C159.312 113.194 153.254 109.708 148.108 106.157C147.73 105.899 147.353 105.642 146.975 105.372C146.897 105.5 146.806 105.603 146.727 105.732C147.9 106.736 148.903 107.971 149.841 109.193Z" fill="#F7C300"/>
<path d="M156.224 120.927C154.231 121.351 154.479 123.05 155.156 124.658C156.329 123.628 157.501 122.612 158.686 121.609C157.97 121.081 157.11 120.734 156.224 120.927Z" fill="#F7C300"/>
<path d="M142.637 106.761C141.777 106.504 140.852 106.478 140.083 106.954C138.364 108.035 139.185 109.54 140.383 110.827C141.126 109.463 141.881 108.112 142.637 106.761Z" fill="#F7C300"/>
<path d="M141.256 115.613C140.709 116.694 140.162 117.787 139.654 118.881C140.149 118.932 140.618 118.958 140.995 118.932C141.712 118.907 142.428 118.804 143.119 118.624C143.223 118.598 143.484 118.482 143.666 118.418C143.627 118.341 143.588 118.225 143.575 118.199C143.015 117.196 142.129 116.372 141.256 115.613Z" fill="#F7C300"/>
<path d="M117.09 100.843C116.804 101.242 116.673 101.615 116.66 101.949C117.481 102.142 118.276 102.374 119.07 102.606C119.174 101.641 119.279 100.663 119.383 99.6979C118.484 99.7879 117.624 100.11 117.09 100.843Z" fill="#F7C300"/>
<path d="M107.619 111.367C107.007 113.078 107.398 115.098 108.622 116.449C111.228 119.318 113.781 119.01 117.455 119.293C117.794 119.318 118.132 119.37 118.484 119.396C118.445 119.267 118.393 119.151 118.38 118.997C118.302 117.787 118.276 116.578 118.263 115.381C115.579 115.253 112.739 114.018 112.244 111.149C112.101 110.351 112.439 109.54 113.299 109.309C114.029 109.103 115.032 109.553 115.162 110.351C115.423 111.882 116.764 112.409 118.289 112.461C118.341 110.775 118.458 109.09 118.588 107.417C117.181 106.89 115.774 106.208 114.823 105.179C111.488 106.221 108.792 108.125 107.619 111.367Z" fill="#F7C300"/>
<path d="M156.811 135.735C155.443 136.224 153.58 135.813 152.238 135.401C151.274 135.105 150.362 134.693 149.502 134.204C149.281 134.449 149.072 134.693 148.851 134.938C150.714 137.112 152.082 139.531 152.551 142.194C153.723 148.717 163.937 146.646 162.764 140.11C162.022 135.967 160.159 132.467 157.644 129.431C158.752 131.785 159.546 134.77 156.811 135.735Z" fill="#F7C300"/>
<path d="M118.106 96.8803C118.666 96.7516 119.227 96.713 119.774 96.713C119.969 95.4522 120.243 94.2042 120.725 93.0076C120.816 92.7889 120.933 92.6217 121.063 92.4801C120.699 92.3901 120.334 92.2872 119.969 92.21C114.654 90.9877 111.384 97.292 113.977 100.431C114.615 98.6815 116.191 97.3049 118.106 96.8803Z" fill="#F7C300"/>
<path d="M124.451 110.467C124.529 110.402 124.737 110.196 124.88 110.068C124.815 110.004 124.737 109.926 124.711 109.901C123.812 109.18 122.666 108.756 121.558 108.395C121.467 109.605 121.402 110.814 121.363 112.023C121.845 111.882 122.275 111.728 122.614 111.56C123.252 111.251 123.89 110.891 124.451 110.467Z" fill="#F7C300"/>
<path d="M151.665 131.979C152.108 132.197 152.538 132.364 152.902 132.48C153.58 132.686 154.296 132.853 155.013 132.918C155.117 132.931 155.404 132.905 155.599 132.905C155.599 132.815 155.599 132.699 155.586 132.673C155.417 131.541 154.869 130.473 154.309 129.457C153.41 130.28 152.525 131.116 151.665 131.979Z" fill="#F7C300"/>
<path d="M5.3152 171.142C5.10676 171.181 4.89832 171.22 4.68989 171.258C3.94733 171.413 3.5044 171.876 3.30899 172.416C3.16568 172.57 3.04844 172.763 2.95725 172.982C0.573236 178.836 -0.078133 185.192 3.12608e-05 191.458C0.0781955 198.084 0.820756 204.684 2.20166 211.155C2.29285 211.58 2.48826 211.889 2.73578 212.133C2.95725 213.047 3.75192 213.819 4.96346 213.574C5.04163 213.561 5.11979 213.548 5.21098 213.523C5.18493 213.445 5.14585 213.368 5.11979 213.278C1.71965 199.422 3.07449 185.076 5.3152 171.142Z" fill="#F7C300"/>
<path d="M38.3787 208.621C37.0368 197.234 38.3787 185.655 42.3129 174.86C31.383 172.673 20.2055 171.863 9.06706 172.326C6.96965 185.629 5.69297 199.28 8.93679 212.506C8.96284 212.609 8.96284 212.712 8.97587 212.802C9.61421 212.673 10.2656 212.558 10.9039 212.429C11.0993 212.3 11.3208 212.197 11.5553 212.12C20.1664 209.238 29.3116 208.08 38.3787 208.621ZM13.7048 175.427C19.9058 175.645 26.0938 176.096 32.2688 176.777C34.7701 177.048 34.5095 180.907 32.0083 180.624C25.8463 179.943 19.6453 179.492 13.4443 179.273C10.93 179.196 11.2036 175.337 13.7048 175.427ZM12.6235 183.802C17.0398 183.249 21.5082 183.236 25.9245 183.841C27.0058 183.995 27.7744 184.78 27.7483 185.887C27.7223 186.877 26.6801 187.829 25.677 187.688C21.5733 187.122 17.4437 187.07 13.4182 187.572C12.363 187.701 11.3338 187.16 11.1124 186.067C10.9039 185.127 11.5813 183.944 12.6235 183.802ZM12.6235 192.461C17.6391 190.788 22.7719 191.059 27.9568 191.625C29.012 191.741 29.8457 192.59 29.7806 193.67C29.7155 194.674 28.7514 195.587 27.7092 195.472C25.234 195.201 22.7328 194.931 20.2315 194.983C17.9127 195.034 15.6198 195.497 13.4182 196.231C12.4151 196.565 11.3078 195.652 11.1124 194.725C10.8779 193.645 11.6335 192.796 12.6235 192.461Z" fill="#F7C300"/>
<path d="M132.059 336.559C133.987 345.913 134.82 355.459 134.586 364.993C142.767 362.78 151.313 363.333 159.729 364.157C161.018 352.886 159.638 341.423 155.625 330.782C147.131 331.863 138.611 332.79 130.078 333.523C129.935 333.536 129.805 333.536 129.662 333.523C129.635 333.819 129.662 334.128 129.779 334.449C129.857 334.655 129.922 334.874 130 335.093C130.886 335.015 131.824 335.44 132.059 336.559ZM136.266 343.88C136.292 342.773 137.322 342.092 138.338 342.079C140.188 342.053 142.025 341.989 143.861 341.886C145.581 341.796 147.209 341.667 149.072 341.487C150.167 341.384 151.105 341.886 151.378 342.992C151.613 343.931 150.883 345.179 149.854 345.269C145.933 345.643 141.998 345.874 138.064 345.938C136.996 345.951 136.253 344.858 136.266 343.88ZM153.215 357.016C153.384 356.862 153.593 356.733 153.801 356.617C154.231 356.386 154.791 356.296 155.273 356.321C155.807 356.347 156.224 356.527 156.68 356.772C156.902 356.887 157.097 357.093 157.267 357.248C157.436 357.415 157.579 357.646 157.696 357.839C157.827 358.058 157.918 358.315 157.957 358.56C157.957 358.586 157.97 358.611 157.97 358.637C157.983 358.804 158.009 359.01 158.009 359.177C158.009 359.37 157.931 359.654 157.892 359.795C157.879 359.846 157.866 359.885 157.84 359.937C157.775 360.078 157.683 360.271 157.605 360.4C157.592 360.425 157.579 360.438 157.566 360.451C157.423 360.631 157.28 360.824 157.084 360.953C156.85 361.12 156.693 361.223 156.524 361.3C156.446 361.352 156.368 361.416 156.289 361.468C155.873 361.712 155.378 361.776 154.909 361.764C154.87 361.764 154.817 361.764 154.778 361.751C154.583 361.712 154.374 361.686 154.179 361.622C154.153 361.609 154.114 361.596 154.088 361.583C154.088 361.583 154.088 361.583 154.075 361.583C152.824 361.506 152.264 360.503 152.316 359.551C152.277 359.345 152.264 359.139 152.277 358.933C152.29 358.444 152.485 357.955 152.733 357.556C152.759 357.518 152.785 357.479 152.824 357.441C152.837 357.415 152.863 357.402 152.876 357.376C152.954 357.26 153.046 357.158 153.163 357.067C153.176 357.067 153.202 357.042 153.215 357.016ZM152.889 349.489C152.863 350.622 151.834 351.226 150.818 351.291C148.838 351.419 146.858 351.548 144.891 351.677C143.275 351.78 141.373 351.792 139.979 352.346C138.963 352.757 137.908 352.449 137.361 351.484C136.879 350.622 137.283 349.284 138.234 348.898C140.305 348.061 142.48 347.997 144.695 347.855C146.819 347.714 148.955 347.585 151.079 347.444C152.16 347.367 152.915 348.55 152.889 349.489ZM136.553 335.569C140.917 335.028 145.32 334.771 149.711 334.784C150.805 334.784 151.548 335.839 151.534 336.829C151.508 337.923 150.479 338.631 149.463 338.631C145.333 338.618 141.425 338.849 137.348 339.338C136.253 339.467 135.315 338.914 135.042 337.833C134.794 336.894 135.537 335.697 136.553 335.569Z" fill="#F7C300"/>
<path d="M163.389 366.344C163.389 366.357 163.376 366.369 163.376 366.369C163.481 366.382 163.585 366.395 163.702 366.408C164.718 366.537 165.617 365.585 165.708 364.607C166.164 358.92 166.073 353.079 165.995 347.379C165.917 341.834 165.396 336.521 163.741 331.22C162.999 328.865 161.123 328.801 159.103 328.955C163.637 340.869 165.174 353.722 163.389 366.344Z" fill="#F7C300"/>
<path d="M190.069 535.144C189.978 535.144 189.887 535.17 189.796 535.157C186.109 534.771 182.748 533.034 179.4 531.581C178.358 531.13 177.329 530.667 176.3 530.204C177.394 531.478 178.449 532.79 179.478 534.128C182.045 537.486 184.559 540.883 187.086 544.266C187.099 544.266 187.099 544.266 187.112 544.266C188.428 544.871 189.744 545.489 191.047 546.119C190.838 542.465 190.578 538.785 190.069 535.144Z" fill="#F7C300"/>
<path d="M160.588 549.284C162.334 550.365 164.093 551.445 165.839 552.526C164.288 550.661 162.712 548.808 161.422 546.775C160.992 547.547 160.536 548.306 160.067 549.065C160.224 549.104 160.406 549.168 160.588 549.284Z" fill="#F7C300"/>
<path d="M172.027 564.003C174.085 560.953 176.156 557.904 178.215 554.855C174.867 552.925 171.479 551.072 168.066 549.258C170.281 551.922 172.587 554.52 173.863 557.801C174.554 559.564 172.769 561.339 171.023 560.259C166.816 557.66 162.608 555.074 158.4 552.475C158.074 552.269 157.866 552.024 157.722 551.767C157.657 551.947 157.605 552.14 157.592 552.333C163.311 554.958 168.288 558.972 172.027 564.003Z" fill="#F7C300"/>
<path d="M166.008 531.735C166.216 531.851 166.373 532.018 166.503 532.198C166.672 532.25 166.855 532.288 166.998 532.365C167.701 532.687 167.324 532.25 167.376 532.816C167.441 533.42 166.894 534.501 166.503 535.299C171.049 537.345 175.596 539.403 180.143 541.449C178.827 539.686 177.498 537.924 176.156 536.174C173.538 532.79 170.059 529.805 168.001 526.061C167.975 526.023 167.975 525.971 167.949 525.92C165.344 526.743 162.816 527.811 160.419 529.2C160.419 529.213 160.432 529.239 160.432 529.252C162.373 529.921 164.236 530.744 166.008 531.735Z" fill="#F7C300"/>
<path d="M185.862 530.217C184.937 529.007 183.881 527.888 182.67 526.91C181.432 525.907 181.888 524.221 182.878 523.565C179.608 523.681 176.352 524.003 173.16 524.62C175.466 525.649 177.772 526.679 180.09 527.695C181.966 528.493 183.881 529.471 185.862 530.217Z" fill="#F7C300"/>
<path d="M188.532 527.386C188.181 526.087 187.803 524.8 187.334 523.526C186.422 523.514 185.497 523.514 184.572 523.526C184.663 523.578 184.767 523.642 184.859 523.719C186.226 524.826 187.438 526.048 188.532 527.386Z" fill="#F7C300"/>
<path d="M173.368 545.077C175.596 547.187 178.879 548.705 180.625 551.291C181.55 549.914 182.488 548.538 183.412 547.174C178.853 545.115 174.293 543.057 169.747 541.011C170.841 542.439 172.04 543.816 173.368 545.077Z" fill="#F7C300"/>
<path d="M196.766 550.738C197.235 549.181 196.87 547.367 196.726 545.784C196.518 543.559 196.218 541.346 195.945 539.12C195.697 537.113 195.45 535.093 195.28 533.073C195.098 530.886 195.215 528.724 195.124 526.55C195.007 523.629 193.196 522.459 190.916 522.034C194.03 530.718 194.616 539.892 195.072 549.039C195.124 549.992 194.134 550.763 193.235 550.828C193.157 550.854 193.066 550.892 192.988 550.905C192.427 551.021 191.985 550.854 191.503 550.609C191.294 550.506 191.099 550.403 190.89 550.3C189.666 549.696 188.415 549.117 187.177 548.538C182.957 554.778 178.723 561.018 174.502 567.258C175.778 567.245 176.703 566.408 177.576 565.418C178.97 563.848 180.325 562.253 181.641 560.632C182.904 559.062 184.116 557.467 185.301 555.846C185.888 555.035 186.474 554.212 187.047 553.388C187.334 552.976 187.607 552.552 187.894 552.14C188.272 551.587 188.102 551.523 188.676 551.626C189.392 551.754 190.239 552.603 190.903 552.912C191.607 553.234 192.362 553.414 193.144 553.414C194.864 553.414 196.284 552.346 196.766 550.738Z" fill="#F7C300"/>
<path d="M167.754 544.755C166.555 543.327 165.513 541.796 164.549 540.201C164.223 540.998 163.884 541.783 163.533 542.568C164.94 543.289 166.347 544.035 167.754 544.755Z" fill="#F7C300"/>
<path d="M71.0644 578.014L71.2077 574.617C71.2468 573.845 71.6506 573.137 72.315 572.726L72.8361 572.404C72.9794 572.314 73.1618 572.211 73.3442 572.082C73.8783 571.632 74.5687 571.22 75.181 570.847C75.4416 570.693 75.7021 570.539 75.9366 570.384L71.9242 568.905C71.5724 568.776 71.2468 568.557 70.9862 568.274C70.895 568.171 70.8169 568.055 70.7517 567.94C69.9961 566.486 69.6574 564.787 69.3317 563.141L67.0389 565.997C65.5017 567.927 62.9744 567.528 60.9421 567.206C60.7206 567.168 60.4992 567.129 60.2907 567.103L62.6748 570.667C62.8832 570.976 63.0135 571.349 63.0525 571.722C63.0916 572.082 63.0395 572.468 62.8962 572.816C62.6096 573.485 62.3751 574.141 62.1537 574.784C61.9192 575.453 61.6847 576.135 61.3981 576.804L65.4756 575.685C65.5668 575.659 65.645 575.646 65.7362 575.633C66.4266 575.531 67.1171 575.723 67.6382 576.148L68.8367 577.139C69.3969 577.435 69.9571 577.949 70.4912 578.438C70.5824 578.528 70.7647 578.683 70.9471 578.85C70.9732 578.824 71.0123 578.798 71.0514 578.773C71.0644 578.477 71.0644 578.232 71.0644 578.014Z" fill="#F7C300"/>
<path d="M14.8382 534.231L15.3593 533.884C15.8283 533.575 16.3233 533.305 16.8574 533.022L17.0007 532.944C18.095 532.365 19.4499 531.658 19.4629 531.002L19.4759 530.062C19.4629 530.075 19.4369 530.088 19.4238 530.101C17.9126 531.079 16.3884 532.031 14.8642 532.97C14.1217 533.433 13.6397 534.192 13.8221 535.093C13.8481 535.196 13.9002 535.286 13.9393 535.389C14.1087 534.926 14.4083 534.514 14.8382 534.231Z" fill="#F7C300"/>
<path d="M27.3315 539.686C27.3836 539.609 27.4487 539.545 27.5008 539.48C27.9829 538.978 28.6473 538.721 29.3247 538.747L30.888 538.811C31.5133 538.708 32.2689 538.785 32.9984 538.863C33.1547 538.876 33.4544 538.914 33.754 538.927C33.7149 538.876 33.6758 538.837 33.6498 538.798C33.4544 538.554 33.298 538.361 33.1678 538.181L33.1547 538.168L31.1876 535.389C30.7447 534.758 30.6404 533.948 30.914 533.227L31.1225 532.661C31.1876 532.494 31.2527 532.314 31.3309 532.108C31.4742 531.426 31.7738 530.68 32.0344 530.024C32.1516 529.741 32.2558 529.471 32.347 529.2L28.2564 530.436C27.8917 530.551 27.5008 530.564 27.123 530.5C26.9797 530.474 26.8495 530.436 26.7453 530.371C25.2471 529.676 23.9313 528.531 22.6677 527.399L22.6025 531.04C22.5635 533.498 20.3097 534.694 18.4989 535.659C18.3035 535.762 18.1081 535.865 17.9257 535.968L22.0163 537.357C22.3811 537.473 22.7068 537.692 22.9673 537.975C23.2279 538.245 23.4102 538.567 23.5145 538.94C23.6968 539.648 23.9183 540.304 24.1398 540.947C24.3612 541.616 24.5957 542.298 24.7781 543.005L27.3315 539.686Z" fill="#F7C300"/>
<path d="M22.0814 545.437C22.0554 545.347 22.0423 545.283 22.0423 545.218C21.899 544.138 21.5603 543.096 21.1825 541.989C21.0002 541.436 20.7917 540.818 20.6093 540.162L19.9189 539.931C19.984 540.136 20.0492 540.342 20.1013 540.548C20.5312 542.131 20.8047 543.752 21.0913 545.373C21.2216 546.119 21.899 546.711 22.6156 546.852C22.837 546.891 23.0455 546.891 23.2539 546.865C23.0976 546.775 22.9412 546.685 22.811 546.569C22.4462 546.261 22.1987 545.875 22.0814 545.437Z" fill="#F7C300"/>
<path d="M69.1233 753.942C71.2467 750.7 73.9043 747.805 77.0179 745.463C78.529 744.331 80.6655 743.521 81.9683 742.182C83.271 740.844 83.1407 738.786 83.3622 737.062C83.5316 735.75 83.8703 734.514 84.4174 733.447C82.5675 734.218 80.9261 735.415 79.7145 737.062C78.6854 738.451 78.1903 740.072 77.3957 741.565C77.4087 741.526 77.3045 741.681 77.096 742.041C77.0179 742.105 76.9136 742.195 76.7573 742.337C76.2883 742.71 75.7933 743.07 75.3504 743.469C73.6698 744.961 72.6276 746.763 71.9372 748.718C69.2666 752.038 67.1692 755.885 65.2542 759.796C61.5023 767.438 60.3819 775.93 64.0426 783.829C64.694 785.232 65.4496 786.544 66.3094 787.792C61.854 776.83 62.336 764.325 69.1233 753.942Z" fill="#F7C300"/>
<path d="M89.3939 734.296C87.8436 735.209 87.8436 736.972 87.6612 738.554C87.3746 741.037 86.9968 743.508 85.0818 745.322C82.6196 747.663 79.3367 748.95 76.8746 751.382C74.5296 753.698 72.6146 756.387 71.1295 759.32C64.4465 772.456 68.3156 787.985 78.4379 798.278C79.5061 798.87 80.6004 799.41 81.7208 799.925C85.5899 801.675 89.7065 802.858 93.8623 803.746C98.4088 804.711 103.034 805.547 107.71 805.161C107.723 805.161 107.723 805.161 107.736 805.161C109.326 807.284 112.192 807.85 114.693 806.86C129.049 801.134 141.529 785.759 140.266 769.87C139.627 761.867 134.273 755.833 127.89 751.382C124.633 749.104 121.116 746.917 117.468 745C117.416 744.769 117.351 744.537 117.299 744.305C117.155 743.611 117.051 742.903 116.882 742.221C115.8 737.77 112.765 735.84 108.609 734.476C108.544 734.45 108.479 734.437 108.414 734.424C104.219 734.27 100.024 734.116 95.8164 733.961C93.9926 733.858 91.0614 733.318 89.3939 734.296ZM109.235 741.655C109.782 738.876 114.055 740.111 113.508 742.877C112.192 749.478 113.651 756.824 115.826 763.103C118.015 769.394 121.532 775.209 126.053 780.137C127.968 782.234 124.789 785.309 122.874 783.212C117.833 777.692 113.977 771.26 111.527 764.222C109.065 757.158 107.762 749.053 109.235 741.655ZM109.274 781.681C110.602 781.05 112.075 780.703 113.495 780.793C117.116 780.986 119.774 784.653 120.282 787.985C120.464 789.169 119.956 790.34 118.692 790.674C117.624 790.957 116.152 790.275 115.97 789.105C115.8 787.96 115.097 786.197 114.133 785.464C113.612 785.065 112.882 785.103 112.205 785.283C112.4 785.759 112.57 786.248 112.674 786.776C113.26 789.632 111.84 794.019 108.179 793.749C104.115 793.44 104.011 787.947 105.392 785.27C105.496 785.065 105.639 784.872 105.769 784.679C105.352 784.524 104.909 784.421 104.454 784.447C104.05 784.473 103.646 784.576 103.255 784.743C103.424 785.065 103.594 785.373 103.711 785.708C104.297 787.29 104.467 789.452 103.476 790.932C102.552 792.321 100.78 792.81 99.2817 791.974C96.7804 790.558 96.4417 787.342 97.3927 784.846C97.041 784.653 96.6892 784.473 96.3114 784.344C95.2823 784.023 94.6309 784.048 93.9665 784.936C93.2239 785.927 92.5986 787.162 92.6768 788.41C92.8592 791.24 88.4038 791.163 88.2214 788.358C87.9869 784.743 90.9311 780.021 94.8393 779.764C96.7413 779.635 98.6433 780.279 100.22 781.372C103.047 779.545 106.642 779.867 109.274 781.681ZM98.5131 743.302C97.5751 759.41 91.5304 774.746 81.2909 787.303C79.4931 789.503 76.4056 786.338 78.1773 784.164C87.6352 772.572 93.1979 758.111 94.0577 743.25C94.227 740.433 98.6824 740.484 98.5131 743.302Z" fill="#F7C300"/>
<path d="M66.3094 787.779C67.8075 791.472 69.8789 794.997 72.4453 798.188C84.665 813.357 108.336 820.214 124.503 806.924C126.704 805.11 123.591 801.983 121.389 803.785C108.349 814.502 89.3548 809.381 78.4248 798.278C73.6568 795.666 69.3708 792.218 66.3094 787.779Z" fill="black"/>
<path d="M140.37 755.666C138.077 752.437 135.328 749.645 132.111 747.303C130.56 746.171 128.88 745.348 127.251 744.357C124.972 742.967 126.014 740.523 125.714 738.271C124.385 728.545 110.407 730.063 103.398 729.806C98.8908 729.638 93.6017 728.66 89.1594 729.741C86.8405 730.307 85.3293 731.645 84.4174 733.434C85.668 732.906 86.9968 732.572 88.3647 732.43C94.8523 731.748 102.2 732.392 108.401 734.386C108.505 734.386 108.622 734.399 108.727 734.399C112.374 734.527 119.214 733.794 121.05 737.898C122.366 740.832 120.373 743.971 122.965 746.66C125.323 749.104 129.023 750.262 131.629 752.527C137.738 757.84 141.712 765.47 142.077 773.537C142.272 777.821 141.569 782.105 140.005 786.12C138.52 789.928 136.084 794.624 132.215 796.477C129.635 797.712 131.837 801.533 134.416 800.298C141.803 796.76 145.425 786.428 146.324 778.94C147.301 770.796 145.151 762.395 140.37 755.666Z" fill="black"/>
<path d="M88.3647 732.43C87.0099 732.572 85.6681 732.919 84.4174 733.434C83.8703 734.501 83.5316 735.724 83.3622 737.049C83.1407 738.76 83.271 740.831 81.9683 742.17C80.6655 743.508 78.5291 744.318 77.0179 745.45C73.8913 747.792 71.2468 750.687 69.1233 753.929C62.323 764.312 61.854 776.83 66.3094 787.766C69.3708 792.205 73.6698 795.653 78.4379 798.265C68.3156 787.985 64.4465 772.456 71.1295 759.307C72.6146 756.386 74.5297 753.685 76.8746 751.369C79.3498 748.937 82.6196 747.638 85.0818 745.309C86.9968 743.495 87.3746 741.037 87.6612 738.541C87.8436 736.959 87.8436 735.196 89.3939 734.283C91.0614 733.292 93.9795 733.845 95.8033 733.91C99.9982 734.064 104.193 734.218 108.401 734.373C102.2 732.391 94.8524 731.761 88.3647 732.43Z" fill="black"/>
<path d="M94.3964 716.026C91.6867 716.348 88.4559 716.669 86.111 718.175C84.0917 719.461 83.1277 722.009 84.7301 724.029C86.3325 726.049 89.1724 725.701 91.4652 725.611C94.7872 725.483 98.1222 725.56 101.444 725.74C105.131 725.933 108.805 726.267 112.478 726.602C115.67 726.898 118.888 727.142 121.585 729.008C123.943 730.629 126.209 726.859 123.877 725.238C119.109 721.944 112.4 722.15 106.838 721.7C103.516 721.43 100.194 721.224 96.8586 721.16C95.3083 721.134 93.7711 721.134 92.2208 721.185C91.4522 721.211 90.6836 721.263 89.902 721.288C90.2407 721.198 90.5794 721.134 90.9051 721.057C92.4684 720.684 94.0447 720.426 95.647 720.272C98.8127 719.963 102.004 719.95 105.183 719.847C107.88 719.757 111.475 720.053 113.99 718.934C116.361 717.879 116.79 715.203 114.745 713.594C112.387 711.729 109.117 711.021 106.225 710.417C102.539 709.645 98.8387 708.911 95.139 708.165C92.3511 707.599 91.1005 711.819 93.9014 712.385C97.1712 713.054 100.441 713.71 103.711 714.379C105.014 714.649 106.329 714.894 107.619 715.241C107.723 715.267 107.815 715.306 107.919 715.331C106.46 715.409 105.001 715.46 103.542 715.499C100.48 715.602 97.4318 715.679 94.3964 716.026Z" fill="black"/>
<path d="M101.653 706.21C103.581 705.695 105.639 704.485 106.095 702.414C106.343 701.295 105.795 699.982 104.571 699.687C103.463 699.429 102.083 699.982 101.809 701.192C101.796 701.243 101.783 701.295 101.77 701.346C101.757 701.359 101.757 701.372 101.744 701.385C101.718 701.411 101.679 701.449 101.653 701.475C101.522 701.552 101.392 701.642 101.249 701.706C101.236 701.706 101.184 701.745 101.132 701.771C100.949 701.835 100.767 701.887 100.584 701.938C100.207 702.041 99.8288 702.105 99.438 702.157C98.7606 702.208 98.0701 702.208 97.3927 702.131C97.1061 702.08 96.8195 702.028 96.5329 701.951C95.4125 701.655 94.0577 702.285 93.7711 703.456C93.4975 704.601 94.0837 705.862 95.2953 706.184C97.3666 706.724 99.5813 706.763 101.653 706.21Z" fill="black"/>
<path d="M122.874 783.212C124.802 785.322 127.981 782.234 126.053 780.137C121.545 775.196 118.015 769.394 115.826 763.102C113.651 756.824 112.192 749.477 113.508 742.877C114.055 740.124 109.782 738.876 109.235 741.655C107.762 749.053 109.078 757.145 111.527 764.222C113.977 771.259 117.82 777.692 122.874 783.212Z" fill="black"/>
<path d="M94.0707 743.251C93.2109 758.098 87.6482 772.559 78.1904 784.164C76.4186 786.338 79.5061 789.516 81.3039 787.303C91.5434 774.746 97.5881 759.41 98.5261 743.302C98.6824 740.484 94.2271 740.433 94.0707 743.251Z" fill="black"/>
<path d="M88.2605 788.333C88.4429 791.137 92.8982 791.215 92.7159 788.384C92.6377 787.149 93.263 785.901 94.0056 784.91C94.67 784.035 95.3213 783.997 96.3505 784.318C96.7283 784.434 97.08 784.627 97.4318 784.82C96.4808 787.329 96.8195 790.533 99.3207 791.948C100.806 792.784 102.591 792.295 103.516 790.906C104.506 789.426 104.336 787.265 103.75 785.682C103.633 785.348 103.463 785.039 103.294 784.717C103.685 784.563 104.089 784.447 104.493 784.421C104.949 784.396 105.391 784.486 105.808 784.653C105.678 784.846 105.548 785.039 105.431 785.245C104.05 787.921 104.154 793.415 108.218 793.723C111.866 793.994 113.286 789.619 112.713 786.75C112.609 786.223 112.439 785.734 112.244 785.258C112.921 785.078 113.651 785.039 114.172 785.438C115.149 786.171 115.839 787.934 116.009 789.079C116.191 790.25 117.65 790.919 118.732 790.649C119.995 790.327 120.503 789.143 120.321 787.959C119.813 784.627 117.155 780.96 113.534 780.767C112.114 780.69 110.642 781.025 109.313 781.655C106.668 779.841 103.086 779.519 100.298 781.334C98.7084 780.24 96.8064 779.597 94.9175 779.725C90.9702 779.995 88.026 784.717 88.2605 788.333Z" fill="black"/>
<path d="M156.42 568.943C139.289 552.681 113.026 556.463 97.0279 568.287L96.09 568.982L95.2953 568.145C91.9603 564.633 89.0943 560.812 86.7624 556.759C75.5197 537.203 78.0601 513.53 93.3933 495.003C94.8263 493.279 96.4026 491.58 98.0962 489.946L98.982 489.097L99.894 489.921C102.552 492.34 105.378 494.501 108.271 496.367C121.155 504.665 135.459 507.663 146.532 504.395C153.306 502.388 159.064 496.765 160.836 490.384C161.8 486.923 161.995 481.789 157.436 476.9C147.691 466.428 129.714 469.747 124.438 471.008C115.787 473.079 107.372 477.248 100.089 483.076L99.1384 483.835L98.3046 482.935C84.3653 467.727 78.4248 446.691 82.802 428.01C86.3194 412.996 95.7382 399.242 109.326 389.271L109.977 388.795L110.694 389.155C113.247 390.442 115.866 391.638 118.458 392.693C125.102 395.421 132.215 397.582 139.588 399.126C146.337 400.541 154.114 401.802 160.927 398.843C166.672 396.347 170.646 390.815 170.58 385.411C170.515 380.573 167.337 376.225 162.061 373.754C153.189 369.599 141.087 370.294 126.105 375.8C120.634 377.807 115.266 380.548 110.173 383.944L109.508 384.382L108.805 383.996C97.2103 377.537 87.2835 369.058 80.1054 359.499C76.4838 354.674 72.797 348.988 71.0644 343.172C70.4651 341.139 70.2436 338.965 70.7908 336.919C70.6996 337.28 74.6469 337.331 75.0117 337.254C76.6531 336.894 77.9037 335.839 78.6333 334.372C79.7146 332.198 78.8547 329.714 76.7834 328.479C74.673 327.218 72.1456 327.592 70.2567 329.058C69.449 329.676 68.8367 330.448 68.3547 331.297C67.7684 330.782 67.2213 330.229 66.7523 329.676C66.2573 329.097 64.8112 327.862 64.8373 327.051C64.8503 326.652 65.0327 326.279 65.2021 325.919C66.2052 323.668 65.8925 321.519 65.8274 319.152C65.5147 308.396 67.8596 297.974 73.0185 289.225C74.3212 287.013 75.8324 284.838 77.5129 282.754L78.2946 281.763L79.3107 282.535C94.1619 293.896 117.624 302.104 134.885 287.887C137.048 286.099 143.979 279.692 142.298 272.037C140.943 265.81 134.794 262.477 131.251 261.049C119.057 256.121 104.284 259.479 94.5267 264.266C88.6904 267.122 83.3752 270.93 78.7375 275.588L77.8256 276.501L76.9006 275.6C65.8143 264.909 57.9328 249.547 54.715 232.32C50.7938 211.335 53.5165 188.576 62.3751 168.209C65.2802 161.531 68.7716 155.369 72.7579 149.913L73.6568 148.691L74.7381 149.759C76.4186 151.419 78.0601 152.847 79.7797 154.133C90.2407 162.007 104.923 165.327 121.142 163.474C128.528 162.625 136.175 161.506 141.269 157.877C146.779 153.966 146.74 147.122 144.877 142.014C140.292 129.482 126.444 123.976 115.97 123.075C103.516 121.969 90.9441 126.369 80.5744 135.388C78.5421 137.15 76.5489 139.119 74.4775 141.409L73.4223 142.567L72.4713 141.319C64.8503 131.348 60.5513 119.305 57.099 108.807C46.13 75.3041 46.2602 48.8775 57.5029 28.0219C63.3912 17.0988 71.859 8.68445 82.0074 3.67962C82.6457 3.35797 82.9974 2.88193 83.0365 2.26437C83.0886 1.50528 82.6718 0.694726 82.0334 0.270151C81.7859 0.11576 81.5254 0.0256991 81.2518 -3.26713e-05C80.9391 -0.0257645 80.6134 0.051431 80.2617 0.218688C51.6666 14.3326 43.5636 47.7196 45.3092 72.0104C46.3514 86.5489 50.0512 101.782 56.9557 119.975C60.9421 130.486 65.189 138.373 70.3088 144.793L70.9341 145.578L70.3218 146.375C58.4669 161.789 50.8329 183.442 49.3608 205.777C47.6151 232.358 55.2622 257.331 70.3218 274.262C71.5724 275.665 72.9664 277.08 74.4775 278.482L75.3504 279.293L74.6078 280.219C71.7548 283.757 69.3448 287.566 67.4428 291.541C65.0848 296.469 63.5215 301.744 62.6747 307.109C62.2448 309.811 62.1797 312.538 62.1536 315.253C62.1276 317.942 62.5705 321.236 61.828 323.835C60.8509 323.603 59.939 322.625 58.8968 322.278C57.3726 321.763 55.3794 321.776 54.0376 322.741C52.7479 323.668 52.2528 325.443 52.6697 326.961C53.3602 329.444 56.0568 331.027 58.5711 330.95C59.7175 330.911 60.6555 330.551 61.6716 330.062C61.7759 330.01 61.8801 329.959 61.9973 329.972C62.1927 329.985 62.323 330.178 62.4272 330.345C63.1046 331.413 63.7821 332.326 64.72 333.175C65.645 333.999 66.8044 334.719 67.1301 335.993C67.3385 336.791 67.1562 337.627 67.0389 338.45C66.3615 343.121 68.3807 346.942 70.5563 350.93C72.5625 354.597 74.8032 358.135 77.2915 361.506C82.2679 368.248 88.2214 374.269 94.9175 379.351C96.0118 380.187 97.1321 380.998 98.2655 381.783C100.311 383.198 102.408 384.523 104.545 385.784L106.147 386.736L104.688 387.894C101.027 390.802 97.6532 393.993 94.657 397.389C77.0309 417.318 72.8231 444.298 83.6618 467.778C86.6451 474.25 90.5924 480.194 95.3995 485.443L96.2333 486.357L95.3344 487.219C85.2382 496.984 78.503 509.567 76.3795 522.677C73.6698 539.403 79.467 556.849 92.286 570.539L93.1458 571.452L92.2469 572.327C91.5825 572.97 90.9441 573.613 90.3188 574.295C72.771 593.478 68.7976 623.597 79.6755 654.862C84.9516 670.043 92.8071 684.196 100.506 697.216C100.988 698.04 101.692 698.207 102.213 698.207C103.021 698.207 103.828 697.769 104.18 697.165C104.454 696.702 104.414 696.2 104.076 695.634C90.1104 671.999 76.5489 646.602 77.4738 618.889C78.047 601.417 84.4826 585.437 95.1129 575.054L95.9857 574.205L96.8977 575.003C100.845 578.477 105.144 581.449 109.691 583.829C121.142 589.85 133.4 592.282 145.164 590.841C151.808 590.03 157.332 587.123 159.95 583.057C163.715 577.267 159.351 571.722 156.42 568.943ZM103.099 485.585C108.609 481.288 114.589 478.058 120.881 475.987C127.212 473.903 143.002 469.953 153.085 478.11C158.074 482.15 158.817 488.789 154.883 494.257C151.222 499.364 144.591 501.989 136.24 501.667C135.876 501.654 135.498 501.629 135.133 501.616C124.542 500.934 113.716 496.418 104.519 488.84C104.011 488.428 103.529 488.004 103.034 487.566L101.874 486.55L103.099 485.585ZM115.462 385.167C119.214 382.941 123.148 381.024 127.16 379.493C136.41 375.955 149.58 372.622 159.833 376.958C163.051 378.322 165.396 380.663 166.255 383.365C166.985 385.668 166.607 388.087 165.174 390.364C162.204 395.06 156.732 397.183 148.903 396.682C148.043 396.63 147.157 396.54 146.232 396.424C135.954 395.086 125.362 391.985 115.592 387.431L113.39 386.402L115.462 385.167ZM74.0086 331.541C74.4645 331.554 75.181 331.837 75.2071 332.378C75.2592 333.33 73.7871 333.574 73.1227 333.536C72.6277 333.51 72.1456 333.407 71.6767 333.253C72.1847 332.275 72.9403 331.49 74.0086 331.541ZM81.7859 278.019C86.8275 273.053 92.6507 269.155 99.0732 266.44C108.805 262.323 122.796 260.084 132.879 266.118C138.194 269.296 138.82 273.053 138.416 275.626C137.322 282.509 127.694 288.852 121.285 290.358C117.754 291.194 113.99 291.464 110.16 291.22C103.164 290.769 95.8815 288.569 89.1333 284.761C86.6972 283.384 84.2741 281.763 81.9162 279.949L80.7567 279.049L81.7859 278.019ZM76.9006 144.729C88.2475 131.708 101.887 125.558 116.269 126.986C127.851 128.119 140.422 135.169 142.038 146.478C143.262 155.034 135.107 156.861 129.153 158.186L128.789 158.251C121.871 159.794 115.123 160.399 108.727 160.052C108.557 160.039 108.375 160.026 108.205 160.026C95.8945 159.228 85.0949 154.558 76.9527 146.478L76.106 145.629L76.9006 144.729ZM56.4867 326.099C56.3825 325.97 56.3825 325.893 56.3955 325.842C56.7082 325.752 57.1902 325.893 57.4508 325.97C58.1021 326.163 58.6884 326.524 59.2355 326.935C58.2585 327.244 57.2293 327.013 56.4867 326.099ZM157.032 580.342C155.156 584.408 149.854 586.827 141.699 587.341C139.536 587.47 137.348 587.47 135.159 587.328C122.783 586.531 110.329 581.397 100.181 572.751L98.943 571.696L100.259 570.744C104.844 567.412 109.977 564.993 115.501 563.565C127.017 560.593 138.663 561.854 147.47 567.013C157.696 573.009 158.309 577.563 157.032 580.342Z" fill="black"/>
<path d="M157.709 551.767C157.944 551.15 158.439 550.622 159.116 550.506C159.442 550.03 159.742 549.541 160.041 549.053C158.439 548.589 157.019 550.429 157.709 551.767Z" fill="black"/>
<path d="M173.694 567.206C172.013 566.807 171.167 565.264 170.398 563.887C169.59 562.433 168.626 561.108 167.493 559.886C165.396 557.608 162.803 555.897 159.95 554.713C159.286 554.726 158.647 554.405 158.231 553.916C157.709 553.517 157.527 552.925 157.579 552.333C157.136 552.127 156.706 551.922 156.263 551.741C157.775 549.67 159.195 547.547 160.575 545.399C160.823 545.875 161.123 546.325 161.409 546.762C162.165 545.399 162.881 543.996 163.533 542.568C163.389 542.491 163.246 542.414 163.09 542.337C162.92 542.259 162.751 542.208 162.582 542.169C163.103 541.294 163.637 540.419 164.132 539.532C164.262 539.763 164.419 539.969 164.549 540.201C164.653 539.943 164.77 539.673 164.888 539.416C165.356 538.258 165.799 537.1 166.242 535.942C166.307 535.775 166.412 535.556 166.516 535.312C166.49 535.299 166.464 535.286 166.438 535.273C166.477 535.209 166.516 535.144 166.542 535.08C166.776 534.617 166.881 534.102 166.816 533.639C166.894 533.137 166.79 532.623 166.503 532.211C166.125 532.095 165.734 532.005 165.37 531.889L161.696 530.809C160.927 530.577 160.523 529.947 160.445 529.265C160.419 529.252 160.406 529.252 160.38 529.239C160.393 529.226 160.419 529.213 160.432 529.213C160.367 528.454 160.719 527.644 161.461 527.271C165.487 525.238 170.242 525.109 174.593 524.105C178.905 523.115 183.178 521.983 187.62 521.854C188.741 521.815 189.874 521.854 190.916 522.047C190.799 521.738 190.708 521.417 190.591 521.095C190.551 520.992 190.499 520.915 190.447 520.825C190.226 520.207 189.692 519.705 188.806 519.693C177.915 519.409 166.464 520.657 157.149 526.704C155.742 527.618 156.081 529.509 157.097 530.204C156.811 531.169 157.266 532.327 158.309 532.648C159.768 533.086 161.188 533.652 162.556 534.308C159.429 540.227 155.86 545.913 151.834 551.265C151.456 551.767 151.378 552.282 151.495 552.732C151.456 553.478 151.821 554.237 152.759 554.546C159.989 556.978 166.294 561.867 170.294 568.313C170.841 569.201 171.909 569.677 172.912 569.175C173.264 568.995 173.564 568.686 173.759 568.313C173.863 568.223 173.955 568.107 174.033 567.978C174.189 567.747 174.345 567.528 174.489 567.296C174.254 567.283 173.981 567.271 173.694 567.206Z" fill="black"/>
<path d="M166.008 531.735C164.236 530.744 162.373 529.921 160.445 529.265C160.523 529.947 160.927 530.59 161.696 530.809L165.37 531.889C165.734 531.992 166.125 532.095 166.503 532.211C166.373 532.018 166.216 531.851 166.008 531.735Z" fill="black"/>
<path d="M190.89 550.313C191.099 550.416 191.294 550.519 191.502 550.622C191.984 550.867 192.427 551.021 192.988 550.918C193.066 550.905 193.157 550.867 193.235 550.841C194.134 550.777 195.124 550.005 195.072 549.053C194.603 539.905 194.03 530.732 190.916 522.047C189.874 521.854 188.741 521.828 187.62 521.854C183.178 521.983 178.892 523.128 174.593 524.106C170.242 525.096 165.5 525.238 161.461 527.271C160.719 527.644 160.367 528.454 160.432 529.213C162.829 527.824 165.357 526.756 167.962 525.933C167.988 525.984 167.988 526.023 168.014 526.074C170.072 529.831 173.551 532.803 176.169 536.187C177.511 537.936 178.84 539.699 180.156 541.462C175.609 539.416 171.063 537.357 166.516 535.312C166.399 535.556 166.294 535.775 166.242 535.942C165.799 537.1 165.357 538.271 164.888 539.416C164.783 539.686 164.666 539.944 164.549 540.201C165.513 541.796 166.555 543.327 167.754 544.755C166.347 544.022 164.953 543.276 163.533 542.568C162.881 543.996 162.178 545.399 161.409 546.762C162.712 548.795 164.288 550.648 165.826 552.514C164.08 551.433 162.321 550.352 160.575 549.271C160.393 549.156 160.224 549.091 160.041 549.04C159.729 549.529 159.442 550.018 159.116 550.494C158.426 550.609 157.931 551.137 157.709 551.754C157.853 552.025 158.061 552.269 158.387 552.462C162.595 555.061 166.803 557.647 171.01 560.246C172.756 561.327 174.541 559.551 173.85 557.789C172.574 554.521 170.281 551.909 168.053 549.246C171.466 551.06 174.853 552.912 178.202 554.842C176.143 557.891 174.072 560.941 172.014 563.99C168.275 558.959 163.298 554.945 157.566 552.333C157.514 552.912 157.709 553.517 158.218 553.916C158.621 554.405 159.273 554.726 159.937 554.714C162.79 555.897 165.383 557.608 167.48 559.886C168.613 561.108 169.577 562.446 170.385 563.887C171.154 565.264 172 566.808 173.681 567.206C173.968 567.271 174.228 567.296 174.489 567.284C178.71 561.044 182.943 554.804 187.164 548.564C188.415 549.143 189.666 549.709 190.89 550.313ZM187.334 523.514C187.79 524.787 188.18 526.074 188.532 527.374C187.451 526.048 186.226 524.813 184.872 523.707C184.78 523.63 184.676 523.578 184.585 523.514C185.497 523.514 186.422 523.501 187.334 523.514ZM173.173 524.62C176.365 524.003 179.622 523.681 182.891 523.565C181.901 524.221 181.445 525.907 182.683 526.91C183.894 527.888 184.95 529.007 185.875 530.217C183.894 529.471 181.979 528.48 180.117 527.682C177.785 526.679 175.479 525.65 173.173 524.62ZM180.638 551.291C178.892 548.705 175.609 547.187 173.381 545.077C172.053 543.816 170.841 542.452 169.76 540.999C174.319 543.057 178.879 545.116 183.426 547.161C182.488 548.538 181.563 549.915 180.638 551.291ZM187.073 544.266C184.546 540.883 182.032 537.486 179.465 534.128C178.449 532.79 177.381 531.491 176.287 530.204C177.329 530.654 178.345 531.13 179.387 531.581C182.735 533.035 186.109 534.771 189.783 535.157C189.874 535.17 189.965 535.145 190.056 535.145C190.551 538.786 190.812 542.465 191.02 546.119C189.718 545.489 188.402 544.871 187.086 544.266C187.099 544.266 187.086 544.266 187.073 544.266Z" fill="black"/>
<path d="M71.6506 417.769C67.7294 424.266 67.2734 432.423 67.3255 439.821C67.3776 447.721 68.5631 455.582 70.8299 463.16C71.5334 465.527 75.3764 464.768 74.6599 462.375C72.5495 455.324 71.3379 448.029 71.2337 440.67C71.1295 433.877 71.2728 425.926 74.8944 419.93C76.1711 417.795 72.9403 415.633 71.6506 417.769Z" fill="black"/>
<path d="M158.647 386.26C158.647 386.286 158.647 386.286 158.647 386.299C158.595 386.479 158.556 386.659 158.478 386.826C158.478 386.839 158.426 386.942 158.4 387.019C158.387 387.045 158.374 387.084 158.348 387.109C158.244 387.289 158.113 387.457 157.983 387.624C157.905 387.701 157.827 387.766 157.749 387.843C157.67 387.907 157.592 387.984 157.501 388.049C157.462 388.074 157.423 388.1 157.384 388.139C157.227 388.216 156.98 388.344 156.941 388.357C156.915 388.37 156.889 388.383 156.863 388.396C156.758 388.422 156.602 388.46 156.589 388.473C155.599 388.692 154.804 389.734 155.065 390.75C155.325 391.741 156.303 392.487 157.371 392.256C160.172 391.625 162.451 389.104 162.556 386.222C162.66 383.365 160.732 380.599 157.944 379.75C156.967 379.454 155.768 379.917 155.456 380.947C155.169 381.924 155.612 383.082 156.667 383.404C156.785 383.443 156.902 383.481 157.032 383.52C157.11 383.558 157.384 383.738 157.149 383.558C156.902 383.378 157.188 383.584 157.253 383.623C157.358 383.687 157.462 383.751 157.566 383.828C157.605 383.854 157.631 383.88 157.67 383.906C157.696 383.931 157.696 383.931 157.709 383.944C157.722 383.957 157.749 383.983 157.762 383.996C157.918 384.15 158.048 384.33 158.204 384.498C158.257 384.6 158.322 384.691 158.374 384.793C158.426 384.883 158.465 384.986 158.504 385.076C158.504 385.076 158.504 385.076 158.504 385.089C158.504 385.064 158.491 385.038 158.491 385.012C158.491 385.038 158.504 385.064 158.504 385.102C158.569 385.269 158.543 385.244 158.517 385.154C158.556 385.334 158.621 385.514 158.647 385.681C158.66 385.733 158.66 385.81 158.66 385.874C158.66 385.9 158.66 385.939 158.66 385.964C158.673 386.054 158.66 386.157 158.647 386.26Z" fill="black"/>
<path d="M158.517 385.077C158.517 385.103 158.53 385.116 158.53 385.129C158.53 385.116 158.517 385.103 158.517 385.077Z" fill="black"/>
<path d="M121.858 249.444C121.78 249.637 121.637 250.023 121.441 250.371C121.116 249.753 120.829 249.045 120.607 248.672C120.073 247.733 119.552 246.794 119.018 245.868C118.002 244.079 115.67 244.774 115.318 246.601C115.084 247.823 114.55 248.942 113.859 249.959C113.299 249.161 112.752 248.376 112.192 247.579C111.319 246.331 109.339 246.987 108.87 248.222C108.518 249.135 108.166 250.075 107.697 250.95C107.072 250.216 106.46 249.457 105.887 248.672C105.17 247.694 103.398 247.862 102.799 248.865C101.978 250.229 101.119 251.567 100.272 252.905C99.6855 252.326 99.1384 251.709 98.6303 251.027C97.7054 249.792 95.8164 250.422 95.3213 251.67C94.8524 252.828 94.3052 253.934 93.6799 254.989C93.0806 254.591 92.4944 254.192 91.8951 253.793C90.892 253.124 89.8238 252.107 88.5211 252.532C87.4137 252.892 87.1402 253.857 86.8666 254.861C86.4497 256.379 86.0459 257.91 85.629 259.428C84.9776 261.821 88.6774 263.095 89.3157 260.689C89.6154 259.583 89.8629 258.399 90.1625 257.254C90.3449 257.395 90.5273 257.524 90.6836 257.64C91.5043 258.193 92.325 258.733 93.1458 259.287C94.0316 259.878 95.2562 259.621 95.8555 258.772C96.5329 257.807 97.1322 256.816 97.6663 255.787C98.2786 256.366 98.9299 256.919 99.6204 257.421C100.454 258.039 101.783 257.743 102.33 256.906C103.112 255.723 103.841 254.513 104.584 253.317C105.157 253.999 105.756 254.655 106.382 255.298C107.059 255.98 108.401 256.276 109.143 255.478C109.925 254.642 110.55 253.729 111.071 252.764C111.449 253.304 111.827 253.844 112.205 254.385C112.791 255.221 114.263 255.208 114.967 254.565C116.035 253.574 116.908 252.481 117.585 251.284C117.741 251.554 117.885 251.824 118.041 252.095C118.627 253.137 119.188 254.423 120.451 254.796C121.767 255.182 122.952 254.488 123.864 253.484C124.099 253.883 124.32 254.295 124.516 254.732C125.519 257.009 129.01 255.285 128.007 253.008C127.317 251.438 126.366 250.036 125.141 248.827C124.138 247.772 122.392 248.029 121.858 249.444Z" fill="black"/>
<path d="M67.8596 636.27C66.8826 636.386 65.9446 637.403 66.1661 638.419C67.9248 646.705 70.413 654.823 73.6438 662.671C74.5948 664.974 78.2164 663.533 77.2654 661.23C74.1649 653.691 71.7288 645.907 70.0352 637.943C69.8268 636.927 68.98 636.129 67.8596 636.27Z" fill="black"/>
<path d="M136.67 125.841C135.797 125.365 134.925 124.928 134.091 124.503C133.882 125.932 135.784 126.806 136.67 125.841Z" fill="black"/>
<path d="M148.903 102.927C150.258 101.551 147.848 99.7365 146.493 101.1C145.711 101.885 145.073 102.773 144.487 103.686C145.32 104.24 146.154 104.806 146.988 105.372C147.548 104.51 148.16 103.673 148.903 102.927Z" fill="black"/>
<path d="M142.572 103.673C139.732 103.185 136.722 104.831 136.123 107.713C135.641 110.042 137.217 111.985 138.924 113.58C138.142 115.086 137.374 116.591 136.67 118.122C135.276 117.504 134.247 116.501 134.612 114.983C134.794 114.198 134.052 113.4 133.296 113.31C132.41 113.194 131.785 113.812 131.603 114.609C130.938 117.44 133.075 119.666 135.498 120.811C135.029 121.93 134.586 123.05 134.182 124.195C134.143 124.298 134.117 124.4 134.104 124.503C134.951 124.928 135.81 125.365 136.683 125.841C136.814 125.7 136.918 125.533 136.983 125.327C137.413 124.105 137.895 122.895 138.403 121.699C139.38 121.879 140.37 121.943 141.386 121.904C142.793 121.84 144.682 121.596 145.802 120.669C148.76 118.225 144.656 114.558 142.702 112.885C143.523 111.367 144.369 109.849 145.216 108.344C146.05 109.141 146.753 110.094 147.444 110.994C148.616 112.538 151.039 110.724 149.867 109.193C148.929 107.971 147.926 106.736 146.753 105.732C146.832 105.603 146.923 105.488 147.001 105.372C146.167 104.806 145.347 104.24 144.5 103.686C144.396 103.841 144.278 103.995 144.187 104.15C143.666 103.957 143.132 103.776 142.572 103.673ZM140.083 106.954C140.852 106.478 141.79 106.504 142.637 106.761C141.881 108.112 141.126 109.463 140.383 110.827C139.185 109.553 138.364 108.035 140.083 106.954ZM143.575 118.199C143.588 118.238 143.627 118.341 143.666 118.418C143.484 118.482 143.21 118.598 143.119 118.624C142.428 118.804 141.699 118.894 140.995 118.932C140.618 118.945 140.162 118.932 139.654 118.881C140.162 117.787 140.709 116.694 141.256 115.613C142.129 116.372 143.015 117.196 143.575 118.199Z" fill="black"/>
<path d="M122.001 103.558C121.037 103.21 120.06 102.902 119.07 102.606C119.005 103.172 118.94 103.738 118.888 104.304C117.663 103.764 116.608 103.004 116.66 101.949C116.621 101.937 116.582 101.924 116.556 101.924C115.384 101.654 114.55 101.113 113.977 100.418C113.677 101.242 113.547 102.13 113.742 103.056C113.911 103.892 114.302 104.587 114.836 105.166C117.012 104.484 119.461 104.162 121.949 104.098C121.962 103.918 121.975 103.738 122.001 103.558Z" fill="black"/>
<path d="M121.063 92.4673C121.975 92.6989 122.874 92.9433 123.76 93.2135C123.747 92.0298 121.949 91.5538 121.063 92.4673Z" fill="black"/>
<path d="M121.194 119.807C120.295 119.64 119.396 119.511 118.497 119.408C118.888 120.605 120.594 120.734 121.194 119.807Z" fill="black"/>
<path d="M116.556 101.924C116.595 101.937 116.634 101.949 116.66 101.949C116.673 101.615 116.803 101.242 117.09 100.843C117.611 100.11 118.484 99.7751 119.37 99.6851C119.266 100.65 119.161 101.628 119.057 102.593C120.047 102.876 121.024 103.197 121.988 103.545C122.106 102.413 122.223 101.293 122.34 100.161C123.421 100.586 124.451 101.19 125.428 101.756C127.121 102.734 128.645 100.135 126.952 99.1704C125.61 98.3985 124.203 97.6394 122.731 97.1762C122.926 96.0183 123.187 94.8732 123.63 93.7539C123.708 93.5609 123.734 93.3808 123.734 93.2135C122.848 92.9433 121.949 92.6989 121.037 92.4673C120.894 92.6088 120.777 92.7889 120.699 92.9948C120.217 94.1913 119.943 95.4393 119.748 96.7002C119.201 96.7002 118.64 96.7388 118.08 96.8674C116.178 97.292 114.602 98.6815 113.951 100.418C114.537 101.113 115.384 101.654 116.556 101.924Z" fill="black"/>
<path d="M118.601 107.405C118.471 109.09 118.354 110.763 118.302 112.448C116.777 112.409 115.436 111.869 115.175 110.338C115.032 109.54 114.042 109.09 113.312 109.296C112.452 109.527 112.114 110.338 112.257 111.136C112.752 114.005 115.592 115.24 118.276 115.369C118.289 116.578 118.315 117.787 118.393 118.984C118.406 119.138 118.458 119.254 118.497 119.383C119.409 119.486 120.308 119.614 121.194 119.782C121.337 119.563 121.441 119.293 121.415 118.958C121.337 117.659 121.311 116.372 121.298 115.073C122.275 114.854 123.213 114.545 124.125 114.121C125.402 113.516 127.043 112.577 127.707 111.303C129.479 107.919 124.255 106.105 121.806 105.307C121.845 104.896 121.897 104.484 121.936 104.072C119.461 104.149 116.999 104.458 114.823 105.14C115.787 106.208 117.194 106.89 118.601 107.405ZM121.558 108.395C122.666 108.755 123.812 109.18 124.711 109.901C124.737 109.926 124.815 110.003 124.88 110.068C124.737 110.196 124.529 110.402 124.451 110.467C123.89 110.904 123.252 111.264 122.614 111.56C122.275 111.715 121.845 111.882 121.363 112.023C121.402 110.801 121.467 109.605 121.558 108.395Z" fill="black"/>
<path d="M151.691 123.693C153.892 125.43 155.925 127.308 157.657 129.418C157.319 128.685 156.954 128.016 156.654 127.475C155.13 126.06 153.463 124.786 151.678 123.641C151.691 123.654 151.691 123.667 151.691 123.693Z" fill="black"/>
<path d="M146.753 132.75C146.05 133.522 145.346 134.307 144.669 135.118C143.444 136.597 145.672 138.63 146.923 137.125C147.548 136.379 148.199 135.658 148.864 134.938C148.212 134.178 147.509 133.445 146.753 132.75Z" fill="black"/>
<path d="M165.904 120.116C167.662 119.28 166.021 116.758 164.275 117.581C164.041 117.684 163.845 117.826 163.624 117.955C164.301 118.714 164.94 119.498 165.526 120.322C165.643 120.27 165.773 120.18 165.904 120.116Z" fill="black"/>
<path d="M151.691 123.693C151.886 124.735 152.316 125.777 152.811 126.742C151.561 127.887 150.31 129.045 149.111 130.242C148.017 129.187 147.405 127.9 148.265 126.601C148.708 125.919 148.291 124.928 147.613 124.581C146.819 124.182 146.024 124.542 145.568 125.224C143.953 127.656 145.19 130.473 147.066 132.377C146.949 132.493 146.845 132.622 146.74 132.75C147.496 133.445 148.199 134.179 148.851 134.938C149.072 134.693 149.281 134.449 149.502 134.204C150.362 134.706 151.261 135.105 152.238 135.401C153.58 135.813 155.43 136.224 156.811 135.735C159.546 134.77 158.752 131.786 157.657 129.405C155.925 127.308 153.892 125.417 151.691 123.693ZM155.586 132.905C155.391 132.905 155.104 132.918 155 132.918C154.283 132.853 153.58 132.699 152.889 132.48C152.525 132.365 152.108 132.197 151.652 131.979C152.512 131.117 153.397 130.28 154.296 129.457C154.856 130.473 155.404 131.541 155.573 132.673C155.586 132.699 155.586 132.815 155.586 132.905Z" fill="black"/>
<path d="M159.69 118.675C157.201 117.26 153.788 117.775 152.225 120.283C151.561 121.338 151.469 122.483 151.678 123.629C153.463 124.774 155.13 126.047 156.654 127.463C156.641 127.424 156.615 127.398 156.602 127.36C157.905 126.215 159.221 125.07 160.536 123.937C161.044 124.967 161.37 126.112 161.709 127.18C162.282 129.019 165.174 128.144 164.614 126.305C164.158 124.838 163.65 123.345 162.894 122.007C163.715 121.377 164.588 120.811 165.526 120.322C164.94 119.499 164.314 118.701 163.624 117.955C162.712 118.456 161.852 119.023 161.031 119.666C160.628 119.306 160.198 118.971 159.69 118.675ZM155.156 124.658C154.466 123.05 154.218 121.351 156.224 120.927C157.11 120.734 157.983 121.081 158.7 121.609C157.501 122.612 156.329 123.629 155.156 124.658Z" fill="black"/>
<path d="M45.5307 172.442C45.3353 171.914 44.9314 171.464 44.3843 171.348C32.347 168.865 20.0882 167.887 7.80341 168.518C7.47773 168.531 7.1781 168.621 6.93058 168.749C6.21407 168.942 5.57573 169.47 5.43243 170.383C5.39335 170.628 5.35427 170.872 5.31519 171.117C13.1186 169.521 21.1174 169.071 29.025 169.804C29.6503 169.869 30.2756 169.933 30.901 169.997C36.3855 170.383 41.6746 169.431 43.316 174.706C43.2509 175.054 43.1858 175.414 43.1076 175.761C43.6808 178.592 39.6944 179.621 40.7757 181.808C40.6585 182.297 40.5673 182.773 40.4761 183.211C40.3849 183.648 40.2937 184.047 40.1895 184.407C40.0722 184.87 39.955 185.333 39.8117 185.797C39.6684 186.26 39.5121 186.71 39.3297 187.16C39.2254 187.675 39.1603 188.19 39.1343 188.679C39.0952 189.232 39.0561 189.759 39.03 190.287C38.9649 191.342 38.9128 192.345 38.8607 193.272C38.9128 193.864 38.9779 194.442 39.0431 195.034C39.1733 196.218 39.2906 197.415 39.3948 198.662C39.486 199.241 39.5902 199.808 39.6814 200.361C39.955 202.046 40.1895 203.642 40.424 205.108C40.5673 205.623 40.6975 206.138 40.8278 206.652C40.8539 207.077 40.7497 207.501 40.4761 207.926C40.2025 208.351 39.7335 208.788 39.0561 209.225C36.2813 211.631 32.4773 210.087 28.2694 210.242C27.6702 210.229 27.0839 210.229 26.4977 210.268C25.8463 210.203 25.195 210.113 24.5436 209.997C23.8922 210.1 23.2409 210.203 22.5765 210.319C18.6813 210.962 14.7991 211.67 10.93 212.403C10.2786 212.828 9.88779 213.51 10.0572 214.372C10.2395 215.298 11.3729 216.199 12.363 215.877C21.0132 212.982 30.1063 211.85 39.1994 212.532C40.0331 213.548 41.87 213.24 42.4693 212.043C43.0425 211.335 43.0555 210.177 42.4302 209.444C40.8018 197.723 42.2217 185.771 46.5078 174.706C46.9116 173.664 46.3514 172.815 45.5307 172.442Z" fill="black"/>
<path d="M8.97588 212.802C7.71222 213.046 6.44857 213.278 5.19794 213.535C5.95353 215.53 9.18431 214.899 8.97588 212.802Z" fill="black"/>
<path d="M24.5175 210.036C25.1689 210.152 25.8203 210.242 26.4716 210.306C27.0579 210.267 27.6441 210.267 28.2434 210.28C32.4382 210.126 36.2552 211.67 39.03 209.264C39.7075 208.826 40.1634 208.389 40.45 207.964C40.7366 207.54 40.8278 207.115 40.8018 206.691C40.6715 206.176 40.5412 205.661 40.3979 205.147C40.1634 203.693 39.9289 202.085 39.6554 200.399C39.5642 199.833 39.473 199.267 39.3688 198.701C39.2645 197.466 39.1343 196.256 39.017 195.073C38.9519 194.481 38.8998 193.889 38.8346 193.31C38.8867 192.371 38.9389 191.367 39.004 190.325C39.03 189.798 39.0691 189.257 39.1082 188.717C39.1343 188.228 39.2124 187.726 39.3036 187.199C39.486 186.749 39.6423 186.298 39.7856 185.835C39.9289 185.372 40.0592 184.909 40.1634 184.446C40.2676 184.085 40.3719 183.686 40.45 183.249C40.5412 182.812 40.6324 182.336 40.7497 181.847C39.6684 179.659 43.6548 178.63 43.0816 175.8C43.1597 175.452 43.2249 175.105 43.29 174.745C41.6355 169.47 36.3594 170.409 30.8749 170.036C30.2496 169.959 29.6243 169.894 28.999 169.843C21.0913 169.109 13.0925 169.56 5.28913 171.155C3.07448 185.076 1.71963 199.422 5.10675 213.291C5.1328 213.381 5.15886 213.458 5.19794 213.535C6.4616 213.278 7.72525 213.046 8.97588 212.802C8.96285 212.699 8.96285 212.609 8.9368 212.506C5.69298 199.28 6.96966 185.629 9.06707 172.326C20.2055 171.863 31.383 172.673 42.3129 174.86C38.3787 185.655 37.0368 197.234 38.3787 208.621C29.3116 208.08 20.1664 209.238 11.5553 212.12C11.3208 212.197 11.0993 212.3 10.9039 212.429C14.7731 211.696 18.6552 210.988 22.5504 210.345C23.2148 210.242 23.8662 210.139 24.5175 210.036Z" fill="black"/>
<path d="M13.4573 179.286C19.6584 179.505 25.8464 179.955 32.0213 180.637C34.5226 180.908 34.7701 177.061 32.2819 176.79C26.1199 176.109 19.9189 175.658 13.7179 175.44C11.2036 175.337 10.93 179.196 13.4573 179.286Z" fill="black"/>
<path d="M13.4182 187.585C17.4437 187.07 21.5734 187.135 25.677 187.701C26.6931 187.842 27.7353 186.89 27.7483 185.9C27.7744 184.793 27.0188 183.995 25.9245 183.854C21.5082 183.249 17.0398 183.249 12.6236 183.815C11.5814 183.944 10.9039 185.128 11.0994 186.093C11.3339 187.173 12.363 187.714 13.4182 187.585Z" fill="black"/>
<path d="M13.4182 196.244C15.6068 195.51 17.9127 195.047 20.2315 194.996C22.7328 194.931 25.221 195.214 27.7093 195.485C28.7645 195.6 29.7155 194.687 29.7806 193.683C29.8458 192.603 29.012 191.741 27.9568 191.638C22.7719 191.072 17.6521 190.801 12.6236 192.474C11.6204 192.808 10.8779 193.645 11.0994 194.751C11.3078 195.678 12.4151 196.578 13.4182 196.244Z" fill="black"/>
<path d="M133.205 369.432C141.959 366.215 151.574 367.219 160.654 368.119C160.927 368.145 161.175 368.119 161.396 368.055C162.295 368.029 163.194 367.476 163.376 366.37C158.726 365.765 154.036 365.43 149.346 365.405C147.001 365.392 144.643 365.443 142.298 365.572C141.034 365.636 139.784 365.739 138.52 365.855C137.908 365.906 136.931 365.881 136.266 366.164C135.289 367.682 132.554 367.27 132.814 365.212C132.723 364.838 132.749 364.44 132.944 364.067C133.231 361.622 133.14 359.152 133.062 356.682C132.983 354.224 132.905 351.754 132.723 349.296C132.358 344.485 131.629 339.647 130 335.105C128.945 335.208 127.955 336.032 128.229 337.357C130.209 346.981 131.016 356.772 130.639 366.588C129.701 367.849 131.251 370.152 133.205 369.432Z" fill="black"/>
<path d="M131.603 331.644C131.928 331.258 132.41 331.001 133.062 331.04C138.768 331.348 144.448 331.065 150.088 330.178C152.785 329.753 155.469 329.251 158.191 329.033C158.491 329.007 158.804 328.981 159.103 328.955C158.973 328.621 158.856 328.274 158.726 327.939C158.465 327.283 157.996 326.961 157.488 326.884C157.214 326.794 156.902 326.755 156.563 326.794C147.496 327.965 138.403 328.955 129.284 329.74C128.228 329.83 127.577 331.078 127.759 332.018C127.955 332.982 128.763 333.471 129.648 333.523C129.753 332.481 130.691 331.696 131.603 331.644Z" fill="black"/>
<path d="M133.062 356.681C133.14 359.152 133.231 361.609 132.944 364.066C132.749 364.44 132.723 364.838 132.814 365.211C132.554 367.27 135.289 367.682 136.266 366.164C136.931 365.881 137.908 365.919 138.52 365.855C139.784 365.739 141.034 365.649 142.298 365.572C144.643 365.443 147.001 365.379 149.346 365.404C154.036 365.43 158.726 365.778 163.376 366.369C163.376 366.357 163.389 366.344 163.389 366.344C165.174 353.722 163.637 340.856 159.103 328.955C158.804 328.981 158.491 329.007 158.191 329.033C155.469 329.251 152.785 329.753 150.088 330.178C144.435 331.065 138.755 331.348 133.062 331.04C132.41 331.001 131.928 331.258 131.603 331.644C130.691 331.696 129.753 332.481 129.661 333.536C129.805 333.548 129.935 333.548 130.078 333.536C138.611 332.789 147.131 331.876 155.625 330.795C159.651 341.435 161.031 352.886 159.729 364.169C151.313 363.346 142.767 362.793 134.586 365.006C134.82 355.472 133.974 345.925 132.059 336.572C131.824 335.453 130.899 335.015 130 335.105C131.616 339.647 132.345 344.484 132.723 349.296C132.905 351.754 132.983 354.211 133.062 356.681Z" fill="black"/>
<path d="M137.348 339.351C141.425 338.849 145.333 338.618 149.463 338.644C150.479 338.644 151.521 337.936 151.534 336.842C151.561 335.852 150.805 334.797 149.711 334.797C145.307 334.784 140.917 335.041 136.553 335.581C135.537 335.71 134.794 336.907 135.029 337.859C135.315 338.927 136.253 339.48 137.348 339.351Z" fill="black"/>
<path d="M149.88 345.269C150.896 345.166 151.639 343.918 151.404 342.992C151.118 341.886 150.193 341.384 149.098 341.487C147.235 341.667 145.607 341.796 143.887 341.886C142.051 341.989 140.201 342.053 138.364 342.079C137.348 342.091 136.305 342.773 136.292 343.88C136.266 344.858 137.022 345.951 138.116 345.925C142.024 345.861 145.959 345.642 149.88 345.269Z" fill="black"/>
<path d="M144.682 347.843C142.467 347.984 140.305 348.048 138.221 348.885C137.27 349.271 136.866 350.609 137.348 351.471C137.895 352.436 138.95 352.745 139.966 352.333C141.36 351.767 143.262 351.767 144.877 351.664C146.858 351.535 148.838 351.406 150.805 351.278C151.821 351.213 152.863 350.609 152.876 349.477C152.889 348.537 152.147 347.354 151.052 347.431C148.942 347.572 146.819 347.714 144.682 347.843Z" fill="black"/>
<path d="M152.824 357.453C152.798 357.492 152.759 357.531 152.733 357.569C152.472 357.981 152.277 358.47 152.277 358.946C152.277 359.152 152.277 359.358 152.316 359.563C152.251 360.528 152.824 361.519 154.075 361.596C154.075 361.596 154.075 361.596 154.088 361.596C154.114 361.609 154.153 361.622 154.179 361.635C154.374 361.686 154.583 361.725 154.778 361.763C154.817 361.776 154.869 361.776 154.909 361.776C155.378 361.789 155.873 361.712 156.289 361.48C156.368 361.429 156.446 361.365 156.524 361.313C156.693 361.236 156.85 361.146 157.084 360.966C157.267 360.824 157.423 360.644 157.566 360.464C157.579 360.451 157.592 360.425 157.605 360.413C157.683 360.284 157.775 360.091 157.84 359.949C157.866 359.898 157.879 359.859 157.892 359.808C157.931 359.666 157.996 359.396 158.009 359.19C158.009 359.023 157.983 358.817 157.97 358.65C157.97 358.624 157.97 358.599 157.957 358.573C157.918 358.328 157.827 358.071 157.696 357.852C157.579 357.659 157.449 357.428 157.267 357.26C157.097 357.093 156.902 356.9 156.68 356.784C156.224 356.527 155.794 356.36 155.273 356.334C154.778 356.308 154.231 356.398 153.801 356.63C153.593 356.746 153.384 356.874 153.215 357.029C153.202 357.042 153.176 357.067 153.163 357.093C153.046 357.183 152.954 357.286 152.876 357.402C152.863 357.415 152.837 357.428 152.824 357.453Z" fill="black"/>
<path d="M74.5036 575.029C74.6729 574.926 74.8684 574.81 75.0768 574.669C75.1419 574.63 75.2071 574.578 75.2592 574.54C75.7021 574.167 76.2362 573.845 76.8094 573.511C77.8647 572.88 78.9459 572.237 79.8057 571.105C80.0402 570.796 80.1444 570.423 80.1054 570.037C80.0663 569.612 79.91 569.213 79.6494 568.866C79.3758 568.506 78.998 568.223 78.5681 568.068L73.3572 566.151C72.9012 565.083 72.6407 563.707 72.3671 562.33C72.315 562.06 72.2629 561.79 72.1977 561.455L72.0544 560.863C71.833 559.989 71.1425 559.332 70.2567 559.139C69.3578 558.946 68.4589 559.268 67.8987 559.976L64.5898 564.08C64.1859 564.595 62.6617 564.35 61.4371 564.144L61.2808 564.118C60.6815 564.028 60.1214 563.938 59.5612 563.913L58.9359 563.874C58.037 563.81 57.1902 564.26 56.7342 565.032C56.2783 565.804 56.3043 566.756 56.8124 567.502L59.8738 572.031C59.6263 572.661 59.4049 573.279 59.2095 573.832C58.8317 574.926 58.4669 575.968 57.9067 576.907C57.8676 576.972 57.8416 577.023 57.8025 577.113C57.6331 577.538 57.581 577.988 57.6722 578.438C57.8025 579.082 58.1933 579.648 58.7665 579.982C59.001 580.124 59.2485 580.227 59.5091 580.278C59.8738 580.355 60.2647 580.342 60.6425 580.239L65.9576 578.773L66.9347 579.583C67.0259 579.648 67.1171 579.712 67.2213 579.763C67.5209 579.918 67.9508 580.304 68.3807 580.703C69.1493 581.41 70.2046 582.388 71.4552 582.478C71.6376 582.491 71.82 582.478 72.0023 582.452C72.328 582.401 72.6537 582.285 72.8491 582.157C74.2561 581.629 74.23 580.008 74.204 578.708C74.204 578.49 74.1909 578.258 74.204 578.104L74.3342 575.145L74.5036 575.029ZM73.292 573.858C73.279 573.884 73.253 573.909 73.2399 573.935C73.0185 574.283 72.797 574.656 72.6407 574.939C72.1326 575.929 71.7548 576.997 71.4812 578.078C71.4031 578.387 71.2467 578.606 71.0644 578.799C71.0644 578.837 71.0644 578.901 71.0644 578.966C71.0253 578.94 70.9992 578.901 70.9601 578.876C70.5433 579.236 69.9831 579.377 69.4099 579.313C69.0321 579.365 68.6282 579.339 68.2504 579.185C67.4167 578.863 66.6481 578.194 66.114 577.512C66.0749 577.46 65.8664 577.216 65.6841 576.959C65.5798 576.959 65.4626 576.959 65.3584 576.959C64.5767 576.972 63.7821 577.113 63.0134 577.293C61.6716 577.602 60.7076 576.483 60.6685 575.273C60.6425 574.45 60.8639 573.626 61.0984 572.842C61.2938 572.211 61.4762 571.851 61.4371 571.311C61.4241 571.349 61.3329 571.027 61.3981 571.169C61.4762 571.323 61.2547 570.899 61.2417 570.86C61.2287 570.835 61.1766 570.744 61.1636 570.719C61.0724 570.59 60.9812 570.474 60.89 570.346C60.434 569.754 59.965 569.162 59.6003 568.493C59.0922 567.579 59.5482 566.357 60.4731 565.907C61.2938 565.508 62.2318 565.752 62.805 566.383C63.6648 565.65 65.202 565.611 65.8534 566.743C66.114 566.512 66.4006 566.306 66.7262 566.126C66.8565 565.675 66.9477 565.225 67.0128 564.775C67.1822 563.437 68.8237 562.33 70.0613 563.295C70.895 563.951 71.3119 564.762 71.5203 565.791C71.5594 565.958 71.5724 566.138 71.6115 566.306C71.6245 566.331 71.6245 566.357 71.6245 566.396C72.1456 566.576 72.6798 566.666 73.2008 566.859C73.7871 567.078 74.2691 567.399 74.6729 567.824C75.168 567.824 75.6761 567.965 76.2102 568.326C76.9006 568.789 77.2784 569.767 76.9658 570.564C76.5228 571.684 76.1841 573.331 75.0117 573.909C74.4515 574.18 73.8392 574.128 73.292 573.858Z" fill="black"/>
<path d="M76.9918 570.551C77.3045 569.767 76.9397 568.789 76.2362 568.313C75.7021 567.952 75.181 567.811 74.699 567.811C74.2952 567.386 73.8001 567.065 73.2269 566.846C72.7188 566.653 72.1717 566.563 71.6506 566.383C71.6506 566.357 71.6376 566.331 71.6376 566.293C71.5985 566.125 71.5724 565.945 71.5464 565.778C71.351 564.749 70.9211 563.951 70.0873 563.282C68.8497 562.304 67.2083 563.424 67.0389 564.762C66.9868 565.225 66.8826 565.662 66.7523 566.113C66.4396 566.28 66.153 566.499 65.8795 566.73C65.2411 565.598 63.6909 565.637 62.8311 566.37C62.2579 565.74 61.3069 565.482 60.4992 565.894C59.5742 566.344 59.1183 567.566 59.6263 568.48C59.9911 569.136 60.4601 569.728 60.916 570.333C61.0072 570.448 61.1114 570.577 61.1896 570.706C61.2026 570.731 61.2547 570.822 61.2678 570.847C61.2938 570.886 61.5023 571.31 61.4241 571.156C61.3459 571.015 61.4371 571.336 61.4632 571.298C61.5023 571.838 61.3069 572.198 61.1245 572.829C60.877 573.613 60.6555 574.437 60.6946 575.26C60.7337 576.47 61.6977 577.589 63.0395 577.28C63.8081 577.1 64.5898 576.971 65.3844 576.946C65.4886 576.946 65.6059 576.946 65.7101 576.946C65.8925 577.19 66.1009 577.435 66.14 577.499C66.6872 578.194 67.4428 578.85 68.2765 579.172C68.6543 579.326 69.0581 579.352 69.4359 579.3C69.9961 579.377 70.5693 579.223 70.9862 578.863C70.8038 578.696 70.6214 578.541 70.5302 578.451C69.9961 577.962 69.449 577.447 68.8758 577.152L67.6772 576.161C67.1562 575.723 66.4657 575.543 65.7753 575.646C65.6841 575.659 65.6059 575.685 65.5147 575.698L61.4371 576.817C61.7237 576.135 61.9582 575.466 62.1927 574.797C62.4142 574.167 62.6487 573.498 62.9353 572.829C63.0786 572.481 63.1307 572.095 63.0916 571.735C63.0525 571.362 62.9223 570.989 62.7138 570.68L60.3298 567.116C60.5382 567.142 60.7597 567.18 60.9812 567.219C63.0134 567.541 65.5277 567.952 67.078 566.01L69.3708 563.153C69.6835 564.813 70.0352 566.511 70.7908 567.952C70.8559 568.068 70.9211 568.171 71.0253 568.287C71.2858 568.57 71.6115 568.789 71.9633 568.917L75.9757 570.397C75.7412 570.551 75.4806 570.706 75.2201 570.86C74.6078 571.22 73.9174 571.632 73.3832 572.095C73.2009 572.211 73.0185 572.327 72.8752 572.417L72.3541 572.739C71.6897 573.15 71.2728 573.858 71.2467 574.63L71.1034 578.014V578.026C71.1034 578.245 71.1034 578.49 71.1034 578.798C71.2858 578.605 71.4422 578.387 71.5203 578.078C71.8069 577.01 72.1717 575.929 72.6798 574.939C72.8231 574.656 73.0576 574.282 73.279 573.935C73.292 573.909 73.3181 573.884 73.3311 573.858C73.8653 574.128 74.4906 574.18 75.0638 573.896C76.2102 573.318 76.5489 571.671 76.9918 570.551Z" fill="black"/>
<path d="M61.2939 549.464L60.421 546.17C60.2256 545.424 60.408 544.626 60.9161 544.047L61.3199 543.584C61.4372 543.456 61.5674 543.301 61.7107 543.134C62.0885 542.542 62.6226 541.95 63.0916 541.423C63.3001 541.204 63.4955 540.985 63.6779 540.767L59.4049 540.535C59.0271 540.509 58.6493 540.394 58.3236 540.213C58.2064 540.136 58.1021 540.059 58.0109 539.969C56.8515 538.811 56.0178 537.28 55.2231 535.788L53.8813 539.184C52.9824 541.487 50.4551 541.835 48.4228 542.118C48.2013 542.143 47.9799 542.182 47.7714 542.208L51.1195 544.91C51.4191 545.141 51.6536 545.463 51.7969 545.81C51.9402 546.145 52.0053 546.518 51.9793 546.904C51.9011 547.624 51.8881 548.319 51.862 549.001C51.836 549.708 51.8099 550.429 51.7448 551.149L55.3013 548.885C55.3794 548.834 55.4576 548.795 55.5357 548.756C56.1611 548.448 56.8776 548.435 57.5029 548.692L58.9489 549.284C59.5742 549.4 60.2517 549.734 60.9161 550.043C61.0333 550.107 61.2678 550.21 61.5023 550.313C61.5153 550.287 61.5414 550.249 61.5544 550.21V550.197C61.4241 549.901 61.346 549.67 61.2939 549.464Z" fill="#F7C300"/>
<path d="M66.7523 538.219C66.3745 537.949 65.9446 537.795 65.4756 537.769L59.9259 537.46C59.1704 536.572 58.506 535.337 57.8416 534.102C57.7113 533.858 57.581 533.613 57.4117 533.317L57.086 532.803C56.617 532.031 55.7572 531.606 54.8453 531.683C53.9333 531.761 53.1647 532.327 52.8391 533.163L50.911 538.052C50.6765 538.657 49.1523 538.863 47.9147 539.03L47.7584 539.056C47.1591 539.133 46.5989 539.223 46.0518 539.352L45.4395 539.493C44.5536 539.699 43.8892 540.368 43.6808 541.243C43.4724 542.118 43.785 543.018 44.4885 543.584L48.7615 547.02C48.7094 547.689 48.6833 548.345 48.6703 548.924C48.6312 550.082 48.5921 551.175 48.3446 552.243C48.3316 552.308 48.3186 552.385 48.3055 552.462C48.2664 552.912 48.3576 553.363 48.5791 553.761C48.8918 554.34 49.4389 554.752 50.0772 554.919C50.3378 554.984 50.6114 555.009 50.8719 554.984C51.2367 554.945 51.6145 554.829 51.9532 554.623L56.5909 551.677L57.7634 552.166C57.8676 552.205 57.9718 552.243 58.0891 552.256C58.4278 552.32 58.9489 552.565 59.47 552.822C60.421 553.273 61.7107 553.903 62.9353 553.62C63.1046 553.581 63.287 553.517 63.4564 553.44C63.756 553.298 64.0296 553.092 64.1729 552.912C65.3584 551.999 64.8503 550.468 64.4334 549.22C64.3553 549.001 64.2901 548.795 64.238 548.641L63.4694 545.772L63.6127 545.617C63.743 545.476 63.8993 545.296 64.0556 545.103C64.1077 545.038 64.1598 544.974 64.1859 544.923C64.4986 544.434 64.9154 543.97 65.3584 543.482C66.1791 542.581 67.0259 541.642 67.4949 540.304C67.6251 539.943 67.6121 539.545 67.4688 539.197C67.3776 538.811 67.104 538.464 66.7523 538.219ZM63.8472 544.369C63.3782 544.82 62.7659 544.935 62.1797 544.845C62.1667 544.871 62.1536 544.897 62.1536 544.923C62.0494 545.308 61.9452 545.746 61.8931 546.055C61.6977 547.148 61.6716 548.281 61.7237 549.387C61.7368 549.709 61.6716 549.979 61.5413 550.21C61.5544 550.249 61.5674 550.3 61.5934 550.352C61.5544 550.339 61.5283 550.326 61.4892 550.313C61.2026 550.777 60.6815 551.072 60.1214 551.163C59.7696 551.317 59.3788 551.407 58.9749 551.381C58.0891 551.317 57.1511 550.905 56.4346 550.403C56.3825 550.365 56.1089 550.198 55.8614 550.005C55.7572 550.03 55.653 550.069 55.5487 550.095C54.8062 550.339 54.0897 550.699 53.4123 551.098C52.2268 551.78 50.9631 550.995 50.5723 549.863C50.2987 549.078 50.2596 548.229 50.2596 547.406C50.2596 546.749 50.3248 546.338 50.1294 545.836C50.1294 545.875 49.947 545.604 50.0512 545.707C50.1684 545.823 49.8428 545.489 49.8037 545.463C49.7776 545.437 49.7125 545.373 49.6864 545.347C49.5692 545.257 49.4389 545.167 49.3086 545.077C48.6963 544.639 48.071 544.215 47.5239 543.687C46.7683 542.954 46.8334 541.667 47.589 540.96C48.2534 540.342 49.2174 540.291 49.96 540.728C50.5593 539.776 52.0183 539.287 52.9824 540.175C53.1647 539.879 53.3732 539.596 53.6337 539.339C53.6207 538.876 53.5816 538.412 53.5034 537.962C53.269 536.637 54.4935 535.093 55.9656 535.659C56.9557 536.045 57.6071 536.688 58.1021 537.615C58.1803 537.769 58.2584 537.923 58.3496 538.078C58.3627 538.104 58.3757 538.129 58.3887 538.155C58.9359 538.181 59.483 538.104 60.0302 538.142C60.6555 538.181 61.2157 538.348 61.7237 538.644C62.1927 538.502 62.7268 538.49 63.3521 538.67C64.1598 538.914 64.7982 539.738 64.733 540.587C64.6288 541.809 64.7982 543.469 63.8472 544.369Z" fill="black"/>
<path d="M63.3261 538.695C62.7138 538.515 62.1797 538.528 61.6977 538.67C61.1896 538.387 60.6164 538.219 60.0041 538.168C59.457 538.129 58.9098 538.206 58.3627 538.181C58.3497 538.155 58.3366 538.129 58.3236 538.104C58.2324 537.949 58.1543 537.795 58.0761 537.64C57.5811 536.714 56.9297 536.071 55.9396 535.685C54.4675 535.119 53.2299 536.663 53.4774 537.988C53.5556 538.438 53.5947 538.901 53.6077 539.364C53.3602 539.622 53.1387 539.905 52.9563 540.201C52.0053 539.3 50.5463 539.802 49.934 540.754C49.1914 540.316 48.2144 540.355 47.563 540.985C46.8204 541.693 46.7423 542.98 47.4979 543.713C48.045 544.241 48.6573 544.665 49.2826 545.103C49.4129 545.193 49.5432 545.283 49.6604 545.373C49.6865 545.398 49.7516 545.463 49.7777 545.489C49.8037 545.527 50.1424 545.862 50.0252 545.733C49.921 545.617 50.0903 545.9 50.1033 545.862C50.2988 546.363 50.2336 546.762 50.2336 547.431C50.2336 548.255 50.2727 549.104 50.5463 549.889C50.9501 551.021 52.2007 551.819 53.3862 551.124C54.0637 550.725 54.7802 550.365 55.5227 550.12C55.6269 550.082 55.7312 550.056 55.8354 550.03C56.0829 550.21 56.3565 550.39 56.4086 550.429C57.1381 550.931 58.0631 551.33 58.9489 551.407C59.3528 551.433 59.7436 551.355 60.0953 551.188C60.6555 551.098 61.1766 550.802 61.4632 550.339C61.2287 550.236 60.9942 550.12 60.877 550.069C60.2256 549.747 59.5352 549.426 58.9098 549.31L57.4638 548.718C56.8385 548.461 56.122 548.473 55.4967 548.782C55.4185 548.821 55.3403 548.859 55.2622 548.911L51.7057 551.175C51.7708 550.442 51.7969 549.734 51.823 549.027C51.849 548.358 51.8751 547.663 51.9402 546.93C51.9663 546.556 51.9011 546.183 51.7578 545.836C51.6015 545.489 51.367 545.18 51.0804 544.935L47.7324 542.233C47.9408 542.195 48.1623 542.169 48.3837 542.143C50.416 541.86 52.9433 541.513 53.8422 539.21L55.184 535.813C55.9787 537.306 56.8255 538.824 57.9719 539.995C58.0631 540.085 58.1673 540.175 58.2845 540.239C58.6102 540.432 58.988 540.548 59.3658 540.561L63.6388 540.792C63.4564 541.011 63.261 541.23 63.0526 541.449C62.5705 541.976 62.0364 542.568 61.6717 543.16C61.5283 543.327 61.3981 543.481 61.2808 543.61L60.877 544.073C60.3689 544.652 60.1865 545.45 60.3819 546.196L61.2548 549.477V549.49C61.3199 549.709 61.3981 549.927 61.4893 550.236V550.249C61.6065 550.017 61.6847 549.734 61.6717 549.426C61.6195 548.319 61.6456 547.187 61.841 546.093C61.8931 545.784 61.9973 545.347 62.1016 544.961C62.1146 544.935 62.1276 544.91 62.1276 544.884C62.7138 544.987 63.3261 544.858 63.7951 544.408C64.7461 543.507 64.5768 541.847 64.6679 540.638C64.7852 539.75 64.1338 538.927 63.3261 538.695Z" fill="black"/>
<path d="M34.3011 533.124C34.3272 533.047 34.3532 532.97 34.3662 532.919C34.4835 532.352 34.718 531.774 34.9655 531.169C35.4215 530.037 35.8774 528.866 35.8644 527.463C35.8644 527.077 35.7081 526.717 35.4475 526.434C35.1609 526.125 34.7831 525.894 34.3662 525.778C33.9233 525.649 33.4543 525.662 33.0244 525.791L27.7093 527.399C26.6931 526.833 25.6379 525.894 24.5827 524.955C24.3742 524.774 24.1658 524.594 23.9053 524.363L23.4232 523.99C22.7067 523.424 21.7557 523.321 20.935 523.707C20.1013 524.093 19.5932 524.89 19.5671 525.778L19.476 530.075C19.8407 529.844 20.1925 529.612 20.5572 529.38C20.6745 529.303 20.9741 529.046 21.1174 529.007C21.1304 529.007 21.1304 528.995 21.1304 528.995C21.1304 528.866 21.1695 528.711 21.1825 528.583C21.2737 528.03 21.4301 527.566 21.7427 527.09C21.7948 527.026 21.8469 526.962 21.899 526.897C21.899 526.884 21.899 526.872 21.9121 526.859C22.6025 525.315 24.6218 525.148 25.5076 526.627C25.9506 527.373 26.3544 528.145 26.7061 528.943C27.3184 528.557 27.9959 528.287 28.7384 528.287C29.3768 528.3 29.9109 528.493 30.3668 528.802C30.3799 528.776 30.4059 528.75 30.419 528.724C30.7446 528.21 31.5263 527.759 32.1646 527.875C33.3631 528.107 34.236 528.776 34.4444 530.011C34.6138 531.014 34.0796 531.876 33.5195 532.661C32.9202 533.485 32.2688 534.282 31.6044 535.054C32.334 535.466 33.0635 535.891 33.767 536.341C34.6789 536.933 34.8352 538.142 34.2881 539.017C33.8061 539.802 32.7639 539.995 31.9301 539.673C31.7347 539.802 31.5132 539.905 31.2788 539.956C30.8358 540.059 30.3668 540.085 29.9239 540.008H29.9109C29.8457 540.136 29.7936 540.278 29.7024 540.394C29.4158 540.793 29.012 541.101 28.5691 541.294C28.2434 541.68 27.9177 542.066 27.605 542.452L24.6087 546.016C24.2309 546.466 23.775 546.749 23.2409 546.827C23.6577 547.045 24.1398 547.148 24.6087 547.097C24.8823 547.071 25.1429 546.994 25.3774 546.891C25.7161 546.737 26.0157 546.492 26.2632 546.183L29.5852 541.835L30.8619 541.886C30.9661 541.886 31.0833 541.886 31.2006 541.86C31.5393 541.796 32.1125 541.86 32.6987 541.912C33.754 542.015 35.187 542.156 36.2292 541.474C36.3725 541.372 36.5158 541.256 36.646 541.127C36.8805 540.895 37.0629 540.612 37.1411 540.381C37.9357 539.12 36.9196 537.859 36.0989 536.83C35.9556 536.65 35.8123 536.482 35.7211 536.354L34.0015 533.922L34.0796 533.729C34.1318 533.575 34.2229 533.356 34.3011 533.124Z" fill="black"/>
<path d="M18.8116 538.116C18.5901 537.782 18.3947 537.512 18.2253 537.28C18.3165 537.409 18.1732 537.242 18.1081 537.203C18.3295 537.344 17.8345 537.1 17.8085 537.087C17.0529 536.817 16.3885 536.688 15.6068 536.611C14.8512 536.547 14.2129 536.058 13.9393 535.376C13.809 535.723 13.7569 536.084 13.796 536.457C13.9133 537.344 14.5125 538.078 15.3723 538.374L19.8928 539.905C19.8798 539.879 19.8798 539.841 19.8668 539.815C19.5411 539.249 19.1763 538.67 18.8116 538.116Z" fill="black"/>
<path d="M27.6051 542.478C27.9307 542.092 28.2564 541.706 28.5691 541.32C29.012 541.114 29.4028 540.818 29.7025 540.419C29.7936 540.304 29.8458 540.162 29.9109 540.033H29.9239C30.3669 540.098 30.8358 540.072 31.2788 539.982C31.5133 539.93 31.7347 539.828 31.9301 539.699C32.7639 540.021 33.7931 539.815 34.2881 539.043C34.8352 538.168 34.6789 536.958 33.767 536.367C33.0635 535.916 32.334 535.479 31.6045 535.08C32.2689 534.308 32.9072 533.51 33.5195 532.687C34.0927 531.902 34.6138 531.053 34.4444 530.037C34.236 528.801 33.3632 528.132 32.1646 527.901C31.5263 527.785 30.7446 528.235 30.419 528.75C30.4059 528.776 30.3799 528.801 30.3669 528.827C29.9239 528.518 29.3768 528.313 28.7384 528.313C27.9959 528.3 27.3184 528.57 26.7062 528.969C26.3544 528.171 25.9506 527.399 25.5076 526.653C24.6218 525.173 22.6156 525.34 21.9121 526.884C21.9121 526.897 21.9121 526.91 21.8991 526.923C21.8469 526.987 21.7818 527.039 21.7427 527.116C21.4301 527.592 21.2737 528.055 21.1826 528.608C21.1695 528.737 21.1304 528.879 21.1304 529.02C21.1174 529.02 21.1174 529.033 21.1174 529.033C20.9611 529.059 20.6745 529.329 20.5572 529.406C20.1925 529.638 19.8407 529.869 19.476 530.101L19.4629 531.04C19.4499 531.696 18.0951 532.404 17.0008 532.983L16.8575 533.06C16.3233 533.343 15.8283 533.613 15.3593 533.922L14.8382 534.269C14.4083 534.553 14.1087 534.964 13.9393 535.427C14.2129 536.109 14.8643 536.598 15.6068 536.662C16.3885 536.727 17.0529 536.868 17.8085 537.139C17.8345 537.151 18.3296 537.383 18.1081 537.254C18.1602 537.293 18.3165 537.447 18.2253 537.332C18.3947 537.55 18.5901 537.833 18.8116 538.168C19.1763 538.721 19.5411 539.287 19.8798 539.879C19.8928 539.905 19.8928 539.943 19.9059 539.969L20.5963 540.201C20.7787 540.857 20.9871 541.474 21.1695 542.028C21.5343 543.134 21.886 544.163 22.0293 545.257C22.0424 545.321 22.0554 545.398 22.0684 545.476C22.1987 545.913 22.4332 546.299 22.7849 546.608C22.9282 546.724 23.0715 546.827 23.2279 546.904C23.762 546.827 24.2179 546.531 24.5957 546.093L27.6051 542.478ZM23.5145 538.953C23.4102 538.592 23.2148 538.258 22.9673 537.988C22.7068 537.705 22.368 537.499 22.0163 537.37L17.9257 535.981C18.1081 535.878 18.3035 535.775 18.4989 535.672C20.3097 534.707 22.5635 533.523 22.6025 531.053L22.6677 527.412C23.9444 528.531 25.2601 529.676 26.7452 530.384C26.8625 530.435 26.9928 530.474 27.123 530.513C27.5008 530.577 27.8917 530.564 28.2564 530.448L32.347 529.213C32.2558 529.483 32.1386 529.754 32.0344 530.037C31.7738 530.693 31.4742 531.439 31.3309 532.121C31.2527 532.327 31.1876 532.52 31.1224 532.674L30.914 533.24C30.6404 533.961 30.7446 534.771 31.1876 535.402L33.1547 538.181L33.1677 538.194C33.298 538.374 33.4543 538.567 33.6498 538.811C33.6758 538.85 33.7149 538.888 33.754 538.94C33.4543 538.927 33.1547 538.888 32.9984 538.875C32.2689 538.798 31.5133 538.721 30.8879 538.824L29.3247 538.76C28.6472 538.734 27.9828 538.991 27.5008 539.493C27.4487 539.557 27.3836 539.622 27.3315 539.699L24.7911 543.031C24.5957 542.324 24.3743 541.642 24.1528 540.973C23.9183 540.316 23.6968 539.647 23.5145 538.953Z" fill="black"/>
</g>
<defs>
<clipPath id="clip0">
<rect width="197" height="814" fill="white"/>
</clipPath>
</defs>
</svg>
