<svg width="56" height="64" viewBox="0 0 56 64" fill="none" xmlns="http://www.w3.org/2000/svg">
<path d="M36.8076 13.1924C37.8401 14.6447 38.8726 16.0971 40.0265 17.489C40.816 18.4572 41.6663 19.3649 42.5773 20.2727C43.6705 18.6387 43.5491 16.6417 42.2129 15.1289C40.8768 13.616 38.8726 12.7688 36.8076 13.1924Z" fill="#59C59F"/>
<path d="M7.53444 35.6433C6.62344 36.2485 4.86216 36.9141 5.04436 38.2455C5.22657 39.5768 6.07684 40.9686 6.68417 42.1789C7.23078 43.3892 7.77738 44.6601 8.87059 45.4468C10.0245 46.3545 11.6643 46.6571 13.1219 46.415C13.1219 46.415 13.1219 46.415 13.1219 46.3545C13.4863 46.294 13.79 46.1124 14.0937 45.9309C14.3366 45.8099 14.5188 45.6283 14.701 45.4468C14.7618 45.3862 14.8225 45.3257 14.8832 45.3257L14.944 45.2652C15.3691 44.9626 15.7942 44.7206 16.2194 44.3575C16.4016 44.2365 16.523 44.0549 16.6445 43.9339C16.7052 43.8734 16.766 43.8129 16.8267 43.6918C16.8874 43.6313 16.8874 43.6313 16.9482 43.5708C17.0089 43.5103 17.1304 43.3892 16.8874 43.5708C17.0089 43.5103 17.0696 43.4498 17.1304 43.3287C17.2518 43.2682 17.3733 43.2077 17.434 43.1472C18.5272 42.421 19.3775 41.5133 20.1671 40.424C20.2278 40.2425 20.2885 40.0004 20.4707 39.8794C20.7137 39.5768 20.9566 39.2742 21.1388 38.9111C21.321 38.6691 21.6247 38.306 21.6854 38.0034C21.6854 37.7613 21.4425 37.3982 21.3817 37.1562L20.8959 36.1274C20.2885 34.7356 19.6812 33.2832 18.588 32.1334C18.1628 31.6493 17.6162 31.2862 17.0696 30.9836C16.8267 30.8626 16.523 30.7416 16.2801 30.6205C16.4623 30.7416 16.0372 30.56 16.0372 30.4995C15.9157 30.56 15.6728 30.7416 15.5513 30.8021C14.2152 31.5283 12.8183 32.315 11.4821 33.1017C10.2067 33.9489 8.87059 34.7961 7.53444 35.6433ZM11.7858 42.8446C12.0287 42.8446 12.2717 42.8446 12.4539 42.8446C12.5146 42.8446 12.5146 42.8446 12.5753 42.8446C12.6968 42.8446 12.8183 42.7841 12.879 42.7841C12.879 42.7841 12.9397 42.7841 12.9397 42.7236C13.0005 42.7236 13.0005 42.6631 13.0612 42.6631C13.1827 42.6025 13.1219 42.6025 13.0612 42.6631C13.5471 42.2395 14.2152 42.1789 14.701 42.6631C14.944 42.8446 15.0654 43.2077 15.0654 43.4498C15.0654 43.6918 14.944 44.1154 14.701 44.2365C14.0329 44.7206 13.3649 44.9626 12.5753 45.0837C11.968 45.1442 11.1785 45.1442 10.5711 44.9021C9.84232 44.6601 9.29572 44.1759 8.87059 43.6313C8.38472 43.0867 7.95958 42.4815 7.83811 41.7553C7.71665 41.1502 8.02031 40.545 8.68839 40.3635C9.23499 40.1819 10.0245 40.545 10.146 41.1502C10.146 41.2712 10.2675 41.3922 10.2675 41.5133C10.2675 41.5738 10.3282 41.5738 10.3282 41.6343C10.3889 41.7553 10.4497 41.8159 10.5104 41.9369C10.5104 41.9974 10.5711 41.9974 10.5711 42.0579C10.6926 42.2395 10.8748 42.421 11.057 42.542L11.1177 42.6025C11.1785 42.6025 11.1785 42.6631 11.2392 42.6631C11.2999 42.6631 11.4821 42.7236 11.5429 42.7841C11.7251 42.8446 11.7251 42.8446 11.7858 42.8446Z" fill="#59C59F"/>
<path d="M23.2046 61.4229C24.6622 61.1203 26.0591 60.6967 27.3952 60.1521C28.124 59.8495 28.9135 59.5469 29.6423 59.1838C30.0067 59.0023 30.4319 58.8207 30.7963 58.5787C30.9785 58.4577 31.1607 58.3971 31.3429 58.2761C31.1607 57.9735 30.9178 57.5499 30.7963 57.3079C28.3669 58.8207 25.2695 59.3654 22.415 59.4864C22.658 60.0916 22.9009 60.7572 23.2046 61.4229Z" fill="#F7C300"/>
<path d="M15.7943 28.3211C15.5514 28.3211 15.2477 28.3816 14.944 28.5632C14.033 28.9868 13.1828 29.5314 12.3325 30.0155C10.6319 30.9838 8.9314 32.0125 7.23085 33.0413C5.77325 33.949 3.7083 34.8567 2.9795 36.4907C2.37216 37.701 2.67583 38.9113 3.10096 40.1216C2.55436 40.3031 1.94702 40.5452 1.46116 40.7872C0.671617 41.2108 -0.0571872 41.7555 0.00354648 42.7842C0.0642802 43.5709 0.489416 44.4181 0.793084 45.1443C1.09675 45.81 1.40042 46.4151 1.76482 47.0203C2.49363 48.2306 3.40463 49.804 4.92298 50.1066C6.62352 50.4697 8.08113 49.4409 9.17433 48.2306C10.9963 48.9568 13.122 48.9568 14.944 48.2306C17.1304 52.8903 19.1347 57.6105 21.0174 62.3306C21.1389 62.6937 21.4425 62.9963 21.7462 63.1173C21.9891 63.541 22.475 63.904 23.0823 63.783C25.3295 63.3594 27.5159 62.6332 29.5809 61.7255C30.6133 61.3019 31.6458 60.7573 32.6175 60.2126C33.7107 59.6075 34.0751 58.7603 33.5285 57.6105C33.0427 56.5817 32.5568 55.4319 31.8887 54.4637C31.5851 54.0401 31.1599 53.798 30.6741 53.6165C30.6741 53.6165 30.6133 53.6165 30.6133 53.5559C31.2207 52.7692 31.0992 51.5589 30.4311 50.8933C30.1275 50.5907 29.7023 50.4092 29.3379 50.2276C29.2164 50.1671 28.852 50.0461 28.5484 49.925C28.6091 49.804 28.7306 49.683 28.7306 49.5619C29.0343 49.0778 29.095 48.4727 28.9128 47.928C28.7306 47.3834 28.3054 46.9598 27.7588 46.7177C27.4552 46.5967 27.1515 46.5362 26.7871 46.4151C26.8478 46.2941 26.8478 46.1731 26.8478 46.0521C26.9086 45.6285 26.7871 45.2048 26.6656 44.7812C26.362 43.8735 25.6939 43.1473 25.0258 42.4211C24.9651 42.3001 24.8436 42.2396 24.7222 42.2396C24.7222 42.2396 24.7222 42.2396 24.6614 42.1791C24.0541 41.5739 23.386 41.0898 22.6572 40.6057C23.0216 40.1216 23.3253 39.698 23.5682 39.1533C23.6897 38.9113 23.7504 38.7297 23.8112 38.5482C31.1599 33.8885 40.027 32.2546 48.469 30.2576C49.3193 30.076 49.4408 29.2894 49.1978 28.6842C49.4408 28.8052 49.7444 28.9263 49.9874 28.9868C51.3842 29.3499 52.2345 28.1396 52.6596 26.9898C53.4492 24.7507 52.7204 22.3301 51.8701 20.2121C50.1088 15.6129 47.558 11.3163 44.5213 7.38285C42.9423 5.32533 41.1203 3.32833 38.8731 1.93648C37.7799 1.27081 36.5045 0.544632 35.1684 0.665663C34.0144 0.907723 32.9819 1.81545 32.1317 2.78369C31.7065 3.2073 31.7673 3.75194 32.0102 4.17554C31.2814 3.93348 30.3097 4.4176 30.3097 5.32533C30.1275 5.44636 30.006 5.68842 29.9453 5.86997C26.6656 13.9185 21.9284 21.4224 16.0372 27.958C15.9158 28.079 15.855 28.2001 15.7943 28.3211ZM6.38058 47.6255C6.13765 47.807 6.13765 47.807 5.77325 47.8675C5.71251 47.8675 5.71251 47.8675 5.71251 47.8675C5.71251 47.8675 5.71251 47.8675 5.59105 47.8675C5.53031 47.8675 5.53031 47.8675 5.53031 47.8675C5.53031 47.8675 5.46958 47.8675 5.40884 47.8675C5.16591 47.807 4.92298 47.5649 4.74077 47.2624C4.37637 46.7782 4.0727 46.3546 3.82977 45.8705C3.28317 44.9023 2.85803 44.0551 2.49363 43.0263V42.9658C2.67583 42.8448 2.7973 42.7842 2.85803 42.7237C3.22243 42.4817 3.64757 42.3606 4.13344 42.2396C4.80151 43.692 5.46958 45.2654 6.56278 46.4757C6.74499 46.6572 6.92719 46.8993 7.17012 47.0808C6.86645 47.2624 6.62352 47.5044 6.38058 47.6255ZM30.2489 57.0053C30.5526 56.8843 30.917 56.7027 31.2814 56.6422C31.828 56.5212 32.4353 56.8238 32.6175 57.3684C32.7997 57.9736 32.3746 58.4577 31.8887 58.6997C31.6458 58.8208 31.4029 58.8813 31.0992 59.0023C30.5526 59.2444 30.0667 59.6075 29.5809 59.8495C28.7306 60.2731 27.8196 60.5152 26.9086 60.7573C26.4834 60.8783 26.119 60.9993 25.7546 61.1809C25.3295 61.4229 24.8436 61.665 24.3578 61.665C23.629 61.7255 22.9609 61.3624 22.6572 60.7573C22.2321 60.6967 21.8069 60.4547 21.6855 59.9706C21.564 59.4259 21.8677 58.7603 22.4143 58.6392C23.9326 58.3366 25.451 57.9736 26.9693 57.671C27.941 57.4894 29.1557 57.3079 30.2489 57.0053ZM23.1431 43.934C23.2038 43.9945 23.3253 44.0551 23.386 44.1156L23.4467 44.1761C23.9934 44.7812 24.7829 45.4469 24.4792 46.2941C24.0541 47.4439 24.7222 48.2306 25.8154 48.5332C26.0583 48.5937 26.3012 48.6542 26.4834 48.7147C26.3012 48.9568 26.1798 49.2594 26.119 49.3199C25.6939 50.2276 26.0583 51.2564 26.9086 51.801C27.273 52.0431 27.6981 52.1641 28.1232 52.2851C28.3054 52.3456 28.4269 52.3456 28.5484 52.4062C28.4269 52.6482 28.2447 53.0113 28.2447 53.0718C28.0625 53.5559 28.0625 54.0401 28.3054 54.5242C28.4876 54.8873 28.7913 55.1899 29.1557 55.3714C29.2165 55.3714 29.2165 55.4319 29.2772 55.4319C26.9693 56.7632 24.1756 57.1263 21.564 57.1869C21.5033 57.1869 21.5033 57.1869 21.4425 57.1869C19.9849 53.6165 18.4059 50.1066 16.766 46.6572C16.7053 46.5362 16.6446 46.4757 16.5838 46.4151C17.3734 45.9915 18.1022 45.5074 18.831 45.0233C19.4991 44.5997 20.1064 44.1156 20.7137 43.5104C20.9567 43.2078 21.1996 42.9658 21.4425 42.6632C21.6855 42.7842 21.8677 42.9658 22.1106 43.0868C22.475 43.3894 22.8394 43.6315 23.1431 43.934ZM33.8322 4.35709C34.3181 3.81245 34.9862 2.96524 35.8364 3.08627C36.8082 3.26782 37.8406 3.994 38.6302 4.59915C40.27 5.80945 41.6669 7.38285 42.8815 8.95624C45.6145 12.5266 47.9832 16.4601 49.623 20.5752C50.0481 21.725 50.534 22.8747 50.7162 24.085C50.7769 24.6297 50.8376 25.1743 50.7769 25.6584C50.7162 25.9005 50.6554 26.3846 50.4732 26.7477C50.1088 26.5662 49.623 26.082 49.38 25.961C48.8942 25.5979 48.3476 25.2348 47.8617 24.8717C46.89 24.1456 45.9789 23.3589 45.0679 22.5722C44.825 22.3301 44.5213 22.088 44.2784 21.846C44.3999 21.7855 44.4606 21.6644 44.5821 21.5434C45.3716 20.4541 45.7967 19.0018 45.736 17.6704C45.6753 16.1576 45.0679 14.7657 44.0355 13.6159C42.0313 11.3163 38.6302 10.106 35.5935 11.1953C35.5935 11.1953 35.5935 11.1953 35.5328 11.1953C34.3181 9.19831 33.1034 7.14079 32.6175 4.90173C32.6175 4.84121 32.5568 4.72018 32.5568 4.65967C32.9212 4.84121 33.4071 4.7807 33.8322 4.35709ZM43.7318 19.0018C43.6103 19.3649 43.4889 19.849 43.1852 20.091C42.7601 20.4541 42.2135 20.5752 41.7276 20.3331C41.3632 20.1516 41.181 19.849 40.9381 19.5464C40.6951 19.2438 40.4522 18.9412 40.27 18.6387C39.8448 18.094 39.4197 17.5494 39.0553 16.9443C38.6302 16.3996 38.2658 15.7945 37.9014 15.1893C37.8406 15.0683 37.7192 14.9472 37.6584 14.7657L37.537 14.5842C37.4762 14.4631 37.3548 14.4026 37.294 14.2816C37.2333 14.2211 37.2333 14.2211 37.1726 14.1606C37.1726 14.1606 37.1118 14.1606 37.1118 14.1C36.626 13.7975 36.4438 13.1923 36.7474 12.6477C36.8082 12.5266 36.8689 12.4661 36.9904 12.3451C36.9904 12.2846 36.9904 12.2241 37.0511 12.1635C37.2333 11.6189 37.7799 11.2558 38.3872 11.4374C39.7234 11.861 40.9988 12.5266 42.092 13.4344C43.1245 14.2816 44.0962 15.4314 44.2784 16.8232C44.1569 17.6099 43.9747 18.3361 43.7318 19.0018ZM31.3421 8.47212C31.8887 9.74294 32.6175 10.9532 33.3463 12.1635C34.5003 14.1 35.8364 15.976 37.2333 17.7309C40.0878 21.3013 43.4281 24.5086 47.1329 27.2923C47.4973 27.5344 47.8617 27.837 48.2868 28.1396C48.1654 28.1396 48.1046 28.1396 47.9832 28.2001C39.6626 30.1366 30.917 31.831 23.5075 36.2486C22.9001 34.7962 22.2928 33.3439 21.4425 32.0125C20.653 30.7417 19.4991 29.713 18.2237 29.0473C23.6897 22.8747 28.0625 15.9155 31.3421 8.47212ZM19.9849 32.9808C20.8352 34.4937 21.564 36.0671 22.3535 37.5799C22.5965 38.0641 22.5357 38.7902 21.9891 39.0323C21.7462 39.1533 21.5033 39.2744 21.3211 39.4559C21.3211 39.5164 21.3211 39.5769 21.3211 39.5769C21.3211 41.3924 20.3493 42.9658 18.9525 44.1156C17.5556 45.2654 15.7336 46.2941 14.033 46.8993C10.7534 48.0491 7.71672 45.5074 6.07692 42.9053C5.28738 41.6345 4.74077 40.1821 4.49784 38.7297C4.37637 37.8825 4.49784 37.0958 5.10518 36.4301C5.65178 35.825 6.50205 35.4619 7.23085 35.0383C8.80993 34.1306 10.389 33.1623 11.9681 32.2546C12.7576 31.7705 13.5472 31.3469 14.3367 30.8627C15.0655 30.4391 15.855 29.7735 16.7053 29.834C18.1629 30.0155 19.3169 31.831 19.9849 32.9808Z" fill="#1E1E1E"/>
<path d="M41.909 13.5555C40.8158 12.6477 39.6012 11.9215 38.2043 11.5585C37.5969 11.3769 37.0503 11.74 36.8681 12.2846C36.8681 12.3452 36.8681 12.4057 36.8074 12.4662C36.6859 12.5267 36.6252 12.6477 36.5645 12.7688C36.2608 13.3134 36.443 13.9185 36.9289 14.2211C36.9896 14.2211 36.9896 14.2816 36.9896 14.2816C37.0503 14.3422 37.0503 14.3422 37.1111 14.4027C37.2325 14.4632 37.2933 14.5842 37.354 14.7052L37.4755 14.8868C37.5969 15.0078 37.6577 15.1289 37.7184 15.3104C38.0828 15.9155 38.508 16.4602 38.8724 17.0653C39.2975 17.61 39.6619 18.2151 40.087 18.7598C40.33 19.0623 40.5729 19.3649 40.7551 19.6675C40.998 19.9701 41.1802 20.2726 41.5446 20.4542C42.0305 20.6962 42.6378 20.6357 43.0022 20.2121C43.3059 19.9096 43.4274 19.4859 43.5488 19.1229C43.7918 18.4572 43.9132 17.731 43.8525 17.0048C43.9132 15.5525 42.8808 14.4027 41.909 13.5555ZM42.6378 20.2726C41.7876 19.3649 40.9373 18.4572 40.087 17.4889C38.9331 16.0971 37.8399 14.7052 36.8681 13.1924C38.8724 12.7688 40.8766 13.616 42.2734 15.1289C43.6096 16.6417 43.6703 18.6387 42.6378 20.2726Z" fill="#1E1E1E"/>
<path d="M11.9678 32.3152C10.328 33.2834 8.74895 34.1911 7.16987 35.0989C6.44107 35.5225 5.65153 35.8855 5.0442 36.4907C4.43686 37.1564 4.31539 37.9431 4.43686 38.7903C4.67979 40.2426 5.2264 41.695 6.01593 42.9658C7.65574 45.568 10.6924 48.0491 13.972 46.9598C15.6726 46.3547 17.4946 45.3259 18.8915 44.1761C20.2884 43.0263 21.2601 41.4529 21.2601 39.6375C21.2601 39.577 21.2601 39.5165 21.2601 39.5165C21.4423 39.3349 21.6852 39.2139 21.9282 39.0929C22.4748 38.8508 22.5355 38.1246 22.2926 37.6405C21.503 36.1276 20.7742 34.5542 19.9239 33.0413C19.2559 31.8915 18.1019 30.1366 16.6443 30.0156C15.7941 29.9551 15.0045 30.6207 14.2757 31.0443C13.5469 31.4074 12.7574 31.8915 11.9678 32.3152ZM16.0977 30.5602C16.0977 30.6207 16.5229 30.8628 16.3407 30.6812C16.5836 30.8023 16.8873 30.9233 17.1302 31.0443C17.6768 31.3469 18.2234 31.71 18.6485 32.1941C19.7417 33.2834 20.2884 34.7963 20.9564 36.1881L21.4423 37.2169C21.5638 37.3984 21.8067 37.822 21.746 38.0641C21.746 38.3667 21.3816 38.7298 21.1994 38.9718C21.0172 39.2744 20.7742 39.6375 20.5313 39.9401C20.4098 40.1216 20.2884 40.3032 20.2276 40.4847C19.4381 41.574 18.5878 42.4817 17.4946 43.2079C17.3731 43.2684 17.2517 43.3289 17.1909 43.3894C17.1302 43.4499 17.0087 43.571 16.948 43.6315C17.1909 43.4499 17.0087 43.571 17.0087 43.6315C16.948 43.692 16.948 43.692 16.8873 43.7525C16.8265 43.813 16.7658 43.8736 16.7051 43.9946C16.5836 44.1761 16.4621 44.2972 16.2799 44.4182C15.9155 44.7208 15.4297 45.0233 15.0045 45.3259L14.9438 45.3864C14.8831 45.4469 14.8223 45.5075 14.7616 45.5075C14.5794 45.689 14.3364 45.81 14.1542 45.9916C13.8506 46.1731 13.4862 46.3547 13.1825 46.4152C13.1825 46.4152 13.1825 46.4152 13.1825 46.4757C11.7249 46.7783 10.1458 46.4757 8.93115 45.5075C7.83795 44.6603 7.29134 43.3894 6.74474 42.2396C6.19814 41.0293 5.28713 39.6375 5.10493 38.3062C4.92273 36.9748 6.68401 36.3092 7.59501 35.704C8.93115 34.8568 10.328 34.0096 11.6642 33.1624C13.0003 32.3757 14.3364 31.589 15.7333 30.8628C15.7333 30.7418 15.9763 30.5602 16.0977 30.5602Z" fill="#1E1E1E"/>
<path d="M22.2928 58.6997C21.7462 58.8207 21.3818 59.4864 21.564 60.0311C21.6855 60.5152 22.1106 60.7572 22.5357 60.8177C22.8394 61.3624 23.5075 61.7255 24.2363 61.7255C24.7829 61.665 25.208 61.4834 25.6332 61.2414C25.9976 61.0598 26.4227 60.9388 26.7871 60.8177C27.6981 60.5757 28.6091 60.3336 29.4594 59.91C30.006 59.668 30.4918 59.3049 30.9777 59.0628C31.2207 59.0023 31.5243 58.8813 31.7673 58.7602C32.3139 58.5182 32.6783 58.0341 32.4961 57.4289C32.3139 56.8237 31.7673 56.5212 31.1599 56.7027C30.7955 56.7632 30.4918 56.8843 30.1274 57.0658C29.1557 57.3079 27.941 57.4894 26.8478 57.7315C25.3295 58.0341 23.8111 58.3971 22.2928 58.6997ZM30.7955 57.3079C30.917 57.5499 31.1599 57.9735 31.3421 58.2761C31.1599 58.3971 30.9777 58.4577 30.7955 58.5787C30.4311 58.7602 30.006 59.0023 29.6416 59.1838C28.9128 59.5469 28.184 59.8495 27.3944 60.1521C25.9976 60.6967 24.6007 61.0598 23.2038 61.4229C22.9609 60.7572 22.6572 60.1521 22.4143 59.4864C25.2688 59.3654 28.3662 58.8207 30.7955 57.3079Z" fill="#1E1E1E"/>
<path d="M50.9587 12.5872C51.2624 13.1319 52.052 13.3134 52.5986 13.0108C53.2059 12.7082 53.3274 11.9821 53.0237 11.4374C51.0195 7.746 48.5294 4.29664 45.5534 1.33139C44.521 0.242118 42.8204 1.87603 43.9136 2.9653C46.7681 5.80952 49.076 9.07734 50.9587 12.5872Z" fill="#1E1E1E"/>
<path d="M50.7166 5.26478C50.7773 5.38581 50.8381 5.50684 50.8988 5.62787C50.9595 5.7489 51.081 5.86994 51.2025 5.93045C51.4454 6.05148 51.8098 6.112 52.1135 6.05148C52.4171 5.99097 52.6601 5.80942 52.8423 5.50684C52.9637 5.26478 53.0852 4.90169 52.9637 4.59912C52.5386 3.63087 52.0527 2.66263 51.4454 1.7549C51.2632 1.51284 51.0203 1.3313 50.7166 1.21026C50.4129 1.14975 50.0485 1.14975 49.8056 1.3313C49.5626 1.51284 49.3197 1.69439 49.259 1.99696C49.1982 2.29954 49.1982 2.60211 49.3804 2.90469C49.9271 3.69139 50.3522 4.47809 50.7166 5.26478Z" fill="#F7C300"/>
<path d="M55.0887 2.90473C55.2709 2.84421 55.4531 2.72318 55.6353 2.60215C55.696 2.54164 55.7567 2.42061 55.8175 2.36009C55.9389 2.17855 55.9997 1.997 55.9997 1.75494C55.9997 1.51288 55.9389 1.33133 55.9389 1.08927C55.9389 0.907728 55.9389 0.786697 55.8175 0.665667C55.7567 0.544637 55.696 0.423606 55.5745 0.302576C55.4531 0.181546 55.3316 0.12103 55.2101 0.0605152C54.9672 0 54.8457 0 54.6635 0C54.5421 0 54.4813 0 54.3599 0.0605152C54.1777 0.12103 53.9955 0.242061 53.8133 0.363091C53.7525 0.423606 53.6918 0.544637 53.6311 0.605152C53.5096 0.786697 53.4489 0.968243 53.4489 1.2103C53.4489 1.45236 53.5096 1.63391 53.5096 1.87597C53.5096 2.05752 53.5096 2.17855 53.6311 2.29958C53.6918 2.42061 53.7525 2.54164 53.874 2.66267C53.9955 2.7837 54.1169 2.84421 54.2384 2.90473C54.3599 2.96524 54.5421 3.02576 54.6635 3.02576C54.8457 2.96524 54.9672 2.96524 55.0887 2.90473Z" fill="#1E1E1E"/>
<path d="M7.59498 29.1682C8.08085 29.6523 8.74892 29.5313 9.23479 29.1682C10.2065 28.442 11.3605 28.0789 12.3929 27.4738C13.6076 26.8081 14.5186 25.9609 15.3082 24.8716C16.948 22.6326 18.4056 20.212 19.7417 17.7914C20.4705 16.5205 18.4056 15.3102 17.6768 16.6416C16.3406 19.0017 15.0045 21.3618 13.3647 23.5403C12.6966 24.5085 11.8463 25.1742 10.7531 25.6583C9.65993 26.203 8.50599 26.7476 7.53425 27.4738C7.10911 27.9579 7.16984 28.8051 7.59498 29.1682Z" fill="#1E1E1E"/>
<path d="M9.35586 23.3589C11.2386 22.2696 12.7569 20.6962 13.7894 18.8808C14.0931 18.3361 13.9716 17.61 13.3643 17.3074C12.8177 17.0048 12.0889 17.1258 11.7245 17.731C11.4815 18.1546 11.2386 18.5177 10.9957 18.8808C10.9349 18.9413 10.9349 19.0018 10.8742 19.0018C10.8135 19.0623 10.7527 19.1834 10.692 19.2439C10.5098 19.4254 10.3883 19.607 10.2061 19.728C9.90246 20.0306 9.53806 20.3937 9.17366 20.6357L9.11293 20.6962C9.05219 20.7568 8.93073 20.8173 8.80926 20.8778C8.62706 20.9988 8.38412 21.1198 8.20192 21.2409C7.65532 21.5434 7.41238 22.2696 7.77679 22.8143C8.08045 23.4194 8.80926 23.6615 9.35586 23.3589Z" fill="#F7C300"/>
<path d="M36.3221 60.6968C35.6541 61.0598 34.986 61.4834 34.3179 61.8465C32.9818 62.5727 34.1965 64.5697 35.5326 63.8435C36.5043 63.2989 37.5368 62.6938 38.5085 62.1491C38.9944 61.9071 39.541 61.665 39.9054 61.2414C40.3913 60.6968 40.1484 60.0311 39.9662 59.4259C39.2981 57.3684 38.3871 55.4319 37.2331 53.556C36.4436 52.2851 34.4394 53.4349 35.1682 54.7057C35.7148 55.674 36.2614 56.6422 36.7473 57.671C36.9295 58.0946 37.1117 58.5787 37.2939 59.0023C37.4153 59.3049 37.4761 59.547 37.5975 59.8495C37.5975 59.9101 37.5975 59.9101 37.6583 59.9706C37.5368 60.0311 37.4153 60.0916 37.3546 60.1521C36.9295 60.3337 36.6258 60.5152 36.3221 60.6968Z" fill="#1E1E1E"/>
<path d="M54.3601 34.2515C54.5423 33.5859 54.1172 33.0412 53.5098 32.8597C52.1129 32.3151 50.5339 32.194 49.5014 33.4043C49.3192 33.6464 49.0155 34.3121 48.7726 34.4936C48.5904 34.5541 47.9223 34.1305 47.6794 34.0095C46.5862 33.4648 45.25 33.2228 44.2783 34.191C43.9139 34.6146 43.7317 35.0382 43.428 35.5224C43.3673 35.5829 43.3673 35.6434 43.3066 35.7644C43.2458 35.7039 43.1851 35.6434 43.1244 35.6434C42.1526 35.0382 41.3024 34.2515 40.0269 34.7357C38.9337 35.0988 38.5693 36.1275 37.962 36.9747C37.9013 37.0352 37.8405 37.0958 37.8405 37.1563C37.4761 36.7932 37.2332 36.4301 36.8688 36.067C36.4437 35.5829 35.7756 35.0988 35.0468 35.2803C34.3787 35.4618 33.8321 36.067 33.4677 36.6721C33.164 37.1563 32.9211 37.7614 32.496 38.185C32.4352 38.2455 32.4352 38.2455 32.4352 38.2455C32.3138 38.0035 31.9494 37.5799 31.8886 37.5194C31.2813 36.9142 30.2488 36.9142 29.7022 37.5799C29.0949 38.2455 28.9127 39.4558 28.6697 40.3031C28.3661 41.7554 30.6132 42.3606 30.9169 40.9082C30.9776 40.6662 31.0384 40.4846 31.0991 40.2425C31.1598 40.3031 31.2813 40.3636 31.342 40.4241C32.0101 40.7872 32.8604 40.6056 33.5284 40.3031C34.1358 40.0005 34.6216 39.5164 34.9253 38.9112C35.1075 38.6692 35.229 38.3061 35.4112 38.064C35.6541 38.3666 35.8971 38.7297 36.2007 39.0322C36.9295 39.6374 37.962 39.8189 38.8123 39.3953C39.4803 39.0322 39.9055 38.4271 40.2699 37.8219C40.3913 37.5799 40.5735 37.3378 40.695 37.1563C40.695 37.0958 40.7557 37.0958 40.8165 37.0352C40.8165 37.0352 40.8772 37.0352 40.8165 37.0352C41.4846 37.3983 41.9704 37.943 42.6992 38.185C43.671 38.4876 44.6427 38.0035 45.1893 37.2168C45.3715 36.9142 45.493 36.6116 45.6752 36.3091C45.7359 36.188 45.7966 36.067 45.8574 36.0065C46.404 36.3091 47.1935 36.7327 47.8616 36.9142C48.9548 37.2168 49.9873 36.7932 50.5946 35.946C50.7768 35.7039 50.959 35.0988 51.3234 34.9777C51.6878 34.7962 52.4166 35.1593 52.7203 35.3408C53.4491 35.2803 54.1779 34.7962 54.3601 34.2515Z" fill="#F7C300"/>
<path d="M11.2386 42.6632C11.1779 42.6026 11.1779 42.6026 11.1172 42.6026C10.935 42.4211 10.8135 42.3001 10.6313 42.1185C10.6313 42.058 10.5706 42.058 10.5706 41.9975C10.5098 41.8765 10.4491 41.8159 10.3884 41.6949C10.3884 41.6344 10.3276 41.6344 10.3276 41.5739C10.3276 41.4528 10.2669 41.3318 10.2062 41.2108C10.0847 40.6056 9.35589 40.2425 8.74855 40.4241C8.08048 40.6056 7.77681 41.2108 7.89828 41.8159C8.01975 42.5421 8.50562 43.1473 8.93075 43.6919C9.41662 44.2365 9.96322 44.7207 10.6313 44.9627C11.2386 45.1443 11.9674 45.2048 12.6355 45.1443C13.425 45.0232 14.1538 44.7812 14.7612 44.2971C15.0041 44.1155 15.1256 43.7524 15.1256 43.5104C15.1256 43.2078 15.0041 42.9052 14.7612 42.7237C14.2753 42.2395 13.6072 42.3001 13.1214 42.7237C13.1821 42.6632 13.3036 42.6026 13.1214 42.7237C13.0606 42.7237 13.0606 42.7842 12.9999 42.7842C12.9999 42.7842 12.9392 42.7842 12.9392 42.8447C12.8177 42.9052 12.6962 42.9052 12.6355 42.9052C12.5748 42.9052 12.5748 42.9052 12.514 42.9052C12.2711 42.9052 12.0282 42.9052 11.846 42.9052C11.7852 42.9052 11.7245 42.9052 11.7245 42.9052C11.6638 42.9052 11.4816 42.8447 11.4208 42.7842C11.2994 42.7237 11.2386 42.7237 11.2386 42.6632Z" fill="#1E1E1E"/>
</svg>
