<svg width="724" height="336" viewBox="0 0 724 336" fill="none" xmlns="http://www.w3.org/2000/svg">
<path d="M319.158 280.17C312.687 284.158 306.09 288.917 299.493 294.32L299.366 294.449C298.478 295.349 298.351 296.764 299.113 297.665C299.874 298.694 301.396 298.822 302.411 298.051C308.881 292.776 315.352 288.146 321.568 284.158C322.71 283.515 323.09 281.971 322.329 280.813C321.822 279.784 320.299 279.398 319.158 280.17Z" fill="#1E1E1E"/>
<path d="M388.553 262.676C387.792 262.547 387.031 262.804 386.524 263.319C386.143 263.705 385.889 264.091 385.762 264.734C385.509 266.02 386.397 267.306 387.665 267.564C390.71 268.078 393.755 268.721 396.8 269.236C401.494 270.136 406.442 271.165 411.009 271.68L411.516 269.365V266.92C407.076 266.406 402.509 265.505 397.688 264.605C394.77 263.705 391.598 263.19 388.553 262.676Z" fill="#1E1E1E"/>
<path d="M364.068 262.161C356.329 263.447 348.464 265.634 340.725 268.85C340.471 268.979 340.217 269.107 339.964 269.364C339.329 270.008 339.075 271.037 339.456 272.066C339.964 273.352 341.359 273.867 342.501 273.352C349.986 270.265 357.471 268.078 364.829 266.92C366.098 266.663 366.986 265.505 366.859 264.09C366.605 262.804 365.337 261.904 364.068 262.161Z" fill="#1E1E1E"/>
<path d="M281.351 309.885C276.657 313.873 270.568 318.89 263.717 322.877C263.336 323.135 262.829 323.392 262.448 323.649C262.321 323.778 262.068 323.906 261.941 324.035C261.18 324.807 260.926 325.965 261.56 326.994C262.194 328.151 263.59 328.537 264.859 327.894C265.366 327.637 265.747 327.38 266.254 327.122C273.359 322.877 279.829 317.732 284.65 313.616C285.665 312.715 285.792 311.171 284.904 310.271C283.762 309.242 282.366 309.113 281.351 309.885Z" fill="#1E1E1E"/>
<path d="M188.358 292.776C187.724 291.619 186.202 291.233 185.06 292.005C184.933 292.133 184.806 292.262 184.679 292.262C183.918 293.034 183.664 294.32 184.299 295.221C188.105 301.524 192.672 308.856 198 315.288C198.888 316.317 200.284 316.446 201.299 315.545C202.314 314.645 202.44 313.23 201.552 312.201C196.605 306.155 192.164 298.951 188.358 292.776Z" fill="#1E1E1E"/>
<path d="M490.047 195.141C494.741 188.709 500.576 183.435 506.92 179.962C508.062 179.319 508.442 177.904 507.935 176.746C507.3 175.589 505.905 175.203 504.763 175.717C500.703 178.033 496.77 180.863 493.218 184.336C490.681 186.78 488.397 189.481 486.367 192.311C485.606 193.34 485.86 194.884 486.875 195.656C487.763 196.556 489.158 196.299 490.047 195.141Z" fill="#1E1E1E"/>
<path d="M240.754 330.981C235.553 331.625 230.605 331.239 226.038 329.952C223.627 329.309 221.217 328.409 218.933 327.122C218.045 326.608 216.903 326.865 216.142 327.508C216.015 327.637 215.761 327.894 215.635 328.151C215 329.309 215.508 330.853 216.649 331.367C219.187 332.654 221.978 333.811 224.642 334.455C229.844 335.87 235.299 336.255 241.135 335.612C242.403 335.484 243.418 334.326 243.291 332.911C243.165 331.882 242.023 330.853 240.754 330.981Z" fill="#1E1E1E"/>
<path d="M477.613 241.836C478.882 241.579 479.77 240.293 479.516 239.006C479.39 237.977 479.136 237.077 479.009 236.048C478.121 229.487 478.628 222.798 480.278 216.109C480.658 214.823 479.77 213.536 478.501 213.151C477.613 212.893 476.852 213.151 476.218 213.794C475.964 214.051 475.71 214.437 475.584 214.951C473.807 222.284 473.3 229.616 474.315 236.691C474.442 237.72 474.569 238.878 474.822 239.907C475.076 241.193 476.345 242.094 477.613 241.836Z" fill="#1E1E1E"/>
<path d="M459.091 273.352C451.225 272.58 443.487 271.423 435.621 270.136C434.86 270.008 434.098 270.265 433.591 270.78C433.21 271.166 432.957 271.551 432.83 272.195C432.576 273.481 433.464 274.767 434.86 274.896C442.852 276.182 450.591 277.34 458.584 278.112C459.852 278.24 461.121 277.211 461.248 275.925C461.375 274.639 460.36 273.481 459.091 273.352Z" fill="#1E1E1E"/>
<path d="M676.159 263.833C670.07 268.464 663.473 272.838 656.495 276.826C656.368 276.954 656.115 277.083 655.988 277.211C655.226 277.983 654.973 279.141 655.607 280.17C656.241 281.328 657.764 281.714 658.906 281.071C666.01 276.954 672.861 272.581 679.204 267.821C680.219 267.049 680.473 265.506 679.712 264.476C678.697 263.19 677.174 263.061 676.159 263.833Z" fill="#1E1E1E"/>
<path d="M635.182 287.116C629.98 289.303 624.525 291.361 619.07 293.034C617.04 293.677 615.01 294.32 612.98 294.963C612.599 295.092 612.219 295.22 611.965 295.478C611.331 296.121 611.077 297.021 611.331 297.922C611.711 299.208 612.98 299.98 614.249 299.594C616.405 298.951 618.435 298.308 620.465 297.664C626.047 295.864 631.629 293.805 636.958 291.619C638.227 291.104 638.734 289.689 638.227 288.403C637.846 287.245 636.45 286.602 635.182 287.116Z" fill="#1E1E1E"/>
<path d="M551.957 179.062C545.995 173.659 537.748 170.314 528.614 169.929C527.979 169.929 527.345 170.186 526.838 170.572C526.457 170.958 526.077 171.601 526.077 172.244C525.95 173.53 526.965 174.688 528.36 174.817C536.353 175.203 543.584 178.033 548.659 182.664C549.674 183.564 551.069 183.435 552.084 182.535C553.099 181.506 552.972 179.962 551.957 179.062Z" fill="#1E1E1E"/>
<path d="M709.018 229.487C708.891 229.616 708.764 229.745 708.764 229.873C704.451 236.305 699.376 242.351 693.921 248.14C693.033 249.04 693.033 250.584 693.921 251.613C694.809 252.513 696.458 252.513 697.346 251.613C703.055 245.695 708.257 239.264 712.697 232.703C713.458 231.546 713.205 230.131 712.063 229.359C711.048 228.587 709.779 228.716 709.018 229.487Z" fill="#1E1E1E"/>
<path d="M543.584 299.466C540.286 298.694 536.987 297.922 533.815 296.893C529.629 295.607 525.569 293.806 521.636 291.876C520.748 291.362 519.606 291.619 518.972 292.262C518.718 292.391 518.591 292.648 518.465 292.905C517.83 294.063 518.338 295.607 519.48 296.121C523.666 298.179 527.98 299.98 532.293 301.395C535.592 302.424 539.017 303.453 542.442 304.097C543.711 304.354 544.98 303.582 545.233 302.296C545.614 301.009 544.853 299.723 543.584 299.466Z" fill="#1E1E1E"/>
<path d="M547.263 245.953C546.248 245.181 544.726 245.438 543.965 246.467C539.524 252.513 533.815 257.787 527.092 261.904C526.965 262.032 526.838 262.161 526.711 262.29C525.95 263.061 525.696 264.348 526.33 265.248C526.965 266.406 528.487 266.792 529.629 266.02C536.987 261.518 543.077 255.986 547.898 249.426C548.532 248.268 548.278 246.853 547.263 245.953Z" fill="#1E1E1E"/>
<path d="M508.442 272.323C508.062 271.037 506.793 270.265 505.524 270.522C502.606 271.294 499.562 271.937 496.39 272.452C493.091 268.721 490.173 264.734 487.636 260.617C487.002 259.46 485.479 259.074 484.338 259.846C484.211 259.974 484.084 260.103 483.957 260.231C483.196 261.003 482.942 262.29 483.576 263.19C485.606 266.663 488.017 270.136 490.681 273.352C488.017 273.61 485.226 273.867 482.308 273.996C481.039 274.124 480.024 275.153 480.024 276.568C480.151 277.855 481.166 278.884 482.561 278.884C486.621 278.626 490.681 278.241 494.487 277.726C496.009 279.27 497.532 280.813 499.054 282.228C500.069 283.129 501.465 283 502.479 282.1C503.368 281.071 503.241 279.527 502.353 278.626C501.718 277.983 500.957 277.34 500.323 276.697C502.479 276.311 504.509 275.796 506.539 275.282C508.062 275.025 508.823 273.738 508.442 272.323Z" fill="#1E1E1E"/>
<path d="M559.442 200.03C558.808 200.03 558.301 200.287 557.92 200.673C557.412 201.187 557.159 201.831 557.159 202.474C557.412 207.105 556.905 212.379 555.636 218.039C555.129 220.611 554.495 223.056 553.733 225.5C553.353 226.786 554.114 228.072 555.383 228.458C556.651 228.844 557.92 228.072 558.301 226.786C559.062 224.342 559.696 221.641 560.204 218.939C561.472 212.893 561.98 207.233 561.726 202.088C561.853 201.059 560.711 200.03 559.442 200.03Z" fill="#1E1E1E"/>
<path d="M590.017 300.237C582.025 301.524 574.159 302.038 566.674 302.038C566.04 302.038 565.405 302.295 565.025 302.681C564.517 303.067 564.263 303.71 564.263 304.354C564.263 305.64 565.278 306.798 566.674 306.798C574.413 306.926 582.532 306.283 590.778 304.997C592.047 304.74 592.935 303.582 592.808 302.295C592.555 300.88 591.286 299.98 590.017 300.237Z" fill="#1E1E1E"/>
<path d="M204.216 300.495L207.896 304.482C209.037 305.769 210.306 307.441 212.082 307.698C212.843 307.827 213.731 307.312 213.985 306.541C215.381 301.652 216.776 296.764 218.172 291.876C218.299 291.619 218.299 291.233 218.299 290.975C218.299 290.847 218.425 290.847 218.425 290.718C218.552 289.818 217.791 288.66 216.903 288.66C213.731 288.403 210.56 288.66 207.388 289.174C205.739 289.432 204.216 289.818 202.567 290.075C201.933 290.204 201.172 290.461 200.537 290.59C199.649 290.718 198.634 290.847 198.127 291.747C196.858 293.548 199.269 295.349 200.41 296.507C201.552 297.665 202.821 299.08 204.216 300.495ZM204.216 293.291C205.485 293.034 206.881 292.776 208.276 292.519C210.306 292.262 212.336 292.133 214.366 292.133C213.351 295.606 212.336 299.208 211.321 302.681C210.814 302.167 210.433 301.652 209.925 301.266C208.911 300.237 207.896 299.208 207.008 298.179L203.963 294.963C203.582 294.577 203.202 294.191 202.821 293.805C203.202 293.548 203.709 293.42 204.216 293.291Z" fill="#59C59F"/>
<path d="M390.076 277.211C388.427 277.083 386.904 276.954 385.255 276.954C384.621 276.954 383.859 276.954 383.098 276.954C382.21 276.954 381.195 276.826 380.434 277.469C378.785 278.884 380.688 281.199 381.449 282.614C382.464 284.286 383.352 285.959 384.24 287.631L386.904 292.391C387.792 293.934 388.553 295.864 390.203 296.507C390.964 296.764 391.979 296.635 392.359 295.864C394.897 291.49 397.434 287.116 399.971 282.743C400.098 282.486 400.225 282.228 400.225 281.842C400.225 281.842 400.352 281.714 400.352 281.585C400.733 280.685 400.225 279.527 399.337 279.141C396.419 278.112 393.247 277.597 390.076 277.211ZM390.71 291.49C390.33 290.847 390.076 290.332 389.695 289.689C389.061 288.403 388.3 287.245 387.539 285.959L385.382 281.971C385.128 281.456 384.874 280.942 384.494 280.556C385.001 280.556 385.509 280.685 386.016 280.685C387.412 280.685 388.807 280.813 390.076 280.942C392.106 281.071 394.136 281.456 396.165 281.971C394.389 285.187 392.486 288.403 390.71 291.49Z" fill="#59C59F"/>
<path d="M546.756 160.024C548.151 159.509 549.674 158.737 550.942 157.579C552.592 156.036 553.353 154.106 553.987 152.434C554.494 151.019 554.875 149.218 554.875 147.417C554.748 145.616 554.114 143.687 552.592 142.272C549.42 139.313 545.233 139.828 542.062 141.371C538.89 143.044 536.099 146.131 535.591 149.733C535.084 153.592 537.114 157.451 540.286 159.638C540.92 160.152 541.808 160.538 542.823 160.667C544.472 160.924 545.868 160.409 546.756 160.024ZM542.442 156.422C540.412 155.007 539.144 152.563 539.397 150.247C539.651 148.318 541.3 146.131 543.711 144.844C546.121 143.687 548.405 143.687 550.054 145.102C550.689 145.616 551.069 146.517 551.069 147.674C551.069 148.704 550.815 149.861 550.435 151.148C549.927 152.563 549.293 153.849 548.405 154.621C547.644 155.264 546.629 155.779 545.36 156.293C544.345 156.679 543.838 156.808 543.33 156.808C543.077 156.808 542.823 156.679 542.442 156.422Z" fill="#F7C300"/>
<path d="M710.287 253.928C707.115 255.6 704.324 258.688 703.816 262.29C703.309 266.149 705.339 270.008 708.51 272.195C709.145 272.709 710.033 273.095 711.048 273.224C712.57 273.481 714.093 272.838 714.981 272.581C716.376 272.066 717.899 271.294 719.167 270.136C720.817 268.593 721.578 266.663 722.212 264.991C722.72 263.576 723.1 261.775 723.1 259.974C722.973 258.173 722.339 256.244 720.817 254.829C717.645 251.87 713.458 252.256 710.287 253.928ZM719.294 260.103C719.294 261.132 719.04 262.29 718.66 263.576C718.152 264.991 717.518 266.277 716.63 267.049C715.869 267.692 714.854 268.207 713.585 268.721C712.57 269.107 712.063 269.236 711.555 269.236C711.302 269.236 710.921 268.979 710.54 268.721C708.511 267.306 707.242 264.862 707.496 262.547C707.749 260.617 709.399 258.43 711.809 257.144C714.219 255.986 716.503 255.986 718.152 257.401C718.914 258.173 719.294 259.074 719.294 260.103Z" fill="#1E1E1E"/>
<path d="M568.704 220.354C565.532 234.504 558.681 247.496 548.913 258.044C547.263 259.845 549.801 262.675 551.45 260.874C561.726 249.94 569.084 236.305 572.383 221.512C572.89 219.196 569.211 217.91 568.704 220.354Z" fill="#F7C300"/>
<path d="M339.71 257.787C329.053 261.518 319.031 266.792 309.896 273.61C307.993 275.025 309.896 278.369 311.799 276.954C320.553 270.265 330.322 265.12 340.598 261.518C343.008 260.617 341.993 256.887 339.71 257.787Z" fill="#F7C300"/>
<path d="M183.918 128.636C177.321 114.615 170.089 100.851 163.239 86.9583C160.574 81.9414 158.037 77.0533 155.373 72.0365C153.977 69.5924 152.582 67.0196 150.298 65.3474C148.015 63.8037 145.35 63.4178 142.686 63.0319C136.85 62.0028 131.015 60.5878 125.432 58.5296C119.977 56.6001 114.395 54.156 108.559 54.6705C103.738 55.0565 99.298 57.5005 95.1114 59.9446C88.2606 63.8037 81.283 67.6628 74.4322 71.5219C55.0216 82.456 35.3573 93.5187 18.1035 107.669C13.1557 111.656 13.6632 115.516 15.9468 121.047C21.9095 135.84 30.5364 149.347 39.0365 162.725C47.5365 175.846 54.3873 189.739 61.8724 203.503C63.9023 207.233 66.059 211.092 68.0889 214.823C76.0814 229.487 84.3278 244.538 94.9845 264.605L112.746 298.694C113.126 299.337 113.634 299.723 114.268 299.98H114.522L114.649 300.109C115.029 300.623 116.044 301.524 117.567 300.623C132.156 292.391 146.746 284.158 161.462 276.054C173.261 269.493 185.06 262.547 196.985 256.115C202.948 252.771 209.037 249.555 215.127 246.467C218.299 244.924 221.47 243.251 224.642 241.836C226.164 241.193 229.463 240.421 229.336 238.235C229.082 234.761 224.515 236.562 222.739 237.334C194.067 250.841 166.664 267.049 139.007 282.486C131.776 286.473 124.671 290.59 117.44 294.577L116.806 294.963L116.425 294.191C105.895 274.51 97.9025 259.717 90.0367 245.438C82.2979 231.16 74.1784 216.366 63.6485 196.685L51.5962 174.045C44.3648 160.667 35.2305 148.446 27.7454 135.068C24.5737 129.28 21.6558 123.491 19.1184 117.316C17.596 113.457 19.2453 112.428 22.0364 110.241C23.5588 109.084 25.0812 107.926 26.6036 106.768C38.6559 97.6351 51.7231 89.4024 65.1709 82.456C78.8725 75.2524 92.1935 67.4055 105.768 60.0733C109.067 67.4055 112.746 74.4805 116.806 81.2983C117.313 82.1987 117.947 83.2278 118.962 83.4851C120.104 83.7424 121.119 83.2278 122.134 82.5846C129.746 78.0824 137.738 73.8374 145.731 70.2355C146.239 69.9783 146.873 69.721 147.507 69.9783C148.142 70.2355 148.395 70.7501 148.776 71.2646C164.888 100.851 179.351 131.081 193.56 161.696C203.075 182.149 213.351 202.216 223.5 222.284C224.134 223.441 225.149 224.856 226.418 224.599C227.56 224.471 228.194 223.313 228.194 222.155C228.194 220.997 227.687 219.968 227.052 219.068C219.06 204.146 211.321 189.096 204.09 173.788C197.112 159.123 191.022 143.687 183.918 128.636ZM137.104 68.8205C131.776 71.3933 126.574 74.2233 121.373 77.1819L120.738 77.5678L120.358 76.9246C117.567 72.0365 114.903 67.0196 112.365 61.8742L111.604 60.3305L113.253 60.8451C120.738 63.0319 128.731 65.2187 136.85 67.4055L138.88 67.9201L137.104 68.8205Z" fill="#1E1E1E"/>
<path d="M7.06619 105.482C8.58859 104.581 10.111 103.681 11.7602 102.781C14.9319 100.98 18.2304 99.3074 21.5289 97.7637C24.5737 96.3487 22.5439 91.5892 19.6259 93.0042C15.82 94.9337 12.014 96.8633 8.20799 99.0501C6.43186 100.079 4.27514 101.108 2.75274 102.395C1.23035 103.681 0.469152 105.482 0.21542 107.411C-1.05324 115.901 3.51394 123.62 7.82739 130.566C8.58859 131.724 10.4916 131.852 11.5065 131.081C12.7752 130.18 12.7752 128.636 12.014 127.479C8.58859 121.947 4.52887 115.516 5.29007 108.698C5.29007 107.026 5.67067 106.382 7.06619 105.482Z" fill="#1E1E1E"/>
<path d="M194.321 268.078C197.112 266.406 194.828 261.904 192.037 263.447C180.492 270.008 168.948 276.568 157.403 283.129C154.612 284.801 156.895 289.303 159.686 287.76C171.104 281.199 182.649 274.639 194.321 268.078Z" fill="#1E1E1E"/>
<path d="M150.045 4.88818C150.045 4.11636 149.41 3.21591 148.649 3.08727C143.575 2.05818 138.5 1.15773 133.425 0.128636C133.171 0.128636 132.791 0.128636 132.537 0.128636C132.41 0.128636 132.41 0 132.283 0C131.395 0 130.38 0.771818 130.507 1.80091C130.761 5.01682 131.522 8.23273 132.537 11.32C133.045 12.8636 133.679 14.5359 134.313 16.0795C134.567 16.7227 134.821 17.4945 135.074 18.1377C135.455 19.0382 135.709 19.9386 136.724 20.4532C138.754 21.6109 140.022 19.0382 141.037 17.7518C142.179 16.3368 143.321 14.7932 144.463 13.3782L147.761 9.26182C148.649 8.10409 150.045 6.81773 150.045 4.88818ZM144.082 7.71818C143.194 8.87591 142.306 9.905 141.545 11.0627L138.88 14.4073C138.5 14.7932 138.246 15.3077 137.866 15.6936C137.739 15.1791 137.485 14.6645 137.358 14.15C136.851 12.8636 136.343 11.5773 135.963 10.1623C135.328 8.10409 134.821 6.04591 134.44 4.11636C138.119 4.75954 141.798 5.53136 145.477 6.17454C144.97 6.68909 144.463 7.20364 144.082 7.71818Z" fill="#1E1E1E"/>
<path d="M168.694 20.9683C170.47 20.8397 172.373 20.7111 174.149 20.5824L179.351 20.3251C181 20.1965 182.903 20.4538 184.299 19.1674C184.806 18.6529 185.06 17.6238 184.679 16.852C182.015 12.3498 179.224 7.84752 176.56 3.34529C176.433 3.08802 176.179 2.83075 175.925 2.70211C175.925 2.57347 175.798 2.57347 175.798 2.44484C175.164 1.67303 173.895 1.54439 173.261 2.18757C171.104 4.503 169.201 7.20435 167.679 10.163C166.918 11.5779 166.157 13.1216 165.395 14.6652C165.015 15.3084 164.761 15.9515 164.381 16.5947C164 17.4952 163.492 18.267 163.746 19.4247C164.381 21.7401 167.172 20.9683 168.694 20.9683ZM169.075 15.6943C169.709 14.4079 170.343 13.2502 170.978 11.9639C171.992 10.163 173.134 8.36206 174.403 6.81844C176.306 10.0343 178.336 13.2502 180.239 16.4661C179.604 16.4661 178.97 16.4661 178.336 16.5947C176.94 16.7234 175.545 16.7234 174.149 16.852L169.836 17.1093C169.328 17.1093 168.821 17.1093 168.187 17.2379C168.567 16.5947 168.821 16.2088 169.075 15.6943Z" fill="#59C59F"/>
<path d="M48.8052 283.772L51.9769 288.146C52.9918 289.561 54.0067 291.361 55.656 291.876C56.4172 292.005 57.4321 291.747 57.6859 290.976C59.7157 286.345 61.7456 281.714 63.7754 276.954C63.9023 276.697 63.9023 276.311 64.0292 276.054C64.0292 275.925 64.156 275.925 64.156 275.797C64.4098 274.896 63.7754 273.738 62.8874 273.481C59.7157 272.838 56.5441 272.581 53.3724 272.709C51.7231 272.709 50.2007 272.838 48.5515 272.967C47.9171 273.095 47.1559 273.095 46.3947 273.224C45.5067 273.224 44.4917 273.224 43.8574 273.996C42.335 275.668 44.4917 277.597 45.3798 279.012C46.5216 280.685 47.6634 282.228 48.8052 283.772ZM49.6933 276.697C51.0888 276.568 52.3575 276.568 53.753 276.44C55.7829 276.44 57.8127 276.568 59.8426 276.826C58.3202 280.17 56.9247 283.515 55.4023 286.859C55.0217 286.345 54.6411 285.702 54.2605 285.187C53.3724 284.029 52.6112 282.872 51.7231 281.714L49.0589 278.112C48.6783 277.726 48.4246 277.212 48.044 276.697C48.6783 276.826 49.1858 276.826 49.6933 276.697Z" fill="#1E1E1E"/>
<path d="M254.456 147.932C254.709 146.388 254.963 144.716 254.583 142.915C254.202 141.114 253.314 139.313 251.665 138.027C248.112 135.583 244.053 136.483 241.008 138.541C238.09 140.6 235.679 144.073 235.679 147.675C235.679 151.662 238.217 155.135 241.642 156.808C242.403 157.194 243.291 157.451 244.306 157.579C245.829 157.579 247.224 156.808 248.112 156.293C249.381 155.521 250.903 154.621 252.045 153.335C253.568 151.791 254.075 149.733 254.456 147.932ZM250.903 143.558C251.157 144.587 251.03 145.745 250.776 147.16C250.523 148.704 250.015 149.99 249.254 150.89C248.62 151.662 247.605 152.305 246.463 152.949C245.575 153.463 244.941 153.72 244.56 153.72C244.306 153.72 243.926 153.592 243.545 153.335C241.261 152.305 239.866 149.99 239.739 147.675C239.739 145.616 241.135 143.301 243.291 141.757C245.448 140.214 247.859 139.956 249.635 141.243C250.269 141.629 250.65 142.529 250.903 143.558Z" fill="#1E1E1E"/>
<path d="M97.2681 312.072C97.5219 310.528 97.7756 308.856 97.395 307.055C97.0144 305.254 96.1263 303.453 94.4771 302.167C90.9248 299.723 86.8651 300.623 83.8203 302.681C80.9024 304.74 78.4919 308.213 78.4919 311.815C78.4919 315.802 81.0292 319.276 84.4546 320.948C85.2158 321.334 86.1039 321.591 87.1188 321.72C88.6412 321.72 90.0368 320.948 90.9248 320.433C92.1935 319.661 93.7159 318.761 94.8577 317.475C96.2532 315.802 96.8876 313.744 97.2681 312.072ZM93.7159 307.698C93.9696 308.727 93.8428 309.885 93.589 311.3C93.3353 312.844 92.8278 314.13 92.0666 315.031C91.4323 315.802 90.4174 316.446 89.2756 317.089C88.3875 317.603 87.7532 317.861 87.3726 317.861C87.1188 317.861 86.7382 317.732 86.3576 317.475C84.074 316.446 82.6785 314.13 82.5516 311.815C82.5516 309.756 83.9472 307.441 86.1039 305.897C88.2606 304.354 90.6711 304.096 92.4472 305.383C92.9547 305.769 93.4622 306.541 93.7159 307.698Z" fill="#F7C300"/>
<path d="M68.3426 130.823C67.3277 128.508 65.6784 126.578 63.6486 125.292C62.5068 131.595 61.2381 137.77 59.8426 143.944C59.3351 146.002 57.8127 147.16 55.656 146.903C54.1336 146.774 52.738 146.388 51.3425 146.002C49.8201 145.617 48.2977 144.973 46.7753 144.33C47.5365 145.359 48.5514 146.388 49.6932 147.289C54.2604 150.633 60.4769 150.505 64.6635 146.646C68.8501 142.658 70.6262 136.355 68.3426 130.823Z" fill="#F7C300"/>
<path d="M46.5216 137.641C48.1709 138.67 49.5664 139.313 51.3425 139.956C52.2306 140.342 53.2455 140.6 54.2604 140.728C54.3873 140.728 54.5142 140.728 54.5142 140.728C54.5142 140.6 54.5142 140.471 54.641 140.471C54.7679 139.699 55.0216 138.927 55.1485 138.027C55.5291 136.483 55.7828 134.94 56.1634 133.396C56.7978 130.309 57.4321 127.35 57.9396 124.263C58.0664 123.877 58.1933 123.362 58.3202 122.976C57.9396 122.848 57.4321 122.848 57.0515 122.719C56.6709 122.719 56.4172 122.719 56.0366 122.591C54.0067 122.462 51.9768 122.976 50.2007 124.006C47.7903 125.549 46.3947 128.122 44.9992 130.437C43.9843 132.11 43.6037 133.525 43.4768 135.325C43.6037 135.969 43.6037 136.612 43.7305 137.126C44.7455 136.998 45.7604 137.126 46.5216 137.641Z" fill="#F7C300"/>
<path d="M43.9843 137.384C43.4769 137.641 42.9694 138.027 42.5888 138.542C41.7007 139.828 42.0813 141.757 43.4769 142.658C44.4918 143.301 45.6336 143.944 46.7754 144.459C45.253 142.272 44.3649 139.957 43.9843 137.384Z" fill="#1E1E1E"/>
<path d="M63.6486 125.293C63.6486 125.036 63.7755 124.907 63.7755 124.65C64.0292 123.106 62.5068 121.69 61.1113 121.561C59.8426 121.433 58.9546 122.076 58.4471 123.106C60.2232 123.492 61.9994 124.264 63.6486 125.293Z" fill="#1E1E1E"/>
<path d="M51.3426 146.002C52.7381 146.388 54.2605 146.646 55.6561 146.903C57.8128 147.16 59.3352 146.002 59.8427 143.944C61.3651 137.77 62.6337 131.595 63.6487 125.292C61.9994 124.263 60.2233 123.491 58.4471 123.105C58.1934 123.491 58.0665 123.877 58.0665 124.391C57.5591 127.479 56.9247 130.566 56.2904 133.525C55.9098 135.068 55.6561 136.612 55.2755 138.156C55.1486 138.927 54.8949 139.699 54.768 140.6C54.768 140.728 54.768 140.857 54.6411 140.857C54.5143 140.857 54.5143 140.857 54.3874 140.857C53.3725 140.6 52.4844 140.342 51.4695 140.085C49.6933 139.442 48.1709 138.799 46.6485 137.77C45.8873 137.255 44.8724 137.255 43.9843 137.512C44.4918 140.085 45.253 142.401 46.7754 144.459C48.1709 144.973 49.6933 145.616 51.3426 146.002Z" fill="#1E1E1E"/>
<path d="M102.723 191.411C101.709 189.096 100.059 187.166 98.0294 185.88C96.8876 192.183 95.619 198.357 94.2234 204.532C93.716 206.59 92.1936 207.748 90.0368 207.491C88.5144 207.362 87.1189 206.976 85.7234 206.59C84.201 206.204 82.6786 205.561 81.1562 204.918C81.9174 205.947 82.9323 206.976 84.0741 207.876C88.6413 211.221 94.8578 211.092 99.0444 207.233C103.231 203.246 105.007 196.814 102.723 191.411Z" fill="#F7C300"/>
<path d="M80.9024 198.1C82.5517 199.129 83.9472 199.772 85.7233 200.415C86.6114 200.801 87.6263 201.059 88.6412 201.187C88.7681 201.187 88.895 201.187 88.895 201.187C88.895 201.059 88.895 200.93 89.0218 200.93C89.1487 200.158 89.4024 199.386 89.5293 198.486C89.9099 196.942 90.1636 195.399 90.5442 193.855C91.1786 190.768 91.8129 187.809 92.3204 184.722C92.4472 184.336 92.5741 183.822 92.701 183.436C92.3204 183.307 91.8129 183.307 91.4323 183.178C91.0517 183.178 90.798 183.178 90.4174 183.05C88.3875 182.921 86.3577 183.436 84.5815 184.465C82.1711 186.008 80.7755 188.581 79.38 190.896C78.3651 192.569 77.9845 193.984 77.8576 195.785C77.9845 196.428 77.9845 197.071 78.1113 197.585C79.1263 197.585 80.0143 197.585 80.9024 198.1Z" fill="#F7C300"/>
<path d="M78.2382 197.843C77.7308 198.1 77.2233 198.486 76.8427 199.001C75.9547 200.287 76.3353 202.217 77.7308 203.117C78.7457 203.76 79.8875 204.403 81.0292 204.918C79.6337 202.86 78.7457 200.416 78.2382 197.843Z" fill="#1E1E1E"/>
<path d="M98.0294 185.752C98.0294 185.495 98.1563 185.366 98.1563 185.109C98.41 183.565 96.8876 182.149 95.4921 182.021C94.2234 181.892 93.3354 182.535 92.8279 183.565C94.604 183.951 96.3802 184.723 98.0294 185.752Z" fill="#1E1E1E"/>
<path d="M85.5965 206.59C86.992 206.976 88.5144 207.233 89.9099 207.491C92.0667 207.748 93.5891 206.59 94.0965 204.532C95.6189 198.357 96.8876 192.183 97.9025 185.88C96.2532 184.851 94.4771 184.079 92.701 183.693C92.4473 184.079 92.3204 184.465 92.3204 184.979C91.8129 188.067 91.1786 191.154 90.5443 194.112C90.1637 195.656 89.9099 197.2 89.5293 198.743C89.4025 199.515 89.1488 200.287 89.0219 201.188C89.0219 201.316 89.0219 201.445 88.895 201.445C88.7682 201.445 88.7682 201.445 88.6413 201.445C87.6264 201.187 86.7383 200.93 85.7234 200.673C83.9472 200.03 82.4249 199.387 80.9025 198.357C80.1413 197.843 79.1263 197.843 78.2383 198.1C78.7457 200.673 79.5069 202.988 81.0293 205.047C82.5517 205.561 84.0741 206.076 85.5965 206.59Z" fill="#1E1E1E"/>
<path d="M136.47 250.584C135.455 248.268 133.806 246.339 131.776 245.052C130.634 251.356 129.365 257.53 127.97 263.705C127.462 265.763 125.94 266.921 123.783 266.663C122.261 266.535 120.865 266.149 119.47 265.763C117.947 265.377 116.425 264.734 114.903 264.091C115.664 265.12 116.679 266.149 117.821 267.049C122.388 270.394 128.604 270.265 132.791 266.406C136.851 262.418 138.754 256.115 136.47 250.584Z" fill="#F7C300"/>
<path d="M114.649 257.401C116.298 258.43 117.694 259.074 119.47 259.717C120.358 260.103 121.373 260.36 122.388 260.489C122.515 260.489 122.642 260.489 122.642 260.489C122.642 260.36 122.642 260.231 122.768 260.231C122.895 259.46 123.149 258.688 123.276 257.787C123.656 256.244 123.91 254.7 124.291 253.156C124.925 250.069 125.559 247.111 126.067 244.023C126.194 243.637 126.321 243.123 126.448 242.737C126.067 242.608 125.559 242.608 125.179 242.48C124.798 242.48 124.545 242.48 124.164 242.351C122.134 242.222 120.104 242.737 118.328 243.766C115.918 245.31 114.522 247.882 113.127 250.198C112.112 251.87 111.731 253.285 111.604 255.086C111.731 255.729 111.731 256.372 111.858 256.887C112.873 256.887 113.761 256.887 114.649 257.401Z" fill="#F7C300"/>
<path d="M111.985 257.144C111.477 257.401 110.97 257.787 110.589 258.302C109.701 259.588 110.082 261.518 111.477 262.418C112.492 263.061 113.634 263.705 114.776 264.219C113.38 262.032 112.492 259.717 111.985 257.144Z" fill="#1E1E1E"/>
<path d="M131.649 245.054C131.649 244.796 131.776 244.668 131.776 244.41C132.03 242.866 130.507 241.45 129.112 241.322C127.843 241.193 126.955 241.836 126.447 242.866C128.35 243.252 130.127 244.024 131.649 245.054Z" fill="#1E1E1E"/>
<path d="M119.343 265.763C120.738 266.149 122.261 266.406 123.656 266.663C125.813 266.921 127.336 265.763 127.843 263.705C129.365 257.53 130.634 251.356 131.649 245.052C130 244.023 128.224 243.251 126.447 242.866C126.194 243.251 126.067 243.637 126.067 244.152C125.559 247.239 124.925 250.326 124.291 253.285C123.91 254.829 123.656 256.372 123.276 257.916C123.149 258.688 122.895 259.46 122.768 260.36C122.768 260.489 122.768 260.617 122.641 260.617C122.515 260.617 122.515 260.617 122.388 260.617C121.373 260.36 120.485 260.103 119.47 259.846C117.694 259.202 116.171 258.559 114.649 257.53C113.888 257.016 112.873 257.016 111.985 257.273C112.492 259.846 113.253 262.161 114.776 264.219C116.298 264.862 117.821 265.377 119.343 265.763Z" fill="#1E1E1E"/>
<path d="M98.6638 88.2444C87.8801 94.8049 76.9696 100.851 65.6785 106.254C62.7606 107.669 65.0442 112.299 67.9621 110.884C79.2532 105.353 90.2906 99.3072 100.947 92.8754C103.738 91.2031 101.455 86.5722 98.6638 88.2444Z" fill="#1E1E1E"/>
<path d="M138.119 79.8833C115.664 92.2324 93.0815 104.453 70.4993 116.545C67.5814 118.088 69.865 122.719 72.7829 121.176C95.492 109.212 117.947 96.9919 140.403 84.5142C143.321 82.8419 141.037 78.3396 138.119 79.8833Z" fill="#1E1E1E"/>
<path d="M127.209 101.88C110.97 110.499 94.604 118.603 77.8576 126.192C74.8128 127.479 77.2233 132.11 80.1412 130.823C96.8876 123.234 113.253 115.13 129.492 106.511C132.41 104.967 130.127 100.336 127.209 101.88Z" fill="#1E1E1E"/>
<path d="M147.888 89.2737C143.955 91.3319 140.022 93.3901 136.089 95.4483C134.947 96.0915 134.313 97.6351 134.947 98.9215C135.582 100.079 137.104 100.722 138.373 100.079C142.306 98.021 146.239 95.9628 150.171 93.9046C151.313 93.2615 151.948 91.7178 151.313 90.4314C150.679 89.2737 149.156 88.6305 147.888 89.2737Z" fill="#1E1E1E"/>
<path d="M97.3951 130.823C92.1936 132.367 87.1189 134.682 82.4248 137.512C81.283 138.155 80.6487 139.699 81.283 140.985C81.9174 142.143 83.4398 142.915 84.7084 142.143C89.0219 139.442 93.716 137.255 98.41 135.84C99.6787 135.454 100.694 134.296 100.44 132.753C100.059 131.595 98.7906 130.437 97.3951 130.823Z" fill="#1E1E1E"/>
<path d="M143.701 105.868C130.888 112.557 118.201 119.375 105.388 126.064C102.47 127.607 104.753 132.238 107.671 130.695C120.485 124.005 133.171 117.188 145.985 110.499C148.903 108.955 146.619 104.324 143.701 105.868Z" fill="#1E1E1E"/>
<path d="M136.089 160.281C126.194 165.298 116.171 170.057 106.022 174.431C102.977 175.717 105.388 180.348 108.306 179.062C118.455 174.688 128.477 169.929 138.373 164.912C141.291 163.368 139.007 158.737 136.089 160.281Z" fill="#1E1E1E"/>
<path d="M177.575 150.762C155.754 161.696 134.059 172.501 112.238 183.307C109.32 184.722 111.604 189.353 114.522 187.938C136.343 177.132 158.164 166.327 179.858 155.393C182.776 153.849 180.492 149.347 177.575 150.762Z" fill="#1E1E1E"/>
<path d="M147.127 178.547C137.104 183.564 126.955 188.452 116.933 193.469C114.015 194.884 116.298 199.515 119.216 198.1C129.239 193.083 139.388 188.195 149.41 183.178C152.328 181.635 150.045 177.132 147.127 178.547Z" fill="#1E1E1E"/>
<path d="M172.246 166.07C166.791 168.771 161.336 171.472 155.88 174.045C154.612 174.688 154.104 176.232 154.739 177.518C155.373 178.805 156.895 179.191 158.164 178.676C163.619 175.975 169.075 173.273 174.53 170.701C175.798 170.057 176.306 168.514 175.672 167.227C175.037 165.941 173.515 165.427 172.246 166.07Z" fill="#1E1E1E"/>
<path d="M160.321 218.939C152.836 222.798 145.477 226.529 137.992 230.388C135.074 231.932 137.358 236.434 140.276 235.019C147.761 231.16 155.119 227.429 162.604 223.57C165.522 222.026 163.239 217.524 160.321 218.939Z" fill="#1E1E1E"/>
<path d="M198.761 211.864C180.493 221.255 162.097 230.388 143.701 239.392C140.783 240.807 143.067 245.438 145.985 244.023C164.381 235.019 182.776 225.885 201.045 216.495C203.963 214.951 201.679 210.449 198.761 211.864Z" fill="#1E1E1E"/>
<path d="M169.328 240.55C163.112 243.766 156.769 246.853 150.552 250.069C147.634 251.484 149.918 256.115 152.836 254.7C159.052 251.484 165.395 248.397 171.612 245.181C174.53 243.637 172.246 239.135 169.328 240.55Z" fill="#1E1E1E"/>
<path d="M185.187 232.317C182.776 233.346 180.366 234.504 178.082 235.791C176.94 236.434 176.306 237.977 176.94 239.264C177.575 240.422 179.097 241.065 180.366 240.422C182.649 239.135 185.06 237.977 187.47 236.948C188.739 236.434 189.246 234.633 188.612 233.475C187.978 232.189 186.582 231.803 185.187 232.317Z" fill="#1E1E1E"/>
<path d="M211.955 218.682C206.12 221.641 200.411 224.471 194.575 227.429C191.657 228.844 193.94 233.475 196.858 232.06C202.694 229.101 208.403 226.271 214.239 223.313C217.157 221.769 214.873 217.138 211.955 218.682Z" fill="#1E1E1E"/>
<path d="M169.455 189.224C145.731 201.83 121.88 214.18 97.7756 226.271C94.8577 227.686 97.1413 232.317 100.059 230.902C124.037 218.81 148.015 206.59 171.739 193.855C174.53 192.311 172.246 187.68 169.455 189.224Z" fill="#59C59F"/>
<path d="M136.216 133.782C112.619 145.745 89.1488 157.837 65.6785 170.186C62.7606 171.73 65.0442 176.36 67.9621 174.817C91.4324 162.468 114.903 150.376 138.5 138.413C141.418 136.869 139.134 132.238 136.216 133.782Z" fill="#59C59F"/>
</svg>
