<svg width="102" height="69" viewBox="0 0 102 69" fill="none" xmlns="http://www.w3.org/2000/svg">
<g clip-path="url(#clip0)">
<path d="M29.757 63.4751C25.5002 66.8989 20.534 69.3512 15.4741 68.9588C10.438 68.5653 5.33216 65.3261 2.48527 60.6427C-0.360678 55.982 -0.924735 49.8534 1.64207 46.0254C4.20888 42.1975 9.90561 40.6474 15.6968 39.0704C21.4642 37.4944 27.2802 35.9391 31.5231 37.9629C35.7431 40.0104 38.3909 45.6598 37.9526 50.6703C37.5143 55.6807 33.9908 60.075 29.757 63.4751Z" fill="#59C69F"/>
<path fill-rule="evenodd" clip-rule="evenodd" d="M50.1457 47.3276C50.1785 47.3792 50.2112 47.4309 50.2505 47.4752C50.4602 47.8 50.4602 48.2134 50.3553 48.6269C50.2767 48.9812 50.0147 49.3356 49.7526 49.5127C49.4906 49.6899 49.0189 49.808 48.7306 49.6604C47.4466 49.0698 46.1625 48.4201 44.8785 47.7705C44.564 47.6229 44.3806 47.239 44.2757 46.8846C44.1709 46.5007 44.2495 46.0873 44.4068 45.733C44.564 45.4081 44.8785 45.1424 45.1929 45.0538C45.5598 44.9357 45.8743 45.0243 46.2149 45.2014C47.1321 45.6739 48.0231 46.1169 48.9403 46.5598C49.032 46.6041 49.1171 46.641 49.2023 46.6779C49.2875 46.7148 49.3726 46.7517 49.4644 46.796C49.674 46.8846 49.8836 47.0027 50.0409 47.1799C50.0802 47.2242 50.1129 47.2759 50.1457 47.3276ZM7.37323 53.1596C23.6439 49.8237 40.2678 49.5788 56.62 52.3945C57.7608 52.5781 57.951 54.6593 56.9459 55.2102C55.1124 56.1437 53.2856 57.0848 51.4589 58.0259C49.6322 58.967 47.8055 59.9081 45.972 60.8415C44.3966 61.6679 43.0384 59.0358 44.6139 58.2095C46.8684 57.0159 49.1501 55.8529 51.4318 54.6899C37.0354 52.7006 22.3944 53.1903 8.10663 56.1283C6.39536 56.465 5.66195 53.5269 7.37323 53.1596Z" fill="#1E1E1E"/>
</g>
<g clip-path="url(#clip1)">
<path d="M32.4994 2.48198C37.7068 0.168309 43.3709 -0.92699 48.371 0.963892C53.3467 2.84888 57.634 7.71414 59.2573 13.4195C60.8857 19.101 59.8206 25.6405 56.2104 28.8698C52.6001 32.099 46.4396 32.0419 40.1766 31.985C33.938 31.9341 27.6557 31.8475 23.9149 28.4993C20.2035 25.133 19.0387 18.4813 20.8169 13.3984C22.5951 8.31557 27.3215 4.77762 32.4994 2.48198Z" fill="#59C69F"/>
<path fill-rule="evenodd" clip-rule="evenodd" d="M7.45354 21.6724C7.42079 21.6208 7.38803 21.5691 7.34873 21.5248C7.13908 21.2 7.13909 20.7866 7.24391 20.3731C7.32252 20.0188 7.58458 19.6644 7.84663 19.4873C8.10868 19.3101 8.58037 19.192 8.86863 19.3396C10.1527 19.9302 11.4367 20.5799 12.7208 21.2295C13.0352 21.3772 13.2187 21.761 13.3235 22.1154C13.4283 22.4993 13.3497 22.9127 13.1925 23.267C13.0352 23.5919 12.7208 23.8576 12.4063 23.9462C12.0395 24.0643 11.725 23.9758 11.3843 23.7986C10.4671 23.3261 9.57617 22.8832 8.65899 22.4402C8.56727 22.3959 8.48211 22.359 8.39695 22.3221C8.31178 22.2852 8.2266 22.2483 8.13488 22.204C7.92524 22.1154 7.7156 21.9973 7.55837 21.8201C7.51906 21.7758 7.4863 21.7241 7.45354 21.6724ZM50.226 15.8404C33.9553 19.1763 17.3315 19.4212 0.97927 16.6055C-0.161579 16.4219 -0.351723 14.3407 0.653313 13.7898C2.48689 12.8563 4.31367 11.9152 6.14044 10.974C7.9671 10.033 9.79376 9.09187 11.6272 8.15845C13.2027 7.33211 14.5608 9.96415 12.9854 10.7905C10.7308 11.9841 8.44913 13.1471 6.16743 14.3101C20.5639 16.2994 35.2048 15.8098 49.4926 12.8717C51.2039 12.535 51.9373 15.4731 50.226 15.8404Z" fill="#1E1E1E"/>
</g>
<g clip-path="url(#clip2)">
<path fill-rule="evenodd" clip-rule="evenodd" d="M79.8804 38.8283C78.8687 38.2952 77.738 37.9398 76.6073 38.0582C75.0005 38.1767 73.6318 39.1245 72.3226 39.9538C71.4299 40.4869 70.8348 41.0793 70.3587 41.9086C69.466 44.278 69.1685 46.8252 70.3587 49.2538C71.787 52.0971 75.0005 53.6373 78.0951 52.7487C81.2491 51.8602 83.7486 49.1946 83.9866 45.8774C84.1652 43.2118 82.5584 40.4869 80.3565 39.0652C80.2375 39.006 80.0589 38.8875 79.8804 38.8283Z" fill="#F7C300"/>
<path d="M81.0704 40.0132C79.0471 37.5253 75.2384 36.0444 72.2628 37.703C71.2512 38.2361 72.1438 39.7762 73.1555 39.2431C75.1194 38.1176 77.6188 39.1247 79.1066 40.5463C80.7729 42.1457 81.606 44.5151 81.1299 46.8253C80.8919 47.9508 80.4158 49.1948 79.4041 49.8464C78.3329 50.4979 76.9047 50.7349 75.655 50.7941C73.4531 50.8534 71.0726 49.7871 70.1205 47.7139C69.1088 45.3444 70.2395 42.5603 72.6199 41.6126C73.096 41.4348 73.3936 41.0202 73.215 40.5463C73.096 40.1317 72.5604 39.717 72.1438 39.8947C69.2873 41.0202 67.5615 43.8043 68.0971 46.8846C68.5732 49.8464 71.2512 51.9788 74.1672 52.3935C75.8335 52.6304 77.6188 52.4527 79.2256 51.8604C80.7729 51.268 81.7846 50.3202 82.4392 48.7801C83.6294 45.8775 83.0938 42.4419 81.0704 40.0132Z" fill="#1E1E1E"/>
<path d="M80.0585 42.4416C79.5824 42.2047 79.1063 42.3824 78.8087 42.7378C78.2136 43.5079 77.678 44.2187 77.0829 44.9888C76.7854 45.3442 76.4878 45.7588 76.1903 46.1143C76.0117 46.292 75.8927 46.4697 75.7142 46.7066L75.6547 46.7659L75.5952 46.7066C75.3571 46.5289 75.1191 46.292 74.9405 46.1143C74.524 45.6996 74.2264 45.285 73.9289 44.8111C73.6908 44.3964 73.1552 44.2187 72.6791 44.5149C72.2626 44.7518 72.084 45.3442 72.3816 45.7588C72.7387 46.4104 73.3338 47.062 73.9884 47.6544C74.3454 47.9506 74.7025 48.2468 75.0596 48.4837C75.5952 48.8391 76.1903 48.7206 76.6068 48.2468C77.9161 46.7659 79.1658 45.1665 80.356 43.6264C80.6536 43.2709 80.4155 42.6193 80.0585 42.4416Z" fill="#1E1E1E"/>
</g>
<path d="M100.058 11.5105C98.379 11.3899 96.7226 11.1488 95.0828 10.7814C93.5092 10.4312 91.8639 10.0293 90.3786 9.37486C89.1308 8.82373 88.7333 7.28518 88.275 6.06811C87.6566 4.43196 87.1487 2.75562 86.7401 1.05632C86.5965 0.447787 86.0058 0 85.4095 0C84.758 0 84.3052 0.459268 84.0788 1.05632C83.4604 2.66951 82.8421 4.27696 82.2292 5.89015C81.7544 7.13592 81.2961 8.51947 80.3685 9.49542C79.452 10.4656 78.149 10.6321 76.8956 10.6034C75.2227 10.569 73.5773 10.213 71.8989 10.368C70.7228 10.4771 70.1983 11.7057 70.8333 12.6759C70.8609 13.1409 71.1204 13.5714 71.5124 13.8642C72.6056 14.6909 73.6822 15.5406 74.7368 16.4247C75.2779 16.8782 75.8079 17.3317 76.338 17.7967C76.603 18.0264 76.8625 18.2617 77.1275 18.4971C77.26 18.6177 77.387 18.7325 77.5195 18.8531C77.5527 18.8818 77.5913 18.9334 77.6355 18.9794C77.63 19.0138 77.63 19.0482 77.6189 19.0827C77.5803 19.2664 77.5416 19.4501 77.5085 19.6338C77.4312 20.0012 77.3539 20.3686 77.2766 20.7361C77.122 21.4709 76.9619 22.2 76.7963 22.9348C76.4539 24.4447 76.0951 25.9488 75.7196 27.4472C75.427 28.6126 76.7079 29.7665 77.7459 29.0661C79.0821 28.1705 80.4072 27.252 81.7544 26.3794C82.3838 25.9718 83.0298 25.5584 83.7144 25.2541C84.3107 24.9901 84.4212 25.1508 85.0009 25.4608C87.8775 27.0166 90.7541 28.5724 93.6362 30.1281C94.6908 30.6965 95.9827 29.755 95.6625 28.5092C95.2871 27.0453 94.9834 25.5527 94.7901 24.0485C94.6908 23.285 94.5969 22.5043 94.5803 21.735C94.5638 21.0403 94.9227 20.6212 95.3147 20.0873C96.9766 17.814 98.9256 15.7702 101.046 13.9618C102.04 13.1007 101.134 11.5851 100.058 11.5105Z" fill="#59C69F"/>
<path d="M75.3383 32C75.1174 32 74.8966 31.9599 74.6812 31.8795C74.1567 31.6843 73.726 31.271 73.5052 30.7428C73.3561 30.3754 73.3064 29.9735 73.3727 29.5774C73.3782 29.5372 73.3892 29.497 73.4003 29.4568C73.9414 27.7403 74.1401 26.0123 74.3555 24.181C74.4825 23.0902 74.615 21.9592 74.8248 20.8053C74.8303 20.7709 74.8248 20.7077 74.8082 20.6561C74.7916 20.6044 74.764 20.5527 74.7254 20.5125L68.6023 14.3066C68.0557 13.7555 67.8624 12.9403 68.0998 12.1825C68.3373 11.4247 68.9501 10.8851 69.7065 10.776L70.5844 10.644C71.385 10.5119 72.2629 10.466 73.1905 10.4143C75.5646 10.288 78.0216 10.156 78.8056 8.48539L82.1957 1.338C82.5325 0.626127 83.2171 0.184082 83.9791 0.184082C84.741 0.184082 85.4257 0.626127 85.7625 1.338L86.1545 2.16468C86.3367 2.59525 86.4968 2.99137 86.6569 3.38175C87.5514 5.58051 88.4734 7.84815 89.7157 9.47282C89.7433 9.48431 89.7709 9.49005 89.7985 9.49579L98.2571 10.776C98.6436 10.8334 98.997 11.0056 99.2841 11.264C99.5547 11.5108 99.7534 11.8323 99.8638 12.1883C99.9246 12.3892 99.9135 12.6131 99.8252 12.8025C99.0909 14.4789 97.8596 15.6902 96.6615 16.8556C95.9161 17.5904 95.2094 18.2793 94.6297 19.0658C94.6076 19.0945 94.5855 19.1232 94.5579 19.152C94.3039 19.416 94.0665 19.6572 93.8677 19.8581L93.2328 20.5011C93.1555 20.5814 93.1168 20.6962 93.1389 20.8111L93.9671 25.8458C94.0223 26.1443 94.1051 26.4945 94.1824 26.8447C94.5634 28.5383 94.9278 30.1457 93.9561 30.7945C92.3714 32.3273 90.3396 31.0528 88.6943 30.0309C87.9102 29.543 87.1041 29.0377 86.425 28.8483C86.3698 28.8311 86.3146 28.8081 86.2594 28.7794L84.1226 27.614C84.0233 27.5623 83.9073 27.5623 83.8134 27.614L76.2493 31.7474C75.9732 31.9197 75.653 32 75.3383 32ZM75.0015 29.9161C74.9959 29.9678 75.007 30.0194 75.0235 30.0654C75.0622 30.1515 75.1395 30.2261 75.2278 30.2606C75.3162 30.295 75.4045 30.2835 75.4873 30.2376L83.0515 26.1042C83.6312 25.7884 84.3214 25.7884 84.9011 26.1042L86.9551 27.2236C87.8274 27.4877 88.7053 28.0388 89.5556 28.567C91.1954 29.5946 92.2389 30.1687 92.8739 29.5085C92.8905 29.4913 92.907 29.4741 92.9291 29.4568C92.9843 29.0492 92.7303 27.9355 92.5757 27.2523C92.4929 26.8792 92.4101 26.5118 92.3438 26.1731L91.5101 21.1153C91.3997 20.4436 91.615 19.7605 92.0843 19.284L92.7193 18.641C92.9015 18.4573 93.1168 18.2334 93.3542 17.9923C94.0058 17.1082 94.7843 16.3504 95.5296 15.6156C96.54 14.6281 97.4952 13.6866 98.1191 12.5155C98.0915 12.4983 98.0584 12.4925 98.0197 12.4868L89.5611 11.2066C89.2464 11.1606 88.9372 11.0286 88.6777 10.8334C88.6225 10.7875 88.5673 10.7416 88.5231 10.6842C87.0821 8.86429 86.0882 6.42442 85.133 4.05918C84.9729 3.6688 84.8128 3.27842 84.6582 2.89378L84.2828 2.10728C84.1999 1.94079 84.0619 1.91208 83.9846 1.91208C83.9073 1.91208 83.7638 1.93505 83.6865 2.10728L80.2964 9.23745C79.0872 11.8151 76.0008 11.9816 73.2788 12.1309C72.3954 12.1768 71.5617 12.2227 70.8329 12.3433L69.944 12.4753C69.7673 12.504 69.6955 12.636 69.6734 12.7107C69.6513 12.7853 69.6292 12.9346 69.7562 13.0666L75.8794 19.2725C76.1112 19.5079 76.2824 19.7949 76.3818 20.1164C76.4812 20.4322 76.5032 20.7709 76.4536 21.0981C76.2493 22.2176 76.1223 23.3198 76.0008 24.3819C75.791 26.196 75.5757 28.0618 75.0015 29.9161Z" fill="#1E1E1E"/>
<path d="M91.1512 13.5427C89.7654 13.3475 88.5341 13.1294 87.5072 12.4462C86.6017 11.8434 85.8894 10.9421 85.4919 9.90298C85.3152 9.44371 84.8238 9.23131 84.3766 9.41502C83.957 9.58724 83.7693 10.0465 83.9294 10.4828C84.4429 11.8319 85.3152 12.9801 86.4526 13.7896C87.7832 14.7425 89.3513 15.0239 90.8476 15.2363C90.8862 15.242 90.9248 15.242 90.9635 15.242C91.3831 15.242 91.753 14.909 91.8138 14.4612C91.88 14.002 91.5929 13.6059 91.1512 13.5427Z" fill="#1E1E1E"/>
<defs>
<clipPath id="clip0">
<rect width="58" height="32" fill="white" transform="translate(0 37)"/>
</clipPath>
<clipPath id="clip1">
<rect width="60" height="32" fill="white"/>
</clipPath>
<clipPath id="clip2">
<rect width="16" height="16" fill="white" transform="translate(68 37)"/>
</clipPath>
</defs>
</svg>
