<svg width="43" height="64" viewBox="0 0 43 64" fill="none" xmlns="http://www.w3.org/2000/svg">
<path d="M39.5462 12.5317C39.5462 11.1977 39.2127 9.86378 38.5457 8.64099C38.2122 8.08518 37.7675 7.75169 37.2117 7.4182C36.9894 7.30704 36.8782 7.30704 36.6559 7.19587C35.4331 7.08471 34.0992 7.08471 32.8764 7.08471L25.7619 6.97355C21.0931 6.86238 16.3131 6.86238 11.6443 6.75122C11.0884 6.75122 10.9773 7.30704 11.1996 7.64052V7.75169C10.8661 21.2024 10.6438 34.6531 10.3103 48.215C10.1991 51.9945 10.088 55.7741 10.088 59.5536C10.088 59.8871 10.1991 60.2206 10.6438 60.2206C19.8703 60.2206 29.0968 60.3317 38.3234 60.7764C38.6568 60.7764 38.768 60.6652 38.8792 60.4429C38.8792 60.3317 38.9903 60.3317 38.9903 60.2206C39.7685 46.7699 40.102 33.3192 39.8796 19.8684C39.7685 17.2005 39.6573 14.8661 39.5462 12.5317Z" fill="#F7C300"/>
<path d="M32.7652 52.7723C29.875 52.7723 26.8736 52.7723 23.9833 52.6611C23.4275 52.6611 22.8717 53.2169 22.8717 53.7728C22.8717 54.4397 23.4275 54.8844 23.9833 54.8844C26.8736 54.9956 29.7638 55.1067 32.7652 54.9956C34.2103 54.9956 34.2103 52.7723 32.7652 52.7723Z" fill="#1E1E1E"/>
<path d="M23.9835 50.3269C26.8737 50.3269 29.8751 50.3269 32.7654 50.4381C33.3212 50.4381 33.877 49.8823 33.877 49.3265C33.877 48.6595 33.3212 48.2148 32.7654 48.2148C29.8751 48.1037 26.9849 47.9925 23.9835 48.1037C22.5384 48.1037 22.5384 50.3269 23.9835 50.3269Z" fill="#1E1E1E"/>
<path d="M32.7652 43.9906C29.875 43.9906 26.8736 43.9906 23.9833 43.8794C23.4275 43.8794 22.8717 44.4352 22.8717 44.991C22.8717 45.658 23.4275 46.1027 23.9833 46.1027C26.8736 46.2138 29.7638 46.325 32.7652 46.2138C34.2103 46.2138 34.2103 43.9906 32.7652 43.9906Z" fill="#1E1E1E"/>
<path d="M23.9835 41.5452C26.8737 41.5452 29.8751 41.5452 32.7654 41.6563C33.3212 41.6563 33.877 41.1005 33.877 40.5447C33.877 39.8777 33.3212 39.4331 32.7654 39.4331C29.8751 39.3219 26.9849 39.2108 23.9835 39.3219C22.5384 39.3219 22.5384 41.5452 23.9835 41.5452Z" fill="#1E1E1E"/>
<path d="M32.7652 35.2088C29.875 35.2088 26.8736 35.2088 23.9833 35.0977C23.4275 35.0977 22.8717 35.6535 22.8717 36.2093C22.8717 36.8763 23.4275 37.3209 23.9833 37.3209C26.8736 37.4321 29.7638 37.5432 32.7652 37.4321C34.2103 37.4321 34.2103 35.2088 32.7652 35.2088Z" fill="#1E1E1E"/>
<path d="M23.9835 32.7632C26.8737 32.7632 29.8751 32.7632 32.7654 32.8744C33.3212 32.8744 33.877 32.3185 33.877 31.7627C33.877 31.0958 33.3212 30.6511 32.7654 30.6511C29.8751 30.5399 26.9849 30.4288 23.9835 30.5399C22.5384 30.5399 22.5384 32.7632 23.9835 32.7632Z" fill="#1E1E1E"/>
<path d="M32.7652 26.3158C29.875 26.3158 26.8736 26.3158 23.9833 26.2046C23.4275 26.2046 22.8717 26.7604 22.8717 27.3162C22.8717 27.9832 23.4275 28.4278 23.9833 28.4278C26.8736 28.539 29.7638 28.6502 32.7652 28.539C34.2103 28.539 34.2103 26.3158 32.7652 26.3158Z" fill="#1E1E1E"/>
<path d="M23.9835 23.8701C26.8737 23.8701 29.8751 23.8701 32.7654 23.9813C33.3212 23.9813 33.877 23.4255 33.877 22.8697C33.877 22.2027 33.3212 21.758 32.7654 21.758C29.8751 21.6469 26.9849 21.5357 23.9835 21.6469C22.5384 21.758 22.5384 23.9813 23.9835 23.8701Z" fill="#1E1E1E"/>
<path d="M32.7652 17.5338C29.875 17.5338 26.8736 17.5338 23.9833 17.4226C23.4275 17.4226 22.8717 17.9784 22.8717 18.5342C22.8717 19.2012 23.4275 19.6459 23.9833 19.6459C26.8736 19.757 29.7638 19.8682 32.7652 19.757C34.2103 19.757 34.2103 17.5338 32.7652 17.5338Z" fill="#1E1E1E"/>
<path d="M41.5471 61.5544C39.9908 61.5544 38.4346 61.5544 36.8783 61.6656C36.8783 44.5465 36.9895 27.4274 36.9895 10.3083C37.1006 9.64134 36.7671 8.97436 35.989 8.97436C35.2108 8.97436 34.4327 8.97436 33.6546 9.08552C32.8764 6.52878 31.209 4.30552 29.0969 2.74924C27.4294 1.52644 25.2062 0.637141 23.0941 0.19249C19.2034 -0.585651 15.3127 1.08179 12.4225 3.63854C12.089 3.97203 11.7555 4.19435 11.5331 4.52784C10.9773 5.19482 10.4215 5.8618 9.97687 6.63994C9.75455 6.97343 9.53222 7.41808 9.42106 7.75157C9.42106 7.86273 8.97641 8.97436 8.97641 8.97436C8.19827 8.97436 7.42012 8.97436 6.64198 8.8632C5.75268 8.8632 5.4192 9.53017 5.64152 10.1972C5.64152 27.3162 5.75268 44.4353 5.75268 61.5544C4.1964 61.5544 2.64012 61.5544 1.08384 61.4433C-0.361279 61.4433 -0.361279 63.6665 1.08384 63.6665C1.08384 63.6665 20.8708 63.8888 20.8708 64H21.3155H21.7601L41.5471 63.7777C42.9922 63.7777 42.9922 61.5544 41.5471 61.5544ZM19.7592 2.41575C20.0927 2.41575 20.5374 2.41575 20.8708 2.41575C21.3155 2.41575 21.649 2.41575 22.0936 2.41575C22.3159 2.41575 22.5383 2.41575 22.7606 2.41575C22.8718 2.41575 22.9829 2.41575 23.0941 2.41575H23.2053C23.2053 2.41575 23.2053 2.41575 23.3164 2.41575C23.4276 2.41575 23.5387 2.41575 23.6499 2.41575C27.096 3.30505 30.2085 5.52831 31.5425 8.97436C28.2076 9.08552 24.8727 9.08552 21.649 9.08552H21.5378H21.4267C18.0918 9.08552 14.7569 9.08552 11.5331 8.97436C12.6448 5.52831 15.9797 3.30505 19.7592 2.41575ZM34.655 61.6656C30.2085 61.7767 25.762 61.7767 21.3155 61.8879C16.869 61.7767 12.4225 61.7767 7.97594 61.6656C7.97594 44.88 7.86478 27.9832 7.86478 11.1976C12.3113 11.4199 16.7578 11.5311 21.2043 11.4199H21.3155H21.4267C25.8732 11.4199 30.3197 11.4199 34.7662 11.1976C34.7662 28.0944 34.655 44.88 34.655 61.6656Z" fill="#1E1E1E"/>
<path d="M9.75456 52.7723C12.6448 52.7723 15.6462 52.7723 18.5364 52.6611C19.0922 52.6611 19.648 53.2169 19.648 53.7728C19.648 54.4397 19.0922 54.8844 18.5364 54.8844C15.6462 54.9956 12.756 55.1067 9.75456 54.9956C8.4206 54.9956 8.4206 52.7723 9.75456 52.7723Z" fill="#1E1E1E"/>
<path d="M18.6476 50.3269C15.7574 50.3269 12.756 50.3269 9.86572 50.4381C9.3099 50.4381 8.75409 49.8823 8.75409 49.3265C8.75409 48.6595 9.3099 48.2148 9.86572 48.2148C12.756 48.1037 15.6462 47.9925 18.6476 48.1037C19.9816 48.1037 19.9816 50.3269 18.6476 50.3269Z" fill="#1E1E1E"/>
<path d="M9.75456 43.9906C12.6448 43.9906 15.6462 43.9906 18.5364 43.8794C19.0922 43.8794 19.648 44.4352 19.648 44.991C19.648 45.658 19.0922 46.1027 18.5364 46.1027C15.6462 46.2138 12.756 46.325 9.75456 46.2138C8.4206 46.2138 8.4206 43.9906 9.75456 43.9906Z" fill="#1E1E1E"/>
<path d="M18.6476 41.5452C15.7574 41.5452 12.756 41.5452 9.86572 41.6563C9.3099 41.6563 8.75409 41.1005 8.75409 40.5447C8.75409 39.8777 9.3099 39.4331 9.86572 39.4331C12.756 39.3219 15.6462 39.2108 18.6476 39.3219C19.9816 39.3219 19.9816 41.5452 18.6476 41.5452Z" fill="#1E1E1E"/>
<path d="M9.75456 35.2088C12.6448 35.2088 15.6462 35.2088 18.5364 35.0977C19.0922 35.0977 19.648 35.6535 19.648 36.2093C19.648 36.8763 19.0922 37.3209 18.5364 37.3209C15.6462 37.4321 12.756 37.5432 9.75456 37.4321C8.4206 37.4321 8.4206 35.2088 9.75456 35.2088Z" fill="#1E1E1E"/>
<path d="M18.6476 32.7632C15.7574 32.7632 12.756 32.7632 9.86572 32.8744C9.3099 32.8744 8.75409 32.3185 8.75409 31.7627C8.75409 31.0958 9.3099 30.6511 9.86572 30.6511C12.756 30.5399 15.6462 30.4288 18.6476 30.5399C19.9816 30.5399 19.9816 32.7632 18.6476 32.7632Z" fill="#1E1E1E"/>
<path d="M9.75456 26.3158C12.6448 26.3158 15.6462 26.3158 18.5364 26.2046C19.0922 26.2046 19.648 26.7604 19.648 27.3162C19.648 27.9832 19.0922 28.4278 18.5364 28.4278C15.6462 28.539 12.756 28.6502 9.75456 28.539C8.4206 28.539 8.4206 26.3158 9.75456 26.3158Z" fill="#1E1E1E"/>
<path d="M18.6476 23.8701C15.7574 23.8701 12.756 23.8701 9.86572 23.9813C9.3099 23.9813 8.75409 23.4255 8.75409 22.8697C8.75409 22.2027 9.3099 21.758 9.86572 21.758C12.756 21.6469 15.6462 21.5357 18.6476 21.6469C19.9816 21.758 19.9816 23.9813 18.6476 23.8701Z" fill="#1E1E1E"/>
<path d="M9.75456 17.5338C12.6448 17.5338 15.6462 17.5338 18.5364 17.4226C19.0922 17.4226 19.648 17.9784 19.648 18.5342C19.648 19.2012 19.0922 19.6459 18.5364 19.6459C15.6462 19.757 12.756 19.8682 9.75456 19.757C8.4206 19.757 8.4206 17.5338 9.75456 17.5338Z" fill="#1E1E1E"/>
</svg>
