<svg width="44" height="64" viewBox="0 0 44 64" fill="none" xmlns="http://www.w3.org/2000/svg">
<path d="M33.8574 54.6598C33.5593 54.163 33.1619 53.7656 32.5657 53.5668C32.367 53.4675 32.1682 53.4675 32.0689 53.4675C32.0689 53.2688 32.0689 53.1694 32.0689 53.07C32.0689 52.3745 32.1682 51.7783 32.1682 51.0828C32.2676 49.5924 32.367 48.1019 32.367 46.6115C32.4663 43.73 32.6651 40.8485 32.7644 37.967C32.9631 32.204 33.0625 26.441 33.0625 20.6781C33.0625 19.5851 32.1682 18.6908 31.0753 18.6908C27.4982 18.6908 23.9212 18.6908 20.3442 18.6908C18.9531 18.6908 16.7672 18.2934 15.6742 19.3864C14.6806 20.38 14.8793 22.2679 14.9786 23.6589C14.8793 23.8576 14.7799 24.1557 14.8793 24.4538C15.5748 29.8194 15.3761 35.2843 15.3761 40.7492C15.3761 43.4319 15.3761 46.1147 15.3761 48.6981C15.3761 49.9898 15.2767 51.2815 15.2767 52.5732C15.2767 53.2688 15.1774 54.0636 15.1774 54.7592C15.1774 55.0573 15.078 55.4547 15.078 55.7528C14.5812 55.9515 14.0844 56.2496 13.8857 56.7464C13.0908 57.74 13.2895 59.5286 14.8793 59.8266C15.7735 60.0254 16.6678 59.926 17.3633 59.4292C22.2321 59.0317 27.0014 59.2305 31.8702 60.0254C33.2612 60.2241 34.2548 59.5286 34.3542 58.1375C34.4536 57.1439 34.4536 55.6534 33.8574 54.6598Z" fill="#F7C300"/>
<path d="M42.8996 62.0129C35.8449 61.8142 28.8895 61.7148 21.8348 61.7148V63.7021C28.7902 63.7021 35.8449 63.8014 42.8002 64.0002C44.1913 64.0002 44.1913 62.0129 42.8996 62.0129Z" fill="#1E1E1E"/>
<path d="M28.0945 23.5598C28.0945 23.4604 27.9952 23.3611 27.8958 23.2617C27.7965 23.1623 27.6971 23.063 27.5977 23.063C27.4984 22.9636 27.399 22.9636 27.2003 22.9636C27.1009 22.9636 27.0016 22.9636 26.9022 22.9636C26.7035 22.9636 26.6041 23.063 26.5048 23.2617C26.4054 23.3611 26.4054 23.3611 26.306 23.4604C26.2067 23.6592 26.2067 23.7585 26.2067 23.9572V24.3547C26.2067 24.4541 26.2067 24.6528 26.306 24.7521C26.306 24.8515 26.4054 24.9509 26.5048 25.0502C26.6041 25.1496 26.7035 25.2489 26.8028 25.2489C26.9022 25.3483 27.0016 25.3483 27.2003 25.3483H27.4984C27.6971 25.3483 27.7965 25.2489 27.8958 25.0502C27.9952 24.9509 27.9952 24.9509 28.0945 24.8515C28.1939 24.6528 28.1939 24.5534 28.1939 24.3547V23.9572C28.1939 23.8579 28.1939 23.7585 28.0945 23.5598Z" fill="#1E1E1E"/>
<path d="M28.0945 28.4284C28.0945 28.3291 27.9952 28.2297 27.8958 28.1304C27.7965 28.031 27.6971 27.9316 27.5977 27.9316C27.4984 27.8323 27.399 27.8323 27.2003 27.8323C27.1009 27.8323 27.0016 27.8323 26.9022 27.8323C26.7035 27.8323 26.6041 27.9316 26.5048 28.1304C26.4054 28.2297 26.4054 28.2297 26.306 28.3291C26.2067 28.5278 26.2067 28.6272 26.2067 28.8259V29.2233C26.2067 29.3227 26.2067 29.5214 26.306 29.6208C26.306 29.7202 26.4054 29.8195 26.5048 29.9189C26.6041 30.0182 26.7035 30.1176 26.8028 30.1176C26.9022 30.217 27.0016 30.217 27.2003 30.217H27.4984C27.6971 30.217 27.7965 30.1176 27.8958 29.9189C27.9952 29.8195 27.9952 29.8195 28.0945 29.7202C28.1939 29.5214 28.1939 29.4221 28.1939 29.2233V28.8259C28.1939 28.7265 28.1939 28.6272 28.0945 28.4284Z" fill="#1E1E1E"/>
<path d="M28.0945 33.2973C28.0945 33.198 27.9952 33.0986 27.8958 32.9993C27.7965 32.8999 27.6971 32.8005 27.5977 32.8005C27.4984 32.7012 27.399 32.7012 27.2003 32.7012C27.1009 32.7012 27.0016 32.7012 26.9022 32.7012C26.7035 32.7012 26.6041 32.8005 26.5048 32.9993C26.4054 33.0986 26.4054 33.0986 26.306 33.198C26.2067 33.3967 26.2067 33.4961 26.2067 33.6948V34.0922C26.2067 34.1916 26.2067 34.3903 26.306 34.4897C26.306 34.589 26.4054 34.6884 26.5048 34.7878C26.6041 34.8871 26.7035 34.9865 26.8028 34.9865C26.9022 35.0859 27.0016 35.0859 27.2003 35.0859H27.4984C27.6971 35.0859 27.7965 34.9865 27.8958 34.7878C27.9952 34.6884 27.9952 34.6884 28.0945 34.589C28.1939 34.3903 28.1939 34.291 28.1939 34.0922V33.6948C28.1939 33.5954 28.1939 33.4961 28.0945 33.2973Z" fill="#1E1E1E"/>
<path d="M28.0945 38.166C28.0945 38.0666 27.9952 37.9673 27.8958 37.8679C27.7965 37.7685 27.6971 37.6692 27.5977 37.6692C27.4984 37.5698 27.399 37.5698 27.2003 37.5698C27.1009 37.5698 27.0016 37.5698 26.9022 37.5698C26.7035 37.5698 26.6041 37.6692 26.5048 37.8679C26.4054 37.9673 26.4054 37.9673 26.306 38.0666C26.2067 38.2654 26.2067 38.3647 26.2067 38.5634V38.9609C26.2067 39.0603 26.2067 39.259 26.306 39.3583C26.306 39.4577 26.4054 39.5571 26.5048 39.6564C26.6041 39.7558 26.7035 39.8551 26.8028 39.8551C26.9022 39.9545 27.0016 39.9545 27.2003 39.9545H27.4984C27.6971 39.9545 27.7965 39.8551 27.8958 39.6564C27.9952 39.5571 27.9952 39.5571 28.0945 39.4577C28.1939 39.259 28.1939 39.1596 28.1939 38.9609V38.5634C28.1939 38.4641 28.1939 38.2654 28.0945 38.166Z" fill="#1E1E1E"/>
<path d="M28.0945 43.0347C28.0945 42.9353 27.9952 42.8359 27.8958 42.7366C27.7965 42.6372 27.6971 42.5378 27.5977 42.5378C27.4984 42.4385 27.399 42.4385 27.2003 42.4385C27.1009 42.4385 27.0016 42.4385 26.9022 42.4385C26.7035 42.4385 26.6041 42.5378 26.5048 42.7366C26.4054 42.8359 26.4054 42.8359 26.306 42.9353C26.2067 43.134 26.2067 43.2334 26.2067 43.4321V43.8295C26.2067 43.9289 26.2067 44.1276 26.306 44.227C26.306 44.3264 26.4054 44.4257 26.5048 44.5251C26.6041 44.6244 26.7035 44.7238 26.8028 44.7238C26.9022 44.8232 27.0016 44.8232 27.2003 44.8232H27.4984C27.6971 44.8232 27.7965 44.7238 27.8958 44.5251C27.9952 44.4257 27.9952 44.4257 28.0945 44.3264C28.1939 44.1276 28.1939 44.0283 28.1939 43.8295V43.4321C28.1939 43.3327 28.1939 43.134 28.0945 43.0347Z" fill="#1E1E1E"/>
<path d="M17.5621 43.0347C17.5621 42.9353 17.4627 42.8359 17.3633 42.7366C17.264 42.6372 17.1646 42.5378 17.0653 42.5378C16.9659 42.4385 16.8665 42.4385 16.6678 42.4385C16.5685 42.4385 16.4691 42.4385 16.3697 42.4385C16.171 42.4385 16.0716 42.5378 15.9723 42.7366C15.8729 42.8359 15.7736 42.8359 15.7736 42.9353C15.6742 43.134 15.6742 43.2334 15.6742 43.4321V43.8295C15.6742 43.9289 15.6742 44.1276 15.7736 44.227C15.7736 44.3264 15.8729 44.4257 15.9723 44.5251C16.0716 44.6244 16.171 44.7238 16.2704 44.7238C16.3697 44.8232 16.4691 44.8232 16.6678 44.8232H16.9659C17.1646 44.8232 17.264 44.7238 17.3633 44.5251C17.4627 44.4257 17.4627 44.4257 17.5621 44.3264C17.6614 44.1276 17.6614 44.0283 17.6614 43.8295V43.4321C17.5621 43.3327 17.5621 43.134 17.5621 43.0347Z" fill="#1E1E1E"/>
<path d="M17.5621 38.166C17.5621 38.0666 17.4627 37.9673 17.3633 37.8679C17.264 37.7685 17.1646 37.6692 17.0653 37.6692C16.9659 37.5698 16.8665 37.5698 16.6678 37.5698C16.5685 37.5698 16.4691 37.5698 16.3697 37.5698C16.171 37.5698 16.0716 37.6692 15.9723 37.8679C15.8729 37.9673 15.8729 37.9673 15.7736 38.0666C15.6742 38.2654 15.6742 38.3647 15.6742 38.5634V38.9609C15.6742 39.0603 15.6742 39.259 15.7736 39.3583C15.7736 39.4577 15.8729 39.5571 15.9723 39.6564C16.0716 39.7558 16.171 39.8551 16.2704 39.8551C16.3697 39.9545 16.4691 39.9545 16.6678 39.9545H16.9659C17.1646 39.9545 17.264 39.8551 17.3633 39.6564C17.4627 39.5571 17.4627 39.5571 17.5621 39.4577C17.6614 39.259 17.6614 39.1596 17.6614 38.9609V38.5634C17.5621 38.4641 17.5621 38.3647 17.5621 38.166Z" fill="#1E1E1E"/>
<path d="M17.5621 33.3965C17.5621 33.2971 17.4627 33.1977 17.3633 33.0984C17.264 32.999 17.1646 32.8997 17.0653 32.8997C16.9659 32.8003 16.8665 32.8003 16.6678 32.8003C16.5685 32.8003 16.4691 32.8003 16.3697 32.8003C16.171 32.8003 16.0716 32.8997 15.9723 33.0984C15.8729 33.1977 15.8729 33.1977 15.7736 33.2971C15.6742 33.4958 15.6742 33.5952 15.6742 33.7939V34.1914C15.6742 34.2907 15.6742 34.4894 15.7736 34.5888C15.7736 34.6882 15.8729 34.7875 15.9723 34.8869C16.0716 34.9863 16.171 35.0856 16.2704 35.0856C16.3697 35.185 16.4691 35.185 16.6678 35.185H16.9659C17.1646 35.185 17.264 35.0856 17.3633 34.8869C17.4627 34.7875 17.4627 34.7875 17.5621 34.6882C17.6614 34.4894 17.6614 34.3901 17.6614 34.1914V33.7939C17.5621 33.5952 17.5621 33.4958 17.5621 33.3965Z" fill="#1E1E1E"/>
<path d="M17.5623 28.5278C17.5623 28.4285 17.4629 28.3291 17.3636 28.2297C17.2642 28.1304 17.1649 28.031 17.0655 28.031C16.8668 27.9316 16.7674 27.9316 16.5687 27.9316C16.4693 27.9316 16.37 27.9316 16.2706 27.9316C16.0719 27.9316 15.9725 28.031 15.8732 28.2297C15.7738 28.3291 15.7738 28.3291 15.6744 28.4284C15.5751 28.6272 15.5751 28.7265 15.5751 28.9253V29.3227C15.5751 29.4221 15.5751 29.6208 15.6744 29.7202C15.6744 29.8195 15.7738 29.9189 15.8732 30.0182C15.9725 30.1176 16.0719 30.217 16.1712 30.217C16.2706 30.3163 16.37 30.3163 16.5687 30.3163H16.8668C17.0655 30.3163 17.1649 30.217 17.2642 30.0182C17.3636 29.9189 17.3636 29.9189 17.4629 29.8195C17.5623 29.6208 17.5623 29.5214 17.5623 29.3227V28.9253C17.5623 28.8259 17.5623 28.6272 17.5623 28.5278Z" fill="#1E1E1E"/>
<path d="M17.5621 23.6589C17.5621 23.5596 17.4627 23.4602 17.3633 23.3608C17.264 23.2615 17.1646 23.1621 17.0653 23.1621C16.9659 23.0627 16.8665 23.0627 16.6678 23.0627C16.5685 23.0627 16.4691 23.0627 16.3697 23.0627C16.171 23.0627 16.0716 23.1621 15.9723 23.3608C15.8729 23.4602 15.8729 23.4602 15.7736 23.5596C15.6742 23.7583 15.6742 23.8576 15.6742 24.0564V24.4538C15.6742 24.5532 15.6742 24.7519 15.7736 24.8513C15.7736 24.9506 15.8729 25.05 15.9723 25.1493C16.0716 25.2487 16.171 25.3481 16.2704 25.3481C16.3697 25.4474 16.4691 25.4474 16.6678 25.4474H16.9659C17.1646 25.4474 17.264 25.3481 17.3633 25.1493C17.4627 25.05 17.4627 25.05 17.5621 24.9506C17.6614 24.7519 17.6614 24.6525 17.6614 24.4538V24.0564C17.5621 23.957 17.5621 23.8576 17.5621 23.6589Z" fill="#1E1E1E"/>
<path d="M26.9023 7.2644C26.6043 7.16504 26.3062 7.16504 26.0081 7.16504C25.6106 7.16504 25.2132 7.16504 24.8157 7.2644C24.0208 7.36376 23.3253 7.36376 22.5304 7.46312C21.8349 7.56249 21.04 7.56249 20.2451 7.56249C19.8476 7.56249 19.4502 7.56249 19.0528 7.46312C18.7547 7.46312 18.4566 7.36376 18.2579 7.46312C17.6617 7.66185 17.8604 8.65547 17.8604 9.15228C17.8604 9.94717 17.8604 10.7421 17.8604 11.537C17.8604 11.835 18.1585 12.0338 18.3572 12.0338C19.7483 11.9344 21.04 11.835 22.4311 11.835C23.9215 11.835 25.3126 11.7357 26.803 11.7357C27.1011 11.7357 27.2998 11.4376 27.2998 11.2389C27.2998 10.444 27.3991 9.64909 27.3991 8.85419C27.2998 8.25802 27.4985 7.46312 26.9023 7.2644Z" fill="#F7C300"/>
<path d="M28.0945 47.9035C28.0945 47.8042 27.9952 47.7048 27.8958 47.6055C27.7965 47.5061 27.6971 47.4067 27.5977 47.4067C27.4984 47.3074 27.399 47.3074 27.2003 47.3074C27.1009 47.3074 27.0016 47.3074 26.9022 47.3074C26.7035 47.3074 26.6041 47.4067 26.5048 47.6055C26.4054 47.7048 26.4054 47.7048 26.306 47.8042C26.2067 48.0029 26.2067 48.1023 26.2067 48.301V48.6984C26.2067 48.7978 26.2067 48.9965 26.306 49.0959C26.306 49.1952 26.4054 49.2946 26.5048 49.394C26.6041 49.4933 26.7035 49.5927 26.8028 49.5927C26.9022 49.6921 27.0016 49.6921 27.2003 49.6921H27.4984C27.6971 49.6921 27.7965 49.5927 27.8958 49.394C27.9952 49.2946 27.9952 49.2946 28.0945 49.1953C28.1939 48.9965 28.1939 48.8972 28.1939 48.6984V48.301C28.1939 48.2016 28.1939 48.0029 28.0945 47.9035Z" fill="#1E1E1E"/>
<path d="M28.0945 52.772C28.0945 52.6726 27.9952 52.5732 27.8958 52.4739C27.7965 52.3745 27.6971 52.2751 27.5977 52.2751C27.4984 52.1758 27.399 52.1758 27.2003 52.1758C27.1009 52.1758 27.0016 52.1758 26.9022 52.1758C26.7035 52.1758 26.6041 52.2751 26.5048 52.4739C26.4054 52.5732 26.4054 52.5732 26.306 52.6726C26.2067 52.8713 26.2067 52.9707 26.2067 53.1694V53.5668C26.2067 53.6662 26.2067 53.8649 26.306 53.9643C26.306 54.0637 26.4054 54.163 26.5048 54.2624C26.6041 54.3617 26.7035 54.4611 26.8028 54.4611C26.9022 54.5605 27.0016 54.5605 27.2003 54.5605H27.4984C27.6971 54.5605 27.7965 54.4611 27.8958 54.2624C27.9952 54.163 27.9952 54.163 28.0945 54.0637C28.1939 53.8649 28.1939 53.7656 28.1939 53.5668V53.1694C28.1939 52.9707 28.1939 52.8713 28.0945 52.772Z" fill="#1E1E1E"/>
<path d="M0.968778 62.0129C7.92411 61.8142 14.9788 61.7148 21.9341 61.7148V63.7021C14.9788 63.7021 7.92411 63.8014 0.968778 64.0002C-0.322926 64.0002 -0.322926 62.0129 0.968778 62.0129Z" fill="#1E1E1E"/>
<path d="M36.2422 58.9325H32.9633C32.9633 58.237 32.9633 57.4421 32.8639 56.7466C32.8639 56.4485 32.7645 56.2498 32.5658 56.0511C32.4665 55.9517 32.3671 55.8523 32.2677 55.8523C32.1684 55.753 31.9696 55.6536 31.7709 55.6536C31.6716 55.6536 31.5722 55.6536 31.4728 55.6536C31.5722 44.227 31.5722 32.701 31.3735 21.2744C31.4728 21.175 31.4728 20.9763 31.4728 20.8769C31.4728 20.3801 31.0754 19.784 30.4792 19.8833C28.5913 19.9827 26.8028 19.9827 25.0143 19.8833C25.0143 19.784 25.0143 19.5852 25.0143 19.4859C25.3124 19.4859 25.7098 19.4859 26.0079 19.4859C26.5047 19.4859 26.9022 19.3865 27.2003 19.0884C27.5977 18.691 27.5977 18.1942 27.5977 17.6974C27.5977 17.2006 27.5977 16.8031 27.5977 16.3063C28.5913 16.2069 29.1875 15.5114 29.585 14.6172C29.9824 13.8223 30.3799 12.928 30.5786 12.0337C30.6779 11.5369 30.6779 10.9408 30.1811 10.6427C29.7837 10.3446 29.1875 10.444 28.6907 10.444C27.9952 10.444 27.2996 10.444 26.5047 10.444V9.84778C26.5047 9.45033 26.5047 8.95352 26.4054 8.55608C26.1073 7.56246 25.0143 7.66182 24.1201 7.66182C23.7226 7.66182 23.2258 7.66182 22.8284 7.66182C22.8284 7.06565 22.8284 6.37011 22.8284 5.77394C22.8284 4.38288 22.8284 2.99181 22.9277 1.70011C22.9277 1.60074 22.9277 1.50138 22.8284 1.30266C22.8284 1.2033 22.8284 1.10394 22.8284 1.00457C22.9277 0.507764 22.3315 -0.0884069 21.8347 0.0109549C21.3379 0.110317 20.9405 0.209679 20.6424 0.706488C20.4437 1.00457 20.4437 1.30266 20.4437 1.60074C20.4437 3.58798 20.543 5.57522 20.543 7.66182C20.0462 7.66182 19.6488 7.66182 19.152 7.66182C18.3571 7.66182 17.1647 7.56246 16.8666 8.55608C16.7673 8.95352 16.7673 9.45033 16.7673 9.84778V10.444C16.0717 10.444 15.3762 10.444 14.5813 10.444C14.0845 10.444 13.4883 10.444 13.0909 10.6427C12.5941 10.9408 12.4947 11.5369 12.6934 12.0337C12.8922 12.928 13.2896 13.8223 13.6871 14.6172C14.1839 15.412 14.6807 16.2069 15.6743 16.3063C15.6743 16.8031 15.6743 17.2006 15.6743 17.6974C15.6743 18.1942 15.7737 18.691 16.0717 19.0884C16.3698 19.3865 16.8666 19.4859 17.2641 19.4859C17.5622 19.4859 17.9596 19.4859 18.2577 19.4859C18.2577 19.5852 18.2577 19.784 18.2577 19.8833C16.4692 19.9827 14.6807 19.9827 12.8922 19.784C12.296 19.6846 11.8985 20.2808 11.8985 20.7776C11.8985 20.8769 11.8985 21.0757 11.9979 21.175C11.7992 32.6017 11.7992 44.1276 11.8985 55.5542C11.7992 55.5542 11.6998 55.5542 11.6005 55.5542C11.4017 55.5542 11.203 55.6536 11.1037 55.753C11.0043 55.8523 10.9049 55.8523 10.8056 55.9517C10.6068 56.1504 10.5075 56.3491 10.5075 56.6472C10.4081 57.3428 10.4081 58.1376 10.4081 58.8332H7.12918C5.83747 58.8332 5.83747 60.8204 7.12918 60.8204C11.8985 60.8204 16.6679 60.7211 21.5367 60.7211C26.306 60.7211 31.0754 60.8204 35.9441 60.8204C37.5339 61.0191 37.5339 59.0319 36.2422 58.9325ZM25.0143 21.8706C26.4054 21.9699 27.8958 21.9699 29.2869 21.8706C29.4856 33.0985 29.4856 44.4257 29.2869 55.6536C27.7964 55.6536 26.306 55.6536 24.8156 55.6536C25.213 44.4257 25.213 33.1978 25.0143 21.8706ZM19.0526 10.0465C19.0526 9.94714 19.0526 9.84778 19.0526 9.74842C19.2513 9.74842 19.4501 9.74842 19.6488 9.74842C20.1456 9.74842 20.543 9.74842 21.0398 9.74842C21.2386 9.74842 21.5367 9.74842 21.7354 9.74842H21.8347H21.9341C22.1328 9.74842 22.3315 9.74842 22.5303 9.74842C23.0271 9.74842 23.4245 9.74842 23.9213 9.74842C24.1201 9.74842 24.3188 9.74842 24.5175 9.74842C24.5175 9.84778 24.5175 9.94714 24.5175 10.0465C24.5175 10.2452 24.5175 10.3446 24.5175 10.5433C23.5239 10.5433 22.6296 10.5433 21.636 10.6427C20.6424 10.6427 19.7481 10.5433 18.7545 10.5433C19.0526 10.3446 19.0526 10.1459 19.0526 10.0465ZM17.0654 14.4184C16.8666 14.4184 16.5686 14.4184 16.3698 14.4184C16.2705 14.4184 16.2705 14.4184 16.2705 14.4184C16.0717 14.1203 15.873 13.8223 15.6743 13.4248C15.5749 13.1267 15.3762 12.8286 15.2769 12.5306C16.5686 12.4312 17.8603 12.5306 19.152 12.5306C20.0462 12.5306 21.0398 12.5306 21.9341 12.6299C22.8284 12.6299 23.822 12.5306 24.7162 12.5306C26.0079 12.5306 27.2996 12.4312 28.5913 12.5306C28.492 12.8286 28.2933 13.1267 28.1939 13.4248C27.9952 13.7229 27.7964 14.021 27.5977 14.4184H27.4984C27.2996 14.4184 27.0016 14.4184 26.8028 14.4184C25.213 14.4184 23.5239 14.4184 21.9341 14.5178C20.2449 14.4184 18.6552 14.4184 17.0654 14.4184ZM18.3571 17.4986C18.2577 17.4986 18.1583 17.4986 18.059 17.4986V17.3993C18.059 17.1012 18.059 16.8031 18.059 16.505C19.3507 16.505 20.6424 16.505 21.8347 16.505C23.1264 16.505 24.3188 16.505 25.6105 16.505C25.6105 16.8031 25.6105 17.1012 25.6105 17.3993V17.4986C25.5111 17.4986 25.4118 17.4986 25.3124 17.4986C24.1201 17.4986 22.9277 17.4986 21.7354 17.4986C20.7418 17.4986 19.5494 17.4986 18.3571 17.4986ZM21.9341 55.6536C21.9341 55.6536 21.8347 55.6536 21.9341 55.6536C21.5367 55.6536 21.2386 55.6536 20.9405 55.6536C20.6424 43.6308 20.6424 31.5087 20.8411 19.4859C21.2386 19.4859 21.636 19.4859 21.9341 19.4859C22.3315 19.4859 22.729 19.4859 23.0271 19.4859C23.2258 31.5087 23.2258 43.6308 22.9277 55.6536C22.6296 55.6536 22.2322 55.6536 21.9341 55.6536ZM14.482 21.8706C15.873 21.9699 17.3635 21.9699 18.7545 21.8706C18.5558 33.0985 18.6552 44.4257 18.8539 55.6536C17.3635 55.6536 15.873 55.6536 14.3826 55.6536C14.2832 44.4257 14.2832 33.1978 14.482 21.8706ZM21.9341 58.8332C21.9341 58.8332 21.8347 58.8332 21.9341 58.8332C18.8539 58.8332 15.873 58.9325 12.7928 58.9325C12.7928 58.5351 12.7928 58.0383 12.7928 57.6408C15.7737 57.7402 18.8539 57.6408 21.8347 57.6408C24.8156 57.7402 27.8958 57.7402 30.8767 57.6408C30.8767 58.0383 30.8767 58.5351 30.8767 58.9325C27.9952 58.9325 24.915 58.8332 21.9341 58.8332Z" fill="#1E1E1E"/>
<path d="M15.6744 47.9035C15.6744 47.8042 15.7738 47.7048 15.8732 47.6055C15.9725 47.5061 16.0719 47.4067 16.1712 47.4067C16.2706 47.3074 16.37 47.3074 16.5687 47.3074C16.6681 47.3074 16.7674 47.3074 16.8668 47.3074C17.0655 47.3074 17.1649 47.4067 17.2642 47.6055C17.3636 47.7048 17.3636 47.7048 17.4629 47.8042C17.5623 48.0029 17.5623 48.1023 17.5623 48.301V48.6984C17.5623 48.7978 17.5623 48.9965 17.4629 49.0959C17.4629 49.1952 17.3636 49.2946 17.2642 49.394C17.1649 49.4933 17.0655 49.5927 16.9661 49.5927C16.8668 49.6921 16.7674 49.6921 16.5687 49.6921H16.2706C16.0719 49.6921 15.9725 49.5927 15.8732 49.394C15.7738 49.2946 15.7738 49.2946 15.6744 49.1953C15.5751 48.9965 15.5751 48.8972 15.5751 48.6984V48.301C15.5751 48.2016 15.6744 48.0029 15.6744 47.9035Z" fill="#1E1E1E"/>
<path d="M15.6744 52.772C15.6744 52.6726 15.7738 52.5732 15.8732 52.4739C15.9725 52.3745 16.0719 52.2751 16.1712 52.2751C16.2706 52.1758 16.37 52.1758 16.5687 52.1758C16.6681 52.1758 16.7674 52.1758 16.8668 52.1758C17.0655 52.1758 17.1649 52.2751 17.2642 52.4739C17.3636 52.5732 17.3636 52.5732 17.4629 52.6726C17.5623 52.8713 17.5623 52.9707 17.5623 53.1694V53.5668C17.5623 53.6662 17.5623 53.8649 17.4629 53.9643C17.4629 54.0637 17.3636 54.163 17.2642 54.2624C17.1649 54.3617 17.0655 54.4611 16.9661 54.4611C16.8668 54.5605 16.7674 54.5605 16.5687 54.5605H16.2706C16.0719 54.5605 15.9725 54.4611 15.8732 54.2624C15.7738 54.163 15.7738 54.163 15.6744 54.0637C15.5751 53.8649 15.5751 53.7656 15.5751 53.5668V53.1694C15.5751 52.9707 15.6744 52.8713 15.6744 52.772Z" fill="#1E1E1E"/>
</svg>
