<svg width="233" height="15" viewBox="0 0 233 15" fill="none" xmlns="http://www.w3.org/2000/svg">
<path d="M232.094 10.7507C229.423 8.65161 226.573 6.7243 223.902 4.6252C221.237 2.69292 219.348 1.74169 216.259 3.66125C213.715 5.23224 210.633 7.31862 208.668 9.54199C208.483 9.54696 208.477 9.38014 208.292 9.38511C207.898 8.72776 206.953 8.25215 206.38 7.76659C205.041 6.63363 203.889 5.4957 202.556 4.52956C200.453 2.74919 198.176 1.30743 195.25 2.55473C192.318 3.6352 190.556 6.35407 188.209 8.25374C188.029 8.42553 187.85 8.59732 187.67 8.76912C188.215 8.42056 188.018 8.09188 187.276 8.11177C186.703 7.62621 185.77 7.48424 185.017 7.17048C183.696 6.53799 182.375 5.90549 181.054 5.273C178.035 3.85113 175.191 2.09064 172.346 0.330157C171.396 -0.312279 169.738 0.0661037 169.02 0.753278C167.774 2.28948 166.522 3.65885 165.276 5.19505C164.563 6.04905 163.851 6.90305 163.138 7.75704C162.958 7.92884 162.778 8.10063 162.605 8.43925C162.425 8.61104 162.425 8.61104 162.425 8.61104C160.733 7.98849 159.204 6.69367 157.686 5.7325C155.982 4.77631 154.273 3.65329 152.385 2.70206C149.163 0.784691 145.977 -0.13174 142.535 2.29822C140.002 4.20286 137.655 6.10253 135.123 8.00717C133.037 6.72727 130.957 5.61419 128.686 4.33926C126.606 3.22618 124.509 1.61264 121.93 2.1827C119.537 2.74779 117.382 4.80931 115.388 6.19857C114.299 6.89568 113.209 7.5928 112.305 8.28494C111.216 8.98206 110.474 9.00194 109.159 8.53627C104.837 6.98237 101.39 3.90222 96.5518 3.53099C91.5283 3.16474 88.1092 6.26199 84.2963 8.7019C83.0272 9.57081 83.2069 9.39901 81.8801 8.5997C80.7446 7.96223 79.7944 7.31979 78.6589 6.68233C76.3878 5.4074 74.1166 4.13247 71.5035 3.70159C68.8962 3.43754 66.7058 4.49812 64.3301 5.56368C63.0495 6.09894 61.7689 6.63421 60.4883 7.16947C59.2077 7.70474 57.2085 8.92717 55.5455 9.13873C53.3206 9.19838 50.4759 7.4379 48.5814 6.31985C46.4957 5.03995 44.7577 3.08281 42.1446 2.65194C39.7169 2.21609 37.3354 3.11482 35.5274 4.49911C33.534 5.88837 31.7548 8.10678 29.1359 7.50908C26.5228 7.0782 24.4198 5.29783 22.1545 4.18972C19.6979 2.91976 17.0675 1.98842 14.0894 1.73431C8.68927 1.21117 3.19029 3.19535 0.373651 7.61227C-1.38242 10.498 3.52488 12.8711 5.28095 9.98537C7.74407 6.07886 13.1211 5.9347 17.2637 7.66039C21.4062 9.38608 24.8591 12.6331 29.6856 12.6706C31.9163 12.7778 33.9271 11.889 35.7466 10.8384C37.1953 9.79767 39.6988 7.05892 41.5875 8.01014C43.4705 8.79455 45.2027 10.5849 47.0972 11.7029C49.1772 12.816 51.6279 13.9191 53.8645 14.1931C56.2864 14.4621 58.2971 13.5734 60.4932 12.6796C63.2398 11.6041 65.9691 10.0281 68.7215 9.11945C71.1088 8.38754 73.3972 10.1629 75.286 11.1142C77.1805 12.2322 79.2893 14.1794 81.7112 14.4484C86.0046 15.1682 89.3659 10.4027 92.8427 8.97371C96.8699 7.36294 100.879 10.595 104.274 12.1738C106.354 13.2868 108.799 14.2232 111.198 13.8249C113.782 13.4216 115.944 11.5269 117.937 10.1377C119.026 9.44057 120.643 7.89443 121.93 7.52599C122.115 7.52102 122.469 7.01061 122.469 7.01061C122.839 7.00067 124.172 7.96681 124.549 8.12369C127.202 9.72232 130.041 11.316 132.694 12.9146C132.694 12.9146 132.88 12.9096 132.886 13.0765C133.836 13.7189 135.325 13.846 136.403 12.8152C138.031 11.6027 139.474 10.3952 141.102 9.18269C141.821 8.49551 142.731 7.97019 143.449 7.28302C143.994 6.93446 145.066 5.73688 145.802 5.55017C147.279 5.34358 149.956 7.60951 151.092 8.24697C152.795 9.20317 154.313 10.1643 156.016 11.1205C158.67 12.7192 161.908 15.137 164.794 12.722C166.237 11.5144 167.292 9.81638 168.358 8.45197C169.071 7.59798 169.963 6.57219 170.676 5.71819C175.415 8.59672 180.329 11.1366 185.589 12.9993C188.782 14.0826 190.578 12.3647 192.74 10.47C193.818 9.43919 194.884 8.07479 196.159 7.3727C197.248 6.67558 196.518 7.02911 197.462 7.50473C198.03 7.82346 198.801 8.63769 199.374 9.12324C200.713 10.2562 201.865 11.3941 203.198 12.3603C204.154 13.1695 205.307 14.3075 206.622 14.7731C209.623 15.6945 211.402 13.4761 213.39 11.9201C214.653 10.8843 215.917 9.8486 217.365 8.80789C217.365 8.80789 218.455 8.11078 218.999 7.76222C219.191 7.92407 219.382 8.08592 219.573 8.24778C222.244 10.3469 225.094 12.2742 227.765 14.3733C230.992 16.4575 234.765 12.8498 232.094 10.7507Z" fill="#59C69F"/>
</svg>
