<svg width="52" height="64" viewBox="0 0 52 64" fill="none" xmlns="http://www.w3.org/2000/svg">
<path d="M49.8757 12.7318C49.7621 8.52575 49.1937 4.43339 48.1706 0.454707C48.0569 1.01635e-07 47.6022 1.60922e-07 47.3749 0.113677C47.2612 1.60922e-07 47.1475 0 47.0338 0H40.0995C39.8722 0 39.6448 0.113677 39.5312 0.34103C36.4619 6.70693 33.1653 12.8455 29.5276 18.984C26.0036 24.8952 22.4797 30.6927 18.3873 36.2629C16.1138 39.2185 13.7265 42.0604 10.8846 44.5613C10.7709 44.675 10.771 44.675 10.771 44.7886C10.5436 44.7886 10.3162 45.016 10.3162 45.357C10.3162 50.0178 10.3162 54.5648 10.3162 59.2256C10.0889 59.5666 10.3162 60.135 10.771 60.135C22.5933 60.0213 34.302 60.0213 46.1244 59.9076C46.2381 60.0213 46.3518 60.135 46.5791 60.135H47.7159C47.8296 60.135 47.9432 60.135 47.9432 60.0213C48.2843 60.135 48.739 60.0213 48.739 59.5666C48.9663 51.7229 49.1937 43.9929 49.421 36.1492C49.5347 32.2842 49.6484 28.4192 49.7621 24.5542C49.7621 20.4618 49.8757 16.5968 49.8757 12.7318Z" fill="#F7C300"/>
<path d="M50.103 61.3852H46.4654C46.238 51.8364 46.1243 42.4012 45.897 32.8524C45.7833 27.9643 45.6696 23.0762 45.6696 18.1881C45.5559 13.5273 45.3286 8.86657 45.6696 4.20583C46.238 3.52377 46.0107 2.27332 44.8739 2.27332C39.9858 2.387 34.984 2.387 30.0959 2.27332C29.4139 1.70494 28.1634 2.04597 28.2771 3.06906C28.3908 6.47936 28.2771 10.0033 27.9361 13.4136C25.2078 13.5273 22.5933 13.5273 19.865 13.5273C19.1829 13.5273 18.8419 13.982 18.8419 14.4367C18.7282 14.6641 18.6146 15.0051 18.7282 15.3461C19.2966 17.9607 19.524 20.5753 19.2966 23.1898C16.7957 23.0762 14.4085 23.3035 12.0213 23.6445C11.4529 23.7582 11.1119 24.554 11.2256 25.0087C11.2256 25.1223 11.3393 25.1223 11.3393 25.236C11.5666 28.0779 11.5666 30.9199 11.5666 33.7618C9.52042 33.7618 7.36056 33.8755 5.31438 34.2165C4.746 34.3302 4.2913 35.1259 4.51865 35.5806C5.20071 43.9927 5.54174 52.4048 5.76909 60.8168C5.76909 61.2715 5.99645 61.4989 6.2238 61.7262H1.10835C-0.369449 61.7262 -0.369449 63.9998 1.10835 63.9998L50.2167 63.6588C51.4671 63.6588 51.5808 61.3852 50.103 61.3852ZM6.56483 36.2627C8.38365 36.0353 10.3162 36.0353 12.135 36.0353C12.3623 36.0353 12.476 35.9216 12.7034 35.808C13.1581 35.6943 13.4991 35.2396 13.6128 34.6712C13.7265 31.6019 13.7265 28.6463 13.4991 25.577C15.659 25.3497 17.8188 25.236 19.9787 25.3497C20.206 25.3497 20.4334 25.236 20.6607 25.1223C21.1154 25.0087 21.4565 24.554 21.4565 24.0993C21.7975 21.2573 21.6838 18.4154 21.1154 15.6872C23.6163 15.6872 26.2309 15.6872 28.7318 15.5735C28.8455 15.5735 28.9591 15.5735 28.9591 15.5735C29.6412 15.5735 29.9822 15.0051 30.0959 14.4367C30.4369 11.1401 30.6643 7.7298 30.5506 4.43318C34.8703 4.54686 39.0764 4.54686 43.3961 4.43318C43.0551 8.98025 43.2824 13.5273 43.3961 18.0744C43.5098 22.9625 43.6234 27.8506 43.6234 32.7387C43.8508 42.2875 43.9645 51.7227 44.1918 61.2715L7.58792 61.4989C7.81527 61.2715 8.04263 61.0442 7.92895 60.5895C7.58792 52.6321 7.24689 44.4474 6.56483 36.2627Z" fill="#1E1E1E"/>
<path d="M41.1226 9.6624C41.1226 9.09402 40.6679 8.52563 39.9858 8.52563C39.4174 8.52563 38.8491 8.98034 38.8491 9.6624C38.8491 10.9128 38.9627 12.277 38.9627 13.5274C38.9627 14.0958 39.4174 14.6642 40.0995 14.6642C40.6679 14.6642 41.2363 14.2095 41.2363 13.5274C41.2363 12.277 41.2363 10.9128 41.1226 9.6624Z" fill="#1E1E1E"/>
<path d="M35.5523 9.77608C35.5523 9.20769 35.0976 8.52563 34.5292 8.52563C33.9609 8.52563 33.3925 8.98034 33.2788 9.54872C33.1651 10.7992 33.1651 12.1633 33.0515 13.4137C33.0515 13.9821 33.5062 14.6642 34.0745 14.6642C34.6429 14.6642 35.2113 14.2095 35.325 13.6411C35.4387 12.3906 35.5523 11.0265 35.5523 9.77608Z" fill="#1E1E1E"/>
<path d="M35.5523 20.007C35.5523 19.4387 35.0976 18.7566 34.5292 18.7566C33.9609 18.7566 33.3925 19.2113 33.2788 19.7797C33.1651 21.0301 33.1651 22.3942 33.0515 23.6447C33.0515 24.2131 33.5062 24.8951 34.0745 24.8951C34.6429 24.8951 35.2113 24.4404 35.325 23.872C35.4387 22.6216 35.5523 21.3712 35.5523 20.007Z" fill="#1E1E1E"/>
<path d="M29.5276 20.0071C29.5276 19.4387 28.9592 18.8704 28.3909 18.8704C27.8225 18.8704 27.2541 19.3251 27.2541 20.0071C27.2541 21.2576 27.3678 22.6217 27.3678 23.8721C27.3678 24.4405 27.9361 25.0089 28.5045 25.0089C29.0729 25.0089 29.6413 24.5542 29.6413 23.8721C29.6413 22.508 29.6413 21.2576 29.5276 20.0071Z" fill="#1E1E1E"/>
<path d="M41.1226 20.0071C41.1226 19.4387 40.5542 18.8704 39.9858 18.8704C39.4174 18.8704 38.8491 19.3251 38.8491 20.0071C38.8491 21.2576 38.9627 22.6217 38.9627 23.8721C38.9627 24.4405 39.5311 25.0089 40.0995 25.0089C40.6679 25.0089 41.2363 24.5542 41.2363 23.8721C41.2363 22.508 41.2363 21.2576 41.1226 20.0071Z" fill="#1E1E1E"/>
<path d="M35.5523 31.2609C35.5523 30.6926 35.0976 30.0105 34.5292 30.0105C33.9609 30.0105 33.3925 30.4652 33.2788 31.0336C33.1651 32.284 33.1651 33.6482 33.0515 34.8986C33.0515 35.467 33.5062 36.149 34.0745 36.149C34.6429 36.149 35.2113 35.6943 35.325 35.126C35.4387 33.8755 35.5523 32.5114 35.5523 31.2609Z" fill="#1E1E1E"/>
<path d="M24.0711 31.2609C24.0711 30.6926 23.6164 30.0105 23.048 30.0105C22.4797 30.0105 21.9113 30.4652 21.7976 31.0336C21.6839 32.284 21.6839 33.6482 21.5703 34.8986C21.5703 35.467 22.025 36.149 22.5933 36.149C23.1617 36.149 23.7301 35.6943 23.8438 35.126C23.9575 33.8755 24.0711 32.5114 24.0711 31.2609Z" fill="#1E1E1E"/>
<path d="M29.5276 31.1473C29.5276 30.5789 28.9592 30.0105 28.3909 30.0105C27.8225 30.0105 27.2541 30.4652 27.2541 31.1473C27.2541 32.3977 27.3678 33.7618 27.3678 35.0123C27.3678 35.5807 27.9361 36.149 28.5045 36.149C29.0729 36.149 29.6413 35.6943 29.6413 35.0123C29.6413 33.7618 29.6413 32.3977 29.5276 31.1473Z" fill="#1E1E1E"/>
<path d="M41.1226 31.1473C41.1226 30.5789 40.5542 30.0105 39.9858 30.0105C39.4174 30.0105 38.8491 30.4652 38.8491 31.1473C38.8491 32.3977 38.9627 33.7618 38.9627 35.0123C38.9627 35.5807 39.5311 36.149 40.0995 36.149C40.6679 36.149 41.2363 35.6943 41.2363 35.0123C41.2363 33.7618 41.2363 32.3977 41.1226 31.1473Z" fill="#1E1E1E"/>
<path d="M35.5524 48.0851C35.5524 47.9714 35.5524 47.9714 35.5524 47.8577C35.5524 46.6073 35.4388 45.2432 35.4388 43.9927C35.4388 43.4243 34.8704 42.856 34.302 42.856C33.7336 42.856 33.1652 43.3107 33.1652 43.9927C33.1652 45.0158 33.2789 46.1526 33.2789 47.1757V47.2894C33.2789 50.0176 33.3926 52.7458 33.3926 55.4741C33.3926 56.0425 33.961 56.6108 34.5293 56.6108C35.0977 56.6108 35.6661 56.0425 35.6661 55.4741C35.5524 53.0869 35.5524 50.586 35.5524 48.0851Z" fill="#1E1E1E"/>
<path d="M24.1848 51.3817C24.1848 51.4954 24.1848 51.4954 24.1848 51.6091C24.1848 52.8595 24.2985 54.2236 24.2985 55.4741C24.2985 56.0425 24.8668 56.6108 25.4352 56.6108C26.0036 56.6108 26.572 56.1561 26.572 55.4741C26.572 54.451 26.4583 53.3142 26.4583 52.2911V52.1774C26.4583 49.4492 26.3446 46.721 26.3446 43.9927C26.3446 43.4243 25.7763 42.856 25.2079 42.856C24.6395 42.856 24.0711 43.4243 24.0711 43.9927C24.1848 46.4936 24.1848 48.8808 24.1848 51.3817Z" fill="#1E1E1E"/>
<path d="M17.4777 48.0851C17.4777 47.9714 17.4777 47.9714 17.4777 47.8577C17.4777 46.6073 17.364 45.2432 17.364 43.9927C17.364 43.4243 16.7956 42.856 16.2272 42.856C15.6588 42.856 15.0905 43.3107 15.0905 43.9927C15.0905 45.0158 15.2041 46.1526 15.2041 47.1757V47.2894C15.2041 50.0176 15.3178 52.7458 15.3178 55.4741C15.3178 56.0425 15.8862 56.6108 16.4546 56.6108C17.023 56.6108 17.5913 56.0425 17.5913 55.4741C17.4777 53.0869 17.4777 50.586 17.4777 48.0851Z" fill="#1E1E1E"/>
</svg>
