<svg width="227" height="15" viewBox="0 0 227 15" fill="none" xmlns="http://www.w3.org/2000/svg">
<path fill-rule="evenodd" clip-rule="evenodd" d="M114.463 11.6689C114.663 11.929 114.862 12.1913 115.059 12.4569C115.85 13.3329 116.705 13.0486 117.223 12.3159C117.392 12.186 117.568 12.0239 117.753 11.8269C119.038 10.4654 120.596 8.65721 121.588 6.73029C121.635 6.72813 121.659 6.7632 121.683 6.79827C121.707 6.83333 121.731 6.8684 121.778 6.86625C121.913 7.2526 122.176 7.56652 122.422 7.85981C122.538 7.99899 122.651 8.13353 122.744 8.26896C122.973 8.60163 123.191 8.9348 123.406 9.2625C123.825 9.90203 124.23 10.5208 124.676 11.0744C125.738 12.6174 126.888 13.8669 128.366 12.7859C129.354 12.1616 130.079 10.9063 130.803 9.65093C131.166 9.02325 131.528 8.39557 131.923 7.84677L132.053 7.63374C131.993 7.83315 132.12 7.98243 132.394 7.96981C132.588 8.25035 132.861 8.39855 133.135 8.54675C133.272 8.62085 133.409 8.69495 133.536 8.78559L135.538 10.4301C137.063 11.6624 138.5 13.1881 139.937 14.7139C140.417 15.2707 141.254 14.9427 141.617 14.3472C141.932 13.6814 142.247 13.0518 142.563 12.4222C142.878 11.7927 143.193 11.1633 143.508 10.4976L144.588 8.27724C144.679 8.12835 144.77 7.97946 144.858 7.686L144.948 7.53711C145.553 7.9185 146.116 8.59101 146.665 9.24673C146.892 9.51864 147.118 9.78766 147.343 10.0318C147.66 10.3379 147.978 10.6636 148.301 10.9943C148.853 11.5591 149.419 12.1383 150.02 12.6582C151.648 14.3199 153.258 15.1142 154.996 13.0082C155.636 12.1829 156.252 11.3586 156.868 10.5343C157.485 9.71007 158.101 8.8858 158.74 8.06046C159.526 8.88793 160.311 9.63495 161.135 10.4198C161.415 10.687 161.701 10.9586 161.992 11.2393C162.167 11.3997 162.342 11.5721 162.518 11.7457C163.402 12.6166 164.319 13.5203 165.405 13.1083C166.316 12.7392 167.159 11.6332 167.95 10.5953C168.209 10.2562 168.462 9.92439 168.71 9.62791C169.26 9.02375 169.81 8.41958 170.267 7.81972C170.817 7.21555 171.192 7.19832 171.857 7.6019C172.656 8.09488 173.396 8.76511 174.133 9.43254C175.409 10.5884 176.676 11.7359 178.225 11.9398C180.335 12.2036 181.884 10.3938 183.453 8.56102C183.772 8.18869 184.091 7.8154 184.416 7.45836C184.964 6.81505 184.978 6.82995 185.388 7.27983C185.458 7.35658 185.539 7.44598 185.637 7.54693C185.924 7.82315 186.187 8.10044 186.451 8.37773C186.714 8.65506 186.977 8.9324 187.264 9.20865C188.411 10.3136 189.559 11.4185 190.879 11.792C192.131 12.0095 193.193 11.1895 194.326 10.3147C194.384 10.2693 194.443 10.2237 194.503 10.1781L196.443 8.78646C196.626 8.65516 196.839 8.47615 197.068 8.2828C197.648 7.79302 198.338 7.21122 198.94 7.07977C200.006 7.03076 201.353 8.39949 202.305 9.36751C202.358 9.42058 202.409 9.47244 202.458 9.5228C202.775 9.85624 203.076 10.2427 203.378 10.6303C204.08 11.5323 204.787 12.4405 205.71 12.7017C206.936 13.0794 208.139 12.3005 209.053 11.1008C209.277 10.8324 209.496 10.5284 209.716 10.2236C210.481 9.16098 211.253 8.08958 212.282 8.49213C213.183 8.74702 213.964 9.54682 214.732 10.3343C215.09 10.7005 215.445 11.0641 215.808 11.3689C217.049 12.4695 218.378 13.2767 219.883 13.4969C222.61 13.9503 225.388 12.2307 226.811 8.4027C227.698 5.90176 225.219 3.84508 224.332 6.34601C223.088 9.73166 220.372 9.85659 218.279 8.361C217.601 7.87628 216.959 7.25308 216.319 6.63097C214.983 5.33353 213.652 4.04079 212.004 4.01878C210.877 3.9259 209.861 4.69619 208.942 5.60674C208.792 5.79146 208.62 6.0379 208.433 6.30595C207.705 7.34676 206.75 8.71344 205.991 8.05788C205.435 7.66039 204.905 6.96487 204.369 6.26203C203.989 5.76281 203.606 5.2599 203.208 4.85748C202.157 3.89281 200.919 2.93676 199.79 2.6993C198.628 2.47796 197.654 3.16093 196.609 3.89341C196.553 3.93252 196.497 3.97177 196.441 4.01103C195.846 4.4105 195.253 4.88964 194.66 5.36878C193.869 6.00762 193.079 6.64647 192.284 7.09648C191.307 7.61066 190.362 6.69705 189.531 5.89344C189.337 5.70565 189.149 5.52388 188.968 5.36773C188.714 5.11101 188.453 4.80384 188.184 4.48665C187.435 3.60663 186.622 2.64941 185.722 2.47803C184.325 2.07629 183.124 3.64627 181.976 5.14576C181.342 5.97461 180.724 6.78192 180.099 7.22279C178.499 8.3208 176.904 6.82228 175.462 5.46673C175.071 5.09884 174.69 4.74148 174.324 4.44941C173.274 3.48475 172.038 2.67327 170.827 3.01844C169.75 3.30666 168.819 4.47406 167.96 5.54984C167.778 5.77848 167.599 6.00297 167.422 6.21401C167.244 6.40973 167.038 6.68266 166.818 6.9731C166.36 7.57923 165.845 8.26161 165.405 8.47748C165.312 8.48179 165.133 8.92414 165.133 8.92414C165.014 8.92964 164.696 8.59083 164.433 8.30949C164.283 8.14984 164.151 8.0087 164.082 7.95948C163.412 7.26674 162.718 6.57507 162.025 5.88341C161.331 5.19174 160.638 4.50008 159.967 3.80733C159.967 3.80733 159.874 3.81164 159.871 3.66706C159.391 3.11029 158.639 3.00017 158.094 3.8935C157.683 4.41891 157.295 4.94325 156.907 5.46759C156.519 5.99192 156.131 6.51626 155.72 7.04168C155.538 7.33944 155.333 7.60214 155.127 7.86484C154.921 8.12756 154.716 8.39027 154.534 8.68806C154.438 8.79348 154.31 8.9885 154.167 9.20463C153.902 9.60785 153.588 10.0845 153.346 10.1899C152.791 10.3231 151.9 9.27024 151.244 8.49489C151.018 8.22806 150.821 7.99409 150.674 7.85263C150.243 7.43825 149.837 7.02279 149.43 6.60732C149.023 6.19193 148.616 5.77653 148.186 5.36221C148.065 5.23723 147.942 5.10646 147.816 4.97352C146.552 3.63275 145.078 2.07009 143.752 3.97432C143.209 4.75375 142.775 5.769 142.366 6.72498C142.226 7.05256 142.089 7.37318 141.951 7.67497C141.771 8.04503 141.568 8.45231 141.366 8.8596C141.163 9.26689 140.96 9.67418 140.78 10.0442C138.386 7.54951 135.904 5.34825 133.247 3.73392C131.69 2.82752 130.79 4.18406 129.747 5.7566C129.71 5.81284 129.672 5.86935 129.634 5.92605C129.481 6.17791 129.328 6.45275 129.173 6.73123C128.778 7.44051 128.37 8.17341 127.907 8.61034C127.673 8.86779 127.605 8.9599 127.568 8.94893C127.518 8.93416 127.522 8.73246 127.249 8.49592C127.054 8.30858 126.812 7.92374 126.587 7.56418C126.48 7.39356 126.376 7.22863 126.283 7.0932C126.054 6.76052 125.835 6.42735 125.621 6.09964C125.202 5.46012 124.796 4.8414 124.351 4.28777C124.273 4.17454 124.193 4.05389 124.11 3.92946C123.678 3.28317 123.179 2.53505 122.622 2.19662C121.359 1.53165 120.525 2.75361 119.701 3.95975C119.536 4.20204 119.371 4.4437 119.203 4.66929C118.564 5.56693 117.926 6.46456 117.194 7.3665L116.413 8.22389C116.004 7.69835 115.591 7.1806 115.177 6.66285C115.093 6.55805 115.009 6.45325 114.925 6.34839C114.705 6.06828 114.483 5.78978 114.261 5.51179C113.872 5.01803 113.486 4.51913 113.108 4.00851C112.91 3.76266 112.721 3.53513 112.537 3.33112C112.337 3.07102 112.138 2.80868 111.941 2.54316C111.15 1.66713 110.295 1.95137 109.777 2.68406C109.608 2.81399 109.432 2.9761 109.247 3.17308C107.962 4.53461 106.404 6.3428 105.412 8.26973C105.365 8.27188 105.341 8.23681 105.317 8.20175C105.293 8.16668 105.269 8.13161 105.222 8.13376C105.087 7.7474 104.824 7.43348 104.578 7.14018C104.462 7.00101 104.349 6.86647 104.256 6.73105C104.027 6.3984 103.809 6.06527 103.594 5.73759C103.175 5.09803 102.77 4.47928 102.324 3.92562C101.262 2.38263 100.112 1.13311 98.6336 2.2141C97.6462 2.83837 96.9215 4.09373 96.1967 5.34909C95.8344 5.97677 95.472 6.60444 95.0768 7.15324L94.947 7.36626C95.0067 7.16685 94.8799 7.01758 94.6056 7.0302C94.4124 6.74966 94.1386 6.60146 93.8648 6.45326C93.7279 6.37916 93.591 6.30506 93.4641 6.21442L91.4622 4.56993C89.9373 3.33765 88.5003 1.81189 87.0633 0.286136C86.5833 -0.270642 85.7461 0.0572899 85.3831 0.652841C85.0684 1.31856 84.7529 1.94813 84.4375 2.57771C84.1221 3.20722 83.8066 3.83673 83.4919 4.50238L82.4117 6.72277C82.3209 6.87166 82.2302 7.02055 82.1423 7.31401L82.0516 7.4629C81.4474 7.0815 80.8843 6.40898 80.3352 5.75326C80.1075 5.48135 79.8822 5.21234 79.6575 4.96817C79.3397 4.66212 79.0215 4.33634 78.6985 4.00563C78.1469 3.44087 77.5813 2.86172 76.9795 2.34178C75.3522 0.680066 73.7424 -0.114175 72.0036 1.99179C71.364 2.81714 70.7478 3.6414 70.1316 4.46567C69.5153 5.28994 68.8991 6.11421 68.2595 6.93955C67.4735 6.11208 66.6892 5.36507 65.8651 4.58026C65.5845 4.31301 65.2993 4.04138 65.0079 3.76069C64.8332 3.60032 64.6583 3.42795 64.482 3.25429C63.5982 2.38336 62.6811 1.47975 61.5951 1.89167C60.6839 2.26082 59.8408 3.36681 59.0496 4.40474C58.7911 4.74381 58.5382 5.07561 58.2902 5.37209C57.7399 5.97626 57.1895 6.58043 56.7329 7.18028C56.1825 7.78445 55.8079 7.80168 55.1435 7.3981C54.3442 6.90512 53.6042 6.2349 52.8673 5.56747C51.591 4.41162 50.3241 3.26415 48.7747 3.0602C46.6655 2.79637 45.1162 4.60616 43.5472 6.43897C43.2284 6.81131 42.9089 7.1846 42.5836 7.54164C42.036 8.18495 42.0224 8.17005 41.6122 7.72018C41.5423 7.64343 41.4607 7.55403 41.3631 7.45307C41.0762 7.17684 40.8128 6.89952 40.5494 6.62221C40.286 6.3449 40.0226 6.06759 39.7358 5.79135C38.5885 4.68641 37.4412 3.58147 36.1212 3.20805C34.869 2.99049 33.8072 3.81046 32.6744 4.68533C32.6156 4.73074 32.5566 4.77629 32.4974 4.82186L30.5566 6.21354C30.3735 6.34484 30.1613 6.52386 29.9322 6.71721C29.3516 7.20698 28.662 7.78878 28.0597 7.92024C26.9941 7.96925 25.6472 6.60046 24.6946 5.63244C24.6424 5.57939 24.5914 5.52755 24.5417 5.4772C24.2249 5.14376 23.9241 4.75729 23.6223 4.36965C22.9203 3.46774 22.2133 2.55952 21.29 2.29835C20.0636 1.92061 18.8606 2.69951 17.9472 3.89923C17.7228 4.16758 17.5037 4.47163 17.2841 4.77639C16.5185 5.83903 15.7466 6.91042 14.7185 6.50787C13.8175 6.25298 13.0365 5.45318 12.2675 4.66569C11.9099 4.29948 11.5549 3.93594 11.1917 3.63109C9.95073 2.53046 8.62193 1.7233 7.11747 1.50307C4.38952 1.04968 1.61163 2.7693 0.188756 6.5973C-0.698354 9.09824 1.78065 11.1549 2.66776 8.65399C3.91204 5.26834 6.62833 5.14341 8.72101 6.63901C9.39924 7.12371 10.0409 7.74691 10.6814 8.36902C12.0172 9.66647 13.3482 10.9592 14.9962 10.9812C16.1231 11.0741 17.1388 10.3038 18.058 9.39326C18.2078 9.20854 18.3801 8.96209 18.5674 8.69404C19.2948 7.65322 20.2499 6.28657 21.0086 6.94213C21.5648 7.33961 22.0949 8.03513 22.6306 8.73796C23.0111 9.23719 23.3945 9.7401 23.7919 10.1425C24.8426 11.1072 26.0807 12.0632 27.2105 12.3007C28.372 12.522 29.3462 11.8391 30.3911 11.1066C30.4469 11.0675 30.5029 11.0282 30.5591 10.989C31.1538 10.5895 31.7468 10.1104 32.3398 9.63123C33.1305 8.99238 33.9213 8.35353 34.7158 7.90352C35.6933 7.38934 36.6381 8.30297 37.4691 9.10659C37.6633 9.29436 37.8512 9.47613 38.0319 9.63227C38.2855 9.889 38.5467 10.1962 38.8163 10.5134C39.5646 11.3934 40.3784 12.3506 41.2777 12.522C42.6745 12.9237 43.876 11.3537 45.0236 9.85423C45.6579 9.02539 46.2758 8.21809 46.901 7.77721C48.5011 6.67921 50.0956 8.17773 51.5379 9.53328C51.9294 9.90117 52.3096 10.2585 52.6757 10.5506C53.7264 11.5153 54.9616 12.3267 56.1734 11.9816C57.25 11.6934 58.1814 10.526 59.0398 9.45018C59.2222 9.22154 59.4013 8.99704 59.5778 8.786C59.7561 8.59027 59.9623 8.31733 60.1818 8.02688C60.6398 7.42075 61.1554 6.7384 61.5947 6.52253C61.6884 6.51822 61.867 6.07586 61.867 6.07586C61.9865 6.07037 62.3037 6.40915 62.5671 6.69048C62.7166 6.85014 62.8488 6.9913 62.9177 7.04053C63.5879 7.73329 64.2816 8.42497 64.9752 9.11665C65.6689 9.8083 66.3625 10.4999 67.0327 11.1927C67.0327 11.1927 67.1264 11.1884 67.1293 11.3329C67.6093 11.8897 68.3615 11.9998 68.906 11.1065C69.3173 10.5811 69.7052 10.0568 70.093 9.53242C70.4809 9.00809 70.8688 8.48375 71.2801 7.95833C71.4616 7.66056 71.6672 7.39786 71.8729 7.13515C72.0785 6.87244 72.2842 6.60973 72.4657 6.31195C72.5617 6.20654 72.6902 6.01152 72.8325 5.7954C73.0982 5.39218 73.4122 4.91549 73.6542 4.81015C74.2095 4.67694 75.1 5.72978 75.7559 6.50513C75.9816 6.77196 76.1795 7.00593 76.3263 7.14737C76.7566 7.56174 77.1634 7.97719 77.5703 8.39264C77.9771 8.80805 78.3839 9.22346 78.8141 9.6378C78.935 9.76279 79.0583 9.89355 79.1837 10.0265C80.4483 11.3673 81.9221 12.9299 83.2484 11.0257C83.7913 10.2462 84.2254 9.23096 84.6342 8.27497C84.7743 7.94741 84.9114 7.62681 85.0489 7.32504C85.2289 6.95497 85.4316 6.54768 85.6344 6.14039C85.8371 5.73311 86.0398 5.32583 86.2199 4.95576C88.614 7.4505 91.0959 9.65176 93.7535 11.2661C95.3105 12.1725 96.2102 10.816 97.2531 9.24342C97.2904 9.18718 97.3279 9.13066 97.3656 9.07396C97.5191 8.82211 97.6722 8.54728 97.8272 8.2688C98.2222 7.55951 98.6303 6.8266 99.0928 6.38967C99.3273 6.13222 99.3949 6.04011 99.4322 6.05108C99.4824 6.06585 99.4776 6.26755 99.7514 6.5041C99.9459 6.69143 100.187 7.07625 100.413 7.43579C100.52 7.60643 100.624 7.77137 100.717 7.90681C100.946 8.23949 101.164 8.57266 101.379 8.90037C101.798 9.53989 102.204 10.1586 102.649 10.7122C102.727 10.8255 102.807 10.9461 102.89 11.0705C103.322 11.7168 103.821 12.465 104.378 12.8034C105.641 13.4684 106.475 12.2464 107.299 11.0403C107.464 10.798 107.629 10.5563 107.797 10.3307C108.436 9.43308 109.074 8.53545 109.806 7.63351L110.587 6.77613C110.996 7.30165 111.409 7.81938 111.823 8.33712C111.907 8.44196 111.991 8.5468 112.075 8.65171C112.295 8.93162 112.517 9.20988 112.738 9.48768C113.128 9.98161 113.514 10.4807 113.892 10.9915C114.09 11.2374 114.279 11.4649 114.463 11.6689Z" fill="#F7C300"/>
</svg>
