<svg width="105" height="11" viewBox="0 0 105 11" fill="none" xmlns="http://www.w3.org/2000/svg">
<path d="M104.592 7.88386C103.388 6.34451 102.104 4.93115 100.9 3.39181C99.699 1.97481 98.8478 1.27724 97.4559 2.68491C96.3096 3.83698 94.9203 5.36699 94.035 6.99746C93.9514 7.00111 93.9488 6.87877 93.8653 6.88241C93.6878 6.40036 93.2622 6.05158 93.0037 5.6955C92.4006 4.86466 91.8811 4.03018 91.2806 3.32168C90.3329 2.01607 89.3068 0.958785 87.9881 1.87347C86.6668 2.66581 85.8729 4.65965 84.8152 6.05274C84.7343 6.17872 84.6533 6.3047 84.5724 6.43069C84.8179 6.17508 84.7291 5.93405 84.3949 5.94863C84.1364 5.59256 83.716 5.48845 83.3766 5.25835C82.7813 4.79452 82.186 4.3307 81.5907 3.86687C80.2305 2.82416 78.9485 1.53314 77.6666 0.242115C77.2384 -0.229005 76.4916 0.048476 76.1678 0.552404C75.6063 1.67895 75.0422 2.68316 74.4807 3.80971C74.1595 4.43597 73.8382 5.06223 73.517 5.6885C73.4361 5.81448 73.3551 5.94046 73.2768 6.18878C73.1958 6.31476 73.1958 6.31476 73.1958 6.31476C72.4334 5.85822 71.7441 4.90869 71.0601 4.20384C70.2925 3.50262 69.5223 2.67908 68.6712 1.98151C67.2195 0.57544 65.7835 -0.0966094 64.2323 1.68536C63.0911 3.0821 62.0335 4.47519 60.8923 5.87193C59.9524 4.93333 59.0151 4.11708 57.9916 3.18213C57.0543 2.36587 56.1092 1.1826 54.9472 1.60064C53.8688 2.01504 52.8973 3.52683 51.999 4.54562C51.5081 5.05683 51.0171 5.56805 50.6097 6.07562C50.1188 6.58684 49.7846 6.60142 49.1919 6.25993C47.2441 5.12041 45.6907 2.86163 43.5105 2.5894C41.2466 2.32081 39.7059 4.59213 37.9876 6.38139C37.4157 7.01859 37.4967 6.89261 36.8988 6.30644C36.387 5.83897 35.9589 5.36785 35.4471 4.90037C34.4237 3.96543 33.4002 3.03048 32.2226 2.7145C31.0476 2.52086 30.0606 3.29862 28.9899 4.08003C28.4128 4.47256 27.8358 4.86509 27.2587 5.25761C26.6816 5.65014 25.7807 6.54659 25.0313 6.70174C24.0286 6.74548 22.7467 5.45446 21.8929 4.63456C20.953 3.69596 20.1698 2.26073 18.9922 1.94475C17.8982 1.62513 16.825 2.2842 16.0102 3.29935C15.1119 4.31814 14.3101 5.94497 13.1299 5.50666C11.9524 5.19068 11.0046 3.88508 9.98378 3.07246C8.87675 2.14116 7.69137 1.45818 6.34928 1.27183C3.91577 0.888194 1.43769 2.34326 0.168383 5.58233C-0.622981 7.69851 1.58846 9.43878 2.37983 7.3226C3.48982 4.45783 5.91294 4.35211 7.77976 5.61762C9.64658 6.88313 11.2026 9.26424 13.3776 9.2918C14.3829 9.37039 15.289 8.71861 16.109 7.94814C16.7618 7.18496 17.89 5.17654 18.7412 5.87411C19.5897 6.44934 20.3703 7.76223 21.2241 8.58213C22.1614 9.39839 23.2658 10.2074 24.2737 10.4083C25.3651 10.6056 26.2712 9.95379 27.2609 9.29837C28.4986 8.50967 29.7286 7.35396 30.9689 6.6876C32.0447 6.15086 33.076 7.45282 33.9272 8.15038C34.7809 8.97029 35.7312 10.3982 36.8227 10.5955C38.7574 11.1234 40.2722 7.62867 41.839 6.58072C43.6538 5.39949 45.4605 7.76967 46.9905 8.92742C47.9278 9.74368 49.0296 10.4303 50.1106 10.1382C51.2752 9.84254 52.2493 8.4531 53.1476 7.43431C53.6385 6.92309 54.3671 5.78925 54.9468 5.51906C55.0304 5.51542 55.1897 5.14111 55.1897 5.14111C55.3568 5.13382 55.9573 5.84233 56.127 5.95737C57.3228 7.1297 58.6021 8.29839 59.7979 9.47072C59.7979 9.47072 59.8815 9.46708 59.8841 9.58941C60.3122 10.0605 60.9833 10.1537 61.469 9.39782C62.2028 8.50865 62.8531 7.62313 63.5869 6.73397C63.9107 6.23004 64.3207 5.84481 64.6445 5.34088C64.89 5.08527 65.3731 4.20704 65.7047 4.07012C66.3706 3.91863 67.5768 5.5803 68.0885 6.04778C68.8561 6.74899 69.5401 7.45385 70.3077 8.15506C71.5035 9.32739 72.963 11.1005 74.2635 9.32943C74.9137 8.44392 75.389 7.19868 75.8696 6.19811C76.1908 5.57185 76.593 4.8196 76.9142 4.19334C79.0499 6.30427 81.2639 8.16687 83.6347 9.53284C85.0733 10.3272 85.8829 9.06741 86.857 7.67797C87.3427 6.92207 87.8233 5.92151 88.3978 5.40665C88.8887 4.89543 88.5597 5.15468 88.9852 5.50347C89.2411 5.7372 89.5883 6.3343 89.8468 6.69038C90.4499 7.52122 90.9694 8.3557 91.5699 9.0642C92.0007 9.65766 92.5202 10.4921 93.1129 10.8336C94.4654 11.5093 95.2672 9.8825 96.1629 8.74138C96.7322 7.98184 97.3015 7.2223 97.9543 6.45912C97.9543 6.45912 98.4453 5.9479 98.6907 5.69229C98.7769 5.81099 98.863 5.92968 98.9492 6.04837C100.153 7.58771 101.437 9.00107 102.641 10.5404C104.095 12.0688 105.795 9.4232 104.592 7.88386Z" fill="#59C69F"/>
</svg>
