<svg width="135" height="13" viewBox="0 0 135 13" fill="none" xmlns="http://www.w3.org/2000/svg">
<path d="M134.475 9.31728C132.927 7.49806 131.276 5.82773 129.728 4.00851C128.184 2.33386 127.09 1.50947 125.3 3.17308C123.827 4.53461 122.04 6.3428 120.902 8.26972C120.795 8.27403 120.791 8.12945 120.684 8.13376C120.456 7.56406 119.909 7.15186 119.576 6.73105C118.801 5.74915 118.133 4.76294 117.361 3.92562C116.142 2.38263 114.823 1.13311 113.128 2.2141C111.429 3.1505 110.408 5.50686 109.048 7.15324C108.944 7.30213 108.84 7.45101 108.736 7.5999C109.052 7.29782 108.937 7.01297 108.508 7.0302C108.175 6.60938 107.635 6.48634 107.198 6.21442C106.433 5.66626 105.668 5.11809 104.902 4.56993C103.153 3.33765 101.505 1.81189 99.857 0.286136C99.3065 -0.270642 98.3463 0.0572899 97.93 0.652841C97.2081 1.98421 96.4828 3.17101 95.7609 4.50238C95.3479 5.24251 94.9349 5.98264 94.5219 6.72277C94.4178 6.87166 94.3137 7.02055 94.213 7.31401C94.1089 7.4629 94.1089 7.4629 94.1089 7.4629C93.1286 6.92336 92.2425 5.80118 91.363 4.96817C90.3761 4.13946 89.3858 3.16618 88.2915 2.34178C86.4251 0.680066 84.5787 -0.114175 82.5844 1.99179C81.1171 3.64248 79.7573 5.28886 78.2901 6.93955C77.0816 5.8303 75.8765 4.86563 74.5606 3.76069C73.3555 2.79603 72.1404 1.39762 70.6464 1.89167C69.2598 2.38141 68.0108 4.16807 66.8558 5.37209C66.2246 5.97626 65.5934 6.58042 65.0697 7.18028C64.4385 7.78445 64.0087 7.80168 63.2467 7.3981C60.7424 6.05139 58.7452 3.38192 55.942 3.06019C53.0314 2.74277 51.0504 5.42706 48.8412 7.54164C48.1059 8.2947 48.21 8.14581 47.4413 7.45307C46.7833 6.9006 46.2328 6.34382 45.5749 5.79135C44.259 4.68641 42.9431 3.58147 41.4291 3.20805C39.9184 2.9792 38.6493 3.89837 37.2728 4.82186C36.5308 5.28575 35.7888 5.74965 35.0469 6.21354C34.3049 6.67744 33.1466 7.73688 32.183 7.92024C30.8939 7.97193 29.2457 6.44618 28.148 5.4772C26.9396 4.36795 25.9326 2.67177 24.4186 2.29835C23.0119 1.92061 21.6321 2.69951 20.5845 3.89923C19.4296 5.10326 18.3987 7.02587 16.8813 6.50787C15.3673 6.13444 14.1488 4.59145 12.8363 3.63109C11.413 2.53046 9.88891 1.7233 8.16336 1.50307C5.03455 1.04968 1.84845 2.7693 0.216493 6.5973C-0.800976 9.09823 2.04231 11.1549 3.05978 8.65398C4.48691 5.26834 7.60235 5.14341 10.0025 6.63901C12.4028 8.1346 14.4033 10.9486 17.1998 10.9812C18.4923 11.0741 19.6573 10.3038 20.7115 9.39326C21.5509 8.49131 23.0014 6.11773 24.0958 6.94213C25.1868 7.62194 26.1904 9.17354 27.2881 10.1425C28.4932 11.1072 29.9132 12.0632 31.209 12.3007C32.6123 12.5339 33.7773 11.7636 35.0497 10.989C36.6411 10.0569 38.2225 8.69104 39.8172 7.90352C41.2004 7.2692 42.5263 8.80788 43.6206 9.63227C44.7183 10.6012 45.9402 12.2888 47.3434 12.522C49.831 13.1458 51.7786 9.0157 53.793 7.77721C56.1263 6.38122 58.4492 9.18234 60.4163 10.5506C61.6214 11.5153 63.0381 12.3267 64.428 11.9816C65.9253 11.6321 67.1777 9.99002 68.3326 8.786C68.9638 8.18183 69.9006 6.84184 70.6459 6.52253C70.7534 6.51822 70.9582 6.07586 70.9582 6.07586C71.173 6.06725 71.9451 6.90457 72.1633 7.04053C73.7007 8.42601 75.3456 9.80719 76.883 11.1927C76.883 11.1927 76.9904 11.1884 76.9938 11.3329C77.5443 11.8897 78.4071 11.9998 79.0316 11.1065C79.9751 10.0557 80.8111 9.00916 81.7546 7.95833C82.1709 7.36278 82.698 6.9075 83.1144 6.31195C83.43 6.00986 84.0511 4.97196 84.4775 4.81015C85.3336 4.6311 86.8844 6.5949 87.5424 7.14737C88.5293 7.97608 89.4087 8.80909 90.3957 9.6378C91.9331 11.0233 93.8095 13.1187 95.4816 11.0257C96.3176 9.97917 96.9288 8.50753 97.5466 7.32504C97.9596 6.58491 98.4767 5.69589 98.8897 4.95576C101.636 7.45049 104.482 9.65176 107.53 11.2661C109.38 12.2049 110.421 10.716 111.673 9.07396C112.298 8.18063 112.916 6.99815 113.654 6.38967C114.285 5.78551 113.862 6.0919 114.41 6.5041C114.739 6.78033 115.185 7.486 115.517 7.90681C116.293 8.88871 116.961 9.87492 117.733 10.7122C118.287 11.4136 118.955 12.3998 119.717 12.8034C121.456 13.6019 122.486 11.6793 123.638 10.3307C124.37 9.43308 125.102 8.53545 125.941 7.63351C125.941 7.63351 126.572 7.02934 126.888 6.72726C126.999 6.86753 127.11 7.0078 127.22 7.14807C128.768 8.96729 130.419 10.6376 131.967 12.4568C133.837 14.2631 136.022 11.1365 134.475 9.31728Z" fill="#F7C300"/>
</svg>
