<svg width="33" height="64" viewBox="0 0 33 64" fill="none" xmlns="http://www.w3.org/2000/svg">
<path d="M29.6112 29.1682C29.5044 26.8176 29.5044 24.5738 29.3975 22.2232C29.2907 20.5137 29.2907 18.5905 28.2222 17.2015C27.688 16.5604 27.0469 16.3467 26.4058 15.8125C25.7648 15.2782 25.6579 14.2098 25.1237 13.4619C24.6963 12.8208 24.0552 12.2866 23.6278 11.6455C23.0936 10.6839 23.2005 9.50856 23.0936 8.4401C22.8799 6.73056 22.3457 5.02103 21.4909 3.52518C20.743 2.24303 19.5677 0.640344 18.1787 0.106114C16.6829 -0.428116 14.9733 1.17457 14.1185 2.24303C13.0501 3.63203 12.409 5.23472 12.3022 6.94426C12.1953 8.86748 12.8364 11.2181 11.8748 13.0345C11.4474 13.8892 10.5926 14.1029 9.84471 14.6372C9.31048 15.0645 8.98994 15.5988 8.77625 16.2399C8.56256 16.8809 8.45571 17.522 8.24202 18.0562C7.92148 19.0178 7.60094 18.8042 6.74618 19.2315C4.92979 19.9795 5.46402 22.2232 5.57087 23.7191C5.78456 26.1765 5.89141 28.634 6.1051 31.0914C6.21195 32.2668 6.1051 33.5489 6.53248 34.6174C6.85302 35.579 7.60094 36.0064 8.13517 36.7543C8.8831 37.7159 8.6694 39.3186 8.6694 40.4939C8.77625 41.776 8.77625 43.165 8.77625 44.4472C8.8831 48.2936 8.8831 52.0333 8.6694 55.8797C8.6694 56.0934 8.6694 56.2002 8.6694 56.4139C8.6694 57.4824 8.56256 58.6577 8.8831 59.7262C9.09679 60.5809 9.73786 60.7946 10.5926 60.9015C11.3406 61.0083 12.1953 60.9015 12.9432 60.7946C14.0117 60.6878 14.9733 60.7946 16.0418 60.7946C18.4992 60.7946 20.9567 60.9015 23.4141 60.7946C24.3758 60.7946 25.4442 60.5809 26.0853 59.833C26.4058 59.5125 26.5127 58.9782 26.5127 58.5509C26.5127 58.5509 26.5127 58.5509 26.5127 58.444C26.5127 57.9098 26.5127 57.3755 26.5127 56.8413C26.5127 51.8196 26.6195 46.9046 26.6195 41.8829C26.6195 41.3487 26.6195 40.8144 26.6195 40.387C26.6195 40.2802 26.6195 40.1733 26.6195 40.0665C26.6195 40.0665 26.6195 40.0665 26.6195 39.9597C26.6195 39.8528 26.6195 39.746 26.7264 39.6391C26.7264 39.6391 26.8332 39.4254 26.8332 39.3186C26.8332 39.3186 26.7264 39.4254 26.8332 39.3186V39.2117C26.8332 39.2117 26.8332 39.2117 26.8332 39.1049C26.8332 39.1049 26.7264 39.2117 26.8332 39.1049C26.9401 38.998 27.1538 38.7844 27.2606 38.6775C27.3674 38.5707 27.5811 38.357 27.688 38.2501C28.6496 37.5022 29.1838 36.2201 29.3975 35.0447C29.9318 33.0147 29.7181 30.9846 29.6112 29.1682Z" fill="#F7C300"/>
<path d="M32.1754 61.9699C31.8549 61.6494 31.3207 61.6494 30.8933 61.6494C29.0769 61.6494 27.2605 61.6494 25.551 61.6494C25.551 53.8497 26.2989 46.0499 24.8031 38.2501C26.7263 37.9296 27.3674 36.4338 27.3674 34.5105C27.3674 34.4037 27.3674 34.4037 27.3674 34.2968C27.1537 28.8477 26.94 23.2917 26.94 17.7357C26.94 17.4152 26.8331 17.0946 26.6194 16.9878C26.2989 16.4536 25.6578 16.2399 25.0167 16.0262C25.0167 16.0262 25.0167 16.0262 25.0167 15.9193C24.4825 15.1714 24.5894 14.103 24.162 13.2482C23.7346 12.5003 22.8798 11.966 22.0251 11.8592C21.4908 11.7523 20.8498 11.7523 20.3155 11.7523C20.1018 9.72228 20.6361 7.58536 19.7813 5.55528C19.3539 4.59367 18.4991 3.84575 17.7512 3.09783C16.8965 2.24306 16.0417 1.28144 15.2938 0.31983C15.0801 -0.000707623 14.6527 -0.000707604 14.3322 0.106138C14.0116 0.106138 13.6911 0.31983 13.4774 0.640368C12.8363 1.60198 12.3021 2.45675 11.661 3.41836C11.1268 4.27313 10.3788 5.23474 9.95147 6.19636C9.20354 7.15797 9.0967 8.11959 8.98985 9.18805C8.88301 10.0428 8.88301 11.0044 8.88301 11.8592C8.66931 11.8592 8.34878 11.966 8.13509 12.0729C6.3187 12.714 5.67763 14.6372 5.35709 16.4536C5.35709 16.5604 5.35709 16.6673 5.35709 16.7741C4.60917 16.9878 3.96809 17.3083 3.43386 17.9494C2.89963 18.5905 2.79279 19.4453 2.79279 20.3C2.68594 21.3685 2.68594 22.4369 2.79279 23.5054C2.89963 27.7792 3.43386 31.9462 3.00648 36.1132C3.00648 36.4338 3.11332 36.7543 3.32702 36.8611C3.86125 37.9296 4.82286 38.357 5.89132 38.5707C5.99817 46.2636 5.99817 54.0634 6.10501 61.7563C6.10501 61.7563 3.96809 61.7563 3.7544 61.7563C3.22017 61.7563 2.68594 61.7563 2.15171 61.7563C1.51064 61.7563 0.869559 61.6494 0.33533 62.0768C-0.0920543 62.3973 -0.0920543 63.0384 0.228484 63.4658C0.442175 64 1.08325 64 1.61748 64C5.78447 63.8932 9.95147 63.7863 14.1185 63.7863C18.3923 63.7863 22.6661 63.6795 26.94 63.7863C28.1153 63.7863 29.2906 63.7863 30.4659 63.8932C31.2138 63.8932 32.0686 64 32.3891 63.1453C32.6028 62.7179 32.496 62.2905 32.1754 61.9699ZM13.2637 4.37998C13.5842 3.84575 13.9048 3.31152 14.2253 2.77729C14.6527 3.31152 15.1869 3.84575 15.6143 4.37998C16.1485 5.02105 16.8965 5.55528 17.3238 6.19636C15.5075 6.3032 13.5842 6.5169 11.661 6.73059C12.1952 5.87582 12.7295 5.1279 13.2637 4.37998ZM11.1268 9.50858C11.1268 9.29489 11.1268 9.18805 11.1268 8.97435C13.3705 8.65382 15.6143 8.44012 17.7512 8.33328C17.7512 8.65382 17.7512 8.86751 17.7512 9.18805C17.7512 10.0428 17.6444 11.0044 17.7512 11.8592C16.7896 11.8592 15.828 11.8592 14.7595 11.8592H11.2336C11.1268 11.8592 11.0199 11.8592 10.9131 11.8592C11.0199 11.0044 11.1268 10.2565 11.1268 9.50858ZM9.63093 13.9961C11.5542 13.8893 13.4774 13.9961 15.2938 13.9961C17.1101 13.9961 18.9265 13.8893 20.7429 13.9961C21.4908 13.9961 22.0251 14.2098 22.2388 14.9577C22.3456 15.2783 22.4524 15.7056 22.5593 16.0262C21.2771 16.0262 19.995 16.133 18.7128 16.133L7.49401 16.4536C7.7077 15.1714 8.13509 13.9961 9.63093 13.9961ZM23.3072 61.5426C18.2854 61.5426 13.1568 61.5426 8.13509 61.6494C8.13509 58.1235 8.02824 54.5976 8.02824 51.1785C13.1568 50.6443 18.2854 50.5374 23.5209 50.6443C23.5209 54.277 23.3072 57.9098 23.3072 61.5426ZM8.02824 49.0416C8.02824 45.6225 7.92139 42.0966 7.92139 38.6775C8.02824 38.6775 8.24193 38.6775 8.34878 38.6775C11.0199 38.5707 13.7979 38.5707 16.4691 38.4638C18.4991 38.4638 20.5292 38.4638 22.4524 38.357C23.0935 41.6692 23.3072 45.0883 23.4141 48.5074C18.3923 48.4005 13.1568 48.5074 8.02824 49.0416ZM24.0551 36.1132C23.7346 35.8995 23.3072 35.8995 22.8798 36.1132C22.4524 36.1132 22.1319 36.1132 21.7045 36.1132C19.7813 36.1132 17.8581 36.2201 16.0417 36.2201C14.2253 36.2201 12.1952 36.3269 10.3789 36.3269C9.52408 36.3269 8.66932 36.3269 7.7077 36.4338C6.95978 36.4338 5.46394 36.6475 5.1434 35.7927C5.46394 32.3736 5.1434 28.8477 5.03655 25.4286C4.92971 23.7191 4.92971 22.0096 4.92971 20.3C4.92971 19.7658 4.92971 19.1247 5.46394 18.8042C5.99817 18.5905 6.74609 18.5905 7.28032 18.5905C7.49401 18.5905 7.60086 18.5905 7.81455 18.4836C10.5925 18.3768 13.4774 18.3768 16.2554 18.27C17.6444 18.27 19.1402 18.1631 20.5292 18.1631C21.2771 18.1631 21.9182 18.1631 22.6661 18.0563C22.9867 18.0563 23.4141 18.0563 23.7346 18.0563C24.0551 18.0563 24.4825 18.1631 24.5894 17.8426C24.4825 18.1631 24.5894 18.4836 24.6962 18.6973C24.8031 23.8259 24.9099 29.0614 25.1236 34.19C25.1236 34.2968 25.1236 34.2968 25.1236 34.4037C25.1236 35.2585 25.2304 35.8995 24.2688 36.0064C24.162 36.1132 24.162 36.1132 24.0551 36.1132Z" fill="#1E1E1E"/>
<path d="M12.4083 53.9566C12.4083 53.4223 11.8741 52.8881 11.3398 52.995C10.8056 52.995 10.2714 53.4223 10.2714 54.0634C10.2714 54.9182 10.2714 55.7729 10.2714 56.6277C10.2714 57.4825 10.2714 58.2304 10.2714 59.0852C10.3782 59.6194 10.6987 60.1536 11.3398 60.0468C11.8741 60.0468 12.4083 59.6194 12.4083 58.9783C12.3014 58.2304 12.4083 57.3756 12.4083 56.5209C12.4083 55.6661 12.4083 54.8113 12.4083 53.9566Z" fill="#1E1E1E"/>
<path d="M16.4689 53.3154C16.2553 53.1017 15.9347 52.9949 15.721 52.9949C15.08 52.9949 14.7594 53.5291 14.6526 54.0633C14.5457 55.666 14.4389 57.1619 14.5457 58.7646C14.5457 59.2988 15.08 59.833 15.6142 59.833C16.1484 59.833 16.6826 59.2988 16.6826 58.7646C16.5758 57.1619 16.6826 55.666 16.7895 54.0633C16.7895 53.7428 16.6826 53.4223 16.4689 53.3154Z" fill="#1E1E1E"/>
<path d="M19.994 53.2085C19.4598 53.2085 18.9255 53.7427 18.9255 54.277C19.0324 55.7728 19.0324 57.1618 18.9255 58.6576C18.9255 59.1919 19.4598 59.7261 19.994 59.7261C20.6351 59.7261 20.9556 59.1919 21.0625 58.6576C21.1693 57.1618 21.1693 55.7728 21.0625 54.277C21.0625 53.7427 20.5282 53.2085 19.994 53.2085Z" fill="#1E1E1E"/>
<path d="M12.1955 41.0281C12.1955 40.4939 11.6613 39.9596 11.1271 40.0665C10.5928 40.0665 10.0586 40.4939 10.0586 41.1349C10.0586 41.9897 10.0586 42.8445 10.0586 43.6993C10.0586 44.554 10.0586 45.3019 10.0586 46.1567C10.1654 46.6909 10.486 47.2252 11.1271 47.1183C11.6613 47.1183 12.1955 46.6909 12.1955 46.0499C12.0887 45.3019 12.1955 44.4472 12.1955 43.5924C12.1955 42.7376 12.1955 41.8829 12.1955 41.0281Z" fill="#1E1E1E"/>
<path d="M16.1475 40.3869C15.9338 40.1733 15.6133 40.0664 15.3996 40.0664C14.7585 40.0664 14.438 40.6006 14.3312 41.1349C14.2243 42.7376 14.1175 44.2334 14.2243 45.8361C14.2243 46.3703 14.7585 46.9045 15.2928 46.9045C15.827 46.9045 16.3612 46.3703 16.3612 45.8361C16.2544 44.2334 16.3612 42.7376 16.4681 41.1349C16.5749 40.9212 16.3612 40.6006 16.1475 40.3869Z" fill="#1E1E1E"/>
<path d="M19.6747 40.2803C19.1404 40.2803 18.6062 40.8145 18.6062 41.3487C18.713 42.8446 18.713 44.2336 18.6062 45.7294C18.6062 46.2636 19.1404 46.7979 19.6747 46.7979C20.3157 46.7979 20.6363 46.2636 20.7431 45.7294C20.85 44.2336 20.85 42.8446 20.7431 41.3487C20.7431 40.8145 20.3157 40.2803 19.6747 40.2803Z" fill="#1E1E1E"/>
<path d="M19.7821 21.7957C19.3547 21.4752 18.6068 21.7957 18.2863 22.2231C17.9657 22.7573 18.2863 23.2916 18.7136 23.719C20.4232 25.0011 21.1711 27.138 20.53 29.1681C19.7821 31.4119 17.5383 32.5872 15.2946 32.9077C14.1193 33.1214 13.0508 33.1214 12.0892 32.2666C11.2344 31.5187 10.4865 30.6639 9.95228 29.7023C8.88382 27.6723 8.99066 25.5353 10.5934 23.9326C12.0892 22.33 14.333 21.6889 16.363 22.2231C17.6452 22.5437 18.1794 20.5136 16.8973 20.193C14.333 19.552 11.555 20.2999 9.52489 22.0094C7.17428 24.0395 6.5332 27.138 7.81536 29.916C8.45643 31.305 9.41805 32.4803 10.4865 33.5488C11.7687 34.7241 13.0508 35.1515 14.7603 35.0446C17.8589 34.8309 21.0643 33.4419 22.3464 30.4503C23.7354 27.2449 22.5601 23.719 19.7821 21.7957Z" fill="#1E1E1E"/>
<path d="M19.2468 26.0696C18.1784 26.1764 17.1099 26.2833 16.0415 26.497V24.4669C16.0415 23.9327 15.5072 23.3984 14.973 23.3984C14.4388 23.3984 13.9045 23.9327 13.9045 24.4669L14.0114 27.5654C14.0114 27.886 14.2251 28.2065 14.4388 28.4202C14.6525 28.6339 14.8662 28.8476 15.1867 28.7407C16.5757 28.527 17.9647 28.4202 19.2468 28.2065C19.5674 28.2065 19.7811 28.0997 19.9948 27.886C20.2085 27.6723 20.3153 27.3517 20.3153 27.138C20.3153 26.6038 19.7811 26.0696 19.2468 26.0696Z" fill="#1E1E1E"/>
</svg>
