<svg width="62" height="64" viewBox="0 0 62 64" fill="none" xmlns="http://www.w3.org/2000/svg">
<path d="M55.5185 19.3185C50.9306 7.30259 37.9316 -0.234679 26.3526 5.11787C26.0249 5.22711 25.6972 5.44558 25.3694 5.55481C24.9325 5.66405 24.4956 5.77329 24.0586 5.99176C12.2612 11.672 7.34555 26.8558 12.0427 39.5271C17.0675 53.2908 32.4698 54.7109 44.0488 50.5599C49.6198 48.5937 53.5523 45.5351 55.737 39.5271C58.1402 33.0822 57.9217 25.7634 55.5185 19.3185Z" fill="#F7C300"/>
<path d="M55.8473 34.0655C55.8473 33.847 55.8473 33.6285 55.8473 33.41C56.0658 33.5193 56.2842 33.6285 56.3935 33.7377C57.7043 34.2839 59.4521 33.847 60.4352 32.7546C61.4183 31.553 61.746 29.696 60.7629 28.3852C59.7798 26.9651 57.8135 26.419 56.2842 27.2928C56.2842 27.2928 56.2842 27.2928 56.175 27.4021C55.9565 27.5113 55.7381 27.6205 55.5196 27.7298C55.4103 26.7467 55.3011 25.8728 55.0826 24.9989C54.7549 23.7973 54.4272 22.5957 53.881 21.3941C53.7718 21.1756 53.6626 20.8479 53.5533 20.6295C54.8642 21.0664 56.5027 20.6295 57.4858 19.6463C58.4689 18.4447 58.7967 16.5877 57.8135 15.2769C56.8304 13.8568 54.8642 13.3107 53.3349 14.1845C53.3349 14.1845 53.3349 14.1845 53.2256 14.2938C52.8979 14.403 52.461 14.6215 52.1333 14.9492C51.6963 15.2769 51.3686 15.8231 51.2594 16.3693C49.7301 14.0753 47.7638 12.1091 45.4699 10.5798C46.2345 10.3613 46.89 10.0336 47.3269 9.48741C48.31 8.28582 48.6377 6.42881 47.6546 5.11798C46.6715 3.69792 44.7052 3.15174 43.1759 4.02563C43.1759 4.02563 43.1759 4.02563 43.0667 4.13486C42.739 4.2441 42.3021 4.46257 41.9744 4.79028C41.3189 5.33646 40.9912 6.10111 40.882 6.86576C40.7728 7.3027 40.882 7.84888 40.9912 8.17658C40.7728 8.06735 40.5543 7.95811 40.3358 7.84888C38.0419 6.97499 35.6387 6.42881 33.1263 6.21034C33.2355 6.10111 33.3447 5.99187 33.454 5.88263C34.4371 4.68104 34.7648 2.82403 33.7817 1.51321C32.7986 0.093142 30.8323 -0.453037 29.303 0.420849C29.303 0.420849 29.303 0.420849 29.1938 0.530085C28.8661 0.63932 28.4291 0.857792 28.1014 1.1855C27.446 1.73168 27.1183 2.49633 27.0091 3.26098C26.8998 4.46257 27.446 5.55493 28.3199 6.21034C25.6982 6.42881 23.0766 6.97499 20.5642 7.95811C20.7826 7.08423 20.6734 6.10111 20.1272 5.22722C19.1441 3.80716 17.1778 3.26098 15.6485 4.13486C15.6485 4.13486 15.6485 4.13486 15.5393 4.2441C15.2116 4.35333 14.7747 4.57181 14.447 4.89951C13.7915 5.44569 13.4638 6.21034 13.3546 6.97499C13.1361 8.50429 14.2285 9.92436 15.6485 10.5798C15.3208 10.7982 14.8839 11.1259 14.5562 11.3444C13.0269 12.4368 11.7161 13.7476 10.6237 15.1677C10.5145 15.0584 10.5145 14.9492 10.4052 14.84C9.42211 13.4199 7.45587 12.8737 5.92657 13.7476C5.92657 13.7476 5.92657 13.7476 5.81733 13.8568C5.48963 13.9661 5.05268 14.1845 4.72498 14.5123C4.06956 15.0584 3.74185 15.8231 3.63262 16.5877C3.41415 18.2263 4.61574 19.6463 6.0358 20.1925C6.58198 20.411 7.12816 20.411 7.67434 20.411C7.5651 20.7387 7.45587 21.0664 7.34664 21.3941C7.01893 22.268 6.80045 23.1419 6.58198 24.0158C6.25427 25.2174 6.14504 26.4189 6.0358 27.6205C4.94344 26.8559 3.52338 26.7467 2.32179 27.2928C2.32179 27.2928 2.32179 27.2928 2.21255 27.4021C1.88484 27.5113 1.4479 27.7298 1.12019 28.0575C0.46478 28.6037 0.137073 29.3683 0.027837 30.133C-0.190634 31.7715 0.901724 33.1916 2.43102 33.7377C3.52338 34.1747 4.94345 33.9562 5.92657 33.3008C6.14504 36.3594 6.80046 39.0903 8.00205 41.6027C7.34663 41.4935 6.58198 41.6027 6.0358 41.9304C6.0358 41.9304 6.0358 41.9304 5.92657 42.0397C5.59886 42.1489 5.16192 42.3674 4.83421 42.6951C4.1788 43.2412 3.85109 44.0059 3.74185 44.7705C3.52338 46.4091 4.72498 47.8292 6.14504 48.3753C7.45587 48.9215 9.20364 48.4846 10.1868 47.3922C10.5145 47.0645 10.7329 46.5183 10.9514 46.0814C11.2791 46.4091 11.6068 46.846 11.9345 47.1737C12.9177 48.1569 14.01 49.14 15.2116 50.0139C15.1024 50.0139 15.1024 50.0139 14.9931 50.1231C14.9931 50.1231 14.9931 50.1231 14.8839 50.2323C14.5562 50.3416 14.1192 50.56 13.7915 50.8877C13.1361 51.4339 12.8084 52.1986 12.6992 52.9632C12.4807 54.6018 13.6823 56.0218 15.1024 56.568C15.1024 56.568 15.1024 56.568 15.2116 56.568C14.3377 58.2065 13.5731 59.8451 12.6992 61.4836C11.2791 61.4836 9.85906 61.3744 8.43899 61.2651C7.01893 61.1559 7.01893 63.3406 8.43899 63.4499C9.85906 63.5591 11.2791 63.5591 12.6992 63.6683C13.0269 63.8868 13.4638 63.8868 13.7915 63.6683C26.7906 64.1053 39.7896 63.2314 52.7887 63.996C54.2088 64.1053 54.2088 61.9206 52.7887 61.8113C50.8224 61.7021 48.747 61.5929 46.7807 61.5929C46.3438 60.3913 45.9068 59.0804 45.4699 57.8788C46.2345 57.6604 46.89 57.3327 47.4361 56.7865C48.4193 55.5849 48.747 53.7279 47.7638 52.417C47.3269 51.7616 46.7807 51.4339 46.1253 51.1062C47.9823 49.7954 49.6209 48.2661 51.0409 46.4091C51.4779 46.846 52.024 47.283 52.5702 47.5014C53.881 48.0476 55.6288 47.6107 56.6119 46.5183C57.5951 45.3167 57.9228 43.4597 56.9396 42.1489C56.2842 41.275 55.3011 40.7288 54.318 40.6196C54.7549 39.418 55.0826 38.2164 55.3011 37.0148C55.6288 35.8132 55.738 34.9393 55.8473 34.0655ZM56.175 30.2422C56.175 30.133 56.175 30.133 56.175 30.0237L56.2842 29.9145L56.3935 29.8053L56.5027 29.696C56.5027 29.696 56.6119 29.696 56.6119 29.5868C56.6119 29.5868 56.9396 29.4776 56.7212 29.4776C56.5027 29.4776 56.7212 29.4776 56.7212 29.4776C56.8304 29.4776 56.8304 29.4776 56.9396 29.4776C57.0489 29.4776 57.0489 29.4776 57.1581 29.4776C57.3766 29.4776 57.7043 29.3683 57.9228 29.1498C58.032 29.1498 58.1412 29.1498 58.2505 29.2591H58.3597C58.4689 29.2591 58.5782 29.3683 58.5782 29.3683L58.6874 29.4776C58.6874 29.4776 58.6874 29.4776 58.7967 29.5868C58.7967 29.696 58.9059 29.8053 58.9059 29.8053V29.9145V30.0237C58.9059 30.133 58.9059 30.2422 58.9059 30.3514V30.4607C58.9059 30.5699 58.7967 30.6791 58.7967 30.7884C58.7967 30.7884 58.7967 30.8976 58.6874 30.8976L58.5782 31.0068C58.4689 31.1161 58.4689 31.1161 58.3597 31.2253C58.3597 31.2253 58.3597 31.2253 58.2505 31.2253C58.2505 31.2253 58.1412 31.2253 58.1412 31.3346C58.1412 31.3346 58.1412 31.3346 58.032 31.3346C57.9228 31.3346 57.8135 31.4438 57.7043 31.4438H57.5951C57.4858 31.4438 57.3766 31.4438 57.2674 31.4438C57.1581 31.4438 57.1581 31.4438 57.0489 31.4438C56.9396 31.4438 56.8304 31.4438 56.7212 31.3346C56.7212 31.3346 56.7212 31.3346 56.6119 31.3346C56.5027 31.2253 56.5027 31.2253 56.5027 31.3346C56.5027 31.3346 56.5027 31.3346 56.3935 31.3346C56.3935 31.3346 56.2842 31.2253 56.175 31.2253L56.0658 31.1161C56.0658 31.1161 56.0658 31.0068 55.9565 31.0068C55.8473 30.8976 55.8473 30.7884 55.7381 30.6791V30.5699C55.7381 30.4607 55.7381 30.4607 55.7381 30.3514V30.2422C56.175 30.3514 56.175 30.3514 56.175 30.2422ZM5.38039 30.133C5.38039 30.2422 5.38039 30.2422 5.38039 30.133C5.38039 30.3514 5.27115 30.4607 5.27115 30.5699C5.27115 30.5699 5.27115 30.6791 5.16192 30.6791L5.05268 30.7884C4.94345 30.8976 4.94345 30.8976 4.83421 31.0068C4.83421 31.0068 4.83421 31.0068 4.72498 31.0068C4.72498 31.0068 4.61574 31.0069 4.61574 31.1161C4.61574 31.1161 4.61574 31.1161 4.5065 31.1161C4.39727 31.1161 4.28803 31.2253 4.1788 31.2253H4.06956C3.96032 31.2253 3.85109 31.2253 3.74185 31.2253C3.63262 31.2253 3.63262 31.2253 3.52338 31.2253C3.41414 31.2253 3.30491 31.2253 3.19567 31.1161C3.19567 31.1161 3.19568 31.1161 3.08644 31.1161C2.9772 31.0069 2.9772 31.0069 2.9772 31.1161C2.9772 31.1161 2.9772 31.1161 2.86797 31.1161C2.86797 31.1161 2.75873 31.0068 2.6495 31.0068L2.54026 30.8976C2.54026 30.8976 2.54026 30.7884 2.43102 30.7884C2.32179 30.6791 2.32179 30.5699 2.21255 30.4607V30.3514C2.21255 30.2422 2.21255 30.2422 2.21255 30.133V30.0237C2.21255 29.9145 2.21255 29.9145 2.21255 29.8053C2.21255 29.696 2.21255 29.696 2.21255 29.5868L2.32179 29.4776L2.43102 29.3683L2.54026 29.2591C2.54026 29.2591 2.6495 29.2591 2.6495 29.1498C2.6495 29.1498 2.9772 29.0406 2.75873 29.0406C2.54026 29.0406 2.75873 29.0406 2.75873 29.0406C2.86797 29.0406 2.86797 29.0406 2.9772 29.0406C3.08644 29.0406 3.08644 29.0406 3.19567 29.0406C3.41415 29.0406 3.74185 28.9314 3.96033 28.7129C4.06956 28.7129 4.1788 28.7129 4.28803 28.8221H4.39727C4.5065 28.8221 4.61574 28.9314 4.61574 28.9314L4.72498 29.0406C4.72498 29.0406 4.72497 29.0406 4.83421 29.1498C4.83421 29.2591 4.94344 29.3683 4.94344 29.3683V29.4776V29.5868C5.38039 29.9145 5.38039 30.0237 5.38039 30.133ZM53.3349 17.1339C53.3349 17.0247 53.3349 17.0247 53.3349 16.9154L53.4441 16.8062L53.5533 16.697L53.6626 16.5877C53.6626 16.5877 53.7718 16.5877 53.7718 16.4785C53.7718 16.4785 54.0995 16.3693 53.881 16.3693C53.6626 16.3693 53.881 16.3693 53.881 16.3693C53.9903 16.3693 53.9903 16.3693 54.0995 16.3693C54.2088 16.3693 54.2088 16.3693 54.318 16.3693C54.5365 16.3693 54.8642 16.26 55.0826 16.0416C55.1919 16.0416 55.3011 16.0416 55.4103 16.1508H55.5196C55.6288 16.1508 55.7381 16.26 55.7381 16.26L55.8473 16.3693C55.8473 16.3693 55.8473 16.3693 55.9565 16.4785C55.9565 16.5877 56.0658 16.697 56.0658 16.697V16.8062V16.9154C56.0658 17.0247 56.0658 17.1339 56.0658 17.2431V17.3524C56.0658 17.4616 55.9565 17.5709 55.9565 17.6801C55.9565 17.6801 55.9565 17.7893 55.8473 17.7893L55.7381 17.8986C55.6288 18.0078 55.6288 18.0078 55.5196 18.117C55.5196 18.117 55.5196 18.117 55.4103 18.117C55.4103 18.117 55.3011 18.117 55.3011 18.2263C55.3011 18.2263 55.3011 18.2263 55.1919 18.2263C55.0826 18.2263 54.9734 18.3355 54.8642 18.3355H54.7549C54.6457 18.3355 54.5365 18.3355 54.4272 18.3355C54.318 18.3355 54.318 18.3355 54.2087 18.3355C54.0995 18.3355 53.9903 18.3355 53.881 18.2263C53.881 18.2263 53.8811 18.2263 53.7718 18.2263C53.6626 18.117 53.6626 18.117 53.6626 18.2263C53.6626 18.2263 53.6626 18.2263 53.5533 18.2263C53.5533 18.2263 53.4441 18.117 53.3349 18.117L53.2256 18.0078C53.2256 18.0078 53.2256 17.8986 53.1164 17.8986C53.0072 17.7893 53.0072 17.6801 52.8979 17.5709V17.4616C52.8979 17.3524 52.8979 17.3524 52.8979 17.2431V17.1339C53.3349 17.2432 53.3349 17.2432 53.3349 17.1339ZM43.1759 6.86576C43.1759 6.75652 43.1759 6.75652 43.1759 6.64728L43.2852 6.53805L43.3944 6.42881L43.5037 6.31958C43.5037 6.31958 43.6129 6.31958 43.6129 6.21034C43.6129 6.21034 43.9406 6.10111 43.7221 6.10111C43.5037 6.10111 43.7221 6.10111 43.7221 6.10111C43.8314 6.10111 43.8314 6.10111 43.9406 6.10111C44.0498 6.10111 44.0498 6.10111 44.1591 6.10111C44.3775 6.10111 44.7052 5.99187 44.9237 5.7734C45.0329 5.7734 45.1422 5.7734 45.2514 5.88263H45.3607C45.4699 5.88263 45.5791 5.99187 45.5791 5.99187L45.6884 6.10111C45.6884 6.10111 45.6884 6.10111 45.7976 6.21034C45.7976 6.31958 45.9068 6.42881 45.9068 6.42881V6.53805V6.64728C45.9068 6.75652 45.9068 6.86576 45.9068 6.97499V7.08423C45.9068 7.19346 45.7976 7.3027 45.7976 7.41193C45.7976 7.41193 45.7976 7.52117 45.6884 7.52117L45.5791 7.63041C45.4699 7.73964 45.4699 7.73964 45.3607 7.84888C45.3607 7.84888 45.3607 7.84888 45.2514 7.84888C45.2514 7.84888 45.1422 7.84888 45.1422 7.95811C45.1422 7.95811 45.1422 7.95811 45.033 7.95811C44.9237 7.95811 44.8145 8.06735 44.7052 8.06735H44.596C44.4868 8.06735 44.3775 8.06735 44.2683 8.06735C44.1591 8.06735 44.1591 8.06735 44.0498 8.06735C43.9406 8.06735 43.8314 8.06735 43.7221 7.95811C43.7221 7.95811 43.7221 7.95811 43.6129 7.95811C43.5037 7.84888 43.5037 7.84888 43.5037 7.95811C43.5037 7.95811 43.5037 7.95811 43.3944 7.95811C43.3944 7.95811 43.2852 7.84888 43.1759 7.84888L43.0667 7.73964C43.0667 7.73964 43.0667 7.63041 42.9575 7.63041C42.8482 7.52117 42.8482 7.41193 42.739 7.3027V7.19346C42.739 7.08423 42.739 7.08423 42.739 6.97499V6.86576C43.1759 6.97499 43.1759 6.86576 43.1759 6.86576ZM29.4122 3.26098C29.4122 3.15174 29.4122 3.15174 29.4122 3.04251L29.5215 2.93327L29.6307 2.82403L29.74 2.7148C29.74 2.7148 29.8492 2.7148 29.8492 2.60556C29.8492 2.60556 30.1769 2.49633 29.9584 2.49633C29.74 2.49633 29.9584 2.49633 29.9584 2.49633C30.0677 2.49633 30.0677 2.49633 30.1769 2.49633C30.2861 2.49633 30.2861 2.49633 30.3954 2.49633C30.6138 2.49633 30.9415 2.38709 31.16 2.16862C31.2693 2.16862 31.3785 2.16862 31.4877 2.27786H31.597C31.7062 2.27786 31.8154 2.38709 31.8154 2.38709L31.9247 2.49633C31.9247 2.49633 31.9247 2.49633 32.0339 2.60556C32.0339 2.7148 32.1431 2.82403 32.1431 2.82403V2.93327V3.04251C32.1431 3.15174 32.1431 3.26098 32.1431 3.37021V3.47945C32.1431 3.58868 32.0339 3.69792 32.0339 3.80716C32.0339 3.80716 32.0339 3.91639 31.9247 3.91639L31.8154 4.02563C32.0339 4.2441 32.0339 4.35333 31.9247 4.35333C31.9247 4.35333 31.9247 4.35333 31.8154 4.35333C31.8154 4.35333 31.7062 4.35333 31.7062 4.46257C31.7062 4.46257 31.7062 4.46257 31.597 4.46257C31.4877 4.46257 31.3785 4.57181 31.2693 4.57181H31.16C31.0508 4.57181 30.9416 4.57181 30.8323 4.57181C30.7231 4.57181 30.7231 4.57181 30.6138 4.57181C30.5046 4.57181 30.3954 4.57181 30.2861 4.46257C30.2861 4.46257 30.2861 4.46257 30.1769 4.46257C30.0677 4.35333 30.0677 4.35333 30.0677 4.46257C30.0677 4.46257 30.0677 4.46257 29.9584 4.46257C29.9584 4.46257 29.8492 4.35333 29.74 4.35333L29.6307 4.2441C29.6307 4.2441 29.6307 4.13486 29.5215 4.13486C29.4122 4.02563 29.4122 3.91639 29.303 3.80716V3.69792C29.303 3.58869 29.303 3.58868 29.303 3.47945V3.37021C29.4122 3.37021 29.4122 3.26098 29.4122 3.26098ZM15.867 7.41193C15.867 7.3027 15.867 7.3027 15.867 7.19346V7.08423C15.867 6.97499 15.867 6.97499 15.867 6.86576C15.867 6.75652 15.867 6.75652 15.867 6.64728L15.9762 6.53805L16.0855 6.42881L16.1947 6.31958C16.1947 6.31958 16.304 6.31958 16.304 6.21034C16.304 6.21034 16.6317 6.10111 16.4132 6.10111C16.1947 6.10111 16.4132 6.10111 16.4132 6.10111C16.5224 6.10111 16.5224 6.10111 16.6317 6.10111C16.7409 6.10111 16.7409 6.10111 16.8501 6.10111C17.0686 6.10111 17.3963 5.99187 17.6148 5.7734C17.724 5.7734 17.8333 5.7734 17.9425 5.88263H18.0517C18.161 5.88263 18.2702 5.99187 18.2702 5.99187L18.3794 6.10111C18.3794 6.10111 18.3794 6.10111 18.4887 6.21034C18.4887 6.31958 18.5979 6.42881 18.5979 6.42881V6.53805V6.64728C18.5979 6.75652 18.5979 6.86576 18.5979 6.97499V7.08423C18.5979 7.19346 18.4887 7.3027 18.4887 7.41193C18.4887 7.41193 18.4887 7.52117 18.3794 7.52117L18.2702 7.63041C18.161 7.73964 18.161 7.73964 18.0517 7.84888C18.0517 7.84888 18.0517 7.84888 17.9425 7.84888C17.9425 7.84888 17.8333 7.84888 17.8333 7.95811C17.8333 7.95811 17.8333 7.95811 17.724 7.95811C17.6148 7.95811 17.5056 8.06735 17.3963 8.06735H17.2871C17.1778 8.06735 17.0686 8.06735 16.9594 8.06735C16.8501 8.06735 16.8501 8.06735 16.7409 8.06735C16.6317 8.06735 16.5224 8.06735 16.4132 7.95811C16.4132 7.95811 16.4132 7.95811 16.304 7.95811C16.1947 7.84888 16.1947 7.84888 16.1947 7.95811C16.1947 7.95811 16.1947 7.95811 16.0855 7.95811C16.0855 7.95811 15.9763 7.84888 15.867 7.84888L15.7578 7.73964C15.7578 7.73964 15.7578 7.63041 15.6485 7.63041C15.5393 7.52117 15.5393 7.41193 15.4301 7.3027C15.9762 7.52117 15.867 7.52117 15.867 7.41193ZM7.89281 17.7893H7.78357C7.67434 17.7893 7.5651 17.7893 7.45587 17.7893C7.34663 17.7893 7.34663 17.7893 7.23739 17.7893C7.12816 17.7893 7.01893 17.7893 6.90969 17.6801C6.90969 17.6801 6.90969 17.6801 6.80046 17.6801C6.69122 17.5709 6.69121 17.5709 6.69121 17.6801C6.69121 17.6801 6.69122 17.6801 6.58198 17.6801C6.58198 17.6801 6.47275 17.5709 6.36351 17.5709L6.25427 17.4616C6.25427 17.4616 6.25428 17.3524 6.14504 17.3524C6.0358 17.2431 6.0358 17.1339 5.92657 17.0247V16.9154C5.92657 16.8062 5.92657 16.8062 5.92657 16.697V16.5877C5.92657 16.4785 5.92657 16.4785 5.92657 16.3693C5.92657 16.26 5.92657 16.26 5.92657 16.1508L6.0358 16.0416L6.14504 15.9323L6.25427 15.8231C6.25427 15.8231 6.36351 15.8231 6.36351 15.7138C6.36351 15.7138 6.69122 15.6046 6.47275 15.6046C6.25427 15.6046 6.47275 15.6046 6.47275 15.6046C6.58198 15.6046 6.58198 15.6046 6.69121 15.6046C6.80045 15.6046 6.80046 15.6046 6.90969 15.6046C7.12816 15.6046 7.45587 15.4954 7.67434 15.2769C7.78357 15.2769 7.89281 15.2769 8.00205 15.3861H8.11128C8.22052 15.3861 8.32975 15.4954 8.32975 15.4954L8.43899 15.6046C8.43899 15.6046 8.43899 15.6046 8.54823 15.7138C8.54823 15.8231 8.65746 15.9323 8.65746 15.9323V16.0416V16.1508C8.65746 16.26 8.65746 16.3693 8.65746 16.4785V16.5877C8.65746 16.697 8.54823 16.8062 8.54823 16.9154C8.54823 16.9154 8.54823 17.0247 8.43899 17.0247L8.32975 17.1339C8.65746 17.3524 8.65746 17.4616 8.54823 17.4616C8.54823 17.4616 8.54823 17.4616 8.43899 17.4616C8.43899 17.4616 8.32975 17.4616 8.32975 17.5709C8.32975 17.5709 8.32975 17.5709 8.22052 17.5709C8.11128 17.6801 8.00205 17.7893 7.89281 17.7893ZM8.98517 44.7705C8.98517 44.989 8.87593 45.0983 8.87593 45.2075C8.87593 45.2075 8.87593 45.3167 8.76669 45.3167L8.65746 45.426C8.54822 45.5352 8.54823 45.5352 8.43899 45.6444C8.43899 45.6444 8.43899 45.6444 8.32975 45.6444C8.32975 45.6444 8.22052 45.6444 8.22052 45.7537C8.22052 45.7537 8.22052 45.7537 8.11128 45.7537C8.00205 45.7537 7.89281 45.8629 7.78357 45.8629H7.67434C7.5651 45.8629 7.45587 45.8629 7.34664 45.8629C7.2374 45.8629 7.23739 45.8629 7.12816 45.8629C7.01892 45.8629 6.90969 45.8629 6.80046 45.7537C6.80046 45.7537 6.80045 45.7537 6.69121 45.7537C6.58198 45.6444 6.58198 45.6444 6.58198 45.7537C6.58198 45.7537 6.58198 45.7537 6.47275 45.7537C6.47275 45.7537 6.36351 45.6444 6.25427 45.6444L6.14504 45.5352C6.14504 45.5352 6.14504 45.426 6.0358 45.426C5.92657 45.3167 5.92657 45.2075 5.81733 45.0983V44.989C5.81733 44.8798 5.81733 44.8798 5.81733 44.7705V44.6613C5.81733 44.5521 5.81733 44.5521 5.81733 44.4428C5.81733 44.3336 5.81733 44.3336 5.81733 44.2244L5.92657 44.1151L6.0358 44.0059L6.14504 43.8967C6.14504 43.8967 6.25427 43.8967 6.25427 43.7874C6.25427 43.7874 6.58198 43.6782 6.36351 43.6782C6.14504 43.6782 6.36351 43.6782 6.36351 43.6782C6.47275 43.6782 6.47274 43.6782 6.58198 43.6782C6.69122 43.6782 6.69122 43.6782 6.80046 43.6782C7.01893 43.6782 7.34663 43.569 7.5651 43.3505C7.67434 43.3505 7.78358 43.3505 7.89281 43.4597H8.00205C8.11128 43.4597 8.22052 43.569 8.22052 43.569L8.32975 43.6782C8.32975 43.6782 8.32976 43.6782 8.43899 43.7874C8.43899 43.8967 8.54823 44.0059 8.54823 44.0059V44.1151V44.2244C8.98517 44.5521 8.98517 44.6613 8.98517 44.7705ZM15.3208 53.5094C15.2116 53.4002 15.2116 53.2909 15.1024 53.1817V53.0725C15.1024 52.9632 15.1024 52.9632 15.1024 52.854V52.7448C15.1024 52.6355 15.1024 52.6355 15.1024 52.5263C15.1024 52.417 15.1024 52.4171 15.1024 52.3078L15.2116 52.1986L15.3208 52.0893L15.4301 51.9801C15.4301 51.9801 15.5393 51.9801 15.5393 51.8709C15.5393 51.8709 15.867 51.7616 15.6485 51.7616C15.4301 51.7616 15.6485 51.7616 15.6485 51.7616C15.7578 51.7616 15.7578 51.7616 15.867 51.7616C15.9763 51.7616 15.9763 51.7616 16.0855 51.7616C16.304 51.7616 16.6317 51.6524 16.8501 51.4339C16.9594 51.4339 17.0686 51.4339 17.1778 51.5432H17.2871C17.3963 51.5432 17.5056 51.6524 17.5056 51.6524L17.6148 51.7616C17.6148 51.7616 17.6148 51.7616 17.724 51.8709C17.724 51.9801 17.8333 52.0893 17.8333 52.0893V52.1986V52.3078C17.8333 52.4171 17.8333 52.5263 17.8333 52.6355V52.7448C17.8333 52.854 17.724 52.9632 17.724 53.0725C17.724 53.0725 17.724 53.1817 17.6148 53.1817L17.5056 53.2909C17.3963 53.4002 17.3963 53.4002 17.2871 53.5094C17.2871 53.5094 17.2871 53.5094 17.1778 53.5094C17.1778 53.5094 17.0686 53.5094 17.0686 53.6186C17.0686 53.6186 17.0686 53.6186 16.9594 53.6186C16.8501 53.6186 16.7409 53.7279 16.6317 53.7279H16.5224C16.4132 53.7279 16.304 53.7279 16.1947 53.7279C16.0855 53.7279 16.0855 53.7279 15.9762 53.7279C15.867 53.7279 15.7578 53.7279 15.6485 53.6186C15.6485 53.6186 15.6485 53.6186 15.5393 53.6186C15.4301 53.5094 15.4301 53.5094 15.4301 53.6186C15.4301 53.6186 15.4301 53.6186 15.3208 53.6186C15.3208 53.6186 15.2116 53.5094 15.1024 53.5094C15.5393 53.7279 15.5393 53.7279 15.3208 53.5094C15.4301 53.6186 15.4301 53.6186 15.3208 53.5094ZM15.3208 61.0467C16.1947 59.4081 17.0686 57.6604 17.8333 56.0218C18.3794 55.8034 18.9256 55.4757 19.2533 55.0387C19.9087 54.2741 20.2364 53.2909 20.1272 52.3078C20.6734 52.5263 21.2196 52.7448 21.6565 52.9632C20.4549 55.6941 19.2533 58.3158 18.0517 61.0467C17.1778 61.1559 16.1947 61.1559 15.3208 61.0467ZM31.9247 57.6604C31.8154 57.6604 31.8154 57.6604 31.9247 57.6604C31.8154 57.7696 31.8154 57.7696 31.8154 57.7696C31.8154 57.7696 31.7062 57.7696 31.7062 57.8788C31.7062 57.8788 31.7062 57.8788 31.597 57.8788C31.4877 57.8788 31.3785 57.9881 31.2693 57.9881H31.16C31.0508 57.9881 30.9416 57.9881 30.8323 57.9881C30.7231 57.9881 30.7231 57.9881 30.6138 57.9881C30.5046 57.9881 30.3954 57.9881 30.2861 57.8788C30.2861 57.8788 30.2861 57.8788 30.1769 57.8788C30.0677 57.7696 30.0677 57.7696 30.0677 57.8788C30.0677 57.8788 30.0677 57.8788 29.9584 57.8788C29.9584 57.8788 29.8492 57.7696 29.74 57.7696L29.6307 57.6604C29.6307 57.6604 29.6307 57.5511 29.5215 57.5511C29.4122 57.4419 29.4122 57.3327 29.303 57.2234V57.1142C29.303 57.005 29.303 57.0049 29.303 56.8957V56.7865C29.303 56.6772 29.303 56.6772 29.303 56.568C29.303 56.4588 29.303 56.4588 29.303 56.3495L29.4122 56.2403L29.5215 56.1311L29.6307 56.0218C29.6307 56.0218 29.74 56.0218 29.74 55.9126C29.74 55.9126 30.0677 55.8034 29.8492 55.8034C29.6307 55.8034 29.8492 55.8034 29.8492 55.8034C29.9584 55.8034 29.9584 55.8034 30.0677 55.8034C30.1769 55.8034 30.1769 55.8034 30.2861 55.8034C30.5046 55.8034 30.8323 55.6941 31.0508 55.4757C31.16 55.4757 31.2693 55.4757 31.3785 55.5849H31.4877C31.597 55.5849 31.7062 55.6941 31.7062 55.6941L31.8154 55.8034C31.8154 55.8034 31.8154 55.8034 31.9247 55.9126C31.9247 56.0218 32.0339 56.1311 32.0339 56.1311V56.2403V56.3495C32.0339 56.4588 32.0339 56.568 32.0339 56.6772V56.7865C32.0339 56.8957 31.9247 57.005 31.9247 57.1142C31.9247 57.1142 31.9247 57.2234 31.8154 57.2234L31.7062 57.3327C32.0339 57.4419 32.0339 57.5511 31.9247 57.6604ZM26.6814 52.3078C26.0259 52.1986 25.3705 51.9801 24.7151 51.7616C24.9336 51.3247 25.1521 50.8878 25.2613 50.4508C26.5721 50.7785 27.9922 51.1062 29.4122 51.2155C30.1769 51.3247 30.8323 51.3247 31.597 51.3247C33.017 51.3247 34.3279 51.2155 35.6387 50.8877C35.8571 51.4339 35.9664 51.8709 36.1849 52.417C33.2355 53.0725 29.9584 53.0725 26.6814 52.3078ZM22.4212 47.1737C24.4966 43.132 26.4629 38.9811 28.5384 34.9393C28.9753 35.267 29.4122 35.4855 29.8492 35.704C27.8829 39.7457 26.0259 43.7874 24.1689 47.8292C23.5135 47.7199 22.9673 47.3922 22.4212 47.1737ZM23.1858 49.9046C22.9673 50.3416 22.8581 50.7785 22.6396 51.1062C21.9842 50.8877 21.3288 50.56 20.7826 50.3416C21.0011 49.9046 21.2196 49.5769 21.3288 49.14C21.9842 49.3585 22.6396 49.6862 23.1858 49.9046ZM29.74 49.14C28.5384 49.0307 27.3368 48.8123 26.2444 48.5938C27.3368 46.1906 28.4291 43.8967 29.5215 41.6027C29.5215 44.0059 29.6307 46.6276 29.74 49.14ZM31.7062 40.8381C32.7986 43.4597 33.8909 46.1906 34.9833 48.9215C34.0001 49.14 33.017 49.14 31.9247 49.14C31.8154 46.4091 31.7062 43.6782 31.7062 40.8381ZM32.0339 36.0317C32.4708 36.0317 33.017 35.9225 33.454 35.8132C33.5632 35.8132 33.7817 35.704 33.8909 35.704C36.0756 39.5272 38.0419 43.569 39.6804 47.6107C38.9158 47.9384 38.0419 48.2661 37.168 48.4846C35.5294 44.2244 33.7817 40.0734 32.0339 36.0317ZM40.445 49.5769C40.6635 50.1231 40.882 50.56 41.1005 51.1062C40.2266 51.4339 39.3527 51.7616 38.4788 51.9801C38.2603 51.4339 38.1511 50.997 37.9326 50.4508C38.8065 50.2323 39.6804 49.9046 40.445 49.5769ZM35.7479 34.7209C36.1849 35.0486 36.731 35.3763 37.168 35.5947C38.2603 36.1409 39.3527 36.6871 40.445 37.3425C42.6298 38.5441 44.596 39.9642 46.453 41.6027C46.5623 41.7119 46.6715 41.8212 46.7807 41.8212C45.3607 43.7874 43.5037 45.426 41.4282 46.6276C39.8989 42.4766 38.0419 38.5441 35.7479 34.7209ZM42.1928 35.704C41.2097 35.0486 40.1173 34.5024 39.025 33.9562C38.1511 33.5193 37.0587 33.1916 36.5126 32.4269C36.4033 32.2084 36.1849 32.0992 35.9664 31.99C35.9664 31.8807 35.9664 31.7715 35.9664 31.7715C40.6635 31.7715 45.3607 31.8807 50.0578 31.8807C50.0578 32.2084 50.0578 32.6454 50.0578 32.9731C49.9486 34.9393 49.5116 36.9056 48.6377 38.6534C48.4193 39.0903 48.2008 39.5272 47.9823 39.9642C46.2345 38.4349 44.2683 37.0148 42.1928 35.704ZM35.8572 29.5868C35.7479 29.1498 35.6387 28.8221 35.4202 28.3852C35.311 28.1667 35.0925 27.839 34.9833 27.6205C35.8572 25.6543 37.9326 24.2342 39.3527 22.5957C40.9912 20.7387 42.3021 18.4447 44.2683 16.9154C45.5791 18.2263 46.6715 19.7556 47.5454 21.3941C48.0915 22.268 48.4193 23.1419 48.747 24.0158C49.0747 24.8897 49.2931 25.8728 49.5116 26.8559V26.9651C49.7301 27.6205 49.8393 28.3852 49.9486 29.0406C49.9486 29.2591 49.9486 29.4776 50.0578 29.696C45.3607 29.696 40.5543 29.5868 35.8572 29.5868ZM37.6049 21.1756C36.1849 22.8142 34.3279 24.2342 33.2355 26.0912C32.9078 25.982 32.5801 25.7635 32.2524 25.7635C32.4708 21.0664 32.6893 16.4785 32.9078 11.7814C34.0001 11.8906 35.0925 11.9998 36.0756 12.3275C38.4788 12.983 40.6635 13.9661 42.5205 15.4954C40.6635 17.1339 39.2435 19.2094 37.6049 21.1756ZM32.3616 28.1667C32.9078 28.3852 33.454 28.9314 33.6724 29.8053C34.0001 30.6791 34.0001 31.6623 33.8909 32.5361C33.7817 33.1916 33.454 33.6285 32.7986 33.847C32.0339 34.0654 31.2693 34.0654 30.6138 33.7377C29.4122 33.1916 29.0845 31.8807 29.0845 30.6791C29.0845 30.133 29.1938 29.696 29.4122 29.2591C29.9584 28.1667 31.3785 27.7298 32.3616 28.1667ZM30.0677 26.0912C29.74 26.2005 29.5215 26.3097 29.1938 26.419C26.0259 22.5957 22.8581 18.7724 19.3626 15.1677C22.6396 12.983 26.6814 11.7814 30.6138 11.7814C30.5046 16.4785 30.2861 21.2849 30.0677 26.0912ZM27.5552 27.7298C27.446 27.9482 27.2275 28.1667 27.2275 28.3852C27.1183 28.6037 27.1183 28.8221 27.0091 29.0406C21.9842 29.2591 16.8501 29.3683 11.8253 29.3683C11.8253 28.7129 11.8253 27.9482 11.9345 27.2928C12.0438 26.5282 12.153 25.8728 12.2622 25.2174C12.9177 22.0495 14.447 19.3186 16.7409 17.1339C17.0686 16.8062 17.3963 16.5877 17.724 16.26C21.1103 20.0833 24.3874 23.9065 27.5552 27.7298ZM26.8998 31.3346C26.8998 31.7715 27.0091 32.3177 27.1183 32.7546C23.0766 35.4855 18.7071 37.8887 14.2285 39.9642C13.2454 38.2164 12.5899 36.1409 12.2622 33.847C12.153 33.0823 12.0438 32.4269 12.0438 31.6623C16.8501 31.7715 21.875 31.553 26.8998 31.3346ZM25.2613 36.4686C23.6228 39.7457 21.9842 42.9135 20.3457 46.1906C19.4718 45.7537 18.7071 45.2075 17.9425 44.5521C16.9594 43.7874 16.0855 42.8043 15.3208 41.8212C18.8164 40.2919 22.0935 38.4349 25.2613 36.4686ZM20.5642 61.1559C21.6565 58.6435 22.7489 56.2403 23.8412 53.8371C24.6059 54.0556 25.3705 54.2741 26.2444 54.4925C26.7906 54.6018 27.3368 54.711 27.8829 54.8202C27.5552 55.2572 27.446 55.8034 27.3368 56.3495C27.1183 57.9881 28.3199 59.4081 29.74 59.9543C31.0508 60.5005 32.7986 60.0635 33.7817 58.9712C34.6556 57.8788 34.9833 56.3495 34.3279 55.0387C35.311 54.9295 36.1849 54.8202 37.168 54.6018C37.9326 56.7865 38.6973 58.862 39.3527 61.0467C33.017 61.0467 26.7906 61.2651 20.5642 61.1559ZM41.4282 61.0467C41.4282 60.9374 41.4282 60.9374 41.4282 60.8282C40.6635 58.5343 40.0081 56.3495 39.1342 54.0556C39.7896 53.8371 40.5543 53.6186 41.2097 53.4002C41.2097 53.5094 41.2097 53.5094 41.2097 53.6186C40.9912 55.1479 41.9743 56.4588 43.2852 57.1142C43.7221 58.425 44.1591 59.7358 44.7052 61.0467C43.6129 61.1559 42.5205 61.0467 41.4282 61.0467ZM46.3438 53.7279C46.3438 53.8371 46.3438 53.9464 46.3438 54.0556V54.1648C46.3438 54.2741 46.2345 54.3833 46.2345 54.4925C46.2345 54.4925 46.2345 54.6018 46.1253 54.6018L46.0161 54.711C45.9068 54.8202 45.9068 54.8202 45.7976 54.9295C45.7976 54.9295 45.7976 54.9295 45.6884 54.9295C45.6884 54.9295 45.5791 54.9295 45.5791 55.0387C45.5791 55.0387 45.5791 55.0387 45.4699 55.0387C45.3607 55.0387 45.2514 55.1479 45.1422 55.1479H45.033C44.9237 55.1479 44.8145 55.1479 44.7052 55.1479C44.596 55.1479 44.596 55.1479 44.4868 55.1479C44.3775 55.1479 44.2683 55.1479 44.1591 55.0387C44.1591 55.0387 44.1591 55.0387 44.0498 55.0387C43.9406 54.9295 43.9406 54.9295 43.9406 55.0387C43.9406 55.0387 43.9406 55.0387 43.8314 55.0387C43.8314 55.0387 43.7221 54.9295 43.6129 54.9295L43.5037 54.8202C43.5037 54.8202 43.5037 54.711 43.3944 54.711C43.6129 54.711 43.6129 54.6018 43.5037 54.4925V54.3833C43.5037 54.2741 43.5037 54.2741 43.5037 54.1648V54.0556C43.5037 53.9464 43.5037 53.9464 43.5037 53.8371C43.5037 53.7279 43.5037 53.7279 43.5037 53.6186L43.6129 53.5094L43.7221 53.4002L43.8314 53.2909C43.8314 53.2909 43.9406 53.2909 43.9406 53.1817C43.9406 53.1817 44.2683 53.0725 44.0498 53.0725C43.8314 53.0725 44.0498 53.0725 44.0498 53.0725C44.1591 53.0725 44.1591 53.0725 44.2683 53.0725C44.3775 53.0725 44.3775 53.0725 44.4868 53.0725C44.7052 53.0725 45.033 52.9632 45.2514 52.7448C45.3607 52.7448 45.4699 52.7448 45.5791 52.854H45.6884C45.7976 52.854 45.9068 52.9632 45.9068 52.9632L46.0161 53.0725C46.0161 53.0725 46.0161 53.0725 46.1253 53.1817C46.1253 53.2909 46.2345 53.4002 46.2345 53.4002V53.5094C46.3438 53.6186 46.3438 53.6186 46.3438 53.7279ZM51.4779 41.3842C50.8224 41.9304 50.4947 42.6951 50.3855 43.4597C48.5285 46.2999 46.0161 48.5938 43.0667 50.1231C42.8482 49.5769 42.6298 49.0307 42.4113 48.5938C46.1253 46.5183 49.0747 43.4597 50.8224 39.5272C51.6963 37.561 52.2425 35.3763 52.3517 33.0823C52.3517 32.3177 52.3517 31.6623 52.3517 30.8976C52.3517 30.133 52.2425 29.4775 52.1333 28.7129C52.024 27.9482 51.8056 27.1836 51.6963 26.5282C51.4779 25.4358 51.2594 24.3435 50.8224 23.3603C50.4947 22.3772 49.9486 21.3941 49.5116 20.5202C46.89 15.3861 42.4113 11.7814 36.731 10.3613C35.311 10.0336 33.8909 9.81512 32.4709 9.70588C32.1431 9.59665 31.8154 9.59665 31.4877 9.70588C26.6814 9.59665 21.6565 11.0167 17.8333 13.7476C16.8501 14.403 15.9763 15.0584 15.2116 15.8231C12.5899 18.3355 10.9514 21.3941 10.0775 24.9989C9.96829 25.7635 9.74982 26.5282 9.74982 27.2928C9.64058 28.3852 9.64058 29.3683 9.64058 30.4607C9.64058 30.6791 9.64058 30.7884 9.64058 31.0068C9.64058 32.0992 9.74981 33.1916 9.96829 34.2839C10.8422 39.418 13.1361 43.569 16.6317 46.2999C17.5056 46.9553 18.4887 47.6107 19.4718 48.1569C19.2533 48.4846 19.1441 48.9215 18.9256 49.2492C16.9594 48.1569 15.1024 46.7368 13.5731 45.2075C10.296 41.9304 8.43899 37.2333 8.22052 31.6623C8.11128 29.0406 8.32975 26.419 8.87593 24.0158C9.0944 23.1419 9.31288 22.3772 9.53135 21.6126C10.8422 18.0078 13.0269 14.9492 15.9762 12.7645C16.8501 12.1091 17.9425 11.4537 19.0349 10.9075C22.5304 9.05047 26.5721 8.17658 30.6138 8.17658C33.6724 8.17658 36.8403 8.72276 39.6804 9.81512C45.4699 12.1091 49.7301 16.4785 51.8056 22.268C52.2425 23.3603 52.5702 24.4527 52.8979 25.5451C53.1164 26.6374 53.3349 27.839 53.3349 29.0406V29.1498C53.4441 30.0237 53.5533 30.8976 53.5533 31.6623C53.5533 32.4269 53.5533 33.3008 53.5533 34.0655C53.4441 34.8301 53.4441 35.5947 53.2256 36.3594C52.8979 38.1072 52.3517 39.7457 51.5871 41.275C51.6963 41.275 51.5871 41.275 51.4779 41.3842ZM54.6457 42.4766H54.7549C54.8642 42.4766 54.9734 42.5858 54.9734 42.5858L55.0826 42.6951C55.0826 42.6951 55.0826 42.6951 55.1919 42.8043C55.1919 42.9135 55.3011 43.0228 55.3011 43.0228V43.132V43.2412C55.3011 43.3505 55.3011 43.4597 55.3011 43.569V43.6782C55.3011 43.7874 55.1919 43.8967 55.1919 44.0059C55.1919 44.0059 55.1919 44.1151 55.0826 44.1151L54.9734 44.2244C54.8642 44.3336 54.8642 44.3336 54.7549 44.4428C54.7549 44.4428 54.7549 44.4428 54.6457 44.4428C54.6457 44.4428 54.5365 44.4428 54.5365 44.5521C54.5365 44.5521 54.5365 44.5521 54.4272 44.5521C54.318 44.5521 54.2088 44.6613 54.0995 44.6613H53.9903C53.881 44.6613 53.7718 44.6613 53.6626 44.6613C53.5533 44.6613 53.5533 44.6613 53.4441 44.6613C53.3349 44.6613 53.2256 44.6613 53.1164 44.5521C53.1164 44.5521 53.1164 44.5521 53.0072 44.5521C52.8979 44.4428 52.8979 44.4428 52.8979 44.5521C52.8979 44.5521 52.8979 44.5521 52.7887 44.5521C52.7887 44.5521 52.6794 44.4428 52.5702 44.4428L52.461 44.3336C52.461 44.3336 52.461 44.2244 52.3517 44.2244C52.2425 44.1151 52.2425 44.0059 52.1333 43.8967V43.7874C52.1333 43.6782 52.2425 43.6782 52.2425 43.569C52.461 43.2413 52.6795 42.8043 52.8979 42.3674C52.8979 42.3674 52.8979 42.3674 53.0072 42.3674C53.1164 42.3674 53.1164 42.3674 53.2256 42.3674C53.4441 42.3674 53.7718 42.2581 53.9903 42.0397C54.5365 42.4766 54.6457 42.4766 54.6457 42.4766C54.7549 42.5858 54.7549 42.5858 54.6457 42.4766C54.6457 42.5858 54.6457 42.4766 54.6457 42.4766Z" fill="#1E1E1E"/>
<path d="M33.1262 31.0067C33.1262 30.8975 33.1262 30.7883 33.0169 30.679C33.0169 30.5698 32.9077 30.4606 32.9077 30.3513V30.2421C32.7985 30.1328 32.7985 30.0236 32.6892 30.0236C32.58 29.9144 32.4708 29.9144 32.3615 29.8051C32.2523 29.8051 32.2523 29.6959 32.143 29.6959C32.0338 29.6959 32.0338 29.5867 31.9246 29.5867C31.8153 29.5867 31.7061 29.5867 31.5969 29.5867H31.4876C31.3784 29.5867 31.2692 29.5867 31.1599 29.6959C31.0507 29.6959 30.9415 29.8051 30.8322 29.8051C30.723 29.9144 30.6137 29.9144 30.6137 30.0236C30.5045 30.1328 30.5045 30.2421 30.3953 30.2421C30.3953 30.3513 30.286 30.3513 30.286 30.4606C30.286 30.5698 30.1768 30.5698 30.1768 30.679C30.1768 30.7883 30.1768 30.8975 30.0676 31.116V31.2252C30.0676 31.2252 30.0676 31.2252 30.0676 31.3344C30.0676 31.4437 30.0676 31.5529 30.0676 31.6621C30.0676 31.6621 30.0676 31.6621 30.0676 31.7714C30.0676 31.8806 30.1768 31.9899 30.1768 32.0991C30.1768 32.2083 30.286 32.2083 30.286 32.3176C30.286 32.4268 30.3953 32.4268 30.3953 32.536C30.5045 32.6453 30.6137 32.6453 30.6137 32.7545C30.723 32.7545 30.8322 32.8637 30.9415 32.8637C31.0507 32.8637 31.1599 32.8637 31.2692 32.8637C31.3784 32.8637 31.4876 32.8637 31.5969 32.8637C31.5969 32.8637 31.5969 32.8637 31.7061 32.8637C31.8153 32.8637 31.8153 32.7545 31.9246 32.7545C32.0338 32.7545 32.0338 32.6453 32.143 32.6453C32.2523 32.6453 32.2523 32.536 32.3615 32.4268C32.58 32.2083 32.6892 32.0991 32.6892 31.7714V31.6621C32.6892 31.5529 32.6892 31.4437 32.6892 31.3344C33.1262 31.116 33.1262 31.116 33.1262 31.0067Z" fill="#1E1E1E"/>
<path d="M58.6881 31.4438C58.6881 31.4438 58.5788 31.5531 58.6881 31.4438C58.5788 31.5531 58.6881 31.5531 58.6881 31.4438Z" fill="#1E1E1E"/>
<path d="M56.7215 31.4438C56.7215 31.5531 56.8307 31.5531 56.7215 31.4438C56.8307 31.5531 56.7215 31.4438 56.7215 31.4438Z" fill="#1E1E1E"/>
<path d="M46.1252 53.1818C46.1252 53.0725 46.1252 53.0725 46.1252 53.1818C46.016 53.0725 46.016 53.0725 46.1252 53.1818Z" fill="#1E1E1E"/>
<path d="M56.0652 16.4785C55.956 16.4785 55.956 16.3692 56.0652 16.4785C55.956 16.3692 55.956 16.4785 56.0652 16.4785Z" fill="#1E1E1E"/>
<path d="M45.9076 6.21034C45.9076 6.10111 45.9076 6.10111 45.9076 6.21034C45.7984 6.10111 45.7984 6.10111 45.9076 6.21034Z" fill="#1E1E1E"/>
<path d="M31.9253 4.46261C31.9253 4.46261 31.9253 4.35338 31.9253 4.46261C31.9253 4.46261 31.8161 4.46261 31.9253 4.46261C31.8161 4.46261 31.9253 4.46261 31.9253 4.46261Z" fill="#1E1E1E"/>
<path d="M8.54843 17.4617C8.54843 17.4617 8.43919 17.5709 8.54843 17.4617C8.43919 17.5709 8.54843 17.4617 8.54843 17.4617Z" fill="#1E1E1E"/>
<path d="M6.58191 17.4617C6.69114 17.4617 6.69114 17.5709 6.58191 17.4617C6.69114 17.4617 6.69114 17.4617 6.58191 17.4617Z" fill="#1E1E1E"/>
<path d="M5.16182 29.2592C5.16182 29.1499 5.05259 29.1499 5.16182 29.2592C5.05259 29.1499 5.05259 29.1499 5.16182 29.2592Z" fill="#1E1E1E"/>
<path d="M17.8327 51.9801C17.7235 51.8709 17.7235 51.8709 17.8327 51.9801C17.7235 51.8709 17.7235 51.8709 17.8327 51.9801Z" fill="#1E1E1E"/>
</svg>
