<svg width="52" height="64" viewBox="0 0 52 64" fill="none" xmlns="http://www.w3.org/2000/svg">
<path d="M40.3321 55.4858C40.1137 55.0492 39.6771 54.6125 39.3497 54.2851C39.2405 52.2111 39.568 50.1371 39.6771 48.0631C39.6771 45.7709 39.6771 43.4786 39.6771 41.1863C39.568 36.4925 39.1313 31.908 38.5856 27.3234C38.0398 22.848 37.6032 18.1542 36.1841 13.8971C34.7651 9.85834 32.2545 6.36533 29.3073 3.19979C27.4516 1.23497 24.7227 3.09063 24.7227 5.16461V5.27377C24.7227 5.38292 24.6135 5.49208 24.6135 5.60124C24.5044 5.71039 24.5044 5.81955 24.3952 5.92871C24.0677 6.58364 23.6311 7.34774 23.4128 8.00268C22.9762 9.42172 23.1945 11.0591 23.1945 12.5873C23.1945 12.6964 23.1945 12.9147 23.1945 12.9147C23.1945 13.0239 23.0853 13.2422 23.0853 13.3514C23.0853 13.3514 23.0853 13.3514 22.9762 13.4605C22.867 13.5697 22.867 13.6788 22.7579 13.8971C22.7579 14.0063 22.6487 14.1154 22.5395 14.1154C22.6487 14.0063 22.7579 13.8971 22.5395 14.1154V14.2246C22.5395 14.2246 22.5395 14.2246 22.5395 14.1154C22.3212 14.3338 22.2121 14.5521 21.9938 14.6612C21.9938 14.6612 21.9938 14.6612 21.8846 14.7704C21.7754 14.7704 21.6663 14.8795 21.6663 14.8795C21.5571 14.9887 21.448 14.9887 21.3388 15.0979C21.3388 15.0979 21.3388 15.0979 21.2297 15.0979H21.3388H21.2297C21.1205 15.207 21.1205 15.0979 21.2297 15.0979C21.1205 15.0979 21.0114 15.207 20.9022 15.207C20.0289 15.0979 19.1557 15.5345 18.6099 16.5169C17.0817 19.5733 16.7542 23.0663 16.4268 26.4501C15.9901 30.0523 15.7718 33.5453 15.5535 37.1475C15.3352 40.6405 15.3352 44.1335 15.3352 47.6265C15.3352 49.373 15.3352 51.2287 15.4444 52.9752C15.4444 54.5034 15.4444 55.9224 16.0993 57.2323C16.0993 57.4506 15.9902 57.6689 15.9902 57.8872C15.9902 59.3063 17.1909 60.6161 18.7191 60.6161C25.0501 60.6161 31.3812 60.507 37.6031 60.507C38.913 60.7253 40.5504 59.9612 40.7687 58.6513C40.8778 57.5598 40.7687 56.4682 40.3321 55.4858Z" fill="#F7C300"/>
<path d="M50.4837 61.1619L39.1314 61.2711C39.2406 60.2887 39.3497 59.1971 38.9131 58.3239C38.4765 57.6689 37.9307 57.3415 37.1666 57.2323V57.1231C37.1666 56.7957 37.1666 56.5774 37.1666 56.2499C37.1666 56.1407 37.1666 56.1407 37.1666 56.0316C36.9483 53.1935 37.3849 50.2463 37.2757 47.4082C37.2757 44.5701 37.1666 41.8412 37.0574 39.0031C36.8391 33.1087 36.4025 27.3234 35.6384 21.5381C35.4201 19.9007 35.2018 18.2634 34.7651 16.626C34.4377 15.207 34.1102 13.0239 33.2369 11.8232C31.5996 7.6752 29.3073 3.74557 26.3601 0.361713C26.0326 -0.0749132 25.4868 -0.0749132 25.1594 0.1434C24.941 0.0342434 24.6136 0.0342434 24.2861 0.1434C21.9938 1.34412 20.3565 3.4181 19.0466 5.71039C18.61 5.71039 18.2825 5.71039 17.8459 5.81954C17.1909 4.61882 16.4268 3.4181 15.2261 2.654C14.0254 1.78075 12.6063 1.56244 11.1873 1.78075C8.34924 2.21738 6.27527 4.61882 6.05695 7.34773C5.9478 7.34773 5.72949 7.34773 5.62033 7.34773C3.76467 7.23858 1.79984 7.45689 0.817433 9.2034C-0.0558198 10.7316 -0.274126 12.6964 0.380813 14.2246C1.03575 15.9711 2.45478 16.8444 4.31044 17.0627C6.82104 17.281 9.4408 17.1718 11.9514 17.281C12.9338 17.281 13.8071 17.281 14.7895 17.3901C11.9514 28.1966 11.6239 39.6581 12.4972 50.6829C12.6063 51.8836 12.7155 53.0843 12.8247 54.2851C12.8247 54.7217 13.4796 57.7781 13.2613 57.8872C13.043 57.9964 12.9338 58.2147 12.7155 58.433C11.9514 59.4154 12.388 60.507 12.2789 61.7077C8.56755 61.7077 4.85623 61.7077 1.14491 61.8169C-0.27413 61.8169 -0.27413 64 1.14491 64C17.6276 63.8908 34.001 63.7817 50.4837 63.7817C51.9027 63.3451 51.9027 61.1619 50.4837 61.1619ZM34.9834 57.1231C32.582 57.1231 30.1806 57.1231 27.67 57.1231V57.014C28.9798 55.9224 30.1806 54.8308 31.2721 53.521C32.4729 54.6125 33.6736 55.5949 34.9834 56.5774C34.9834 56.6865 34.9834 56.9048 34.9834 57.1231ZM21.0114 19.2458C22.103 21.8656 23.1945 24.3762 24.5044 26.8868C24.3953 26.9959 24.2861 27.2142 24.2861 27.3234C22.9762 29.2882 21.448 31.253 19.9198 32.9995C19.7015 32.4538 19.4832 31.908 19.2649 31.4713C18.61 29.834 17.8459 28.0875 17.3001 26.2318C18.8283 24.0487 20.029 21.7564 21.0114 19.2458ZM16.6451 23.2846C16.536 22.6297 16.4268 21.8656 16.4268 21.2106C16.4268 20.8832 16.3177 20.6648 16.0994 20.4465C16.3177 19.2458 16.6451 18.1542 16.9726 16.9535C17.5184 16.9535 18.1733 16.8444 18.7191 16.7352C19.0466 16.7352 19.3741 16.626 19.8107 16.5169C18.8283 18.9183 17.8459 21.2106 16.6451 23.2846ZM24.6136 10.8407H25.9234C26.1418 13.5697 27.3425 15.9711 28.6524 18.2634C28.7615 18.4817 28.8707 18.7 29.089 18.9183C28.8707 19.355 28.6524 19.7916 28.5432 20.2282C27.7791 21.8656 27.015 23.3938 26.0326 24.9219C24.6136 22.193 23.4128 19.355 22.3213 16.4077C22.4304 16.1894 22.4304 16.0803 22.5396 15.8619V15.7528C23.1945 15.3162 23.7403 14.8795 24.0678 14.2246C24.6136 13.133 24.7227 11.9323 24.6136 10.8407ZM29.7439 35.1827C28.434 37.9116 27.015 40.6405 25.4868 43.3694C24.8319 42.387 24.177 41.4046 23.6312 40.4222C22.6488 38.7848 21.7755 37.0383 20.9023 35.2918C22.6488 33.327 24.2861 31.253 25.8143 29.1791C27.015 31.1439 28.3249 33.2178 29.7439 35.1827ZM19.3741 36.9292C20.1381 38.4574 20.9022 39.9856 21.7755 41.5137C22.5396 42.8236 23.4128 44.1335 24.2861 45.3342C23.1945 47.0807 22.103 48.7181 20.7931 50.3554C18.3916 47.5174 16.536 44.2427 15.117 40.7496C16.536 39.5489 17.955 38.239 19.3741 36.9292ZM20.9023 53.7393C21.9938 54.8309 23.0854 55.9224 24.2861 56.9048C24.2861 57.014 24.177 57.014 24.177 57.1231C22.103 57.1231 20.029 57.1231 17.955 57.1231C19.0466 55.9224 19.9198 54.8309 20.9023 53.7393ZM22.3213 51.9928C23.522 50.4646 24.6136 48.8272 25.7051 47.1899C27.015 48.8272 28.3249 50.4646 29.8531 51.8836C28.7615 53.1935 27.5608 54.3942 26.2509 55.3766C24.7227 54.3942 23.4128 53.3027 22.3213 51.9928ZM32.6912 51.7745C33.5644 50.5737 34.4377 49.2639 35.2018 47.954C35.2018 49.9188 35.2018 51.8836 35.0926 53.8484C34.2194 53.1935 33.4552 52.5386 32.6912 51.7745ZM35.2018 43.2603C34.001 45.6617 32.6912 48.0631 31.163 50.2463C29.6348 48.7181 28.2157 46.9716 26.9059 45.2251C28.4341 42.6053 29.9623 39.8764 31.2721 37.1475C32.4729 38.6757 33.7827 40.2039 35.0926 41.7321C35.0926 42.2778 35.0926 42.8236 35.2018 43.2603ZM34.9834 38.3482C34.001 37.2566 33.1278 36.1651 32.2545 34.9644C33.0186 33.327 33.7827 31.7988 34.4377 30.1615C34.7651 32.8904 34.8743 35.6193 34.9834 38.3482ZM34.1102 25.686V25.7952C34.1102 25.9044 34.001 25.9044 34.001 26.0135C33.0186 28.3058 31.9271 30.5981 30.8355 32.8904C29.5256 30.9256 28.2157 28.9607 27.1242 26.9959C28.3249 25.0311 29.4165 23.0663 30.3989 20.9923C31.4904 22.5205 32.582 24.0487 33.7827 25.4677C33.8919 25.5769 34.001 25.686 34.1102 25.686ZM32.4728 15.7528C33.0186 17.7176 33.3461 19.7916 33.6736 21.8656C32.9095 20.8832 32.1454 19.7916 31.4904 18.7C31.8179 17.7176 32.2545 16.7352 32.4728 15.7528ZM30.8355 11.2774C30.7263 11.3865 30.7263 11.6048 30.7263 11.714C30.8355 13.2422 30.508 14.8795 29.9622 16.2986C28.9798 14.5521 28.2157 12.6964 27.9974 10.7316C28.8707 10.7316 29.7439 10.7316 30.6172 10.6224C30.7263 10.8407 30.8355 11.0591 30.8355 11.2774ZM25.2685 2.10822C26.9059 4.07304 28.3249 6.25617 29.6348 8.54846C27.67 8.54846 25.8143 8.65761 23.8495 8.65761C23.1945 7.56605 22.3213 6.69279 21.3389 6.14701C22.3213 4.50966 23.6312 3.09063 25.2685 2.10822ZM12.7155 14.8795C10.6415 14.8795 8.67671 14.7704 6.60274 14.7704C4.85623 14.7704 2.6731 14.9887 2.23647 12.9147C1.909 11.4957 2.34564 9.53087 3.98298 9.31255C5.29286 9.2034 7.47599 9.09424 8.34925 10.4041C9.11334 11.6048 10.969 10.5133 10.2049 9.31255C9.65912 8.54846 9.00418 8.00267 8.24008 7.6752C8.34924 5.60123 9.76828 3.85472 11.8423 3.63641C12.7155 3.52725 13.5888 3.74557 14.2437 4.29135C14.8986 4.83713 15.4444 5.60123 15.881 6.36533C15.3353 6.80195 14.7895 7.23858 14.3529 8.00267C13.5888 9.2034 15.4444 10.295 16.2085 9.09424C17.0818 7.78436 18.8283 7.23858 20.2473 7.89352C21.6663 8.54846 22.5396 10.0766 22.4304 11.6048C22.3213 14.6612 18.3916 14.9887 15.3353 14.8795C15.3353 14.8795 15.3353 14.8795 15.2261 14.8795C14.2437 14.9887 13.3705 14.8795 12.7155 14.8795ZM14.7895 29.1791C14.8986 29.1791 15.0078 29.0699 15.117 28.9607C15.3353 28.7424 15.5536 28.5241 15.7719 28.3058C16.2085 29.6157 16.7543 30.8164 17.1909 32.0171C17.5184 32.8904 17.955 33.8728 18.2825 34.746C16.9726 36.0559 15.6627 37.3658 14.2437 38.5665C14.2437 38.4574 14.2437 38.4574 14.1345 38.3482C14.3528 35.2918 14.5712 32.2354 14.7895 29.1791ZM19.3741 52.1019C18.0642 53.6301 16.7543 55.1583 15.2261 56.5774C14.6803 52.5386 14.3529 48.3906 14.2437 44.2427C15.6627 47.1899 17.4092 49.7005 19.3741 52.1019ZM36.9483 61.1619C29.4165 61.1619 21.9938 61.2711 14.462 61.2711C14.462 61.1619 14.462 60.9436 14.462 60.8345C14.462 60.507 14.2437 59.7429 14.3529 59.4154C14.6803 58.8696 16.8634 59.1971 17.4092 59.1971C19.9198 59.1971 22.3213 59.1971 24.8319 59.1971C27.3425 59.1971 29.7439 59.1971 32.2545 59.1971C33.4553 59.1971 34.5468 59.1971 35.7475 59.1971C36.075 59.1971 36.4025 59.1971 36.73 59.1971C37.1666 59.088 37.2757 59.1971 37.1666 59.6337C37.1666 60.1795 37.0574 60.7253 36.9483 61.1619Z" fill="#1E1E1E"/>
</svg>
