<svg width="164" height="11" viewBox="0 0 164 11" fill="none" xmlns="http://www.w3.org/2000/svg">
<path d="M163.362 7.88385C161.482 6.34451 159.476 4.93115 157.596 3.39181C155.72 1.97481 154.391 1.27724 152.217 2.68491C150.426 3.83698 148.256 5.36699 146.874 6.99746C146.743 7.00111 146.739 6.87877 146.609 6.88241C146.331 6.40036 145.667 6.05158 145.263 5.6955C144.321 4.86466 143.51 4.03018 142.572 3.32168C141.091 2.01607 139.489 0.958786 137.429 1.87347C135.365 2.66581 134.125 4.65965 132.473 6.05274C132.347 6.17872 132.22 6.3047 132.094 6.43069C132.477 6.17508 132.339 5.93405 131.817 5.94863C131.413 5.59256 130.756 5.48845 130.226 5.25835C129.297 4.79452 128.367 4.3307 127.437 3.86687C125.312 2.82416 123.31 1.53314 121.308 0.242115C120.639 -0.229005 119.473 0.0484761 118.967 0.552404C118.09 1.67895 117.209 2.68316 116.332 3.80971C115.83 4.43597 115.328 5.06223 114.827 5.6885C114.7 5.81448 114.574 5.94046 114.451 6.18878C114.325 6.31476 114.325 6.31476 114.325 6.31476C113.134 5.85822 112.058 4.90869 110.989 4.20384C109.79 3.50262 108.587 2.67908 107.258 1.98151C104.99 0.57544 102.747 -0.0966094 100.325 1.68536C98.5423 3.0821 96.8904 4.47519 95.108 5.87193C93.6399 4.93333 92.1759 4.11708 90.5774 3.18213C89.1134 2.36587 87.6372 1.1826 85.8223 1.60064C84.1379 2.01504 82.6206 3.52683 81.2175 4.54562C80.4507 5.05683 79.6839 5.56805 79.0476 6.07562C78.2808 6.58684 77.7588 6.60142 76.833 6.25993C73.7908 5.12041 71.3645 2.86163 67.9592 2.5894C64.4233 2.32081 62.0168 4.59213 59.333 6.38139C58.4398 7.01859 58.5662 6.89261 57.6324 6.30644C56.8331 5.83897 56.1643 5.36785 55.365 4.90037C53.7665 3.96543 52.1679 3.03048 50.3287 2.7145C48.4935 2.52086 46.9517 3.29862 45.2795 4.08003C44.3782 4.47256 43.4768 4.86509 42.5754 5.25761C41.6741 5.65014 40.2669 6.54659 39.0964 6.70174C37.5304 6.74548 35.5281 5.45446 34.1946 4.63456C32.7266 3.69596 31.5033 2.26073 29.664 1.94475C27.9553 1.62513 26.279 2.2842 25.0064 3.29935C23.6033 4.31814 22.351 5.94497 20.5077 5.50666C18.6684 5.19068 17.1882 3.88508 15.5937 3.07246C13.8646 2.14116 12.0132 1.45818 9.91697 1.27183C6.11605 0.888194 2.24553 2.34326 0.262999 5.58233C-0.973037 7.69851 2.48103 9.43878 3.71707 7.3226C5.45076 4.45783 9.23544 4.35211 12.1512 5.61762C15.067 6.88313 17.4974 9.26424 20.8946 9.2918C22.4647 9.37039 23.88 8.71861 25.1607 7.94814C26.1804 7.18496 27.9425 5.17654 29.2719 5.87411C30.5973 6.44934 31.8165 7.76223 33.15 8.58213C34.614 9.39839 36.339 10.2074 37.9132 10.4083C39.6179 10.6056 41.0332 9.95379 42.5789 9.29836C44.5122 8.50967 46.4332 7.35396 48.3705 6.6876C50.0508 6.15086 51.6616 7.45282 52.991 8.15038C54.3245 8.97029 55.8088 10.3982 57.5135 10.5955C60.5354 11.1234 62.9014 7.62867 65.3485 6.58072C68.1831 5.39949 71.0049 7.76967 73.3946 8.92742C74.8586 9.74368 76.5796 10.4303 78.268 10.1382C80.087 9.84254 81.6084 8.4531 83.0115 7.43431C83.7783 6.92309 84.9163 5.78925 85.8217 5.51906C85.9522 5.51542 86.201 5.14111 86.201 5.14111C86.4621 5.13382 87.4 5.84233 87.665 5.95737C89.5327 7.1297 91.5309 8.29839 93.3986 9.47072C93.3986 9.47072 93.5291 9.46708 93.5332 9.58941C94.202 10.0605 95.2501 10.1537 96.0087 9.39782C97.1549 8.50865 98.1705 7.62313 99.3166 6.73397C99.8224 6.23004 100.463 5.84481 100.969 5.34088C101.352 5.08527 102.107 4.20704 102.625 4.07012C103.665 3.91863 105.548 5.5803 106.348 6.04778C107.547 6.74899 108.615 7.45385 109.814 8.15506C111.682 9.32739 113.961 11.1005 115.992 9.32943C117.008 8.44391 117.751 7.19868 118.501 6.19811C119.003 5.57185 119.631 4.8196 120.133 4.19334C123.468 6.30427 126.927 8.16687 130.629 9.53284C132.876 10.3272 134.141 9.06741 135.662 7.67797C136.421 6.92207 137.172 5.92151 138.069 5.40665C138.836 4.89543 138.322 5.15468 138.986 5.50347C139.386 5.7372 139.928 6.3343 140.332 6.69038C141.274 7.52122 142.086 8.3557 143.023 9.0642C143.696 9.65766 144.508 10.4921 145.433 10.8336C147.546 11.5093 148.798 9.8825 150.197 8.74138C151.086 7.98184 151.976 7.2223 152.995 6.45912C152.995 6.45912 153.762 5.9479 154.145 5.69229C154.28 5.81099 154.415 5.92968 154.549 6.04837C156.429 7.58771 158.435 9.00107 160.315 10.5404C162.587 12.0688 165.242 9.4232 163.362 7.88385Z" fill="#F7C300"/>
</svg>
