<svg width="17" height="17" viewBox="0 0 17 17" fill="none" xmlns="http://www.w3.org/2000/svg">
<path d="M13.2457 10.0522C12.8257 9.63223 12.2457 9.42223 11.6657 9.47223C11.0857 9.52223 10.5657 9.83223 10.2257 10.3022C10.2157 10.3222 10.2057 10.3322 10.1957 10.3522L9.85572 10.9322C9.44572 10.9222 8.56572 10.7222 7.40572 9.54223C6.25572 8.37223 6.05572 7.49223 6.03572 7.07223L6.60572 6.73223C6.62572 6.72223 6.64572 6.71223 6.65572 6.70223C7.13572 6.37223 7.43572 5.85223 7.49572 5.27223C7.54572 4.68223 7.34572 4.11223 6.92572 3.69223L4.72572 1.49223C4.11572 0.882226 3.19572 0.732226 2.43572 1.11223C1.14572 1.77223 0.315723 2.96223 0.0757231 4.49223C-0.134277 5.80223 0.0957231 7.30223 0.725723 8.83223C1.36572 10.3822 2.39572 11.9022 3.71572 13.2222C5.03572 14.5422 6.55572 15.5822 8.09572 16.2222C9.26572 16.7122 10.4157 16.9622 11.4757 16.9622C11.8057 16.9622 12.1257 16.9422 12.4357 16.8922C13.9557 16.6522 15.1557 15.8222 15.8157 14.5522C16.2057 13.7922 16.0557 12.8722 15.4457 12.2622L13.2457 10.0522Z" fill="#1E1E1E"/>
</svg>
