<svg width="19" height="20" viewBox="0 0 19 20" fill="none" xmlns="http://www.w3.org/2000/svg">
<path d="M16.2756 3.68216C14.5256 1.93216 12.1856 0.962158 9.70557 0.962158C7.22557 0.962158 4.89557 1.93216 3.13557 3.68216C1.64557 5.17216 0.695567 7.15216 0.475567 9.24216C0.265567 11.1822 0.675568 13.1522 1.63557 14.8422L0.695567 18.2322C0.615567 18.5222 0.695567 18.8222 0.905567 19.0422C1.11557 19.2522 1.42557 19.3322 1.71557 19.2522L5.10557 18.3222C6.50557 19.1222 8.10557 19.5322 9.71557 19.5322C10.0456 19.5322 10.3756 19.5122 10.7056 19.4822C12.8056 19.2522 14.7756 18.3122 16.2756 16.8122C19.9056 13.1922 19.9056 7.30216 16.2756 3.68216ZM4.75557 11.1822C4.05557 11.1822 3.53557 10.6122 3.50557 9.93216C3.47557 9.26216 4.10557 8.68216 4.75557 8.68216C5.45557 8.68216 5.97557 9.25216 6.00557 9.93216C6.03557 10.6022 5.41557 11.1822 4.75557 11.1822ZM9.70557 11.1822C9.00557 11.1822 8.48557 10.6122 8.45557 9.93216C8.42557 9.26216 9.05557 8.68216 9.70557 8.68216C10.4056 8.68216 10.9256 9.25216 10.9556 9.93216C10.9856 10.6022 10.3656 11.1822 9.70557 11.1822ZM14.6556 11.1822C13.9556 11.1822 13.4356 10.6122 13.4056 9.93216C13.3756 9.26216 14.0056 8.68216 14.6556 8.68216C15.3556 8.68216 15.8756 9.25216 15.9056 9.93216C15.9356 10.6022 15.3156 11.1822 14.6556 11.1822Z" fill="#59C69F"/>
</svg>
