<svg width="107" height="81" viewBox="0 0 107 81" fill="none" xmlns="http://www.w3.org/2000/svg">
<path d="M106.683 55.0899C105.898 57.0687 104.421 58.5734 103.035 60.1509C101.539 61.838 100.017 63.4976 98.4025 65.0661C96.9799 66.4339 95.5209 67.7653 94.2534 69.279C93.0406 70.729 91.9554 72.2609 90.6149 73.5923C89.2835 74.9054 87.8063 76.0636 86.2834 77.1396C84.7696 78.2065 83.1738 79.3829 81.5142 80.2127C79.4533 81.2523 78.7876 78.9907 78.2222 77.4952C77.4927 75.5438 76.7905 73.5832 75.9516 71.6682C74.4926 68.3033 72.6414 65.1208 69.8784 62.6678C69.0941 61.9656 69.468 61.0081 70.1793 60.5887C70.3343 60.3789 70.5714 60.2148 70.8997 60.1236C73.9089 59.3576 76.9547 58.6646 79.9183 57.7253C82.8273 56.8043 85.5903 55.6462 88.5996 55.0717C89.9583 54.8163 91.3262 54.5793 92.694 54.3695C91.1712 53.8771 89.6574 53.3391 88.1163 52.9834C86.0645 52.5092 83.7757 52.7372 81.6874 52.8375C79.3803 52.9378 77.0823 53.1476 74.7935 53.3482C72.4955 53.5579 70.1975 53.7677 67.8904 53.8953C66.0393 53.9956 63.7595 54.4242 62.2002 53.1932C59.0268 50.6763 56.3549 47.202 54.0387 43.9101C53.1906 42.6972 54.7226 41.5482 55.826 42.0498C56.0175 42.0133 56.209 41.9951 56.4096 42.0407C66.8782 44.3386 77.3103 46.7278 87.6877 49.3723C93.4327 50.4028 99.1594 51.57 104.804 53.0473C104.85 53.0564 104.895 53.0655 104.941 53.0837C105.324 53.184 105.689 53.33 106.053 53.5488C106.537 53.8315 106.901 54.5337 106.683 55.0899Z" fill="#F7C300"/>
<path d="M106.828 53.7677C107.385 52.8284 106.491 51.7615 105.543 51.7706C96.9527 49.117 88.3443 46.5546 79.4442 45.132C75.1765 44.4481 70.918 43.828 66.6959 42.8887C64.8721 42.4328 63.0483 41.986 61.2245 41.53C58.4615 40.7914 55.7075 39.9889 52.9536 39.1864C52.0873 38.9311 51.5402 39.5238 51.4398 40.226C51.3122 40.4996 51.2757 40.8187 51.376 41.1744C52.1329 43.8006 54.2667 45.971 55.9629 48.0318C57.7958 50.2569 59.7016 52.4363 61.644 54.561C60.3947 59.1205 59.4645 63.7347 58.0055 68.2304C57.8961 68.5587 57.7866 68.8961 57.814 69.2426C57.8505 69.8353 58.3155 70.3733 58.89 70.4828C59.2092 70.5466 59.5375 70.4828 59.8567 70.4189C61.8811 70.0359 63.8599 69.808 65.9025 69.5709C66.9877 69.4432 68.0637 69.3246 69.1489 69.197C69.6869 69.1331 70.234 69.0693 70.7721 69.0055C70.9544 68.9872 71.1824 68.9325 71.3922 68.9325C71.4469 68.9599 71.5016 69.0055 71.5563 69.042C71.6201 69.1149 71.684 69.1787 71.766 69.2335C71.8572 69.3429 71.9484 69.4523 72.0396 69.5982C72.4135 70.2274 72.7874 70.8475 73.1612 71.4767C74.1826 74.0756 75.1036 76.7293 76.2617 79.2734C76.2799 80.8328 78.1128 80.8875 79.0795 80.158C80.5203 79.0728 81.8699 77.8053 83.2468 76.6289C86.0464 74.258 88.8824 71.9144 91.6454 69.4979C96.8888 64.9202 101.467 59.6585 106.145 54.5246C106.491 54.4334 106.728 54.1324 106.828 53.7677ZM63.8599 52.9743C63.8325 52.9378 63.8143 52.9105 63.7869 52.874C62.8112 51.8162 61.8537 50.7402 60.9053 49.655C59.2822 47.4482 57.6225 45.2141 55.8808 42.8614C59.0998 43.7915 62.3279 44.6852 65.5925 45.4421C70.0152 46.4725 74.4835 47.1017 78.9609 47.8221C79.2162 47.8586 79.4625 47.9133 79.7178 47.9589C84.8335 49.2355 89.931 50.5031 95.0285 51.7706C94.3902 51.7889 93.7519 51.8162 93.1044 51.88C89.8854 52.1992 86.7303 52.4728 83.493 52.5457C76.9547 52.6916 70.4073 52.8375 63.8599 52.9743ZM68.1732 59.4579C68.0637 59.4762 67.9634 59.5218 67.854 59.5491C67.7355 59.5309 67.6078 59.5217 67.471 59.5309C65.0362 59.768 64.0514 61.993 62.4282 63.4703C62.2914 63.5979 62.1455 63.7256 61.9996 63.8441C62.6927 61.1176 63.4222 58.4092 64.1699 55.7009C70.535 55.5641 76.9 55.4273 83.2651 55.2814C86.4385 55.2085 89.548 55.0261 92.7032 54.6705L92.7123 54.8072C89.165 55.4729 85.6178 56.1386 82.0705 56.8043C77.4472 57.6797 72.8056 58.5278 68.1732 59.4579ZM66.6229 66.7531C65.246 66.9081 63.8781 67.0723 62.5012 67.2273C62.8112 66.8899 63.1121 66.5616 63.4222 66.2242C63.5042 66.1512 63.5863 66.0692 63.6775 65.9962C64.4891 65.2849 65.2186 64.5737 65.8934 63.7256C66.167 63.3791 66.5226 62.9322 66.7962 62.6952C66.933 62.5857 67.0606 62.5037 67.1883 62.4307C67.7081 63.0508 68.237 63.6618 68.7568 64.2819C69.1671 64.9658 69.5866 65.6588 70.0152 66.361C68.8844 66.4886 67.7537 66.6254 66.6229 66.7531ZM101.175 55.9927C95.831 61.1723 90.5876 66.2516 85.3533 71.3308C85.0706 71.5679 84.7879 71.805 84.4961 72.0512L80.8485 75.1334C80.274 75.6259 79.6904 76.1092 79.1159 76.6016C78.9791 76.7201 78.8059 76.8934 78.6326 77.0758C78.277 76.5013 77.9305 75.9268 77.5839 75.3523C76.7632 73.2276 75.9972 71.0755 75.1036 68.9781C74.4379 67.437 73.6537 65.9871 72.605 64.674C71.6657 63.4976 70.6626 62.8411 69.9422 61.537C72.0761 60.8349 74.7206 60.5978 76.9365 60.1783C79.3439 59.7224 82.1161 59.3302 84.5235 58.8743C90.7153 57.7071 96.0407 55.9927 102.233 54.8255C101.868 55.2176 101.521 55.6006 101.175 55.9927Z" fill="white"/>
<path d="M46.9903 68.732C42.9415 69.7989 38.8562 70.3552 34.6706 70.3734C32.9106 70.3825 32.8012 73.1182 34.5703 73.1091C39.0021 73.0908 43.3428 72.5255 47.6287 71.3947C49.3248 70.9479 48.6956 68.2851 46.9903 68.732Z" fill="white"/>
<path d="M26.956 68.7319C24.43 68.5131 22.1412 67.4188 20.3721 65.6041C19.141 64.3457 17.1531 66.2242 18.3933 67.4918C20.6639 69.8171 23.6184 71.1941 26.8557 71.4676C28.6156 71.6135 28.7068 68.887 26.956 68.7319Z" fill="white"/>
<path d="M16.7058 50.8406C14.8912 53.5216 14.3349 56.7862 15.1374 59.9231C15.5751 61.6283 18.2378 61.0082 17.8001 59.2939C17.1618 56.8135 17.5904 54.397 19.0312 52.2814C20.0252 50.8224 17.6998 49.3907 16.7058 50.8406Z" fill="white"/>
<path d="M30.4937 39.7245C27.2564 40.8461 24.3748 42.5149 21.8215 44.8037C20.5084 45.9801 22.396 47.9589 23.7091 46.7826C25.8886 44.8311 28.3598 43.3447 31.1229 42.3872C32.7734 41.8218 32.1624 39.15 30.4937 39.7245Z" fill="white"/>
<path d="M47.3095 29.794C44.6012 32.9401 41.0265 34.7183 37.2239 36.1864C35.5916 36.8157 36.9139 39.2139 38.5371 38.5847C42.5403 37.0436 46.3611 35.0739 49.1971 31.782C50.337 30.4506 48.4585 28.4536 47.3095 29.794Z" fill="white"/>
<path d="M53.8018 14.0273C54.1666 16.1429 54.0936 18.2585 53.5738 20.3467C53.1543 22.052 55.7624 22.8636 56.191 21.1492C56.8293 18.5868 56.9205 16.0061 56.4645 13.4072C56.1636 11.6655 53.5009 12.3038 53.8018 14.0273Z" fill="white"/>
<path d="M53.4831 6.039C51.714 3.18477 48.3309 -0.0980656 44.7107 0.00224316C42.9598 0.056957 42.8504 2.79265 44.6103 2.73794C47.2366 2.66498 49.799 5.29125 51.0757 7.35214C52.0058 8.83853 54.4132 7.54364 53.4831 6.039Z" fill="white"/>
<path d="M37.4787 0.376121C34.9618 0.531144 32.5909 1.10564 30.2929 2.15432C28.688 2.88384 30.0102 5.28213 31.6061 4.55261C33.4298 3.72278 35.3722 3.23036 37.3784 3.11181C39.1201 3.00239 39.2386 0.266694 37.4787 0.376121Z" fill="white"/>
<path d="M21.84 5.62873C20.1073 6.95098 18.2562 8.09997 16.3139 9.09394C14.7545 9.89641 16.0585 12.3038 17.627 11.4922C19.7882 10.3797 21.8035 9.0757 23.7276 7.60755C25.1228 6.54063 23.2352 4.56181 21.84 5.62873Z" fill="white"/>
<path d="M10.5142 13.5439C10.1129 12.8782 9.34695 12.6685 8.65391 12.9968C8.37122 13.1335 8.07941 13.2612 7.77849 13.3798C7.72377 13.398 7.50492 13.4801 7.47756 13.4892C7.32254 13.5439 7.1584 13.5895 7.00337 13.6442C6.38328 13.8266 5.75407 13.9634 5.11575 14.0546C4.96984 14.0728 4.82394 14.091 4.67803 14.1093C4.63244 14.1093 4.41358 14.1275 4.41358 14.1275C4.07618 14.1458 3.7479 14.1549 3.4105 14.1549C2.74481 14.1458 2.07913 14.0819 1.42256 13.9725C0.71128 13.8539 0 14.6108 0 15.2856C0.00911897 16.1063 0.556257 16.5805 1.31313 16.7082C4.24944 17.1824 7.28606 16.6808 9.95792 15.4042C10.6145 15.0941 10.8789 14.1549 10.5142 13.5439Z" fill="white"/>
</svg>
