<svg width="147" height="11" viewBox="0 0 147 11" fill="none" xmlns="http://www.w3.org/2000/svg">
<path d="M146.43 7.88385C144.757 6.34451 142.971 4.93115 141.297 3.39181C139.627 1.97481 138.444 1.27724 136.508 2.68491C134.914 3.83698 132.982 5.36699 131.751 6.99746C131.635 7.00111 131.632 6.87877 131.515 6.88241C131.269 6.40036 130.677 6.05158 130.318 5.6955C129.479 4.86466 128.757 4.03018 127.922 3.32168C126.604 2.01607 125.177 0.958786 123.343 1.87347C121.506 2.66581 120.402 4.65965 118.932 6.05274C118.819 6.17872 118.706 6.3047 118.594 6.43069C118.935 6.17508 118.812 5.93405 118.347 5.94863C117.988 5.59256 117.403 5.48845 116.931 5.25835C116.103 4.79452 115.276 4.3307 114.448 3.86687C112.557 2.82416 110.774 1.53314 108.992 0.242115C108.396 -0.229005 107.358 0.0484761 106.908 0.552404C106.127 1.67895 105.342 2.68316 104.562 3.80971C104.115 4.43597 103.668 5.06223 103.222 5.6885C103.109 5.81448 102.997 5.94046 102.888 6.18878C102.775 6.31476 102.775 6.31476 102.775 6.31476C101.715 5.85822 100.757 4.90869 99.8054 4.20384C98.7381 3.50262 97.6672 2.67908 96.4836 1.98151C94.4652 0.57544 92.4684 -0.0966094 90.3115 1.68536C88.7247 3.0821 87.2541 4.47519 85.6673 5.87193C84.3604 4.93333 83.0571 4.11708 81.634 3.18213C80.3307 2.36587 79.0165 1.1826 77.4008 1.60064C75.9013 2.01504 74.5505 3.52683 73.3014 4.54562C72.6188 5.05683 71.9361 5.56805 71.3697 6.07562C70.687 6.58684 70.2223 6.60142 69.3982 6.25993C66.6898 5.12041 64.5299 2.86163 61.4983 2.5894C58.3505 2.32081 56.2081 4.59213 53.8189 6.38139C53.0237 7.01859 53.1363 6.89261 52.3049 6.30644C51.5934 5.83897 50.998 5.36785 50.2864 4.90037C48.8633 3.96543 47.4402 3.03048 45.8028 2.7145C44.1691 2.52086 42.7966 3.29862 41.3079 4.08003C40.5054 4.47256 39.703 4.86509 38.9006 5.25761C38.0981 5.65014 36.8454 6.54659 35.8034 6.70174C34.4092 6.74548 32.6267 5.45446 31.4396 4.63456C30.1327 3.69596 29.0437 2.26073 27.4063 1.94475C25.885 1.62513 24.3927 2.2842 23.2598 3.29935C22.0107 4.31814 20.8959 5.94497 19.2549 5.50666C17.6175 5.19068 16.2997 3.88508 14.8802 3.07246C13.341 2.14116 11.6927 1.45818 9.82657 1.27183C6.44282 0.888194 2.99712 2.34326 1.23218 5.58233C0.131806 7.69851 3.20677 9.43878 4.30714 7.3226C5.85056 4.45783 9.21984 4.35211 11.8156 5.61762C14.4114 6.88313 16.575 9.26424 19.5993 9.2918C20.9971 9.37039 22.2571 8.71861 23.3972 7.94814C24.305 7.18496 25.8737 5.17654 27.0572 5.87411C28.2371 6.44934 29.3225 7.76223 30.5096 8.58213C31.8129 9.39839 33.3486 10.2074 34.75 10.4083C36.2676 10.6056 37.5276 9.95379 38.9037 9.29836C40.6247 8.50967 42.3349 7.35396 44.0596 6.6876C45.5555 6.15086 46.9894 7.45282 48.173 8.15038C49.3601 8.97029 50.6815 10.3982 52.1991 10.5955C54.8893 11.1234 56.9956 7.62867 59.1741 6.58072C61.6976 5.39949 64.2097 7.76967 66.3372 8.92742C67.6405 9.74368 69.1725 10.4303 70.6757 10.1382C72.295 9.84254 73.6494 8.4531 74.8985 7.43431C75.5812 6.92309 76.5943 5.78925 77.4003 5.51906C77.5165 5.51542 77.738 5.14111 77.738 5.14111C77.9704 5.13382 78.8053 5.84233 79.0413 5.95737C80.704 7.1297 82.4829 8.29839 84.1456 9.47072C84.1456 9.47072 84.2618 9.46708 84.2654 9.58941C84.8608 10.0605 85.7938 10.1537 86.4692 9.39782C87.4896 8.50865 88.3937 7.62313 89.4141 6.73397C89.8643 6.23004 90.4344 5.84481 90.8847 5.34088C91.226 5.08527 91.8978 4.20704 92.3589 4.07012C93.2848 3.91863 94.9619 5.5803 95.6735 6.04778C96.7408 6.74899 97.6919 7.45385 98.7593 8.15506C100.422 9.32739 102.451 11.1005 104.26 9.32943C105.164 8.44391 105.825 7.19868 106.493 6.19811C106.94 5.57185 107.499 4.8196 107.945 4.19334C110.915 6.30427 113.994 8.16687 117.29 9.53284C119.291 10.3272 120.416 9.06741 121.771 7.67797C122.446 6.92207 123.114 5.92151 123.913 5.40665C124.596 4.89543 124.138 5.15468 124.73 5.50347C125.086 5.7372 125.568 6.3343 125.928 6.69038C126.766 7.52122 127.489 8.3557 128.324 9.0642C128.923 9.65766 129.645 10.4921 130.469 10.8336C132.35 11.5093 133.465 9.8825 134.71 8.74138C135.502 7.98184 136.293 7.2223 137.201 6.45912C137.201 6.45912 137.884 5.9479 138.225 5.69229C138.345 5.81099 138.465 5.92968 138.585 6.04837C140.258 7.58771 142.044 9.00107 143.718 10.5404C145.74 12.0688 148.104 9.4232 146.43 7.88385Z" fill="#59C69F"/>
</svg>
