<svg width="496" height="253" viewBox="0 0 496 253" fill="none" xmlns="http://www.w3.org/2000/svg">
<path d="M336.39 53.9872C336.732 55.0343 337.693 54.9946 338.099 54.9391C338.941 54.8042 339.783 54.6773 340.626 54.5504C341.023 54.4949 341.452 54.4314 341.683 54.4076C342.088 54.3521 342.493 54.3045 342.899 54.2569C344.551 54.0586 346.26 53.8841 347.984 53.7413C348.692 53.6858 349.399 53.1702 349.367 52.4087C349.351 52.0041 349.145 51.5916 348.843 51.3219C348.692 51.1871 348.453 51.0364 348.135 51.0364C348.112 51.0364 348.08 51.0364 348.056 51.0364C344.528 51.3299 340.904 51.7741 337.304 52.3611C337.026 52.4087 336.764 52.607 336.581 52.9084C336.358 53.2495 336.287 53.6778 336.39 53.9872Z" fill="#59C69F"/>
<path d="M288.503 25.8831C288.853 26.1132 289.329 26.2004 289.687 26.1052C290.736 25.8197 290.664 24.725 290.617 24.3998C289.87 19.1169 289.576 13.5881 289.743 7.96411C289.759 7.36125 289.465 7.0519 289.21 6.89325C288.988 6.7584 288.718 6.68701 288.439 6.68701C288.185 6.68701 287.923 6.75047 287.7 6.86945C287.406 7.0281 287.057 7.34539 287.041 7.9879C286.874 13.5881 287.208 19.3866 288.026 25.2168C288.082 25.55 288.312 25.7641 288.503 25.8831Z" fill="#59C69F"/>
<path d="M240.155 35.0764C240.433 35.481 240.799 35.6 241.053 35.6237C241.49 35.6634 241.959 35.4889 242.309 35.1478L243.461 34.0214L243.723 34.426C243.866 34.6481 244.001 34.886 244.129 35.1161C244.232 35.3065 244.335 35.4889 244.438 35.6555C245.034 36.5994 245.734 37.2657 246.568 37.702C247.45 38.1621 248.444 38.2811 249.23 38.0114C249.667 37.8606 250.065 37.6147 250.383 37.2816L250.828 36.8295L251.153 37.7258C251.551 38.8443 251.9 39.812 253.069 40.0341C253.728 40.161 254.507 39.8675 255.063 39.2885C255.087 39.2647 255.206 39.1219 255.325 38.987L255.715 38.519L255.993 39.0584C256.065 39.2012 256.104 39.2726 256.136 39.3519C256.239 39.5661 256.351 39.8279 256.462 40.0976C257.01 41.3984 257.59 42.739 258.981 42.6993C260.682 42.6517 262.454 40.867 263.129 40.0976C263.534 39.6454 263.503 39.2091 263.407 38.9236C263.248 38.4476 262.779 38.0431 262.271 37.932C261.953 37.8686 261.484 37.8844 261.063 38.3683C260.809 38.6539 260.276 39.2488 259.712 39.6295L259.323 39.8913L258.854 38.8443C258.75 38.6142 258.655 38.3921 258.552 38.1621C258.194 37.4164 257.757 36.6549 257.01 36.2028C256.263 35.7507 255.453 35.6475 254.714 35.9172C254.499 35.9966 254.292 36.1156 254.054 36.3059L253.625 36.647L253.434 36.1393C253.084 35.2033 252.743 34.4894 252.21 34.0452C251.797 33.6962 251.32 33.5455 250.78 33.6169C250.065 33.7121 249.326 34.1801 248.857 34.8464C248.769 34.9654 248.73 35.0526 248.698 35.1081C248.507 35.481 248.237 35.4572 247.999 35.3699L247.848 35.3223C247.283 35.1557 246.918 34.545 246.648 34.0928L246.552 33.9342C245.797 32.7126 245.122 31.7211 243.922 30.9913C243.413 30.6819 242.73 30.9754 242.317 31.38L241.458 32.2129L240.155 30.3012C239.663 29.5794 238.884 29.6269 238.335 29.9998C237.771 30.3805 237.437 31.1024 237.946 31.848L240.155 35.0764Z" fill="#59C69F"/>
<path d="M110.641 82.0039C110.982 82.0197 111.316 82.0277 111.642 82.0435C114.614 82.218 117.586 82.3767 120.558 82.5195C132.582 83.0985 144.883 83.4713 157.121 83.6062C157.129 83.6062 157.137 83.6062 157.137 83.6062C158.003 83.6062 158.392 82.9478 158.4 82.2974C158.408 81.6152 158.011 80.9251 157.105 80.9092C146.004 80.7823 134.854 80.4729 123.967 79.9811C121.186 79.8542 118.397 79.7194 115.615 79.5687C114.272 79.4973 112.929 79.4259 111.586 79.3465C111.284 79.3307 110.959 79.3228 110.633 79.3228C109.735 79.3069 108.813 79.291 107.979 79.0372C106.771 78.6644 106.803 77.649 106.826 76.832C106.834 76.6892 106.834 76.5465 106.834 76.4037L106.795 64.1562C106.795 63.2678 106.111 62.8633 105.436 62.8633C105.436 62.8633 105.436 62.8633 105.428 62.8633C104.76 62.8633 104.085 63.2599 104.093 64.1483L104.117 73.0563C104.117 73.5322 104.093 74.0557 104.069 74.5951C103.974 76.594 103.87 78.8627 105.022 80.2667C106.342 81.8531 108.622 81.9325 110.641 82.0039Z" fill="#F7C300"/>
<path d="M303.856 224.952C301.822 222.984 299.001 221.834 295.234 221.438C294.956 221.414 294.646 221.533 294.384 221.779C294.09 222.056 293.915 222.437 293.923 222.77C293.955 223.54 294.479 224.047 295.314 224.135C296.259 224.23 297.753 224.523 299.112 225.039L299.088 225.182L299.144 225.047L299.502 225.205V225.213C299.621 225.269 299.74 225.324 299.851 225.388C300.129 225.531 300.4 225.681 300.662 225.848C300.805 225.935 300.948 226.03 301.091 226.133L301.544 226.49C301.687 226.609 301.806 226.728 301.933 226.847C302.14 227.046 302.339 227.252 302.521 227.474L302.593 227.561C302.617 227.593 302.649 227.633 302.672 227.664L302.68 227.656C302.76 227.775 302.847 227.886 302.919 228.005C303.094 228.267 303.252 228.545 303.388 228.823L303.61 229.362C304.087 230.79 304.031 232.114 303.928 233.582C303.904 233.883 304.039 234.209 304.301 234.47C304.572 234.748 304.953 234.907 305.263 234.899C306.034 234.867 306.574 234.327 306.63 233.526C306.733 232.114 306.781 230.282 306.201 228.616C305.724 227.244 304.913 225.975 303.856 224.952Z" fill="#59C69F"/>
<path d="M4.46589 7.15491C4.85527 6.81383 5.24466 6.4886 5.64199 6.17131L6.03933 5.86989C6.24594 5.71917 6.45256 5.56846 6.66712 5.41775C8.32003 4.25963 10.1319 3.26017 12.0391 2.45107C12.2854 2.34795 12.4841 2.09412 12.5874 1.7689C12.7066 1.37228 12.6748 0.928076 12.492 0.642514C12.1583 0.150713 11.7371 0 11.3477 0C11.0537 0 10.7755 0.0872551 10.5769 0.17451C6.75453 1.78476 3.23415 4.28343 0.397185 7.38495C-0.0637221 7.89262 -0.182922 8.78103 0.373345 9.2887C0.659426 9.55046 1.06471 9.70117 1.46204 9.68531C1.69249 9.67738 2.01831 9.60599 2.2885 9.31249C2.9878 8.53513 3.72684 7.81329 4.46589 7.15491Z" fill="#59C69F"/>
<path d="M348.508 119.143C348.484 118.881 348.413 118.611 348.317 118.342C348.151 117.104 347.268 115.938 345.679 115.843C329.436 114.883 313.177 114.272 296.902 114.05C292.707 113.995 288.503 113.963 284.307 113.955C280.5 113.947 276.297 113.479 272.546 114.098C267.722 114.891 267.237 121.824 270.4 124.838C272.395 126.742 275.526 126.425 278.069 126.536C282.281 126.726 286.492 126.901 290.704 127.075C298.865 127.416 307.026 127.733 315.188 128.035C323.269 128.328 331.415 128.9 339.505 128.852C342.103 128.836 345.266 128.884 347.07 126.742C348.715 124.775 348.747 121.538 348.508 119.143Z" fill="#59C69F"/>
<path d="M342.644 139.243C342 148.23 341.706 157.234 341.762 166.245C341.785 169.814 347.348 169.822 347.324 166.245C347.269 157.234 347.563 148.23 348.206 139.243C348.461 135.674 342.898 135.69 342.644 139.243Z" fill="#F7C300"/>
<path d="M347.786 239.142C347.698 236.231 348.716 231.876 347.444 229.203C346.395 226.998 343.654 226.72 341.452 226.633C337.995 226.498 332.719 226.3 329.445 227.537C328.602 227.855 327.649 228.489 327.506 229.473C327.101 232.114 327.569 234.899 327.522 237.572C327.466 241.149 327.14 244.703 326.584 248.241C326.25 250.374 328.118 251.763 329.747 251.715C330.089 251.945 330.51 252.143 331.058 252.294C333.498 252.952 336.708 252.294 339.235 252.191C341.484 252.096 344.202 252.373 346.355 251.628C347.206 251.334 348.151 250.652 348.294 249.692C348.819 246.329 347.889 242.553 347.786 239.142Z" fill="#F7C300"/>
<path d="M419.838 208.698C419.886 207.167 418.527 205.962 417.057 205.922C411.693 205.787 406.337 205.652 400.973 205.517C399.391 205.478 398.295 206.826 398.191 208.294C397.723 214.83 397.683 221.358 397.572 227.91C397.452 234.962 396.705 241.998 397.135 249.05C397.27 251.295 399.55 252.128 401.148 251.533C401.346 251.58 401.569 251.62 401.799 251.628C404.215 251.715 406.615 251.469 409.031 251.62C411.208 251.755 413.473 252.35 415.658 251.937C420.204 251.088 419.385 247.106 419.361 243.386C419.298 231.813 419.465 220.256 419.838 208.698Z" fill="#F7C300"/>
<path d="M456.552 152.49C455.678 144.407 446.777 138.03 438.878 142.004C433.88 144.518 432.338 149.547 433.617 154.093C432.68 160.47 435.199 167.53 442.852 167.974C446.658 168.196 450.584 165.951 453.301 163.445C456.385 160.605 456.981 156.504 456.552 152.49Z" fill="#59C69F"/>
<path d="M97.8785 202.63C96.3606 201.861 94.6124 201.9 93.182 202.654C92.7608 202.678 92.3237 202.781 91.9105 202.963C89.892 203.852 88.708 206.057 88.2789 208.143C87.7464 210.776 89.0576 212.641 91.4496 213.585C93.4919 214.394 95.8997 214.687 97.8944 213.577C99.8254 212.506 100.978 210.332 101.002 208.151C101.033 205.89 99.9366 203.669 97.8785 202.63Z" fill="#59C69F"/>
<path d="M101.009 186.052C100.08 182.434 95.1367 179.309 92.101 181.657C91.4335 181.498 90.7263 181.554 90.1621 181.974C86.1808 184.901 88.4376 191.676 92.4586 193.492C97.2664 195.666 102.305 191.112 101.009 186.052Z" fill="#F7C300"/>
<path d="M100.492 165.975C99.6896 163.016 97.25 160.502 93.976 161.271C91.0039 161.969 88.7947 164.071 88.5166 167.157C88.4053 168.362 89.3669 169.417 90.4874 169.782C91.5999 171.361 93.5071 172.368 95.4779 172.265C98.7122 172.099 101.39 169.275 100.492 165.975Z" fill="#59C69F"/>
<path d="M100.58 143.931C99.8414 141.797 97.7594 140.195 95.582 140.044C94.7397 139.553 93.6669 139.537 92.7371 140.005C86.8248 142.963 90.9491 153.68 97.2905 151.316C100.048 150.285 101.526 146.644 100.58 143.931Z" fill="#F7C300"/>
<path d="M102.13 122.689C100.35 118.294 95.0497 116.176 91.3069 119.698C89.6063 121.3 88.6686 123.609 88.9149 125.933C89.1613 128.209 90.8062 130.367 93.1584 130.47C93.9213 131.184 94.9226 131.692 96.1464 131.819C101.336 132.374 103.886 127.028 102.13 122.689Z" fill="#59C69F"/>
<path d="M44.4602 168.609C44.3013 167.506 44.0152 166.324 43.149 165.547C42.1954 164.698 40.9716 164.373 39.7161 164.523C38.9532 164.611 38.3095 164.777 37.7532 165.34C37.3797 165.713 37.0857 166.268 36.9824 166.824C36.9586 166.871 36.9188 166.903 36.895 166.951C36.4023 167.966 36.1718 168.862 36.0288 169.973C35.9493 170.6 36.3943 171.52 36.8473 171.932C37.4036 172.44 38.0552 172.717 38.8101 172.749C39.732 172.781 40.6776 172.86 41.5994 172.836C42.704 172.813 43.6576 172.281 44.2218 171.329C44.7384 170.465 44.6033 169.545 44.4602 168.609Z" fill="#F7C300"/>
<path d="M73.1009 182.3C71.9964 181.268 70.7328 181.34 69.366 181.617C69.1594 181.657 68.9607 181.681 68.7541 181.689C64.3199 180.808 58.2724 181.522 55.5229 181.49L38.7872 181.316C36.8244 181.292 34.3847 180.983 32.6206 181.657C31.0948 181.371 29.1955 182.244 29.0048 184.259C28.7426 187.019 28.2419 191.485 31.9054 191.993C34.0986 192.294 36.7687 191.668 39.0176 191.62C41.5288 191.564 44.0399 191.549 46.5511 191.509C52.074 191.43 57.597 191.327 63.1199 191.477C66.0443 191.557 72.0361 192.691 73.4109 189.145C73.8877 187.924 74.0545 186.892 73.983 186.012C74.0228 185.917 74.0545 185.822 74.0784 185.718C74.3724 184.402 74.0863 183.212 73.1009 182.3Z" fill="#59C69F"/>
<path d="M334.372 63.5454C334.062 59.9045 332.488 55.8749 331.503 52.3529C330.899 50.1874 330.438 48.601 328.213 47.657C324.987 46.2768 321.045 45.8643 317.66 44.8331C313.957 43.6988 310.301 42.4138 306.717 40.9701C302.911 39.4392 299.176 37.71 295.528 35.8221C292.954 34.4894 290.069 32.1494 287.002 32.6254C284.34 33.0378 281.669 35.1716 279.365 36.4804C277.132 37.7496 273.715 38.9791 272.833 41.6761C271.863 44.6428 274.136 48.3392 275.225 50.9727C276.631 54.3757 278.125 57.7469 279.738 61.0546C283.187 68.1223 287.169 74.9044 291.563 81.4247C292.485 82.797 293.979 83.1222 295.457 82.448C301.647 79.6241 308.259 78.0059 314.744 76.0308C317.867 75.0789 320.958 74.0239 323.97 72.7548C326.211 71.8029 329.93 70.621 331.36 68.4793C331.455 68.3285 331.527 68.1858 331.598 68.035C333.609 66.988 334.571 65.9013 334.372 63.5454Z" fill="#F7C300"/>
<path d="M50.7066 214.584C47.9888 209.531 42.0129 209.531 36.9191 209.761C35.2264 209.84 34.3444 211.133 34.2569 212.45C32.4848 213.91 32.5881 216.496 32.4848 218.606C32.2862 222.595 30.7842 230.924 36.2833 231.845C40.7414 232.59 46.2246 230.901 49.2046 227.482C52.2005 224.039 52.8681 218.613 50.7066 214.584Z" fill="#F7C300"/>
<path d="M37.2289 97.7336C33.6529 97.7336 33.645 103.286 37.2289 103.286C40.8049 103.286 40.8129 97.7336 37.2289 97.7336Z" fill="#59C69F"/>
<path d="M38.2621 111.083C34.6861 111.083 34.6782 116.636 38.2621 116.636C41.8381 116.636 41.8461 111.083 38.2621 111.083Z" fill="#59C69F"/>
<path d="M37.436 122.467C33.86 122.467 33.852 128.019 37.436 128.019C41.012 128.019 41.0199 122.467 37.436 122.467Z" fill="#59C69F"/>
<path d="M46.1138 57.406C44.8106 55.1057 40.0823 54.5266 37.8254 55.3674C37.2056 55.5975 36.7288 55.9703 36.3632 56.4303C35.2428 56.6842 34.2653 57.5409 34.2335 59.0242C34.17 61.6895 34.1143 64.3626 34.0507 67.0279C33.9951 69.3044 36.4109 70.2563 38.2386 69.4234C40.7339 68.297 44.8264 69.5821 45.9469 66.1633C46.3999 64.791 46.3522 63.1569 46.4317 61.7291C46.5191 60.3727 46.8131 58.6355 46.1138 57.406Z" fill="#59C69F"/>
<path d="M67.7203 59.04C67.4422 55.3039 63.2145 55.1928 60.2822 55.2325C59.5908 55.2404 58.8995 55.5418 58.375 56.0098C56.8174 55.7163 55.0135 56.5889 55.0453 58.6275C55.0692 60.2695 55.093 61.9114 55.1248 63.5614C55.1566 65.2509 55.2599 66.9881 56.587 68.2176C57.8902 69.4154 59.5034 69.0346 61.0848 68.8284C62.5311 68.638 64.3191 68.7015 65.6144 67.9479C67.1004 67.0754 67.3389 65.4413 67.4978 63.8945C67.6567 62.316 67.8395 60.6264 67.7203 59.04Z" fill="#F7C300"/>
<path d="M86.9917 64.8066C86.9043 64.061 86.7135 63.3867 86.7533 62.6332C86.801 61.7844 86.9361 60.9515 86.7056 60.1028C85.6964 56.4222 80.2449 56.7315 77.3285 57.7072C75.6915 56.8267 73.1088 57.5962 73.0929 60.0314C73.0691 62.9266 72.9499 67.567 75.5405 69.5342C76.9948 70.6368 78.7987 69.9309 80.4595 69.9309C82.2872 69.9309 84.1627 70.3116 85.6487 68.9234C86.793 67.8605 87.1665 66.3217 86.9917 64.8066Z" fill="#59C69F"/>
<path d="M30.554 28.9608C30.411 26.3907 28.917 23.6858 26.2151 23.1782C25.9767 23.1306 25.7383 23.1147 25.5079 23.1068C24.7211 22.4167 23.5848 22.139 22.4007 22.7974C17.442 25.5658 14.7957 32.4669 20.1438 36.3695C25.4681 40.2564 30.856 34.4023 30.554 28.9608Z" fill="#F7C300"/>
<path d="M285.595 183.283L285.825 183.609C285.666 183.775 285.555 183.981 285.46 184.291C285.269 184.933 285.237 185.592 285.205 186.29L285.158 186.861C285.094 206.549 285.007 220.057 284.903 228.077L284.895 228.481L282.599 228.418C276.543 228.251 270.48 228.077 264.425 227.942C255.389 227.736 245.83 227.545 236.007 227.379C231.51 227.3 227.012 227.236 222.506 227.165L215.823 227.07C215.449 227.062 215.076 227.054 214.694 227.046C213.947 227.022 213.177 227.006 212.43 227.03C212.001 227.038 211.579 227.006 211.166 226.974C210.634 226.935 210.125 226.895 209.632 226.943C208.901 227.022 208.289 227.323 207.94 227.775C207.797 227.958 207.693 228.172 207.574 228.402C207.487 228.577 207.391 228.751 207.288 228.918C206.724 229.814 205.715 230.472 204.459 230.766C202.806 231.147 201.018 231.083 199.286 231.02C198.61 230.996 197.951 230.972 197.307 230.972L170.431 231.067C169.732 231.067 169.041 231.075 168.341 231.083C166.879 231.099 165.361 231.115 163.875 231.083C162.962 231.059 162 230.988 161.15 230.623C160.291 230.25 159.695 229.568 159.552 228.799C159.505 228.521 159.513 228.243 159.521 227.982C159.529 227.585 159.544 227.244 159.362 227.03C158.972 226.562 157.574 226.538 156.819 226.522C156.644 226.522 156.485 226.514 156.35 226.506C155.396 226.459 154.427 226.467 153.481 226.475C153.012 226.475 152.543 226.483 152.075 226.475L144.97 226.427C140.234 226.395 135.498 226.364 130.754 226.34L117.395 226.26C105.722 226.189 93.3963 226.284 79.7201 226.546C79.1082 226.554 79.0049 226.554 78.5281 216.765C78.2976 211.879 77.9718 205.184 77.503 204.391C77.3997 204.209 77.2328 203.995 77.0579 203.971C76.8593 203.947 76.605 204.201 76.4858 204.351C74.666 206.572 74.9044 210.658 75.0951 213.934C75.1507 214.917 75.2064 215.853 75.2064 216.67V217.575C75.2064 218.78 75.2064 220.954 75.2064 222.818C75.1984 226.641 75.1984 226.641 74.7852 226.649L73.7839 226.673C73.6011 226.887 73.4581 227.157 73.3707 227.482L73.2992 228.093C73.2992 228.093 73.3071 228.228 73.323 228.291C73.3389 228.355 73.3548 228.418 73.3786 228.481C73.4422 228.632 73.4899 228.719 73.5455 228.807L73.5137 228.846L73.5773 228.894L73.6011 228.878L73.6727 228.957C73.6886 228.973 73.7044 228.989 73.7203 228.997L73.7521 229.021C73.9031 229.124 73.9905 229.164 74.0859 229.211L74.213 229.259C74.3799 229.314 74.4753 229.33 74.5786 229.354L74.6422 229.37C85.9264 229.005 98.2041 228.862 112.174 228.934C126.78 229.013 141.386 229.1 155.992 229.203L156.819 229.211L156.89 229.521C157.208 230.94 158.249 232.225 159.688 232.955C161.491 233.867 163.629 233.836 165.695 233.804C166.021 233.796 166.339 233.796 166.657 233.796L200.827 233.677C203.061 233.677 205.365 233.669 207.312 232.614C208.464 231.988 209.346 231.067 209.863 229.957L209.974 229.727H210.228C223.332 229.893 234.045 230.052 243.938 230.234L247.681 230.306C255.04 230.457 262.39 230.599 269.749 230.782C274.096 230.885 278.451 230.996 282.797 231.115C284.975 231.178 287.144 231.234 289.322 231.297C289.854 231.313 290.395 231.305 290.927 231.305C292.5 231.289 294.129 231.282 295.703 231.781C296.06 231.892 296.426 232.043 296.696 232.352C297.006 232.709 297.086 233.169 297.117 233.614C297.173 234.335 297.165 235.065 297.094 235.787C296.99 236.779 296.768 237.754 296.434 238.69C296.331 238.984 296.188 239.285 295.91 239.484C295.663 239.658 295.377 239.69 295.17 239.721C291.475 240.229 287.923 240.531 284.323 240.642C280.549 240.761 276.663 240.848 272.435 240.895C264.544 240.999 256.613 240.975 249.231 240.935C234.625 240.856 220.019 240.769 205.413 240.665C181.374 240.499 149.651 240.229 117.475 239.634C101.2 239.634 85.2033 239.079 73.0608 238.587C73.0051 238.627 72.9575 238.674 72.9177 238.722C72.8859 238.762 72.7985 238.936 72.7667 239.119C72.7588 239.158 72.7588 239.182 72.7588 239.269C72.7588 239.325 72.7588 239.372 72.7667 239.46C72.7747 239.507 72.7985 239.595 72.8462 239.69C72.8541 239.698 72.878 239.737 72.9018 239.785C72.9733 239.896 72.9734 239.904 73.1402 240.055L73.2992 240.182C73.3866 240.237 73.4819 240.301 73.5694 240.348C73.7283 240.443 73.9587 240.546 74.07 240.586C75.556 241.165 77.0738 241.268 78.6791 241.379L79.3148 241.427C79.4102 241.435 79.4817 241.459 79.5453 241.475L80.1572 241.49C84.8934 241.617 89.6375 241.736 94.3738 241.847C103.512 242.062 112.818 242.252 122.815 242.426C133.026 242.601 143.913 242.76 156.096 242.91C186.031 243.267 216.848 243.442 244.034 243.6H244.288C253.411 243.656 262.843 243.711 272.117 243.6C277.211 243.537 281.852 243.434 286.286 243.275C286.977 243.251 287.748 243.259 288.575 243.267C291.658 243.299 295.496 243.339 297.634 241.594C297.833 241.427 298.015 241.252 298.166 241.07C298.754 240.356 299.056 239.412 299.287 238.579C299.78 236.81 300.264 234.51 299.621 232.416C299.462 231.908 299.247 231.448 298.985 231.059C297.674 229.124 295.163 228.791 292.866 228.719C292.039 228.696 291.213 228.672 290.395 228.656C289.655 228.64 288.916 228.616 288.177 228.6L287.78 228.592L287.788 228.196C287.987 219.581 288.122 204.645 288.209 183.791C288.185 183.751 288.161 183.704 288.138 183.664C288.114 183.632 288.09 183.601 288.074 183.561C288.026 183.505 287.971 183.45 287.915 183.394C287.891 183.378 287.867 183.363 287.844 183.347C287.732 183.315 287.653 183.299 287.573 183.283C287.542 183.283 287.51 183.283 287.486 183.275L287.367 183.267C287.256 183.26 287.144 183.267 287.041 183.275C286.858 183.291 286.755 183.307 286.548 183.355C286.445 183.378 286.342 183.402 286.246 183.442L286.127 183.482C286.04 183.513 285.976 183.545 285.913 183.585L285.595 183.283Z" fill="#1E1E1E"/>
<path d="M117.395 89.2858C114.892 89.2699 112.659 89.262 110.609 89.262C101.406 89.262 95.9946 89.4047 86.8559 89.6427C84.5752 89.7062 82.072 89.7696 79.2271 89.841C78.5675 89.8569 76.3504 90.0314 75.667 91.6258C75.4524 92.1334 75.4286 92.7363 75.4048 93.3154C75.3015 96.2265 75.3253 99.2011 75.3412 102.081C75.3491 103.437 75.3571 104.793 75.3571 106.142C75.3412 115.954 75.3253 125.758 75.3094 135.563C75.3015 138.783 75.3094 142.012 75.3094 145.232C75.3094 151.871 75.3173 158.741 75.2617 165.491C75.2617 165.578 75.2617 165.682 75.2856 165.729C75.3094 165.777 75.3968 165.848 75.4286 165.864C76.0405 166.332 76.8749 166.491 77.6139 166.284C77.6378 166.276 77.6537 166.276 77.6696 166.269C77.6616 166.261 77.6616 166.229 77.6616 166.213C77.6457 154.092 77.6775 141.813 77.7649 129.724C77.8364 119.746 77.9239 110.679 78.0351 101.993C78.0431 101.137 78.051 100.288 78.051 99.4311C78.059 97.4322 78.0669 95.3698 78.1702 93.3471C78.1782 93.2281 78.1861 92.9901 78.3768 92.8077C78.5516 92.6332 78.7821 92.6253 78.9013 92.6173C94.1907 91.951 97.3614 91.8638 112.174 91.9351C126.78 92.0145 141.386 92.1017 155.992 92.2048L156.819 92.2128L156.89 92.5221C157.208 93.942 158.249 95.227 159.687 95.9568C161.483 96.869 163.621 96.8373 165.687 96.8056C166.013 96.7976 166.331 96.7976 166.649 96.7976L200.819 96.6786C203.052 96.6786 205.357 96.6707 207.304 95.6157C208.456 94.9891 209.338 94.0689 209.855 92.9584L209.966 92.7284H210.22C223.324 92.8949 234.036 93.0536 243.93 93.236L248.023 93.3154C255.262 93.4581 262.501 93.6089 269.741 93.7834C270.496 93.7992 270.933 93.8151 271.179 93.8548C271.449 93.8072 271.759 93.831 272.037 93.8627C272.149 93.8706 272.252 93.8865 272.339 93.8865C272.784 93.8944 273.222 93.9182 273.667 93.942C274.112 93.9658 274.564 94.0372 274.994 94.1007C275.367 94.1562 275.733 94.2117 276.106 94.2434C276.996 94.3148 277.934 94.3069 278.84 94.291C280.564 94.2752 282.344 94.2514 284.037 94.7828C284.395 94.8939 284.768 95.0446 285.03 95.354C285.34 95.7109 285.412 96.171 285.451 96.6073C285.531 97.575 285.491 98.5745 285.451 99.5343C285.436 100.01 285.42 100.486 285.412 100.954L285.372 105.539C285.372 105.801 285.364 106.094 285.475 106.3C285.602 106.538 285.92 106.697 286.286 106.721C286.747 106.729 287.192 106.57 287.518 106.261C288.106 105.698 288.145 104.762 288.129 103.849C288.122 102.826 288.106 101.795 288.09 100.772V100.581C288.074 99.2408 288.05 97.9002 288.002 96.5597C288.002 96.4486 288.002 96.3296 288.002 96.2106C288.002 95.9251 288.002 95.6236 287.939 95.4095C287.78 94.9018 287.565 94.4417 287.303 94.0531C285.992 92.1176 283.473 91.7844 281.184 91.713C276.647 91.5782 274.803 91.4513 273.023 91.3323C271.132 91.2054 269.351 91.0785 264.417 90.9674C255.294 90.7612 245.734 90.5708 235.999 90.4042L235.387 90.3963C226.431 90.2456 217.166 90.0869 208.051 90.1187C204.88 90.1266 201.709 90.1583 198.539 90.19C192.467 90.2456 186.189 90.309 180.015 90.2138L179.18 90.198C174.587 90.1186 170.137 89.9521 165.202 89.7696C160.824 89.6031 156.238 89.5079 151.2 89.4761L117.395 89.2858ZM181.151 93.5137C181.278 93.2757 181.469 93.0774 181.723 92.887L181.874 92.776C182.311 92.4587 182.852 92.0541 183.583 92.2524C183.853 92.3238 184.044 92.4587 184.195 92.5856C184.322 92.6887 184.441 92.8315 184.544 92.9981C184.64 93.1567 184.711 93.3312 184.751 93.5057C184.799 93.712 184.815 93.8944 184.799 94.0531C184.791 94.18 184.775 94.3148 184.735 94.4338C184.703 94.5369 184.664 94.64 184.624 94.7352C184.417 95.1953 184.052 95.4888 183.774 95.6633C183.456 95.8616 183.082 95.9727 182.749 95.9727C182.717 95.9727 182.685 95.9727 182.653 95.9727C182.51 95.9647 182.319 95.9409 182.129 95.8696C181.898 95.7823 181.731 95.6792 181.541 95.5285C181.294 95.3222 181.104 95.0208 181.016 94.6956C180.968 94.5131 180.945 94.3386 180.953 94.18C180.976 93.942 181.048 93.712 181.151 93.5137Z" fill="#1E1E1E"/>
<path d="M92.5776 131.739C93.9763 132.072 95.3351 131.842 96.4079 131.081C97.4092 130.375 98.3231 129.367 99.0542 128.17C100.5 125.798 100.588 123.006 99.2846 120.872C97.7033 118.27 94.4769 117.088 91.6081 118.056C90.9883 118.262 90.44 118.929 90.6228 119.642L90.8214 120.396L90.0983 120.118C89.9155 120.047 89.7009 120.007 89.5023 120.007C89.1844 120.007 88.8824 120.111 88.6838 120.364C87.2136 122.213 86.8163 124.568 87.5871 126.837C88.4374 129.312 90.3526 131.2 92.5776 131.739ZM89.8996 124.053C89.9473 123.402 90.138 122.792 90.5274 122.316C91.0121 121.721 90.9009 121.015 90.8373 120.317C91.1393 120.61 91.5923 120.69 92.0134 120.658C92.4346 120.626 92.8399 120.507 93.2531 120.452C94.2782 120.325 95.3431 120.626 96.1457 121.284C96.9404 121.935 97.449 122.926 97.5205 123.95C97.6397 125.639 96.6225 127.21 95.4226 128.408C95.1444 128.685 94.8504 128.955 94.4928 129.09C93.9445 129.304 93.3167 129.185 92.7684 128.947C92.0849 128.654 91.4731 128.186 91.0201 127.599C91.0678 127.551 91.1234 127.495 91.1711 127.448C91.1393 127.551 90.9804 127.488 90.9088 127.4C90.2413 126.567 89.8201 125.243 89.8996 124.053Z" fill="#1E1E1E"/>
<path d="M99.1577 162.731C97.5763 160.129 94.342 158.947 91.4812 159.915C90.8614 160.121 90.313 160.787 90.4958 161.501L90.6945 162.255L89.9713 161.977C89.7886 161.906 89.574 161.858 89.3674 161.858C89.0654 161.858 88.7634 161.953 88.5568 162.215C87.0867 164.063 86.6893 166.419 87.4602 168.688C88.3184 171.194 90.2336 173.082 92.4586 173.614C93.8572 173.947 95.2161 173.717 96.2889 172.955C97.2902 172.249 98.2041 171.242 98.9352 170.044C100.366 167.665 100.453 164.864 99.1577 162.731ZM97.3697 166.562C97.2107 167.926 96.3684 169.18 95.4307 170.131C95.2797 170.282 95.1287 170.433 94.9698 170.568C94.8824 170.631 94.8267 170.679 94.8109 170.687C94.4612 170.909 94.1513 171.06 93.7222 171.06C93.301 171.06 92.8878 170.948 92.5143 170.774C91.2666 170.195 90.3687 168.997 89.9793 167.688C89.8601 167.3 89.7886 166.903 89.7727 166.498C89.7488 165.864 89.876 165.229 90.1462 164.65C90.2812 164.349 90.4958 164.103 90.6547 163.817C90.7978 163.564 90.8455 163.191 90.8057 162.905L90.6945 162.199L91.354 162.485C91.6322 162.604 91.9024 162.62 92.1646 162.532C92.3871 162.461 92.6096 162.397 92.8401 162.342C93.9923 162.048 95.3592 162.524 96.2095 163.326C97.0359 164.103 97.4809 165.253 97.4015 166.379C97.3856 166.443 97.3776 166.498 97.3697 166.562Z" fill="#1E1E1E"/>
<path d="M92.8007 139.656C91.561 139.656 90.3134 139.957 89.1849 140.568C88.8432 140.75 88.5969 141.139 88.5412 141.583L88.5174 141.79L88.3346 141.885C87.4764 142.329 86.785 143.249 86.5228 144.272C86.2049 145.502 86.4115 146.874 87.095 148.135C88.6446 150.983 92.0457 151.649 93.937 151.792C96.2495 151.959 99.2295 151.213 100 148.484C100.66 146.152 99.6984 143.201 97.7276 141.472C96.3449 140.274 94.5807 139.656 92.8007 139.656ZM96.7263 148.564C96.027 149.151 94.9781 149.182 94.0483 149.103C92.7848 148.992 91.4895 148.73 90.4802 147.969C89.7889 147.453 89.2644 146.66 89.1293 145.803C89.0737 145.43 89.0498 144.955 89.2644 144.637C89.5107 144.264 89.9796 144.241 90.3054 143.971C90.671 143.677 90.9014 143.209 90.8617 142.741C92.1173 142.17 93.6192 142.186 94.8589 142.789C96.0985 143.384 97.0442 144.558 97.37 145.891C97.5846 146.763 97.5051 147.77 96.8853 148.421C96.8296 148.469 96.782 148.516 96.7263 148.564Z" fill="#1E1E1E"/>
<path d="M97.0752 147.35L97.1864 147.382L97.2023 147.374L97.0752 147.35Z" fill="#1E1E1E"/>
<path d="M94.1193 181.562C93.3485 181.308 92.4744 181.149 91.6082 181.149C89.9791 181.149 88.358 181.721 87.4441 183.323C86.2442 185.433 86.4667 188.526 87.9686 190.676C89.7486 193.214 92.9909 194.396 96.0345 193.611C96.408 193.516 96.7417 193.199 96.9007 192.778L96.9722 192.588L97.1708 192.54C98.1086 192.31 98.9986 191.588 99.4992 190.652C100.103 189.534 100.23 188.154 99.8727 186.765C99.0622 183.624 95.9232 182.157 94.1193 181.562ZM97.3457 188.717C97.3298 188.836 97.298 188.955 97.2662 189.066C97.155 189.423 96.9245 189.78 96.5669 189.875C96.408 189.915 96.2331 189.899 96.0663 189.915C95.4385 189.986 95.1365 190.549 94.9378 191.081C93.4756 191.366 91.8942 190.89 90.8214 189.867C89.7486 188.836 89.2162 187.281 89.4387 185.814C89.4705 185.599 89.5182 185.385 89.6056 185.187C89.7089 184.957 89.852 184.743 90.0029 184.536C90.3526 184.053 90.7579 183.838 91.3618 183.807C92.1326 183.767 92.8876 183.973 93.6187 184.227C94.6756 184.6 95.7087 185.123 96.4556 185.956C97.1073 186.71 97.5046 187.749 97.3457 188.717Z" fill="#1E1E1E"/>
<path d="M87.9134 204.954C87.7068 205.256 87.5161 205.573 87.3413 205.914C86.9678 206.612 86.6102 207.326 86.4671 208.095C86.2049 209.515 86.7214 211.038 87.7227 212.077C89.3359 213.751 91.8868 214.005 94.088 213.704C95.6455 213.497 97.1713 212.855 98.2759 211.744C99.3805 210.634 100.024 209.023 99.7937 207.469C99.7142 206.913 99.5235 206.382 99.4282 205.827C99.2295 204.645 99.1739 203.677 98.2997 202.765C96.9647 201.186 94.9621 200.822 93.0231 201.337C90.7822 201.948 89.1293 203.138 87.9134 204.954ZM95.6932 204.153C96.2654 205.763 97.8547 208.143 97.06 209.729C95.4707 212.109 89.1134 212.109 88.9465 208.5C88.9068 208.119 88.9385 207.731 89.0498 207.358C89.7888 204.716 93.7701 202.456 95.3595 203.994L95.6932 204.153Z" fill="#1E1E1E"/>
<path d="M187.001 123.791C162.461 123.014 137.58 122.768 113.057 123.053C112.342 123.061 111.984 123.442 111.809 123.759C111.523 124.267 111.531 124.965 111.817 125.457C111.992 125.758 112.35 126.091 113.049 126.099C119.645 126.02 126.264 125.98 132.9 125.98C150.947 125.98 169.073 126.266 187.033 126.837C188.066 126.853 188.455 126.099 188.479 125.433C188.495 124.664 188.05 123.823 187.001 123.791Z" fill="#1E1E1E"/>
<path d="M112.135 146.787H161.444C162.453 146.787 162.906 146.025 162.906 145.264C162.906 144.51 162.453 143.741 161.444 143.741H112.135C111.126 143.741 110.673 144.502 110.673 145.264C110.673 146.025 111.126 146.787 112.135 146.787Z" fill="#1E1E1E"/>
<path d="M172.164 146.12H233.449C234.927 146.12 235.603 145.327 235.603 144.597C235.603 143.868 234.927 143.074 233.449 143.074H172.164C170.686 143.074 170.011 143.868 170.011 144.597C170.019 145.327 170.686 146.12 172.164 146.12Z" fill="#1E1E1E"/>
<path d="M144.175 162.802C133.622 162.802 122.981 163.254 112.492 164.143C111.689 164.214 111.332 164.737 111.189 165.039C110.926 165.594 110.958 166.268 111.268 166.713C111.514 167.07 111.912 167.236 112.428 167.189C123.959 166.213 135.664 165.761 147.243 165.856C147.251 165.856 147.251 165.856 147.259 165.856C148.244 165.856 148.689 165.11 148.697 164.365C148.705 163.627 148.252 162.818 147.235 162.81C146.218 162.802 145.192 162.802 144.175 162.802Z" fill="#1E1E1E"/>
<path d="M252.632 163.548C252.688 162.786 252.449 161.961 251.917 161.929C248.412 161.691 244.884 161.573 241.348 161.573C237.422 161.573 233.497 161.723 229.587 162.017C228.967 162.064 228.585 163.127 228.657 164.039C228.673 164.214 228.752 165.134 229.309 165.055C236.771 164.492 244.328 164.46 251.758 164.968C252.259 165.007 252.585 164.277 252.632 163.548Z" fill="#1E1E1E"/>
<path d="M162.572 162.461C161.619 162.461 161.174 163.183 161.158 163.913C161.142 164.666 161.595 165.491 162.628 165.507C179.761 165.848 197.132 165.737 214.257 165.19C214.98 165.166 215.346 164.769 215.521 164.436C215.807 163.905 215.791 163.222 215.489 162.739C215.314 162.453 214.957 162.128 214.281 162.144C197.14 162.691 179.753 162.802 162.604 162.461C162.596 162.461 162.58 162.461 162.572 162.461Z" fill="#1E1E1E"/>
<path d="M190.386 188.201C191.077 188.201 191.427 187.844 191.602 187.551C191.896 187.059 191.896 186.361 191.609 185.853C191.435 185.544 191.069 185.163 190.362 185.163L110.124 184.529C110.116 184.529 110.116 184.529 110.108 184.529C109.417 184.529 109.067 184.886 108.893 185.179C108.598 185.679 108.591 186.369 108.885 186.877C109.059 187.186 109.425 187.567 110.132 187.567H110.45L190.37 188.201C190.37 188.201 190.378 188.201 190.386 188.201Z" fill="#1E1E1E"/>
<path d="M107.835 206.866C107.843 207.611 108.288 208.357 109.273 208.357C109.281 208.357 109.281 208.357 109.289 208.357L132.192 208.159C133.209 208.151 133.662 207.35 133.654 206.604C133.646 205.858 133.193 205.081 132.2 205.113L109.297 205.311C108.28 205.319 107.827 206.12 107.835 206.866Z" fill="#1E1E1E"/>
<path d="M224.969 126.028C224.961 125.282 224.484 124.513 223.515 124.537L200.613 124.735C199.596 124.743 199.143 125.544 199.15 126.29C199.158 127.035 199.603 127.781 200.589 127.781C200.597 127.781 200.597 127.781 200.605 127.781L223.507 127.583C224.524 127.575 224.977 126.774 224.969 126.028Z" fill="#1E1E1E"/>
<path d="M144.351 208.222C164.329 208.682 184.569 208.524 204.523 207.746C205.31 207.715 205.675 207.231 205.826 206.945C206.112 206.406 206.104 205.732 205.802 205.256C205.556 204.875 205.143 204.669 204.634 204.7C184.672 205.478 164.408 205.636 144.414 205.176C144.398 205.176 144.383 205.176 144.367 205.176C143.691 205.176 143.342 205.525 143.159 205.819C142.857 206.311 142.841 207.009 143.119 207.516C143.294 207.834 143.644 208.207 144.351 208.222Z" fill="#1E1E1E"/>
<path d="M238.892 185.647C238.86 185.139 238.685 184.6 238.391 184.6C238.383 184.6 238.383 184.6 238.375 184.6C227.33 185.385 216.141 185.552 205.119 185.1H205.111C204.777 185.1 204.475 185.758 204.443 186.583C204.411 187.432 204.666 188.13 205.015 188.146C216.006 188.598 227.163 188.431 238.177 187.646C238.606 187.606 238.964 186.623 238.892 185.647Z" fill="#1E1E1E"/>
<path d="M274.43 50.3065C274.756 51.3298 275.09 52.3927 275.487 53.4001C276.512 56.0019 277.847 58.5481 279.142 61.0071C279.54 61.7607 279.937 62.5143 280.327 63.2758C282.846 68.1938 285.373 73.1118 287.9 78.0298L290.689 83.3603V83.4793C290.681 83.9949 291.031 84.5343 291.492 84.7405C291.746 84.8516 292.135 84.8992 292.549 84.5025C296.522 80.6871 301.783 79.1165 306.876 77.5856C308.14 77.2048 309.443 76.8162 310.699 76.3958C317.144 74.2461 322.833 70.3752 328.34 66.6311C328.968 66.2028 329.604 65.7744 330.232 65.3461L330.319 65.2985C330.581 65.2033 330.788 65.0526 330.931 64.8384L330.995 64.767C331.519 64.2832 331.249 63.7438 331.106 63.5375L331.05 63.4582L331.034 63.363C330.383 58.6909 329.834 53.9236 329.413 49.1801L329.405 49.0929L329.437 49.0056C329.556 48.6804 329.556 48.3314 329.421 48.0617C329.302 47.8078 329.079 47.6333 328.77 47.5223C314.95 42.8184 301.059 37.7735 287.479 32.5461C287.089 32.3954 286.74 32.4509 286.43 32.7048L286.302 32.8079L286.144 32.792C286.088 32.7841 286.032 32.7841 285.977 32.7841C285.015 32.7841 284.093 33.4821 283.275 34.1088L283.084 34.2595C281.908 35.1479 280.732 36.076 279.587 37.0041C277.339 38.8444 275.098 40.8274 272.936 42.8978L272.801 43.0723L272.706 43.104C272.34 43.2309 272.062 43.4768 271.967 43.7624C271.879 44.0083 271.919 44.27 272.094 44.5556C273.182 46.3642 273.818 48.371 274.43 50.3065ZM326.163 65.2192C320.338 69.1457 315.006 72.5565 308.672 74.5713C307.989 74.7855 307.306 74.9997 306.622 75.2138C303.888 76.0626 301.067 76.9431 298.421 78.0695L296.585 78.8468L315.3 59.7459L315.546 59.849C319.806 61.6576 323.064 63.1013 326.107 64.5291L326.743 64.8226L326.163 65.2192ZM327.291 51.5598C327.689 55.6687 328.086 59.0955 328.515 62.3477L328.611 63.0695L327.951 62.7602C324.899 61.3165 321.633 59.8649 317.676 58.1832L317.016 57.9056L327.228 50.8935L327.291 51.5598ZM314.402 45.5233L314.473 45.0474L314.926 45.214C318.01 46.3166 321.316 47.4747 325.027 48.7597L325.774 49.0135L315.244 56.2398L315.117 55.6687C314.458 52.6703 313.854 49.1246 314.402 45.5233ZM296.26 75.8008L296.872 74.0875C297.841 71.3826 298.66 68.5507 299.446 65.8141C300.455 62.2922 301.504 58.6592 302.911 55.1928L303.054 54.8358L303.42 54.9707C306.416 56.105 309.443 57.3028 312.407 58.5323L312.948 58.7544L296.26 75.8008ZM312.606 55.4387L312.765 56.1684L310.532 55.2642C308.529 54.4551 306.455 53.6143 304.405 52.8369L303.745 52.591L309.189 48.2917C309.761 47.8316 310.333 47.3795 310.921 46.9432C310.969 46.9115 311.017 46.8718 311.072 46.8401L311.835 46.2928L311.787 47.1257C311.644 49.5212 311.899 52.1626 312.606 55.4387ZM301.52 40.3277C304.238 41.3351 306.956 42.3187 309.682 43.3023L311.35 43.9051L310.611 44.3335C309.467 44.9919 308.402 45.8565 307.369 46.6814C307.107 46.8956 306.845 47.1019 306.582 47.3081L302.212 50.7428L301.52 45.4995C301.274 43.6275 301.107 42.1125 300.988 40.7243L300.932 40.0977L301.52 40.3277ZM300.805 54.0347L300.654 54.4154C299.311 57.7232 298.318 61.2451 297.348 64.656C296.283 68.4159 295.187 72.2948 293.613 75.9277L293.121 77.0621L292.858 75.8564C291.301 68.7252 291.039 61.261 290.784 54.0505C290.753 53.059 290.713 52.0675 290.673 51.0839L290.649 50.5127L291.198 50.6952C294.623 51.8454 297.475 52.8131 300.416 53.8998L300.805 54.0347ZM298.604 40.6371L298.675 41.4541C298.826 43.0564 299.009 44.6984 299.24 46.4673L299.844 51.068L299.24 50.9173C297.046 50.132 294.495 49.2198 291.968 48.379L291.412 48.1965L291.786 47.7523C293.59 45.6027 295.624 43.4609 298 41.2002L298.604 40.6371ZM288.432 35.4573C290.109 36.0998 291.794 36.7264 293.486 37.3452C294.519 37.7259 295.544 38.1067 296.577 38.4953L297.174 38.7174L296.713 39.1537C294.75 41.0019 292.835 42.9929 291.015 45.0712L290.498 45.6661L290.331 44.8967C289.966 43.2309 289.481 41.5493 289.012 39.9311C288.639 38.6223 288.249 37.2738 287.916 35.9253L287.733 35.1876L288.432 35.4573ZM276.806 42.636C277.943 41.5889 279.127 40.5022 280.334 39.4948C281.312 38.6857 282.313 37.8766 283.322 37.0913C283.839 36.6947 284.356 36.2981 284.872 35.9094L285.357 35.5445L285.5 36.1315C285.834 37.4959 286.255 38.884 286.66 40.2246C287.288 42.287 287.932 44.4207 288.297 46.5704L288.408 47.2129L287.788 47.0146C284.745 46.0469 280.732 44.7936 276.607 43.6434L275.924 43.453L276.806 42.636ZM276.083 45.9675C279.929 47.0463 283.823 48.2282 287.995 49.5847L288.257 49.6719L288.265 49.9495C288.321 51.3536 288.369 52.7655 288.416 54.1775C288.663 61.4434 288.917 68.9553 290.466 76.1023L291.102 79.0531L289.72 76.364C287.312 71.676 284.904 66.9881 282.496 62.2922C282.107 61.5386 281.709 60.785 281.312 60.0315C280.056 57.6359 278.753 55.1611 277.728 52.6148C277.291 51.5281 276.925 50.4096 276.568 49.3229C276.266 48.3869 275.948 47.4191 275.59 46.4911L275.304 45.7534L276.083 45.9675Z" fill="#1E1E1E"/>
<path d="M32.6119 15.7377C32.5404 14.6827 32.2941 13.8577 31.8411 13.2152C31.0544 12.0968 29.5525 11.4384 27.7088 11.4067C26.5725 11.3987 25.4202 11.5098 24.3315 11.6208L24.1408 11.6367C23.6878 11.6843 23.2349 11.7319 22.7819 11.7636C21.5104 11.8588 21.28 13.0883 21.129 14.5716C21.0893 14.9762 21.0495 15.3411 20.9701 15.6028C20.9383 15.7218 20.835 16.0074 20.6045 16.1105C20.525 16.1581 20.382 16.166 20.2072 16.1264C19.7701 16.0312 19.4363 15.698 19.0787 15.3411C18.7688 15.0317 18.451 14.7065 18.0298 14.532C17.3384 14.2305 16.4563 14.3733 15.614 14.9286C14.5889 15.6028 13.826 16.4278 13.2141 17.1417C12.9836 17.4114 12.7294 17.6652 12.483 17.9191C11.9506 18.4584 11.4181 18.9899 11.0526 19.6721C10.5679 20.5843 10.2977 21.9407 11.0049 23.0195C11.1003 23.1702 11.2115 23.313 11.3307 23.4558C11.6486 23.8603 11.9506 24.2411 11.8393 24.6536C11.7201 25.074 11.1877 25.2723 10.7188 25.2881C10.544 25.2881 10.3612 25.2881 10.1864 25.2723C9.80497 25.2564 9.43148 25.2326 9.07388 25.3437C8.39841 25.534 7.83419 26.129 7.57195 26.9381C7.3415 27.6361 7.34945 28.3976 7.35739 29.0718L7.39713 33.0618C7.40507 33.7281 7.41302 34.5451 7.87393 35.1797C8.61297 36.195 10.1467 36.2109 10.9731 36.2109C11.2751 36.2109 11.5135 36.2268 11.6963 36.3457C11.8314 36.4409 11.9108 36.5758 11.9347 36.7582C11.9824 37.0755 11.8393 37.4959 11.593 37.7973C11.4738 37.9401 11.3466 38.067 11.2115 38.194C10.838 38.5588 10.5043 38.892 10.3533 39.3521C10.0513 40.2484 10.5917 41.1606 11.0923 41.8666C11.7201 42.7392 12.3956 43.5879 13.1028 44.3891C13.8419 45.222 14.6683 46.0628 15.7094 46.5149C16.9093 47.0305 18.2126 46.8957 19.0311 46.1738C19.1344 46.0866 19.2377 45.9835 19.333 45.8803C19.643 45.563 19.8973 45.3489 20.1833 45.3013L20.2231 45.2933H20.2628C20.7396 45.3013 21.0575 45.8962 21.1052 46.4594C21.121 46.6101 21.129 46.7608 21.129 46.9115C21.1449 47.4033 21.1687 47.9031 21.4469 48.3314C21.9793 49.1484 23.1792 49.204 23.7593 49.2357L29.0598 49.4895C29.2028 49.4975 29.3697 49.5054 29.5445 49.5054C30.6571 49.5054 31.3723 49.2119 31.7378 48.617C32.0239 48.149 32.0159 47.6016 32.0159 47.0781V46.7529C32.0239 46.4118 32.0954 45.6027 32.6596 45.3885C33.1523 45.1982 33.6053 45.571 34.1298 46.0073C34.6304 46.4277 35.1867 46.8798 35.8383 46.8005C36.1641 46.7608 36.4264 46.6022 36.7204 46.4118C38.421 45.3092 40.0262 44.04 41.5043 42.6598C42.7916 41.4462 43.2526 40.2643 42.7916 39.3283C42.6089 38.9555 42.2751 38.6302 41.9811 38.3447C41.5202 37.8925 41.1149 37.5038 41.25 37.0041C41.3692 36.552 41.9255 36.3219 42.4102 36.2585C42.5691 36.2347 42.736 36.2268 42.895 36.2188C43.3002 36.195 43.7294 36.1633 44.1187 35.9888C44.9055 35.6239 45.3902 34.7276 45.5491 33.3077C45.724 31.8005 45.6922 30.2775 45.6683 28.7942C45.6525 28.0644 45.5809 27.4616 45.4299 26.9539C45.1677 26.0576 44.7068 25.5182 44.0234 25.2961C43.6419 25.1771 43.2526 25.193 42.8791 25.2088C42.6407 25.2167 42.4579 25.2247 42.2751 25.2088C41.7745 25.1771 41.2261 24.8915 41.2103 24.4394C41.1944 24.0824 41.5043 23.8048 41.8301 23.5113C41.9413 23.4082 42.0526 23.3051 42.1559 23.2019C43.0459 22.2659 42.9983 20.8223 42.5532 19.8069C42.0923 18.7361 41.2103 17.8953 40.3282 17.1496C39.3666 16.3326 38.3495 15.5632 37.3084 14.8651C37.0065 14.6589 36.6965 14.4685 36.3469 14.413C35.5443 14.2861 34.9085 14.8175 34.2887 15.3331C33.8357 15.7059 33.4861 15.9836 33.1285 16.1026L32.6437 16.2612L32.6119 15.7377ZM33.9549 18.6409C34.1854 18.514 34.4397 18.2443 34.7099 17.9508C35.3297 17.2845 35.5681 17.0862 35.8065 17.0544L35.8939 17.0386L35.9813 17.0624C37.7455 17.6018 39.6448 19.569 40.2249 21.441C40.3202 21.7424 40.1136 22.02 39.4779 22.6546C38.9613 23.1702 38.4369 23.7017 38.4845 24.3521C38.5084 24.6536 38.6276 24.9233 38.7468 25.1771C38.7945 25.2881 38.8421 25.3754 38.8739 25.4706C38.9057 25.5578 38.9375 25.653 38.9693 25.7482C39.0805 26.0972 39.1839 26.4145 39.4064 26.6684C39.8196 27.1443 40.4394 27.2077 41.0434 27.2633C41.3771 27.295 41.6712 27.3267 41.9334 27.414C42.7916 27.6837 43.2367 28.4055 43.2923 29.6192L43.3082 29.9206C43.4353 31.8402 43.3718 33.1332 43.1413 33.5456L43.0618 33.6884L42.9029 33.736C42.7758 33.7757 42.6407 33.7677 42.3625 33.7439C41.3533 33.6726 40.3441 34.0374 39.5891 34.7355C39.1044 35.1797 38.2302 36.2902 38.3653 37.3055C38.4448 37.8846 38.8421 38.3447 39.2315 38.7809C39.6845 39.3045 40.1216 39.7963 39.9467 40.4071C39.8514 40.7402 39.613 41.0654 39.2077 41.4303C38.8104 41.7793 38.3812 42.0808 37.9283 42.406C37.3084 42.8423 36.6727 43.2865 36.1721 43.8497L35.9257 44.1273L35.6317 43.8893C34.7973 43.223 33.4463 42.5805 33.1364 42.5805C32.6994 42.5884 32.302 42.755 31.9126 42.9216L31.5868 43.0564C30.8001 43.3579 29.9975 43.81 29.9021 44.9126C29.8862 45.1426 29.8862 45.3727 29.8942 45.6027C29.9021 45.8169 29.9021 46.0231 29.8942 46.2214C29.8703 46.4911 29.8147 46.6815 29.7114 46.8005C29.5207 47.0305 29.1392 47.0543 28.7975 47.0543C28.7896 47.0543 28.7816 47.0543 28.7737 47.0543C27.1526 47.0305 25.5473 46.9353 23.9739 46.7608L23.6163 46.7212V46.3642C23.6163 44.754 22.7104 43.3658 21.2482 42.7471C20.6522 42.4853 20.1118 42.4219 19.635 42.5567C19.19 42.6836 18.8324 43.0802 18.4986 43.461C18.1172 43.8893 17.7675 44.2859 17.3384 44.2859C17.2272 44.3097 17.0762 44.2304 16.9093 44.1432C15.463 43.3737 14.2392 42.2474 13.3651 40.8671C13.1903 40.5895 13.0234 40.2881 13.0075 39.9867C12.9836 39.5107 13.3492 39.1855 13.7386 38.8365C13.8975 38.6937 14.0485 38.5588 14.1756 38.4081C14.9306 37.5356 14.724 36.9407 14.4061 36.0522L14.3028 35.8301C14.1995 35.5287 14.0962 35.2273 13.8975 34.9655C13.5717 34.5292 13.0234 34.2437 12.2684 34.1247C12.1175 34.1009 11.9585 34.0771 11.7996 34.0612C11.3546 34.0057 10.8857 33.9581 10.5122 33.7281C10.1308 33.506 9.83676 33.0856 9.66193 32.5541C9.15334 30.9597 9.35201 28.9767 10.1467 27.7392C10.4884 27.1998 11.1956 27.176 11.9426 27.1443C13.1346 27.0967 14.1439 26.9539 14.422 25.7085C14.565 25.3278 14.6366 24.9946 14.6445 24.6694C14.6763 23.662 14.1995 22.6388 13.1744 21.552L12.9439 21.3061L13.1505 21.0364C13.826 20.1639 16.2895 17.7366 16.7663 17.4272C16.9888 17.3083 17.1795 17.2131 17.3861 17.2369C17.8947 17.2686 18.2602 17.5859 18.6894 17.9587C19.1503 18.3553 19.6668 18.8075 20.4376 18.8233C21.5263 18.8154 22.5991 18.1174 23.0918 17.0941C23.1316 16.991 23.5209 15.4997 23.5925 14.5161L23.6163 14.1671L23.966 14.1512C24.4269 14.1274 24.9037 14.0878 25.3646 14.0481C26.9698 13.8974 28.5512 13.7546 29.1869 14.3813C29.6558 14.9127 29.8862 15.5552 30.1326 16.2374C30.5776 17.4669 31.0306 18.7361 32.7947 18.8471C33.2159 18.9185 33.5735 18.8471 33.9549 18.6409Z" fill="#1E1E1E"/>
<path d="M27.8838 22.8213C27.55 22.7816 27.2083 22.7578 26.8746 22.7578C24.8084 22.7578 22.7105 23.551 21.1053 24.9709C19.3888 26.4939 18.4511 28.5166 18.467 30.6742C18.4908 31.2057 18.5703 31.7292 18.6975 32.221C19.2696 34.8149 21.4232 37.1073 24.0535 37.9402C24.5859 38.1306 25.1263 38.2654 25.6667 38.3447C27.9712 38.6858 30.2996 38.0433 31.9843 36.5996C32.3101 36.2982 32.6121 35.9571 32.8584 35.5922C33.1048 35.2353 33.3034 34.8625 33.4783 34.4341C34.567 31.3961 34.5988 26.8588 31.1181 24.1063C30.6334 23.7493 30.1168 23.4638 29.5606 23.2417C29.0281 23.0354 28.4639 22.8927 27.8838 22.8213ZM31.4121 30.6266C31.428 31.1264 31.3962 31.6023 31.3088 32.11C31.2135 33.2126 30.4347 34.3707 29.2745 35.0846C28.901 35.3146 28.5116 35.4891 28.1063 35.6081C27.6375 35.7509 27.1686 35.8143 26.7077 35.8143C24.4429 35.8143 22.3609 34.2358 21.296 32.3797C20.3663 30.6742 20.7397 28.596 22.2496 27.0888C23.4655 25.9704 25.0707 25.312 26.5567 25.312C27.86 25.312 29.0043 25.7959 29.8546 26.716C30.8241 27.8424 31.3327 29.1195 31.4121 30.6266Z" fill="#1E1E1E"/>
<path d="M28.5596 134.714C28.2656 123.442 27.9716 114.939 27.6855 106.713C27.3994 98.4793 27.1054 89.96 26.8114 78.6803L26.3107 59.2383C26.2948 58.6037 25.9452 58.2785 25.6591 58.1278C25.4366 58.0088 25.1744 57.9453 24.9201 57.9453C24.6419 57.9453 24.3717 58.0088 24.1572 58.1436C23.9029 58.3023 23.6009 58.6116 23.6168 59.2145C23.9108 70.6766 24.2128 79.3704 24.5068 87.7865C24.8009 96.2027 25.1028 104.896 25.3969 116.359L25.8975 135.801C25.9055 136.173 26.0406 136.483 26.2869 136.721L26.3743 136.8L26.3982 136.919C26.4617 137.213 26.7081 137.911 27.6219 137.839C40.9406 137.316 54.434 136.871 67.7209 136.522C68.6348 136.499 69.04 135.761 69.0162 135.087C69.0003 134.492 68.6348 133.786 67.7368 133.833C55.0936 134.167 42.0531 134.595 28.9729 135.103L28.5676 135.118L28.5596 134.714Z" fill="#1E1E1E"/>
<path d="M53.5754 28.0724C61.1247 27.5171 68.9522 27.1839 76.8353 27.0888L77.2724 27.0808L77.2247 27.6044C77.1055 31.6022 77.1929 35.6556 77.4869 39.6614C77.5346 40.3595 78.0512 41.0892 78.814 41.0416C81.4841 40.8751 84.2019 40.7878 86.9514 40.7878C89.1924 40.7878 91.4572 40.8433 93.73 40.9544L93.8651 40.9623L94.2783 41.3113L94.3577 41.5414C94.8028 54.5979 94.8425 67.7813 94.4849 80.7348C94.4611 81.4883 94.7074 82.0594 95.1683 82.345C95.5259 82.5671 95.9709 82.575 96.3444 82.3688C96.853 82.0912 97.155 81.4883 97.1788 80.7189C97.4411 71.3667 97.4887 61.8163 97.3298 52.3451C97.3139 51.5202 97.3139 50.6952 97.306 49.8623C97.298 47.5937 97.2901 45.2457 97.0517 42.9771C96.996 42.4932 96.9404 42.0014 96.861 41.5255C96.6305 40.0184 96.1696 39.0903 95.2875 38.3209C94.7789 37.8767 94.2147 37.5038 93.6267 37.1152C92.9273 36.6551 92.2042 36.1791 91.5844 35.5763C89.7407 33.7757 88.0004 32.1258 86.268 30.5314C85.7594 30.0634 85.2509 29.5557 84.7423 29.0322C83.5264 27.8027 82.2708 26.5414 80.8802 25.7403C78.0035 24.0904 74.1573 24.2966 70.7641 24.479C70.1124 24.5108 69.4687 24.5504 68.8569 24.5663C64.1604 24.7249 59.4241 24.9708 54.7753 25.2961L53.6469 25.3754C52.7171 25.4468 52.288 26.2321 52.3437 26.9698C52.3675 27.5409 52.7092 28.1279 53.5754 28.0724ZM79.9027 28.3897L80.5544 29.0004C83.4708 31.7291 86.5938 34.561 89.8281 37.4166L90.6387 38.1305L89.5579 38.1067C86.5462 38.0512 83.4867 38.0988 80.4828 38.2495L80.0855 38.2733L80.0617 37.8767C79.8948 35.029 79.8312 32.1416 79.8789 29.2781L79.9027 28.3897Z" fill="#1E1E1E"/>
<path d="M42.554 56.1447L37.7144 55.9543C36.9992 55.9543 36.7449 56.462 36.7211 56.8983C36.7052 57.3346 36.9595 58.0009 37.7303 58.0326L41.5765 58.1833C41.7752 58.1912 41.9739 58.1992 42.1646 58.1992C42.5778 58.2071 42.9831 58.223 43.3884 58.2547L43.6347 58.2706C43.8413 58.2706 43.9844 58.3975 44.0559 58.6513C44.1671 59.0162 44.1989 59.4287 44.2307 59.7936C44.2466 59.976 44.2625 60.1109 44.2784 60.2457C44.3579 60.8644 44.4294 61.4752 44.493 62.0939C44.5645 62.7444 44.6281 63.4028 44.6916 64.0532L44.8188 65.4651L44.5406 65.5762C44.2387 65.6952 43.8572 65.8142 43.5632 65.9014L43.3168 65.9728C42.554 66.2028 41.8149 66.3774 41.1156 66.4726C39.7249 66.6709 38.2787 66.6471 36.9436 66.4091C36.7847 66.3774 36.6337 66.3536 36.4827 66.3218L36.2364 66.2663L36.1807 66.0204C36.1489 65.8776 36.1251 65.7348 36.1013 65.5921L36.0854 65.4889C35.9423 64.7116 35.839 63.9104 35.7754 63.1251C35.6404 61.5069 35.6404 59.8332 35.7913 58.1437C35.8072 57.9136 35.7278 57.6836 35.545 57.4853C35.3304 57.2552 35.0364 57.1125 34.7503 57.1125C34.1782 57.1125 33.7649 57.5329 33.7093 58.1675C33.4709 60.9041 33.6219 63.6645 34.1543 66.3774C34.2576 66.893 34.4086 67.4244 34.8616 67.829C35.3304 68.2414 36.0059 68.3525 36.6655 68.4556C38.0244 68.6698 39.2481 68.7174 40.4481 68.6222C41.7672 68.5111 43.0149 68.2652 44.1592 67.8924L44.3976 67.8131C45.7803 67.3689 46.9167 66.9088 46.9326 65.7348C46.9405 65.3144 46.8849 64.8702 46.8293 64.4419C46.8054 64.2515 46.7816 64.0611 46.7657 63.8787C46.6942 63.1489 46.6227 62.4271 46.5353 61.7052C46.4637 61.0548 46.3843 60.4044 46.3048 59.7539C46.2889 59.5953 46.2651 59.4366 46.2492 59.278C46.2015 58.7862 46.1459 58.2706 45.979 57.8184C45.4148 56.2558 43.8254 56.1923 42.554 56.1447Z" fill="#1E1E1E"/>
<path d="M65.869 57.6043C66.0995 57.3981 66.2425 57.0887 66.2425 56.8111C66.2425 56.2399 65.8213 55.8275 65.1856 55.7719C64.3433 55.7005 63.5009 55.6609 62.6506 55.6609C60.7514 55.6609 58.8442 55.8433 56.9608 56.2082C56.4443 56.3113 55.9118 56.4621 55.5065 56.9142C55.0933 57.3743 54.9821 58.0564 54.8788 58.7148C54.6642 60.0554 54.6165 61.2928 54.7119 62.4906C54.8231 63.8073 55.0695 65.0527 55.443 66.195L55.5224 66.4409C55.9675 67.8131 56.4284 68.9554 57.6045 68.9713C58.0733 68.9713 58.5183 68.9157 58.9077 68.8681C59.0984 68.8443 59.2892 68.8205 59.4719 68.8047C60.1951 68.7333 60.9262 68.6619 61.6493 68.5746C62.301 68.5032 62.9526 68.4239 63.6042 68.3446L64.081 68.2891C64.5896 68.2336 65.0902 68.186 65.5432 68.0194C67.0928 67.4641 67.1564 65.8777 67.2041 64.6006L67.3948 59.7698C67.4027 59.4922 67.3312 59.2621 67.1723 59.0876C67.0054 58.9052 66.7432 58.7941 66.4571 58.7783H66.4173C65.8929 58.7783 65.3366 59.0956 65.3128 59.7777L65.1618 63.617C65.1538 63.8153 65.1459 64.0136 65.1459 64.2119C65.13 64.664 65.122 65.0527 65.0902 65.4335L65.0346 66.076H64.7644C64.7406 66.0839 64.7247 66.0918 64.7009 66.0998C64.3433 66.2029 63.9618 66.2426 63.5883 66.2743C63.4055 66.2901 63.2546 66.306 63.1036 66.3219C62.4917 66.3933 61.8718 66.4726 61.252 66.536C60.6004 66.6074 59.9408 66.6709 59.2494 66.7423L57.8747 66.8692L57.7634 66.5916C57.6442 66.2822 57.525 65.9015 57.4376 65.6L57.3661 65.37C57.1356 64.6164 56.9687 63.8708 56.8654 63.1648C56.6668 61.7687 56.6906 60.333 56.929 59.0083C56.9528 58.8497 56.9846 58.691 57.0164 58.5403L57.072 58.2944L57.3184 58.2389C57.4932 58.1992 57.668 58.1675 57.8508 58.1358C58.6296 57.993 59.4243 57.8899 60.2189 57.8264C61.8242 57.6916 63.5009 57.6916 65.2015 57.8423C65.4399 57.8661 65.6704 57.7867 65.869 57.6043Z" fill="#1E1E1E"/>
<path d="M86.8641 65.7666L86.872 65.6872C87.023 63.1569 86.8641 60.6503 86.3952 58.2468C86.2919 57.7312 86.141 57.1997 85.688 56.7952C85.2191 56.3748 84.5437 56.2716 83.8841 56.1685C82.9702 56.0257 82.112 55.9543 81.2776 55.9543C80.8802 55.9543 80.4909 55.9702 80.1015 56.0019C78.7823 56.113 77.5347 56.3589 76.3904 56.7317L76.152 56.811C74.7692 57.2552 73.6329 57.7153 73.617 58.8893C73.609 59.3176 73.6647 59.7618 73.7203 60.1902C73.7521 60.4202 73.768 60.5868 73.7839 60.7534C73.8554 61.4752 73.9348 62.205 74.0143 62.9268C74.0858 63.5773 74.1653 64.2277 74.2448 64.8782C74.2607 65.0368 74.2765 65.1954 74.3004 65.3541C74.3481 65.8538 74.4037 66.3615 74.5706 66.8136C75.1268 68.3604 76.7162 68.4239 77.9956 68.4715L82.8351 68.6618C83.0179 68.6539 83.153 68.6381 83.2801 68.5825L83.5027 68.5349C83.7331 68.5111 83.9556 68.4953 84.1702 68.4794C84.7423 68.4477 85.3224 68.408 85.839 68.1701C86.5383 67.8369 87.0389 66.9881 86.9992 66.1949C86.9912 66.068 86.9674 65.949 86.9277 65.838L86.8641 65.7666ZM84.7662 66.0997L84.7423 66.4646H84.3688C84.194 66.4725 84.0033 66.4884 83.8126 66.5043C83.6219 66.5201 83.4311 66.5519 83.2484 66.5836L82.9384 66.6312L82.851 66.5995L78.377 66.417C77.9638 66.4091 77.5506 66.3932 77.1374 66.3615L77.0261 66.3536C76.9546 66.3536 76.8513 66.3456 76.8354 66.3377C76.6764 66.3139 76.5493 66.2108 76.4778 65.9649C76.3745 65.6 76.3347 65.2113 76.303 64.8306C76.2871 64.664 76.2712 64.5133 76.2553 64.3705C76.1758 63.7518 76.1122 63.141 76.0407 62.5223C75.9692 61.8718 75.9056 61.2134 75.842 60.563L75.7149 59.1511L75.993 59.04C76.295 58.921 76.6764 58.802 76.9784 58.7148L77.2248 58.6434C77.9718 58.4134 78.7187 58.2468 79.426 58.1437C80.8246 57.9453 82.263 57.9691 83.598 58.2071C83.749 58.2309 83.9079 58.2626 84.0589 58.2944L84.3053 58.3499L84.3609 58.5958C84.3927 58.7544 84.4245 58.9131 84.4642 59.1193C84.6072 59.8967 84.7105 60.6978 84.7821 61.4911C84.8854 62.9744 84.8854 64.5212 84.7662 66.0997Z" fill="#1E1E1E"/>
<path d="M33.9867 76.9589C48.5132 76.1894 63.2384 76.1339 77.765 76.7764C78.6391 76.7923 79.0046 76.1577 79.0285 75.5787C79.0603 74.8885 78.6629 74.1271 77.7252 74.0795C71.0977 73.786 64.4225 73.6353 57.7473 73.6353C49.8244 73.6353 41.8937 73.8415 34.0264 74.254C33.1205 74.3016 32.6835 75.0551 32.7232 75.777C32.755 76.3639 33.1126 77.0065 33.9867 76.9589Z" fill="#1E1E1E"/>
<path d="M58.5662 84.2647C58.8126 83.8046 58.8046 83.1859 58.5424 82.7575C58.3914 82.5116 58.0735 82.2102 57.4775 82.234C49.8487 82.4878 42.1245 82.464 34.5116 82.1626C34.4878 82.1626 34.4639 82.1626 34.448 82.1626C33.5978 82.1626 33.264 82.813 33.2481 83.3842C33.2243 84.0743 33.6136 84.8278 34.5514 84.8596C42.1563 85.161 49.8567 85.1769 57.4537 84.931C58.0815 84.9072 58.4073 84.5581 58.5662 84.2647Z" fill="#1E1E1E"/>
<path d="M41.6635 99.7959C41.3536 98.3046 39.9629 96.9562 38.5007 96.7261C38.0716 96.6627 37.7458 96.6627 37.42 96.853C37.3326 96.9006 37.2452 96.98 37.1419 97.091L36.8002 97.44L36.522 97.0355C36.4982 96.9958 36.4743 96.9562 36.4505 96.9165C36.4346 96.8848 36.4108 96.853 36.4028 96.8372C36.1167 96.5754 35.775 96.4485 35.4413 96.4485C35.0996 96.4485 34.7579 96.5754 34.4718 96.8372C33.3751 97.8366 33.1844 99.4707 33.1367 100.78C33.0652 102.866 34.9565 103.929 36.0929 104.381C36.8319 104.674 37.6425 104.754 38.5007 104.611C39.1206 104.508 39.7404 104.198 40.3921 103.659C41.4649 102.778 41.9655 101.255 41.6635 99.7959ZM39.0014 101.065H38.9934C38.9855 101.089 38.9775 101.121 38.9696 101.144H38.9775C38.914 101.263 38.8583 101.351 38.8027 101.438L38.763 101.485L38.755 101.478L38.7471 101.485L38.755 101.493L38.6676 101.581C38.6438 101.604 38.5882 101.652 38.5325 101.7C38.4372 101.803 38.3021 101.89 38.159 101.922H38.1511C38.1114 101.93 38.0716 101.938 38.0398 101.946L37.9365 101.961C37.865 101.961 37.7935 101.969 37.722 101.969C37.6663 101.969 37.6187 101.961 37.563 101.961C37.5551 101.961 37.5551 101.961 37.5471 101.961C37.5154 101.969 37.42 102.009 37.5471 101.953C37.4359 102.001 37.3326 102.025 37.2134 101.993C37.118 101.969 37.0465 101.906 36.9909 101.835C36.9829 101.835 36.9829 101.834 36.975 101.827L36.8876 101.795C36.7604 101.731 36.6889 101.7 36.6253 101.66C36.4823 101.581 36.3472 101.501 36.2121 101.406L36.1247 101.335L35.8466 101.065V100.906C35.8386 100.621 35.8545 100.327 35.8863 100.034C35.9419 99.7007 36.0055 99.4072 36.0929 99.1137L36.2598 98.8282C36.2995 98.7885 36.3234 98.7568 36.3472 98.733L36.3869 98.6933L36.7127 98.3681L36.9829 98.7409C37.2054 99.0423 37.4597 99.2407 37.6822 99.2724C37.8412 99.2962 37.9922 99.3279 38.1511 99.3755L38.2226 99.4072C38.2544 99.4231 38.3021 99.4548 38.3577 99.4945C38.3895 99.5183 38.4292 99.55 38.461 99.5659L38.5484 99.6293C38.5643 99.6452 38.5723 99.6531 38.5882 99.669C38.6279 99.6928 38.6676 99.7166 38.6994 99.7483C38.7233 99.78 38.7471 99.8038 38.763 99.8356C38.763 99.8356 38.763 99.8356 38.763 99.8435C38.9378 100.074 39.065 100.343 39.0491 100.637C39.0411 100.74 39.0252 100.835 38.9934 100.93C39.0173 101.002 39.0093 101.033 39.0014 101.065Z" fill="#1E1E1E"/>
<path d="M41.6635 125.298C41.3536 123.807 39.9629 122.458 38.5007 122.228C38.0716 122.165 37.7458 122.165 37.42 122.355C37.3326 122.403 37.2452 122.482 37.1419 122.593L36.8002 122.95L36.522 122.546C36.4982 122.506 36.4743 122.466 36.4505 122.427C36.4346 122.395 36.4108 122.363 36.4028 122.347C36.1167 122.086 35.775 121.959 35.4413 121.959C35.0996 121.959 34.7579 122.086 34.4718 122.347C33.3751 123.347 33.1844 124.981 33.1367 126.29C33.0652 128.376 34.9565 129.439 36.0929 129.891C36.8319 130.185 37.6425 130.264 38.5007 130.121C39.1206 130.018 39.7404 129.709 40.3921 129.169C41.4649 128.281 41.9655 126.758 41.6635 125.298ZM39.0491 126.496C39.0252 126.552 38.9934 126.599 38.9696 126.655C38.9696 126.655 38.9696 126.663 38.9617 126.663C38.9378 126.702 38.914 126.75 38.8901 126.789C38.8583 126.845 38.8266 126.901 38.7948 126.948L38.755 126.996L38.7312 126.98L38.7233 126.988L38.7471 127.004L38.6597 127.091C38.6358 127.115 38.5802 127.162 38.5246 127.218L38.4292 127.281C38.3657 127.321 38.2941 127.369 38.2623 127.384L38.1511 127.432C38.1114 127.44 38.0716 127.448 38.0398 127.456L37.9365 127.472C37.865 127.472 37.7935 127.48 37.722 127.48C37.6266 127.48 37.5313 127.48 37.4359 127.472L37.3246 127.456C37.277 127.448 37.2293 127.44 37.1895 127.424C37.118 127.408 37.0545 127.384 36.9829 127.361L36.8955 127.329C36.7684 127.265 36.6968 127.234 36.6333 127.194C36.4902 127.115 36.3551 127.035 36.22 126.94L36.1326 126.869L35.8545 126.599V126.44C35.8466 126.155 35.8624 125.861 35.8942 125.568C35.9499 125.235 36.0134 124.941 36.1008 124.648L36.2677 124.362C36.3075 124.323 36.3313 124.291 36.3551 124.267L36.3949 124.227L36.7207 123.902L36.9909 124.275C37.2134 124.576 37.4677 124.775 37.6902 124.806C37.8491 124.83 38.0001 124.862 38.159 124.91L38.2306 124.941C38.2623 124.957 38.31 124.989 38.3657 125.029C38.3974 125.052 38.4372 125.084 38.469 125.1L38.5564 125.163C38.5961 125.203 38.6358 125.235 38.6676 125.267L38.8107 125.441C38.8186 125.449 38.8186 125.457 38.8266 125.457C39.0809 125.735 39.1842 126.139 39.0491 126.496Z" fill="#1E1E1E"/>
<path d="M42.2829 112.384C41.8538 111.71 41.2657 111.139 40.5187 110.679C40.1214 110.433 39.7797 110.274 39.4698 110.203C38.8182 110.044 38.2301 110.179 37.6659 110.616L37.3798 110.838L37.1335 110.576C37.0381 110.473 36.9507 110.401 36.8712 110.362C36.6249 110.235 36.3785 110.163 36.1481 110.163C36.0368 110.163 35.9335 110.179 35.8382 110.211C35.5044 110.322 35.266 110.505 34.9879 110.869C34.6064 111.377 34.1376 112.067 33.931 112.845C33.6926 113.725 33.8118 114.645 34.2568 115.359C34.9402 116.454 36.3388 117.35 37.9917 117.755C39.0248 118.008 39.8512 118.032 40.5187 117.826C41.2816 117.588 41.9174 117.096 42.3544 116.39C43.0935 115.216 43.0617 113.606 42.2829 112.384ZM40.177 114.582L40.0419 115.018L39.883 115.192L39.6764 115.256C39.6049 115.256 39.5334 115.264 39.4698 115.264C39.3983 115.264 39.3347 115.264 39.2632 115.256C38.9215 115.2 38.5241 115.121 38.1347 114.986L37.8963 114.899C37.7056 114.804 37.5149 114.709 37.3401 114.605C37.2288 114.542 37.1255 114.471 37.0222 114.407L36.8871 114.312C36.8235 114.256 36.7679 114.201 36.7123 114.145L36.5375 113.907V113.725L36.5692 113.551C36.5772 113.503 36.5931 113.455 36.609 113.4L36.752 113.114C36.8156 113.003 36.8871 112.9 36.9666 112.789L37.3083 112.297L37.65 112.591C37.9997 112.892 38.4049 113.003 38.8182 112.924L38.9612 112.892L39.0883 112.964C39.1678 113.003 39.2075 113.027 39.2473 113.051L39.4618 113.194C39.5731 113.289 39.6367 113.352 39.6923 113.408L39.9545 113.725C40.0022 113.788 40.0499 113.868 40.0658 113.9L40.2009 114.312C40.177 114.399 40.177 114.487 40.177 114.582Z" fill="#1E1E1E"/>
<path d="M48.196 125.378C54.1162 124.807 60.116 124.775 66.0442 125.298C66.3303 125.322 66.6243 125.211 66.8707 124.981C67.1726 124.703 67.3554 124.307 67.3554 123.95C67.3554 123.101 66.6561 122.665 65.9727 122.601C63.1755 122.355 60.3623 122.229 57.5492 122.229C54.45 122.229 51.3508 122.379 48.2754 122.673C47.5841 122.736 46.8848 123.18 46.8848 124.021C46.8848 124.386 47.0755 124.791 47.3775 125.068C47.6318 125.298 47.9178 125.409 48.196 125.378Z" fill="#1E1E1E"/>
<path d="M66.3299 112.765C66.5762 112.305 66.5683 111.686 66.2981 111.258C66.1391 111.012 65.8292 110.711 65.2332 110.734L47.6949 111.321C46.7651 111.353 46.3678 112.099 46.3916 112.781C46.4075 113.368 46.7492 114.042 47.6631 114.011L65.2014 113.431C65.8451 113.408 66.1709 113.059 66.3299 112.765Z" fill="#1E1E1E"/>
<path d="M67.5061 98.8044C60.5289 99.0424 53.4563 98.8361 46.4871 98.2015C46.4394 98.1936 46.3917 98.1936 46.344 98.1936C45.9705 98.1936 45.6686 98.3364 45.4778 98.6061C45.1997 98.9948 45.1679 99.5897 45.3984 100.089C45.5255 100.359 45.8434 100.835 46.5586 100.899C53.4802 101.525 60.5209 101.731 67.4743 101.493C68.404 101.462 68.8014 100.716 68.7775 100.034C68.7616 99.4469 68.4358 98.7568 67.5061 98.8044Z" fill="#1E1E1E"/>
<path d="M350.13 118.31L349.979 118.262C349.78 118.159 349.574 118.096 349.343 118.096L268.796 115.351L268.732 115.327C268.597 115.272 268.406 115.216 268.184 115.216C267.914 115.216 267.604 115.296 267.286 115.557C265.069 117.437 265.275 120.634 265.458 123.458C265.482 123.791 265.498 124.116 265.514 124.426L266.157 136.8C266.261 138.72 266.348 140.647 266.443 142.567C266.737 148.738 267.039 155.124 267.643 161.374C268.128 166.443 268.804 170.893 269.709 174.954C269.805 175.375 270.027 175.668 270.369 175.811C270.774 175.978 271.307 175.914 271.728 175.644L271.815 175.589H271.927C292.302 174.875 312.844 174.439 332.989 174.272C338.766 174.224 344.655 174.201 350.503 174.201C350.94 174.201 351.29 174.034 351.521 173.733C351.783 173.376 351.87 172.852 351.735 172.392L351.624 172.011L352.005 171.9C352.283 171.821 352.943 171.535 352.967 170.655C353.42 153.696 352.903 136.53 351.449 119.627C351.385 118.754 350.694 118.373 350.13 118.31ZM268.438 128.146C268.398 127.448 268.359 126.742 268.319 126.044C268.231 124.568 268.152 123.093 268.096 121.61C268.064 120.579 268.017 119.294 268.581 118.27L268.7 118.056L268.947 118.064L348.827 120.793L348.858 121.142C349.129 124.418 349.367 127.852 349.597 131.636L349.629 132.128L349.137 132.049L349.041 131.668H349.025L348.993 132.025C328.102 130.185 306.971 129.058 286.167 128.669C280.596 128.566 274.756 128.495 268.835 128.519H268.462L268.438 128.146ZM350.273 171.004L350.368 171.48H349.884C329.5 171.496 308.95 171.781 288.797 172.337C283.719 172.479 278.355 172.646 272.395 172.852L272.062 172.86L271.998 172.527C270.584 165.499 270.043 158.273 269.67 151.499C269.368 146.065 269.09 140.631 268.811 135.198L268.605 131.247H269.026C269.09 131.247 269.161 131.247 269.233 131.247C289.926 131.247 310.77 131.953 331.193 133.357C337.042 133.754 343.057 134.23 349.073 134.761C349.152 134.769 349.24 134.761 349.327 134.746L349.772 134.658L349.796 135.11C350.416 147.001 350.567 158.963 350.257 170.671C350.241 170.782 350.257 170.885 350.273 171.004Z" fill="#1E1E1E"/>
<path d="M273.556 124.767C273.834 124.711 274.017 124.505 274.112 124.338C274.319 124.005 274.406 123.537 274.311 123.18C274.303 123.148 274.295 123.109 274.279 123.077C274.136 122.665 273.81 122.339 273.389 122.205C273.222 122.149 273.023 122.125 272.825 122.125C272.562 122.125 272.324 122.173 272.253 122.284C272.189 122.371 272.157 122.522 272.133 122.657C272.078 122.974 272.03 123.291 272.006 123.609C271.974 123.902 271.966 124.196 272.094 124.386C272.324 124.719 273.079 124.87 273.556 124.767Z" fill="#1E1E1E"/>
<path d="M277.211 124.394C277.346 124.537 277.473 124.624 277.632 124.672C277.743 124.727 277.815 124.751 277.886 124.775C278.593 124.775 279.054 124.672 279.277 124.45C279.523 124.196 279.531 123.72 279.515 122.966C279.507 122.966 279.483 122.895 279.444 122.823L279.285 122.522C279.15 122.379 278.959 122.205 278.848 122.133L278.808 122.141L278.681 122.078C278.609 122.038 278.53 122.014 278.45 121.991C278.371 121.975 278.283 121.967 278.196 121.967L277.767 122.022C277.584 122.078 277.393 122.189 277.219 122.363L276.98 122.681C276.885 122.847 276.821 123.077 276.821 123.323V123.434C276.813 123.625 276.853 123.775 276.925 123.926C277.004 124.156 277.084 124.283 277.211 124.394Z" fill="#1E1E1E"/>
<path d="M283.298 124.854H283.306C283.806 124.854 284.418 124.608 284.633 123.934C284.681 123.799 284.696 123.648 284.696 123.498C284.688 123.069 284.498 122.657 284.18 122.395C283.91 122.173 283.552 122.054 283.21 122.054C282.94 122.054 282.678 122.125 282.471 122.276C281.899 122.704 281.669 123.315 281.875 123.902C282.122 124.6 282.789 124.854 283.298 124.854Z" fill="#1E1E1E"/>
<path d="M347.364 144.375C347.253 144.32 347.078 144.264 346.864 144.241L346.498 144.201L346.506 143.836C346.546 142.131 346.498 140.608 346.371 139.18C346.307 138.506 345.854 137.784 345.004 137.784C344.638 137.784 344.233 137.974 343.955 138.276C343.725 138.529 343.613 138.823 343.645 139.108C343.78 140.616 343.828 142.202 343.788 143.963L343.78 144.296L343.295 144.375C343.16 144.399 343.017 144.423 342.882 144.447C342.612 144.502 342.262 144.772 342.096 145.066C341.921 145.367 341.857 145.803 341.952 146.097C342.024 146.319 342.199 146.723 342.572 146.922C342.771 147.025 342.986 147.08 343.224 147.088L343.637 147.104L343.605 147.517C343.462 149.365 343.256 151.237 343.057 153.053C342.58 157.424 342.08 161.945 342.429 166.395C342.485 167.109 342.946 167.427 343.216 167.554C343.717 167.791 344.321 167.76 344.726 167.49C345.044 167.268 345.195 166.911 345.163 166.459C344.805 161.93 345.306 157.368 345.791 152.966C345.989 151.118 346.204 149.198 346.347 147.318L346.379 146.922L346.776 146.953C347.062 146.977 347.475 146.763 347.69 146.557C347.936 146.311 348.103 145.914 348.087 145.613C348.079 145.375 348.016 144.931 347.698 144.645L347.364 144.375Z" fill="#1E1E1E"/>
<path d="M281.184 148.564C281.406 148.54 281.637 148.516 281.875 148.5C283.059 148.397 284.291 148.294 285.054 147.501C285.833 146.7 285.872 145.462 285.912 144.264L285.928 143.899C285.992 142.353 286.039 140.846 285.92 139.346C285.833 138.283 285.419 136.935 283.918 136.562C283.329 136.419 282.686 136.419 282.066 136.419L273.897 136.411C273.635 136.411 273.428 136.499 273.277 136.665C273.11 136.856 273.023 137.141 273.054 137.427L273.07 137.593L272.967 137.72C272.848 137.863 272.784 138.045 272.776 138.252C272.713 139.854 272.697 141.433 272.745 142.956C272.768 143.63 272.792 144.304 272.84 144.97C272.856 145.169 272.864 145.375 272.872 145.589C272.896 146.192 272.919 146.819 273.062 147.366C273.388 148.627 274.691 148.762 276.352 148.81L276.575 148.817C278.18 148.881 279.809 148.722 281.184 148.564ZM276.082 147.009C275.78 146.993 275.478 146.969 275.176 146.938L274.771 146.89L274.795 146.715L274.747 146.557C274.683 145.66 274.54 142.94 274.533 142.646C274.501 141.361 274.509 140.036 274.564 138.585L274.58 138.204L281.565 138.212C281.677 138.212 281.78 138.204 281.915 138.196C282.662 138.149 283.687 138.085 283.997 138.72C284.188 139.108 284.172 139.584 284.164 140.005C284.164 140.124 284.156 140.227 284.164 140.33C284.18 140.965 284.188 141.607 284.18 142.25V142.9C284.18 143.812 284.18 144.756 284.029 145.589L283.639 145.518L284.021 145.66C283.965 145.954 283.91 146.295 283.393 146.47C282.988 146.612 282.551 146.644 282.13 146.684C281.994 146.692 281.859 146.708 281.732 146.723C280.596 146.858 279.253 147.001 277.91 147.033C277.671 147.041 277.441 147.041 277.211 147.041C276.813 147.041 276.448 147.033 276.082 147.009Z" fill="#1E1E1E"/>
<path d="M293.383 148.088H293.653L301.544 148.096C301.806 148.096 302.013 148.008 302.164 147.842C302.331 147.652 302.418 147.366 302.386 147.08L302.371 146.914L302.474 146.787C302.593 146.644 302.657 146.462 302.665 146.255C302.728 144.669 302.744 143.082 302.696 141.552C302.673 140.877 302.649 140.203 302.601 139.537C302.585 139.338 302.577 139.132 302.569 138.918C302.545 138.315 302.522 137.689 302.379 137.141C302.053 135.88 300.749 135.745 299.089 135.698L298.866 135.69C297.253 135.642 295.624 135.793 294.241 135.943C294.019 135.967 293.788 135.991 293.55 136.007C292.366 136.11 291.134 136.213 290.371 137.006C289.592 137.808 289.553 139.045 289.513 140.243L289.497 140.608C289.433 142.154 289.386 143.662 289.505 145.153C289.592 146.216 290.006 147.564 291.507 147.937C292.111 148.088 292.755 148.08 293.383 148.088ZM291.269 144.502C291.269 144.391 291.277 144.28 291.269 144.177C291.253 143.543 291.245 142.9 291.253 142.258V141.607C291.253 140.695 291.253 139.751 291.404 138.918L291.794 138.989L291.412 138.847C291.468 138.537 291.523 138.212 292.04 138.038C292.453 137.895 292.882 137.863 293.303 137.823C293.439 137.815 293.574 137.8 293.701 137.784C294.837 137.649 296.18 137.506 297.523 137.474C298.175 137.459 298.763 137.466 299.335 137.49C299.637 137.506 299.939 137.53 300.241 137.562L300.646 137.609L300.622 137.784L300.67 137.942C300.734 138.839 300.877 141.56 300.885 141.853C300.916 143.138 300.908 144.463 300.853 145.914L300.837 146.295L293.852 146.287C293.741 146.263 293.637 146.295 293.494 146.303C293.288 146.319 293.057 146.327 292.827 146.327C292.231 146.327 291.635 146.232 291.412 145.779C291.253 145.399 291.261 144.923 291.269 144.502Z" fill="#1E1E1E"/>
<path d="M325.98 149.738C326.568 149.88 327.22 149.88 327.84 149.88H328.11L336.001 149.888C336.263 149.888 336.47 149.801 336.621 149.634C336.788 149.444 336.875 149.158 336.843 148.873L336.828 148.706L336.931 148.579C337.05 148.437 337.114 148.254 337.122 148.048C337.193 146.446 337.201 144.867 337.153 143.344C337.13 142.67 337.106 142.004 337.058 141.329C337.042 141.131 337.034 140.917 337.026 140.711C337.002 140.108 336.979 139.481 336.835 138.942C336.51 137.68 335.206 137.546 333.546 137.498L333.323 137.49C331.702 137.435 330.081 137.593 328.698 137.744C328.476 137.768 328.245 137.792 328.015 137.807C326.823 137.911 325.599 138.014 324.836 138.807C324.057 139.608 324.017 140.845 323.978 142.043L323.962 142.408C323.898 143.955 323.851 145.462 323.97 146.961C324.057 148.016 324.47 149.365 325.98 149.738ZM325.718 143.408C325.718 142.495 325.718 141.551 325.869 140.719L326.258 140.79L325.877 140.647C325.933 140.354 325.988 140.013 326.505 139.838C326.918 139.695 327.347 139.664 327.768 139.624C327.903 139.616 328.038 139.6 328.166 139.584C329.366 139.441 330.661 139.307 331.988 139.275C332.64 139.259 333.236 139.267 333.8 139.299C334.102 139.315 334.404 139.338 334.706 139.37L335.119 139.41L335.095 139.584L335.143 139.743C335.206 140.639 335.349 143.36 335.357 143.653C335.389 144.939 335.381 146.263 335.326 147.715L335.31 148.096L328.325 148.088C328.237 148.088 328.11 148.096 327.975 148.103C327.768 148.119 327.538 148.127 327.307 148.127C326.711 148.127 326.115 148.032 325.893 147.58C325.702 147.191 325.718 146.715 325.726 146.295C325.726 146.184 325.734 146.073 325.726 145.97C325.71 145.335 325.702 144.693 325.71 144.05L325.718 143.408Z" fill="#1E1E1E"/>
<path d="M310.555 148.944L310.778 148.952C311.692 148.984 312.701 148.944 313.853 148.849C314.107 148.825 314.37 148.802 314.624 148.778L314.688 148.77L314.751 148.786C316.261 149.127 317.469 148.921 318.343 148.183C320.171 146.62 320.346 143.003 320.171 140.243C320.163 139.981 320.147 139.735 320.131 139.489C320.075 138.767 319.885 138.164 319.575 137.704C319.479 137.562 319.368 137.427 319.249 137.316C316.69 136.189 313.599 136.459 310.603 136.713C310.055 136.76 309.514 136.808 308.982 136.84C308.751 136.959 308.529 137.094 308.322 137.252C306.781 138.434 306.248 140.639 306.94 143.011L306.955 143.106C306.963 143.439 306.979 143.78 306.995 144.114C307.011 144.447 307.027 144.788 307.051 145.121C307.067 145.319 307.075 145.526 307.083 145.74C307.106 146.343 307.13 146.969 307.273 147.517C307.591 148.762 308.894 148.897 310.555 148.944ZM308.577 139.402C308.632 139.1 308.72 138.839 308.839 138.601L308.95 138.379L311.533 138.394C312.296 138.609 313.281 138.442 314.219 138.283C315.633 138.045 317.23 137.776 317.763 139.156C318.637 140.1 318.422 141.52 318.216 142.892C318.097 143.685 317.977 144.51 318.065 145.216C318.049 145.581 318.017 145.843 317.985 146.081L317.962 146.216L317.858 146.311C316.865 147.223 315.562 147.168 314.409 147.104C313.933 147.08 313.48 147.057 313.106 147.112L312.979 147.12C312.693 147.136 312.399 147.144 312.113 147.152C311.882 147.16 311.652 147.16 311.421 147.16C311.032 147.16 310.659 147.152 310.301 147.128C309.999 147.112 309.697 147.088 309.395 147.057L309.006 147.017L309.022 146.874L308.966 146.676C308.934 146.239 308.879 145.335 308.839 144.502L308.783 143.384C308.791 142.94 308.728 142.44 308.656 141.924C308.537 141.083 308.426 140.203 308.577 139.402Z" fill="#1E1E1E"/>
<path d="M285.77 155.179C285.182 155.036 284.538 155.036 283.918 155.036H283.648L275.757 155.028C275.495 155.028 275.288 155.116 275.137 155.282C274.97 155.473 274.883 155.758 274.915 156.044L274.931 156.21L274.827 156.337C274.708 156.48 274.645 156.662 274.637 156.877C274.573 158.471 274.557 160.057 274.605 161.58C274.629 162.255 274.653 162.921 274.7 163.595C274.716 163.793 274.724 164.008 274.732 164.214C274.756 164.817 274.78 165.443 274.923 165.983C275.249 167.244 276.552 167.379 278.213 167.426L278.435 167.434C280.056 167.482 281.677 167.331 283.06 167.181C283.283 167.157 283.513 167.133 283.752 167.117C284.936 167.014 286.167 166.911 286.93 166.118C287.709 165.316 287.757 164.024 287.788 162.881L287.804 162.516C287.868 160.97 287.916 159.462 287.796 157.963C287.693 156.9 287.28 155.552 285.77 155.179ZM286.032 161.501C286.032 162.413 286.032 163.365 285.881 164.19L285.492 164.119L285.873 164.262C285.818 164.555 285.762 164.896 285.245 165.071C284.84 165.205 284.411 165.245 283.99 165.285C283.855 165.293 283.72 165.309 283.585 165.324C282.385 165.467 281.089 165.602 279.762 165.634C279.532 165.642 279.301 165.642 279.071 165.642C278.682 165.642 278.308 165.634 277.95 165.61C277.648 165.594 277.346 165.57 277.045 165.539L276.631 165.499L276.655 165.324L276.607 165.166C276.544 164.285 276.401 161.557 276.393 161.255C276.361 159.97 276.369 158.645 276.425 157.194L276.441 156.813L283.426 156.821C283.513 156.781 283.64 156.813 283.783 156.805C284.53 156.758 285.555 156.694 285.865 157.329C286.056 157.717 286.04 158.193 286.032 158.614C286.032 158.725 286.024 158.836 286.032 158.939C286.048 159.581 286.056 160.216 286.048 160.859L286.032 161.501Z" fill="#1E1E1E"/>
<path d="M335.111 155.179C334.523 155.036 333.879 155.036 333.259 155.036H332.989L325.098 155.028C324.836 155.028 324.629 155.116 324.478 155.282C324.311 155.473 324.224 155.758 324.256 156.044L324.272 156.21L324.168 156.337C324.049 156.48 323.985 156.662 323.977 156.877C323.914 158.463 323.898 160.049 323.946 161.58C323.97 162.255 323.993 162.921 324.041 163.595C324.057 163.793 324.065 164 324.073 164.214C324.097 164.817 324.121 165.443 324.264 165.991C324.589 167.252 325.893 167.387 327.553 167.434L327.776 167.442C329.397 167.49 331.018 167.339 332.401 167.189C332.623 167.165 332.854 167.141 333.092 167.125C334.276 167.022 335.508 166.919 336.271 166.126C337.05 165.324 337.09 164.087 337.129 162.889L337.145 162.524C337.209 160.978 337.256 159.47 337.137 157.971C337.026 156.9 336.613 155.552 335.111 155.179ZM335.365 161.509C335.365 162.421 335.365 163.365 335.214 164.19L334.825 164.119L335.206 164.261C335.151 164.555 335.095 164.896 334.578 165.071C334.173 165.213 333.744 165.245 333.323 165.285C333.188 165.293 333.053 165.309 332.918 165.324C331.718 165.467 330.422 165.602 329.095 165.634C328.865 165.642 328.634 165.642 328.404 165.642C328.014 165.642 327.641 165.634 327.283 165.61C326.981 165.594 326.679 165.57 326.377 165.539L325.964 165.499L325.988 165.324L325.94 165.166C325.877 164.269 325.734 161.549 325.726 161.255C325.694 159.97 325.702 158.645 325.758 157.194L325.773 156.813L332.759 156.821C332.854 156.821 332.973 156.813 333.108 156.805C333.855 156.758 334.88 156.694 335.19 157.329C335.381 157.717 335.365 158.185 335.357 158.606C335.357 158.725 335.349 158.828 335.357 158.931C335.373 159.566 335.381 160.208 335.373 160.851L335.365 161.509Z" fill="#1E1E1E"/>
<path d="M304.547 158.86C304.531 158.661 304.524 158.455 304.516 158.241C304.492 157.638 304.468 157.012 304.325 156.464C303.999 155.203 302.696 155.068 301.035 155.021L300.812 155.013C299.199 154.965 297.57 155.116 296.187 155.266C295.965 155.29 295.735 155.314 295.496 155.33C294.312 155.433 293.08 155.536 292.317 156.329C291.539 157.131 291.491 158.423 291.459 159.566L291.443 159.923C291.38 161.469 291.332 162.985 291.451 164.476C291.539 165.539 291.952 166.887 293.454 167.26C294.042 167.403 294.686 167.411 295.297 167.403H295.576L303.459 167.411C303.729 167.411 303.936 167.323 304.086 167.157C304.253 166.967 304.341 166.681 304.309 166.395L304.293 166.229L304.396 166.102C304.516 165.959 304.579 165.777 304.587 165.563C304.651 163.96 304.667 162.382 304.619 160.859C304.619 160.2 304.587 159.534 304.547 158.86ZM302.823 165.253L302.807 165.634L295.814 165.626C295.727 165.626 295.599 165.634 295.464 165.642C295.258 165.658 295.027 165.666 294.797 165.666C294.201 165.666 293.605 165.57 293.382 165.118C293.192 164.73 293.207 164.254 293.215 163.833C293.215 163.722 293.223 163.611 293.215 163.508C293.2 162.873 293.192 162.231 293.199 161.596V160.954C293.199 160.034 293.199 159.09 293.35 158.257L293.74 158.328L293.358 158.186C293.414 157.892 293.47 157.559 293.986 157.376C294.392 157.242 294.829 157.202 295.242 157.162C295.377 157.154 295.512 157.138 295.639 157.123C296.776 156.988 298.119 156.845 299.462 156.813C300.089 156.797 300.701 156.805 301.273 156.829C301.575 156.845 301.877 156.869 302.179 156.9L302.585 156.94L302.561 157.115L302.608 157.273C302.672 158.146 302.815 160.875 302.823 161.184C302.879 162.469 302.871 163.802 302.823 165.253Z" fill="#1E1E1E"/>
<path d="M321.116 158.233C321.061 157.511 320.87 156.908 320.56 156.44C320.465 156.298 320.353 156.163 320.234 156.052C317.675 154.925 314.584 155.187 311.588 155.449C311.04 155.496 310.5 155.544 309.967 155.584C309.737 155.695 309.514 155.837 309.308 155.996C307.766 157.178 307.234 159.383 307.925 161.755L307.941 161.85C307.949 162.183 307.965 162.524 307.981 162.858C307.996 163.191 308.012 163.532 308.036 163.865C308.052 164.063 308.06 164.269 308.068 164.484C308.092 165.087 308.116 165.713 308.259 166.26C308.584 167.522 309.888 167.657 311.549 167.704L311.771 167.712C312.685 167.744 313.694 167.704 314.846 167.609L315.681 167.53L315.744 167.546C317.254 167.887 318.462 167.68 319.336 166.943C321.164 165.388 321.339 161.763 321.164 159.002C321.156 158.725 321.14 158.479 321.116 158.233ZM319.193 161.636C319.074 162.429 318.955 163.254 319.042 163.96C319.026 164.325 318.995 164.587 318.963 164.825L318.939 164.96L318.836 165.055C317.842 165.967 316.539 165.911 315.387 165.848C314.91 165.824 314.457 165.8 314.084 165.856L313.956 165.864C313.67 165.88 313.376 165.888 313.09 165.896C312.86 165.904 312.629 165.904 312.399 165.904C312.009 165.904 311.636 165.896 311.278 165.872C310.976 165.856 310.674 165.832 310.372 165.8L309.983 165.761L309.999 165.618L309.943 165.42C309.912 164.983 309.856 164.079 309.816 163.246L309.761 162.128C309.769 161.676 309.705 161.184 309.633 160.66C309.522 159.812 309.411 158.931 309.562 158.13C309.618 157.836 309.705 157.567 309.824 157.329L309.935 157.107L312.518 157.122C313.281 157.337 314.266 157.17 315.204 157.011C316.619 156.773 318.216 156.504 318.748 157.884C319.614 158.852 319.4 160.264 319.193 161.636Z" fill="#1E1E1E"/>
<path d="M75.1748 182.561C74.9523 180.57 74.3245 180.555 72.2266 180.507L71.6306 180.491L71.3842 179.936C71.1379 179.095 71.122 178.357 71.1061 177.643C71.0822 176.581 71.0584 175.74 70.3988 174.954C69.3419 173.701 67.3711 173.209 65.3924 172.868C62.7303 172.4 59.9569 172.392 57.2789 172.384C55.4432 172.376 53.5519 172.368 51.6685 172.218L51.5414 172.21C49.6341 172.059 47.7746 171.916 45.9389 171.821C45.629 170.06 45.3827 168.267 45.0092 166.514C44.9059 166.054 44.6834 165.634 44.2781 165.372C43.849 165.103 43.3642 165.103 42.8795 165.118C42.0212 165.142 41.163 165.206 40.3047 165.261C39.4624 165.325 38.628 165.38 37.7856 165.444C37.2214 165.483 36.6254 165.475 36.1884 165.896C35.8387 166.229 35.7434 166.649 35.6718 167.101L34.8136 172.4C33.9077 172.694 33.1527 173.17 32.6441 174.026C32.0561 175.018 32.0164 176.105 31.9846 177.255C31.9607 178.032 31.9369 178.841 31.7462 179.682L31.6031 180.325L29.8151 180.404C29.4575 180.42 29.092 180.436 28.7344 180.451C27.8841 180.499 27.5503 181.181 27.5185 181.752L27.5026 181.84L27.4232 182.109C27.3278 182.284 27.2881 182.474 27.2881 182.657V190.224C27.2881 190.803 27.7728 191.374 28.3291 191.454L28.7264 191.509L28.941 191.842C29.1317 192.144 29.4416 192.278 29.8549 192.247L30.9674 192.175L31.1661 192.826C35.7831 207.945 34.909 223.714 34.0666 238.976C34.0348 239.515 34.2653 239.872 34.75 240.031L34.8374 240.07L35.0997 240.245C35.2824 240.427 35.5129 240.586 35.7751 240.697C39.0015 242.038 42.8795 241.776 46.6224 241.522L46.7575 241.514C47.4885 241.467 48.2037 241.419 48.8951 241.387C53.5598 241.165 58.3755 240.792 63.2071 240.285C63.7554 240.229 64.2084 239.959 64.415 239.571L64.4627 239.499L64.6613 239.285C64.8044 239.182 64.9792 239.008 65.0189 238.77C67.3791 223.429 69.1432 207.905 70.2478 192.628C70.2558 192.524 70.2558 192.421 70.2399 192.334L70.1048 191.327L71.122 191.35C71.7418 191.366 72.0438 191.382 72.3696 191.398C72.6318 191.406 72.9179 191.422 73.4186 191.438C73.8 191.446 74.0622 191.342 74.253 191.136C74.4834 190.882 74.5947 190.486 74.547 190.073L74.5073 189.772L74.6741 189.51C74.7377 189.407 74.7774 189.32 74.7854 189.248C75.0953 187.353 75.4291 184.894 75.1748 182.561ZM37.587 170.044C37.6664 169.56 37.7459 169.069 37.8254 168.585C37.8651 168.331 37.889 168.069 37.9287 167.807C38.1274 167.792 38.326 167.776 38.5247 167.768C39.0253 167.728 39.5339 167.696 40.0346 167.657C40.9325 167.593 41.8305 167.53 42.7364 167.498C42.7762 167.649 42.8238 167.807 42.8397 167.918L43.102 169.394C43.2371 170.171 43.3722 170.941 43.5073 171.718C41.4888 171.678 39.4862 171.718 37.4439 171.916C37.3883 171.924 37.3327 171.932 37.2771 171.932C37.3804 171.306 37.4837 170.679 37.587 170.044ZM34.3288 179.222C34.3686 178.825 34.3845 178.397 34.3924 177.881C34.3924 177.786 34.3845 177.675 34.3845 177.556C34.3527 176.858 34.3209 176.049 34.7182 175.414C35.1871 174.661 36.0374 174.566 36.546 174.51L36.7446 174.486C37.73 174.359 38.7393 174.296 39.6372 174.248C43.3404 174.034 47.0276 174.336 50.6036 174.621L51.8115 174.716C53.6075 174.859 55.4511 174.859 57.2232 174.867C59.0907 174.867 61.0138 174.875 62.9528 175.034C63.8746 175.113 64.7249 175.24 65.5355 175.43C65.6308 175.454 65.7659 175.478 65.909 175.502C66.9579 175.7 67.8718 175.906 68.3565 176.438C68.7698 176.882 68.738 177.517 68.7141 178.08C68.7062 178.183 68.7062 178.286 68.7062 178.373C68.7062 178.738 68.7221 179.095 68.7539 179.452L68.8492 180.42L66.1076 180.348C63.3581 180.277 60.6085 180.206 57.851 180.15C51.6764 180.015 43.5311 179.896 35.2189 180.158L34.2414 180.19L34.3288 179.222ZM67.8082 192.39C67.7685 192.516 67.7446 192.628 67.7367 192.739C66.6639 207.58 64.9792 222.524 62.7462 237.167L62.6429 237.826L61.9753 237.889C57.5014 238.333 53.4168 238.651 49.4911 238.841C47.0594 238.96 44.8264 239.047 42.6888 239.087C42.3788 239.095 42.061 239.095 41.7272 239.095C40.4875 239.095 38.8585 239.031 37.2373 238.547L36.5857 238.357L36.6254 237.683C36.8003 234.542 36.9512 231.472 37.0546 228.45C42.2358 228.941 47.4488 226.958 50.7546 222.842C52.3916 220.795 53.5916 218.352 54.0048 215.75C54.4896 212.664 53.3452 210.19 51.1202 208.095C48.7997 205.914 45.8356 204.558 42.6093 205.049C41.0994 205.287 41.7431 207.58 43.245 207.342C46.0343 206.914 48.7203 208.778 50.4288 210.808C52.4711 213.236 51.8036 216.361 50.4527 218.979C47.9256 223.873 42.5854 226.72 37.134 226.078C37.436 214.441 36.9115 203.582 33.8282 193.032L33.5262 191.993L34.607 191.929C45.2794 191.311 56.1822 191.081 67.0135 191.247L68.1896 191.263L67.8082 192.39ZM72.4411 188.162L72.314 188.899L71.567 188.876C57.708 188.487 44.7231 188.741 30.6972 189.685L29.7754 189.748V182.887L30.5939 182.847C36.8797 182.538 43.8251 182.435 51.8195 182.538C55.467 182.585 59.0907 182.673 63.4057 182.776L71.5829 182.974C71.7021 182.95 71.8372 182.942 71.9961 182.95L72.7749 182.958L72.8385 183.751C72.9497 185.227 72.6557 186.924 72.4411 188.162Z" fill="#1E1E1E"/>
<path d="M251.194 57.4851C251.003 57.8104 250.94 58.199 251.035 58.5401C251.226 59.2461 251.965 59.6586 252.704 59.4761C256.844 58.4687 261.048 57.8024 265.204 57.4851C265.887 57.4296 266.587 56.9537 266.587 56.1366C266.587 55.7797 266.404 55.3831 266.11 55.1134C265.856 54.8833 265.562 54.7644 265.268 54.7881C260.754 55.1292 256.28 55.8352 251.965 56.8823C251.655 56.9616 251.377 57.1758 251.194 57.4851Z" fill="#1E1E1E"/>
<path d="M272.912 30.7139C273.143 30.9995 273.492 31.055 273.683 31.0709C274.088 31.1026 274.533 30.9439 274.796 30.6822C275.415 30.0555 275.169 29.2464 274.764 28.7467C271.704 24.9233 268.867 20.7272 266.332 16.2772C266.166 15.9837 265.879 15.7695 265.522 15.6743C265.403 15.6426 265.275 15.6267 265.148 15.6267C264.91 15.6267 264.679 15.6822 264.481 15.8012C263.853 16.1661 263.638 17.0149 263.996 17.6494C266.555 22.1153 269.551 26.5098 272.912 30.7139Z" fill="#1E1E1E"/>
<path d="M306.837 31.9672C307.91 32.2131 308.378 31.3643 308.529 30.9915C308.672 30.6266 308.823 30.2697 308.966 29.9048L309.308 29.0878C309.626 28.35 309.96 27.6123 310.302 26.8746C310.961 25.4548 311.676 24.027 312.423 22.615C312.606 22.2739 312.646 21.8456 312.527 21.4728C312.455 21.2507 312.304 20.9492 311.954 20.7668C311.74 20.6557 311.494 20.5923 311.239 20.5923C310.786 20.5923 310.333 20.7906 310.103 21.2269C308.585 24.0904 307.163 27.1602 305.891 30.3569C305.788 30.6187 305.828 30.9439 305.986 31.2533C306.185 31.6181 306.519 31.8958 306.837 31.9672Z" fill="#1E1E1E"/>
<path d="M323.564 75.9752C323.397 75.7611 322.936 75.6104 322.642 75.6104C322.301 75.6104 321.903 75.769 321.697 75.9911C321.538 76.1656 321.268 76.5226 321.292 76.935C321.307 77.292 321.427 77.5776 321.721 77.9345C323.691 80.4014 325.924 82.6701 328.364 84.6849C328.722 84.9863 329.008 85.1053 329.349 85.1053C329.691 85.1053 330.088 84.9466 330.295 84.7245C330.565 84.431 330.716 83.9789 330.692 83.5744C330.677 83.3602 330.605 83.0508 330.335 82.8287C327.84 80.7901 325.575 78.4818 323.564 75.9752Z" fill="#1E1E1E"/>
<path d="M338.17 67.7495C337.773 67.7495 337.383 67.9082 337.105 68.3048C336.899 68.6062 336.827 69.0345 336.915 69.4312C336.986 69.7564 337.169 70.0181 337.415 70.1609C342.008 72.7706 346.57 75.5866 350.98 78.5215C351.592 78.934 352.458 78.7754 352.863 78.1884C353.062 77.9028 353.142 77.5221 353.07 77.1572C353.007 76.8002 352.808 76.5067 352.53 76.3164C348.135 73.3973 343.59 70.5893 339.004 67.9875C338.766 67.8368 338.464 67.7495 338.17 67.7495Z" fill="#1E1E1E"/>
<path d="M326.059 38.2891C326.663 38.0036 327.14 37.3214 326.758 36.4964C326.512 35.9729 326.242 35.3542 326.13 34.7593L326.043 34.2992L327.195 34.2833C327.442 34.2833 327.688 34.2833 327.934 34.2675C328.769 34.2357 329.635 34.1326 330.342 33.6329C331.049 33.1252 331.471 32.4193 331.51 31.6419C331.518 31.4119 331.494 31.1739 331.415 30.8804L331.272 30.3569L331.82 30.3807C332.821 30.4283 333.608 30.3965 334.236 30.0872C334.721 29.8492 335.047 29.4605 335.198 28.937C335.396 28.2389 335.253 27.3823 334.824 26.6842C334.745 26.5573 334.689 26.4859 334.649 26.4383C334.379 26.1131 334.506 25.891 334.681 25.6927L334.784 25.5658C335.158 25.1136 335.873 25.0184 336.39 24.9471L336.58 24.9233C338.003 24.7091 339.187 24.487 340.323 23.6779C340.816 23.3289 340.808 22.5912 340.601 22.0597L340.172 20.9492L342.445 20.505C343.049 20.386 343.295 20.0132 343.399 19.7276C343.565 19.2437 343.446 18.6409 343.105 18.2522C342.898 18.0142 342.516 17.7525 341.897 17.8715L338.066 18.6171C337.582 18.7123 337.335 18.9978 337.208 19.2279C336.993 19.6166 336.978 20.1163 337.152 20.5684L337.733 22.0756L337.248 22.1549C336.986 22.2025 336.715 22.2263 336.453 22.258C336.239 22.2818 336.024 22.3056 335.833 22.3294C334.729 22.5039 333.839 22.8767 333.108 23.4716C332.337 24.0983 331.836 24.9629 331.773 25.7958C331.733 26.2559 331.812 26.7159 331.987 27.1364L332.233 27.7233L331.28 27.6678C330.088 27.5885 329.063 27.525 328.395 28.5086C328.022 29.0639 327.982 29.8968 328.292 30.6345C328.308 30.6742 328.387 30.8328 328.467 30.9914L328.745 31.5308L328.141 31.5705C327.982 31.5864 327.902 31.5864 327.815 31.5864C327.577 31.5943 327.291 31.5943 326.997 31.5943C326.877 31.5943 326.758 31.5943 326.639 31.5943C325.344 31.5943 324.08 31.6895 323.611 32.8793C322.983 34.4579 323.929 36.782 324.366 37.7101C324.708 38.4954 325.471 38.5668 326.059 38.2891Z" fill="#1E1E1E"/>
<path d="M95.3673 247.852C66.4175 246.868 37.0625 246.773 8.12069 247.582C7.20683 247.606 6.51546 247.939 6.21349 248.487C6.02277 248.836 6.03072 249.216 6.23733 249.542C6.5393 250.033 7.22272 250.319 8.09685 250.279C21.1056 249.914 34.2017 249.74 47.2978 249.74C63.366 249.74 79.4342 250.01 95.3911 250.557C96.7421 250.604 97.3858 249.954 97.4016 249.327C97.4255 248.621 96.7341 247.9 95.3673 247.852Z" fill="#1E1E1E"/>
<path d="M33.4787 6.34581C33.6933 5.68743 33.5105 4.84661 32.6205 4.56105C30.0617 3.73609 27.4154 3.33154 24.7771 3.33154C20.6448 3.33154 16.5444 4.32308 12.8968 6.28235C7.65202 9.09038 3.51974 13.8418 1.25494 19.6482C0.881447 20.608 1.66022 20.9967 1.90657 21.0919C2.60588 21.3616 3.53564 21.1712 3.88529 20.2828C8.1765 9.24902 20.4939 3.49019 31.9371 7.16283C32.7874 7.44046 33.3039 6.90107 33.4787 6.34581Z" fill="#1E1E1E"/>
<path d="M353.825 114.915C353.873 115.042 353.904 115.105 353.912 115.137C354.008 115.438 354.063 115.74 354.111 116.017L354.318 117.715L354.58 119.928C354.659 120.571 355.057 121.324 355.931 121.324C356.296 121.324 356.726 121.118 356.996 120.809C357.147 120.642 357.322 120.364 357.282 120.023C357.218 119.531 357.171 119.032 357.115 118.54C356.996 117.421 356.869 116.255 356.678 115.137C356.392 113.439 355.454 112.242 354.032 111.766C352.943 111.401 351.663 111.44 350.424 111.48C350.05 111.488 349.677 111.504 349.319 111.504L344.082 111.512C343.351 111.512 342.731 112.131 342.731 112.86C342.731 113.209 342.874 113.55 343.137 113.804C343.399 114.066 343.733 114.209 344.082 114.209H348.509C348.922 114.209 349.359 114.201 349.812 114.185C350.71 114.161 351.632 114.137 352.41 114.201V114.193L352.609 114.217L352.554 113.955L353.3 114.368C353.364 114.399 353.475 114.463 353.531 114.502L353.451 114.645L353.499 114.637L353.515 114.732L353.666 114.637C353.706 114.701 353.746 114.772 353.785 114.836L353.825 114.915Z" fill="#1E1E1E"/>
<path d="M352.657 114.566L352.673 114.534L352.665 114.51L352.657 114.566Z" fill="#1E1E1E"/>
<path d="M494.847 250.62L457.791 250.485C458.348 234.867 458.093 219.216 457.012 203.621C456.734 199.56 456.385 195.499 455.995 191.445C457.839 191.366 459.683 191.287 461.526 191.215C462.146 191.192 462.75 190.684 462.718 190.026C462.718 189.962 462.702 189.899 462.694 189.843C462.758 189.431 462.607 188.994 462.122 188.725C458.888 186.98 455.781 185.02 452.817 182.847C450.162 180.903 447.437 178.817 445.259 176.319C445.212 175.668 444.679 175.065 444.028 175.153C443.527 175.041 443.002 175.39 442.772 175.898C436.717 180.142 430.86 184.671 425.242 189.486C424.741 189.914 424.773 190.462 425.051 190.874C425.051 190.898 425.043 190.922 425.043 190.946C425.075 191.588 425.567 192.136 426.235 192.136C427.34 192.136 428.444 192.136 429.549 192.136C430.081 192.136 430.606 192.136 431.138 192.136H431.933C431.996 192.136 432.06 192.143 432.131 192.143C431.535 207.191 431.13 222.254 430.931 237.31C430.876 241.649 430.836 245.988 430.804 250.327C430.804 250.343 430.812 250.366 430.812 250.382L417.223 250.335C416.556 242.569 415.904 234.795 415.809 226.998C415.761 223.048 415.857 219.097 416.174 215.163C416.333 213.14 416.564 211.125 416.842 209.111C417.041 207.707 417.223 206.207 416.588 204.883C415.88 203.407 414.41 202.923 412.893 202.693C411.017 202.408 409.126 202.178 407.234 201.995C405.256 201.805 403.277 201.678 401.29 201.599C400.392 201.567 399.494 201.543 398.604 201.535C397.722 201.527 396.737 201.416 395.879 201.662C394.13 202.154 393.987 204.034 393.781 205.549C393.526 207.429 393.423 209.317 393.375 211.205C393.28 215.203 393.248 219.2 393.193 223.198C393.058 232.209 392.922 241.22 392.787 250.232C387.495 250.216 382.202 250.192 376.902 250.176C376.894 250.16 376.894 250.152 376.886 250.136C375.821 247.852 376.298 245.171 376.576 242.767C376.902 239.975 377.172 237.175 377.379 234.367C377.593 231.559 377.752 228.751 377.848 225.943C377.895 224.571 377.935 223.198 377.959 221.826C377.975 220.763 377.991 219.549 376.981 218.899C376.091 218.32 374.844 218.518 373.835 218.51C372.404 218.51 370.974 218.51 369.543 218.502C366.683 218.502 363.822 218.494 360.961 218.494C359.92 218.494 358.529 218.249 357.599 218.796C356.431 219.478 356.622 220.953 356.59 222.104C356.511 224.928 356.423 227.751 356.344 230.575L355.78 249.882C355.78 249.954 355.788 250.025 355.796 250.097C351.878 250.081 347.96 250.065 344.05 250.049C343.399 245.107 344.456 248.003 344.472 243.045C344.48 240.467 344.321 237.897 343.995 235.343C343.748 233.423 343.621 231.083 341.309 230.655C338.821 230.203 336.191 230.139 333.672 229.996C331.058 229.846 328.427 229.758 325.805 229.75C324.819 229.742 323.763 229.695 322.88 230.218C321.895 230.805 321.68 231.852 321.649 232.915C321.561 235.557 321.593 238.206 321.585 240.848C321.569 246.535 321.617 244.29 321.728 249.978C318.502 249.962 315.268 249.954 312.041 249.938C294.9 249.875 277.751 249.811 260.61 249.748C259.077 249.74 259.077 252.119 260.61 252.127C291.157 252.238 321.704 252.357 352.251 252.468C382.639 252.579 413.036 252.698 443.424 252.81C460.565 252.873 477.714 252.936 494.855 253C496.38 253.008 496.38 250.628 494.847 250.62ZM341.666 250.049C335.81 250.025 329.953 250.001 324.104 249.986C324.017 245.488 323.969 248.915 323.961 244.409C323.961 242.093 323.961 239.785 323.985 237.468C323.993 236.342 324.001 235.224 324.017 234.097C324.025 233.637 323.898 232.907 324.057 232.479C324.231 232.011 324.756 232.13 325.209 232.13C329.866 232.114 334.522 232.36 339.155 232.812C339.672 232.86 340.212 232.876 340.721 232.971C341.142 233.05 341.182 233.106 341.301 233.502C341.627 234.565 341.666 235.787 341.778 236.889C342.008 239.134 342.103 241.387 342.072 243.64C342.008 248.431 341.158 245.266 341.666 250.049ZM375.575 221.834C375.567 222.421 375.551 223.008 375.535 223.603C375.503 224.975 375.456 226.347 375.392 227.72C375.281 230.266 375.122 232.812 374.915 235.358C374.685 238.19 374.383 241.014 374.065 243.838C373.819 246.004 373.747 248.129 374.383 250.176C368.963 250.152 363.544 250.136 358.124 250.113C358.14 250.041 358.148 249.97 358.156 249.89C358.307 244.639 358.466 239.38 358.617 234.129C358.688 231.567 358.768 229.005 358.839 226.443C358.879 225.197 358.911 223.944 358.95 222.699C358.966 222.12 358.895 221.445 358.99 220.866C358.998 220.866 358.998 220.866 359.006 220.874C359.276 220.993 359.856 220.874 360.174 220.874C362.773 220.874 365.379 220.882 367.978 220.882C369.21 220.882 370.449 220.882 371.681 220.89C372.269 220.89 372.849 220.89 373.437 220.89C373.731 220.89 375.424 220.684 375.646 220.898C375.519 220.771 375.575 221.652 375.575 221.834ZM403.205 250.279C400.527 250.271 397.841 250.255 395.163 250.247C395.275 242.886 395.386 235.517 395.489 228.156C395.545 224.46 395.601 220.763 395.656 217.067C395.712 213.418 395.616 209.713 396.085 206.088C396.141 205.644 396.149 204.304 396.483 203.994C396.84 203.661 398.493 203.915 398.986 203.923C400.782 203.947 402.57 204.018 404.358 204.137C406.146 204.256 407.934 204.423 409.714 204.637C410.628 204.748 411.534 204.867 412.44 205.01C413.043 205.105 413.854 205.16 414.275 205.652C415.094 206.588 414.514 208.547 414.371 209.618C414.132 211.395 413.941 213.172 413.79 214.957C413.489 218.629 413.377 222.326 413.401 226.014C413.449 234.129 414.132 242.228 414.824 250.311C410.961 250.311 407.083 250.295 403.205 250.279ZM455.407 250.477L433.172 250.398C433.172 250.374 433.18 250.358 433.18 250.335C433.268 234.946 433.562 219.557 434.07 204.177C434.213 199.838 434.372 195.499 434.547 191.168C434.579 190.39 433.983 190.01 433.371 190.026C433.045 189.859 432.672 189.764 432.322 189.764C431.663 189.756 430.995 189.764 430.335 189.764C429.763 189.764 429.183 189.764 428.611 189.764C433.474 185.687 438.505 181.816 443.694 178.159C445.911 180.665 448.676 182.752 451.346 184.719C453.421 186.25 455.574 187.67 457.791 188.994C456.806 189.034 455.82 189.074 454.835 189.121C454.716 189.129 454.605 189.153 454.485 189.193C453.921 189.224 453.428 189.597 453.5 190.327C455.05 205.969 455.789 221.683 455.685 237.397C455.662 241.752 455.566 246.115 455.407 250.477Z" fill="#1E1E1E"/>
<path d="M457.529 148.072C455.948 143.503 451.514 139.973 446.221 139.077C440.388 138.085 433.952 140.409 428.58 145.454C428.119 145.883 428.103 146.525 428.54 146.993C428.961 147.437 429.724 147.588 430.28 147.072C434.381 143.225 439.22 141.115 443.821 141.203C448.128 141.258 452.285 143.511 454.398 146.922C456.703 150.65 456.147 155.83 453.039 159.51C449.956 163.159 444.616 165.666 440.372 163.413C438.29 162.302 436.423 160.319 435.12 157.829C433.729 155.171 433.697 152.347 435.024 150.261C435.358 149.738 435.215 149.111 434.691 148.77C434.174 148.445 433.387 148.484 432.982 149.127C429.867 154.005 432.815 160.66 437.448 164.285C439.459 165.856 441.652 166.665 443.869 166.665C444.266 166.665 444.664 166.641 445.053 166.586C447.755 166.229 450.536 164.944 452.888 162.953C457.418 159.114 459.286 153.141 457.529 148.072Z" fill="#1E1E1E"/>
<path d="M442.693 157.242C443.154 157.662 443.734 158.178 444.402 158.178C444.418 158.178 444.434 158.178 444.449 158.178C445.268 158.146 445.777 157.432 446.19 156.853C446.277 156.726 446.365 156.615 446.444 156.512L453.072 148.238C453.556 147.636 453.334 146.874 452.849 146.485C452.356 146.097 451.744 146.16 451.355 146.652L444.728 154.925C444.656 155.013 444.569 155.14 444.481 155.274C444.418 155.37 444.346 155.473 444.275 155.568C444.179 155.489 444.084 155.393 443.996 155.314C443.869 155.195 443.758 155.092 443.663 155.013L439.809 151.967C439.205 151.483 438.434 151.705 438.044 152.197C437.655 152.688 437.727 153.299 438.211 153.68L442.359 156.964C442.463 157.035 442.574 157.138 442.693 157.242Z" fill="#1E1E1E"/>
</svg>
