<svg width="61" height="8" viewBox="0 0 61 8" fill="none" xmlns="http://www.w3.org/2000/svg">
<path d="M52.6761 2.82601C53.5862 1.96242 54.5703 0.680936 55.6627 0.329666C57.7358 0.414925 58.4614 1.5159 59.6794 2.36356C60.6537 3.04169 60.8973 3.75221 60.8973 4.0227C61.0327 4.31732 61.1409 4.99132 60.4914 5.33038C59.1922 5.66945 57.5278 4.59987 56.8579 4.0227C56.686 3.92518 56.0777 3.32461 55.9084 3.33079C55.9084 3.33079 55.747 3.64807 55.6624 3.65116C55.0751 3.88019 54.337 4.8413 53.8397 5.27464C52.9297 6.13823 51.9429 7.31601 50.7632 7.56667C49.6681 7.81424 48.5519 7.23221 47.6024 6.5403C46.0525 5.55892 44.2223 3.54981 42.3838 4.55109C40.7966 5.4394 39.2621 8.40171 37.3022 7.95428C36.1965 7.78705 35.2339 6.57664 34.369 5.88164C33.5067 5.29033 32.462 4.18671 31.3722 4.64168C30.1157 5.20653 28.8698 6.18618 27.6159 6.85473C26.6133 7.41032 25.6954 7.96281 24.5898 7.79558C23.5688 7.62526 22.45 6.93952 21.5005 6.24761C20.6356 5.55261 19.8448 4.43972 18.9852 3.95212C18.123 3.36082 16.9801 5.06328 16.3188 5.7102C15.4881 6.3633 14.5702 6.91579 13.5518 6.84917C11.3485 6.82581 9.77221 4.80743 7.88107 3.73471C5.98994 2.66198 3.53526 2.75159 2.41082 5.17996C1.60915 6.97376 -0.631094 5.4986 0.170576 3.70479C1.45641 0.95915 3.96676 -0.274252 6.43196 0.0509397C7.79153 0.2089 8.99235 0.787841 10.1138 1.57727C11.1479 2.26609 12.108 3.37281 13.3009 3.64065C14.4965 4.01219 15.3087 2.63319 16.2187 1.7696C17.0441 0.909094 18.1313 0.350424 19.2395 0.621355C20.4324 0.889195 21.2258 2.10579 22.178 2.9014C23.0429 3.5964 24.3415 4.69075 25.3572 4.65367C26.1164 4.52216 27.029 3.76227 27.6136 3.42954L29.3675 2.43135C30.452 1.76898 31.452 1.1097 32.6422 1.27384C33.8351 1.54168 34.8719 2.3342 35.9087 3.12672C36.4271 3.52298 36.8609 3.92233 37.3793 4.3186C37.985 4.81547 37.903 4.92226 38.4823 4.38213C40.2229 2.86543 41.7838 0.940122 44.0771 1.16779C46.2857 1.39855 47.8593 3.31324 49.8325 4.27917C50.4329 4.56864 50.7715 4.55628 51.2688 4.12294C51.6815 3.69269 52.1788 3.25935 52.6761 2.82601Z" fill="#F7C300"/>
</svg>
