<svg width="739" height="349" viewBox="0 0 739 349" fill="none" xmlns="http://www.w3.org/2000/svg">
<path d="M631.219 177.469C631.219 177.469 651.958 175.784 670.502 174.278C672.21 174.139 673.918 174 675.504 173.872C676.46 173.548 677.548 173.337 678.768 173.238C679.144 173.33 679.398 173.432 679.774 173.525C684.337 173.768 688.581 171.581 692.808 172.22C693.062 172.322 693.428 172.293 693.682 172.395C697.371 172.464 702.251 172.067 700.259 167.194C700.229 166.828 700.209 166.584 700.302 166.208C699.966 146.955 698.321 126.704 696.613 107.194C696.382 105.862 696.141 104.408 695.91 103.076C695.316 100.3 694.722 97.5233 694.006 94.757C693.785 93.5469 693.432 92.2247 693.211 91.0147C692.874 86.8667 692.686 84.5488 692.686 84.5488L624.245 90.1083L631.341 177.459L631.219 177.469Z" fill="#F5F5F5"/>
<path d="M638.962 139.753C638.962 139.753 639.084 139.743 639.206 139.733C639.44 139.592 639.684 139.572 639.918 139.43C640.518 139.258 641.006 139.219 641.626 139.291C642.612 139.334 643.647 139.987 644.614 139.785C645.59 139.706 646.384 138.905 647.218 138.591C648.174 138.268 649.16 138.311 650.176 138.719C651.182 139.006 651.67 138.967 652.748 138.633C653.826 138.3 654.904 137.967 656.012 138C657.13 138.155 658.043 138.817 659.039 138.982C660.147 139.015 661.317 138.306 662.254 137.738C664.248 136.594 666.194 139.383 664.331 140.64C661.991 142.058 659.62 143.11 656.959 142.098C656.451 141.894 655.933 141.567 655.445 141.607C654.835 141.657 654.367 141.94 653.767 142.112C652.567 142.455 651.357 142.676 649.975 142.297C649.599 142.205 649.082 141.878 648.594 141.918C648.106 141.958 647.525 142.373 647.057 142.657C645.877 143.244 644.789 143.455 643.549 143.31C642.929 143.238 642.421 143.033 641.792 142.839C641.172 142.767 640.816 142.918 640.215 143.09C639.015 143.433 637.785 143.41 636.73 142.513C635.015 141.056 637.257 138.418 638.962 139.753Z" fill="#59C69F"/>
<path d="M638.858 106.728C651.473 106.317 664.049 105.418 676.697 103.899C679.005 103.589 679.293 107.127 676.975 107.315C664.449 108.824 651.751 109.733 639.136 110.144C636.818 110.332 636.54 106.916 638.858 106.728Z" fill="#59C69F"/>
<path d="M631.691 140.958C631.25 147.625 622.36 145.523 622.801 138.855C623.262 132.432 621.751 125.924 621.469 119.438C621.188 112.952 619.829 106.8 619.313 100.456C618.768 93.7458 627.674 93.0224 628.219 99.7323C629.319 113.274 632.543 127.257 631.691 140.958Z" fill="#59C69F"/>
<path d="M656.9 97.5255C667.088 95.961 677.428 94.7527 687.798 93.9103C690.604 93.6824 690.911 97.4643 688.105 97.6923C677.735 98.5346 667.517 99.7331 657.207 101.307C654.421 101.779 654.113 97.9974 656.9 97.5255Z" fill="#1E1E1E"/>
<path d="M637.611 104.987C654.13 104.259 670.732 103.033 687.152 101.085C691.412 100.616 691.719 104.398 687.459 104.867C671.029 106.693 654.437 108.041 637.918 108.769C633.628 108.872 633.321 105.09 637.611 104.987Z" fill="#1E1E1E"/>
<path d="M643.238 160.651C655.854 160.24 668.429 159.341 681.077 157.823C683.386 157.512 683.673 161.05 681.355 161.239C668.829 162.747 656.131 163.656 643.516 164.067C641.198 164.255 640.91 160.717 643.238 160.651Z" fill="#59C69F"/>
<path d="M661.279 151.449C671.468 149.884 681.808 148.676 692.178 147.833C694.984 147.605 695.291 151.387 692.485 151.615C682.115 152.458 671.897 153.656 661.587 155.231C658.8 155.702 658.493 151.921 661.279 151.449Z" fill="#1E1E1E"/>
<path d="M641.992 158.91C658.511 158.182 675.113 156.956 691.533 155.008C695.793 154.54 696.1 158.322 691.84 158.79C675.41 160.616 658.818 161.964 642.299 162.692C638.009 162.795 637.702 159.013 641.992 158.91Z" fill="#1E1E1E"/>
<path d="M702.16 152.794C702.563 159.27 702.844 165.756 703.135 172.364C703.122 173.716 701.83 174.435 700.824 174.148C700.824 174.148 700.824 174.148 700.702 174.158C699.858 174.349 699.014 174.541 698.16 174.61L698.18 174.854C697.57 174.903 696.95 174.831 696.462 174.871C694.988 174.868 693.402 174.996 691.938 175.115C688.4 175.403 683.632 175.667 680.094 175.955C673.009 176.407 666.055 176.972 658.979 177.547C650.073 178.27 641.299 179.106 632.433 180.317C631.335 180.407 630.685 179.968 630.504 179.246C630.25 179.144 629.986 178.92 629.834 178.564C628.538 176.213 628.33 173.651 628.244 171.079C628.128 168.141 627.89 165.213 627.774 162.275C627.431 156.532 627.077 150.666 626.611 144.932C625.802 133.454 624.748 121.996 623.694 110.538C623.037 103.96 622.39 97.5043 621.611 90.9362C621.552 90.2042 622 89.6766 622.468 89.3929C622.814 89.1192 623.17 88.9675 623.78 88.9179C629.666 88.8082 635.492 87.9666 641.338 87.3689C647.306 86.7613 653.152 86.1636 659.11 85.434C668.972 84.3873 679.688 83.2712 689.824 82.5707C690.8 82.4914 691.776 82.4121 692.752 82.3328C692.996 82.313 693.24 82.2932 693.372 82.4053C693.626 82.5074 693.758 82.6195 694.012 82.7217C694.275 82.9459 694.569 83.5361 694.599 83.902C694.618 84.146 694.638 84.39 694.526 84.5219C698.219 107.309 700.804 130.063 702.16 152.794ZM689.989 86.1185C689.867 86.1284 689.745 86.1383 689.623 86.1482C679.61 86.8389 669.138 87.9351 659.52 88.962C653.552 89.5696 647.706 90.1673 641.747 90.8969C636.511 91.445 631.163 92.1251 625.898 92.3072C628.311 114.461 630.237 136.655 631.665 158.766C631.922 161.938 632.068 165.242 632.204 168.424C632.309 171.24 632.293 174.066 633.478 176.548C647.458 174.799 661.61 173.649 675.659 172.754C679.319 172.456 684.331 172.172 687.991 171.875C690.797 171.647 693.603 171.419 696.419 171.313C696.541 171.303 696.663 171.293 696.785 171.283C697.517 171.224 698.249 171.164 698.849 170.993C699.093 170.973 699.327 170.831 699.449 170.821C698.611 148.416 696.798 126.091 693.886 103.854C693.035 97.9059 692.173 91.8357 691.199 85.8974C690.965 86.0392 690.477 86.0789 689.989 86.1185Z" fill="#1E1E1E"/>
<path d="M640.49 123.787C642.287 124.747 643.695 122.422 645.789 122.497C646.531 122.56 647.912 122.939 648.328 123.519C648.44 123.387 648.674 123.246 648.786 123.114C649.927 122.039 651.199 121.076 652.947 121.425C653.689 121.487 654.46 121.916 654.988 122.364C655.212 122.1 655.436 121.837 655.548 121.705C656.231 121.035 657.187 120.712 658.183 120.877C659.301 121.031 659.716 121.612 660.498 122.162C661.147 122.601 661.045 122.855 661.738 122.307C662.308 121.77 662.756 121.242 663.337 120.826C664.609 119.863 666.307 119.603 667.841 120.338C668.226 120.552 668.764 121.122 669.15 121.337C669.272 121.327 669.262 121.205 669.496 121.063C669.72 120.799 669.944 120.535 670.178 120.393C670.627 119.866 671.197 119.328 671.645 118.801C672.328 118.131 673.782 117.89 674.573 118.563L676.42 120.132C676.552 120.244 676.816 120.468 676.948 120.58C677.63 119.911 678.873 118.582 679.107 118.44C680.146 117.619 681.254 117.652 682.513 118.041C683.275 118.347 684.188 119.01 685.082 119.428C685.53 118.901 685.857 118.383 686.193 117.987C686.865 117.196 688.451 117.067 689.121 117.749C690.176 118.646 691.231 119.543 692.287 120.44C694.133 122.009 691.414 124.809 689.567 123.239C689.039 122.791 688.512 122.343 687.984 121.894C687.199 122.818 686.151 123.517 684.647 123.148C683.651 122.983 682.85 122.189 682.078 121.76C682.078 121.76 681.825 121.658 681.571 121.556C681.459 121.688 681.346 121.819 681.234 121.951C680.104 123.148 678.637 124.741 676.655 124.534C675.415 124.389 674.37 123.614 673.436 122.708C672.194 124.037 670.707 125.385 668.593 125.066C667.841 124.881 666.572 124.37 666.156 123.79C666.024 123.678 666.024 123.678 665.892 123.566C665.658 123.708 665.434 123.972 665.332 124.226C664.079 125.433 662.704 126.65 660.591 126.33C659.595 126.165 658.579 125.757 657.91 125.074C657.798 125.206 657.686 125.338 657.686 125.338C656.087 126.819 654.197 126.235 652.522 125.266C652.39 125.154 652.268 125.164 652.268 125.164C652.156 125.296 651.922 125.438 651.922 125.438C651.362 126.097 650.669 126.645 649.845 127.08C648.889 127.403 647.913 127.483 647.029 127.186C646.643 126.972 646.135 126.767 645.862 126.421C645.73 126.309 645.73 126.309 645.598 126.197C645.476 126.207 645.486 126.329 645.364 126.339C643.765 127.82 640.827 127.935 638.908 126.986C636.359 125.842 638.185 122.624 640.49 123.787Z" fill="#1E1E1E"/>
<path d="M656.568 129.727C657.544 129.648 657.861 129.008 658.695 128.694C659.529 128.381 660.505 128.302 661.267 128.608C661.774 128.813 663.479 130.148 663.868 128.888C664.247 127.507 666.047 126.992 667.347 127.869C667.864 128.195 668.778 128.858 669.632 128.788C670.11 128.627 670.548 127.977 670.895 127.703C672.055 126.872 673.519 126.753 674.92 127.376C675.428 127.581 675.946 127.907 676.23 128.375C676.23 128.375 676.23 128.375 676.24 128.497C676.24 128.497 676.362 128.487 676.352 128.365C676.902 127.584 678.297 126.611 679.253 126.288C680.565 125.813 681.937 126.07 683.104 126.834C683.236 126.947 683.49 127.049 683.876 127.263L683.988 127.131C685.844 124.279 689.755 125.557 691.743 127.361C693.59 128.93 690.87 131.73 689.023 130.161C688.618 129.702 688.1 129.376 687.592 129.172C687.49 129.425 687.5 129.547 687.51 129.669C686.999 130.939 685.726 131.902 684.111 131.665C683.369 131.602 682.597 131.174 682.079 130.847C681.816 130.623 681.146 129.941 680.77 129.849C680.902 129.961 680.424 130.122 680.2 130.386C679.742 130.792 679.283 131.197 678.825 131.603C677.777 132.302 676.455 132.655 675.063 132.154C674.555 131.95 674.037 131.623 673.642 131.287C673.642 131.287 673.51 131.175 673.378 131.063C672.715 131.976 670.671 132.511 669.573 132.6C668.597 132.679 667.591 132.393 666.82 131.964C665.781 132.785 664.479 133.382 662.995 133.257C662.385 133.307 661.877 133.102 661.247 132.908C660.994 132.806 660.74 132.704 660.486 132.601C660.364 132.611 660.354 132.489 660.232 132.499C659.998 132.641 659.652 132.915 659.408 132.935C658.695 133.238 657.973 133.42 657.109 133.367C654.162 133.361 653.874 129.823 656.568 129.727Z" fill="#1E1E1E"/>
<path d="M637.095 137.94C637.745 138.378 639.067 138.025 639.799 137.966C640.897 137.877 642.005 137.909 643.011 138.196C643.509 138.279 644.158 138.717 644.636 138.555C645.002 138.526 645.339 138.13 645.695 137.978C646.631 137.411 647.577 136.966 648.797 136.867C649.651 136.797 650.657 137.084 651.429 137.512C651.561 137.624 651.814 137.727 651.936 137.717L652.049 137.585C652.385 137.189 652.853 136.905 653.321 136.622C654.145 136.186 655.111 135.985 656.107 136.15C657.225 136.305 657.904 137.109 658.91 137.396C659.662 137.58 660.466 136.901 661.179 136.598C662.125 136.152 663.071 135.707 664.169 135.618C665.389 135.519 666.171 136.069 667.288 136.224C668.274 136.267 668.947 135.475 669.903 135.152C670.981 134.819 672.211 134.842 673.207 135.006C674.203 135.171 675.766 136.272 676.854 136.061C677.586 136.002 678.116 134.976 678.697 134.561C679.633 133.993 680.721 133.782 681.717 133.947C682.967 134.214 683.9 135.12 684.813 135.783C684.813 135.783 684.945 135.895 685.077 136.007C685.404 135.489 686.208 134.81 686.534 134.292C688.532 131.674 690.775 133.579 692.845 134.885C694.926 136.312 692.206 139.112 690.126 137.685C689.862 137.46 689.608 137.358 689.222 137.144C688.55 137.935 687.887 138.849 686.829 139.426C684.6 140.712 682.753 139.143 681.058 137.93C680.936 137.94 680.804 137.828 680.672 137.716C680.458 138.102 679.99 138.385 679.644 138.659C678.717 139.348 677.517 139.691 676.287 139.668C675.179 139.636 674.042 139.237 673.036 138.95C672.528 138.746 671.888 138.429 671.41 138.591C670.8 138.64 670.352 139.168 669.884 139.452C668.938 139.897 667.859 140.23 666.742 140.075C665.868 139.901 664.842 139.37 663.998 139.561C663.032 139.763 662.228 140.442 661.394 140.755C660.447 141.201 659.237 141.422 658.231 141.135C657.236 140.97 656.332 140.43 655.56 140.001L655.551 139.879C655.438 140.011 655.326 140.143 655.326 140.143C654.868 140.549 654.41 140.954 653.82 141.248C652.864 141.571 652.01 141.641 651.004 141.354C650.506 141.271 650.12 141.057 649.612 140.853C648.983 140.658 649.105 140.648 648.748 140.8C648.27 140.962 647.822 141.489 647.232 141.783C646.764 142.067 646.164 142.238 645.554 142.288C644.1 142.529 642.942 141.886 641.692 141.619C640.565 141.342 639.364 141.685 638.144 141.784C636.793 141.771 635.665 141.495 634.629 140.842C632.295 139.312 635.024 136.634 637.095 137.94Z" fill="#1E1E1E"/>
<path d="M575.205 209.035C575.205 209.035 595.945 207.351 614.489 205.844C616.197 205.705 617.905 205.567 619.491 205.438C620.447 205.115 621.535 204.903 622.755 204.804C623.131 204.897 623.385 204.999 623.761 205.091C629.066 205.397 633.748 202.561 638.664 204.126C639.03 204.096 639.508 203.935 639.874 203.905C640.23 203.753 640.709 203.592 641.075 203.562C642.031 203.239 642.743 202.935 643.435 202.388C643.781 202.114 644.006 201.85 644.352 201.576C644.263 180.83 642.479 158.87 640.521 137.784C640.28 136.33 640.049 134.998 639.808 133.544C639.214 130.768 638.61 127.87 637.894 125.103C637.673 123.893 637.32 122.571 637.099 121.361C636.762 117.213 636.564 114.773 636.564 114.773L568.123 120.333L575.327 209.025L575.205 209.035Z" fill="#F5F5F5"/>
<path d="M581.419 173.655C581.419 173.655 581.541 173.645 581.663 173.635C581.897 173.493 582.141 173.473 582.375 173.331C582.975 173.16 583.463 173.12 584.083 173.193C585.069 173.235 586.104 173.888 587.071 173.687C588.047 173.607 588.841 172.806 589.675 172.493C590.631 172.169 591.617 172.212 592.633 172.621C593.639 172.908 594.127 172.868 595.205 172.535C596.283 172.202 597.361 171.868 598.469 171.901C599.587 172.056 600.5 172.719 601.496 172.883C602.604 172.916 603.774 172.207 604.711 171.64C606.705 170.495 608.651 173.284 606.788 174.541C604.448 175.959 602.077 177.011 599.416 176C598.908 175.795 598.39 175.469 597.902 175.508C597.292 175.558 596.824 175.842 596.224 176.013C595.024 176.356 593.814 176.577 592.432 176.198C592.056 176.106 591.539 175.78 591.051 175.819C590.563 175.859 589.982 176.275 589.514 176.558C588.334 177.145 587.246 177.357 586.006 177.212C585.386 177.139 584.878 176.935 584.249 176.74C583.629 176.668 583.273 176.82 582.672 176.991C581.472 177.334 580.242 177.311 579.187 176.415C577.472 174.958 579.724 172.441 581.419 173.655Z" fill="#59C69F"/>
<path d="M581.325 140.751C593.941 140.34 606.516 139.441 619.164 137.923C621.472 137.613 621.76 141.15 619.442 141.339C606.916 142.848 594.218 143.756 581.603 144.167C579.397 144.223 578.997 140.817 581.325 140.751Z" fill="#59C69F"/>
<path d="M637.137 152.059C637.577 145.392 646.467 147.494 646.026 154.161C645.566 160.584 647.077 167.093 647.358 173.579C647.639 180.064 648.999 186.217 649.514 192.561C650.059 199.271 641.153 199.994 640.608 193.284C639.386 179.752 636.285 165.759 637.137 152.059Z" fill="#59C69F"/>
<path d="M599.366 131.549C609.555 129.984 619.895 128.776 630.265 127.934C633.071 127.706 633.378 131.488 630.572 131.716C620.202 132.558 609.984 133.756 599.674 135.331C596.878 135.681 596.57 131.899 599.366 131.549Z" fill="#1E1E1E"/>
<path d="M580.19 138.878C596.71 138.15 613.311 136.925 629.732 134.977C633.992 134.508 634.299 138.29 630.039 138.759C613.609 140.585 597.017 141.932 580.498 142.66C576.218 142.885 575.789 139.113 580.19 138.878Z" fill="#1E1E1E"/>
<path d="M585.705 194.674C598.32 194.263 610.896 193.365 623.544 191.846C625.852 191.536 626.14 195.074 623.822 195.262C611.296 196.771 598.598 197.679 585.983 198.09C583.777 198.146 583.377 194.74 585.705 194.674Z" fill="#59C69F"/>
<path d="M603.746 185.472C613.935 183.907 624.275 182.699 634.645 181.857C637.451 181.629 637.758 185.411 634.952 185.639C624.582 186.481 614.364 187.679 604.053 189.254C601.257 189.604 600.95 185.822 603.746 185.472Z" fill="#1E1E1E"/>
<path d="M584.571 192.801C601.091 192.074 617.692 190.848 634.112 188.9C638.372 188.431 638.68 192.213 634.42 192.682C617.989 194.508 601.398 195.855 584.878 196.583C580.599 196.808 580.169 193.036 584.571 192.801Z" fill="#1E1E1E"/>
<path d="M566.669 140.222C566.266 133.747 565.984 127.261 565.693 120.653C565.706 119.301 566.999 118.582 568.004 118.869C568.004 118.869 568.004 118.869 568.126 118.859C568.97 118.668 569.814 118.476 570.668 118.407L570.649 118.163C571.259 118.113 571.878 118.186 572.366 118.146C573.84 118.149 575.426 118.02 576.89 117.902C580.428 117.614 585.196 117.35 588.734 117.062C595.82 116.609 602.774 116.045 609.85 115.47C618.755 114.746 627.529 113.911 636.396 112.699C637.494 112.61 638.143 113.049 638.325 113.771C638.579 113.873 638.842 114.097 638.994 114.453C640.29 116.804 640.498 119.366 640.585 121.938C640.7 124.876 640.938 127.804 641.054 130.741C641.398 136.485 641.752 142.351 642.217 148.085C643.027 159.563 644.08 171.021 645.134 182.479C645.791 189.057 646.438 195.513 647.218 202.081C647.277 202.813 646.829 203.34 646.36 203.624C646.014 203.898 645.658 204.049 645.048 204.099C639.163 204.209 633.336 205.05 627.49 205.648C621.522 206.256 615.676 206.853 609.718 207.583C599.856 208.63 589.14 209.746 579.004 210.446C578.029 210.525 577.053 210.605 576.077 210.684C575.833 210.704 575.589 210.724 575.457 210.612C575.203 210.509 575.071 210.397 574.817 210.295C574.553 210.071 574.26 209.481 574.23 209.115C574.21 208.871 574.19 208.627 574.302 208.495C570.609 185.708 568.034 163.076 566.669 140.222ZM578.839 206.898C578.961 206.888 579.083 206.878 579.205 206.869C589.219 206.178 599.691 205.082 609.309 204.055C615.277 203.447 621.123 202.849 627.081 202.12C632.317 201.572 637.665 200.892 642.931 200.71C640.517 178.555 638.592 156.362 637.164 134.25C636.906 131.078 636.761 127.775 636.625 124.593C636.519 121.777 636.535 118.951 635.351 116.468C621.371 118.218 607.219 119.368 593.169 120.263C589.509 120.561 584.498 120.845 580.838 121.142C578.032 121.37 575.226 121.598 572.41 121.704C572.288 121.714 572.166 121.724 572.044 121.734C571.312 121.793 570.58 121.853 569.98 122.024C569.736 122.044 569.502 122.186 569.38 122.196C570.217 144.601 572.031 166.926 574.942 189.163C575.794 195.111 576.655 201.181 577.629 207.119C577.863 206.978 578.351 206.938 578.839 206.898Z" fill="#1E1E1E"/>
<path d="M582.957 157.811C584.754 158.77 586.162 156.445 588.255 156.521C588.997 156.583 590.379 156.962 590.794 157.543C590.907 157.411 591.141 157.269 591.253 157.137C592.393 156.062 593.666 155.099 595.414 155.448C596.156 155.511 596.927 155.939 597.455 156.387C597.679 156.124 597.903 155.86 598.015 155.728C598.698 155.059 599.654 154.735 600.65 154.9C601.767 155.055 602.183 155.635 602.965 156.186C603.614 156.624 603.512 156.878 604.204 156.33C604.775 155.793 605.223 155.265 605.803 154.85C607.076 153.887 608.774 153.626 610.307 154.361C610.693 154.575 611.231 155.146 611.617 155.36C611.739 155.35 611.729 155.228 611.963 155.086C612.187 154.822 612.411 154.559 612.645 154.417C613.093 153.889 613.664 153.352 614.112 152.824C614.795 152.154 616.249 151.914 617.04 152.586L618.887 154.155C619.019 154.267 619.283 154.492 619.414 154.604C620.097 153.934 621.34 152.605 621.574 152.463C622.612 151.642 623.72 151.675 624.98 152.064C625.742 152.37 626.655 153.033 627.549 153.452C627.997 152.924 628.323 152.406 628.66 152.011C629.332 151.219 630.918 151.09 631.588 151.773C632.643 152.669 633.698 153.566 634.753 154.463C636.6 156.032 633.88 158.832 632.034 157.263C631.506 156.814 630.978 156.366 630.451 155.918C629.666 156.841 628.618 157.54 627.114 157.171C626.118 157.006 625.317 156.212 624.545 155.783C624.545 155.783 624.291 155.681 624.037 155.579C623.925 155.711 623.813 155.843 623.701 155.975C622.57 157.172 621.103 158.765 619.122 158.557C617.882 158.412 616.836 157.638 615.903 156.731C614.66 158.06 613.173 159.409 611.06 159.089C610.308 158.905 609.038 158.394 608.623 157.814C608.491 157.701 608.491 157.701 608.359 157.589C608.125 157.731 607.901 157.995 607.799 158.249C606.546 159.456 605.171 160.673 603.058 160.353C602.062 160.189 601.046 159.78 600.377 159.097C600.265 159.229 600.152 159.361 600.152 159.361C598.553 160.842 596.664 160.259 594.989 159.289C594.857 159.177 594.735 159.187 594.735 159.187C594.623 159.319 594.389 159.461 594.389 159.461C593.828 160.121 593.136 160.668 592.312 161.103C591.356 161.427 590.38 161.506 589.496 161.209C589.11 160.995 588.602 160.791 588.329 160.445C588.197 160.332 588.197 160.332 588.065 160.22C587.943 160.23 587.953 160.352 587.831 160.362C586.232 161.843 583.294 161.959 581.375 161.009C578.948 159.856 580.764 156.515 582.957 157.811Z" fill="#1E1E1E"/>
<path d="M599.157 163.74C600.133 163.661 600.449 163.021 601.284 162.708C602.118 162.395 603.094 162.315 603.855 162.622C604.363 162.826 606.068 164.161 606.457 162.902C606.836 161.52 608.636 161.005 609.936 161.882C610.453 162.209 611.367 162.871 612.221 162.802C612.699 162.64 613.137 161.991 613.483 161.717C614.644 160.886 616.108 160.767 617.509 161.39C618.017 161.594 618.535 161.921 618.819 162.389C618.819 162.389 618.819 162.389 618.828 162.511C618.828 162.511 618.95 162.501 618.941 162.379C619.491 161.597 620.886 160.624 621.842 160.301C623.154 159.826 624.526 160.083 625.693 160.848C625.825 160.96 626.079 161.062 626.465 161.276L626.577 161.144C628.433 158.292 632.344 159.571 634.332 161.374C636.179 162.943 633.459 165.743 631.612 164.174C631.207 163.716 630.689 163.389 630.181 163.185C630.079 163.439 630.089 163.561 630.099 163.683C629.588 164.952 628.315 165.915 626.7 165.678C625.958 165.616 625.186 165.187 624.668 164.861C624.404 164.637 623.735 163.954 623.359 163.862C623.491 163.974 623.013 164.136 622.789 164.399C622.331 164.805 621.872 165.211 621.414 165.616C620.366 166.316 619.043 166.669 617.652 166.168C617.144 165.963 616.626 165.637 616.231 165.301C616.231 165.301 616.099 165.189 615.967 165.076C615.304 165.99 613.26 166.524 612.162 166.614C611.186 166.693 610.18 166.406 609.409 165.978C608.37 166.799 607.068 167.396 605.584 167.271C604.974 167.32 604.466 167.116 603.836 166.921C603.582 166.819 603.329 166.717 603.075 166.615C602.953 166.625 602.943 166.503 602.821 166.513C602.587 166.655 602.24 166.928 601.996 166.948C601.284 167.252 600.562 167.433 599.698 167.38C596.751 167.374 596.453 163.714 599.157 163.74Z" fill="#1E1E1E"/>
<path d="M579.684 171.953C580.334 172.392 581.656 172.039 582.388 171.979C583.486 171.89 584.594 171.923 585.6 172.21C586.098 172.292 586.747 172.731 587.225 172.569C587.591 172.539 587.928 172.143 588.284 171.992C589.22 171.424 590.166 170.979 591.386 170.88C592.24 170.811 593.246 171.097 594.017 171.526C594.149 171.638 594.403 171.74 594.525 171.73L594.637 171.598C594.974 171.203 595.442 170.919 595.91 170.635C596.734 170.2 597.7 169.999 598.696 170.163C599.814 170.318 600.493 171.123 601.499 171.409C602.251 171.594 603.055 170.915 603.767 170.611C604.714 170.166 605.66 169.721 606.758 169.631C607.978 169.532 608.759 170.083 609.877 170.238C610.863 170.28 611.536 169.489 612.492 169.166C613.57 168.832 614.8 168.855 615.796 169.02C616.792 169.185 618.355 170.286 619.443 170.075C620.175 170.015 620.705 168.99 621.286 168.574C622.222 168.007 623.31 167.796 624.306 167.96C625.556 168.227 626.489 169.134 627.402 169.796C627.402 169.796 627.534 169.909 627.666 170.021C627.992 169.503 628.797 168.824 629.123 168.306C631.121 165.687 633.363 167.593 635.434 168.898C637.515 170.326 634.795 173.126 632.714 171.698C632.451 171.474 632.197 171.372 631.811 171.158C631.138 171.949 630.476 172.863 629.417 173.44C627.189 174.726 625.342 173.157 623.647 171.944C623.525 171.953 623.393 171.841 623.261 171.729C623.047 172.115 622.579 172.399 622.233 172.672C621.306 173.362 620.106 173.705 618.876 173.682C617.768 173.649 616.631 173.25 615.625 172.964C615.117 172.759 614.477 172.443 613.999 172.604C613.389 172.654 612.941 173.182 612.473 173.465C611.526 173.911 610.448 174.244 609.33 174.089C608.457 173.914 607.431 173.384 606.587 173.575C605.621 173.776 604.817 174.456 603.982 174.769C603.036 175.214 601.826 175.435 600.82 175.149C599.825 174.984 598.921 174.443 598.149 174.015L598.139 173.893C598.027 174.025 597.915 174.157 597.915 174.157C597.457 174.562 596.999 174.968 596.409 175.261C595.452 175.585 594.598 175.654 593.593 175.367C593.095 175.285 592.709 175.071 592.201 174.866C591.571 174.672 591.693 174.662 591.337 174.814C590.859 174.975 590.411 175.503 589.821 175.797C589.353 176.08 588.752 176.252 588.142 176.301C586.688 176.542 585.531 175.899 584.281 175.633C583.154 175.356 581.953 175.699 580.733 175.798C579.381 175.785 578.254 175.508 577.218 174.855C574.762 173.336 577.603 170.526 579.684 171.953Z" fill="#1E1E1E"/>
<path d="M519.263 153.775C519.263 153.775 540.003 152.09 558.546 150.584C560.254 150.445 561.962 150.306 563.548 150.178C564.505 149.854 565.593 149.643 566.813 149.544C567.189 149.636 567.442 149.738 567.818 149.831C573.124 150.137 577.805 147.3 582.722 148.866C583.088 148.836 583.566 148.674 583.932 148.645C584.288 148.493 584.766 148.331 585.132 148.301C586.088 147.978 586.801 147.675 587.493 147.127C587.839 146.854 588.063 146.59 588.409 146.316C588.321 125.569 586.537 103.61 584.578 82.524C584.337 81.0699 584.106 79.7378 583.865 78.2838C583.272 75.5075 582.668 72.6093 581.952 69.843C581.731 68.6329 581.378 67.3108 581.157 66.1007C580.82 61.9527 580.621 59.5128 580.621 59.5128L512.18 65.0723L519.385 153.765L519.263 153.775Z" fill="#F5F5F5"/>
<path d="M526.805 115.093C526.805 115.093 526.927 115.083 527.049 115.073C527.283 114.931 527.527 114.912 527.761 114.77C528.361 114.598 528.849 114.559 529.469 114.631C530.455 114.674 531.49 115.326 532.456 115.125C533.432 115.046 534.227 114.245 535.061 113.931C536.017 113.608 537.003 113.651 538.019 114.059C539.024 114.346 539.512 114.306 540.591 113.973C541.669 113.64 542.747 113.307 543.855 113.34C544.973 113.494 545.886 114.157 546.882 114.322C547.99 114.355 549.16 113.645 550.096 113.078C552.091 111.934 554.037 114.723 552.174 115.979C549.833 117.398 547.463 118.45 544.802 117.438C544.294 117.234 543.776 116.907 543.288 116.947C542.678 116.996 542.21 117.28 541.61 117.452C540.41 117.795 539.2 118.016 537.818 117.637C537.442 117.545 536.924 117.218 536.436 117.258C535.948 117.298 535.368 117.713 534.9 117.997C533.72 118.584 532.632 118.795 531.392 118.65C530.772 118.578 530.264 118.373 529.634 118.179C529.014 118.106 528.658 118.258 528.058 118.43C526.858 118.773 525.628 118.75 524.573 117.853C522.858 116.396 524.978 113.768 526.805 115.093Z" fill="#59C69F"/>
<path d="M526.701 82.0675C539.317 81.6568 551.892 80.758 564.54 79.2394C566.848 78.9291 567.136 82.467 564.818 82.6553C552.292 84.1641 539.594 85.0727 526.979 85.4835C524.661 85.6717 524.373 82.1338 526.701 82.0675Z" fill="#59C69F"/>
<path d="M519.412 116.308C518.972 122.975 510.082 120.872 510.523 114.205C510.983 107.782 509.472 101.273 509.191 94.7877C508.91 88.3019 507.55 82.1494 507.035 75.8055C506.49 69.0956 515.396 68.3722 515.941 75.0821C517.163 88.6139 520.386 102.597 519.412 116.308Z" fill="#59C69F"/>
<path d="M544.742 72.8652C554.931 71.3008 565.271 70.0924 575.641 69.2501C578.447 69.0221 578.754 72.8041 575.948 73.032C565.578 73.8743 555.36 75.0728 545.05 76.6471C542.141 77.129 541.956 73.3371 544.742 72.8652Z" fill="#1E1E1E"/>
<path d="M525.454 80.3266C541.973 79.5987 558.575 78.3729 574.995 76.4251C579.255 75.9562 579.562 79.7382 575.302 80.207C558.872 82.0329 542.28 83.3806 525.761 84.1085C521.471 84.2114 521.164 80.4294 525.454 80.3266Z" fill="#1E1E1E"/>
<path d="M531.081 135.991C543.696 135.58 556.272 134.681 568.92 133.162C571.228 132.852 571.516 136.39 569.198 136.578C556.672 138.087 543.974 138.996 531.359 139.407C529.041 139.595 528.753 136.057 531.081 135.991Z" fill="#59C69F"/>
<path d="M549.122 126.788C559.311 125.224 569.651 124.016 580.021 123.173C582.826 122.945 583.134 126.727 580.328 126.955C569.958 127.798 559.74 128.996 549.429 130.57C546.521 131.052 546.336 127.26 549.122 126.788Z" fill="#1E1E1E"/>
<path d="M529.824 134.128C546.343 133.4 562.945 132.174 579.365 130.226C583.625 129.757 583.933 133.539 579.673 134.008C563.242 135.834 546.651 137.182 530.131 137.91C525.852 138.135 525.544 134.353 529.824 134.128Z" fill="#1E1E1E"/>
<path d="M590.003 128.134C590.406 134.61 590.687 141.096 590.978 147.704C590.965 149.055 589.673 149.774 588.667 149.488C588.667 149.488 588.667 149.488 588.545 149.498C587.701 149.689 586.857 149.88 586.003 149.95L586.023 150.194C585.413 150.243 584.793 150.171 584.305 150.21C582.831 150.207 581.245 150.336 579.781 150.455C576.243 150.743 571.475 151.007 567.937 151.294C560.851 151.747 553.898 152.312 546.822 152.887C537.916 153.61 529.142 154.446 520.276 155.657C519.178 155.746 518.528 155.308 518.347 154.586C518.093 154.484 517.829 154.26 517.677 153.903C516.381 151.553 516.173 148.991 516.087 146.419C515.971 143.481 515.733 140.553 515.617 137.615C515.273 131.871 514.92 126.006 514.454 120.272C513.644 108.794 512.591 97.336 511.537 85.8781C510.88 79.3001 510.233 72.8441 509.454 66.276C509.394 65.544 509.843 65.0164 510.311 64.7328C510.657 64.459 511.013 64.3073 511.623 64.2578C517.509 64.1481 523.335 63.3064 529.181 62.7087C535.149 62.1011 540.995 61.5034 546.953 60.7738C556.815 59.7271 567.531 58.611 577.667 57.9105C578.643 57.8312 579.619 57.7519 580.595 57.6727C580.839 57.6528 581.083 57.633 581.215 57.7451C581.469 57.8473 581.6 57.9594 581.854 58.0616C582.118 58.2857 582.412 58.8759 582.441 59.2419C582.461 59.4859 582.481 59.7299 582.369 59.8618C586.062 82.6488 588.637 105.281 590.003 128.134ZM577.832 61.4584C577.71 61.4683 577.588 61.4782 577.466 61.4881C567.452 62.1787 556.98 63.275 547.362 64.3019C541.394 64.9095 535.548 65.5072 529.59 66.2367C524.354 66.7849 519.006 67.4649 513.74 67.6471C516.154 89.8012 518.08 111.995 519.507 134.106C519.765 137.278 519.911 140.582 520.046 143.764C520.152 146.58 520.136 149.406 521.32 151.888C535.301 150.139 549.452 148.989 563.502 148.093C567.162 147.796 572.174 147.512 575.834 147.214C578.64 146.987 581.446 146.759 584.261 146.653C584.383 146.643 584.505 146.633 584.627 146.623C585.359 146.564 586.091 146.504 586.691 146.332C586.935 146.313 587.17 146.171 587.292 146.161C586.454 123.756 584.64 101.43 581.729 79.1939C580.877 73.2457 580.016 67.1755 579.042 61.2373C578.686 61.389 578.32 61.4187 577.832 61.4584Z" fill="#1E1E1E"/>
<path d="M528.332 99.1273C530.129 100.087 531.537 97.7618 533.63 97.8373C534.372 97.8998 535.754 98.2788 536.169 98.8591C536.282 98.7272 536.516 98.5853 536.628 98.4534C537.768 97.3784 539.041 96.4154 540.789 96.7646C541.531 96.8271 542.302 97.2557 542.83 97.704C543.054 97.4402 543.278 97.1764 543.39 97.0445C544.073 96.375 545.029 96.0518 546.025 96.2165C547.142 96.3713 547.558 96.9515 548.34 97.5021C548.989 97.9405 548.887 98.1944 549.579 97.647C550.15 97.1094 550.598 96.5818 551.178 96.1662C552.451 95.2032 554.149 94.9425 555.682 95.6776C556.068 95.8918 556.606 96.4622 556.992 96.6765C557.114 96.6665 557.104 96.5445 557.338 96.4027C557.562 96.1389 557.786 95.8751 558.02 95.7333C558.468 95.2056 559.039 94.6681 559.487 94.1405C560.17 93.471 561.624 93.2301 562.415 93.9026L564.262 95.4719C564.394 95.5839 564.658 95.8081 564.789 95.9202C565.472 95.2508 566.715 93.9218 566.949 93.7799C567.987 92.9588 569.095 92.9916 570.355 93.3805C571.117 93.687 572.03 94.3496 572.924 94.7682C573.372 94.2406 573.698 93.7229 574.035 93.3272C574.707 92.5357 576.293 92.4069 576.963 93.0893C578.018 93.986 579.073 94.8827 580.128 95.7794C581.975 97.3487 579.255 100.148 577.409 98.5792C576.881 98.1309 576.353 97.6825 575.826 97.2342C575.041 98.1575 573.993 98.8567 572.489 98.4876C571.493 98.3229 570.692 97.5284 569.92 97.0999C569.92 97.0999 569.666 96.9977 569.412 96.8955C569.3 97.0274 569.188 97.1593 569.076 97.2912C567.945 98.4883 566.478 100.081 564.497 99.8737C563.257 99.7288 562.211 98.9541 561.278 98.0475C560.035 99.3765 558.548 100.725 556.435 100.406C555.683 100.221 554.413 99.7103 553.998 99.1301C553.866 99.018 553.866 99.018 553.734 98.9059C553.5 99.0477 553.276 99.3115 553.174 99.5654C551.921 100.772 550.546 101.989 548.433 101.67C547.437 101.505 546.421 101.096 545.752 100.414C545.64 100.546 545.527 100.678 545.527 100.678C543.928 102.159 542.039 101.575 540.364 100.606C540.232 100.494 540.11 100.504 540.11 100.504C539.998 100.636 539.764 100.778 539.764 100.778C539.203 101.437 538.511 101.985 537.687 102.42C536.731 102.743 535.755 102.822 534.871 102.526C534.485 102.312 533.977 102.107 533.704 101.761C533.572 101.649 533.572 101.649 533.44 101.537C533.318 101.547 533.328 101.669 533.206 101.679C531.607 103.159 528.669 103.275 526.75 102.326C524.201 101.182 526.027 97.9637 528.332 99.1273Z" fill="#1E1E1E"/>
<path d="M544.411 105.067C545.387 104.987 545.703 104.348 546.538 104.034C547.372 103.721 548.348 103.642 549.109 103.948C549.617 104.153 551.322 105.488 551.711 104.228C552.09 102.846 553.89 102.332 555.189 103.209C555.707 103.535 556.621 104.198 557.475 104.128C557.953 103.967 558.391 103.317 558.737 103.043C559.898 102.212 561.362 102.093 562.763 102.716C563.271 102.921 563.789 103.247 564.072 103.715C564.072 103.715 564.072 103.715 564.082 103.837C564.082 103.837 564.204 103.827 564.194 103.705C564.745 102.924 566.14 101.951 567.096 101.628C568.408 101.152 569.78 101.409 570.947 102.174C571.079 102.286 571.333 102.389 571.719 102.603L571.831 102.471C573.687 99.6185 577.597 100.897 579.586 102.701C581.433 104.27 578.713 107.07 576.866 105.5C576.461 105.042 575.943 104.716 575.435 104.511C575.333 104.765 575.343 104.887 575.353 105.009C574.842 106.279 573.569 107.242 571.953 107.005C571.212 106.942 570.44 106.514 569.922 106.187C569.658 105.963 568.989 105.281 568.613 105.188C568.745 105.3 568.267 105.462 568.043 105.726C567.584 106.132 567.126 106.537 566.668 106.943C565.619 107.642 564.297 107.995 562.906 107.494C562.398 107.29 561.88 106.963 561.485 106.627C561.485 106.627 561.353 106.515 561.221 106.403C560.558 107.316 558.514 107.851 557.416 107.94C556.44 108.019 555.434 107.733 554.663 107.304C553.624 108.125 552.322 108.722 550.838 108.597C550.228 108.647 549.72 108.442 549.09 108.248C548.836 108.146 548.582 108.043 548.329 107.941C548.207 107.951 548.197 107.829 548.075 107.839C547.841 107.981 547.494 108.255 547.25 108.275C546.538 108.578 545.816 108.759 544.952 108.707C542.004 108.701 541.717 105.163 544.411 105.067Z" fill="#1E1E1E"/>
<path d="M524.938 113.28C525.588 113.718 526.91 113.365 527.642 113.306C528.74 113.217 529.848 113.249 530.854 113.536C531.351 113.619 532.001 114.057 532.479 113.895C532.845 113.866 533.181 113.47 533.537 113.318C534.474 112.751 535.42 112.306 536.64 112.206C537.494 112.137 538.5 112.424 539.271 112.852C539.403 112.964 539.657 113.067 539.779 113.057L539.891 112.925C540.228 112.529 540.696 112.245 541.164 111.962C541.988 111.526 542.954 111.325 543.95 111.49C545.068 111.645 545.747 112.449 546.753 112.736C547.505 112.92 548.309 112.241 549.021 111.938C549.968 111.492 550.914 111.047 552.012 110.958C553.232 110.859 554.013 111.409 555.131 111.564C556.117 111.607 556.79 110.815 557.746 110.492C558.824 110.159 560.054 110.182 561.05 110.346C562.045 110.511 563.608 111.612 564.697 111.401C565.429 111.342 565.959 110.316 566.54 109.901C567.476 109.333 568.564 109.122 569.56 109.287C570.809 109.554 571.743 110.46 572.656 111.123C572.656 111.123 572.788 111.235 572.92 111.347C573.246 110.829 574.051 110.15 574.377 109.632C576.375 107.014 578.617 108.919 580.688 110.225C582.769 111.652 580.049 114.452 577.968 113.025C577.705 112.8 577.451 112.698 577.065 112.484C576.392 113.275 575.73 114.189 574.671 114.766C572.443 116.052 570.596 114.483 568.901 113.27C568.779 113.28 568.647 113.168 568.515 113.056C568.301 113.442 567.833 113.725 567.486 113.999C566.56 114.688 565.36 115.031 564.13 115.008C563.022 114.976 561.884 114.577 560.879 114.29C560.371 114.086 559.731 113.769 559.253 113.931C558.643 113.98 558.195 114.508 557.727 114.792C556.78 115.237 555.702 115.57 554.584 115.415C553.711 115.241 552.685 114.71 551.841 114.901C550.875 115.103 550.07 115.782 549.236 116.095C548.29 116.541 547.08 116.762 546.074 116.475C545.078 116.31 544.175 115.77 543.403 115.341L543.393 115.219C543.281 115.351 543.169 115.483 543.169 115.483C542.711 115.889 542.253 116.294 541.662 116.588C540.706 116.911 539.852 116.98 538.847 116.694C538.349 116.611 537.963 116.397 537.455 116.193C536.825 115.998 536.947 115.988 536.591 116.14C536.113 116.302 535.665 116.829 535.075 117.123C534.606 117.407 534.006 117.578 533.396 117.628C531.942 117.869 530.785 117.226 529.535 116.959C528.407 116.682 527.207 117.025 525.987 117.124C524.635 117.111 523.508 116.835 522.472 116.182C520.138 114.652 522.857 111.852 524.938 113.28Z" fill="#1E1E1E"/>
<path d="M705.613 95.5333C707.156 96.3904 708.587 97.3794 710.131 98.2364C711.298 99.0012 712.353 99.8979 712.116 101.514C711.747 103.017 710.778 104.692 710.267 105.962C709.951 106.602 709.756 107.231 709.43 107.749C710.729 108.626 711.916 109.635 713.215 110.512C713.997 111.062 714.106 112.404 713.424 113.074C711.947 114.545 710.724 116.118 709.51 117.813L709.398 117.944C709.662 118.169 709.804 118.403 710.068 118.627C710.859 119.299 711.905 120.074 712.574 120.757C713.781 122.009 713.91 123.595 712.789 124.914C711.892 125.97 710.752 127.045 709.723 127.988L712.038 129.274C713.317 129.906 714.973 130.632 714.979 132.227C715.098 133.691 713.753 135.274 713.12 136.554C712.478 137.711 711.845 138.991 711.202 140.148L713.537 141.678C714.572 142.33 715.608 142.983 715.473 144.345C715.43 145.331 714.645 146.254 714.095 147.036C713.656 147.685 713.208 148.213 712.769 148.863C712.545 149.126 712.321 149.39 712.097 149.654L711.985 149.786C712.371 150 712.918 150.693 713.05 150.805C713.578 151.253 713.983 151.711 714.521 152.282C715.19 152.964 715.992 153.759 715.837 154.876C715.692 156.116 714.775 156.927 713.991 157.851L710.954 161.29C709.385 163.137 706.615 160.783 708.184 158.936C708.521 158.541 710.753 155.781 711.649 154.725C711.254 154.389 710.98 154.043 710.584 153.707C709.915 153.024 709.133 152.474 708.586 151.781C707.633 150.631 707.768 149.269 708.644 147.97C709.205 147.31 709.887 146.641 710.438 145.859C710.662 145.595 711.11 145.068 711.437 144.55C710.259 143.663 708.848 142.918 707.691 142.275C707.041 141.837 706.83 140.749 707.268 140.099C708.554 137.784 709.83 135.347 710.993 133.042C710.495 132.96 709.958 132.39 709.45 132.185C708.292 131.543 707.135 130.9 705.846 130.145C704.942 129.604 704.335 128.18 705.242 127.247C706.036 126.445 706.831 125.644 707.625 124.843C708.084 124.437 708.848 123.27 709.439 122.976C708.931 122.772 708.515 122.191 708.12 121.855C707.338 121.305 706.425 120.642 705.877 119.95C704.64 118.331 705.629 116.9 706.628 115.591C707.393 114.423 708.412 113.358 709.308 112.303C708.009 111.426 706.822 110.417 705.523 109.54C704.609 108.878 704.724 107.272 705.651 106.583C707.167 105.6 707.325 103.008 708.304 101.455C707.929 101.363 707.269 100.802 707.005 100.578C706.102 100.037 705.066 99.3846 704.163 98.844C701.98 97.6705 703.552 94.3499 705.613 95.5333Z" fill="#59C69F"/>
<path d="M520.749 167.531C520.514 167.673 520.402 167.805 520.168 167.946C520.046 167.956 520.046 167.956 519.924 167.966L519.802 167.976C519.68 167.986 519.68 167.986 519.558 167.996C519.436 168.006 519.304 167.894 519.182 167.904L519.05 167.792L518.919 167.679L518.787 167.567C518.787 167.567 518.787 167.567 518.655 167.455C518.645 167.333 518.523 167.343 518.513 167.221C518.513 167.221 518.513 167.221 518.503 167.099C518.493 166.977 518.493 166.977 518.361 166.865C518.361 166.865 518.341 166.621 518.351 166.743L518.341 166.621C518.331 166.499 518.331 166.499 518.322 166.377C518.302 166.133 518.302 166.133 518.292 166.011C518.384 165.635 518.476 165.259 518.579 165.005C518.691 164.874 518.671 164.63 518.783 164.498C518.895 164.366 518.885 164.244 518.997 164.112C518.987 163.99 519.109 163.98 519.221 163.848C519.333 163.716 519.445 163.584 519.558 163.452C519.558 163.452 519.558 163.452 519.68 163.442C519.792 163.31 519.792 163.31 519.904 163.179C520.576 162.387 521.249 161.596 521.921 160.804C523.174 159.597 524.76 159.468 526.079 160.589C527.134 161.486 528.21 162.627 529.153 163.655L530.438 161.34C531.203 160.173 531.796 158.406 533.392 158.399C534.856 158.28 536.439 159.625 537.597 160.268C538.754 160.91 540.033 161.543 541.191 162.186L542.72 159.851C543.373 158.816 544.026 157.781 545.388 157.916C546.383 158.08 547.297 158.743 548.078 159.293C548.728 159.732 549.256 160.18 549.783 160.629C550.047 160.853 550.311 161.077 550.575 161.301L550.707 161.413C550.921 161.027 551.613 160.48 551.725 160.348C552.174 159.82 552.632 159.415 553.202 158.877C553.885 158.208 554.689 157.528 555.797 157.561C557.037 157.706 557.848 158.623 558.772 159.407L562.211 162.443C563.936 164.023 561.582 166.793 559.857 165.214C559.462 164.877 556.701 162.645 555.636 161.627C555.3 162.022 554.954 162.296 554.618 162.692C553.935 163.361 553.375 164.021 552.57 164.7C551.298 165.663 550.058 165.518 548.759 164.641C548.099 164.081 547.43 163.399 546.648 162.848C546.384 162.624 545.857 162.176 545.339 161.849C544.452 163.026 543.707 164.438 542.942 165.605C542.504 166.255 541.416 166.466 540.766 166.028C538.451 164.742 536.136 163.456 533.699 162.181C533.617 162.679 533.047 163.216 532.842 163.724C532.2 164.881 531.435 166.049 530.792 167.206C530.251 168.11 528.827 168.717 527.894 167.81C527.092 167.015 526.291 166.221 525.49 165.426C525.084 164.968 524.039 164.193 523.623 163.613C523.409 163.999 522.839 164.537 522.502 164.932C522.225 166.06 521.563 166.973 520.749 167.531Z" fill="#59C69F"/>
<path d="M416.403 281.372C417.481 281.039 418.124 279.881 417.781 278.681C417.448 277.603 416.29 276.96 415.09 277.303C414.256 277.617 413.412 277.808 412.568 277.999C406.811 279.695 400.78 281.045 394.598 282.038C393.388 282.259 392.613 283.305 392.835 284.515C393.056 285.725 394.101 286.499 395.311 286.278C401.605 285.153 407.758 283.794 413.637 282.088C414.603 281.887 415.569 281.685 416.403 281.372ZM436.311 273.983C436.433 273.973 436.433 273.973 436.555 273.963C442.598 271.262 448.988 268.287 455.806 264.54C456.865 263.963 457.254 262.703 456.676 261.645C456.099 260.587 454.84 260.198 453.781 260.775C447.075 264.39 440.807 267.355 434.886 270.046C433.818 270.502 433.307 271.771 433.762 272.839C434.085 273.796 435.233 274.316 436.311 273.983ZM374.631 288.695C375.587 288.372 376.128 287.468 376.048 286.492C375.949 285.272 374.904 284.497 373.796 284.465C367.076 284.888 360.215 285.077 352.713 284.949C351.483 284.926 350.577 285.86 350.554 287.089C350.531 288.319 351.464 289.226 352.694 289.249C360.317 289.366 367.301 289.168 374.143 288.735C374.275 288.847 374.519 288.827 374.631 288.695ZM473.881 254.23C474.003 254.22 474.115 254.088 474.359 254.068C480.923 250.22 486.755 246.43 492.466 242.651C493.392 241.961 493.659 240.712 493.082 239.653C492.393 238.727 491.143 238.46 490.084 239.037C484.496 242.807 478.654 246.474 472.212 250.313C471.153 250.89 470.896 252.262 471.464 253.198C471.909 254.145 472.924 254.553 473.881 254.23ZM332.112 288.342C332.946 288.029 333.507 287.369 333.559 286.505C333.592 285.397 332.771 284.359 331.531 284.214C325.23 283.743 318.309 283.2 310.382 282.37C309.264 282.216 308.226 283.037 308.081 284.277C307.926 285.394 308.747 286.433 309.987 286.578C317.914 287.408 324.835 287.951 331.258 288.411C331.634 288.504 331.878 288.484 332.112 288.342ZM509.019 230.254C509.263 230.234 509.498 230.092 509.732 229.95C515.495 225.307 521.004 220.561 525.903 215.865C526.697 215.064 526.71 213.712 525.909 212.917C525.108 212.123 523.756 212.11 522.961 212.911C518.184 217.597 512.787 222.211 507.136 226.722C506.21 227.412 506.075 228.774 506.764 229.7C507.302 230.27 508.185 230.567 509.019 230.254ZM289.896 284.157C290.609 283.854 291.291 283.184 291.344 282.321C291.499 281.203 290.667 280.042 289.438 280.019C283.614 279.387 275.922 278.416 268.351 277.434C267.233 277.279 266.073 278.11 265.918 279.228C265.763 280.346 266.594 281.507 267.712 281.661C275.293 282.765 282.975 283.614 288.798 284.247C289.296 284.329 289.54 284.309 289.896 284.157ZM539.281 200.656C539.637 200.504 539.993 200.352 540.329 199.957C543.122 196.537 545.772 192.883 548.179 189.249C548.841 188.336 548.61 187.004 547.575 186.351C546.661 185.688 545.329 185.919 544.676 186.955C542.26 190.467 539.722 193.989 537.051 197.399C536.267 198.322 536.498 199.654 537.421 200.439C537.939 200.765 538.681 200.827 539.281 200.656ZM247.776 278.123C248.498 277.942 249.059 277.282 249.243 276.53C249.52 275.403 248.689 274.242 247.571 274.087C240.712 272.802 234.454 271.346 228.308 269.757L227.048 269.369C225.92 269.092 224.74 269.679 224.463 270.807C224.186 271.934 224.773 273.115 225.901 273.391L227.283 273.77C233.439 275.481 239.82 276.927 246.8 278.202C247.176 278.295 247.42 278.275 247.776 278.123ZM206.845 267.08C207.445 266.908 208.016 266.371 208.21 265.741C208.609 264.603 208.022 263.423 206.884 263.024C204.355 262.125 201.704 261.235 199.185 260.457C195.02 259.076 190.855 257.695 186.691 256.314C185.553 255.915 184.373 256.502 183.974 257.64C183.575 258.778 184.162 259.958 185.3 260.357C189.464 261.738 193.507 263.129 197.672 264.509C200.201 265.409 202.852 266.299 205.371 267.077C205.879 267.281 206.367 267.242 206.845 267.08ZM166.273 254.411C166.996 254.23 167.444 253.702 167.628 252.95C167.905 251.823 167.196 250.652 166.068 250.375C159.302 248.715 152.18 247.206 145.097 246.184C143.979 246.03 142.819 246.861 142.664 247.979C142.509 249.096 143.34 250.257 144.458 250.412C151.419 251.443 158.409 252.84 165.053 254.51C165.541 254.471 165.907 254.441 166.273 254.411ZM124.367 247.991C125.201 247.678 125.762 247.018 125.814 246.154C125.847 245.046 125.026 244.008 123.786 243.863C116.875 243.442 109.618 243.295 102.37 243.269C101.14 243.247 100.244 244.302 100.211 245.41C100.188 246.64 101.243 247.536 102.351 247.569C109.467 247.482 116.602 247.639 123.391 248.07C123.757 248.041 124.123 248.011 124.367 247.991ZM81.9082 248.37C82.8643 248.047 83.405 247.143 83.3257 246.167C83.2266 244.947 82.1812 244.173 81.0832 244.262C74.2513 244.817 67.0633 245.523 59.7732 246.484C58.5532 246.583 57.7884 247.75 57.9996 248.839C58.0987 250.059 59.2661 250.823 60.3541 250.612C67.5223 249.661 74.5882 248.965 81.4201 248.41C81.5521 248.522 81.6642 248.39 81.9082 248.37ZM39.7433 253.883C40.6994 253.56 41.3521 252.524 41.1409 251.436C40.9199 250.226 39.8745 249.451 38.6644 249.672C32.004 250.827 24.8756 252.266 17.7569 253.827C16.6688 254.038 15.9041 255.205 16.1153 256.293C16.3363 257.503 17.4938 258.146 18.5819 257.935C25.7005 256.374 32.7169 255.068 39.3674 253.791C39.4993 253.903 39.6213 253.893 39.7433 253.883Z" fill="#1E1E1E"/>
<path d="M720.356 74.4417C720.184 73.8416 720.003 73.1195 719.699 72.4073C719.204 70.8511 718.71 69.2948 718.225 67.8606C717.123 64.88 715.797 62.1632 713.993 59.6081C713.436 58.7938 712.338 58.883 711.523 59.4403C711.401 59.4502 711.411 59.5722 711.421 59.6942C711.187 59.836 710.953 59.9779 710.729 60.2417C707.478 64.067 704.35 67.8824 701.099 71.7078C700.651 72.2354 700.74 73.3334 701.155 73.9137C702.25 75.2984 704.1 75.3937 705.726 75.7529L710.603 76.8303C712.35 77.1796 714.098 77.5288 715.845 77.8781C717.349 78.2472 719.766 79.2789 720.706 77.2377C720.992 76.232 720.557 75.4077 720.356 74.4417ZM711.169 73.223C709.797 72.966 708.548 72.6992 707.298 72.4323C706.668 72.2378 706.048 72.1654 705.428 72.0929C707.782 69.3228 710.014 66.5627 712.368 63.7926C713.371 65.5532 714.251 67.3237 714.898 69.2361C715.373 70.5483 715.838 71.7386 716.191 73.0607C716.353 73.5388 716.514 74.0169 716.676 74.495C716.178 74.4126 715.68 74.3302 715.172 74.1259L711.169 73.223Z" fill="#1E1E1E"/>
<path d="M504.198 46.9317C503.559 46.6153 502.919 46.2988 502.289 46.1044C500.888 45.4814 499.354 44.7463 497.963 44.2453C495.048 43.1313 492.031 42.2712 489.043 41.777C488.17 41.6024 487.263 42.5356 487.332 43.3896C487.342 43.5116 487.352 43.6336 487.352 43.6336C487.25 43.8875 487.28 44.2535 487.299 44.4975C487.95 49.4796 488.712 54.3298 489.362 59.3119C489.422 60.0439 490.335 60.7065 491.077 60.7691C492.805 60.8743 494.17 59.5354 495.443 58.5724L499.504 55.6636C500.889 54.5687 502.406 53.5859 503.79 52.491C505.063 51.528 507.434 50.4758 506.533 48.4613C505.976 47.6469 505.092 47.3503 504.198 46.9317ZM497.071 52.914C496.032 53.7352 494.862 54.4443 493.823 55.2655C493.365 55.6711 492.775 55.9647 492.316 56.3703C491.785 52.8522 491.366 49.2021 490.834 45.684C492.714 46.1454 494.725 46.7188 496.503 47.434C497.772 47.9449 499.042 48.4558 500.189 48.9766C500.697 49.181 501.083 49.3952 501.591 49.5996C501.122 49.8832 500.776 50.157 500.318 50.5626L497.071 52.914Z" fill="#F7C300"/>
<path d="M688.778 208.774C688.138 208.458 687.498 208.142 686.868 207.947C685.467 207.324 683.933 206.589 682.542 206.088C679.627 204.974 676.61 204.114 673.622 203.62C672.749 203.445 671.842 204.378 671.911 205.232C671.921 205.354 671.931 205.476 671.931 205.476C671.829 205.73 671.859 206.096 671.879 206.34C672.529 211.322 673.291 216.173 673.942 221.155C674.001 221.887 674.914 222.549 675.656 222.612C677.384 222.717 678.749 221.378 680.022 220.415L684.083 217.506C685.468 216.411 686.985 215.429 688.369 214.334C689.642 213.371 692.013 212.319 691.112 210.304C690.555 209.49 689.671 209.193 688.778 208.774ZM681.65 214.757C680.611 215.578 679.441 216.287 678.402 217.108C677.944 217.514 677.354 217.807 676.895 218.213C676.364 214.695 675.945 211.045 675.413 207.527C677.293 207.988 679.304 208.562 681.082 209.277C682.351 209.788 683.621 210.299 684.768 210.819C685.276 211.024 685.662 211.238 686.17 211.442C685.702 211.726 685.355 212 684.897 212.405L681.65 214.757Z" fill="#F7C300"/>
<path d="M112.153 260.895C111.513 260.579 110.873 260.262 110.243 260.068C108.842 259.445 107.308 258.71 105.917 258.209C103.002 257.095 99.9848 256.235 96.9974 255.74C96.1236 255.566 95.217 256.499 95.2864 257.353C95.2963 257.475 95.3062 257.597 95.3062 257.597C95.204 257.851 95.2337 258.217 95.2535 258.461C95.9038 263.443 96.6662 268.293 97.3165 273.275C97.376 274.007 98.2894 274.67 99.0313 274.732C100.759 274.838 102.124 273.499 103.397 272.536L107.458 269.627C108.843 268.532 110.36 267.549 111.744 266.454C113.017 265.491 115.388 264.439 114.487 262.425C113.808 261.62 112.924 261.324 112.153 260.895ZM105.025 266.877C103.986 267.699 102.816 268.408 101.777 269.229C101.319 269.635 100.729 269.928 100.271 270.334C99.7391 266.816 99.3198 263.166 98.7884 259.647C100.668 260.109 102.679 260.682 104.457 261.397C105.726 261.908 106.996 262.419 108.143 262.94C108.651 263.144 109.037 263.359 109.545 263.563C109.077 263.847 108.73 264.12 108.272 264.526L105.025 266.877Z" fill="#F7C300"/>
<path d="M217.299 235.53C216.719 235.945 216.128 236.239 215.548 236.654C214.266 237.495 212.993 238.458 211.72 239.421C209.297 241.338 207.006 243.366 205.12 245.852C204.57 246.634 204.791 247.844 205.572 248.394C205.582 248.516 205.704 248.506 205.826 248.496C205.968 248.731 206.232 248.955 206.486 249.057C210.842 251.282 215.188 253.385 219.422 255.62C220.062 255.936 221.018 255.613 221.456 254.963C222.445 253.532 222.043 251.6 222.036 250.004L221.742 244.87C221.715 243.03 221.566 241.201 221.418 239.371C221.289 237.785 221.681 235.051 219.567 234.732C218.805 234.425 218.113 234.972 217.299 235.53ZM218.438 245.016C218.547 246.358 218.534 247.71 218.643 249.052C218.692 249.662 218.752 250.394 218.801 251.004C215.725 249.412 212.526 247.829 209.45 246.237C210.805 244.776 212.291 243.428 213.788 242.201C214.827 241.38 215.865 240.558 216.914 239.859C217.26 239.585 217.728 239.302 218.196 239.018C218.236 239.506 218.285 240.116 218.203 240.614L218.438 245.016Z" fill="#1E1E1E"/>
<path fill-rule="evenodd" clip-rule="evenodd" d="M366.703 302.97C370.119 302.692 374.01 303.727 376.2 306.497C378.522 309.378 378.859 313.526 377.286 316.847C376.98 317.608 376.429 318.39 375.747 319.059C374.596 320.012 373.02 320.263 372.176 320.455C370.844 320.686 369.146 320.946 367.398 320.597C365.397 320.146 363.712 319.055 362.393 317.934C361.215 317.047 360.008 315.794 359.279 314.38C358.419 312.853 358.016 310.921 358.599 309.032C359.512 305.151 363.165 303.257 366.703 302.97ZM367 306.63C364.439 306.838 362.576 308.095 362.002 310.106C361.818 310.858 361.887 311.712 362.454 312.648C362.9 313.594 363.701 314.389 364.746 315.164C365.924 316.05 366.969 316.825 368.087 316.98C369.083 317.145 370.181 317.055 371.391 316.834C372.357 316.633 372.957 316.462 373.303 316.188C373.537 316.046 373.751 315.66 373.966 315.274C375.017 313.101 374.687 310.549 373.318 308.818C372.092 307.322 369.562 306.422 367 306.63Z" fill="#F7C300"/>
<path fill-rule="evenodd" clip-rule="evenodd" d="M638.916 6.14711C642.332 5.86962 646.223 6.90439 648.413 9.67378C650.734 12.5553 651.071 16.7032 649.499 20.0238C649.193 20.7855 648.642 21.5671 647.96 22.2365C646.809 23.1896 645.233 23.4404 644.389 23.6318C643.057 23.8628 641.359 24.1236 639.611 23.7743C637.61 23.3229 635.925 22.2317 634.605 21.1108C633.428 20.224 632.221 18.9713 631.492 17.5568C630.631 16.0303 630.229 14.0982 630.812 12.2087C631.847 8.31778 635.5 6.42459 638.916 6.14711ZM639.213 9.80705C636.651 10.0152 634.789 11.2717 634.215 13.2831C634.031 14.0349 634.1 14.8889 634.667 15.8253C635.113 16.7715 635.914 17.5661 636.959 18.3408C638.137 19.2276 639.182 20.0023 640.3 20.1571C641.296 20.3218 642.394 20.2326 643.604 20.0115C644.57 19.8102 645.17 19.6387 645.516 19.3649C645.75 19.2231 645.964 18.8373 646.179 18.4515C647.108 16.2883 646.9 13.7264 645.531 11.9955C644.304 10.4987 641.775 9.59894 639.213 9.80705Z" fill="#F7C300"/>
<path fill-rule="evenodd" clip-rule="evenodd" d="M656.556 223.304C659.972 223.026 663.863 224.061 666.052 226.831C668.374 229.712 668.711 233.86 667.139 237.181C666.832 237.942 666.282 238.724 665.599 239.393C664.449 240.346 662.873 240.597 662.029 240.789C660.696 241.02 658.998 241.28 657.251 240.931C655.249 240.48 653.564 239.388 652.245 238.268C651.068 237.381 649.861 236.128 649.132 234.714C648.271 233.187 647.869 231.255 648.452 229.365C649.487 225.475 653.14 223.581 656.556 223.304ZM656.853 226.964C654.291 227.172 652.428 228.428 651.855 230.44C651.67 231.192 651.74 232.046 652.307 232.982C652.752 233.928 653.554 234.723 654.599 235.498C655.776 236.384 656.822 237.159 657.939 237.314C658.935 237.479 660.033 237.389 661.243 237.168C662.209 236.967 662.809 236.795 663.156 236.522C663.39 236.38 663.604 235.994 663.818 235.608C664.87 233.435 664.54 230.883 663.171 229.152C661.944 227.655 659.415 226.756 656.853 226.964Z" fill="#1E1E1E"/>
</svg>
