<svg width="186" height="15" viewBox="0 0 186 15" fill="none" xmlns="http://www.w3.org/2000/svg">
<path d="M185.277 10.7507C183.145 8.65161 180.869 6.7243 178.737 4.6252C176.61 2.69292 175.102 1.74169 172.636 3.66125C170.606 5.23224 168.145 7.31862 166.577 9.54199C166.428 9.54696 166.424 9.38014 166.276 9.38511C165.961 8.72776 165.208 8.25215 164.75 7.76659C163.681 6.63363 162.761 5.4957 161.697 4.52956C160.019 2.74919 158.201 1.30743 155.865 2.55473C153.524 3.6352 152.118 6.35407 150.244 8.25374C150.101 8.42553 149.958 8.59732 149.814 8.76912C150.249 8.42056 150.092 8.09188 149.5 8.11177C149.042 7.62621 148.297 7.48424 147.696 7.17048C146.641 6.53799 145.587 5.90549 144.532 5.273C142.123 3.85113 139.852 2.09064 137.581 0.330157C136.823 -0.312279 135.5 0.0661037 134.926 0.753278C133.931 2.28948 132.932 3.65885 131.937 5.19505C131.368 6.04905 130.799 6.90305 130.23 7.75704C130.087 7.92884 129.944 8.10063 129.805 8.43925C129.661 8.61104 129.661 8.61104 129.661 8.61104C128.311 7.98849 127.09 6.69367 125.878 5.7325C124.518 4.77631 123.154 3.65329 121.646 2.70206C119.075 0.784691 116.531 -0.13174 113.783 2.29822C111.762 4.20286 109.888 6.10253 107.867 8.00717C106.202 6.72727 104.541 5.61419 102.728 4.33926C101.068 3.22618 99.3937 1.61264 97.3353 2.1827C95.4249 2.74779 93.704 4.80931 92.1127 6.19857C91.2431 6.89568 90.3734 7.5928 89.6518 8.28494C88.7821 8.98206 88.1901 9.00194 87.1402 8.53627C83.6898 6.98237 80.9381 3.90222 77.0759 3.53099C73.0657 3.16474 70.3364 6.26199 67.2926 8.7019C66.2795 9.57081 66.4229 9.39901 65.3638 8.5997C64.4573 7.96223 63.6988 7.31979 62.7923 6.68233C60.9793 5.4074 59.1663 4.13247 57.0803 3.70159C54.9989 3.43754 53.2504 4.49812 51.3539 5.56368C50.3316 6.09894 49.3093 6.63421 48.287 7.16947C47.2647 7.70474 45.6688 8.92717 44.3413 9.13873C42.5652 9.19838 40.2943 7.4379 38.7819 6.31985C37.117 5.03995 35.7296 3.08281 33.6436 2.65194C31.7056 2.21609 29.8044 3.11482 28.3612 4.49911C26.7699 5.88837 25.3496 8.10678 23.259 7.50908C21.173 7.0782 19.4942 5.29783 17.6858 4.18972C15.7248 2.91976 13.625 1.98842 11.2475 1.73431C6.93674 1.21117 2.547 3.19535 0.298523 7.61227C-1.10332 10.498 2.81409 12.8711 4.21594 9.98537C6.18221 6.07886 10.4746 5.9347 13.7815 7.66039C17.0885 9.38608 19.8448 12.6331 23.6978 12.6706C25.4785 12.7778 27.0836 11.889 28.5361 10.8384C29.6926 9.79767 31.6911 7.05892 33.1989 8.01014C34.702 8.79455 36.0848 10.5849 37.5972 11.7029C39.2576 12.816 41.214 13.9191 42.9993 14.1931C44.9327 14.4621 46.5378 13.5734 48.291 12.6796C50.4835 11.6041 52.6623 10.0281 54.8595 9.11945C56.7652 8.38754 58.592 10.1629 60.0998 11.1142C61.6122 12.2322 63.2956 14.1794 65.2289 14.4484C68.6563 15.1682 71.3396 10.4027 74.115 8.97371C77.3298 7.36294 80.5302 10.595 83.2405 12.1738C84.9009 13.2868 86.8527 14.2232 88.7676 13.8249C90.8306 13.4216 92.5561 11.5269 94.1474 10.1377C95.0171 9.44057 96.3078 7.89443 97.3346 7.52599C97.4827 7.52102 97.7649 7.01061 97.7649 7.01061C98.0609 7.00067 99.1246 7.96681 99.4252 8.12369C101.543 9.72232 103.81 11.316 105.928 12.9146C105.928 12.9146 106.076 12.9096 106.081 13.0765C106.839 13.7189 108.028 13.846 108.888 12.8152C110.188 11.6027 111.34 10.3952 112.64 9.18269C113.213 8.49551 113.94 7.97019 114.513 7.28302C114.948 6.93446 115.804 5.73688 116.392 5.55017C117.571 5.34358 119.708 7.60951 120.614 8.24697C121.974 9.20317 123.186 10.1643 124.545 11.1205C126.664 12.7192 129.249 15.137 131.553 12.722C132.705 11.5144 133.547 9.81638 134.398 8.45197C134.967 7.59798 135.679 6.57219 136.248 5.71819C140.031 8.59672 143.954 11.1366 148.153 12.9993C150.702 14.0826 152.136 12.3647 153.861 10.47C154.722 9.43919 155.573 8.07479 156.591 7.3727C157.46 6.67558 156.877 7.02911 157.631 7.50473C158.085 7.82346 158.7 8.63769 159.157 9.12324C160.226 10.2562 161.146 11.3941 162.21 12.3603C162.973 13.1695 163.893 14.3075 164.943 14.7731C167.339 15.6945 168.759 13.4761 170.346 11.9201C171.354 10.8843 172.363 9.8486 173.519 8.80789C173.519 8.80789 174.389 8.11078 174.824 7.76222C174.976 7.92407 175.129 8.08592 175.282 8.24778C177.414 10.3469 179.689 12.2742 181.821 14.3733C184.397 16.4575 187.409 12.8498 185.277 10.7507Z" fill="#F7C300"/>
</svg>
