<svg width="220" height="28" viewBox="0 0 220 28" fill="none" xmlns="http://www.w3.org/2000/svg">
<path d="M12.846 10.7H8.49655C8.29425 11.4 8.1931 12 8.1931 12.4C8.1931 13 8.3954 13.5 8.69885 13.8C9.0023 14.1 9.50805 14.3 10.3172 14.3H11.7333V18.1C11.3287 18.2 10.9241 18.3 10.5195 18.3C10.1149 18.4 9.71035 18.4 9.30575 18.4C6.17011 18.4 4.65287 16.3 4.65287 12.1C4.65287 7.9 6.17012 5.8 9.2046 5.8C10.823 5.8 12.4414 6.3 13.9586 7.3C14.1609 7.1 14.4644 6.9 14.6667 6.7C14.869 6.4 15.0713 6.2 15.2736 5.9C15.3747 5.6 15.577 5.3 15.6782 5C15.7793 4.7 15.8805 4.4 15.8805 4.1C13.7563 2.8 11.4299 2.1 9.0023 2.1C7.78851 2.1 6.67586 2.3 5.56322 2.7C4.55172 3.1 3.54023 3.8 2.73103 4.6C1.82069 5.4 1.21379 6.5 0.708046 7.7C0.202299 9 0 10.4 0 12.1C0 13.6 0.202299 15 0.404598 16.2C0.809195 17.5 1.31494 18.5 2.02299 19.3C2.73103 20.1 3.64138 20.8 4.65287 21.2C5.66437 21.7 6.87816 21.9 8.1931 21.9C10.823 21.9 13.3517 21.6 15.7793 20.8V13.5C15.7793 11.6 14.869 10.7 12.846 10.7ZM30.2437 12.9C30.2437 12 30.1425 11.2 29.8391 10.5C29.6368 9.8 29.2322 9.1 28.7264 8.6C28.2207 8.1 27.6138 7.7 26.9057 7.4C26.1977 7.1 25.3885 7 24.4782 7C23.3655 7 22.4552 7.2 21.646 7.6C20.9379 7.9 20.2299 8.4 19.7241 9.1C19.2184 9.8 18.8138 10.5 18.6115 11.4C18.308 12.3 18.2069 13.3 18.2069 14.3C18.2069 15.3 18.308 16.3 18.5103 17.3C18.7126 18.3 19.0161 19 19.5218 19.7C20.0276 20.3 20.6345 20.9 21.4437 21.2C22.2529 21.6 23.1632 21.8 24.377 21.8C26.5012 21.8 28.3218 21.3 29.8391 20.2C29.7379 19.2 29.3333 18.3 28.7264 17.7C28.0184 18 27.3103 18.2 26.7034 18.3C26.1977 18.4 25.5908 18.5 25.1862 18.5C24.2759 18.5 23.669 18.3 23.2644 17.8C22.8598 17.4 22.6575 16.7 22.6575 15.9H29.9402C30.1425 15.2 30.2437 14.2 30.2437 12.9ZM26.2989 12.9H22.5563C22.6575 12 22.7586 11.3 23.0621 10.8C23.3655 10.4 23.7701 10.2 24.377 10.2C24.9839 10.2 25.4897 10.5 25.7931 10.9C26.0966 11.4 26.2989 11.9 26.2989 12.6V12.9ZM41.0667 10.7C41.1678 10.2 41.269 9.7 41.269 9.2C41.269 8.6 41.1678 8.1 41.0667 7.6L37.7287 7.7V3.7L37.5264 3.5H35.8069C34.9977 3.5 34.3908 3.7 33.9862 4.1C33.6828 4.5 33.4805 5.2 33.4805 6.1V7.7L31.2552 7.6C31.154 8.1 31.0529 8.7 31.0529 9.2C31.0529 9.7 31.154 10.2 31.2552 10.7H33.4805V17.8C33.4805 20.3 34.6943 21.6 37.0207 21.6C38.3356 21.6 39.6506 21.5 40.8644 21.3C40.9655 21 40.9655 20.7 40.9655 20.1C40.9655 19.6 40.7632 19 40.5609 18.3H38.9425C38.1333 18.3 37.7287 17.9 37.7287 17V10.6L41.0667 10.7ZM97.4069 16.6C96.3954 17.3 95.5862 17.8 94.777 18.1C94.069 18.4 93.2598 18.6 92.6529 18.6C91.4391 18.6 90.4276 18.1 89.8207 17.1C89.1126 16.1 88.8092 14.5 88.8092 12.5C88.8092 10.4 89.1126 8.9 89.6184 7.8C90.1241 6.7 90.9333 6.2 92.1471 6.2C94.1701 6.2 95.1816 7.6 95.1816 10.3V10.6C95.7885 10.7 96.3954 10.8 97.0023 10.7C98.7218 10.7 99.531 9.8 99.531 8.2C99.531 7.4 99.3287 6.6 99.0253 5.9C98.6207 5.2 98.1149 4.6 97.508 4.1C96.9012 3.6 96.092 3.2 95.1816 2.9C94.2713 2.6 93.2598 2.5 92.1471 2.5C91.0345 2.5 90.023 2.7 89.0115 3.1C88 3.6 87.1908 4.2 86.4828 5C85.7747 5.8 85.1678 6.9 84.7632 8.1C84.3586 9.4 84.1563 10.8 84.1563 12.5C84.1563 13.8 84.2575 15 84.5609 16.2C84.8644 17.4 85.269 18.4 85.8759 19.3C86.4828 20.2 87.292 21 88.3035 21.5C89.3149 22 90.5287 22.3 91.9448 22.3C92.6529 22.3 93.3609 22.3 94.069 22.1C94.777 22 95.3839 21.8 96.092 21.5C96.6989 21.3 97.3058 21 97.9127 20.6C98.4184 20.3 98.9241 19.9 99.4299 19.5C99.3287 19 99.1264 18.4 98.7218 17.9C98.3172 17.3 97.9127 16.9 97.4069 16.6ZM111.77 9.4C110.556 8.3 109.14 7.7 107.421 7.8C106.409 7.8 105.499 7.9 104.69 8.3C103.88 8.6 103.172 9.2 102.667 9.8C102.161 10.4 101.756 11.2 101.453 12.1C101.149 13 101.048 14 101.048 15.1C101.048 16.2 101.149 17.2 101.453 18.1C101.655 19 102.161 19.8 102.667 20.4C103.274 21.1 103.88 21.6 104.69 21.9C105.499 22.2 106.409 22.4 107.421 22.4C108.432 22.4 109.343 22.2 110.152 21.9C110.961 21.5 111.669 21 112.175 20.4C112.68 19.8 113.085 19 113.389 18.1C113.692 17.2 113.793 16.2 113.793 15.1C113.793 12.6 113.085 10.7 111.77 9.4ZM108.938 18C108.634 18.7 108.129 19.1 107.32 19.1C106.915 19.1 106.51 19 106.308 18.8C106.005 18.7 105.802 18.4 105.701 18C105.499 17.6 105.398 17.2 105.398 16.6C105.297 16 105.297 15.4 105.297 14.6C105.297 14.1 105.297 13.6 105.398 13.2C105.398 12.9 105.499 12.5 105.701 12.1C105.903 11.8 106.106 11.5 106.308 11.3C106.611 11.1 106.915 11 107.32 11C108.028 11 108.634 11.3 108.938 12C109.241 12.7 109.343 13.7 109.343 15C109.343 16.3 109.241 17.3 108.938 18ZM127.347 12C127.145 11.1 126.841 10.3 126.437 9.7C126.032 9.1 125.526 8.6 124.92 8.2C124.414 7.9 123.706 7.7 122.897 7.7C121.278 7.7 120.064 8.2 118.952 9.3C118.345 8.4 117.637 7.9 116.524 7.9H115.411L115.209 8.1V27.7L115.411 27.9H117.131C118.041 27.9 118.749 27.7 119.053 27.3C119.356 26.9 119.559 26.3 119.559 25.3V21.6C120.368 22 121.278 22.2 122.087 22.2C122.795 22.2 123.605 22 124.212 21.8C124.92 21.4 125.526 20.9 126.032 20.3C126.538 19.7 126.943 18.9 127.246 18C127.549 17.1 127.651 16.1 127.651 15C127.651 13.9 127.549 12.9 127.347 12ZM121.278 19C120.772 19 120.166 18.8 119.457 18.4V12.3C120.064 11.6 120.671 11.2 121.48 11.2C122.694 11.2 123.2 12.4 123.2 14.8C123.2 17.6 122.593 19 121.278 19ZM142.216 8.3C141.609 8.1 140.8 8 139.991 8C139.182 8 138.575 8.1 138.17 8.2L135.743 18.9C135.641 18.9 135.54 18.8 135.54 18.7C135.237 16.7 135.034 15.5 134.933 15L133.618 9.7C133.416 9.1 133.113 8.6 132.809 8.3C132.506 8 131.899 7.9 131.191 7.9C130.382 7.9 129.572 8.1 128.763 8.5L132 20.4C132.303 21.5 133.315 22.1 134.933 22.1L134.832 22.5C134.428 24 133.517 24.7 132.101 24.7C131.191 24.7 130.382 24.6 129.572 24.3C129.269 24.6 129.067 25.1 128.864 25.7C128.662 26.3 128.561 26.9 128.662 27.4C129.775 27.8 130.989 28 132.101 28C134.225 28 135.844 27.4 136.855 26.2C137.766 25.1 138.474 23.6 138.979 21.6L142.418 8.6L142.216 8.3ZM164.368 8.2C163.963 7.9 163.154 7.8 162.244 7.8C161.434 7.8 160.828 7.9 160.423 8L159.209 14C159.108 14.9 158.805 16.4 158.501 18.6C158.4 18.6 158.299 18.6 158.299 18.4L156.68 8.2C156.074 8.1 155.264 8 154.152 8C153.14 8 152.23 8.1 151.623 8.2L150.106 18.7C150.005 18.7 149.903 18.7 149.903 18.5C149.802 17.6 149.6 16.2 149.195 14.2L148.285 9.7C148.184 9.1 147.982 8.6 147.678 8.3C147.375 8 146.869 7.9 146.161 7.9C145.453 7.9 144.644 8.1 143.733 8.4L146.464 20.1C146.667 20.9 146.869 21.4 147.172 21.6C147.577 21.9 148.285 22 149.398 22C150.308 22 151.32 21.9 152.331 21.8L153.14 17C153.545 13.7 153.848 11.9 153.848 11.8H154.051C154.253 13.5 154.455 15.3 154.759 17L155.163 20C155.264 20.8 155.467 21.3 155.972 21.6C156.478 21.9 157.186 22 158.4 22C159.614 22 160.524 21.9 161.232 21.8L164.469 8.5L164.368 8.2ZM173.977 7.9C172.359 7.9 171.145 8.7 170.437 10.4C169.83 8.9 168.616 8 166.897 7.9C166.593 8.1 166.391 8.4 166.087 8.9C165.885 9.3 165.683 9.7 165.582 10.1C166.29 10.7 166.694 11.6 166.593 13V21.8C167.301 21.9 168.009 22 168.818 22C169.628 22 170.336 21.9 170.943 21.8V13.2C171.549 12.3 172.359 11.8 173.269 11.8C173.876 11.9 174.382 12 174.685 12.1C174.989 11.6 175.292 10.9 175.494 10.1C175.697 9.3 175.798 8.7 175.798 8.1C175.09 8 174.483 7.9 173.977 7.9ZM182.271 8.9C181.766 8.3 180.956 8 180.046 8H178.326C177.922 8 177.517 8.1 177.012 8.1C176.91 8.5 176.809 9 176.809 9.6C176.809 10.3 176.91 10.8 177.012 11.1H177.517C178.428 11.1 178.832 11.6 178.832 12.7V21.9C179.136 21.9 179.54 22 179.844 22C180.653 22.1 181.361 22.1 182.17 22C182.474 22 182.878 22 183.182 21.9V11.3C183.182 10.3 182.878 9.5 182.271 8.9ZM182.474 2.6C181.968 2.3 181.361 2.2 180.451 2.2C179.54 2.2 178.832 2.3 178.326 2.6C178.023 3.1 177.922 3.6 178.023 4.2C178.023 4.7 178.124 5.3 178.326 5.8C178.832 6.1 179.439 6.2 180.349 6.2C181.26 6.2 181.968 6.1 182.474 5.8C182.676 5.3 182.777 4.8 182.777 4.2C182.777 3.6 182.676 3.1 182.474 2.6ZM194.51 11.1C194.611 10.6 194.713 10.1 194.713 9.6C194.713 9.1 194.611 8.6 194.51 8.1L191.172 8.2V4.2L190.97 4H189.251C188.441 4 187.834 4.2 187.43 4.6C187.126 5 186.924 5.7 186.924 6.6V8.1L184.699 8C184.598 8.5 184.497 9.1 184.497 9.6C184.497 10.1 184.598 10.6 184.699 11.1H186.924V18.2C186.924 20.7 188.138 22 190.464 22C191.779 22 193.094 21.9 194.308 21.7C194.409 21.4 194.409 21.1 194.409 20.5C194.409 20 194.207 19.4 194.005 18.7H192.386C191.577 18.7 191.172 18.3 191.172 17.4V11L194.51 11.1ZM207.862 13.3C207.862 12.4 207.761 11.6 207.457 10.9C207.255 10.2 206.851 9.5 206.345 9C205.839 8.5 205.232 8.1 204.524 7.8C203.816 7.5 203.007 7.4 202.097 7.4C200.984 7.4 200.074 7.6 199.264 8C198.556 8.3 197.848 8.8 197.343 9.5C196.837 10.2 196.432 10.9 196.23 11.8C195.926 12.7 195.825 13.7 195.825 14.7C195.825 15.7 195.926 16.7 196.129 17.7C196.331 18.7 196.634 19.4 197.14 20.1C197.646 20.8 198.253 21.4 199.062 21.7C199.871 22.1 200.782 22.3 201.995 22.3C204.12 22.3 205.94 21.8 207.457 20.7C207.356 19.7 206.952 18.8 206.345 18.2C205.637 18.5 204.929 18.7 204.322 18.8C203.816 18.9 203.209 19 202.805 19C201.894 19 201.287 18.8 200.883 18.3C200.478 17.9 200.276 17.2 200.276 16.4H207.559C207.761 15.7 207.963 14.7 207.862 13.3ZM203.917 13.4H200.175C200.276 12.5 200.478 11.8 200.68 11.3C200.984 10.9 201.389 10.7 201.995 10.7C202.602 10.7 203.108 11 203.411 11.4C203.715 11.9 203.917 12.4 203.917 13.1V13.4ZM218.179 7.9C216.561 7.9 215.347 8.7 214.639 10.4C214.032 8.9 212.818 8 211.099 7.9C210.795 8.1 210.593 8.4 210.29 8.9C210.087 9.3 209.885 9.7 209.784 10.1C210.492 10.7 210.795 11.6 210.795 13V21.8C211.503 21.9 212.212 22 213.021 22C213.83 22 214.538 21.9 215.145 21.8V13.2C215.752 12.3 216.561 11.8 217.471 11.8C218.078 11.9 218.584 12 218.887 12.1C219.191 11.6 219.494 10.9 219.697 10.1C219.899 9.3 220 8.7 220 8.1C219.292 8 218.685 7.9 218.179 7.9ZM62.5103 0C55.9356 0 50.6759 5.2 50.6759 11.7V22.1C50.6759 24 52.1931 25.5 54.1149 25.5H56.0368C56.0368 23.75 56.7651 22.15 57.9485 20.99C59.1218 19.83 60.7402 19.1 62.5103 19.1C66.0506 19.1 68.9839 22 68.9839 25.5H70.9057C72.8276 25.5 74.3448 24 74.3448 22.1V11.7C74.3448 5.2 69.0851 0 62.5103 0ZM66.7687 12.57C66.7384 12.71 66.6979 12.85 66.6575 12.99C66.5766 13.26 66.4653 13.51 66.3338 13.75C66.3338 13.76 66.3237 13.76 66.3237 13.76C66.2124 13.97 66.0708 14.17 65.9191 14.36C65.6257 14.74 65.2616 15.06 64.8469 15.32C64.6446 15.45 64.4322 15.57 64.1995 15.66C64.1894 15.67 64.1793 15.67 64.1692 15.67C64.0377 15.73 63.9062 15.77 63.7747 15.81C63.3802 15.94 62.9554 16 62.5103 16C62.0653 16 61.6303 15.93 61.2257 15.81C61.1246 15.78 61.0234 15.74 60.9223 15.71C60.2244 15.45 59.6175 15.01 59.1522 14.44C58.5352 13.69 58.1609 12.74 58.1609 11.7C58.1609 10.66 58.5352 9.7 59.1522 8.96C59.2331 8.85 59.3241 8.75 59.4253 8.65C59.4759 8.6 59.5366 8.55 59.5871 8.51C59.749 8.37 59.9108 8.24 60.0828 8.13C60.1738 8.06 60.2648 8.01 60.3559 7.96C60.4469 7.91 60.5379 7.86 60.629 7.82C60.6998 7.78 60.7605 7.75 60.8313 7.73C60.9628 7.67 61.0943 7.63 61.2257 7.59C61.6303 7.47 62.0653 7.4 62.5103 7.4C62.9554 7.4 63.3903 7.47 63.7949 7.59C63.9264 7.63 64.0579 7.67 64.1894 7.73C64.2602 7.75 64.3209 7.78 64.3917 7.82C64.4828 7.86 64.5738 7.91 64.6648 7.96C64.7559 8.01 64.8469 8.06 64.9379 8.13C65.1099 8.24 65.2717 8.37 65.4336 8.51C65.4841 8.55 65.5448 8.6 65.5954 8.65C65.6965 8.75 65.7876 8.85 65.8685 8.96C66.4855 9.7 66.8598 10.66 66.8598 11.7C66.8598 12 66.8294 12.29 66.7687 12.57Z" fill="#59C69F"/>
</svg>
