<svg width="133" height="91" viewBox="0 0 133 91" fill="none" xmlns="http://www.w3.org/2000/svg">
<path d="M130.341 60.3856C127.241 63.0856 123.941 65.3856 120.341 67.1856C118.841 67.9856 119.941 70.3856 121.441 69.5856C125.341 67.5856 128.841 65.1856 132.041 62.3856C133.341 61.2856 131.641 59.1856 130.341 60.3856Z" fill="black"/>
<path d="M112.841 69.1856C110.541 70.0856 108.041 70.1856 105.741 69.3856C104.141 68.7856 103.241 71.3856 104.841 71.8856C107.841 72.8856 111.041 72.7856 113.941 71.6856C115.641 70.9856 114.441 68.4856 112.841 69.1856Z" fill="black"/>
<path d="M96.0409 58.0857C95.6409 61.1857 96.5409 64.2856 98.6409 66.6856C99.7409 67.9857 101.841 66.2857 100.641 64.9857C99.0409 63.0857 98.3409 60.7857 98.6409 58.2857C98.9409 56.5857 96.3409 56.3857 96.0409 58.0857Z" fill="black"/>
<path d="M103.241 42.2858C100.941 44.6858 99.1409 47.3858 97.9409 50.4858C97.3409 52.0858 99.8409 52.9858 100.441 51.3858C101.441 48.6858 103.041 46.3858 104.941 44.2858C106.141 43.0858 104.441 41.0858 103.241 42.2858Z" fill="black"/>
<path d="M113.541 26.1856C112.541 30.0856 110.241 33.2856 107.541 36.1856C106.341 37.4856 108.641 38.9856 109.741 37.6856C112.541 34.5856 115.041 31.1856 116.041 27.0856C116.541 25.4856 113.941 24.5856 113.541 26.1856Z" fill="black"/>
<path d="M112.341 9.58574C113.641 11.2857 114.441 13.1857 114.941 15.1857C115.341 16.8857 117.941 16.3857 117.541 14.7857C116.941 12.2857 115.941 9.98574 114.341 7.88574C113.341 6.48574 111.241 8.18574 112.341 9.58574Z" fill="black"/>
<path d="M108.541 2.78569C105.741 1.08569 101.341 -0.314309 98.2407 1.38569C96.7407 2.18569 97.8407 4.58569 99.3407 3.78569C101.641 2.58569 105.041 3.78569 107.041 4.98569C108.441 5.88569 110.041 3.68569 108.541 2.78569Z" fill="black"/>
<path d="M92.041 4.8858C89.941 6.0858 88.141 7.5858 86.541 9.5858C85.441 10.8858 87.641 12.4858 88.741 11.0858C89.941 9.5858 91.441 8.2858 93.141 7.2858C94.641 6.3858 93.541 3.9858 92.041 4.8858Z" fill="black"/>
<path d="M80.7407 16.2858C79.8407 18.1858 78.7407 19.9858 77.4407 21.7858C76.4407 23.1858 78.6407 24.6858 79.6407 23.2858C81.0407 21.3858 82.2407 19.3858 83.2407 17.1858C83.9407 15.6858 81.4407 14.7858 80.7407 16.2858Z" fill="black"/>
<path d="M74.3408 28.1858C73.7408 27.7858 72.9408 27.8858 72.4408 28.4858C72.2408 28.6858 72.0408 28.9858 71.8408 29.1858L71.6408 29.3858C71.5408 29.4858 71.4408 29.5858 71.2408 29.6858C70.7408 30.0858 70.3408 30.4858 69.7408 30.8858C69.6408 30.9858 69.5408 31.0858 69.3408 31.0858L69.1408 31.1858C68.8408 31.3858 68.5408 31.4858 68.2408 31.6858C67.6408 31.9858 67.0408 32.1858 66.4408 32.3858C65.7408 32.5858 65.4408 33.5858 65.7408 34.1858C66.1408 34.8858 66.8408 35.0858 67.5408 34.8858C70.3408 33.9858 72.7408 32.2858 74.5408 29.9858C75.0408 29.4858 74.8408 28.5858 74.3408 28.1858Z" fill="black"/>
<path d="M56.7409 48.9855C56.7409 48.9855 56.6409 48.9855 56.5409 48.9855C56.3409 48.9855 56.1409 49.0855 55.9409 49.0855C55.5409 49.1855 55.1409 49.2855 54.8409 49.5855C54.2409 49.9855 53.8409 50.6855 53.2409 50.9855C52.6409 51.1855 51.8409 50.9855 51.2409 51.0855C50.5409 51.1855 49.9409 51.5855 49.4409 52.1855C48.9409 52.6855 48.6409 52.8855 47.9409 52.9855C47.1409 53.0855 46.4409 53.2855 45.8409 53.6855C45.2409 54.0855 44.9409 54.9855 44.3409 55.2855C43.6409 55.6855 42.7409 55.5855 41.9409 55.5855C40.3409 55.4855 40.1409 58.0855 41.7409 58.0855C43.6409 58.1855 45.5409 58.0855 46.7409 56.4855C46.9409 56.1855 47.1409 55.7855 47.5409 55.6855C47.9409 55.4855 48.3409 55.4855 48.7409 55.4855C49.6409 55.2855 50.4409 54.9855 51.0409 54.2855C51.2409 54.0855 51.4409 53.6855 51.7409 53.5855C52.0409 53.4855 52.5409 53.5855 52.9409 53.5855C53.8409 53.5855 54.6409 53.3855 55.3409 52.7855C55.6409 52.4855 55.9409 52.1855 56.2409 51.8855C56.5409 51.5855 56.8409 51.5855 57.2409 51.4855C58.1409 51.2855 58.8409 50.7855 59.1409 49.9855C59.5409 48.4855 57.3409 47.5855 56.7409 48.9855Z" fill="#F7C300"/>
<path d="M44.9405 27.5856C37.1405 31.6856 29.2405 35.3856 21.0405 38.6856C19.5405 39.2856 20.6405 41.6856 22.1405 40.9856C30.2405 37.5856 38.2405 33.8856 46.0405 29.8856C47.4405 29.1856 46.3405 26.7856 44.9405 27.5856Z" fill="#F7C300"/>
<path d="M15.2409 54.0856C12.5409 49.8856 7.94094 54.2856 10.6409 58.4856C13.2409 62.4856 14.6409 67.2856 16.8409 71.4856C19.0409 75.7856 20.3409 80.2856 22.3409 84.5856C24.4409 89.0856 30.0409 86.5856 28.0409 81.9856C23.8409 72.7856 20.7409 62.5856 15.2409 54.0856Z" fill="#F7C300"/>
<path d="M30.7406 27.7856C24.0406 30.2856 17.3406 33.0856 10.8406 36.0856C9.04061 36.8856 10.2406 39.4856 12.0406 38.6856C18.6406 35.6856 25.2406 32.9856 31.9406 30.3856C33.7406 29.5856 32.5406 27.0856 30.7406 27.7856Z" fill="black"/>
<path d="M45.0405 25.8856C34.7405 31.1856 24.3405 35.9856 13.6405 40.4856C10.8405 41.6856 12.0405 44.1856 14.8405 43.0856C25.4405 38.6856 35.9405 33.7856 46.1405 28.5856C48.8405 27.0856 47.6405 24.5856 45.0405 25.8856Z" fill="black"/>
<path d="M61.6407 64.0856C53.8407 68.1856 45.9407 71.8856 37.7407 75.1856C36.2407 75.7856 37.3407 78.1856 38.8407 77.4856C46.9407 74.0856 54.9407 70.3856 62.7407 66.3856C64.1407 65.6856 63.1407 63.2856 61.6407 64.0856Z" fill="#F7C300"/>
<path d="M47.4408 64.2855C40.7408 66.7855 34.1408 69.5855 27.5408 72.4855C25.7408 73.2855 26.9408 75.8855 28.7408 75.0855C35.3408 72.0855 41.9408 69.3855 48.6408 66.7855C50.5408 66.0855 49.3408 63.5855 47.4408 64.2855Z" fill="black"/>
<path d="M61.7408 62.4856C51.5408 67.6856 41.0408 72.5856 30.4408 76.9856C27.6408 78.1856 28.8408 80.6856 31.6408 79.5856C42.2408 75.1856 52.7408 70.2856 62.9408 65.0856C65.5408 63.6856 64.4408 61.0856 61.7408 62.4856Z" fill="black"/>
<path d="M53.6407 22.1856C51.5407 17.7856 49.3407 13.4856 47.1407 9.18557C46.6407 8.28557 45.6407 8.28557 45.1407 8.78557C44.5407 8.88557 44.0407 9.08557 43.4407 9.28557L43.3407 9.08557C42.9407 9.28557 42.6407 9.48557 42.3407 9.68557C41.4407 10.1856 40.4407 10.5856 39.4407 11.0856C37.2407 12.0856 34.2407 13.5856 31.9407 14.5856C27.5407 16.6856 23.0407 18.7856 18.6407 20.7856C13.0407 23.3856 7.34072 25.7856 1.64072 28.0856C1.04072 28.5856 0.840723 29.0856 0.840723 29.5856C0.740723 29.7856 0.740723 30.0856 0.740723 30.2856C0.840723 32.1856 1.64072 33.9856 2.44072 35.6856C3.44072 37.6856 4.34072 39.5856 5.34072 41.5856C7.24072 45.4856 9.04072 49.3856 10.8407 53.2856C14.4407 60.9856 18.0407 68.7856 21.4407 76.5856C23.4407 81.0856 25.3407 85.4856 27.2407 89.9856C27.4407 90.4856 27.9407 90.6856 28.3407 90.6856C28.6407 90.7856 28.9407 90.6856 29.3407 90.4856C32.9407 88.4856 36.7407 87.0856 40.5407 85.3856C44.3407 83.7856 48.1407 82.0856 51.9407 80.4856C58.2407 77.7856 65.1407 74.8856 71.5407 71.7856C72.1407 71.5856 72.8407 71.2856 73.3407 70.8856C73.5407 70.7856 73.6407 70.6856 73.7407 70.5856C73.8407 70.4856 73.9407 70.3856 73.9407 70.1856C74.0407 69.8856 74.0407 69.4856 73.8407 69.1856C73.7407 69.0856 73.6407 68.8856 73.5407 68.7856C67.6407 53.0856 61.0407 37.3856 53.6407 22.1856ZM70.2407 69.5856C70.1407 69.5856 70.0407 69.6856 70.0407 69.7856C63.7407 72.7856 57.0407 75.6856 50.8407 78.2856C47.0407 79.8856 43.2407 81.5856 39.4407 83.1856C36.0407 84.5856 32.6407 85.9856 29.3407 87.6856C22.8407 72.4856 16.0407 57.3856 8.94072 42.4856C7.94072 40.2856 6.84072 38.1856 5.84072 35.9856C4.94072 34.1856 3.84072 32.2856 3.64072 30.2856C12.7407 26.5856 21.6407 22.4856 30.5407 18.2856C32.8407 17.1856 35.9407 15.6856 38.2407 14.5856C40.0407 13.7856 41.8407 12.9856 43.5407 12.0856C43.6407 12.0856 43.7407 12.0856 43.8407 11.9856C44.2407 11.7856 44.7407 11.5856 45.2407 11.3856C45.4407 11.3856 45.5407 11.2856 45.7407 11.2856C53.3407 26.0856 60.2407 41.2856 66.4407 56.6856C68.1407 60.8856 69.7407 64.9856 71.3407 69.1856C70.8407 69.3856 70.5407 69.4856 70.2407 69.5856Z" fill="black"/>
<path d="M50.0406 39.1855C49.3406 40.3855 47.6406 39.3855 46.4406 40.1855C46.0406 40.4855 45.3406 41.1855 45.3406 41.6855C45.2406 41.6855 45.0406 41.5855 44.9406 41.5855C43.8406 41.1855 42.7406 41.0855 41.7406 41.8855C41.3406 42.1855 40.9406 42.6855 40.8406 43.1855C40.6406 43.0855 40.3406 42.9855 40.2406 42.9855C39.5406 42.7855 38.8406 42.8855 38.3406 43.3855C37.7406 43.8855 37.6406 44.3855 37.4406 45.0855C37.2406 45.5855 37.3406 45.6855 36.7406 45.5855C36.2406 45.4855 35.7406 45.2855 35.2406 45.1855C34.0406 44.9855 33.0406 45.3855 32.3406 46.3855C32.1406 46.6855 32.0406 47.1855 31.9406 47.4855C31.8406 47.4855 31.8406 47.4855 31.6406 47.3855C31.4406 47.2855 31.2406 47.1855 31.0406 47.1855C30.5406 46.9855 30.0406 46.7855 29.5406 46.6855C28.8406 46.4855 27.9406 46.8855 27.6406 47.5855L27.1406 49.2855C27.0406 49.4855 27.0406 49.5855 26.9406 49.7855C26.2406 49.5855 25.0406 49.1855 24.8406 49.0855C23.9406 48.8855 23.2406 49.2855 22.6406 49.9855C22.3406 50.3855 21.9406 51.1855 21.6406 51.7855C21.2406 51.5855 20.8406 51.3855 20.4406 51.2855C19.7406 50.9855 18.8406 51.4855 18.5406 52.1855C18.2406 53.0855 17.9406 54.0855 17.6406 54.9855C17.0406 56.6855 19.7406 57.5855 20.3406 55.8855C20.5406 55.3855 20.6406 54.9855 20.8406 54.4855C21.6406 54.7855 22.5406 54.8855 23.3406 54.1855C23.8406 53.6855 24.0406 52.9855 24.4406 52.3855C24.4406 52.3855 24.5406 52.1855 24.6406 52.0855C24.7406 52.0855 24.8406 52.1855 24.9406 52.1855C26.0406 52.5855 27.5406 53.0855 28.6406 52.2855C29.3406 51.7855 29.6406 50.8855 29.9406 49.9855C31.1406 50.4855 32.5406 50.7855 33.6406 49.8855C34.0406 49.4855 34.6406 48.7855 34.6406 48.1855C34.6406 48.0855 34.6406 47.9855 34.7406 47.9855C34.9406 47.9855 35.1406 48.0855 35.3406 48.1855C36.5406 48.5855 37.8406 48.7855 38.9406 47.9855C39.5406 47.5855 39.9406 46.8855 40.1406 46.2855C40.2406 46.2855 40.3406 46.3855 40.4406 46.3855C41.9406 46.7855 42.9406 45.7855 43.5406 44.5855C43.5406 44.4855 43.6406 44.4855 43.6406 44.3855C43.7406 44.3855 43.9406 44.4855 44.0406 44.4855C44.6406 44.6855 45.2406 44.8855 45.8406 44.7855C46.5406 44.6855 47.1406 44.3855 47.5406 43.7855C47.7406 43.5855 47.9406 43.1855 48.0406 42.8855C48.0406 42.7855 48.1406 42.6855 48.1406 42.6855C48.2406 42.6855 48.2406 42.6855 48.3406 42.6855C49.8406 43.0855 51.6406 42.1855 52.4406 40.8855C53.2406 39.0855 51.0406 37.5855 50.0406 39.1855Z" fill="black"/>
<path d="M42.4409 48.5856C41.8409 48.8856 41.4409 48.5856 40.8409 48.5856C40.2409 48.6856 39.6409 48.9856 39.2409 49.4856C38.9409 49.7856 38.4409 51.2856 37.7409 50.5856C37.0409 49.7856 35.7409 50.0856 35.2409 51.0856C35.0409 51.4856 34.7409 52.2856 34.2409 52.3856C33.9409 52.4856 33.4409 52.1856 33.0409 52.0856C32.0409 51.9856 31.0409 52.3856 30.5409 53.1856C30.3409 53.4856 30.1409 53.8856 30.1409 54.2856C30.1409 54.2856 30.1409 54.2856 30.1409 54.3856H30.0409C29.4409 54.0856 28.2409 53.9856 27.5409 54.0856C26.5409 54.2856 25.8409 54.8856 25.4409 55.6856C25.4409 55.7856 25.2409 55.9856 25.1409 56.1856C25.1409 56.1856 25.0409 56.1856 25.0409 56.0856C22.9409 54.8856 21.0409 57.0856 20.4409 58.8856C19.9409 60.5856 22.5409 61.4856 23.1409 59.7856C23.2409 59.3856 23.4409 58.9856 23.6409 58.5856C23.7409 58.6856 23.8409 58.7856 23.9409 58.8856C24.7409 59.5856 25.7409 59.6856 26.7409 58.9856C27.1409 58.6856 27.4409 58.1856 27.6409 57.7856C27.7409 57.5856 27.8409 56.8856 28.0409 56.6856C28.0409 56.7856 28.3409 56.7856 28.5409 56.7856C28.9409 56.8856 29.4409 56.9856 29.8409 57.0856C30.7409 57.1856 31.6409 56.8856 32.2409 56.1856C32.5409 55.8856 32.6409 55.4856 32.8409 55.1856C32.8409 55.1856 32.9409 55.0856 32.9409 54.9856C33.7409 55.3856 35.1409 54.9856 35.7409 54.6856C36.3409 54.3856 36.8409 53.8856 37.2409 53.2856C38.1409 53.4856 39.1409 53.3856 40.0409 52.8856C40.4409 52.6856 40.7409 52.3856 40.9409 52.0856C41.0409 51.8856 41.1409 51.7856 41.2409 51.5856C41.2409 51.4856 41.3409 51.4856 41.3409 51.3856C41.5409 51.3856 41.8409 51.3856 42.0409 51.3856C42.5409 51.3856 43.1409 51.1856 43.5409 50.8856C45.2409 50.0856 44.1409 47.6856 42.4409 48.5856Z" fill="black"/>
<path d="M57.1408 47.1856C56.9408 47.6856 55.9408 47.8856 55.5408 48.0856C54.8408 48.3856 54.2408 48.7856 53.6408 49.3856C53.4408 49.5856 53.1408 50.0856 52.7408 50.1856C52.4408 50.2856 52.1408 50.1856 51.9408 50.1856C51.1408 50.0856 50.4408 50.0856 49.7408 50.4856C49.2408 50.7856 48.7408 51.2856 48.4408 51.7856C48.4408 51.8856 48.3408 51.9856 48.2408 52.0856C48.2408 52.0856 48.1408 52.0856 48.1408 51.9856C47.8408 51.8856 47.4408 51.7856 47.0408 51.7856C46.3408 51.7856 45.7408 51.9856 45.2408 52.4856C44.6408 52.9856 44.5408 53.7856 44.0408 54.1856C43.6408 54.5856 42.9408 54.3856 42.4408 54.3856C41.7408 54.3856 41.0408 54.4856 40.3408 54.7856C39.5408 55.1856 39.2408 55.7856 38.6408 56.1856C38.1408 56.5856 37.3408 56.2856 36.7408 56.3856C35.9408 56.4856 35.2408 56.8856 34.6408 57.4856C34.1408 57.9856 33.5408 59.1856 32.8408 59.3856C32.3408 59.5856 31.7408 59.0856 31.2408 59.0856C30.4408 58.9856 29.7408 59.1856 29.2408 59.7856C28.6408 60.3856 28.3408 61.2856 28.0408 62.0856C28.0408 62.0856 27.9408 62.1856 27.9408 62.2856C27.5408 61.9856 26.8408 61.8856 26.4408 61.6856C24.3408 60.6856 23.5408 62.6856 22.8408 64.2856C22.0408 65.8856 24.7408 66.7856 25.5408 65.1856C25.6408 64.9856 25.7408 64.7856 25.8408 64.5856C26.5408 64.8856 27.2408 65.1856 28.0408 65.1856C29.8408 65.1856 30.4408 63.5856 30.9408 62.2856C30.9408 62.1856 31.0408 62.0856 31.1408 61.9856C31.3408 62.0856 31.7408 62.1856 32.0408 62.1856C32.8408 62.2856 33.6408 62.0856 34.3408 61.6856C35.0408 61.2856 35.5408 60.6856 36.0408 60.0856C36.2408 59.7856 36.5408 59.3856 36.9408 59.2856C37.3408 59.0856 37.7408 59.2856 38.1408 59.2856C38.9408 59.2856 39.6408 59.0856 40.2408 58.5856C40.7408 58.1856 41.1408 57.4856 41.7408 57.2856C42.3408 57.0856 43.1408 57.2856 43.7408 57.1856C44.5408 57.0856 45.2408 56.8856 45.8408 56.3856C46.3408 55.9856 46.7408 55.2856 47.0408 54.6856V54.5856C47.1408 54.5856 47.2408 54.6856 47.3408 54.6856C47.7408 54.7856 48.1408 54.8856 48.6408 54.8856C49.3408 54.7856 49.8408 54.4856 50.3408 53.9856C50.6408 53.6856 50.7408 53.4856 51.0408 53.1856C51.3408 52.8856 51.2408 52.8856 51.5408 52.8856C51.9408 52.7856 52.3408 52.9856 52.7408 52.9856C53.1408 52.9856 53.5408 52.8856 53.9408 52.7856C54.9408 52.3856 55.3408 51.6856 56.0408 51.0856C56.6408 50.5856 57.5408 50.3856 58.2408 49.9856C59.0408 49.4856 59.6408 48.9856 60.0408 48.1856C60.6408 46.4856 57.9408 45.5856 57.1408 47.1856Z" fill="black"/>
</svg>
