<svg width="289" height="293" viewBox="0 0 289 293" fill="none" xmlns="http://www.w3.org/2000/svg">
<path fill-rule="evenodd" clip-rule="evenodd" d="M281.318 283.324C280.781 283.494 280.153 283.752 279.64 284.218C279.045 284.759 278.731 285.459 278.525 286.018C278.045 287.26 277.663 288.968 278.462 290.492L278.464 290.495C279.108 291.713 280.353 292.459 281.58 292.778C282.821 293.1 284.088 293.031 285.239 292.829L285.245 292.828L285.25 292.826C285.813 292.721 286.53 292.557 287.16 292.129C287.749 291.738 288.155 291.193 288.423 290.644C289.552 288.41 288.92 286.13 287.435 284.669C285.967 283.224 283.657 282.551 281.318 283.324ZM286.095 286.115C287.037 287.043 287.382 288.377 286.698 289.725L286.694 289.734L286.69 289.742C286.541 290.049 286.344 290.292 286.106 290.45L286.1 290.454L286.094 290.457C285.817 290.646 285.44 290.758 284.908 290.858C283.901 291.034 282.933 291.067 282.054 290.839C281.16 290.606 280.473 290.112 280.169 289.539C279.796 288.827 279.904 287.852 280.331 286.752L280.334 286.743L280.338 286.734C280.511 286.261 280.689 285.932 280.924 285.718C281.13 285.531 281.446 285.375 281.892 285.235L281.899 285.233L281.906 285.23C283.563 284.681 285.135 285.171 286.095 286.115Z" fill="#DADADA"/>
<path fill-rule="evenodd" clip-rule="evenodd" d="M27.3182 273.324C26.7807 273.494 26.1529 273.752 25.6402 274.218C25.0452 274.759 24.7307 275.459 24.5251 276.018C24.0447 277.26 23.6631 278.968 24.4622 280.492L24.4638 280.495C25.108 281.713 26.3528 282.459 27.5798 282.778C28.8212 283.1 30.0877 283.031 31.2391 282.829L31.2448 282.828L31.2504 282.826C31.8125 282.721 32.5298 282.557 33.1598 282.129C33.7485 281.738 34.155 281.193 34.4225 280.644C35.5515 278.41 34.9204 276.13 33.435 274.669C31.9666 273.224 29.657 272.551 27.3182 273.324ZM32.0947 276.115C33.0375 277.043 33.3825 278.377 32.6983 279.725L32.694 279.734L32.6898 279.742C32.5413 280.049 32.3444 280.292 32.1056 280.45L32.0999 280.454L32.0942 280.457C31.817 280.646 31.4397 280.758 30.9075 280.858C29.9009 281.034 28.9335 281.067 28.0544 280.839C27.1601 280.606 26.4726 280.112 26.169 279.539C25.7962 278.827 25.9036 277.852 26.3308 276.752L26.3342 276.743L26.3376 276.734C26.511 276.261 26.689 275.932 26.9245 275.718C27.1295 275.531 27.446 275.375 27.8922 275.235L27.8992 275.233L27.9062 275.23C29.5629 274.681 31.1345 275.171 32.0947 276.115Z" fill="#DADADA"/>
<path d="M96.0686 56.2371C96.1005 55.8618 96.1217 55.4695 96.1696 55.084C96.2439 54.2082 96.3343 53.3223 96.4621 52.4603C96.7017 50.7463 97.1123 49.0908 97.7472 47.5074C97.9392 47.0313 98.5855 46.8857 99.0289 47.1282C99.0663 47.1521 99.1144 47.1929 99.1358 47.2268C99.2961 47.2683 99.451 47.3367 99.5846 47.4422C101.765 49.1279 103.961 50.8035 106.151 52.5061C106.493 52.7649 106.563 53.337 106.382 53.6879C105.971 54.562 104.967 54.814 104.15 55.1854L101.64 56.3127C100.748 56.7074 99.84 57.1122 98.9589 57.5238C98.1739 57.875 96.9778 58.7452 96.2669 57.7233C95.9248 57.2513 96.0368 56.7546 96.0686 56.2371ZM100.896 54.4585C101.575 54.1507 102.237 53.853 102.915 53.5452C103.225 53.3979 103.545 53.2676 103.855 53.1203C102.284 51.9046 100.713 50.6889 99.1261 49.4833C98.7954 50.5202 98.5395 51.6048 98.3798 52.7001C98.2626 53.437 98.1882 54.1707 98.1137 54.9044C98.0872 55.1817 98.0606 55.459 98.018 55.7463C98.2797 55.6293 98.5413 55.5122 98.803 55.3951L100.896 54.4585Z" fill="#DADADA"/>
<path d="M173.616 127.472C173.839 127.179 174.063 126.866 174.304 126.572C174.825 125.888 175.364 125.203 175.922 124.558C177.019 123.267 178.228 122.113 179.585 121.135C179.994 120.842 180.608 121.057 180.85 121.487C180.868 121.526 180.887 121.585 180.887 121.624C180.999 121.741 181.092 121.878 181.147 122.035C182.077 124.558 183.025 127.081 183.955 129.623C184.104 130.015 183.862 130.523 183.527 130.719C182.728 131.227 181.761 130.914 180.887 130.797L178.209 130.425C177.261 130.288 176.294 130.151 175.346 130.034C174.509 129.917 173.058 130.015 173.003 128.802C172.966 128.235 173.319 127.883 173.616 127.472ZM178.563 128.509C179.288 128.606 179.994 128.704 180.72 128.802C181.054 128.841 181.389 128.9 181.724 128.939C181.054 127.12 180.385 125.301 179.697 123.482C178.879 124.167 178.098 124.929 177.391 125.751C176.908 126.298 176.461 126.866 176.015 127.433C175.848 127.648 175.68 127.863 175.494 128.078C175.773 128.117 176.052 128.156 176.331 128.196L178.563 128.509Z" fill="#DADADA"/>
<path d="M83.6163 6.47194C83.8395 6.17857 84.0626 5.86563 84.3044 5.57226C84.825 4.88772 85.3643 4.20317 85.9221 3.55775C87.0192 2.2669 88.2279 1.11296 89.5853 0.135044C89.9944 -0.15833 90.6081 0.0568108 90.8498 0.487094C90.8684 0.526211 90.887 0.584886 90.887 0.624003C90.9986 0.741352 91.0915 0.878261 91.1473 1.03473C92.0771 3.55775 93.0254 6.08077 93.9552 8.62335C94.1039 9.01452 93.8622 9.52304 93.5275 9.71862C92.7279 10.2271 91.761 9.9142 90.887 9.79685L88.2093 9.42525C87.261 9.28834 86.294 9.15143 85.3457 9.03408C84.5089 8.91673 83.0585 9.01452 83.0027 7.80191C82.9655 7.23471 83.3188 6.88267 83.6163 6.47194ZM88.5626 7.50853C89.2878 7.60632 89.9944 7.70411 90.7196 7.80191C91.0544 7.84102 91.3891 7.8997 91.7238 7.93882C91.0544 6.11989 90.3849 4.30097 89.6969 2.48204C88.8787 3.16658 88.0977 3.92936 87.3911 4.75081C86.9077 5.29844 86.4614 5.86563 86.0151 6.43282C85.8477 6.64796 85.6804 6.86311 85.4944 7.07825C85.7734 7.11736 86.0523 7.15648 86.3312 7.1956L88.5626 7.50853Z" fill="#DADADA"/>
<path d="M214.283 107.276C214.656 107.395 215.051 107.515 215.425 107.634C216.297 107.924 217.149 108.214 218 108.538C219.661 109.169 221.24 109.92 222.673 110.858C223.109 111.148 223.088 111.745 222.735 112.069C222.714 112.104 222.673 112.121 222.631 112.138C222.548 112.257 222.444 112.376 222.299 112.462C220.035 113.929 217.792 115.396 215.529 116.863C215.176 117.102 214.594 116.999 214.262 116.778C213.493 116.215 213.473 115.277 213.306 114.492L212.808 112.035C212.621 111.165 212.455 110.295 212.268 109.425C212.123 108.675 211.541 107.412 212.746 107.054C213.306 106.901 213.784 107.105 214.283 107.276ZM214.864 111.882C214.989 112.53 215.134 113.178 215.259 113.826C215.321 114.134 215.383 114.441 215.446 114.748C217.065 113.69 218.706 112.632 220.326 111.575C219.35 111.029 218.332 110.534 217.273 110.125C216.567 109.852 215.84 109.596 215.113 109.357C214.843 109.272 214.573 109.169 214.283 109.067C214.345 109.323 214.386 109.579 214.449 109.835L214.864 111.882Z" fill="#DADADA"/>
<path d="M192.075 268.303C192.415 268.435 192.774 268.566 193.113 268.698C193.906 269.017 194.68 269.336 195.455 269.692C196.965 270.386 198.4 271.212 199.702 272.244C200.099 272.563 200.08 273.22 199.759 273.576C199.74 273.614 199.702 273.633 199.665 273.651C199.589 273.783 199.495 273.914 199.363 274.008C197.305 275.622 195.266 277.236 193.208 278.849C192.887 279.112 192.358 278.999 192.056 278.755C191.358 278.136 191.339 277.104 191.188 276.241L190.735 273.539C190.565 272.582 190.414 271.625 190.244 270.668C190.112 269.842 189.583 268.454 190.678 268.06C191.188 267.891 191.622 268.116 192.075 268.303ZM192.604 273.37C192.717 274.083 192.849 274.796 192.962 275.509C193.019 275.847 193.076 276.185 193.132 276.522C194.605 275.359 196.096 274.196 197.569 273.032C196.682 272.432 195.757 271.888 194.794 271.437C194.152 271.137 193.491 270.855 192.83 270.593C192.585 270.499 192.339 270.386 192.075 270.274C192.132 270.555 192.169 270.837 192.226 271.118L192.604 273.37Z" fill="#DADADA"/>
<path d="M101.075 150.303C101.415 150.435 101.774 150.566 102.113 150.698C102.906 151.017 103.68 151.336 104.455 151.692C105.965 152.386 107.4 153.212 108.702 154.244C109.099 154.563 109.08 155.22 108.759 155.576C108.74 155.614 108.702 155.633 108.665 155.651C108.589 155.783 108.495 155.914 108.363 156.008C106.305 157.622 104.266 159.236 102.208 160.849C101.887 161.112 101.358 160.999 101.056 160.755C100.358 160.136 100.339 159.104 100.188 158.241L99.7346 155.539C99.5647 154.582 99.4137 153.625 99.2437 152.668C99.1116 151.842 98.583 150.454 99.678 150.06C100.188 149.891 100.622 150.116 101.075 150.303ZM101.604 155.37C101.717 156.083 101.849 156.796 101.962 157.509C102.019 157.847 102.076 158.185 102.132 158.522C103.605 157.359 105.096 156.196 106.569 155.032C105.682 154.432 104.757 153.888 103.794 153.437C103.152 153.137 102.491 152.855 101.83 152.593C101.585 152.499 101.339 152.386 101.075 152.274C101.132 152.555 101.169 152.837 101.226 153.118L101.604 155.37Z" fill="#DADADA"/>
<path fill-rule="evenodd" clip-rule="evenodd" d="M146.307 232.053C144.403 232.29 142.396 233.331 141.532 235.044C140.602 236.877 140.938 239.099 142.178 240.676C142.438 241.013 142.799 241.385 143.286 241.643L143.295 241.647L143.304 241.652C144.062 242.035 144.918 242.009 145.442 241.992L145.445 241.992C146.225 241.965 147.17 241.893 148.051 241.526L148.053 241.526C149.127 241.077 149.913 240.273 150.502 239.545C151.019 238.91 151.539 238.153 151.813 237.257C152.087 236.359 152.104 235.273 151.567 234.322C150.461 232.354 148.228 231.814 146.307 232.053ZM146.57 234.037C148.003 233.858 149.206 234.298 149.756 235.28L149.758 235.282L149.758 235.282C149.963 235.645 149.999 236.152 149.835 236.69C149.671 237.229 149.335 237.75 148.882 238.306L148.88 238.309L148.88 238.309C148.365 238.946 147.838 239.437 147.237 239.689C146.73 239.899 146.114 239.968 145.373 239.993C144.802 240.011 144.479 239.986 144.266 239.882C144.129 239.808 143.98 239.674 143.826 239.474L143.823 239.47L143.82 239.466C143.007 238.434 142.83 237.016 143.383 235.926L143.384 235.924C143.853 234.994 145.119 234.218 146.57 234.037Z" fill="#DADADA"/>
<path fill-rule="evenodd" clip-rule="evenodd" d="M5.30706 106.053C3.40309 106.29 1.39616 107.331 0.531849 109.044C-0.397944 110.877 -0.0622425 113.099 1.17763 114.676C1.43833 115.013 1.79934 115.385 2.28633 115.643L2.29526 115.647L2.30429 115.652C3.0621 116.035 3.91821 116.009 4.44193 115.992L4.44488 115.992C5.22521 115.965 6.16968 115.893 7.05135 115.526L7.05324 115.526C8.12679 115.077 8.9128 114.273 9.50151 113.545C10.0186 112.91 10.5394 112.153 10.8127 111.257C11.0865 110.359 11.1038 109.273 10.5671 108.322C9.46142 106.354 7.22825 105.814 5.30706 106.053ZM5.56996 108.037C7.00336 107.858 8.20552 108.298 8.75623 109.28L8.7577 109.282L8.75771 109.282C8.96256 109.645 8.99878 110.152 8.8349 110.69C8.67066 111.229 8.33549 111.75 7.88222 112.306L7.87955 112.309L7.87956 112.309C7.36461 112.946 6.83782 113.437 6.23743 113.689C5.73006 113.899 5.11446 113.968 4.37314 113.993C3.80169 114.011 3.47893 113.986 3.26599 113.882C3.12926 113.808 2.98042 113.674 2.82599 113.474L2.82285 113.47L2.81967 113.466C2.00659 112.434 1.82955 111.016 2.38291 109.926L2.38425 109.924C2.8528 108.994 4.11943 108.218 5.56996 108.037Z" fill="#DADADA"/>
</svg>
