<svg width="529" height="246" viewBox="0 0 529 246" fill="none" xmlns="http://www.w3.org/2000/svg">
<path d="M233.088 204.616C228.363 207.528 223.545 211.004 218.727 214.95L218.634 215.044C217.986 215.702 217.893 216.735 218.449 217.393C219.005 218.144 220.117 218.238 220.858 217.675C225.583 213.823 230.309 210.441 234.849 207.528C235.683 207.059 235.961 205.931 235.405 205.086C235.034 204.334 233.922 204.052 233.088 204.616Z" fill="#1E1E1E"/>
<path d="M283.77 191.839C283.214 191.745 282.658 191.933 282.288 192.309C282.01 192.591 281.825 192.873 281.732 193.342C281.547 194.282 282.195 195.221 283.122 195.409C285.345 195.785 287.569 196.255 289.793 196.63C293.221 197.288 296.834 198.04 300.17 198.415L300.541 196.724V194.939C297.298 194.564 293.962 193.906 290.441 193.248C288.31 192.591 285.994 192.215 283.77 191.839Z" fill="#1E1E1E"/>
<path d="M265.889 191.463C260.237 192.403 254.492 194 248.84 196.349C248.655 196.443 248.47 196.536 248.284 196.724C247.821 197.194 247.636 197.946 247.914 198.697C248.284 199.637 249.304 200.012 250.138 199.637C255.604 197.382 261.071 195.785 266.445 194.939C267.371 194.751 268.02 193.906 267.927 192.873C267.742 191.933 266.815 191.276 265.889 191.463Z" fill="#1E1E1E"/>
<path d="M205.478 226.318C202.05 229.23 197.603 232.894 192.599 235.806C192.321 235.994 191.951 236.182 191.673 236.37C191.58 236.464 191.395 236.558 191.302 236.652C190.746 237.216 190.561 238.061 191.024 238.813C191.488 239.658 192.507 239.94 193.433 239.47C193.804 239.282 194.082 239.094 194.452 238.907C199.641 235.806 204.366 232.048 207.887 229.042C208.629 228.385 208.721 227.257 208.073 226.6C207.239 225.848 206.22 225.754 205.478 226.318Z" fill="#1E1E1E"/>
<path d="M137.562 213.823C137.099 212.977 135.987 212.695 135.153 213.259C135.061 213.353 134.968 213.447 134.875 213.447C134.32 214.011 134.134 214.95 134.598 215.608C137.377 220.211 140.713 225.566 144.604 230.264C145.253 231.015 146.272 231.109 147.013 230.451C147.754 229.794 147.847 228.76 147.198 228.009C143.585 223.593 140.342 218.332 137.562 213.823Z" fill="#1E1E1E"/>
<path d="M357.894 142.517C361.322 137.82 365.584 133.968 370.217 131.431C371.051 130.962 371.329 129.928 370.958 129.083C370.495 128.237 369.476 127.955 368.642 128.331C365.677 130.022 362.805 132.089 360.21 134.626C358.357 136.411 356.689 138.383 355.207 140.45C354.651 141.202 354.836 142.329 355.578 142.893C356.226 143.551 357.245 143.363 357.894 142.517Z" fill="#1E1E1E"/>
<path d="M175.829 241.725C172.03 242.195 168.416 241.913 165.081 240.973C163.32 240.504 161.56 239.846 159.892 238.906C159.243 238.531 158.41 238.719 157.854 239.188C157.761 239.282 157.576 239.47 157.483 239.658C157.02 240.504 157.39 241.631 158.224 242.007C160.077 242.946 162.116 243.792 164.061 244.261C167.86 245.295 171.844 245.577 176.107 245.107C177.033 245.013 177.774 244.168 177.682 243.134C177.589 242.383 176.755 241.631 175.829 241.725Z" fill="#1E1E1E"/>
<path d="M348.813 176.62C349.74 176.432 350.388 175.492 350.203 174.553C350.11 173.801 349.925 173.144 349.832 172.392C349.184 167.601 349.554 162.716 350.759 157.831C351.037 156.891 350.388 155.952 349.462 155.67C348.813 155.482 348.257 155.67 347.794 156.14C347.609 156.327 347.423 156.609 347.331 156.985C346.034 162.34 345.663 167.695 346.404 172.862C346.497 173.614 346.589 174.459 346.775 175.211C346.96 176.15 347.887 176.808 348.813 176.62Z" fill="#1E1E1E"/>
<path d="M335.286 199.637C329.542 199.073 323.89 198.228 318.145 197.288C317.589 197.194 317.033 197.382 316.663 197.758C316.385 198.04 316.199 198.322 316.107 198.791C315.921 199.731 316.57 200.67 317.589 200.764C323.426 201.704 329.078 202.549 334.916 203.113C335.842 203.207 336.769 202.455 336.861 201.516C336.954 200.576 336.213 199.731 335.286 199.637Z" fill="#1E1E1E"/>
<path d="M493.817 192.685C489.37 196.067 484.552 199.261 479.456 202.173C479.363 202.267 479.178 202.361 479.085 202.455C478.53 203.019 478.344 203.864 478.807 204.616C479.271 205.461 480.383 205.743 481.216 205.274C486.405 202.267 491.408 199.073 496.041 195.597C496.782 195.033 496.968 193.906 496.412 193.154C495.671 192.215 494.559 192.121 493.817 192.685Z" fill="#1E1E1E"/>
<path d="M463.89 209.689C460.092 211.286 456.107 212.789 452.123 214.011C450.641 214.48 449.158 214.95 447.676 215.42C447.398 215.514 447.12 215.608 446.935 215.796C446.471 216.265 446.286 216.923 446.471 217.581C446.749 218.52 447.676 219.084 448.602 218.802C450.178 218.332 451.66 217.862 453.143 217.393C457.219 216.077 461.296 214.574 465.188 212.977C466.114 212.601 466.485 211.568 466.114 210.629C465.836 209.783 464.817 209.313 463.89 209.689Z" fill="#1E1E1E"/>
<path d="M403.108 130.774C398.754 126.828 392.731 124.385 386.06 124.104C385.597 124.104 385.134 124.291 384.763 124.573C384.485 124.855 384.207 125.325 384.207 125.795C384.114 126.734 384.856 127.58 385.875 127.674C391.712 127.955 396.993 130.022 400.699 133.404C401.441 134.062 402.46 133.968 403.201 133.31C403.942 132.559 403.85 131.431 403.108 130.774Z" fill="#1E1E1E"/>
<path d="M517.815 167.601C517.722 167.695 517.63 167.789 517.63 167.883C514.479 172.58 510.773 176.996 506.789 181.223C506.141 181.881 506.141 183.008 506.789 183.76C507.438 184.417 508.642 184.417 509.291 183.76C513.46 179.438 517.259 174.741 520.502 169.95C521.058 169.104 520.873 168.071 520.039 167.507C519.298 166.943 518.371 167.037 517.815 167.601Z" fill="#1E1E1E"/>
<path d="M396.994 218.708C394.585 218.144 392.176 217.581 389.859 216.829C386.802 215.89 383.837 214.574 380.964 213.165C380.316 212.789 379.482 212.977 379.019 213.447C378.833 213.541 378.741 213.729 378.648 213.917C378.185 214.762 378.555 215.89 379.389 216.265C382.447 217.769 385.597 219.084 388.747 220.117C391.156 220.869 393.658 221.62 396.16 222.09C397.086 222.278 398.013 221.714 398.198 220.775C398.476 219.835 397.92 218.896 396.994 218.708Z" fill="#1E1E1E"/>
<path d="M399.68 179.626C398.939 179.062 397.827 179.25 397.271 180.002C394.028 184.417 389.859 188.269 384.948 191.276C384.856 191.369 384.763 191.463 384.67 191.557C384.114 192.121 383.929 193.061 384.392 193.718C384.856 194.564 385.968 194.845 386.801 194.282C392.175 190.994 396.623 186.954 400.144 182.163C400.607 181.317 400.422 180.284 399.68 179.626Z" fill="#1E1E1E"/>
<path d="M371.329 198.885C371.051 197.946 370.124 197.382 369.198 197.57C367.067 198.134 364.843 198.603 362.527 198.979C360.118 196.255 357.987 193.342 356.133 190.336C355.67 189.491 354.558 189.209 353.724 189.772C353.632 189.866 353.539 189.96 353.446 190.054C352.891 190.618 352.705 191.557 353.169 192.215C354.651 194.752 356.411 197.288 358.357 199.637C356.411 199.825 354.373 200.013 352.242 200.107C351.315 200.2 350.574 200.952 350.574 201.985C350.667 202.925 351.408 203.676 352.427 203.676C355.392 203.489 358.357 203.207 361.137 202.831C362.249 203.958 363.36 205.086 364.472 206.119C365.214 206.777 366.233 206.683 366.974 206.025C367.623 205.274 367.53 204.146 366.881 203.489C366.418 203.019 365.862 202.549 365.399 202.079C366.974 201.798 368.456 201.422 369.939 201.046C371.051 200.858 371.607 199.919 371.329 198.885Z" fill="#1E1E1E"/>
<path d="M408.575 146.087C408.112 146.087 407.741 146.275 407.463 146.557C407.093 146.933 406.907 147.402 406.907 147.872C407.093 151.254 406.722 155.106 405.796 159.24C405.425 161.119 404.962 162.904 404.406 164.689C404.128 165.628 404.684 166.568 405.61 166.849C406.537 167.131 407.463 166.568 407.741 165.628C408.297 163.843 408.761 161.87 409.131 159.897C410.058 155.482 410.428 151.348 410.243 147.59C410.336 146.839 409.502 146.087 408.575 146.087Z" fill="#1E1E1E"/>
<path d="M430.905 219.272C425.068 220.211 419.324 220.587 413.857 220.587C413.394 220.587 412.931 220.775 412.653 221.057C412.282 221.338 412.097 221.808 412.097 222.278C412.097 223.217 412.838 224.063 413.857 224.063C419.509 224.157 425.439 223.687 431.461 222.748C432.388 222.56 433.036 221.714 432.944 220.775C432.759 219.741 431.832 219.084 430.905 219.272Z" fill="#1E1E1E"/>
<path d="M149.144 219.46L151.831 222.372C152.665 223.311 153.592 224.533 154.889 224.721C155.445 224.815 156.093 224.439 156.279 223.875C157.298 220.305 158.317 216.735 159.336 213.165C159.429 212.977 159.429 212.695 159.429 212.507C159.429 212.413 159.522 212.413 159.522 212.32C159.614 211.662 159.058 210.816 158.41 210.816C156.093 210.628 153.777 210.816 151.461 211.192C150.256 211.38 149.144 211.662 147.94 211.85C147.477 211.944 146.921 212.132 146.457 212.226C145.809 212.32 145.068 212.413 144.697 213.071C143.77 214.386 145.531 215.702 146.365 216.547C147.199 217.393 148.125 218.426 149.144 219.46ZM149.144 214.198C150.071 214.011 151.09 213.823 152.109 213.635C153.592 213.447 155.074 213.353 156.557 213.353C155.815 215.89 155.074 218.52 154.333 221.057C153.962 220.681 153.684 220.305 153.314 220.023C152.573 219.272 151.831 218.52 151.183 217.768L148.959 215.42C148.681 215.138 148.403 214.856 148.125 214.574C148.403 214.386 148.774 214.292 149.144 214.198Z" fill="#59C59F"/>
<path d="M284.882 202.455C283.678 202.361 282.566 202.267 281.361 202.267C280.898 202.267 280.342 202.267 279.786 202.267C279.137 202.267 278.396 202.173 277.84 202.643C276.636 203.677 278.026 205.368 278.582 206.401C279.323 207.622 279.971 208.844 280.62 210.065L282.566 213.541C283.214 214.668 283.77 216.077 284.975 216.547C285.531 216.735 286.272 216.641 286.55 216.077C288.403 212.883 290.256 209.689 292.109 206.495C292.202 206.307 292.294 206.119 292.294 205.837C292.294 205.837 292.387 205.743 292.387 205.649C292.665 204.992 292.294 204.146 291.646 203.864C289.515 203.113 287.198 202.737 284.882 202.455ZM285.345 212.883C285.067 212.414 284.882 212.038 284.604 211.568C284.141 210.629 283.585 209.783 283.029 208.844L281.454 205.931C281.269 205.555 281.083 205.18 280.805 204.898C281.176 204.898 281.546 204.992 281.917 204.992C282.936 204.992 283.955 205.086 284.882 205.18C286.364 205.274 287.847 205.555 289.329 205.931C288.032 208.28 286.642 210.629 285.345 212.883Z" fill="#59C59F"/>
<path d="M399.31 116.87C400.329 116.494 401.441 115.93 402.367 115.085C403.572 113.957 404.128 112.548 404.591 111.327C404.962 110.293 405.24 108.978 405.24 107.663C405.147 106.348 404.684 104.938 403.572 103.905C401.256 101.744 398.198 102.12 395.882 103.247C393.565 104.469 391.527 106.723 391.156 109.354C390.786 112.172 392.268 114.991 394.584 116.588C395.048 116.964 395.696 117.245 396.438 117.339C397.642 117.527 398.661 117.152 399.31 116.87ZM396.16 114.239C394.677 113.206 393.751 111.421 393.936 109.73C394.121 108.321 395.326 106.723 397.086 105.784C398.847 104.938 400.514 104.938 401.719 105.972C402.182 106.348 402.46 107.005 402.46 107.851C402.46 108.602 402.275 109.448 401.997 110.387C401.626 111.421 401.163 112.36 400.514 112.924C399.958 113.394 399.217 113.769 398.291 114.145C397.549 114.427 397.179 114.521 396.808 114.521C396.623 114.521 396.438 114.427 396.16 114.239Z" fill="#F7C300"/>
<path d="M518.741 185.451C516.425 186.672 514.386 188.927 514.016 191.557C513.645 194.376 515.127 197.194 517.444 198.791C517.907 199.167 518.556 199.449 519.297 199.543C520.409 199.731 521.521 199.261 522.169 199.073C523.188 198.697 524.3 198.134 525.227 197.288C526.431 196.161 526.987 194.752 527.45 193.53C527.821 192.497 528.099 191.182 528.099 189.866C528.006 188.551 527.543 187.142 526.431 186.108C524.115 183.948 521.057 184.229 518.741 185.451ZM525.319 189.96C525.319 190.712 525.134 191.557 524.856 192.497C524.485 193.53 524.022 194.47 523.374 195.033C522.818 195.503 522.076 195.879 521.15 196.255C520.409 196.537 520.038 196.631 519.668 196.631C519.482 196.631 519.204 196.443 518.926 196.255C517.444 195.221 516.517 193.436 516.703 191.745C516.888 190.336 518.092 188.739 519.853 187.799C521.613 186.954 523.281 186.954 524.486 187.987C525.041 188.551 525.319 189.209 525.319 189.96Z" fill="#1E1E1E"/>
<path d="M415.339 160.931C413.023 171.265 408.019 180.753 400.885 188.457C399.681 189.772 401.534 191.839 402.738 190.524C410.243 182.538 415.617 172.58 418.026 161.776C418.397 160.085 415.71 159.146 415.339 160.931Z" fill="#F7C300"/>
<path d="M248.098 188.269C240.315 190.994 232.996 194.846 226.325 199.825C224.935 200.858 226.325 203.301 227.715 202.267C234.108 197.382 241.242 193.624 248.747 190.994C250.507 190.336 249.766 187.612 248.098 188.269Z" fill="#F7C300"/>
<path d="M134.319 93.9468C129.501 83.7066 124.22 73.6543 119.216 63.508C117.271 59.8441 115.417 56.2741 113.472 52.6102C112.453 50.8252 111.433 48.9463 109.766 47.725C108.098 46.5976 106.152 46.3158 104.206 46.0339C99.9443 45.2824 95.6822 44.249 91.6054 42.7458C87.6213 41.3366 83.5445 39.5516 79.2824 39.9274C75.7616 40.2093 72.5187 41.9942 69.4611 43.7792C64.4578 46.5976 59.3618 49.416 54.3585 52.2344C40.1824 60.2199 25.821 68.2993 13.2201 78.6334C9.60659 81.5458 9.9772 84.3642 11.645 88.4039C15.9997 99.2078 22.3002 109.072 28.508 118.843C34.7158 128.425 39.7191 138.571 45.1857 148.624C46.6682 151.348 48.2433 154.167 49.7258 156.891C55.563 167.601 61.5855 178.593 69.3684 193.248L82.34 218.144C82.618 218.614 82.9886 218.896 83.4518 219.084H83.6372L83.7298 219.178C84.0078 219.553 84.749 220.211 85.8608 219.553C96.5161 213.541 107.171 207.528 117.919 201.61C126.536 196.818 135.153 191.745 143.862 187.048C148.217 184.605 152.664 182.257 157.112 180.002C159.428 178.875 161.744 177.653 164.061 176.62C165.173 176.15 167.582 175.586 167.489 173.989C167.304 171.453 163.968 172.768 162.671 173.332C141.731 183.196 121.718 195.033 101.519 206.307C96.2381 209.219 91.0495 212.226 85.7682 215.138L85.3049 215.42L85.027 214.856C77.3367 200.482 71.4995 189.678 65.7549 179.25C60.103 168.822 54.1732 158.018 46.4829 143.645L37.6808 127.11C32.3995 117.339 25.7284 108.415 20.2618 98.6441C17.9455 94.4165 15.8144 90.1889 13.9613 85.6795C12.8495 82.861 14.054 82.1095 16.0924 80.5124C17.2042 79.6669 18.3161 78.8213 19.4279 77.9758C28.23 71.3056 37.7734 65.293 47.5947 60.2199C57.6014 54.9589 67.33 49.2281 77.244 43.8732C79.653 49.2281 82.34 54.3952 85.3049 59.3744C85.6755 60.032 86.1388 60.7836 86.88 60.9715C87.7139 61.1594 88.4552 60.7836 89.1964 60.3138C94.7556 57.0257 100.593 53.9255 106.43 51.295C106.801 51.1071 107.264 50.9192 107.727 51.1071C108.19 51.295 108.376 51.6707 108.654 52.0465C120.421 73.6543 130.983 95.7317 141.361 118.091C148.31 133.029 155.815 147.684 163.227 162.34C163.69 163.185 164.431 164.219 165.358 164.031C166.192 163.937 166.655 163.092 166.655 162.246C166.655 161.4 166.285 160.649 165.821 159.991C159.984 149.093 154.332 138.102 149.051 126.922C143.955 116.212 139.508 104.939 134.319 93.9468ZM100.13 50.2615C96.2381 52.1405 92.4393 54.2073 88.6405 56.3681L88.1772 56.6499L87.8992 56.1802C85.8608 52.6102 83.9151 48.9463 82.062 45.1884L81.5061 44.0611L82.7106 44.4369C88.1772 46.0339 94.0144 47.631 99.9443 49.2281L101.427 49.6039L100.13 50.2615Z" fill="#1E1E1E"/>
<path d="M5.15966 77.0364C6.27151 76.3787 7.38336 75.7211 8.58786 75.0635C10.9042 73.7482 13.3132 72.5269 15.7222 71.3996C17.9459 70.3662 16.4634 66.8901 14.3324 67.9235C11.5528 69.3327 8.77316 70.7419 5.99355 72.339C4.69639 73.0906 3.12128 73.8422 2.00943 74.7816C0.897582 75.7211 0.341658 77.0364 0.15635 78.4456C-0.770189 84.646 2.56535 90.2828 5.71559 95.356C6.27151 96.2015 7.66132 96.2954 8.40255 95.7317C9.32909 95.0741 9.32909 93.9468 8.77316 93.1012C6.27151 89.0615 3.30658 84.3642 3.86251 79.385C3.86251 78.1637 4.14047 77.694 5.15966 77.0364Z" fill="#1E1E1E"/>
<path d="M141.917 195.785C143.956 194.564 142.288 191.276 140.25 192.403C131.818 197.194 123.386 201.986 114.955 206.777C112.917 207.998 114.584 211.286 116.623 210.159C124.962 205.368 133.393 200.576 141.917 195.785Z" fill="#1E1E1E"/>
<path d="M109.581 3.56997C109.581 3.00629 109.118 2.34867 108.562 2.25472C104.856 1.50315 101.15 0.84552 97.4436 0.0939467C97.2583 0.0939467 96.9803 0.0939467 96.795 0.0939467C96.7024 0.0939467 96.7024 0 96.6097 0C95.9612 0 95.2199 0.56368 95.3126 1.31525C95.4979 3.66392 96.0538 6.01259 96.795 8.26731C97.1657 9.39467 97.6289 10.616 98.0922 11.7433C98.2775 12.2131 98.4628 12.7768 98.6481 13.2465C98.9261 13.9041 99.1114 14.5617 99.8526 14.9375C101.335 15.783 102.262 13.9041 103.003 12.9646C103.837 11.9312 104.671 10.8039 105.505 9.77046L107.914 6.76416C108.562 5.91864 109.581 4.97918 109.581 3.56997ZM105.227 5.6368C104.578 6.48232 103.929 7.2339 103.373 8.07942L101.428 10.522C101.15 10.8039 100.964 11.1797 100.687 11.4615C100.594 11.0857 100.409 10.7099 100.316 10.3341C99.9453 9.39467 99.5747 8.4552 99.2967 7.42179C98.8334 5.91864 98.4628 4.41549 98.1848 3.00629C100.872 3.47603 103.559 4.03971 106.246 4.50944C105.875 4.88523 105.505 5.26102 105.227 5.6368Z" fill="#1E1E1E"/>
<path d="M123.201 15.3137C124.498 15.2198 125.887 15.1258 127.185 15.0319L130.983 14.844C132.188 14.7501 133.578 14.938 134.597 13.9985C134.968 13.6227 135.153 12.8711 134.875 12.3075C132.929 9.01936 130.891 5.73125 128.945 2.44315C128.852 2.25525 128.667 2.06736 128.482 1.97342C128.482 1.87947 128.389 1.87947 128.389 1.78552C127.926 1.22185 126.999 1.1279 126.536 1.59763C124.961 3.28866 123.571 5.26152 122.459 7.42228C121.903 8.45569 121.347 9.58304 120.791 10.7104C120.514 11.1801 120.328 11.6498 120.05 12.1196C119.772 12.7772 119.402 13.3409 119.587 14.1864C120.05 15.8774 122.089 15.3137 123.201 15.3137ZM123.478 11.462C123.942 10.5225 124.405 9.67698 124.868 8.73752C125.609 7.42228 126.443 6.10704 127.37 4.97969C128.76 7.32834 130.242 9.67698 131.632 12.0256C131.169 12.0256 130.705 12.0256 130.242 12.1196C129.223 12.2135 128.204 12.2135 127.185 12.3075L124.034 12.4954C123.664 12.4954 123.293 12.4954 122.83 12.5893C123.108 12.1196 123.293 11.8377 123.478 11.462Z" fill="#59C59F"/>
<path d="M35.6426 207.247L37.959 210.441C38.7002 211.474 39.4415 212.789 40.646 213.165C41.2019 213.259 41.9431 213.071 42.1284 212.508C43.6109 209.125 45.0934 205.743 46.5758 202.267C46.6685 202.079 46.6685 201.798 46.7611 201.61C46.7611 201.516 46.8538 201.516 46.8538 201.422C47.0391 200.764 46.5758 199.919 45.9272 199.731C43.6109 199.261 41.2945 199.073 38.9782 199.167C37.7737 199.167 36.6618 199.261 35.4573 199.355C34.9941 199.449 34.4381 199.449 33.8822 199.543C33.2336 199.543 32.4924 199.543 32.0291 200.107C30.9173 201.328 32.4924 202.737 33.141 203.771C33.9749 204.992 34.8088 206.119 35.6426 207.247ZM36.2912 202.08C37.3104 201.986 38.237 201.986 39.2562 201.892C40.7386 201.892 42.2211 201.986 43.7035 202.173C42.5917 204.616 41.5725 207.059 40.4607 209.501C40.1827 209.125 39.9047 208.656 39.6268 208.28C38.9782 207.434 38.4223 206.589 37.7737 205.743L35.8279 203.113C35.55 202.831 35.3647 202.455 35.0867 202.08C35.55 202.173 35.9206 202.173 36.2912 202.08Z" fill="#1E1E1E"/>
<path d="M185.835 108.039C186.02 106.911 186.206 105.69 185.928 104.375C185.65 103.06 185.001 101.744 183.797 100.805C181.202 99.0199 178.237 99.6775 176.014 101.181C173.883 102.684 172.122 105.22 172.122 107.851C172.122 110.763 173.975 113.3 176.477 114.521C177.033 114.803 177.681 114.991 178.423 115.085C179.534 115.085 180.554 114.521 181.202 114.145C182.129 113.582 183.241 112.924 184.075 111.984C185.186 110.857 185.557 109.354 185.835 108.039ZM183.241 104.845C183.426 105.596 183.333 106.442 183.148 107.475C182.963 108.602 182.592 109.542 182.036 110.199C181.573 110.763 180.832 111.233 179.998 111.703C179.349 112.078 178.886 112.266 178.608 112.266C178.423 112.266 178.145 112.172 177.867 111.984C176.199 111.233 175.18 109.542 175.087 107.851C175.087 106.348 176.106 104.657 177.681 103.529C179.256 102.402 181.017 102.214 182.314 103.154C182.777 103.435 183.055 104.093 183.241 104.845Z" fill="#1E1E1E"/>
<path d="M71.037 227.915C71.2223 226.787 71.4076 225.566 71.1297 224.251C70.8517 222.936 70.2031 221.62 68.9986 220.681C66.4043 218.896 63.4394 219.553 61.2157 221.057C59.0846 222.56 57.3242 225.096 57.3242 227.727C57.3242 230.639 59.1773 233.176 61.679 234.397C62.2349 234.679 62.8835 234.867 63.6247 234.961C64.7365 234.961 65.7557 234.397 66.4043 234.021C67.3309 233.458 68.4427 232.8 69.2766 231.861C70.2958 230.639 70.7591 229.136 71.037 227.915ZM68.4427 224.721C68.628 225.472 68.5354 226.318 68.3501 227.351C68.1647 228.478 67.7941 229.418 67.2382 230.076C66.7749 230.639 66.0337 231.109 65.1998 231.579C64.5512 231.954 64.088 232.142 63.81 232.142C63.6247 232.142 63.3467 232.048 63.0688 231.861C61.401 231.109 60.3818 229.418 60.2891 227.727C60.2891 226.224 61.3083 224.533 62.8835 223.405C64.4586 222.278 66.219 222.09 67.5162 223.03C67.8868 223.311 68.2574 223.875 68.4427 224.721Z" fill="#F7C300"/>
<path d="M49.9114 95.5439C49.1701 93.8528 47.9656 92.4436 46.4832 91.5042C45.6493 96.1076 44.7227 100.617 43.7035 105.127C43.3329 106.63 42.2211 107.475 40.6459 107.287C39.5341 107.193 38.5149 106.912 37.4957 106.63C36.3839 106.348 35.272 105.878 34.1602 105.408C34.7161 106.16 35.4573 106.912 36.2912 107.569C39.6267 110.012 44.1668 109.918 47.2244 107.099C50.282 104.187 51.5791 99.5836 49.9114 95.5439Z" fill="#F7C300"/>
<path d="M33.9747 100.523C35.1792 101.275 36.1984 101.744 37.4955 102.214C38.1441 102.496 38.8853 102.684 39.6266 102.778C39.7192 102.778 39.8119 102.778 39.8119 102.778C39.8119 102.684 39.8119 102.59 39.9045 102.59C39.9972 102.026 40.1825 101.462 40.2751 100.805C40.5531 99.6775 40.7384 98.5501 41.0164 97.4228C41.4796 95.1681 41.9429 93.0073 42.3135 90.7526C42.4062 90.4707 42.4988 90.095 42.5915 89.8131C42.3135 89.7192 41.9429 89.7192 41.665 89.6252C41.387 89.6252 41.2017 89.6252 40.9237 89.5313C39.4413 89.4373 37.9588 89.8131 36.6616 90.5647C34.9012 91.692 33.882 93.571 32.8628 95.262C32.1216 96.4833 31.8436 97.5167 31.751 98.832C31.8436 99.3017 31.8436 99.7714 31.9363 100.147C32.6775 100.053 33.4187 100.147 33.9747 100.523Z" fill="#F7C300"/>
<path d="M32.122 100.335C31.7514 100.523 31.3808 100.805 31.1028 101.181C30.4542 102.12 30.7322 103.529 31.7514 104.187C32.4926 104.657 33.3265 105.127 34.1604 105.502C33.0485 103.905 32.4 102.214 32.122 100.335Z" fill="#1E1E1E"/>
<path d="M46.4834 91.5051C46.4834 91.3172 46.576 91.2232 46.576 91.0352C46.7614 89.9074 45.6495 88.8736 44.6303 88.7796C43.7038 88.6856 43.0552 89.1555 42.6846 89.9074C43.9817 90.1894 45.2789 90.7533 46.4834 91.5051Z" fill="#1E1E1E"/>
<path d="M37.496 106.63C38.5152 106.911 39.6271 107.099 40.6462 107.287C42.2214 107.475 43.3332 106.63 43.7038 105.126C44.8157 100.617 45.7422 96.1075 46.4835 91.5041C45.279 90.7525 43.9818 90.1888 42.6846 89.907C42.4993 90.1888 42.4067 90.4707 42.4067 90.8465C42.0361 93.1012 41.5728 95.3559 41.1095 97.5167C40.8316 98.6441 40.6463 99.7714 40.3683 100.899C40.2756 101.462 40.0903 102.026 39.9977 102.684C39.9977 102.778 39.9977 102.872 39.905 102.872C39.8124 102.872 39.8124 102.872 39.7197 102.872C38.9785 102.684 38.3299 102.496 37.5887 102.308C36.2915 101.838 35.1797 101.369 34.0678 100.617C33.5119 100.241 32.7706 100.241 32.1221 100.429C32.4927 102.308 33.0486 103.999 34.1605 105.502C35.1797 105.878 36.2915 106.348 37.496 106.63Z" fill="#1E1E1E"/>
<path d="M75.0207 139.793C74.2795 138.102 73.075 136.693 71.5925 135.753C70.7586 140.357 69.8321 144.866 68.8129 149.375C68.4423 150.879 67.3304 151.724 65.7553 151.536C64.6435 151.442 63.6243 151.16 62.6051 150.879C61.4932 150.597 60.3814 150.127 59.2695 149.657C59.8255 150.409 60.5667 151.16 61.4006 151.818C64.7361 154.261 69.2762 154.167 72.3338 151.348C75.3913 148.436 76.6885 143.739 75.0207 139.793Z" fill="#F7C300"/>
<path d="M59.084 144.678C60.2886 145.429 61.3077 145.899 62.6049 146.369C63.2535 146.651 63.9947 146.839 64.7359 146.933C64.8286 146.933 64.9212 146.933 64.9212 146.933C64.9212 146.839 64.9213 146.745 65.0139 146.745C65.1066 146.181 65.2919 145.617 65.3845 144.96C65.6625 143.832 65.8478 142.705 66.1258 141.578C66.589 139.323 67.0523 137.162 67.4229 134.908C67.5156 134.626 67.6082 134.25 67.7009 133.968C67.4229 133.874 67.0523 133.874 66.7743 133.78C66.4964 133.78 66.3111 133.78 66.0331 133.686C64.5506 133.592 63.0682 133.968 61.771 134.72C60.0106 135.847 58.9914 137.726 57.9722 139.417C57.231 140.638 56.953 141.672 56.8604 142.987C56.953 143.457 56.953 143.926 57.0457 144.302C57.7869 144.302 58.4355 144.302 59.084 144.678Z" fill="#F7C300"/>
<path d="M57.1386 144.49C56.768 144.678 56.3974 144.96 56.1194 145.336C55.4708 146.275 55.7488 147.684 56.768 148.342C57.5092 148.812 58.3431 149.281 59.1769 149.657C58.1578 148.154 57.5092 146.369 57.1386 144.49Z" fill="#1E1E1E"/>
<path d="M71.5928 135.66C71.5928 135.472 71.6854 135.378 71.6854 135.19C71.8707 134.063 70.7589 133.029 69.7397 132.935C68.8131 132.841 68.1646 133.311 67.7939 134.063C69.0911 134.344 70.3883 134.908 71.5928 135.66Z" fill="#1E1E1E"/>
<path d="M62.5126 150.879C63.5318 151.16 64.6436 151.348 65.6628 151.536C67.2379 151.724 68.3498 150.879 68.7204 149.375C69.8322 144.866 70.7588 140.357 71.5 135.753C70.2955 135.002 68.9983 134.438 67.7012 134.156C67.5159 134.438 67.4232 134.72 67.4232 135.095C67.0526 137.35 66.5894 139.605 66.1261 141.766C65.8481 142.893 65.6628 144.02 65.3848 145.148C65.2922 145.711 65.1069 146.275 65.0142 146.933C65.0142 147.027 65.0142 147.121 64.9216 147.121C64.8289 147.121 64.8289 147.121 64.7363 147.121C63.995 146.933 63.3465 146.745 62.6052 146.557C61.3081 146.087 60.1962 145.618 59.0844 144.866C58.5285 144.49 57.7872 144.49 57.1387 144.678C57.5093 146.557 58.0652 148.248 59.1771 149.751C60.2889 150.127 61.4007 150.503 62.5126 150.879Z" fill="#1E1E1E"/>
<path d="M99.6672 183.008C98.926 181.317 97.7215 179.908 96.239 178.969C95.4051 183.572 94.4786 188.081 93.4594 192.591C93.0888 194.094 91.9769 194.939 90.4018 194.752C89.2899 194.658 88.2708 194.376 87.2516 194.094C86.1397 193.812 85.0279 193.342 83.916 192.873C84.4719 193.624 85.2132 194.376 86.0471 195.033C89.3826 197.476 93.9227 197.382 96.9802 194.564C99.9452 191.651 101.335 187.048 99.6672 183.008Z" fill="#F7C300"/>
<path d="M83.7305 187.987C84.935 188.739 85.9542 189.209 87.2514 189.678C87.9 189.96 88.6412 190.148 89.3824 190.242C89.4751 190.242 89.5677 190.242 89.5677 190.242C89.5677 190.148 89.5677 190.054 89.6604 190.054C89.753 189.491 89.9383 188.927 90.031 188.269C90.309 187.142 90.4943 186.015 90.7722 184.887C91.2355 182.632 91.6988 180.472 92.0694 178.217C92.162 177.935 92.2547 177.559 92.3474 177.278C92.0694 177.184 91.6988 177.184 91.4208 177.09C91.1428 177.09 90.9575 177.09 90.6796 176.996C89.1971 176.902 87.7147 177.278 86.4175 178.029C84.6571 179.156 83.6379 181.035 82.6187 182.726C81.8775 183.948 81.5995 184.981 81.5068 186.296C81.5995 186.766 81.5995 187.236 81.6921 187.612C82.4334 187.612 83.082 187.612 83.7305 187.987Z" fill="#F7C300"/>
<path d="M81.7841 187.8C81.4135 187.987 81.0429 188.269 80.7649 188.645C80.1163 189.585 80.3943 190.994 81.4135 191.651C82.1547 192.121 82.9886 192.591 83.8225 192.967C82.8033 191.369 82.1547 189.678 81.7841 187.8Z" fill="#1E1E1E"/>
<path d="M96.1455 178.969C96.1455 178.782 96.2382 178.688 96.2382 178.5C96.4235 177.372 95.3116 176.338 94.2924 176.244C93.3659 176.15 92.7173 176.62 92.3467 177.372C93.7365 177.654 95.0336 178.218 96.1455 178.969Z" fill="#1E1E1E"/>
<path d="M87.1581 194.094C88.1773 194.376 89.2892 194.564 90.3084 194.752C91.8835 194.94 92.9953 194.094 93.3659 192.591C94.4778 188.081 95.4043 183.572 96.1456 178.969C94.9411 178.217 93.6439 177.653 92.3468 177.371C92.1614 177.653 92.0688 177.935 92.0688 178.311C91.6982 180.566 91.2349 182.82 90.7716 184.981C90.4937 186.109 90.3084 187.236 90.0304 188.363C89.9377 188.927 89.7524 189.491 89.6598 190.148C89.6598 190.242 89.6598 190.336 89.5671 190.336C89.4745 190.336 89.4745 190.336 89.3818 190.336C88.6406 190.148 87.992 189.96 87.2508 189.772C85.9536 189.303 84.8418 188.833 83.7299 188.081C83.174 187.706 82.4328 187.706 81.7842 187.894C82.1548 189.772 82.7107 191.464 83.8226 192.967C84.9344 193.436 86.0463 193.812 87.1581 194.094Z" fill="#1E1E1E"/>
<path d="M72.0561 64.4474C64.1806 69.2387 56.2123 73.6542 47.9661 77.5999C45.8351 78.6333 47.5028 82.0154 49.6339 80.982C57.8801 76.9423 65.941 72.5268 73.7239 67.8295C75.7623 66.6081 74.0945 63.2261 72.0561 64.4474Z" fill="#1E1E1E"/>
<path d="M100.871 58.341C84.4715 67.3599 67.979 76.2848 51.4866 85.1159C49.3556 86.2432 51.0234 89.6253 53.1544 88.498C69.7395 79.7609 86.1392 70.8359 102.539 61.7231C104.67 60.5018 103.002 57.2136 100.871 58.341Z" fill="#1E1E1E"/>
<path d="M92.9032 74.4059C81.0435 80.7003 69.0911 86.6189 56.8608 92.1618C54.6371 93.1012 56.3975 96.4833 58.5286 95.5438C70.7589 90.001 82.7113 84.0823 94.571 77.7879C96.702 76.6606 95.0343 73.2785 92.9032 74.4059Z" fill="#1E1E1E"/>
<path d="M108.005 65.1991C105.133 66.7022 102.261 68.2054 99.3886 69.7085C98.5547 70.1783 98.0914 71.3056 98.5547 72.2451C99.0179 73.0906 100.13 73.5603 101.056 73.0906C103.929 71.5875 106.801 70.0843 109.673 68.5812C110.507 68.1114 110.97 66.9841 110.507 66.0446C110.044 65.1991 108.932 64.7293 108.005 65.1991Z" fill="#1E1E1E"/>
<path d="M71.1294 95.5438C67.3305 96.6712 63.6244 98.3622 60.1962 100.429C59.3623 100.899 58.899 102.026 59.3623 102.966C59.8256 103.811 60.9374 104.375 61.8639 103.811C65.0142 101.838 68.4424 100.241 71.8706 99.2077C72.7971 98.9259 73.5384 98.0804 73.3531 96.953C73.0751 96.1075 72.1486 95.262 71.1294 95.5438Z" fill="#1E1E1E"/>
<path d="M104.948 77.3182C95.5896 82.2034 86.3242 87.1826 76.9661 92.0678C74.8351 93.1951 76.5028 96.5772 78.6339 95.4499C87.992 90.5646 97.2574 85.5855 106.615 80.7003C108.746 79.5729 107.079 76.1908 104.948 77.3182Z" fill="#1E1E1E"/>
<path d="M99.3892 117.058C92.1622 120.722 84.8425 124.198 77.4301 127.392C75.2064 128.331 76.9669 131.713 79.0979 130.774C86.5103 127.58 93.8299 124.104 101.057 120.44C103.188 119.312 101.52 115.93 99.3892 117.058Z" fill="#1E1E1E"/>
<path d="M129.687 110.106C113.75 118.091 97.9065 125.983 81.97 133.874C79.839 134.908 81.5068 138.29 83.6378 137.256C99.5743 129.365 115.511 121.473 131.355 113.488C133.486 112.36 131.818 109.072 129.687 110.106Z" fill="#1E1E1E"/>
<path d="M107.449 130.398C100.13 134.062 92.7174 137.632 85.3978 141.296C83.2667 142.329 84.9345 145.711 87.0655 144.678C94.3852 141.014 101.798 137.444 109.117 133.78C111.248 132.653 109.58 129.365 107.449 130.398Z" fill="#1E1E1E"/>
<path d="M125.795 121.285C121.811 123.258 117.827 125.231 113.843 127.11C112.916 127.58 112.546 128.707 113.009 129.647C113.472 130.586 114.584 130.868 115.511 130.492C119.495 128.519 123.479 126.546 127.463 124.667C128.39 124.198 128.76 123.07 128.297 122.131C127.834 121.191 126.722 120.816 125.795 121.285Z" fill="#1E1E1E"/>
<path d="M117.086 159.897C111.619 162.716 106.245 165.44 100.779 168.259C98.6476 169.386 100.315 172.674 102.446 171.641C107.913 168.822 113.287 166.098 118.753 163.279C120.885 162.152 119.217 158.864 117.086 159.897Z" fill="#1E1E1E"/>
<path d="M145.16 154.73C131.818 161.588 118.383 168.259 104.949 174.835C102.817 175.868 104.485 179.25 106.616 178.217C120.051 171.641 133.486 164.97 146.828 158.112C148.959 156.985 147.291 153.697 145.16 154.73Z" fill="#1E1E1E"/>
<path d="M123.664 175.68C119.124 178.029 114.491 180.284 109.951 182.632C107.82 183.666 109.488 187.048 111.619 186.014C116.159 183.666 120.792 181.411 125.332 179.062C127.463 177.935 125.795 174.647 123.664 175.68Z" fill="#1E1E1E"/>
<path d="M135.246 169.668C133.486 170.419 131.725 171.265 130.057 172.204C129.224 172.674 128.76 173.802 129.224 174.741C129.687 175.587 130.799 176.056 131.725 175.587C133.393 174.647 135.153 173.802 136.914 173.05C137.84 172.674 138.211 171.359 137.748 170.513C137.284 169.574 136.265 169.292 135.246 169.668Z" fill="#1E1E1E"/>
<path d="M154.795 159.709C150.533 161.87 146.364 163.937 142.102 166.098C139.971 167.131 141.639 170.513 143.77 169.48C148.032 167.319 152.201 165.252 156.463 163.092C158.594 161.964 156.926 158.582 154.795 159.709Z" fill="#1E1E1E"/>
<path d="M123.757 138.196C106.431 147.402 89.0118 156.421 71.4075 165.252C69.2765 166.286 70.9443 169.668 73.0753 168.634C90.5869 159.803 108.098 150.878 125.425 141.578C127.463 140.45 125.795 137.068 123.757 138.196Z" fill="#59C59F"/>
<path d="M99.4818 97.7046C82.2481 106.442 65.1071 115.273 47.9661 124.292C45.8351 125.419 47.5028 128.801 49.6339 127.674C66.7749 118.655 83.9159 109.824 101.15 101.087C103.281 99.9593 101.613 96.5772 99.4818 97.7046Z" fill="#59C59F"/>
</svg>
