<svg width="273" height="77" viewBox="0 0 273 77" fill="none" xmlns="http://www.w3.org/2000/svg">
<g clip-path="url(#clip0)">
<path d="M15.8865 45.3956C16.2097 45.105 16.2097 44.6337 15.8865 44.3431C15.5634 44.0525 15.0395 44.0525 14.7164 44.3431L8.1978 50.2063L1.54336 44.2209C1.22023 43.9303 0.696333 43.9303 0.373206 44.2209C0.0500771 44.5115 0.0500773 44.9828 0.373206 45.2734L7.47686 51.6628C7.49984 51.6835 7.52383 51.7027 7.54869 51.7204C7.5684 51.7428 7.58974 51.7644 7.61272 51.785C7.93585 52.0757 8.45974 52.0757 8.78287 51.785L15.8865 45.3956Z" fill="#1E1E1E" fill-opacity="0.6"/>
<path fill-rule="evenodd" clip-rule="evenodd" d="M26.728 48.4352C26.9232 48.2399 26.9232 47.9233 26.728 47.7281C26.5327 47.5328 26.2161 47.5328 26.0209 47.7281L22.0818 51.6671L18.0606 47.646C17.8653 47.4507 17.5487 47.4507 17.3535 47.646C17.1582 47.8412 17.1582 48.1578 17.3535 48.3531L21.6461 52.6457C21.66 52.6596 21.6745 52.6725 21.6895 52.6844C21.7014 52.6994 21.7143 52.7139 21.7282 52.7278C21.9235 52.9231 22.2401 52.9231 22.4353 52.7278L26.728 48.4352Z" fill="#1E1E1E"/>
<path fill-rule="evenodd" clip-rule="evenodd" d="M36.729 47.4352C36.9242 47.2399 36.9242 46.9233 36.729 46.7281C36.5337 46.5328 36.2171 46.5328 36.0219 46.7281L32.0828 50.6671L28.0616 46.646C27.8663 46.4507 27.5497 46.4507 27.3545 46.646C27.1592 46.8412 27.1592 47.1578 27.3545 47.3531L31.6471 51.6457C31.661 51.6596 31.6755 51.6725 31.6905 51.6844C31.7024 51.6994 31.7153 51.7139 31.7292 51.7278C31.9245 51.9231 32.241 51.9231 32.4363 51.7278L36.729 47.4352Z" fill="white"/>
<path d="M182.757 47.4751C178.5 50.8989 173.534 53.3512 168.474 52.9588C163.438 52.5653 158.332 49.3261 155.486 44.6427C152.64 39.982 152.075 33.8534 154.642 30.0254C157.209 26.1975 162.906 24.6474 168.697 23.0704C174.464 21.4944 180.28 19.9391 184.523 21.9629C188.743 24.0104 191.391 29.6598 190.953 34.6703C190.514 39.6807 186.991 44.075 182.757 47.4751Z" fill="#F1C527"/>
<path fill-rule="evenodd" clip-rule="evenodd" d="M203.147 31.3276C203.18 31.3792 203.212 31.4309 203.252 31.4752C203.461 31.8 203.461 32.2134 203.356 32.6269C203.278 32.9812 203.016 33.3356 202.754 33.5127C202.492 33.6899 202.02 33.808 201.732 33.6604C200.448 33.0698 199.164 32.4201 197.88 31.7705C197.565 31.6229 197.382 31.239 197.277 30.8846C197.172 30.5007 197.251 30.0873 197.408 29.733C197.565 29.4081 197.88 29.1424 198.194 29.0538C198.561 28.9357 198.875 29.0243 199.216 29.2014C200.133 29.6739 201.024 30.1169 201.941 30.5598C202.033 30.6041 202.118 30.641 202.203 30.6779C202.289 30.7148 202.374 30.7517 202.465 30.796C202.675 30.8846 202.885 31.0027 203.042 31.1799C203.081 31.2242 203.114 31.2759 203.147 31.3276ZM160.374 37.1596C176.645 33.8237 193.269 33.5788 209.621 36.3945C210.762 36.5781 210.952 38.6593 209.947 39.2102C208.114 40.1437 206.287 41.0848 204.46 42.0259C202.633 42.967 200.807 43.9081 198.973 44.8415C197.398 45.6679 196.04 43.0358 197.615 42.2095C199.87 41.0159 202.151 39.8529 204.433 38.6899C190.036 36.7006 175.396 37.1903 161.108 40.1283C159.397 40.465 158.663 37.5269 160.374 37.1596Z" fill="#1E1E1E"/>
<path d="M32.9525 21.5105C31.2741 21.3899 29.6177 21.1488 27.9779 20.7814C26.4043 20.4312 24.7589 20.0293 23.2737 19.3749C22.0259 18.8237 21.6284 17.2852 21.1701 16.0681C20.5517 14.432 20.0438 12.7556 19.6352 11.0563C19.4916 10.4478 18.9008 10 18.3045 10C17.653 10 17.2003 10.4593 16.9739 11.0563C16.3555 12.6695 15.7371 14.277 15.1243 15.8902C14.6495 17.1359 14.1912 18.5195 13.2636 19.4954C12.3471 20.4656 11.044 20.6321 9.79071 20.6034C8.11776 20.569 6.47242 20.213 4.79394 20.368C3.61791 20.4771 3.09339 21.7057 3.72833 22.6759C3.75594 23.1409 4.01544 23.5714 4.40745 23.8642C5.50067 24.6909 6.57732 25.5406 7.63189 26.4247C8.17297 26.8782 8.70302 27.3317 9.23306 27.7967C9.49809 28.0264 9.75759 28.2617 10.0226 28.4971C10.1551 28.6177 10.2821 28.7325 10.4146 28.8531C10.4477 28.8818 10.4864 28.9334 10.5306 28.9794C10.525 29.0138 10.525 29.0482 10.514 29.0827C10.4754 29.2664 10.4367 29.4501 10.4036 29.6338C10.3263 30.0012 10.249 30.3686 10.1717 30.7361C10.0171 31.4709 9.85697 32.2 9.69133 32.9348C9.34901 34.4447 8.99013 35.9488 8.61468 37.4472C8.32205 38.6126 9.60299 39.7665 10.641 39.0661C11.9771 38.1705 13.3023 37.252 14.6495 36.3794C15.2789 35.9718 15.9249 35.5584 16.6095 35.2541C17.2058 34.9901 17.3162 35.1508 17.896 35.4608C20.7726 37.0166 23.6492 38.5724 26.5313 40.1281C27.5858 40.6965 28.8778 39.755 28.5576 38.5092C28.1821 37.0453 27.8785 35.5527 27.6852 34.0485C27.5858 33.285 27.492 32.5043 27.4754 31.735C27.4589 31.0403 27.8177 30.6212 28.2097 30.0873C29.8717 27.814 31.8207 25.7702 33.9409 23.9618C34.9347 23.1007 34.0292 21.5851 32.9525 21.5105Z" fill="#F1C527"/>
<path d="M8.23377 42C8.01291 42 7.79207 41.9599 7.57673 41.8795C7.05221 41.6843 6.62155 41.271 6.4007 40.7428C6.25162 40.3754 6.20193 39.9735 6.26819 39.5774C6.27371 39.5372 6.28475 39.497 6.29579 39.4568C6.83688 37.7403 7.03565 36.0123 7.25098 34.181C7.37797 33.0902 7.51048 31.9592 7.72029 30.8053C7.72581 30.7709 7.72029 30.7077 7.70372 30.6561C7.68716 30.6044 7.65955 30.5527 7.6209 30.5125L1.49779 24.3066C0.951182 23.7555 0.757936 22.9403 0.995352 22.1825C1.23277 21.4247 1.84563 20.8851 2.60205 20.776L3.47993 20.644C4.28052 20.5119 5.15841 20.466 6.08598 20.4143C8.46014 20.288 10.9171 20.156 11.7011 18.4854L15.0912 11.338C15.428 10.6261 16.1127 10.1841 16.8746 10.1841C17.6365 10.1841 18.3212 10.6261 18.658 11.338L19.05 12.1647C19.2322 12.5953 19.3923 12.9914 19.5524 13.3818C20.4469 15.5805 21.3689 17.8482 22.6112 19.4728C22.6388 19.4843 22.6664 19.49 22.694 19.4958L31.1527 20.776C31.5391 20.8334 31.8925 21.0056 32.1796 21.264C32.4502 21.5108 32.6489 21.8323 32.7593 22.1883C32.8201 22.3892 32.809 22.6131 32.7207 22.8025C31.9864 24.4789 30.7551 25.6902 29.557 26.8556C28.8116 27.5904 28.1049 28.2793 27.5252 29.0658C27.5031 29.0945 27.481 29.1232 27.4534 29.152C27.1994 29.416 26.962 29.6572 26.7632 29.8581L26.1283 30.5011C26.051 30.5814 26.0123 30.6962 26.0344 30.8111L26.8626 35.8458C26.9178 36.1443 27.0006 36.4945 27.0779 36.8447C27.4589 38.5383 27.8233 40.1457 26.8516 40.7945C25.267 42.3273 23.2351 41.0528 21.5898 40.0309C20.8058 39.543 19.9996 39.0377 19.3205 38.8483C19.2653 38.8311 19.2101 38.8081 19.1549 38.7794L17.0181 37.614C16.9188 37.5623 16.8028 37.5623 16.709 37.614L9.14478 41.7474C8.86872 41.9197 8.54848 42 8.23377 42ZM7.89697 39.9161C7.89145 39.9678 7.90249 40.0194 7.91905 40.0654C7.9577 40.1515 8.035 40.2261 8.12334 40.2606C8.21168 40.295 8.30002 40.2835 8.38284 40.2376L15.947 36.1042C16.5267 35.7884 17.2169 35.7884 17.7966 36.1042L19.8506 37.2236C20.7229 37.4877 21.6008 38.0388 22.4511 38.567C24.0909 39.5946 25.1344 40.1687 25.7694 39.5085C25.786 39.4913 25.8025 39.4741 25.8246 39.4568C25.8798 39.0492 25.6258 37.9355 25.4712 37.2523C25.3884 36.8792 25.3056 36.5118 25.2394 36.1731L24.4056 31.1153C24.2952 30.4436 24.5105 29.7605 24.9798 29.284L25.6148 28.641C25.797 28.4573 26.0123 28.2334 26.2497 27.9923C26.9013 27.1082 27.6798 26.3504 28.4251 25.6156C29.4355 24.6281 30.3907 23.6866 31.0146 22.5155C30.987 22.4983 30.9539 22.4925 30.9152 22.4868L22.4566 21.2066C22.1419 21.1606 21.8327 21.0286 21.5732 20.8334C21.518 20.7875 21.4628 20.7416 21.4186 20.6842C19.9776 18.8643 18.9837 16.4244 18.0285 14.0592C17.8684 13.6688 17.7083 13.2784 17.5537 12.8938L17.1783 12.1073C17.0954 11.9408 16.9574 11.9121 16.8801 11.9121C16.8028 11.9121 16.6593 11.9351 16.582 12.1073L13.1919 19.2374C11.9827 21.8151 8.89632 21.9816 6.17433 22.1309C5.29092 22.1768 4.4572 22.2227 3.72839 22.3433L2.83946 22.4753C2.66278 22.504 2.59101 22.636 2.56892 22.7107C2.54683 22.7853 2.52475 22.9346 2.65174 23.0666L8.77485 29.2725C9.00675 29.5079 9.17791 29.7949 9.27729 30.1164C9.37667 30.4322 9.39876 30.7709 9.34907 31.0981C9.14478 32.2176 9.01779 33.3198 8.89632 34.3819C8.68651 36.196 8.47118 38.0618 7.89697 39.9161Z" fill="#1E1E1E"/>
<path d="M24.0462 23.5427C22.6604 23.3475 21.4291 23.1294 20.4022 22.4462C19.4967 21.8434 18.7844 20.9421 18.3869 19.903C18.2102 19.4437 17.7188 19.2313 17.2716 19.415C16.852 19.5872 16.6642 20.0465 16.8244 20.4828C17.3378 21.8319 18.2102 22.9801 19.3476 23.7896C20.6782 24.7425 22.2463 25.0239 23.7425 25.2363C23.7812 25.242 23.8198 25.242 23.8585 25.242C24.2781 25.242 24.648 24.909 24.7088 24.4612C24.775 24.002 24.4879 23.6059 24.0462 23.5427Z" fill="#1E1E1E"/>
<path d="M245.501 23.482C250.708 21.1683 256.372 20.073 261.372 21.9639C266.348 23.8489 270.635 28.7141 272.258 34.4195C273.887 40.101 272.822 46.6405 269.211 49.8698C265.601 53.099 259.441 53.0419 253.178 52.985C246.939 52.9341 240.657 52.8475 236.916 49.4993C233.205 46.133 232.04 39.4813 233.818 34.3984C235.596 29.3156 240.323 25.7776 245.501 23.482Z" fill="#F1C527"/>
<path fill-rule="evenodd" clip-rule="evenodd" d="M220.455 42.6725C220.422 42.6209 220.389 42.5692 220.35 42.5249C220.14 42.2001 220.14 41.7867 220.245 41.3732C220.323 41.0189 220.586 40.6645 220.848 40.4874C221.11 40.3102 221.581 40.1921 221.87 40.3397C223.154 40.9303 224.438 41.58 225.722 42.2296C226.036 42.3773 226.22 42.7611 226.325 43.1155C226.429 43.4994 226.351 43.9128 226.193 44.2671C226.036 44.592 225.722 44.8577 225.407 44.9463C225.04 45.0644 224.726 44.9759 224.385 44.7987C223.468 44.3262 222.577 43.8833 221.66 43.4403C221.568 43.396 221.483 43.3591 221.398 43.3222C221.313 43.2853 221.228 43.2484 221.136 43.2041C220.926 43.1155 220.717 42.9974 220.559 42.8202C220.52 42.7759 220.487 42.7242 220.455 42.6725ZM263.227 36.8405C246.956 40.1764 230.332 40.4213 213.98 37.6056C212.839 37.422 212.649 35.3408 213.654 34.7899C215.488 33.8564 217.315 32.9153 219.141 31.9742C220.968 31.0331 222.795 30.092 224.628 29.1586C226.204 28.3322 227.562 30.9643 225.986 31.7906C223.732 32.9842 221.45 34.1472 219.168 35.3102C233.565 37.2995 248.206 36.8099 262.494 33.8718C264.205 33.5351 264.938 36.4732 263.227 36.8405Z" fill="#1E1E1E"/>
<path d="M13.2085 53.2051C12.4386 52.7551 11.6487 53.0951 11.1587 53.7451C10.1989 55.0051 9.21898 56.2651 8.21911 57.4951C7.70917 58.1252 7.19923 58.7552 6.6793 59.3652C6.40933 59.6952 6.13936 60.0152 5.8694 60.3352C5.8294 60.3752 5.79941 60.4252 5.75941 60.4652C5.71942 60.4352 5.68942 60.4052 5.64943 60.3652C5.24948 60.0452 4.86952 59.6952 4.50957 59.3252C3.82965 58.6252 3.30972 57.9552 2.79978 57.1251C2.36983 56.4351 1.44995 56.1651 0.740033 56.5851C0.0501186 56.9851 -0.219848 57.9451 0.2001 58.6352C0.990002 59.8952 1.93988 61.0752 3.03975 62.0752C3.59968 62.5852 4.2096 63.0652 4.83953 63.4852C5.74941 64.0952 6.73929 63.9052 7.4392 63.0952C9.63893 60.5652 11.7187 57.9251 13.7384 55.2551C14.2384 54.6051 13.8484 53.5751 13.2085 53.2051Z" fill="#1E1E1E"/>
<path d="M109 63.6665V67.3358L114.499 63.6665H109Z" fill="#00247D"/>
<path d="M130.499 53H123.667V57.5547L130.499 53Z" fill="#00247D"/>
<path d="M111.496 69H118.333V64.4453L111.496 69Z" fill="#00247D"/>
<path d="M109 54.6641V58.3334H114.499L109 54.6641Z" fill="#00247D"/>
<path d="M118.333 53H111.496L118.333 57.5547V53Z" fill="#00247D"/>
<path d="M133 67.3358V63.6665H127.496L133 67.3358Z" fill="#00247D"/>
<path d="M133 58.3334V54.6641L127.496 58.3334H133Z" fill="#00247D"/>
<path d="M123.667 69H130.499L123.667 64.4453V69Z" fill="#00247D"/>
<path d="M118.333 58.3333V57.5547L111.496 53H109L117 58.3333H118.333Z" fill="#F5F5F5"/>
<path d="M115.331 58.3334L109 54.1094V54.664L114.499 58.3334H115.331Z" fill="#F5F5F5"/>
<path d="M123.667 63.6665V64.4452L130.499 68.9998H133L125 63.6665H123.667Z" fill="#F5F5F5"/>
<path d="M118.333 63.8853L110.664 68.9999H111.496L118.333 64.4453V63.8853Z" fill="#F5F5F5"/>
<path d="M114.499 63.6665L109 67.3358V68.9998L117 63.6665H114.499Z" fill="#F5F5F5"/>
<path d="M126.664 63.6665L133 67.8905V67.3358L127.496 63.6665H126.664Z" fill="#F5F5F5"/>
<path d="M127.496 58.3333L133 54.664V53L125 58.3333H127.496Z" fill="#F5F5F5"/>
<path d="M123.667 58.1147L131.331 53H130.499L123.667 57.5547V58.1147Z" fill="#F5F5F5"/>
<path d="M117 58.3333L109 53V54.1093L115.331 58.3333H117Z" fill="#CF142B"/>
<path d="M126.664 63.6665H125L133 68.9998V67.8905L126.664 63.6665Z" fill="#CF142B"/>
<path d="M118.333 63.6665H117L109 68.9998H110.664L118.333 63.8852V63.6665Z" fill="#CF142B"/>
<path d="M123.667 58.3333H125L133 53H131.331L123.667 58.1147V58.3333Z" fill="#CF142B"/>
<path d="M122.6 59.4H133V58.3333H127.496H125H123.666V58.1147V57.5547V53H122.6V59.4Z" fill="#F5F5F5"/>
<path d="M123.666 63.6668H125H126.664H127.496H133V62.6001H122.6V69.0001H123.666V64.4454V63.6668Z" fill="#F5F5F5"/>
<path d="M119.4 62.6001H109V63.6668H114.499H117H118.333V63.8854V64.4454V69.0001H119.4V62.6001Z" fill="#F5F5F5"/>
<path d="M119.4 59.4V53H118.333V57.5547V58.3333H117H115.331H114.499H109V59.4H119.4Z" fill="#F5F5F5"/>
<path d="M122.6 62.6H133V61V59.4H122.6V53H121H119.4V59.4H109V61V62.6H119.4V69H121H122.6V62.6Z" fill="#CF142B"/>
<mask id="mask0" mask-type="alpha" maskUnits="userSpaceOnUse" x="133" y="53" width="24" height="16">
<path d="M156 53H134C133.448 53 133 53.4477 133 54V68C133 68.5523 133.448 69 134 69H156C156.552 69 157 68.5523 157 68V54C157 53.4477 156.552 53 156 53Z" fill="black"/>
</mask>
<g mask="url(#mask0)">
<path d="M157.274 52.937H132.957V69.0628H157.274V52.937Z" fill="#B50900"/>
<path d="M157.258 67.7386H132.957V66.6372H157.258V67.7386ZM157.258 65.2601H132.957V64.1587H157.258V65.2601ZM157.258 62.7815H132.957V61.6801H157.258V62.7815ZM157.258 60.3035H132.957V59.2021H157.258V60.3035ZM157.258 57.825H132.957V56.7236H157.258V57.825ZM157.258 55.3465H132.957V54.2456H157.258V55.3465Z" fill="white"/>
<path d="M144.662 52.937H132.957V61.6772H144.662V52.937Z" fill="#2B1D73"/>
<path d="M133.674 53.3086L133.563 53.6507H133.201L133.494 53.8624L133.382 54.2045L133.674 53.9929L133.967 54.2045L133.855 53.8624L134.148 53.6507H133.786L133.674 53.3086Z" fill="white"/>
<path d="M133.674 55.043L133.563 55.3851H133.201L133.494 55.5967L133.382 55.9389L133.674 55.7272L133.967 55.9389L133.855 55.5967L134.148 55.3851H133.786L133.674 55.043Z" fill="white"/>
<path d="M133.674 56.7788L133.563 57.1209H133.201L133.494 57.3326L133.382 57.6747L133.674 57.4631L133.967 57.6747L133.855 57.3326L134.148 57.1209H133.786L133.674 56.7788Z" fill="white"/>
<path d="M133.674 58.5132L133.563 58.8553H133.201L133.494 59.067L133.382 59.4091L133.674 59.1975L133.967 59.4091L133.855 59.067L134.148 58.8553H133.786L133.674 58.5132Z" fill="white"/>
<path d="M133.786 60.5897L133.674 60.2476L133.563 60.5897H133.201L133.494 60.8013L133.382 61.144L133.674 60.9324L133.967 61.144L133.855 60.8013L134.148 60.5897H133.786Z" fill="white"/>
<path d="M134.699 54.1758L134.587 54.5179H134.226L134.518 54.7296L134.406 55.0722L134.699 54.8606L134.991 55.0722L134.88 54.7296L135.172 54.5179H134.81L134.699 54.1758Z" fill="white"/>
<path d="M134.699 55.9121L134.587 56.2542H134.226L134.518 56.4659L134.406 56.808L134.699 56.5964L134.991 56.808L134.88 56.4659L135.172 56.2542H134.81L134.699 55.9121Z" fill="white"/>
<path d="M134.699 57.646L134.587 57.9881H134.226L134.518 58.1998L134.406 58.5424L134.699 58.3308L134.991 58.5424L134.88 58.1998L135.172 57.9881H134.81L134.699 57.646Z" fill="white"/>
<path d="M134.81 59.7225L134.699 59.3804L134.587 59.7225H134.226L134.518 59.9341L134.406 60.2763L134.699 60.0647L134.991 60.2763L134.88 59.9341L135.172 59.7225H134.81Z" fill="white"/>
<path d="M135.726 53.3086L135.614 53.6507H135.253L135.545 53.8624L135.434 54.2045L135.726 53.9929L136.019 54.2045L135.907 53.8624L136.199 53.6507H135.838L135.726 53.3086Z" fill="white"/>
<path d="M135.726 55.0425L135.614 55.3846H135.253L135.545 55.5963L135.434 55.9384L135.726 55.7268L136.019 55.9384L135.907 55.5963L136.199 55.3846H135.838L135.726 55.0425Z" fill="white"/>
<path d="M135.726 56.7788L135.614 57.1209H135.253L135.545 57.3326L135.434 57.6747L135.726 57.4631L136.019 57.6747L135.907 57.3326L136.199 57.1209H135.838L135.726 56.7788Z" fill="white"/>
<path d="M135.726 58.5132L135.614 58.8553H135.253L135.545 59.067L135.434 59.4091L135.726 59.1975L136.019 59.4091L135.907 59.067L136.199 58.8553H135.838L135.726 58.5132Z" fill="white"/>
<path d="M135.838 60.5897L135.726 60.2476L135.614 60.5897H135.253L135.545 60.8013L135.434 61.144L135.726 60.9324L136.019 61.144L135.907 60.8013L136.199 60.5897H135.838Z" fill="white"/>
<path d="M136.751 54.1748L136.639 54.517H136.277L136.57 54.7286L136.458 55.0713L136.751 54.8596L137.043 55.0713L136.931 54.7286L137.224 54.517H136.862L136.751 54.1748Z" fill="white"/>
<path d="M136.751 55.9111L136.639 56.2533H136.277L136.57 56.4649L136.458 56.807L136.751 56.5954L137.043 56.807L136.931 56.4649L137.224 56.2533H136.862L136.751 55.9111Z" fill="white"/>
<path d="M136.751 57.646L136.639 57.9881H136.277L136.57 58.1998L136.458 58.5424L136.751 58.3308L137.043 58.5424L136.931 58.1998L137.224 57.9881H136.862L136.751 57.646Z" fill="white"/>
<path d="M136.862 59.7225L136.751 59.3804L136.639 59.7225H136.277L136.57 59.9341L136.458 60.2763L136.751 60.0647L137.043 60.2763L136.931 59.9341L137.224 59.7225H136.862Z" fill="white"/>
<path d="M137.777 53.3086L137.665 53.6507H137.304L137.596 53.8624L137.484 54.2045L137.777 53.9929L138.069 54.2045L137.958 53.8624L138.25 53.6507H137.889L137.777 53.3086Z" fill="white"/>
<path d="M137.776 55.0425L137.664 55.3846H137.303L137.595 55.5963L137.483 55.9384L137.776 55.7268L138.068 55.9384L137.957 55.5963L138.249 55.3846H137.888L137.776 55.0425Z" fill="white"/>
<path d="M137.776 56.7788L137.664 57.1209H137.303L137.595 57.3326L137.483 57.6747L137.776 57.4631L138.068 57.6747L137.957 57.3326L138.249 57.1209H137.888L137.776 56.7788Z" fill="white"/>
<path d="M137.776 58.5132L137.664 58.8553H137.303L137.595 59.067L137.483 59.4091L137.776 59.1975L138.068 59.4091L137.957 59.067L138.249 58.8553H137.888L137.776 58.5132Z" fill="white"/>
<path d="M137.888 60.5897L137.776 60.2476L137.664 60.5897H137.303L137.595 60.8013L137.483 61.144L137.776 60.9324L138.068 61.144L137.957 60.8013L138.249 60.5897H137.888Z" fill="white"/>
<path d="M138.803 54.1753L138.692 54.5174H138.33L138.623 54.7291L138.511 55.0717L138.803 54.8601L139.096 55.0717L138.984 54.7291L139.276 54.5174H138.915L138.803 54.1753Z" fill="white"/>
<path d="M138.803 55.9111L138.692 56.2533H138.33L138.623 56.4649L138.511 56.807L138.803 56.5954L139.096 56.807L138.984 56.4649L139.276 56.2533H138.915L138.803 55.9111Z" fill="white"/>
<path d="M138.803 57.646L138.692 57.9881H138.33L138.623 58.1998L138.511 58.5424L138.803 58.3308L139.096 58.5424L138.984 58.1998L139.276 57.9881H138.915L138.803 57.646Z" fill="white"/>
<path d="M138.915 59.723L138.803 59.3809L138.692 59.723H138.33L138.623 59.9346L138.511 60.2768L138.803 60.0651L139.096 60.2768L138.984 59.9346L139.276 59.723H138.915Z" fill="white"/>
<path d="M139.829 53.3086L139.717 53.6507H139.355L139.648 53.8624L139.536 54.2045L139.829 53.9929L140.121 54.2045L140.009 53.8624L140.302 53.6507H139.94L139.829 53.3086Z" fill="white"/>
<path d="M139.829 55.0425L139.717 55.3846H139.355L139.648 55.5963L139.536 55.9384L139.829 55.7268L140.121 55.9384L140.009 55.5963L140.302 55.3846H139.94L139.829 55.0425Z" fill="white"/>
<path d="M139.829 56.7788L139.717 57.1209H139.355L139.648 57.3326L139.536 57.6747L139.829 57.4631L140.121 57.6747L140.009 57.3326L140.302 57.1209H139.94L139.829 56.7788Z" fill="white"/>
<path d="M139.829 58.5132L139.717 58.8553H139.355L139.648 59.067L139.536 59.4091L139.829 59.1975L140.121 59.4091L140.009 59.067L140.302 58.8553H139.94L139.829 58.5132Z" fill="white"/>
<path d="M139.94 60.5897L139.829 60.2476L139.717 60.5897H139.355L139.648 60.8013L139.536 61.144L139.829 60.9324L140.121 61.144L140.009 60.8013L140.302 60.5897H139.94Z" fill="white"/>
<path d="M140.854 54.1753L140.742 54.5174H140.381L140.673 54.7291L140.562 55.0717L140.854 54.8601L141.146 55.0717L141.035 54.7291L141.327 54.5174H140.966L140.854 54.1753Z" fill="white"/>
<path d="M140.854 55.9111L140.742 56.2533H140.381L140.673 56.4649L140.562 56.807L140.854 56.5954L141.146 56.807L141.035 56.4649L141.327 56.2533H140.966L140.854 55.9111Z" fill="white"/>
<path d="M140.854 57.646L140.742 57.9881H140.381L140.673 58.1998L140.562 58.5424L140.854 58.3308L141.146 58.5424L141.035 58.1998L141.327 57.9881H140.966L140.854 57.646Z" fill="white"/>
<path d="M140.966 59.723L140.854 59.3809L140.742 59.723H140.381L140.673 59.9346L140.562 60.2768L140.854 60.0651L141.146 60.2768L141.035 59.9346L141.327 59.723H140.966Z" fill="white"/>
<path d="M141.88 53.3086L141.769 53.6507H141.407L141.7 53.8624L141.589 54.2045L141.88 53.9929L142.173 54.2045L142.061 53.8624L142.354 53.6507H141.992L141.88 53.3086Z" fill="white"/>
<path d="M141.879 55.0425L141.768 55.3846H141.406L141.699 55.5963L141.588 55.9384L141.879 55.7268L142.172 55.9384L142.06 55.5963L142.353 55.3846H141.991L141.879 55.0425Z" fill="white"/>
<path d="M141.879 56.7788L141.768 57.1209H141.406L141.699 57.3326L141.588 57.6747L141.879 57.4631L142.172 57.6747L142.06 57.3326L142.353 57.1209H141.991L141.879 56.7788Z" fill="white"/>
<path d="M141.879 58.5132L141.768 58.8553H141.406L141.699 59.067L141.588 59.4091L141.879 59.1975L142.172 59.4091L142.06 59.067L142.353 58.8553H141.991L141.879 58.5132Z" fill="white"/>
<path d="M141.991 60.5897L141.879 60.2476L141.768 60.5897H141.406L141.699 60.8013L141.588 61.144L141.879 60.9324L142.172 61.144L142.06 60.8013L142.353 60.5897H141.991Z" fill="white"/>
<path d="M142.906 54.1753L142.794 54.5174H142.433L142.725 54.7291L142.613 55.0717L142.906 54.8601L143.198 55.0717L143.086 54.7291L143.379 54.5174H143.017L142.906 54.1753Z" fill="white"/>
<path d="M142.906 55.9111L142.794 56.2533H142.433L142.725 56.4649L142.613 56.807L142.906 56.5954L143.198 56.807L143.086 56.4649L143.379 56.2533H143.017L142.906 55.9111Z" fill="white"/>
<path d="M142.906 57.646L142.794 57.9881H142.433L142.725 58.1998L142.613 58.5424L142.906 58.3308L143.198 58.5424L143.086 58.1998L143.379 57.9881H143.017L142.906 57.646Z" fill="white"/>
<path d="M143.017 59.723L142.906 59.3809L142.794 59.723H142.433L142.725 59.9346L142.613 60.2768L142.906 60.0651L143.198 60.2768L143.086 59.9346L143.379 59.723H143.017Z" fill="white"/>
<path d="M143.639 54.2045L143.931 53.9929L144.224 54.2045L144.112 53.8624L144.404 53.6507H144.043L143.931 53.3086L143.82 53.6507H143.458L143.75 53.8624L143.639 54.2045Z" fill="white"/>
<path d="M143.932 55.0425L143.82 55.3846H143.459L143.751 55.5963L143.64 55.9384L143.932 55.7268L144.225 55.9384L144.113 55.5963L144.405 55.3846H144.044L143.932 55.0425Z" fill="white"/>
<path d="M143.932 56.7788L143.82 57.1209H143.459L143.751 57.3326L143.64 57.6747L143.932 57.4631L144.225 57.6747L144.113 57.3326L144.405 57.1209H144.044L143.932 56.7788Z" fill="white"/>
<path d="M143.932 58.5132L143.82 58.8553H143.459L143.751 59.067L143.64 59.4091L143.932 59.1975L144.225 59.4091L144.113 59.067L144.405 58.8553H144.044L143.932 58.5132Z" fill="white"/>
<path d="M144.044 60.5897L143.932 60.2476L143.82 60.5897H143.459L143.751 60.8013L143.64 61.144L143.932 60.9324L144.225 61.144L144.113 60.8013L144.405 60.5897H144.044Z" fill="white"/>
</g>
<mask id="mask1" mask-type="alpha" maskUnits="userSpaceOnUse" x="157" y="53" width="24" height="16">
<path d="M180 53H158C157.448 53 157 53.4477 157 54V68C157 68.5523 157.448 69 158 69H180C180.552 69 181 68.5523 181 68V54C181 53.4477 180.552 53 180 53Z" fill="black"/>
</mask>
<g mask="url(#mask1)">
<path d="M181 53H157V69H181V53Z" fill="#FF0000"/>
<path d="M175 53H163V69H175V53Z" fill="#F5F5F5"/>
<path d="M169 55.9973L168.152 57.5813C168.056 57.752 167.886 57.736 167.71 57.64L167.096 57.32L167.555 59.752C167.651 60.1947 167.342 60.1947 167.187 60.0027L166.115 58.8027L165.939 59.4107C165.918 59.4907 165.832 59.576 165.699 59.5547L164.344 59.2667L164.702 60.5627C164.776 60.8507 164.835 60.968 164.627 61.048L164.142 61.2773L166.478 63.176C166.568 63.2453 166.616 63.3786 166.584 63.496L166.382 64.168C167.187 64.0773 167.907 63.9333 168.712 63.848C168.782 63.8426 168.904 63.96 168.904 64.04L168.798 66.4986H169.187L169.123 64.0453C169.123 63.9653 169.23 63.8426 169.299 63.848C170.104 63.9333 170.824 64.072 171.63 64.168L171.427 63.496C171.395 63.3786 171.443 63.2506 171.534 63.176L173.87 61.2773L173.384 61.048C173.171 60.9733 173.23 60.8507 173.31 60.5627L173.667 59.2667L172.312 59.5547C172.179 59.576 172.094 59.4907 172.072 59.4107L171.896 58.8027L170.814 60.008C170.659 60.2 170.35 60.2 170.446 59.7573L170.904 57.3253L170.291 57.6453C170.12 57.7413 169.944 57.7573 169.848 57.5867L169 55.9973Z" fill="#FF0000"/>
</g>
<path d="M181 53H205V69H181V53Z" fill="#00008B"/>
<path d="M187.368 62.1733L187.709 63.24L188.76 62.84L188.136 63.7787L189.101 64.3493L187.986 64.4453L188.141 65.5547L187.368 64.744L186.594 65.5547L186.749 64.4453L185.629 64.3493L186.594 63.7787L185.976 62.84L187.021 63.24L187.368 62.1733Z" fill="#F5F5F5"/>
<path d="M199.235 64.0933L199.4 64.5999L199.896 64.4133L199.603 64.8559L200.062 65.1279L199.528 65.1759L199.603 65.7039L199.235 65.3199L198.867 65.7039L198.942 65.1759L198.408 65.1279L198.867 64.8559L198.574 64.4133L199.07 64.5999L199.235 64.0933Z" fill="#F5F5F5"/>
<path d="M196.269 59.3948L196.429 59.9068L196.93 59.7148L196.637 60.1574L197.096 60.4348L196.562 60.4774L196.637 61.0054L196.269 60.6214L195.901 61.0054L195.97 60.4774L195.442 60.4348L195.901 60.1574L195.602 59.7148L196.104 59.9068L196.269 59.3948Z" fill="#F5F5F5"/>
<path d="M199.235 56.1841L199.4 56.6908L199.896 56.4988L199.603 56.9468L200.062 57.2188L199.528 57.2668L199.603 57.7948L199.235 57.4054L198.867 57.7948L198.942 57.2668L198.408 57.2188L198.867 56.9468L198.574 56.4988L199.07 56.6908L199.235 56.1841Z" fill="#F5F5F5"/>
<path d="M201.869 58.6052L202.035 59.1119L202.536 58.9252L202.237 59.3679L202.696 59.6399L202.168 59.6879L202.237 60.2159L201.869 59.8266L201.507 60.2159L201.576 59.6879L201.048 59.6399L201.507 59.3679L201.208 58.9252L201.709 59.1119L201.869 58.6052Z" fill="#F5F5F5"/>
<path d="M200.424 60.9841L200.552 61.3041L200.893 61.3255L200.632 61.5495L200.712 61.8801L200.424 61.6988L200.131 61.8801L200.211 61.5495L199.949 61.3255L200.291 61.3041L200.424 60.9841Z" fill="#F5F5F5"/>
<path d="M181 58.3333V60.1679L183.752 58.3333H181Z" fill="#00008B"/>
<path d="M191.752 53H188.333V55.2773L191.752 53Z" fill="#00008B"/>
<path d="M182.248 61H185.667V58.7227L182.248 61Z" fill="#00008B"/>
<path d="M181 53.832V55.6667H183.752L181 53.832Z" fill="#00008B"/>
<path d="M185.667 53H182.248L185.667 55.2773V53Z" fill="#00008B"/>
<path d="M193 60.1679V58.3333H190.248L193 60.1679Z" fill="#00008B"/>
<path d="M193 55.6667V53.832L190.248 55.6667H193Z" fill="#00008B"/>
<path d="M188.333 61H191.752L188.333 58.7227V61Z" fill="#00008B"/>
<path d="M185.667 55.6667V55.2773L182.248 53H181L185 55.6667H185.667Z" fill="#F5F5F5"/>
<path d="M184.168 55.6667L181 53.5547V53.832L183.752 55.6667H184.168Z" fill="#F5F5F5"/>
<path d="M188.333 58.3333V58.7226L191.752 60.9999H193L189 58.3333H188.333Z" fill="#F5F5F5"/>
<path d="M185.667 58.4453L181.832 61H182.248L185.667 58.7227V58.4453Z" fill="#F5F5F5"/>
<path d="M183.752 58.3333L181 60.1679V60.9999L185 58.3333H183.752Z" fill="#F5F5F5"/>
<path d="M189.832 58.3333L193 60.4453V60.1679L190.248 58.3333H189.832Z" fill="#F5F5F5"/>
<path d="M190.248 55.6667L193 53.832V53L189 55.6667H190.248Z" fill="#F5F5F5"/>
<path d="M188.333 55.5547L192.168 53H191.752L188.333 55.2773V55.5547Z" fill="#F5F5F5"/>
<path d="M185 55.6667L181 53V53.5547L184.168 55.6667H185Z" fill="#CF142B"/>
<path d="M189.832 58.3333H189L193 60.9999V60.4453L189.832 58.3333Z" fill="#CF142B"/>
<path d="M185.667 58.3333H185L181 60.9999H181.832L185.667 58.4453V58.3333Z" fill="#CF142B"/>
<path d="M188.333 55.6667H189L193 53H192.168L188.333 55.5547V55.6667Z" fill="#CF142B"/>
<path d="M187.8 56.2H193V55.6667H190.248H189H188.333V55.5547V55.2773V53H187.8V56.2Z" fill="#F5F5F5"/>
<path d="M188.333 58.3334H189H189.832H190.248H193V57.8H187.8V61H188.333V58.7227V58.3334Z" fill="#F5F5F5"/>
<path d="M186.2 57.8H181V58.3334H183.752H185H185.667V58.4454V58.7227V61H186.2V57.8Z" fill="#F5F5F5"/>
<path d="M186.2 56.2V53H185.667V55.2773V55.6667H185H184.168H183.752H181V56.2H186.2Z" fill="#F5F5F5"/>
<path d="M187.8 57.8H193V57V56.2H187.8V53H187H186.2V56.2H181V57V57.8H186.2V61H187H187.8V57.8Z" fill="#CF142B"/>
<mask id="mask2" mask-type="alpha" maskUnits="userSpaceOnUse" x="205" y="53" width="24" height="16">
<path d="M228 53H206C205.448 53 205 53.4477 205 54V68C205 68.5523 205.448 69 206 69H228C228.552 69 229 68.5523 229 68V54C229 53.4477 228.552 53 228 53Z" fill="black"/>
</mask>
<g mask="url(#mask2)">
<path d="M229 53H205V69H229V53Z" fill="#2E3192"/>
<path d="M216.221 56.1626L216.856 55.6773L217.506 56.1306L217.245 55.3786L217.874 54.8986L217.08 54.9146L216.818 54.168L216.589 54.9306L215.794 54.9466L216.45 55.4L216.221 56.1626Z" fill="white"/>
<path d="M217.08 67L216.818 66.248L216.589 67.0107L215.794 67.032L216.45 67.48L216.221 68.2427L216.856 67.7627L217.506 68.216L217.245 67.464L217.874 66.984L217.08 67Z" fill="white"/>
<path d="M210.264 62.0881L210.909 61.6294L211.549 62.1041L211.309 61.3414L211.96 60.8827L211.165 60.8721L210.931 60.1147L210.675 60.8667L209.88 60.8561L210.515 61.3307L210.264 62.0881Z" fill="white"/>
<path d="M223.629 62.1041L223.395 61.3414L224.045 60.8827L223.251 60.8721L223.011 60.1147L222.755 60.8667L221.96 60.8561L222.6 61.3307L222.344 62.0881L222.995 61.6294L223.629 62.1041Z" fill="white"/>
<path d="M218.888 56.4878L219.677 56.3972L220.008 57.1172L220.168 56.3385L220.957 56.2478L220.264 55.8585L220.424 55.0798L219.837 55.6185L219.144 55.2238L219.474 55.9492L218.888 56.4878Z" fill="white"/>
<path d="M214.69 66.0721L213.896 66.1095L213.618 65.3628L213.405 66.1308L212.61 66.1628L213.277 66.6055L213.064 67.3681L213.688 66.8721L214.349 67.3095L214.072 66.5681L214.69 66.0721Z" fill="white"/>
<path d="M211.064 59.0372L211.704 58.5626L212.349 59.0266L212.099 58.2692L212.739 57.7999L211.944 57.8052L211.688 57.0532L211.448 57.8106L210.653 57.8159L211.304 58.2799L211.064 59.0372Z" fill="white"/>
<path d="M221.688 64.4559L221.448 65.2186L222.088 64.7439L222.733 65.2026L222.482 64.4506L223.122 63.9759L222.322 63.9866L222.072 63.2292L221.832 63.9866L221.037 63.9973L221.688 64.4559Z" fill="white"/>
<path d="M221.688 57.9865L221.037 58.4452L221.832 58.4559L222.066 59.2185L222.328 58.4612L223.122 58.4772L222.482 57.9972L222.744 57.2452L222.093 57.7039L221.453 57.2239L221.688 57.9865Z" fill="white"/>
<path d="M211.944 64.2586L212.562 63.7573L211.768 63.7999L211.48 63.0586L211.277 63.8266L210.482 63.8693L211.149 64.3013L210.946 65.0693L211.565 64.5679L212.232 64.9999L211.944 64.2586Z" fill="white"/>
<path d="M213.293 56.856L213.928 56.376L214.579 56.8293L214.317 56.0773L214.952 55.5973L214.157 55.6133L213.896 54.8613L213.667 55.624L212.872 55.64L213.523 56.0933L213.293 56.856Z" fill="white"/>
<path d="M220.157 66.1041L219.901 65.3521L219.667 66.1094L218.872 66.1253L219.523 66.5841L219.293 67.3414L219.928 66.8614L220.579 67.3201L220.317 66.5681L220.952 66.0881L220.157 66.1041Z" fill="white"/>
</g>
<mask id="mask3" mask-type="alpha" maskUnits="userSpaceOnUse" x="229" y="53" width="24" height="16">
<path d="M252 53H230C229.448 53 229 53.4477 229 54V68C229 68.5523 229.448 69 230 69H252C252.552 69 253 68.5523 253 68V54C253 53.4477 252.552 53 252 53Z" fill="black"/>
</mask>
<g mask="url(#mask3)">
<path d="M253.274 52.937H228.957V69.0628H253.274V52.937Z" fill="#B50900"/>
<path d="M253.258 67.7386H228.957V66.6372H253.258V67.7386ZM253.258 65.2601H228.957V64.1587H253.258V65.2601ZM253.258 62.7815H228.957V61.6801H253.258V62.7815ZM253.258 60.3035H228.957V59.2021H253.258V60.3035ZM253.258 57.825H228.957V56.7236H253.258V57.825ZM253.258 55.3465H228.957V54.2456H253.258V55.3465Z" fill="white"/>
<path d="M240.662 52.937H228.957V61.6772H240.662V52.937Z" fill="#2B1D73"/>
<path d="M229.674 53.3086L229.563 53.6507H229.201L229.494 53.8624L229.382 54.2045L229.674 53.9929L229.967 54.2045L229.855 53.8624L230.148 53.6507H229.786L229.674 53.3086Z" fill="white"/>
<path d="M229.674 55.043L229.563 55.3851H229.201L229.494 55.5967L229.382 55.9389L229.674 55.7272L229.967 55.9389L229.855 55.5967L230.148 55.3851H229.786L229.674 55.043Z" fill="white"/>
<path d="M229.674 56.7788L229.563 57.1209H229.201L229.494 57.3326L229.382 57.6747L229.674 57.4631L229.967 57.6747L229.855 57.3326L230.148 57.1209H229.786L229.674 56.7788Z" fill="white"/>
<path d="M229.674 58.5132L229.563 58.8553H229.201L229.494 59.067L229.382 59.4091L229.674 59.1975L229.967 59.4091L229.855 59.067L230.148 58.8553H229.786L229.674 58.5132Z" fill="white"/>
<path d="M229.786 60.5897L229.674 60.2476L229.563 60.5897H229.201L229.494 60.8013L229.382 61.144L229.674 60.9324L229.967 61.144L229.855 60.8013L230.148 60.5897H229.786Z" fill="white"/>
<path d="M230.699 54.1758L230.587 54.5179H230.226L230.518 54.7296L230.406 55.0722L230.699 54.8606L230.991 55.0722L230.88 54.7296L231.172 54.5179H230.81L230.699 54.1758Z" fill="white"/>
<path d="M230.699 55.9121L230.587 56.2542H230.226L230.518 56.4659L230.406 56.808L230.699 56.5964L230.991 56.808L230.88 56.4659L231.172 56.2542H230.81L230.699 55.9121Z" fill="white"/>
<path d="M230.699 57.646L230.587 57.9881H230.226L230.518 58.1998L230.406 58.5424L230.699 58.3308L230.991 58.5424L230.88 58.1998L231.172 57.9881H230.81L230.699 57.646Z" fill="white"/>
<path d="M230.81 59.7225L230.699 59.3804L230.587 59.7225H230.226L230.518 59.9341L230.406 60.2763L230.699 60.0647L230.991 60.2763L230.88 59.9341L231.172 59.7225H230.81Z" fill="white"/>
<path d="M231.726 53.3087L231.614 53.6509H231.253L231.545 53.8625L231.434 54.2046L231.726 53.993L232.018 54.2046L231.907 53.8625L232.199 53.6509H231.838L231.726 53.3087Z" fill="white"/>
<path d="M231.726 55.0425L231.614 55.3846H231.253L231.545 55.5963L231.434 55.9384L231.726 55.7268L232.019 55.9384L231.907 55.5963L232.199 55.3846H231.838L231.726 55.0425Z" fill="white"/>
<path d="M231.726 56.7788L231.614 57.1209H231.253L231.545 57.3326L231.434 57.6747L231.726 57.4631L232.019 57.6747L231.907 57.3326L232.199 57.1209H231.838L231.726 56.7788Z" fill="white"/>
<path d="M231.726 58.5132L231.614 58.8553H231.253L231.545 59.067L231.434 59.4091L231.726 59.1975L232.019 59.4091L231.907 59.067L232.199 58.8553H231.838L231.726 58.5132Z" fill="white"/>
<path d="M231.838 60.5897L231.726 60.2476L231.614 60.5897H231.253L231.545 60.8013L231.434 61.144L231.726 60.9324L232.019 61.144L231.907 60.8013L232.199 60.5897H231.838Z" fill="white"/>
<path d="M232.751 54.1748L232.639 54.517H232.277L232.57 54.7286L232.458 55.0713L232.751 54.8596L233.043 55.0713L232.931 54.7286L233.224 54.517H232.862L232.751 54.1748Z" fill="white"/>
<path d="M232.751 55.9111L232.639 56.2533H232.277L232.57 56.4649L232.458 56.807L232.751 56.5954L233.043 56.807L232.931 56.4649L233.224 56.2533H232.862L232.751 55.9111Z" fill="white"/>
<path d="M232.751 57.646L232.639 57.9881H232.277L232.57 58.1998L232.458 58.5424L232.751 58.3308L233.043 58.5424L232.931 58.1998L233.224 57.9881H232.862L232.751 57.646Z" fill="white"/>
<path d="M232.862 59.7225L232.751 59.3804L232.639 59.7225H232.277L232.57 59.9341L232.458 60.2763L232.751 60.0647L233.043 60.2763L232.931 59.9341L233.224 59.7225H232.862Z" fill="white"/>
<path d="M233.777 53.3087L233.665 53.6509H233.303L233.596 53.8625L233.484 54.2046L233.777 53.993L234.069 54.2046L233.957 53.8625L234.25 53.6509H233.888L233.777 53.3087Z" fill="white"/>
<path d="M233.776 55.0425L233.664 55.3846H233.303L233.595 55.5963L233.483 55.9384L233.776 55.7268L234.068 55.9384L233.957 55.5963L234.249 55.3846H233.888L233.776 55.0425Z" fill="white"/>
<path d="M233.776 56.7788L233.664 57.1209H233.303L233.595 57.3326L233.483 57.6747L233.776 57.4631L234.068 57.6747L233.957 57.3326L234.249 57.1209H233.888L233.776 56.7788Z" fill="white"/>
<path d="M233.776 58.5132L233.664 58.8553H233.303L233.595 59.067L233.483 59.4091L233.776 59.1975L234.068 59.4091L233.957 59.067L234.249 58.8553H233.888L233.776 58.5132Z" fill="white"/>
<path d="M233.888 60.5897L233.776 60.2476L233.664 60.5897H233.303L233.595 60.8013L233.483 61.144L233.776 60.9324L234.068 61.144L233.957 60.8013L234.249 60.5897H233.888Z" fill="white"/>
<path d="M234.803 54.1753L234.692 54.5174H234.33L234.623 54.7291L234.511 55.0717L234.803 54.8601L235.096 55.0717L234.984 54.7291L235.276 54.5174H234.915L234.803 54.1753Z" fill="white"/>
<path d="M234.803 55.9111L234.692 56.2533H234.33L234.623 56.4649L234.511 56.807L234.803 56.5954L235.096 56.807L234.984 56.4649L235.276 56.2533H234.915L234.803 55.9111Z" fill="white"/>
<path d="M234.803 57.646L234.692 57.9881H234.33L234.623 58.1998L234.511 58.5424L234.803 58.3308L235.096 58.5424L234.984 58.1998L235.276 57.9881H234.915L234.803 57.646Z" fill="white"/>
<path d="M234.915 59.723L234.803 59.3809L234.692 59.723H234.33L234.623 59.9346L234.511 60.2768L234.803 60.0651L235.096 60.2768L234.984 59.9346L235.276 59.723H234.915Z" fill="white"/>
<path d="M235.828 53.3088L235.716 53.651H235.355L235.647 53.8626L235.536 54.2047L235.828 53.9931L236.121 54.2047L236.009 53.8626L236.301 53.651H235.94L235.828 53.3088Z" fill="white"/>
<path d="M235.829 55.0425L235.717 55.3846H235.355L235.648 55.5963L235.536 55.9384L235.829 55.7268L236.121 55.9384L236.009 55.5963L236.302 55.3846H235.94L235.829 55.0425Z" fill="white"/>
<path d="M235.829 56.7788L235.717 57.1209H235.355L235.648 57.3326L235.536 57.6747L235.829 57.4631L236.121 57.6747L236.009 57.3326L236.302 57.1209H235.94L235.829 56.7788Z" fill="white"/>
<path d="M235.829 58.5132L235.717 58.8553H235.355L235.648 59.067L235.536 59.4091L235.829 59.1975L236.121 59.4091L236.009 59.067L236.302 58.8553H235.94L235.829 58.5132Z" fill="white"/>
<path d="M235.94 60.5897L235.829 60.2476L235.717 60.5897H235.355L235.648 60.8013L235.536 61.144L235.829 60.9324L236.121 61.144L236.009 60.8013L236.302 60.5897H235.94Z" fill="white"/>
<path d="M236.854 54.1753L236.742 54.5174H236.381L236.673 54.7291L236.562 55.0717L236.854 54.8601L237.146 55.0717L237.035 54.7291L237.327 54.5174H236.966L236.854 54.1753Z" fill="white"/>
<path d="M236.854 55.9111L236.742 56.2533H236.381L236.673 56.4649L236.562 56.807L236.854 56.5954L237.146 56.807L237.035 56.4649L237.327 56.2533H236.966L236.854 55.9111Z" fill="white"/>
<path d="M236.854 57.646L236.742 57.9881H236.381L236.673 58.1998L236.562 58.5424L236.854 58.3308L237.146 58.5424L237.035 58.1998L237.327 57.9881H236.966L236.854 57.646Z" fill="white"/>
<path d="M236.966 59.723L236.854 59.3809L236.742 59.723H236.381L236.673 59.9346L236.562 60.2768L236.854 60.0651L237.146 60.2768L237.035 59.9346L237.327 59.723H236.966Z" fill="white"/>
<path d="M237.88 53.3088L237.768 53.651H237.407L237.7 53.8626L237.588 54.2047L237.88 53.9931L238.172 54.2047L238.061 53.8626L238.353 53.651H237.992L237.88 53.3088Z" fill="white"/>
<path d="M237.879 55.0425L237.768 55.3846H237.406L237.699 55.5963L237.588 55.9384L237.879 55.7268L238.172 55.9384L238.06 55.5963L238.353 55.3846H237.991L237.879 55.0425Z" fill="white"/>
<path d="M237.879 56.7788L237.768 57.1209H237.406L237.699 57.3326L237.588 57.6747L237.879 57.4631L238.172 57.6747L238.06 57.3326L238.353 57.1209H237.991L237.879 56.7788Z" fill="white"/>
<path d="M237.879 58.5132L237.768 58.8553H237.406L237.699 59.067L237.588 59.4091L237.879 59.1975L238.172 59.4091L238.06 59.067L238.353 58.8553H237.991L237.879 58.5132Z" fill="white"/>
<path d="M237.991 60.5897L237.879 60.2476L237.768 60.5897H237.406L237.699 60.8013L237.588 61.144L237.879 60.9324L238.172 61.144L238.06 60.8013L238.353 60.5897H237.991Z" fill="white"/>
<path d="M238.906 54.1753L238.794 54.5174H238.433L238.725 54.7291L238.613 55.0717L238.906 54.8601L239.198 55.0717L239.086 54.7291L239.379 54.5174H239.017L238.906 54.1753Z" fill="white"/>
<path d="M238.906 55.9111L238.794 56.2533H238.433L238.725 56.4649L238.613 56.807L238.906 56.5954L239.198 56.807L239.086 56.4649L239.379 56.2533H239.017L238.906 55.9111Z" fill="white"/>
<path d="M238.906 57.646L238.794 57.9881H238.433L238.725 58.1998L238.613 58.5424L238.906 58.3308L239.198 58.5424L239.086 58.1998L239.379 57.9881H239.017L238.906 57.646Z" fill="white"/>
<path d="M239.017 59.723L238.906 59.3809L238.794 59.723H238.433L238.725 59.9346L238.613 60.2768L238.906 60.0651L239.198 60.2768L239.086 59.9346L239.379 59.723H239.017Z" fill="white"/>
<path d="M239.639 54.2047L239.932 53.9931L240.224 54.2047L240.112 53.8626L240.405 53.651H240.043L239.932 53.3088L239.82 53.651H239.458L239.751 53.8626L239.639 54.2047Z" fill="white"/>
<path d="M239.932 55.0425L239.82 55.3846H239.459L239.751 55.5963L239.64 55.9384L239.932 55.7268L240.225 55.9384L240.113 55.5963L240.405 55.3846H240.044L239.932 55.0425Z" fill="white"/>
<path d="M239.932 56.7788L239.82 57.1209H239.459L239.751 57.3326L239.64 57.6747L239.932 57.4631L240.225 57.6747L240.113 57.3326L240.405 57.1209H240.044L239.932 56.7788Z" fill="white"/>
<path d="M239.932 58.5132L239.82 58.8553H239.459L239.751 59.067L239.64 59.4091L239.932 59.1975L240.225 59.4091L240.113 59.067L240.405 58.8553H240.044L239.932 58.5132Z" fill="white"/>
<path d="M240.044 60.5897L239.932 60.2476L239.82 60.5897H239.459L239.751 60.8013L239.64 61.144L239.932 60.9324L240.225 61.144L240.113 60.8013L240.405 60.5897H240.044Z" fill="white"/>
<path d="M253 53H229V69H253V53Z" fill="#00A99D"/>
<path d="M234.477 61.7838C234.477 61.2505 234.477 60.7118 234.477 60.1785C234.509 60.0131 234.531 59.8425 234.568 59.6771C235.043 57.4638 236.301 55.8745 238.371 54.9465C239.128 54.6051 239.928 54.4185 240.771 54.4451C241.123 54.4558 241.48 54.4238 241.827 54.4665C243.336 54.6531 244.643 55.2825 245.688 56.3918C247.187 57.9758 247.747 59.8745 247.437 62.0185C247.192 63.7251 246.376 65.1278 245.011 66.1838C243.395 67.4318 241.56 67.8158 239.565 67.4051C237.075 66.8931 235.085 64.8878 234.584 62.3918C234.547 62.1891 234.515 61.9865 234.477 61.7838ZM237.384 60.6851C237.448 59.6718 237.699 58.7118 238.04 57.7678C237.512 57.5331 237.005 57.2825 236.541 56.9571C235.603 58.0291 235.133 59.2718 235.064 60.6851C235.837 60.6851 236.605 60.6851 237.384 60.6851ZM243.928 57.7731C244.269 58.7225 244.52 59.6825 244.584 60.6851C245.363 60.6851 246.136 60.6851 246.909 60.6851C246.835 59.2718 246.365 58.0238 245.427 56.9625C244.957 57.2931 244.451 57.5385 243.928 57.7731ZM238.013 64.1998C237.869 63.7091 237.72 63.2344 237.597 62.7545C237.469 62.2745 237.405 61.7785 237.384 61.2771C236.605 61.2771 235.837 61.2771 235.059 61.2771C235.128 62.6905 235.603 63.9384 236.541 65.0051C237.011 64.6691 237.512 64.4238 238.013 64.1998ZM245.427 65.0051C245.923 64.4504 246.296 63.8264 246.547 63.1331C246.765 62.5358 246.883 61.9171 246.909 61.2771C246.131 61.2771 245.363 61.2771 244.584 61.2771C244.541 62.2905 244.28 63.2504 243.928 64.1944C244.451 64.4238 244.957 64.6744 245.427 65.0051ZM243.405 63.9971C243.731 63.1118 243.955 62.2158 244.003 61.2771C243.091 61.2771 242.184 61.2771 241.277 61.2771C241.277 62.0078 241.277 62.7278 241.277 63.4584C242.019 63.5118 242.717 63.7144 243.405 63.9971ZM243.395 57.9705C242.712 58.2531 242.013 58.4558 241.277 58.5091C241.277 59.2451 241.277 59.9651 241.277 60.6851C242.189 60.6851 243.096 60.6851 243.997 60.6851C243.992 59.9545 243.656 58.4238 243.395 57.9705ZM237.96 61.2771C238.008 62.2211 238.232 63.1171 238.557 64.0024C239.245 63.7198 239.944 63.5171 240.685 63.4584C240.685 62.7278 240.685 62.0025 240.685 61.2771C239.779 61.2771 238.877 61.2771 237.96 61.2771ZM237.96 60.6851C238.877 60.6851 239.779 60.6851 240.685 60.6851C240.685 59.9598 240.685 59.2345 240.685 58.5091C239.944 58.4558 239.245 58.2531 238.557 57.9705C238.227 58.8451 238.003 59.7411 237.96 60.6851ZM243.224 57.4851C243.219 57.4638 243.219 57.4531 243.213 57.4478C242.867 56.6158 242.419 55.8425 241.896 55.1118C241.88 55.0958 241.864 55.0691 241.843 55.0691C241.656 55.0425 241.464 55.0211 241.272 54.9998C241.272 55.9865 241.272 56.9411 241.272 57.9118C241.949 57.8638 242.595 57.7091 243.224 57.4851ZM241.277 64.0664C241.277 65.0264 241.277 65.9864 241.277 66.9624C241.448 66.9464 241.608 66.9251 241.768 66.9144C241.837 66.9091 241.885 66.8771 241.923 66.8238C242.44 66.1091 242.856 65.3358 243.187 64.5198C243.192 64.5038 243.197 64.4824 243.203 64.4611C242.771 64.2744 241.603 64.0344 241.277 64.0664ZM240.691 54.9945C240.515 55.0105 240.349 55.0318 240.184 55.0425C240.12 55.0478 240.077 55.0745 240.045 55.1278C239.763 55.5865 239.464 56.0398 239.192 56.5091C239.016 56.8131 238.877 57.1438 238.723 57.4638C239.075 57.6505 240.387 57.9331 240.685 57.8905C240.691 56.9358 240.691 55.9811 240.691 54.9945ZM240.685 66.9678C240.685 65.9811 240.685 65.0264 240.685 64.0558C240.019 64.0984 239.379 64.2371 238.76 64.4558C238.76 64.4718 238.755 64.4718 238.755 64.4771C239.091 65.3251 239.523 66.1251 240.067 66.8558C240.083 66.8718 240.104 66.8984 240.12 66.8984C240.307 66.9251 240.493 66.9464 240.685 66.9678ZM243.731 64.6851C243.571 65.0371 243.427 65.3838 243.251 65.7144C243.075 66.0504 242.867 66.3651 242.669 66.7011C243.565 66.4824 244.339 66.0398 245.021 65.4104C244.611 65.1118 244.184 64.8771 243.731 64.6851ZM236.947 65.4158C237.629 66.0398 238.403 66.4824 239.325 66.7064C238.861 66.0718 238.515 65.3944 238.248 64.6851C237.949 64.7758 237.176 65.2131 236.947 65.4158ZM238.232 57.2665C238.52 56.5518 238.872 55.8798 239.325 55.2345C238.408 55.4798 237.629 55.9225 236.941 56.5518C237.352 56.8451 237.779 57.0745 238.232 57.2665ZM242.637 55.2398C243.096 55.8798 243.448 56.5571 243.736 57.2718C244.195 57.0745 244.621 56.8451 245.021 56.5571C244.333 55.9225 243.555 55.4798 242.637 55.2398Z" fill="white"/>
</g>
<path d="M45.2085 34.2051C44.4386 33.7551 43.6487 34.0951 43.1588 34.7451C42.1989 36.0051 41.219 37.2651 40.2191 38.4951C39.7092 39.1252 39.1992 39.7552 38.6793 40.3652C38.4093 40.6952 38.1394 41.0152 37.8694 41.3352C37.8294 41.3752 37.7994 41.4252 37.7594 41.4652C37.7194 41.4352 37.6894 41.4052 37.6494 41.3652C37.2495 41.0452 36.8695 40.6952 36.5096 40.3252C35.8296 39.6252 35.3097 38.9551 34.7998 38.1251C34.3698 37.4351 33.4499 37.1651 32.74 37.5851C32.0501 37.9851 31.7802 38.9451 32.2001 39.6352C32.99 40.8952 33.9399 42.0752 35.0397 43.0752C35.5997 43.5852 36.2096 44.0652 36.8395 44.4852C37.7494 45.0952 38.7393 44.9052 39.4392 44.0952C41.6389 41.5652 43.7187 38.9251 45.7384 36.2551C46.2384 35.6051 45.8484 34.5751 45.2085 34.2051Z" fill="white"/>
<path d="M16.1089 61.2931C16.5174 62.8537 18.0947 63.7062 19.6425 63.9191C20.599 64.0507 21.6265 64.0833 22.4644 63.5352C23.2267 63.0372 23.7452 62.2426 23.9099 61.3694C24.2322 59.6607 23.7052 57.6743 22.0774 56.7505C21.2989 56.3091 20.4148 56.1569 19.5307 56.064C18.5889 55.9651 17.4972 55.881 16.7892 56.6208C16.3674 57.0618 16.3031 57.8122 16.7864 58.244C16.1322 59.1085 15.818 60.1812 16.1089 61.2931ZM18.3799 60.3937C18.3804 60.3707 18.3804 60.3288 18.3799 60.2953C18.3923 60.23 18.4099 60.1642 18.4266 60.1035C18.4437 60.0438 18.4642 59.9854 18.4837 59.926C18.4875 59.9145 18.488 59.9113 18.4908 59.9021C18.4985 59.8916 18.5042 59.8837 18.5151 59.8649C18.5604 59.789 18.618 59.6474 18.6884 59.5568C18.7018 59.5513 18.7194 59.5407 18.7437 59.5168C18.8079 59.4538 18.8674 59.3862 18.9332 59.3241C18.9879 59.2726 19.0446 59.223 19.1026 59.1747C19.1298 59.1522 19.1493 59.1338 19.1626 59.12C19.2769 59.022 19.4635 58.9411 19.5821 58.8772C19.7649 58.7788 19.9077 58.6247 20.0092 58.4472C20.2215 58.4932 20.4305 58.5484 20.6376 58.6165C20.6614 58.6243 20.6771 58.6293 20.69 58.6335C20.7204 58.651 20.7495 58.6693 20.7685 58.679C20.8023 58.6965 20.9056 58.7425 20.9852 58.7884C20.9956 58.7981 21.0104 58.8119 21.0328 58.8321C21.0728 58.8684 21.1137 58.9034 21.1528 58.9411C21.1556 58.9439 21.1737 58.9618 21.1947 58.9825C21.2075 59.0069 21.3046 59.1273 21.3203 59.1531C21.3522 59.2055 21.3765 59.263 21.4103 59.3136C21.4137 59.3182 21.4141 59.3182 21.4165 59.3218C21.4179 59.3269 21.4184 59.3283 21.4203 59.3338C21.4579 59.4515 21.4994 59.5674 21.5298 59.6869C21.5489 59.7619 21.5651 59.8373 21.5793 59.9132C21.5813 59.9224 21.5841 59.9412 21.5879 59.9619C21.5936 60.0194 21.6074 60.1316 21.6074 60.1334C21.6155 60.2369 21.6208 60.3408 21.6212 60.4447C21.6217 60.5592 21.6146 60.6737 21.6046 60.7882C21.5984 60.8255 21.5893 60.8829 21.5831 60.9096C21.5674 60.9767 21.5493 61.043 21.5284 61.1087C21.5232 61.1253 21.5179 61.1418 21.5127 61.1579C21.4998 61.191 21.4913 61.2149 21.4851 61.231C21.4713 61.254 21.4579 61.2747 21.4532 61.283C21.4256 61.3317 21.3918 61.3772 21.3641 61.4255C21.3594 61.4343 21.3584 61.437 21.3546 61.4439C21.3494 61.4485 21.347 61.4499 21.3399 61.4559C21.2927 61.4986 21.2427 61.5451 21.198 61.5911C21.1732 61.6085 21.1418 61.6306 21.1108 61.6495C21.0989 61.6522 21.0913 61.6541 21.0761 61.6582C21.0623 61.6619 20.9975 61.6844 20.9447 61.6977C20.9118 61.7005 20.8795 61.7037 20.8466 61.7046C20.6771 61.7134 20.5076 61.7074 20.3386 61.6964C20.2786 61.6922 20.2186 61.6867 20.1586 61.6816C20.1701 61.6844 20.1786 61.6867 20.1915 61.6899C20.1744 61.6853 20.1553 61.6835 20.1377 61.6798C20.1329 61.6793 20.1282 61.6789 20.1234 61.6784C20.0906 61.6761 20.0568 61.6674 20.0406 61.6614C19.9663 61.6499 19.8911 61.6398 19.8192 61.6251C19.6959 61.5993 19.5735 61.569 19.4526 61.534C19.3993 61.5184 19.3459 61.5019 19.2936 61.4844C19.2712 61.477 19.2488 61.4687 19.2269 61.4609C19.1503 61.4154 19.0512 61.3823 18.9765 61.3414C18.9179 61.3092 18.8608 61.2752 18.8046 61.2393C18.767 61.2154 18.7451 61.2043 18.7308 61.1997C18.6756 61.1455 18.6165 61.0715 18.5894 61.0475C18.5851 61.0439 18.5842 61.0434 18.5799 61.0397C18.5499 60.9956 18.5185 60.9519 18.4913 60.9059C18.4847 60.8949 18.4523 60.8186 18.4328 60.7781C18.4175 60.7225 18.397 60.6521 18.3932 60.6369C18.3894 60.6222 18.3861 60.607 18.3828 60.5923C18.3775 60.5624 18.3737 60.5422 18.3709 60.527C18.3718 60.4764 18.379 60.4231 18.3799 60.3937Z" fill="#59C69F"/>
<g clip-path="url(#clip1)">
<path d="M150.569 29.8938C148.255 18.3777 137.711 15.4987 132.728 15.4987C122.602 14.0095 111.511 22.9444 111.029 26.9155C110.643 30.0923 114.083 30.2247 115.851 29.8938C115.369 32.0448 114.983 37.6374 117.297 42.7997C123.566 53.7202 134.174 51.2383 137.55 50.7419C140.925 50.2455 153.462 44.2889 150.569 29.8938Z" fill="white"/>
<path d="M137.726 31.967C136.456 31.8932 135.257 31.8932 133.986 32.1145C133.634 30.86 133.21 29.6793 132.716 28.4986C132.505 27.9083 131.587 27.7607 131.093 28.0559C130.458 28.4248 130.388 29.1628 130.67 29.7531C131.023 30.7125 131.375 31.598 131.658 32.5573C130.388 32.9263 129.117 33.4428 127.988 34.0332C127.424 34.3284 127.283 35.2139 127.565 35.7305C127.918 36.3208 128.623 36.4684 129.188 36.1732C130.246 35.6567 131.305 35.2877 132.363 34.9925C132.646 36.247 132.928 37.5753 133.14 38.9036C133.21 39.5678 134.057 39.9367 134.621 39.7892C135.327 39.5678 135.539 38.9036 135.468 38.2395C135.327 36.985 135.045 35.8043 134.763 34.5498C135.751 34.4022 136.809 34.4022 137.797 34.476C138.432 34.5498 138.997 33.8856 138.997 33.2215C138.926 32.4835 138.361 32.0407 137.726 31.967Z" fill="#F7C300"/>
<path d="M147.882 28.5175C146.049 23.2957 140.91 19.2615 134.784 18.2371C128.023 17.1039 120.562 19.7601 114.336 25.5258C113.801 26.0154 113.783 26.7497 114.29 27.2845C114.778 27.7922 115.662 27.9645 116.307 27.3752C121.06 22.9784 126.669 20.5669 132.002 20.6666C136.995 20.7301 141.812 23.3047 144.262 27.203C146.934 31.4638 146.289 37.3836 142.687 41.5901C139.113 45.7603 132.924 48.625 128.005 46.0504C125.592 44.7812 123.427 42.5148 121.916 39.6682C120.304 36.6312 120.268 33.4038 121.806 31.0196C122.193 30.4212 122.027 29.7051 121.419 29.3152C120.82 28.9436 119.908 28.9889 119.439 29.7232C115.819 35.2804 119.227 42.8955 124.606 47.0294C126.936 48.8244 129.479 49.7491 132.049 49.7491C132.509 49.7491 132.97 49.7219 133.421 49.6585C136.553 49.2505 139.777 47.7819 142.503 45.5064C147.763 41.1368 149.918 34.3104 147.882 28.5175Z" fill="#1E1E1E"/>
</g>
<path d="M47.4298 54.5608C49.7444 43.0447 60.2885 40.1657 65.2712 40.1657C75.3975 38.6765 86.4879 47.6114 86.9701 51.5825C87.3559 54.7593 83.9162 54.8917 82.1482 54.5608C82.6304 56.7118 83.0162 62.3043 80.7016 67.4667C74.433 78.3872 63.8246 75.9053 60.4492 75.4089C57.0738 74.9125 44.5366 68.9559 47.4298 54.5608Z" fill="white"/>
<path d="M69.3056 56.634C68.0354 56.5603 66.8358 56.5603 65.5656 56.7816C65.2127 55.5271 64.7893 54.3464 64.2954 53.1657C64.0837 52.5754 63.1663 52.4278 62.6724 52.7229C62.0373 53.0919 61.9667 53.8299 62.249 54.4202C62.6018 55.3795 62.9546 56.2651 63.2369 57.2244C61.9667 57.5934 60.6965 58.1098 59.5675 58.7002C59.003 58.9954 58.8618 59.8809 59.1441 60.3975C59.4969 60.9878 60.2026 61.1355 60.7671 60.8403C61.8256 60.3238 62.8841 59.9548 63.9426 59.6596C64.2248 60.9141 64.5071 62.2424 64.7188 63.5707C64.7894 64.2349 65.6361 64.6038 66.2007 64.4563C66.9063 64.2349 67.118 63.5707 67.0475 62.9066C66.9063 61.6521 66.6241 60.4714 66.3418 59.2169C67.3297 59.0693 68.3882 59.0693 69.3761 59.1431C70.0112 59.2169 70.5757 58.5527 70.5757 57.8886C70.5052 57.1506 69.9407 56.7078 69.3056 56.634Z" fill="#F7C300"/>
<path d="M50.1167 53.1845C51.9497 47.9627 57.0895 43.9285 63.2149 42.9041C69.9758 41.7709 77.4368 44.4271 83.6635 50.1928C84.1977 50.6824 84.2161 51.4167 83.7095 51.9515C83.2213 52.4592 82.3371 52.6315 81.6923 52.0422C76.9394 47.6454 71.3298 45.2339 65.9966 45.3336C61.0042 45.3971 56.1868 47.9717 53.7366 51.8699C51.0654 56.1308 51.7102 62.0506 55.3117 66.2571C58.8856 70.4272 65.0755 73.292 69.9942 70.7173C72.4075 69.4482 74.5721 67.1818 76.0827 64.3352C77.6947 61.2982 77.7315 58.0708 76.1933 55.6866C75.8064 55.0882 75.9722 54.3721 76.5801 53.9822C77.1788 53.6105 78.0907 53.6559 78.5605 54.3902C82.1805 59.9474 78.7724 67.5625 73.3931 71.6964C71.0627 73.4914 68.5204 74.4161 65.9505 74.4161C65.49 74.4161 65.0294 74.3889 64.5781 74.3255C61.4463 73.9175 58.2224 72.4489 55.4959 70.1734C50.2364 65.8038 48.081 58.9774 50.1167 53.1845Z" fill="#1E1E1E"/>
<g clip-path="url(#clip2)">
<path d="M86.5692 24.4392C84.2547 35.9553 73.7106 38.8343 68.7278 38.8343C58.6016 40.3235 47.5111 31.3886 47.0289 27.4175C46.6432 24.2407 50.0828 24.1083 51.8508 24.4392C51.3686 22.2882 50.9829 16.6957 53.2974 11.5333C59.566 0.612829 70.1744 3.09475 73.5498 3.59113C76.9252 4.08752 89.4624 10.0441 86.5692 24.4392Z" fill="white"/>
<path d="M73.7264 19.634C72.4563 19.5603 71.2566 19.5603 69.9864 19.7816C69.6336 18.5271 69.2102 17.3464 68.7163 16.1657C68.5046 15.5754 67.5872 15.4278 67.0933 15.7229C66.4582 16.0919 66.3876 16.8299 66.6699 17.4202C67.0227 18.3795 67.3755 19.2651 67.6578 20.2244C66.3876 20.5934 65.1174 21.1098 63.9884 21.7002C63.4238 21.9954 63.2827 22.8809 63.565 23.3975C63.9178 23.9878 64.6234 24.1355 65.188 23.8403C66.2465 23.3238 67.3049 22.9548 68.3634 22.6596C68.6457 23.9141 68.928 25.2424 69.1397 26.5707C69.2102 27.2349 70.057 27.6038 70.6215 27.4563C71.3272 27.2349 71.5389 26.5707 71.4683 25.9066C71.3272 24.6521 71.0449 23.4714 70.7627 22.2169C71.7506 22.0693 72.8091 22.0693 73.797 22.1431C74.4321 22.2169 74.9966 21.5527 74.9966 20.8886C74.9261 20.1506 74.3615 19.7078 73.7264 19.634Z" fill="#F7C300"/>
<path d="M83.8823 25.8155C82.0493 31.0373 76.9096 35.0715 70.7842 36.0959C64.0233 37.2291 56.5623 34.5729 50.3356 28.8072C49.8014 28.3176 49.7829 27.5833 50.2895 27.0485C50.7777 26.5408 51.662 26.3685 52.3068 26.9578C57.0597 31.3546 62.6692 33.7661 68.0024 33.6664C72.9948 33.6029 77.8122 31.0283 80.2624 27.1301C82.9336 22.8692 82.2888 16.9494 78.6873 12.7429C75.1134 8.57273 68.9236 5.708 64.0048 8.28263C61.5915 9.55181 59.4269 11.8182 57.9163 14.6648C56.3044 17.7018 56.2675 20.9292 57.8058 23.3134C58.1926 23.9118 58.0268 24.6279 57.4189 25.0178C56.8202 25.3895 55.9083 25.3441 55.4385 24.6098C51.8186 19.0526 55.2267 11.4375 60.606 7.30354C62.9364 5.50855 65.4786 4.58386 68.0485 4.58386C68.5091 4.58386 68.9696 4.61106 69.421 4.67452C72.5527 5.08247 75.7766 6.5511 78.5031 8.82657C83.7626 13.1962 85.918 20.0226 83.8823 25.8155Z" fill="#1E1E1E"/>
</g>
</g>
<defs>
<clipPath id="clip0">
<rect width="273" height="77" fill="white"/>
</clipPath>
<clipPath id="clip1">
<rect width="40" height="37" fill="white" transform="translate(111 15)"/>
</clipPath>
<clipPath id="clip2">
<rect width="40" height="36" fill="white" transform="translate(47 3)"/>
</clipPath>
</defs>
</svg>
