<svg width="241" height="321" viewBox="0 0 241 321" fill="none" xmlns="http://www.w3.org/2000/svg">
<path d="M105.272 156.549C104.549 157.116 103.795 157.623 103.021 158.06L103.012 158.07C103.012 158.07 103.012 158.07 103.002 158.07C100.661 159.402 98.1229 160.198 95.4456 160.874C90.7751 162.057 89.0696 154.62 93.7301 153.437C95.9017 152.89 98.3113 152.403 100.116 150.981C101.237 150.097 102.635 149.739 103.894 150.166H103.904C104.449 150.345 104.955 150.673 105.401 151.16C106.7 152.562 106.869 155.296 105.272 156.549Z" fill="#F1C527"/>
<path d="M67.9891 49.7621C67.8899 46.9585 67.1363 44.135 64.7168 41.8682C62.1584 39.4722 58.6977 39.2435 56.5261 36.3802C54.7015 33.9743 50.6558 34.2328 48.6329 36.1516C46.2431 38.4084 46.5704 41.6495 48.4048 44.0654C49.6245 45.676 51.1813 47.0679 52.9266 48.1018C53.9678 48.7182 56.0204 49.096 56.9822 49.9113C56.893 50.5873 56.893 53.1325 56.9128 53.2418C57.2004 54.4945 57.954 55.6776 58.9952 56.4531C58.6581 59.376 61.6428 62.0007 64.3598 62.12C67.6717 62.2592 69.6946 59.7538 70.1706 56.7613C70.6168 53.8881 69.6153 51.6611 67.9891 49.7621Z" fill="#F1C527"/>
<path d="M88.0681 99.7702V99.7802C87.9492 100.238 87.8202 100.685 87.6814 101.142C87.4633 101.003 87.2352 100.874 87.017 100.735C86.0354 100.138 85.0537 99.5316 84.0621 98.9451C83.001 98.3187 81.9202 97.7222 80.7897 97.2251C79.808 96.7877 78.7768 96.4099 77.7058 96.2806C76.8531 96.1812 75.9408 96.2806 75.2169 96.7876C74.374 97.3742 73.9576 98.3585 73.7691 99.3328C73.6303 100.019 73.5609 100.774 73.8485 101.431C74.0964 102.017 74.6418 102.375 75.2367 102.524C76.0399 102.733 76.7936 102.624 77.5968 102.554C77.9835 102.514 78.4 102.514 78.7371 102.753C79.104 103.021 79.4213 103.419 79.7089 103.767C80.3633 104.542 80.9385 105.378 81.5037 106.213C81.9598 106.889 82.4457 107.545 82.8622 108.241C83.2886 108.957 83.6852 109.742 84.191 110.448C84.1711 110.498 84.1612 110.557 84.1414 110.607C83.3778 113.132 82.763 115.707 81.0674 116.851C80.9881 116.9 80.9187 116.95 80.8393 116.99C80.6906 117.079 80.5319 117.159 80.3633 117.218C79.699 117.477 78.8859 117.547 77.8942 117.378C77.4183 117.288 76.9423 117.169 76.4862 117.01C70.4968 114.962 64.7752 111.8 59.6883 108.072C57.2489 106.282 56.2077 103.081 57.9034 100.357C58.3794 99.5913 59.0834 98.955 59.8866 98.4977C59.9957 98.2591 60.1147 98.0304 60.2436 97.8117C60.313 97.6824 60.4023 97.5532 60.4816 97.4239C60.5907 97.2649 60.7096 97.1157 60.8386 96.9666C60.8881 96.8871 60.9576 96.8175 61.027 96.7379C61.1162 96.6385 61.2055 96.549 61.2947 96.4596C61.3443 96.4099 61.3939 96.3601 61.4434 96.3204C61.5922 96.1812 61.7409 96.0519 61.8996 95.9326C62.0285 95.8332 62.1673 95.7338 62.3061 95.6543C62.5045 95.5151 62.7127 95.3958 62.9309 95.2964C62.9408 95.2964 62.9408 95.2864 62.9507 95.2864C63.0994 95.2168 63.2581 95.1572 63.4167 95.0975C63.4762 95.0677 63.5357 95.0379 63.5952 95.018C63.6151 95.008 63.6349 94.9981 63.6547 94.9981C67.0361 93.8846 70.4175 92.781 73.8088 91.6675C76.6944 90.723 79.9568 89.1224 83.0605 89.361C83.6357 89.4008 84.191 89.5101 84.7165 89.6791C84.895 89.7487 85.0735 89.8283 85.2421 89.9177C85.3908 89.9873 85.5395 90.0669 85.6784 90.1464C85.8668 90.2558 86.0453 90.3651 86.2138 90.4844C86.3428 90.5839 86.4518 90.6733 86.5609 90.7628C86.6898 90.8722 86.8088 90.9815 86.9278 91.0909C87.0369 91.2003 87.146 91.3196 87.2451 91.4389C87.4633 91.6874 87.6418 91.9459 87.8004 92.2243C87.8599 92.3436 87.9293 92.4629 87.9888 92.5921C88.0582 92.7313 88.1177 92.8705 88.1673 93.0097C88.3061 93.3477 88.4053 93.7156 88.4846 94.0834V94.0934C88.8218 95.8034 88.5838 97.7818 88.0681 99.7702Z" fill="#F1C527"/>
<path d="M205.178 184.098C204.176 184.744 202.986 185.142 201.846 185.232C195.391 185.768 189.649 188.701 184.622 192.648C181.29 195.253 177.978 197.868 174.616 200.413C174.597 200.433 174.577 200.443 174.557 200.463C172.286 202.183 169.986 203.873 167.645 205.513C162.697 208.973 157.61 212.244 152.404 215.306C150.203 216.599 147.853 217.99 145.423 219.223H145.413C142.22 220.854 138.869 222.216 135.517 222.773C134.416 222.952 133.385 222.952 132.413 222.802H132.403C128.843 222.246 126.146 219.671 124.183 216.539C124.183 216.529 124.173 216.529 124.173 216.519C124.163 216.519 124.163 216.509 124.163 216.509C123.29 215.127 122.557 213.626 121.962 212.155C119.78 206.786 118.372 200.89 117.628 195.144C117.46 193.861 117.341 192.579 117.291 191.326V191.316C117.291 191.306 117.291 191.306 117.291 191.296C117.271 190.491 117.261 189.686 117.291 188.9C117.331 187.687 117.45 186.484 117.648 185.291C118.471 186.017 119.046 187.071 119.552 188.025C120.207 189.248 120.792 190.541 121.644 191.654C122.924 193.305 124.282 194.905 125.601 196.526C126.92 198.136 128.179 199.787 129.607 201.298C132.354 204.211 135.348 206.915 138.363 209.54C139.791 210.792 141.249 212.015 142.805 213.109C144.104 214.024 145.631 214.879 147.248 215.018C148.596 215.127 149.846 214.491 150.877 213.686C151.809 212.95 152.543 211.986 153.088 210.932C154.229 208.715 154.645 206.209 155.062 203.773C155.27 202.57 155.478 201.358 155.786 200.164C155.915 199.647 156.073 199.14 156.262 198.643C156.559 197.868 156.688 197.063 156.797 196.247C157.055 194.269 157.422 192.33 157.818 190.372C158.126 188.9 158.433 187.399 158.503 185.888V185.878C158.532 185.43 158.532 184.973 158.503 184.526C158.413 182.905 158.017 181.305 157.551 179.734V179.724C157.461 179.396 157.362 179.068 157.263 178.74C156.708 176.88 156.053 175.051 155.577 173.172C155.161 171.561 154.705 169.742 155.111 168.082C155.121 168.012 155.141 167.952 155.161 167.883C155.558 166.501 156.49 165.368 157.382 164.274C158.245 163.22 159.137 162.146 159.673 160.884C159.99 160.158 160.228 159.333 160.248 158.518V158.508C160.268 158.05 160.218 157.603 160.089 157.175C159.683 155.883 158.582 155.326 157.323 155.117C155.647 154.839 153.921 155.097 152.246 155.276C150.828 155.426 149.31 155.445 147.942 155.853C147.337 156.032 146.742 156.31 146.375 156.837C146.008 157.364 145.899 158.04 145.86 158.667C145.82 159.392 145.879 160.128 145.929 160.854C145.979 161.679 145.988 162.504 146.068 163.329C146.256 165.457 146.613 167.555 146.861 169.672C147.089 171.701 147.089 173.739 146.96 175.767C146.891 176.761 146.802 177.755 146.693 178.74C146.613 179.515 146.474 180.29 146.455 181.066C146.405 182.229 146.435 183.392 146.256 184.546C146.197 184.923 146.127 185.5 145.82 185.759C145.463 186.057 145.086 185.709 144.848 185.44C144.471 185.013 144.194 184.496 143.916 183.999C143.609 183.452 143.281 182.925 142.944 182.388C141.863 180.698 140.802 178.988 139.85 177.218C138.859 175.389 138.036 173.5 137.262 171.571C136.479 169.623 135.696 167.664 134.962 165.696C134.248 163.767 133.573 161.818 132.979 159.85C132.741 159.074 132.532 158.299 132.334 157.523C132.334 157.513 132.324 157.513 132.324 157.503C132.324 157.503 132.324 157.503 132.324 157.493C132.007 156.3 131.719 155.097 131.402 153.894C131.005 152.403 130.49 150.932 129.716 149.58C129.032 148.387 128.139 147.333 127.148 146.388C126.166 145.225 125.006 144.171 123.895 143.088C122.596 141.815 121.357 140.473 120.514 138.812C119.701 137.222 119.76 135.333 120.454 133.762C121.049 132.42 122.11 131.306 123.499 130.809C123.994 130.63 124.53 130.531 125.105 130.531C125.085 130.093 124.986 129.527 124.976 129.427C124.599 127.091 123.647 124.774 122.943 122.537C121.277 117.179 119.602 111.83 117.936 106.481C117.797 106.044 117.737 105.596 117.737 105.159C117.757 105.179 117.777 105.209 117.797 105.228C118.025 105.457 118.402 105.109 118.174 104.881C118.045 104.741 117.916 104.612 117.787 104.473C117.827 104.264 117.866 104.065 117.916 103.866C117.916 103.856 117.926 103.847 117.926 103.837C117.906 103.817 117.886 103.787 117.866 103.767V103.757C115.824 101.192 113.93 98.4679 112.224 95.5251C111.57 94.4017 110.955 93.2384 110.35 92.0653C109.884 90.8126 109.448 89.54 109.021 88.2675C108.476 86.6469 107.94 85.0363 107.405 83.4158C106.949 82.0239 106.473 80.642 105.848 79.3197C105.838 79.3097 105.828 79.2899 105.818 79.27C105.689 78.9717 105.55 78.6933 105.392 78.405C105.144 77.9576 104.886 77.5202 104.608 77.0927C104.599 77.0827 104.599 77.0728 104.589 77.0628C103.23 74.9551 101.495 73.0662 99.6702 71.3959C97.8952 69.7853 95.9021 68.2841 93.7305 67.2103C93.8197 67.1805 93.899 67.1606 93.9784 67.1407H93.9883C94.0279 67.1209 94.0676 67.1109 94.1073 67.101C94.2263 67.0711 94.3453 67.0413 94.4643 67.0214C100.523 65.6196 106.572 68.0852 110.955 72.3006C111.143 72.4796 111.332 72.6685 111.5 72.8574C111.51 72.8673 111.51 72.8673 111.52 72.8773C115.695 77.1822 118.035 82.9982 120.901 88.168C122.12 90.3652 123.4 92.4928 124.818 94.5309C124.818 94.5409 124.818 94.5408 124.827 94.5508C126.364 96.7877 128.06 98.9253 129.964 100.934C133.425 104.582 137.282 107.794 141.199 110.915C145.869 114.634 150.421 118.322 154.655 122.359C158.116 125.649 161.368 129.169 164.284 133.126C170.828 142.004 176.669 151.439 185.663 158.11C193.883 164.194 204.117 167.783 207.518 178.382C208.321 180.877 207.062 182.915 205.178 184.098Z" fill="#F1C527"/>
<path d="M205.347 184.347C205.318 184.327 205.298 184.297 205.268 184.277C205.258 184.267 205.248 184.257 205.238 184.247C205.229 184.198 205.209 184.148 205.189 184.098C204.693 182.319 203.642 180.618 202.7 179.077C201.411 176.99 199.913 175.011 198.287 173.172C195.055 169.503 191.316 166.342 187.518 163.28C183.433 159.989 179.238 156.817 175.47 153.159C171.821 149.609 168.598 145.623 165.733 141.417C162.559 136.754 159.783 131.853 157.115 126.892C157.086 126.773 157.046 126.643 156.987 126.504C156.322 125.043 155.549 123.671 154.666 122.358C151.394 117.407 146.773 113.46 142.063 109.842C135.895 105.119 129.787 100.586 124.829 94.5309C124.63 94.3121 124.442 94.0835 124.273 93.8647C121.893 90.8523 119.851 87.6013 118.066 84.2011C116.4 81.0197 114.903 77.7289 112.899 74.7364C112.463 74.0901 112.017 73.4638 111.511 72.8573C107.634 68.0156 102.349 65.0429 96.0916 63.9891C87.2663 62.5077 78.5103 64.9833 70.1114 67.4787C68.9413 65.5003 67.9993 63.4622 67.3745 61.3545C66.6011 58.7795 66.2838 56.0852 66.5614 53.2319C66.7895 50.8458 67.2357 48.4498 66.4325 46.1134C65.7185 44.0156 64.2609 42.7033 62.2182 41.898C60.0763 41.0629 57.8055 40.4862 56.1197 38.806C54.5034 37.1954 53.492 35.6843 51.0427 35.4258C50.646 35.386 50.2196 35.3462 49.7932 35.3462C48.1472 35.3065 46.392 35.6047 45.2517 36.7878C43.8237 38.2692 43.8535 40.6055 44.4782 42.4349C45.2814 44.7613 47.0366 46.6105 49.0595 47.9527C50.18 48.6983 51.3997 49.275 52.6193 49.8317C53.5118 50.2393 55.0686 50.6171 56.0107 51.2534C55.6537 53.1225 53.9184 55.1606 55.3264 56.9104C55.9611 57.6958 56.9428 57.8251 57.8848 57.7753C57.9443 57.7753 58.0137 57.7654 58.0831 57.7654C57.0816 59.1473 56.6651 60.9866 58.103 62.3288C58.9954 63.1639 60.3738 63.323 61.524 63.5715C62.6346 63.8201 63.7551 64.0388 64.8757 64.2376C65.5797 66.0371 66.492 67.767 67.5134 69.4373C67.5034 69.4771 67.5034 69.5069 67.5034 69.5466C67.3646 72.062 65.7185 74.0802 64.479 76.168C63.3982 77.9973 62.704 79.9658 62.0694 81.9741C60.2647 79.5284 58.3013 77.2119 56.1693 75.0446C56.1197 74.9452 56.0702 74.8358 55.9908 74.7264C55.9115 74.6171 55.8322 74.5077 55.7528 74.3884C56.0602 73.951 56.1693 73.3743 55.8619 72.748C55.0389 71.1274 55.9016 68.9899 55.7727 67.2501C55.614 65.0926 54.434 63.7902 52.8276 62.4878C51.1716 61.1457 49.9618 59.545 49.466 57.4274C48.9008 54.9717 49.7437 52.7348 50.3386 50.3686C50.8344 48.3503 47.7505 47.376 47.2448 49.4042C46.6399 51.84 45.8367 54.1565 46.0945 56.6917C46.3226 58.9584 47.1952 61.1159 48.6033 62.8955C50.0511 64.7248 52.6689 65.5897 52.5598 68.2144C52.5301 68.7314 52.4904 69.2384 52.4508 69.7355C47.6613 62.9849 42.8718 56.2343 38.0823 49.4738C35.0976 45.2683 32.1128 41.0629 29.128 36.8475C27.7497 34.8988 26.054 33.1391 24.993 30.9718C24.8542 30.6934 24.7451 30.415 24.5964 30.1466C24.2394 29.5004 23.8328 28.874 23.4858 28.2278C22.8115 27.0646 22.1471 25.8914 21.4728 24.7282C20.1341 22.3918 18.7954 20.0555 17.4568 17.7092C16.1478 15.4126 14.8389 13.106 13.5101 10.8094C12.5384 9.11929 11.4278 7.17066 9.25613 7.12095C6.84651 7.07124 4.16916 8.25434 2.90981 10.3819C1.54139 12.7083 2.30493 16.1582 5.08144 17.0232C5.74582 17.2319 6.47962 17.2717 7.05475 17.6694C7.6398 18.0671 7.9472 18.763 8.18519 19.4391C9.59328 23.3463 9.35529 27.4921 10.5155 31.4788C11.2195 33.8848 12.112 36.2112 13.1234 38.5078C13.2127 38.7066 13.3019 38.8955 13.3812 39.0944C13.649 39.6909 13.9068 40.2874 14.1646 40.8939C14.6803 42.0968 15.186 43.2998 15.7214 44.4929C15.9495 45.0098 16.1776 45.5268 16.4156 46.0438C18.9144 51.4522 22.5041 56.1548 25.4591 61.2948C31.1509 71.2269 35.048 82.0437 38.8359 92.8109L38.6475 92.8606C45.1228 107.744 52.4904 122.219 60.1457 136.536C64.5088 144.688 68.8025 152.92 74.0084 160.575C74.3555 161.102 74.8711 161.321 75.3768 161.321C76.3883 163.399 77.489 165.417 78.6888 167.376C78.6987 167.495 78.7285 167.614 78.7682 167.744C83.7064 182.816 89.8742 197.43 97.2221 211.478C100.772 218.259 104.272 225.149 108.378 231.621C112.285 237.765 117.243 242.965 121.824 248.582C124.372 251.694 126.455 255.004 128.379 258.524C130.273 261.974 132.236 265.424 135.171 268.118C135.508 268.426 135.885 268.555 136.252 268.565C136.827 269.44 137.65 270.275 138.295 271.041C140.258 273.407 142.4 275.714 144.165 278.249C145.999 280.883 146.813 283.826 147.457 286.938C147.755 288.399 148.022 289.881 148.379 291.332C148.707 292.645 149.014 294.295 149.827 295.409C151.662 297.894 154.091 295.786 155.073 293.778C157.393 288.996 158.93 283.438 156.411 278.408C154.944 275.465 152.762 272.92 151.225 269.997C149.867 267.402 148.786 264.688 147.943 261.894C148.052 261.536 148.032 261.129 147.794 260.701C147.665 260.472 147.536 260.234 147.408 259.995C147.388 259.916 147.368 259.836 147.348 259.757C147.249 259.379 147.061 259.091 146.813 258.892C141.121 248.453 135.439 238.004 129.747 227.555C129.43 226.968 129.102 226.371 128.785 225.785C132.95 226.749 137.511 224.95 141.507 223.806C147.001 222.236 152.485 220.386 157.532 217.682C162.877 214.829 167.389 210.802 171.99 206.905C176.571 203.018 181.172 199.15 185.604 195.074C190.493 190.57 195.888 187.26 202.531 186.504C202.749 186.792 203.057 187.031 203.374 187.101C204.118 187.29 204.723 187.19 205.278 186.633C205.853 186.077 206.032 184.923 205.347 184.347ZM61.6133 60.2807C60.7704 60.0819 60.4333 59.9725 61.0183 59.2865C61.4645 58.7596 61.9901 58.4713 62.3371 57.8449C62.8528 56.8905 62.8131 55.6179 62.0496 54.7928C61.2464 53.9179 60.0763 53.9676 59.0252 54.2261C58.8169 54.2758 58.5393 54.3454 58.3112 54.4249L58.5194 53.8582C58.9458 52.7447 59.6003 51.4224 59.2631 50.1896C58.9557 49.0662 57.8055 48.6387 56.8535 48.1913C55.4752 47.545 54.0572 46.9883 52.6987 46.3023C50.3981 45.149 47.344 43.1308 47.2944 40.1979C47.2746 38.6171 48.5339 38.6072 49.823 38.6171C51.5583 38.6271 52.2029 39.2634 53.2936 40.5061C55.0587 42.5144 57.4088 43.6279 59.8779 44.5127C60.9588 44.9005 62.2082 45.1789 62.9123 46.1731C63.7651 47.3661 63.7353 48.9866 63.6262 50.3785C63.3783 53.729 63.0313 56.8408 63.6758 60.1813C63.7155 60.3702 63.7551 60.5591 63.7948 60.748C63.0709 60.5989 62.3371 60.4497 61.6133 60.2807ZM15.2752 35.1872C13.5696 30.753 12.34 26.14 11.7451 21.4275C11.5071 19.5783 11.3187 17.6197 10.2279 16.029C9.70236 15.2535 8.93881 14.6271 8.04636 14.3189C7.18366 14.0207 5.97389 14.309 5.62683 13.3148C5.25993 12.3107 6.06314 11.4855 6.86634 11.0381C7.29274 10.7995 7.80838 10.6305 8.29427 10.5509C9.36521 10.372 9.44454 10.5509 9.97009 11.4358C10.9022 12.9867 21.0662 31.7274 21.691 31.7274C21.1356 31.9361 20.5605 32.0952 20.0746 32.3239C19.2119 32.7017 18.369 33.1192 17.5559 33.6064C16.7626 34.0935 16.009 34.6205 15.2752 35.1872ZM64.6377 138.037C60.701 130.73 56.8238 123.382 53.0953 115.966C49.3272 108.479 45.7673 100.894 42.3859 93.2284C38.4492 81.994 34.4827 70.6701 28.6025 60.2807C25.6871 55.1208 22.0479 50.4083 19.5094 45.0297C18.3393 42.5641 17.3179 40.0388 16.2172 37.5434C18.4583 37.096 20.6993 35.893 22.6032 34.9883C22.9007 34.8491 23.2081 34.6801 23.4957 34.4912C24.051 35.2766 24.6162 36.0521 25.1616 36.8176C28.2753 41.2021 31.379 45.5865 34.4927 49.9709C40.601 58.5906 46.7192 67.2202 52.8375 75.8399C52.8672 76.1481 53.0061 76.4663 53.2936 76.7447C55.9809 79.4091 58.4302 82.2923 60.582 85.4041C60.9191 85.9012 61.405 86.1199 61.8909 86.1398C62.704 86.7165 64.0328 86.6071 64.4096 85.3743C65.3616 82.3022 66.2441 79.429 67.9596 76.6949C69.1396 74.806 70.2502 72.8971 70.6171 70.7099C78.1831 69.3975 86.5027 67.9858 93.9002 70.5707C97.8765 71.9526 99.9391 75.7505 101.992 79.1705C104.223 82.8788 106.127 86.7562 108.001 90.6535C111.888 98.7164 115.964 106.73 119.285 115.041C120.902 119.068 122.508 123.283 123.341 127.558C123.539 128.572 123.698 129.745 123.51 130.809C123.43 131.296 123.272 131.764 123.014 132.181C122.439 133.116 121.497 133.583 120.465 133.762C119.553 133.911 118.591 133.841 117.748 133.672C110.133 132.191 105.314 125.281 100.207 120.082C98.888 118.73 96.3197 117.368 97.2221 115.18C97.4898 114.524 97.9559 113.957 98.412 113.411L99.83 111.691C100.574 110.806 103.608 111.999 104.461 112.327C106.137 112.963 107.693 113.878 109.121 114.952C109.776 115.429 110.401 115.946 111.134 116.294C112.007 116.721 113.286 116.95 114.05 116.194C114.496 115.757 114.645 115.061 114.417 114.484C114.109 113.719 113.415 113.689 112.761 113.411C111.581 112.924 110.767 112.128 109.776 111.383C108.794 110.637 107.664 110.11 106.513 109.702C104.917 109.126 103.271 108.748 101.684 108.161C96.6767 106.312 92.6408 102.554 88.0794 99.7802V99.7703C87.4943 99.4124 86.8994 99.0743 86.2945 98.7562C86.2945 98.7562 87.891 96.0719 88.0397 95.6941C88.248 95.1771 88.4066 94.6402 88.4959 94.0934V94.0835C88.6049 93.477 88.6149 92.8507 88.5355 92.2343C88.248 90.1464 86.82 88.506 84.7773 88.0189C82.7941 87.5516 80.7316 88.168 78.8872 88.8739C76.19 89.9178 73.5225 91.0313 70.8353 92.115C68.4554 93.0793 66.0458 94.0039 63.6659 94.9981C63.6461 94.9981 63.6262 95.0081 63.6064 95.018C63.5469 95.0379 63.4874 95.0677 63.4279 95.0975C63.2693 95.1572 63.1106 95.2168 62.9619 95.2864C62.9519 95.2864 62.9519 95.2964 62.942 95.2964C62.7933 95.356 62.6445 95.4256 62.4958 95.4853C60.3242 96.4198 58.1724 97.7123 56.9428 99.81C54.2753 104.383 57.6964 108.271 61.6728 110.368C67.2258 113.291 72.9771 116.334 79.0061 118.113C79.7796 118.342 80.8704 117.924 81.0389 117.049C81.0489 116.98 81.0687 116.92 81.0786 116.851C81.5744 114.266 82.2487 111.721 83.0817 109.225C83.4287 109.692 83.7857 110.15 84.1526 110.607C85.2136 111.939 86.3342 113.232 87.5043 114.474C88.9024 115.966 90.3502 117.706 92.1648 118.69C93.1366 119.217 94.2175 119.505 95.1992 120.012C96.1809 120.529 97.0436 121.334 97.8567 122.09C99.711 123.82 101.258 125.828 103.013 127.648C105.909 130.65 109.012 133.563 112.81 135.382C113.613 135.76 114.446 136.098 115.299 136.377C116.261 136.685 117.292 136.904 118.343 136.993C118.363 137.122 118.403 137.242 118.462 137.371C118.641 137.769 118.819 138.166 118.998 138.554L119.117 138.812C119.107 138.832 119.097 138.852 119.097 138.872C118.353 139.27 117.292 139.886 117.104 139.986C115.17 141.01 113.237 142.014 111.293 142.988C107.485 144.907 103.648 146.746 99.7705 148.506C92.0558 152.015 84.1923 155.207 76.2197 158.09C71.936 151.657 68.2967 144.837 64.6377 138.037ZM72.9077 103.071C74.2365 104.483 75.833 104.602 77.5782 104.055C79.0855 103.588 80.0573 104.831 80.8605 106.044C80.7613 106.173 80.682 106.322 80.6126 106.491C79.6507 109.106 78.8772 111.76 78.2823 114.474C73.7109 112.924 69.4371 110.637 65.1236 108.489C63.1998 107.535 60.2746 106.421 59.402 104.254C58.4798 101.918 60.7506 99.989 62.5652 99.0346C64.9352 97.7819 67.5332 96.9169 70.0122 95.9227C72.6697 94.849 75.3273 93.7852 77.9848 92.7115C79.6904 92.0255 82.0702 90.6933 83.994 91.1605C86.8498 91.8465 84.6583 95.4157 83.6171 96.9368L81.2869 95.4157C79.5317 94.2724 77.8658 92.8208 75.7041 93.8548C72.3822 95.4455 70.0221 99.9989 72.9077 103.071ZM80.4638 101.162C79.6606 100.725 78.7285 100.516 77.8162 100.645C76.9337 100.764 76.0115 101.55 75.2678 100.844C74.5141 100.128 74.8414 99.0545 75.3471 98.3088C75.6148 97.9211 75.9916 97.5433 76.3784 97.255C77.2312 96.6286 77.3799 96.7479 78.2228 97.2848C80.563 98.8059 82.8933 100.337 85.2335 101.858L97.3311 109.752C96.9444 110.18 96.5081 110.577 96.1809 110.985C95.5958 111.701 95.0504 112.436 94.5546 113.222C94.0787 113.987 93.6523 114.783 93.2655 115.598C89.8346 112.496 86.7407 109.026 84.1526 105.189C83.1313 103.687 82.1099 102.067 80.4638 101.162ZM100.802 155.734C100.405 156.221 99.2648 156.579 98.6897 156.837C98.0054 157.136 97.3014 157.394 96.5874 157.633C95.9231 157.851 95.2587 158.05 94.5844 158.249C93.9993 158.418 93.5828 158.716 93.216 158.448C92.5218 157.921 92.1351 156.539 91.8971 155.445C94.5943 154.332 97.2816 153.169 99.949 151.976C100.038 152.304 100.217 152.622 100.544 152.88C101.288 153.477 101.337 155.068 100.802 155.734ZM78.6393 160.625C82.0801 159.363 85.5012 158.05 88.8925 156.678C89.4181 158.587 90.3403 160.854 91.9566 161.629C93.0672 162.156 94.2076 161.739 95.3182 161.411C96.6073 161.033 97.8864 160.635 99.1359 160.138C100.455 159.621 101.962 159.054 103.013 158.07C103.023 158.07 103.023 158.07 103.023 158.07L103.033 158.06C103.618 157.513 104.044 156.847 104.223 156.012C104.649 154.034 104.173 152.075 102.835 150.663C103.082 150.554 103.33 150.435 103.578 150.325C103.687 150.276 103.796 150.216 103.906 150.166H103.915C108.13 148.208 112.304 146.15 116.44 144.002C117.54 143.426 118.641 142.839 119.742 142.252C119.821 142.213 119.91 142.173 119.999 142.123C121.08 144.927 122.439 147.581 124.125 150.077C121.308 152.811 119.732 156.887 117.867 160.227C115.716 164.095 113.356 168.072 109.687 170.676C109.677 170.676 109.677 170.676 109.667 170.686C109.369 170.507 109.012 170.418 108.606 170.458C102.21 171.164 95.7743 171.472 89.3388 171.372C88.0001 171.353 85.8582 171.73 84.8567 170.696C83.8353 169.633 83.0519 168.201 82.2487 166.968C80.9299 164.92 79.73 162.802 78.6393 160.625ZM151.652 167.396C151.929 168.638 152.197 169.881 152.475 171.124C152.792 172.565 153.109 173.997 153.417 175.439C152.485 175.22 151.543 175.021 150.591 174.852C150.085 174.763 149.569 174.673 149.054 174.594C148.062 174.435 147.913 174.653 147.765 173.659C147.358 171.015 147.447 168.171 147.398 165.497C147.378 164.145 147.378 162.783 147.398 161.421C147.398 160.685 147.417 159.959 147.437 159.223C147.427 159.094 147.437 157.841 147.308 157.841C147.745 157.434 150.829 157.354 151.344 157.295C152.723 157.136 154.111 157.006 155.499 156.917C156.025 156.877 156.56 156.827 157.086 156.807C156.273 157.483 155.231 158.428 155.083 158.537C153.456 159.79 151.007 161.073 150.918 163.399C150.868 164.721 151.374 166.133 151.652 167.396ZM150.323 199.528C148.181 192.449 147.447 185.102 148.141 177.735C148.409 177.765 148.677 177.795 148.925 177.835C150.333 178.063 151.721 178.352 153.109 178.68C156.015 184.585 155.965 191.276 154.944 197.639C154.448 200.681 153.784 203.753 152.852 206.686C151.989 209.381 150.482 212.363 147.487 213.079C144.591 213.765 141.775 210.763 139.723 209.082C137.412 207.213 135.201 205.215 133.089 203.127C128.765 198.862 124.809 194.189 121.358 189.179C118.264 184.685 115.557 179.923 113.256 174.971L112.632 172.456C115.497 170.06 117.669 167.038 119.573 163.787C120.773 161.729 121.893 159.621 123.044 157.533C123.877 156.012 124.68 154.193 125.88 152.831C129.816 158.249 131.264 164.811 134.338 170.746C137.71 177.258 142.043 183.323 144.453 190.302C144.601 190.739 144.879 191.038 145.196 191.227C145.623 194.279 146.277 197.301 147.17 200.264C147.774 202.252 150.928 201.536 150.323 199.528ZM150.016 274.411C151.255 276.419 152.861 278.279 153.803 280.456C154.746 282.613 154.646 285.069 154.091 287.316C153.823 288.38 153.466 289.424 153.05 290.438C152.822 290.984 152.584 291.531 152.326 292.068C152.266 292.177 152.187 292.297 152.118 292.426C151.612 290.467 150.65 286.401 150.541 285.914C150.055 283.548 149.45 281.182 148.379 279.004C147.298 276.827 145.722 274.928 144.175 273.069C143.203 271.886 142.212 270.703 141.23 269.52C140.774 268.973 140.318 268.426 139.861 267.869C139.683 267.661 139.485 267.332 139.266 267.163C138.81 266.815 138.8 267.034 138.929 266.666C139.118 266.179 140.149 265.533 140.536 265.175C141.071 264.668 141.607 264.171 142.142 263.674C142.916 262.958 143.689 262.232 144.462 261.506C145.712 266.04 147.556 270.405 150.016 274.411ZM134.616 243.273L142.916 258.514C140.724 260.532 138.394 262.481 136.361 264.638C136.341 264.658 136.331 264.668 136.321 264.688C132.137 260.164 129.945 253.99 126.296 249.059C122.012 243.283 116.767 238.292 112.721 232.347C108.487 226.123 105.056 219.342 101.536 212.701C97.8964 205.861 94.4753 198.922 91.3716 191.823C88.8429 186.037 86.5226 180.171 84.4005 174.226C85.3128 174.534 86.3242 174.554 87.3258 174.584C94.6042 174.773 101.883 174.435 109.121 173.649C109.459 174.435 109.816 175.23 110.173 176.015C112.929 187.19 115.626 198.395 118.502 209.54C120.069 215.634 122.518 221.053 125.513 226.56C128.547 232.128 131.581 237.695 134.616 243.273ZM188.292 188.602C183.631 191.952 179.575 196.227 175.193 199.936C175.004 200.095 174.816 200.254 174.627 200.413C174.608 200.433 174.588 200.443 174.568 200.463C170.244 204.171 166 208.048 161.419 211.429C156.739 214.888 151.354 217.255 145.861 219.084C145.722 219.134 145.573 219.173 145.434 219.223H145.424C142.578 220.158 139.703 220.973 136.807 221.748C135.449 222.116 133.932 222.603 132.424 222.802H132.414C131.066 222.981 129.717 222.922 128.507 222.335C127.952 222.057 127.397 222.126 126.961 222.365C125.969 220.456 125.027 218.517 124.194 216.539C124.194 216.529 124.184 216.529 124.184 216.519C124.174 216.519 124.174 216.509 124.174 216.509C123.42 214.719 122.756 212.89 122.231 210.981C120.525 204.887 119.137 198.693 117.61 192.549C117.51 192.141 117.401 191.734 117.302 191.326V191.316C117.302 191.306 117.302 191.306 117.302 191.296C116.975 189.994 116.658 188.691 116.33 187.389C116.648 187.896 116.975 188.403 117.302 188.9C121.477 195.303 126.385 201.228 131.919 206.497C134.398 208.864 137.015 211.101 139.723 213.198C142.182 215.107 144.71 216.956 147.983 216.3C154.964 214.898 156.53 206.358 157.681 200.522C158.633 195.7 159.128 190.72 158.514 185.888V185.878C158.286 184.019 157.889 182.179 157.284 180.38C157.423 180.191 157.522 179.982 157.562 179.734V179.724C157.591 179.525 157.591 179.316 157.542 179.097C156.947 176.403 156.352 173.709 155.767 171.015C155.549 170.03 155.34 169.056 155.122 168.082C155.043 167.714 154.954 167.336 154.874 166.968C154.656 165.964 153.813 164.075 154.369 163.21C154.944 162.325 156.481 161.54 157.304 160.904C158.246 160.168 159.317 159.492 160.16 158.637C160.199 158.597 160.229 158.557 160.259 158.517V158.508C161.479 157.175 161.776 155.068 159.991 154.014C158.226 152.97 155.4 153.666 153.486 153.835C152.227 153.954 150.958 154.083 149.698 154.242C148.488 154.401 147.07 154.411 145.95 154.928C143.798 155.923 144.195 158.677 144.165 160.655C144.125 163.479 144.155 166.312 144.274 169.135C144.343 170.696 144.433 172.267 144.552 173.828C144.611 174.713 144.611 175.677 145.077 176.423C145.028 176.562 144.988 176.701 144.978 176.86C144.77 178.809 144.661 180.758 144.641 182.716C142.321 178.133 139.554 173.778 137.184 169.195C135.409 165.785 134.209 162.216 132.811 158.647C132.662 158.269 132.514 157.891 132.345 157.523C132.345 157.513 132.335 157.513 132.335 157.503C132.335 157.503 132.335 157.503 132.335 157.493C131.175 154.839 129.678 152.363 127.873 150.097C127.843 149.888 127.754 149.659 127.585 149.43C126.157 147.432 124.918 145.314 123.906 143.087C123.42 142.044 122.984 140.97 122.607 139.876C122.826 138.882 122.28 137.739 121.764 136.745C123.5 136.307 125.027 135.303 125.969 133.523C127.803 130.034 126.326 125.709 125.255 122.229C123.311 115.916 120.713 109.851 117.927 103.866C117.917 103.837 117.897 103.807 117.877 103.767V103.757C116.34 100.466 114.744 97.2052 113.177 93.9343C111.055 89.53 109.012 85.0661 106.652 80.7811C106.394 80.3039 106.127 79.8167 105.859 79.3196C105.849 79.3097 105.839 79.2898 105.829 79.2699C105.443 78.5541 105.036 77.8283 104.619 77.0926C104.61 77.0827 104.61 77.0727 104.6 77.0628C102.944 74.1498 101.02 71.2567 98.4715 69.3379C97.1527 68.3437 95.6355 67.6378 93.9993 67.1407H93.9894C93.6919 67.0512 93.3944 66.9617 93.087 66.8822C93.206 66.8822 93.3151 66.8921 93.4341 66.9021C93.7812 66.9319 94.1282 66.9717 94.4753 67.0214C101.04 67.8665 106.682 71.0578 110.341 76.7347C112.195 79.6079 113.633 82.7198 115.22 85.7421C116.906 88.9733 118.849 92.0454 121.051 94.9584C125.552 100.924 131.125 105.646 137.065 110.11C143.481 114.942 150.154 119.923 153.784 127.28C153.803 127.479 153.863 127.687 153.972 127.886C158.702 136.725 163.839 145.493 170.671 152.88C177.612 160.377 186.457 165.715 193.637 172.953C195.57 174.892 197.395 176.96 198.952 179.227C199.804 180.489 200.796 181.911 201.48 183.402C196.73 184.068 192.228 185.778 188.292 188.602Z" fill="black"/>
<path d="M21.6908 31.7274C21.1355 31.9361 20.5604 32.0952 20.0745 32.3239C19.2118 32.7017 18.3689 33.1192 17.5557 33.6064C16.7625 34.0935 16.0088 34.6205 15.275 35.1872C13.5694 30.753 12.3398 26.14 11.7449 21.4275C11.5069 19.5783 11.3185 17.6197 10.2277 16.029C9.70213 15.2535 8.93859 14.6271 8.04613 14.3189C7.18342 14.0207 5.97365 14.309 5.62658 13.3148C5.25968 12.3107 6.06289 11.4855 6.8661 11.0381C7.2925 10.7995 7.80814 10.6305 8.29403 10.5509C9.36498 10.372 9.44431 10.5509 9.96987 11.4358C10.902 12.9867 21.0661 31.7274 21.6908 31.7274Z" fill="white"/>
<path d="M132.415 222.802C131.066 222.981 129.718 222.922 128.508 222.335C127.953 222.057 127.397 222.126 126.961 222.365C125.969 220.456 125.027 218.517 124.194 216.539C126.158 219.671 128.855 222.245 132.415 222.802Z" fill="white"/>
<path d="M174.568 200.463C170.245 204.171 166.001 208.049 161.419 211.429C156.739 214.889 151.355 217.255 145.861 219.084C145.722 219.134 145.573 219.174 145.435 219.223C147.864 217.99 150.214 216.599 152.416 215.306C157.622 212.244 162.709 208.973 167.657 205.513C169.997 203.873 172.297 202.183 174.568 200.463Z" fill="white"/>
<path d="M97.3313 109.752C96.9446 110.18 96.5082 110.577 96.181 110.985C95.596 111.701 95.0506 112.436 94.5548 113.222C94.0788 113.987 93.6524 114.783 93.2656 115.598C89.8346 112.496 86.7408 109.026 84.1526 105.189C83.1313 103.687 82.1099 102.067 80.4638 101.162C79.6606 100.725 78.7285 100.516 77.8162 100.645C76.9336 100.765 76.0114 101.55 75.2677 100.844C74.5141 100.128 74.8413 99.0545 75.347 98.3088C75.6148 97.9211 75.9916 97.5433 76.3783 97.255C77.2311 96.6286 77.3799 96.7479 78.2227 97.2848C80.563 98.8059 82.8933 100.337 85.2335 101.858L97.3313 109.752Z" fill="white"/>
<path d="M142.915 258.514C140.724 260.532 138.394 262.481 136.361 264.638C136.341 264.658 136.331 264.668 136.321 264.688C132.137 260.164 129.945 253.99 126.296 249.059C122.012 243.283 116.767 238.292 112.721 232.347C108.487 226.123 105.056 219.343 101.535 212.701C97.8962 205.861 94.4752 198.922 91.3714 191.823C88.8428 186.037 86.5224 180.171 84.4004 174.226C85.3127 174.534 86.3241 174.554 87.3256 174.584C94.6041 174.773 101.883 174.435 109.121 173.649C109.458 174.435 109.815 175.23 110.172 176.015C112.929 187.19 115.626 198.395 118.502 209.54C120.069 215.634 122.518 221.053 125.513 226.56C128.547 232.128 131.581 237.695 134.616 243.273L142.915 258.514Z" fill="white"/>
<path d="M154.944 197.639C154.448 200.681 153.784 203.754 152.852 206.686C151.989 209.381 150.482 212.363 147.487 213.079C144.592 213.765 141.775 210.763 139.723 209.082C137.412 207.213 135.201 205.215 133.089 203.127C128.765 198.862 124.809 194.189 121.358 189.179C118.264 184.685 115.557 179.923 113.257 174.971L112.632 172.456C115.498 170.06 117.669 167.038 119.573 163.787C120.773 161.729 121.893 159.621 123.044 157.533C123.877 156.012 124.68 154.193 125.88 152.831C129.816 158.249 131.264 164.811 134.338 170.746C137.71 177.258 142.043 183.323 144.453 190.302C144.601 190.739 144.879 191.038 145.196 191.227C145.623 194.279 146.277 197.301 147.17 200.264C147.775 202.252 150.928 201.536 150.323 199.528C148.181 192.449 147.447 185.102 148.141 177.735C148.409 177.765 148.677 177.795 148.925 177.835C150.333 178.063 151.721 178.352 153.109 178.68C156.015 184.585 155.965 191.276 154.944 197.639Z" fill="white"/>
<path d="M124.123 150.077C121.307 152.811 119.73 156.887 117.866 160.228C115.714 164.095 113.354 168.072 109.685 170.677C109.675 170.677 109.675 170.677 109.665 170.686C109.368 170.508 109.011 170.418 108.604 170.458C102.208 171.164 95.7727 171.472 89.3372 171.372C87.9985 171.353 85.8566 171.73 84.8551 170.696C83.8337 169.633 83.0504 168.201 82.2472 166.968C80.9283 164.92 79.7285 162.802 78.6377 160.625C82.0786 159.363 85.4996 158.05 88.891 156.678C89.4165 158.587 90.3387 160.854 91.955 161.629C93.0656 162.156 94.206 161.739 95.3166 161.411C96.6057 161.033 97.8849 160.635 99.1343 160.138C100.453 159.621 101.96 159.054 103.012 158.07C103.021 158.07 103.021 158.07 103.021 158.07L103.031 158.06C103.805 157.623 104.558 157.116 105.282 156.549C106.879 155.296 106.71 152.562 105.411 151.16C104.965 150.673 104.459 150.345 103.914 150.166C108.128 148.208 112.303 146.15 116.438 144.002C117.539 143.426 118.639 142.839 119.74 142.252C119.819 142.213 119.909 142.173 119.998 142.123C121.079 144.927 122.437 147.581 124.123 150.077Z" fill="white"/>
<path d="M123.508 130.809C122.12 131.306 121.059 132.42 120.464 133.762C119.552 133.911 118.59 133.841 117.747 133.672C110.131 132.191 105.312 125.281 100.205 120.082C98.8865 118.73 96.3182 117.368 97.2206 115.18C97.4883 114.524 97.9544 113.957 98.4105 113.411L99.8285 111.691C100.572 110.806 103.607 111.999 104.459 112.327C106.135 112.963 107.692 113.878 109.12 114.952C109.774 115.429 110.399 115.946 111.133 116.294C112.005 116.721 113.285 116.95 114.048 116.194C114.494 115.757 114.643 115.061 114.415 114.484C114.108 113.719 113.414 113.689 112.759 113.411C111.579 112.924 110.766 112.128 109.774 111.382C108.793 110.637 107.662 110.11 106.512 109.702C104.915 109.126 103.269 108.748 101.683 108.161C96.6752 106.312 92.6393 102.554 88.0779 99.7802V99.7703C88.5935 97.7819 88.8315 95.8034 88.4944 94.0934V94.0834C88.6035 93.477 88.6134 92.8506 88.534 92.2342C88.2465 90.1464 86.8186 88.506 84.7758 88.0188C82.7926 87.5516 80.7301 88.168 78.8857 88.8738C76.1885 89.9178 73.521 91.0313 70.8338 92.1149C68.4539 93.0793 66.0443 94.0039 63.6644 94.9981C63.6446 94.9981 63.6248 95.008 63.6049 95.018C63.5454 95.0379 63.4859 95.0677 63.4264 95.0975C63.2678 95.1472 63.1091 95.2069 62.9604 95.2864C62.9505 95.2864 62.9505 95.2964 62.9406 95.2964C62.7918 95.356 62.6431 95.4256 62.4943 95.4853C60.3227 96.4198 58.1709 97.7123 56.9413 99.81C54.2739 104.383 57.6949 108.271 61.6713 110.368C67.2243 113.291 72.9757 116.334 79.0047 118.113C79.7781 118.342 80.8689 117.924 81.0375 117.049C81.0474 116.98 81.0672 116.92 81.0771 116.851C82.7728 115.707 83.3876 113.132 84.1511 110.607C85.2122 111.939 86.3327 113.232 87.5028 114.474C88.9009 115.966 90.3487 117.706 92.1633 118.69C93.1351 119.217 94.216 119.505 95.1977 120.012C96.1794 120.529 97.0421 121.334 97.8552 122.09C99.7095 123.82 101.256 125.828 103.012 127.648C105.907 130.65 109.011 133.563 112.809 135.382C113.612 135.76 114.445 136.098 115.298 136.377C116.26 136.685 117.291 136.904 118.342 136.993C118.362 137.122 118.401 137.242 118.461 137.371C118.639 137.768 118.818 138.166 118.996 138.554L119.115 138.812C119.105 138.832 119.096 138.852 119.096 138.872C118.352 139.27 117.291 139.886 117.102 139.986C115.169 141.01 113.235 142.014 111.292 142.988C107.484 144.907 103.646 146.746 99.769 148.506C92.0543 152.015 84.1908 155.207 76.2182 158.09C71.9345 151.657 68.2953 144.837 64.6362 138.037C60.6995 130.73 56.8223 123.382 53.0939 115.966C49.3257 108.479 45.7658 100.894 42.3844 93.2284C38.4478 81.994 34.4813 70.6701 28.601 60.2807C25.6857 55.1208 22.0465 50.4083 19.508 45.0297C18.3379 42.5641 17.3165 40.0388 16.2158 37.5434C18.4569 37.096 20.6979 35.893 22.6018 34.9883C22.8993 34.8491 23.2067 34.6801 23.4942 34.4912C24.0496 35.2766 24.6148 36.0521 25.1602 36.8176C28.2738 41.202 31.3776 45.5865 34.4912 49.9709C40.5995 58.5906 46.7178 67.2202 52.836 75.8399C52.8658 76.1481 53.0046 76.4663 53.2922 76.7446C55.9794 79.4091 58.4287 82.2923 60.5805 85.4041C60.9177 85.9012 61.4036 86.1199 61.8894 86.1398C62.7026 86.7164 64.0313 86.6071 64.4081 85.3743C65.3601 82.3022 66.2426 79.429 67.9581 76.6949C69.1381 74.8059 70.2487 72.8971 70.6156 70.7099C78.1816 69.3975 86.5012 67.9857 93.8987 70.5707C97.875 71.9526 99.9376 75.7504 101.99 79.1705C104.221 82.8788 106.125 86.7562 107.999 90.6535C111.886 98.7164 115.962 106.73 119.284 115.041C120.9 119.068 122.507 123.283 123.34 127.558C123.538 128.572 123.697 129.745 123.508 130.809Z" fill="white"/>
<path d="M176.812 93.9772C176.206 94.2027 175.565 94.4283 174.959 94.6539C173.543 95.2017 172.162 95.7495 170.78 96.3617C168.084 97.554 165.523 98.9719 163.198 100.744C162.49 101.292 162.524 102.42 163.097 103.032C163.131 103.097 163.198 103.129 163.265 103.161C163.4 103.387 163.569 103.612 163.805 103.773C167.478 106.544 171.117 109.316 174.79 112.087C175.363 112.538 176.307 112.345 176.846 111.926C178.093 110.862 178.126 109.09 178.396 107.608L179.205 102.968C179.508 101.324 179.778 99.6808 180.081 98.0374C180.317 96.6195 181.26 94.235 179.306 93.5583C178.396 93.2683 177.621 93.6549 176.812 93.9772ZM175.869 102.678C175.666 103.902 175.431 105.127 175.228 106.351C175.127 106.931 175.026 107.511 174.925 108.091C172.297 106.093 169.634 104.095 167.006 102.098C168.59 101.066 170.241 100.132 171.96 99.3586C173.105 98.843 174.285 98.3596 175.464 97.9085C175.902 97.7474 176.34 97.554 176.812 97.3607C176.711 97.844 176.644 98.3274 176.543 98.8108L175.869 102.678Z" fill="#1E1E1E"/>
<path d="M238.957 249.547C238.575 249.052 238.193 248.523 237.778 248.027C236.887 246.87 235.963 245.713 235.008 244.622C233.128 242.44 231.058 240.49 228.733 238.837C228.033 238.341 226.982 238.705 226.567 239.432C226.536 239.498 226.504 239.598 226.504 239.664C226.313 239.862 226.153 240.093 226.058 240.358C224.465 244.622 222.841 248.886 221.249 253.184C220.994 253.845 221.408 254.704 221.981 255.035C223.351 255.894 225.007 255.365 226.504 255.167L231.09 254.539C232.714 254.308 234.371 254.076 235.995 253.878C237.428 253.68 239.912 253.845 240.008 251.795C240.072 250.837 239.466 250.242 238.957 249.547ZM230.485 251.299C229.243 251.465 228.033 251.63 226.79 251.795C226.217 251.861 225.644 251.961 225.071 252.027C226.217 248.952 227.364 245.878 228.542 242.804C229.944 243.961 231.281 245.25 232.491 246.639C233.32 247.564 234.084 248.523 234.848 249.481C235.135 249.845 235.422 250.209 235.74 250.572C235.262 250.638 234.785 250.704 234.307 250.771L230.485 251.299Z" fill="#F1C527"/>
<path fill-rule="evenodd" clip-rule="evenodd" d="M134.067 47.2721C134.836 47.5551 135.745 47.9886 136.492 48.7806C137.36 49.7015 137.816 50.8911 138.112 51.8278C138.799 53.8999 139.362 56.7991 138.194 59.3959L138.192 59.4013C137.253 61.4728 135.449 62.7251 133.69 63.2582C131.907 63.7986 130.091 63.6807 128.446 63.344L128.438 63.3422L128.429 63.3403C127.629 63.1647 126.592 62.8899 125.677 62.1658C124.821 61.5019 124.229 60.5774 123.84 59.6448C122.201 55.861 123.123 51.9961 125.27 49.5326C127.388 47.1016 130.71 45.9774 134.067 47.2721ZM127.31 52.1681C126.002 53.6698 125.535 55.8042 126.475 57.9647L126.482 57.9803L126.488 57.996C126.691 58.485 126.958 58.8662 127.278 59.1133L127.287 59.1201L127.296 59.127C127.672 59.4263 128.192 59.6077 128.948 59.7742C130.374 60.0651 131.737 60.1178 132.971 59.7437C134.231 59.362 135.177 58.5561 135.586 57.654C136.086 56.5396 135.953 54.9864 135.35 53.1713L135.344 53.1549L135.339 53.1385C135.095 52.3615 134.851 51.8436 134.538 51.5114C134.263 51.2201 133.829 50.9675 133.198 50.7356L133.187 50.7317L133.177 50.7276C130.849 49.8265 128.648 50.6331 127.31 52.1681Z" fill="#1E1E1E"/>
<path fill-rule="evenodd" clip-rule="evenodd" d="M219.345 280.909C220.114 281.192 221.023 281.625 221.77 282.417C222.638 283.338 223.095 284.528 223.39 285.464C224.077 287.537 224.64 290.436 223.473 293.033L223.47 293.038C222.531 295.11 220.727 296.362 218.968 296.895C217.185 297.435 215.37 297.317 213.725 296.981L213.716 296.979L213.708 296.977C212.907 296.801 211.87 296.527 210.956 295.803C210.099 295.139 209.508 294.214 209.118 293.282C207.479 289.498 208.402 285.633 210.548 283.169C212.666 280.738 215.988 279.614 219.345 280.909ZM212.588 285.805C211.28 287.306 210.813 289.441 211.753 291.601L211.76 291.617L211.767 291.633C211.97 292.122 212.236 292.503 212.556 292.75L212.565 292.757L212.574 292.764C212.95 293.063 213.47 293.244 214.227 293.411C215.652 293.702 217.015 293.755 218.25 293.38C219.509 292.999 220.455 292.193 220.865 291.291C221.364 290.176 221.232 288.623 220.628 286.808L220.622 286.792L220.617 286.775C220.373 285.998 220.129 285.48 219.816 285.148C219.541 284.857 219.108 284.604 218.476 284.372L218.466 284.368L218.455 284.364C216.127 283.463 213.926 284.27 212.588 285.805Z" fill="#1E1E1E"/>
<path d="M182.846 312.598C165.87 310.54 148.755 310.331 131.679 310.59C114.564 310.858 97.4486 311.594 80.3235 311.405C70.7544 311.306 61.1854 310.898 51.656 309.983C50.9718 309.914 50.3867 310.62 50.3867 311.256C50.3867 312.002 50.9718 312.459 51.656 312.528C68.682 314.179 85.817 314.139 102.902 313.781C120.008 313.423 137.123 312.757 154.228 313.175C163.787 313.403 173.337 313.99 182.836 315.143C183.521 315.223 184.106 314.497 184.106 313.871C184.116 313.115 183.53 312.688 182.846 312.598Z" fill="black"/>
<path d="M96.1806 317.46H72.3423C70.7062 317.46 70.7062 320.005 72.3423 320.005H96.1806C97.8168 320.005 97.8168 317.46 96.1806 317.46Z" fill="black"/>
<path d="M139.434 99.7902C135.487 96.6982 131.907 93.1589 128.784 89.2318C128.357 88.6949 127.435 88.7844 126.989 89.2318C126.463 89.7587 126.562 90.4944 126.989 91.0313C130.112 94.9584 133.682 98.4977 137.639 101.59C138.174 102.007 138.908 102.117 139.434 101.59C139.87 101.152 139.979 100.218 139.434 99.7902Z" fill="#F1C527"/>
<path d="M63.8334 151.717C61.3841 147.015 58.9447 142.302 56.4954 137.6C55.7418 136.148 53.5503 137.431 54.3039 138.882C56.7532 143.585 59.1926 148.297 61.6419 153C62.3956 154.451 64.5871 153.169 63.8334 151.717Z" fill="#F1C527"/>
<path d="M21.0769 13.8119C20.3133 11.8235 19.4209 9.88482 18.3797 8.03561C17.398 6.30571 16.3171 4.50621 14.8 3.18393C11.9441 0.718319 8.1165 0.121801 4.46736 0.00249717C2.83119 -0.0571547 2.83119 2.48799 4.46736 2.54764C7.45211 2.64706 10.8434 3.02486 13.1539 5.13256C14.4628 6.32559 15.3751 7.89642 16.2378 9.42749C17.1501 11.058 17.9533 12.7481 18.6276 14.4979C18.8755 15.1342 19.4804 15.5816 20.1844 15.3827C20.7992 15.2137 21.3248 14.4581 21.0769 13.8119Z" fill="white"/>
<path d="M202.362 191.505C202.163 190.789 201.479 190.501 200.805 190.62C197.8 191.127 194.885 192.211 192.267 193.772C190.968 194.557 189.719 195.462 188.588 196.476C187.418 197.52 186.535 198.733 186.377 200.333C186.307 201.019 187.011 201.606 187.646 201.606C188.39 201.606 188.846 201.019 188.915 200.333C189.024 199.309 190.135 198.474 190.859 197.868C191.86 197.033 192.961 196.297 194.102 195.651C196.392 194.358 198.891 193.513 201.479 193.076C202.153 192.956 202.53 192.121 202.362 191.505Z" fill="black"/>
<path d="M111.422 241.274C110.797 240.747 110.193 240.201 109.627 239.614C109.34 239.316 109.052 238.998 108.784 238.68C108.656 238.53 108.527 238.381 108.398 238.222C108.328 238.133 108.259 238.053 108.189 237.964C108.17 237.944 108.16 237.924 108.14 237.894C108.14 237.884 108.13 237.874 108.11 237.854C107.109 236.532 106.266 235.1 105.591 233.589C105.314 232.983 104.392 232.784 103.856 233.132C103.231 233.54 103.102 234.226 103.4 234.872C104.818 238.023 106.98 240.857 109.637 243.074C110.143 243.501 110.936 243.611 111.432 243.074C111.849 242.607 111.968 241.732 111.422 241.274Z" fill="black"/>
<path d="M155.131 306.106C153.376 305.987 151.611 306.027 149.866 306.245C149.519 306.285 149.231 306.355 148.963 306.613C148.745 306.832 148.576 307.2 148.596 307.518C148.626 308.134 149.162 308.88 149.866 308.79C151.611 308.582 153.376 308.532 155.131 308.651C155.795 308.701 156.43 308.035 156.4 307.379C156.371 306.653 155.845 306.156 155.131 306.106Z" fill="black"/>
</svg>
