<svg width="152" height="13" viewBox="0 0 152 13" fill="none" xmlns="http://www.w3.org/2000/svg">
<path d="M0.591186 3.68272C2.33351 5.50194 4.19301 7.17228 5.93533 8.9915C7.67389 10.6661 8.90604 11.4905 10.9209 9.82693C12.5804 8.4654 14.5916 6.6572 15.8732 4.73028C15.9941 4.72597 15.9979 4.87055 16.1188 4.86624C16.3758 5.43594 16.9919 5.84814 17.366 6.26896C18.2391 7.25086 18.9912 8.23707 19.8604 9.07439C21.2324 10.6174 22.7177 11.8669 24.6267 10.7859C26.5394 9.8495 27.6888 7.49315 29.2198 5.84676C29.337 5.69788 29.4542 5.54899 29.5714 5.4001C29.2161 5.70219 29.3445 5.98704 29.8284 5.9698C30.2025 6.39062 30.8111 6.51366 31.3024 6.78559C32.1642 7.33375 33.0259 7.88191 33.8877 8.43007C35.8569 9.66236 37.7126 11.1881 39.5684 12.7139C40.1882 13.2707 41.2693 12.9427 41.7381 12.3472C42.5509 11.0158 43.3675 9.829 44.1803 8.49763C44.6453 7.75749 45.1104 7.01736 45.5754 6.27723C45.6926 6.12834 45.8097 5.97946 45.9232 5.68599C46.0404 5.5371 46.0404 5.5371 46.0404 5.5371C47.144 6.07665 48.1418 7.19882 49.132 8.03183C50.2432 8.86054 51.3582 9.83382 52.5903 10.6582C54.6918 12.3199 56.7706 13.1142 59.0161 11.0082C60.6681 9.35752 62.1991 7.71114 63.8511 6.06045C65.2118 7.1697 66.5687 8.13437 68.0502 9.23931C69.4071 10.204 70.7753 11.6024 72.4574 11.1083C74.0185 10.6186 75.4249 8.83194 76.7253 7.62791C77.436 7.02374 78.1467 6.41957 78.7364 5.81971C79.4471 5.21555 79.9309 5.19831 80.7889 5.6019C83.6085 6.94861 85.8573 9.61808 89.0134 9.93981C92.2906 10.2572 94.521 7.57294 97.0084 5.45835C97.8363 4.7053 97.7191 4.85419 98.5846 5.54693C99.3254 6.0994 99.9453 6.65618 100.686 7.20865C102.168 8.31359 103.649 9.41853 105.354 9.79195C107.055 10.0208 108.484 9.10163 110.034 8.17814C110.869 7.71425 111.704 7.25035 112.54 6.78645C113.375 6.32256 114.679 5.26311 115.764 5.07976C117.216 5.02806 119.072 6.55382 120.307 7.52279C121.668 8.63204 122.802 10.3282 124.507 10.7017C126.09 11.0794 127.644 10.3005 128.823 9.10077C130.124 7.89674 131.284 5.97412 132.993 6.49213C134.698 6.86555 136.069 8.40854 137.547 9.3689C139.15 10.4695 140.866 11.2767 142.809 11.4969C146.331 11.9503 149.919 10.2307 151.756 6.40269C152.902 3.90176 149.701 1.84507 148.555 4.34601C146.948 7.73165 143.44 7.85659 140.738 6.36099C138.035 4.86539 135.783 2.05134 132.634 2.01877C131.179 1.92589 129.867 2.69618 128.68 3.60673C127.735 4.50868 126.102 6.88227 124.87 6.05787C123.642 5.37805 122.512 3.82645 121.276 2.85747C119.919 1.8928 118.32 0.936747 116.861 0.699285C115.281 0.46613 113.969 1.23642 112.537 2.01101C110.745 2.94311 108.964 4.30895 107.169 5.09647C105.611 5.7308 104.119 4.19212 102.886 3.36772C101.65 2.39874 100.275 0.711175 98.6948 0.478021C95.894 -0.145793 93.7012 3.98429 91.4331 5.22279C88.8059 6.61878 86.1906 3.81766 83.9757 2.4494C82.6188 1.48473 81.0238 0.673261 79.4589 1.01843C77.773 1.3679 76.3629 3.00997 75.0625 4.214C74.3518 4.81817 73.2971 6.15816 72.4579 6.47747C72.337 6.48178 72.1063 6.92414 72.1063 6.92414C71.8644 6.93275 70.9951 6.09543 70.7495 5.95947C69.0184 4.57398 67.1664 3.19281 65.4354 1.80732C65.4354 1.80732 65.3145 1.81163 65.3107 1.66705C64.6909 1.11027 63.7194 1.00016 63.0163 1.89348C61.954 2.94432 61.0127 3.99084 59.9504 5.04167C59.4817 5.63722 58.8882 6.0925 58.4194 6.68805C58.064 6.99014 57.3646 8.02804 56.8846 8.18986C55.9207 8.3689 54.1746 6.4051 53.4338 5.85263C52.3226 5.02392 51.3324 4.19091 50.2212 3.3622C48.4902 1.97672 46.3774 -0.118742 44.4948 1.9743C43.5535 3.02083 42.8654 4.49247 42.1697 5.67496C41.7047 6.41509 41.1225 7.30411 40.6575 8.04424C37.5659 5.54951 34.3608 3.34824 30.9288 1.73391C28.8462 0.79509 27.6743 2.28397 26.2642 3.92604C25.561 4.81937 24.8654 6.00186 24.0337 6.61033C23.323 7.2145 23.7993 6.90811 23.1833 6.49591C22.8129 6.21967 22.3102 5.51401 21.9361 5.09319C21.063 4.11129 20.3109 3.12508 19.4417 2.28776C18.8181 1.5864 18.066 0.600191 17.208 0.196609C15.2501 -0.601941 14.0894 1.32068 12.7928 2.66928C11.9687 3.56692 11.1445 4.46455 10.1995 5.3665C10.1995 5.3665 9.48878 5.97066 9.13344 6.27275C9.00871 6.13248 8.88399 5.9922 8.75928 5.85193C7.01695 4.03271 5.15744 2.36237 3.41513 0.543151C1.30994 -1.26315 -1.15114 1.8635 0.591186 3.68272Z" fill="white"/>
</svg>
