<svg width="225" height="164" viewBox="0 0 225 164" fill="none" xmlns="http://www.w3.org/2000/svg">
<path d="M213.09 71.9142C212.517 65.2046 210.814 58.6779 207.387 52.8472C204.032 47.14 199.315 42.2673 194.212 38.1009C170.38 18.6558 137.462 11.8283 107.763 19.4309C104.935 20.156 106.368 24.4568 109.189 23.7356C133.764 17.4429 160.556 21.7005 182.119 35.0246C192.501 41.437 202.906 50.3167 206.705 62.32C210.292 73.6448 209.359 87.0465 206.272 98.3897C203.468 108.686 197.902 118.401 189.118 124.608C188.869 124.715 188.645 124.873 188.451 125.085C188.439 125.092 188.433 125.096 188.421 125.104L188.425 125.11C188.189 125.374 188.009 125.712 187.917 126.146C186.585 132.725 187.381 139.451 190.143 145.455C185.518 144.476 180.977 141.742 177.509 138.927C175.259 137.1 173.528 134.982 171.599 132.853C169.766 130.832 168.166 131.405 165.724 132.062C165.703 132.068 165.686 132.075 165.664 132.081C162.004 132.263 158.323 132.107 154.72 131.705C142.932 130.377 131.377 126.684 120.608 121.786C109.374 116.671 98.8506 109.91 90.1188 101.132C80.2993 91.2635 71.1934 77.9044 74.2098 63.3215C77.2043 48.8421 88.9087 38.7933 101.39 32.1286C103.969 30.7533 101.475 26.9594 98.9187 28.329C87.0359 34.6724 76.1088 43.8968 71.3671 56.8728C68.9976 63.3663 68.3907 70.2692 69.9481 77.0226C71.429 83.4558 74.7915 89.3964 78.6634 94.6826C94.2476 115.956 119.916 129.479 145.393 134.783C152.947 136.357 160.9 137.135 168.662 136.409C168.714 136.482 168.765 136.554 168.819 136.617C169.728 137.722 170.682 138.789 171.7 139.798C173.696 141.776 175.92 143.509 178.281 145.035C182.676 147.876 187.997 150.235 193.313 150.356C195.086 151.205 197.57 149.13 196.219 147.072C192.473 141.359 191.062 134.596 192.214 127.891C198.678 123.155 203.76 116.696 207.163 109.236C212.403 97.7257 214.159 84.4727 213.09 71.9142Z" fill="white"/>
<path d="M194.808 87.555C193.687 86.4007 192.286 85.867 190.678 85.8201C188.793 85.7711 186.456 87.074 184.653 86.2956C183.185 85.6652 182.418 84.8124 180.685 85.0636C178.751 85.3442 178.319 86.1903 176.701 84.807C174.299 82.7478 172.269 81.5348 169.074 82.656C168.334 82.9165 168.042 83.2255 167.536 82.8916C167.183 82.6623 166.94 81.4725 166.681 81.0881C165.945 79.9945 164.728 79.2681 163.4 79.265C162.144 79.2616 161.123 79.9212 160.119 80.5997C158.593 81.6262 158.633 80.2696 157.602 79.0363C155.602 76.6346 152.884 76.5278 150.031 77.1804C148.662 77.4931 146.963 78.2873 145.554 77.8908C143.653 77.3544 143.425 74.9777 142.18 73.7559C139.562 71.1822 135.156 74.8852 132.786 76.1294C130.201 77.4878 132.689 81.2807 135.257 79.929C136.255 79.4036 137.251 78.8831 138.248 78.3577L139.361 77.7743C139.387 77.8211 139.41 77.8569 139.445 77.9107C140.038 79.2211 141.111 80.4529 142.287 81.2737C144.732 82.9865 147.482 82.477 150.19 81.8039C151.463 81.4862 152.831 80.9363 153.965 81.7586C154.992 82.5066 155.427 84.0257 156.474 84.845C159.002 86.8227 160.708 85.0669 163.026 84.0949C163.15 84.0439 163.227 83.9983 163.275 83.9672C163.224 84.0595 163.188 84.2529 163.343 84.5946C163.578 85.1132 163.807 85.6357 164.154 86.0903C164.979 87.1819 166.271 87.8162 167.642 87.7665C168.888 87.7213 169.922 86.8741 171.098 86.7471C172.526 86.5962 173.543 88.1663 174.609 88.9691C175.577 89.6996 176.627 90.2156 177.847 90.2936C179.433 90.3926 180.67 89.439 182.119 90.0187C183.537 90.5922 184.577 91.1575 186.179 91.059C187.834 90.9561 190.426 89.5375 191.758 90.9116C193.796 93.0122 196.833 89.6426 194.808 87.555Z" fill="white"/>
<path d="M156.865 96.8424C153.743 99.5399 151.16 93.8364 148.196 93.8938C146.655 93.9228 145.886 94.9292 144.628 95.5386C143.09 96.2842 142.174 95.0394 140.942 94.0727C138.487 92.1413 135.909 90.8846 132.879 92.3032C131.552 92.9237 130.123 94.6144 128.747 93.571C127.402 92.5496 126.693 90.72 125.332 89.6283C124.363 88.8513 123.01 88.8429 122.127 89.7788C121.344 90.6071 119.991 90.7687 119.037 90.0927C118.011 89.3655 117.93 87.8752 116.975 87.0084C114.593 84.8555 112.196 86.8357 109.89 87.8208C106.441 89.2949 106.158 84.9903 103.597 84.0461C100.773 83.005 97.174 84.772 94.8479 86.2935C92.4024 87.8927 94.8728 91.6973 97.3193 90.0931C98.4196 89.3732 101.048 87.8334 101.982 88.5101C102.419 88.8294 102.771 89.8415 103.192 90.2861C103.688 90.8136 104.257 91.2895 104.896 91.6515C107.604 93.1677 110.398 92.7703 112.985 91.2785C114.036 90.6717 113.598 90.383 114.162 91.0279C114.493 91.4072 114.688 92.0667 115.008 92.4795C115.824 93.5384 116.981 94.278 118.252 94.6758C120.091 95.2561 121.992 95.0868 123.607 94.2491C125.803 96.6461 127.45 99.5962 131.432 98.2348C132.937 97.7191 134.522 95.8552 136.147 96.3026C137.876 96.7768 139.23 98.7016 140.778 99.5859C142.24 100.421 143.936 100.754 145.556 100.181C146.27 99.9248 147.179 98.8657 147.841 98.805C148.556 98.7399 148.828 99.3746 149.501 99.9189C152.725 102.523 157.106 102.586 160.226 99.893C162.428 97.9846 159.047 94.9555 156.865 96.8424Z" fill="white"/>
<path d="M224.659 60.9457C223.069 49.5288 216.944 37.4706 206.766 31.4311C204.249 29.9398 202.178 33.9776 204.682 35.4608C213.404 40.6358 218.776 51.4629 220.135 61.2187C220.528 64.0835 225.06 63.8432 224.659 60.9457Z" fill="white"/>
<path d="M199.823 139.439C199.16 137.341 199.1 135.263 199.595 133.122C200.254 130.279 195.817 129.339 195.158 132.182C194.488 135.079 194.619 138.033 195.518 140.866C196.396 143.653 200.705 142.232 199.823 139.439Z" fill="#1E1E1E"/>
<path d="M66.6002 94.214C63.0395 87.3609 60.5407 80.0423 59.0539 72.4694C58.4941 69.6156 54.1902 71.0633 54.7492 73.8963C56.3204 81.8735 59.0532 89.4734 62.8006 96.6854C64.1471 99.2783 67.9361 96.7841 66.6002 94.214Z" fill="#1E1E1E"/>
<path d="M177.885 65.8853C165.203 62.6996 152.34 60.3154 139.357 58.7453C136.484 58.3995 135.515 62.8303 138.417 63.1823C151.402 64.7476 164.264 67.1318 176.945 70.3224C179.777 71.0354 180.712 66.5973 177.885 65.8853Z" fill="#1E1E1E"/>
<path d="M123.013 56.7259C119.903 50.9315 112.359 46.006 105.703 48.2485C102.94 49.1828 104.356 53.4904 107.13 52.5532C112.395 50.7734 118.564 56.2061 119.936 61.0399C121.748 67.4196 116.856 71.3751 111.13 72.4805C105.609 73.5468 99.6348 71.8642 97.1531 66.4346C94.7553 61.1929 97.1961 55.3841 102.059 52.6589C104.609 51.2259 102.125 47.4341 99.5877 48.8593C94.3208 51.8132 90.9932 57.8205 91.7785 63.8901C92.5468 69.7964 96.7021 74.7665 102.378 76.5455C108.28 78.3983 116.123 77.1231 120.814 72.9706C125.417 68.8923 125.807 61.9227 123.013 56.7259Z" fill="#1E1E1E"/>
<path d="M186.011 16.6221C186.058 16.0669 186.09 15.4865 186.16 14.9164C186.27 13.6209 186.404 12.3105 186.593 11.0354C186.947 8.50006 187.553 6.0511 188.491 3.7089C188.775 3.00476 189.73 2.78942 190.385 3.14805C190.44 3.18336 190.511 3.24377 190.543 3.29397C190.779 3.35522 191.008 3.45647 191.206 3.6126C194.427 6.10602 197.671 8.58455 200.908 11.1031C201.413 11.486 201.516 12.3322 201.248 12.8513C200.641 14.1443 199.157 14.517 197.95 15.0664L194.242 16.7339C192.924 17.3177 191.583 17.9164 190.281 18.5253C189.122 19.0449 187.354 20.332 186.304 18.8204C185.799 18.1223 185.964 17.3875 186.011 16.6221ZM193.144 13.9911C194.146 13.5358 195.124 13.0954 196.126 12.6401C196.584 12.4222 197.057 12.2295 197.515 12.0116C195.194 10.2133 192.873 8.41507 190.528 6.63168C190.04 8.16548 189.662 9.7699 189.426 11.39C189.253 12.4801 189.143 13.5654 189.033 14.6508C188.993 15.0609 188.954 15.4711 188.891 15.8961C189.278 15.7229 189.664 15.5497 190.051 15.3765L193.144 13.9911Z" fill="#1E1E1E"/>
<path fill-rule="evenodd" clip-rule="evenodd" d="M74.7202 149.08C71.9507 149.435 69.0315 150.996 67.7743 153.566C66.4218 156.316 66.9101 159.649 68.7136 162.014C69.0928 162.52 69.6179 163.076 70.3263 163.463L70.3393 163.47L70.3524 163.477C71.4547 164.051 72.7 164.013 73.4618 163.988L73.4661 163.987C74.6011 163.947 75.9749 163.839 77.2574 163.289L77.2601 163.288C78.8217 162.614 79.965 161.409 80.8213 160.316C81.5735 159.365 82.331 158.23 82.7286 156.885C83.1268 155.538 83.152 153.909 82.3712 152.483C80.763 149.531 77.5147 148.72 74.7202 149.08ZM75.1026 152.055C77.1876 151.787 78.9362 152.447 79.7373 153.919L79.7394 153.923L79.7394 153.923C80.0374 154.467 80.0901 155.228 79.8517 156.034C79.6128 156.842 79.1253 157.624 78.4659 158.458L78.4621 158.463L78.4621 158.463C77.713 159.419 76.9468 160.156 76.0735 160.533C75.3355 160.849 74.44 160.951 73.3617 160.989C72.5305 161.016 72.061 160.979 71.7513 160.823C71.5524 160.711 71.3359 160.511 71.1113 160.211L71.1067 160.205L71.1021 160.199C69.9194 158.651 69.6619 156.524 70.4668 154.889L70.4687 154.885C71.1503 153.491 72.9927 152.326 75.1026 152.055Z" fill="#1E1E1E"/>
<path fill-rule="evenodd" clip-rule="evenodd" d="M7.72019 113.08C4.95072 113.435 2.0315 114.996 0.774295 117.566C-0.578156 120.316 -0.0898533 123.649 1.71364 126.014C2.09284 126.52 2.61795 127.076 3.32631 127.463L3.33931 127.47L3.35244 127.477C4.45473 128.051 5.70001 128.013 6.4618 127.988L6.46608 127.987C7.60113 127.947 8.97493 127.839 10.2574 127.289L10.2601 127.288C11.8217 126.614 12.965 125.409 13.8213 124.316C14.5735 123.365 15.331 122.23 15.7286 120.885C16.1268 119.538 16.152 117.909 15.3712 116.483C13.763 113.531 10.5147 112.72 7.72019 113.08ZM8.10259 116.055C10.1876 115.787 11.9362 116.447 12.7373 117.919L12.7394 117.923L12.7394 117.923C13.0374 118.467 13.0901 119.228 12.8517 120.034C12.6128 120.842 12.1253 121.624 11.4659 122.458L11.4621 122.463L11.4621 122.463C10.713 123.419 9.94679 124.156 9.07347 124.533C8.33547 124.849 7.44003 124.951 6.36173 124.989C5.53051 125.016 5.06104 124.979 4.7513 124.823C4.55241 124.711 4.33592 124.511 4.11129 124.211L4.10672 124.205L4.1021 124.199C2.91942 122.651 2.6619 120.524 3.46679 118.889L3.46875 118.885C4.15028 117.491 5.99269 116.326 8.10259 116.055Z" fill="white"/>
</svg>
