<svg width="230" height="219" viewBox="0 0 230 219" fill="none" xmlns="http://www.w3.org/2000/svg">
<path d="M35.1878 16.7398C36.0607 15.2085 37.4886 14.0256 39.4237 13.2223C41.0096 12.5618 42.6929 12.2462 44.3178 11.9389C53.8227 9.02949 63.8933 10.1166 72.6665 12.4758C98.3895 19.9429 125.045 22.9716 151.274 29.0156C153.42 29.5594 155.557 30.122 157.698 30.6905C168.398 33.5371 179.093 36.5062 189.665 39.568L191.709 40.1573C195.019 41.1159 198.442 42.1032 201.792 43.1422C204.978 44.1311 208.343 45.2968 211.373 47.0976C214.759 49.1174 217.225 51.6184 218.698 54.5337C220.199 57.5115 220.863 61.0909 220.661 65.1837C220.499 68.5791 219.875 71.9393 219.27 75.1851L213.008 109.282C212.671 111.158 212.321 113.093 211.334 114.847C209.321 118.42 205.251 119.877 201.533 120.83C198.011 121.733 194.203 122.189 189.892 122.215C181.24 122.27 172.645 121.02 164.646 119.657C157.283 118.403 149.857 116.837 142.677 115.328L113.078 109.126C108.417 108.151 103.748 107.185 99.0786 106.224C96.9412 105.785 94.7744 105.412 92.6564 104.905C90.4151 104.372 88.1597 103.857 85.8632 103.611C85.2639 103.547 84.6605 103.502 84.0635 103.403C83.1922 103.261 82.3447 103.005 81.499 102.766C78.4849 101.916 75.4393 101.363 72.3817 100.72C71.3959 100.56 69.4839 99.9053 68.5464 100.47C67.8732 100.88 67.2969 102.201 66.8066 102.818C66.3232 103.427 65.8124 104.02 65.2722 104.581C63.8872 106.026 62.3225 107.345 60.662 108.458C53.5974 113.183 44.5903 114.215 36.5973 111.402C34.6412 110.712 33.98 107.782 36.3476 107.029C42.2408 105.157 48.963 102.698 52.0532 96.8899C52.2153 96.5842 52.3626 96.2753 52.5011 95.9594C48.3478 94.6743 44.0415 93.9699 39.8892 92.6799C35.0293 91.1794 30.1903 88.8696 27.8392 84.1064C26.4989 81.394 25.7592 78.1025 25.5787 74.0376C25.1922 65.3669 26.8456 56.9139 28.4458 48.738L33.5059 22.8541C33.5798 22.4783 33.6448 22.0955 33.7109 21.7077C34.0102 20.0146 34.3138 18.2761 35.1878 16.7398ZM37.7752 24.6167C37.6583 25.2461 37.5404 25.8805 37.4186 26.5089L34.9932 38.9038L34.9746 38.9926C34.6084 40.857 34.2323 42.7193 33.8503 44.5856C32.6001 50.7288 31.3103 57.0851 30.5686 63.3816C30.048 67.7935 29.9217 71.6033 30.1866 75.0217C30.4735 78.7279 31.2784 81.4152 32.7239 83.4802C34.5845 86.1423 37.6784 87.2252 41.2341 88.2662C45.7981 89.6067 50.3877 90.9474 54.9939 92.1114C55.7866 92.3089 56.5968 92.644 57.0875 93.2982C58.0386 94.5795 57.3113 96.1775 56.7503 97.4499C56.1164 98.8976 55.2946 100.259 54.3128 101.5C52.3903 103.933 49.9006 105.856 47.2161 107.382C46.7897 107.622 45.8623 108.359 45.3741 108.355C51.4952 108.436 57.4783 106.162 61.918 101.528C63.6076 99.7617 64.733 97.2742 67.0571 96.2127C68.4182 95.5925 69.8759 95.8114 71.3483 95.9356C75.2579 96.2734 79.1623 97.4443 83.0079 98.2578C87.0202 99.1116 91.0387 99.9357 95.0652 100.746C97.8272 101.301 100.582 101.865 103.344 102.445C104.626 102.715 105.908 102.984 107.191 103.254C111.116 104.079 115.046 104.91 118.976 105.736C130.218 108.11 141.845 110.564 153.292 112.893C160.65 114.389 169.355 116.044 178.138 116.989C185.118 117.735 193.183 118.37 200.547 116.406C203.777 115.545 207.013 114.433 207.956 111.222C208.357 109.849 208.606 108.372 208.85 106.941C208.942 106.409 209.027 105.881 209.127 105.356L215.029 73.2122C216.16 67.0955 217.443 60.1609 213.695 55.0114C210.276 50.3069 203.954 48.463 198.375 46.8318C197.933 46.703 197.497 46.5751 197.065 46.4484C182.837 42.2369 168.373 38.1871 153.99 34.3912C151.936 33.8512 149.881 33.3112 147.828 32.7919C121.05 27.2812 94.3153 22.1762 67.7882 16.0849C60.3908 14.5298 53.0718 15.0511 45.7323 16.2581L45.2065 16.3587C43.7311 16.6407 42.2061 16.9381 40.8888 17.5212C39.651 18.0694 38.9712 18.9513 38.6135 20.457C38.2908 21.8208 38.0278 23.2434 37.7752 24.6167Z" fill="white"/>
<path d="M99.4192 76.6294C98.9966 76.3861 98.418 76.2232 98.1436 75.7896C97.9353 75.4575 97.9118 75.0303 97.9535 74.6116L98.1733 73.5661C98.3265 73.0576 98.5805 72.56 98.9567 72.1911C99.4952 72.0056 100.025 71.7874 100.565 71.6178C101.717 71.2575 102.924 70.9807 104.132 71.209C105.436 71.452 106.155 72.144 107.143 72.9335C108.77 74.2333 109.882 73.6226 111.59 72.6272C112.803 71.9245 114.549 72.3429 114.982 73.809C115.459 75.4335 117.732 76.3078 119.032 74.9952C120.189 73.8274 122.351 74.1016 122.864 75.8007C123.252 77.0923 124.228 78.1574 125.657 78.293C127.1 78.4317 128.488 77.364 129.926 77.2388C131.253 77.1213 132.435 77.5035 133.522 78.2367C134.749 79.0611 135.585 80.5242 136.95 81.0841C140.023 82.3378 143.122 78.7202 146.205 80.7588C147.344 81.5132 147.58 83.0356 148.635 83.7002C149.989 84.5615 152.393 83.4395 153.654 82.8292C155.283 82.0387 156.833 82.7971 157.156 84.5902C157.54 86.7101 159.708 87.099 161.414 86.6028C163.149 86.092 164.873 85.7748 166.397 87.0272C166.98 87.5103 167.386 88.1517 167.76 88.7968C168.294 89.7124 168.116 89.85 169.076 89.7635C170.878 89.5964 171.975 88.5654 173.833 89.5996C174.515 89.9799 175.038 90.5326 175.457 91.1821C175.729 91.6048 176.042 92.9066 176.45 93.1468C177.096 93.5297 179.333 91.9505 180.078 91.6899C181.402 91.2216 182.856 91.1152 184.134 91.7959C184.939 92.2278 185.286 93.0268 185.969 93.5257C187.271 94.4844 188.542 93.6083 189.775 92.8119C190.568 92.2988 191.849 92.3054 192.536 93.0317C194.161 94.7328 195.064 96.6323 195.206 98.9949C195.386 101.911 190.858 102.19 190.678 99.2737C190.64 98.6942 190.542 98.1793 190.349 97.701C188.844 98.4404 187.195 98.9124 185.547 98.5454C184.49 98.3077 183.584 97.695 182.881 96.8984C181.99 95.8924 182.069 95.7133 180.801 96.286C179.169 97.0191 177.575 98.0334 175.699 97.7007C174.805 97.5437 173.973 97.0908 173.336 96.447C172.728 95.8352 172.36 94.1563 171.725 93.7706C171.282 93.5023 169.738 94.357 169.105 94.4555C168.129 94.611 167.193 94.5119 166.313 94.0437C165.451 93.5845 164.883 92.8575 164.379 92.046C164.21 91.7736 163.934 90.907 163.685 90.7672C163.293 90.5509 162.153 91.1456 161.79 91.2339C158.411 92.0686 155.317 90.3986 153.695 87.6785C151.073 88.6412 148.13 89.0937 145.812 87.3344C145.088 86.7857 144.773 85.9781 144.15 85.3888C143.222 84.5139 143.431 84.7433 141.994 85.1621C139.953 85.7579 137.815 86.153 135.736 85.51C133.817 84.9159 133.011 83.4591 131.477 82.3796C129.812 81.2108 127.885 82.8089 125.959 82.8315C123.481 82.8616 121.221 81.5833 119.797 79.6618C117.029 80.6299 113.779 79.8232 111.914 77.5514C110.494 78.18 108.975 78.5713 107.433 78.2883C106.333 78.0828 105.39 77.5241 104.567 76.7846C103.821 76.1181 103.856 75.7082 102.707 75.7138C102.155 75.7163 101.478 76.1198 100.967 76.2957C100.49 76.458 99.9684 76.5646 99.4192 76.6294Z" fill="white"/>
<path d="M42.2458 58.3694C44.3166 58.8562 46.3905 59.4261 48.481 59.8192C50.6405 60.2268 51.7199 59.3053 53.687 59.1833C55.1427 59.0928 56.2402 59.7509 57.2286 60.659C57.9573 61.3323 57.9847 61.5698 59.0057 61.6609C60.0317 61.7529 61.3697 61.0712 62.2528 60.7162C63.648 60.1546 65.6969 61.4556 65.6727 62.8203C65.634 64.5476 67.3394 65.9154 68.933 64.4584C70.9655 62.6044 74.2125 64.7957 73.1745 67.1369C72.8047 67.9654 75.7191 67.3783 75.517 67.4336C76.4048 67.2031 77.2378 66.6212 77.9942 66.1829C79.3828 65.3831 81.2488 66.0844 81.8501 67.4621C81.9023 67.5812 81.9615 67.6915 82.0267 67.7979C82.2303 68.299 82.5925 68.7562 83.1026 69.1467C83.9326 69.7794 85.1175 70.1933 85.6086 71.1153C86.0444 71.933 85.5832 72.902 84.794 73.3489C84.1928 73.686 83.4157 73.708 82.6936 73.5665C82.0649 73.3726 81.4596 73.1166 80.8805 72.8095C80.4659 72.5524 80.0713 72.2738 79.6508 72.0206C79.3133 71.7642 78.9948 71.4913 78.6962 71.1968C76.426 72.1975 73.8707 72.7418 71.4008 71.5325C70.3129 71 69.4829 70.2694 68.9288 69.4268C65.8882 69.8793 62.6515 68.5449 61.2635 65.9616C60.1986 66.2012 59.0935 66.3139 57.9751 66.1715C56.9969 66.0482 56.1089 65.7895 55.2717 65.2891C54.7962 65.0037 54.3031 64.2873 53.841 63.84C53.9311 64.2194 52.3083 64.4189 51.9351 64.4795C50.8918 64.6413 49.8642 64.6055 48.8011 64.4696C46.2839 64.1464 43.7809 63.3885 41.3128 62.8079C38.0991 62.0499 39.0174 57.6083 42.2458 58.3694Z" fill="white"/>
<path d="M86.4895 82.031C87.9509 81.7666 89.1767 82.4517 90.1238 83.5314C90.4006 83.8316 90.6345 84.164 90.8327 84.5198C90.8804 84.4886 90.9222 84.4613 90.9808 84.4273C91.4918 84.2257 91.9511 83.7558 92.4711 83.5356C93.7474 83.0006 95.042 83.0152 96.3219 83.516C97.4316 83.945 98.711 85.4035 99.8658 85.569C100.97 85.729 102.228 84.2786 103.464 84.0802C104.866 83.8548 106.111 84.4718 106.962 85.5674C107.188 85.8878 107.386 86.2229 107.564 86.5745C107.661 86.2858 107.847 86.1859 108.122 86.2745C108.839 86.415 109.473 86.3886 110.178 86.6812C111.61 87.2704 112.49 88.47 113.786 89.2161C115.316 90.0939 116.611 88.8316 118.285 88.9518C119.806 89.0656 120.723 89.9225 121.68 91.03C121.924 91.3131 121.896 91.5184 121.852 91.6069C121.899 91.555 121.994 91.4719 122.181 91.3413C122.921 90.8326 123.593 90.4281 124.488 90.2609C126.079 89.9671 127.575 90.5185 128.869 91.4444C129.666 92.0136 131.842 94.8142 132.787 94.4874C133.181 94.349 133.597 93.4013 133.863 93.1123C134.351 92.5814 134.948 92.0941 135.637 91.8527C136.993 91.3807 138.291 91.8906 139.413 92.6567C141.371 93.9954 143.268 95.4342 145.19 96.8219C147.551 98.5283 144.492 101.881 142.146 100.183C141.091 99.4207 140.036 98.6582 138.986 97.8967C138.732 97.7094 136.883 96.2137 137.23 96.1578C136.926 96.2072 136.416 97.2588 136.153 97.5329C135.617 98.095 134.921 98.5922 134.18 98.8331C130.837 99.9171 128.807 97.029 126.495 95.3123C124.875 94.1064 124.492 95.6584 122.827 96.0552C121.581 96.3494 120.342 96.0476 119.367 95.2197C118.952 94.8697 118.537 93.9534 118.072 93.7373C117.466 93.4606 117.28 93.7355 116.476 93.9579C115.131 94.3292 113.845 94.3008 112.557 93.7159C111.264 93.13 110.396 92.0619 109.225 91.3161C107.866 90.4538 106.347 91.2108 104.964 90.2712C104.482 89.9432 104.058 89.5605 103.771 89.0369C103.732 88.9772 103.701 88.9294 103.665 88.8807C103.533 88.9713 103.401 89.0619 103.263 89.1515C102.418 90.0604 100.558 90.3337 99.3922 90.1246C98.008 89.8748 96.9299 89.0508 95.7688 88.3278C94.4249 87.4943 94.2222 87.7968 92.9826 88.5249C91.7957 89.2229 90.523 89.4961 89.2106 88.9781C88.5538 88.7216 86.6873 86.5527 86.7675 86.5386C83.8951 87.0729 83.6489 82.5359 86.4895 82.031Z" fill="white"/>
<path d="M41.7627 73.6175C41.4167 73.2307 42.2387 73.3623 42.738 73.3385C43.5182 73.3017 44.1959 73.4338 44.9134 73.7443C46.9939 74.6503 47.7311 75.0627 50.0765 74.7576C51.4372 74.5801 52.6577 74.8006 53.7049 75.7469C54.813 76.7471 54.8857 77.8953 56.5512 77.8849C57.8707 77.8791 59.0967 77.5343 60.4073 77.9385C61.9257 78.4071 62.4662 79.5352 64.158 79.2523C65.6737 78.9993 66.8534 78.4336 68.4626 78.6174C69.3729 78.7212 70.2442 78.9611 71.0736 79.3517C71.4684 79.5068 71.835 79.7229 72.1654 79.988C72.1989 80.0002 72.2215 80.0153 72.2501 80.0264C73.7352 79.2572 76.0683 80.3089 75.6056 82.4363C75.2837 83.9186 74.1439 85.054 72.537 85.0303C71.6437 85.0176 70.929 84.6202 70.1993 84.1475C68.8165 83.2543 67.9594 82.9712 66.3104 83.3197C64.483 83.708 62.9125 84.5159 61.0402 83.7464C60.2251 83.4103 59.6474 82.4597 58.8422 82.2235C58.1928 82.0304 57.1672 82.4018 56.4898 82.4397C54.8858 82.5248 53.3837 82.1987 52.1921 81.0573C51.7417 80.6279 51.191 79.3278 50.6496 79.111C50.559 79.0765 48.6595 79.5629 48.3047 79.5604C47.3263 79.5607 46.3882 79.3687 45.4712 79.0523C44.6605 78.7686 43.8157 78.0349 43.0108 77.8708C41.337 77.5292 40.126 78.5621 38.7123 76.9826C36.7962 74.829 39.8163 71.4369 41.7627 73.6175Z" fill="white"/>
<path d="M227.257 55.6118C228.756 60.4586 228.999 65.4532 227.964 70.4214C227.369 73.2778 222.93 72.3497 223.526 69.4884C224.404 65.2856 224.222 61.1534 222.953 57.0502C222.093 54.2585 226.396 52.8202 227.257 55.6118Z" fill="white"/>
<path d="M59.8414 112.189C63.8125 110.789 67.1829 108.155 69.5896 104.717C71.2536 102.337 75.1054 104.738 73.4264 107.14C70.2909 111.62 66.0416 114.785 60.8962 116.602C58.143 117.574 57.1149 113.155 59.8414 112.189Z" fill="#1E1E1E"/>
<path d="M28.2489 8.40218C28.2489 8.40218 41.3958 -0.711072 45.7756 2.83318C50.5392 6.97794 34.1401 6.46376 30.763 12.4284C28.3114 16.5328 31.2331 29.0442 26.1445 26.3759C22.0401 23.9243 26.1261 17.0837 26.3725 11.7921C26.6975 10.5272 28.2489 8.40218 28.2489 8.40218Z" fill="#1E1E1E"/>
<path d="M57.3092 49.8454C60.1367 50.8248 63.8194 52.5175 66.378 50.025C67.5542 48.8742 67.914 47.2598 68.2804 45.7201C68.7736 43.6561 69.2459 41.5919 69.7293 39.5253C70.387 36.7126 66.1133 35.1882 65.4479 38.0302C64.8991 40.3869 64.3977 42.7612 63.7939 45.1088C63.5041 46.2363 63.3644 46.83 62.1109 46.6636C61.0234 46.5197 59.8468 45.9201 58.8105 45.5605C56.4311 44.74 54.0582 43.8744 51.7793 42.8093C51.0642 42.4764 49.262 41.958 48.9702 41.142C48.695 40.3824 49.8244 37.9171 50.0253 37.2091C50.7097 34.7524 51.3746 32.2906 52.0883 29.8415C52.2698 29.2275 52.4317 28.6083 52.6705 28.0144C52.7808 27.6526 52.9324 27.312 53.1266 26.9878C53.2136 26.8543 53.2832 26.7475 53.3318 26.6612C53.6375 26.7672 54.4466 26.8799 54.5662 26.9008C55.3177 27.0349 56.0666 27.1788 56.8104 27.3421C59.3249 27.8854 61.807 28.5921 64.2401 29.4266C65.0718 29.7119 67.1251 30.0668 67.6996 30.738C68.1896 31.3142 67.837 31.9251 67.5508 32.7202C66.5613 35.4669 70.8427 36.9621 71.8321 34.2153C72.8393 31.4211 72.853 28.4816 70.0217 26.8397C66.4776 24.7769 61.7969 23.8127 57.8325 22.9578C55.0558 22.3616 51.6427 21.0519 49.6847 23.837C47.3021 27.2298 46.7106 32.258 45.6105 36.1843C44.7607 39.2332 43.3488 42.5987 46.2983 44.9435C49.3182 47.338 53.7121 48.6021 57.3092 49.8454Z" fill="#1E1E1E"/>
<path d="M147.786 51.5551C127.076 47.4286 106.555 42.4193 86.2791 36.5362C83.4755 35.7246 82.3275 40.1123 85.1312 40.924C105.407 46.8071 125.928 51.8164 146.638 55.9428C149.489 56.5118 150.657 52.1291 147.786 51.5551Z" fill="#1E1E1E"/>
<path d="M167.67 67.639C139.462 61.9261 112.364 51.8359 84.1594 46.0924C81.3104 45.5137 80.143 49.8964 83.0115 50.4802C111.215 56.2286 138.31 66.3126 166.522 72.0268C169.366 72.6042 170.533 68.2215 167.67 67.639Z" fill="#1E1E1E"/>
<path d="M148.99 150.622C148.943 150.067 148.911 149.487 148.841 148.916C148.731 147.621 148.597 146.31 148.408 145.035C148.054 142.5 147.448 140.051 146.51 137.709C146.226 137.005 145.271 136.789 144.616 137.148C144.561 137.183 144.49 137.244 144.458 137.294C144.222 137.355 143.993 137.456 143.795 137.613C140.574 140.106 137.33 142.585 134.093 145.103C133.588 145.486 133.485 146.332 133.753 146.851C134.36 148.144 135.844 148.517 137.051 149.066L140.759 150.734C142.077 151.318 143.418 151.916 144.72 152.525C145.879 153.045 147.647 154.332 148.697 152.82C149.202 152.122 149.037 151.387 148.99 150.622ZM141.857 147.991C140.855 147.536 139.877 147.095 138.875 146.64C138.417 146.422 137.944 146.229 137.486 146.012C139.807 144.213 142.128 142.415 144.473 140.632C144.961 142.165 145.339 143.77 145.575 145.39C145.748 146.48 145.858 147.565 145.968 148.651C146.008 149.061 146.047 149.471 146.11 149.896C145.723 149.723 145.337 149.55 144.95 149.377L141.857 147.991Z" fill="#1E1E1E"/>
<path d="M11.8884 54.469C11.3786 54.672 10.8405 54.875 10.3308 55.078C9.14138 55.571 7.98028 56.064 6.81918 56.615C4.55362 57.688 2.40134 58.964 0.447292 60.559C-0.147417 61.052 -0.119105 62.067 0.362327 62.618C0.390646 62.676 0.447283 62.705 0.503922 62.734C0.6172 62.937 0.758797 63.14 0.957034 63.285C4.04386 65.779 7.10237 68.2731 10.1892 70.7671C10.6706 71.1731 11.4636 70.9991 11.9167 70.6221C12.9645 69.6651 12.9928 68.0701 13.2194 66.736L13.8991 62.56C14.1539 61.081 14.3805 59.602 14.6354 58.123C14.8336 56.847 15.6265 54.701 13.984 54.092C13.2194 53.831 12.568 54.179 11.8884 54.469ZM11.0954 62.299C10.9255 63.401 10.7273 64.503 10.5574 65.605C10.4724 66.127 10.3874 66.649 10.3025 67.171C8.09356 65.373 5.85631 63.575 3.64739 61.777C4.97841 60.849 6.36607 60.008 7.81036 59.312C8.77322 58.848 9.76441 58.413 10.7556 58.007C11.1237 57.862 11.4919 57.688 11.8884 57.514C11.8034 57.949 11.7468 58.384 11.6618 58.819L11.0954 62.299Z" fill="#1E1E1E"/>
<path fill-rule="evenodd" clip-rule="evenodd" d="M210.281 0.0795011C213.05 0.435423 215.969 1.99569 217.227 4.56632C218.579 7.31559 218.091 10.6488 216.287 13.014C215.908 13.5197 215.383 14.0764 214.675 14.4633L214.662 14.4704L214.649 14.4773C213.546 15.0514 212.301 15.0125 211.539 14.9876L211.535 14.9875C210.4 14.9471 209.026 14.8391 207.744 14.2891L207.741 14.2879C206.179 13.6145 205.036 12.4087 204.18 11.3165C203.427 10.3647 202.67 9.22984 202.272 7.88498C201.874 6.53788 201.849 4.90941 202.63 3.48337C204.238 0.530579 207.486 -0.279637 210.281 0.0795011ZM209.898 3.05503C207.813 2.78708 206.065 3.44748 205.264 4.91939L205.262 4.92333L205.262 4.92332C204.964 5.46698 204.911 6.22811 205.149 7.03444C205.388 7.84247 205.876 8.62445 206.535 9.45846L206.539 9.46337L206.539 9.46338C207.288 10.419 208.054 11.1555 208.928 11.5326C209.666 11.8487 210.561 11.9508 211.639 11.9893C212.47 12.0164 212.94 11.9789 213.25 11.8232C213.449 11.7111 213.665 11.5111 213.89 11.2108L213.894 11.2047L213.899 11.1987C215.082 9.65065 215.339 7.52431 214.534 5.88938L214.532 5.88538C213.851 4.4906 212.008 3.32619 209.898 3.05503Z" fill="#1E1E1E"/>
<path fill-rule="evenodd" clip-rule="evenodd" d="M94.2808 204.08C97.0503 204.435 99.9695 205.996 101.227 208.566C102.579 211.316 102.091 214.649 100.287 217.014C99.9081 217.52 99.383 218.076 98.6747 218.463L98.6617 218.47L98.6485 218.477C97.5462 219.051 96.301 219.013 95.5392 218.988L95.5349 218.987C94.3998 218.947 93.026 218.839 91.7436 218.289L91.7408 218.288C90.1793 217.614 89.036 216.409 88.1797 215.316C87.4275 214.365 86.67 213.23 86.2724 211.885C85.8741 210.538 85.849 208.909 86.6297 207.483C88.238 204.531 91.4863 203.72 94.2808 204.08ZM93.8984 207.055C91.8134 206.787 90.0648 207.447 89.2637 208.919L89.2616 208.923L89.2616 208.923C88.9636 209.467 88.9109 210.228 89.1493 211.034C89.3882 211.842 89.8757 212.624 90.535 213.458L90.5389 213.463L90.5389 213.463C91.2879 214.419 92.0542 215.156 92.9275 215.533C93.6655 215.849 94.5609 215.951 95.6392 215.989C96.4705 216.016 96.9399 215.979 97.2497 215.823C97.4486 215.711 97.6651 215.511 97.8897 215.211L97.8943 215.205L97.8989 215.199C99.0816 213.651 99.3391 211.524 98.5342 209.889L98.5322 209.885C97.8507 208.491 96.0083 207.326 93.8984 207.055Z" fill="#1E1E1E"/>
<path fill-rule="evenodd" clip-rule="evenodd" d="M77.2818 149.08C80.0512 149.435 82.9705 150.996 84.2277 153.566C85.5801 156.316 85.0918 159.649 83.2883 162.014C82.9091 162.52 82.384 163.076 81.6756 163.463L81.6626 163.47L81.6495 163.477C80.5472 164.051 79.3019 164.013 78.5402 163.988L78.5359 163.987C77.4008 163.947 76.027 163.839 74.7446 163.289L74.7418 163.288C73.1803 162.614 72.037 161.409 71.1806 160.316C70.4285 159.365 69.671 158.23 69.2734 156.885C68.8751 155.538 68.8499 153.909 69.6307 152.483C71.2389 149.531 74.4873 148.72 77.2818 149.08ZM76.8994 152.055C74.8144 151.787 73.0658 152.447 72.2647 153.919L72.2626 153.923L72.2626 153.923C71.9646 154.467 71.9119 155.228 72.1503 156.034C72.3892 156.842 72.8767 157.624 73.536 158.458L73.5399 158.463L73.5399 158.463C74.2889 159.419 75.0552 160.156 75.9285 160.533C76.6665 160.849 77.5619 160.951 78.6402 160.989C79.4714 161.016 79.9409 160.979 80.2507 160.823C80.4495 160.711 80.666 160.511 80.8907 160.211L80.8952 160.205L80.8999 160.199C82.0825 158.651 82.3401 156.524 81.5352 154.889L81.5332 154.885C80.8517 153.491 79.0093 152.326 76.8994 152.055Z" fill="white"/>
</svg>
