<svg width="395" height="398" viewBox="0 0 395 398" fill="none" xmlns="http://www.w3.org/2000/svg">
<path d="M393.982 9.89084C393.982 8.0846 394.094 6.22041 393.871 4.40451C393.713 3.11986 393.49 1.78692 393.044 0.579541C393.016 0.511928 392.988 0.434656 392.932 0.39602C392.867 0.347725 392.793 0.347725 392.719 0.347725C389.15 0.289771 385.582 0.231817 382.014 0.19318C378.381 0.154544 374.757 0.115908 371.124 0.0965902C368.531 0.0772722 365.929 0.0676132 363.337 0.0579541C239.741 5.79541 310.362 5.79541 186.403 0.00965902C180.651 0 174.964 0 169.352 0H20.4346C17.4611 0 14.4783 0 11.5048 0C9.46047 0 7.42547 0.0386361 5.38118 0.0869312C3.60636 1.12045 1.83155 2.79146 0.549218 4.77156C0.419127 5.44769 0.289036 6.12382 0.186821 6.79995C0.0474377 7.77551 0.000976562 8.76073 0.000976562 9.74595V46.9911C0.0102688 56.5536 0.019561 67.2847 0.112483 78.8949C0.47488 123.896 2.39837 168.907 2.99308 213.918C3.59707 259.084 3.64353 304.269 2.55634 349.425C2.51917 351.067 2.47271 352.719 2.43554 354.361C2.35191 357.5 2.26828 360.639 2.18465 363.778C2.08244 367.603 1.97093 371.428 1.85942 375.253C1.74792 378.962 1.63641 382.671 1.51561 386.38C1.48773 387.24 1.45986 388.1 1.42269 388.969C1.4134 389.297 1.39481 389.616 1.36693 389.935C1.32977 390.476 1.35764 391.026 1.4134 391.567C1.5249 392.514 1.5249 393.528 1.8873 394.426C2.22182 395.267 2.8444 395.952 3.56919 396.445C4.29399 396.938 5.13029 397.247 5.97588 397.469C8.49408 398.126 11.1145 398.01 13.6884 397.952C16.281 397.894 18.8735 397.961 21.466 397.971C23.8727 397.971 26.2794 397.981 28.6954 397.971C34.6796 397.952 41.5837 397.952 49.2405 397.952C55.1968 397.952 61.5992 397.952 68.4104 397.942C189.563 394.088 116.154 394.088 237.362 397.942C246.477 397.942 255.37 397.952 263.984 397.952H332.728C342.15 397.952 350.69 397.952 358.198 397.952C363.337 397.952 368.484 397.836 373.623 397.807C378.139 397.778 382.683 398.058 387.218 397.913C388.537 397.874 389.885 397.788 391.092 397.218C394.847 395.44 393.704 390.292 393.583 386.931C393.481 384.101 393.388 381.271 393.295 378.44C393.109 372.78 392.942 367.12 392.802 361.46C392.505 350.14 392.282 338.819 392.115 327.508C391.947 316.188 391.836 304.877 391.78 293.557C391.724 282.237 391.706 270.926 391.734 259.606C391.762 248.295 391.827 236.974 391.91 225.664C392.003 214.353 392.115 203.042 392.254 191.722C392.384 180.411 392.542 169.1 392.691 157.79C392.849 146.479 393.007 135.178 393.165 123.867C393.323 112.566 393.471 101.265 393.611 89.9545C393.75 78.6534 393.862 67.3524 393.954 56.0513C393.964 55.1434 393.973 54.2451 393.973 53.3371C393.982 44.4895 393.982 35.6611 393.992 26.8328C393.992 23.0657 393.992 19.2987 393.992 15.5317C393.982 13.6579 393.982 11.7743 393.982 9.89084ZM389.336 30.3004C389.336 38.9645 389.327 47.6383 389.308 56.3218C388.388 167.845 385.629 280.092 389.225 391.384C389.271 392.832 388.165 394.04 386.772 394.04H261.373C252.898 394.04 244.145 394.03 235.178 393.992C109.686 388.186 178.988 390.138 53.134 394.04C45.598 394.04 38.8053 394.04 32.8862 394.049C23.5568 394.04 15.3425 394.04 6.29182 394.04C5.92013 394.04 5.62278 393.721 5.64136 393.335C10.2596 289.21 7.47193 185.086 4.76789 81.2517C4.69355 69.8734 4.68426 59.3547 4.67497 49.9758V9.23403C4.67497 7.81415 4.57276 6.44257 5.51127 5.27383C7.06307 3.3227 9.5441 3.98918 11.6534 3.92156C12.7035 3.89259 13.7628 3.9119 14.8128 3.9119H171.331C176.86 3.9119 182.454 3.9119 188.113 3.92156C310.408 8.78971 237.38 8.78971 359.062 3.9602C368.708 3.99884 378.39 4.09543 388.286 4.27895C388.872 4.28861 389.336 4.79087 389.336 5.39939C389.346 13.6965 389.346 22.0033 389.336 30.3004Z" fill="white"/>
</svg>
