<svg width="191" height="15" viewBox="0 0 191 15" fill="none" xmlns="http://www.w3.org/2000/svg">
<path d="M0.741912 4.24929C2.93127 6.3484 5.26788 8.27571 7.45724 10.3748C9.64188 12.3071 11.1902 13.2583 13.722 11.3388C15.8074 9.76777 18.3345 7.68139 19.9449 5.45801C20.0969 5.45304 20.1016 5.61986 20.2536 5.61489C20.5765 6.27224 21.3507 6.74786 21.8208 7.23341C22.9179 8.36638 23.8629 9.50431 24.9552 10.4705C26.6792 12.2508 28.5456 13.6926 30.9444 12.4453C33.3479 11.3648 34.7922 8.64594 36.716 6.74627C36.8633 6.57447 37.0106 6.40268 37.1578 6.23089C36.7113 6.57944 36.8728 6.90812 37.4807 6.88824C37.9509 7.37379 38.7156 7.51576 39.333 7.82952C40.4159 8.46202 41.4987 9.09451 42.5816 9.72701C45.056 11.1489 47.3879 12.9094 49.7198 14.6699C50.4987 15.3123 51.8572 14.9339 52.4462 14.2467C53.4676 12.7105 54.4937 11.3412 55.5151 9.80495C56.0994 8.95095 56.6837 8.09696 57.2681 7.24296C57.4153 7.07117 57.5626 6.89937 57.7051 6.56076C57.8524 6.38896 57.8524 6.38896 57.8524 6.38896C59.2392 7.01152 60.493 8.30633 61.7373 9.2675C63.1336 10.2237 64.5346 11.3467 66.0829 12.2979C68.7235 14.2153 71.3358 15.1318 74.1574 12.7018C76.2333 10.7971 78.1572 8.89747 80.233 6.99283C81.9428 8.27273 83.6478 9.38581 85.5095 10.6607C87.2146 11.7738 88.9338 13.3874 91.0475 12.8173C93.0092 12.2522 94.7763 10.1907 96.4104 8.80143C97.3034 8.10432 98.1965 7.4072 98.9375 6.71505C99.8306 6.01794 100.439 5.99805 101.517 6.46373C105.06 8.01763 107.885 11.0978 111.851 11.469C115.969 11.8353 118.772 8.73801 121.898 6.2981C122.938 5.42919 122.791 5.60098 123.878 6.4003C124.809 7.03777 125.588 7.6802 126.519 8.31767C128.381 9.5926 130.242 10.8675 132.385 11.2984C134.522 11.5625 136.317 10.5019 138.265 9.43632C139.315 8.90105 140.364 8.36579 141.414 7.83052C142.464 7.29526 144.103 6.07282 145.466 5.86126C147.29 5.80161 149.622 7.5621 151.175 8.68015C152.885 9.96005 154.309 11.9172 156.451 12.3481C158.441 12.7839 160.394 11.8852 161.876 10.5009C163.51 9.11162 164.968 6.89322 167.115 7.49091C169.257 7.92179 170.981 9.70216 172.838 10.8103C174.852 12.0802 177.008 13.0116 179.449 13.2657C183.876 13.7888 188.384 11.8046 190.693 7.38772C192.132 4.50202 188.11 2.12892 186.67 5.01462C184.651 8.92114 180.243 9.06529 176.847 7.3396C173.451 5.61391 170.621 2.36693 166.664 2.32935C164.836 2.22218 163.188 3.11097 161.696 4.16162C160.508 5.20232 158.456 7.94108 156.908 6.98985C155.364 6.20544 153.944 4.41513 152.391 3.29708C150.686 2.184 148.677 1.08086 146.844 0.806866C144.859 0.537841 143.21 1.42664 141.41 2.3204C139.159 3.3959 136.921 4.97187 134.665 5.88055C132.708 6.61246 130.832 4.83706 129.284 3.88583C127.731 2.76778 126.002 0.820584 124.017 0.55156C120.497 -0.168224 117.742 4.59726 114.892 6.02629C111.591 7.63706 108.304 4.40499 105.521 2.82623C103.816 1.71315 101.812 0.776838 99.8454 1.17511C97.727 1.57834 95.9551 3.47304 94.321 4.86231C93.428 5.55942 92.1026 7.10557 91.0481 7.47401C90.8961 7.47898 90.6063 7.98939 90.6063 7.98939C90.3024 7.99933 89.21 7.03319 88.9013 6.87631C86.7261 5.27767 84.399 3.68401 82.2238 2.08537C82.2238 2.08537 82.0718 2.09034 82.0671 1.92352C81.2882 1.28108 80.0675 1.15403 79.184 2.18479C77.8491 3.39729 76.6663 4.60481 75.3315 5.81731C74.7424 6.50449 73.9966 7.02981 73.4076 7.71698C72.9611 8.06554 72.0822 9.26313 71.479 9.44983C70.2678 9.65642 68.0737 7.3905 67.1428 6.75303C65.7465 5.79683 64.5022 4.83566 63.1059 3.87946C60.9307 2.28083 58.2759 -0.137011 55.9103 2.27804C54.7274 3.48557 53.8628 5.18362 52.9886 6.54803C52.4043 7.40203 51.6727 8.42782 51.0884 9.28182C47.2035 6.40328 43.1761 3.86335 38.8635 2.00067C36.2466 0.91741 34.7739 2.63535 33.002 4.53005C32.1185 5.56081 31.2443 6.92522 30.1993 7.62731C29.3063 8.32442 29.9048 7.97089 29.1306 7.49528C28.6652 7.17655 28.0336 6.36232 27.5634 5.87676C26.4664 4.7438 25.5213 3.60586 24.429 2.63972C23.6454 1.83046 22.7003 0.692528 21.6222 0.226856C19.162 -0.694547 17.7035 1.52386 16.0742 3.07994C15.0386 4.11568 14.003 5.15141 12.8155 6.19211C12.8155 6.19211 11.9224 6.88923 11.4759 7.23779C11.3192 7.07593 11.1625 6.91408 11.0058 6.75223C8.81639 4.65313 6.47977 2.72582 4.2904 0.626711C1.64506 -1.45748 -1.44745 2.15019 0.741912 4.24929Z" fill="#1E1E1E"/>
</svg>
