<svg width="398" height="395" viewBox="0 0 398 395" fill="none" xmlns="http://www.w3.org/2000/svg">
<path d="M9.8918 1.01858C8.08556 1.01858 6.22137 0.907074 4.40547 1.1301C3.12082 1.28806 1.78788 1.51108 0.580501 1.95709C0.512888 1.98499 0.435615 2.01288 0.396979 2.06863C0.348684 2.13367 0.348684 2.20798 0.348684 2.28232C0.29073 5.85056 0.232776 9.41879 0.19414 12.987C0.155504 16.6203 0.116868 20.2442 0.0975506 23.8775C0.0782326 26.47 0.0685737 29.0718 0.0589148 31.6644C5.79638 155.26 5.79638 84.6394 0.0106274 208.598C0.000968666 214.35 0.000968915 220.037 0.00096916 225.649L0.000975669 374.566C0.000975799 377.54 0.00097593 380.523 0.00097606 383.496C0.000976149 385.541 0.0396123 387.576 0.0879075 389.62C1.12142 391.395 2.79243 393.169 4.77253 394.452C5.44867 394.582 6.1248 394.712 6.80093 394.814C7.77649 394.954 8.76171 395 9.74693 395L46.9921 395C56.5546 394.991 67.2857 394.981 78.8959 394.888C123.897 394.526 168.908 392.603 213.919 392.008C259.085 391.404 304.27 391.357 349.426 392.445C351.068 392.482 352.719 392.528 354.362 392.565C357.501 392.649 360.64 392.733 363.779 392.816C367.604 392.919 371.429 393.03 375.254 393.142C378.963 393.253 382.672 393.365 386.381 393.485C387.241 393.513 388.1 393.541 388.97 393.578C389.298 393.588 389.617 393.606 389.936 393.634C390.477 393.671 391.027 393.643 391.568 393.588C392.515 393.476 393.529 393.476 394.427 393.114C395.267 392.779 395.953 392.157 396.446 391.432C396.938 390.707 397.248 389.871 397.47 389.025C398.127 386.507 398.011 383.886 397.953 381.313C397.895 378.72 397.962 376.127 397.972 373.535C397.972 371.128 397.982 368.722 397.972 366.306C397.953 360.321 397.953 353.417 397.953 345.76C397.953 339.804 397.953 333.402 397.943 326.591C394.089 205.438 394.089 278.847 397.943 157.639C397.943 148.523 397.953 139.631 397.953 131.017L397.953 62.273C397.953 52.8506 397.953 44.3111 397.953 36.803C397.953 31.6644 397.837 26.5165 397.808 21.3779C397.779 16.8618 398.059 12.3179 397.914 7.78334C397.875 6.46382 397.788 5.11644 397.219 3.90846C395.441 0.154402 390.293 1.29735 386.932 1.41813C384.102 1.52037 381.272 1.61326 378.441 1.70619C372.781 1.89204 367.121 2.05931 361.461 2.19868C350.141 2.49605 338.82 2.71904 327.509 2.88631C316.189 3.05358 304.878 3.16509 293.558 3.22084C282.238 3.2766 270.927 3.29515 259.606 3.26729C248.296 3.2394 236.975 3.17437 225.665 3.09075C214.354 2.99782 203.043 2.88631 191.723 2.74694C180.412 2.61684 169.101 2.45889 157.791 2.3102C146.48 2.15222 135.179 1.99429 123.868 1.8363C112.567 1.67834 101.266 1.52966 89.9554 1.39029C78.6544 1.25088 67.3533 1.1394 56.0523 1.04648C55.1443 1.03717 54.246 1.02786 53.3381 1.02786C44.4904 1.01858 35.6621 1.01858 26.8337 1.00931C23.0667 1.00931 19.2997 1.00931 15.5327 1.00931C13.6588 1.01858 11.7753 1.01858 9.8918 1.01858ZM30.3013 5.6647C38.9655 5.6647 47.6393 5.67401 56.3227 5.69259C167.846 6.61251 280.093 9.3723 391.385 5.7762C392.833 5.72975 394.041 6.83549 394.041 8.22932L394.041 133.628C394.041 142.103 394.031 150.856 393.992 159.823C388.187 285.314 390.139 216.013 394.041 341.867C394.041 349.403 394.041 356.196 394.05 362.115C394.041 371.444 394.041 379.659 394.041 388.709C394.041 389.081 393.722 389.378 393.336 389.36C289.211 384.741 185.087 387.529 81.2527 390.233C69.8743 390.307 59.3557 390.317 49.9768 390.326L9.235 390.326C7.81513 390.326 6.44354 390.428 5.2748 389.49C3.32368 387.938 3.99015 385.457 3.92254 383.348C3.89356 382.298 3.91288 381.238 3.91288 380.188L3.91287 223.67C3.91287 218.141 3.91287 212.547 3.92253 206.888C8.79067 84.5929 8.79068 157.621 3.96116 35.9388C3.9998 26.2935 4.09639 16.611 4.27991 6.71475C4.28957 6.12933 4.79183 5.6647 5.40035 5.6647C13.6975 5.65543 22.0042 5.65543 30.3013 5.6647Z" fill="white"/>
</svg>
