<svg width="250" height="15" viewBox="0 0 250 15" fill="none" xmlns="http://www.w3.org/2000/svg">
<path d="M249.028 10.7507C246.162 8.65161 243.104 6.7243 240.238 4.6252C237.378 2.69292 235.352 1.74169 232.038 3.66125C229.308 5.23224 226.001 7.31862 223.893 9.54199C223.694 9.54696 223.688 9.38014 223.489 9.38511C223.066 8.72776 222.053 8.25215 221.437 7.76659C220.002 6.63363 218.765 5.4957 217.335 4.52956C215.078 2.74919 212.635 1.30743 209.496 2.55473C206.35 3.6352 204.459 6.35407 201.941 8.25374C201.748 8.42553 201.556 8.59732 201.363 8.76912C201.947 8.42056 201.736 8.09188 200.94 8.11177C200.325 7.62621 199.324 7.48424 198.516 7.17048C197.098 6.53799 195.681 5.90549 194.264 5.273C191.025 3.85113 187.973 2.09064 184.92 0.330157C183.901 -0.312279 182.123 0.0661037 181.352 0.753278C180.015 2.28948 178.672 3.65885 177.335 5.19505C176.57 6.04905 175.805 6.90305 175.041 7.75704C174.848 7.92884 174.655 8.10063 174.468 8.43925C174.276 8.61104 174.276 8.61104 174.276 8.61104C172.46 7.98849 170.819 6.69367 169.191 5.7325C167.363 4.77631 165.529 3.65329 163.503 2.70206C160.046 0.784691 156.627 -0.13174 152.934 2.29822C150.217 4.20286 147.699 6.10253 144.982 8.00717C142.744 6.72727 140.512 5.61419 138.075 4.33926C135.844 3.22618 133.593 1.61264 130.827 2.1827C128.259 2.74779 125.946 4.80931 123.807 6.19857C122.638 6.89568 121.469 7.5928 120.499 8.28494C119.33 8.98206 118.535 9.00194 117.124 8.53627C112.486 6.98237 108.787 3.90222 103.596 3.53099C98.2063 3.16474 94.5378 6.26199 90.4467 8.7019C89.085 9.57081 89.2778 9.39901 87.8542 8.5997C86.6358 7.96223 85.6163 7.31979 84.3979 6.68233C81.9611 5.4074 79.5243 4.13247 76.7205 3.70159C73.923 3.43754 71.5728 4.49812 69.0237 5.56368C67.6496 6.09894 66.2756 6.63421 64.9016 7.16947C63.5276 7.70474 61.3825 8.92717 59.5982 9.13873C57.2109 9.19838 54.1587 7.4379 52.1259 6.31985C49.8881 5.03995 48.0233 3.08281 45.2195 2.65194C42.6147 2.21609 40.0594 3.11482 38.1195 4.49911C35.9807 5.88837 34.0717 8.10678 31.2617 7.50908C28.458 7.0782 26.2015 5.29783 23.7709 4.18972C21.1351 2.91976 18.3128 1.98842 15.1173 1.73431C9.32325 1.21117 3.42306 3.19535 0.400913 7.61227C-1.48329 10.498 3.78206 12.8711 5.66626 9.98537C8.30909 6.07886 14.0784 5.9347 18.5232 7.66039C22.9681 9.38608 26.6728 12.6331 31.8515 12.6706C34.245 12.7778 36.4024 11.889 38.3547 10.8384C39.9091 9.79767 42.5953 7.05892 44.6218 8.01014C46.6422 8.79455 48.5008 10.5849 50.5335 11.7029C52.7652 12.816 55.3948 13.9191 57.7945 14.1931C60.3931 14.4621 62.5505 13.5734 64.9069 12.6796C67.8539 11.6041 70.7823 10.0281 73.7355 9.11945C76.297 8.38754 78.7524 10.1629 80.779 11.1142C82.8117 12.2322 85.0743 14.1794 87.673 14.4484C92.2796 15.1682 95.8862 10.4027 99.6166 8.97371C103.938 7.36294 108.239 10.595 111.882 12.1738C114.114 13.2868 116.737 14.2232 119.311 13.8249C122.084 13.4216 124.403 11.5269 126.542 10.1377C127.711 9.44057 129.446 7.89443 130.826 7.52599C131.025 7.52102 131.404 7.01061 131.404 7.01061C131.802 7.00067 133.232 7.96681 133.636 8.12369C136.483 9.72232 139.529 11.316 142.376 12.9146C142.376 12.9146 142.575 12.9096 142.581 13.0765C143.601 13.7189 145.198 13.846 146.355 12.8152C148.102 11.6027 149.65 10.3952 151.397 9.18269C152.168 8.49551 153.144 7.97019 153.915 7.28302C154.5 6.93446 155.65 5.73688 156.44 5.55017C158.025 5.34358 160.897 7.60951 162.115 8.24697C163.943 9.20317 165.572 10.1643 167.399 11.1205C170.246 12.7192 173.721 15.137 176.818 12.722C178.366 11.5144 179.498 9.81638 180.642 8.45197C181.407 7.59798 182.364 6.57219 183.129 5.71819C188.214 8.59672 193.486 11.1366 199.13 12.9993C202.556 14.0826 204.483 12.3647 206.802 10.47C207.959 9.43919 209.103 8.07479 210.471 7.3727C211.64 6.67558 210.856 7.02911 211.87 7.50473C212.479 7.82346 213.306 8.63769 213.921 9.12324C215.357 10.2562 216.594 11.3941 218.024 12.3603C219.049 13.1695 220.286 14.3075 221.697 14.7731C224.918 15.6945 226.827 13.4761 228.959 11.9201C230.315 10.8843 231.67 9.8486 233.225 8.80789C233.225 8.80789 234.393 8.11078 234.978 7.76222C235.183 7.92407 235.388 8.08592 235.593 8.24778C238.459 10.3469 241.517 12.2742 244.383 14.3733C247.846 16.4575 251.893 12.8498 249.028 10.7507Z" fill="#59C69F"/>
</svg>
