<svg width="141" height="15" viewBox="0 0 141 15" fill="none" xmlns="http://www.w3.org/2000/svg">
<path d="M140.452 10.7507C138.835 8.65161 137.11 6.7243 135.494 4.6252C133.881 2.69292 132.738 1.74169 130.869 3.66125C129.33 5.23224 127.464 7.31862 126.276 9.54199C126.163 9.54696 126.16 9.38014 126.048 9.38511C125.809 8.72776 125.238 8.25215 124.891 7.76659C124.081 6.63363 123.383 5.4957 122.577 4.52956C121.304 2.74919 119.926 1.30743 118.156 2.55473C116.381 3.6352 115.315 6.35407 113.895 8.25374C113.786 8.42553 113.677 8.59732 113.569 8.76912C113.898 8.42056 113.779 8.09188 113.33 8.11177C112.983 7.62621 112.419 7.48424 111.963 7.17048C111.163 6.53799 110.364 5.90549 109.565 5.273C107.738 3.85113 106.017 2.09064 104.295 0.330157C103.72 -0.312279 102.717 0.0661037 102.282 0.753278C101.528 2.28948 100.771 3.65885 100.017 5.19505C99.5856 6.04905 99.1542 6.90305 98.7229 7.75704C98.6141 7.92884 98.5054 8.10063 98.4002 8.43925C98.2915 8.61104 98.2915 8.61104 98.2915 8.61104C97.2677 7.98849 96.3421 6.69367 95.4236 5.7325C94.3928 4.77631 93.3585 3.65329 92.2155 2.70206C90.2662 0.784691 88.3378 -0.13174 86.2548 2.29822C84.7223 4.20286 83.3021 6.10253 81.7697 8.00717C80.5075 6.72727 79.2488 5.61419 77.8744 4.33926C76.6158 3.22618 75.3466 1.61264 73.7862 2.1827C72.3381 2.74779 71.0335 4.80931 69.8272 6.19857C69.168 6.89568 68.5087 7.5928 67.9616 8.28494C67.3024 8.98206 66.8536 9.00194 66.0577 8.53627C63.4421 6.98237 61.3561 3.90222 58.4283 3.53099C55.3884 3.16474 53.3193 6.26199 51.0119 8.7019C50.244 9.57081 50.3527 9.39901 49.5498 8.5997C48.8626 7.96223 48.2876 7.31979 47.6004 6.68233C46.2261 5.4074 44.8517 4.13247 43.2704 3.70159C41.6925 3.43754 40.3671 4.49812 38.9294 5.56368C38.1544 6.09894 37.3794 6.63421 36.6045 7.16947C35.8295 7.70474 34.6197 8.92717 33.6134 9.13873C32.267 9.19838 30.5455 7.4379 29.399 6.31985C28.1369 5.03995 27.0851 3.08281 25.5038 2.65194C24.0347 2.21609 22.5935 3.11482 21.4994 4.49911C20.2931 5.88837 19.2164 8.10678 17.6316 7.50908C16.0503 7.0782 14.7777 5.29783 13.4068 4.18972C11.9202 2.91976 10.3284 1.98842 8.52618 1.73431C5.25831 1.21117 1.93061 3.19535 0.226115 7.61227C-0.836575 10.498 2.13308 12.8711 3.19577 9.98537C4.68633 6.07886 7.94023 5.9347 10.4471 7.66039C12.954 9.38608 15.0435 12.6331 17.9643 12.6706C19.3142 12.7778 20.531 11.889 21.6321 10.8384C22.5087 9.79767 24.0237 7.05892 25.1667 8.01014C26.3062 8.79455 27.3544 10.5849 28.5009 11.7029C29.7596 12.816 31.2427 13.9191 32.5961 14.1931C34.0617 14.4621 35.2785 13.5734 36.6075 12.6796C38.2696 11.6041 39.9212 10.0281 41.5868 9.11945C43.0315 8.38754 44.4164 10.1629 45.5593 11.1142C46.7058 12.2322 47.9819 14.1794 49.4476 14.4484C52.0457 15.1682 54.0798 10.4027 56.1838 8.97371C58.6208 7.36294 61.0469 10.595 63.1015 12.1738C64.3602 13.2868 65.8398 14.2232 67.2914 13.8249C68.8553 13.4216 70.1633 11.5269 71.3696 10.1377C72.0289 9.44057 73.0073 7.89443 73.7858 7.52599C73.898 7.52102 74.1119 7.01061 74.1119 7.01061C74.3363 7.00067 75.1427 7.96681 75.3706 8.12369C76.9763 9.72232 78.6943 11.316 80.3 12.9146C80.3 12.9146 80.4122 12.9096 80.4157 13.0765C80.9907 13.7189 81.8918 13.846 82.5441 12.8152C83.5295 11.6027 84.4027 10.3952 85.3881 9.18269C85.8229 8.49551 86.3735 7.97019 86.8083 7.28302C87.138 6.93446 87.7868 5.73688 88.2321 5.55017C89.1262 5.34358 90.7459 7.60951 91.4331 8.24697C92.4639 9.20317 93.3825 10.1643 94.4132 11.1205C96.019 12.7192 97.9788 15.137 99.7252 12.722C100.598 11.5144 101.237 9.81638 101.882 8.45197C102.313 7.59798 102.853 6.57219 103.285 5.71819C106.153 8.59672 109.126 11.1366 112.309 12.9993C114.241 14.0826 115.328 12.3647 116.637 10.47C117.289 9.43919 117.934 8.07479 118.706 7.3727C119.365 6.67558 118.923 7.02911 119.494 7.50473C119.838 7.82346 120.304 8.63769 120.651 9.12324C121.461 10.2562 122.159 11.3941 122.965 12.3603C123.544 13.1695 124.241 14.3075 125.037 14.7731C126.854 15.6945 127.93 13.4761 129.133 11.9201C129.897 10.8843 130.662 9.8486 131.539 8.80789C131.539 8.80789 132.198 8.11078 132.528 7.76222C132.643 7.92407 132.759 8.08592 132.875 8.24778C134.491 10.3469 136.216 12.2742 137.832 14.3733C139.785 16.4575 142.068 12.8498 140.452 10.7507Z" fill="#F7C60F"/>
</svg>
