<svg width="286" height="15" viewBox="0 0 286 15" fill="none" xmlns="http://www.w3.org/2000/svg">
<path d="M142.6 7.5643C144.443 4.92641 147.233 3.75892 150.002 4.1105C151.853 4.31502 153.497 5.12542 155.037 6.23875C155.488 6.54683 155.929 6.91536 156.374 7.2866C157.329 8.08491 158.3 8.8957 159.411 9.14463C160.68 9.54349 161.613 8.43098 162.539 7.32753C162.804 7.01106 163.069 6.69534 163.341 6.41623C164.446 5.16974 165.914 4.35161 167.426 4.72207C168.564 4.97712 169.445 5.90041 170.32 6.8173C170.696 7.21139 171.071 7.6043 171.465 7.94246C171.527 7.99348 171.59 8.04602 171.655 8.09978C172.839 9.08101 174.513 10.4685 175.822 10.4026C176.56 10.2587 177.399 9.65063 178.106 9.13874C178.384 8.93667 178.643 8.74958 178.866 8.61197L181.231 7.15322C181.303 7.10551 181.375 7.0578 181.446 7.01025C182.826 6.09453 184.119 5.23626 185.66 5.44169C187.287 5.80637 188.712 6.9255 190.137 8.04462C190.494 8.32431 190.821 8.60544 191.148 8.88658C191.476 9.1679 191.804 9.44923 192.16 9.72909C192.281 9.83145 192.383 9.92216 192.47 10C192.98 10.4565 192.997 10.4716 193.661 9.80241C194.055 9.43063 194.443 9.04224 194.829 8.65483C196.731 6.7481 198.609 4.86533 201.204 5.10588C203.111 5.29303 204.684 6.45411 206.268 7.62369C207.183 8.29906 208.101 8.97725 209.09 9.47238C209.912 9.87758 210.372 9.85443 211.04 9.22539C211.592 8.60253 212.259 7.97387 212.927 7.34522L212.928 7.34407C213.228 7.03575 213.534 6.69103 213.847 6.33876C214.805 5.26033 215.825 4.11117 216.94 3.71846C218.268 3.27926 219.407 4.19476 220.506 5.07716C220.725 5.25313 220.942 5.42776 221.159 5.59009C221.521 5.87459 221.875 6.14987 222.224 6.4207C223.247 7.21522 224.221 7.97154 225.198 8.81046C225.973 7.95272 226.718 7.09644 227.464 6.24016C228.209 5.38397 228.955 4.52779 229.729 3.67015C231.836 1.4801 233.825 2.27314 235.847 3.95762C236.594 4.48329 237.297 5.07034 237.982 5.64283C238.384 5.97812 238.78 6.30841 239.174 6.61844C239.454 6.86613 239.734 7.13933 240.018 7.41548C240.702 8.08158 241.403 8.76475 242.151 9.14805L242.26 8.99368C242.364 8.69074 242.473 8.53638 242.583 8.38202L243.879 6.08393C244.256 5.39504 244.635 4.7433 245.014 4.09156C245.392 3.4399 245.771 2.78823 246.149 2.09942C246.586 1.48197 247.61 1.13271 248.208 1.69806C249.995 3.24554 251.782 4.79303 253.672 6.03757L256.155 7.69889C256.312 7.79023 256.481 7.8644 256.651 7.9386C256.989 8.08695 257.328 8.2353 257.569 8.52086C257.906 8.50392 258.064 8.65552 257.993 8.86136L258.15 8.6405C258.627 8.07063 259.064 7.42017 259.5 6.76971C260.373 5.46876 261.246 4.1678 262.45 3.51175C264.251 2.37911 265.682 3.6468 267.009 5.21744C267.563 5.78002 268.07 6.41007 268.594 7.06132C268.862 7.39512 269.135 7.73447 269.421 8.07315C269.538 8.21101 269.678 8.34767 269.823 8.48906C270.129 8.78695 270.456 9.10582 270.628 9.501C270.685 9.49811 270.715 9.53381 270.745 9.56951C270.776 9.6052 270.806 9.64089 270.863 9.638C272.056 7.64285 273.944 5.76153 275.503 4.34332C277.397 2.61057 278.581 3.44413 280.258 5.14597C281.1 6.07121 281.969 6.95786 282.838 7.84451C283.707 8.7311 284.576 9.61769 285.417 10.5429C287.1 12.3933 284.803 15.6349 282.775 13.8019C281.933 12.8766 281.064 11.9899 280.195 11.1032C279.326 10.2166 278.457 9.3301 277.616 8.40499L277.254 7.97664L276.252 8.92019C275.366 9.85794 274.594 10.7899 273.823 11.7219C273.62 11.9562 273.42 12.207 273.22 12.4585C272.225 13.7103 271.217 14.9785 269.657 14.3133C268.968 13.9735 268.344 13.2118 267.804 12.5537C267.7 12.427 267.6 12.3041 267.502 12.1889C266.948 11.6263 266.441 10.9962 265.917 10.345C265.649 10.0112 265.376 9.67185 265.09 9.33316C264.973 9.19535 264.844 9.02736 264.71 8.85358C264.428 8.48723 264.125 8.09507 263.884 7.9053C263.546 7.6678 263.547 7.46161 263.486 7.4446C263.441 7.43177 263.36 7.5267 263.073 7.79726C262.511 8.2531 262.02 9.01239 261.544 9.74721C261.358 10.0357 261.174 10.3205 260.989 10.5816L260.853 10.7573C259.593 12.389 258.507 13.7965 256.581 12.8874C253.293 11.2666 250.213 9.03996 247.237 6.51034C247.021 6.89336 246.778 7.31497 246.534 7.73657C246.291 8.15818 246.047 8.57979 245.831 8.96279C245.667 9.27491 245.503 9.60638 245.335 9.94504C244.847 10.9337 244.327 11.9838 243.671 12.7929C242.068 14.7696 240.236 13.1848 238.663 11.8249C238.507 11.6901 238.354 11.5574 238.204 11.4307C237.669 11.011 237.164 10.5899 236.658 10.1688C236.152 9.74767 235.647 9.32656 235.112 8.90689C234.93 8.76362 234.683 8.526 234.402 8.25501C233.586 7.46755 232.477 6.39823 231.796 6.54322C231.501 6.65503 231.121 7.14967 230.801 7.56803C230.629 7.79221 230.474 7.9945 230.357 8.10423C230.138 8.41291 229.89 8.68591 229.641 8.95891C229.392 9.23198 229.143 9.50503 228.924 9.81381C228.426 10.36 227.956 10.9048 227.487 11.4496C227.018 11.994 226.549 12.5385 226.051 13.0844C225.395 14.0106 224.469 13.9083 223.871 13.343C223.866 13.1944 223.751 13.2002 223.751 13.2002C222.917 12.4978 222.056 11.7969 221.194 11.096C220.332 10.3951 219.47 9.69423 218.637 8.99187C218.551 8.94228 218.387 8.79909 218.201 8.63715C217.873 8.3518 217.479 8.00816 217.332 8.01554C217.332 8.01554 217.119 8.47284 217.004 8.47862C216.467 8.70692 215.843 9.41585 215.289 10.0456C215.023 10.3473 214.774 10.6308 214.558 10.8346C214.344 11.0541 214.127 11.2875 213.906 11.5252C212.866 12.6435 211.738 13.857 210.42 14.1689C208.936 14.5413 207.407 13.7251 206.102 12.7488C205.648 12.4539 205.176 12.092 204.69 11.7196C202.899 10.3471 200.919 8.82991 198.969 9.98183C198.207 10.4441 197.459 11.2829 196.691 12.1441C195.302 13.7022 193.848 15.3335 192.126 14.9408C191.019 14.7777 190.005 13.8055 189.074 12.9118C188.738 12.5897 188.413 12.2777 188.098 12.0176C187.874 11.8597 187.64 11.6755 187.399 11.4853C186.367 10.6714 185.193 9.74597 183.999 10.2887C183.029 10.7628 182.067 11.431 181.104 12.0992C180.383 12.6003 179.661 13.1015 178.936 13.5207C178.867 13.5619 178.799 13.6031 178.731 13.6441C177.457 14.4122 176.27 15.1284 174.84 14.9177C173.448 14.6901 171.914 13.7253 170.609 12.7489C170.116 12.3411 169.638 11.8297 169.163 11.322C168.495 10.6074 167.834 9.90013 167.145 9.49962C166.204 8.83679 165.049 10.2554 164.17 11.3359C163.944 11.6142 163.736 11.87 163.554 12.0621C162.438 13.0114 161.2 13.818 159.815 13.7389C157.79 13.7402 156.136 12.4307 154.477 11.1164C153.681 10.4862 152.884 9.85495 152.044 9.36656C149.452 7.8596 146.116 8.02749 144.635 11.5258C144.387 12.1333 144.027 12.4831 143.636 12.6291C143.019 13.049 142.206 13.089 141.431 12.3891C140.59 11.4639 139.721 10.5774 138.852 9.69086C137.983 8.80416 137.114 7.91746 136.272 6.99216L135.911 6.56381L134.909 7.50736C134.023 8.445 133.251 9.37687 132.48 10.3087C132.277 10.5431 132.077 10.7942 131.877 11.0457C130.882 12.2975 129.874 13.5656 128.314 12.9005C127.624 12.5607 127 11.7989 126.461 11.1408C126.357 11.0141 126.256 10.8913 126.159 10.776C125.604 10.2134 125.098 9.5832 124.574 8.93184C124.305 8.59816 124.033 8.25891 123.747 7.92034C123.63 7.78246 123.501 7.61441 123.367 7.44056C123.084 7.07426 122.782 6.68221 122.54 6.49248C122.203 6.25497 122.204 6.0488 122.143 6.03179C122.097 6.01895 122.017 6.11387 121.73 6.38444C121.168 6.84031 120.676 7.59966 120.201 8.33453C120.014 8.623 119.83 8.90769 119.645 9.16877C119.6 9.22759 119.554 9.28623 119.509 9.34457C118.25 10.9762 117.164 12.3837 115.238 11.4746C111.95 9.8538 108.87 7.62713 105.894 5.09751C105.678 5.48054 105.434 5.90214 105.191 6.32375C104.947 6.74535 104.704 7.16696 104.488 7.54997C104.323 7.86223 104.159 8.19384 103.992 8.53266C103.503 9.52122 102.984 10.5711 102.328 11.3801C100.725 13.3568 98.8924 11.7719 97.32 10.4121C97.1641 10.2772 97.0107 10.1446 96.8604 10.0179C96.326 9.59822 95.8203 9.17709 95.3147 8.75597C94.809 8.33484 94.3034 7.91373 93.769 7.49406C93.5865 7.3508 93.3401 7.11319 93.0591 6.8422C92.2425 6.05474 91.1336 4.9854 90.4532 5.1304C90.1573 5.2422 89.7781 5.73678 89.4575 6.15513C89.2856 6.37934 89.1305 6.58166 89.014 6.6914C88.7952 7.00013 88.5462 7.27317 88.2972 7.54619C88.0482 7.81922 87.7992 8.09225 87.5804 8.40098C87.0825 8.94695 86.6134 9.49149 86.1443 10.036C85.675 10.5807 85.2057 11.1254 84.7077 11.6716C84.0512 12.5977 83.1255 12.4955 82.528 11.9301C82.5223 11.7816 82.4074 11.7874 82.4074 11.7874C81.5742 11.085 80.7123 10.3841 79.8503 9.68321C78.9884 8.98231 78.1265 8.2814 77.2933 7.57905C77.208 7.52945 77.0436 7.38627 76.8577 7.22432C76.5301 6.93896 76.1356 6.59533 75.9889 6.60272C75.9889 6.60272 75.7757 7.06002 75.6606 7.0658C75.1239 7.29408 74.5001 8.00295 73.9458 8.63264C73.6802 8.9344 73.4307 9.21799 73.2144 9.42178C73.0005 9.64128 72.7836 9.87466 72.5626 10.1123C71.5232 11.2306 70.3952 12.4442 69.0765 12.7561C67.5924 13.1285 66.0635 12.3123 64.7591 11.3359C64.3052 11.041 63.833 10.6792 63.3469 10.3067C61.5558 8.9343 59.5758 7.41709 57.6252 8.569C56.8633 9.03127 56.1155 9.87009 55.3478 10.7313C53.9589 12.2893 52.5047 13.9206 50.7829 13.528C49.6756 13.3649 48.6623 12.3928 47.7307 11.499C47.3949 11.1769 47.0697 10.8649 46.7546 10.6047C46.5303 10.4469 46.2969 10.2628 46.0557 10.0726C45.0234 9.25855 43.8499 8.33315 42.656 8.87588C41.6862 9.35 40.7237 10.0182 39.7611 10.6864C39.0392 11.1875 38.3174 11.6886 37.5924 12.1079C37.5238 12.1491 37.4556 12.1903 37.3876 12.2313C36.114 12.9994 34.9266 13.7155 33.4966 13.5049C32.1051 13.2772 30.5707 12.3125 29.2662 11.3361C28.7722 10.9282 28.2942 10.4169 27.8197 9.90923C27.1517 9.19455 26.4906 8.4873 25.8017 8.08679C24.8603 7.42396 23.706 8.84261 22.827 9.92304C22.6006 10.2013 22.3924 10.4572 22.2108 10.6492C21.0943 11.5986 19.8571 12.4051 18.4713 12.326C16.4462 12.3274 14.7928 11.0178 13.1334 9.70358C12.3378 9.07339 11.5407 8.44213 10.7007 7.95374C8.1086 6.44677 4.77307 6.61467 3.29176 10.1129C2.23693 12.6966 -0.837682 10.6185 0.217191 8.03483C1.91167 4.07927 5.30055 2.27127 8.6585 2.69768C10.51 2.9022 12.1539 3.71259 13.694 4.82593C14.1446 5.134 14.5858 5.50254 15.0303 5.87378C15.9861 6.67209 16.9568 7.48288 18.0674 7.7318C19.3362 8.13067 20.2696 7.01815 21.1954 5.9147C21.4609 5.59824 21.7258 5.28252 21.9977 5.00341C23.1031 3.75691 24.5703 2.93879 26.0823 3.30925C27.2203 3.56429 28.1016 4.48759 28.9769 5.40447C29.3531 5.79856 29.7281 6.19147 30.1219 6.52963C30.1837 6.58066 30.2471 6.6332 30.312 6.68696C31.4959 7.66818 33.17 9.05564 34.4785 8.98978C35.2167 8.84589 36.0558 8.2378 36.7622 7.72591C37.0411 7.52384 37.2992 7.33676 37.5223 7.19915L39.8872 5.7404C39.9594 5.69268 40.0312 5.64498 40.1029 5.59743C41.4825 4.68171 42.7755 3.82344 44.3169 4.02887C45.944 4.39354 47.3691 5.51268 48.7941 6.6318C49.1504 6.91156 49.4779 7.19277 49.8054 7.47399C50.1329 7.75523 50.4604 8.03648 50.8167 8.31627C50.9381 8.41862 51.0395 8.50934 51.1266 8.58721C51.6368 9.04371 51.6537 9.05882 52.3176 8.38959C52.7122 8.01785 53.0995 7.62951 53.4859 7.24215C55.3879 5.33535 57.2661 3.45251 59.8612 3.69305C61.7676 3.8802 63.3404 5.0413 64.9246 6.21088C65.8393 6.88623 66.7579 7.56442 67.7468 8.05956C68.5688 8.46476 69.0289 8.4416 69.6965 7.81256C70.2492 7.18933 70.9169 6.56029 71.5846 5.93125C71.8851 5.62289 72.1912 5.27813 72.504 4.92583C73.4615 3.84743 74.4818 2.69833 75.5962 2.30564C76.9248 1.86643 78.0642 2.78195 79.1623 3.66437C79.3812 3.84032 79.5986 4.01495 79.8154 4.17726C80.1775 4.46158 80.5317 4.73668 80.8802 5.00734C81.9036 5.80205 82.8777 6.55851 83.855 7.39763C84.6293 6.5399 85.3749 5.68362 86.1205 4.82734C86.866 3.97115 87.6114 3.11496 88.3857 2.25732C90.4925 0.0672793 92.4815 0.860319 94.5041 2.54479C95.2507 3.07049 95.9538 3.6576 96.6394 4.23011C97.0409 4.56537 97.4364 4.89562 97.8311 5.20561C98.1107 5.45333 98.3913 5.72659 98.6748 6.00278C99.3586 6.66883 100.06 7.35196 100.808 7.73523L100.917 7.58085C101.021 7.27791 101.13 7.12356 101.24 6.9692L102.536 4.6711C102.913 3.98222 103.292 3.33047 103.671 2.67873C104.049 2.02707 104.428 1.37541 104.805 0.686599C105.243 0.0691449 106.267 -0.280117 106.864 0.285234C108.651 1.83272 110.438 3.3802 112.329 4.62474L114.812 6.28606C114.969 6.37739 115.138 6.45156 115.307 6.52574C115.646 6.67411 115.984 6.82248 116.226 7.10804C116.562 7.0911 116.72 7.24267 116.65 7.44851L116.806 7.22767C117.284 6.65781 117.721 6.00735 118.157 5.35689C119.03 4.05593 119.903 2.75498 121.107 2.09893C122.908 0.966288 124.339 2.23398 125.666 3.80462C126.22 4.36729 126.727 4.99744 127.251 5.64878C127.519 5.98248 127.792 6.32174 128.078 6.66033C128.194 6.79817 128.335 6.93482 128.48 7.07617C128.786 7.3741 129.113 7.69298 129.284 8.08817C129.342 8.08528 129.372 8.12099 129.402 8.15668C129.432 8.19238 129.462 8.22807 129.52 8.22518C130.712 6.23002 132.6 4.34871 134.16 2.93049C136.054 1.19775 137.238 2.03131 138.915 3.73315C139.757 4.65832 140.626 5.54491 141.494 6.4315C141.864 6.80812 142.233 7.18472 142.6 7.5643Z" fill="#F7C300"/>
</svg>
