<svg width="233" height="17" viewBox="0 0 233 17" fill="none" xmlns="http://www.w3.org/2000/svg">
<path d="M179.815 8.26529C182.16 5.18302 185.762 3.8172 189.326 4.22412C191.663 4.45665 193.734 5.3689 195.671 6.62102C196.238 6.96753 196.793 7.3819 197.352 7.7993C198.554 8.69687 199.774 9.60849 201.175 9.88966C202.775 10.3394 203.962 9.09216 205.138 7.85511L205.139 7.85483C205.476 7.50014 205.813 7.14629 206.158 6.83353C207.563 5.4362 209.421 4.52026 211.329 4.9385C212.764 5.2266 213.871 6.26436 214.97 7.29492L214.971 7.29515C215.443 7.738 215.914 8.17952 216.409 8.55963C216.487 8.617 216.566 8.67609 216.648 8.73654C218.137 9.83978 220.242 11.3998 221.895 11.328C222.828 11.1677 223.892 10.4865 224.788 9.91314L224.788 9.91305C225.141 9.68668 225.469 9.47709 225.752 9.32298L228.749 7.68943C228.839 7.63685 228.928 7.58429 229.017 7.5319L229.022 7.52938C229.831 7.18625 231.604 6.8 232.224 8C233 9.5 233.132 10.7839 232.224 11.2132C230.996 11.7438 229.776 12.4923 228.555 13.2407L228.555 13.2409C227.64 13.8022 226.725 14.3634 225.806 14.8328C225.754 14.8608 225.701 14.8888 225.649 14.9167L225.547 14.971C223.933 15.8311 222.428 16.633 220.624 16.3943C218.868 16.1365 216.936 15.0512 215.295 13.9532C214.674 13.4946 214.074 12.9198 213.478 12.3493C212.639 11.546 211.809 10.7512 210.942 10.3005C209.757 9.55501 208.289 11.1455 207.172 12.3569C206.884 12.6688 206.619 12.9557 206.388 13.1709C204.972 14.2347 203.404 15.138 201.654 15.047C199.096 15.0452 197.017 13.5728 194.93 12.0949C193.929 11.3863 192.927 10.6765 191.869 10.127C188.714 8.48787 184.671 8.60433 182.693 12.1586C182.561 13.9171 180.486 15.476 178.614 13.9625C177.558 12.923 176.467 11.9268 175.376 10.9307L175.374 10.9295L175.374 10.929C174.283 9.93259 173.191 8.9362 172.135 7.89656L171.681 7.41518L170.409 8.47265C169.283 9.5238 168.302 10.5686 167.322 11.6135C167.063 11.8762 166.81 12.1574 166.556 12.4393C165.29 13.8427 164.008 15.2646 162.042 14.5155C161.174 14.133 160.391 13.2771 159.714 12.5376L159.714 12.5374L159.712 12.5356C159.583 12.3939 159.457 12.2565 159.335 12.1275C158.639 11.4951 158.003 10.787 157.346 10.0552C157.009 9.68014 156.667 9.29885 156.308 8.9183C156.162 8.76337 155.999 8.57455 155.831 8.3792C155.477 7.9676 155.098 7.52705 154.794 7.3137C154.376 7.05042 154.372 6.82182 154.299 6.79691C154.242 6.77748 154.142 6.8821 153.771 7.19112C153.058 7.70185 152.432 8.55326 151.827 9.37725L151.827 9.37739C151.589 9.70092 151.354 10.0202 151.119 10.313L150.946 10.5101C149.344 12.3395 147.963 13.9175 145.537 12.8941C141.395 11.0696 137.52 8.56534 133.778 5.72126C133.502 6.15094 133.192 6.62392 132.881 7.09689C132.571 7.56959 132.261 8.04227 131.986 8.47171C131.776 8.8218 131.566 9.19361 131.352 9.57349L131.352 9.57368C130.728 10.6826 130.065 11.8602 129.231 12.7673C127.193 14.9834 124.889 13.2016 122.912 11.6727L122.912 11.6725C122.716 11.521 122.523 11.372 122.334 11.2296C121.662 10.7576 121.027 10.2842 120.391 9.81067C119.755 9.33718 119.119 8.86369 118.447 8.39178C118.218 8.23069 117.908 7.9636 117.555 7.65899L117.555 7.65895L117.555 7.6589C116.529 6.77372 115.136 5.57176 114.275 5.73341C113.901 5.85843 113.418 6.41295 113.011 6.88199C112.792 7.13338 112.595 7.36023 112.447 7.48323C112.168 7.8294 111.852 8.13546 111.536 8.44152L111.535 8.44161C111.219 8.74764 110.903 9.05368 110.624 9.39982C109.992 10.012 109.395 10.6225 108.799 11.2331C108.203 11.8436 107.606 12.4541 106.974 13.0662C106.138 14.1047 104.969 13.9885 104.219 13.353C104.213 13.1862 104.067 13.1925 104.067 13.1925C103.02 12.4029 101.936 11.615 100.852 10.827L100.852 10.8266L100.851 10.8261C99.7676 10.0382 98.684 9.25025 97.6368 8.46077C97.5294 8.40497 97.3228 8.24404 97.0891 8.06201L97.089 8.06192C96.6772 7.74109 96.1813 7.35475 95.9958 7.3628C95.9958 7.3628 95.7234 7.87575 95.5781 7.88206C94.8986 8.13743 94.1057 8.93213 93.4014 9.63805C93.0639 9.97631 92.7467 10.2942 92.4721 10.5226C92.2005 10.7686 91.9249 11.0302 91.6443 11.2966L91.6442 11.2966C90.3237 12.5502 88.8906 13.9104 87.2228 14.2584C85.3459 14.674 83.4204 13.7555 81.7795 12.6575C81.2082 12.3258 80.6143 11.9189 80.0029 11.5001C77.75 9.9567 75.2595 8.25058 72.7879 9.5404C71.8223 10.058 70.8721 10.9984 69.8966 11.9638C68.1316 13.7103 66.2837 15.539 64.1117 15.0955C62.7142 14.9107 61.441 13.8179 60.2704 12.8133L60.2704 12.8133C59.8485 12.4511 59.4399 12.1005 59.0437 11.8079C58.7615 11.6304 58.4679 11.4233 58.1646 11.2095C56.8664 10.2942 55.3904 9.25358 53.8788 9.86085C52.6506 10.3915 51.4303 11.1399 50.21 11.8883C49.2947 12.4497 48.3795 13.011 47.4609 13.4804C47.3741 13.5265 47.2876 13.5726 47.2014 13.6186C45.5876 14.4787 44.0829 15.2806 42.2781 15.0419C40.5222 14.7841 38.5906 13.6988 36.9497 12.6008C36.3286 12.1422 35.7284 11.5675 35.1325 10.9969L35.1325 10.9969C34.2936 10.1936 33.4635 9.39877 32.5961 8.94813C31.4117 8.20263 29.944 9.79317 28.8262 11.0045C28.5384 11.3165 28.2737 11.6033 28.0431 11.8185C26.6263 12.8823 25.0582 13.7856 23.3083 13.6946C20.7505 13.6929 18.6712 12.2204 16.5843 10.7426L16.5843 10.7426C15.5836 10.0339 14.5812 9.32411 13.5235 8.77458C10.2599 7.07897 6.04575 7.26206 4.15081 11.1862C2.80075 14.0845 -1.0684 11.7471 0.281668 8.8488C2.44905 4.41166 6.74179 2.38774 10.9802 2.87174C13.3173 3.10427 15.3881 4.01652 17.3257 5.26863C17.8927 5.61515 18.4475 6.02952 19.0064 6.44692C20.2081 7.34449 21.4287 8.2561 22.8297 8.53728C24.4296 8.987 25.6161 7.73977 26.793 6.50271C27.1305 6.14793 27.4672 5.79398 27.8127 5.48115C29.2173 4.08382 31.0761 3.16787 32.9834 3.58612C34.4189 3.87422 35.5258 4.91198 36.625 5.94254C37.0974 6.38547 37.5684 6.82707 38.0635 7.20725C38.1412 7.26463 38.221 7.32371 38.3025 7.38418C39.7912 8.48742 41.8961 10.0474 43.5493 9.97557C44.4826 9.81526 45.5466 9.1341 46.4424 8.56068L46.4425 8.5606C46.7961 8.33425 47.1234 8.1247 47.4061 7.97059L50.4032 6.33704C50.4946 6.28362 50.5856 6.23022 50.6764 6.17698C52.4252 5.15132 54.0643 4.19001 56.0098 4.42307C58.0624 4.835 59.8547 6.09342 61.6469 7.35183L61.647 7.35186C62.0951 7.66646 62.5068 7.98265 62.9185 8.29883C63.3303 8.61502 63.742 8.9312 64.1901 9.24581C64.3426 9.36076 64.4699 9.46264 64.5792 9.55012L64.5796 9.55042C65.2209 10.0636 65.2422 10.0806 66.0853 9.33051C66.5862 8.91388 67.0781 8.4786 67.5688 8.04443C69.9843 5.90724 72.3694 3.7969 75.6455 4.07105C78.0522 4.28416 80.0306 5.58994 82.0236 6.90526C83.1744 7.66477 84.33 8.42746 85.5756 8.9848C86.611 9.44092 87.1923 9.41567 88.0399 8.71069C88.7422 8.01203 89.5899 7.30705 90.4375 6.60208C90.8192 6.25644 91.2082 5.86998 91.6057 5.47506C92.8225 4.26616 94.1192 2.97798 95.5294 2.53899C97.2104 2.04815 98.6432 3.07758 100.024 4.06978L100.024 4.07002C100.3 4.26779 100.573 4.46407 100.846 4.64653C101.301 4.96622 101.746 5.27555 102.185 5.57989L102.185 5.58001C103.472 6.47365 104.697 7.32426 105.926 8.26766C106.909 7.30644 107.857 6.34679 108.804 5.38714L108.805 5.38647L108.805 5.3858C109.753 4.42615 110.7 3.4665 111.684 2.50527C114.36 0.0504806 116.866 0.943791 119.41 2.83774C120.349 3.42901 121.233 4.08911 122.095 4.73281L122.095 4.73288C122.6 5.10981 123.097 5.48111 123.594 5.82966C123.945 6.10816 124.297 6.41531 124.654 6.72576C125.513 7.47447 126.394 8.24235 127.336 8.67375L127.475 8.50066C127.608 8.1608 127.747 7.98771 127.887 7.81463L129.539 5.23726C130.021 4.46468 130.503 3.73379 130.986 3.0029C131.469 2.27202 131.952 1.54113 132.433 0.768553C132.99 0.0762032 134.286 -0.314167 135.037 0.32136L135.037 0.321495C137.283 2.06126 139.53 3.80101 141.909 5.20092L145.034 7.06961C145.231 7.17235 145.445 7.25587 145.658 7.33938L145.658 7.33944C146.085 7.50651 146.511 7.67357 146.814 7.99449C147.239 7.97601 147.438 8.14641 147.347 8.37734L147.546 8.1297C148.154 7.49084 148.71 6.76143 149.265 6.03202C150.377 4.5732 151.488 3.11438 153.014 2.37994C155.296 1.1115 157.095 2.5367 158.76 4.30176C159.456 4.93412 160.092 5.64213 160.749 6.37396L160.749 6.37417C161.086 6.74918 161.428 7.13043 161.787 7.51096C161.933 7.66588 162.11 7.81949 162.292 7.9784C162.676 8.31328 163.088 8.67172 163.301 9.11556C163.374 9.11241 163.412 9.15252 163.449 9.19263C163.487 9.23275 163.525 9.27287 163.598 9.26971C165.117 7.0322 167.515 4.92359 169.495 3.33423C171.898 1.39239 173.388 2.32989 175.495 4.24279C176.552 5.28242 177.643 6.2788 178.734 7.27517L178.735 7.27574L178.746 7.28589C179.103 7.61184 179.46 7.9378 179.815 8.26529Z" fill="#59C69F"/>
</svg>
