<svg width="97" height="12" viewBox="0 0 97 12" fill="none" xmlns="http://www.w3.org/2000/svg">
<path d="M90.0251 2.76078C91.6139 3.86572 93.0689 4.83038 94.528 5.93963C95.6854 6.62642 97.7 8.31013 96.5 9.55067C95.3 10.7912 93.6419 10.5891 92.9629 10.333C92.9588 10.1884 92.8291 10.1928 92.8291 10.1928C90.9728 8.80727 88.9868 7.42609 87.1305 6.04061C86.867 5.90465 85.9349 5.06733 85.6754 5.07594C85.6754 5.07594 85.4281 5.5183 85.2984 5.52261C84.3985 5.84192 83.2674 7.18191 82.5053 7.78608C81.1108 8.9901 79.5987 10.6322 77.7908 10.9816C76.1126 11.3268 74.4022 10.5153 72.9471 9.55067C70.572 8.18242 67.7673 5.3813 64.95 6.77729C62.5178 8.01578 60.1663 12.1459 57.1628 11.5221C55.4685 11.2889 53.9932 9.60133 52.6679 8.63235C51.3466 7.80796 49.7456 6.26928 48.0756 6.9036C46.1501 7.69112 44.2407 9.05696 42.3193 9.98906C40.783 10.7637 39.3763 11.5339 37.682 11.3008C36.1174 11.0633 34.4029 10.1073 32.9479 9.1426C31.6225 8.17363 30.4107 6.62202 29.0934 5.94221C27.7721 5.11781 26.0207 7.49139 25.0073 8.39334C23.7344 9.3039 22.3277 10.0742 20.7672 9.9813C17.3907 9.94873 14.9752 7.13468 12.0772 5.63909C9.17913 4.14349 5.41753 4.26842 3.6944 7.65407C2.4659 10.155 -0.967104 8.09832 0.261395 5.59738C2.23184 1.76938 6.07876 0.0497652 9.8565 0.503149C11.9399 0.723379 13.7801 1.53054 15.4986 2.63118C17.0834 3.59154 18.5546 5.13452 20.3827 5.50795C22.2147 6.02595 23.4594 4.10334 24.8539 2.89931C26.1187 1.6996 27.7848 0.920693 29.4831 1.29843C31.3112 1.67185 32.527 3.36803 33.9861 4.47728C35.3115 5.44626 37.3015 6.97201 38.858 6.92032C40.0214 6.73696 41.42 5.67752 42.3158 5.21362L45.0034 3.82194C46.6655 2.89846 48.1978 1.97928 50.0218 2.20813C51.8498 2.58155 53.4386 3.68649 55.0275 4.79143C55.8219 5.3439 56.4865 5.90068 57.281 6.45315C58.2091 7.14589 58.0834 7.29478 58.9712 6.54173C61.6386 4.42714 64.0305 1.74285 67.5448 2.06028C70.9294 2.382 73.3408 5.05147 76.3645 6.39818C77.2846 6.80176 77.8035 6.78453 78.5656 6.18036C79.198 5.58051 79.9601 4.97634 80.7222 4.37217C82.1168 3.16815 83.6249 1.3815 85.299 0.891751C87.1028 0.3977 88.57 1.79611 90.0251 2.76078Z" fill="#F7C300"/>
</svg>
