<svg width="126" height="15" viewBox="0 0 126 15" fill="none" xmlns="http://www.w3.org/2000/svg">
<path d="M125.51 10.7507C124.066 8.65161 122.524 6.7243 121.08 4.6252C119.639 2.69292 118.617 1.74169 116.947 3.66125C115.571 5.23224 113.904 7.31862 112.842 9.54199C112.742 9.54696 112.739 9.38014 112.638 9.38511C112.425 8.72776 111.915 8.25215 111.604 7.76659C110.881 6.63363 110.257 5.4957 109.537 4.52956C108.399 2.74919 107.168 1.30743 105.586 2.55473C104 3.6352 103.047 6.35407 101.778 8.25374C101.681 8.42553 101.584 8.59732 101.487 8.76912C101.781 8.42056 101.675 8.09188 101.274 8.11177C100.964 7.62621 100.459 7.48424 100.052 7.17048C99.3376 6.53799 98.6232 5.90549 97.9089 5.273C96.2765 3.85113 94.7382 2.09064 93.1999 0.330157C92.6861 -0.312279 91.7899 0.0661037 91.4013 0.753278C90.7275 2.28948 90.0506 3.65885 89.3768 5.19505C88.9914 6.04905 88.6059 6.90305 88.2204 7.75704C88.1233 7.92884 88.0261 8.10063 87.9321 8.43925C87.835 8.61104 87.835 8.61104 87.835 8.61104C86.9201 7.98849 86.093 6.69367 85.2721 5.7325C84.351 4.77631 83.4268 3.65329 82.4054 2.70206C80.6634 0.784691 78.9402 -0.13174 77.0788 2.29822C75.7093 4.20286 74.4402 6.10253 73.0708 8.00717C71.9429 6.72727 70.8181 5.61419 69.5899 4.33926C68.4651 3.22618 67.331 1.61264 65.9366 2.1827C64.6425 2.74779 63.4768 4.80931 62.3988 6.19857C61.8097 6.89568 61.2205 7.5928 60.7317 8.28494C60.1426 8.98206 59.7415 9.00194 59.0303 8.53627C56.6929 6.98237 54.8288 3.90222 52.2125 3.53099C49.496 3.16474 47.6471 6.26199 45.5851 8.7019C44.8989 9.57081 44.996 9.39901 44.2785 8.5997C43.6645 7.96223 43.1506 7.31979 42.5366 6.68233C41.3084 5.4074 40.0802 4.13247 38.6671 3.70159C37.2572 3.43754 36.0727 4.49812 34.7879 5.56368C34.0954 6.09894 33.4029 6.63421 32.7104 7.16947C32.0179 7.70474 30.9368 8.92717 30.0375 9.13873C28.8343 9.19838 27.296 7.4379 26.2715 6.31985C25.1436 5.03995 24.2037 3.08281 22.7906 2.65194C21.4778 2.21609 20.1899 3.11482 19.2122 4.49911C18.1343 5.88837 17.1721 8.10678 15.7559 7.50908C14.3428 7.0782 13.2056 5.29783 11.9805 4.18972C10.6521 2.91976 9.22965 1.98842 7.61914 1.73431C4.69892 1.21117 1.72522 3.19535 0.20206 7.61227C-0.747577 10.498 1.90616 12.8711 2.85579 9.98537C4.18778 6.07886 7.09552 5.9347 9.33571 7.66039C11.5759 9.38608 13.4431 12.6331 16.0532 12.6706C17.2595 12.7778 18.3468 11.889 19.3308 10.8384C20.1142 9.79767 21.468 7.05892 22.4894 8.01014C23.5077 8.79455 24.4444 10.5849 25.4689 11.7029C26.5937 12.816 27.919 13.9191 29.1284 14.1931C30.4381 14.4621 31.5255 13.5734 32.7131 12.6796C34.1984 11.6041 35.6743 10.0281 37.1627 9.11945C38.4537 8.38754 39.6912 10.1629 40.7126 11.1142C41.7371 12.2322 42.8775 14.1794 44.1872 14.4484C46.5089 15.1682 48.3266 10.4027 50.2068 8.97371C52.3846 7.36294 54.5526 10.595 56.3886 12.1738C57.5133 13.2868 58.8355 14.2232 60.1328 13.8249C61.5303 13.4216 62.6991 11.5269 63.7771 10.1377C64.3662 9.44057 65.2406 7.89443 65.9362 7.52599C66.0365 7.52102 66.2276 7.01061 66.2276 7.01061C66.4282 7.00067 67.1488 7.96681 67.3524 8.12369C68.7874 9.72232 70.3225 11.316 71.7575 12.9146C71.7575 12.9146 71.8577 12.9096 71.8609 13.0765C72.3747 13.7189 73.1799 13.846 73.7628 12.8152C74.6434 11.6027 75.4237 10.3952 76.3043 9.18269C76.6928 8.49551 77.1848 7.97019 77.5734 7.28302C77.868 6.93446 78.4477 5.73688 78.8457 5.55017C79.6447 5.34358 81.0921 7.60951 81.7062 8.24697C82.6273 9.20317 83.4482 10.1643 84.3693 11.1205C85.8042 12.7192 87.5555 15.137 89.1161 12.722C89.8964 11.5144 90.4669 9.81638 91.0435 8.45197C91.429 7.59798 91.9116 6.57219 92.2971 5.71819C94.8599 8.59672 97.5167 11.1366 100.362 12.9993C102.088 14.0826 103.059 12.3647 104.228 10.47C104.811 9.43919 105.388 8.07479 106.077 7.3727C106.666 6.67558 106.272 7.02911 106.782 7.50473C107.089 7.82346 107.506 8.63769 107.816 9.12324C108.54 10.2562 109.163 11.3941 109.884 12.3603C110.401 13.1695 111.024 14.3075 111.735 14.7731C113.358 15.6945 114.321 13.4761 115.395 11.9201C116.079 10.8843 116.762 9.8486 117.545 8.80789C117.545 8.80789 118.134 8.11078 118.429 7.76222C118.532 7.92407 118.636 8.08592 118.739 8.24778C120.183 10.3469 121.725 12.2742 123.169 14.3733C124.914 16.4575 126.954 12.8498 125.51 10.7507Z" fill="#59C69F"/>
</svg>
