<svg width="152" height="13" viewBox="0 0 152 13" fill="none" xmlns="http://www.w3.org/2000/svg">
<path d="M151.409 9.31728C149.666 7.49806 147.807 5.82773 146.065 4.00851C144.326 2.33386 143.094 1.50947 141.079 3.17308C139.42 4.53461 137.408 6.3428 136.127 8.26972C136.006 8.27403 136.002 8.12945 135.881 8.13376C135.624 7.56406 135.008 7.15186 134.634 6.73105C133.761 5.74915 133.009 4.76294 132.14 3.92562C130.768 2.38263 129.282 1.13311 127.373 2.2141C125.461 3.1505 124.311 5.50686 122.78 7.15324C122.663 7.30213 122.546 7.45101 122.429 7.5999C122.784 7.29782 122.655 7.01297 122.172 7.0302C121.797 6.60938 121.189 6.48634 120.698 6.21442C119.836 5.66626 118.974 5.11809 118.112 4.56993C116.143 3.33765 114.287 1.81189 112.432 0.286136C111.812 -0.270642 110.731 0.0572899 110.262 0.652841C109.449 1.98421 108.632 3.17101 107.82 4.50238C107.355 5.24251 106.89 5.98264 106.425 6.72277C106.307 6.87166 106.19 7.02055 106.077 7.31401C105.96 7.4629 105.96 7.4629 105.96 7.4629C104.856 6.92336 103.858 5.80118 102.868 4.96817C101.757 4.13946 100.642 3.16618 99.4097 2.34178C97.3082 0.680066 95.2294 -0.114175 92.9839 1.99179C91.3319 3.64248 89.8008 5.28886 88.1488 6.93955C86.7882 5.8303 85.4313 4.86563 83.9498 3.76069C82.5929 2.79603 81.2247 1.39762 79.5426 1.89167C77.9815 2.38141 76.5751 4.16807 75.2747 5.37209C74.564 5.97626 73.8533 6.58042 73.2636 7.18028C72.5529 7.78445 72.0691 7.80168 71.2111 7.3981C68.3915 6.05139 66.1427 3.38192 62.9866 3.06019C59.7094 2.74277 57.479 5.42706 54.9916 7.54164C54.1637 8.2947 54.2809 8.14581 53.4154 7.45307C52.6746 6.9006 52.0547 6.34382 51.3139 5.79135C49.8324 4.68641 48.3508 3.58147 46.6461 3.20805C44.9452 2.9792 43.5163 3.89837 41.9664 4.82186C41.131 5.28575 40.2956 5.74965 39.4602 6.21354C38.6248 6.67744 37.3206 7.73688 36.2357 7.92024C34.7842 7.97193 32.9285 6.44618 31.6926 5.4772C30.3319 4.36795 29.1982 2.67177 27.4935 2.29835C25.9097 1.92061 24.3561 2.69951 23.1767 3.89923C21.8762 5.10326 20.7156 7.02587 19.0071 6.50787C17.3025 6.13444 15.9305 4.59145 14.4527 3.63109C12.8502 2.53046 11.1342 1.7233 9.19134 1.50307C5.66854 1.04968 2.08122 2.7693 0.243755 6.5973C-0.901839 9.09823 2.29949 11.1549 3.44509 8.65398C5.05193 5.26834 8.55968 5.14341 11.2621 6.63901C13.9646 8.1346 16.2171 10.9486 19.3657 10.9812C20.821 11.0741 22.1327 10.3038 23.3197 9.39326C24.2647 8.49131 25.8979 6.11773 27.1301 6.94213C28.3585 7.62194 29.4885 9.17354 30.7244 10.1425C32.0812 11.1072 33.68 12.0632 35.139 12.3007C36.719 12.5339 38.0307 11.7636 39.4634 10.989C41.2552 10.0569 43.0357 8.69104 44.8312 7.90352C46.3886 7.2692 47.8815 8.80788 49.1136 9.63227C50.3495 10.6012 51.7252 12.2888 53.3052 12.522C56.106 13.1458 58.2988 9.0157 60.5669 7.77721C63.1941 6.38122 65.8094 9.18234 68.0243 10.5506C69.3812 11.5153 70.9762 12.3267 72.5411 11.9816C74.227 11.6321 75.6371 9.99002 76.9375 8.786C77.6482 8.18183 78.7029 6.84184 79.5421 6.52253C79.663 6.51822 79.8937 6.07586 79.8937 6.07586C80.1356 6.06725 81.0049 6.90457 81.2505 7.04053C82.9816 8.42601 84.8335 9.80719 86.5646 11.1927C86.5646 11.1927 86.6855 11.1884 86.6893 11.3329C87.3091 11.8897 88.2806 11.9998 88.9837 11.1065C90.046 10.0557 90.9873 9.00916 92.0496 7.95833C92.5183 7.36278 93.1118 6.9075 93.5806 6.31195C93.936 6.00986 94.6354 4.97196 95.1154 4.81015C96.0793 4.6311 97.8254 6.5949 98.5662 7.14737C99.6774 7.97608 100.668 8.80909 101.779 9.6378C103.51 11.0233 105.623 13.1187 107.505 11.0257C108.447 9.97917 109.135 8.50753 109.83 7.32504C110.295 6.58491 110.877 5.69589 111.342 4.95576C114.434 7.45049 117.639 9.65176 121.071 11.2661C123.154 12.2049 124.326 10.716 125.736 9.07396C126.439 8.18063 127.135 6.99815 127.966 6.38967C128.677 5.78551 128.201 6.0919 128.817 6.5041C129.187 6.78033 129.69 7.486 130.064 7.90681C130.937 8.88871 131.689 9.87492 132.558 10.7122C133.182 11.4136 133.934 12.3998 134.792 12.8034C136.75 13.6019 137.911 11.6793 139.207 10.3307C140.031 9.43308 140.855 8.53545 141.801 7.63351C141.801 7.63351 142.511 7.02934 142.867 6.72726C142.991 6.86753 143.116 7.0078 143.241 7.14807C144.983 8.96729 146.843 10.6376 148.585 12.4568C150.69 14.2631 153.151 11.1365 151.409 9.31728Z" fill="#F7C300"/>
</svg>
