<svg width="184" height="15" viewBox="0 0 184 15" fill="none" xmlns="http://www.w3.org/2000/svg">
<path d="M183.284 10.7507C181.175 8.65161 178.924 6.7243 176.815 4.6252C174.711 2.69292 173.219 1.74169 170.78 3.66125C168.771 5.23224 166.337 7.31862 164.785 9.54199C164.639 9.54696 164.634 9.38014 164.488 9.38511C164.177 8.72776 163.431 8.25215 162.978 7.76659C161.921 6.63363 161.011 5.4957 159.958 4.52956C158.298 2.74919 156.5 1.30743 154.189 2.55473C151.873 3.6352 150.482 6.35407 148.629 8.25374C148.487 8.42553 148.345 8.59732 148.203 8.76912C148.633 8.42056 148.478 8.09188 147.892 8.11177C147.439 7.62621 146.702 7.48424 146.108 7.17048C145.064 6.53799 144.021 5.90549 142.978 5.273C140.594 3.85113 138.348 2.09064 136.101 0.330157C135.351 -0.312279 134.042 0.0661037 133.475 0.753278C132.491 2.28948 131.503 3.65885 130.519 5.19505C129.956 6.04905 129.393 6.90305 128.83 7.75704C128.688 7.92884 128.546 8.10063 128.409 8.43925C128.267 8.61104 128.267 8.61104 128.267 8.61104C126.931 7.98849 125.723 6.69367 124.524 5.7325C123.179 4.77631 121.83 3.65329 120.338 2.70206C117.794 0.784691 115.278 -0.13174 112.559 2.29822C110.56 4.20286 108.706 6.10253 106.706 8.00717C105.059 6.72727 103.417 5.61419 101.623 4.33926C99.9809 3.22618 98.3247 1.61264 96.2884 2.1827C94.3986 2.74779 92.6962 4.80931 91.122 6.19857C90.2617 6.89568 89.4014 7.5928 88.6875 8.28494C87.8272 8.98206 87.2415 9.00194 86.2029 8.53627C82.7897 6.98237 80.0675 3.90222 76.2469 3.53099C72.2798 3.16474 69.5798 6.26199 66.5688 8.7019C65.5666 9.57081 65.7084 9.39901 64.6607 8.5997C63.764 7.96223 63.0136 7.31979 62.1169 6.68233C60.3234 5.4074 58.5299 4.13247 56.4663 3.70159C54.4073 3.43754 52.6776 4.49812 50.8014 5.56368C49.7901 6.09894 48.7789 6.63421 47.7676 7.16947C46.7563 7.70474 45.1775 8.92717 43.8643 9.13873C42.1072 9.19838 39.8608 7.4379 38.3647 6.31985C36.7176 5.03995 35.3451 3.08281 33.2816 2.65194C31.3644 2.21609 29.4837 3.11482 28.056 4.49911C26.4818 5.88837 25.0768 8.10678 23.0086 7.50908C20.9451 7.0782 19.2843 5.29783 17.4954 4.18972C15.5555 2.91976 13.4782 1.98842 11.1264 1.73431C6.86191 1.21117 2.51937 3.19535 0.295072 7.61227C-1.0917 10.498 2.78359 12.8711 4.17037 9.98537C6.11549 6.07886 10.3617 5.9347 13.6331 7.66039C16.9045 9.38608 19.6312 12.6331 23.4427 12.6706C25.2043 12.7778 26.7922 11.889 28.2291 10.8384C29.3731 9.79767 31.3501 7.05892 32.8417 8.01014C34.3287 8.79455 35.6966 10.5849 37.1927 11.7029C38.8352 12.816 40.7706 13.9191 42.5367 14.1931C44.4493 14.4621 46.0372 13.5734 47.7715 12.6796C49.9405 11.6041 52.0958 10.0281 54.2693 9.11945C56.1546 8.38754 57.9618 10.1629 59.4533 11.1142C60.9494 12.2322 62.6147 14.1794 64.5273 14.4484C67.9178 15.1682 70.5723 10.4027 73.3178 8.97371C76.4981 7.36294 79.6641 10.595 82.3452 12.1738C83.9877 13.2868 85.9185 14.2232 87.8129 13.8249C89.8537 13.4216 91.5606 11.5269 93.1348 10.1377C93.9951 9.44057 95.2719 7.89443 96.2878 7.52599C96.4342 7.52102 96.7134 7.01061 96.7134 7.01061C97.0062 7.00067 98.0585 7.96681 98.3559 8.12369C100.451 9.72232 102.693 11.316 104.789 12.9146C104.789 12.9146 104.935 12.9096 104.94 13.0765C105.69 13.7189 106.866 13.846 107.717 12.8152C109.003 11.6027 110.143 10.3952 111.428 9.18269C111.996 8.49551 112.714 7.97019 113.282 7.28302C113.712 6.93446 114.559 5.73688 115.14 5.55017C116.307 5.34358 118.42 7.60951 119.317 8.24697C120.662 9.20317 121.861 10.1643 123.206 11.1205C125.301 12.7192 127.859 15.137 130.138 12.722C131.277 11.5144 132.11 9.81638 132.952 8.45197C133.515 7.59798 134.22 6.57219 134.783 5.71819C138.526 8.59672 142.405 11.1366 146.56 12.9993C149.081 14.0826 150.5 12.3647 152.207 10.47C153.058 9.43919 153.9 8.07479 154.907 7.3727C155.767 6.67558 155.19 7.02911 155.936 7.50473C156.384 7.82346 156.993 8.63769 157.446 9.12324C158.503 10.2562 159.413 11.3941 160.465 12.3603C161.22 13.1695 162.131 14.3075 163.169 14.7731C165.539 15.6945 166.944 13.4761 168.514 11.9201C169.512 10.8843 170.509 9.8486 171.653 8.80789C171.653 8.80789 172.514 8.11078 172.944 7.76222C173.095 7.92407 173.246 8.08592 173.397 8.24778C175.506 10.3469 177.757 12.2742 179.866 14.3733C182.414 16.4575 185.393 12.8498 183.284 10.7507Z" fill="#59C69F"/>
</svg>
