<svg width="165" height="12" viewBox="0 0 165 12" fill="none" xmlns="http://www.w3.org/2000/svg">
<path d="M164.358 8.60057C162.467 6.92129 160.448 5.37944 158.557 3.70016C156.67 2.15434 155.332 1.39335 153.145 2.929C151.344 4.18579 149.16 5.85489 147.769 7.63359C147.638 7.63757 147.634 7.50411 147.503 7.50809C147.224 6.98221 146.555 6.60172 146.149 6.21327C145.201 5.3069 144.385 4.39656 143.441 3.62365C141.952 2.19935 140.339 1.04595 138.267 2.04378C136.191 2.90816 134.943 5.08325 133.281 6.60299C133.154 6.74042 133.027 6.87786 132.899 7.01529C133.285 6.73645 133.146 6.47351 132.621 6.48941C132.214 6.10097 131.554 5.9874 131.02 5.73639C130.085 5.23039 129.149 4.72439 128.214 4.2184C126.076 3.0809 124.062 1.67251 122.047 0.264126C121.375 -0.249823 120.201 0.052883 119.692 0.602622C118.81 1.83158 117.923 2.92708 117.041 4.15604C116.536 4.83924 116.032 5.52244 115.527 6.20563C115.4 6.34307 115.272 6.4805 115.149 6.7514C115.022 6.88883 115.022 6.88883 115.022 6.88883C113.824 6.39079 112.741 5.35494 111.666 4.586C110.46 3.82104 109.249 2.92263 107.912 2.16165C105.631 0.627753 103.374 -0.105392 100.936 1.83858C99.1432 3.36229 97.4812 4.88203 95.6879 6.40574C94.2109 5.38182 92.738 4.49135 91.1297 3.47141C89.6567 2.58095 88.1716 1.29011 86.3456 1.74616C84.6509 2.19823 83.1243 3.84745 81.7127 4.95885C80.9412 5.51655 80.1697 6.07424 79.5296 6.62795C78.7581 7.18565 78.2329 7.20155 77.3015 6.82902C74.2407 5.5859 71.7997 3.12178 68.3736 2.8248C64.8162 2.53179 62.395 5.00959 59.6948 6.96152C58.7961 7.65665 58.9233 7.51921 57.9838 6.87976C57.1796 6.36978 56.5068 5.85584 55.7026 5.34586C54.0943 4.32592 52.486 3.30597 50.6355 2.96127C48.7892 2.75003 47.238 3.5985 45.5556 4.45094C44.6488 4.87916 43.7419 5.30737 42.835 5.73558C41.9282 6.16379 40.5125 7.14174 39.3348 7.31099C37.7592 7.35871 35.7447 5.95032 34.4031 5.05588C32.9261 4.03196 31.6954 2.46625 29.8449 2.12155C28.1257 1.77287 26.4392 2.49186 25.1589 3.59929C23.7472 4.7107 22.4873 6.48542 20.6327 6.00726C18.7823 5.66256 17.293 4.23827 15.6888 3.35178C13.9492 2.33581 12.0864 1.59074 9.97744 1.38745C6.15335 0.968939 2.25922 2.55628 0.264603 6.08982C-0.97897 8.39837 2.49616 10.2968 3.73973 7.98829C5.484 4.86308 9.29176 4.74776 12.2253 6.12831C15.1589 7.50886 17.6041 10.1064 21.022 10.1365C22.6017 10.2222 24.0256 9.51121 25.3141 8.6707C26.34 7.83814 28.1129 5.64713 29.4504 6.40812C30.7839 7.03564 32.0105 8.46789 33.3521 9.36233C34.825 10.2528 36.5606 11.1353 38.1444 11.3545C39.8595 11.5697 41.2834 10.8587 42.8386 10.1437C44.7836 9.28327 46.7163 8.0225 48.6654 7.29556C50.356 6.71003 51.9766 8.13035 53.3141 8.89133C54.6557 9.78577 56.1491 11.3435 57.8642 11.5587C60.9045 12.1346 63.2849 8.32219 65.7469 7.17896C68.5988 5.89035 71.4379 8.47601 73.8422 9.73901C75.3151 10.6295 77.0465 11.3785 78.7453 11.0599C80.5753 10.7373 82.106 9.22156 83.5177 8.11015C84.2891 7.55246 85.4341 6.31555 86.345 6.02079C86.4763 6.01682 86.7267 5.60849 86.7267 5.60849C86.9893 5.60054 87.9329 6.37345 88.1996 6.49895C90.0787 7.77786 92.089 9.05279 93.9681 10.3317C93.9681 10.3317 94.0994 10.3277 94.1035 10.4612C94.7764 10.9751 95.8309 11.0768 96.5942 10.2522C97.7473 9.28217 98.7691 8.31615 99.9222 7.34615C100.431 6.79641 101.075 6.37615 101.584 5.82641C101.97 5.54757 102.729 4.5895 103.25 4.44014C104.297 4.27486 106.192 6.0876 106.996 6.59758C108.202 7.36253 109.277 8.13147 110.484 8.89643C112.363 10.1753 114.656 12.1096 116.7 10.1776C117.722 9.21154 118.468 7.8531 119.224 6.76158C119.728 6.07838 120.36 5.25775 120.865 4.57455C124.221 6.87738 127.7 8.90932 131.426 10.3995C133.687 11.2661 134.959 9.89172 136.49 8.37596C137.253 7.55135 138.008 6.45983 138.911 5.89816C139.682 5.34047 139.165 5.62329 139.834 6.00378C140.236 6.25877 140.782 6.91015 141.188 7.29859C142.136 8.20496 142.952 9.11531 143.896 9.88822C144.572 10.5356 145.389 11.446 146.32 11.8185C148.446 12.5556 149.706 10.7809 151.113 9.53605C152.008 8.70746 152.902 7.87888 153.928 7.04631C153.928 7.04631 154.7 6.48862 155.085 6.20978C155.221 6.33926 155.356 6.46874 155.492 6.59822C157.383 8.2775 159.401 9.81935 161.293 11.4986C163.578 13.166 166.25 10.2799 164.358 8.60057Z" fill="#59C69F"/>
</svg>
