<svg width="206" height="13" viewBox="0 0 206 13" fill="none" xmlns="http://www.w3.org/2000/svg">
<path d="M205.199 9.31728C202.837 7.49806 200.317 5.82773 197.956 4.00851C195.6 2.33386 193.93 1.50947 191.199 3.17308C188.95 4.53461 186.225 6.3428 184.488 8.26972C184.324 8.27403 184.319 8.12945 184.155 8.13376C183.806 7.56406 182.972 7.15186 182.464 6.73105C181.281 5.74915 180.262 4.76294 179.084 3.92562C177.225 2.38263 175.212 1.13311 172.624 2.2141C170.032 3.1505 168.474 5.50686 166.399 7.15324C166.241 7.30213 166.082 7.45101 165.923 7.5999C166.405 7.29782 166.23 7.01297 165.575 7.0302C165.068 6.60938 164.243 6.48634 163.577 6.21442C162.409 5.66626 161.241 5.11809 160.073 4.56993C157.405 3.33765 154.889 1.81189 152.374 0.286136C151.534 -0.270642 150.069 0.0572899 149.434 0.652841C148.332 1.98421 147.226 3.17101 146.124 4.50238C145.494 5.24251 144.864 5.98264 144.233 6.72277C144.075 6.87166 143.916 7.02055 143.762 7.31401C143.603 7.4629 143.603 7.4629 143.603 7.4629C142.107 6.92336 140.755 5.80118 139.413 4.96817C137.907 4.13946 136.396 3.16618 134.726 2.34178C131.878 0.680066 129.061 -0.114175 126.018 1.99179C123.779 3.64248 121.704 5.28886 119.465 6.93955C117.621 5.8303 115.782 4.86563 113.774 3.76069C111.935 2.79603 110.081 1.39762 107.801 1.89167C105.685 2.38141 103.779 4.16807 102.017 5.37209C101.054 5.97626 100.091 6.58042 99.2915 7.18028C98.3283 7.78445 97.6726 7.80168 96.5098 7.3981C92.6884 6.05139 89.6408 3.38192 85.3634 3.06019C80.922 2.74277 77.8992 5.42706 74.5281 7.54164C73.4061 8.2947 73.5649 8.14581 72.3919 7.45307C71.3879 6.9006 70.5479 6.34382 69.5439 5.79135C67.536 4.68641 65.528 3.58147 63.2177 3.20805C60.9125 2.9792 58.976 3.89837 56.8755 4.82186C55.7433 5.28575 54.6111 5.74965 53.4789 6.21354C52.3467 6.67744 50.5792 7.73688 49.1089 7.92024C47.1418 7.97193 44.6268 6.44618 42.9518 5.4772C41.1078 4.36795 39.5712 2.67177 37.2609 2.29835C35.1145 1.92061 33.009 2.69951 31.4105 3.89923C29.6481 5.10326 28.0751 7.02587 25.7597 6.50787C23.4494 6.13444 21.5901 4.59145 19.5872 3.63109C17.4153 2.53046 15.0897 1.7233 12.4567 1.50307C7.68236 1.04968 2.8206 2.7693 0.330352 6.5973C-1.22223 9.09823 3.11642 11.1549 4.669 8.65398C6.84669 5.26834 11.6006 5.14341 15.2631 6.63901C18.9257 8.1346 21.9784 10.9486 26.2456 10.9812C28.2179 11.0741 29.9956 10.3038 31.6043 9.39326C32.8851 8.49131 35.0985 6.11773 36.7684 6.94213C38.4332 7.62194 39.9646 9.17354 41.6396 10.1425C43.4785 11.1072 45.6453 12.0632 47.6227 12.3007C49.7639 12.5339 51.5416 11.7636 53.4833 10.989C55.9116 10.0569 58.3246 8.69104 60.7581 7.90352C62.8687 7.2692 64.892 8.80788 66.5619 9.63227C68.2369 10.6012 70.1013 12.2888 72.2425 12.522C76.0384 13.1458 79.0102 9.0157 82.0841 7.77721C85.6446 6.38122 89.1891 9.18234 92.1908 10.5506C94.0297 11.5153 96.1914 12.3267 98.3123 11.9816C100.597 11.6321 102.508 9.99002 104.271 8.786C105.234 8.18183 106.663 6.84184 107.8 6.52253C107.964 6.51822 108.277 6.07586 108.277 6.07586C108.605 6.06725 109.783 6.90457 110.116 7.04053C112.462 8.42601 114.972 9.80719 117.318 11.1927C117.318 11.1927 117.482 11.1884 117.487 11.3329C118.327 11.8897 119.643 11.9998 120.596 11.1065C122.036 10.0557 123.312 9.00916 124.751 7.95833C125.387 7.36278 126.191 6.9075 126.826 6.31195C127.308 6.00986 128.256 4.97196 128.906 4.81015C130.213 4.6311 132.579 6.5949 133.583 7.14737C135.089 7.97608 136.431 8.80909 137.937 9.6378C140.283 11.0233 143.146 13.1187 145.698 11.0257C146.974 9.97917 147.906 8.50753 148.849 7.32504C149.479 6.58491 150.268 5.69589 150.898 4.95576C155.088 7.45049 159.432 9.65176 164.083 11.2661C166.906 12.2049 168.494 10.716 170.405 9.07396C171.358 8.18063 172.301 6.99815 173.428 6.38967C174.391 5.78551 173.746 6.0919 174.581 6.5041C175.083 6.78033 175.764 7.486 176.271 7.90681C177.454 8.88871 178.473 9.87492 179.651 10.7122C180.497 11.4136 181.516 12.3998 182.679 12.8034C185.332 13.6019 186.905 11.6793 188.662 10.3307C189.779 9.43308 190.896 8.53545 192.177 7.63351C192.177 7.63351 193.14 7.02934 193.622 6.72726C193.791 6.86753 193.96 7.0078 194.129 7.14807C196.49 8.96729 199.01 10.6376 201.372 12.4568C204.225 14.2631 207.56 11.1365 205.199 9.31728Z" fill="#F7C300"/>
</svg>
