<svg width="115" height="15" viewBox="0 0 115 15" fill="none" xmlns="http://www.w3.org/2000/svg">
<path d="M114.553 10.7507C113.235 8.65161 111.828 6.7243 110.509 4.6252C109.194 2.69292 108.262 1.74169 106.737 3.66125C105.482 5.23224 103.96 7.31862 102.991 9.54199C102.899 9.54696 102.896 9.38014 102.805 9.38511C102.61 8.72776 102.144 8.25215 101.861 7.76659C101.201 6.63363 100.632 5.4957 99.974 4.52956C98.936 2.74919 97.8123 1.30743 96.368 2.55473C94.9208 3.6352 94.0512 6.35407 92.8929 8.25374C92.8042 8.42553 92.7156 8.59732 92.6269 8.76912C92.8957 8.42056 92.7985 8.09188 92.4325 8.11177C92.1494 7.62621 91.689 7.48424 91.3172 7.17048C90.6653 6.53799 90.0133 5.90549 89.3613 5.273C87.8715 3.85113 86.4674 2.09064 85.0634 0.330157C84.5944 -0.312279 83.7765 0.0661037 83.4219 0.753278C82.8069 2.28948 82.1891 3.65885 81.5741 5.19505C81.2223 6.04905 80.8705 6.90305 80.5186 7.75704C80.43 7.92884 80.3413 8.10063 80.2555 8.43925C80.1668 8.61104 80.1668 8.61104 80.1668 8.61104C79.3318 7.98849 78.5769 6.69367 77.8277 5.7325C76.987 4.77631 76.1435 3.65329 75.2113 2.70206C73.6214 0.784691 72.0486 -0.13174 70.3497 2.29822C69.0998 4.20286 67.9414 6.10253 66.6916 8.00717C65.6621 6.72727 64.6356 5.61419 63.5146 4.33926C62.488 3.22618 61.4529 1.61264 60.1803 2.1827C58.9991 2.74779 57.9351 4.80931 56.9513 6.19857C56.4136 6.89568 55.8759 7.5928 55.4297 8.28494C54.892 8.98206 54.526 9.00194 53.8768 8.53627C51.7435 6.98237 50.0422 3.90222 47.6543 3.53099C45.1749 3.16474 43.4874 6.26199 41.6055 8.7019C40.9791 9.57081 41.0678 9.39901 40.4129 8.5997C39.8525 7.96223 39.3835 7.31979 38.8231 6.68233C37.7021 5.4074 36.5812 4.13247 35.2914 3.70159C34.0046 3.43754 32.9235 4.49812 31.7509 5.56368C31.1188 6.09894 30.4868 6.63421 29.8547 7.16947C29.2227 7.70474 28.236 8.92717 27.4152 9.13873C26.317 9.19838 24.913 7.4379 23.9779 6.31985C22.9485 5.03995 22.0907 3.08281 20.801 2.65194C19.6028 2.21609 18.4273 3.11482 17.535 4.49911C16.5511 5.88837 15.673 8.10678 14.3804 7.50908C13.0907 7.0782 12.0527 5.29783 10.9346 4.18972C9.72216 2.91976 8.42389 1.98842 6.95398 1.73431C4.28869 1.21117 1.57461 3.19535 0.18442 7.61227C-0.682313 10.498 1.73975 12.8711 2.60648 9.98537C3.82218 6.07886 6.47607 5.9347 8.52069 7.66039C10.5653 9.38608 12.2695 12.6331 14.6517 12.6706C15.7527 12.7778 16.7451 11.889 17.6432 10.8384C18.3582 9.79767 19.5938 7.05892 20.526 8.01014C21.4554 8.79455 22.3104 10.5849 23.2454 11.7029C24.272 12.816 25.4816 13.9191 26.5855 14.1931C27.7808 14.4621 28.7732 13.5734 29.8572 12.6796C31.2128 11.6041 32.5599 10.0281 33.9183 9.11945C35.0966 8.38754 36.2261 10.1629 37.1583 11.1142C38.0934 12.2322 39.1342 14.1794 40.3296 14.4484C42.4486 15.1682 44.1077 10.4027 45.8236 8.97371C47.8113 7.36294 49.79 10.595 51.4658 12.1738C52.4923 13.2868 53.6991 14.2232 54.8831 13.8249C56.1586 13.4216 57.2254 11.5269 58.2093 10.1377C58.747 9.44057 59.545 7.89443 60.1799 7.52599C60.2714 7.52102 60.4459 7.01061 60.4459 7.01061C60.6289 7.00067 61.2866 7.96681 61.4724 8.12369C62.7821 9.72232 64.1833 11.316 65.4929 12.9146C65.4929 12.9146 65.5844 12.9096 65.5873 13.0765C66.0563 13.7189 66.7912 13.846 67.3232 12.8152C68.1269 11.6027 68.8391 10.3952 69.6428 9.18269C69.9974 8.49551 70.4465 7.97019 70.8011 7.28302C71.07 6.93446 71.5991 5.73688 71.9623 5.55017C72.6916 5.34358 74.0126 7.60951 74.5731 8.24697C75.4138 9.20317 76.163 10.1643 77.0037 11.1205C78.3134 12.7192 79.9118 15.137 81.3362 12.722C82.0483 11.5144 82.569 9.81638 83.0953 8.45197C83.4471 7.59798 83.8876 6.57219 84.2394 5.71819C86.5785 8.59672 89.0034 11.1366 91.5999 12.9993C93.1756 14.0826 94.0622 12.3647 95.1291 10.47C95.6611 9.43919 96.1874 8.07479 96.8166 7.3727C97.3543 6.67558 96.9939 7.02911 97.46 7.50473C97.7403 7.82346 98.1206 8.63769 98.4036 9.12324C99.0642 10.2562 99.6332 11.3941 100.291 12.3603C100.763 13.1695 101.332 14.3075 101.981 14.7731C103.462 15.6945 104.34 13.4761 105.321 11.9201C105.945 10.8843 106.568 9.8486 107.283 8.80789C107.283 8.80789 107.821 8.11078 108.09 7.76222C108.184 7.92407 108.279 8.08592 108.373 8.24778C109.691 10.3469 111.098 12.2742 112.416 14.3733C114.009 16.4575 115.871 12.8498 114.553 10.7507Z" fill="#59C69F"/>
</svg>
