<svg width="107" height="13" viewBox="0 0 107 13" fill="none" xmlns="http://www.w3.org/2000/svg">
<path d="M106.584 9.31728C105.357 7.49806 104.048 5.82773 102.822 4.00851C101.598 2.33386 100.731 1.50947 99.3122 3.17308C98.144 4.53461 96.7283 6.3428 95.8261 8.26972C95.741 8.27403 95.7383 8.12945 95.6532 8.13376C95.4723 7.56406 95.0386 7.15186 94.7752 6.73105C94.1606 5.74915 93.6312 4.76294 93.0193 3.92562C92.0535 2.38263 91.0079 1.13311 89.6641 2.2141C88.3176 3.1505 87.5086 5.50686 86.4308 7.15324C86.3483 7.30213 86.2658 7.45101 86.1833 7.5999C86.4334 7.29782 86.343 7.01297 86.0024 7.0302C85.739 6.60938 85.3106 6.48634 84.9647 6.21442C84.3581 5.66626 83.7515 5.11809 83.1449 4.56993C81.7587 3.33765 80.4523 1.81189 79.146 0.286136C78.7096 -0.270642 77.9486 0.0572899 77.6186 0.652841C77.0464 1.98421 76.4716 3.17101 75.8994 4.50238C75.572 5.24251 75.2447 5.98264 74.9173 6.72277C74.8348 6.87166 74.7523 7.02055 74.6725 7.31401C74.59 7.4629 74.59 7.4629 74.59 7.4629C73.8131 6.92336 73.1107 5.80118 72.4136 4.96817C71.6314 4.13946 70.8465 3.16618 69.9792 2.34178C68.4999 0.680066 67.0365 -0.114175 65.4558 1.99179C64.2928 3.64248 63.2151 5.28886 62.0522 6.93955C61.0943 5.8303 60.1392 4.86563 59.0962 3.76069C58.141 2.79603 57.1779 1.39762 55.9938 1.89167C54.8948 2.38141 53.9049 4.16807 52.9894 5.37209C52.4892 5.97626 51.9889 6.58042 51.5737 7.18028C51.0734 7.78445 50.7328 7.80168 50.1289 7.3981C48.144 6.05139 46.561 3.38192 44.3392 3.06019C42.0323 2.74277 40.4622 5.42706 38.7112 7.54164C38.1284 8.2947 38.2109 8.14581 37.6016 7.45307C37.0801 6.9006 36.6438 6.34382 36.1223 5.79135C35.0794 4.68641 34.0364 3.58147 32.8364 3.20805C31.639 2.9792 30.6332 3.89837 29.5421 4.82186C28.954 5.28575 28.366 5.74965 27.7779 6.21354C27.1898 6.67744 26.2717 7.73688 25.508 7.92024C24.4863 7.97193 23.1799 6.44618 22.3099 5.4772C21.3521 4.36795 20.554 2.67177 19.354 2.29835C18.2391 1.92061 17.1454 2.69951 16.3151 3.89923C15.3997 5.10326 14.5827 7.02587 13.38 6.50787C12.18 6.13444 11.2143 4.59145 10.1739 3.63109C9.04583 2.53046 7.83788 1.7233 6.47022 1.50307C3.99035 1.04968 1.46507 2.7693 0.171591 6.5973C-0.634848 9.09823 1.61872 11.1549 2.42516 8.65398C3.55629 5.26834 6.02556 5.14341 7.92795 6.63901C9.83033 8.1346 11.416 10.9486 13.6324 10.9812C14.6569 11.0741 15.5802 10.3038 16.4158 9.39326C17.0811 8.49131 18.2308 6.11773 19.0981 6.94213C19.9629 7.62194 20.7583 9.17354 21.6283 10.1425C22.5835 11.1072 23.709 12.0632 24.736 12.3007C25.8483 12.5339 26.7716 11.7636 27.7802 10.989C29.0415 10.0569 30.2948 8.69104 31.5588 7.90352C32.6551 7.2692 33.706 8.80788 34.5734 9.63227C35.4434 10.6012 36.4118 12.2888 37.524 12.522C39.4957 13.1458 41.0393 9.0157 42.6359 7.77721C44.4853 6.38122 46.3264 9.18234 47.8855 10.5506C48.8407 11.5153 49.9635 12.3267 51.0651 11.9816C52.2519 11.6321 53.2445 9.99002 54.1599 8.786C54.6602 8.18183 55.4027 6.84184 55.9934 6.52253C56.0786 6.51822 56.2409 6.07586 56.2409 6.07586C56.4112 6.06725 57.0232 6.90457 57.1961 7.04053C58.4147 8.42601 59.7184 9.80719 60.9369 11.1927C60.9369 11.1927 61.0221 11.1884 61.0247 11.3329C61.461 11.8897 62.1449 11.9998 62.6399 11.1065C63.3876 10.0557 64.0503 9.00916 64.7981 7.95833C65.128 7.36278 65.5458 6.9075 65.8758 6.31195C66.126 6.00986 66.6183 4.97196 66.9563 4.81015C67.6348 4.6311 68.8639 6.5949 69.3854 7.14737C70.1676 7.97608 70.8647 8.80909 71.6469 9.6378C72.8655 11.0233 74.3527 13.1187 75.678 11.0257C76.3406 9.97917 76.825 8.50753 77.3147 7.32504C77.6421 6.58491 78.0519 5.69589 78.3792 4.95576C80.5556 7.45049 82.8118 9.65176 85.2277 11.2661C86.6938 12.2049 87.5188 10.716 88.5114 9.07396C89.0064 8.18063 89.4961 6.99815 90.0815 6.38967C90.5818 5.78551 90.2465 6.0919 90.6802 6.5041C90.9409 6.78033 91.2948 7.486 91.5582 7.90681C92.1727 8.88871 92.7022 9.87492 93.3141 10.7122C93.7531 11.4136 94.2825 12.3998 94.8865 12.8034C96.2647 13.6019 97.0818 11.6793 97.9945 10.3307C98.5747 9.43308 99.1548 8.53545 99.8201 7.63351C99.8201 7.63351 100.32 7.02934 100.571 6.72726C100.658 6.86753 100.746 7.0078 100.834 7.14807C102.06 8.96729 103.369 10.6376 104.596 12.4568C106.078 14.2631 107.81 11.1365 106.584 9.31728Z" fill="#F7C300"/>
</svg>
