<svg width="213" height="16" viewBox="0 0 213 16" fill="none" xmlns="http://www.w3.org/2000/svg">
<path d="M164.482 8.04555C166.627 5.04522 169.922 3.71572 173.181 4.11182C175.319 4.33817 177.213 5.22617 178.986 6.44499C179.504 6.78229 180.012 7.18565 180.523 7.59195C181.622 8.46566 182.739 9.35304 184.02 9.62673C185.484 10.0645 186.569 8.85044 187.645 7.64627L187.646 7.64618C187.954 7.30086 188.262 6.95635 188.578 6.65185C189.863 5.29168 191.563 4.40008 193.308 4.80721C194.621 5.08765 195.634 6.09782 196.639 7.10098C197.071 7.53214 197.502 7.962 197.955 8.33207C198.026 8.38791 198.099 8.44542 198.174 8.50427C199.535 9.57818 201.461 11.0967 202.973 11.0268C203.827 10.8708 204.8 10.2078 205.619 9.64962L205.619 9.64951C205.943 9.42915 206.242 9.22514 206.501 9.07512L209.242 7.485C209.323 7.43474 209.404 7.3845 209.484 7.33441L209.492 7.3292C210.232 6.9952 211.854 6.61922 212.422 7.78731C213.131 9.24743 213.252 10.4972 212.422 10.9151C211.298 11.4316 210.182 12.1602 209.066 12.8887C208.228 13.4351 207.391 13.9815 206.551 14.4385C206.472 14.4834 206.392 14.5282 206.314 14.5729C204.837 15.4102 203.461 16.1908 201.81 15.9584C200.204 15.7075 198.437 14.651 196.936 13.5823C196.368 13.1358 195.819 12.5763 195.274 12.021C194.507 11.2391 193.747 10.4653 192.954 10.0267C191.87 9.30099 190.528 10.8492 189.505 12.0283C189.242 12.332 189 12.6112 188.789 12.8208C187.493 13.8563 186.059 14.7356 184.458 14.647C182.118 14.6453 180.216 13.2119 178.307 11.7734C177.392 11.0836 176.475 10.3926 175.508 9.85773C172.622 8.26222 168.923 8.37557 167.114 11.8353C166.993 13.5471 165.095 15.0646 163.383 13.5913C162.417 12.5795 161.419 11.6098 160.421 10.6401L160.42 10.639C159.421 9.66888 158.423 8.69881 157.456 7.68663L157.041 7.21804L155.878 8.24739C154.848 9.2706 153.951 10.2877 153.053 11.3047C152.817 11.5603 152.586 11.8338 152.353 12.1081L152.353 12.1086C151.195 13.4747 150.023 14.8588 148.224 14.1296C147.43 13.7573 146.714 12.9241 146.095 12.2043L146.095 12.2041C145.976 12.0655 145.86 11.9312 145.748 11.8051C145.111 11.1895 144.529 10.5003 143.928 9.78784C143.62 9.42278 143.307 9.05164 142.979 8.6812C142.845 8.53039 142.697 8.34658 142.543 8.15644L142.543 8.15633C142.219 7.75569 141.872 7.32692 141.594 7.11926C141.212 6.86298 141.208 6.64046 141.141 6.61621C141.089 6.59729 140.998 6.69913 140.658 6.99994C140.006 7.49712 139.434 8.32596 138.88 9.12809C138.662 9.44301 138.448 9.75382 138.232 10.0388L138.074 10.2307C136.609 12.0114 135.345 13.5475 133.126 12.5513C129.338 10.7753 125.793 8.33762 122.37 5.56915C122.118 5.98739 121.834 6.44778 121.55 6.90815L121.55 6.90822L121.549 6.91002C121.266 7.36955 120.982 7.82901 120.731 8.24648C120.539 8.58733 120.347 8.94931 120.151 9.31916L120.151 9.31934C119.58 10.3987 118.974 11.545 118.211 12.4279C116.347 14.5851 114.239 12.8506 112.431 11.3624C112.252 11.2148 112.075 11.0697 111.903 10.931C111.288 10.4716 110.706 10.0107 110.125 9.54985C109.543 9.08895 108.961 8.62805 108.347 8.16868C108.137 8.01189 107.854 7.75192 107.531 7.45543L107.531 7.45533L107.531 7.45527C106.592 6.59362 105.318 5.42364 104.531 5.58099C104.188 5.70268 103.747 6.24245 103.374 6.69903C103.174 6.94374 102.993 7.16455 102.858 7.28428C102.603 7.62125 102.314 7.91917 102.024 8.2171L102.024 8.2172C101.735 8.51509 101.446 8.81298 101.191 9.14991C100.612 9.74576 100.067 10.3401 99.5212 10.9344L99.5212 10.9344C98.9757 11.5287 98.4302 12.123 97.8515 12.7188C97.0872 13.7298 96.0183 13.6166 95.3315 12.998C95.3259 12.8356 95.193 12.8418 95.193 12.8418C94.2348 12.0731 93.2434 11.3059 92.2519 10.5388L92.2513 10.5383C91.2601 9.77131 90.2689 9.00434 89.3109 8.23583C89.2127 8.18151 89.0237 8.02486 88.81 7.84766L88.8099 7.84759C88.4332 7.53529 87.9795 7.15921 87.8099 7.16706C87.8099 7.16706 87.5607 7.66637 87.4278 7.67251C86.8063 7.92109 86.081 8.69467 85.4367 9.38181C85.128 9.71108 84.8379 10.0205 84.5867 10.2428C84.3382 10.4823 84.0861 10.737 83.8294 10.9963L83.8293 10.9964C82.6214 12.2165 81.3106 13.5406 79.785 13.8793C78.0681 14.2839 76.3068 13.3898 74.8058 12.321C74.2833 11.9981 73.74 11.602 73.1807 11.1943C71.1199 9.69199 68.8419 8.03123 66.581 9.28676C65.6978 9.79064 64.8286 10.706 63.9362 11.6457C62.3218 13.3458 60.6314 15.1259 58.6447 14.6942C57.3663 14.5143 56.2017 13.4506 55.1309 12.4726L55.1309 12.4726C54.745 12.1201 54.3712 11.7788 54.0088 11.494C53.7507 11.3212 53.4822 11.1197 53.2047 10.9115L53.2046 10.9115C52.0171 10.0205 50.6671 9.00756 49.2844 9.59869C48.1609 10.1152 47.0446 10.8437 45.9284 11.5723C45.0912 12.1187 44.254 12.6651 43.4137 13.1221C43.3352 13.1664 43.257 13.2108 43.179 13.255L43.1764 13.2565C41.7002 14.0937 40.3238 14.8744 38.6729 14.642C37.0667 14.3911 35.2999 13.3346 33.7989 12.2658C33.2307 11.8194 32.6817 11.2599 32.1366 10.7045C31.3693 9.92265 30.61 9.1489 29.8165 8.71024C28.7331 7.98456 27.3906 9.53281 26.3681 10.7119L26.3681 10.7119C26.1048 11.0156 25.8627 11.2948 25.6517 11.5043C24.3558 12.5398 22.9214 13.4191 21.3207 13.3306C18.981 13.3288 17.079 11.8955 15.1701 10.457L15.1701 10.457C14.2547 9.76719 13.3378 9.07622 12.3703 8.5413C9.38498 6.89077 5.53021 7.06899 3.79685 10.8889C2.56191 13.7101 -0.977291 11.4348 0.257649 8.61354C2.24021 4.29437 6.16689 2.32426 10.0439 2.79539C12.1817 3.02174 14.0759 3.90974 15.8483 5.12856C16.3669 5.46586 16.8744 5.86921 17.3856 6.27551L17.3856 6.27553L17.3856 6.27553C18.4849 7.14924 19.6014 8.03661 20.8829 8.31031C22.3464 8.74807 23.4317 7.534 24.5082 6.32983C24.817 5.98448 25.125 5.63995 25.441 5.33543C26.7258 3.97525 28.4261 3.08365 30.1707 3.49078C31.4839 3.77122 32.4964 4.78139 33.5019 5.78455C33.934 6.21571 34.3648 6.64557 34.8177 7.01564C34.8888 7.07149 34.9617 7.12901 35.0363 7.18786C36.398 8.26177 38.3235 9.78028 39.8357 9.71036C40.6894 9.55432 41.6627 8.89126 42.4821 8.33309L42.4821 8.33304C42.8055 8.1127 43.105 7.9087 43.3636 7.75869L46.1051 6.16857C46.1887 6.11657 46.272 6.06458 46.355 6.01276C47.9547 5.01437 49.454 4.07862 51.2336 4.30548C53.1112 4.70646 54.7507 5.93143 56.3901 7.1564C56.8 7.46264 57.1766 7.77042 57.5532 8.0782C57.9299 8.38598 58.3065 8.69376 58.7164 9C58.856 9.11201 58.9726 9.21127 59.0726 9.29648L59.0727 9.29652C59.6593 9.79606 59.6787 9.81261 60.4499 9.08245C60.9081 8.6769 61.3581 8.25319 61.807 7.83056C64.0164 5.75019 66.1982 3.69595 69.1949 3.96282C71.3964 4.17027 73.2061 5.44133 75.0291 6.72167L75.0292 6.72172C76.0818 7.46103 77.1389 8.20342 78.2783 8.74593C79.2254 9.18993 79.7571 9.16535 80.5324 8.47911C81.1749 7.79903 81.9502 7.11281 82.7255 6.42659L82.7256 6.42656C83.0747 6.09011 83.4305 5.71392 83.7941 5.3295C84.9072 4.15274 86.0933 2.89881 87.3832 2.47149C88.9209 1.9937 90.2315 2.99576 91.4947 3.96158L91.4953 3.96208C91.747 4.1545 91.9968 4.34547 92.2461 4.523C92.6626 4.83419 93.0701 5.13529 93.4711 5.43154C94.6485 6.30146 95.7693 7.12949 96.8931 8.04786C97.793 7.11197 98.6598 6.17762 99.5265 5.24326L99.5277 5.24192C100.394 4.30801 101.26 3.37411 102.16 2.43867C104.608 0.0491385 106.901 0.918699 109.227 2.7623C110.086 3.33782 110.895 3.98035 111.683 4.60691L111.683 4.60699L111.684 4.60712C112.145 4.974 112.6 5.33541 113.054 5.67468C113.376 5.94577 113.698 6.24476 114.024 6.54695C114.81 7.27575 115.616 8.02322 116.477 8.44315L116.605 8.27466C116.726 7.94384 116.854 7.77535 116.981 7.60687L118.493 5.09802C118.933 4.34598 119.375 3.63452 119.817 2.92307C120.258 2.21161 120.7 1.50016 121.14 0.74812C121.65 0.0741773 122.835 -0.305814 123.522 0.312816L123.522 0.312887C125.577 2.00642 127.631 3.69994 129.808 5.06265L132.666 6.88166C132.847 6.98169 133.042 7.06301 133.237 7.14432C133.627 7.30694 134.018 7.46956 134.294 7.78195C134.684 7.76396 134.865 7.92983 134.782 8.15462L134.965 7.91357C135.52 7.29169 136.029 6.58167 136.537 5.87165C137.553 4.45161 138.57 3.03158 139.966 2.31666C142.054 1.08195 143.699 2.46926 145.222 4.1874C145.859 4.8029 146.44 5.49203 147.041 6.20435L147.042 6.20471C147.35 6.56975 147.663 6.94086 147.991 7.31128C148.125 7.46208 148.286 7.6116 148.453 7.76629C148.804 8.09227 149.18 8.44117 149.376 8.87322C149.442 8.87015 149.477 8.90919 149.511 8.94824C149.546 8.98729 149.581 9.02634 149.647 9.02327C151.037 6.84524 153.23 4.79269 155.041 3.24559C157.24 1.35537 158.603 2.26795 160.53 4.12999C161.496 5.14196 162.495 6.11183 163.493 7.08168L163.493 7.08231L163.504 7.09297C163.831 7.40999 164.157 7.72703 164.482 8.04555Z" fill="#59C69F"/>
</svg>
