<svg width="83" height="12" viewBox="0 0 83 12" fill="none" xmlns="http://www.w3.org/2000/svg">
<path d="M77.1362 2.50534C78.4975 3.69413 79.7443 4.73199 80.9945 5.92541C81.9861 6.66431 83.7123 8.47578 82.6841 9.81045C81.6559 11.1451 80.2352 10.9277 79.6534 10.6522C79.6499 10.4966 79.5388 10.5013 79.5388 10.5013C77.9482 9.01064 76.2466 7.52466 74.656 6.03405C74.4303 5.88777 73.6316 4.98691 73.4093 4.99618C73.4093 4.99618 73.1974 5.47211 73.0862 5.47674C72.3152 5.82029 71.346 7.26195 70.693 7.91196C69.4982 9.20735 68.2025 10.974 66.6535 11.35C65.2156 11.7214 63.75 10.8483 62.5033 9.81045C60.4682 8.33838 58.0651 5.32471 55.6511 6.82663C53.5671 8.1591 51.5523 12.6026 48.9788 11.9314C47.5271 11.6806 46.263 9.86495 45.1274 8.82245C43.9953 7.9355 42.6236 6.28007 41.1926 6.96253C39.5428 7.8098 37.9068 9.27928 36.2604 10.2821C34.9441 11.1155 33.7388 11.9442 32.2871 11.6934C30.9465 11.4379 29.4775 10.4093 28.2307 9.37142C27.0951 8.32892 26.0568 6.65958 24.9281 5.92818C23.796 5.04123 22.2953 7.59492 21.427 8.5653C20.3363 9.54495 19.1311 10.3737 17.7939 10.2738C14.9009 10.2387 12.8312 7.21114 10.3481 5.60206C7.86495 3.99298 4.6419 4.12739 3.16547 7.76993C2.11286 10.4606 -0.828644 8.24789 0.223971 5.55719C1.9123 1.43872 5.20846 -0.411377 8.44535 0.0764095C10.2305 0.31335 11.8072 1.18176 13.2797 2.36591C14.6376 3.39914 15.8981 5.05921 17.4645 5.46097C19.0343 6.01828 20.1007 3.94978 21.2956 2.65439C22.3793 1.36364 23.8068 0.525636 25.262 0.932032C26.8284 1.33379 27.8701 3.15868 29.1203 4.3521C30.2559 5.3946 31.9611 7.03613 33.2947 6.98051C34.2915 6.78324 35.4899 5.64341 36.2575 5.14431L38.5603 3.64703C39.9844 2.65347 41.2973 1.66455 42.8602 1.91076C44.4265 2.31252 45.7878 3.5013 47.1492 4.69008C47.8298 5.28448 48.3994 5.8835 49.08 6.47789C49.8753 7.2232 49.7676 7.38339 50.5283 6.57319C52.8138 4.29815 54.8633 1.41018 57.8744 1.75169C60.7744 2.09783 62.8406 4.96986 65.4314 6.41875C66.2198 6.85296 66.6643 6.83442 67.3173 6.18441C67.8592 5.53908 68.5121 4.88912 69.1651 4.23916L69.1652 4.23901C70.3601 2.94363 71.6523 1.0214 73.0867 0.494498C74.6323 -0.0370418 75.8894 1.46748 77.1362 2.50534Z" fill="#F7C300"/>
</svg>
