<svg width="61" height="64" viewBox="0 0 61 64" fill="none" xmlns="http://www.w3.org/2000/svg">
<path d="M56.2202 40.288C51.8257 39.941 48.0094 37.9751 44.1931 35.7778C40.3768 33.4649 36.5605 30.9207 32.9755 28.1452C32.5129 27.7982 31.5877 28.0295 31.3564 28.6078L31.2408 28.7234C25.4585 32.1928 19.4449 35.0839 13.2001 37.3968H13.0844C12.1593 37.6281 11.2341 37.7438 10.3089 37.9751C9.26811 38.2064 9.26811 39.4785 9.96198 39.941C9.96198 40.0567 9.84634 40.1723 9.84634 40.4036C10.3089 47.458 12.5062 54.3967 16.4381 60.4103C17.132 61.4511 17.9415 62.9545 19.4449 62.7232C20.9483 62.4919 22.4517 60.9885 23.7238 60.2947C25.3428 59.4851 26.9619 58.7913 28.8122 58.7913C30.5469 58.7913 32.2816 59.4851 33.785 60.179C36.7918 61.4511 39.6829 62.7232 43.0366 62.2606C44.54 62.0293 46.0434 61.3355 47.4312 60.6416C49.0502 59.8321 50.7849 58.7913 52.057 57.6348C53.2134 56.594 53.7917 54.975 54.4855 53.5872C55.2951 51.7369 55.9889 49.8866 56.5671 47.9206C57.0297 46.3015 57.3767 44.5669 57.608 42.8322C58.1862 41.2131 57.8393 40.4036 56.2202 40.288ZM21.6422 53.5872C21.2952 54.1654 20.717 54.7437 20.0232 54.975C19.9075 55.0906 19.6762 55.0906 19.5606 54.975C19.098 55.2063 18.6354 55.2063 18.1728 55.0906C17.4789 54.8593 16.9007 54.3967 16.7851 53.7029C16.5538 52.662 17.132 51.6212 17.8259 51.043C18.2885 50.6961 18.751 50.4648 19.3293 50.4648C19.9075 50.4648 20.3701 50.6961 20.8327 51.043C21.064 51.043 21.1796 51.043 21.2952 51.1587C21.6422 51.5056 21.7578 51.8525 21.7578 52.3151C21.9891 52.8933 21.8735 53.3559 21.6422 53.5872ZM43.2679 54.1654C42.8053 54.8593 42.1115 55.4375 41.3019 55.5532C40.4924 55.6688 39.4516 55.2063 39.2203 54.3967C38.989 53.7029 39.2203 53.009 39.5672 52.4308C39.9142 51.8525 40.3768 51.3899 40.8394 50.9274C41.0706 50.6961 41.4176 50.6961 41.6489 50.9274C42.3427 50.9274 43.0366 51.3899 43.3836 51.9682C43.7305 52.5464 43.6148 53.4716 43.2679 54.1654Z" fill="#F7C300"/>
<path d="M22.9144 52.1996C22.6831 50.4649 21.2954 49.0771 19.6763 48.6146C19.2137 48.4989 18.6355 48.7302 18.4042 49.0771H18.2886C16.7852 49.5397 15.5131 50.5805 15.0505 52.1996C14.5879 53.703 15.1661 55.4376 16.3226 56.3628C17.0165 56.8254 17.9416 57.0567 18.7512 57.0567C19.5607 57.1723 20.4858 57.1723 21.1797 56.5941C22.5675 55.5533 23.1457 53.8186 22.9144 52.1996ZM20.7171 53.2404C20.7171 53.356 20.7171 53.4717 20.7171 53.4717C20.7171 53.5873 20.6015 53.703 20.6015 53.8186V53.9343C20.6015 54.0499 20.4858 54.1655 20.3702 54.2812L20.2545 54.3968C20.1389 54.5125 20.0233 54.6281 20.0233 54.6281C20.0233 54.6281 19.9076 54.6281 19.9076 54.7438H19.792H19.6763C19.5607 54.7438 19.445 54.7438 19.445 54.7438C19.3294 54.7438 19.0981 54.7438 18.9824 54.7438C18.8668 54.7438 18.8668 54.7438 18.7512 54.7438C18.6355 54.7438 18.5199 54.7438 18.4042 54.6281C18.2886 54.6281 18.2886 54.6281 18.1729 54.6281H18.0573C17.9416 54.6281 17.826 54.5125 17.7103 54.5125L17.5947 54.3968C17.5947 54.3968 17.5947 54.3968 17.5947 54.2812C17.5947 54.2812 17.5947 54.1655 17.4791 54.1655C17.4791 54.1655 17.4791 54.0499 17.3634 54.0499C17.3634 53.9343 17.2478 53.8186 17.2478 53.8186V53.703C17.2478 53.703 17.2478 53.4717 17.2478 53.703C17.2478 53.9343 17.2478 53.4717 17.2478 53.4717V53.356C17.2478 53.2404 17.3634 53.1247 17.3634 53.0091C17.3634 52.8934 17.4791 52.8934 17.4791 52.7778L17.5947 52.6622L17.7103 52.5465C17.826 52.4309 17.826 52.4309 17.9416 52.3152C17.9416 52.3152 18.1729 52.1996 18.1729 52.0839C18.2886 51.9683 18.4042 51.9683 18.5199 51.8526C18.6355 51.737 18.7512 51.737 18.8668 51.6213C18.9825 51.6213 18.9824 51.5057 19.0981 51.5057C19.3294 51.39 19.445 51.2744 19.6763 51.1588C19.6763 51.1588 19.792 51.1588 19.792 51.2744C19.9076 51.2744 20.0233 51.39 20.1389 51.5057L20.2545 51.6213C20.3702 51.737 20.3702 51.737 20.4858 51.8526L20.6015 51.9683C20.7171 52.0839 20.7171 52.1996 20.8328 52.3152C20.8328 52.3152 20.8328 52.3152 20.8328 52.4309V52.5465C20.8328 52.6621 20.9484 52.7778 20.9484 52.8934C20.9484 53.0091 20.9484 53.0091 20.9484 53.1247C20.7171 52.8934 20.7171 53.0091 20.7171 53.2404Z" fill="#1E1E1E"/>
<path d="M29.6218 5.47885C29.6218 5.24756 29.5061 5.01627 29.3905 4.90062C29.3905 4.78498 29.3905 4.66933 29.2748 4.55369V4.43804C29.2748 3.97546 29.2748 3.51288 29.2748 3.05029V2.93465C29.2748 2.819 29.2748 2.70336 29.3905 2.58771C29.3905 2.12513 29.3905 1.77819 29.1592 1.43126C28.6966 0.853027 27.8871 0.853027 27.1932 0.853027H23.6082C23.03 0.853027 22.4517 1.43126 22.4517 2.00948C22.4517 2.12513 22.4517 2.24077 22.5674 2.24077C22.2204 3.51288 22.1048 4.90062 22.1048 6.17272C22.1048 6.75095 22.5674 7.32918 23.2613 7.32918C24.3021 7.32918 25.3429 7.32918 26.3837 7.32918C26.8463 7.32918 27.4245 7.32918 27.8871 7.32918C28.234 7.32918 28.581 7.32918 28.9279 7.09789C29.6218 6.63531 29.7374 6.05708 29.6218 5.47885Z" fill="#F7C300"/>
<path d="M42.574 17.9684C40.2611 17.6214 37.8326 17.7371 35.6353 17.6214C30.3156 17.3901 24.9959 17.1589 19.6762 17.0432C19.098 17.0432 18.751 17.3902 18.6354 17.8527C18.6354 17.8527 18.6354 17.8527 18.5197 17.8527C17.5946 17.8527 17.0164 18.3153 16.6694 18.8935C15.9755 19.2405 15.7442 20.1656 16.3225 20.7439C16.3225 20.9752 16.3225 21.2065 16.3225 21.4377C16.3225 22.1316 16.2068 23.0568 16.7851 23.5194C17.3633 24.0976 18.5197 24.0976 19.2136 24.0976C21.4109 23.9819 23.4925 23.7507 25.8054 23.7507C28.1183 23.7507 30.4312 23.7507 32.7442 23.7507C35.0571 23.7507 37.37 23.7507 39.6829 23.7507C41.3019 23.7507 43.6148 24.3289 44.0774 22.2473C44.3087 20.7439 44.4244 18.1997 42.574 17.9684Z" fill="#F7C300"/>
<path d="M60.2678 59.9478C57.3767 57.8662 53.676 56.3628 50.091 57.5192C52.5195 52.3152 54.0229 46.6485 54.6012 40.9819C54.7168 40.7506 54.8325 40.4037 54.7168 40.0567C54.8325 39.1316 53.9073 38.7846 53.2134 39.0159C51.71 38.5534 50.3223 37.9751 48.9345 37.2812C48.9345 37.1656 48.9345 37.1656 49.0502 37.05C49.1658 34.3901 49.1658 31.7303 49.1658 29.0704C49.1658 26.9888 49.1658 24.2133 46.7373 23.4038C46.2747 23.2881 45.9277 23.1725 45.4652 23.1725C45.8121 21.5534 45.8121 19.9344 45.2339 18.431C45.0026 17.7371 44.6556 17.0433 43.8461 16.812C43.0366 16.5807 41.9958 16.6963 41.1863 16.5807C39.2203 16.465 37.2543 16.465 35.2883 16.465C35.2883 14.9616 35.2883 13.4583 35.2883 11.9549C35.2883 11.4923 35.2883 10.9141 35.0571 10.4515C34.7101 9.98889 34.2475 9.7576 33.7849 9.7576C33.6693 9.7576 33.5537 9.7576 33.5537 9.7576C33.438 9.7576 33.3224 9.64195 33.2067 9.64195C32.9754 9.64195 32.8598 9.64195 32.6285 9.64195C32.5128 9.64195 32.3972 9.64195 32.2816 9.64195C31.819 9.64195 31.3564 9.64195 30.8938 9.64195C30.6625 6.9821 30.6625 4.32225 30.7782 1.66241C30.7782 1.31547 30.6625 0.968532 30.3156 0.852886C30.0843 0.621595 29.7374 0.390304 29.3904 0.390304C26.4993 0.0433671 23.4925 -0.0722785 20.6014 0.0433671C20.0231 0.0433671 19.4449 0.505949 19.4449 1.19982C19.4449 1.77805 20.0231 2.35628 20.6014 2.35628C20.717 2.35628 20.8326 2.35628 20.9483 2.35628C20.8326 3.62838 20.717 5.01613 20.717 6.28823C20.4857 6.28823 20.3701 6.28823 20.1388 6.28823C19.5605 6.28823 18.9823 6.75081 18.9823 7.44469C18.9823 8.02291 19.5605 8.60114 20.1388 8.60114C22.9143 8.36985 25.6898 8.48549 28.4653 8.71679C28.4653 9.06372 28.4653 9.41066 28.4653 9.7576C28.0027 9.7576 27.5401 9.87324 26.9619 9.87324C26.3836 9.98889 25.921 10.1045 25.6898 10.5671C25.3428 11.0297 25.4585 11.6079 25.4585 12.0705C25.4585 13.5739 25.4585 15.0773 25.4585 16.5807C23.4925 16.5807 21.5265 16.5807 19.5605 16.6963C18.751 16.6963 17.7102 16.6963 16.9007 16.9276C16.0912 17.1589 15.7442 17.8528 15.5129 18.5467C14.9347 20.0501 14.9347 21.6691 15.2817 23.2881C14.8191 23.2881 14.3565 23.4038 14.0096 23.5194C11.581 24.3289 11.581 27.1044 11.581 29.1861C11.581 31.8459 11.581 34.5058 11.6966 37.1656C11.6966 37.2812 11.6966 37.2812 11.8123 37.3969C10.4245 37.9751 8.92115 38.5533 7.5334 39.1316C6.83953 38.9003 5.91436 39.2472 6.03 40.1724C5.91436 40.5193 6.03001 40.7506 6.14566 41.0976C6.72388 46.8798 8.22727 52.4308 10.6558 57.6349C7.07081 56.4784 3.48581 57.9818 0.47902 60.0634C-0.677436 60.9886 0.47902 62.9546 1.63548 62.0294C4.75791 59.7165 8.11163 58.56 11.6966 60.6417C14.2408 62.0294 16.5538 64.111 19.6762 63.9954C22.5673 63.8797 24.8802 62.0294 27.3088 60.7573C28.4653 60.0634 29.853 59.4852 31.2407 59.6008C31.7033 59.6008 32.1659 59.8321 32.6285 59.9478C32.7441 60.0634 32.9754 60.0634 33.0911 60.1791C34.0162 60.7573 34.8258 61.3355 35.7509 61.7981C35.8666 61.7981 35.8666 61.9138 35.8666 61.9138C36.3292 62.1451 36.7917 62.3763 37.1387 62.6076C38.4108 63.3015 39.7985 63.8797 41.4176 63.8797C44.4244 63.9954 46.8529 61.9138 49.3971 60.526C52.9821 58.4444 56.3358 59.6008 59.4583 61.9138C60.2678 62.8389 61.4243 60.7573 60.2678 59.9478ZM38.5264 18.778C38.7577 18.778 38.8734 18.778 39.1047 18.778C39.9142 18.778 40.7237 18.778 41.4176 18.8936C41.7645 18.8936 42.1114 18.8936 42.574 18.8936C42.574 18.8936 42.8053 18.8936 42.921 18.8936C43.0366 19.5875 43.2679 20.1657 43.2679 20.8596C43.2679 21.5534 43.1522 22.1317 43.0366 22.7099V22.8255H42.921C41.6489 22.7099 40.2611 22.7099 38.989 22.5943C38.8734 22.5943 38.6421 22.5943 38.5264 22.5943C38.5264 21.7847 38.5264 21.0909 38.6421 20.2813C38.5264 19.8188 38.5264 19.2405 38.5264 18.778ZM36.2135 18.778C36.2135 19.0092 36.2135 19.1249 36.2135 19.3562C36.2135 19.7031 36.2135 20.1657 36.2135 20.5126C36.2135 21.2065 36.0979 21.9004 36.0979 22.5943C34.7101 22.4786 33.3224 22.4786 31.9346 22.363C31.5877 22.363 31.3564 22.363 31.0095 22.363C31.0095 21.7847 31.0095 21.2065 31.1251 20.6283C31.1251 20.397 31.1251 20.1657 31.2407 19.9344C31.2407 19.9344 31.2407 19.8188 31.2407 19.7031C31.2407 19.5875 31.2407 19.5875 31.2407 19.4718C31.2407 19.2405 31.3564 19.0092 31.3564 18.778C31.5877 18.778 31.7033 18.778 31.9346 18.778C33.438 18.778 34.8258 18.778 36.2135 18.778ZM22.7986 5.94129C22.7986 5.36306 22.7986 4.78484 22.7986 4.20661C22.7986 3.85967 22.7986 3.39709 22.9143 3.05015C22.9143 2.81886 22.9143 2.70322 23.0299 2.47192C23.0299 2.47192 23.0299 2.35628 23.0299 2.24063V2.12499C24.7646 2.12499 26.4993 2.24063 28.234 2.47192C28.234 3.74403 28.234 5.01613 28.234 6.28823C26.3836 5.94129 24.5333 5.82565 22.7986 5.94129ZM27.5401 12.6487C27.5401 12.4174 27.5401 12.0705 27.5401 11.8392H27.6557H27.7714C28.0027 11.8392 28.1183 11.8392 28.3496 11.8392C28.6965 11.8392 29.0435 11.8392 29.5061 11.8392H29.6217C30.6625 11.8392 31.7033 11.9549 32.7441 11.9549H32.8598C32.8598 12.1862 32.8598 12.5331 32.8598 12.7644C32.8598 14.0365 32.8598 15.3086 32.8598 16.5807C32.7441 16.5807 32.5128 16.5807 32.3972 16.5807C30.8938 16.5807 29.3904 16.5807 27.7714 16.5807C27.6557 16.5807 27.6557 16.5807 27.5401 16.5807C27.5401 16.5807 27.5401 16.5807 27.4244 16.5807C27.5401 15.1929 27.5401 13.9208 27.5401 12.6487ZM24.0707 18.778C25.6898 18.778 27.4244 18.778 29.0435 18.8936C28.9278 20.0501 28.8122 21.0909 28.6965 22.2473C28.4653 22.2473 28.3496 22.2473 28.1183 22.2473C28.0027 22.2473 28.0027 22.2473 27.887 22.2473C27.7714 22.2473 27.7714 22.2473 27.6557 22.2473C26.4993 22.363 25.2272 22.363 24.0707 22.4786C24.0707 21.7847 24.0707 21.0909 23.9551 20.397C23.9551 20.0501 23.9551 19.5875 23.9551 19.2405C24.0707 19.1249 24.0707 18.8936 24.0707 18.778ZM17.3633 18.8936C17.4789 18.8936 17.7102 18.8936 17.7102 18.8936C18.0572 18.8936 18.4041 18.8936 18.8667 18.8936C19.6762 18.8936 20.4857 18.778 21.1796 18.778C21.4109 18.778 21.5265 18.778 21.7578 18.778C21.7578 19.3562 21.6422 19.8188 21.7578 20.397C21.7578 21.2065 21.8735 21.9004 21.8735 22.7099C21.7578 22.7099 21.5265 22.7099 21.4109 22.7099C20.1388 22.8255 18.751 22.8255 17.4789 22.9412H17.3633V22.8255C17.2476 22.2473 17.132 21.5534 17.132 20.9752C17.0163 20.1657 17.2476 19.5875 17.3633 18.8936ZM9.0368 47.1111C8.57421 45.1451 8.22727 43.0635 7.99598 41.0976C15.5129 38.4377 22.5673 34.6214 28.8122 29.6486C28.8122 30.3425 28.8122 31.0364 28.9278 31.6146C28.8122 33.4649 28.8122 35.1996 28.8122 37.05C22.9143 41.2132 16.4381 44.5669 9.49937 46.7642C9.38373 46.8798 9.15244 46.9955 9.0368 47.1111ZM29.2748 57.0566C29.1591 57.0566 29.1591 57.0566 29.0435 57.0566C28.8122 57.0566 28.6965 57.1723 28.5809 57.4036C28.4653 57.4036 28.3496 57.4036 28.234 57.5192C25.2272 58.4444 22.7986 61.2199 19.5605 61.5668C17.2476 61.7981 15.2817 60.4104 13.3157 59.2539C13.3157 59.0226 13.3157 58.7913 13.2 58.6757C11.581 55.6689 10.4245 52.5465 9.49937 49.1927C9.61502 49.1927 9.84631 49.1927 10.0776 49.1927C16.9007 46.9955 23.2612 43.7574 29.1591 39.7098C29.3904 45.3764 29.3904 51.2744 29.2748 57.0566ZM30.1999 26.5262C29.853 26.5262 29.5061 26.5262 29.1591 26.7575C28.9278 26.7575 28.8122 26.8731 28.5809 26.9888C24.0707 30.6894 18.9823 33.8119 13.7783 36.2404C13.6626 34.1588 13.6626 32.0772 13.6626 29.9956C13.6626 28.9548 13.547 27.914 13.6626 26.8731C13.7783 25.7167 14.3565 25.3698 15.3973 25.3698C19.6762 25.1385 23.9551 24.7915 28.234 24.5602C29.6217 24.6759 31.1251 24.6759 32.5128 24.5602C36.6761 24.7915 40.7237 25.0228 44.8869 25.3698C45.9277 25.4854 46.506 25.7167 46.6216 26.8731C46.7373 27.914 46.6216 28.9548 46.6216 29.9956C46.6216 32.0772 46.506 34.1588 46.506 36.2404C41.1863 33.8119 36.2135 30.6894 31.7033 26.9888C31.472 26.8731 31.3564 26.7575 31.1251 26.7575C30.8938 26.5262 30.5469 26.4106 30.1999 26.5262ZM31.3564 31.7303C31.3564 31.0364 31.3564 30.3425 31.472 29.6486C37.8325 34.5057 44.7713 38.4377 52.2882 41.0976C52.057 43.1792 51.71 45.1451 51.2474 47.1111C51.1318 46.9955 51.0161 46.8798 50.7848 46.8798C43.8461 44.5669 37.37 41.3288 31.472 37.1656C31.472 35.3153 31.3564 33.4649 31.3564 31.7303ZM46.9686 58.56C46.8529 58.7913 46.8529 59.0226 46.8529 59.1383C44.8869 60.4104 42.921 61.7981 40.6081 61.4512C39.3359 61.3355 38.1795 60.7573 37.1387 60.1791C37.023 59.9478 36.7917 59.8321 36.5605 59.7165C36.4448 59.7165 36.4448 59.7165 36.3291 59.6008H36.2135C36.2135 59.6008 36.0979 59.6008 36.0979 59.4852C35.9822 59.4852 35.9822 59.3696 35.8666 59.3696C35.8666 59.3696 35.8666 59.3696 35.7509 59.3696C35.404 59.2539 35.1727 59.0226 34.9414 58.7913C34.3632 58.4444 33.9006 58.0975 33.3224 57.7505C32.7441 57.4036 32.1659 57.1723 31.5877 57.0566C31.7033 51.2744 31.5877 45.6077 31.472 39.8255C37.2543 43.7574 43.4992 46.7642 50.091 48.9615C50.3223 49.0771 50.4379 49.0771 50.6692 48.9615C49.8597 52.4308 48.5876 55.5532 46.9686 58.56Z" fill="#1E1E1E"/>
<path d="M39.2202 56.5941C39.9141 57.1723 40.8392 57.1723 41.6488 57.0567C42.4583 56.941 43.3834 56.8254 44.0773 56.3628C45.3494 55.4376 45.9276 53.703 45.3494 52.1996C44.8868 50.6962 43.6147 49.6554 42.1113 49.0771H41.9957C41.7644 48.7302 41.1862 48.4989 40.7236 48.6146C39.1045 49.0771 37.7168 50.4649 37.4855 52.1996C37.1386 53.8186 37.8324 55.5533 39.2202 56.5941ZM39.6828 52.7778C39.6828 52.6621 39.6828 52.6621 39.6828 52.5465C39.6828 52.4309 39.6828 52.3152 39.7984 52.1996V52.0839V51.9683C39.7984 51.8526 39.9141 51.737 40.0297 51.6213L40.1454 51.5057C40.261 51.39 40.261 51.2744 40.3766 51.2744L40.4923 51.1588C40.6079 51.0431 40.7236 51.0431 40.8392 50.9275C40.8392 50.9275 40.9549 50.9275 40.9549 50.8118C41.0705 50.9275 41.3018 51.1588 41.5331 51.1588C41.6487 51.1588 41.6488 51.1588 41.7644 51.2744C41.8801 51.39 41.9957 51.39 42.1113 51.5057C42.227 51.6213 42.3426 51.6213 42.4583 51.737C42.4583 51.737 42.5739 51.8526 42.6896 51.9683C42.8052 52.0839 42.8052 52.0839 42.9209 52.1996L43.0365 52.3152L43.1522 52.4309C43.1522 52.5465 43.2678 52.5465 43.2678 52.6622C43.2678 52.7778 43.3834 52.8934 43.3834 53.0091V53.1247C43.3834 53.1247 43.3834 53.4717 43.3834 53.356C43.3834 53.2404 43.3834 53.356 43.3834 53.356V53.4717C43.3834 53.4717 43.3834 53.5873 43.2678 53.703C43.2678 53.703 43.2678 53.8186 43.1522 53.8186C43.1522 53.8186 43.1521 53.9343 43.0365 53.9343C43.0365 53.9343 43.0365 53.9343 43.0365 54.0499L42.9209 54.1655C42.8052 54.2812 42.6896 54.2812 42.5739 54.2812H42.4583C42.3426 54.2812 42.3426 54.2812 42.227 54.2812C42.1113 54.2812 41.9957 54.2812 41.88 54.3968C41.7644 54.3968 41.7644 54.3968 41.6488 54.3968C41.5331 54.3968 41.3018 54.3968 41.1862 54.3968C41.0705 54.3968 40.9549 54.3968 40.9549 54.3968C40.9549 54.3968 40.9549 54.3968 40.8392 54.3968H40.7236L40.608 54.2812C40.4923 54.1655 40.3766 54.0499 40.3766 54.0499L40.261 53.9343C40.1454 53.8186 40.1454 53.703 40.0297 53.5873V53.4717C40.0297 53.356 39.9141 53.2404 39.9141 53.1247V53.0091V52.8934C39.6828 53.0091 39.6828 52.8934 39.6828 52.7778Z" fill="#1E1E1E"/>
</svg>
