<svg width="64" height="39" viewBox="0 0 64 39" fill="none" xmlns="http://www.w3.org/2000/svg">
<path d="M55.6286 1.56177C54.2985 1.45093 52.9684 1.11841 51.6383 1.11841C50.7516 1.11841 50.1974 1.45093 49.754 2.22682C49.3107 3.33522 49.1998 4.66531 48.7565 5.77372C48.3131 7.1038 47.8697 8.32305 47.3155 9.65313C46.2071 12.2025 44.5445 13.6434 41.8843 14.641C39.335 15.6385 36.6748 16.3036 33.9038 16.1927C31.3545 16.0819 28.5835 15.0843 26.4775 13.6434C24.3715 12.2025 23.2631 9.87482 22.7089 7.43632C22.3764 6.10624 22.2656 4.66531 22.2656 3.33522C22.2656 2.4485 22.3764 1.45093 21.6005 0.896731C20.7138 0.342528 19.2729 0.564209 18.2753 0.564209C16.8344 0.564209 15.2826 0.453369 13.8417 0.453369C13.62 0.453369 13.3983 0.564209 13.2875 0.564209C12.8441 0.564209 12.5116 0.78589 12.4008 1.34009C11.2923 7.1038 12.4008 12.9784 12.0682 18.7421C11.9574 20.5155 10.7381 23.8407 13.3983 24.2841C14.8392 24.5058 16.391 24.5058 17.8319 24.5058C19.3837 24.6166 20.9355 24.6166 22.4872 24.7275C28.8052 25.06 35.0122 25.2817 41.3301 25.5033C44.5445 25.6142 47.7589 25.6142 50.9733 25.6142C53.0792 25.6142 55.7394 26.0575 56.0719 23.2865C56.5153 19.9613 56.2936 16.5253 56.4045 13.3109L56.737 2.67018C56.737 2.00514 56.1828 1.67262 55.6286 1.56177Z" fill="#F7C300"/>
<path d="M63.1658 12.2025C61.1707 11.4266 59.3972 9.98565 58.0672 8.2122C57.4021 7.32547 56.7371 6.21707 56.1829 5.2195C55.8503 4.6653 55.6287 4.11109 55.407 3.55689C55.2961 3.33521 55.1853 3.00269 55.0745 2.78101C55.0745 2.67017 54.9636 2.55933 54.9636 2.44849V2.33765C55.0745 2.11597 54.9636 1.89428 54.9636 1.6726C54.9636 1.34008 54.8528 1.1184 54.6311 1.00756C54.4094 0.785879 54.1877 0.564197 53.7444 0.564197C52.0818 0.453357 50.4192 0.453357 48.7565 0.342516C48.0915 -0.100846 46.8723 0.453357 46.9831 1.56176C48.3132 9.8748 40.0001 15.4168 32.5738 14.9735C24.9258 14.5301 18.7188 8.7664 17.2778 1.34008C17.167 1.00756 16.9453 0.785879 16.7236 0.675038C16.5019 0.342516 16.1694 0.120835 15.8369 0.120835C14.0634 -0.100846 12.1792 0.00999405 10.4057 0.231675C9.85151 0.120835 9.07562 0.453357 9.07562 1.00756V1.1184C9.07562 1.22924 9.07562 1.34008 9.07562 1.45092C8.29974 6.43875 6.08293 11.8699 0.762583 13.3109C-0.567504 13.6434 -0.0133008 15.8602 1.31679 15.4168C4.86368 14.5301 7.30218 12.0916 8.85394 9.09892C8.63226 13.7542 8.63226 18.5204 8.63226 23.2865C6.74797 23.2865 4.86368 23.3974 2.86855 23.619C2.31435 23.7299 1.98183 24.5058 2.09267 24.9491C2.31435 25.6142 2.86855 25.8358 3.5336 25.8358C5.19621 25.6142 6.96965 25.5033 8.63226 25.5033C8.63226 28.9394 8.7431 32.2646 8.7431 35.7007C8.7431 35.9223 8.85394 36.144 8.96478 36.2549C8.52142 36.2549 8.07806 36.144 7.52386 36.144C6.96965 36.0332 6.41545 36.6982 6.41545 37.2524C6.41545 37.9175 6.96965 38.25 7.52386 38.3608C11.5141 38.915 15.6152 38.4717 19.6055 37.9175C20.1597 37.8066 20.7139 37.4741 20.7139 36.8091C20.7139 36.2549 20.1597 35.5898 19.6055 35.7007C18.6079 35.8115 17.6103 35.9223 16.6128 36.0332C16.6128 33.9272 16.5019 31.8212 16.2803 29.7153C16.1694 29.1611 15.8369 28.6069 15.1719 28.6069C14.6177 28.6069 13.9526 29.0502 14.0634 29.7153C14.2851 31.8212 14.396 34.038 14.396 36.2549C13.1767 36.3657 11.8466 36.3657 10.6274 36.3657C10.7382 36.144 10.8491 36.0332 10.8491 35.7007C10.7382 32.2646 10.7382 28.9394 10.7382 25.5033C11.1816 25.2816 11.4033 24.8383 11.4033 24.5058C11.4033 24.0624 11.0708 23.619 10.7382 23.5082C10.7382 16.4144 10.7382 9.3206 10.9599 2.22681C11.1816 2.22681 11.4033 2.22681 11.625 2.11597C12.0683 2.11597 12.5117 2.00512 12.955 2.00512C13.7309 2.00512 14.396 2.00512 15.1719 2.11597C16.9453 10.7615 24.5933 17.0794 33.4605 17.0794C41.7736 17.0794 49.6433 10.8724 49.3107 2.44849C50.4192 2.44849 51.5276 2.55933 52.7468 2.55933L52.5251 18.9637C52.4143 24.6166 52.0818 30.2695 52.4143 35.9223H49.4216V35.8115V29.6044C49.4216 29.0502 48.8674 28.496 48.3132 28.496C47.759 28.496 47.2048 28.9394 47.2048 29.6044V35.8115V35.9223H45.0988C43.6579 35.9223 43.6579 38.1391 45.0988 38.1391L56.5154 38.0283C57.9563 38.0283 57.9563 35.8115 56.5154 35.8115H54.5203C54.2986 32.5971 54.4094 29.3827 54.4094 26.1684C56.9587 26.1684 59.3972 26.2792 61.9466 26.2792C63.3875 26.2792 63.3875 24.0624 61.9466 24.0624C59.5081 24.0624 56.9587 23.9516 54.5203 23.9516C54.5203 22.2889 54.6311 20.6263 54.6311 18.9637C54.7419 15.0843 54.7419 11.0941 54.8528 7.21463C55.1853 7.87968 55.6287 8.54472 56.072 9.09892C57.7346 11.4266 59.9514 13.2 62.6116 14.1976C63.1658 14.4193 63.8309 13.9759 63.9417 13.4217C64.1634 12.8675 63.72 12.4241 63.1658 12.2025Z" fill="#1E1E1E"/>
<path d="M49.6432 24.5057C49.1998 20.4046 49.1998 16.3035 49.6432 12.3132C49.754 11.759 49.089 11.2048 48.5348 11.2048C47.8697 11.2048 47.5372 11.759 47.4264 12.3132C46.983 16.3035 46.983 20.2938 47.4264 24.284C45.5421 24.3949 43.5469 24.3949 41.6627 24.3949C41.6627 22.178 41.5518 19.9612 41.441 17.8553C41.441 17.3011 40.9976 16.7469 40.3326 16.7469C39.7784 16.7469 39.2242 17.1902 39.2242 17.8553C39.4458 20.0721 39.4458 22.2889 39.4458 24.5057C37.4507 24.5057 35.4556 24.5057 33.4605 24.5057C33.4605 22.6214 33.4605 20.848 33.4605 18.9637C33.4605 18.4095 32.9062 17.8553 32.352 17.8553C31.7978 17.8553 31.2436 18.2986 31.2436 18.9637C31.2436 20.7371 31.2436 22.6214 31.2436 24.3949C29.2485 24.3949 27.2534 24.284 25.2582 24.1732C25.2582 22.0672 25.1474 19.9612 25.1474 17.9661C25.1474 17.4119 24.5932 16.8577 24.039 16.8577C23.4848 16.8577 22.9306 17.3011 22.9306 17.9661C22.9306 19.9612 23.0414 22.0672 23.0414 24.0623C20.9355 23.9515 18.8295 23.8407 16.7235 23.619C16.2802 19.8504 16.2802 16.0818 16.8344 12.3132C16.9452 11.759 16.7235 11.094 16.0585 10.9832C15.5043 10.8723 14.7284 11.2048 14.7284 11.759C14.0634 16.1927 14.0634 20.6263 14.7284 25.0599C14.8392 25.6141 15.6151 25.9466 16.0585 25.8358C16.0585 25.8358 16.1693 25.8358 16.1693 25.7249C26.81 26.6117 37.4507 26.7225 47.9806 26.2792C48.2022 26.39 48.3131 26.5008 48.6456 26.5008C49.089 26.5008 49.5323 26.1683 49.754 25.7249C49.9757 25.5033 49.9757 24.8382 49.6432 24.5057Z" fill="#1E1E1E"/>
</svg>
