<svg width="63" height="64" viewBox="0 0 63 64" fill="none" xmlns="http://www.w3.org/2000/svg">
<path d="M57.9665 42.546C57.9665 41.3672 57.8593 40.0811 57.645 38.9023C57.002 36.0087 55.7159 33.3295 54.1084 30.8646C51.8579 27.2209 48.8571 24.113 45.2134 21.9696C43.4987 20.8979 41.784 20.0406 39.855 19.5047C36.9614 18.5402 33.8535 18.1115 30.7456 18.2187C29.8883 18.2187 28.9238 18.3259 28.2808 19.0761C27.5306 19.9334 27.1019 21.3266 26.566 22.2911C26.1374 23.2556 25.28 24.2202 25.1729 25.2918C24.8514 27.1137 27.2091 28.2926 28.4951 28.9356C32.0317 30.6503 36.3184 30.8646 39.5335 33.008C40.9267 33.8653 39.5335 34.6155 38.7833 35.2585C37.9259 35.9015 37.1758 36.6517 36.5327 37.5091C35.2467 39.1166 34.6037 40.9385 34.6037 42.9747C34.6037 46.6184 35.8897 50.0478 39.212 51.8697C40.3908 52.5127 40.8195 53.37 41.141 54.7632C41.3553 55.5134 41.9983 57.5496 41.6768 58.2998C41.3553 58.8357 40.2836 59.1572 39.855 59.4787C39.212 59.9073 38.7833 60.4432 38.6761 61.1934C38.5689 61.7292 38.7833 62.3722 39.4263 62.4794C44.2489 63.7654 47.8926 57.9783 46.8209 53.5844C46.1779 51.1195 43.6059 50.2622 41.784 48.7618C41.5697 48.6546 41.141 48.3331 41.141 48.1188C40.9267 47.7973 40.9267 48.0116 41.2482 47.5829C41.6768 47.1543 42.427 46.8328 42.9629 46.4041C43.6059 45.9754 44.2489 45.5467 44.8919 45.1181C45.1062 44.9037 45.6421 44.475 46.0708 44.2607C46.2851 44.7965 46.3923 45.5467 46.4994 45.8682C46.8209 46.7256 47.0353 47.5829 47.4639 48.3331C48.107 49.8335 48.9643 51.3338 50.036 52.6199C52.0722 55.1919 54.7514 57.0138 57.7521 58.2998C58.6095 58.6213 59.3597 57.4425 58.931 56.6923C57.3235 54.0131 57.4306 50.798 57.7521 47.7973C57.7521 46.0826 57.9665 44.2607 57.9665 42.546Z" fill="#F7C300"/>
<path d="M21.6363 8.46633C21.5291 7.07313 21.1004 5.67994 20.5646 4.39392C20.0287 3.10789 19.1714 2.25054 18.0997 1.50036C16.8137 0.535843 15.5276 0 13.8129 0C12.2054 0 10.4907 0.214337 8.88317 0.643012C6.95414 1.17886 4.81077 2.03621 3.31041 3.4294C1.16703 4.50108 0.416857 7.60898 2.34589 9.32368C3.41758 10.2882 4.81077 10.5025 6.0968 10.5025C7.59716 10.5025 9.20469 10.3954 10.7051 10.2882C11.4552 10.181 12.0982 10.0739 12.8484 10.0739C12.8484 10.0739 12.9556 10.0739 13.0628 10.0739C12.2054 11.0384 10.9194 11.467 9.74053 11.7886C8.24017 12.1101 6.73981 12.3244 5.23945 12.7531C4.06059 13.0746 2.45306 13.7176 2.56023 15.218C2.6674 16.6111 4.27492 17.0398 5.45378 17.2542C6.95414 17.5757 8.56168 17.4685 10.062 17.2542C12.8484 16.9327 15.8492 16.504 18.2069 14.8964C20.4574 13.5033 21.9578 11.1455 21.6363 8.46633Z" fill="#F7C300"/>
<path d="M22.4936 27.2208C21.7434 25.9348 20.9932 24.6488 20.1358 23.4699C19.8143 23.0413 19.1713 22.7197 18.6355 23.0413C18.2068 23.3628 17.8853 24.0058 18.2068 24.5416C18.7427 25.2918 19.2785 26.1491 19.8143 27.0065C19.1713 27.2208 18.5283 27.4352 17.8853 27.7567C17.2423 28.0782 16.8136 28.7212 16.7064 29.4714C16.5993 30.1144 16.9208 30.7574 17.2423 31.2932C17.4566 31.8291 18.2068 31.9363 18.7427 31.7219C19.2785 31.4004 19.3857 30.7574 19.1713 30.2216C19.0642 30.0072 19.0642 30.0072 18.957 29.9001V29.7929C18.957 29.7929 19.0642 29.7929 19.0642 29.6857C19.1713 29.6857 19.2785 29.5785 19.3857 29.5785C20.1358 29.257 20.9932 29.0427 21.8505 28.9355C22.6007 28.7212 22.8151 27.8638 22.4936 27.2208Z" fill="#1E1E1E"/>
<path d="M61.9316 61.6219C61.8245 61.5147 61.7173 61.3004 61.503 61.1932C57.4305 57.228 56.466 51.3337 56.7875 45.8681C56.8947 44.4749 54.7513 44.4749 54.6442 45.8681C54.4298 50.0477 54.9657 54.5488 56.7875 58.2997C54.8585 57.0136 53.1438 55.6204 51.6434 53.9057C49.2857 51.2265 47.571 47.9043 46.7137 44.3677C47.3567 43.5104 47.8925 42.4387 48.1069 41.2598C48.6427 38.0448 46.928 34.9369 44.2488 33.2222C43.0699 32.472 41.9982 34.2939 43.1771 35.044C45.1061 36.2229 46.4993 38.6878 45.9635 41.0455C45.3205 43.6175 42.9628 45.2251 40.8194 46.5111C40.3907 46.8326 40.2836 47.2613 40.3907 47.69C40.3907 47.7971 40.4979 48.0115 40.4979 48.1186C41.1409 48.976 41.7839 49.7262 42.6413 50.3692C43.3914 50.905 44.1416 51.4409 44.8918 51.9767C45.642 54.4416 45.5348 57.1208 44.6775 59.4785C44.2488 60.6574 43.2843 61.086 42.1054 61.086C41.0337 61.1932 39.962 61.086 38.8904 61.086C38.8904 60.9789 38.9975 60.9789 38.9975 60.8717C38.9975 60.8717 38.9975 60.8717 39.1047 60.7645C39.1047 60.7645 39.2119 60.6574 39.319 60.5502L39.4262 60.443C39.5334 60.3359 39.6405 60.3359 39.7477 60.3359C40.2836 60.1215 40.8194 59.9072 41.3552 59.6928C41.5696 59.5857 41.6768 59.4785 41.7839 59.3713C41.9983 59.157 42.2126 58.9427 42.2126 58.514C42.2126 56.9065 42.3198 55.2989 42.3198 53.6914C42.3198 53.5842 42.3198 53.5842 42.3198 53.4771C42.4269 53.0484 42.2126 52.5125 41.5696 52.2982C38.8904 51.6552 35.9968 50.5835 34.9251 47.69C33.8534 44.7964 33.6391 41.4742 34.1749 38.3663C34.2821 37.8304 34.0678 37.1874 33.4248 37.0802C32.8889 36.9731 32.2459 37.2946 32.1387 37.8304C31.9244 39.0093 31.8172 40.2953 31.8172 41.4742C29.2452 41.4742 26.566 41.367 24.1011 40.5097C21.4219 39.5451 19.2785 37.7233 17.8853 35.2584C16.3849 32.7935 15.6348 30.0071 15.2061 27.2207C14.8846 24.7559 14.6702 22.0766 14.7774 19.3974C16.8136 18.8616 18.5283 17.7899 19.9215 15.968C21.529 13.7175 22.7079 10.0737 21.1004 7.50169C20.3502 6.32284 18.5283 7.39453 19.2785 8.57338C20.243 10.0737 19.7072 12.1099 18.957 13.6103C18.0996 15.2178 16.8136 16.7182 15.0989 17.254C14.5631 17.4684 13.9201 17.4684 13.277 17.5756C11.7767 17.6827 10.2763 17.6827 8.77596 17.5756C7.2756 17.4684 5.66808 17.4684 4.27488 17.0397C3.63187 16.8254 3.09602 16.5039 2.98885 15.8609C2.88168 15.5393 2.88168 15.2178 2.98885 14.8963C2.98885 14.3605 2.88168 14.5748 3.31036 14.4677C3.63186 14.3605 4.06054 14.4677 4.38204 14.4677C4.81072 14.4677 5.34656 14.4677 5.77524 14.4677C6.52542 14.4677 7.2756 14.3605 7.91861 14.1462C9.20464 13.7175 10.2763 13.0745 10.9193 11.8956V11.7884C12.3125 11.5741 13.7057 11.1454 15.0989 10.6096C16.3849 10.0737 15.3132 8.25187 14.0272 8.78772C11.991 9.64507 9.84765 9.96657 7.70428 10.0737C6.20392 10.1809 2.98885 10.6096 2.23867 8.89489C1.38132 7.07302 5.45373 6.21567 6.52542 5.787C8.45445 5.03681 10.4907 4.28663 12.5269 3.75079C14.4559 3.10778 16.5993 2.57193 18.6355 3.21495C20.5645 3.85796 21.529 5.57266 22.3864 7.18019C24.3154 10.7168 25.2799 14.7892 25.2799 18.7544C24.5298 19.8261 23.8867 21.1121 23.3509 22.291C23.2437 22.5053 23.3509 22.934 23.4581 23.1483C23.5652 23.3627 23.8868 23.577 24.1011 23.6842C24.4226 23.7913 24.6369 23.6842 24.9584 23.577C25.1728 23.4698 25.3871 23.2555 25.4943 22.934C25.4943 22.8268 25.6014 22.8268 25.6014 22.7196V22.6125C25.7086 22.3981 25.7086 22.291 25.8158 22.1838C25.9229 21.8623 26.1373 21.5408 26.3516 21.2193C26.566 20.7906 26.8875 20.3619 27.1018 20.0404C28.1735 20.0404 29.3524 20.1476 30.424 20.1476C30.2097 20.5763 29.9954 21.1121 29.8882 21.5408C29.781 21.7551 29.8882 22.0766 29.9954 22.3981C30.1025 22.6125 30.424 22.8268 30.6384 22.934C31.1742 23.0412 31.8172 22.7196 31.9244 22.1838C32.0316 21.9695 32.1387 21.648 32.1387 21.4336C32.2459 21.1121 32.4602 20.7906 32.6746 20.4691C33.7463 20.6834 34.7108 21.0049 35.7825 21.3265C35.6753 21.8623 35.461 22.3981 35.3538 22.934C35.2466 23.1483 35.3538 23.577 35.461 23.7913C35.5681 24.0057 35.8896 24.22 36.104 24.3272C36.4255 24.4343 36.6398 24.3272 36.9613 24.22C37.1757 24.1128 37.39 23.8985 37.4972 23.577C37.6043 23.1483 37.8187 22.7196 37.9258 22.1838C38.7832 22.5053 39.5334 22.8268 40.2836 23.2555C40.2836 23.3627 40.1764 23.3627 40.1764 23.4698C40.0692 23.7913 39.9621 24.0057 39.8549 24.3272C39.7477 24.6487 39.7477 24.9702 39.6405 25.2917C39.6405 25.506 39.7477 25.8275 39.962 26.0419C40.1764 26.2562 40.4979 26.3634 40.7122 26.3634C41.0337 26.3634 41.2481 26.2562 41.4624 26.0419C41.5696 25.9347 41.5696 25.9347 41.6768 25.8275C41.7839 25.7204 41.7839 25.6132 41.7839 25.506C41.7839 25.1845 41.8911 24.7559 42.1054 24.4343C42.1054 24.4343 42.1054 24.3272 42.2126 24.3272C42.9628 24.7559 43.6058 25.2917 44.2488 25.8275V25.9347C44.1416 26.149 44.0345 26.3634 43.9273 26.5777C43.9273 26.6849 43.8201 26.8992 43.8201 27.0064C43.713 27.3279 43.8201 27.5422 43.9273 27.8637C44.0345 27.9709 44.0345 28.0781 44.2488 28.1852C44.356 28.2924 44.4631 28.2924 44.5703 28.3996C44.8918 28.5068 45.1061 28.3996 45.4277 28.2924C45.642 28.1852 45.8563 27.9709 45.9635 27.6494V27.5422C47.571 29.2569 49.0714 31.0788 50.2502 33.115C51.1076 34.401 51.8578 35.6871 52.5008 37.0802C53.251 38.5806 54.1083 40.1881 54.1083 41.9028C54.1083 43.296 56.2517 43.296 56.2517 41.9028C56.1445 38.5806 54.0011 35.1512 52.2864 32.472C50.4646 29.6856 48.4284 27.0064 45.9635 24.6487C44.8918 23.6842 43.8201 22.934 42.6413 22.1838C42.5341 22.0766 42.3198 21.9695 42.2126 21.9695C40.6051 21.1121 38.9975 20.4691 37.1757 19.7189C35.5681 19.1831 34.0678 18.6472 32.4602 18.4329C30.8527 18.2186 29.2452 18.2186 27.5305 18.2186C27.4233 14.4677 26.4588 10.8239 24.8513 7.39453C23.9939 5.67983 23.0294 3.85796 21.529 2.6791C20.1358 1.60742 18.4212 1.07157 16.5993 1.17874C14.3487 1.17874 12.2054 1.92892 10.1692 2.6791C8.02579 3.42928 5.88241 4.17947 3.73904 5.03681C2.34585 5.57266 0.738314 6.21567 0.202471 7.71603C-0.440541 9.43073 0.523974 11.1454 2.02434 12.0028C3.41753 12.753 5.02506 12.8601 6.63259 12.753C6.20392 12.8601 5.8824 12.8601 5.45373 12.8601C4.27487 12.9673 2.34584 12.6458 1.48849 13.6103C0.738311 14.4677 0.845476 16.2895 1.16698 17.254C1.59566 18.4329 2.56019 19.1831 3.73904 19.6118C5.13223 20.1476 6.73976 20.1476 8.24012 20.2548C9.84765 20.3619 11.348 20.4691 12.9555 20.3619C12.8484 22.5053 13.0627 24.7559 13.277 26.8992C12.3125 27.1136 11.348 27.4351 10.4907 27.8637C10.2763 27.9709 9.95482 28.0781 9.84765 28.2924C9.52615 28.6139 9.41897 29.0426 9.41897 29.4713C9.41897 30.0071 9.41898 30.6501 9.63332 31.186C9.74049 31.4003 9.84766 31.7218 10.1692 31.829C10.3835 31.9362 10.705 32.0433 11.0265 31.9362C11.5623 31.7218 11.991 31.186 11.7767 30.6501C11.6695 30.4358 11.6695 30.3286 11.6695 30.1143C11.6695 30.0071 11.6695 29.8999 11.6695 29.7928C11.7767 29.6856 11.991 29.6856 12.0982 29.5784C12.634 29.3641 13.1699 29.2569 13.7057 29.0426C14.1344 32.0433 15.0989 35.044 16.9208 37.6161C18.314 39.7595 20.243 41.367 22.3864 42.4387C22.0649 42.4387 21.6362 42.7602 21.529 43.1889C20.886 45.9753 21.7434 48.976 23.5652 51.1194C25.2799 53.0484 27.6376 54.1201 30.1025 54.6559V54.7631C30.1025 54.8703 30.1025 54.8703 30.1025 54.9774C30.1025 55.0846 30.1025 55.1918 30.1025 55.2989C30.1025 55.7276 30.2097 56.1563 30.2097 56.585C30.2097 57.228 30.2097 57.871 30.2097 58.514C28.7093 58.7283 27.1018 59.2642 26.2445 60.6574C25.8158 61.4075 25.4943 62.4792 25.923 63.2294C26.4588 64.1939 27.852 63.9796 28.8165 63.9796C29.781 63.9796 30.8527 63.9796 31.8172 63.9796C32.7817 63.9796 33.6391 63.8724 34.4964 63.4438C36.104 62.4792 36.6398 60.6574 36.8542 58.9427C36.9613 57.7638 36.8542 56.6921 36.8542 55.5133C36.8542 54.7631 36.8542 54.0129 36.747 53.1556C37.9258 53.9057 39.2119 54.4416 40.6051 54.7631L40.4979 58.4068C40.1764 58.514 39.9621 58.6212 39.6405 58.7283C38.9975 58.9427 38.4617 59.157 38.033 59.6928C37.7115 60.0144 37.39 60.5502 37.1757 60.9789C37.0685 61.1932 36.8542 61.5147 36.8542 61.8362C36.8542 62.0506 36.747 62.2649 36.747 62.3721C36.747 62.6936 36.8542 62.9079 36.9613 63.1222C37.0685 63.3366 37.2828 63.4437 37.4972 63.5509C37.6043 63.6581 37.8187 63.7653 38.033 63.7653C39.7477 63.7653 41.5696 63.8724 43.2843 63.6581C44.8918 63.4438 46.285 62.5864 46.928 61.086C48.214 58.0853 48.214 54.6559 47.2495 51.6552C47.1423 51.3337 47.0352 51.1194 46.7137 50.905C46.285 50.5835 45.8563 50.3692 45.5348 50.0477C45.3205 49.9405 45.1061 49.7262 44.8918 49.619C44.7846 49.5118 44.6775 49.5118 44.5703 49.4047C44.5703 49.4047 44.4631 49.4047 44.4631 49.2975C44.1416 48.976 43.8201 48.7616 43.4986 48.4401C43.3914 48.333 43.3914 48.333 43.2843 48.2258C44.0345 47.7971 44.6775 47.2613 45.3205 46.7254C46.285 50.0477 47.9997 53.0484 50.2502 55.7276C53.0366 59.0498 56.7875 61.3004 60.5384 63.4438L60.6456 63.5509C61.3958 63.9796 62.789 62.5864 61.9316 61.6219ZM33.9606 60.2287C33.7463 60.6574 33.4248 60.9789 33.1033 61.3004C32.5674 61.6219 32.0316 61.5147 31.3885 61.5147C30.6384 61.5147 29.8882 61.5147 29.0308 61.5147H27.9592C27.852 61.5147 27.7448 61.5147 27.6376 61.5147C27.852 61.1932 28.1735 60.9789 28.3878 60.8717C29.0308 60.443 29.9954 60.3359 30.7455 60.2287C31.1742 60.1215 31.6029 59.9072 31.7101 59.4785C31.8172 59.2642 31.9244 59.157 31.9244 58.9427C32.0316 57.1208 31.9244 55.4061 31.6029 53.6914V53.5842C31.6029 52.9412 31.0671 52.6197 30.5312 52.5125C28.2807 52.191 26.1373 51.2265 24.6369 49.619C23.2437 48.0115 22.4936 45.7609 23.0294 43.7247C23.1366 43.4032 23.0294 43.0817 22.9222 42.8674H23.0294C25.8158 43.939 28.8165 44.0462 31.8172 44.0462C31.9244 45.7609 32.3531 47.5828 32.9961 49.1903C33.3176 49.9405 33.7463 50.6907 34.2821 51.2265C34.1749 51.3337 34.1749 51.548 34.1749 51.7624C34.1749 53.2627 34.2821 54.8703 34.2821 56.3706C34.4965 57.5495 34.6036 59.0498 33.9606 60.2287Z" fill="#1E1E1E"/>
<path d="M15.099 4.9299C14.8847 4.71557 14.6703 4.6084 14.3488 4.6084C13.9202 4.6084 13.4915 4.6084 13.0628 4.71557C12.7413 4.82274 12.4198 4.82274 12.0983 5.03707C11.9911 5.03707 11.884 5.14424 11.7768 5.25141C11.6696 5.35858 11.5624 5.46575 11.4553 5.57292C11.3481 5.78725 11.2409 6.10876 11.3481 6.43027C11.4553 6.6446 11.5624 6.96611 11.8839 7.07328C12.0983 7.18045 12.4198 7.28762 12.7413 7.18045C13.0628 7.07328 13.3843 6.96611 13.7058 6.96611C14.0273 6.96611 14.2417 6.96611 14.5632 6.96611C14.7775 6.96611 15.099 6.85894 15.3133 6.6446C15.5277 6.43027 15.6348 6.10876 15.6348 5.89442C15.4205 5.46575 15.3133 5.14424 15.099 4.9299Z" fill="#1E1E1E"/>
</svg>
