<svg width="147" height="11" viewBox="0 0 147 11" fill="none" xmlns="http://www.w3.org/2000/svg">
<path d="M146.428 7.88385C144.743 6.34451 142.945 4.93115 141.26 3.39181C139.579 1.97481 138.387 1.27724 136.438 2.68491C134.833 3.83698 132.888 5.36699 131.649 6.99746C131.532 7.00111 131.528 6.87877 131.411 6.88241C131.163 6.40036 130.567 6.05158 130.205 5.6955C129.361 4.86466 128.634 4.03018 127.793 3.32168C126.466 2.01607 125.03 0.958786 123.183 1.87347C121.334 2.66581 120.222 4.65965 118.741 6.05274C118.628 6.17872 118.515 6.3047 118.401 6.43069C118.745 6.17508 118.621 5.93405 118.153 5.94863C117.791 5.59256 117.202 5.48845 116.727 5.25835C115.894 4.79452 115.06 4.3307 114.227 3.86687C112.323 2.82416 110.528 1.53314 108.733 0.242115C108.134 -0.229005 107.088 0.0484761 106.635 0.552404C105.849 1.67895 105.059 2.68316 104.273 3.80971C103.823 4.43597 103.374 5.06223 102.924 5.6885C102.81 5.81448 102.697 5.94046 102.587 6.18878C102.474 6.31476 102.474 6.31476 102.474 6.31476C101.407 5.85822 100.442 4.90869 99.4841 4.20384C98.4095 3.50262 97.3312 2.67908 96.1396 1.98151C94.1073 0.57544 92.0968 -0.0966094 89.9252 1.68536C88.3276 3.0821 86.8469 4.47519 85.2492 5.87193C83.9333 4.93333 82.6211 4.11708 81.1882 3.18213C79.876 2.36587 78.5529 1.1826 76.9261 1.60064C75.4163 2.01504 74.0562 3.52683 72.7986 4.54562C72.1113 5.05683 71.424 5.56805 70.8536 6.07562C70.1663 6.58684 69.6984 6.60142 68.8686 6.25993C66.1417 5.12041 63.967 2.86163 60.9146 2.5894C57.7453 2.32081 55.5882 4.59213 53.1826 6.38139C52.382 7.01859 52.4953 6.89261 51.6583 6.30644C50.9419 5.83897 50.3424 5.36785 49.626 4.90037C48.1931 3.96543 46.7603 3.03048 45.1117 2.7145C43.4667 2.52086 42.0848 3.29862 40.5859 4.08003C39.778 4.47256 38.9701 4.86509 38.1621 5.25761C37.3542 5.65014 36.0929 6.54659 35.0438 6.70174C33.64 6.74548 31.8453 5.45446 30.6501 4.63456C29.3342 3.69596 28.2377 2.26073 26.5891 1.94475C25.0575 1.62513 23.5549 2.2842 22.4143 3.29935C21.1566 4.31814 20.0342 5.94497 18.3819 5.50666C16.7333 5.19068 15.4065 3.88508 13.9773 3.07246C12.4275 2.14116 10.7679 1.45818 8.88899 1.27183C5.48207 0.888194 2.01276 2.34326 0.235737 5.58233C-0.872174 7.69851 2.22385 9.43878 3.33176 7.3226C4.88575 4.45783 8.27811 4.35211 10.8917 5.61762C13.5052 6.88313 15.6836 9.26424 18.7287 9.2918C20.1361 9.37039 21.4046 8.71861 22.5526 7.94814C23.4666 7.18496 25.046 5.17654 26.2376 5.87411C27.4256 6.44934 28.5185 7.76223 29.7137 8.58213C31.0259 9.39839 32.5721 10.2074 33.9832 10.4083C35.5112 10.6056 36.7797 9.95379 38.1653 9.29836C39.8981 8.50967 41.62 7.35396 43.3565 6.6876C44.8626 6.15086 46.3064 7.45282 47.498 8.15038C48.6933 8.97029 50.0237 10.3982 51.5517 10.5955C54.2604 11.1234 56.3811 7.62867 58.5746 6.58072C61.1153 5.39949 63.6447 7.76967 65.7867 8.92742C67.0989 9.74368 68.6414 10.4303 70.1549 10.1382C71.7853 9.84254 73.149 8.4531 74.4066 7.43431C75.0939 6.92309 76.114 5.78925 76.9256 5.51906C77.0425 5.51542 77.2656 5.14111 77.2656 5.14111C77.4995 5.13382 78.3402 5.84233 78.5778 5.95737C80.2519 7.1297 82.043 8.29839 83.7171 9.47072C83.7171 9.47072 83.834 9.46708 83.8377 9.58941C84.4371 10.0605 85.3766 10.1537 86.0566 9.39782C87.0839 8.50865 87.9943 7.62313 89.0216 6.73397C89.475 6.23004 90.049 5.84481 90.5023 5.34088C90.846 5.08527 91.5224 4.20704 91.9866 4.07012C92.9188 3.91863 94.6075 5.5803 95.3239 6.04778C96.3985 6.74899 97.3562 7.45385 98.4308 8.15506C100.105 9.32739 102.148 11.1005 103.969 9.32943C104.879 8.44391 105.545 7.19868 106.217 6.19811C106.667 5.57185 107.23 4.8196 107.68 4.19334C110.67 6.30427 113.77 8.16687 117.089 9.53284C119.103 10.3272 120.236 9.06741 121.6 7.67797C122.28 6.92207 122.953 5.92151 123.757 5.40665C124.444 4.89543 123.984 5.15468 124.579 5.50347C124.938 5.7372 125.424 6.3343 125.786 6.69038C126.63 7.52122 127.357 8.3557 128.198 9.0642C128.801 9.65766 129.528 10.4921 130.358 10.8336C132.252 11.5093 133.374 9.8825 134.628 8.74138C135.425 7.98184 136.222 7.2223 137.136 6.45912C137.136 6.45912 137.823 5.9479 138.167 5.69229C138.288 5.81099 138.408 5.92968 138.529 6.04837C140.214 7.58771 142.012 9.00107 143.697 10.5404C145.733 12.0688 148.113 9.4232 146.428 7.88385Z" fill="#F7C300"/>
</svg>
