<svg width="41" height="64" viewBox="0 0 41 64" fill="none" xmlns="http://www.w3.org/2000/svg">
<path d="M35.2066 49.2365C35.1588 47.4026 35.0966 45.5697 35.0274 43.7367C35.1038 42.1614 35.1852 40.5872 35.2596 39.013C35.5681 32.4592 35.8756 25.9065 36.1832 19.3538C36.286 17.1777 33.5 16.8192 32.4797 18.256C29.4441 21.1989 26.5226 24.2568 23.7427 27.444C21.199 30.3604 18.9536 33.5834 15.8387 35.9336C14.3255 37.0751 12.7512 38.1301 11.2696 39.3144C9.74522 40.5323 8.38074 41.7175 8.2504 43.7836C8.117 45.8976 8.25549 48.0584 8.22392 50.1775C8.1893 52.5053 8.12308 54.8321 8.03144 57.1579C7.9958 58.0489 8.68927 58.8879 9.52631 59.1221C11.3256 59.6252 13.183 59.615 15.0363 59.6262C16.9568 59.6384 18.8783 59.6456 20.7988 59.6487C24.2844 59.6527 27.77 59.6354 31.2556 59.6079C31.8636 60.391 32.9236 60.8329 33.8269 60.1486C35.4317 58.9338 35.3543 57.4033 35.3299 55.5418C35.3024 53.4401 35.2616 51.3383 35.2066 49.2365Z" fill="#F7C300"/>
<path d="M24.5654 6.58259C23.9921 5.93496 23.0807 5.69868 22.2651 5.52862C21.4861 5.36671 20.6816 5.26289 19.8853 5.24049C19.5666 5.23132 19.2489 5.2374 18.9312 5.25777C18.5096 5.28424 18.0463 5.30057 17.6451 5.42073C17.0667 5.59486 16.5973 6.00108 16.3254 6.51634C15.9201 6.66603 15.4863 7.04896 15.3091 7.38397C15.0922 7.79536 15.0057 8.219 15.0678 8.68232C15.1248 9.11001 15.301 9.55189 15.6278 9.85127C15.9965 10.1904 16.5453 10.5132 17.0677 10.4481C17.2082 10.4307 17.3488 10.4124 17.4893 10.3951C17.8915 10.5458 18.3742 10.5936 18.7621 10.4673C18.922 10.4154 19.0758 10.3431 19.2244 10.2606C19.6552 10.2474 20.0869 10.2403 20.5187 10.2596C21.0238 10.282 21.5227 10.334 22.0247 10.391C22.7019 10.4684 23.2885 10.2668 23.8159 9.91342C24.262 9.76373 24.656 9.48266 24.8841 9.04989C25.327 8.21285 25.1886 7.28725 24.5654 6.58259Z" fill="#F7C300"/>
<path d="M39.3399 61.9603L33.8971 61.8595L33.8757 61.3819C33.1996 46.4802 32.7831 31.3495 32.6354 16.4101L32.6344 16.3368L32.6558 16.2665C32.7149 16.0578 32.7078 15.8419 32.6344 15.6423L32.608 15.5323C32.5387 14.9793 32.0917 14.7472 31.6976 14.7136C31.2801 14.6739 30.7852 14.8571 30.6406 15.3357L30.5877 15.5099L30.4369 15.6117C30.2302 15.7502 30.0286 15.8978 29.826 16.0465L28.7914 16.799L28.8535 15.7258C28.9533 13.9866 28.9584 12.285 28.8678 10.6679C28.8393 10.1537 28.4768 9.62827 27.8424 9.62115L25.767 9.59666L25.816 9.04885C25.8832 8.28615 25.9188 7.6518 25.927 7.05304L25.931 6.84011C25.9504 5.8208 25.9178 5.12431 25.3201 4.75467C25.0614 4.5948 24.7152 4.48887 24.2295 4.42166L23.7814 4.35864L23.8344 2.10204C23.8425 1.90347 23.8507 1.70291 23.8425 1.50638C23.813 0.887254 23.4291 0.422924 22.8415 0.296656C22.147 0.147985 21.4424 0.0613299 20.7459 0.040964C20.5157 0.033836 20.2907 0.0440816 20.0626 0.0542645C19.7276 0.0695389 19.3956 0.0807163 19.0657 0.0552589C18.7612 0.0023077 18.5647 -0.0251106 18.363 0.0308955C17.9914 0.132725 17.6971 0.433017 17.5953 0.814877C17.5281 1.06741 17.5199 1.39128 17.5118 1.70389C17.5077 1.83627 17.5047 1.96769 17.4965 2.09396L17.3814 4.02663L16.8662 3.98797C16.5291 3.96353 16.1809 3.937 15.9029 4.00624C15.1015 4.20786 14.9824 4.88093 14.853 5.96439L14.5261 8.65369C14.521 8.70053 14.5261 8.75965 14.5435 8.83704L14.6758 9.45209L14.0465 9.45309C13.2105 9.45411 12.6219 9.57122 12.2706 10.1476C11.9427 10.6862 11.9784 11.5264 12.01 12.2667C12.0201 12.4928 12.0293 12.7116 12.0293 12.9173L12.0354 17.0679L10.7605 15.8205C10.4682 15.5364 10.1749 15.2523 9.89084 14.9611L9.68723 14.7452C9.48052 14.3572 8.96221 14.2442 8.55999 14.3349C8.32782 14.3868 7.78608 14.5832 7.75146 15.2889C7.01421 30.3606 6.91644 45.6861 7.46021 60.8372L7.47954 61.3748L0.956351 61.2546C0.947187 61.2546 0.939054 61.2546 0.931926 61.2546C0.257816 61.2546 0.0083566 61.774 0.00021026 62.2231C-0.0048812 62.5031 0.0826915 62.775 0.241545 62.9664C0.414655 63.1762 0.661052 63.2861 0.974686 63.2912L39.3613 64C39.3705 64 39.3786 64 39.3857 64C40.0588 64 40.3083 63.4806 40.3174 63.0316C40.3215 62.6385 40.125 61.9746 39.3399 61.9603ZM19.5331 2.10713L20.1053 2.07656C20.4689 2.06535 20.8559 2.07654 21.3233 2.11422L21.8028 2.153L21.7509 4.23024L19.4852 4.12234L19.4424 3.60499L19.5331 2.10713ZM16.4884 8.82784C16.5342 8.6863 16.5607 8.6151 16.5698 8.53262L16.5708 8.52852L16.8794 6.02754L21.1532 6.23935C21.6592 6.26277 22.1644 6.28724 22.6684 6.31779C22.922 6.33306 23.1766 6.3555 23.4291 6.37994L23.8924 6.42469L23.8893 6.89008C23.8873 7.16909 23.8842 7.44713 23.873 7.72614C23.8588 8.11615 23.8242 8.50707 23.7906 8.89708L23.7315 9.57018L16.2827 9.48056L16.4884 8.82784ZM14.6055 11.4765C14.8112 11.4897 14.9558 11.4988 15.077 11.5019C15.1004 11.4998 15.1178 11.4887 15.1422 11.4887C15.1728 11.4887 15.1951 11.5009 15.2236 11.505L26.8709 11.6444L26.8821 12.1363C26.93 14.2411 26.8322 16.3551 26.5929 18.4192L26.5695 18.6218L24.8985 19.9527L24.8862 18.9364C24.872 17.3815 24.925 15.8663 25.0411 14.4326C25.0584 14.2187 24.9586 13.9835 24.7681 13.7859C24.5614 13.5711 24.2498 13.4469 24.0431 13.455C23.4504 13.4815 23.0503 13.8878 23.0004 14.5151C22.8201 16.7533 22.7926 19.0261 22.9179 21.2694L22.9434 21.5402L22.7407 21.754L21.4729 22.7856L21.4251 21.7795C21.3029 19.2104 21.3406 16.6545 21.5391 14.1831C21.5564 13.9682 21.4567 13.732 21.2652 13.5345C21.0575 13.3206 20.7795 13.1923 20.5412 13.2056C19.9486 13.232 19.5483 13.6383 19.4984 14.2656C19.2887 16.8857 19.2612 19.5891 19.416 22.2998L19.4802 23.4189L17.9242 22.2092V21.9629C17.7877 19.2481 17.8671 16.5374 18.1665 13.8644C18.1879 13.6709 18.0993 13.4489 17.9201 13.2585C17.7083 13.0314 17.415 12.8888 17.1686 12.902C16.3611 12.9387 16.1686 13.5914 16.1248 13.9784C15.9303 15.7257 15.8316 17.5464 15.8336 19.3885L15.8347 20.5209L14.0699 18.9456L14.0638 11.5101L14.6055 11.4765ZM9.51408 61.4095L9.49574 60.9278C8.99372 46.9569 9.03956 32.7659 9.63322 18.7491L9.68108 17.6239L10.4947 18.4029C11.845 19.6962 12.9824 20.7317 14.075 21.6634C15.0414 22.4872 16.0312 23.2937 17.0179 24.0595L17.1625 24.1715C18.2185 24.9943 19.1309 25.705 20.4139 25.8262C20.6817 25.8486 20.9159 25.6785 21.0259 25.5726L21.1145 25.4882L21.2306 25.4525C21.4149 25.3965 21.5829 25.3079 21.7285 25.1878L27.0796 20.8224C27.437 20.5322 27.7904 20.2358 28.1468 19.9394C28.6967 19.4802 29.2486 19.02 29.8118 18.575L30.6253 17.9305L30.6376 18.968C30.8056 33.1722 31.2098 47.4079 31.8371 61.2791L31.8616 61.8208L9.51408 61.4095Z" fill="black"/>
<path d="M13.4263 31.116C13.4314 31.116 13.4365 31.116 13.4426 31.116C14.3112 31.1059 15.1808 31.1008 16.0525 31.1008C19.9027 31.1008 23.7824 31.2026 27.6193 31.4032C27.8555 31.4276 28.0745 31.3218 28.2659 31.1415C28.4818 30.9368 28.6111 30.6537 28.6111 30.3849C28.6111 29.7586 28.0734 29.3921 27.5663 29.3666C22.8832 29.1202 18.1349 29.0244 13.4548 29.0805C12.6778 29.0896 12.4783 29.7464 12.4834 30.1333C12.4874 30.5875 12.739 31.116 13.4263 31.116Z" fill="black"/>
<path d="M12.5985 35.2014C12.4254 35.5598 12.457 36.0344 12.6749 36.3562C12.8602 36.627 13.1362 36.7533 13.5078 36.7237C18.2012 36.3836 22.9678 36.1922 27.6764 36.1535C27.9035 36.1515 28.1254 36.0455 28.3047 35.8541C28.5083 35.6362 28.6203 35.346 28.6041 35.0772C28.5664 34.456 28.0134 34.123 27.5094 34.123C27.5063 34.123 27.5033 34.123 27.4992 34.123C22.812 34.1597 18.0678 34.3512 13.3958 34.6902C12.9254 34.7249 12.7034 34.9865 12.5985 35.2014Z" fill="black"/>
<path d="M27.5429 39.3565C25.5063 39.2985 23.4555 39.271 21.4036 39.271C18.7418 39.271 16.0749 39.3189 13.4283 39.4157C12.6514 39.4442 12.4681 40.106 12.4813 40.4919C12.4997 40.9512 12.8031 41.4818 13.465 41.4523C18.1685 41.2802 22.9403 41.2617 27.6458 41.3931C27.8729 41.4124 28.0989 41.3015 28.2853 41.1162C28.4971 40.9054 28.6192 40.6193 28.6121 40.3504C28.5958 39.7232 28.049 39.3698 27.5429 39.3565Z" fill="black"/>
<path d="M27.5663 44.6411C22.8832 44.3947 18.1349 44.3 13.4548 44.355C12.6778 44.3641 12.4783 45.0209 12.4834 45.4078C12.4885 45.863 12.74 46.3916 13.4273 46.3916C13.4324 46.3916 13.4375 46.3916 13.4436 46.3916C14.3122 46.3814 15.1818 46.3763 16.0535 46.3763C19.9037 46.3763 23.7834 46.4781 27.6203 46.6787C27.8565 46.7001 28.0755 46.5973 28.2669 46.417C28.4828 46.2124 28.6121 45.9292 28.6121 45.6604C28.6111 45.0331 28.0734 44.6666 27.5663 44.6411Z" fill="black"/>
<path d="M12.5985 50.4758C12.4254 50.8342 12.457 51.3088 12.6749 51.6306C12.8602 51.9014 13.1362 52.0307 13.5078 51.9981C18.2012 51.658 22.9678 51.4667 27.6764 51.428C27.9035 51.4259 28.1254 51.3199 28.3047 51.1285C28.5083 50.9106 28.6203 50.6204 28.6041 50.3516C28.5664 49.7305 28.0134 49.3975 27.5094 49.3975C27.5063 49.3975 27.5033 49.3975 27.4992 49.3975C22.812 49.4341 18.0678 49.6256 13.3958 49.9647C12.9254 49.9993 12.7034 50.2609 12.5985 50.4758Z" fill="black"/>
<path d="M27.5429 54.6309C25.5063 54.5729 23.4555 54.5454 21.4036 54.5454C18.7418 54.5454 16.0749 54.5934 13.4283 54.6901C12.6514 54.7186 12.4681 55.3804 12.4813 55.7663C12.4997 56.2256 12.8031 56.742 13.465 56.7267C18.1685 56.5546 22.9403 56.5362 27.6458 56.6675C27.8729 56.6838 28.0989 56.5759 28.2853 56.3906C28.4971 56.1798 28.6192 55.8937 28.6121 55.6249C28.5958 54.9976 28.049 54.6442 27.5429 54.6309Z" fill="black"/>
</svg>
