<svg width="64" height="64" viewBox="0 0 64 64" fill="none" xmlns="http://www.w3.org/2000/svg">
<path d="M24.9419 43.3567C24.2869 42.4557 23.3889 42.2486 22.372 42.6833C18.8877 44.1727 15.9959 46.6534 13.0856 49.0234C12.9831 49.1065 12.8765 49.1813 12.773 49.2633C14.1774 47.8794 15.5828 46.4956 16.9871 45.1128C18.3464 43.774 16.9523 41.5228 15.1594 41.9749C13.0621 42.5038 10.9001 43.0461 8.73718 43.0533C10.6336 40.6136 13.2527 38.795 15.8196 37.0524C17.8083 35.7023 15.9303 32.4477 13.9231 33.81C10.0544 36.4363 6.02066 39.2769 3.95509 43.6213C3.45279 44.6782 3.81773 46.0661 5.07757 46.3797C6.71978 46.7887 8.36097 46.8503 9.996 46.7262C9.03138 47.6765 8.06573 48.6267 7.10112 49.578C5.07245 51.576 2.90437 53.5882 2.16117 56.44C1.71628 58.1499 3.47636 59.2038 4.92072 58.56C8.65617 56.8973 12.0124 54.6882 15.1881 52.1275C16.0871 51.4028 16.979 50.6698 17.8831 49.9563C16.8098 51.1598 15.6894 52.3212 14.5546 53.4662C12.8509 55.1843 15.5059 57.8414 17.2117 56.1213C19.0794 54.2372 20.9215 52.3355 22.535 50.2249C23.7702 48.6113 26.4601 45.4459 24.9419 43.3567Z" fill="#F7C300"/>
<path d="M57.4323 7.14396C42.4433 7.66266 29.3118 17.4247 24.4672 31.5465C24.4488 31.5629 24.4262 31.5752 24.4098 31.5926C23.5754 32.4261 23.7209 33.5895 24.4098 34.4342C25.6338 35.937 26.8782 37.4233 28.1463 38.8892C29.4625 40.4115 30.8064 41.697 32.9878 41.1045C34.6403 40.6565 36.2917 39.7514 37.813 38.9774C39.3557 38.1932 40.8565 37.3269 42.3019 36.3756C48.1829 32.5069 53.2335 27.2626 56.2811 20.8793C58.0525 17.1695 59.1278 13.2516 59.4466 9.15324C59.5286 8.09534 58.4563 7.10911 57.4323 7.14396ZM46.6524 23.3723C46.2597 25.2267 45.0788 26.7839 43.6119 27.6583C42.187 28.5081 40.6012 28.6136 39.1486 27.7946C37.898 27.0893 37.0513 25.7178 36.5818 24.2529C36.1339 22.8526 36.1318 21.1448 36.6023 19.7517C37.2184 17.926 38.4075 16.499 39.9554 15.6656C40.2978 15.4811 40.6494 15.4124 40.9825 15.4504C41.1558 15.3735 41.328 15.2956 41.5053 15.2505C43.3485 14.7821 45.1937 16.007 46.0691 17.8512C46.8595 19.517 47.0409 21.5395 46.6524 23.3723Z" fill="#F7C300"/>
<path d="M6.21744 30.8997C10.081 30.7469 14.0758 30.7787 18.0881 30.9909C18.2572 31.0001 18.411 31.0924 18.4991 31.2369C18.5873 31.3814 18.5975 31.5608 18.5268 31.7145L18.3259 32.1534C18.167 32.4968 18.0071 32.8402 17.8615 33.1897C17.841 33.2482 17.801 33.3445 17.761 33.3927C17.5294 33.6654 17.3551 34.1369 17.6196 34.5685C19.515 37.655 21.9906 40.388 24.9777 42.6924C25.0628 42.758 25.1817 42.7959 25.3314 42.803C25.3786 42.8051 25.4247 42.8143 25.4688 42.8287C25.6389 42.8861 25.8327 42.8728 26.048 42.7918C26.8486 42.4945 27.7107 42.1409 28.7604 41.6806C28.826 41.6519 28.8967 41.6375 28.9664 41.6375C29.0699 41.6375 29.1724 41.6683 29.2596 41.7298C29.4062 41.8323 29.4892 42.0035 29.4779 42.1819C29.2422 46.0096 29.1612 49.8271 29.2411 53.5266C29.2473 53.8096 29.3436 54.0422 29.5261 54.2175C29.5681 54.2575 29.603 54.3036 29.6296 54.3549C29.808 54.7034 30.1412 54.9607 30.461 54.9966C30.705 55.0253 30.9438 54.9146 31.1488 54.6696C33.932 51.3339 37.0073 48.3406 40.2876 45.7717C40.4208 45.6672 40.5582 45.5657 40.6956 45.4643C41.3147 45.005 41.899 44.5703 42.1184 43.9142C42.3193 43.3125 42.2414 42.5385 42.1656 41.7892C42.1359 41.4858 42.1051 41.1896 42.0938 40.9108C42.0005 38.7058 42.0272 36.3716 42.1697 33.9728C42.1789 33.8201 42.2558 33.6786 42.3798 33.5884C44.9067 31.7545 46.717 30.1134 48.0804 28.4261C54.0577 21.0208 57.9305 12.6304 59.2806 4.16203C59.377 3.55927 59.0264 3.21481 58.808 3.0631C58.4451 2.81092 57.9839 2.75561 57.6835 2.9227C57.6159 2.96165 57.54 2.98317 57.4621 2.98727C57.4375 2.98829 57.3924 2.98729 57.3698 2.98627C46.348 4.42653 35.851 9.75291 27.8901 17.9793C27.7476 18.1259 27.5302 18.1731 27.3396 18.1023C27.2135 18.0542 27.0956 18.0296 26.9798 18.0265C23.5631 17.926 20.1136 18.0387 16.7175 18.3606C16.6703 18.3668 16.5627 18.378 16.5166 18.3709C16.3885 18.3493 15.9466 18.3093 15.7201 18.6015C12.8396 22.2949 9.5654 25.7454 5.98678 28.8576C5.94783 28.8914 5.90374 28.9192 5.85658 28.9397C5.35428 29.1611 5.19439 29.7618 5.29895 30.2149C5.36148 30.4825 5.546 30.9181 6.21744 30.8997ZM40.1369 43.3464C40.0662 43.5227 39.9083 43.6375 39.733 43.6631C39.6141 43.742 39.406 43.8927 39.1661 44.0783C38.7469 44.4043 38.3297 44.7334 37.9165 45.0686C35.9514 46.6698 34.0099 48.4883 32.1473 50.4739C32.0489 50.5795 31.9125 50.6358 31.7741 50.6358C31.7096 50.6358 31.646 50.6236 31.5845 50.6C31.3887 50.5221 31.2606 50.3324 31.2616 50.1212C31.2729 47.0121 31.3959 43.8097 31.6265 40.6032C31.6398 40.4258 31.7434 40.267 31.9033 40.185C33.8787 39.1619 35.8673 37.9913 37.814 36.7027L39.2286 35.7657C39.3875 35.6591 39.5926 35.652 39.7617 35.7442C39.9298 35.8375 40.0313 36.0159 40.0262 36.2076C39.9831 37.7022 39.9791 38.9302 40.0139 40.0752C40.0313 40.6052 40.0528 41.1352 40.0815 41.6642C40.0877 41.7646 40.1092 41.8989 40.1338 42.0435C40.2035 42.4822 40.2835 42.9814 40.1369 43.3464ZM46.7221 7.77852C49.8374 6.57711 53.0583 5.71295 56.2935 5.21065C56.4657 5.18707 56.6287 5.24245 56.7445 5.36444C56.8603 5.48642 56.9085 5.65864 56.8736 5.82368C55.2714 13.3684 51.8496 20.458 46.7036 26.8956C44.1973 30.0314 40.7048 32.3388 37.3281 34.5705L36.8279 34.9016C33.0504 37.4008 29.5148 39.2686 26.0182 40.6114C25.9578 40.634 25.8962 40.6452 25.8337 40.6452C25.7179 40.6452 25.603 40.6053 25.5108 40.5305C25.3785 40.4239 25.2473 40.3152 25.1171 40.2045C24.7942 39.9298 24.4754 39.6478 24.1638 39.3577C23.5313 38.7703 22.9132 38.1419 22.3268 37.491C22.0429 37.1732 21.7641 36.8513 21.4935 36.5233C21.3663 36.3685 21.2392 36.2107 21.1152 36.0528C21.1121 36.0497 21.0414 35.9585 21.0383 35.9544L20.8651 35.7227C20.5514 35.3004 20.2644 34.8586 19.9773 34.4168L19.8553 34.2281C19.7559 34.0764 19.7457 33.8827 19.8266 33.7197L20.3535 33.8109L19.8809 33.6131C24.7215 22.05 34.7572 12.3935 46.7221 7.77852ZM10.0913 27.8777C12.4777 25.5866 14.7124 23.1304 16.7339 20.5769C16.8211 20.4672 16.9502 20.3975 17.0906 20.3841C19.7108 20.1515 22.3402 20.0438 24.8834 20.0479C25.0813 20.0489 25.2617 20.1638 25.3458 20.3432C25.4298 20.5226 25.4031 20.7348 25.276 20.8876C24.5974 21.7066 24.0141 22.4498 23.4924 23.1571C22.2459 24.8465 21.1008 26.6752 19.9907 28.7459C19.9015 28.9129 19.7272 29.0165 19.5396 29.0165C19.5283 29.0165 19.5181 29.0165 19.5068 29.0155C16.5514 28.8249 13.5172 28.7357 10.4511 28.7592C10.4501 28.7592 10.449 28.7592 10.448 28.7592C10.2399 28.7592 10.0513 28.6331 9.9734 28.4394C9.89344 28.2457 9.94058 28.0232 10.0913 27.8777Z" fill="black"/>
<path d="M46.7437 17.4833C46.3419 16.0615 45.4377 14.8498 44.2609 14.1589C43.4685 13.6945 42.5665 13.4536 41.7023 13.4536C41.1908 13.4536 40.6946 13.5377 40.2416 13.7099C40.095 13.7663 39.9545 13.8503 39.8233 13.962C39.7731 14.0041 39.7167 14.0359 39.6542 14.0564C37.4902 14.7801 36.2098 15.881 35.6235 17.5232C34.8239 19.7672 35.0258 22.9225 37.363 24.5452C39.2851 25.8799 42.4783 25.8789 44.4823 24.5411C46.8329 22.9727 47.3998 19.8041 46.7437 17.4833ZM44.9447 19.4719C44.9427 19.6113 44.9344 19.7518 44.9242 19.8933V19.8954H44.9231L44.9057 20.0768C44.8453 20.41 44.7909 20.653 44.7212 20.8928L44.6207 21.1973C44.6084 21.2362 44.5675 21.3572 44.547 21.391C44.4383 21.6227 44.3122 21.8358 44.179 22.0501C44.1667 22.0695 44.1154 22.1454 44.1021 22.1628C44.0242 22.2571 43.9391 22.3432 43.853 22.4293L43.7617 22.5227C43.5864 22.7052 42.9529 23.066 42.7756 23.1275C42.505 23.2208 42.2364 23.3008 41.9576 23.3602C41.8745 23.3787 41.7884 23.394 41.7033 23.4084C41.6777 23.4125 41.65 23.4155 41.6244 23.4155L41.4337 23.4381C41.2031 23.4565 41.0073 23.4647 40.8227 23.4647C40.7366 23.4647 40.6536 23.4637 40.5706 23.4596C40.5337 23.4586 40.4383 23.4504 40.344 23.4422L40.179 23.4289C39.8704 23.3818 39.6337 23.3314 39.403 23.2627C39.3425 23.2443 39.2841 23.2248 39.2257 23.2043C39.119 23.2146 39.0114 23.2105 38.9079 23.1715C38.7572 23.1131 38.6332 23.0106 38.5604 22.8825C38.5583 22.8804 38.5552 22.8794 38.5532 22.8773C38.5255 22.8568 38.4435 22.8015 38.3943 22.7707C38.2877 22.6826 38.2077 22.6149 38.179 22.5893C38.1626 22.577 38.1483 22.5637 38.1329 22.5494C38.0683 22.4858 38.0078 22.4192 37.9473 22.3515C37.891 22.2839 37.8397 22.2161 37.8233 22.1895C37.7372 22.048 37.6757 21.9487 37.6204 21.8441C37.5999 21.8062 37.563 21.721 37.5373 21.6595C37.4656 21.4596 37.4204 21.3263 37.3866 21.191C37.196 20.456 37.2155 19.516 37.4389 18.6129C37.5322 18.2367 37.6112 17.9969 37.6942 17.8359C37.7311 17.7642 37.7711 17.6955 37.81 17.6268L37.8674 17.5274C37.8879 17.4915 37.9586 17.3685 37.9863 17.3388C38.1821 17.1256 38.3472 16.9667 38.5225 16.8201L38.6988 16.695C38.8351 16.6078 38.9653 16.531 39.0986 16.4592L39.4266 16.2932C39.4532 16.2788 39.5527 16.2285 39.5824 16.2203L39.6131 16.2809C39.647 16.2553 39.6859 16.2399 39.7249 16.2235L39.7146 16.1753C39.9268 16.1004 40.139 16.0257 40.3553 15.96C40.875 15.8022 41.404 15.6792 41.935 15.5602C41.9934 15.5459 42.0785 15.5263 42.138 15.5366L42.3902 15.5889C42.4855 15.6135 42.5603 15.6371 42.6351 15.6607C42.67 15.672 42.8627 15.7335 42.8945 15.7519C43.1631 15.8955 43.3671 16.0122 43.5619 16.1506C43.5854 16.167 43.6387 16.2061 43.6602 16.2266L43.9247 16.4869C43.9831 16.5473 44.0375 16.6109 44.0918 16.6734L44.1851 16.8047C44.1902 16.8109 44.2517 16.9 44.2558 16.9072C44.3337 17.0292 44.4065 17.1522 44.4741 17.2783L44.5992 17.5499C44.6946 17.7979 44.7571 17.9927 44.8073 18.1906C44.8411 18.3269 44.8709 18.4663 44.8955 18.6068C44.9447 18.7205 44.957 18.8406 44.9263 18.9554C44.9375 19.1266 44.9478 19.2987 44.9447 19.4719Z" fill="black"/>
<path d="M2.60903 47.3023C3.16361 47.6282 3.7264 47.331 4.03803 46.8953C5.37373 45.0286 6.93087 43.249 8.66636 41.6068C9.48234 40.8339 10.3588 40.1142 11.2076 39.4182C12.2132 38.592 13.2537 37.7381 14.1763 36.8063C14.5678 36.4096 14.5689 35.7453 14.1783 35.3537C13.9928 35.1682 13.7283 35.0615 13.4505 35.0615C13.2157 35.0831 12.9154 35.1641 12.7298 35.3517C11.7611 36.3307 10.6899 37.2113 9.65454 38.0631C8.78526 38.7776 7.88623 39.5167 7.06718 40.3009C5.35219 41.94 3.72025 43.8364 2.21745 45.9389C2.05959 46.1614 2.08624 46.4319 2.11597 46.5734C2.1785 46.8778 2.37326 47.1639 2.60903 47.3023Z" fill="black"/>
<path d="M13.5899 45.9817C13.5305 45.9684 13.4505 45.9561 13.3603 45.9561C13.224 45.9561 13.0641 45.9848 12.9165 46.0842C11.4075 47.1031 10.0616 48.0339 8.84579 49.1082C7.81147 50.0226 6.79869 51.1092 5.56037 52.6305L5.03449 53.2743C3.17804 55.5449 1.25803 57.8933 0.133495 60.5596C-0.0735744 61.0506 -0.0940973 61.6913 0.470732 62.0214C0.708554 62.1598 1.08888 62.1875 1.39128 62.085C1.54812 62.0327 1.75417 61.926 1.84336 61.7128C2.98122 59.0168 4.85818 56.7135 6.67362 54.4859L6.94013 54.1588C8.10977 52.7206 9.06928 51.6771 10.0534 50.774C11.2466 49.6802 12.5895 48.772 13.8883 47.8935C14.3291 47.5952 14.6058 47.0119 14.2891 46.4696C14.1537 46.2359 13.8841 46.0483 13.5899 45.9817Z" fill="black"/>
<path d="M23.3191 45.4753C23.1551 45.3789 22.9911 45.3379 22.8312 45.3379C22.454 45.3379 22.1106 45.5747 21.8912 45.8822C21.4678 46.4747 21.0486 47.0693 20.6293 47.6639C19.5929 49.1328 18.5217 50.653 17.4115 52.1086C16.6724 53.0774 15.9466 53.9159 15.1932 54.6724L14.7565 55.103C14.0707 55.7744 13.4239 56.4089 12.9769 57.2085C12.7032 57.6985 12.8703 58.3444 13.3398 58.6191C13.5695 58.7534 13.8585 58.7871 14.1343 58.7133C14.3998 58.6416 14.614 58.4796 14.737 58.2592C15.1133 57.5868 15.6976 57.0282 16.2603 56.489C16.4602 56.2973 16.6611 56.1045 16.8518 55.9077C17.7611 54.9677 18.574 53.9303 19.2495 53.0405C20.3464 51.5941 21.4155 50.0811 22.4499 48.6183C22.8691 48.0237 23.2884 47.4301 23.7107 46.8386C23.8696 46.6152 23.843 46.3445 23.8133 46.2031C23.7497 45.8996 23.5559 45.6137 23.3191 45.4753Z" fill="black"/>
<path d="M62.3282 61.9388C49.6682 60.761 36.8135 60.3704 24.1044 60.7753C23.4022 60.7979 23.1008 61.3699 23.1182 61.8906C23.1233 62.0516 23.2176 62.8307 24.0726 62.8266C27.3211 62.7221 30.582 62.6707 33.8448 62.6707C43.3844 62.6707 52.9588 63.1136 62.4225 63.9931C63.1811 64.0721 63.3072 63.4785 63.3307 63.2243C63.3738 62.7671 63.138 62.0136 62.3282 61.9388Z" fill="black"/>
<path d="M38.1216 54.1394C38.1001 54.1363 38.0796 54.1353 38.058 54.1353C37.892 54.1353 37.7064 54.2193 37.5403 54.37C37.3046 54.5863 37.1529 54.8979 37.1641 55.146C37.1908 55.7497 37.5598 56.1044 38.2569 56.1977C41.0574 56.5739 43.9287 56.7451 46.7406 56.6929C47.0225 56.6888 47.3136 56.5555 47.5187 56.3371C47.695 56.1495 47.7862 55.9199 47.7759 55.6903C47.7534 55.1829 47.3649 54.6427 46.7744 54.6427C46.7683 54.6427 46.7632 54.6427 46.758 54.6427C43.8632 54.6919 40.9714 54.5217 38.1216 54.1394Z" fill="black"/>
<path d="M41.0564 5.18092C42.4987 4.42338 43.7114 3.87797 45.1086 3.35722C46.5397 2.82417 48.0465 2.368 49.5862 2.00102C49.823 1.94464 50.0475 1.76112 50.189 1.51099C50.3274 1.26394 50.3643 0.993392 50.2915 0.76582C50.1377 0.28915 49.741 0 49.2797 0C49.1905 0 49.0993 0.010233 49.0071 0.0327851C45.9113 0.770856 42.8749 1.91386 39.9801 3.43305C39.771 3.54274 39.6028 3.77238 39.5311 4.04608C39.4593 4.32183 39.4921 4.60575 39.6212 4.80565C39.9462 5.30999 40.5244 5.4618 41.0564 5.18092Z" fill="black"/>
</svg>
