<svg width="64" height="44" viewBox="0 0 64 44" fill="none" xmlns="http://www.w3.org/2000/svg">
<path d="M28.6543 31.8075C28.6181 31.2194 28.5811 30.6361 28.6294 30.0818C27.5722 30.0625 26.5135 30.0271 25.4523 29.9668C25.3711 30.3586 25.1651 30.7472 24.7838 31.098C24.7814 31.1012 24.7797 31.1019 24.7765 31.1051C24.7773 31.1124 24.7781 31.1188 24.7789 31.126C24.8095 31.5734 24.7765 32.0135 24.6848 32.4576C24.5867 32.933 24.5006 32.9395 24.5899 33.2943C24.7661 33.9902 24.8192 34.6651 24.6784 35.2701C26.0493 35.2927 27.4202 35.3208 28.7919 35.3361C28.4307 34.1696 28.7324 33.0795 28.6543 31.8075Z" fill="#F7C300"/>
<path d="M37.6015 30.1436C36.5604 30.1436 35.5194 30.1412 34.4783 30.1323C34.7269 31.2973 34.5483 32.5073 34.5258 33.6891C34.5177 34.0986 34.4156 34.4446 34.2563 34.7399C34.2812 34.9506 34.2724 35.1655 34.2362 35.3762C35.3335 35.3803 36.4309 35.3883 37.5275 35.3883C37.4414 35.1502 37.4012 34.8976 37.4366 34.6345C37.6353 33.1357 37.4197 31.6304 37.6015 30.1436Z" fill="#F7C300"/>
<path d="M57.2156 29.9764C57.2889 27.5822 57.3251 25.1863 57.3363 22.7912C57.3597 18.1322 57.2889 13.4733 57.2141 8.81511C57.1786 6.62922 57.2623 4.40392 57.1071 2.22366C56.9196 -0.41758 53.9244 0.133537 52.0217 0.11101C50.9718 0.0989421 49.629 -0.146474 48.6105 0.1335C47.6797 0.389338 47.1269 1.60739 46.74 2.41674C45.9837 3.99924 45.5541 5.7338 44.6893 7.26401C42.941 10.3566 38.4301 11.6808 35.1098 11.9294C32.8942 12.0951 30.6383 11.8714 28.5361 11.1305C26.4081 10.3806 25.2617 8.62042 24.2303 6.71532C23.7033 5.74265 23.2423 4.73774 22.8674 3.69669C22.5038 2.68862 22.3557 1.18255 21.3396 0.588007C20.3372 0.00151096 18.8303 0.287955 17.7257 0.301632C16.4312 0.316918 15.1359 0.332995 13.8407 0.348281C13.7385 0.349086 13.646 0.364403 13.5543 0.380493C13.5446 0.380493 13.5358 0.376467 13.5253 0.376467H12.9742C12.753 0.368422 12.5462 0.414277 12.3539 0.514842C12.3499 0.516451 12.3459 0.518831 12.3419 0.52044C11.7795 0.682953 11.4038 1.15041 11.2533 1.7176C11.1946 1.86885 11.1495 2.03136 11.1359 2.2164C10.7634 7.2696 10.6081 12.3373 10.6885 17.4042C10.7569 21.6931 10.7159 26.2282 11.6307 30.4688C11.6628 31.2645 11.6854 32.0609 11.7312 32.8566C11.4754 33.7769 11.9661 34.9604 13.2131 35.0014C15.4569 35.0755 17.7016 35.1318 19.9462 35.1824C19.8778 34.7721 19.9164 34.3506 20.1039 33.9701C20.0524 33.7657 20.0081 33.5582 19.9928 33.3361C19.9534 32.7432 20.0669 32.1784 20.2085 31.6056C20.2326 31.5082 20.2511 31.4422 20.2664 31.394C20.239 31.3642 20.2053 31.2194 20.1827 30.7842C20.165 30.4471 20.2052 30.122 20.2889 29.7978C18.8738 29.8573 17.4731 30.0625 16.1247 30.5621C14.7763 31.0617 13.8704 29.3819 14.4867 28.3296C14.4762 28.2998 14.4642 28.2677 14.4408 28.2274C14.3741 28.1068 14.3491 27.9112 14.3145 27.7769C14.2188 27.4019 14.1311 27.0037 14.1327 26.6151C14.1359 25.7881 14.5157 25.1155 15.1633 24.6223C15.7772 24.1541 16.5053 23.8758 17.2213 23.6014C17.7724 23.3906 18.6018 23.1026 18.9269 22.9658C22.9632 21.2602 27.0099 19.5683 30.9456 17.6399C31.2682 17.3181 31.7341 17.1845 32.2192 17.2087C32.3061 17.2103 32.3913 17.2175 32.4742 17.2344C33.5153 17.3953 34.2369 18.0317 35.1058 18.5651C35.9859 19.105 37.0093 19.4219 37.9884 19.7276C40.1196 20.3938 42.2781 20.9408 44.3031 21.9022C45.2009 22.3286 45.9958 22.8822 46.9017 23.1453C47.6885 23.3737 48.5566 23.5362 49.2605 23.9763C50.8446 24.9667 50.4552 27.0142 50.8487 28.5725C51.0594 29.406 50.5775 30.1252 49.8084 30.4044C48.7022 30.8067 47.4528 30.9113 46.2838 30.9491C45.1784 30.9845 43.9193 30.9757 42.8775 30.5621C42.8565 30.5541 42.838 30.542 42.8179 30.5332C42.8799 30.9708 42.9089 31.4149 42.9201 31.8469C42.9515 33.0601 43.1084 34.1414 43.1245 35.3667C44.7737 35.353 46.423 35.3409 48.0723 35.316C50.3853 35.2814 52.7369 35.3466 55.0443 35.1776C57.667 34.9837 57.1569 31.8847 57.2156 29.9764Z" fill="#F7C300"/>
<path d="M56.5045 36.3475H56.4973L54.428 36.3605L54.5463 35.8617C54.5624 35.7949 54.5696 35.7281 54.5696 35.6581C54.5463 24.9644 54.4264 14.1372 54.2156 3.47569L54.2478 3.2665C54.2945 3.16594 54.3154 3.06532 54.3106 2.96717C54.2905 2.50215 53.9429 2.14897 53.5029 2.14575C51.0338 2.12644 48.5237 2.21094 46.0546 2.38793C46.02 2.39035 45.987 2.40246 45.9532 2.41131L45.8084 2.4499L45.6153 2.40001C45.4367 2.31312 45.2533 2.29055 45.1004 2.33078C44.9331 2.37583 44.7995 2.49973 44.7038 2.69925L44.3989 3.3324C43.1454 5.94388 41.8502 8.64467 39.1936 10.2248C36.2893 11.9521 33.4429 12.6584 30.5032 12.3792C25.2665 11.8861 20.3533 8.41703 17.0226 2.861C16.9872 2.80227 16.9446 2.74838 16.8899 2.69287L16.8255 2.60841C16.6799 2.35096 16.4313 2.1989 16.124 2.18121C13.9276 2.0565 11.687 2.09264 9.46978 2.29297L9.39335 2.29945L9.32094 2.27853C9.22842 2.25118 9.13349 2.23826 9.03936 2.23826C8.84466 2.23826 8.65641 2.29458 8.52045 2.40158C8.35311 2.53192 8.27265 2.72747 8.2831 2.9817C8.69985 13.9964 8.92834 25.1857 8.96374 36.2398L8.96533 36.6413L7.54374 36.6501C6.93553 36.6533 6.77624 37.1666 6.77865 37.4691C6.78026 37.8343 6.97977 38.2592 7.53328 38.2592H7.53972L49.9324 37.9976L50.037 38.0701C50.3379 38.2777 50.7916 38.2768 51.0708 38.0692L51.1762 37.9896L56.4908 37.9566C57.0999 37.9526 57.2584 37.4393 57.2568 37.1368C57.2568 36.7724 57.0572 36.3475 56.5045 36.3475ZM17.8167 6.76134C20.2761 9.75497 24.4854 13.4388 30.578 13.9907C33.6674 14.2691 36.7873 13.4999 39.8582 11.7002C41.4278 10.7799 42.5597 9.75489 43.4206 8.47409C43.7351 8.00506 44.0489 7.48136 44.4391 6.77499L45.1616 5.46519L45.493 21.3972L44.9234 21.1591C40.6015 19.3553 36.3175 17.6448 32.1911 16.0752C31.9666 15.9899 31.7727 16.0013 31.6126 16.1099L31.5121 16.1598C31.4541 16.1783 31.4228 16.1878 31.393 16.2007C28.1427 17.5845 25.1089 18.9852 22.1201 20.4832C20.902 21.0938 19.6397 21.6015 18.3452 22.1091L17.8762 22.2934C17.8384 21.9482 17.8255 21.6007 17.8481 21.2531C17.8513 21.1976 17.8432 21.1389 17.8296 21.0802C17.5005 16.459 17.2543 11.734 17.1039 7.02758L17.0661 5.84575L17.8167 6.76134ZM10.576 36.6308L10.5744 36.2277C10.5406 25.6853 10.325 14.9264 9.9356 4.25124L9.92112 3.86184L10.3097 3.83523C11.8624 3.72984 13.4489 3.70252 15.0234 3.75401L15.4031 3.76609L15.4128 4.14576C15.552 9.89166 15.8279 15.6545 16.2334 21.2748C16.2342 21.2829 16.2374 21.2877 16.2382 21.2958C16.2068 21.8348 16.2543 22.3755 16.3525 22.9057C15.3701 23.3071 14.2752 23.7834 13.2245 24.3626C12.7916 24.6007 12.8166 24.9733 12.8713 25.1736L12.8842 25.2596L13.3878 36.6139L10.576 36.6308ZM14.9944 36.6035L14.7643 31.3998L19.0589 31.2325L19.297 36.5769L14.9944 36.6035ZM24.4154 30.5124L24.4081 30.5535C24.3116 32.2961 24.2545 34.1272 24.2319 36.1513L24.2279 36.5471L20.9044 36.5672L20.6317 30.4762L20.6414 30.4159C20.6446 30.3893 20.651 30.3636 20.6502 30.3354C20.6494 30.2212 20.651 30.1093 20.6607 29.9983L20.6808 29.8576C20.7315 29.6548 20.7709 29.5004 20.8216 29.3459L20.8996 29.1728C20.9342 29.1053 20.9696 29.0369 21.009 28.9709C21.079 28.8342 21.1458 28.7015 21.26 28.613L21.3011 28.5639C21.4185 28.4231 21.5649 28.2485 21.7653 28.1697L21.7765 28.1624C21.865 28.1053 21.9624 28.049 22.0613 27.9975L22.2174 27.9307C22.2424 27.9235 22.277 27.909 22.3051 27.8969L22.3936 27.8631C22.4475 27.8462 22.5022 27.8333 22.5569 27.8196C22.5899 27.8212 22.6229 27.818 22.6559 27.8204C22.9214 27.8687 23.178 27.9484 23.4274 28.0505C23.6559 28.1479 23.882 28.259 24.096 28.3869C24.1201 28.4295 24.145 28.4713 24.1676 28.5155L24.2778 28.8044C24.3912 29.1527 24.4612 29.3845 24.4234 29.5655C24.4275 29.625 24.4298 29.683 24.4315 29.7409C24.4363 29.9485 24.4282 30.1543 24.4138 30.3595L24.4154 30.5124ZM25.837 36.5367L25.8418 36.128C25.8579 34.7096 25.9005 33.2107 25.9705 31.6709L25.993 31.152L26.4894 31.3041C26.7364 31.3797 26.9271 31.3531 27.0888 31.2791L27.6568 31.0225V31.6451C27.6568 33.1359 27.6584 34.6276 27.6849 36.1183L27.6922 36.5254L25.837 36.5367ZM33.389 30.5775L33.3745 30.5784C33.3753 30.584 33.3761 30.5896 33.3769 30.5961H33.3858L33.3673 36.4908L29.302 36.5158L29.2948 36.1183C29.257 33.9976 29.2441 32.0531 29.2562 30.1721C29.257 30.1174 29.2465 30.0554 29.224 29.9741L29.1741 29.7964L29.2208 29.7014C29.2385 29.6258 29.2658 29.5429 29.2835 29.4866L29.4453 29.0876C29.5161 28.9364 29.5876 28.7843 29.6657 28.6362C29.7107 28.5526 29.7566 28.4689 29.8073 28.3869L29.8644 28.3048C29.8869 28.2742 29.9159 28.2356 29.9336 28.2075L30.2514 27.9234L30.4018 27.8743C30.4573 27.855 30.5104 27.839 30.5273 27.8342L30.5917 27.8196C31.0173 27.814 31.4429 27.8325 31.8653 27.8832C31.9618 27.8977 32.0583 27.9098 32.1508 27.9428C32.1822 27.9613 32.2136 27.9805 32.2458 27.9958L32.3769 28.0835C32.4324 28.1342 32.4847 28.1825 32.5338 28.2324L32.5378 28.2356C32.6215 28.2944 32.6778 28.3699 32.7221 28.4399L32.8677 28.6242L32.8476 28.6579C32.8717 28.7014 32.8934 28.7393 32.9127 28.7771L32.9867 28.9307C33.027 29.0304 33.0575 29.1109 33.0624 29.1278C33.0962 29.2235 33.1292 29.3306 33.1581 29.4384C33.2539 29.7787 33.3206 30.1303 33.3834 30.4827L33.3922 30.5293L33.389 30.5775ZM36.488 36.4707L34.9755 36.4811L34.9924 31.3338L35.4751 31.4336C35.6224 31.4634 35.7825 31.4617 35.9522 31.4006L36.4888 31.2099V36.4707H36.488ZM41.9982 36.4369L38.0971 36.4602L38.0922 29.9098C38.1429 29.617 38.1952 29.3297 38.2877 29.0385L38.3996 28.7706C38.4454 28.6869 38.4736 28.6411 38.5026 28.5976L38.7769 28.3249L38.875 28.2614C38.9217 28.23 38.9684 28.1994 39.0166 28.1704L39.0906 28.1254C39.2073 28.0521 39.3529 27.9604 39.5098 27.9121L39.6168 27.872C39.7125 27.8382 39.8139 27.8068 39.9169 27.7803L40.0006 27.7657C40.1277 27.7979 40.2604 27.8108 40.4004 27.7738C40.4229 27.7681 40.4463 27.7649 40.4688 27.7601C40.5517 27.7529 40.6337 27.7561 40.7158 27.7601C40.748 27.769 40.781 27.7779 40.8196 27.7915L40.9121 27.8325L40.9073 27.8463C40.9266 27.8559 40.9475 27.8615 40.966 27.872V27.88L40.9756 27.8841L40.9805 27.8752L41.1156 27.9428C41.2822 28.1962 41.398 28.4866 41.5219 28.761C41.674 29.0964 41.826 29.4319 41.9773 29.7666C41.9821 29.7771 41.9918 29.7859 41.9966 29.7956V36.4369H41.9982ZM42.5453 27.1479C42.5211 27.1181 42.4922 27.094 42.4664 27.065C42.4013 26.9669 42.3305 26.8712 42.246 26.7827C41.9185 26.4407 41.4785 26.2557 41.0175 26.1841C41.0038 26.1809 40.9917 26.1752 40.9781 26.172C40.974 26.1712 40.97 26.1688 40.9652 26.168C40.752 26.1229 40.5324 26.1012 40.3095 26.1092C39.3634 26.1454 38.3754 26.5509 37.5999 27.2211C36.8935 27.8325 36.6618 28.7553 36.5283 29.5776L36.4558 30.0852L35.9804 29.9025C35.7913 29.8269 35.5854 29.8189 35.3738 29.8962L34.9369 30.0554L34.842 29.6001C34.7108 28.9701 34.4976 28.164 34.0173 27.5187C33.6585 27.0376 33.2893 26.7094 32.8886 26.5131C32.8162 26.4777 32.7317 26.4624 32.6553 26.4326C32.5885 26.4077 32.5225 26.382 32.4542 26.3635C32.1058 26.2525 31.7365 26.1752 31.3133 26.1695C31.0833 26.1655 30.7848 26.1736 30.479 26.2138C30.4058 26.2154 30.3334 26.2074 30.2602 26.2114C30.0808 26.2194 29.9135 26.2854 29.7719 26.3948C29.2867 26.5887 28.8901 26.9065 28.5377 27.3972C28.3205 27.6989 28.1612 28.0441 27.989 28.4311C27.8523 28.7384 27.7389 28.9942 27.6801 29.2404C27.6681 29.2911 27.6648 29.341 27.6608 29.3901L27.5892 30.0273L27.0896 29.8052C26.9287 29.7344 26.7413 29.7095 26.5184 29.7706L26.0526 29.8962L26.0131 29.415C25.9649 28.8374 25.8329 28.3193 25.6278 27.8639C25.6069 27.695 25.5433 27.5284 25.4178 27.3828C25.3824 27.3418 25.3357 27.3136 25.2963 27.2774C25.0373 26.9033 24.7267 26.5959 24.4113 26.4206C23.8723 26.1205 23.2746 26.1068 22.8659 26.1478C22.7629 26.1583 22.668 26.1873 22.5674 26.2034C22.4564 26.2002 22.3462 26.1978 22.2351 26.2082C22.0171 26.23 21.8272 26.2838 21.6663 26.4439C21.6655 26.4447 21.6655 26.4464 21.6647 26.4464C21.0686 26.6749 20.54 27.0095 20.1393 27.46C19.6759 27.9805 19.3429 28.6258 19.1771 29.325L19.1063 29.6226L14.6935 29.7916L14.5069 25.5847L14.7346 25.3909C16.1023 24.6965 17.5448 24.1293 18.9406 23.5798C20.2842 23.0512 21.6728 22.5042 22.9793 21.8501C25.7573 20.4567 28.6455 19.1195 31.8073 17.7631L31.9578 17.6988L32.109 17.7567C37.8388 19.9402 43.5622 22.266 49.1222 24.6683L49.3572 24.7697L49.4988 29.6653L49.0884 29.6693C47.2509 29.6886 45.5984 29.736 44.0377 29.8148L43.6788 29.8326L43.6209 29.4786L43.6346 29.4722C43.6249 29.4408 43.6217 29.4077 43.6185 29.3748L43.6072 29.3764C43.3747 28.6266 43.0835 27.8269 42.5453 27.1479ZM43.6072 36.4264V31.4448L43.9894 31.4255C45.5928 31.3451 47.2807 31.2968 49.1496 31.2783L49.5438 31.2743L49.6926 36.3886L43.6072 36.4264ZM51.3001 36.379L50.9356 24.1559C50.9437 23.8421 50.8173 23.6643 50.547 23.5477C49.5872 23.1309 48.6226 22.7222 47.6588 22.3135L47.1166 22.0834L46.7392 3.96241L47.1254 3.93982C48.8624 3.83925 50.5736 3.78295 52.2116 3.77169L52.609 3.76933L52.6171 4.16668C52.8214 14.7204 52.9365 25.3152 52.9606 35.6581C52.9606 35.7265 52.9703 35.7941 52.9888 35.8721L53.1143 36.3694L51.3001 36.379Z" fill="black"/>
<path d="M0.727812 40.871C0.702068 40.8694 0.677113 40.8687 0.652978 40.8687C0.420471 40.8687 0.245101 40.9531 0.131664 41.1212C-0.030045 41.3602 -0.0445447 41.7327 0.0978557 42.0263C0.19118 42.2186 0.385883 42.4535 0.785731 42.4825C9.88085 43.1438 19.1827 43.0489 28.1805 42.9564C30.932 42.9282 33.6818 42.9 36.4277 42.8919C37.0326 42.8903 37.1928 42.3811 37.192 42.0802C37.1912 41.7118 36.9916 41.2829 36.4325 41.2829C36.4317 41.2829 36.4309 41.2829 36.4293 41.2829C33.6859 41.2901 30.9384 41.3184 28.1885 41.3473C19.1771 41.439 9.85672 41.5355 0.727812 40.871Z" fill="black"/>
<path d="M63.2528 40.7374C56.0894 41.0053 48.8278 41.0785 41.6683 40.9555C41.6619 40.9555 41.6555 40.9555 41.6498 40.9555C41.4213 40.9555 41.2387 41.0294 41.11 41.1743C40.9885 41.311 40.9161 41.5106 40.9129 41.7229C40.9073 42.0303 41.0641 42.554 41.6828 42.5645C48.8246 42.6876 56.0741 42.6144 63.2231 42.3473C63.6084 42.3328 63.7999 42.1204 63.8924 41.945C64.0421 41.6618 64.0348 41.287 63.8755 41.0327C63.7452 40.8268 63.5529 40.7334 63.2528 40.7374Z" fill="black"/>
</svg>
