<svg width="184" height="14" viewBox="0 0 184 14" fill="none" xmlns="http://www.w3.org/2000/svg">
<path d="M183.285 9.35537C181.176 7.53615 178.926 5.86581 176.818 4.04659C174.714 2.37195 173.223 1.54755 170.785 3.21117C168.777 4.5727 166.343 6.38089 164.793 8.30781C164.646 8.31212 164.642 8.16754 164.495 8.17185C164.184 7.60215 163.439 7.18995 162.986 6.76913C161.93 5.78723 161.02 4.80102 159.968 3.9637C158.308 2.42072 156.51 1.1712 154.2 2.25218C151.886 3.18859 150.495 5.54494 148.643 7.19132C148.501 7.34021 148.359 7.4891 148.217 7.63799C148.647 7.3359 148.492 7.05105 147.906 7.06828C147.453 6.64747 146.717 6.52443 146.122 6.2525C145.08 5.70434 144.037 5.15618 142.994 4.60802C140.611 3.37573 138.366 1.84998 136.12 0.324222C135.37 -0.232556 134.062 0.0953758 133.495 0.690927C132.511 2.0223 131.523 3.20909 130.54 4.54047C129.977 5.2806 129.414 6.02073 128.852 6.76086C128.71 6.90974 128.568 7.05863 128.431 7.3521C128.289 7.50099 128.289 7.50099 128.289 7.50099C126.953 6.96144 125.746 5.83927 124.548 5.00626C123.203 4.17755 121.854 3.20427 120.363 2.37987C117.82 0.718152 115.305 -0.0760888 112.588 2.02988C110.589 3.68057 108.736 5.32695 106.737 6.97764C105.091 5.86839 103.449 4.90372 101.656 3.79878C100.014 2.83411 98.3584 1.4357 96.323 1.92976C94.4339 2.4195 92.7322 4.20615 91.1586 5.41018C90.2987 6.01435 89.4387 6.61851 88.7251 7.21837C87.8651 7.82254 87.2797 7.83977 86.2415 7.43619C82.8295 6.08948 80.1085 3.42001 76.2893 3.09828C72.3239 2.78086 69.6249 5.46515 66.615 7.57973C65.6133 8.33279 65.7551 8.1839 64.7077 7.49116C63.8113 6.93869 63.0613 6.38191 62.1649 5.82944C60.3721 4.7245 58.5793 3.61956 56.5166 3.24613C54.4584 3.01729 52.7293 3.93646 50.8539 4.85994C49.843 5.32384 48.8321 5.78773 47.8212 6.25163C46.8104 6.71552 45.2322 7.77497 43.9195 7.95832C42.1631 8.01002 39.9176 6.48426 38.4221 5.51529C36.7756 4.40604 35.4037 2.70986 33.341 2.33643C31.4246 1.9587 29.5446 2.7376 28.1174 3.93732C26.5438 5.14134 25.1394 7.06396 23.0721 6.54595C21.0093 6.17253 19.3492 4.62954 17.561 3.66918C15.6218 2.56855 13.5454 1.76138 11.1945 1.54115C6.93172 1.08777 2.59089 2.80739 0.367465 6.63539C-1.01876 9.13632 2.85501 11.193 4.24123 8.69207C6.18559 5.30643 10.4301 5.18149 13.7002 6.67709C16.9703 8.17269 19.696 10.9867 23.506 11.0193C25.2669 11.1122 26.8541 10.3419 28.2904 9.43134C29.434 8.5294 31.4103 6.15581 32.9012 6.98021C34.3876 7.66003 35.755 9.21163 37.2505 10.1806C38.8924 11.1453 40.827 12.1013 42.5925 12.3388C44.5043 12.5719 46.0916 11.8017 47.8252 11.0271C49.9933 10.095 52.1478 8.72913 54.3205 7.94161C56.205 7.30729 58.0114 8.84596 59.5024 9.67036C60.9979 10.6393 62.6626 12.3269 64.5744 12.5601C67.9635 13.1839 70.6169 9.05379 73.3614 7.8153C76.5405 6.4193 79.7052 9.22043 82.3853 10.5887C84.0271 11.5533 85.9572 12.3648 87.8508 12.0197C89.8908 11.6702 91.5971 10.0281 93.1706 8.82408C94.0306 8.21992 95.3069 6.87993 96.3223 6.56061C96.4687 6.5563 96.7478 6.11395 96.7478 6.11395C97.0405 6.10533 98.0924 6.94265 98.3897 7.07862C100.484 8.4641 102.725 9.84528 104.82 11.2308C104.82 11.2308 104.966 11.2264 104.971 11.371C105.721 11.9278 106.896 12.0379 107.747 11.1446C109.033 10.0938 110.172 9.04725 111.457 7.99642C112.024 7.40086 112.742 6.94559 113.31 6.35003C113.74 6.04795 114.586 5.01005 115.167 4.84823C116.333 4.66919 118.446 6.63299 119.342 7.18546C120.687 8.01417 121.885 8.84718 123.23 9.67588C125.325 11.0614 127.881 13.1568 130.159 11.0638C131.298 10.0173 132.131 8.54561 132.973 7.36313C133.535 6.623 134.24 5.73398 134.802 4.99385C138.543 7.48858 142.422 9.68985 146.575 11.3042C149.095 12.243 150.513 10.7541 152.219 9.11205C153.07 8.21872 153.912 7.03623 154.918 6.42776C155.778 5.82359 155.202 6.12998 155.947 6.54218C156.395 6.81842 157.004 7.52408 157.456 7.9449C158.513 8.9268 159.423 9.91301 160.475 10.7503C161.229 11.4517 162.139 12.4379 163.177 12.8415C165.547 13.64 166.951 11.7174 168.52 10.3688C169.517 9.47117 170.515 8.57354 171.658 7.67159C171.658 7.67159 172.518 7.06743 172.948 6.76534C173.099 6.90561 173.25 7.04589 173.401 7.18616C175.509 9.00538 177.759 10.6757 179.868 12.4949C182.415 14.3012 185.393 11.1746 183.285 9.35537Z" fill="#F7C300"/>
</svg>
