<svg width="64" height="55" viewBox="0 0 64 55" fill="none" xmlns="http://www.w3.org/2000/svg">
<path d="M41.4669 30.4391C41.4669 30.3341 41.5728 30.2292 41.6786 30.1242C41.9962 29.8093 42.3137 29.4944 42.6313 29.1796C43.2664 28.5498 44.0073 28.025 44.7483 27.6051C44.6424 27.5002 44.6424 27.5002 44.5366 27.3952C44.4307 27.2903 44.4307 27.1853 44.3249 27.1853C44.219 26.9754 44.0073 26.7654 43.9015 26.5555C43.6898 26.1357 43.2664 25.8208 42.843 25.7158C42.5254 25.4009 42.2079 25.296 41.6786 25.191C41.8903 23.9315 42.2079 22.567 42.2079 21.2025C42.2079 19.2082 41.5728 17.3189 40.1967 15.9544C39.1382 14.9048 37.868 14.275 36.5978 13.6452C35.9627 13.3303 35.4335 13.0154 34.7984 12.7006C34.4808 12.4906 33.9516 11.9658 33.7399 11.7559C32.9989 10.7063 31.9404 10.4964 30.8819 11.0212C27.8123 12.3857 24.0017 13.3303 22.7315 16.6891C22.0964 18.2635 21.9905 20.1528 22.0964 21.8322C22.2022 22.6719 22.3081 23.5116 22.4139 24.4563C22.4139 24.7712 22.4139 24.8761 22.3081 25.191C22.3081 25.296 22.0964 25.4009 22.0964 25.5059C21.7788 25.7158 21.4613 26.0307 21.3554 26.3456C21.0379 26.6605 20.8262 27.1853 20.8262 27.7101C20.8262 28.7597 21.7788 29.9143 22.9432 29.8093C28.1298 29.5994 33.3165 29.3895 38.609 29.3895C39.3499 29.4945 40.0909 29.9143 40.8318 30.2292C40.9377 30.1242 41.1494 30.3341 41.4669 30.4391Z" fill="#F7C300"/>
<path d="M48.1355 35.6869C48.6647 36.1067 49.194 36.6315 49.6174 37.1563C49.8291 37.3663 49.8291 37.5762 50.0408 37.6811C50.1466 37.6811 50.1466 37.6811 50.2525 37.6811C50.8876 37.6811 51.5227 37.6811 52.1578 37.6811C52.8988 37.6811 53.6397 37.5762 54.3807 37.6811C54.3807 37.6811 54.3807 37.6811 54.4865 37.6811C55.4392 37.6811 56.4977 37.5762 57.4503 37.6811C57.5562 37.6811 57.662 37.6811 57.8737 37.6811H57.9796C58.403 37.6811 59.5673 37.5762 60.0966 37.2613C60.0966 37.0514 60.0966 36.9464 60.0966 36.7365C60.3083 36.5266 60.52 36.3166 60.6258 36.1067C61.5785 34.4273 62.0019 32.3281 60.4141 30.9636C59.779 30.3338 58.9322 30.0189 58.1913 29.5991C57.2386 29.0743 56.286 28.3395 55.2275 28.6544C54.3807 28.8643 53.428 29.4941 52.6871 29.914C52.0519 30.2288 51.311 30.6487 50.57 30.9636C50.4642 30.9636 50.4642 30.9636 50.3583 30.9636C50.2525 30.8586 50.1466 30.8586 50.0408 30.7537C49.8291 30.8586 49.6174 30.9636 49.5115 31.1735C49.194 31.4884 48.8764 32.0132 48.6647 32.433C48.5589 32.8529 48.453 33.2727 48.453 33.6926C48.453 34.1124 48.5589 34.6372 48.453 35.0571C48.2413 35.267 48.1355 35.4769 48.1355 35.6869Z" fill="#F7C300"/>
<path d="M3.04321 35.6869C3.57246 36.1067 4.10171 36.6315 4.52511 37.1563C4.73681 37.3663 4.73681 37.5762 4.94851 37.6811C5.05436 37.6811 5.05436 37.6811 5.16021 37.6811C5.79532 37.6811 6.43041 37.6811 7.06552 37.6811C7.80647 37.6811 8.44157 37.6811 9.28837 37.6811C9.28837 37.6811 9.28837 37.6811 9.39422 37.6811C10.3469 37.6811 11.4054 37.5762 12.358 37.6811C12.4639 37.6811 12.5697 37.6811 12.7814 37.6811H12.8873C13.3107 37.6811 14.475 37.5762 15.0043 37.2613C15.0043 37.0514 15.0043 36.9464 15.0043 36.7365C15.216 36.5266 15.4277 36.3166 15.5335 36.1067C16.4862 34.4273 16.9096 32.3281 15.3218 30.9636C14.6867 30.3338 13.8399 30.0189 13.099 29.5991C12.1463 29.0743 11.1937 28.3395 10.1352 28.6544C9.28837 28.8643 8.33572 29.4941 7.59477 29.914C6.95967 30.2288 6.21871 30.6487 5.47776 30.9636C5.37191 30.9636 5.37191 30.9636 5.26606 30.9636C5.16021 30.8586 5.05436 30.8586 4.94851 30.7537C4.73681 30.8586 4.52511 30.9636 4.41926 31.1735C4.10171 31.4884 3.78416 32.0132 3.57246 32.433C3.25491 32.8529 3.14906 33.2727 3.14906 33.6926C3.14906 34.1124 3.25491 34.6372 3.14906 35.0571C3.14906 35.267 3.14906 35.4769 3.04321 35.6869Z" fill="#F7C300"/>
<path d="M55.6507 47.2328C55.5448 46.3931 55.3331 45.2385 55.7565 44.3989C55.7565 44.3989 55.6507 44.3989 55.6507 44.2939C55.6507 44.2939 55.5448 44.2939 55.5448 44.1889H55.439C55.0156 43.979 54.698 43.979 54.2746 43.979C53.8512 43.979 53.4278 43.979 53.0044 44.084C52.8986 44.084 52.7927 44.1889 52.6869 44.1889H52.581H52.4752C52.3693 44.1889 52.2635 44.2939 52.2635 44.2939C52.2635 44.2939 52.2635 44.2939 52.1576 44.2939C52.1576 44.2939 52.1576 44.2939 52.0518 44.3989C51.9459 44.5038 51.8401 44.5038 51.6284 44.5038C51.205 45.6584 51.5225 47.0229 51.5225 48.1775C51.5225 49.9618 51.6284 51.7462 51.5225 53.4256C53.0044 53.5305 54.5922 53.5305 56.0741 53.5305C55.6507 52.4809 55.6507 51.2214 55.5448 50.1718C55.7565 49.3321 55.7565 48.2824 55.6507 47.2328Z" fill="#F7C300"/>
<path d="M12.0403 46.6029C11.9345 45.6582 11.7228 44.3987 12.1462 43.559C12.1462 43.559 12.0403 43.559 12.0403 43.454L11.9345 43.3491H11.8286C11.4052 43.1391 11.0877 43.1391 10.6643 43.0342C10.2409 43.0342 9.81747 43.0342 9.39407 43.1391C9.28822 43.1391 9.18237 43.2441 9.07652 43.2441H8.97067H8.86482C8.75897 43.2441 8.65312 43.3491 8.65312 43.3491C8.65312 43.3491 8.65312 43.3491 8.54727 43.3491C8.54727 43.3491 8.54727 43.3491 8.44142 43.454C8.33557 43.559 8.22972 43.559 8.01802 43.559C7.59462 44.8185 7.91217 46.288 7.91217 47.6525C7.91217 49.5418 8.01802 51.5361 7.91217 53.4254C9.39407 53.5304 10.9818 53.5304 12.4637 53.5304C12.0403 52.3758 12.0403 51.0113 11.9345 49.7517C12.1462 48.8071 12.1462 47.7575 12.0403 46.6029Z" fill="#F7C300"/>
<path d="M59.4613 38.6261C59.4613 38.6261 59.5671 38.7311 59.4613 38.6261C59.5671 39.1509 59.5671 39.6757 59.5671 40.2005C59.5671 40.8303 59.5671 41.4601 59.4613 41.9849C59.3554 42.1948 59.1437 42.4047 58.932 42.4047C56.4975 42.2998 53.9571 42.1948 51.5225 42.4047C50.8874 42.5097 49.6172 42.5097 49.4055 41.67C49.4055 41.565 49.4055 41.3551 49.4055 41.2501C49.4055 40.9353 49.2997 40.6204 49.2997 40.3055C49.1938 39.6757 49.088 38.941 48.9821 38.3112C48.9821 38.2062 48.8763 38.1013 48.8763 37.9963C48.7704 37.7864 48.5587 37.5765 48.347 37.3665C48.0295 37.0517 47.7119 36.7368 47.3944 36.5269C47.2885 36.5269 47.1827 36.5269 46.971 36.5269C46.3359 36.5269 45.8066 36.5269 45.1715 36.6318C44.4306 36.7368 43.6896 36.7368 42.9487 36.7368C42.737 36.7368 42.6311 36.7368 42.4194 36.7368C42.4194 38.836 42.5253 40.8303 42.5253 42.9295C42.5253 44.504 42.5253 46.0784 42.5253 47.6528C42.5253 48.3875 42.5253 49.1223 42.5253 49.857C42.5253 50.6967 42.4194 51.5364 42.6311 52.3761C42.8428 53.0059 43.3721 53.7406 44.113 53.8456C45.1715 53.9505 46.1242 53.7406 47.0768 53.6356C47.8178 53.5307 48.5587 53.5307 49.1938 53.2158C49.088 53.0059 49.088 52.9009 49.088 52.691C48.9821 51.9562 49.088 51.3265 49.088 50.5917C49.088 49.752 49.088 49.0173 49.088 48.1776C49.088 47.4429 49.088 46.6032 49.088 45.8685C49.088 45.4486 49.088 45.0288 49.1938 44.6089C49.5114 43.6643 50.464 43.6643 51.3108 43.7692C51.4167 43.7692 51.5225 43.8742 51.6284 43.8742C52.3693 43.2444 53.5337 43.0345 54.4863 43.0345C55.3331 43.0345 56.1799 43.3494 56.815 43.8742C57.2384 43.7692 57.6618 43.7692 58.0852 43.7692C58.6145 43.7692 59.3554 43.6643 59.9905 43.8742C59.9905 42.0898 59.9905 40.4104 60.0964 38.6261C59.7788 38.5211 59.673 38.6261 59.4613 38.6261Z" fill="#F7C300"/>
<path d="M7.7005 39.4658C6.32444 39.4658 6.32444 41.5651 7.7005 41.5651C8.9707 41.5651 8.9707 39.4658 7.7005 39.4658Z" fill="#1E1E1E"/>
<path d="M21.4613 53.3207C21.4613 52.5859 21.5671 51.9562 21.5671 51.2214C21.5671 49.4371 21.673 47.5478 21.7788 45.7634C21.7788 43.8741 21.8847 42.0898 21.7788 40.3054C21.673 38.731 21.5671 37.2615 21.5671 35.6871C21.3554 35.6871 21.1437 35.6871 20.932 35.6871C19.1326 35.6871 16.4863 35.3722 15.6395 37.3665C15.322 38.1012 15.322 39.1508 15.2161 39.9905C15.1103 40.8302 15.1103 41.6699 15.0044 42.5096C14.8986 44.084 14.8986 45.7634 15.0044 47.3378C15.0044 48.0726 15.1103 48.9123 15.2161 49.647C15.322 50.6966 15.322 51.9562 16.1688 52.7959C16.8039 53.4256 17.7565 53.5306 18.7092 53.6356C19.556 53.6356 20.4028 53.7405 21.2496 53.7405H21.5671C21.4613 53.5306 21.4613 53.4256 21.4613 53.3207Z" fill="#F7C300"/>
<path d="M33.4222 35.8969L32.3637 36.0019C32.3637 36.0019 32.3637 36.0019 32.2579 36.0019C30.9877 35.8969 29.6116 35.792 28.3414 35.687C28.3414 37.2614 28.5531 38.7309 28.659 40.3053C28.7648 42.0897 28.7648 43.7691 28.659 45.5534C28.5531 47.3378 28.4473 49.1221 28.4473 50.9065C28.4473 51.6412 28.4473 52.3759 28.3414 53.1107C28.3414 53.3206 28.3414 53.5305 28.2356 53.7404H29.3999C30.5643 53.7404 31.7286 53.9504 32.7871 53.7404C33.9515 53.5305 34.9042 53.0057 35.3276 52.166C35.751 51.3263 35.6451 50.2767 35.7509 49.332C35.9626 45.5534 36.0685 41.7748 36.0685 37.9962C36.1743 36.8416 34.9042 35.792 33.4222 35.8969Z" fill="#F7C300"/>
<path d="M11.4053 39.3608C10.0293 39.3608 10.0293 41.4601 11.4053 41.4601C12.7814 41.4601 12.7814 39.3608 11.4053 39.3608Z" fill="#1E1E1E"/>
<path d="M62.9543 52.9008C62.4251 52.9008 61.8958 52.9008 61.4724 52.9008V52.7958C61.1549 47.8626 60.9432 42.9294 60.6256 37.9962C62.6368 36.2118 62.9543 33.063 61.3666 30.9637C60.5198 29.8092 59.2496 29.2843 57.9794 28.6546C57.2384 28.3397 56.2858 28.0248 55.6507 27.395V22.4618C55.6507 21.8321 55.1214 21.4122 54.5922 21.4122C54.0629 21.4122 53.5337 21.937 53.5337 22.4618V26.7653C53.4278 26.8702 53.322 26.9752 53.322 27.1851C52.4752 28.0248 51.5225 28.6546 50.464 29.1794C49.8289 29.4943 49.1938 29.7042 48.5587 30.0191V29.9141C48.347 29.2843 48.1353 28.5496 47.6061 28.0248C47.2885 27.7099 46.8651 27.5 46.3359 27.395C46.6534 23.1966 46.8651 18.8931 46.8651 14.6947H47.6061C48.2412 14.6947 48.6646 14.1698 48.6646 13.645C48.6646 13.1202 48.1353 12.5954 47.6061 12.5954H46.8651C46.8651 12.3855 46.8651 12.1756 46.8651 11.9656C46.971 11.9656 47.1827 11.9656 47.2885 11.9656H47.1827C47.5002 11.9656 47.7119 11.9656 48.0295 11.8607C48.2412 11.7557 48.4529 11.4408 48.5587 11.2309C48.6646 11.021 48.5587 10.6011 48.4529 10.3912C48.347 10.1813 48.0295 9.97137 47.8178 9.86641C47.5002 9.86641 47.1827 9.76145 46.8651 9.76145C46.8651 9.3416 46.7593 8.92176 46.7593 8.50191C46.6534 7.1374 44.5364 7.1374 44.6423 8.50191C44.6423 8.81679 44.7481 9.23664 44.7481 9.55153C44.4306 9.55153 44.2189 9.55153 43.9013 9.44656C43.2662 9.44656 42.8428 9.97137 42.8428 10.4962C42.8428 11.126 43.3721 11.5458 43.9013 11.5458C44.2189 11.5458 44.5364 11.5458 44.854 11.6508C44.854 11.9656 44.854 12.1756 44.854 12.4905H43.7955C43.1604 12.4905 42.737 13.0153 42.737 13.5401C42.737 14.0649 43.2662 14.5897 43.7955 14.5897H44.854C44.854 18.3683 44.6423 22.1469 44.4306 25.9256L44.3247 25.8206C44.113 25.6107 43.7955 25.5057 43.5838 25.2958C43.4779 25.1908 43.3721 25.1908 43.3721 25.0859C43.3721 25.0859 43.3721 24.9809 43.2662 24.9809C43.1604 24.771 42.9487 24.5611 42.6311 24.5611C43.1604 22.8817 43.5838 21.0973 43.3721 19.313C43.1604 17.5286 42.2077 16.1641 40.9375 15.0095C39.6673 13.75 38.1854 12.8053 36.5977 11.8607C35.2216 11.021 33.6339 10.1813 33.1046 8.60687C32.9988 6.08779 32.8929 3.5687 33.1046 1.04962C33.1046 0.524809 32.5754 0 32.0461 0C31.411 0 30.9876 0.524809 30.9876 1.04962C30.8818 3.46374 30.8818 5.7729 30.9876 8.18702C30.8818 8.29198 30.8818 8.39695 30.7759 8.50191C30.2467 10.1813 28.6589 11.021 27.2829 11.8607C25.6951 12.8053 24.3191 13.855 22.943 15.0095C21.6728 16.1641 20.7202 17.6336 20.5085 19.313C20.2968 21.0973 20.7202 22.8817 21.2494 24.5611C21.0377 24.666 20.826 24.771 20.6143 24.9809C20.6143 24.9809 20.6143 25.0859 20.5085 25.0859C20.4026 25.1908 20.4026 25.1908 20.2968 25.2958C20.0851 25.5057 19.7675 25.6107 19.5558 25.8206L19.45 25.9256C19.2383 22.1469 19.0266 18.3683 19.0266 14.5897H20.0851C20.6143 14.5897 21.1436 14.0649 21.1436 13.5401C21.1436 13.0153 20.7202 12.4905 20.0851 12.4905H19.0266C19.0266 12.1756 19.0266 11.9656 19.0266 11.6508C19.3441 11.6508 19.6617 11.6508 19.9792 11.5458C20.5085 11.5458 21.0377 11.126 21.0377 10.4962C21.0377 9.97137 20.6143 9.44656 19.9792 9.44656C19.6617 9.44656 19.45 9.44656 19.1324 9.55153C19.1324 9.23664 19.1324 8.81679 19.2383 8.50191C19.3441 7.1374 17.2271 7.1374 17.1213 8.50191C17.1213 8.92176 17.0154 9.3416 17.0154 9.76145C16.6979 9.76145 16.3803 9.86641 16.0627 9.86641C15.851 9.86641 15.5335 10.1813 15.4276 10.3912C15.3218 10.6011 15.2159 10.916 15.3218 11.2309C15.4276 11.4408 15.5335 11.7557 15.851 11.8607C16.1686 11.9656 16.3803 11.9656 16.6978 11.9656H16.592C16.6978 11.9656 16.9095 11.9656 17.0154 11.9656C17.0154 12.1756 17.0154 12.3855 17.0154 12.5954H16.2744C15.7452 12.5954 15.2159 13.1202 15.2159 13.645C15.2159 14.1698 15.6393 14.6947 16.2744 14.6947H17.0154C17.0154 18.8931 17.2271 23.1966 17.5447 27.395C17.1213 27.5 16.592 27.7099 16.2744 28.0248C15.7452 28.5496 15.5335 29.1794 15.3218 29.9141V30.0191C14.6867 29.7042 14.0516 29.4943 13.4165 29.1794C12.358 28.6546 11.4053 28.0248 10.5585 27.1851C10.5585 27.0802 10.4527 26.8702 10.3468 26.7653V22.4618C10.3468 21.937 9.8176 21.4122 9.28834 21.4122C8.75909 21.4122 8.22984 21.8321 8.22984 22.4618V27.395C7.59474 28.0248 6.64209 28.3397 5.90114 28.6546C4.63094 29.2843 3.36074 29.8092 2.51394 30.9637C0.926188 33.1679 1.24374 36.2118 3.25489 37.9962C3.04319 42.9294 2.72564 47.8626 2.51394 52.7958V52.9008C1.98469 52.9008 1.45544 52.9008 1.03204 52.9008C-0.344013 52.9008 -0.344013 55 1.03204 55C11.4053 54.895 21.6728 54.7901 32.0461 54.5801C42.4194 54.6851 52.6869 54.895 63.0602 55C64.3304 55 64.3304 52.9008 62.9543 52.9008ZM43.2662 30.334C43.3721 30.229 43.3721 30.124 43.4779 30.0191L43.5838 29.9141C43.6896 29.8092 43.7955 29.7042 43.7955 29.7042L43.9013 29.5992C44.0072 29.4943 44.113 29.4943 44.2189 29.3893H44.3247H44.4306H44.5364C44.6423 29.3893 44.854 29.3893 44.9598 29.3893H45.0657C45.1715 29.3893 45.1715 29.3893 45.2774 29.3893C45.3832 29.3893 45.5949 29.3893 45.7008 29.4943C45.8066 29.4943 45.8066 29.4943 45.9125 29.5992H46.0183C46.0183 29.5992 46.0183 29.7042 46.1242 29.7042C46.1242 29.7042 46.1242 29.8092 46.23 29.8092C46.3359 30.0191 46.3359 30.229 46.4417 30.4389C46.5476 30.7538 46.7593 30.9637 47.0768 31.0687C46.23 32.1183 46.0183 33.4828 46.23 34.8473H42.737C42.737 33.3779 42.8428 32.0134 42.8428 30.5439C43.0545 30.5439 43.1604 30.4389 43.2662 30.334ZM22.7313 19.1031C23.0489 17.4237 24.5308 16.2691 25.801 15.3244C27.8121 13.75 30.4584 12.8053 31.9403 10.7061C33.4222 12.7004 36.0684 13.75 38.0796 15.3244C39.3498 16.374 40.8317 17.4237 41.1492 19.1031C41.4668 20.7824 40.9375 22.5668 40.4083 24.1412C37.5503 24.0363 34.7982 24.1412 31.9403 24.2462C29.0823 24.0363 26.3302 24.0363 23.4723 24.1412C22.943 22.5668 22.4138 20.8874 22.7313 19.1031ZM17.4388 30.334C17.5447 30.124 17.5447 29.9141 17.6505 29.7042C17.6505 29.7042 17.6505 29.5992 17.7563 29.5992C17.7563 29.5992 17.7563 29.4943 17.8622 29.4943C17.8622 29.4943 17.8622 29.4943 17.9681 29.4943C18.0739 29.4943 18.0739 29.4943 18.1798 29.3893C18.2856 29.3893 18.4973 29.2843 18.6032 29.2843C18.709 29.2843 18.709 29.2843 18.8148 29.2843H18.9207C19.0266 29.2843 19.2383 29.2843 19.3441 29.2843H19.45H19.5558H19.6617C19.7675 29.3893 19.8734 29.3893 19.9792 29.4943L20.0851 29.5992C20.1909 29.7042 20.2968 29.8092 20.2968 29.8092L20.4026 29.9141C20.5085 30.0191 20.5085 30.124 20.6143 30.229C20.7202 30.334 20.7202 30.4389 20.826 30.4389C20.9319 31.9084 20.9319 33.2729 20.9319 34.7424H17.4388C17.6505 33.3779 17.4388 32.0134 16.592 30.9637C17.1213 30.9637 17.333 30.6489 17.4388 30.334ZM6.95964 52.6908V52.7958C6.11284 52.7958 5.37189 52.7958 4.52509 52.7958C4.52509 52.7958 4.52509 52.7958 4.52509 52.6908C4.73679 49.7519 4.84264 46.9179 5.05434 43.979H7.48889C7.59474 47.0229 7.48889 49.8569 6.95964 52.6908ZM10.8761 52.7958C10.3468 52.7958 9.71174 52.7958 9.18249 52.7958C9.6059 49.8569 9.81759 47.0229 9.71174 44.084H10.7702C10.8761 47.0229 10.9819 49.8569 10.8761 52.7958ZM12.9931 52.7958C13.0989 49.8569 13.0989 47.0229 12.8872 44.084H14.0516C14.1574 44.084 14.1574 44.084 14.2633 44.084C14.1574 47.0229 14.1574 49.9618 14.2633 52.7958C13.8399 52.7958 13.4165 52.7958 12.9931 52.7958ZM14.2633 41.9847C14.1574 41.9847 14.0516 41.8798 13.9457 41.8798L5.26604 42.0897C5.26604 40.8302 5.37189 39.6756 5.47774 38.521C8.54739 38.626 11.617 38.521 14.6867 38.416C14.475 39.6756 14.3691 40.8302 14.2633 41.9847ZM14.6867 36.3168C11.5112 36.4218 8.33569 36.5267 5.26604 36.4218C5.05434 36.4218 4.94849 36.4218 4.84264 36.5267C3.36074 35.1622 3.36074 32.8531 4.94849 31.5935C6.32454 30.5439 8.22984 30.229 9.6059 29.0744C10.241 29.5992 10.8761 30.124 11.617 30.5439C12.6755 31.0687 13.8399 31.3836 14.7925 32.0134C16.1686 32.958 15.6393 35.0573 14.6867 36.3168ZM21.0377 52.6908C19.45 52.6908 17.8622 52.6908 16.3803 52.7958C16.0627 47.7576 16.2745 42.8244 16.9095 37.7863C16.9095 37.6813 16.9095 37.4714 16.8037 37.3664C16.8037 37.2615 16.8037 37.1565 16.8037 37.1565C16.8037 37.1565 16.9095 37.0515 16.9095 36.9466H21.1436C21.2494 42.1947 21.2494 47.4427 21.0377 52.6908ZM27.0712 52.5859C25.801 52.5859 24.5308 52.5859 23.1547 52.5859C23.3664 47.3378 23.3664 42.0897 23.2606 36.9466H25.6951C25.801 36.9466 25.9068 37.0515 25.9068 37.0515C26.3302 37.0515 26.6478 37.0515 27.0712 37.0515C27.0712 42.1947 27.0712 47.4427 27.0712 52.5859ZM27.0712 34.8473H23.2606C23.2606 33.3779 23.1547 32.0134 23.1547 30.5439C24.5308 30.5439 25.801 30.5439 27.177 30.5439C27.0712 32.0134 27.0712 33.4828 27.0712 34.8473ZM32.0461 52.4809C31.9403 52.4809 31.9403 52.4809 31.8344 52.4809C30.8818 52.4809 30.035 52.4809 29.0823 52.4809C29.0823 47.3378 29.0823 42.0897 29.1882 36.9466C30.1408 36.9466 30.9876 36.8416 31.9403 36.8416C32.8929 36.8416 33.7397 36.9466 34.6924 36.9466C34.6924 42.0897 34.6924 47.3378 34.7982 52.4809C33.8456 52.5859 32.9988 52.5859 32.0461 52.4809ZM31.7286 30.6489C31.8344 30.6489 31.9403 30.6489 31.9403 30.6489C32.0461 30.6489 32.0461 30.6489 32.152 30.6489C32.9988 30.6489 33.8456 30.6489 34.6924 30.6489C34.6924 32.1183 34.6924 33.4828 34.6924 34.9523C33.9514 34.9523 33.3163 34.9523 32.5754 34.8473C32.4695 34.8473 32.4695 34.8473 32.3637 34.8473C32.2578 34.8473 32.0461 34.8473 31.9403 34.8473C31.8344 34.8473 31.6227 34.8473 31.5169 34.8473C31.411 34.8473 31.411 34.8473 31.3052 34.8473C30.5642 34.8473 29.9291 34.9523 29.1882 34.9523C29.1882 33.4828 29.1882 32.1183 29.1882 30.6489C30.035 30.6489 30.8818 30.6489 31.7286 30.6489ZM36.9152 52.5859C36.9152 47.4427 36.9152 42.1947 36.8094 37.0515C37.2328 37.0515 37.5503 37.0515 37.9737 37.0515C38.0796 37.0515 38.1854 37.0515 38.1854 36.9466H40.62C40.5141 42.1947 40.5141 47.4427 40.7258 52.5859C39.4556 52.5859 38.1854 52.5859 36.9152 52.5859ZM40.7258 34.8473H36.9152C36.9152 33.3779 36.9152 32.0134 36.9152 30.5439C38.2913 30.5439 39.5615 30.5439 40.9375 30.5439C40.8317 32.0134 40.7258 33.3779 40.7258 34.8473ZM41.8902 28.5496C41.7843 28.4447 41.5726 28.4447 41.3609 28.4447C39.879 28.4447 38.2913 28.4447 36.8094 28.4447C36.8094 28.3397 36.8094 28.1298 36.8094 28.0248C36.8094 26.6603 34.6924 26.6603 34.6924 28.0248C34.6924 28.2347 34.6924 28.3397 34.6924 28.5496C33.7397 28.5496 32.8929 28.5496 31.9403 28.5496C30.9876 28.5496 30.1408 28.5496 29.1882 28.5496C29.1882 28.3397 29.1882 28.2347 29.1882 28.0248C29.1882 26.6603 27.0712 26.6603 27.0712 28.0248C27.0712 28.1298 27.0712 28.3397 27.0712 28.4447C25.5893 28.4447 24.0015 28.4447 22.5196 28.4447C22.3079 28.4447 22.0962 28.5496 21.9904 28.5496C21.6728 28.2347 21.3553 27.9198 21.0377 27.605C21.0377 27.605 20.9319 27.605 20.9319 27.5L21.0377 27.395C21.4611 27.0802 21.9904 26.7653 22.4138 26.3454C25.2717 26.2405 28.2355 26.2405 31.0935 26.3454C31.1993 26.4504 31.411 26.4504 31.5169 26.4504C31.7286 26.4504 31.8344 26.4504 32.0461 26.4504C32.2578 26.4504 32.3637 26.4504 32.5754 26.4504C32.6812 26.4504 32.8929 26.4504 32.9988 26.3454C35.8567 26.2405 38.8205 26.1355 41.6785 26.3454C41.996 26.7653 42.5253 27.0802 43.0545 27.395L43.1604 27.5C43.1604 27.5 43.0545 27.5 43.0545 27.605C42.5253 27.9198 42.2077 28.2347 41.8902 28.5496ZM47.6061 52.6908C46.0183 52.6908 44.4306 52.6908 42.9487 52.5859C42.737 47.3378 42.737 42.0897 42.8428 36.8416H47.1827C47.1827 36.8416 47.2885 36.9466 47.2885 37.0515C47.2885 37.1565 47.2885 37.2614 47.2885 37.2614C47.2885 37.3664 47.1827 37.4714 47.1827 37.6813C47.7119 42.7195 47.9236 47.7576 47.6061 52.6908ZM49.2997 38.416C52.3693 38.521 55.439 38.521 58.5086 38.521C58.6145 39.6756 58.6145 40.8302 58.7203 42.0897L49.9348 41.9847C49.8289 41.9847 49.7231 41.9847 49.6172 42.0897C49.5114 40.8302 49.4055 39.6756 49.2997 38.416ZM50.9933 52.7958C50.5699 52.7958 50.1465 52.7958 49.7231 52.7958C49.9348 49.8569 49.9348 46.9179 49.7231 44.084C49.8289 44.084 49.8289 44.084 49.9348 44.084H51.0991C50.8874 46.9179 50.8874 49.8569 50.9933 52.7958ZM53.1103 52.7958C53.0044 49.8569 53.0044 47.0229 53.2161 44.084H54.2746C54.1688 47.0229 54.3805 49.9618 54.8039 52.7958C54.2746 52.7958 53.7454 52.7958 53.1103 52.7958ZM56.9209 52.7958V52.6908C56.4975 49.8569 56.2858 46.9179 56.3916 44.084H58.8262C59.0379 47.0229 59.1437 49.8569 59.3554 52.7958C59.3554 52.7958 59.3554 52.7958 59.3554 52.9008C58.5086 52.9008 57.7677 52.9008 56.9209 52.7958ZM59.1437 36.5267C59.0379 36.4218 58.8262 36.4218 58.7203 36.4218C55.5448 36.5267 52.3693 36.4218 49.2997 36.3168C48.347 35.0573 47.8178 32.958 49.2997 31.9084C50.2523 31.2786 51.4167 30.9637 52.4752 30.4389C53.2161 30.0191 53.8512 29.5992 54.4863 28.9695C55.7565 30.124 57.7677 30.334 59.1437 31.4885C60.6256 32.8531 60.6256 35.1622 59.1437 36.5267Z" fill="#1E1E1E"/>
<path d="M56.2857 39.4658C57.6618 39.4658 57.6618 41.5651 56.2857 41.5651C54.9096 41.5651 54.9096 39.4658 56.2857 39.4658Z" fill="#1E1E1E"/>
<path d="M52.5809 39.3608C53.9569 39.3608 53.9569 41.4601 52.5809 41.4601C51.2048 41.4601 51.2048 39.3608 52.5809 39.3608Z" fill="#1E1E1E"/>
</svg>
