<svg width="60" height="64" viewBox="0 0 60 64" fill="none" xmlns="http://www.w3.org/2000/svg">
<path d="M49.3343 57.8675C44.7658 57.7561 40.1973 57.6446 35.6288 57.5332C34.1802 57.5332 34.1802 59.7617 35.6288 59.7617C40.1973 59.8732 44.7658 59.9846 49.3343 60.096C50.7828 60.096 50.7828 57.8675 49.3343 57.8675Z" fill="#1E1E1E"/>
<path d="M25.6005 57.3105C20.6977 57.0877 15.9063 56.9762 11.0035 57.0877C9.55498 57.0877 9.55498 59.3162 11.0035 59.3162C15.9063 59.2048 20.6977 59.3162 25.6005 59.539C26.9376 59.6505 26.9376 57.4219 25.6005 57.3105Z" fill="#1E1E1E"/>
<path d="M50.7829 19.0908C47.1058 9.61955 36.8545 3.6025 27.6061 7.83672C27.3833 7.94815 27.049 8.05958 26.8261 8.171C26.4918 8.28243 26.1576 8.28243 25.8233 8.50528C16.4634 13.0738 12.5635 24.9965 16.352 35.0249C20.3634 45.9447 32.5089 47.1704 41.7573 43.8276C46.2144 42.2677 49.3344 39.9277 51.0058 35.1363C52.7886 30.0107 52.6772 24.2165 50.7829 19.0908Z" fill="#F7C300"/>
<path d="M49.1114 21.7649C48.5543 19.8707 47.6629 18.0878 46.5486 16.5279C44.5429 13.7422 42.0915 11.8479 39.3058 10.1765C37.4116 9.06225 35.183 7.94798 32.9545 7.72512C30.8374 7.50227 28.4974 7.72512 26.3803 8.17083C22.5918 8.95082 18.9147 10.3994 16.0176 13.185C10.4463 18.645 9.55484 27.782 12.8976 34.579C14.9033 38.5904 18.2461 41.8218 22.1461 43.716C22.0347 44.0503 21.9232 44.3846 21.7004 44.7189C20.809 46.7246 19.8061 48.7302 19.1376 50.8474C18.3576 52.9645 17.689 55.0816 16.6862 57.0873C16.0176 58.313 17.9119 59.4272 18.5804 58.2015C19.5833 56.3073 20.2518 54.3016 20.9204 52.2959C21.7004 50.0674 22.7032 47.9503 23.5946 45.8331C23.8175 45.3874 23.9289 44.9417 24.1518 44.6074C27.9403 45.9446 32.0631 46.1674 35.963 45.0532L36.6316 46.836C38.0801 50.9588 39.5287 55.0816 41.8687 58.8701C42.6486 60.0958 44.5429 58.9815 43.7629 57.7558C41.4229 54.0787 40.0858 49.8445 38.5259 45.8331C38.303 45.3874 38.1916 44.8303 37.9687 44.3846C38.8601 44.0503 39.7515 43.6046 40.5315 43.0475C47.6629 38.7018 51.34 29.7877 49.1114 21.7649ZM44.2086 36.3618C43.8743 36.919 43.5401 37.4761 43.2058 37.9218C40.7544 35.9161 38.5259 33.9105 36.2973 31.6819C37.0773 30.6791 37.523 29.5648 37.6344 28.3391C40.8658 28.3391 44.0972 28.3391 47.3286 28.4505C47.44 28.4505 47.5514 28.4505 47.6629 28.3391C47.2171 31.2362 45.7686 33.9105 44.2086 36.3618ZM47.6629 26.222C47.5514 26.222 47.44 26.1106 47.2171 26.1106C43.9858 26.1106 40.8658 26.1106 37.6344 25.9991C37.523 25.3306 37.4116 24.662 37.1887 23.9935C36.9659 23.3249 36.5202 22.6563 36.0745 22.0992C38.7487 20.4278 41.2001 18.3107 42.8715 15.7479C45.7686 18.645 47.5514 22.3221 47.6629 26.222ZM31.7288 9.84223C31.9517 9.84223 32.1745 9.84223 32.3974 9.84223C35.7402 10.1765 38.8601 12.0708 41.4229 14.2993C40.643 15.6364 39.6401 16.6393 38.5259 17.7535C37.3002 18.8678 36.0745 19.7592 34.6259 20.6507C33.7345 19.9821 32.6202 19.5364 31.5059 19.3135C31.7288 16.1936 31.7288 13.0736 31.7288 9.84223ZM29.5003 9.95366C29.6117 13.0736 29.5003 16.305 29.2774 19.425C29.0546 19.3135 28.7203 19.2021 28.4974 19.3135C27.4946 19.7592 26.2689 20.0935 25.266 20.6507C23.2604 18.1993 21.1432 15.9707 18.8033 13.8536C21.8118 11.6251 25.6003 10.1765 29.5003 9.95366ZM14.0119 20.6507C14.5691 18.645 15.6833 16.8621 17.1319 15.3022C19.4718 17.4193 21.7004 19.6478 23.7061 22.2106C22.9261 23.3249 22.4804 24.5506 22.3689 25.8877V25.9991C19.3604 25.9991 16.3519 26.222 13.3434 26.5563C13.2319 24.5506 13.4548 22.5449 14.0119 20.6507ZM18.0233 38.2561C16.4633 36.6961 15.349 34.9133 14.5691 32.9076C14.1233 31.5705 13.7891 30.2334 13.5662 28.8962C16.5747 28.562 19.5833 28.4505 22.4804 28.3391C22.7032 29.4534 23.2604 30.4562 23.9289 31.3476C21.9232 33.6876 20.4747 36.2504 18.0233 38.2561ZM19.6947 39.7047C20.9204 38.7018 21.9232 37.4761 22.9261 36.2504C23.3718 35.5819 23.8175 35.0247 24.2632 34.3562C24.7089 33.6876 25.0432 33.2419 25.6003 32.6848C25.8232 32.9076 26.1575 33.019 26.4917 33.1305C25.0432 35.8047 24.0403 38.7018 23.0375 41.5989C21.8118 41.1532 20.6975 40.4846 19.6947 39.7047ZM25.0432 42.6018C26.1575 39.5932 27.0489 36.6961 28.6088 33.9105C28.8317 33.9105 29.0546 34.0219 29.166 34.0219C29.166 37.2533 29.2774 40.3732 29.2774 43.6046C27.8289 43.3818 26.3803 43.0475 25.0432 42.6018ZM28.386 31.5705C26.2689 31.0134 24.5975 29.2305 24.4861 26.8906C24.4861 25.6649 24.8203 24.4392 25.4889 23.4363C26.2689 22.3221 27.8289 21.9878 29.0546 21.5421C29.0546 21.5421 29.166 21.5421 29.166 21.4306C29.2774 21.5421 29.5003 21.5421 29.6117 21.5421C31.6174 21.3192 33.7345 22.3221 34.7373 24.1049C35.8516 25.9991 35.7402 28.4505 34.5145 30.2334C33.9573 31.1248 33.0659 31.6819 31.9517 31.7933C30.8374 31.9048 29.5003 31.9048 28.386 31.5705ZM31.9517 43.6046C31.8402 43.6046 31.6174 43.6046 31.5059 43.6046C31.5059 40.4846 31.3945 37.2533 31.3945 34.1333C31.6174 34.1333 31.7288 34.1333 31.9517 34.1333C33.0659 37.1418 34.1802 40.1504 35.183 43.1589C34.1802 43.2703 33.0659 43.4932 31.9517 43.6046ZM37.4116 42.2675C36.2973 39.2589 35.2945 36.3618 34.1802 33.3533C34.2916 33.2419 34.5145 33.2419 34.6259 33.1305C36.8544 35.359 39.1944 37.4761 41.6458 39.4818L41.7572 39.5932C41.0887 40.2618 40.1973 40.9304 39.3058 41.3761C38.6373 41.7103 38.0801 42.0446 37.4116 42.2675Z" fill="#1E1E1E"/>
<path d="M32.9545 24.7737C32.1745 23.4366 30.2802 22.768 28.8317 23.548C28.7203 23.6594 28.6088 23.7708 28.4974 23.8823C27.9403 24.1051 27.4946 24.5508 27.1603 25.108C26.826 25.7765 26.7146 26.5565 26.6031 27.3365C26.6031 28.7851 27.3831 30.345 28.9431 30.7907C30.5031 31.125 31.9516 30.2336 32.7316 28.8965C33.5116 27.6708 33.7345 26.1108 32.9545 24.7737ZM31.1717 26.8908C31.1717 27.0022 31.1717 27.1136 31.0602 27.2251C31.0602 27.3365 30.9488 27.4479 30.9488 27.5594C30.9488 27.5594 30.9488 27.6708 30.8374 27.6708C30.8374 27.7822 30.726 27.8936 30.726 27.8936C30.726 27.8936 30.726 27.8936 30.726 28.0051C30.6145 28.0051 30.5031 28.2279 30.5031 28.2279L30.3917 28.3393C30.2802 28.3393 30.2802 28.4508 30.1688 28.4508C30.1688 28.4508 30.1688 28.4508 30.0574 28.4508C29.946 28.4508 29.8345 28.5622 29.7231 28.5622H29.6117H29.5003H29.3888H29.2774L29.166 28.4508C29.166 28.4508 29.0545 28.3393 29.166 28.4508C29.166 28.4508 29.166 28.3393 29.0545 28.3393C29.0545 28.2279 28.9431 28.0051 28.9431 27.8936C28.9431 27.8936 28.9431 28.1165 28.9431 27.8936C28.9431 27.7822 28.9431 27.7822 28.9431 27.6708C28.9431 27.5594 28.9431 27.4479 28.9431 27.2251C28.9431 27.1136 28.9431 27.1136 28.9431 27.0022C28.9431 26.8908 28.9431 26.7794 29.0545 26.6679V26.5565C29.0545 26.5565 29.0545 26.4451 29.166 26.4451C29.166 26.4451 29.166 26.4451 29.2774 26.3337C29.6117 26.3337 29.8345 26.1108 30.0574 25.8879H30.1688C30.1688 25.8879 30.1688 25.8879 30.2802 25.8879C30.2802 25.8879 30.3917 25.8879 30.2802 25.8879C30.2802 25.8879 30.3917 25.8879 30.5031 25.9994L30.6145 26.1108C30.6145 26.2222 30.726 26.2222 30.8374 26.3337C30.8374 26.3337 30.8374 26.4451 30.9488 26.4451V26.5565C30.9488 26.6679 30.9488 26.7794 31.0602 26.7794V26.8908C31.0602 27.0022 31.0602 27.1136 31.0602 27.2251C31.2831 26.7794 31.1717 26.8908 31.1717 26.8908Z" fill="#1E1E1E"/>
<path d="M50.2259 41.042C49.2231 39.0364 46.9945 38.2564 44.8774 38.4792C44.6546 38.4792 44.4317 38.7021 44.3203 38.8135C42.7603 39.3706 41.5346 40.8192 41.4232 42.3792C41.2003 44.162 42.3146 45.9448 43.8746 46.7248C45.6574 47.5048 47.9974 47.6162 49.5573 46.0563C50.8945 44.7191 51.1173 42.7134 50.2259 41.042ZM48.5545 43.2706V43.382C48.5545 43.4934 48.5545 43.4934 48.5545 43.4934C48.5545 43.6049 48.5545 43.6049 48.5545 43.7163C48.5545 43.7163 48.5545 43.8277 48.4431 43.8277C48.3316 43.9391 48.3316 44.0506 48.2202 44.162C48.2202 44.162 48.1088 44.3849 47.9974 44.3849C47.9974 44.3849 47.7745 44.4963 47.7745 44.6077C47.6631 44.7191 47.5517 44.7191 47.4402 44.8306C47.3288 44.8306 47.2174 44.942 47.1059 44.942C46.5488 45.0534 45.8803 45.0534 45.2117 44.8306C44.8774 44.7191 44.766 44.7191 44.4317 44.4963C44.4317 44.4963 44.3203 44.4963 44.3203 44.3849C44.3203 44.3849 44.3203 44.3849 44.2088 44.2734L44.0974 44.162L43.986 44.0506C43.8746 43.9391 43.8746 43.8277 43.7631 43.7163C43.7631 43.7163 43.5403 43.2706 43.6517 43.4934C43.6517 43.382 43.5403 43.1592 43.5403 43.0477V42.9363V42.8249C43.5403 42.7134 43.5403 42.7135 43.5403 42.602C43.5403 42.602 43.5403 42.4906 43.5403 42.3792C43.5403 42.2677 43.6517 42.1563 43.6517 41.9335C43.6517 41.822 43.7631 41.822 43.7631 41.7106C43.7631 41.7106 43.986 41.3763 43.8746 41.4878C43.986 41.3763 44.0974 41.2649 44.2088 41.1535L44.3203 41.042L44.4317 40.9306C44.5431 40.9306 44.5431 40.8192 44.6546 40.8192C44.6546 40.8192 44.766 40.8192 44.766 40.7078C44.8774 40.7078 45.1003 40.5963 45.2117 40.5963C45.4345 40.5963 45.546 40.4849 45.6574 40.3735C45.7688 40.3735 45.9917 40.3735 46.1031 40.3735C46.2145 40.3735 46.2145 40.3735 46.326 40.3735C46.4374 40.3735 46.6602 40.4849 46.7717 40.4849H46.8831C46.9945 40.4849 46.9945 40.5963 47.1059 40.5963C47.2174 40.5963 47.2174 40.7078 47.3288 40.7078C47.3288 40.7078 47.4402 40.7078 47.4402 40.8192L47.5517 40.9306L47.6631 41.042C47.6631 41.042 47.7745 41.1535 47.7745 41.2649L47.8859 41.3763C47.9974 41.4878 47.9974 41.5992 48.1088 41.7106V41.822V41.9335C48.1088 42.0449 48.2202 42.2677 48.2202 42.3792C48.2202 42.3792 48.2202 42.3792 48.2202 42.4906C48.2202 42.602 48.2202 42.602 48.2202 42.7134C48.5545 43.1592 48.5545 43.2706 48.5545 43.2706Z" fill="#1E1E1E"/>
<path d="M34.5146 46.9478C33.5118 44.9421 31.2832 44.1621 29.1661 44.385C28.9432 44.385 28.7204 44.6078 28.609 44.7193C27.049 45.2764 25.8233 46.725 25.7119 48.2849C25.489 50.0678 26.6033 51.8506 28.1633 52.6306C29.9461 53.4106 32.2861 53.522 33.846 51.962C35.1832 50.6249 35.406 48.6192 34.5146 46.9478ZM32.8432 49.1763V49.2878C32.8432 49.3992 32.8432 49.3992 32.8432 49.3992C32.8432 49.5106 32.8432 49.5106 32.8432 49.6221C32.8432 49.6221 32.8432 49.7335 32.7318 49.7335C32.6203 49.8449 32.6203 49.9563 32.5089 50.0678C32.5089 50.0678 32.3975 50.2906 32.2861 50.2906C32.2861 50.2906 32.0632 50.402 32.0632 50.5135C31.9518 50.6249 31.8404 50.6249 31.7289 50.7363C31.6175 50.7363 31.5061 50.8477 31.3946 50.8477C30.8375 50.9592 30.1689 50.9592 29.5004 50.7363C29.1661 50.6249 29.0547 50.6249 28.7204 50.402C28.7204 50.402 28.609 50.402 28.609 50.2906C28.609 50.2906 28.609 50.2906 28.4975 50.1792L28.3861 50.0678L28.2747 49.9563C28.1633 49.8449 28.1633 49.7335 28.0518 49.6221C28.0518 49.6221 27.829 49.1763 27.9404 49.3992C27.9404 49.2878 27.829 49.0649 27.829 48.9535V48.8421V48.7306C27.829 48.6192 27.829 48.6192 27.829 48.5078C27.829 48.5078 27.829 48.3964 27.829 48.2849C27.829 48.1735 27.9404 48.0621 27.9404 47.8392C27.9404 47.7278 28.0518 47.7278 28.0518 47.6164C28.0518 47.6164 28.2747 47.2821 28.1633 47.3935C28.2747 47.2821 28.3861 47.1707 28.4975 47.0592L28.609 46.9478L28.7204 46.8364C28.8318 46.8364 28.8318 46.725 28.9433 46.725C28.9433 46.725 29.0547 46.725 29.0547 46.6135C29.1661 46.6135 29.389 46.5021 29.5004 46.5021C29.7232 46.5021 29.8347 46.3907 29.9461 46.2792C30.0575 46.2792 30.2804 46.2792 30.3918 46.2792C30.5032 46.2792 30.5032 46.2792 30.6147 46.2792C30.7261 46.2792 30.9489 46.3907 31.0604 46.3907H31.1718C31.2832 46.3907 31.2832 46.5021 31.3946 46.5021C31.5061 46.5021 31.5061 46.6135 31.6175 46.6135C31.6175 46.6135 31.7289 46.6135 31.7289 46.725L31.8404 46.8364L31.9518 46.9478C31.9518 46.9478 32.0632 47.0592 32.0632 47.1707L32.1746 47.2821C32.2861 47.3935 32.2861 47.5049 32.3975 47.6164V47.7278V47.8392C32.3975 47.9506 32.5089 48.1735 32.5089 48.2849C32.5089 48.2849 32.5089 48.2849 32.5089 48.3964C32.5089 48.5078 32.5089 48.5078 32.5089 48.6192C32.8432 49.0649 32.8432 49.0649 32.8432 49.1763Z" fill="#1E1E1E"/>
<path d="M19.1375 40.8194C18.1347 38.8137 15.9061 38.0337 13.789 38.2566C13.5662 38.2566 13.3433 38.4794 13.2319 38.5908C11.6719 39.148 10.4462 40.5965 10.3348 42.1565C10.1119 43.9393 11.2262 45.7222 12.7862 46.5022C14.569 47.2822 16.909 47.3936 18.469 45.8336C19.8061 44.4965 20.0289 42.4908 19.1375 40.8194ZM17.4661 43.0479V43.1594C17.4661 43.2708 17.4661 43.2708 17.4661 43.2708C17.4661 43.3822 17.4661 43.3822 17.4661 43.4936C17.4661 43.4936 17.4661 43.6051 17.3547 43.6051C17.2433 43.7165 17.2433 43.8279 17.1318 43.9393C17.1318 43.9393 17.0204 44.1622 16.909 44.1622C16.909 44.1622 16.6861 44.2736 16.6861 44.3851C16.5747 44.4965 16.4633 44.4965 16.3519 44.6079C16.2404 44.6079 16.129 44.7193 16.0176 44.7193C15.4604 44.8308 14.7919 44.8308 14.1233 44.6079C13.789 44.4965 13.6776 44.4965 13.3433 44.2736C13.3433 44.2736 13.2319 44.2736 13.2319 44.1622C13.2319 44.1622 13.2319 44.1622 13.1205 44.0508L13.009 43.9393L12.8976 43.8279C12.7862 43.7165 12.7862 43.6051 12.6748 43.4936C12.6748 43.4936 12.4519 43.0479 12.5633 43.2708C12.5633 43.1594 12.4519 42.9365 12.4519 42.8251V42.7136V42.6022C12.4519 42.4908 12.4519 42.4908 12.4519 42.3794C12.4519 42.3794 12.4519 42.2679 12.4519 42.1565C12.4519 42.0451 12.5633 41.9337 12.5633 41.7108C12.5633 41.5994 12.6748 41.5994 12.6748 41.488C12.6748 41.488 12.8976 41.1537 12.7862 41.2651C12.8976 41.1537 13.009 41.0422 13.1205 40.9308L13.2319 40.8194L13.3433 40.708C13.4548 40.708 13.4547 40.5965 13.5662 40.5965C13.5662 40.5965 13.6776 40.5965 13.6776 40.4851C13.789 40.4851 14.0119 40.3737 14.1233 40.3737C14.3462 40.3737 14.4576 40.2623 14.569 40.1508C14.6804 40.1508 14.9033 40.1508 15.0147 40.1508C15.1262 40.1508 15.1262 40.1508 15.2376 40.1508C15.349 40.1508 15.5719 40.2623 15.6833 40.2623H15.7947C15.9061 40.2623 15.9061 40.3737 16.0176 40.3737C16.129 40.3737 16.129 40.4851 16.2404 40.4851C16.2404 40.4851 16.3519 40.4851 16.3519 40.5965L16.4633 40.708L16.5747 40.8194C16.5747 40.8194 16.6861 40.9308 16.6861 41.0422L16.7976 41.1537C16.909 41.2651 16.909 41.3765 17.0204 41.488V41.5994V41.7108C17.0204 41.8222 17.1318 42.0451 17.1318 42.1565C17.1318 42.1565 17.1318 42.1565 17.1318 42.2679C17.1318 42.3794 17.1318 42.3794 17.1318 42.4908C17.4661 42.9365 17.4661 43.0479 17.4661 43.0479Z" fill="#1E1E1E"/>
<path d="M12.0064 25.5533C11.0036 23.5476 8.77504 22.7676 6.65793 22.9905C6.43508 22.9905 6.21222 23.2133 6.1008 23.3247C4.54082 23.8819 3.31512 25.3304 3.20369 26.8904C2.98083 28.6732 4.09511 30.4561 5.65509 31.2361C7.43792 32.016 9.77788 32.1275 11.3379 30.5675C12.675 29.2304 12.8978 27.2247 12.0064 25.5533ZM10.335 27.7818V27.8932C10.335 28.0047 10.335 28.0047 10.335 28.0047C10.335 28.1161 10.335 28.1161 10.335 28.2275C10.335 28.2275 10.335 28.339 10.2236 28.339C10.1122 28.4504 10.1122 28.5618 10.0007 28.6732C10.0007 28.6732 9.88931 28.8961 9.77788 28.8961C9.77788 28.8961 9.55503 29.0075 9.55503 29.1189C9.4436 29.2304 9.33217 29.2304 9.22075 29.3418C9.10932 29.3418 8.9979 29.4532 8.88647 29.4532C8.32934 29.5646 7.66077 29.5646 6.99221 29.3418C6.65793 29.2304 6.5465 29.2304 6.21222 29.0075C6.21222 29.0075 6.1008 29.0075 6.1008 28.8961C6.1008 28.8961 6.10079 28.8961 5.98936 28.7847L5.87794 28.6732L5.76651 28.5618C5.65509 28.4504 5.65509 28.339 5.54366 28.2275C5.54366 28.2275 5.3208 27.7818 5.43223 28.0047C5.43223 27.8932 5.3208 27.6704 5.3208 27.559V27.4475V27.3361C5.3208 27.2247 5.3208 27.2247 5.3208 27.1133C5.3208 27.1133 5.3208 27.0018 5.3208 26.8904C5.3208 26.779 5.43223 26.6675 5.43223 26.4447C5.43223 26.3333 5.54366 26.3333 5.54366 26.2218C5.54366 26.2218 5.76651 25.8876 5.65509 25.999C5.76651 25.8876 5.87794 25.7761 5.98936 25.6647L6.1008 25.5533L6.21222 25.4418C6.32365 25.4418 6.32365 25.3304 6.43507 25.3304C6.43507 25.3304 6.5465 25.3304 6.5465 25.219C6.65792 25.219 6.88078 25.1076 6.99221 25.1076C7.21506 25.1076 7.32649 24.9961 7.43792 24.8847C7.54934 24.8847 7.7722 24.8847 7.88363 24.8847C7.99505 24.8847 7.99505 24.8847 8.10648 24.8847C8.2179 24.8847 8.44076 24.9961 8.55219 24.9961H8.66361C8.77504 24.9961 8.77504 25.1076 8.88647 25.1076C8.9979 25.1076 8.99789 25.219 9.10932 25.219C9.10932 25.219 9.22075 25.219 9.22075 25.3304L9.33217 25.4418L9.44361 25.5533C9.44361 25.5533 9.55503 25.6647 9.55503 25.7761L9.66646 25.8876C9.77788 25.999 9.77788 26.1104 9.88931 26.2218V26.3333V26.4447C9.88931 26.5561 10.0007 26.779 10.0007 26.8904C10.0007 26.8904 10.0007 26.8904 10.0007 27.0018C10.0007 27.1133 10.0007 27.1133 10.0007 27.2247C10.335 27.6704 10.335 27.7818 10.335 27.7818Z" fill="#1E1E1E"/>
<path d="M18.8033 9.28521C17.8004 7.27952 15.5719 6.49954 13.4548 6.72239C13.2319 6.72239 13.0091 6.94524 12.8977 7.05667C11.3377 7.61381 10.112 9.06236 10.0006 10.6223C9.77771 12.4052 10.892 14.188 12.452 14.968C14.2348 15.748 16.5747 15.8594 18.1347 14.2994C19.3604 13.0737 19.5833 11.068 18.8033 9.28521ZM17.0205 11.6252V11.7366C17.0205 11.848 17.0205 11.848 17.0205 11.848C17.0205 11.9595 17.0205 11.9595 17.0205 12.0709C17.0205 12.0709 17.0205 12.1823 16.909 12.1823C16.7976 12.2937 16.7976 12.4052 16.6862 12.5166C16.6862 12.5166 16.5747 12.7394 16.4633 12.7394C16.4633 12.7394 16.2405 12.8509 16.2405 12.9623C16.129 13.0737 16.0176 13.0737 15.9062 13.1852C15.7948 13.1852 15.6833 13.2966 15.5719 13.2966C15.0148 13.408 14.3462 13.408 13.6776 13.1852C13.3434 13.0737 13.2319 13.0737 12.8977 12.8509C12.8977 12.8509 12.7862 12.8509 12.7862 12.7394C12.7862 12.7394 12.7862 12.7394 12.6748 12.628L12.5634 12.5166L12.452 12.4052C12.3405 12.2937 12.3405 12.1823 12.2291 12.0709C12.2291 12.0709 12.0062 11.6252 12.1177 11.848C12.1177 11.7366 12.0062 11.5137 12.0062 11.4023V11.2909V11.1795C12.0062 11.068 12.0062 11.068 12.0062 10.9566C12.0062 10.9566 12.0062 10.8452 12.0062 10.7338C12.0062 10.6223 12.1177 10.5109 12.1177 10.2881C12.1177 10.1766 12.2291 10.1766 12.2291 10.0652C12.2291 10.0652 12.452 9.73092 12.3405 9.84234C12.452 9.73092 12.5634 9.61949 12.6748 9.50806L12.7862 9.39664L12.8977 9.28521C13.0091 9.28521 13.0091 9.17378 13.1205 9.17378C13.1205 9.17378 13.2319 9.17378 13.2319 9.06236C13.3434 9.06236 13.5662 8.95093 13.6776 8.95093C13.9005 8.95093 14.0119 8.8395 14.1234 8.72807C14.2348 8.72807 14.4576 8.72807 14.5691 8.72807C14.6805 8.72807 14.6805 8.72807 14.7919 8.72807C14.9033 8.72807 15.1262 8.8395 15.2376 8.8395H15.3491C15.4605 8.8395 15.4605 8.95093 15.5719 8.95093C15.6833 8.95093 15.6833 9.06236 15.7948 9.06236C15.7948 9.06236 15.9062 9.06236 15.9062 9.17378L16.0176 9.28521L16.129 9.39664C16.129 9.39664 16.2405 9.50806 16.2405 9.61949L16.3519 9.73092C16.4633 9.84234 16.4633 9.95377 16.5747 10.0652V10.1766V10.2881C16.5747 10.3995 16.6862 10.6223 16.6862 10.7338C16.6862 10.7338 16.6862 10.7338 16.6862 10.8452C16.6862 10.9566 16.6862 10.9566 16.6862 11.068C17.0205 11.4023 17.0205 11.5137 17.0205 11.6252Z" fill="#1E1E1E"/>
<path d="M34.2917 2.59966C33.2889 0.593977 31.0603 -0.186012 28.9432 0.0368422C28.7204 0.0368422 28.4975 0.259696 28.3861 0.371123C26.8261 0.928258 25.6004 2.37681 25.489 3.93679C25.2661 5.71962 26.3804 7.50245 27.9404 8.28244C29.7232 9.06243 32.0632 9.17385 33.6231 7.61388C34.9603 6.38818 35.1831 4.27107 34.2917 2.59966ZM32.6203 4.8282V4.93963C32.6203 5.05106 32.6203 5.05106 32.6203 5.05106C32.6203 5.16248 32.6203 5.16248 32.6203 5.27391C32.6203 5.27391 32.6203 5.38534 32.5089 5.38534C32.3974 5.49676 32.3974 5.60819 32.286 5.71962C32.286 5.71962 32.1746 5.94247 32.0632 5.94247C32.0632 5.94247 31.8403 6.0539 31.8403 6.16533C31.7289 6.27675 31.6175 6.27675 31.506 6.38818C31.3946 6.38818 31.2832 6.49961 31.1717 6.49961C30.6146 6.61103 29.946 6.61103 29.2775 6.38818C28.9432 6.27675 28.8318 6.27675 28.4975 6.0539C28.4975 6.0539 28.3861 6.0539 28.3861 5.94247C28.3861 5.94247 28.3861 5.94247 28.2746 5.83105L28.1632 5.71962L28.0518 5.60819C27.9404 5.49676 27.9404 5.38534 27.8289 5.27391C27.8289 5.27391 27.6061 4.8282 27.7175 5.05106C27.7175 4.93963 27.6061 4.71678 27.6061 4.60535V4.49392V4.38249C27.6061 4.27107 27.6061 4.27107 27.6061 4.15964C27.6061 4.15964 27.6061 4.04821 27.6061 3.93679C27.6061 3.82536 27.7175 3.71393 27.7175 3.49108C27.7175 3.37965 27.8289 3.37965 27.8289 3.26822C27.8289 3.26822 28.0518 2.93394 27.9404 3.04537C28.0518 2.93394 28.1632 2.82252 28.2746 2.71109L28.3861 2.59966L28.4975 2.48824C28.6089 2.48824 28.6089 2.37681 28.7204 2.37681C28.7204 2.37681 28.8318 2.37681 28.8318 2.26538C28.9432 2.26538 29.1661 2.15395 29.2775 2.15395C29.5003 2.15395 29.6118 2.04253 29.7232 1.9311C29.8346 1.9311 30.0575 1.9311 30.1689 1.9311C30.2803 1.9311 30.2803 1.9311 30.3918 1.9311C30.5032 1.9311 30.726 2.04253 30.8375 2.04253H30.9489C31.0603 2.04253 31.0603 2.15395 31.1717 2.15395C31.2832 2.15395 31.2832 2.26538 31.3946 2.26538C31.3946 2.26538 31.506 2.26538 31.506 2.37681L31.6174 2.48824L31.7289 2.59966C31.7289 2.59966 31.8403 2.71109 31.8403 2.82252L31.9517 2.93394C32.0632 3.04537 32.0632 3.1568 32.1746 3.26822V3.37965V3.49108C32.1746 3.60251 32.286 3.82536 32.286 3.93679C32.286 3.93679 32.286 3.93679 32.286 4.04821C32.286 4.15964 32.286 4.15964 32.286 4.27107C32.6203 4.71677 32.6203 4.8282 32.6203 4.8282Z" fill="#1E1E1E"/>
<path d="M50.2259 9.28521C49.2231 7.27952 46.9945 6.49954 44.8774 6.72239C44.6546 6.72239 44.4317 6.94524 44.3203 7.05667C42.7603 7.61381 41.5346 9.06236 41.4232 10.6223C41.2003 12.4052 42.3146 14.188 43.8746 14.968C45.6574 15.748 47.9974 15.8594 49.5573 14.2994C50.8945 13.0737 51.1173 11.068 50.2259 9.28521ZM48.5545 11.6252V11.7366C48.5545 11.848 48.5545 11.848 48.5545 11.848C48.5545 11.9595 48.5545 11.9595 48.5545 12.0709C48.5545 12.0709 48.5545 12.1823 48.4431 12.1823C48.3316 12.2937 48.3316 12.4052 48.2202 12.5166C48.2202 12.5166 48.1088 12.7394 47.9974 12.7394C47.9974 12.7394 47.7745 12.8509 47.7745 12.9623C47.6631 13.0737 47.5517 13.0737 47.4402 13.1852C47.3288 13.1852 47.2174 13.2966 47.1059 13.2966C46.5488 13.408 45.8803 13.408 45.2117 13.1852C44.8774 13.0737 44.766 13.0737 44.4317 12.8509C44.4317 12.8509 44.3203 12.8509 44.3203 12.7394C44.3203 12.7394 44.3203 12.7394 44.2088 12.628L44.0974 12.5166L43.986 12.4052C43.8746 12.2937 43.8746 12.1823 43.7631 12.0709C43.7631 12.0709 43.5403 11.6252 43.6517 11.848C43.6517 11.7366 43.5403 11.5137 43.5403 11.4023V11.2909V11.1795C43.5403 11.068 43.5403 11.068 43.5403 10.9566C43.5403 10.9566 43.5403 10.8452 43.5403 10.7338C43.5403 10.6223 43.6517 10.5109 43.6517 10.2881C43.6517 10.1766 43.7631 10.1766 43.7631 10.0652C43.7631 10.0652 43.986 9.73092 43.8746 9.84234C43.986 9.73092 44.0974 9.61949 44.2088 9.50806L44.3203 9.39664L44.4317 9.28521C44.5431 9.28521 44.5431 9.17378 44.6546 9.17378C44.6546 9.17378 44.766 9.17378 44.766 9.06236C44.8774 9.06236 45.1003 8.95093 45.2117 8.95093C45.4345 8.95093 45.546 8.8395 45.6574 8.72807C45.7688 8.72807 45.9917 8.72807 46.1031 8.72807C46.2145 8.72807 46.2145 8.72807 46.326 8.72807C46.4374 8.72807 46.6602 8.8395 46.7717 8.8395H46.8831C46.9945 8.8395 46.9945 8.95093 47.1059 8.95093C47.2174 8.95093 47.2174 9.06236 47.3288 9.06236C47.3288 9.06236 47.4402 9.06236 47.4402 9.17378L47.5517 9.28521L47.6631 9.39664C47.6631 9.39664 47.7745 9.50806 47.7745 9.61949L47.8859 9.73092C47.9974 9.84234 47.9974 9.95377 48.1088 10.0652V10.1766V10.2881C48.1088 10.3995 48.2202 10.6223 48.2202 10.7338C48.2202 10.7338 48.2202 10.7338 48.2202 10.8452C48.2202 10.9566 48.2202 10.9566 48.2202 11.068C48.5545 11.4023 48.5545 11.5137 48.5545 11.6252Z" fill="#1E1E1E"/>
<path d="M56.9115 25.5533C55.9086 23.5476 53.6801 22.7676 51.563 22.9905C51.3401 22.9905 51.1172 23.2133 51.0058 23.3247C49.4458 23.8819 48.2201 25.3304 48.1087 26.8904C47.8859 28.6732 49.0001 30.4561 50.5601 31.2361C52.3429 32.016 54.6829 32.1275 56.2429 30.5675C57.4686 29.2304 57.6914 27.2247 56.9115 25.5533ZM55.1286 27.7818V27.8932C55.1286 28.0047 55.1286 28.0047 55.1286 28.0047C55.1286 28.1161 55.1286 28.1161 55.1286 28.2275C55.1286 28.2275 55.1286 28.339 55.0172 28.339C54.9058 28.4504 54.9058 28.5618 54.7943 28.6732C54.7943 28.6732 54.6829 28.8961 54.5715 28.8961C54.5715 28.8961 54.3486 29.0075 54.3486 29.1189C54.2372 29.2304 54.1258 29.2304 54.0144 29.3418C53.9029 29.3418 53.7915 29.4532 53.6801 29.4532C53.1229 29.5646 52.4544 29.5646 51.7858 29.3418C51.4515 29.2304 51.3401 29.2304 51.0058 29.0075C51.0058 29.0075 50.8944 29.0075 50.8944 28.8961C50.8944 28.8961 50.8944 28.8961 50.783 28.7847L50.6715 28.6732L50.5601 28.5618C50.4487 28.4504 50.4487 28.339 50.3373 28.2275C50.3373 28.2275 50.1144 27.7818 50.2258 28.0047C50.2258 27.8932 50.1144 27.6704 50.1144 27.559V27.4475V27.3361C50.1144 27.2247 50.1144 27.2247 50.1144 27.1133C50.1144 27.1133 50.1144 27.0018 50.1144 26.8904C50.1144 26.779 50.2258 26.6675 50.2258 26.4447C50.2258 26.3333 50.3373 26.3333 50.3373 26.2218C50.3373 26.2218 50.5601 25.8876 50.4487 25.999C50.5601 25.8876 50.6715 25.7761 50.783 25.6647L50.8944 25.5533L51.0058 25.4418C51.1172 25.4418 51.1172 25.3304 51.2287 25.3304C51.2287 25.3304 51.3401 25.3304 51.3401 25.219C51.4515 25.219 51.6744 25.1076 51.7858 25.1076C52.0087 25.1076 52.1201 24.9961 52.2315 24.8847C52.3429 24.8847 52.5658 24.8847 52.6772 24.8847C52.7886 24.8847 52.7887 24.8847 52.9001 24.8847C53.0115 24.8847 53.2344 24.9961 53.3458 24.9961H53.4572C53.5686 24.9961 53.5686 25.1076 53.6801 25.1076C53.7915 25.1076 53.7915 25.219 53.9029 25.219C53.9029 25.219 54.0144 25.219 54.0144 25.3304L54.1258 25.4418L54.2372 25.5533C54.2372 25.5533 54.3486 25.6647 54.3486 25.7761L54.4601 25.8876C54.5715 25.999 54.5715 26.1104 54.6829 26.2218V26.3333V26.4447C54.6829 26.5561 54.7943 26.779 54.7943 26.8904C54.7943 26.8904 54.7943 26.8904 54.7943 27.0018C54.7943 27.1133 54.7943 27.1133 54.7943 27.2247C55.1286 27.6704 55.1286 27.6704 55.1286 27.7818Z" fill="#1E1E1E"/>
<path d="M31.8403 57.9791C31.7288 57.8677 31.7288 57.8677 31.6174 57.7563C31.506 57.6448 31.2831 57.5334 31.1717 57.422C30.9489 57.422 30.8374 57.3105 30.6146 57.3105C30.5031 57.3105 30.2803 57.3105 30.1689 57.3105C30.0574 57.3105 29.8346 57.3105 29.7232 57.422C29.6117 57.5334 29.5003 57.5334 29.3889 57.7563C29.2774 57.8677 29.2774 57.9791 29.166 58.0905V58.4248C29.166 58.6477 29.166 58.7591 29.2774 58.982C29.3889 59.0934 29.3889 59.0934 29.5003 59.2048C29.6117 59.3162 29.8346 59.4277 29.946 59.5391C30.1689 59.5391 30.2803 59.6505 30.5031 59.6505C30.6146 59.6505 30.8374 59.6505 30.9488 59.6505C31.0603 59.6505 31.2831 59.6505 31.3946 59.5391C31.506 59.4277 31.6174 59.4277 31.7288 59.2048C31.8403 59.0934 31.8403 58.982 31.9517 58.8705V58.5362C31.9517 58.3134 31.9517 58.0905 31.8403 57.9791Z" fill="#1E1E1E"/>
<path d="M41.6458 61.656C28.1632 60.7646 14.5691 60.876 1.08641 61.7674C-0.362138 61.8788 -0.362138 64.1074 1.08641 63.9959C14.5691 63.1045 28.1632 62.9931 41.6458 63.8845C43.0944 63.8845 42.9829 61.656 41.6458 61.656Z" fill="#1E1E1E"/>
<path d="M58.5828 61.7672C54.3486 61.7672 50.1144 61.6558 45.9916 61.6558C44.543 61.6558 44.543 63.8843 45.9916 63.8843C50.2258 63.8843 54.46 63.9957 58.5828 63.9957C60.0314 63.9957 60.0314 61.7672 58.5828 61.7672Z" fill="#1E1E1E"/>
</svg>
