<svg width="49" height="64" viewBox="0 0 49 64" fill="none" xmlns="http://www.w3.org/2000/svg">
<path d="M47.8648 19.7503C41.9622 13.2038 35.845 6.76459 29.5131 0.647324C28.6545 -0.211239 27.6886 -0.103919 26.9374 0.325363C26.5081 0.432683 26.0788 0.754644 25.7569 1.29125C23.7178 4.61818 21.464 7.73047 19.103 10.7354C19.2103 10.8428 19.3176 10.9501 19.3176 11.1647C19.2103 12.5599 19.3176 13.8477 18.781 15.1356C18.6737 15.3502 18.3517 15.4575 18.1371 15.3502C18.0298 15.4575 17.9225 15.5649 17.7078 15.5649C17.4932 15.5649 17.1712 15.3502 17.1712 15.0283C17.2786 14.277 17.3859 13.5258 17.4932 12.6672C13.9516 16.7454 10.1954 20.5016 6.0099 23.8285C5.68794 24.0432 5.4733 24.3651 5.25866 24.6871C5.15134 25.009 5.15133 25.331 5.15133 25.653C5.68794 36.2777 5.4733 47.0097 4.4001 57.6344C4.29278 58.3857 4.82938 59.0296 5.4733 59.4589C5.79526 59.6735 6.22454 59.8882 6.76114 59.8882C9.65879 59.8882 12.4491 59.7808 15.3468 59.7808C15.0248 57.5271 15.3468 55.1661 15.9907 53.0197C16.5273 51.4099 17.6005 50.2293 19.103 49.4781C20.7128 48.7268 22.5372 47.8683 24.1471 48.9415C25.7569 50.0147 26.8301 52.1611 27.3667 53.9855C27.9033 55.81 28.2252 57.7418 28.2252 59.6735C33.162 59.6735 37.9914 59.6735 42.8208 59.7808C43.0354 59.7808 43.2501 59.7808 43.4647 59.6735C44.4306 59.7808 45.2892 59.4589 46.0404 58.7076C47.2209 57.6344 47.3282 55.9173 47.3282 54.4148C47.5429 50.8733 47.6502 47.3317 47.8648 43.7901C48.1868 36.707 48.4014 29.6238 48.4014 22.5407C48.4014 22.326 48.4015 22.1114 48.2941 21.8968C48.5088 21.2528 48.5088 20.5016 47.8648 19.7503ZM23.5031 10.8428C23.7178 10.6281 24.0397 10.7354 24.3617 10.8428C25.1129 11.272 25.2203 12.2379 25.2203 12.9892C25.2203 13.8477 24.8983 15.0283 23.9324 15.0283C23.7178 15.0283 23.5031 14.8136 23.3958 14.599C23.2885 13.8477 23.2885 12.9892 23.3958 12.2379C23.2885 12.1306 23.0738 12.0233 23.1812 11.8086C23.1812 11.4867 23.1812 11.0574 23.5031 10.8428ZM9.1222 31.4483C8.37096 31.2336 7.94167 30.4824 7.94167 29.7311C7.94167 28.9799 8.37096 28.2287 9.1222 28.014C9.22952 27.9067 9.44416 27.9067 9.6588 27.9067C9.98076 27.9067 10.41 28.1213 10.6247 28.4433C11.054 28.8726 11.3759 29.6238 11.2686 30.3751C10.9466 31.1263 9.98076 31.5556 9.1222 31.4483ZM15.4541 42.1803C15.4541 42.3949 15.3468 42.6096 15.1321 42.6096C15.0248 42.7169 14.8102 42.7169 14.7029 42.7169C13.2004 42.2876 11.5906 42.6096 9.98075 42.3949C9.76611 42.3949 9.55148 42.073 9.55148 41.8583C9.55148 40.4632 9.44416 39.068 9.87344 37.7802C10.1954 36.5996 11.1613 35.5264 12.4491 35.3118C13.5223 35.0972 14.3809 35.5264 14.9175 36.4923C15.3468 37.4582 15.5614 38.5314 15.5614 39.4973C15.4541 40.4632 15.4541 41.3217 15.4541 42.1803ZM24.8983 40.5705C24.791 41.2144 24.791 41.9657 24.1471 42.2876C23.8251 42.395 23.5031 42.5023 23.2885 42.5023C22.8592 42.6096 22.4299 42.6096 22.0006 42.7169C21.1421 42.8242 20.2835 42.9315 19.5323 42.6096C19.2103 42.5023 19.2103 42.2876 19.2103 42.073C18.8883 41.5364 18.8883 40.8925 18.8883 40.3559C18.9957 39.6046 19.103 38.9607 19.3176 38.2094C19.5323 37.5655 19.8542 36.9216 20.3908 36.4923C21.0348 35.9557 21.6787 35.8484 22.4299 35.9557C23.8251 36.1704 24.5763 37.4582 24.791 38.7461C25.0056 39.1753 25.0056 39.9266 24.8983 40.5705ZM25.0056 30.0531C24.3617 30.4824 23.5031 30.5897 22.7519 30.697C22.6446 30.697 22.5372 30.697 22.4299 30.697C21.1421 31.019 19.8542 31.019 18.5664 30.697C17.1712 30.2677 15.7761 29.3019 15.2395 27.9067C14.7029 26.4042 15.1321 24.7944 15.7761 23.3992C16.5273 21.8968 17.7078 20.6089 19.5323 20.3943C21.2494 20.0723 23.1812 20.7162 24.5763 21.6821C25.8642 22.648 26.9374 23.9358 26.9374 25.5456C27.2593 27.2628 26.5081 29.1945 25.0056 30.0531ZM34.0205 42.1803C32.9473 42.1803 31.8741 42.3949 30.9082 42.3949C30.5863 42.3949 30.157 42.3949 29.835 42.1803C29.835 42.1803 29.835 42.1803 29.7277 42.1803C29.4057 42.1803 29.1911 41.9657 29.1911 41.6437C29.1911 41.5364 29.1911 41.5364 29.1911 41.5364C29.0838 41.1071 29.0838 40.6778 29.0838 40.2485C29.0838 39.7119 29.0838 39.068 29.1911 38.5314C29.2984 37.9948 29.4057 37.3509 29.7277 36.9216C30.0497 36.385 30.5863 36.063 31.2302 35.9557C32.4107 35.7411 33.3766 36.707 33.8059 37.7802C34.0205 38.3168 34.2352 38.7461 34.2352 39.2827C34.3425 40.0339 34.4498 40.7851 34.4498 41.5364C34.6644 41.751 34.4498 42.1803 34.0205 42.1803ZM34.7718 30.1604C34.5571 31.019 33.6986 31.4483 32.9473 31.4483C32.6254 31.4483 32.3034 31.341 31.9814 31.019C31.7668 30.8043 31.6595 30.5897 31.5522 30.2677C31.3375 29.7311 31.4448 29.0872 31.6595 28.6579C31.9814 28.1213 32.518 27.7994 33.162 27.9067C33.162 27.9067 33.2693 27.9067 33.2693 28.014C33.3766 28.014 33.4839 28.014 33.5912 28.014C34.0205 28.1213 34.4498 28.4433 34.6644 28.8726C34.7718 29.3019 34.8791 29.7311 34.7718 30.1604Z" fill="#F7C300"/>
<path d="M22.4298 23.5064C21.8932 23.1845 21.2493 23.1845 20.6054 23.3991C20.3907 23.3991 20.2834 23.3991 20.1761 23.2918C19.7468 23.2918 19.4248 23.5064 19.1029 23.7211C18.6736 24.1503 18.4589 24.5796 18.2443 25.1162C18.137 25.6528 18.0297 26.0821 18.137 26.726C18.137 27.048 18.3516 27.5846 18.5663 27.9066C18.7809 28.1212 18.8882 28.2285 19.1029 28.3358C19.4248 28.5505 19.7468 28.5505 20.0688 28.6578C20.82 28.7651 21.5712 28.6578 22.3225 28.4432C22.9664 28.2285 23.7176 27.9066 23.9323 27.1553C24.2542 26.5114 23.9323 25.6528 23.6103 25.1162C23.3957 24.5796 22.9664 23.8284 22.4298 23.5064Z" fill="#F7C300"/>
<path d="M42.3915 62.0348C41.8549 58.9225 41.8549 55.9175 41.9623 52.8052C42.0696 49.371 42.1769 46.044 42.1769 42.6098C42.2842 35.9559 42.1769 29.1947 42.0696 22.5409C42.0696 22.0043 41.7476 21.6823 41.3183 21.575C38.6353 17.8188 35.7377 14.2772 32.4107 11.0576C30.6936 9.34046 28.9765 7.83798 27.152 6.22817C25.3276 4.72569 23.3958 3.2232 22.108 1.18411C21.8933 0.862154 21.4641 0.647513 21.1421 0.647513C20.8201 0.540193 20.4982 0.540193 20.1762 0.969474C16.9566 4.61837 13.6297 8.15994 10.4101 11.8088C7.4051 15.1358 4.40012 18.4627 0.85855 21.3603C0.429268 21.4677 0 21.7896 0 22.3262C0.214641 28.9801 0.536599 35.634 0.751239 42.1805C0.96588 48.9417 -0.107333 55.5955 0.321948 62.3567C0.321948 62.6787 0.429272 62.8933 0.643912 63.0006C0.751233 63.3226 1.0732 63.6446 1.60981 63.6446C14.8102 64.0738 28.1179 64.0738 41.3183 63.8592C41.9623 63.8592 42.2842 63.4299 42.2842 63.0006C42.3915 62.6787 42.4989 62.3567 42.3915 62.0348ZM26.0788 61.8201C23.0739 61.8201 19.9616 61.8201 16.9566 61.8201C16.5273 59.2444 16.3127 56.2395 16.9566 53.6638C17.6005 51.1954 19.6396 50.4442 21.786 49.6929C23.7178 50.2295 25.2203 52.054 25.7569 53.9857C26.6155 56.4541 26.4008 59.1371 26.0788 61.8201ZM28.2252 61.8201C28.5472 58.8152 28.7618 55.7029 27.6886 52.8052C26.7228 50.3368 24.791 48.1904 22.108 47.5465C22.0007 47.5465 22.0007 47.5465 22.0007 47.5465C21.8934 47.5465 21.8933 47.5465 21.786 47.5465H21.6787C21.5714 47.5465 21.5714 47.5465 21.4641 47.5465C18.6737 48.4051 15.9907 49.5856 15.0249 52.5906C14.5956 54.0931 14.4882 55.7029 14.4882 57.3127C14.4882 58.8152 14.5956 60.3176 14.8102 61.7128C10.6247 61.7128 6.54654 61.6055 2.36104 61.4982C2.03908 55.0589 3.00496 48.6197 2.79032 42.1805C2.57568 35.7413 2.36105 29.302 2.14641 22.9701C5.68798 20.0725 8.80027 16.7456 11.8052 13.3113C14.8102 9.98439 17.9225 6.65745 20.9275 3.2232C22.108 4.72569 23.5032 5.90621 24.8983 7.19406C26.7228 8.69654 28.5472 10.3063 30.3717 12.0235C33.9132 15.4577 37.0255 19.2139 39.9232 23.2921C40.1378 29.946 40.1378 36.5998 40.0305 43.1464C39.9232 49.2636 39.2793 55.5955 40.2451 61.7128C36.2743 61.7128 32.1961 61.7128 28.2252 61.8201Z" fill="#1E1E1E"/>
<path d="M20.6054 10.5205C20.3908 9.55462 19.2102 9.01802 18.3517 9.66194C17.8151 9.66194 17.2785 9.55462 16.8492 9.66194C16.3126 9.66194 15.776 9.9839 15.6687 10.5205C15.5613 10.8425 15.6687 11.1644 15.6687 11.4864C15.776 12.6669 15.776 13.8474 15.776 15.028C15.776 15.4572 15.8833 15.8865 16.3126 16.2085C16.6346 16.4231 17.0638 16.5304 17.4931 16.5304C18.137 16.5304 18.6736 16.5304 19.3176 16.5304C19.8542 16.4231 20.3908 16.2085 20.6054 15.5646C20.7127 15.2426 20.7127 14.9206 20.7127 14.4914C20.7127 13.8474 20.8201 13.2035 20.8201 12.5596C20.8201 12.2376 20.8201 11.9157 20.9274 11.5937C20.6054 11.3791 20.7127 10.9498 20.6054 10.5205ZM17.9224 14.4914C17.9224 14.384 17.9224 14.384 17.9224 14.2767C17.9224 13.7401 17.9224 13.0962 17.9224 12.5596C17.9224 12.3449 17.9224 12.023 17.9224 11.8083C18.137 11.8083 18.3517 11.8083 18.5663 11.8083C18.5663 12.1303 18.5663 12.4523 18.459 12.8816C18.459 13.3108 18.459 13.6328 18.3517 14.0621C18.3517 14.1694 18.3517 14.384 18.3517 14.4914C18.137 14.4914 18.0297 14.4914 17.9224 14.4914Z" fill="#1E1E1E"/>
<path d="M21.5712 15.4577C21.7859 16.4236 22.9664 16.9602 23.825 16.3163C24.3616 16.3163 24.8982 16.4236 25.3274 16.3163C25.864 16.3163 26.4007 15.9943 26.508 15.4577C26.6153 15.1357 26.508 14.8138 26.508 14.4918C26.4007 13.3113 26.4006 12.1308 26.4006 10.9502C26.4006 10.521 26.2933 10.0917 25.864 9.76972C25.5421 9.55507 25.1128 9.44775 24.6835 9.44775C24.0396 9.44775 23.503 9.44775 22.8591 9.44775C22.3225 9.55507 21.7859 9.76971 21.5712 10.4136C21.4639 10.7356 21.4639 11.0576 21.4639 11.4868C21.4639 12.1308 21.3566 12.7747 21.3566 13.4186C21.3566 13.7406 21.3566 14.0625 21.2493 14.3845C21.5712 14.7065 21.4639 15.1357 21.5712 15.4577ZM24.3616 11.5942C24.3616 11.7015 24.3616 11.7015 24.3616 11.8088C24.3616 12.3454 24.3616 12.9893 24.3616 13.5259C24.3616 13.7406 24.3616 14.0625 24.3616 14.2772C24.1469 14.2772 23.9323 14.2772 23.7176 14.2772C23.7176 13.9552 23.7176 13.6332 23.825 13.204C23.825 12.7747 23.825 12.4527 23.9323 12.0234C23.9323 11.9161 23.9323 11.7015 23.9323 11.5942C24.0396 11.5942 24.1469 11.5942 24.3616 11.5942Z" fill="#1E1E1E"/>
<path d="M27.6887 22.8625C26.2935 20.0722 23.2885 18.5697 20.2836 18.8917C19.9616 18.5697 19.425 18.5697 18.9957 18.7844C17.6005 19.4283 16.3127 20.0722 15.3468 21.2527C14.4882 22.4332 13.9517 23.9357 13.9517 25.3309C13.9517 28.1212 15.6688 31.4482 18.3518 32.414C19.6396 32.8433 21.2494 32.9506 22.5373 32.736C23.9325 32.5214 25.4349 32.0921 26.5081 31.1262C28.7619 29.1944 28.9765 25.4382 27.6887 22.8625ZM25.4349 29.3018C24.1471 30.8042 21.5714 30.9116 19.8543 30.5896C17.7079 30.2676 16.3127 27.9066 16.0981 25.8675C15.9907 24.687 16.2054 23.5065 16.9566 22.5406C17.4932 21.7893 18.3518 21.36 19.2104 20.9308C19.425 21.0381 19.6396 21.1454 19.9616 21.0381C22.0007 20.6088 24.2544 21.36 25.4349 23.1845C26.5081 24.9016 26.7228 27.5846 25.4349 29.3018Z" fill="#1E1E1E"/>
<path d="M20.1762 26.6186C20.1762 26.5113 20.0689 26.5113 20.1762 26.6186C20.0689 26.5113 20.0689 26.5113 20.1762 26.6186C20.0689 26.5113 20.1762 26.5113 20.1762 26.6186Z" fill="#1E1E1E"/>
<path d="M20.2834 25.5454C20.1761 25.6527 20.1761 25.6527 20.2834 25.5454C20.2834 25.6527 20.2834 25.5454 20.2834 25.5454Z" fill="#1E1E1E"/>
<path d="M23.0737 23.3992C22.4298 22.9699 21.7859 22.6479 21.0346 22.6479C20.2834 22.6479 19.5321 22.8626 18.9955 23.3992C18.7809 23.6138 18.6736 23.9358 18.6736 24.2578C18.5662 24.3651 18.4589 24.4724 18.3516 24.687C18.2443 24.9017 18.137 25.2236 18.0296 25.5456C17.9223 26.2968 17.9223 27.0481 18.2443 27.692C18.8882 28.7652 20.3907 29.4091 21.5712 29.1945C22.8591 29.0872 24.1469 28.2286 24.3615 26.8334C24.5762 25.5456 24.0396 24.1504 23.0737 23.3992ZM22.2151 26.5115C22.2151 26.5115 22.2151 26.6188 22.2151 26.5115C22.2151 26.6188 22.2151 26.5115 22.2151 26.5115C22.2151 26.6188 22.2151 26.6188 22.1078 26.6188L22.0005 26.7261C21.8932 26.7261 21.8932 26.8334 21.7858 26.8334C21.7858 26.8334 21.7859 26.8334 21.6785 26.8334C21.5712 26.8334 21.4639 26.8334 21.4639 26.9408H21.3566C21.2493 26.9408 21.1419 26.9408 21.0346 26.9408H20.9273C20.82 26.9408 20.7127 26.8334 20.6053 26.8334C20.498 26.8334 20.6053 26.8334 20.6053 26.8334H20.498C20.3907 26.8334 20.3907 26.7261 20.2834 26.7261C20.2834 26.7261 20.2834 26.7261 20.176 26.7261L20.0687 26.6188C20.0687 26.6188 20.0687 26.6188 20.0687 26.5115C20.0687 26.5115 20.0687 26.5115 20.0687 26.4042C20.0687 26.4042 20.0687 26.4042 20.0687 26.2968V26.1895C20.0687 26.0822 20.0687 25.9749 20.0687 25.8676V25.7602C20.0687 25.7602 20.0687 25.6529 20.176 25.5456C20.176 25.5456 20.0687 25.6529 20.176 25.5456C20.176 25.5456 20.176 25.5456 20.176 25.4383C20.176 25.4383 20.1761 25.4383 20.0687 25.5456L20.176 25.4383C20.3907 25.331 20.498 25.1163 20.6053 24.9017C20.6053 24.7944 20.6053 24.7944 20.6053 24.687H20.7126H20.82H20.9273C20.9273 24.687 20.9273 24.687 21.0346 24.687C21.0346 24.687 21.0346 24.687 21.1419 24.687H21.2492C21.2492 24.687 21.2493 24.687 21.3566 24.687C21.3566 24.687 21.3566 24.687 21.2492 24.687C21.2492 24.687 21.3566 24.687 21.3566 24.7944C21.3566 24.7944 21.4639 24.7944 21.4639 24.9017L21.5712 25.009C21.6785 25.1163 21.6785 25.1163 21.7858 25.2236C21.7858 25.2236 21.7858 25.2236 21.7858 25.331C21.7858 25.4383 21.8932 25.4383 21.8932 25.5456V25.6529C21.8932 25.7602 22.0005 25.8676 22.0005 25.8676V25.9749C22.0005 26.0822 22.0005 26.1895 22.0005 26.1895C22.3225 26.4042 22.3225 26.4042 22.2151 26.5115C22.3225 26.4042 22.3225 26.4042 22.2151 26.5115C22.3225 26.4042 22.3225 26.4042 22.2151 26.5115Z" fill="#1E1E1E"/>
<path d="M21.3568 24.9013C21.3568 24.794 21.3568 24.794 21.3568 24.9013C21.2495 24.794 21.3568 24.794 21.3568 24.9013Z" fill="#1E1E1E"/>
<path d="M32.4106 29.0872C32.518 29.0872 32.518 28.9799 32.4106 29.0872C32.518 28.9799 32.518 29.0872 32.4106 29.0872Z" fill="#1E1E1E"/>
<path d="M34.1278 27.1555C33.9131 27.0481 33.6985 27.0481 33.4838 27.0481C33.2692 26.9408 33.0546 26.8335 32.8399 26.8335C32.3033 26.9408 31.7667 26.9408 31.2301 27.2628C30.6935 27.5847 30.2642 28.1213 30.1569 28.6579C30.0496 29.1945 30.0496 29.7311 30.1569 30.2677C30.2642 30.697 30.3715 31.2336 30.6935 31.5556C31.4448 32.5215 32.7326 32.6288 33.8058 32.4142C34.9863 32.0922 35.7376 31.1263 35.7376 29.9458C35.9522 28.7653 35.0936 27.6921 34.1278 27.1555ZM33.2692 30.3751C33.0546 30.3751 32.8399 30.3751 32.7326 30.3751H32.6253C32.6253 30.3751 32.6253 30.3751 32.518 30.3751C32.518 30.2677 32.518 30.1604 32.4106 30.0531C32.4106 29.8385 32.4106 29.6238 32.4106 29.4092C32.4106 29.4092 32.4106 29.4092 32.4106 29.3019C32.4106 29.3019 32.4106 29.3019 32.518 29.3019C32.6253 29.3019 32.6253 29.3019 32.6253 29.3019H32.7326C32.8399 29.3019 32.9472 29.3019 33.1619 29.1945C33.2692 29.1945 33.2692 29.3019 33.3765 29.3019C33.4838 29.4092 33.4838 29.4092 33.5912 29.5165C33.5912 29.5165 33.5912 29.5165 33.6985 29.6238L33.8058 29.7311C33.8058 29.7311 33.8058 29.8385 33.9131 29.8385C33.9131 29.8385 33.9131 29.8385 33.9131 29.9458C33.9131 29.9458 33.9131 29.9458 33.9131 30.0531C33.9131 30.1604 33.9131 30.2677 33.9131 30.2677C33.9131 30.2677 33.9131 30.3751 33.8058 30.3751H33.6985H33.5912C33.3765 30.3751 33.2692 30.3751 33.2692 30.3751Z" fill="#1E1E1E"/>
<path d="M10.5173 27.1555C10.3026 27.0481 10.088 27.0481 9.87337 27.0481C9.65873 26.9408 9.44408 26.8335 9.22944 26.8335C8.69284 26.9408 8.15624 26.9408 7.61964 27.2628C7.08303 27.5847 6.65375 28.1213 6.54643 28.6579C6.43911 29.1945 6.43911 29.7311 6.54643 30.2677C6.65375 30.697 6.76107 31.2336 7.08303 31.5556C7.83428 32.5215 9.12213 32.6288 10.1953 32.4142C11.3759 32.0922 12.1271 31.1263 12.1271 29.9458C12.3417 28.7653 11.4832 27.6921 10.5173 27.1555ZM9.65873 30.3751C9.44409 30.3751 9.22945 30.3751 9.12213 30.3751H9.0148C9.0148 30.3751 9.0148 30.3751 8.90748 30.3751C8.90748 30.2677 8.90749 30.1604 8.80017 30.0531C8.80017 29.8385 8.80017 29.6238 8.80017 29.4092C8.80017 29.4092 8.80017 29.4092 8.80017 29.3019C8.80017 29.3019 8.80016 29.3019 8.90748 29.3019C9.0148 29.3019 9.0148 29.3019 9.0148 29.3019H9.12213C9.22945 29.3019 9.33677 29.3019 9.55141 29.1945C9.65873 29.1945 9.65872 29.3019 9.76604 29.3019C9.87336 29.4092 9.87336 29.4092 9.98068 29.5165C9.98068 29.5165 9.98069 29.5165 10.088 29.6238L10.1953 29.7311C10.1953 29.7311 10.1953 29.8385 10.3026 29.8385C10.3026 29.8385 10.3026 29.8385 10.3026 29.9458C10.3026 29.9458 10.3026 29.9458 10.3026 30.0531C10.3026 30.1604 10.3026 30.2677 10.3026 30.2677C10.3026 30.2677 10.3027 30.3751 10.1953 30.3751H10.088H9.98068C9.76604 30.3751 9.65873 30.3751 9.65873 30.3751Z" fill="#1E1E1E"/>
<path d="M8.90739 30.2676C8.90739 30.2676 8.90739 30.3749 8.90739 30.2676C8.80007 30.2676 8.80007 30.2676 8.90739 30.2676C8.80007 30.2676 8.80007 30.2676 8.90739 30.2676Z" fill="#1E1E1E"/>
<path d="M35.523 40.3562C35.4156 39.4977 35.3083 38.6391 35.0937 37.7805C34.7717 36.278 33.8058 34.7756 32.196 34.4536C30.4789 34.1316 29.0837 35.4195 28.4398 36.922C28.1179 37.7805 28.0105 38.7464 27.9032 39.605C27.7959 40.5709 27.7959 41.5367 27.7959 42.3953C27.7959 42.9319 28.3325 43.4685 28.8691 43.4685C29.1911 43.4685 29.4057 43.3612 29.6203 43.1465C29.7277 43.1465 29.7277 43.1465 29.835 43.1465C30.6935 43.1465 31.5521 43.1465 32.4107 43.1465C32.84 43.1465 33.1619 43.1465 33.5912 43.1465C34.1278 43.1465 34.7717 43.2539 35.201 42.8246C35.523 42.5026 35.6303 41.966 35.6303 41.5367C35.523 41.2148 35.523 40.7855 35.523 40.3562ZM32.0887 41.1075C31.3375 41.1075 30.6935 41.1075 29.9423 41.1075C29.9423 40.2489 30.0496 39.3903 30.2643 38.5318C30.3716 37.8879 30.4789 37.4586 30.8009 37.0293C30.6936 37.1366 30.9082 36.922 31.0155 36.8146L31.1228 36.7073C31.2302 36.7073 31.3375 36.6 31.3375 36.6C31.4448 36.6 31.5521 36.6 31.5521 36.4927C31.6594 36.4927 31.8741 36.4927 31.7667 36.4927C31.7667 36.4927 32.196 36.6 31.9814 36.6C32.0887 36.6 32.196 36.7073 32.3034 36.7073C32.4107 36.8146 32.4107 36.8146 32.3034 36.7073L32.4107 36.8146L32.518 36.922C32.518 36.922 32.518 36.922 32.518 37.0293C32.6253 37.1366 32.7326 37.3513 32.7326 37.4586C32.84 37.6732 32.7326 37.4586 32.84 37.6732C32.84 37.7805 32.9473 37.9952 32.9473 38.1025C33.0546 38.7464 33.1619 39.283 33.2692 39.8196C33.2692 40.1416 33.3766 40.5709 33.3766 40.8928V41.0001H33.2692L32.0887 41.1075Z" fill="#1E1E1E"/>
<path d="M16.0978 40.3562C15.9905 39.4977 15.8832 38.6391 15.6685 37.7805C15.3466 36.278 14.3807 34.7756 12.7709 34.4536C11.0537 34.1316 9.65858 35.4195 9.01466 36.922C8.6927 37.7805 8.58537 38.7464 8.47805 39.605C8.37073 40.5709 8.37073 41.5367 8.37073 42.3953C8.37073 42.9319 8.90733 43.4685 9.44393 43.4685C9.76589 43.4685 9.98055 43.3612 10.1952 43.1465C10.3025 43.1465 10.3025 43.1465 10.4098 43.1465C11.2684 43.1465 12.1269 43.1465 12.9855 43.1465C13.4148 43.1465 13.7368 43.1465 14.166 43.1465C14.7026 43.1465 15.3466 43.2539 15.7758 42.8246C16.0978 42.5026 16.2051 41.966 16.2051 41.5367C16.2051 41.2148 16.2051 40.7855 16.0978 40.3562ZM12.6635 41.1075C11.9123 41.1075 11.2684 41.1075 10.5171 41.1075C10.5171 40.2489 10.6245 39.3903 10.8391 38.5318C10.9464 37.8879 11.0537 37.4586 11.3757 37.0293C11.2684 37.1366 11.483 36.922 11.5903 36.8146L11.6977 36.7073C11.805 36.7073 11.9123 36.6 11.9123 36.6C12.0196 36.6 12.1269 36.6 12.1269 36.4927C12.2343 36.4927 12.4489 36.4927 12.3416 36.4927C12.3416 36.4927 12.7709 36.6 12.5562 36.6C12.6636 36.6 12.7709 36.7073 12.8782 36.7073C12.9855 36.8146 12.9855 36.8146 12.8782 36.7073L12.9855 36.8146L13.0928 36.922C13.0928 36.922 13.0928 36.922 13.0928 37.0293C13.2002 37.1366 13.3075 37.3513 13.3075 37.4586C13.4148 37.6732 13.3075 37.4586 13.4148 37.6732C13.4148 37.7805 13.5221 37.9952 13.5221 38.1025C13.6294 38.7464 13.7368 39.283 13.8441 39.8196C13.8441 40.1416 13.9514 40.5709 13.9514 40.8928V41.0001H13.8441L12.6635 41.1075Z" fill="#1E1E1E"/>
<path d="M18.1371 41.6437C18.1371 42.1803 18.1371 42.6096 18.5664 42.9315C18.9956 43.3608 19.6396 43.2535 20.1762 43.2535C20.6054 43.2535 20.9274 43.2535 21.3567 43.2535C22.2153 43.2535 23.0738 43.2535 23.9324 43.2535C24.0397 43.2535 24.0397 43.2535 24.147 43.2535C24.3617 43.4681 24.5763 43.5754 24.8983 43.5754C25.4349 43.5754 25.9715 43.0388 25.9715 42.5022C25.9715 41.5364 25.9715 40.5705 25.8641 39.7119C25.7568 38.8533 25.6495 37.8875 25.3275 37.0289C24.6836 35.5264 23.3958 34.2386 21.5713 34.5605C19.9615 34.8825 18.9956 36.385 18.6737 37.8875C18.459 38.746 18.3517 39.6046 18.2444 40.4632C18.1371 40.7851 18.1371 41.2144 18.1371 41.6437ZM20.3908 41.1071H20.2835V40.9998C20.2835 40.6778 20.2835 40.2485 20.3908 39.9265C20.4981 39.3899 20.4981 38.746 20.7128 38.2094C20.7128 38.1021 20.8201 37.8875 20.8201 37.7801C20.9274 37.5655 20.8201 37.7801 20.9274 37.5655C21.0347 37.4582 21.0347 37.2435 21.1421 37.1362C21.1421 37.1362 21.1421 37.1362 21.1421 37.0289L21.2494 36.9216L21.3567 36.8143C21.2494 36.9216 21.2494 36.8143 21.3567 36.8143C21.464 36.7069 21.5713 36.7069 21.6787 36.7069C21.464 36.8143 21.8933 36.7069 21.8933 36.5996C21.6787 36.5996 21.8933 36.5996 22.1079 36.5996C22.1079 36.5996 22.2153 36.5996 22.3226 36.7069C22.3226 36.7069 22.4299 36.8143 22.5372 36.8143L22.6445 36.9216C22.6445 36.9216 22.9665 37.2435 22.8592 37.1362C23.1811 37.5655 23.2885 37.9948 23.3958 38.6387C23.6104 39.4973 23.6104 40.3558 23.7177 41.2144C22.9665 41.2144 22.3226 41.2144 21.5713 41.2144L20.3908 41.1071Z" fill="#1E1E1E"/>
</svg>
