<svg width="186" height="11" viewBox="0 0 186 11" fill="none" xmlns="http://www.w3.org/2000/svg">
<path d="M185.277 7.88385C183.145 6.34451 180.869 4.93115 178.737 3.39181C176.61 1.97481 175.102 1.27724 172.636 2.68491C170.606 3.83698 168.145 5.36699 166.576 6.99746C166.428 7.00111 166.424 6.87877 166.276 6.88241C165.961 6.40036 165.207 6.05158 164.749 5.6955C163.681 4.86466 162.761 4.03018 161.697 3.32168C160.018 2.01607 158.201 0.958786 155.865 1.87347C153.524 2.66581 152.118 4.65965 150.244 6.05274C150.101 6.17872 149.957 6.3047 149.814 6.43069C150.249 6.17508 150.092 5.93405 149.499 5.94863C149.042 5.59256 148.297 5.48845 147.696 5.25835C146.641 4.79452 145.587 4.3307 144.532 3.86687C142.123 2.82416 139.852 1.53314 137.581 0.242115C136.822 -0.229005 135.499 0.0484761 134.926 0.552404C133.931 1.67895 132.932 2.68316 131.937 3.80971C131.368 4.43597 130.799 5.06223 130.23 5.6885C130.087 5.81448 129.943 5.94046 129.805 6.18878C129.661 6.31476 129.661 6.31476 129.661 6.31476C128.311 5.85822 127.09 4.90869 125.878 4.20384C124.518 3.50262 123.154 2.67908 121.646 1.98151C119.075 0.57544 116.531 -0.0966094 113.783 1.68536C111.761 3.0821 109.888 4.47519 107.866 5.87193C106.201 4.93333 104.541 4.11708 102.728 3.18213C101.068 2.36587 99.3934 1.1826 97.335 1.60064C95.4247 2.01504 93.7038 3.52683 92.1125 4.54562C91.2428 5.05683 90.3732 5.56805 89.6515 6.07562C88.7819 6.58684 88.1898 6.60142 87.1399 6.25993C83.6896 5.12041 80.9378 2.86163 77.0757 2.5894C73.0655 2.32081 70.3361 4.59213 67.2923 6.38139C66.2793 7.01859 66.4227 6.89261 65.3635 6.30644C64.4571 5.83897 63.6986 5.36785 62.7921 4.90037C60.9791 3.96543 59.1661 3.03048 57.0801 2.7145C54.9987 2.52086 53.2502 3.29862 51.3536 4.08003C50.3313 4.47256 49.3091 4.86509 48.2868 5.25761C47.2645 5.65014 45.6686 6.54659 44.3411 6.70174C42.5649 6.74548 40.2941 5.45446 38.7817 4.63456C37.1167 3.69596 35.7293 2.26073 33.6433 1.94475C31.7053 1.62513 29.8042 2.2842 28.3609 3.29935C26.7696 4.31814 25.3493 5.94497 23.2587 5.50666C21.1727 5.19068 19.4939 3.88508 17.6855 3.07246C15.7245 2.14116 13.6247 1.45818 11.2473 1.27183C6.9365 0.888194 2.54676 2.34326 0.298279 5.58233C-1.10357 7.69851 2.81385 9.43878 4.2157 7.3226C6.18196 4.45783 10.4743 4.35211 13.7813 5.61762C17.0882 6.88313 19.8446 9.26424 23.6975 9.2918C25.4783 9.37039 27.0834 8.71861 28.5359 7.94814C29.6924 7.18496 31.6909 5.17654 33.1986 5.87411C34.7018 6.44934 36.0846 7.76223 37.5969 8.58213C39.2573 9.39839 41.2137 10.2074 42.9991 10.4083C44.9325 10.6056 46.5376 9.95379 48.2907 9.29836C50.4833 8.50967 52.6621 7.35396 54.8592 6.6876C56.765 6.15086 58.5918 7.45282 60.0996 8.15038C61.6119 8.97029 63.2953 10.3982 65.2287 10.5955C68.656 11.1234 71.3393 7.62867 74.1148 6.58072C77.3296 5.39949 80.53 7.76967 83.2403 8.92742C84.9006 9.74368 86.8524 10.4303 88.7674 10.1382C90.8304 9.84254 92.5559 8.4531 94.1472 7.43431C95.0168 6.92309 96.3075 5.78925 97.3344 5.51906C97.4824 5.51542 97.7646 5.14111 97.7646 5.14111C98.0606 5.13382 99.1244 5.84233 99.425 5.95737C101.543 7.1297 103.809 8.29839 105.928 9.47072C105.928 9.47072 106.076 9.46708 106.08 9.58941C106.839 10.0605 108.028 10.1537 108.888 9.39782C110.188 8.50865 111.34 7.62313 112.64 6.73397C113.213 6.23004 113.939 5.84481 114.513 5.34088C114.948 5.08527 115.804 4.20704 116.391 4.07012C117.571 3.91863 119.707 5.5803 120.614 6.04778C121.974 6.74899 123.185 7.45385 124.545 8.15506C126.663 9.32739 129.249 11.1005 131.552 9.32943C132.704 8.44391 133.546 7.19868 134.398 6.19811C134.967 5.57185 135.679 4.8196 136.248 4.19334C140.031 6.30427 143.953 8.16687 148.153 9.53284C150.701 10.3272 152.135 9.06741 153.861 7.67797C154.721 6.92207 155.573 5.92151 156.59 5.40665C157.46 4.89543 156.877 5.15468 157.631 5.50347C158.084 5.7372 158.699 6.3343 159.157 6.69038C160.226 7.52122 161.146 8.3557 162.21 9.0642C162.973 9.65766 163.893 10.4921 164.943 10.8336C167.339 11.5093 168.759 9.8825 170.346 8.74138C171.354 7.98184 172.363 7.2223 173.519 6.45912C173.519 6.45912 174.389 5.9479 174.824 5.69229C174.976 5.81099 175.129 5.92968 175.281 6.04837C177.413 7.58771 179.689 9.00107 181.821 10.5404C184.397 12.0688 187.409 9.4232 185.277 7.88385Z" fill="#F7C300"/>
</svg>
