<svg width="26" height="64" viewBox="0 0 26 64" fill="none" xmlns="http://www.w3.org/2000/svg">
<path d="M21.6351 29.6973C21.6152 28.9921 21.6271 28.287 21.6321 27.5828C21.633 27.5599 21.645 27.544 21.646 27.5202C21.6728 25.4464 21.817 23.3359 21.7216 21.2642C21.6798 20.3601 21.275 19.641 20.4007 19.3267C20.3281 19.3008 20.1223 19.2342 19.9432 19.1874C19.9432 19.1845 19.9452 19.1776 19.9452 19.1746C20.0139 18.912 20.0735 18.6464 20.1193 18.3788C20.2734 17.4847 20.4097 16.4991 19.7344 15.774C19.4251 15.4408 19.0342 15.2459 18.6165 15.1206C18.5608 14.3189 18.0913 13.6148 17.419 13.1205C17.4508 11.5709 17.5333 9.86915 16.4532 8.65475C16.1787 8.34643 15.8157 8.11373 15.4447 7.93868C14.9932 7.72584 14.48 7.47916 13.9687 7.64924C13.6654 7.75069 13.3889 7.95054 13.2357 8.23698C13.0826 8.52342 13.0637 8.8407 13.0517 9.15897C13.0358 9.58167 13.0318 10.0044 13.0398 10.4281C13.0547 11.2058 13.1243 11.9797 13.2148 12.7515C13.0219 12.8868 12.8419 13.0379 12.6917 13.2139C12.2232 13.763 12.0382 14.4004 11.9726 15.0758C11.9 15.0917 11.8244 15.0987 11.7528 15.1166C9.72682 15.6427 10.1256 18.0149 9.58955 19.6719C9.54081 19.7295 9.49208 19.7822 9.44434 19.8458C9.27128 20.0786 9.142 20.3014 9.09526 20.5908C9.07238 20.7291 9.22454 21.7426 9.0286 21.7336C8.4965 21.7088 8.02705 22.2091 8.03401 22.7282C8.07081 25.4494 7.93455 28.2353 8.42787 30.9227C8.94008 33.7125 8.89733 36.5032 8.94905 39.3338C9.05249 44.9712 9.15591 50.6086 9.26034 56.2459C8.87345 56.8536 9.40158 57.9566 10.3713 57.7975C13.3839 57.3032 16.4562 57.3429 19.4559 57.9029C20.0556 58.0153 20.7489 57.6373 20.715 56.9441C20.3769 50.0029 20.1024 43.0586 19.8905 36.1114C20.0278 35.9075 20.0825 35.643 19.992 35.3327C19.9721 35.272 19.9602 35.2093 19.9442 35.1467C20.1571 35.0691 20.4385 34.9318 20.4743 34.9099C20.897 34.6583 21.2203 34.2555 21.4282 33.8159C22.012 32.5856 21.6719 31.0062 21.6351 29.6973Z" fill="#F7C300"/>
<path d="M19.3196 58.7702C19.2699 58.7722 19.2192 58.7732 19.1694 58.7752C19.0232 50.4903 18.877 42.2044 18.7308 33.9194C18.9645 33.8787 19.1853 33.8191 19.3664 33.7146C20.0496 33.3188 19.9741 32.532 19.992 31.8467C20.0148 30.9128 20.0288 29.9789 20.0317 29.045C20.0367 27.2616 20.0039 25.4784 19.9333 23.6961C19.9025 22.9164 19.979 22.0281 19.7861 21.2692C19.6359 20.6785 19.1973 20.4527 18.697 20.3503C18.7716 19.7645 18.8313 19.1776 18.8472 18.5868C18.8651 17.9184 18.6632 17.4192 18.1649 17.1656C18.1619 17.1059 18.1708 17.0462 18.1589 16.9865C17.9252 15.8348 17.3782 14.697 16.5278 13.8725C16.306 13.6576 16.0703 13.4816 15.8266 13.3284C15.9628 12.2871 15.8952 11.2448 15.6595 10.2144C15.4307 9.21183 15.0389 8.18934 14.3029 7.44538C14.0741 7.21364 13.8036 7.00978 13.5102 6.85363C13.3789 6.00922 13.4207 5.07633 13.4963 4.17424C13.5848 3.11599 13.7002 2.0587 13.6226 0.995479C13.5848 0.477297 13.1919 -0.0239766 12.628 0.000888149C12.1218 0.0237637 11.5936 0.439503 11.6334 0.995479C11.7737 2.9399 11.3112 4.8635 11.5011 6.79499C11.2813 6.89843 11.0715 7.02668 10.8855 7.21167C10.1276 7.96855 9.70589 9.04374 9.51394 10.0801C9.40652 10.6599 9.34585 11.2497 9.31203 11.8375C9.2812 12.3825 9.29512 12.9456 9.43536 13.4767C9.32595 13.5682 9.21756 13.6626 9.11711 13.77C8.37713 14.5637 8.01808 15.5941 8.06184 16.6494C8.03201 16.6503 8.00215 16.6504 7.97331 16.6514C7.27709 16.6842 6.59084 16.8035 6.23875 17.4838C5.89462 18.1492 5.96821 19.1478 5.89859 19.8818C5.89461 19.9305 5.9175 19.9743 5.92148 20.021C5.06812 20.1235 4.85329 21.14 5.28793 21.6731C5.09697 25.1879 5.09895 28.7267 5.37644 32.2366C5.43611 32.9855 5.59922 33.6927 6.39589 33.9652C6.42075 33.9742 6.45158 33.9751 6.47744 33.9821C6.28748 42.2571 6.36506 50.5341 6.71814 58.8041V58.8051C6.57293 58.8001 6.42772 58.7992 6.28152 58.7932C5.00148 58.7405 5.00347 60.7297 6.28152 60.7824C10.6259 60.9624 14.9752 60.9544 19.3196 60.7594C20.5947 60.7027 20.6026 58.7136 19.3196 58.7702ZM11.3042 11.7838C11.3201 11.5262 11.345 11.2706 11.3688 11.014C11.3758 10.9613 11.3778 10.9404 11.3788 10.9305C11.3848 10.8867 11.3917 10.842 11.3987 10.7982C11.4196 10.6709 11.4425 10.5436 11.4693 10.4173C11.522 10.1676 11.5877 9.91994 11.6712 9.67726C11.6831 9.64245 11.8234 9.30332 11.7448 9.47439C11.7975 9.36001 11.8532 9.24763 11.9149 9.13723C11.9775 9.02683 12.0472 8.92238 12.1168 8.81695C12.1337 8.79408 12.1347 8.7921 12.1436 8.78017C12.1645 8.75431 12.1874 8.73048 12.2093 8.70562C12.3077 8.7086 12.4062 8.70066 12.5047 8.67381L12.6091 8.62998C12.6578 8.65882 12.7086 8.6847 12.7533 8.71752C12.7772 8.74537 12.9095 8.86177 12.9274 8.88166C12.9682 8.92443 13.0079 8.96815 13.0457 9.01291C12.9831 8.92638 12.985 8.9294 13.0527 9.02189C13.1879 9.2228 13.3023 9.42863 13.4087 9.64545C13.4167 9.66336 13.4157 9.66144 13.4217 9.67338C13.4426 9.7251 13.4615 9.7768 13.4804 9.82951C13.5221 9.94389 13.5599 10.0593 13.5947 10.1766C13.6723 10.4342 13.735 10.6958 13.7897 10.9584C13.8195 11.1036 13.8454 11.2488 13.8692 11.395C13.8881 11.5193 13.8911 11.5412 13.8782 11.4607C13.8872 11.5343 13.8951 11.6078 13.9011 11.6814C13.9269 11.9748 13.9359 12.2702 13.9249 12.5656C13.924 12.5925 13.921 12.6192 13.919 12.6461C13.5719 12.5904 13.2158 12.5576 12.8508 12.5407C12.3346 12.5168 11.8055 12.5427 11.2943 12.6402C11.2943 12.6312 11.2933 12.6232 11.2923 12.6143C11.2754 12.3378 11.2873 12.0603 11.3042 11.7838ZM10.1276 15.8547C10.2141 15.5802 10.4011 15.2828 10.6428 15.0531C11.2316 14.4921 12.2849 14.4861 13.1303 14.5468C14.0284 14.6104 14.6639 14.7895 15.2428 15.4011C15.6237 15.8049 15.8833 16.3032 16.0613 16.8463C14.9742 16.7478 13.8842 16.6703 12.7951 16.6315C11.8791 16.5987 10.9611 16.5906 10.0431 16.5986C10.0242 16.3748 10.0371 16.1372 10.1276 15.8547ZM7.88777 19.8808C7.92557 19.477 8.00017 19.0493 8.00912 18.6376C8.21102 18.6326 8.41291 18.6207 8.61581 18.6147C9.61537 18.5819 10.6159 18.5729 11.6165 18.5898C12.6161 18.6068 13.6166 18.6475 14.6152 18.7142C15.1145 18.747 15.6128 18.7868 16.1111 18.8325C16.3249 18.8524 16.5377 18.8723 16.7516 18.8942C16.7824 18.8972 16.8132 18.9011 16.8431 18.9041C16.8371 19.0453 16.8311 19.1875 16.8212 19.3288C16.8003 19.6172 16.7615 19.9037 16.7247 20.1902C13.7748 20.0151 10.8198 19.9455 7.86492 19.9773C7.8689 19.9445 7.88479 19.9146 7.88777 19.8808ZM16.8401 39.5399C16.862 40.797 16.8838 42.0542 16.9067 43.3114C15.4467 43.3482 13.9876 43.385 12.5275 43.4228C11.7319 43.4427 10.9352 43.4635 10.1395 43.4834C9.7417 43.4933 9.34385 43.5033 8.94601 43.5142C8.75903 43.5192 8.57305 43.5242 8.38607 43.5282C8.38209 42.2084 8.38706 40.8896 8.39402 39.5697C11.2037 39.3072 14.0284 39.2962 16.8401 39.5399ZM8.40993 37.5785C8.42286 36.4258 8.44175 35.2731 8.46562 34.1213C8.66355 34.1164 8.85949 34.1114 9.0415 34.1144C10.8198 34.1492 12.5982 34.1432 14.3755 34.0945C15.1642 34.0736 15.9539 34.0417 16.7426 34.0039C16.7635 35.1855 16.7844 36.3662 16.8053 37.5478C14.0105 37.3081 11.2027 37.3189 8.40993 37.5785ZM8.40595 45.5243C8.59194 45.5173 8.77494 45.5064 8.94601 45.5024C9.90778 45.4776 10.8696 45.4537 11.8313 45.4289C13.5351 45.3861 15.2378 45.3423 16.9415 45.2996C16.9694 46.875 16.9972 48.4515 17.0251 50.0269C15.576 50.0667 14.1269 50.1054 12.6777 50.1452C11.2873 50.1829 9.83518 50.1451 8.4537 50.4097C8.42087 48.7816 8.41888 47.1534 8.40595 45.5243ZM11.6374 58.9036C11.6284 58.4391 11.6215 57.9746 11.6175 57.5092C11.6165 57.3013 11.6105 57.0914 11.6185 56.8835C11.6195 56.8477 11.6225 56.813 11.6254 56.7772C11.6284 56.7642 11.6294 56.7632 11.6364 56.7324C11.6434 56.7095 11.6424 56.7115 11.6464 56.6975C11.6653 56.6637 11.6841 56.6299 11.707 56.5981C11.5817 56.796 11.7816 56.5246 11.8164 56.4868C11.894 56.4022 11.9735 56.3197 12.0541 56.2381C12.1943 56.0949 12.3386 55.9556 12.4868 55.8194C12.6369 55.6811 12.7921 55.5488 12.9483 55.4185C12.9811 55.4414 13.0129 55.4632 13.0457 55.4861C13.0746 55.509 13.1034 55.5329 13.1323 55.5568C13.2059 55.6184 13.2785 55.6821 13.3481 55.7487C13.4167 55.8144 13.4833 55.882 13.547 55.9537C13.5629 55.9716 13.5778 55.9894 13.5928 56.0083C13.5997 56.0182 13.5957 56.0133 13.6067 56.0292C13.6524 56.1067 13.6992 56.1853 13.7439 56.2629C13.7549 56.2937 13.7658 56.3246 13.7748 56.3554C13.7907 56.4111 13.8255 56.7334 13.8115 56.5036C13.8185 56.62 13.8245 56.7363 13.8275 56.8527C13.8325 57.0974 13.8354 57.3411 13.8394 57.5858C13.8464 58.0264 13.8543 58.4679 13.8613 58.9085C13.1193 58.9155 12.3784 58.9065 11.6374 58.9036ZM15.8485 58.8846C15.8405 58.3903 15.8326 57.896 15.8246 57.4017C15.8157 56.8368 15.8445 56.2322 15.6476 55.6941C15.2756 54.6746 14.4461 54.0261 13.5758 53.4373C13.5549 53.4224 13.5271 53.4234 13.5052 53.4114C13.1909 53.1797 12.7513 53.0941 12.4152 53.3358C11.9626 53.662 11.524 54.0082 11.1112 54.3842C10.7104 54.7502 10.2937 55.143 9.98835 55.5945C9.64323 56.1057 9.62432 56.7284 9.62731 57.3232C9.63029 57.8443 9.63728 58.3655 9.64822 58.8867C9.33194 58.8807 9.01564 58.8678 8.69837 58.8598C8.69837 58.839 8.70832 58.825 8.70732 58.8031C8.61681 56.6817 8.54421 54.5602 8.48951 52.4377C9.90282 52.0867 11.4335 52.1682 12.8747 52.1284C14.2701 52.0906 15.6655 52.0528 17.0609 52.014C17.1007 54.2896 17.1414 56.5643 17.1812 58.8399C16.7376 58.8539 16.2931 58.8747 15.8485 58.8846ZM18.0187 31.9482C17.9888 31.9502 17.958 31.9522 17.9282 31.9532C17.6745 31.9681 17.4209 31.982 17.1673 31.995C16.7019 32.0188 16.2364 32.0397 15.7719 32.0586C14.841 32.0954 13.909 32.1202 12.9781 32.1341C12.0044 32.149 11.0307 32.1511 10.056 32.1402C9.63228 32.1352 9.2086 32.1282 8.7859 32.1193C8.33834 32.1093 7.8271 32.0307 7.37357 32.0695C7.35766 31.9054 7.3308 31.7374 7.32185 31.6021C7.29201 31.1366 7.26517 30.6721 7.2423 30.2066C7.19853 29.2757 7.16869 28.3448 7.15576 27.4128C7.1309 25.5997 7.17365 23.7865 7.26515 21.9744C8.96292 21.9475 10.6607 21.9436 12.3585 21.9853C13.3719 22.0102 14.3854 22.048 15.3979 22.0968C15.9042 22.1216 16.4104 22.1495 16.9157 22.1803C17.2021 22.1982 17.5641 22.1963 17.8934 22.2201C17.9023 22.4668 17.8983 22.7333 17.9083 22.9312C17.9282 23.3549 17.9451 23.7796 17.96 24.2043C17.9948 25.18 18.0187 26.1567 18.0306 27.1334C18.0525 28.7207 18.1122 30.3529 18.0187 31.9482Z" fill="black"/>
<path d="M24.1365 61.5768C16.4224 61.9826 8.69745 62.103 0.974451 61.9398C-0.305587 61.913 -0.334445 63.9022 0.946588 63.929C8.66958 64.0931 16.3946 63.9718 24.1086 63.566C25.3807 63.4994 25.4175 61.5102 24.1365 61.5768Z" fill="black"/>
<path d="M14.0036 23.9138C13.5013 23.7238 12.9135 24.1246 12.7802 24.608C12.627 25.1669 12.9702 25.6413 13.4744 25.8313C13.4953 25.8393 13.5003 25.8413 13.5142 25.8462C13.5709 25.8731 13.6266 25.9009 13.6823 25.9317C13.7967 25.9944 13.9071 26.064 14.0135 26.1396C13.8852 26.0481 14.1627 26.2739 14.1876 26.2978C14.2721 26.3793 14.3536 26.4678 14.4272 26.5593C14.4422 26.5812 14.464 26.611 14.469 26.62C14.5028 26.6757 14.5386 26.7284 14.5714 26.7851C14.6043 26.8418 14.6331 26.8995 14.663 26.9562C14.6669 26.9651 14.6759 26.9851 14.6838 27.0059C14.7256 27.1213 14.7575 27.2386 14.7883 27.3569C14.7893 27.3599 14.7932 27.3818 14.7982 27.4037C14.8012 27.4445 14.8122 27.5439 14.8131 27.5598C14.8161 27.6633 14.8112 27.7678 14.8012 27.8712C14.7913 27.8951 14.7554 28.0831 14.7465 28.1159C14.7286 28.1795 14.6112 28.4609 14.6848 28.3098C14.6311 28.4212 14.5675 28.5246 14.5058 28.631C14.4929 28.6529 14.4879 28.6608 14.4809 28.6738C14.4481 28.7135 14.4143 28.7534 14.3795 28.7902C14.3586 28.8121 14.2164 28.9384 14.1985 28.9622C13.9846 29.1164 13.8345 29.1751 13.5918 29.2318C13.1751 29.3292 12.4779 29.2925 12.0233 29.198C11.7797 29.1473 11.4962 29.0676 11.3241 28.9791C11.2097 28.9214 11.1033 28.8539 10.9969 28.7842C10.9879 28.7783 10.9651 28.7614 10.9472 28.7465C10.8945 28.7017 10.8437 28.6569 10.794 28.6092C10.7134 28.5316 10.6388 28.45 10.5662 28.3655C10.4359 28.2153 10.5235 28.3058 10.5463 28.3406C10.5105 28.2879 10.4747 28.2361 10.4409 28.1814C10.3733 28.073 10.3156 27.9607 10.2569 27.8473C10.252 27.8384 10.244 27.8185 10.2361 27.7986C10.2112 27.732 10.1883 27.6644 10.1674 27.5967C10.1306 27.4744 10.1018 27.351 10.0779 27.2257C10.0729 27.172 10.0689 27.1193 10.067 27.0656C10.062 26.9402 10.067 26.8149 10.0749 26.6895C10.0759 26.6816 10.0759 26.6727 10.0769 26.6677C10.0938 26.5921 10.1087 26.5155 10.1286 26.4409C10.1455 26.3812 10.1634 26.3216 10.1833 26.2629C10.1933 26.2331 10.2112 26.1893 10.2211 26.1635C10.2758 26.0491 10.3345 25.9367 10.4021 25.8292C10.435 25.7765 10.4698 25.7258 10.5056 25.6741C10.5175 25.6562 10.5185 25.6532 10.5185 25.6522C10.5265 25.6443 10.5314 25.6394 10.5513 25.6185C10.6468 25.515 10.7403 25.4126 10.8447 25.3181C10.8537 25.3101 10.8955 25.2733 10.9243 25.2484C10.9611 25.2226 11.0367 25.1659 11.0486 25.158C11.165 25.0804 11.2863 25.0107 11.4116 24.949C11.4226 24.943 11.4713 24.9233 11.5051 24.9083C11.5489 24.8944 11.6354 24.8645 11.6494 24.8605C11.7985 24.8158 11.9497 24.7839 12.1039 24.7611C12.636 24.6795 12.9294 24.0122 12.7991 23.5377C12.643 22.9698 12.1089 22.761 11.5757 22.8435C10.0819 23.0733 8.83864 24.2131 8.31449 25.6026C7.76648 27.0557 8.21104 28.7126 9.22452 29.8455C10.3464 31.0997 12.2362 31.4547 13.8414 31.2041C15.4925 30.9465 16.6332 29.556 16.7914 27.9299C16.9654 26.1008 15.6357 24.5294 14.0036 23.9138Z" fill="black"/>
</svg>
