<svg width="69" height="64" viewBox="0 0 69 64" fill="none" xmlns="http://www.w3.org/2000/svg">
<path d="M65.5216 55.1235C65.3205 47.693 65.1184 40.2637 64.9173 32.8332C64.904 32.3212 64.5838 32.0134 64.2021 31.8985C64.1067 31.8267 64.0021 31.7601 63.8677 31.72C61.8998 31.1352 59.8836 31.1536 57.8511 31.2203C55.6554 31.2921 53.4597 31.3599 51.2641 31.4122C50.1796 31.4378 49.094 31.4502 48.0095 31.4697C48.1942 30.8695 47.8874 30.103 47.0748 30.1174C38.7343 30.259 30.3907 30.259 22.0492 30.1174C21.294 30.104 20.9852 30.7679 21.0939 31.3446C17.4659 31.245 13.838 31.1228 10.212 30.9587C9.43735 30.9238 9.1316 31.6133 9.26601 32.2032C9.22702 32.312 9.19519 32.4248 9.19519 32.5623C9.19724 33.0292 9.19416 33.496 9.19519 33.9618C9.37063 33.9064 9.55226 33.8695 9.73694 33.8747C12.459 33.9434 15.1769 34.1383 17.8999 34.1424C18.965 34.1435 19.754 35.0115 19.8001 36.0417C19.8463 37.0667 18.8942 37.9428 17.8999 37.9408C15.1769 37.9367 12.459 37.7418 9.73694 37.673C9.54507 37.6679 9.36651 37.6299 9.19619 37.5766C9.18182 41.223 9.11618 44.8685 9.02692 48.514C9.37371 48.4093 9.7513 48.3898 10.1084 48.4616C10.2592 48.4924 10.412 48.517 10.5639 48.5427C10.5649 48.5396 10.843 48.5806 10.8851 48.5847C11.278 48.6227 11.673 48.6452 12.067 48.6575C12.8468 48.6821 13.6276 48.6678 14.4074 48.6472C15.1615 48.6267 15.9167 48.5971 16.6708 48.595C17.0761 48.594 17.4793 48.6195 17.8835 48.6257C18.059 48.6288 18.2323 48.6237 18.4088 48.6176C18.415 48.6176 18.417 48.6166 18.4222 48.6166C18.5289 48.594 18.6325 48.5652 18.7341 48.5283C19.8145 48.1804 20.6856 48.9407 21.0703 49.8549C21.4684 50.8009 21.1544 51.831 20.8323 52.7831C21.0211 53.5927 21.3227 54.6977 21.9332 55.1173C22.6935 55.6396 24.2048 55.3093 25.0841 55.2539C28.0955 55.062 31.1141 55.3779 34.1152 55.5995C35.3813 55.6929 36.6474 55.8172 37.9125 55.9372C41.1455 55.9249 44.3764 55.9946 47.6063 56.0983C47.7869 56.0654 47.9674 56.0254 48.1121 55.9639C48.1121 55.9044 48.1265 55.7832 48.0865 55.5831C47.9839 55.0712 48.1111 54.5089 48.3861 54.0492C48.2609 53.7958 48.185 53.5198 48.186 53.2376C48.187 52.7051 48.2014 52.1716 48.1881 51.6391C48.1819 51.3765 48.1675 51.1148 48.1449 50.8532C48.1213 50.6193 48.1173 50.5936 48.1347 50.7783C48.1121 50.6501 48.0844 50.5239 48.0526 50.3977C47.7592 49.1275 48.6272 48.0881 49.8851 47.9927C52.6379 47.7844 55.4389 47.689 58.1938 47.9373C59.3932 48.0451 60.6162 48.323 61.2718 49.4486C61.6422 50.0867 61.6936 50.8163 61.6946 51.5407C62.4272 53.1741 62.8047 55.0158 62.6765 56.8032C63.4265 56.8463 64.1775 56.8862 64.9286 56.9293C65.9946 56.9908 66.1803 55.6734 65.5216 55.1235ZM31.5306 38.5789C31.4167 39.4839 31.2608 40.3797 31.1089 41.2785C31.1449 41.6991 31.1212 42.13 31.1448 42.5527C31.1931 43.4402 31.2875 44.3247 31.3767 45.2091C31.4834 46.2679 30.4215 47.0661 29.4765 47.1082C29.138 47.1236 28.8434 47.0344 28.5859 46.8856C27.6964 46.7605 26.9597 45.9057 26.9751 45.0079C27.0335 41.6087 26.4836 38.2578 26.9761 34.8679C27.0603 34.2902 27.7282 33.6285 28.3027 33.5413C29.1954 33.4048 30.0183 33.5002 30.6985 34.1558C31.0997 34.5426 31.3736 35.0741 31.4978 35.6148C31.7235 36.5906 31.6547 37.596 31.5306 38.5789ZM42.4762 37.5037C42.468 37.7109 42.4495 37.9193 42.4413 38.1255C42.4064 39.01 42.4228 39.8933 42.3736 40.7767C42.3325 41.5083 42.2946 42.2409 42.2843 42.9734C42.2792 43.3613 42.2802 43.75 42.3028 44.1369C42.3069 44.22 42.3151 44.3052 42.3243 44.3904C42.3336 44.4283 42.3418 44.4673 42.35 44.5032C42.6045 45.5374 42.0247 46.5152 41.0233 46.8394C40.657 46.9584 40.2641 46.9308 39.905 46.8005C39.4238 47.1103 38.7917 47.2252 38.2746 47.1072C37.1932 46.861 36.7992 45.7488 36.948 44.771C36.8946 45.125 36.9685 44.5904 36.9747 44.5186C36.986 44.3924 36.9962 44.2652 37.0034 44.138C37.0239 43.8199 37.0332 43.5018 37.0383 43.1837C37.0465 42.6092 37.0362 42.0347 37.0342 41.4601C37.0311 40.5192 37.1583 39.5844 37.1594 38.6487C37.1604 37.4605 36.949 36.1421 37.3091 34.9868C38.2203 32.0647 42.5264 33.2499 42.6537 36.015C42.6732 36.4428 42.5788 36.8769 42.5029 37.2975C42.5162 37.2862 42.5203 37.3539 42.4762 37.5037ZM60.9928 37.5396C60.5136 37.4863 60.0375 37.4883 59.5584 37.5304C59.3696 37.5468 59.1828 37.5694 58.9951 37.593C58.9192 37.6043 58.6585 37.6402 58.6216 37.6453C57.611 37.7859 56.5912 37.8433 55.5733 37.9141C53.7245 38.0424 51.8735 38.1378 50.0195 38.1419C48.9545 38.144 48.1655 37.2697 48.1193 36.2427C48.0731 35.2156 49.0253 34.3456 50.0195 34.3436C51.8735 34.3395 53.7245 34.244 55.5733 34.1158C56.0361 34.084 56.4978 34.0501 56.9605 34.0152C57.2088 33.9967 57.4561 33.9773 57.7044 33.9588C57.4068 33.9814 58.0091 33.9269 58.0204 33.9249C59.0084 33.7874 59.9965 33.6305 60.9938 33.7413C62.0557 33.8593 62.8437 34.5169 62.8939 35.6404C62.935 36.5874 61.9839 37.6494 60.9928 37.5396Z" fill="#F7C300"/>
<path d="M32.0181 22.9701C32.1669 22.8634 32.2941 22.7486 32.4141 22.6132C32.4552 22.568 32.4962 22.5218 32.5362 22.4767C32.5465 22.4654 32.5711 22.4448 32.5906 22.4294C32.6296 22.4058 32.6686 22.3823 32.7076 22.3618C32.7219 22.3577 32.7271 22.3567 32.7476 22.3505C32.7938 22.3382 32.8399 22.3269 32.8861 22.3166C32.9036 22.3135 32.964 22.3032 33.0082 22.3012C33.0759 22.2981 33.1436 22.2991 33.2124 22.3022C33.2247 22.3032 33.317 22.3125 33.358 22.3146C33.4011 22.3238 33.4853 22.3382 33.4966 22.3413C33.5704 22.3567 33.6433 22.3752 33.7161 22.3936C34.0342 22.4757 34.343 22.6019 34.6652 22.6685C34.9853 22.7342 35.3506 22.725 35.721 22.6583C35.8123 22.8963 35.9816 23.0974 36.2556 23.2124C36.7439 23.4186 37.2467 23.2205 37.537 22.7927C37.7453 22.4859 37.8099 22.1309 37.772 21.781C37.7966 21.6323 37.8233 21.4834 37.8479 21.3347C38.086 20.9304 38.1711 20.4575 37.9957 19.9312C37.9823 19.8911 37.9556 19.8551 37.9382 19.8172C38.1465 19.6151 38.2819 19.333 38.2706 19.0652C38.244 18.4588 37.8182 18.1018 37.2446 18.0392C35.8554 17.8873 34.458 17.8084 33.0595 17.8084C32.3741 17.8084 31.5399 17.7128 30.9459 18.1119C30.3251 18.5285 30.1354 19.2775 30.0112 19.9701C29.8881 20.6534 29.7116 21.5409 29.8912 22.2304C30.1302 23.159 31.2486 23.5232 32.0181 22.9701Z" fill="#F7C300"/>
<path d="M32.5044 13.3481C32.806 13.4487 33.1569 13.4333 33.4729 13.4487C33.9787 13.4723 34.4856 13.501 34.9915 13.5205C35.0346 13.5379 35.0756 13.5657 35.1187 13.5769C35.4398 13.6652 35.8215 13.6262 36.1088 13.4538C36.3776 13.2917 36.6341 13.0116 36.6895 12.6904C36.7254 12.4791 36.71 12.2801 36.6464 12.0851C36.6423 12.0615 36.63 12.04 36.6239 12.0164C36.6075 11.9774 36.6084 11.9374 36.5859 11.8994C36.5838 11.8953 36.5787 11.8932 36.5767 11.8891C36.5018 11.6788 36.3899 11.4808 36.2206 11.3392C35.8267 11.0129 35.3526 10.859 34.8437 10.9759C34.5718 11.0385 34.3646 11.215 34.2096 11.4305C34.2004 11.4305 34.1912 11.4295 34.1819 11.4295C33.8895 11.4151 33.593 11.4089 33.2975 11.3925C33.118 11.2253 32.843 11.098 32.5978 11.1093C32.332 11.1216 32.057 11.2088 31.8723 11.4099C31.6784 11.6213 31.5994 11.8501 31.5717 12.1354C31.541 12.4432 31.6948 12.7581 31.8959 12.9798C32.0601 13.1583 32.2776 13.2722 32.5044 13.3481Z" fill="#F7C300"/>
<path d="M67.4804 61.2139C56.3204 61.8818 45.1378 62.085 33.9604 61.8593V63.9113C45.1378 64.1371 56.3194 63.9349 67.4804 63.2659C68.7927 63.1869 68.8019 61.1349 67.4804 61.2139Z" fill="black"/>
<path d="M53.6784 51.3017C53.6764 51.2976 53.6744 51.2945 53.6713 51.2904C53.662 51.2761 53.5204 51.0934 53.5091 51.0811C53.5081 51.0791 53.5061 51.077 53.504 51.075C53.502 51.0719 53.4989 51.0698 53.4958 51.0667C53.465 51.038 53.3583 50.96 53.3881 50.9826C53.4035 50.9949 53.3162 50.9231 53.2803 50.8995C53.2383 50.8718 53.1696 50.8503 53.1367 50.8359C53.1111 50.8256 53.0382 50.7866 52.99 50.7774C52.988 50.7774 52.9849 50.7764 52.9828 50.7764C52.9407 50.7682 52.7488 50.7436 52.7058 50.7395C52.7006 50.7395 52.6955 50.7385 52.6904 50.7385C52.6145 50.7364 52.5242 50.7528 52.4534 50.7651C52.4493 50.7651 52.4452 50.764 52.44 50.763C52.2543 50.764 52.082 50.8103 51.9219 50.9037C51.8439 50.9416 51.6716 51.0944 51.6911 51.078C51.6829 51.0852 51.6757 51.0913 51.6695 51.0995C51.5095 51.2894 51.4581 51.3602 51.3801 51.6003C51.3771 51.6105 51.3751 51.6208 51.373 51.6321C51.3658 51.6772 51.3402 51.8619 51.3361 51.907C51.3361 51.9091 51.3361 51.9122 51.3361 51.9143C51.3361 51.9204 51.3361 51.9265 51.3361 51.9327C51.3371 52.0332 51.3576 52.137 51.375 52.2334C51.3771 52.2437 51.3791 52.2548 51.3832 52.2651C51.3842 52.2682 51.3853 52.2713 51.3863 52.2734C51.4017 52.3123 51.4725 52.4837 51.491 52.5206C51.493 52.5257 51.4951 52.5309 51.4981 52.535C51.5012 52.5401 51.5043 52.5442 51.5074 52.5483C51.5084 52.5503 51.5104 52.5524 51.5115 52.5534C51.5648 52.6232 51.6182 52.6919 51.6715 52.7607C51.6726 52.7617 51.6736 52.7628 51.6746 52.7648C51.6828 52.7741 51.692 52.7823 51.7013 52.7905C51.7474 52.8285 51.8634 52.9177 51.9116 52.9526C51.9147 52.9546 51.9178 52.9566 51.9209 52.9587C51.926 52.9618 51.9311 52.9649 51.9373 52.968C51.9804 52.9905 52.0409 53.0131 52.0738 53.0265C52.1138 53.0429 52.165 53.0686 52.2112 53.0839C52.2246 53.0881 52.2379 53.0922 52.2512 53.0942C52.2533 53.0942 52.2564 53.0952 52.2594 53.0952C52.3302 53.1055 52.4637 53.125 52.5355 53.1322C52.5416 53.1332 52.5488 53.1332 52.555 53.1332C52.5693 53.1342 52.5827 53.1332 52.597 53.1312C52.6884 53.1209 52.7899 53.1075 52.8802 53.0931C52.8864 53.0921 52.8935 53.0911 52.8997 53.0891C52.9141 53.086 52.9264 53.0818 52.9397 53.0767C53.0033 53.0521 53.1244 53.0008 53.187 52.9721C53.19 52.9711 53.1941 52.969 53.1972 52.968C53.2024 52.9659 53.2075 52.9629 53.2116 52.9608C53.2168 52.9578 53.2229 52.9547 53.228 52.9506C53.2301 52.9495 53.2321 52.9475 53.2342 52.9454C53.2998 52.8982 53.385 52.8315 53.4486 52.7802C53.4578 52.773 53.4671 52.7648 53.4743 52.7566C53.543 52.6847 53.6005 52.6016 53.6579 52.5216C53.6651 52.5124 53.6713 52.5022 53.6764 52.4919C53.698 52.4488 53.7195 52.3903 53.7349 52.3544C53.7493 52.3195 53.7779 52.261 53.7933 52.2149C53.7964 52.2046 53.7985 52.1933 53.8005 52.182C53.8036 52.1605 53.8426 51.9717 53.8385 51.8763C53.8251 51.6568 53.7882 51.4946 53.6784 51.3017Z" fill="black"/>
<path d="M58.5139 51.3017C58.5119 51.2976 58.5098 51.2945 58.5067 51.2904C58.4975 51.2761 58.3559 51.0934 58.3447 51.0811C58.3436 51.0791 58.3416 51.077 58.3395 51.075C58.3375 51.0719 58.3344 51.0698 58.3313 51.0667C58.3005 51.038 58.1939 50.96 58.2236 50.9826C58.239 50.9949 58.1517 50.9231 58.1158 50.8995C58.0738 50.8718 58.005 50.8503 57.9722 50.8359C57.9465 50.8256 57.8737 50.7866 57.8255 50.7774C57.8235 50.7774 57.8204 50.7764 57.8183 50.7764C57.7762 50.7682 57.5844 50.7436 57.5413 50.7395C57.5361 50.7395 57.531 50.7385 57.5259 50.7385C57.4499 50.7364 57.3597 50.7528 57.2889 50.7651C57.2848 50.7651 57.2807 50.764 57.2756 50.763C57.0898 50.764 56.9175 50.8103 56.7574 50.9037C56.6794 50.9416 56.507 51.0944 56.5265 51.078C56.5183 51.0852 56.5111 51.0913 56.505 51.0995C56.3449 51.2894 56.2936 51.3602 56.2157 51.6003C56.2126 51.6105 56.2105 51.6208 56.2085 51.6321C56.2013 51.6772 56.1757 51.8619 56.1716 51.907C56.1716 51.9091 56.1716 51.9122 56.1716 51.9143C56.1716 51.9204 56.1716 51.9265 56.1716 51.9327C56.1726 52.0332 56.1931 52.137 56.2105 52.2334C56.2126 52.2437 56.2146 52.2548 56.2187 52.2651C56.2198 52.2682 56.2208 52.2713 56.2218 52.2734C56.2372 52.3123 56.308 52.4837 56.3264 52.5206C56.3285 52.5257 56.3306 52.5309 56.3336 52.535C56.3367 52.5401 56.3398 52.5442 56.3429 52.5483C56.3439 52.5503 56.346 52.5524 56.347 52.5534C56.4003 52.6232 56.4537 52.6919 56.507 52.7607C56.5081 52.7617 56.5091 52.7628 56.5101 52.7648C56.5183 52.7741 56.5276 52.7823 56.5368 52.7905C56.583 52.8285 56.6989 52.9177 56.7471 52.9526C56.7502 52.9546 56.7533 52.9566 56.7563 52.9587C56.7615 52.9618 56.7667 52.9649 56.7728 52.968C56.8159 52.9905 56.8764 53.0131 56.9093 53.0265C56.9493 53.0429 57.0006 53.0686 57.0467 53.0839C57.0601 53.0881 57.0734 53.0922 57.0867 53.0942C57.0888 53.0942 57.0919 53.0952 57.0949 53.0952C57.1657 53.1055 57.2991 53.125 57.3709 53.1322C57.3771 53.1332 57.3843 53.1332 57.3905 53.1332C57.4048 53.1342 57.4181 53.1332 57.4325 53.1312C57.5238 53.1209 57.6254 53.1075 57.7157 53.0931C57.7218 53.0921 57.7291 53.0911 57.7352 53.0891C57.7496 53.086 57.7619 53.0818 57.7752 53.0767C57.8388 53.0521 57.9599 53.0008 58.0225 52.9721C58.0255 52.9711 58.0297 52.969 58.0327 52.968C58.0379 52.9659 58.043 52.9629 58.0471 52.9608C58.0522 52.9578 58.0584 52.9547 58.0635 52.9506C58.0656 52.9495 58.0676 52.9475 58.0697 52.9454C58.1353 52.8982 58.2205 52.8315 58.2841 52.7802C58.2933 52.773 58.3026 52.7648 58.3098 52.7566C58.3785 52.6847 58.4359 52.6016 58.4934 52.5216C58.5006 52.5124 58.5067 52.5022 58.5119 52.4919C58.5334 52.4488 58.555 52.3903 58.5704 52.3544C58.5847 52.3195 58.6135 52.261 58.6288 52.2149C58.6319 52.2046 58.634 52.1933 58.636 52.182C58.6391 52.1605 58.6781 51.9717 58.674 51.8763C58.6607 51.6568 58.6237 51.4946 58.5139 51.3017Z" fill="black"/>
<path d="M53.4588 41.6928C53.4475 41.5718 53.4424 41.4497 53.4588 41.3286C53.4639 41.187 53.4352 41.0557 53.3706 40.9336C53.3295 40.8064 53.2588 40.6965 53.1582 40.6032C53.0659 40.5026 52.955 40.4318 52.8278 40.3908C52.7057 40.3261 52.5734 40.2975 52.4328 40.3026C52.3415 40.3149 52.2512 40.3272 52.1599 40.3395C51.9865 40.3878 51.8357 40.476 51.7074 40.6032C51.6541 40.6719 51.6007 40.7417 51.5463 40.8105C51.454 40.9705 51.4068 41.1429 51.4068 41.3286C51.3934 41.4312 51.3883 41.5348 51.3945 41.6385C51.4017 41.776 51.4242 41.9124 51.4447 42.0489C51.4529 42.1023 51.4632 42.1545 51.4755 42.2068C51.5073 42.3402 51.5679 42.4573 51.6592 42.5558C51.7321 42.6676 51.8275 42.7558 51.9475 42.8204C52.0655 42.8953 52.1927 42.9364 52.3292 42.9425C52.4656 42.9733 52.6021 42.9671 52.7386 42.924C52.8207 42.8891 52.9017 42.8553 52.9838 42.8204C53.1377 42.7291 53.2608 42.607 53.3521 42.4521C53.387 42.37 53.4209 42.2889 53.4557 42.2068C53.5009 42.0345 53.4999 41.8631 53.4588 41.6928Z" fill="black"/>
<path d="M58.1334 41.535C58.0924 41.4078 58.0216 41.298 57.921 41.2046C57.8276 41.1041 57.7179 41.0343 57.5907 40.9922C57.4686 40.9276 57.3362 40.8988 57.1956 40.9039L56.9227 40.9408C56.7493 40.9901 56.5985 41.0774 56.4702 41.2046C56.4169 41.2744 56.3635 41.343 56.3102 41.4118C56.2178 41.5718 56.1706 41.7442 56.1706 41.9299V42.0808C56.1655 42.2224 56.1942 42.3538 56.2589 42.4759C56.3009 42.6031 56.3707 42.7128 56.4713 42.8061C56.5646 42.9057 56.6744 42.9765 56.8016 43.0186C56.9237 43.0832 57.0561 43.112 57.1966 43.1069C57.2869 43.0946 57.3782 43.0822 57.4696 43.0699C57.643 43.0217 57.7938 42.9334 57.9221 42.8061C57.9754 42.7364 58.0288 42.6677 58.0821 42.599C58.1745 42.4389 58.2216 42.2666 58.2227 42.0808V41.9299C58.2278 41.7883 58.1981 41.6571 58.1334 41.535Z" fill="black"/>
<path d="M39.5037 36.688C39.081 36.7137 38.766 37.1385 38.7486 37.7141C38.7075 39.0858 38.6675 40.4586 38.6275 41.8304C38.6121 42.367 38.9866 42.8811 39.3826 42.8564C39.8054 42.8308 40.1204 42.406 40.1378 41.8304C40.1789 40.4586 40.2189 39.0858 40.2589 37.7141C40.2753 37.1775 39.9008 36.6644 39.5037 36.688Z" fill="black"/>
<path d="M45.813 37.8145C45.8099 37.2779 45.4436 36.7638 45.0055 36.7884C44.5694 36.8131 44.1949 37.2389 44.198 37.8145C44.2052 39.3535 44.2401 40.8926 44.3027 42.4306C44.3242 42.9661 44.6587 43.4822 45.1102 43.4566C45.5288 43.433 45.9413 43.0051 45.9177 42.4306C45.8551 40.8936 45.8202 39.3545 45.813 37.8145Z" fill="black"/>
<path d="M63.0448 34.1713C63.0458 34.1467 63.0488 34.124 63.0478 34.1004L63.0488 34.0697C63.1001 33.2397 62.306 32.936 61.6904 33.1514C61.3641 33.1637 61.0368 33.176 60.7105 33.1884C60.7393 32.7574 60.768 32.3265 60.7968 31.8956C60.8132 31.6442 60.6695 31.3446 60.4961 31.1701C60.3186 30.9926 60.0262 30.8583 59.7707 30.8695C59.505 30.8819 59.23 30.968 59.0453 31.1701C58.992 31.2399 58.9386 31.3087 58.8843 31.3774C58.7919 31.5375 58.7447 31.7099 58.7447 31.8956L58.6534 33.2673C55.4686 33.3883 52.2849 33.5084 49.1001 33.6295C49.1196 32.8846 49.1309 32.1407 49.1514 31.3958C49.1555 31.2378 49.1268 31.1014 49.0786 30.9814C49.0827 30.8706 49.0827 30.7608 49.0847 30.651C49.6972 30.6479 50.3098 30.6469 50.9223 30.6417C52.2428 30.6304 52.2459 28.5784 50.9223 28.5897C50.2944 28.5948 49.6655 28.5948 49.0386 28.599C48.9903 27.9228 48.9339 27.1995 48.4158 26.707C47.8761 26.194 47.047 26.0718 46.3596 25.8666C45.6229 25.646 44.8883 25.4142 44.1588 25.169C43.7176 25.0212 43.2826 24.857 42.8465 24.7C42.8711 24.6097 42.8855 24.5164 42.8732 24.4158C42.7429 23.2882 42.8845 22.1607 42.8958 21.0311C42.904 20.2605 42.8311 19.494 42.7367 18.7307C43.2241 18.7245 43.7104 18.7173 44.1968 18.7111C45.5162 18.6937 45.5203 16.6416 44.1968 16.6591L41.9323 16.6889C42.0113 16.1451 42.0914 15.6014 42.1673 15.0565C42.2689 14.3394 42.2597 13.6006 41.5353 13.2087C40.8807 12.8547 39.9531 13.0301 39.236 13.0393C39.0431 13.0414 38.8512 13.0455 38.6583 13.0486C38.6758 12.0944 38.0171 11.0602 37.3881 10.4025C37.2763 10.2855 37.1542 10.1901 37.029 10.0998L36.9572 8.91371C36.9284 8.44276 36.9459 7.92572 36.8258 7.46811C36.673 6.88533 36.242 6.50361 35.7731 6.16605C35.6008 6.0419 35.4161 5.9352 35.2273 5.83978C35.2294 5.82439 35.2355 5.81211 35.2376 5.79569C35.3166 4.96154 35.3494 4.12426 35.3371 3.286C35.335 3.15365 35.3074 3.02126 35.2561 2.89711C35.2366 2.27432 35.2581 1.64948 35.2807 1.02668C35.2899 0.769151 35.1596 0.480807 34.98 0.301254C34.8025 0.123752 34.5101 -0.0106243 34.2546 0.000661945C33.6821 0.0263124 33.2491 0.451085 33.2286 1.02668C33.2071 1.65768 33.1835 2.29076 33.205 2.92279C33.1609 3.03975 33.1322 3.16291 33.1301 3.285C33.1168 4.12326 33.1506 4.96041 33.2296 5.79457C33.2317 5.81098 33.2378 5.82339 33.2399 5.83878C33.0501 5.9342 32.8664 6.0409 32.6941 6.16505C32.2252 6.50261 31.7943 6.8842 31.6414 7.46698C31.5213 7.92459 31.5388 8.44176 31.5101 8.9127L31.4382 10.0988C31.3131 10.1891 31.1909 10.2844 31.0791 10.4014C30.4501 11.0591 29.7925 12.0934 29.8089 13.0476C29.616 13.0445 29.4242 13.0404 29.2313 13.0383C28.5141 13.0291 27.5865 12.8537 26.9319 13.2077C26.2076 13.5996 26.1994 14.3382 26.2999 15.0554C26.3769 15.6002 26.4559 16.1441 26.5349 16.6879L24.2704 16.6581C22.9469 16.6406 22.951 18.6927 24.2704 18.7101C24.7578 18.7163 25.2442 18.7235 25.7305 18.7297C25.6361 19.493 25.5632 20.2594 25.5714 21.0299C25.5827 22.1596 25.7243 23.2862 25.594 24.4148C25.5817 24.5154 25.5961 24.6087 25.6207 24.699C25.1836 24.856 24.7485 25.0202 24.3084 25.1679C23.5789 25.4121 22.8443 25.645 22.1076 25.8656C21.4202 26.0708 20.5911 26.1919 20.0514 26.706C19.5333 27.1995 19.4769 27.9218 19.4286 28.598C18.8007 28.5928 18.1728 28.5938 17.5449 28.5887C16.2213 28.5774 16.2244 30.6294 17.5449 30.6407C18.1574 30.6459 18.7689 30.6459 19.3825 30.65C19.3845 30.7598 19.3845 30.8705 19.3886 30.9803C19.3404 31.1003 19.3107 31.2368 19.3158 31.3948C19.3363 32.1397 19.3476 32.8836 19.3671 33.6285C16.1823 33.5074 12.9986 33.3873 9.81385 33.2663L9.72248 31.8944C9.72248 31.7087 9.6753 31.5365 9.58296 31.3764C9.5296 31.3067 9.47627 31.2379 9.42189 31.1691C9.23721 30.968 8.9622 30.8807 8.69646 30.8684C8.44098 30.8571 8.1486 30.9906 7.9711 31.1691C7.7977 31.3436 7.65403 31.6431 7.67044 31.8944C7.69917 32.3254 7.72795 32.7563 7.75668 33.1872C7.4304 33.1749 7.10411 33.1627 6.77681 33.1504C6.1612 32.9349 5.36708 33.2385 5.41839 34.0686L5.41939 34.0994C5.41939 34.123 5.42143 34.1466 5.42246 34.1702C5.92726 42.482 5.64201 50.8061 5.34036 59.1199C5.32189 59.6227 5.60714 59.9304 5.97035 60.0505C6.13041 60.1921 6.3315 60.2968 6.60134 60.303C15.8099 60.5215 25.0215 60.5892 34.2331 60.5174C43.4447 60.5882 52.6553 60.5215 61.8648 60.303C62.1357 60.2968 62.3357 60.1921 62.4958 60.0505C62.859 59.9304 63.1432 59.6216 63.1258 59.1199C62.8252 50.8071 62.54 42.4831 63.0448 34.1713ZM19.7406 54.0278C15.6755 54.1386 11.6104 54.1818 7.54426 54.1571C7.59351 52.5309 7.65511 50.9046 7.68691 49.2784C7.69512 49.2784 7.70025 49.2814 7.70846 49.2814C11.6894 48.9459 15.6847 48.8444 19.678 48.9685C19.7057 50.6553 19.7201 52.341 19.7406 54.0278ZM19.64 46.9154C18.8017 46.8897 17.9635 46.8796 17.1252 46.8734C17.1129 46.0947 17.1109 45.3159 17.1458 44.5382C17.1714 43.9636 16.6553 43.5358 16.1198 43.5122C15.8643 43.5009 15.5729 43.6342 15.3943 43.8128C15.2004 44.0067 15.1061 44.2684 15.0937 44.5382C15.0599 45.32 15.0609 46.1017 15.0732 46.8836C14.1313 46.8949 13.1905 46.9298 12.2486 46.9647V44.9896C12.2486 44.7115 12.1326 44.4653 11.9479 44.2642C11.7632 44.0631 11.4883 43.9759 11.2226 43.9636C10.9671 43.9523 10.6746 44.0867 10.4971 44.2642C10.3114 44.4499 10.1965 44.7269 10.1965 44.9896V47.0663C9.36957 47.1145 8.54154 47.1576 7.71559 47.2264C7.75048 44.4335 7.75154 41.6417 7.67151 38.8499C11.6073 38.9432 15.5451 38.9719 19.483 38.9319C19.5415 41.5944 19.5918 44.2549 19.64 46.9154ZM19.4122 35.6815C19.4225 36.0817 19.4276 36.4819 19.4369 36.882C15.4898 36.922 11.5416 36.8932 7.59454 36.7988C7.573 36.2756 7.55453 35.7534 7.52785 35.2301L19.4122 35.6815ZM7.42421 58.2684C7.44883 57.5819 7.46117 56.8956 7.48477 56.2092C11.5796 56.2348 15.6734 56.1916 19.7662 56.0798C19.7744 56.8729 19.7898 57.6661 19.796 58.4592C15.6714 58.4223 11.5478 58.3627 7.42421 58.2684ZM40.6888 18.7573C40.7832 19.534 40.8571 20.3692 40.8427 21.1582C40.8253 22.0816 40.7401 23.002 40.7904 23.9234C40.3287 23.7407 39.866 23.5633 39.4084 23.3714C39.5561 22.4952 39.6977 21.6137 39.7326 20.7252C39.7582 20.0716 39.6884 19.4211 39.6597 18.7696C40.0024 18.7665 40.3451 18.7614 40.6888 18.7573ZM33.559 8.95679C33.5703 8.76082 33.5826 8.56485 33.5949 8.36888C33.6 8.27244 33.6062 8.17601 33.6123 8.07956C33.6123 8.07854 33.6123 8.07545 33.6123 8.07443C33.6133 8.06827 33.6154 8.05899 33.6175 8.04976C33.6554 8.01179 33.6975 7.96776 33.7098 7.95544C33.7191 7.94621 33.7149 7.95033 33.7211 7.94417C33.7262 7.94109 33.7221 7.94314 33.7293 7.93904C33.7888 7.898 33.8483 7.85591 33.9099 7.81692C34.0146 7.75023 34.1243 7.69475 34.2341 7.63832C34.3439 7.69475 34.4537 7.75023 34.5584 7.81692C34.6199 7.85591 34.6794 7.898 34.7389 7.93904C34.7451 7.94314 34.742 7.94109 34.7471 7.94417C34.7533 7.9493 34.7481 7.94621 34.7584 7.95544C34.7717 7.96776 34.8128 8.01179 34.8508 8.04976C34.8528 8.05899 34.8538 8.06725 34.8559 8.07443C34.8559 8.07545 34.8559 8.07854 34.8559 8.07956C34.862 8.17601 34.8682 8.27244 34.8733 8.36888C34.8856 8.56485 34.8969 8.76082 34.9092 8.95679L34.9411 9.47694C34.7964 9.46976 34.6528 9.47596 34.5081 9.47494V9.47293C34.4178 9.47088 34.3254 9.47496 34.2341 9.47393C34.1428 9.47496 34.0505 9.47088 33.9602 9.47293V9.47494C33.8155 9.47596 33.6719 9.46976 33.5272 9.47694L33.559 8.95679ZM31.8517 12.8865C31.8989 12.7531 32.0097 12.5858 32.1277 12.4042C32.3196 12.1077 32.5186 11.7814 32.772 11.6552C33.0419 11.5208 33.5395 11.5423 33.9602 11.5392V11.5455C34.0515 11.5455 34.1428 11.5444 34.2341 11.5424C34.3254 11.5444 34.4168 11.5455 34.5081 11.5455V11.5392C34.9288 11.5423 35.4263 11.5208 35.6962 11.6552C35.9496 11.7814 36.1487 12.1077 36.3406 12.4042C36.4586 12.5858 36.5693 12.7542 36.6165 12.8865C36.6196 12.8958 36.6186 12.8968 36.6206 12.9039C36.5693 12.9573 36.5334 13.0208 36.4975 13.0834C35.7423 13.0978 34.9883 13.1225 34.2331 13.143C33.478 13.1225 32.7238 13.0978 31.9686 13.0834C31.9338 13.0198 31.8979 12.9573 31.8455 12.9039C31.8496 12.8957 31.8486 12.8947 31.8517 12.8865ZM29.2302 15.0924C30.6923 15.1108 32.1544 15.1365 33.6154 15.1714C33.7293 15.1745 33.8442 15.1785 33.9591 15.1837V15.2022C34.0504 15.1991 34.1418 15.196 34.2331 15.1929C34.3244 15.196 34.4157 15.1991 34.507 15.2022V15.1837C34.6209 15.1796 34.7358 15.1745 34.8508 15.1714C36.3118 15.1375 37.7739 15.1108 39.236 15.0924C39.474 15.0893 39.7767 15.1231 40.0558 15.12C40.026 15.3817 40.0209 15.667 39.9932 15.8589C39.9522 16.1451 39.91 16.4303 39.869 16.7156C37.9893 16.7402 36.1107 16.7648 34.232 16.7895C32.3524 16.7648 30.4738 16.7402 28.5951 16.7156C28.5541 16.4303 28.512 16.1441 28.4709 15.8589C28.4432 15.667 28.4381 15.3817 28.4084 15.12C28.6895 15.1231 28.9922 15.0893 29.2302 15.0924ZM34.4752 21.2034C34.3972 21.1931 34.3193 21.1818 34.2413 21.1716C34.2393 21.1716 34.2372 21.1716 34.2352 21.1716C34.2331 21.1716 34.2321 21.1716 34.23 21.1716C34.1839 21.1767 34.1377 21.1828 34.0925 21.19C34.0597 21.1941 34.0268 21.1983 33.994 21.2034C33.9827 21.2013 33.9725 21.1993 33.9602 21.1973V21.2075C33.9581 21.2075 33.955 21.2085 33.953 21.2085C33.8606 21.2291 33.7714 21.2701 33.6903 21.3194C33.6893 21.3204 33.6883 21.3204 33.6873 21.3214C33.6606 21.3429 33.6329 21.3635 33.6052 21.384C33.4636 21.4271 33.321 21.4671 33.1825 21.5225C33.123 21.5389 33.0706 21.5666 33.0162 21.5923C32.9875 21.6036 32.9598 21.6005 32.9311 21.6148C32.2888 21.9308 31.6393 22.2355 30.9878 22.532C30.9806 22.4869 30.9724 22.4408 30.9652 22.3956C30.9478 22.291 30.9324 22.1863 30.917 22.0816C30.917 22.0806 30.9016 21.9708 30.8934 21.9164C30.837 21.4865 30.7969 21.0536 30.7846 20.6206C30.7672 20.0112 30.8288 19.4048 30.8585 18.7984C31.8928 18.8118 32.927 18.826 33.9602 18.8394V18.8466C34.0515 18.8456 34.1428 18.8446 34.2341 18.8425C34.3254 18.8435 34.4168 18.8446 34.5081 18.8466V18.8394C35.5423 18.826 36.5765 18.8118 37.6097 18.7984C37.6385 19.4058 37.701 20.0122 37.6836 20.6206C37.6713 21.0536 37.6303 21.4865 37.5749 21.9164C37.5667 21.9718 37.5513 22.0816 37.5513 22.0816C37.5359 22.1863 37.5195 22.291 37.503 22.3956C37.4959 22.4408 37.4876 22.4869 37.4804 22.532C36.8289 22.2355 36.1805 21.9319 35.5372 21.6148C35.5084 21.6005 35.4807 21.6036 35.452 21.5923C35.3976 21.5666 35.3453 21.5389 35.2858 21.5225C35.1391 21.463 34.9862 21.4189 34.8354 21.3747C34.8138 21.3593 34.8036 21.3337 34.781 21.3204C34.7471 21.2947 34.6168 21.2495 34.6497 21.2629C34.663 21.269 34.5604 21.2178 34.5173 21.2085C34.5163 21.2085 34.5162 21.2085 34.5152 21.2085C34.5132 21.2085 34.5121 21.2086 34.5101 21.2075V21.1973C34.4967 21.1993 34.4855 21.2013 34.4752 21.2034ZM27.7794 18.7573C28.1221 18.7614 28.4659 18.7666 28.8086 18.7707C28.7798 19.4223 28.71 20.0728 28.7357 20.7263C28.7705 21.6149 28.9122 22.4962 29.0599 23.3724C28.6023 23.5643 28.1395 23.7417 27.6778 23.9244C27.7271 23.003 27.643 22.0817 27.6255 21.1593C27.6112 20.3693 27.685 19.534 27.7794 18.7573ZM21.4992 28.3885C21.5063 28.3177 21.5135 28.247 21.5207 28.1762C21.7259 28.048 22.0799 28.0131 22.3046 27.9474C23.6261 27.5596 24.9353 27.1338 26.2322 26.67C28.787 25.7558 31.2884 24.6918 33.7262 23.5027C33.7273 23.5027 33.7273 23.5027 33.7283 23.5027C33.8914 23.437 34.0638 23.397 34.2341 23.3519C34.4044 23.397 34.5758 23.437 34.74 23.5027C34.741 23.5027 34.741 23.5027 34.742 23.5027C37.1798 24.6918 39.6813 25.7558 42.236 26.67C43.5329 27.1338 44.8421 27.5606 46.1637 27.9474C46.3883 28.0131 46.7423 28.048 46.9475 28.1762C46.9547 28.247 46.9619 28.3177 46.969 28.3885C46.9649 28.4593 46.9722 28.5343 46.9804 28.6082C45.1418 28.6195 43.302 28.6215 41.4624 28.6276C41.3978 28.4152 41.2644 28.2162 41.0089 28.0757C39.8865 27.4611 38.7435 26.8865 37.5779 26.3602C36.9675 26.0842 36.3508 25.8215 35.7301 25.5681C35.4848 25.4676 35.2314 25.3568 34.9739 25.2583C34.8815 25.1587 34.7718 25.0879 34.6445 25.0468C34.6025 25.0253 34.5532 25.0305 34.5101 25.0172H34.5091C34.4239 24.9905 34.3419 24.9556 34.2495 24.9587C34.1582 24.971 34.0679 24.9832 33.9766 24.9955C33.8145 25.0406 33.6749 25.1238 33.5528 25.2367C33.2748 25.3393 33.0029 25.4614 32.7402 25.5681C32.1205 25.8215 31.5029 26.0842 30.8924 26.3602C29.7258 26.8865 28.5838 27.4611 27.4613 28.0757C27.2048 28.2162 27.0715 28.4152 27.0079 28.6276C25.1682 28.6215 23.3296 28.6195 21.49 28.6082C21.4961 28.5333 21.5033 28.4593 21.4992 28.3885ZM34.2341 28.6338C34.1428 28.6338 34.0515 28.6338 33.9602 28.6328V28.6338C32.9249 28.6369 31.8896 28.6421 30.8544 28.641C31.1068 28.52 31.3561 28.3927 31.6106 28.2757C32.0938 28.0541 32.5792 27.8386 33.0706 27.6344C33.4082 27.4939 33.835 27.26 34.2352 27.1441C34.6353 27.26 35.0621 27.4939 35.3997 27.6344C35.8911 27.8386 36.3765 28.0541 36.8597 28.2757C37.1142 28.3927 37.3635 28.5189 37.6159 28.641C36.5806 28.6421 35.5443 28.6379 34.5101 28.6338V28.6328C34.4167 28.6328 34.3254 28.6327 34.2341 28.6338ZM21.453 35.1665C21.53 34.9828 21.533 34.7807 21.5043 34.5816C22.6863 34.5847 23.8682 34.5786 25.0502 34.5796C25.0923 36.9312 25.1333 39.2839 25.1754 41.6355C25.201 43.1058 25.2883 44.6069 25.2903 46.0988C24.0888 46.0936 22.8864 46.0628 21.6828 45.9899C21.6192 42.3814 21.5433 38.774 21.453 35.1665ZM21.848 58.4796C21.8429 57.7542 21.8275 57.0289 21.8203 56.3025C22.0922 56.3117 22.3631 56.3261 22.634 56.3374C22.6186 57.0177 22.6555 57.6938 22.8063 58.3658C22.8166 58.4089 22.8463 58.4396 22.8617 58.4796C22.5242 58.4786 22.1866 58.4817 21.848 58.4796ZM27.7917 58.4766C26.7678 58.4777 25.7438 58.4766 24.7198 58.4776C24.8019 58.2694 24.8358 58.0385 24.7865 57.819C24.7629 57.7112 24.7424 57.6034 24.7229 57.4957C24.7199 57.4649 24.7065 57.3747 24.7034 57.3388C24.6849 57.1325 24.6768 56.9263 24.6757 56.7201C24.6757 56.6216 24.686 56.5231 24.688 56.4236C25.7705 56.4749 26.8529 56.5272 27.9354 56.5754C27.8995 57.2105 27.8523 57.8436 27.7917 58.4766ZM33.1629 58.4745C32.0559 58.4817 30.9498 58.4725 29.8438 58.4766C29.9023 57.8703 29.9484 57.2638 29.9833 56.6564C31.0493 56.6882 32.1154 56.7067 33.1814 56.6924V57.1674C33.1824 57.5861 33.2337 58.0579 33.1629 58.4745ZM35.3043 58.4745C35.2345 58.059 35.2847 57.5861 35.2847 57.1664V56.6914C36.3508 56.7057 37.4178 56.6872 38.4828 56.6554C38.5188 57.2628 38.565 57.8693 38.6224 58.4756C37.5174 58.4726 36.4114 58.4817 35.3043 58.4745ZM43.7638 57.3398C43.7607 57.3767 43.7473 57.4659 43.7443 57.4967C43.7248 57.6055 43.7053 57.7133 43.6807 57.82C43.6315 58.0395 43.6653 58.2693 43.7474 58.4786C42.7234 58.4766 41.6994 58.4787 40.6755 58.4776C40.6149 57.8446 40.5677 57.2105 40.5318 56.5764C41.6143 56.5282 42.6968 56.4759 43.7792 56.4246C43.7813 56.5231 43.7925 56.6215 43.7915 56.7211C43.7905 56.9273 43.7823 57.1335 43.7638 57.3398ZM46.6202 58.4796C46.2817 58.4817 45.9441 58.4786 45.6055 58.4796C45.6209 58.4396 45.6507 58.4099 45.6609 58.3658C45.8117 57.6938 45.8486 57.0177 45.8332 56.3374C46.1051 56.3272 46.376 56.3127 46.6469 56.3025C46.6397 57.0289 46.6254 57.7542 46.6202 58.4796ZM46.6736 54.2494C46.3555 54.2607 46.0374 54.2771 45.7204 54.2904C45.703 53.8338 45.7071 53.3773 45.7625 52.9217C45.8271 52.3871 45.2454 51.8731 44.7365 51.8957C44.126 51.9234 43.7792 52.3482 43.7104 52.9217C43.652 53.407 43.653 53.8924 43.6735 54.3787C42.6023 54.43 41.5312 54.4843 40.46 54.5305C40.4446 53.5753 40.4497 52.6201 40.4897 51.6659C40.5123 51.1118 40.0013 50.6398 39.4637 50.6398C38.8881 50.6398 38.4603 51.1098 38.4377 51.6659C38.3967 52.6426 38.3926 53.6195 38.409 54.5962C37.7257 54.6157 37.0423 54.6434 36.358 54.6465C36.0009 54.6475 35.6439 54.6403 35.2868 54.6362C35.2868 53.6133 35.2879 52.5904 35.2879 51.5674C35.2879 50.922 34.7995 50.6039 34.2998 50.5916C34.2783 50.5896 34.2567 50.5906 34.2341 50.5896C34.2126 50.5906 34.191 50.5896 34.1685 50.5916C33.6678 50.6039 33.1794 50.9231 33.1804 51.5674C33.1804 52.5904 33.1814 53.6133 33.1814 54.6362C32.8244 54.6413 32.4673 54.6485 32.1102 54.6465C31.4259 54.6444 30.7426 54.6168 30.0593 54.5962C30.0767 53.6195 30.0716 52.6426 30.0305 51.6659C30.0079 51.1098 29.5801 50.6398 29.0045 50.6398C28.4669 50.6398 27.9559 51.1118 27.9785 51.6659C28.0185 52.6211 28.0226 53.5763 28.0082 54.5305C26.9371 54.4833 25.8659 54.43 24.7947 54.3787C24.8163 53.8924 24.8163 53.407 24.7578 52.9217C24.6891 52.3482 24.3423 51.9234 23.7318 51.8957C23.2229 51.8731 22.6411 52.3871 22.7058 52.9217C22.7602 53.3783 22.7642 53.8348 22.7478 54.2904C22.4297 54.2771 22.1127 54.2607 21.7947 54.2494C21.7701 52.18 21.7505 50.1115 21.7167 48.042C22.8822 48.1117 24.0468 48.1446 25.2123 48.1497C25.198 48.319 25.198 48.4914 25.1785 48.6597C25.1169 49.2096 25.6976 49.6908 26.2045 49.6857C26.8027 49.6796 27.1689 49.2148 27.2305 48.6597C27.25 48.4853 27.251 48.3077 27.2654 48.1323C28.4535 48.1128 29.6416 48.0789 30.8298 48.042C30.8236 48.1466 30.8236 48.2503 30.8164 48.355C30.798 48.6063 30.9437 48.9069 31.1171 49.0803C31.2946 49.2578 31.587 49.3923 31.8425 49.381C32.1082 49.3687 32.3832 49.2814 32.5679 49.0803C32.7598 48.872 32.848 48.6381 32.8685 48.355C32.8777 48.2298 32.8777 48.1035 32.8849 47.9783C33.3353 47.964 33.7847 47.9486 34.2352 47.9363C34.6723 47.9486 35.1083 47.963 35.5444 47.9773V48.6217C35.5444 49.1583 36.0163 49.6724 36.5704 49.6478C37.1265 49.6231 37.5964 49.1973 37.5964 48.6217V48.042C38.7989 48.0799 40.0014 48.1138 41.2039 48.1343C41.2183 48.3097 41.2193 48.4873 41.2388 48.6617C41.3003 49.2168 41.6666 49.6816 42.2648 49.6877C42.7716 49.6928 43.3524 49.2116 43.2908 48.6617C43.2713 48.4934 43.2713 48.3211 43.2569 48.1518C44.4225 48.1457 45.587 48.1139 46.7526 48.0441C46.7177 50.1115 46.6982 52.181 46.6736 54.2494ZM34.2341 45.8854C34.1428 45.8823 34.0515 45.8791 33.9602 45.8771V45.8935C33.6185 45.9038 33.2768 45.914 32.9352 45.9243C32.9352 42.1362 32.8315 38.3502 32.6387 34.5683C33.1701 34.5673 33.7016 34.5631 34.2331 34.5601C34.7646 34.5621 35.2961 34.5673 35.8276 34.5683C35.6347 38.3513 35.531 42.1373 35.531 45.9243C35.1894 45.913 34.8477 45.9038 34.506 45.8935V45.8771C34.4168 45.8791 34.3254 45.8823 34.2341 45.8854ZM30.8544 45.9869C29.6837 46.0249 28.513 46.0607 27.3424 46.0812C27.3393 44.5956 27.2531 43.1006 27.2274 41.6355C27.1854 39.2828 27.1433 36.9313 27.1023 34.5786C28.2637 34.5786 29.4262 34.5735 30.5876 34.5725C30.7764 38.2918 30.877 42.0151 30.8811 45.7396C30.8749 45.7868 30.8513 45.8309 30.8534 45.8791C30.8544 45.914 30.8534 45.951 30.8544 45.9869ZM37.5913 45.3898C37.6005 41.7823 37.697 38.1747 37.8796 34.5713C39.041 34.5724 40.2035 34.5776 41.365 34.5776C41.3229 36.9303 41.2808 39.2818 41.2398 41.6345C41.2141 43.0986 41.1279 44.5946 41.1249 46.0802C39.948 46.0607 38.7722 46.0238 37.5953 45.9858V45.4093C37.5953 45.4031 37.5913 45.3969 37.5913 45.3898ZM46.7844 45.9899C45.5819 46.0628 44.3794 46.0936 43.1769 46.0988C43.1789 44.608 43.2662 43.1058 43.2918 41.6355C43.3339 39.2839 43.3749 36.9312 43.417 34.5796C44.599 34.5786 45.7809 34.5837 46.9629 34.5816C46.9342 34.7817 46.9372 34.9828 47.0142 35.1665C46.9239 38.774 46.849 42.3814 46.7844 45.9899ZM47.0748 32.5286C42.8855 32.5378 38.6963 32.5347 34.5081 32.5224C34.4168 32.5224 34.3254 32.5224 34.2341 32.5224C34.1428 32.5224 34.0515 32.5224 33.9602 32.5224C29.771 32.5347 25.5817 32.5378 21.3935 32.5286C21.3873 32.2115 21.3791 31.8945 21.3719 31.5774C21.4242 31.4523 21.452 31.3066 21.4437 31.1393C21.4366 30.9793 21.4376 30.8192 21.4335 30.6591C25.6094 30.6848 29.7843 30.6889 33.9602 30.6848V30.6858C34.0515 30.6858 34.1428 30.6848 34.2341 30.6858C34.3254 30.6858 34.4168 30.6868 34.5081 30.6858V30.6848C38.684 30.6899 42.8599 30.6848 47.0347 30.6591C47.0306 30.8192 47.0317 30.9793 47.0245 31.1393C47.0163 31.3076 47.045 31.4523 47.0963 31.5774C47.0891 31.8955 47.0809 32.2125 47.0748 32.5286ZM49.055 35.6815L60.9394 35.2311C60.9117 35.7534 60.8942 36.2766 60.8727 36.7998C56.9256 36.8942 52.9785 36.923 49.0304 36.883C49.0396 36.4818 49.0447 36.0817 49.055 35.6815ZM48.9862 38.934C52.923 38.9751 56.8609 38.9453 60.7978 38.8519C60.7177 41.6437 60.7187 44.4355 60.7536 47.2284C59.9266 47.1586 59.0997 47.1155 58.2727 47.0683V44.9916C58.2727 44.7289 58.1578 44.452 57.9721 44.2663C57.7946 44.0888 57.5022 43.9543 57.2467 43.9656C56.981 43.9779 56.706 44.0652 56.5213 44.2663C56.3366 44.4674 56.2207 44.7135 56.2207 44.9916V46.9667C55.2798 46.9308 54.338 46.897 53.3961 46.8857C53.4084 46.1039 53.4094 45.321 53.3755 44.5402C53.3632 44.2704 53.2689 44.0087 53.0749 43.8148C52.8964 43.6373 52.605 43.5029 52.3495 43.5142C51.8139 43.5378 51.2978 43.9656 51.3235 44.5402C51.3574 45.3179 51.3563 46.0967 51.344 46.8754C50.5058 46.8816 49.6675 46.8919 48.8293 46.9175C48.8754 44.255 48.9267 41.5945 48.9862 38.934ZM48.7893 48.9685C52.7825 48.8444 56.7778 48.9449 60.7588 49.2814C60.767 49.2824 60.7721 49.2784 60.7803 49.2784C60.8121 50.9046 60.8727 52.5309 60.923 54.1571C56.8568 54.1818 52.7917 54.1386 48.7266 54.0278C48.7472 52.341 48.7616 50.6553 48.7893 48.9685ZM48.6723 58.4592C48.6784 57.6661 48.6938 56.8729 48.702 56.0798C52.7948 56.1916 56.8886 56.2348 60.9834 56.2092C61.006 56.8956 61.0194 57.5819 61.044 58.2684C56.9204 58.3627 52.7969 58.4223 48.6723 58.4592Z" fill="black"/>
<path d="M0.988059 61.2139C12.1481 61.8818 23.3307 62.085 34.5082 61.8593V63.9113C23.3307 64.1371 12.1491 63.9349 0.988059 63.2659C-0.325246 63.1869 -0.333454 61.1349 0.988059 61.2139Z" fill="black"/>
<path d="M14.6321 51.877C14.628 51.9724 14.666 52.1612 14.6701 52.1827C14.6721 52.194 14.6742 52.2043 14.6773 52.2156C14.6927 52.2627 14.7204 52.3202 14.7358 52.3551C14.7511 52.39 14.7727 52.4485 14.7942 52.4926C14.7994 52.5029 14.8055 52.5132 14.8127 52.5224C14.8701 52.6024 14.9266 52.6855 14.9963 52.7574C15.0045 52.7656 15.0138 52.7737 15.022 52.7809C15.0856 52.8322 15.1708 52.8989 15.2364 52.9461C15.2385 52.9482 15.2405 52.9492 15.2426 52.9513C15.2477 52.9543 15.2529 52.9584 15.259 52.9615C15.2631 52.9646 15.2682 52.9666 15.2734 52.9687C15.2765 52.9697 15.2795 52.9718 15.2836 52.9728C15.3462 53.0005 15.4673 53.0518 15.5309 53.0775C15.5442 53.0826 15.5565 53.0867 15.5709 53.0898C15.5771 53.0908 15.5833 53.0929 15.5904 53.0939C15.6818 53.1083 15.7823 53.1226 15.8736 53.1319C15.888 53.1329 15.9013 53.1339 15.9156 53.1339C15.9218 53.1339 15.928 53.1329 15.9352 53.1329C16.006 53.1257 16.1393 53.1062 16.2112 53.0959C16.2142 53.0959 16.2163 53.0949 16.2194 53.0949C16.2327 53.0929 16.246 53.0898 16.2594 53.0846C16.3056 53.0682 16.3579 53.0436 16.3968 53.0271C16.4297 53.0128 16.4912 52.9912 16.5333 52.9687C16.5395 52.9656 16.5446 52.9625 16.5498 52.9594C16.5528 52.9573 16.5559 52.9553 16.559 52.9533C16.6072 52.9184 16.7221 52.8291 16.7693 52.7912C16.7786 52.783 16.7878 52.7747 16.796 52.7655C16.797 52.7645 16.798 52.7634 16.7991 52.7614C16.8524 52.6916 16.9058 52.623 16.9591 52.5542C16.9602 52.5522 16.9622 52.5501 16.9632 52.5491C16.9663 52.545 16.9694 52.5398 16.9725 52.5357C16.9745 52.5306 16.9776 52.5264 16.9796 52.5213C16.9981 52.4843 17.0689 52.313 17.0843 52.274C17.0853 52.271 17.0864 52.268 17.0874 52.2659C17.0905 52.2556 17.0935 52.2454 17.0956 52.2341C17.1141 52.1376 17.1335 52.0339 17.1345 51.9334C17.1345 51.9272 17.1345 51.9211 17.1345 51.915C17.1345 51.9129 17.1345 51.9099 17.1345 51.9078C17.1304 51.8627 17.1048 51.6779 17.0977 51.6328C17.0956 51.6225 17.0935 51.6112 17.0905 51.601C17.0115 51.3619 16.9612 51.2902 16.8011 51.1004C16.795 51.0921 16.7868 51.085 16.7796 51.0788C16.7991 51.0952 16.6267 50.9423 16.5487 50.9043C16.3886 50.812 16.2163 50.7648 16.0306 50.7638C16.0265 50.7648 16.0223 50.7648 16.0172 50.7658C15.9464 50.7525 15.8551 50.7361 15.7803 50.7391C15.7751 50.7391 15.77 50.7401 15.7648 50.7401C15.7218 50.7443 15.5299 50.7699 15.4878 50.7771C15.4857 50.7771 15.4826 50.7781 15.4806 50.7781C15.4324 50.7884 15.3596 50.8263 15.3339 50.8366C15.3011 50.8499 15.2323 50.8725 15.1903 50.9002C15.1544 50.9238 15.0661 50.9957 15.0825 50.9834C15.1112 50.9608 15.0056 51.0387 14.9748 51.0674C14.9717 51.0705 14.9697 51.0726 14.9666 51.0757C14.9645 51.0777 14.9635 51.0798 14.9615 51.0818C14.9512 51.0941 14.8096 51.2767 14.7993 51.2911C14.7973 51.2952 14.7942 51.2983 14.7922 51.3024C14.6793 51.4942 14.6424 51.6564 14.6321 51.877Z" fill="black"/>
<path d="M9.79661 52.0159C9.7925 52.1113 9.83045 52.3 9.83455 52.3216C9.83661 52.3329 9.83868 52.3431 9.84176 52.3544C9.85715 52.4006 9.88486 52.459 9.90025 52.4939C9.91564 52.5298 9.93719 52.5873 9.95874 52.6314C9.96387 52.6417 9.97003 52.652 9.97721 52.6612C10.0347 52.7413 10.0911 52.8244 10.1608 52.8962C10.169 52.9044 10.1783 52.9126 10.1865 52.9198C10.2501 52.9711 10.3353 53.0378 10.4009 53.085C10.403 53.087 10.4051 53.088 10.4071 53.0901C10.4122 53.0932 10.4174 53.0973 10.4235 53.1004C10.4276 53.1034 10.4327 53.1054 10.4379 53.1075C10.4409 53.1096 10.444 53.1106 10.4481 53.1116C10.5107 53.1393 10.6318 53.1906 10.6954 53.2162C10.7087 53.2213 10.721 53.2255 10.7354 53.2286C10.7415 53.2296 10.7477 53.2317 10.7549 53.2327C10.8462 53.2471 10.9468 53.2615 11.0381 53.2707C11.0525 53.2717 11.0658 53.2727 11.0801 53.2727C11.0863 53.2727 11.0925 53.2717 11.0997 53.2717C11.1705 53.2645 11.3038 53.245 11.3757 53.2347C11.3787 53.2347 11.3808 53.2337 11.3839 53.2337C11.3972 53.2317 11.4105 53.2286 11.4239 53.2235C11.47 53.2071 11.5224 53.1824 11.5614 53.166C11.5942 53.1516 11.6558 53.1301 11.6978 53.1075C11.704 53.1044 11.7091 53.1013 11.7143 53.0982C11.7173 53.0962 11.7204 53.0941 11.7235 53.0921C11.7717 53.0572 11.8866 52.968 11.9338 52.93C11.943 52.9218 11.9523 52.9136 11.9605 52.9043C11.9615 52.9033 11.9625 52.9024 11.9636 52.9013C12.0169 52.8316 12.0703 52.7628 12.1236 52.6941C12.1246 52.692 12.1267 52.69 12.1278 52.6889C12.1308 52.6848 12.1339 52.6796 12.137 52.6755C12.139 52.6704 12.1421 52.6664 12.1442 52.6612C12.1626 52.6243 12.2334 52.4529 12.2488 52.4139C12.2498 52.4108 12.2508 52.4078 12.2519 52.4057C12.255 52.3955 12.258 52.3852 12.2601 52.3739C12.2785 52.2775 12.2981 52.1739 12.2991 52.0733C12.2991 52.0672 12.2991 52.061 12.2991 52.0548C12.2991 52.0528 12.2991 52.0497 12.2991 52.0477C12.295 52.0025 12.2693 51.8178 12.2621 51.7726C12.2601 51.7624 12.258 51.7511 12.2549 51.7408C12.1759 51.5017 12.1257 51.43 11.9656 51.2412C11.9595 51.233 11.9513 51.2258 11.9441 51.2197C11.9636 51.2361 11.7912 51.0832 11.7132 51.0452C11.5531 50.9528 11.3808 50.9057 11.195 50.9057C11.1909 50.9057 11.1868 50.9066 11.1817 50.9077C11.1109 50.8943 11.0196 50.8779 10.9447 50.881C10.9396 50.881 10.9345 50.8821 10.9293 50.8821C10.8862 50.8862 10.6944 50.9119 10.6523 50.9191C10.6502 50.9191 10.6472 50.9201 10.6452 50.9201C10.5969 50.9303 10.5241 50.9683 10.4984 50.9786C10.4656 50.9919 10.3968 51.0145 10.3548 51.0422C10.3189 51.0658 10.2306 51.1375 10.2471 51.1252C10.2758 51.1026 10.1701 51.1807 10.1393 51.2094C10.1362 51.2114 10.1342 51.2145 10.1311 51.2175C10.129 51.2196 10.128 51.2216 10.1259 51.2227C10.1157 51.235 9.97413 51.4177 9.96387 51.4321C9.96182 51.4362 9.95872 51.4392 9.95667 51.4433C9.84381 51.6332 9.80789 51.7942 9.79661 52.0159Z" fill="black"/>
<path d="M15.0087 41.6928C15.02 41.5718 15.0252 41.4497 15.0087 41.3286C15.0036 41.187 15.0323 41.0557 15.097 40.9336C15.138 40.8064 15.2088 40.6965 15.3093 40.6032C15.4017 40.5026 15.5125 40.4318 15.6397 40.3908C15.7618 40.3261 15.8942 40.2975 16.0348 40.3026C16.1261 40.3149 16.2164 40.3272 16.3077 40.3395C16.4811 40.3878 16.6319 40.476 16.7601 40.6032C16.8135 40.6719 16.8669 40.7417 16.9213 40.8105C17.0136 40.9705 17.0608 41.1429 17.0608 41.3286C17.0741 41.4312 17.0792 41.5348 17.0731 41.6385C17.0659 41.776 17.0434 41.9124 17.0228 42.0489C17.0146 42.1023 17.0043 42.1545 16.992 42.2068C16.9602 42.3402 16.8997 42.4573 16.8084 42.5558C16.7355 42.6676 16.6401 42.7558 16.52 42.8204C16.402 42.8953 16.2749 42.9364 16.1384 42.9425C16.002 42.9733 15.8654 42.9671 15.729 42.924C15.6469 42.8891 15.5659 42.8553 15.4838 42.8204C15.3299 42.7291 15.2068 42.607 15.1155 42.4521C15.0806 42.37 15.0467 42.2889 15.0118 42.2068C14.9677 42.0345 14.9687 41.8631 15.0087 41.6928Z" fill="black"/>
<path d="M10.334 41.535C10.3751 41.4078 10.4459 41.298 10.5464 41.2046C10.6398 41.1041 10.7496 41.0343 10.8768 40.9922C10.9989 40.9276 11.1312 40.8988 11.2718 40.9039L11.5447 40.9408C11.7181 40.9901 11.869 41.0774 11.9972 41.2046C12.0506 41.2744 12.104 41.343 12.1573 41.4118C12.2496 41.5718 12.2968 41.7442 12.2968 41.9299V42.0808C12.302 42.2224 12.2732 42.3538 12.2086 42.4759C12.1665 42.6031 12.0967 42.7128 11.9962 42.8061C11.9028 42.9057 11.7931 42.9765 11.6658 43.0186C11.5437 43.0832 11.4114 43.112 11.2708 43.1069C11.1805 43.0946 11.0892 43.0822 10.9979 43.0699C10.8245 43.0217 10.6736 42.9334 10.5454 42.8061C10.492 42.7364 10.4387 42.6677 10.3854 42.599C10.293 42.4389 10.2458 42.2666 10.2448 42.0808V41.9299C10.2407 41.7883 10.2704 41.6571 10.334 41.535Z" fill="black"/>
<path d="M28.9421 36.688C29.5167 36.7137 29.9456 37.1385 29.9681 37.7141C30.0235 39.0858 30.0779 40.4586 30.1333 41.8304C30.1548 42.367 29.6459 42.8811 29.1073 42.8564C28.5327 42.8308 28.1038 42.406 28.0812 41.8304C28.0258 40.4586 27.9715 39.0858 27.9161 37.7141C27.8946 37.1775 28.4035 36.6644 28.9421 36.688Z" fill="black"/>
<path d="M34.3256 37.0389C34.853 37.0933 35.2254 37.5396 35.2151 38.1152C35.1915 39.4881 35.1669 40.8608 35.1433 42.2336C35.1341 42.7712 34.6365 43.2576 34.142 43.2063C33.6146 43.1519 33.2421 42.7056 33.2524 42.13C33.276 40.7572 33.3006 39.3844 33.3242 38.0115C33.3335 37.4749 33.83 36.9876 34.3256 37.0389Z" fill="black"/>
<path d="M22.3192 37.874C22.2915 37.3384 22.7275 36.7978 23.2846 36.7906C23.8387 36.7834 24.3384 37.1815 24.3682 37.756C24.4482 39.293 24.4923 40.8321 24.5015 42.3721C24.5046 42.9077 24.1106 43.4484 23.536 43.4556C23.0035 43.4628 22.4556 43.0657 22.4526 42.4901C22.4433 40.95 22.3992 39.411 22.3192 37.874Z" fill="black"/>
</svg>
