<svg width="64" height="40" viewBox="0 0 64 40" fill="none" xmlns="http://www.w3.org/2000/svg">
<path d="M37.5547 0.0492081C33.1116 1.00355 28.6156 1.47364 24.0718 1.4889C23.9039 1.48992 23.7472 1.50816 23.6007 1.5397C22.276 1.10323 20.4334 2.16439 20.8546 3.97236C21.8934 8.42563 22.9088 12.8851 23.8978 17.3495C24.3831 19.5411 24.8623 21.7346 25.3364 23.9291C25.8024 26.0871 26.0537 28.4354 26.7496 30.5282C27.4994 32.7818 29.6971 32.564 31.6577 32.6251C32.5489 32.6525 33.5104 32.7919 34.3701 32.5081C35.6714 32.0777 36.0041 30.8853 36.1313 29.6654C36.584 25.3149 37.3634 21.0396 38.1743 16.7441C39.093 11.8737 39.9466 6.97475 40.1308 2.01277C40.1817 0.621949 38.7939 -0.217357 37.5547 0.0492081Z" fill="#F7C300"/>
<path d="M53.9353 19.9695C53.6473 18.718 52.4854 17.7056 51.057 17.846C49.6743 17.9824 48.7261 19.0477 47.9772 20.0335C47.144 21.1303 46.327 22.2373 45.5283 23.3564C45.2383 23.6383 44.9544 23.9262 44.6767 24.2202C42.7415 26.2795 40.9814 28.4802 39.4075 30.7898C39.2793 30.977 39.2426 31.1571 39.2457 31.3281C38.9405 31.9273 39.2406 32.8185 40.1776 32.8307C41.89 32.8531 43.6023 32.8755 45.3146 32.8989C46.1011 32.9091 46.8886 32.9193 47.6751 32.9304C48.4483 32.9406 49.2979 33.0352 49.95 32.5713C50.5116 32.1714 50.7202 31.4857 50.9817 30.9017C51.3185 30.1488 51.6349 29.3877 51.9289 28.6196C52.457 27.2369 52.9148 25.8298 53.2974 24.4064C53.6677 23.0288 54.2619 21.3918 53.9353 19.9695Z" fill="#F7C300"/>
<path d="M21.0216 32.9191C21.0043 32.0319 20.9575 31.1457 20.8822 30.2616C20.8425 29.7986 20.8364 29.293 20.7265 28.8402C20.6034 28.3295 20.2616 28.0009 19.8169 27.8473C19.6755 27.4505 19.3265 27.1697 18.8728 27.1544C18.4251 27.1391 17.9764 27.1351 17.5288 27.1473C17.074 27.1595 16.5612 27.1382 16.1206 27.2582C15.6038 27.3996 15.2029 27.8086 15.0564 28.3214C14.9313 28.7578 14.9679 29.234 14.9679 29.6827V32.3799C14.9679 32.8214 14.9038 33.32 15.0066 33.7534C15.0829 34.0769 15.2803 34.3577 15.5733 34.5225C15.8734 34.6914 16.2254 34.6905 16.5581 34.7271C17.4423 34.8237 18.3264 34.9204 19.2105 35.0181C19.7518 35.0771 20.2778 35.1209 20.6889 34.6783C21.1274 34.2052 21.0328 33.5123 21.0216 32.9191Z" fill="#F7C300"/>
<path d="M63.4878 0.377795C63.2935 0.263843 63.0971 0.244474 62.9069 0.262788C62.7614 0.228196 62.6047 0.21901 62.4297 0.258689C53.9139 2.20197 45.6422 5.05189 37.7175 8.71666C37.9037 7.39807 38.0787 6.07742 38.2771 4.75985C38.8367 4.15245 38.6322 2.95495 37.6188 3.06381C37.5466 3.07195 37.4733 3.07805 37.4021 3.08517C37.3339 3.08212 37.2657 3.09333 37.1945 3.10554C30.9048 3.7801 24.6039 4.34676 18.2948 4.79748C17.7698 4.83513 17.4666 5.19228 17.3639 5.5962C17.3059 5.71829 17.2632 5.84852 17.252 5.98282C17.2092 6.12526 17.1919 6.27987 17.2164 6.4508C17.489 8.34016 17.8838 10.196 18.3416 12.0355C16.6252 12.6561 15.0564 13.6073 13.7337 14.8679C13.0765 15.4957 12.4894 16.2018 11.9766 16.9517C11.4893 17.6649 10.9592 18.5104 10.9002 19.3996C8.98843 19.304 7.07671 19.2083 5.167 19.0781C4.7814 19.0516 4.52499 19.2195 4.36627 19.4586C3.94506 19.774 3.89622 20.3041 4.09462 20.768C5.13036 23.1793 6.16612 25.5906 7.20185 28.0019C8.03818 29.9493 8.79107 32.0014 9.78407 33.8928C8.57436 33.8908 7.36464 33.8887 6.15391 33.8866C4.84448 33.8846 4.84245 35.9194 6.15391 35.9215C19.3509 35.9449 32.5469 35.9684 45.7439 35.9918C46.0624 36.1515 46.4378 36.1688 46.7278 35.9938C50.5218 36.0009 54.3157 36.007 58.1097 36.0141C59.4192 36.0162 59.4212 33.9813 58.1097 33.9793C54.5589 33.9732 51.0091 33.967 47.4583 33.9599C48.0932 31.0368 48.7982 28.1301 49.6183 25.2528C49.8431 24.4623 50.0782 23.6738 50.3142 22.8863C50.5309 22.163 50.6958 21.4059 50.3661 20.6897C49.8421 19.5522 48.8257 19.3436 47.7656 19.2378C48.2407 18.7647 48.7067 18.2824 49.1951 17.8236C50.8412 16.2771 52.7337 14.9148 53.8915 12.9349C54.5538 11.8025 52.7957 10.7769 52.1344 11.9083C51.6409 12.7527 50.9796 13.4832 50.2613 14.1689C49.2134 11.7688 48.1146 9.39216 46.9649 7.03987C51.4314 5.36417 55.9914 3.94183 60.6268 2.78909C59.9706 3.70681 59.3073 4.61937 58.6032 5.49436C57.5023 6.86279 55.9111 7.75415 54.9608 9.24773C54.2557 10.3557 56.0169 11.3782 56.7179 10.2743C57.1422 9.60793 57.778 9.10731 58.3763 8.60165C59.062 8.02172 59.6766 7.40412 60.229 6.69497C61.4805 5.08846 62.6495 3.41272 63.8521 1.76856C64.1766 1.32598 63.9274 0.635203 63.4878 0.377795ZM32.0128 5.6542C30.507 6.41523 29.0012 7.17517 27.4954 7.9362C26.7812 8.29637 26.0466 8.86317 25.2286 8.59457C24.4757 8.34734 23.7431 7.89655 23.0401 7.5374C22.4459 7.23421 21.8599 6.91476 21.2759 6.59325C24.8582 6.31753 28.4375 6.00317 32.0128 5.6542ZM12.99 19.2856C13.0256 19.1635 13.0846 19.0537 13.1762 18.8858C13.3634 18.544 13.5719 18.2143 13.7937 17.8948C13.8538 17.8084 13.9158 17.7238 13.9779 17.6384C14.0003 17.6068 14.0156 17.5855 14.0257 17.5702C14.0379 17.556 14.0512 17.5387 14.0735 17.5102C14.1834 17.3729 14.2953 17.2386 14.4103 17.1063C14.6748 16.8021 14.9556 16.5122 15.2497 16.2364C16.2498 15.2994 17.5948 14.4753 18.8575 14.0103C19.3835 15.9333 19.9593 17.845 20.5342 19.7608C17.9998 19.7069 15.4654 19.6244 12.933 19.5135C12.9422 19.4504 12.9595 19.3894 12.99 19.2856ZM16.3821 33.906C16.4797 32.9262 16.5611 31.9444 16.6059 30.9605C16.6303 30.4152 16.6476 29.8689 16.6547 29.3225C16.6588 29.0722 16.6609 28.8219 16.6609 28.5716C16.6609 28.5421 16.6609 28.5127 16.6609 28.4832C16.8704 28.471 17.08 28.4578 17.2896 28.4455L18.7262 28.359C18.9541 28.3447 19.182 28.3315 19.4099 28.3172C19.4313 28.3162 19.4537 28.3153 19.475 28.3143C19.4883 28.5249 19.4964 28.7355 19.4964 28.9461C19.4984 30.6095 19.2146 32.2761 19.5687 33.9121C18.5065 33.9101 17.4443 33.908 16.3821 33.906ZM21.6554 33.9162C21.6513 33.8999 21.6564 33.8847 21.6523 33.8684C21.3044 32.7248 21.4061 31.5201 21.4794 30.2941C21.518 29.6541 21.5516 29.0123 21.515 28.3713C21.4763 27.6794 21.4234 26.8654 20.759 26.4676C20.1384 26.0962 19.2736 26.2906 18.5878 26.3323C17.9041 26.374 17.2204 26.4147 16.5357 26.4564C16.1949 26.4767 15.8276 26.4686 15.502 26.5765C15.0218 26.7362 14.7216 27.1514 14.6514 27.6407C14.5558 28.298 14.628 29 14.6138 29.6644C14.5832 31.0807 14.4907 32.4939 14.3503 33.903C13.6025 33.902 12.8537 33.8999 12.1048 33.8989C10.8025 31.7461 9.94992 29.2829 8.95996 26.9774C8.13076 25.0484 7.30258 23.1182 6.47337 21.1892C11.3051 21.4995 16.142 21.7153 20.9829 21.8109C21.0429 21.8119 21.0856 21.7895 21.1395 21.7824C22.3513 25.8287 23.563 29.875 24.7748 33.9213C23.736 33.9192 22.6952 33.9172 21.6554 33.9162ZM26.8849 33.9254C26.8788 33.8989 26.886 33.8776 26.8778 33.8511C25.4799 29.1821 24.0809 24.5131 22.683 19.8441C21.5017 15.8986 20.2798 11.9825 19.5208 7.94129C20.5474 8.52224 21.5831 9.08701 22.6402 9.612C23.386 9.98234 24.0799 10.3414 24.786 10.5337C25.3425 18.4014 26.4597 26.2193 28.1252 33.9284L26.8849 33.9254ZM30.1977 33.9315C28.5016 26.2082 27.3743 18.3801 26.8178 10.4931C26.9531 10.4483 27.0874 10.4096 27.2278 10.3445C30.2201 8.96896 33.1431 7.41019 36.0764 5.89626C34.711 15.2067 33.6427 24.5569 32.8888 33.9366C31.9924 33.9345 31.0951 33.9325 30.1977 33.9315ZM37.0063 14.0113C38.389 17.0534 39.7422 20.1097 41.0353 23.1905C41.0699 23.2739 41.1208 23.3441 41.1686 23.4184C39.1032 25.8602 37.1314 28.3793 35.1871 30.9188C35.6816 25.2711 36.289 19.6346 37.0063 14.0113ZM48.3953 22.2076C47.9975 23.6035 47.5702 24.9893 47.1907 26.3903C46.5121 28.8942 45.9149 31.4195 45.3736 33.9569C42.0568 33.9508 38.739 33.9446 35.4222 33.9395C38.2811 30.1842 41.1523 26.4341 44.288 22.9026C44.8405 22.281 45.4113 21.6756 45.981 21.0692C45.9861 21.0702 45.9912 21.0733 45.9963 21.0743C46.6545 21.1689 47.3972 21.0845 48.0352 21.2595C48.6385 21.4274 48.551 21.6612 48.3953 22.2076ZM48.5703 15.3441C48.6059 15.4245 48.6721 15.4794 48.7301 15.5404C48.2539 15.9505 47.7829 16.3595 47.3413 16.7807C45.688 18.3618 44.1212 20.0314 42.6082 21.7478C41.0699 18.1075 39.4786 14.4915 37.8192 10.904C40.2092 9.77773 42.6327 8.72977 45.0877 7.7622C45.104 7.81002 45.1081 7.85996 45.1304 7.90677C46.3341 10.3598 47.4807 12.8392 48.5703 15.3441Z" fill="black"/>
<path d="M25.0678 37.8458C17.0404 37.5884 9.00676 37.6179 0.981308 37.9313C-0.324049 37.9822 -0.330153 40.017 0.981308 39.9661C9.00778 39.6518 17.0404 39.6233 25.0678 39.8807C26.3783 39.9224 26.3763 37.8876 25.0678 37.8458Z" fill="black"/>
<path d="M63.0167 37.7642L30.1722 37.8405C28.8628 37.8436 28.8607 39.8784 30.1722 39.8754L63.0167 39.799C64.3261 39.796 64.3292 37.7611 63.0167 37.7642Z" fill="black"/>
</svg>
