<svg width="637" height="476" viewBox="0 0 637 476" fill="none" xmlns="http://www.w3.org/2000/svg">
<path d="M337.71 327.716C344.455 329.701 351.502 332.345 358.704 335.562L358.849 335.646C359.861 336.234 360.318 337.466 359.858 338.455C359.429 339.559 358.101 340.044 357.007 339.602C349.949 336.468 343.047 333.909 336.528 331.861C335.353 331.565 334.638 330.28 335.035 329.061C335.238 328.019 336.503 327.304 337.71 327.716Z" fill="black"/>
<path d="M271.512 328.981C272.16 328.681 272.902 328.726 273.48 329.062C273.914 329.313 274.234 329.596 274.504 330.139C275.043 331.226 274.563 332.59 273.494 333.128C270.901 334.328 268.34 335.643 265.747 336.843C261.776 338.788 257.61 340.911 253.659 342.481L252.643 340.538L252.048 338.356C255.886 336.817 259.744 334.902 263.828 332.925C266.213 331.412 268.919 330.181 271.512 328.981Z" fill="black"/>
<path d="M293.242 322.565C300.463 321.831 308.016 321.87 315.706 322.858C315.963 322.911 316.221 322.964 316.51 323.132C317.233 323.551 317.71 324.408 317.62 325.419C317.48 326.691 316.36 327.49 315.216 327.308C307.783 326.373 300.57 326.242 293.721 326.999C292.526 327.078 291.451 326.261 291.22 324.967C291.134 323.757 292.047 322.644 293.242 322.565Z" fill="black"/>
<path d="M378.684 345.042C383.844 347.46 390.5 350.456 397.585 352.349C397.987 352.486 398.503 352.593 398.905 352.73C399.049 352.814 399.307 352.867 399.452 352.951C400.319 353.454 400.827 354.426 400.511 355.499C400.227 356.687 399.075 357.371 397.786 357.105C397.27 356.999 396.868 356.862 396.353 356.756C388.979 354.695 381.952 351.676 376.647 349.174C375.522 348.618 375.033 347.271 375.607 346.251C376.376 345.054 377.59 344.6 378.684 345.042Z" fill="black"/>
<path d="M457.527 307.15C457.811 305.962 459.076 305.247 460.283 305.659C460.428 305.743 460.572 305.827 460.686 305.796C461.553 306.299 462.092 307.386 461.745 308.344C459.881 314.896 457.588 322.552 454.397 329.589C453.854 330.724 452.64 331.178 451.515 330.621C450.39 330.064 449.933 328.832 450.475 327.697C453.421 321.097 455.632 313.587 457.527 307.15Z" fill="black"/>
<path d="M164.492 293.39C158.737 288.79 152.245 285.503 145.738 283.945C144.563 283.649 143.879 282.479 144.05 281.322C144.335 280.134 145.487 279.45 146.631 279.632C150.818 280.711 155.017 282.28 159.032 284.516C161.892 286.081 164.587 287.936 167.087 289.969C168.017 290.702 168.166 292.142 167.448 293.077C166.874 294.097 165.566 294.207 164.492 293.39Z" fill="black"/>
<path d="M420.052 353.997C424.851 353.305 429.174 351.757 432.938 349.498C434.933 348.338 436.865 346.948 438.591 345.244C439.258 344.569 440.34 344.52 441.176 344.909C441.32 344.993 441.609 345.161 441.785 345.36C442.633 346.239 442.555 347.74 441.662 348.477C439.71 350.243 437.5 351.955 435.278 353.177C430.98 355.706 426.204 357.377 420.839 358.223C419.675 358.416 418.488 357.63 418.257 356.336C418.12 355.387 418.888 354.19 420.052 353.997Z" fill="black"/>
<path d="M186.948 332.045C185.753 332.124 184.648 331.191 184.561 329.981C184.424 329.032 184.431 328.167 184.294 327.217C183.491 321.145 181.411 315.298 178.312 309.729C177.659 308.673 178.139 307.309 179.177 306.656C179.907 306.21 180.65 306.255 181.372 306.674C181.661 306.842 181.982 307.125 182.22 307.553C185.589 313.666 187.826 320.087 188.641 326.649C188.778 327.599 188.946 328.663 188.97 329.643C189.056 330.853 188.143 331.966 186.948 332.045Z" fill="black"/>
<path d="M211.148 355.67C217.981 353.068 224.607 350.152 231.315 347.09C231.963 346.79 232.705 346.835 233.283 347.17C233.717 347.422 234.037 347.705 234.307 348.248C234.846 349.335 234.366 350.699 233.152 351.153C226.331 354.246 219.705 357.162 212.758 359.795C211.657 360.218 210.275 359.608 209.848 358.491C209.422 357.374 210.047 356.093 211.148 355.67Z" fill="black"/>
<path d="M15.0786 399.977C21.6407 402.629 28.5931 404.928 35.7913 406.79C35.9358 406.874 36.1936 406.927 36.3381 407.011C37.2053 407.515 37.7134 408.487 37.3975 409.559C37.1129 410.747 35.848 411.462 34.6723 411.166C27.3296 409.22 20.1507 406.982 13.3309 404.277C12.2372 403.835 11.6352 402.519 12.0643 401.415C12.6573 400.02 13.985 399.535 15.0786 399.977Z" fill="black"/>
<path d="M57.3191 410.791C62.4939 411.478 67.8639 411.988 73.14 412.154C75.1083 412.234 77.0766 412.314 79.0449 412.395C79.4159 412.417 79.7869 412.439 80.076 412.607C80.7986 413.027 81.2441 413.769 81.2367 414.634C81.2099 415.875 80.2653 416.872 79.039 416.837C76.9574 416.787 74.9891 416.707 73.0208 416.627C67.6002 416.377 62.117 415.898 56.8289 415.242C55.5714 415.091 54.7742 413.952 54.9142 412.68C54.9723 411.554 56.0615 410.641 57.3191 410.791Z" fill="black"/>
<path d="M105.319 294.097C109.327 287.824 115.874 282.833 123.934 280.267C124.5 280.112 125.129 280.188 125.675 280.409C126.109 280.66 126.605 281.142 126.762 281.716C127.188 282.833 126.564 284.114 125.349 284.568C118.309 286.857 112.543 291.142 109.14 296.51C108.453 297.56 107.176 297.785 106.051 297.228C104.895 296.557 104.632 295.148 105.319 294.097Z" fill="black"/>
<path d="M142.082 399.532C144.839 398.041 147.595 396.549 150.176 394.859C153.6 392.693 156.785 390.098 159.826 387.419C160.494 386.743 161.576 386.695 162.298 387.115C162.556 387.168 162.732 387.367 162.908 387.566C163.756 388.445 163.678 389.946 162.784 390.683C159.548 393.539 156.136 396.195 152.63 398.508C149.936 400.229 147.129 401.98 144.228 403.388C143.158 403.926 141.838 403.546 141.298 402.459C140.646 401.404 141.012 400.07 142.082 399.532Z" fill="black"/>
<path d="M125.781 352.662C126.499 351.726 127.921 351.585 128.85 352.319C134.285 356.635 140.663 359.954 147.666 361.993C147.811 362.077 147.955 362.161 148.1 362.245C148.967 362.748 149.506 363.835 149.159 364.793C148.875 365.981 147.61 366.695 146.403 366.284C138.74 364.055 131.959 360.599 126.06 355.916C125.212 355.037 125.094 353.713 125.781 352.662Z" fill="black"/>
<path d="M166.847 366.757C166.874 365.516 167.819 364.518 169.014 364.439C171.806 364.418 174.68 364.252 177.636 363.94C179.673 359.807 181.307 355.538 182.571 351.247C182.855 350.059 184.12 349.344 185.327 349.755C185.472 349.839 185.616 349.923 185.761 350.007C186.628 350.511 187.168 351.597 186.82 352.556C185.853 356.149 184.547 359.836 182.951 363.354C185.392 362.936 187.946 362.487 190.581 361.892C191.745 361.698 192.901 362.37 193.245 363.633C193.445 364.812 192.79 365.977 191.544 366.317C187.858 367.075 184.14 367.718 180.618 368.184C179.634 369.932 178.651 371.681 177.636 373.314C176.949 374.365 175.673 374.589 174.548 374.032C173.505 373.33 173.242 371.921 173.816 370.901C174.226 370.173 174.749 369.414 175.158 368.685C173.139 368.865 171.202 368.9 169.265 368.934C167.844 369.075 166.852 368.112 166.847 366.757Z" fill="black"/>
<path d="M103.738 314.634C104.305 314.479 104.82 314.586 105.254 314.837C105.832 315.173 106.215 315.686 106.371 316.26C107.271 320.455 109.007 325.039 111.516 329.783C112.595 331.956 113.756 333.983 115.03 335.979C115.683 337.035 115.316 338.368 114.278 339.021C113.239 339.674 111.919 339.294 111.266 338.238C109.992 336.242 108.769 333.985 107.659 331.697C105.056 326.609 103.226 321.681 102.201 317.026C101.837 316.139 102.606 314.942 103.738 314.634Z" fill="black"/>
<path d="M100.824 411.516C108.271 410.72 115.417 409.266 122.098 407.445C122.665 407.291 123.293 407.366 123.727 407.618C124.274 407.839 124.657 408.351 124.813 408.926C125.126 410.074 124.502 411.354 123.256 411.693C116.38 413.691 108.976 415.092 101.303 415.95C100.108 416.029 99.0333 415.211 98.8336 414.032C98.7159 412.707 99.6292 411.595 100.824 411.516Z" fill="black"/>
<path d="M445.25 317.897L442.936 322.351C442.229 323.777 441.504 325.578 439.981 326.24C439.333 326.54 438.415 326.297 438.001 325.67C435.566 321.646 433.131 317.622 430.697 313.598C430.521 313.4 430.427 313.055 430.364 312.826C430.333 312.711 430.22 312.742 430.188 312.627C429.856 311.854 430.254 310.635 431.047 310.419C433.815 309.418 436.709 308.876 439.665 308.564C441.2 308.392 442.652 308.367 444.187 308.195C444.784 308.155 445.526 308.2 446.124 308.16C446.948 308.059 447.885 307.927 448.557 308.607C450.128 309.906 448.414 312.1 447.677 313.411C446.939 314.722 446.151 316.294 445.25 317.897ZM443.497 311.467C442.302 311.546 440.994 311.655 439.686 311.765C437.811 312.029 435.968 312.408 434.156 312.902C435.907 315.755 437.689 318.724 439.44 321.577C439.768 320.994 439.982 320.442 440.341 319.974C440.997 318.809 441.653 317.643 442.195 316.509L444.13 312.898C444.376 312.461 444.622 312.024 444.868 311.586C444.466 311.449 443.981 311.458 443.497 311.467Z" fill="#59C59F"/>
<path d="M273.689 342.326C275.13 341.81 276.457 341.325 277.929 340.924C278.496 340.769 279.175 340.584 279.854 340.399C280.647 340.183 281.522 339.821 282.358 340.21C284.174 341.072 283.039 343.602 282.703 345.05C282.204 346.789 281.818 348.498 281.433 350.207L280.212 355.103C279.795 356.697 279.585 358.604 278.269 359.58C277.653 359.994 276.715 360.127 276.188 359.53C272.859 356.244 269.53 352.957 266.202 349.67C266.026 349.472 265.85 349.273 265.756 348.928C265.756 348.928 265.612 348.844 265.58 348.73C265.022 348.018 265.193 346.862 265.892 346.301C268.246 344.673 270.952 343.442 273.689 342.326ZM276.596 355.225C276.779 354.558 276.881 354.037 277.064 353.371C277.317 352.068 277.715 350.85 278.082 349.516L279.037 345.432C279.138 344.911 279.239 344.39 279.485 343.953C279.032 344.077 278.61 344.315 278.157 344.438C276.912 344.778 275.697 345.232 274.596 345.656C272.816 346.264 271.098 347.102 269.411 348.056C271.779 350.494 274.26 352.902 276.596 355.225Z" fill="#59C59F"/>
<path d="M105.331 275.839C103.96 275.719 102.413 275.4 100.999 274.675C99.1518 273.699 98.003 272.162 97.03 270.823C96.2328 269.684 95.455 268.169 95.0169 266.561C94.692 264.923 94.7889 263.046 95.8035 261.413C97.9148 258.001 101.777 257.442 104.983 258.048C108.221 258.769 111.463 260.846 112.793 263.937C114.184 267.258 113.311 271.197 111.012 273.92C110.571 274.534 109.872 275.094 108.998 275.456C107.588 276.087 106.217 275.967 105.331 275.839ZM108.305 271.574C109.772 269.818 110.31 267.327 109.521 265.322C108.825 263.662 106.821 262.111 104.356 261.549C101.923 261.102 99.8846 261.658 98.7567 263.322C98.3157 263.935 98.195 264.832 98.4767 265.865C98.727 266.784 99.2351 267.755 99.8877 268.811C100.685 269.951 101.564 270.944 102.544 271.417C103.38 271.806 104.411 272.019 105.669 272.169C106.669 272.267 107.153 272.258 107.606 272.135C107.832 272.073 108.028 271.897 108.305 271.574Z" fill="#F7C300"/>
<path d="M100.416 335.028C106.689 346.887 115.965 356.817 127.25 363.856C129.16 365.062 127.584 368.205 125.674 366.999C113.842 359.739 103.957 349.358 97.4138 336.957C96.3976 335.013 99.3687 332.97 100.416 335.028Z" fill="#F7C300"/>
<path d="M313.92 312.736C324.34 313.474 334.569 315.743 344.38 319.607C346.423 320.407 345.538 323.855 343.495 323.055C334.055 319.214 324.083 316.997 314.035 316.282C311.664 316.065 311.663 312.488 313.92 312.736Z" fill="#F7C300"/>
<path d="M421.562 159.56C424.039 145.439 427.146 131.395 429.881 117.328C431.039 112.202 432.115 107.221 433.272 102.095C433.923 99.5741 434.543 96.9382 436.175 94.8901C437.838 92.9567 440.122 91.9642 442.406 90.9716C447.365 88.6335 452.229 85.9508 456.711 82.7558C461.111 79.7065 465.499 76.167 470.833 75.2067C475.23 74.3784 479.788 75.4798 484.12 76.643C491.174 78.4211 498.34 80.1683 505.394 81.9464C525.38 86.9843 545.623 92.0753 564.466 100.508C569.852 102.864 570.338 106.432 569.645 111.925C567.921 126.58 563.507 140.734 559.174 154.743C554.779 168.523 552.043 182.59 548.71 196.696C547.806 200.52 546.82 204.489 545.915 208.313C542.348 223.346 538.649 238.786 534.018 259.29L526.457 294.038C526.274 294.705 525.915 295.173 525.411 295.557L525.185 295.618L525.103 295.764C524.888 296.316 524.201 297.367 522.623 296.933C507.598 293.134 492.573 289.334 477.466 285.681C465.338 282.695 453.117 279.365 440.908 276.525C434.772 274.99 428.555 273.601 422.368 272.326C419.162 271.72 415.924 270.999 412.749 270.507C411.233 270.304 408.101 270.417 407.683 268.434C407.064 265.273 411.579 265.769 413.352 266.026C442.23 271.107 470.632 278.909 499.074 285.959C506.498 287.759 513.841 289.705 521.266 291.506L521.926 291.696L522.078 290.914C526.689 270.786 530.225 255.637 533.772 240.979C537.206 226.351 540.855 211.172 545.467 191.043L550.717 167.903C553.917 154.202 559.098 141.072 562.525 127.31C563.947 121.372 565.144 115.495 565.907 109.367C566.327 105.552 564.604 105.034 561.581 103.761C559.941 103.098 558.3 102.435 556.66 101.772C543.68 96.5519 530.014 92.3821 516.32 89.4532C502.338 86.3563 488.539 82.5927 474.639 79.3501C473.478 86.6973 471.915 93.9073 469.95 100.98C469.716 101.908 469.4 102.98 468.557 103.457C467.601 103.964 466.569 103.752 465.507 103.425C457.617 101.258 449.451 99.4129 441.44 98.1422C440.925 98.036 440.296 97.9607 439.793 98.3446C439.289 98.7286 439.188 99.2496 438.973 99.8014C431.789 130.129 426.233 160.63 420.998 191.414C417.48 211.985 413.189 232.396 409.011 252.777C408.727 253.965 408.165 255.475 406.97 255.554C405.92 255.717 405.072 254.838 404.79 253.804C404.509 252.771 404.711 251.729 405.058 250.771C408.563 235.507 411.809 220.191 414.54 204.768C417.201 189.981 418.881 174.722 421.562 159.56ZM448.797 94.7806C454.178 95.7808 459.51 97.0416 464.872 98.4171L465.532 98.6073L465.716 97.9406C467.018 92.8985 468.175 87.7724 469.189 82.5624L469.493 80.9994L468.146 81.8599C461.996 85.6326 455.394 89.5288 448.679 93.4559L446.992 94.4089L448.797 94.7806Z" fill="black"/>
<path d="M573.785 95.8713C572.208 95.4379 570.63 95.0045 568.938 94.602C565.669 93.766 562.318 93.0758 558.999 92.5003C555.937 91.978 556.591 87.2359 559.539 87.7891C563.406 88.5855 567.273 89.382 571.202 90.4081C573.037 90.8946 575.213 91.2885 576.885 92.0664C578.556 92.8442 579.674 94.2665 580.37 95.9271C583.567 103.197 581.368 111.197 579.208 118.446C578.81 119.665 577.143 120.243 576.049 119.801C574.698 119.305 574.322 117.928 574.72 116.709C576.432 110.939 578.491 104.21 576.153 98.3098C575.746 96.8171 575.25 96.3356 573.785 95.8713Z" fill="black"/>
<path d="M446.196 286.555C443.298 285.741 444.241 281.167 447.108 281.866C459.009 284.913 470.909 287.961 482.81 291.008C485.708 291.822 484.765 296.396 481.898 295.697C470.111 292.619 458.21 289.571 446.196 286.555Z" fill="black"/>
<path d="M421.694 40.8628C421.506 40.1739 421.853 39.2158 422.501 38.9159C426.78 36.7628 431.091 34.7247 435.37 32.5716C435.597 32.5099 435.936 32.4173 436.163 32.3556C436.276 32.3248 436.245 32.2099 436.358 32.1791C437.151 31.963 438.244 32.4051 438.382 33.3545C438.937 36.2867 439.04 39.3424 438.885 42.3449C438.808 43.8462 438.648 45.4932 438.458 47.0253C438.388 47.6611 438.349 48.4118 438.279 49.0476C438.158 49.9439 438.151 50.8094 437.37 51.5156C435.84 53.0427 434.082 51.0549 432.863 50.1536C431.499 49.1684 430.105 48.0683 428.741 47.083L424.796 44.2112C423.722 43.3938 422.163 42.5851 421.694 40.8628ZM427.704 41.9384C428.779 42.7557 429.822 43.4582 430.783 44.3064L433.974 46.6437C434.408 46.8955 434.76 47.2931 435.193 47.545C435.181 47.0548 435.283 46.5338 435.271 46.0437C435.411 44.7721 435.551 43.5004 435.546 42.1448C435.612 40.1534 435.564 38.1928 435.434 36.3779C432.307 37.847 429.211 39.4309 426.083 40.9C426.661 41.2358 427.239 41.5717 427.704 41.9384Z" fill="#1E1E1E"/>
<path d="M408.959 59.7522C407.342 60.0695 405.612 60.4176 403.996 60.7348L399.29 61.7705C397.787 62.0568 396.151 62.7494 394.592 61.9407C394.014 61.6049 393.537 60.748 393.689 59.9665C394.972 55.2998 396.368 50.6022 397.651 45.9354C397.702 45.6749 397.865 45.3836 398.061 45.207C398.029 45.0922 398.143 45.0613 398.111 44.9465C398.49 44.1033 399.591 43.6799 400.314 44.0997C402.802 45.6418 405.158 47.59 407.236 49.8605C408.26 50.9384 409.315 52.131 410.37 53.3237C410.866 53.8052 411.249 54.3176 411.745 54.7991C412.304 55.5102 412.944 56.0757 413 57.1708C412.997 59.3918 410.318 59.3819 408.959 59.7522ZM407.336 55.1372C406.457 54.1433 405.609 53.2643 404.73 52.2704C403.386 50.9098 401.929 49.5801 400.421 48.5109C399.505 51.8443 398.475 55.2085 397.559 58.5419C398.125 58.3876 398.691 58.2333 399.289 58.1938C400.566 57.9692 401.811 57.6297 403.088 57.405L407.001 56.5854C407.454 56.462 407.907 56.3385 408.504 56.299C408.008 55.8175 407.688 55.5348 407.336 55.1372Z" fill="#59C59F"/>
<path d="M579.9 265.165L578.133 269.84C577.571 271.35 577.103 273.205 575.756 274.065C575.108 274.365 574.14 274.382 573.726 273.755C570.787 270.115 567.849 266.476 564.879 262.721C564.703 262.522 564.609 262.178 564.434 261.979C564.402 261.864 564.289 261.895 564.258 261.78C563.812 261.038 564.097 259.851 564.827 259.405C567.502 258.059 570.27 257.058 573.132 256.401C574.604 256 575.995 255.745 577.498 255.458C578.095 255.419 578.775 255.234 579.486 255.163C580.278 254.947 581.184 254.7 581.938 255.235C583.704 256.357 582.248 258.604 581.8 260.083C581.187 261.854 580.544 263.509 579.9 265.165ZM577.386 259.066C576.109 259.291 574.977 259.599 573.7 259.824C571.888 260.318 570.108 260.926 568.358 261.65C570.531 264.265 572.59 266.91 574.762 269.525C574.977 268.974 575.16 268.307 575.375 267.755C575.886 266.506 576.284 265.287 576.795 264.038L578.297 260.175C578.542 259.738 578.644 259.217 578.858 258.665C578.323 258.934 577.87 259.057 577.386 259.066Z" fill="#1E1E1E"/>
<path d="M363.294 193.941C362.692 192.625 362.058 191.194 361.96 189.494C361.862 187.794 362.216 185.97 363.375 184.421C365.952 181.375 369.794 181.191 373.013 182.288C376.118 183.415 379.114 185.929 379.991 189.144C380.961 192.703 379.541 196.421 376.89 198.747C376.304 199.276 375.574 199.722 374.7 200.084C373.341 200.454 371.907 200.104 370.99 199.861C369.669 199.481 368.091 199.048 366.759 198.177C365.025 197.17 364.071 195.456 363.294 193.941ZM365.4 189.173C365.424 190.153 365.819 191.156 366.39 192.357C366.992 193.673 367.758 194.698 368.656 195.317C369.41 195.851 370.472 196.178 371.648 196.475C372.566 196.718 373.195 196.793 373.534 196.701C373.761 196.639 374.069 196.432 374.346 196.109C376.134 194.635 376.817 192.229 376.367 190.131C375.866 188.294 374.057 186.567 371.757 185.714C369.456 184.861 367.242 185.217 365.97 186.798C365.497 187.296 365.377 188.193 365.4 189.173Z" fill="#1E1E1E"/>
<path d="M543.527 302.214C542.925 300.898 542.291 299.467 542.193 297.767C542.095 296.067 542.449 294.244 543.608 292.694C546.185 289.648 550.027 289.465 553.246 290.561C556.351 291.688 559.347 294.202 560.223 297.417C561.194 300.977 559.774 304.694 557.123 307.02C556.537 307.55 555.807 307.995 554.933 308.357C553.574 308.727 552.14 308.378 551.223 308.135C549.902 307.754 548.324 307.321 546.992 306.45C545.34 305.297 544.273 303.614 543.527 302.214ZM545.633 297.446C545.657 298.427 546.052 299.429 546.623 300.63C547.225 301.946 547.991 302.971 548.889 303.59C549.643 304.124 550.705 304.452 551.881 304.748C552.799 304.991 553.428 305.067 553.767 304.974C553.994 304.912 554.302 304.705 554.579 304.383C556.367 302.909 557.05 300.502 556.6 298.405C556.099 296.568 554.29 294.84 551.99 293.987C549.689 293.134 547.475 293.491 546.202 295.071C545.843 295.539 545.578 296.351 545.633 297.446Z" fill="#F7C300"/>
<path d="M525.255 133.397C525.598 131.083 526.601 128.96 528.099 127.318C530.652 132.666 533.286 137.869 536.034 143.041C536.988 144.755 538.628 145.418 540.491 144.663C541.818 144.178 542.97 143.494 544.122 142.81C545.387 142.095 546.589 141.151 547.792 140.207C547.363 141.31 546.707 142.476 545.907 143.557C542.644 147.654 537.064 149.051 532.388 146.625C527.681 144.084 524.562 138.89 525.255 133.397Z" fill="#F7C300"/>
<path d="M546.391 134.174C545.169 135.494 544.08 136.407 542.651 137.414C541.952 137.974 541.109 138.451 540.234 138.812C540.121 138.843 540.008 138.874 540.008 138.874C539.976 138.759 539.945 138.644 539.832 138.675C539.531 138.017 539.117 137.39 538.784 136.617C538.069 135.332 537.467 134.016 536.752 132.73C535.435 130.129 534.149 127.643 532.945 125.01C532.738 124.697 532.499 124.268 532.292 123.955C532.601 123.747 533.054 123.624 533.362 123.416C533.702 123.324 533.928 123.262 534.237 123.055C536.017 122.446 537.954 122.412 539.79 122.898C542.317 123.69 544.188 125.647 545.997 127.374C547.31 128.62 547.994 129.79 548.545 131.367C548.588 131.972 548.745 132.546 548.757 133.036C547.82 133.168 546.945 133.53 546.391 134.174Z" fill="#F7C300"/>
<path d="M548.593 133.328C549.109 133.434 549.655 133.655 550.12 134.021C551.226 134.954 551.356 136.769 550.329 137.912C549.58 138.733 548.717 139.585 547.823 140.322C548.65 137.999 548.879 135.717 548.593 133.328Z" fill="black"/>
<path d="M528.099 127.319C528.037 127.089 527.892 127.005 527.83 126.775C527.227 125.459 528.242 123.825 529.456 123.37C530.557 122.947 531.507 123.305 532.21 124.101C530.718 124.877 529.321 125.999 528.099 127.319Z" fill="black"/>
<path d="M544.121 142.81C542.969 143.494 541.673 144.094 540.49 144.663C538.628 145.417 536.987 144.754 536.033 143.041C533.173 137.9 530.538 132.697 528.099 127.317C529.321 125.998 530.718 124.877 532.21 124.1C532.53 124.383 532.737 124.697 532.862 125.156C534.066 127.788 535.384 130.389 536.67 132.876C537.385 134.161 537.987 135.477 538.702 136.763C539.003 137.421 539.417 138.048 539.749 138.821C539.781 138.936 539.812 139.05 539.925 139.02C540.039 138.989 540.039 138.989 540.152 138.958C540.995 138.481 541.725 138.036 542.569 137.559C543.997 136.553 545.2 135.609 546.308 134.32C546.863 133.675 547.769 133.428 548.624 133.442C548.797 135.862 548.681 138.114 547.822 140.321C546.702 141.12 545.499 142.064 544.121 142.81Z" fill="black"/>
<path d="M509.305 195.84C509.648 193.527 510.651 191.403 512.15 189.761C514.702 195.11 517.337 200.312 520.084 205.484C521.038 207.198 522.678 207.861 524.541 207.107C525.868 206.621 527.02 205.938 528.172 205.254C529.437 204.539 530.639 203.594 531.842 202.65C531.413 203.754 530.757 204.919 529.957 206.001C526.694 210.097 521.114 211.494 516.438 209.068C511.731 206.527 508.581 201.218 509.305 195.84Z" fill="#F7C300"/>
<path d="M530.41 196.503C529.188 197.822 528.099 198.736 526.67 199.742C525.971 200.302 525.128 200.779 524.253 201.141C524.14 201.172 524.027 201.202 524.027 201.202C523.995 201.088 523.964 200.973 523.851 201.004C523.55 200.346 523.136 199.718 522.803 198.946C522.088 197.66 521.486 196.344 520.771 195.059C519.454 192.458 518.168 189.971 516.964 187.339C516.757 187.025 516.518 186.597 516.311 186.283C516.62 186.076 517.073 185.953 517.381 185.745C517.721 185.653 517.947 185.591 518.256 185.383C520.036 184.775 521.973 184.74 523.809 185.227C526.336 186.018 528.207 187.975 530.016 189.702C531.329 190.948 532.013 192.119 532.564 193.695C532.607 194.3 532.764 194.874 532.776 195.364C531.87 195.611 531.077 195.827 530.41 196.503Z" fill="#F7C300"/>
<path d="M532.725 195.625C533.241 195.731 533.788 195.952 534.252 196.319C535.358 197.251 535.488 199.066 534.461 200.209C533.712 201.03 532.849 201.882 531.955 202.619C532.7 200.443 532.898 198.045 532.725 195.625Z" fill="black"/>
<path d="M512.119 189.648C512.056 189.418 511.912 189.334 511.849 189.104C511.247 187.788 512.261 186.154 513.476 185.7C514.577 185.276 515.526 185.634 516.229 186.43C514.738 187.206 513.34 188.328 512.119 189.648Z" fill="black"/>
<path d="M528.285 205.223C527.134 205.907 525.837 206.507 524.654 207.076C522.792 207.83 521.151 207.167 520.198 205.453C517.337 200.312 514.702 195.11 512.263 189.73C513.485 188.411 514.882 187.29 516.374 186.513C516.694 186.796 516.901 187.109 517.027 187.569C518.231 190.201 519.548 192.802 520.834 195.289C521.549 196.574 522.151 197.89 522.866 199.175C523.167 199.834 523.581 200.461 523.914 201.234C523.945 201.348 523.976 201.463 524.089 201.432C524.203 201.402 524.203 201.402 524.316 201.371C525.159 200.894 525.889 200.448 526.733 199.972C528.162 198.966 529.364 198.021 530.472 196.732C531.027 196.088 531.933 195.841 532.788 195.855C532.961 198.275 532.845 200.527 531.986 202.734C530.753 203.564 529.519 204.393 528.285 205.223Z" fill="black"/>
<path d="M493.577 256.867C493.92 254.553 494.923 252.429 496.422 250.787C498.974 256.136 501.609 261.339 504.356 266.51C505.31 268.224 506.95 268.887 508.813 268.133C510.14 267.648 511.292 266.964 512.444 266.28C513.709 265.565 514.911 264.621 516.114 263.676C515.685 264.78 515.029 265.945 514.229 267.027C510.966 271.123 505.386 272.52 500.71 270.094C496.117 267.522 492.885 262.359 493.577 256.867Z" fill="#F7C300"/>
<path d="M514.714 257.644C513.492 258.964 512.403 259.877 510.974 260.883C510.275 261.444 509.432 261.92 508.557 262.282C508.444 262.313 508.331 262.344 508.331 262.344C508.299 262.229 508.268 262.114 508.155 262.145C507.854 261.487 507.44 260.86 507.107 260.087C506.392 258.802 505.79 257.486 505.075 256.2C503.758 253.599 502.472 251.113 501.268 248.48C501.061 248.167 500.822 247.738 500.615 247.425C500.924 247.217 501.377 247.094 501.685 246.886C502.025 246.794 502.251 246.732 502.56 246.525C504.34 245.916 506.277 245.882 508.113 246.368C510.64 247.16 512.511 249.116 514.32 250.844C515.633 252.089 516.317 253.26 516.868 254.836C516.911 255.441 517.068 256.016 517.08 256.506C516.174 256.753 515.381 256.969 514.714 257.644Z" fill="#F7C300"/>
<path d="M517.029 256.766C517.545 256.872 518.091 257.093 518.556 257.46C519.662 258.392 519.792 260.207 518.765 261.35C518.016 262.171 517.153 263.023 516.259 263.76C516.973 261.469 517.202 259.186 517.029 256.766Z" fill="black"/>
<path d="M496.536 250.758C496.473 250.528 496.329 250.444 496.266 250.214C495.664 248.898 496.679 247.264 497.893 246.81C498.994 246.386 499.943 246.744 500.647 247.54C499.042 248.347 497.644 249.469 496.536 250.758Z" fill="black"/>
<path d="M512.558 266.249C511.406 266.933 510.11 267.533 508.927 268.102C507.064 268.857 505.424 268.193 504.47 266.48C501.609 261.339 498.975 256.136 496.536 250.757C497.757 249.437 499.155 248.316 500.647 247.539C500.967 247.822 501.174 248.136 501.299 248.595C502.503 251.227 503.82 253.829 505.106 256.315C505.822 257.6 506.423 258.917 507.139 260.202C507.44 260.86 507.854 261.487 508.186 262.26C508.218 262.375 508.249 262.49 508.362 262.459C508.475 262.428 508.475 262.428 508.589 262.397C509.432 261.921 510.162 261.475 511.005 260.998C512.434 259.992 513.637 259.048 514.745 257.759C515.299 257.114 516.205 256.867 517.061 256.881C517.233 259.301 517.117 261.553 516.259 263.76C515.057 264.705 513.823 265.534 512.558 266.249Z" fill="black"/>
<path d="M487.833 102.767C499.054 106 510.263 108.742 521.656 110.818C524.605 111.371 523.693 116.06 520.744 115.507C509.32 113.316 497.998 110.605 486.921 107.456C484.023 106.642 484.935 101.953 487.833 102.767Z" fill="black"/>
<path d="M450.582 104.902C473.629 110.462 496.759 115.877 519.857 121.177C522.837 121.845 521.925 126.534 518.945 125.866C495.765 120.711 472.749 115.266 449.67 109.591C446.659 108.808 447.602 104.234 450.582 104.902Z" fill="black"/>
<path d="M465.671 121.882C482.262 125.625 498.841 128.877 515.635 131.578C518.666 131.985 517.641 136.705 514.723 136.267C497.93 133.566 481.35 130.314 464.759 126.571C461.779 125.903 462.691 121.214 465.671 121.882Z" fill="black"/>
<path d="M444.146 115.66C448.157 116.541 452.169 117.421 456.18 118.301C457.355 118.598 458.297 119.821 458.044 121.124C457.759 122.311 456.557 123.256 455.268 122.99C451.257 122.11 447.246 121.23 443.234 120.349C442.059 120.053 441.117 118.829 441.37 117.527C441.655 116.339 442.857 115.395 444.146 115.66Z" fill="black"/>
<path d="M499.323 140.464C504.342 140.577 509.434 141.409 514.313 142.793C515.488 143.089 516.43 144.313 516.177 145.615C515.892 146.803 514.721 147.862 513.401 147.482C508.894 146.12 504.172 145.31 499.638 145.189C498.411 145.153 497.224 144.367 497.075 142.927C497.133 141.801 497.984 140.459 499.323 140.464Z" fill="black"/>
<path d="M451.92 129.453C464.985 132.307 477.967 135.306 491.031 138.16C494.011 138.828 493.1 143.517 490.12 142.849C477.055 139.995 464.073 136.996 451.008 134.142C448.028 133.474 448.94 128.785 451.92 129.453Z" fill="black"/>
<path d="M471.951 176.17C482.004 178.241 492.107 180.051 502.231 181.486C505.261 181.894 504.236 186.614 501.319 186.175C491.196 184.74 481.092 182.93 471.039 180.859C468.059 180.191 468.971 175.502 471.951 176.17Z" fill="black"/>
<path d="M432.605 177.765C454.742 182.217 476.735 186.584 498.841 190.921C501.79 191.474 500.878 196.163 497.929 195.61C475.823 191.273 453.717 186.937 431.694 182.454C428.714 181.786 429.657 177.212 432.605 177.765Z" fill="black"/>
<path d="M466.542 195.16C476.709 197.2 486.957 199.094 497.123 201.134C500.072 201.687 499.16 206.376 496.211 205.823C486.045 203.783 475.797 201.889 465.63 199.849C462.65 199.181 463.593 194.607 466.542 195.16Z" fill="black"/>
<path d="M441.085 190.133C446.612 191.217 452.138 192.301 457.633 193.27C458.922 193.536 459.751 194.79 459.497 196.093C459.244 197.395 457.979 198.11 456.722 197.96C451.195 196.875 445.669 195.791 440.174 194.822C438.885 194.556 438.056 193.302 438.31 191.999C438.563 190.697 439.797 189.867 441.085 190.133Z" fill="black"/>
<path d="M464.591 234.423C472.211 236.046 479.686 237.586 487.306 239.21C490.286 239.878 489.343 244.452 486.394 243.899C478.774 242.275 471.299 240.735 463.679 239.112C460.699 238.444 461.642 233.869 464.591 234.423Z" fill="black"/>
<path d="M428.558 237.459C447.149 241.397 465.79 245.074 484.401 248.636C487.349 249.189 486.438 253.878 483.489 253.325C464.879 249.763 446.237 246.086 427.646 242.148C424.666 241.48 425.609 236.906 428.558 237.459Z" fill="black"/>
<path d="M461.808 255.903C468.139 257.262 474.552 258.474 480.883 259.833C483.831 260.386 482.92 265.075 479.971 264.522C473.64 263.163 467.227 261.951 460.896 260.592C457.916 259.924 458.859 255.35 461.808 255.903Z" fill="black"/>
<path d="M445.65 252.413C448.052 252.745 450.485 253.192 452.836 253.785C454.012 254.081 454.954 255.305 454.7 256.607C454.416 257.795 453.213 258.739 451.924 258.474C449.573 257.881 447.14 257.434 444.738 257.102C443.481 256.951 442.59 255.467 442.874 254.279C443.127 252.977 444.279 252.293 445.65 252.413Z" fill="black"/>
<path d="M418.44 246.754C424.369 247.975 430.153 249.112 436.082 250.334C439.03 250.887 438.119 255.576 435.17 255.023C429.241 253.801 423.457 252.664 417.528 251.443C414.548 250.775 415.46 246.086 418.44 246.754Z" fill="black"/>
<path d="M449.209 210.121C473.452 215.603 497.745 220.823 522.202 225.753C525.15 226.306 524.239 230.995 521.29 230.442C496.946 225.482 472.571 220.406 448.297 214.81C445.431 214.111 446.342 209.422 449.209 210.121Z" fill="#59C59F"/>
<path d="M465.391 152.548C489.364 157.486 513.255 162.57 537.208 167.884C540.188 168.552 539.277 173.241 536.297 172.573C512.343 167.259 488.452 162.176 464.48 157.237C461.499 156.569 462.411 151.88 465.391 152.548Z" fill="#59C59F"/>
</svg>
