<svg width="168" height="189" viewBox="0 0 168 189" fill="none" xmlns="http://www.w3.org/2000/svg">
<g clip-path="url(#clip0)">
<path d="M166.082 139.405C164.194 136.426 160.126 134.971 156.988 136.992C155.605 137.882 154.289 138.893 153.039 139.957C153.664 130.119 154.914 120.349 154.541 110.458C154.528 110.013 154.462 109.595 154.382 109.191C154.076 106.091 151.962 103.14 148.013 103.032L98.6598 101.59C94.8572 98.3963 87.4648 100.013 87.5712 106.509C87.9701 130.349 87.8504 154.188 87.2255 178.014C86.2549 181.774 88.3158 186.801 93.3415 187.353C111.397 189.348 129.426 186.086 147.508 187.016C150.34 187.164 152.228 185.776 153.172 183.849C154.781 182.367 155.791 180.17 155.406 177.489C154.528 171.411 153.717 165.333 153.225 159.242C154.794 158.81 156.19 157.84 156.988 156.263C157.466 155.334 157.972 154.431 158.544 153.555C158.597 153.474 159.022 152.908 159.182 152.679C159.421 152.409 159.82 151.951 159.793 151.965C160.418 151.277 161.083 150.617 161.788 149.997C161.947 149.849 162.226 149.633 162.359 149.525C162.785 149.215 163.224 148.919 163.662 148.636C166.627 146.736 168.076 142.545 166.082 139.405Z" fill="white"/>
<path d="M118.378 177.515L101.439 177.61C96.9187 177.637 96.9187 184.751 101.439 184.724L118.378 184.63C122.898 184.603 122.912 177.488 118.378 177.515Z" fill="#F7C300"/>
<path d="M114.868 104.164C108.021 104.77 101.253 103.463 94.4192 104.218C93.9406 104.204 93.4619 104.272 93.0099 104.433C91.3878 104.784 90.7097 106.01 90.7496 107.331C90.7363 107.439 90.7097 107.533 90.7097 107.654C90.497 115.16 90.4039 122.667 89.9386 130.159C89.6461 134.728 96.6795 134.714 96.9587 130.159C97.3575 123.772 97.4905 117.384 97.65 110.983C103.367 110.646 109.138 111.791 114.881 111.293C119.335 110.902 119.375 103.773 114.868 104.164Z" fill="#F7C300"/>
<path d="M156.43 142.45C153.704 145.887 150.261 148.609 147.229 151.762C144.995 154.08 143.081 156.762 140.94 159.174C139.092 157.436 137.058 155.927 134.824 154.619C130.902 152.328 127.365 158.474 131.274 160.765C134.053 162.382 136.327 164.322 138.427 166.775C139.73 168.284 142.044 167.974 143.387 166.775C146.657 163.851 149.13 159.983 152.188 156.802C155.22 153.649 158.663 150.927 161.389 147.49C164.194 143.946 159.262 138.879 156.43 142.45Z" fill="#F7C300"/>
<path d="M152.335 179.847C151.71 177.003 151.538 174.133 151.777 171.235C151.963 168.958 148.453 168.971 148.267 171.235C148.067 173.782 148.187 176.316 148.586 178.823C147.496 178.85 146.379 178.701 145.342 178.647C143.547 178.567 141.739 178.513 139.944 178.459C136.341 178.365 132.737 178.324 129.148 178.351C121.875 178.391 114.602 178.661 107.343 179.173C103.381 179.443 99.4186 179.806 95.4698 180.211C96.0548 163.527 96.3074 146.83 96.2011 130.119C96.1745 125.335 96.108 120.538 96.0149 115.754C95.975 113.463 92.465 113.463 92.5049 115.754C92.8107 132.478 92.7708 149.202 92.3852 165.912C92.2788 170.696 92.1326 175.48 91.9597 180.278C91.9199 181.275 92.5713 181.841 93.3292 181.963C93.3292 181.976 93.3292 182.003 93.3292 182.017C93.3292 182.906 94.1402 183.89 95.0842 183.795C109.696 182.259 124.401 181.639 139.093 181.99C141.114 182.044 143.121 182.097 145.142 182.192C147.11 182.273 149.198 182.583 151.125 182.017C152.056 181.761 152.548 180.79 152.335 179.847Z" fill="black"/>
<path d="M152.349 120.955C152.203 118.058 151.91 115.174 151.498 112.303C151.112 109.662 149.956 107.843 147.15 107.6C141.367 107.101 135.517 107.061 129.72 106.791C123.883 106.522 118.059 106.252 112.222 105.983C105.947 105.7 99.5518 105.174 93.4092 106.818C91.2154 107.411 92.1461 110.848 94.3399 110.255C99.3257 108.921 104.484 109.19 109.59 109.433C114.988 109.675 120.386 109.931 125.771 110.174C131.089 110.417 136.421 110.659 141.739 110.902C143.055 110.956 144.358 111.023 145.674 111.077C146.153 111.104 146.951 110.996 147.403 111.185C147.735 111.319 147.762 111.495 147.868 111.912C148.493 114.23 148.56 116.831 148.732 119.203C149.145 125.227 148.945 131.318 148.068 137.288C147.935 138.232 148.307 139.202 149.291 139.471C150.115 139.7 151.312 139.188 151.445 138.232C152.296 132.531 152.628 126.736 152.349 120.955Z" fill="black"/>
<path d="M160.087 140.631C153.279 147.396 146.791 154.498 140.622 161.87C138.734 160.495 136.979 158.959 135.357 157.261C133.775 155.617 131.302 158.137 132.87 159.781C135.038 162.031 137.444 164.039 140.023 165.778C140.622 166.182 141.672 166.074 142.151 165.495C148.599 157.719 155.42 150.253 162.573 143.138C164.182 141.547 161.695 139.027 160.087 140.631Z" fill="black"/>
<path d="M138.547 122.856C127.525 121.481 116.383 121.32 105.321 122.371C104.377 122.465 103.566 123.125 103.566 124.149C103.566 125.039 104.377 126.022 105.321 125.928C116.383 124.877 127.525 125.052 138.547 126.413C139.491 126.534 140.302 125.51 140.302 124.634C140.302 123.57 139.491 122.963 138.547 122.856Z" fill="black"/>
<path d="M132.126 132.693C127.565 132.478 123.018 132.262 118.471 131.993C113.911 131.723 109.377 131.548 104.857 132.356C103.926 132.518 103.394 133.677 103.633 134.539C103.899 135.536 104.857 135.954 105.787 135.779C110.108 135.011 114.536 135.294 118.897 135.563C123.311 135.833 127.712 136.035 132.126 136.251C134.386 136.358 134.386 132.801 132.126 132.693Z" fill="black"/>
<path d="M140.13 142.302C128.682 141.669 117.195 141.844 105.774 142.828C103.54 143.016 103.514 146.587 105.774 146.385C117.195 145.388 128.682 145.213 140.13 145.859C142.39 145.981 142.377 142.423 140.13 142.302Z" fill="black"/>
<path d="M119.535 154.242C114.828 153.541 110.082 153.339 105.335 153.689C104.391 153.757 103.58 154.457 103.58 155.468C103.58 156.371 104.391 157.314 105.335 157.247C109.749 156.91 114.217 157.018 118.604 157.664C119.535 157.799 120.492 157.435 120.758 156.425C120.984 155.589 120.479 154.377 119.535 154.242Z" fill="black"/>
<path d="M128.11 165.036C120.572 164.403 112.993 164.363 105.441 164.902C103.194 165.063 103.181 168.621 105.441 168.459C112.993 167.907 120.572 167.96 128.11 168.594C130.357 168.782 130.344 165.225 128.11 165.036Z" fill="black"/>
<path d="M155.994 98.1018L155.995 98.069L155.994 98.0363L155.966 97.3186L155.965 97.3132C155.906 95.9883 155.124 94.8316 153.895 94.2899V94.2899L153.888 94.2868C152.677 93.7643 151.283 93.9656 150.27 94.81V94.81L150.266 94.8134L145.548 98.7887C145.533 98.794 145.493 98.8047 145.415 98.8089C145.26 98.8174 145.034 98.7953 144.73 98.7272C144.119 98.5906 143.402 98.3213 142.642 98.0355L142.627 98.03C142.627 98.03 142.627 98.0299 142.627 98.0298C142.605 98.0215 142.583 98.0131 142.56 98.0047C141.873 97.7454 141.164 97.4778 140.459 97.2954L139.775 97.1118C138.508 96.7541 137.145 97.135 136.262 98.148C135.388 99.1363 135.151 100.527 135.647 101.752L135.648 101.755L137.932 107.355C137.656 107.789 137.397 108.224 137.148 108.645C137.076 108.766 137.005 108.885 136.935 109.003L136.934 109.005C136.219 110.206 135.604 111.234 134.807 112.121C134.708 112.225 134.629 112.337 134.566 112.44C134.197 113 134 113.645 134 114.325C134 115.251 134.367 116.14 135.013 116.796L135.021 116.811L135.154 116.936C135.436 117.2 135.751 117.387 136.078 117.525C136.583 117.747 137.154 117.845 137.708 117.805C137.709 117.805 137.709 117.805 137.71 117.805L143.75 117.383L144.443 118.25L144.448 118.256L144.452 118.262C144.562 118.394 144.675 118.509 144.806 118.62L144.816 118.628L144.826 118.636C144.903 118.698 145.033 118.835 145.219 119.07C145.395 119.294 145.582 119.557 145.782 119.839C146.174 120.398 146.704 121.148 147.368 121.764C148.038 122.387 148.93 122.953 150.058 123.003L150.06 123.003C150.496 123.022 150.943 122.956 151.328 122.832C152.467 122.618 153.128 121.851 153.51 121.039C153.858 120.3 154.024 119.419 154.155 118.728C154.162 118.69 154.169 118.653 154.176 118.617L154.179 118.6L154.182 118.584C154.216 118.368 154.259 118.162 154.3 117.969C154.304 117.953 154.307 117.937 154.31 117.922L155.059 114.902C155.127 114.876 155.201 114.848 155.288 114.817L155.306 114.81C155.416 114.77 155.542 114.724 155.669 114.674C155.758 114.642 155.831 114.608 155.868 114.589L155.881 114.583L155.924 114.569L156.003 114.525C156.518 114.241 157.096 114.031 157.822 113.768C157.857 113.755 157.893 113.742 157.929 113.729C157.959 113.719 157.988 113.708 158.017 113.698C159.295 113.239 160.814 112.694 162.141 111.511V111.511L162.149 111.504C162.617 111.078 162.896 110.508 162.965 109.902L162.966 109.893L162.967 109.884C163.026 109.268 162.927 108.651 162.673 108.078L162.67 108.071L162.667 108.064C162.381 107.444 161.918 106.942 161.355 106.588L161.352 106.586L156.119 103.328C155.921 102.146 155.94 100.711 155.966 99.1882L155.994 98.1018ZM144.596 112.769C143.708 112.685 142.847 112.805 142.111 112.92C140.84 113.108 139.557 113.324 138.299 113.539C138.292 113.532 138.279 113.518 138.265 113.492C138.245 113.453 138.237 113.411 138.238 113.38C138.24 113.354 138.246 113.344 138.25 113.339L138.251 113.338C139.01 112.382 139.739 111.427 140.465 110.462L140.466 110.46C140.821 109.986 141.164 109.522 141.508 109.043C141.596 108.924 141.684 108.803 141.766 108.688L141.768 108.686C141.847 108.576 141.921 108.473 141.994 108.373C142.104 108.244 142.199 108.116 142.289 107.982L142.628 107.638L142.494 107.094C142.476 107.021 142.445 106.908 142.391 106.791C142.34 106.676 142.274 106.525 142.19 106.368C142.134 106.249 142.077 106.129 142.022 106.014L142.021 106.012C141.96 105.885 141.902 105.765 141.848 105.649H141.849L141.843 105.638C141.597 105.124 141.337 104.613 141.079 104.12C140.57 103.12 140.022 102.156 139.467 101.206C139.428 101.138 139.412 101.081 139.408 101.045C139.405 101.02 139.407 101.008 139.407 101.005L139.51 100.74L139.457 100.46C139.444 100.393 139.453 100.351 139.459 100.331C139.467 100.309 139.476 100.298 139.482 100.293C139.488 100.288 139.496 100.282 139.514 100.279C139.531 100.276 139.574 100.272 139.649 100.298V100.298L139.661 100.302C140.218 100.488 140.754 100.757 141.332 101.074C141.464 101.146 141.6 101.222 141.74 101.3C142.189 101.55 142.675 101.82 143.167 102.052L143.17 102.054C144.138 102.506 145.481 102.97 146.867 102.423C147.941 102.002 148.796 101.15 149.431 100.516C149.523 100.424 149.611 100.337 149.694 100.256V100.257L149.697 100.253C150.02 99.9363 150.339 99.6213 150.656 99.3078C151.295 98.6768 151.928 98.052 152.57 97.4308L152.572 97.4293C152.656 97.3472 152.724 97.3162 152.755 97.3075C152.762 97.3056 152.767 97.3049 152.769 97.3046L152.771 97.3045L152.772 97.3045L152.772 97.3045L152.772 97.3045L152.773 97.3048C152.775 97.3051 152.779 97.3062 152.786 97.3094L152.795 97.3132L152.801 97.3161C152.803 97.3169 152.807 97.3195 152.813 97.3252C152.823 97.3349 152.835 97.3491 152.845 97.3664C152.854 97.3838 152.859 97.398 152.86 97.4058C152.86 97.4059 152.86 97.4061 152.86 97.4062L152.86 97.4075C152.628 98.7882 152.466 100.182 152.421 101.599C152.417 101.693 152.411 101.8 152.404 101.915C152.381 102.323 152.35 102.841 152.388 103.316C152.44 103.964 152.624 104.727 153.221 105.354L153.223 105.356C154.172 106.347 155.332 107.213 156.379 107.972L156.38 107.972C157.51 108.789 158.713 109.532 159.947 110.172C159.949 110.173 159.976 110.19 160.006 110.241C160.033 110.289 160.05 110.343 160.055 110.389C157.658 111.069 155.309 112.029 153.141 113.305L153.13 113.311L153.119 113.318C152.806 113.513 152.486 113.815 152.301 114.251V114.25L152.299 114.256C152.052 114.851 151.855 115.465 151.682 116.05H151.682L151.68 116.058C151.632 116.222 151.581 116.392 151.529 116.568C151.245 117.516 150.917 118.616 150.876 119.742C150.874 119.781 150.868 119.804 150.864 119.815C150.86 119.825 150.856 119.83 150.854 119.833C150.851 119.837 150.839 119.849 150.811 119.857C150.782 119.865 150.748 119.865 150.719 119.856C150.694 119.849 150.67 119.835 150.646 119.805L150.641 119.799C149.748 118.687 148.855 117.578 147.962 116.47L147.96 116.468L147.958 116.465C147.065 115.357 146.173 114.25 145.281 113.139L145.016 112.809L144.596 112.769ZM160.054 110.444C160.054 110.444 160.054 110.444 160.054 110.443L160.054 110.444Z" fill="black" stroke="white" stroke-width="2"/>
<path d="M153.406 101.607C153.463 100.243 153.605 98.8938 153.831 97.5446C153.917 97.0709 153.619 96.5541 153.179 96.3675C152.697 96.1522 152.215 96.3388 151.86 96.6833C150.896 97.6307 149.946 98.5781 148.982 99.5111C148.258 100.243 147.493 101.076 146.5 101.478C145.522 101.865 144.501 101.564 143.593 101.133C142.374 100.573 141.267 99.7838 139.977 99.3532C139.069 99.0374 138.304 99.7407 138.474 100.645C138.346 100.975 138.403 101.363 138.601 101.707C139.154 102.655 139.679 103.602 140.19 104.578C140.445 105.08 140.7 105.568 140.941 106.071C141.069 106.315 141.182 106.573 141.31 106.832C141.367 106.947 141.423 107.076 141.48 107.205C141.494 107.233 141.508 107.277 141.523 107.334C141.508 107.348 141.494 107.377 141.48 107.391C141.395 107.521 141.31 107.636 141.225 107.75C141.055 107.994 140.885 108.224 140.714 108.454C140.374 108.927 140.02 109.387 139.679 109.86C138.956 110.822 138.219 111.769 137.481 112.717C136.9 113.449 137.495 114.683 138.474 114.525C139.736 114.325 140.998 114.095 142.274 113.908C143.012 113.793 143.777 113.693 144.515 113.765C146.302 115.99 148.088 118.2 149.875 120.425C150.499 121.214 151.846 120.899 151.889 119.779C151.931 118.602 152.328 117.468 152.654 116.334C152.825 115.76 152.995 115.186 153.236 114.64C153.321 114.439 153.477 114.267 153.661 114.167C155.76 112.932 158.043 111.999 160.383 111.339C161.39 111.052 161.191 109.688 160.426 109.286C159.22 108.655 158.072 107.951 156.98 107.162C155.93 106.401 154.838 105.583 153.945 104.635C153.179 103.846 153.378 102.626 153.406 101.607ZM158.086 109.315C157.618 109.53 157.107 109.702 156.568 109.903C155.803 110.176 154.923 110.492 154.2 110.894L152.116 111.683C151.818 111.798 151.605 112.042 151.52 112.358L150.357 117.009C150.301 117.281 150.244 117.583 150.187 117.884C150.159 118.042 150.088 118.387 150.031 118.702C149.719 118.372 149.294 117.769 149.109 117.497C148.613 116.793 148.117 116.09 147.578 115.659L146.415 114.195C145.975 113.635 145.309 113.305 144.6 113.262C144.501 113.262 144.416 113.262 144.316 113.262L138.786 113.65C139.424 112.774 139.963 111.856 140.445 111.023C140.856 110.32 141.282 109.602 141.764 108.899L141.778 108.884C141.991 108.554 142.118 108.167 142.161 107.779C142.203 107.377 142.147 106.975 141.991 106.602L139.864 101.348C140.289 101.492 140.757 101.664 141.211 101.836C143.366 102.655 146.06 103.674 148.145 101.908L151.931 98.7216V99.1235C151.903 101.176 151.875 103.286 152.399 105.167C152.428 105.281 152.484 105.411 152.555 105.525C152.754 105.87 153.037 106.157 153.378 106.372L158.086 109.315Z" fill="black"/>
<path d="M152.541 105.525C152.47 105.411 152.428 105.281 152.385 105.167C151.861 103.286 151.889 101.162 151.917 99.1236V98.7217L148.145 101.908C146.061 103.674 143.366 102.655 141.197 101.837C140.743 101.664 140.289 101.478 139.864 101.348L142.005 106.631C142.161 107.004 142.218 107.406 142.175 107.808C142.119 108.181 141.991 108.569 141.778 108.899L141.764 108.913C141.282 109.616 140.856 110.334 140.445 111.038C139.963 111.87 139.424 112.774 138.786 113.664L144.317 113.277C144.416 113.262 144.501 113.262 144.6 113.277C145.309 113.305 145.976 113.65 146.415 114.21L147.578 115.674C148.117 116.104 148.613 116.822 149.11 117.511C149.308 117.784 149.734 118.387 150.031 118.717C150.102 118.401 150.159 118.057 150.187 117.899C150.244 117.597 150.301 117.296 150.358 117.023L151.52 112.372C151.591 112.057 151.818 111.813 152.116 111.698L154.2 110.908C154.924 110.492 155.803 110.191 156.569 109.918C157.108 109.731 157.618 109.545 158.086 109.329L153.364 106.387C153.023 106.171 152.754 105.87 152.541 105.525Z" fill="#F7C300"/>
</g>
<g clip-path="url(#clip1)">
<path d="M167.082 39.4046C165.194 36.4263 161.126 34.9709 157.988 36.9923C156.605 37.8818 155.289 38.8925 154.039 39.9571C154.664 30.1194 155.914 20.3491 155.541 10.4576C155.528 10.0128 155.462 9.59511 155.382 9.19083C155.076 6.09129 152.962 3.13998 149.013 3.03217L99.6598 1.59021C95.8572 -1.60366 88.4649 0.0134912 88.5712 6.50905C88.9701 30.3485 88.8504 54.188 88.2255 78.0141C87.2549 81.7739 89.3158 86.8006 94.3415 87.3531C112.397 89.3476 130.426 86.0863 148.508 87.0162C151.34 87.1644 153.228 85.7764 154.172 83.8493C155.781 82.3669 156.791 80.1703 156.406 77.4885C155.528 71.4107 154.717 65.3329 154.225 59.2416C155.794 58.8104 157.19 57.8401 157.988 56.2634C158.466 55.3335 158.972 54.4306 159.544 53.5546C159.597 53.4738 160.022 52.9078 160.182 52.6787C160.421 52.4092 160.82 51.951 160.793 51.9645C161.418 51.2772 162.083 50.6168 162.788 49.9969C162.947 49.8487 163.226 49.6331 163.359 49.5252C163.785 49.2153 164.224 48.9188 164.662 48.6358C167.627 46.7357 169.076 42.5445 167.082 39.4046Z" fill="white"/>
<path d="M119.378 77.5155L102.439 77.6098C97.9187 77.6367 97.9187 84.7514 102.439 84.7245L119.378 84.6301C123.898 84.6032 123.912 77.4885 119.378 77.5155Z" fill="#F7C300"/>
<path d="M115.868 4.16373C109.021 4.77017 102.253 3.46297 95.4192 4.21764C94.9406 4.20416 94.4619 4.27154 94.0099 4.43326C92.3878 4.78364 91.7097 6.00998 91.7496 7.33066C91.7363 7.43847 91.7097 7.5328 91.7097 7.65409C91.497 15.1604 91.4039 22.6666 90.9386 30.1594C90.6461 34.7279 97.6795 34.7144 97.9587 30.1594C98.3575 23.7717 98.4905 17.3839 98.65 10.9827C104.367 10.6458 110.138 11.7913 115.881 11.2927C120.335 10.9019 120.375 3.77292 115.868 4.16373Z" fill="#F7C300"/>
<path d="M157.43 42.4502C154.704 45.8866 151.261 48.6088 148.229 51.7623C145.995 54.0802 144.081 56.7619 141.94 59.1742C140.092 57.4358 138.058 55.9264 135.824 54.6192C131.902 52.3283 128.365 58.4734 132.274 60.7644C135.053 62.3815 137.327 64.3221 139.427 66.7748C140.73 68.2842 143.044 67.9742 144.387 66.7748C147.657 63.8505 150.13 59.9828 153.188 56.8024C156.22 53.6489 159.663 50.9267 162.389 47.4903C165.194 43.946 160.262 38.8789 157.43 42.4502Z" fill="#F7C300"/>
<path d="M153.335 79.8469C152.71 77.0034 152.538 74.1329 152.777 71.2355C152.963 68.958 149.453 68.9715 149.267 71.2355C149.067 73.7825 149.187 76.3161 149.586 78.8227C148.496 78.8496 147.379 78.7014 146.342 78.6475C144.547 78.5666 142.739 78.5127 140.944 78.4588C137.341 78.3645 133.737 78.324 130.148 78.351C122.875 78.3914 115.602 78.6609 108.343 79.173C104.381 79.4426 100.419 79.8064 96.4698 80.2107C97.0548 63.5271 97.3074 46.83 97.2011 30.1194C97.1745 25.3354 97.108 20.5378 97.0149 15.7537C96.975 13.4628 93.465 13.4628 93.5049 15.7537C93.8107 32.4778 93.7708 49.2018 93.3852 65.9124C93.2788 70.6965 93.1326 75.4805 92.9597 80.2781C92.9199 81.2753 93.5713 81.8413 94.3292 81.9626C94.3292 81.9761 94.3292 82.0031 94.3292 82.0165C94.3292 82.906 95.1402 83.8897 96.0842 83.7954C110.696 82.2591 125.401 81.6392 140.093 81.9896C142.114 82.0435 144.121 82.0974 146.142 82.1917C148.11 82.2726 150.198 82.5825 152.125 82.0165C153.056 81.7605 153.548 80.7902 153.335 79.8469Z" fill="black"/>
<path d="M153.349 20.955C153.203 18.0576 152.91 15.1736 152.498 12.3032C152.112 9.66186 150.956 7.84256 148.15 7.59999C142.367 7.10137 136.517 7.06094 130.72 6.79142C124.883 6.52189 119.059 6.25237 113.222 5.98284C106.947 5.69984 100.552 5.17426 94.4092 6.81837C92.2154 7.41132 93.1461 10.8478 95.3399 10.2548C100.326 8.92066 105.484 9.19019 110.59 9.43276C115.988 9.67534 121.386 9.93138 126.771 10.174C132.089 10.4165 137.421 10.6591 142.739 10.9017C144.055 10.9556 145.358 11.023 146.674 11.0769C147.153 11.1038 147.951 10.996 148.403 11.1847C148.735 11.3194 148.762 11.4946 148.868 11.9124C149.493 14.2303 149.56 16.8312 149.732 19.2031C150.145 25.2269 149.945 31.3182 149.068 37.2882C148.935 38.2315 149.307 39.2018 150.291 39.4714C151.115 39.7004 152.312 39.1883 152.445 38.2315C153.296 32.5311 153.628 26.7363 153.349 20.955Z" fill="black"/>
<path d="M161.087 40.6308C154.279 47.3959 147.791 54.4979 141.622 61.8694C139.734 60.4949 137.979 58.9586 136.357 57.2606C134.775 55.6165 132.302 58.1365 133.87 59.7806C136.038 62.0312 138.444 64.0391 141.023 65.7776C141.622 66.1818 142.672 66.074 143.151 65.4946C149.599 57.7187 156.42 50.2529 163.573 43.1374C165.182 41.5472 162.695 39.0272 161.087 40.6308Z" fill="black"/>
<path d="M139.547 22.8555C128.525 21.4811 117.383 21.3194 106.321 22.3704C105.377 22.4648 104.566 23.125 104.566 24.1491C104.566 25.0385 105.377 26.0221 106.321 25.9278C117.383 24.8768 128.525 25.0519 139.547 26.4129C140.491 26.5342 141.302 25.5101 141.302 24.6342C141.302 23.5697 140.491 22.9633 139.547 22.8555Z" fill="black"/>
<path d="M133.126 32.6932C128.565 32.4776 124.018 32.262 119.471 31.9925C114.911 31.723 110.377 31.5478 105.857 32.3563C104.926 32.518 104.394 33.6768 104.633 34.5392C104.899 35.5364 105.857 35.9541 106.787 35.7789C111.108 35.0109 115.536 35.2938 119.897 35.5633C124.311 35.8328 128.712 36.0349 133.126 36.2505C135.386 36.3583 135.386 32.801 133.126 32.6932Z" fill="black"/>
<path d="M141.13 42.3019C129.682 41.6686 118.195 41.8438 106.774 42.8275C104.54 43.0161 104.514 46.5869 106.774 46.3848C118.195 45.3877 129.682 45.2125 141.13 45.8593C143.39 45.9806 143.377 42.4232 141.13 42.3019Z" fill="black"/>
<path d="M120.535 54.2417C115.828 53.5411 111.082 53.3389 106.335 53.6893C105.391 53.7567 104.58 54.4573 104.58 55.468C104.58 56.3708 105.391 57.314 106.335 57.2466C110.749 56.9098 115.217 57.0176 119.604 57.6643C120.535 57.7991 121.492 57.4353 121.758 56.4247C121.984 55.5892 121.479 54.3765 120.535 54.2417Z" fill="black"/>
<path d="M129.11 65.0364C121.572 64.4031 113.993 64.3627 106.441 64.9017C104.194 65.0634 104.181 68.6207 106.441 68.459C113.993 67.9066 121.572 67.9605 129.11 68.5938C131.357 68.7824 131.344 65.2251 129.11 65.0364Z" fill="black"/>
</g>
<path d="M79.0899 39.4085C77.2019 36.4303 73.1335 34.9748 69.9957 36.9963C68.6129 37.8857 67.2967 38.8964 66.0469 39.961C66.6718 30.1234 67.9216 20.3531 67.5493 10.4615C67.536 10.0168 67.4695 9.59902 67.3897 9.19473C67.0839 6.09519 64.9699 3.14389 61.0211 3.03608L11.6676 1.59412C7.86505 -1.59976 0.472663 0.0173984 0.579028 6.51296C0.977898 30.3525 0.858237 54.192 0.233341 78.018C-0.737242 81.7779 1.32359 86.8045 6.34935 87.3571C24.4049 89.3515 42.4338 86.0903 60.5159 87.0201C63.3479 87.1684 65.2358 85.7803 66.1798 83.8532C67.7886 82.3708 68.7991 80.1742 68.4135 77.4924C67.536 71.4146 66.725 65.3368 66.233 59.2456C67.8019 58.8143 69.1979 57.844 69.9957 56.2673C70.4743 55.3375 70.9796 54.4346 71.5513 53.5586C71.6045 53.4777 72.0299 52.9117 72.1895 52.6826C72.4288 52.4131 72.8277 51.9549 72.8011 51.9684C73.426 51.2811 74.0908 50.6208 74.7954 50.0009C74.955 49.8526 75.2342 49.637 75.3671 49.5292C75.7926 49.2192 76.2314 48.9228 76.6701 48.6398C79.635 46.7396 81.0843 42.5485 79.0899 39.4085Z" fill="white"/>
<path d="M31.3857 77.5194L14.447 77.6137C9.92652 77.6407 9.92652 84.7554 14.447 84.7284L31.3857 84.6341C35.9062 84.6071 35.9195 77.4925 31.3857 77.5194Z" fill="#F7C300"/>
<path d="M27.8757 4.16764C21.0285 4.77407 14.261 3.46687 7.42701 4.22155C6.94837 4.20807 6.46972 4.27545 6.01767 4.43717C4.3956 4.78755 3.71752 6.01389 3.75741 7.33456C3.74411 7.44237 3.71752 7.53671 3.71752 7.65799C3.50479 15.1643 3.41172 22.6706 2.94637 30.1634C2.65387 34.7318 9.68727 34.7184 9.96648 30.1634C10.3654 23.7756 10.4983 17.3879 10.6579 10.9867C16.375 10.6498 22.1453 11.7952 27.889 11.2966C32.3431 10.9058 32.383 3.77683 27.8757 4.16764Z" fill="#F7C300"/>
<path d="M69.4376 42.4542C66.712 45.8906 63.2684 48.6129 60.237 51.7663C58.0033 54.0842 56.0887 56.766 53.9481 59.1782C52.1 57.4398 50.0658 55.9305 47.8321 54.6233C43.9099 52.3323 40.3733 58.4775 44.2822 60.7684C47.061 62.3856 49.3345 64.3262 51.4353 66.7789C52.7382 68.2882 55.0517 67.9782 56.3945 66.7789C59.6653 63.8545 62.1383 59.9868 65.1963 56.8064C68.2277 53.653 71.6713 50.9308 74.3969 47.4943C77.2023 43.9501 72.2696 38.883 69.4376 42.4542Z" fill="#F7C300"/>
<path d="M65.3432 79.8507C64.7183 77.0072 64.5454 74.1368 64.7847 71.2394C64.9709 68.9619 61.4608 68.9754 61.2747 71.2394C61.0753 73.7864 61.1949 76.3199 61.5938 78.8265C60.5035 78.8535 59.3867 78.7052 58.3496 78.6513C56.5547 78.5705 54.7465 78.5166 52.9516 78.4627C49.3485 78.3683 45.7454 78.3279 42.1555 78.3548C34.8828 78.3953 27.6101 78.6648 20.3506 79.1769C16.3885 79.4464 12.4264 79.8103 8.47761 80.2146C9.06262 63.5309 9.31524 46.8339 9.20888 30.1233C9.18229 25.3392 9.11581 20.5417 9.02274 15.7576C8.98285 13.4666 5.4728 13.4666 5.51268 15.7576C5.81848 32.4816 5.7786 49.2057 5.39302 65.9162C5.28666 70.7003 5.1404 75.4844 4.96756 80.2819C4.92767 81.2792 5.57916 81.8452 6.33701 81.9665C6.33701 81.9799 6.33701 82.0069 6.33701 82.0204C6.33701 82.9098 7.14805 83.8936 8.09204 83.7992C22.704 82.263 37.409 81.6431 52.1007 81.9934C54.1216 82.0473 56.1293 82.1012 58.1502 82.1956C60.118 82.2764 62.2054 82.5864 64.1333 82.0204C65.0639 81.7643 65.5559 80.794 65.3432 79.8507Z" fill="black"/>
<path d="M65.3567 20.9587C65.2104 18.0613 64.9179 15.1774 64.5057 12.307C64.1202 9.66564 62.9634 7.84635 60.1581 7.60378C54.3744 7.10515 48.5243 7.06473 42.7274 6.7952C36.8906 6.52568 31.0671 6.25615 25.2303 5.98663C18.9548 5.70362 12.5596 5.17805 6.41698 6.82215C4.22319 7.41511 5.15389 10.8515 7.34768 10.2586C12.3335 8.92445 17.4923 9.19398 22.5978 9.43655C27.9958 9.67912 33.3939 9.93517 38.7786 10.1777C44.0969 10.4203 49.4285 10.6628 54.7467 10.9054C56.063 10.9593 57.366 11.0267 58.6822 11.0806C59.1609 11.1076 59.9586 10.9998 60.4107 11.1884C60.7431 11.3232 60.7697 11.4984 60.876 11.9161C61.5009 14.2341 61.5674 16.835 61.7402 19.2068C62.1524 25.2307 61.953 31.322 61.0755 37.2919C60.9425 38.2353 61.3148 39.2056 62.2987 39.4751C63.123 39.7042 64.3196 39.1921 64.4526 38.2353C65.3035 32.5348 65.6359 26.74 65.3567 20.9587Z" fill="black"/>
<path d="M73.0945 40.6349C66.2871 47.4 59.7988 54.502 53.6297 61.8735C51.7417 60.4989 49.9866 58.9626 48.3646 57.2646C46.7824 55.6205 44.3094 58.1406 45.8783 59.7847C48.0455 62.0352 50.452 64.0432 53.0313 65.7816C53.6297 66.1859 54.68 66.0781 55.1587 65.4986C61.607 57.7228 68.4277 50.2569 75.5808 43.1415C77.1896 41.5513 74.7033 39.0312 73.0945 40.6349Z" fill="black"/>
<path d="M51.5551 22.8595C40.533 21.4851 29.3912 21.3234 18.3292 22.3744C17.3853 22.4687 16.5742 23.129 16.5742 24.1531C16.5742 25.0424 17.3853 26.0261 18.3292 25.9317C29.3912 24.8807 40.533 25.0559 51.5551 26.4168C52.4991 26.5381 53.3101 25.514 53.3101 24.6382C53.3101 23.5737 52.4991 22.9673 51.5551 22.8595Z" fill="black"/>
<path d="M45.1338 32.6972C40.5734 32.4816 36.0262 32.266 31.4791 31.9965C26.9187 31.727 22.3849 31.5518 17.8644 32.3603C16.9337 32.522 16.4018 33.6809 16.6412 34.5432C16.9071 35.5404 17.8644 35.9581 18.7951 35.7829C23.1162 35.0149 27.5436 35.2978 31.9046 35.5673C36.3187 35.8368 40.7196 36.0389 45.1338 36.2545C47.394 36.3623 47.394 32.805 45.1338 32.6972Z" fill="black"/>
<path d="M18.4915 44.5902C22.4712 44.8015 26.4393 45.0129 30.4074 45.2781C34.3871 45.5434 38.3436 45.7143 42.2874 44.9016C43.0993 44.739 43.5622 43.5797 43.3524 42.7176C43.1193 41.7207 42.2835 41.3038 41.4716 41.4799C37.7018 42.252 33.838 41.9731 30.0323 41.7077C26.1802 41.4423 22.3398 41.2443 18.4877 41.0329C16.5152 40.9272 16.519 44.4845 18.4915 44.5902Z" fill="black"/>
<g clip-path="url(#clip2)">
<path d="M79.0899 139.409C77.2019 136.43 73.1335 134.975 69.9957 136.996C68.6129 137.886 67.2967 138.896 66.0469 139.961C66.6718 130.123 67.9216 120.353 67.5493 110.462C67.536 110.017 67.4695 109.599 67.3897 109.195C67.0839 106.095 64.9699 103.144 61.0211 103.036L11.6676 101.594C7.86505 98.4002 0.472663 100.017 0.579028 106.513C0.977898 130.352 0.858237 154.192 0.233341 178.018C-0.737242 181.778 1.32359 186.805 6.34935 187.357C24.4049 189.352 42.4338 186.09 60.5159 187.02C63.3479 187.168 65.2358 185.78 66.1798 183.853C67.7886 182.371 68.7991 180.174 68.4135 177.492C67.536 171.415 66.725 165.337 66.233 159.246C67.8019 158.814 69.1979 157.844 69.9957 156.267C70.4743 155.337 70.9796 154.435 71.5513 153.559C71.6045 153.478 72.0299 152.912 72.1895 152.683C72.4288 152.413 72.8277 151.955 72.8011 151.968C73.426 151.281 74.0908 150.621 74.7954 150.001C74.955 149.853 75.2342 149.637 75.3671 149.529C75.7926 149.219 76.2314 148.923 76.6701 148.64C79.635 146.74 81.0843 142.549 79.0899 139.409Z" fill="white"/>
<path d="M31.3857 177.519L14.447 177.614C9.92652 177.641 9.92652 184.755 14.447 184.728L31.3857 184.634C35.9062 184.607 35.9195 177.492 31.3857 177.519Z" fill="#F7C300"/>
<path d="M27.8757 104.168C21.0285 104.774 14.261 103.467 7.42701 104.222C6.94837 104.208 6.46972 104.275 6.01767 104.437C4.3956 104.788 3.71752 106.014 3.75741 107.335C3.74411 107.442 3.71752 107.537 3.71752 107.658C3.50479 115.164 3.41172 122.671 2.94637 130.163C2.65387 134.732 9.68727 134.718 9.96648 130.163C10.3654 123.776 10.4983 117.388 10.6579 110.987C16.375 110.65 22.1453 111.795 27.889 111.297C32.3431 110.906 32.383 103.777 27.8757 104.168Z" fill="#F7C300"/>
<path d="M69.4376 142.454C66.712 145.89 63.2684 148.613 60.237 151.766C58.0033 154.084 56.0887 156.766 53.9481 159.178C52.1 157.44 50.0658 155.93 47.8321 154.623C43.9099 152.332 40.3733 158.477 44.2822 160.768C47.061 162.385 49.3345 164.326 51.4353 166.779C52.7382 168.288 55.0517 167.978 56.3945 166.779C59.6653 163.854 62.1383 159.987 65.1963 156.806C68.2277 153.653 71.6713 150.931 74.3969 147.494C77.2023 143.95 72.2696 138.883 69.4376 142.454Z" fill="#F7C300"/>
<path d="M65.3432 179.851C64.7183 177.007 64.5454 174.137 64.7847 171.239C64.9709 168.962 61.4608 168.975 61.2747 171.239C61.0753 173.786 61.1949 176.32 61.5938 178.826C60.5035 178.853 59.3867 178.705 58.3496 178.651C56.5547 178.57 54.7465 178.517 52.9516 178.463C49.3485 178.368 45.7454 178.328 42.1555 178.355C34.8828 178.395 27.6101 178.665 20.3506 179.177C16.3885 179.446 12.4264 179.81 8.47761 180.215C9.06262 163.531 9.31524 146.834 9.20888 130.123C9.18229 125.339 9.11581 120.542 9.02274 115.758C8.98285 113.467 5.4728 113.467 5.51268 115.758C5.81848 132.482 5.7786 149.206 5.39302 165.916C5.28666 170.7 5.1404 175.484 4.96756 180.282C4.92767 181.279 5.57916 181.845 6.33701 181.966C6.33701 181.98 6.33701 182.007 6.33701 182.02C6.33701 182.91 7.14805 183.894 8.09204 183.799C22.704 182.263 37.409 181.643 52.1007 181.993C54.1216 182.047 56.1293 182.101 58.1502 182.196C60.118 182.276 62.2054 182.586 64.1333 182.02C65.0639 181.764 65.5559 180.794 65.3432 179.851Z" fill="black"/>
<path d="M65.3567 120.959C65.2104 118.061 64.9179 115.178 64.5057 112.307C64.1202 109.666 62.9634 107.846 60.1581 107.604C54.3744 107.105 48.5243 107.065 42.7274 106.795C36.8906 106.526 31.0671 106.256 25.2303 105.987C18.9548 105.704 12.5596 105.178 6.41698 106.822C4.22319 107.415 5.15389 110.852 7.34768 110.259C12.3335 108.925 17.4923 109.194 22.5978 109.437C27.9958 109.679 33.3939 109.935 38.7786 110.178C44.0969 110.42 49.4285 110.663 54.7467 110.906C56.063 110.959 57.366 111.027 58.6822 111.081C59.1609 111.108 59.9586 111 60.4107 111.189C60.7431 111.323 60.7697 111.499 60.876 111.916C61.5009 114.234 61.5674 116.835 61.7402 119.207C62.1524 125.231 61.953 131.322 61.0755 137.292C60.9425 138.235 61.3148 139.206 62.2987 139.475C63.123 139.704 64.3196 139.192 64.4526 138.235C65.3035 132.535 65.6359 126.74 65.3567 120.959Z" fill="black"/>
<path d="M73.0945 140.635C66.2871 147.4 59.7988 154.502 53.6297 161.873C51.7417 160.499 49.9866 158.962 48.3646 157.264C46.7824 155.62 44.3094 158.14 45.8783 159.784C48.0455 162.035 50.452 164.043 53.0313 165.781C53.6297 166.186 54.68 166.078 55.1587 165.498C61.607 157.723 68.4277 150.257 75.5808 143.141C77.1896 141.551 74.7033 139.031 73.0945 140.635Z" fill="black"/>
<path d="M51.5551 122.859C40.533 121.485 29.3912 121.323 18.3292 122.374C17.3853 122.469 16.5742 123.129 16.5742 124.153C16.5742 125.042 17.3853 126.026 18.3292 125.932C29.3912 124.881 40.533 125.056 51.5551 126.417C52.4991 126.538 53.3101 125.514 53.3101 124.638C53.3101 123.574 52.4991 122.967 51.5551 122.859Z" fill="black"/>
<path d="M45.1338 132.697C40.5734 132.482 36.0262 132.266 31.4791 131.997C26.9187 131.727 22.3849 131.552 17.8644 132.36C16.9337 132.522 16.4018 133.681 16.6412 134.543C16.9071 135.54 17.8644 135.958 18.7951 135.783C23.1162 135.015 27.5436 135.298 31.9046 135.567C36.3187 135.837 40.7196 136.039 45.1338 136.255C47.394 136.362 47.394 132.805 45.1338 132.697Z" fill="black"/>
<path d="M18.4915 144.59C22.4712 144.802 26.4393 145.013 30.4074 145.278C34.3871 145.543 38.3436 145.714 42.2874 144.902C43.0993 144.739 43.5622 143.58 43.3524 142.718C43.1193 141.721 42.2835 141.304 41.4716 141.48C37.7018 142.252 33.838 141.973 30.0323 141.708C26.1802 141.442 22.3398 141.244 18.4877 141.033C16.5152 140.927 16.519 144.485 18.4915 144.59Z" fill="black"/>
<path d="M68.9944 98.1018L68.9953 98.069L68.994 98.0363L68.9656 97.3186L68.9654 97.3132C68.9059 95.9883 68.1239 94.8316 66.895 94.2899V94.2899L66.8877 94.2868C65.6768 93.7643 64.2834 93.9656 63.2704 94.81V94.81L63.2664 94.8134L58.548 98.7887C58.5328 98.794 58.4928 98.8047 58.4148 98.8089C58.2597 98.8174 58.0343 98.7953 57.7298 98.7272C57.1185 98.5906 56.4023 98.3213 55.6419 98.0355L55.6275 98.03C55.6273 98.03 55.6272 98.0299 55.627 98.0298C55.6048 98.0215 55.5826 98.0131 55.5604 98.0047C54.873 97.7454 54.1637 97.4778 53.4592 97.2954L52.7754 97.1118C51.5082 96.7541 50.1455 97.135 49.2623 98.148C48.3881 99.1363 48.1512 100.527 48.6471 101.752L48.6481 101.755L50.9317 107.355C50.6556 107.789 50.3974 108.224 50.148 108.645C50.0763 108.766 50.0054 108.885 49.9349 109.003L49.9343 109.005C49.2195 110.206 48.6037 111.234 47.807 112.121C47.7081 112.225 47.6292 112.337 47.566 112.44C47.1967 113 47 113.645 47 114.325C47 115.251 47.3668 116.14 48.0132 116.796L48.0208 116.811L48.1539 116.936C48.4364 117.2 48.7513 117.387 49.0785 117.525C49.5826 117.747 50.1539 117.845 50.7081 117.805C50.7086 117.805 50.7092 117.805 50.7097 117.805L56.7497 117.383L57.4431 118.25L57.4476 118.256L57.4522 118.262C57.5615 118.394 57.675 118.509 57.8064 118.62L57.816 118.628L57.8258 118.636C57.9029 118.698 58.0332 118.835 58.2186 119.07C58.3951 119.294 58.5825 119.557 58.7824 119.839C59.1739 120.398 59.704 121.148 60.3677 121.764C61.038 122.387 61.9303 122.953 63.0577 123.003L63.0603 123.003C63.4959 123.022 63.943 122.956 64.328 122.832C65.4672 122.618 66.1284 121.851 66.5102 121.039C66.8579 120.3 67.0244 119.419 67.1552 118.728C67.1623 118.69 67.1693 118.653 67.1762 118.617L67.1793 118.6L67.1819 118.584C67.2156 118.368 67.2594 118.162 67.3004 117.969C67.3037 117.953 67.307 117.937 67.3103 117.922L68.0593 114.902C68.1265 114.876 68.2015 114.848 68.2877 114.817L68.3058 114.81C68.416 114.77 68.5415 114.724 68.6688 114.674C68.7582 114.642 68.8306 114.608 68.8685 114.589L68.8807 114.583L68.9242 114.569L69.0028 114.525C69.5176 114.241 70.0961 114.031 70.8221 113.768C70.8575 113.755 70.8934 113.742 70.9295 113.729C70.9586 113.719 70.9878 113.708 71.0171 113.698C72.295 113.239 73.8145 112.694 75.1409 111.511V111.511L75.1488 111.504C75.6169 111.078 75.8961 110.508 75.9652 109.902L75.9662 109.893L75.9671 109.884C76.0259 109.268 75.9273 108.651 75.6733 108.078L75.6702 108.071L75.6671 108.064C75.3814 107.444 74.9181 106.942 74.355 106.588L74.3516 106.586L69.1195 103.328C68.9214 102.146 68.9402 100.711 68.9662 99.1882L68.9944 98.1018ZM57.5961 112.769C56.7082 112.685 55.8466 112.805 55.1106 112.92C53.8399 113.108 52.5575 113.324 51.2991 113.539C51.2917 113.532 51.2786 113.518 51.2653 113.492C51.2448 113.453 51.2369 113.411 51.2385 113.38C51.2397 113.354 51.2463 113.344 51.2505 113.339L51.2508 113.338C52.0099 112.382 52.7388 111.427 53.4647 110.462L53.466 110.46C53.8208 109.986 54.1641 109.522 54.5085 109.043C54.5965 108.924 54.6836 108.803 54.7659 108.688L54.768 108.686C54.8466 108.576 54.9209 108.473 54.9942 108.373C55.1037 108.244 55.1989 108.116 55.289 107.982L55.6283 107.638L55.4939 107.094C55.4758 107.021 55.4448 106.908 55.3908 106.791C55.3404 106.676 55.2741 106.525 55.1899 106.368C55.1345 106.249 55.0768 106.129 55.0218 106.014L55.0205 106.012C54.9598 105.885 54.9022 105.765 54.8485 105.649H54.8486L54.8433 105.638C54.5966 105.124 54.3368 104.613 54.0789 104.12C53.5705 103.12 53.0216 102.156 52.4672 101.206C52.4282 101.138 52.4124 101.081 52.4078 101.045C52.4047 101.02 52.4067 101.008 52.4074 101.005L52.5097 100.74L52.457 100.46C52.4444 100.393 52.4525 100.351 52.4594 100.331C52.4666 100.309 52.4761 100.298 52.4821 100.293C52.4876 100.288 52.4965 100.282 52.5141 100.279C52.5308 100.276 52.5743 100.272 52.6488 100.298V100.298L52.6609 100.302C53.2183 100.488 53.7537 100.757 54.332 101.074C54.464 101.146 54.6004 101.222 54.7403 101.3C55.1893 101.55 55.6747 101.82 56.1675 102.052L56.1702 102.054C57.1383 102.506 58.481 102.97 59.8665 102.423C60.9412 102.002 61.7962 101.15 62.4313 100.516C62.5234 100.424 62.6109 100.337 62.6938 100.256V100.257L62.6971 100.253C63.0197 99.9363 63.3388 99.6213 63.6563 99.3078C64.2954 98.6768 64.9283 98.052 65.5704 97.4308L65.5719 97.4293C65.6564 97.3472 65.7241 97.3162 65.7552 97.3075C65.7622 97.3056 65.7668 97.3049 65.769 97.3046L65.7713 97.3045L65.7718 97.3045L65.7719 97.3045L65.772 97.3045L65.7734 97.3048C65.7748 97.3051 65.7789 97.3062 65.786 97.3094L65.7945 97.3132L65.8013 97.3161C65.8026 97.3169 65.8066 97.3195 65.8127 97.3252C65.8232 97.3349 65.8348 97.3491 65.8446 97.3664C65.8543 97.3838 65.8586 97.398 65.8601 97.4058C65.8601 97.4059 65.8602 97.4061 65.8602 97.4062L65.86 97.4075C65.6278 98.7882 65.4659 100.182 65.4214 101.599C65.4174 101.693 65.4111 101.8 65.4044 101.915C65.3806 102.323 65.3504 102.841 65.3884 103.316C65.4404 103.964 65.6245 104.727 66.2211 105.354L66.2229 105.356C67.1718 106.347 68.3319 107.213 69.3789 107.972L69.3799 107.972C70.5099 108.789 71.7131 109.532 72.9472 110.172C72.9494 110.173 72.9756 110.19 73.0055 110.241C73.0334 110.289 73.0498 110.343 73.0548 110.389C70.6577 111.069 68.309 112.029 66.1406 113.305L66.1296 113.311L66.1189 113.318C65.8061 113.513 65.4857 113.815 65.3013 114.251V114.25L65.2989 114.256C65.0516 114.851 64.8554 115.465 64.682 116.05H64.6819L64.6797 116.058C64.6324 116.222 64.5815 116.392 64.529 116.568C64.2455 117.516 63.9165 118.616 63.8757 119.742C63.8741 119.781 63.8675 119.804 63.8636 119.815C63.8597 119.825 63.8561 119.83 63.8542 119.833C63.8508 119.837 63.8391 119.849 63.8111 119.857C63.7816 119.865 63.7479 119.865 63.7186 119.856C63.6938 119.849 63.6696 119.835 63.6459 119.805L63.641 119.799C62.7478 118.687 61.8546 117.578 60.962 116.47L60.9599 116.468L60.9582 116.465C60.0653 115.357 59.173 114.25 58.2807 113.139L58.0164 112.809L57.5961 112.769ZM73.0542 110.444C73.0541 110.444 73.0542 110.444 73.0544 110.443L73.0542 110.444Z" fill="black" stroke="white" stroke-width="2"/>
<path d="M66.406 101.607C66.4627 100.243 66.6045 98.8938 66.8314 97.5446C66.9165 97.0709 66.6187 96.5541 66.1791 96.3675C65.697 96.1522 65.2148 96.3388 64.8603 96.6833C63.896 97.6307 62.9459 98.5781 61.9816 99.5111C61.2584 100.243 60.4927 101.076 59.5 101.478C58.5216 101.865 57.5006 101.564 56.593 101.133C55.3735 100.573 54.2674 99.7838 52.9769 99.3532C52.0694 99.0374 51.3036 99.7407 51.4738 100.645C51.3461 100.975 51.4029 101.363 51.6014 101.707C52.1544 102.655 52.6791 103.602 53.1896 104.578C53.4449 105.08 53.7001 105.568 53.9412 106.071C54.0688 106.315 54.1823 106.573 54.3099 106.832C54.3666 106.947 54.4234 107.076 54.4801 107.205C54.4943 107.233 54.5084 107.277 54.5226 107.334C54.5084 107.348 54.4943 107.377 54.4801 107.391C54.395 107.521 54.3099 107.636 54.2248 107.75C54.0547 107.994 53.8845 108.224 53.7143 108.454C53.374 108.927 53.0195 109.387 52.6791 109.86C51.9559 110.822 51.2185 111.769 50.4811 112.717C49.8997 113.449 50.4953 114.683 51.4738 114.525C52.7359 114.325 53.9979 114.095 55.2742 113.908C56.0116 113.793 56.7773 113.693 57.5147 113.765C59.3015 115.99 61.0883 118.2 62.875 120.425C63.499 121.214 64.8461 120.899 64.8887 119.779C64.9312 118.602 65.3283 117.468 65.6544 116.334C65.8246 115.76 65.9948 115.186 66.2359 114.64C66.3209 114.439 66.4769 114.267 66.6613 114.167C68.76 112.932 71.0431 111.999 73.3829 111.339C74.3897 111.052 74.1912 109.688 73.4255 109.286C72.2201 108.655 71.0715 107.951 69.9795 107.162C68.9302 106.401 67.8383 105.583 66.9449 104.635C66.1791 103.846 66.3777 102.626 66.406 101.607ZM71.0856 109.315C70.6177 109.53 70.1072 109.702 69.5683 109.903C68.8026 110.176 67.9234 110.492 67.2001 110.894L65.1156 111.683C64.8178 111.798 64.6051 112.042 64.52 112.358L63.3572 117.009C63.3005 117.281 63.2437 117.583 63.187 117.884C63.1586 118.042 63.0877 118.387 63.031 118.702C62.719 118.372 62.2936 117.769 62.1093 117.497C61.613 116.793 61.1166 116.09 60.5778 115.659L59.4149 114.195C58.9753 113.635 58.3089 113.305 57.5998 113.262C57.5006 113.262 57.4155 113.262 57.3162 113.262L51.7857 113.65C52.4239 112.774 52.9627 111.856 53.4449 111.023C53.8561 110.32 54.2815 109.602 54.7637 108.899L54.7779 108.884C54.9906 108.554 55.1182 108.167 55.1607 107.779C55.2033 107.377 55.1466 106.975 54.9906 106.602L52.8635 101.348C53.2889 101.492 53.7569 101.664 54.2106 101.836C56.3661 102.655 59.0604 103.674 61.145 101.908L64.9312 98.7216V99.1235C64.9029 101.176 64.8745 103.286 65.3992 105.167C65.4276 105.281 65.4843 105.411 65.5552 105.525C65.7537 105.87 66.0373 106.157 66.3777 106.372L71.0856 109.315Z" fill="black"/>
<path d="M65.5414 105.525C65.4705 105.411 65.4279 105.281 65.3854 105.167C64.8607 103.286 64.8891 101.162 64.9174 99.1236V98.7217L61.1454 101.908C59.0608 103.674 56.3665 102.655 54.1968 101.837C53.7431 101.664 53.2893 101.478 52.8639 101.348L55.0051 106.631C55.1611 107.004 55.2179 107.406 55.1753 107.808C55.1186 108.181 54.991 108.569 54.7783 108.899L54.7641 108.913C54.2819 109.616 53.8565 110.334 53.4453 111.038C52.9631 111.87 52.4243 112.774 51.7861 113.664L57.3166 113.277C57.4159 113.262 57.5009 113.262 57.6002 113.277C58.3092 113.305 58.9757 113.65 59.4153 114.21L60.5781 115.674C61.117 116.104 61.6133 116.822 62.1097 117.511C62.3082 117.784 62.7336 118.387 63.0314 118.717C63.1023 118.401 63.159 118.057 63.1874 117.899C63.2441 117.597 63.3008 117.296 63.3576 117.023L64.5204 112.372C64.5913 112.057 64.8182 111.813 65.116 111.698L67.2005 110.908C67.9237 110.492 68.8029 110.191 69.5687 109.918C70.1076 109.731 70.6181 109.545 71.086 109.329L66.3639 106.387C66.0235 106.171 65.7541 105.87 65.5414 105.525Z" fill="#F7C300"/>
</g>
<defs>
<clipPath id="clip0">
<rect width="82" height="96" fill="white" transform="translate(86 93)"/>
</clipPath>
<clipPath id="clip1">
<rect width="80" height="88" fill="white" transform="translate(88)"/>
</clipPath>
<clipPath id="clip2">
<rect width="81" height="96" fill="white" transform="translate(0 93)"/>
</clipPath>
</defs>
</svg>
