<svg width="120" height="120" viewBox="0 0 120 120" fill="none" xmlns="http://www.w3.org/2000/svg">
<path d="M25.7972 55.1773C25.8173 54.9567 25.8674 54.746 25.9477 54.5454L19.5786 54.4953C17.9136 54.4852 16.2587 54.4752 14.5937 54.4551C13.8013 54.4451 12.9989 54.4451 12.2065 54.4351C11.8053 54.4351 11.4142 54.425 11.013 54.425C10.9728 54.425 10.9227 54.425 10.8826 54.425C10.8625 54.8564 10.9026 55.2977 10.8926 55.6989C10.8826 56.5114 10.8826 57.3238 10.8826 58.1363C10.8826 59.039 10.8926 59.9318 10.8926 60.8345C15.4161 61.1354 19.9297 61.4363 24.4532 61.7272C24.7942 61.005 25.1152 60.2728 25.396 59.5205C25.5364 58.0862 25.6668 56.6317 25.7972 55.1773Z" fill="#59C69F"/>
<path d="M66.7197 57.5646C66.6295 56.6819 66.5994 55.7691 66.2283 54.9567C66.2082 54.9165 66.1781 54.8865 66.158 54.8463C63.149 54.8263 60.14 54.8062 57.131 54.7761C57.0809 54.8564 57.0207 54.9466 56.9806 55.0269C56.9003 55.1272 56.8401 55.2476 56.7699 55.3479C56.3487 57.9156 55.9675 60.4834 55.6466 63.0713C55.7469 63.2819 55.8572 63.4725 55.9976 63.643C59.4078 63.8236 62.808 63.9941 66.2182 64.1546C66.3887 63.9239 66.5292 63.6831 66.6495 63.4123C66.7498 62.1786 66.8501 60.9448 66.9504 59.7111C66.8702 58.9989 66.7899 58.2868 66.7197 57.5646Z" fill="#59C69F"/>
<path d="M41.8553 71.8479C41.6647 72.9512 41.4641 74.0546 41.2736 75.1579C44.5935 75.3184 47.9235 75.4889 51.2434 75.6494C51.3236 74.4658 51.3939 73.2722 51.4942 72.0886C51.6446 70.2932 51.8151 68.4977 52.0057 66.7023C48.8763 66.5318 45.7469 66.3512 42.6276 66.1606C42.427 68.0664 42.1763 69.9622 41.8553 71.8479Z" fill="#59C69F"/>
<path d="M91.3936 84.4661C91.4538 83.794 91.514 83.132 91.5742 82.46C91.6143 81.467 91.6644 80.474 91.7146 79.481C89.6384 79.5411 87.5621 79.6214 85.4859 79.7016C84.523 79.7317 83.5702 79.7518 82.6073 79.7718C82.5572 79.812 82.497 79.8521 82.4468 79.9022C82.2061 83.2323 81.9654 86.5725 81.7247 89.9026C81.7347 89.9226 81.7347 89.9527 81.7347 89.9728C81.7548 90.053 81.7848 90.1232 81.825 90.1934C84.9644 90.1834 88.0937 90.1734 91.2331 90.1634C91.3033 88.7892 91.3535 87.415 91.4237 86.0409C91.3736 85.9907 91.3334 85.9305 91.2833 85.8804C91.3033 85.3989 91.3435 84.9275 91.3936 84.4661Z" fill="#59C69F"/>
<path d="M107.191 55.9396C107.171 55.9295 107.151 55.9195 107.131 55.9095C105.757 55.1271 104.202 55.1271 102.667 55.1171C100.942 55.097 99.217 55.087 97.4919 55.0769C96.7496 55.0669 96.0074 55.0669 95.2652 55.0569C95.4959 55.3076 95.6564 55.6587 95.6463 56.1301C95.5862 59.0991 95.5059 62.0681 95.4156 65.0472C95.4357 65.0873 95.4558 65.1174 95.4758 65.1475C99.0164 65.2177 102.547 65.2678 106.088 65.2979C106.579 65.2979 106.95 65.4885 107.211 65.7794C107.221 65.7694 107.241 65.7493 107.251 65.7393C107.331 62.4794 107.321 59.2095 107.191 55.9396Z" fill="#59C69F"/>
<path d="M37.3919 81.0358C37.422 80.103 37.5023 79.1702 37.6026 78.2474C34.082 78.0869 30.5615 77.9163 27.0409 77.7559C26.7099 81.8984 26.399 86.051 26.1081 90.1936C26.1081 90.2337 26.0981 90.2738 26.0881 90.3139C28.2044 90.334 30.3208 90.344 32.4471 90.344C34.2425 90.344 36.0379 90.334 37.8332 90.324C37.5624 87.2346 37.3017 84.1452 37.3919 81.0358Z" fill="#59C69F"/>
<path d="M67.6525 90.2337C71.2633 90.2237 74.8742 90.2136 78.495 90.2036C78.7457 86.7431 78.9965 83.2826 79.2472 79.8121C75.6665 79.8322 72.0958 79.772 68.5251 79.6516C68.2242 83.1823 67.9334 86.703 67.6525 90.2337Z" fill="#59C69F"/>
<path d="M67.2513 22.3979C57.8432 22.2174 48.435 22.2374 39.0268 22.5083C34.5735 22.6387 30.1202 22.8092 25.6668 23.0399C21.1934 23.2706 16.4392 23.1101 12.1363 24.5143C7.45231 26.039 9.44829 33.9429 14.1624 32.4083C18.2246 31.0843 22.9387 31.3551 27.1513 31.1444C31.6046 30.9238 36.0579 30.7533 40.5113 30.6429C49.428 30.4122 58.3346 30.4022 67.2513 30.5727C72.166 30.683 72.166 22.4982 67.2513 22.3979Z" fill="#59C69F"/>
<path d="M1.4343 10.9731L1.4443 11.0231L1.4343 10.9331V10.9731Z" fill="black"/>
<path d="M114.142 100.625C114.232 100.465 114.262 100.294 114.282 100.174C114.754 97.646 115.095 95.6801 115.375 93.8144C115.977 89.8123 116.469 85.6196 116.88 80.9955C117.702 71.6472 118.114 62.1183 118.515 52.9003L118.565 51.6265C118.675 49.169 118.786 46.7116 118.896 44.2541L119.779 25.738C119.799 25.3067 119.829 24.8553 119.849 24.4039L119.859 24.2836C120.1 20.2012 120.37 15.5872 117.562 12.9793C117.291 12.7285 117.01 12.6082 116.699 12.6082C116.469 12.6082 116.278 12.6683 116.158 12.7285L116.067 12.7686C116.007 12.7987 115.947 12.8088 115.877 12.8088L5.98793 16.9112C5.75723 16.9212 5.55663 16.9814 5.37609 17.0918C5.346 17.1118 5.31591 17.1218 5.27579 17.1419L5.07519 17.2121C5.0451 17.2221 5.00498 17.2322 4.96486 17.2422C4.37309 17.3124 3.72114 17.7237 3.6409 18.6364L3.58072 19.3887C3.40018 21.6757 3.2397 23.9726 3.07922 26.2596C2.91874 28.5565 2.77832 30.8535 2.6379 33.1504C2.49748 35.4474 2.37712 37.7544 2.26679 40.0514C2.15646 42.3584 2.04613 44.6654 1.95586 46.9623C1.86559 49.2693 1.78534 51.5763 1.7051 53.8833C1.63489 56.1903 1.57471 58.4973 1.52456 60.8143C1.47441 63.1213 1.43429 65.4283 1.4042 67.7353C1.37411 70.0423 1.35405 72.3493 1.35405 74.6563C1.34402 76.9633 1.35405 79.2703 1.36408 81.5773C1.37411 83.8843 1.4042 86.1813 1.43429 88.4883C1.45435 89.6418 1.47441 90.7852 1.49447 91.9387L1.53459 93.6639C1.53459 93.7743 1.53459 93.8947 1.53459 94.015C1.52456 94.4363 1.52456 94.9077 1.67501 95.339C1.88565 95.9308 2.24673 96.0311 2.4373 96.0412C3.09928 96.0412 3.58072 95.1986 3.72114 94.8576C4.03207 94.1354 4.17249 93.2527 4.1424 92.2396C3.75123 75.86 3.95183 59.2596 4.73417 42.89C4.76426 42.228 4.81441 41.6462 5.11531 41.245C5.49645 40.7234 6.23868 40.6131 6.97087 40.5429C42.8282 37.1125 79.2472 35.3672 115.235 35.3672C115.646 35.3672 116.118 35.317 116.328 35.5377C116.509 35.7182 116.519 36.1094 116.509 36.4605C116.158 56.4712 114.834 76.6825 112.567 96.5427C112.487 97.2348 112.366 98.0071 111.885 98.3181C111.584 98.5187 111.153 98.5086 110.782 98.4986L8.71609 96.5226C8.41519 96.5126 8.11429 96.5026 7.81339 96.4925C7.13135 96.4624 6.42925 96.4323 5.73717 96.4825C4.93477 96.5427 4.2427 97.0141 3.73117 97.4254C3.65093 97.4855 3.57069 97.5557 3.50048 97.636C3.38012 97.7564 3.29988 97.8867 3.2397 98.0372C3.06919 98.4886 3.24973 99.0603 3.6409 99.3612C4.03207 99.6621 4.49345 99.6421 4.87459 99.632H5.08522L9.24768 99.6421C11.354 99.6421 13.4603 99.6521 15.5666 99.6621C17.6829 99.6722 19.7993 99.6822 21.9156 99.6922C24.0319 99.7023 26.1583 99.7223 28.2746 99.7424C30.8022 99.7624 33.3298 99.7925 35.8573 99.8226C40.0499 99.8728 44.2525 99.933 48.445 99.9931C52.6576 100.063 56.8702 100.134 61.0929 100.224C65.3155 100.314 69.5482 100.404 73.7708 100.515C78.0035 100.625 82.2362 100.735 86.4688 100.856C90.7015 100.976 94.9342 101.117 99.1669 101.257C101.283 101.327 103.4 101.407 105.516 101.478L108.685 101.598C109.016 101.608 109.347 101.638 109.678 101.658C110.15 101.698 110.641 101.728 111.123 101.728C111.293 101.728 111.474 101.728 111.644 101.708C112.477 101.658 113.189 101.417 113.761 101.016C113.901 100.926 114.041 100.806 114.142 100.625ZM116.338 32.5185H115.817C114.934 32.5185 114.031 32.5185 113.129 32.5185C106.8 32.5185 99.9191 32.5988 92.186 32.7492C63.8311 33.321 34.9948 35.0061 6.49946 37.7644L6.41922 37.7745L5.68702 37.9149C5.52654 37.945 5.346 37.8948 5.22564 37.7644C5.09525 37.634 5.03507 37.4635 5.0451 37.2729L5.08522 36.5307C5.39615 30.8234 5.72714 25.6778 6.08823 20.8231L6.12835 20.3015C6.14841 19.9905 6.3791 19.7498 6.66997 19.7398L115.987 15.6474C116.218 15.6273 116.388 15.7577 116.499 15.9583L116.659 16.2793C117.512 17.9544 117.442 19.9705 117.391 21.5954C117.321 23.7118 117.221 25.7681 117.091 28.2355L117.05 29.038C117.01 29.8203 116.97 30.5927 116.93 31.3751L116.9 31.9368C116.88 32.2678 116.629 32.5185 116.338 32.5185Z" fill="black"/>
<path d="M91.3434 104.136C76.4689 103.915 61.5944 103.684 46.7299 103.464C44.764 103.434 44.764 106.774 46.7299 106.804C61.6044 107.035 76.4789 107.255 91.3434 107.476C93.3194 107.506 93.3093 104.166 91.3434 104.136Z" fill="black"/>
<path d="M111.093 110.836C107.492 110.665 103.891 110.525 100.28 110.425C87.5722 110.064 74.8541 110.154 62.146 110.676C60.1902 110.756 60.1802 114.096 62.146 114.016C65.7468 113.865 69.3476 113.755 72.9584 113.675C85.6664 113.404 98.3845 113.574 111.083 114.176C113.058 114.266 113.048 110.926 111.093 110.836Z" fill="#59C69F"/>
<path d="M85.5762 116.072C84.7537 116.072 84.0516 116.844 84.0516 117.737C84.0516 118.64 84.7537 119.402 85.5762 119.402C89.2071 119.422 92.8379 119.623 96.4588 119.994C97.2812 120.084 97.9833 119.161 97.9833 118.329C97.9833 117.366 97.2812 116.744 96.4588 116.664C92.848 116.293 89.2071 116.092 85.5762 116.072Z" fill="black"/>
<path d="M67.0106 0.661951C66.479 -0.290938 65.1049 -0.180604 64.6636 0.802377C64.0016 2.28688 62.9986 4.11241 61.7047 5.14555C61.6546 5.10543 61.6044 5.05527 61.5643 5.01515L60.9123 4.43339C60.5613 4.12244 60.2203 3.8115 59.8692 3.50056C59.0869 2.79843 58.3146 2.0963 57.5322 1.4042C56.8201 0.762255 55.8773 0.992955 55.4159 1.83551C54.6235 3.27989 53.8412 4.7343 53.0488 6.17868C51.9054 4.91485 50.8522 3.5808 49.8893 2.14645C49.2474 1.19356 48.094 1.33399 47.5423 2.28688C47.0208 3.19965 46.4591 4.08232 45.8673 4.94494C45.6667 5.23582 45.4661 5.51667 45.2454 5.79752C45.2454 5.79752 45.2454 5.79752 45.2454 5.78749C45.2053 5.6571 44.9646 5.44646 44.8844 5.32609C43.9716 3.96196 42.8382 2.61788 41.1231 3.21971C40.3909 3.4805 39.7891 4.08232 39.3478 4.74433C38.9065 5.39631 38.6357 6.23886 38.1241 6.82063C37.9436 7.02123 37.9336 7.10148 37.7831 7.03127C37.4722 6.90087 37.1612 6.29905 36.9406 6.02822C36.3187 5.25588 35.6969 4.49357 35.075 3.72123C34.4331 2.92883 33.3799 3.45041 32.9587 4.15254C32.5875 4.77442 32.1863 5.37625 31.7751 5.95801C31.5845 6.22883 31.3739 6.56987 31.1432 6.87078L31.073 6.78051C30.9025 6.53977 30.732 6.30908 30.5615 6.06835C30.1803 5.54676 29.8092 5.02518 29.4281 4.5036C28.9166 3.80147 27.8534 3.52062 27.2817 4.33308C26.8303 4.965 26.389 5.59692 25.9376 6.22883C25.7471 6.49965 25.5565 6.77047 25.3559 7.0413C25.3258 7.08142 25.2456 7.18172 25.1453 7.30209C24.9146 6.99114 24.6739 6.6802 24.4432 6.36926C24.0119 5.78749 23.5706 5.21576 23.1393 4.634C22.4572 3.73126 21.374 3.78141 20.7922 4.77442C20.381 5.47655 19.9698 6.18871 19.5686 6.89084C19.3981 7.19175 19.2175 7.49266 19.047 7.80361C19.037 7.82367 19.0169 7.85376 19.0069 7.87382C18.8665 7.62306 18.7361 7.38233 18.6458 7.2419C18.2647 6.65011 17.8936 6.06835 17.5124 5.47655C16.9808 4.65406 15.9979 4.62397 15.366 5.30603C14.5435 6.17868 14.1423 7.52276 13.2497 8.30513C12.9889 8.53583 12.698 8.72641 12.4272 8.50574C11.9758 8.15467 11.7452 7.41242 11.3339 7.02123C10.3008 6.01819 8.74618 5.94798 7.84348 7.18172C7.46234 7.71333 7.24168 8.31516 6.80035 8.80665C6.38912 9.24799 5.90768 9.58902 5.37609 9.82975C3.76126 10.5519 4.62384 13.3805 6.2487 12.6583C7.59273 12.0665 8.72612 11.1337 9.53855 9.80969C9.60876 9.70939 9.65891 9.59905 9.71909 9.49875C9.79933 9.61911 9.85951 9.71942 9.84948 9.69936C10.2407 10.3212 10.6519 10.913 11.2737 11.2641C12.4773 11.9462 13.9116 11.5149 14.9247 10.6222C15.4964 10.1106 15.8976 9.45863 16.2988 8.79662C16.5997 9.26805 16.9006 9.73948 17.2015 10.2109C17.7531 11.0535 18.5455 11.7656 19.5585 11.4045C20.5014 11.0735 20.9627 10.0203 21.4542 9.16774L22.1363 7.98415C22.4171 8.35528 22.6879 8.71638 22.9688 9.0875C23.5505 9.85984 24.1724 10.7325 25.1954 10.7024C26.2085 10.6723 26.8103 9.83978 27.382 9.04738C27.6829 8.61607 27.9938 8.18476 28.2947 7.76349C28.5956 8.18476 28.9065 8.60604 29.2175 9.01729C29.8193 9.80969 30.5815 10.4617 31.5745 10.1708C32.4973 9.89996 33.059 9.00726 33.6206 8.22488C33.8513 7.90391 34.072 7.57291 34.2927 7.2419C34.7039 7.75346 35.1151 8.27504 35.5364 8.78659C36.2585 9.6492 37.1312 10.231 38.2244 10.0504C39.2375 9.88993 40.0098 9.09753 40.5715 8.21485C40.8824 7.72336 41.3438 6.26895 41.9255 6.08841C41.9456 6.08841 41.9456 6.07838 41.9556 6.07838C41.9656 6.08841 41.9757 6.08841 41.9857 6.09844C42.0659 6.13856 42.1462 6.27898 42.1963 6.35923C42.5072 6.75041 42.7279 7.21181 43.0489 7.603C43.7309 8.43552 44.6436 9.01729 45.6868 8.83674C46.7499 8.65619 47.3718 7.68324 47.9736 6.80057C48.2645 6.37929 48.5453 5.93795 48.8161 5.50664C49.9194 6.98111 51.123 8.37534 52.4069 9.66926C53.0889 10.3513 54.0919 10.0404 54.5232 9.23796C55.3356 7.74342 56.1481 6.25892 56.9605 4.76439C57.6626 5.39631 58.3647 6.02822 59.0768 6.66014C60.0799 7.56288 61.0628 8.71638 62.457 8.10452C63.48 7.65315 64.4028 6.43947 65.0949 5.5267C65.3757 5.15558 65.6365 4.76439 65.8872 4.37321C66.7097 5.81758 67.5422 7.26196 68.3947 8.68628C69.3576 10.2912 71.6244 8.65619 70.6615 7.0413C69.4278 4.92488 68.2042 2.79843 67.0106 0.661951Z" fill="black"/>
<path d="M82.7678 51.3056C82.3766 51.3156 82.0456 51.4561 81.7848 51.6868C77.8531 51.6567 73.9113 51.6266 69.9795 51.5965C69.7087 51.416 69.3877 51.3056 69.0768 51.3156C68.7458 51.3257 68.465 51.426 68.2343 51.5865L54.8041 51.4862L42.7781 51.3959C42.3067 51.1351 41.6848 51.1351 41.1733 51.3859C36.6096 51.3558 32.056 51.3156 27.4923 51.2856C22.9086 51.2555 18.3249 51.2153 13.7411 51.1853C11.9759 51.1752 9.09723 50.5533 8.04408 52.4591C7.54258 53.3619 7.69303 54.5655 7.683 55.5585C7.67297 56.7822 7.67297 57.9959 7.67297 59.2196C7.69303 69.7315 8.13435 80.2434 8.99693 90.7252C9.0872 91.8786 10.1002 92.3802 10.9628 92.2498C11.2437 92.7312 11.7752 93.0221 12.367 93.0622C24.3429 93.975 36.409 93.6039 48.4049 93.5638L84.6634 93.4434C91.4337 93.4233 98.214 93.4033 104.984 93.3732C105.767 93.3732 106.248 92.9018 106.429 92.31C106.609 92.3802 106.8 92.4203 106.98 92.4203C107.933 92.4002 108.465 91.6379 108.555 90.7552C109.789 78.6586 111.002 66.5017 110.33 54.3248C110.26 53.1011 109.147 52.6096 108.254 52.8302C106.549 51.9977 104.673 51.8573 102.788 51.8372C100.541 51.8172 98.2943 51.8071 96.0475 51.7871C91.9753 51.757 87.8931 51.7269 83.8209 51.6968C83.51 51.4561 83.1288 51.3056 82.7678 51.3056ZM69.498 67.585C73.0286 67.7354 76.5592 67.8759 80.0898 68.0063C79.8791 70.8549 79.6785 73.6935 79.4679 76.5421C76.168 76.5722 72.8681 76.5421 69.5683 76.4318C69.2974 76.4218 69.0367 76.4117 68.7659 76.4017C69.0166 73.4628 69.2573 70.5239 69.498 67.585ZM22.9086 90.2638C19.378 90.1935 15.8474 90.0531 12.3169 89.7823C12.2567 89.7823 12.1965 89.7923 12.1363 89.7923C11.7953 85.5394 11.5245 81.2765 11.3239 77.0136C15.4964 77.2042 19.6789 77.4048 23.8514 77.5953C23.5204 81.8081 23.1994 86.0209 22.9086 90.2337C22.9086 90.2537 22.9086 90.2638 22.9086 90.2638ZM24.1122 74.3455C19.8294 74.1449 15.5566 73.9443 11.2737 73.7437C11.2437 73.7437 11.2136 73.7537 11.1835 73.7537C11.1634 73.1619 11.1333 72.5801 11.1133 71.9883C11.023 69.3704 10.9628 66.7424 10.9327 64.1245C15.5867 64.4354 20.2406 64.7464 24.9046 65.0573C24.6237 68.1467 24.3629 71.2461 24.1122 74.3455ZM24.4532 61.7473C24.4231 61.8175 24.383 61.8977 24.3529 61.9679C24.0019 62.7102 23.6006 63.3923 22.8083 63.6531C22.1463 63.8737 21.4542 63.6631 20.8023 63.5227C18.0942 62.9208 15.376 62.5597 12.6278 62.2388C11.8354 62.1485 11.0431 61.8777 10.6218 61.0953C10.2707 60.4534 10.3008 59.671 10.3008 58.9488C10.2908 57.4442 10.371 55.9397 10.5115 54.4451C10.5917 53.5625 11.1434 52.8102 12.036 52.8102C12.5576 52.8102 13.0992 53.1612 13.3801 53.6527C16.028 53.753 18.6458 53.1612 21.2937 53.0609C22.0059 53.0309 22.718 53.0509 23.4201 53.1211C24.0921 53.1913 24.8444 53.2214 25.4361 53.6226C26.7501 54.5254 26.2486 56.7722 25.8975 58.0962C25.7671 58.5877 25.5966 59.0692 25.4161 59.5506C25.3459 60.3029 25.2757 61.0552 25.2055 61.8075C24.9447 61.7774 24.704 61.7573 24.4532 61.7473ZM38.7259 84.4762C38.6758 85.4391 38.6056 86.392 38.5153 87.3449C38.425 88.3179 38.3749 89.351 38.1642 90.3039C38.0439 90.8455 37.7129 91.347 37.2615 91.6279C36.6999 91.979 36.0981 91.8787 35.4862 91.7783C34.6437 91.6479 33.7811 91.5677 32.9286 91.5276C31.1934 91.4373 29.4381 91.5075 27.723 91.7683C26.6999 91.9288 25.8674 91.347 25.7972 90.1935C25.5164 85.9406 25.2957 81.6175 26.379 77.4549C26.7802 75.9203 28.5555 76.0406 29.1673 77.0738C29.1874 77.0738 29.2074 77.0738 29.2375 77.0738C31.9055 77.2041 34.5835 77.1139 37.2415 76.833C38.094 76.7428 38.736 77.6555 38.7661 78.468C38.8363 80.4841 38.8363 82.4802 38.7259 84.4762ZM38.6156 71.7877C38.425 72.861 38.2345 73.9342 38.0539 75.0075C36.1883 74.9172 34.3227 74.8269 32.4572 74.7367C30.732 74.6564 29.0169 74.5762 27.2917 74.4959C27.5424 71.4166 27.8032 68.3373 28.074 65.2579C31.8554 65.5087 35.6467 65.7394 39.428 65.9701C39.2274 67.916 38.9666 69.8519 38.6156 71.7877ZM39.739 62.7202C36.6898 62.5297 33.6407 62.3391 30.5916 62.1485C29.8494 62.0983 29.1172 62.0482 28.385 61.998C28.5956 59.7011 28.7962 57.4141 29.0169 55.1172C29.0369 54.9266 28.9968 54.736 28.9366 54.5655C29.0068 54.5655 29.0871 54.5655 29.1573 54.5655C32.8383 54.5956 36.5294 54.6157 40.2104 54.6457C40.08 57.3439 39.9496 60.0421 39.739 62.7202ZM50.9525 81.3267C50.8923 82.9315 50.8623 84.5464 50.8322 86.1513C50.8121 87.5656 50.782 88.9297 50.4209 90.2938C47.3016 90.3039 44.1722 90.3139 41.0529 90.3239C40.7721 87.2245 40.5113 84.1151 40.6015 80.9956C40.6316 80.123 40.7018 79.2604 40.8021 78.4078C43.3698 78.5282 45.9375 78.6485 48.5052 78.7689C49.3578 78.809 50.2203 78.8491 51.0729 78.8893C51.0328 79.6917 50.9826 80.5042 50.9525 81.3267ZM52.8582 68.2169C52.7178 69.4206 52.4269 70.5941 52.2665 71.7978C52.2665 71.8279 52.2263 72.1488 52.2263 72.1488C52.2163 72.2692 52.2063 72.3996 52.1963 72.52C52.1762 72.8008 52.1662 73.0716 52.1662 73.3525C52.1461 73.9242 52.1561 74.506 52.0859 75.0777C51.9555 76.1008 51.2233 76.7127 50.2905 76.7929C49.779 76.8431 49.2575 76.8029 48.7459 76.7829C46.4089 76.7127 44.082 76.4118 41.7951 75.9203C41.1432 75.7798 40.6718 75.0175 40.6718 74.3455C40.6818 71.5169 41.1131 68.6783 41.9355 66.0002C42.2063 65.1275 42.9686 64.6561 43.8112 64.8567C43.9014 64.8768 43.9917 64.9169 44.0719 64.957C44.413 64.7464 44.8041 64.626 45.2154 64.5658C46.419 64.3953 47.3818 64.7865 48.4851 64.7263C48.6557 64.7163 48.8964 64.6661 49.2073 64.5959C49.4681 64.5357 49.7188 64.4655 49.9796 64.3853C50.6717 64.1746 51.3236 64.0543 51.9756 64.4655C53.1591 65.2078 53.0087 66.9731 52.8582 68.2169ZM52.3768 63.4524C49.2274 63.2819 46.0779 63.1014 42.9285 62.9108C43.1492 60.1725 43.2796 57.4242 43.3999 54.6758C45.095 54.6859 46.78 54.7059 48.4751 54.716C50.1903 54.726 51.9054 54.7461 53.6305 54.7561C53.1491 57.6448 52.7379 60.5436 52.3768 63.4524ZM64.4429 90.2437C60.8722 90.2537 57.3015 90.2638 53.7308 90.2738C54.2524 87.6759 54.0418 84.8874 54.122 82.2695C54.1521 81.1862 54.2123 80.113 54.2624 79.0297C57.9535 79.2102 61.6345 79.3908 65.3256 79.5412C65.0347 83.1121 64.7438 86.6729 64.4429 90.2437ZM65.5863 76.2713C61.8652 76.1309 58.1541 75.9704 54.4329 75.7999C54.4931 74.8169 54.5533 73.8239 54.6235 72.8409C54.774 70.8549 54.9746 68.8689 55.1852 66.8829C58.8863 67.0835 62.5974 67.274 66.2985 67.4446C66.0678 70.3835 65.8271 73.3324 65.5863 76.2713ZM67.0507 61.8275C67.0006 62.3993 66.8601 62.9309 66.6495 63.4224C66.6295 63.6731 66.6094 63.9339 66.5893 64.1847C66.469 64.1746 66.3386 64.1746 66.2182 64.1646C65.797 64.7263 65.2152 65.1476 64.4429 65.3081C62.8983 65.6391 61.2734 65.5087 59.7288 65.2579C58.4349 65.0473 56.8702 64.7363 55.9876 63.6531C55.8472 63.643 55.7068 63.643 55.5663 63.633C55.5864 63.4525 55.6165 63.2619 55.6366 63.0813C55.5964 63.0011 55.5563 62.9409 55.5262 62.8607C55.2354 62.0582 55.3958 61.1956 55.5162 60.3731C55.6366 59.5606 55.7669 58.7482 55.8873 57.9357C56.0277 57.0129 56.2885 56.1002 56.7599 55.3679C56.79 55.1774 56.8201 54.9767 56.8502 54.7862C56.9405 54.7862 57.0307 54.7862 57.121 54.7862C57.2414 54.5956 57.3617 54.415 57.5122 54.2546C58.1741 53.5825 59.0167 53.3719 59.8993 53.3117C60.6114 53.2616 61.3336 53.2615 62.0457 53.2615C62.788 53.2615 63.5502 53.2615 64.2824 53.422C65.0447 53.5825 65.7669 54.1141 66.148 54.8464C66.5392 54.8464 66.9304 54.8564 67.3316 54.8564C67.2012 56.4813 67.0708 58.0962 66.9304 59.7211C66.9404 59.8114 66.9504 59.9117 66.9605 60.002C67.0307 60.6038 67.1009 61.2157 67.0507 61.8275ZM80.3907 82.089C80.2101 83.4932 79.9895 84.8875 79.7186 86.2716C79.5782 87.0039 79.4278 87.7261 79.2673 88.4482C79.1269 89.1002 79.0065 89.7923 78.7558 90.4142C78.0637 92.0993 76.178 91.9489 74.7237 91.979C73.4098 91.999 72.0858 91.9288 70.7819 91.7583C70.0998 91.668 69.3376 91.6279 68.6856 91.3771C67.803 91.0261 67.2814 90.1935 67.2814 89.1905C67.2714 87.7561 67.4519 86.3017 67.5422 84.8674C67.6325 83.403 67.7227 81.9385 67.813 80.4741C67.8632 79.5914 68.465 78.8391 69.3376 78.8391C69.5582 78.8391 69.7689 78.8993 69.9695 79.0096C71.3536 78.8692 72.7377 78.7388 74.1319 78.5984C75.5963 78.458 77.0707 78.2273 78.5351 78.1671C79.4679 78.1269 80.3405 78.6686 80.5612 79.6917C80.7317 80.4239 80.491 81.3467 80.3907 82.089ZM80.3305 64.7363C76.8099 64.616 73.2894 64.4756 69.7588 64.3251L70.5311 54.8865C74.0316 54.9166 77.5321 54.9366 81.0326 54.9667C80.8019 58.2166 80.5712 61.4765 80.3305 64.7363ZM91.7647 87.0641C91.6744 87.8765 91.5942 88.6789 91.5039 89.4914C91.4237 90.2437 91.0726 90.8255 90.3806 91.0662C90.1699 91.1364 89.9091 91.1464 89.6584 91.0862C89.5581 91.1163 89.4578 91.1364 89.3575 91.1565C88.9964 91.2267 88.6253 91.2768 88.2542 91.2869C87.7226 91.3069 87.191 91.2568 86.6694 91.2066C86.4688 91.1866 86.2582 91.1565 86.0576 91.1364H86.0476C85.3154 91.2467 84.6434 91.347 84.0015 91.0461C83.9613 91.0461 83.9212 91.0562 83.8811 91.0562C83.861 91.0662 83.5902 91.1264 83.5902 91.1264C82.8279 91.3169 82.1158 90.9258 81.8049 90.2036C81.7648 90.2036 81.7246 90.2036 81.6845 90.2036C81.6946 90.1033 81.6945 90.013 81.7046 89.9127C81.6745 89.7723 81.6544 89.6218 81.6645 89.4713C81.5642 89.3209 81.4839 89.1504 81.4538 88.9598C81.1429 86.7531 81.183 84.5364 81.6043 82.3698C81.5943 82.0789 81.5943 81.778 81.6243 81.4871C81.7046 80.8653 81.9955 80.3236 82.4167 79.9124C82.4167 79.8722 82.4267 79.8321 82.4267 79.782C82.4769 79.782 82.527 79.782 82.5772 79.782C82.6675 79.7118 82.7477 79.6315 82.848 79.5713C83.9112 78.8993 85.2853 79.0899 86.4688 78.9595C86.6394 78.9394 86.7697 78.9194 87.0807 78.8592C87.4217 78.789 87.7527 78.7187 88.0837 78.6285C88.6955 78.458 89.2873 78.2473 89.8791 78.0066C90.7517 77.6455 91.8951 78.5883 91.8048 79.5814C91.7145 80.5443 91.6343 81.5172 91.544 82.4802C91.4939 83.6738 91.4337 84.8574 91.3836 86.051C91.6443 86.3118 91.8048 86.6729 91.7647 87.0641ZM91.8349 76.2011C90.4909 76.2412 89.1368 76.2914 87.7928 76.3415C86.0877 76.4017 84.3826 76.4519 82.6775 76.492C82.8781 73.7035 83.0787 70.9051 83.2893 68.1166C83.8811 68.1367 84.4628 68.1567 85.0546 68.1768C87.4016 68.247 89.7587 68.2971 92.1057 68.3473C92.0154 70.9652 91.9352 73.5832 91.8349 76.2011ZM106.659 76.6926C106.529 76.6525 106.399 76.6224 106.268 76.6124C102.537 76.181 98.7857 76.0908 95.0345 76.1309C95.1348 73.5631 95.215 70.9953 95.2953 68.4275C98.9061 68.4978 102.507 68.5479 106.118 68.578C106.569 68.578 106.91 68.4275 107.161 68.1868C107.05 71.0254 106.88 73.864 106.659 76.6926ZM95.9873 53.3619C96.4487 53.3619 96.8198 53.5725 97.0806 53.8935C98.5751 54.054 100.08 53.9536 101.574 53.8834C103.018 53.8132 104.834 53.6126 106.168 54.3248C107.482 55.0169 107.632 56.6017 107.893 57.9758C108.154 59.35 108.505 60.7543 108.505 62.1585C108.505 63.3722 108.204 64.967 107.241 65.7394C107.241 65.7695 107.241 65.7895 107.241 65.8196C107.231 65.8096 107.211 65.7895 107.201 65.7795C107.02 65.9199 106.82 66.0403 106.589 66.1105C105.907 66.3312 105.105 66.3412 104.393 66.4014C103.761 66.4515 103.139 66.4917 102.507 66.5017C101.183 66.5318 99.8489 66.4716 98.535 66.3111C97.8529 66.2309 97.0906 66.2108 96.4387 65.9801C95.9673 65.8196 95.6664 65.5187 95.4658 65.1476C95.4457 65.1476 95.4257 65.1476 95.4056 65.1476C95.4056 65.1175 95.4056 65.0774 95.4056 65.0473C95.215 64.6461 95.1448 64.1646 95.1047 63.6631C94.9141 60.7743 94.6834 57.8856 94.4527 55.0068C94.3825 54.1141 95.215 53.3619 95.9873 53.3619ZM94.9041 79.4108C98.7155 79.3607 102.517 79.4409 106.308 79.8823C106.338 79.8823 106.368 79.8823 106.388 79.8823C106.098 83.3127 105.757 86.7531 105.406 90.1735C105.255 90.1334 105.105 90.1033 104.924 90.1033C101.414 90.1133 97.9131 90.1334 94.4026 90.1434C94.6032 86.5625 94.7637 82.9917 94.9041 79.4108ZM86.7296 54.9968C88.7858 55.0169 90.852 55.0269 92.9081 55.047C92.6273 55.3178 92.4467 55.6889 92.4367 56.1904C92.3765 59.1494 92.2963 62.1184 92.216 65.0774C89.3274 65.0072 86.4287 64.937 83.5401 64.8366C83.7808 61.5467 84.0215 58.2667 84.2522 54.9768C85.0646 54.9868 85.8971 54.9968 86.7296 54.9968Z" fill="black"/>
<path d="M10.8826 58.1464C10.8826 57.3339 10.8826 56.5214 10.8926 55.709C10.8926 55.3078 10.8625 54.8664 10.8826 54.4351C10.9227 54.4351 10.9729 54.4351 11.013 54.4351C11.4142 54.4351 11.8053 54.4451 12.2065 54.4451C12.9989 54.4552 13.8013 54.4552 14.5937 54.4652C16.2587 54.4752 17.9136 54.4853 19.5786 54.5053L25.9477 54.5555C25.8674 54.7561 25.8173 54.9667 25.7972 55.1874C25.6568 56.6418 25.5264 58.0962 25.396 59.5506C25.5766 59.0692 25.7471 58.5877 25.8775 58.0962C26.2285 56.7722 26.7401 54.5153 25.4161 53.6226C24.8343 53.2214 24.0821 53.1913 23.4001 53.1211C22.698 53.0509 21.9858 53.0308 21.2737 53.0609C18.6258 53.1612 16.0079 53.753 13.36 53.6527C13.0792 53.1612 12.5375 52.8102 12.016 52.8102C11.1233 52.8102 10.5717 53.5625 10.4914 54.4451C10.351 55.9397 10.2808 57.4442 10.2808 58.9488C10.2808 59.671 10.2507 60.4433 10.6017 61.0953C11.033 61.8877 11.8254 62.1485 12.6077 62.2388C15.356 62.5597 18.0741 62.9309 20.7822 63.5227C21.4342 63.6631 22.1262 63.8737 22.7882 63.6531C23.5806 63.3923 23.9818 62.7202 24.3328 61.9679C24.3629 61.8977 24.4031 61.8175 24.4331 61.7473C19.9096 61.4464 15.3961 61.1555 10.8726 60.8546C10.8926 59.9418 10.8826 59.0491 10.8826 58.1464Z" fill="black"/>
<path d="M55.8973 57.9357C55.777 58.7482 55.6466 59.5607 55.5262 60.3731C55.3958 61.1956 55.2454 62.0582 55.5362 62.8607C55.5663 62.9409 55.6165 63.0111 55.6466 63.0813C55.9776 60.5035 56.3487 57.9257 56.7699 55.3579C56.2985 56.0901 56.0378 57.0029 55.8973 57.9357Z" fill="black"/>
<path d="M66.9404 59.7112C66.8401 60.9449 66.7398 62.1787 66.6395 63.4124C66.8501 62.9309 66.9905 62.3893 67.0407 61.8176C67.1009 61.2057 67.0307 60.6039 66.9705 59.992C66.9605 59.9018 66.9504 59.8115 66.9404 59.7112Z" fill="black"/>
<path d="M59.7288 65.2579C61.2734 65.5087 62.8983 65.6291 64.4429 65.3081C65.2052 65.1476 65.7869 64.7263 66.2182 64.1646C62.808 64.0041 59.4078 63.8336 55.9976 63.6531C56.8602 64.7364 58.4349 65.0473 59.7288 65.2579Z" fill="black"/>
<path d="M64.2925 53.422C63.5603 53.2615 62.798 53.2715 62.0558 53.2615C61.3436 53.2615 60.6215 53.2615 59.9093 53.3116C59.0367 53.3718 58.1842 53.5824 57.5222 54.2545C57.3717 54.4049 57.2413 54.5955 57.131 54.7861C60.14 54.8062 63.149 54.8262 66.158 54.8563C65.7769 54.1141 65.0547 53.5824 64.2925 53.422Z" fill="black"/>
<path d="M51.9856 64.4655C51.3337 64.0542 50.6817 64.1746 49.9897 64.3852C49.7389 64.4655 49.4781 64.5357 49.2173 64.5959C48.9064 64.6661 48.6657 64.7162 48.4952 64.7263C47.3919 64.7764 46.429 64.3852 45.2254 64.5658C44.8242 64.626 44.433 64.7463 44.082 64.957C44.0017 64.9168 43.9115 64.8767 43.8212 64.8567C42.9787 64.656 42.2164 65.1275 41.9456 66.0001C41.1131 68.6883 40.6918 71.5169 40.6818 74.3454C40.6818 75.0175 41.1532 75.7898 41.8052 75.9202C44.092 76.4117 46.429 76.7126 48.756 76.7828C49.2675 76.8029 49.7891 76.843 50.3006 76.7928C51.2234 76.7026 51.9656 76.1007 52.096 75.0776C52.1662 74.5059 52.1662 73.9241 52.1762 73.3524C52.1862 73.0716 52.1963 72.8007 52.2063 72.5199C52.2163 72.3995 52.2264 72.2691 52.2364 72.1488C52.2364 72.1488 52.2665 71.8378 52.2765 71.7977C52.437 70.5941 52.7178 69.4205 52.8683 68.2168C53.0087 66.9731 53.1591 65.2077 51.9856 64.4655ZM51.4942 72.0886C51.3939 73.2722 51.3237 74.4558 51.2434 75.6494C47.9134 75.4889 44.5935 75.3284 41.2736 75.1579C41.4641 74.0545 41.6647 72.9512 41.8553 71.8478C42.1763 69.9621 42.427 68.0664 42.6276 66.1706C45.757 66.3612 48.8864 66.5418 52.0057 66.7123C51.8151 68.4977 51.6346 70.2931 51.4942 72.0886Z" fill="black"/>
<path d="M81.6344 81.4671C81.5943 81.758 81.5943 82.0589 81.6143 82.3498C81.1931 84.5164 81.1529 86.7331 81.4639 88.9398C81.494 89.1303 81.5642 89.3009 81.6745 89.4513C81.6645 89.6018 81.6745 89.7522 81.7146 89.8927C81.9553 86.5626 82.1961 83.2224 82.4368 79.8923C82.0055 80.3036 81.7146 80.8452 81.6344 81.4671Z" fill="black"/>
<path d="M91.7045 79.481C91.6644 80.4741 91.6143 81.4671 91.5641 82.4601C91.6544 81.4972 91.7346 80.5242 91.8249 79.5613C91.9152 78.5683 90.7717 77.6154 89.8991 77.9865C89.3174 78.2272 88.7156 78.4379 88.1037 78.6084C87.7728 78.6987 87.4317 78.7789 87.1007 78.8391C86.7898 78.8993 86.6594 78.9193 86.4889 78.9394C85.3154 79.0698 83.9313 78.8792 82.8681 79.5513C82.7678 79.6114 82.6875 79.6917 82.5973 79.7619C83.5601 79.7418 84.513 79.7318 85.4759 79.6917C87.5521 79.6315 89.6283 79.5412 91.7045 79.481Z" fill="black"/>
<path d="M81.8049 90.1935C82.1258 90.9257 82.838 91.3069 83.5902 91.1163C83.5902 91.1163 83.861 91.0561 83.8811 91.0461C83.9212 91.0461 83.9613 91.0361 84.0014 91.0361C84.6333 91.337 85.3154 91.2467 86.0476 91.1264H86.0576C86.2582 91.1464 86.4688 91.1765 86.6694 91.1966C87.191 91.2567 87.7226 91.3069 88.2542 91.2768C88.6253 91.2567 88.9964 91.2066 89.3575 91.1464C89.4578 91.1264 89.5581 91.1063 89.6584 91.0762C89.9091 91.1364 90.1599 91.1264 90.3805 91.0561C91.0726 90.8154 91.4237 90.2336 91.5039 89.4814C91.5942 88.6689 91.6744 87.8665 91.7647 87.054C91.8048 86.6628 91.6443 86.3017 91.4036 86.0209C91.3434 87.395 91.2832 88.7692 91.213 90.1434C88.0837 90.1634 84.9443 90.1735 81.8049 90.1935Z" fill="black"/>
<path d="M95.4056 65.0472C95.4959 62.0782 95.5661 59.1092 95.6363 56.1302C95.6463 55.6688 95.4959 55.3177 95.2552 55.057C95.9974 55.067 96.7396 55.067 97.4818 55.077C99.207 55.087 100.932 55.0971 102.657 55.1171C104.192 55.1272 105.747 55.1372 107.121 55.9095C107.141 55.9196 107.161 55.9296 107.181 55.9396C107.321 59.2095 107.321 62.4694 107.241 65.7393C108.204 64.967 108.515 63.3722 108.505 62.1585C108.505 60.7542 108.154 59.35 107.893 57.9758C107.632 56.6016 107.482 55.0269 106.168 54.3247C104.834 53.6226 103.018 53.8232 101.574 53.8834C100.07 53.9536 98.5751 54.0539 97.0806 53.8934C96.8198 53.5725 96.4387 53.3618 95.9873 53.3618C95.215 53.3618 94.3926 54.1141 94.4628 54.9968C94.6935 57.8855 94.9242 60.7643 95.1147 63.653C95.1448 64.1646 95.2251 64.646 95.4056 65.0472Z" fill="black"/>
<path d="M95.4658 65.1476C95.6664 65.5187 95.9673 65.8196 96.4387 65.9801C97.0906 66.2108 97.8529 66.2309 98.5349 66.3111C99.8589 66.4616 101.183 66.5218 102.507 66.5017C103.139 66.4917 103.761 66.4515 104.392 66.4014C105.105 66.3412 105.907 66.3312 106.589 66.1105C106.82 66.0403 107.02 65.9199 107.201 65.7795C106.94 65.4987 106.569 65.3081 106.078 65.298C102.537 65.278 98.9963 65.2178 95.4658 65.1476Z" fill="black"/>
<path d="M37.2415 76.8429C34.5835 77.1238 31.9055 77.2141 29.2375 77.0837C29.2175 77.0837 29.1974 77.0837 29.1673 77.0837C28.5555 76.0505 26.7701 75.9302 26.379 77.4648C25.3057 81.6174 25.5264 85.9506 25.7972 90.2035C25.8775 91.367 26.71 91.9387 27.723 91.7782C29.4381 91.5174 31.1934 91.4472 32.9286 91.5375C33.7811 91.5776 34.6437 91.6579 35.4862 91.7883C36.0981 91.8886 36.6999 91.9889 37.2615 91.6378C37.7129 91.357 38.0439 90.8454 38.1642 90.3138C38.3749 89.3609 38.425 88.3278 38.5153 87.3548C38.6056 86.4019 38.6758 85.439 38.7259 84.4861C38.8262 82.4901 38.8363 80.484 38.756 78.4879C38.736 77.6654 38.084 76.7527 37.2415 76.8429ZM32.4471 90.3439C30.3308 90.3439 28.2145 90.3339 26.0881 90.3138C26.0981 90.2737 26.1082 90.2335 26.1082 90.1934C26.399 86.0408 26.71 81.8983 27.0409 77.7557C30.5615 77.9162 34.082 78.0867 37.6026 78.2472C37.5023 79.17 37.422 80.1028 37.3919 81.0357C37.2916 84.1351 37.5624 87.2345 37.8333 90.3238C36.0379 90.3339 34.2425 90.3339 32.4471 90.3439Z" fill="black"/>
<path d="M78.5451 78.1469C77.0808 78.2172 75.6063 78.4378 74.142 78.5782C72.7578 78.7187 71.3737 78.8491 69.9795 78.9895C69.7789 78.8892 69.5582 78.819 69.3476 78.819C68.475 78.819 67.8732 79.5713 67.823 80.4539C67.7328 81.9184 67.6425 83.3828 67.5522 84.8473C67.462 86.2716 67.2814 87.736 67.2914 89.1704C67.3015 90.1834 67.813 91.0059 68.6957 91.357C69.3476 91.6178 70.1099 91.6579 70.7919 91.7382C72.0958 91.9087 73.4198 91.9789 74.7337 91.9588C76.1881 91.9287 78.0737 92.0892 78.7658 90.3941C79.0165 89.7722 79.1269 89.0801 79.2773 88.4281C79.4378 87.7059 79.5883 86.9737 79.7287 86.2515C79.9895 84.8673 80.2101 83.4631 80.4007 82.0688C80.501 81.3266 80.7417 80.4038 80.5712 79.6615C80.3505 78.6585 79.4779 78.1068 78.5451 78.1469ZM78.485 90.2035C74.8741 90.2135 71.2633 90.2236 67.6425 90.2336C67.9334 86.7029 68.2142 83.1822 68.5051 79.6515C72.0758 79.7618 75.6565 79.832 79.2272 79.812C78.9865 83.2725 78.7357 86.743 78.485 90.2035Z" fill="black"/>
<path d="M106.689 45.8892C108.645 46.0998 108.926 42.8399 106.97 42.6293C103.159 42.218 99.3274 42.0174 95.4859 42.0275C94.6634 42.0275 93.9111 42.5691 93.8309 43.5019C93.7607 44.3144 94.3826 45.2873 95.205 45.2873C99.0365 45.2773 102.878 45.4779 106.689 45.8892Z" fill="black"/>
<path d="M107.963 20.2214C106.94 20.0207 105.787 20.2314 105.075 21.0338C104.944 21.1742 104.844 21.3247 104.764 21.4952C103.801 22.2274 103.189 23.4913 103.289 24.6648C103.359 25.5274 103.67 26.2697 104.262 26.9116C104.734 27.4232 105.406 27.7943 106.078 27.9749C107.632 28.3861 109.187 27.7542 110.17 26.5405C110.762 25.7983 111.313 24.9457 111.333 23.9727C111.353 23.0299 110.842 22.2375 110.2 21.5755C109.598 20.9536 108.826 20.3818 107.963 20.2214ZM108.224 23.9727C108.114 24.1733 107.993 24.3739 107.863 24.5645C107.763 24.6849 107.652 24.7952 107.542 24.8955C107.452 24.9557 107.361 25.0059 107.271 25.056C107.231 25.066 107.201 25.0761 107.161 25.0861C107.111 25.0861 107.05 25.0861 106.99 25.0861C106.91 25.066 106.84 25.046 106.76 25.0259C106.689 24.9858 106.619 24.9457 106.559 24.9056C106.519 24.8654 106.479 24.8253 106.439 24.7852C106.419 24.7551 106.398 24.725 106.378 24.6849C106.368 24.6448 106.358 24.6147 106.348 24.5746C106.348 24.5144 106.348 24.4642 106.348 24.404C106.368 24.3238 106.388 24.2536 106.409 24.1733C106.449 24.1031 106.479 24.0329 106.529 23.9727C106.569 23.9326 106.609 23.8825 106.659 23.8423C106.729 23.8022 106.79 23.7521 106.86 23.722C107.071 23.6217 107.261 23.411 107.391 23.1803C107.492 23.2305 107.592 23.2907 107.682 23.3508C107.863 23.5013 108.023 23.6618 108.174 23.8423C108.194 23.8724 108.204 23.9025 108.224 23.9226C108.234 23.9527 108.234 23.9627 108.224 23.9727Z" fill="black"/>
</svg>
