<svg width="120" height="120" viewBox="0 0 120 120" fill="none" xmlns="http://www.w3.org/2000/svg">
<path d="M33.0052 54.1693C30.3356 54.102 27.6547 54.0908 24.985 54.1469C23.6839 54.1693 22.3715 54.2142 21.0703 54.2815C20.386 54.3151 19.7018 54.36 19.0175 54.4049C18.9951 54.4049 18.9502 54.4049 18.9166 54.4049C19.0849 58.7233 19.2531 63.0305 19.4214 67.3489C19.4887 69.1211 20.7113 70.9046 22.5958 71.3308C32.0518 73.462 42.0238 73.1031 51.6929 73.3274C51.4349 67.1919 51.1769 61.0563 50.9301 54.932C45.7142 54.618 38.2324 54.3039 33.0052 54.1693Z" fill="#59C69F"/>
<path d="M31.7041 51.1407C37.4921 51.2417 45.5347 51.6006 51.3115 51.9483C51.4012 51.9483 51.4798 51.9708 51.5583 51.9932C52.4332 51.5333 53.8354 51.9483 53.8914 53.2607C54.1606 59.7327 54.4299 66.2047 54.6991 72.6655C56.1012 71.7009 56.6957 69.8502 56.4377 68.1116C55.7198 63.3108 55.5852 58.4877 55.8096 53.6533C55.9217 51.3763 53.7344 49.5816 51.4798 49.5255C42.0686 49.2788 32.6687 48.8413 23.2688 48.202C21.0703 48.0561 19.7467 49.2563 19.2868 50.793C19.1858 50.9837 19.1073 51.1968 19.0288 51.4099C20.386 51.3202 21.7545 51.2529 23.1118 51.208C25.9834 51.0959 28.8437 51.0846 31.7041 51.1407Z" fill="#59C69F"/>
<path d="M95.6975 102.637C96.9986 102.614 98.311 102.581 99.6122 102.536C100.296 102.513 100.981 102.48 101.665 102.446C101.889 102.435 102.473 102.446 102.843 102.412C102.876 102.379 102.921 102.345 102.966 102.323C102.742 100.057 102.529 97.791 102.304 95.5364C102.158 94.0783 102.013 91.9359 101.934 90.0291C91.7266 88.6158 81.0031 88.8962 70.6273 88.7167C67.2173 88.6606 65.6245 90.7133 66.0395 92.5977C66.735 95.7608 66.9369 98.9575 66.7911 102.154C72.8034 102.356 83.1119 102.536 87.6773 102.614C90.3469 102.67 93.0166 102.681 95.6975 102.637Z" fill="#59C69F"/>
<path d="M106.04 103.736C106.096 104.42 105.535 104.79 104.873 104.869C104.121 105.441 102.82 105.385 101.844 105.43C100.42 105.508 98.9953 105.564 97.5595 105.598C94.6992 105.676 91.8388 105.676 88.9784 105.643C84.1775 105.575 74.1943 105.373 67.6324 105.138C68.5297 105.889 69.9879 106.372 71.4574 106.405C81.7995 106.585 92.1192 106.921 102.428 107.392C104.839 107.505 106.298 106.607 106.791 105.474C107.116 105.059 107.296 104.566 107.262 103.983C107.049 100.382 106.847 96.7703 106.634 93.1697C106.578 92.2948 105.961 91.4199 104.94 90.8367C105.03 92.5304 105.153 94.2129 105.277 95.5365C105.546 98.2621 105.793 100.999 106.04 103.736Z" fill="#59C69F"/>
<path d="M77.795 5.80296C79.1411 5.83661 80.4983 5.88147 81.8668 5.92634C92.7137 7.19383 111.76 2.96514 112.916 17.7936C112.983 19.0835 113.095 20.351 113.185 21.6073C113.275 22.8747 113.342 24.131 113.319 25.3873C113.308 26.5426 113.151 27.7091 112.77 28.7972C113.678 28.3036 114.419 27.5409 114.867 26.3071C115.26 25.2303 115.339 24.0974 115.305 22.9533C115.282 22.2578 115.226 21.5624 115.159 20.8782C114.834 17.3449 114.43 13.5986 112.209 10.828C109.719 7.72101 105.546 6.58813 101.62 5.83661C95.0244 4.58034 88.3503 3.52597 81.62 3.46989C78.1876 3.43624 70.0889 3.0773 66.7911 6.13946C70.4366 5.79174 74.1158 5.69079 77.795 5.80296Z" fill="#59C69F"/>
<path d="M109.651 28.8309C110.201 28.0793 110.425 27.1708 110.504 26.2286C110.583 25.2864 110.504 24.3218 110.459 23.4469C110.369 19.1509 111.772 14.2267 108.249 12.118C99.085 7.90054 88.4961 8.59597 78.6026 8.73057C77.3575 8.6857 76.1124 8.66327 74.8674 8.66327C73.6223 8.66327 72.3772 8.6857 71.1321 8.71935C69.7972 8.76422 68.4624 8.83152 67.1388 8.93247C66.5667 8.97734 65.9386 8.99977 65.3441 9.11194C64.357 14.8437 63.8971 20.9792 64.8505 26.7109C65.0076 27.6643 65.546 28.4719 66.2863 29.1001C67.1724 30.0423 68.4961 30.648 70.2459 30.6143C78.3559 30.4797 86.477 30.3002 94.587 30.0871C98.6475 29.975 102.697 29.8628 106.757 29.7282C107.419 29.7058 108.115 29.6945 108.81 29.6721C109.113 29.4254 109.416 29.1561 109.651 28.8309ZM67.6548 13.2958C77.8623 12.7798 88.0923 12.7574 98.2998 13.2285C100.229 13.3182 100.24 16.3243 98.2998 16.2345C88.0923 15.7634 77.8623 15.7859 67.6548 16.3018C65.7142 16.4028 65.7254 13.3967 67.6548 13.2958ZM82.0911 20.9792C77.279 20.9231 72.4781 20.9455 67.666 21.0465C65.7254 21.0801 65.7254 18.0741 67.666 18.0404C72.4781 17.9507 77.279 17.9283 82.0911 17.9731C84.0317 17.9956 84.0205 21.0016 82.0911 20.9792ZM92.3772 26.924C84.1439 26.9913 75.8993 27.0586 67.666 27.1259C65.7254 27.1371 65.7254 24.1311 67.666 24.1199C75.8993 24.0526 84.1439 23.9853 92.3772 23.918C94.3178 23.9067 94.3065 26.9128 92.3772 26.924ZM105.782 21.383C102.495 21.4615 91.6705 21.3606 88.3839 21.0914C87.5426 21.0241 86.9145 20.4632 86.8808 19.5883C86.8472 18.8256 87.5987 18.018 88.3839 18.0853C91.6593 18.3657 102.484 18.4666 105.782 18.3769C106.623 18.3545 107.251 19.0836 107.285 19.88C107.33 20.71 106.567 21.3606 105.782 21.383Z" fill="#59C69F"/>
<path d="M91.6257 119.966C94.1607 119.977 96.7406 120 99.343 120C101.328 120 103.325 119.989 105.31 119.966C107.834 119.933 110.156 119.888 112.388 119.809C112.703 119.798 113.039 119.798 113.488 119.809C115.159 119.832 117.234 119.854 118.547 118.789C118.692 118.676 118.816 118.542 118.928 118.407C119.321 117.925 119.511 117.353 119.646 116.859C119.926 115.872 120.196 114.571 119.803 113.315C119.702 112.978 119.556 112.675 119.377 112.417C118.513 111.139 117.01 110.926 115.653 110.881L113.959 110.836C114.217 94.5381 114.206 78.1056 114.194 62.2116C114.194 57.8483 114.183 53.485 114.194 49.1329C114.194 47.7869 114.194 46.1156 113.376 44.6911C112.142 42.5487 109.472 42.5936 107.307 42.6385C106.769 42.6497 106.253 42.6609 105.804 42.6273C104.862 42.56 103.976 42.5039 101.485 42.4478C78.2549 41.9206 54.1494 41.6851 25.5795 41.7187C21.4741 41.7187 17.3687 41.7299 13.2744 41.7411C12.9716 41.7411 12.5565 41.7187 12.1303 41.6851C10.6496 41.5841 8.96707 41.4607 7.85658 42.2571C6.2974 43.3788 6.2974 45.6558 6.2974 47.17C6.31984 58.3082 6.30862 69.3005 6.2974 79.9339C6.28619 89.1428 6.27497 98.6546 6.2974 108.021C6.2974 108.211 6.31984 108.447 6.34227 108.694C6.39836 109.288 6.39836 109.591 6.38714 109.725C5.66925 109.669 4.95135 109.692 4.24468 109.77C3.3361 109.871 2.64064 110.073 2.05735 110.41C0.251402 111.419 -0.2758 113.92 0.128014 115.883C0.464526 117.476 1.76571 118.474 3.796 118.676C5.27665 118.822 6.80217 118.845 8.26039 118.867C8.93342 118.878 9.60644 118.889 10.2795 118.912C14.5644 119.047 18.8942 119.159 23.1567 119.248L25.1196 119.293C26.8583 119.327 28.5969 119.361 30.3356 119.394L30.8516 119.405C35.9778 119.495 41.4068 119.574 47.4416 119.641C62.4052 119.82 77.7389 119.91 91.2779 119.977L91.6257 119.966ZM59.7804 44.5902C59.7804 44.579 59.7916 44.5677 59.7916 44.5565C59.7916 44.5453 59.7916 44.5341 59.7916 44.5229V44.5117V44.5004C59.8028 44.4556 59.8701 44.2985 59.8926 44.2537C59.8926 44.2537 59.8926 44.2425 59.9038 44.2425L59.915 44.2312C59.9374 44.1976 59.9711 44.1639 59.9935 44.1303C60.016 44.0966 60.0496 44.063 60.072 44.0293C60.072 44.0293 60.072 44.0293 60.072 44.0181C60.0833 44.0069 60.0833 44.0069 60.0945 43.9957C60.173 43.9284 60.2403 43.8723 60.33 43.8162C60.3412 43.805 60.3525 43.805 60.3637 43.7938C60.4086 43.7714 60.4534 43.7489 60.4983 43.7377C60.5432 43.7153 60.588 43.6928 60.6329 43.6816C60.6553 43.6704 60.6778 43.6704 60.7002 43.6592C60.8012 43.648 60.9021 43.6255 61.0031 43.6143C61.0143 43.6143 61.0255 43.6143 61.0367 43.6143C61.1377 43.6143 61.2386 43.6368 61.3396 43.648C61.3508 43.648 61.362 43.648 61.3732 43.6592C61.3732 43.6592 61.3844 43.6592 61.3844 43.6704C61.4293 43.6928 61.5863 43.7489 61.6312 43.7714C61.6312 43.7714 61.6312 43.7714 61.6424 43.7714C61.6424 43.7714 61.6536 43.7714 61.6536 43.7826C61.6873 43.805 61.8331 43.9172 61.8556 43.9396C61.8668 43.9508 61.8668 43.9508 61.878 43.962C61.9116 43.9957 61.9453 44.0518 61.9565 44.0742C61.9677 44.0854 62.0126 44.1415 62.035 44.1864L62.0462 44.1976C62.0462 44.1976 62.0462 44.2088 62.0575 44.2088C62.0799 44.2537 62.1472 44.4107 62.1584 44.4556C62.1584 44.4556 62.1584 44.4556 62.1584 44.4668C62.1584 44.478 62.1584 44.4892 62.1696 44.4892C62.2033 44.7023 62.2257 44.8482 62.1696 45.0725C62.1584 45.1174 62.1248 45.1847 62.1135 45.2071C62.1023 45.2407 62.0799 45.2968 62.0575 45.3417C62.0575 45.3529 62.0462 45.3529 62.0462 45.3641C62.0126 45.409 61.9229 45.5436 61.8556 45.6109C61.7995 45.6558 61.7097 45.7231 61.6424 45.7679C61.6424 45.7679 61.6424 45.7679 61.6312 45.7679L61.62 45.7791C61.6088 45.7791 61.5976 45.7904 61.5976 45.7904C61.4966 45.8352 61.4069 45.8801 61.2947 45.9137C61.2835 45.9137 61.2723 45.925 61.2611 45.925C61.1713 45.9362 61.0704 45.9474 60.9806 45.9586H60.9694C60.947 45.9586 60.9245 45.9586 60.9021 45.9586H60.8909C60.7899 45.9698 60.689 45.9586 60.5432 45.925H60.5319C60.4422 45.8913 60.3637 45.8689 60.2852 45.824C60.2515 45.8016 60.1618 45.7343 60.173 45.7455C60.173 45.7455 60.0945 45.6894 60.0608 45.667C60.0608 45.667 60.0608 45.667 60.0496 45.6558C60.0272 45.6221 59.9823 45.5772 59.9711 45.5548C59.9487 45.5324 59.915 45.4875 59.8926 45.4539L59.8814 45.4426C59.8477 45.3641 59.8028 45.2744 59.7804 45.1959C59.7804 45.1959 59.7804 45.1959 59.7804 45.1847C59.7467 45.0837 59.7243 44.9828 59.7243 44.8818C59.7467 44.7696 59.7692 44.6799 59.7804 44.5902ZM9.22506 86.6079V84.7571C9.22506 78.9357 9.23628 73.1254 9.24749 67.304C9.24749 66.631 9.24749 65.958 9.25871 65.2962C9.25871 64.3764 9.26993 63.4679 9.26993 62.5593C9.30358 57.6576 9.34845 53.1485 9.40453 48.7852C9.40453 48.4487 9.41575 48.1234 9.41575 47.7869V47.4841C9.41575 46.654 9.42697 45.8016 9.46062 44.9379C16.6732 44.6238 18.2997 44.579 25.5795 44.6238C32.7809 44.6575 39.9823 44.7023 47.2061 44.7584C47.5201 45.5099 48.1146 46.1381 48.8886 46.5307C49.9655 47.0803 51.1432 47.0578 52.2762 47.0466L69.786 46.9793C70.9975 46.9793 72.265 46.9793 73.4204 46.3512C74.0149 46.0259 74.5084 45.5772 74.8449 45.0276C81.2274 45.1061 86.4546 45.1847 91.2555 45.2744L95.776 45.3641C100.689 45.4426 105.77 45.5324 110.751 45.925C110.964 45.9474 111.11 46.0147 111.132 46.0596C111.155 46.1044 111.155 46.2727 111.155 46.3736C111.132 47.3719 111.11 48.3702 111.087 49.3685C111.02 52.2063 110.953 55.1451 110.953 58.039L110.941 63.9053C110.941 66.945 110.93 69.9847 110.93 73.0245V73.6526C110.908 88.3352 110.885 106.517 110.852 110.78L110.19 110.757C107.296 110.679 104.402 110.6 101.497 110.533C94.0037 110.365 86.3761 110.241 79.0065 110.118L74.6655 110.051C74.2953 110.051 73.712 110.04 73.1848 110.365C72.7922 110.6 72.5791 110.937 72.366 111.251C72.3211 111.329 72.265 111.397 72.2089 111.464C71.7939 111.969 71.0087 112.081 70.4142 112.092C67.9128 112.126 65.3665 112.103 62.8987 112.092H62.5622C60.7787 112.081 58.9503 112.07 57.1444 112.07C56.6172 112.07 56.0788 112.081 55.5403 112.092H55.4394C53.8466 112.126 52.2089 112.159 50.6273 111.958C50.1898 111.901 50.0888 111.823 50.0888 111.823C50.0664 111.778 50.0664 111.632 50.0552 111.531C50.0328 111.195 49.9991 110.623 49.528 110.208C49.0905 109.826 48.5409 109.815 48.2492 109.815L47.0939 109.804C39.556 109.748 31.7602 109.692 23.9867 109.692H22.5509C18.367 109.692 14.3625 109.748 10.6496 109.815C10.5711 109.815 10.4926 109.815 10.4029 109.826C10.1449 109.815 9.98782 109.815 9.88687 109.815C9.88687 109.748 9.88687 109.658 9.89808 109.524C9.9093 109.378 9.9093 109.232 9.89808 109.12C9.85321 108.346 9.79713 107.561 9.74104 106.809C9.69618 106.259 9.65131 105.71 9.61766 105.171C9.20262 98.9687 9.21384 92.6873 9.22506 86.6079ZM28.2268 116.31C26.2414 116.276 24.2559 116.242 22.2705 116.22C16.0899 116.141 9.69618 116.063 3.41462 115.625C3.30245 115.614 3.23514 115.614 3.20149 115.614C3.17906 115.614 3.16784 115.614 3.16784 115.625C3.15662 115.603 3.13419 115.524 3.11175 115.356C3.02202 114.694 3.08932 114.021 3.30245 113.382C3.34731 113.247 3.36975 113.203 3.35853 113.203C3.41462 113.18 3.59409 113.158 3.65017 113.158C6.31984 112.877 9.0568 112.821 11.7601 112.776C12.6463 112.765 13.5212 112.743 14.4073 112.72C17.8734 112.664 21.5302 112.653 25.5795 112.675C32.7809 112.709 39.9823 112.754 47.2061 112.81C47.5201 113.562 48.1146 114.19 48.8886 114.582C49.9542 115.121 51.1096 115.109 52.2762 115.098L69.786 115.031C70.9975 115.031 72.265 115.031 73.4204 114.403C74.0149 114.078 74.5084 113.629 74.8449 113.079C81.1265 113.158 86.3536 113.236 91.2555 113.326L93.1175 113.36C100.05 113.494 107.094 113.674 113.925 113.842L114.733 113.864C115.361 113.876 116.012 113.898 116.606 113.999C116.819 114.033 116.898 114.078 116.898 114.055C116.909 114.078 116.92 114.134 116.931 114.257C116.954 114.549 116.954 114.851 116.92 115.143C116.887 115.491 116.819 115.85 116.707 116.186C116.662 116.332 116.629 116.399 116.64 116.399C116.584 116.411 116.449 116.422 116.404 116.433C109.674 117.061 102.82 117.016 96.1798 116.96L93.9139 116.949C86.6341 116.915 79.3542 116.87 72.0743 116.814C60.1057 116.736 44.3345 116.612 28.2268 116.31Z" fill="black"/>
<path d="M3.14541 78.6329C3.35853 78.7675 3.59409 78.8235 3.85208 78.8235C4.07642 78.8235 4.30077 78.7675 4.50267 78.6665C4.89527 78.4534 5.13083 78.072 5.15326 77.6121C5.27665 73.9443 5.1757 70.2428 4.82797 66.5974C4.76067 65.8795 4.23346 65.3635 3.56044 65.3635C3.21271 65.3635 2.85376 65.5318 2.59577 65.801C2.37143 66.0477 2.25926 66.3506 2.29291 66.6534C2.62942 70.2652 2.73038 73.9443 2.60699 77.5897C2.59577 78.0272 2.79768 78.4085 3.14541 78.6329Z" fill="black"/>
<path d="M117.784 83.8151C117.402 83.5571 116.875 83.5346 116.438 83.7478C116.023 83.9497 115.754 84.3422 115.72 84.8133C115.417 88.9523 115.44 93.1473 115.787 97.2863C115.821 97.7574 116.09 98.15 116.516 98.3519C116.707 98.4416 116.92 98.4865 117.122 98.4865C117.391 98.4865 117.638 98.408 117.851 98.2734C118.188 98.049 118.345 97.6789 118.311 97.2414C117.975 93.1361 117.952 88.9747 118.244 84.8694C118.289 84.4208 118.12 84.0394 117.784 83.8151Z" fill="#59C69F"/>
<path d="M15.7758 74.1349C15.731 75.3015 16.819 75.7613 17.6939 75.5146C18.8044 75.8062 19.9598 75.7613 21.1039 75.7389C22.5173 75.7053 23.9306 75.7277 25.344 75.795C28.1707 75.9296 30.9862 76.2212 33.8017 76.468C39.5224 76.9727 47.5314 77.2083 53.2745 77.1746C53.4652 77.1746 53.6334 77.141 53.7793 77.0849C54.3625 76.9391 54.8449 76.4792 54.8112 75.694C54.7664 74.6845 54.7215 73.675 54.6878 72.6655C54.0485 73.1142 53.2296 73.3722 52.2537 73.3498C52.0743 73.3498 51.8836 73.3385 51.7041 73.3385C51.7153 73.619 51.7265 73.8882 51.7378 74.1686C46.6228 74.1574 39.2532 73.9442 34.1606 73.4956C31.4685 73.26 28.7764 72.9796 26.0731 72.8338C24.727 72.7553 23.3698 72.7104 22.0237 72.7216C20.9581 72.7328 19.8588 72.8562 18.8044 72.6768C18.8269 69.7492 18.5913 66.8216 18.3894 63.9053C18.1651 60.7983 17.9519 57.6913 17.7276 54.5842C17.7725 54.5394 17.8061 54.5057 17.851 54.4609C18.1763 54.4272 18.6586 54.4272 18.9166 54.4272C18.8942 53.8888 18.8717 53.3392 18.8493 52.8008C18.8269 52.2848 18.9054 51.8362 19.0288 51.4211C18.9615 51.4211 18.8942 51.4211 18.8269 51.4324C17.851 51.4997 16.5498 51.4324 15.7983 52.139C15.1364 52.2287 14.5756 52.6998 14.6317 53.5635C14.8785 57.0071 15.114 60.4618 15.3608 63.9053C15.6076 67.304 15.9104 70.7138 15.7758 74.1349Z" fill="black"/>
<path d="M18.9166 54.4048C18.9503 54.4048 18.9951 54.4048 19.0176 54.4048C19.7018 54.3599 20.3861 54.3151 21.0703 54.2814C22.3715 54.2141 23.6727 54.1692 24.9851 54.1468C27.6547 54.0907 30.3356 54.1019 33.0053 54.1692C38.2324 54.2926 45.7142 54.6067 50.9414 54.932C51.1993 61.0675 51.4573 67.203 51.7041 73.3273C51.8836 73.3273 52.0743 73.3385 52.2538 73.3385C53.2296 73.361 54.0485 73.103 54.6879 72.6543C54.4186 66.1823 54.1494 59.7103 53.8802 53.2495C53.8241 51.9483 52.422 51.5221 51.5471 51.982C51.4686 51.9596 51.39 51.9483 51.3003 51.9371C45.5235 51.5894 37.4809 51.2305 31.6929 51.1295C28.8325 51.0734 25.9722 51.0847 23.1118 51.1856C21.7545 51.2305 20.3861 51.2978 19.0288 51.3875C18.8942 51.8025 18.8269 52.2624 18.8493 52.7672C18.8717 53.328 18.8942 53.8664 18.9166 54.4048Z" fill="black"/>
<path d="M62.1248 83.5009C61.9341 83.5009 61.7658 83.5345 61.62 83.5682C61.0367 83.6804 60.5544 84.0505 60.588 84.6674C60.9021 90.6011 61.2162 98.0265 61.519 103.96C61.5751 104.992 62.9773 105.329 63.8522 104.958C63.9307 104.97 64.0092 104.981 64.099 104.992C65.0861 105.037 66.2863 105.082 67.6323 105.138C67.0266 104.633 66.6565 104.016 66.7126 103.332C66.7462 102.939 66.7574 102.547 66.7799 102.143C65.9049 102.109 65.1197 102.087 64.4579 102.053C64.1887 97.3871 63.9195 91.218 63.6615 86.5406C68.7765 86.5518 81.4181 86.7089 86.5107 87.0229C89.2028 87.1912 91.8949 87.3931 94.5982 87.5052C95.9442 87.5613 97.3015 87.595 98.6476 87.5838C99.7132 87.5838 100.812 87.4828 101.867 87.6174C101.856 88.2904 101.878 89.1204 101.912 90.0066C102.327 90.0626 102.742 90.1187 103.157 90.186C103.852 90.287 104.447 90.5113 104.952 90.8029C104.862 89.0419 104.817 87.2697 104.884 85.8788C104.929 84.9478 103.841 84.5889 102.966 84.7796C101.856 84.5553 100.7 84.5777 99.5561 84.6001C98.1428 84.6226 96.7294 84.6001 95.3161 84.5553C92.4894 84.4543 89.6739 84.2188 86.8584 84.0281C81.1489 83.6579 67.8791 83.4785 62.1248 83.5009Z" fill="black"/>
<path d="M101.923 90.0403C102.001 91.9471 102.147 94.0895 102.293 95.5477C102.517 97.8134 102.731 100.079 102.955 102.334C102.91 102.367 102.876 102.39 102.832 102.424C102.473 102.457 101.889 102.446 101.654 102.457C100.969 102.491 100.285 102.524 99.601 102.547C98.2998 102.592 96.9986 102.625 95.6862 102.648C93.0166 102.693 90.3357 102.681 87.666 102.625C83.1007 102.547 72.7922 102.356 66.7798 102.166C66.7574 102.558 66.7462 102.951 66.7125 103.354C66.6677 104.039 67.0266 104.656 67.6323 105.16C74.1943 105.385 84.1663 105.587 88.9784 105.665C91.8388 105.71 94.6991 105.699 97.5595 105.62C98.9841 105.587 100.42 105.531 101.844 105.452C102.82 105.396 104.121 105.452 104.873 104.891C105.535 104.824 106.096 104.443 106.04 103.758C105.793 101.021 105.557 98.2958 105.31 95.5589C105.198 94.2353 105.064 92.5528 104.974 90.8591C104.469 90.5675 103.863 90.3431 103.179 90.2422C102.764 90.1525 102.338 90.0964 101.923 90.0403Z" fill="black"/>
<path d="M60.5768 38.1743C61.5863 38.5444 62.6183 38.3762 63.5605 37.8939C64.671 37.3218 65.6469 36.5142 66.7237 35.8973C67.5875 35.4038 68.4848 35 69.4719 34.8205C70.7058 34.5962 71.9958 34.6859 73.2409 34.7083C78.6475 34.8093 84.0541 35.0112 89.4607 34.9663C94.7889 34.9214 100.128 34.6186 105.389 33.7437C107.464 33.396 109.607 32.8127 111.188 31.3433C111.951 30.6254 112.456 29.7505 112.792 28.8083C111.648 29.4365 110.235 29.6047 108.81 29.672C107.666 30.4908 106.107 30.7825 104.772 31.018C99.9599 31.8368 95.0356 32.0948 90.1562 32.1621C84.5252 32.2406 78.8831 32.0163 73.2521 31.9154C70.717 31.8705 68.339 31.949 66.0283 33.1043C64.7832 33.7325 63.6503 34.5737 62.45 35.3028C62.4276 30.9956 62.4052 26.6772 62.3827 22.37C62.3715 20.0257 62.3042 17.6702 62.4613 15.3371C62.5398 14.1481 62.6968 12.9704 62.9885 11.8151C63.2128 10.8953 63.4484 9.8185 64.4018 9.40349C64.6935 9.26889 65.0187 9.20159 65.344 9.13429C65.3777 8.96604 65.4001 8.78657 65.4338 8.6071C65.6133 7.60882 66.1068 6.81243 66.8023 6.16187C66.4433 6.19552 66.0956 6.21795 65.7366 6.26282C64.514 6.39742 63.325 6.63297 62.3267 7.38448C61.2162 8.2033 60.7002 9.45957 60.3524 10.7495C59.6009 13.52 59.5448 16.4363 59.556 19.2966C59.556 24.6918 59.5897 30.0983 59.6233 35.4935C59.6121 36.4806 59.4551 37.7144 60.5768 38.1743Z" fill="black"/>
<path d="M65.4226 8.58468C65.3889 8.75293 65.3665 8.93239 65.3329 9.11186C65.9274 9.01091 66.5443 8.97726 67.1276 8.93239C68.4624 8.83144 69.786 8.76414 71.1209 8.71928C72.366 8.67441 73.6111 8.66319 74.8562 8.66319C76.1012 8.66319 77.3463 8.68563 78.5914 8.73049C88.4849 8.59589 99.0626 7.90046 108.238 12.1179C111.76 14.2267 110.358 19.1508 110.448 23.4468C110.504 24.3217 110.571 25.2975 110.493 26.2285C110.414 27.1707 110.19 28.0793 109.64 28.8308C109.405 29.1561 109.113 29.4253 108.788 29.6496C110.212 29.5823 111.626 29.4141 112.77 28.7859C113.151 27.7091 113.308 26.5314 113.319 25.3761C113.331 24.1198 113.275 22.8523 113.185 21.596C113.095 20.3285 112.983 19.0611 112.916 17.7824C111.76 2.9539 92.7249 7.18259 81.8668 5.91511C80.4983 5.87024 79.1411 5.82537 77.795 5.79172C74.1158 5.69077 70.4366 5.78051 66.7911 6.12822C66.0844 6.79001 65.6021 7.58639 65.4226 8.58468Z" fill="black"/>
<path d="M104.851 4.09803C107.105 4.84954 109.169 6.12824 110.897 7.76588C112.299 9.10067 114.43 6.98071 113.028 5.64593C110.975 3.69422 108.563 2.21362 105.894 1.28264C102.932 0.250704 99.8702 0.284354 96.7967 0.00393668C95.9891 -0.0633634 95.2936 0.744238 95.2936 1.50697C95.2936 2.38187 95.9891 2.93149 96.7967 3.01001C99.5337 3.25677 102.215 3.22312 104.851 4.09803Z" fill="black"/>
<path d="M61.3396 62.7726C62.1921 63.2549 63.0782 63.5465 64.0204 63.6811C64.929 63.8045 65.7591 63.625 66.5779 63.1651C67.3856 62.7165 68.1595 62.1108 68.6867 61.2695C69.1915 60.4731 69.4383 59.3963 69.3373 58.4093C69.214 57.1418 68.6867 56.1659 67.7221 55.5714C66.8247 55.0218 65.804 54.7414 64.7944 54.8424C64.5364 54.8648 64.2897 54.9882 64.0877 55.1676C63.8073 54.8087 63.3699 54.6405 62.9548 54.7751C61.4517 55.2574 59.8589 56.1211 59.399 58.0615C58.9391 60.0132 59.8253 61.9313 61.3396 62.7726ZM61.5527 58.8916V58.8804C61.5751 58.8131 61.5863 58.7233 61.6088 58.656C61.6088 58.6448 61.6088 58.6448 61.6088 58.6448C61.6424 58.5775 61.6649 58.5214 61.6985 58.4541C61.7097 58.4429 61.7097 58.4317 61.7097 58.4205C61.7546 58.3532 61.7995 58.2971 61.8555 58.241C61.8668 58.2298 61.9116 58.1737 61.9453 58.1401C61.9789 58.1064 62.0238 58.0615 62.035 58.0615C62.1584 57.9718 62.2818 57.8821 62.4052 57.8036C62.4388 57.7923 62.4613 57.7699 62.4949 57.7587C62.4837 57.7699 62.6183 57.6914 62.6407 57.6802C62.9324 57.5456 63.2352 57.4446 63.5381 57.3549C63.6951 57.2988 63.841 57.2091 63.9531 57.0857C64.155 57.3661 64.4467 57.5456 64.772 57.5231C65.4114 57.4671 65.7367 57.5119 66.3199 57.7587C66.4545 57.8148 66.3985 57.7923 66.5667 57.8933C66.6677 57.9606 66.7686 58.0279 66.8584 58.0952C66.8471 58.0952 66.9257 58.1737 66.9593 58.2186C66.9705 58.241 67.0042 58.3195 67.0154 58.3195C66.9818 58.1288 67.0266 58.398 67.0378 58.4429C67.0491 58.4878 67.0603 58.5326 67.0603 58.5775C67.0603 58.6112 67.0715 58.6672 67.0715 58.6897C67.0715 58.757 67.0715 58.8243 67.0715 58.8916C67.0715 58.914 67.0603 59.015 67.0603 59.071C67.0491 59.1047 67.0491 59.1496 67.0491 59.1496C67.0378 59.2169 67.0154 59.2842 67.0042 59.3515C67.0042 59.3739 66.9705 59.4636 66.9481 59.5085C66.9257 59.5534 66.8808 59.6319 66.8808 59.6543C66.8023 59.8001 66.6228 60.0245 66.477 60.1591C66.3312 60.2937 65.9834 60.5292 65.7479 60.675C65.2431 61.0003 64.9627 61.1125 64.3794 61.0676C64.2897 61.0564 64.2111 61.0564 64.1214 61.0452C64.1438 61.0452 64.2336 61.0676 64.099 61.0452C63.9531 61.0227 63.7961 60.9891 63.6503 60.9442C63.3586 60.8657 63.067 60.7648 62.7753 60.6414C62.5398 60.5404 62.394 60.4619 62.136 60.2937C62.0575 60.2376 61.8555 60.0806 61.8555 60.0806C61.8892 60.1142 61.7434 59.9235 61.6985 59.8787C61.6873 59.8562 61.6761 59.8338 61.6761 59.8338C61.6536 59.7889 61.6312 59.7441 61.6088 59.6992C61.6312 59.7441 61.5527 59.5309 61.5415 59.4636C61.5303 59.4188 61.519 59.3739 61.519 59.329C61.5527 59.1608 61.5527 59.0262 61.5527 58.8916Z" fill="black"/>
<path d="M67.3071 69.6595C66.4546 69.1771 65.5684 68.8855 64.6262 68.7509C63.7176 68.6275 62.8875 68.807 62.0687 69.2669C61.2611 69.7155 60.4871 70.3212 59.9599 71.1625C59.4551 71.9589 59.2083 73.0357 59.3093 74.0227C59.4327 75.2902 59.9599 76.2661 60.9245 76.8606C61.8219 77.4102 62.8427 77.6906 63.8522 77.5896C64.1102 77.5672 64.357 77.4438 64.5589 77.2644C64.8393 77.6233 65.2768 77.7916 65.6918 77.657C67.1949 77.1746 68.7877 76.311 69.2476 74.3705C69.7075 72.4188 68.8214 70.5119 67.3071 69.6595ZM67.0939 73.5516V73.5629C67.0715 73.6302 67.0603 73.7199 67.0378 73.7872C67.0378 73.7984 67.0378 73.7984 67.0378 73.7984C67.0042 73.8657 66.9818 73.9218 66.9481 73.9891C66.9369 74.0003 66.9369 74.0115 66.9369 74.0227C66.892 74.09 66.8472 74.1461 66.7911 74.2022C66.7799 74.2134 66.735 74.2695 66.7013 74.3032C66.6677 74.3368 66.6228 74.3817 66.6116 74.3817C66.4882 74.4714 66.3648 74.5611 66.2414 74.6397C66.2078 74.6509 66.1853 74.6733 66.1517 74.6845C66.1629 74.6733 66.0283 74.7518 66.0059 74.763C65.7142 74.8976 65.4114 74.9986 65.1085 75.0883C64.9515 75.1444 64.8056 75.2341 64.6935 75.3575C64.4916 75.0771 64.1999 74.8976 63.8746 74.9201C63.2353 74.9762 62.91 74.9313 62.3267 74.6845C62.1921 74.6284 62.2482 74.6509 62.0799 74.5499C61.9789 74.4826 61.878 74.4153 61.7883 74.348C61.7995 74.348 61.721 74.2695 61.6873 74.2246C61.6761 74.2022 61.6424 74.1237 61.6312 74.1237C61.6649 74.3144 61.62 74.0452 61.6088 74.0003C61.5976 73.9554 61.5864 73.9106 61.5864 73.8657C61.5864 73.8321 61.5751 73.776 61.5751 73.7535C61.5751 73.6862 61.5751 73.6189 61.5751 73.5516C61.5751 73.5292 61.5864 73.4283 61.5864 73.3722C61.5976 73.3385 61.5976 73.2937 61.5976 73.2937C61.6088 73.2264 61.6312 73.1591 61.6424 73.0918C61.6424 73.0693 61.6761 72.9796 61.6985 72.9347C61.721 72.8899 61.7658 72.8113 61.7658 72.7889C61.8443 72.6431 62.0238 72.4188 62.1696 72.2842C62.3155 72.1496 62.6632 71.914 62.8987 71.7682C63.4035 71.4429 63.6839 71.3307 64.2672 71.3756C64.357 71.3868 64.4355 71.3868 64.5252 71.398C64.5028 71.398 64.4131 71.3756 64.5477 71.398C64.6935 71.4205 64.8505 71.4541 64.9963 71.499C65.288 71.5775 65.5796 71.6785 65.8713 71.8018C66.1068 71.9028 66.2527 71.9813 66.5106 72.1496C66.5892 72.2056 66.7911 72.3627 66.7911 72.3627C66.7574 72.329 66.9032 72.5197 66.9481 72.5646C66.9593 72.587 66.9705 72.6094 66.9705 72.6094C66.993 72.6543 67.0154 72.6992 67.0378 72.744C67.0154 72.6992 67.0939 72.9123 67.1051 72.9796C67.1164 73.0245 67.1276 73.0693 67.1276 73.1142C67.0939 73.2712 67.0939 73.4058 67.0939 73.5516Z" fill="black"/>
<path d="M74.0149 63.109C83.6952 63.1651 93.3755 63.2212 103.056 63.2773C104.996 63.2885 104.839 60.2824 102.899 60.2712C93.2185 60.2151 83.5381 60.159 73.8578 60.1029C71.9285 60.0917 72.0855 63.0978 74.0149 63.109Z" fill="black"/>
<path d="M18.1314 95.1887C27.8117 95.2448 37.4921 95.3009 47.1724 95.357C49.113 95.3682 48.9559 92.3621 47.0154 92.3509C37.335 92.2948 27.6547 92.2387 17.9744 92.1826C16.045 92.1714 16.2021 95.1775 18.1314 95.1887Z" fill="black"/>
<path d="M18.4567 103.702C30.201 103.758 41.934 103.814 53.6783 103.87C56.0339 103.882 55.832 100.876 53.4876 100.864C41.7434 100.808 30.0103 100.752 18.266 100.696C15.9217 100.685 16.1123 103.691 18.4567 103.702Z" fill="black"/>
<path d="M18.2548 88.1895C22.1808 88.2119 26.0955 88.1334 30.0215 87.9764C30.8404 87.9427 31.4685 87.1463 31.4124 86.3612C31.3451 85.5199 30.6048 84.9479 29.7972 84.9815C25.8824 85.1385 21.9564 85.2171 18.0305 85.1946C17.2116 85.1946 16.5835 86.0471 16.6395 86.8098C16.7068 87.6735 17.436 88.1895 18.2548 88.1895Z" fill="black"/>
<path d="M73.4428 77.8364C83.325 77.8027 93.2073 78.1168 103.078 78.7786C104.873 78.902 104.862 75.8959 103.078 75.7725C93.2185 75.1107 83.3363 74.7967 73.4428 74.8303C71.6369 74.8415 71.6369 77.8476 73.4428 77.8364Z" fill="black"/>
<path d="M73.9812 57.6352C77.3239 57.6352 80.6778 57.6352 84.0205 57.7474C84.8057 57.7698 85.5572 57.0407 85.5236 56.2444C85.4899 55.4143 84.8618 54.7637 84.0205 54.7413C80.6778 54.6404 77.3239 54.6404 73.9812 54.6292C73.196 54.6292 72.4333 55.3246 72.4781 56.1322C72.5118 56.9398 73.1399 57.6352 73.9812 57.6352Z" fill="black"/>
<path d="M67.6548 16.3017C77.8623 15.7858 88.0923 15.7633 98.2998 16.2344C100.24 16.3242 100.229 13.3181 98.2998 13.2284C88.0923 12.7573 77.8623 12.7797 67.6548 13.2957C65.7254 13.3966 65.7142 16.4027 67.6548 16.3017Z" fill="black"/>
<path d="M67.666 18.0404C65.7254 18.074 65.7254 21.0801 67.666 21.0464C72.4781 20.9567 77.279 20.9343 82.0911 20.9792C84.0317 21.0016 84.0317 17.9955 82.0911 17.9731C77.279 17.9282 72.4669 17.9394 67.666 18.0404Z" fill="black"/>
<path d="M105.782 18.3769C102.495 18.4554 91.6705 18.3544 88.3839 18.0852C87.5987 18.0179 86.8472 18.8255 86.8808 19.5883C86.9257 20.4632 87.5427 21.024 88.3839 21.0913C91.6593 21.3717 102.484 21.4727 105.782 21.3829C106.567 21.3605 107.33 20.7099 107.285 19.8799C107.251 19.0835 106.623 18.3544 105.782 18.3769Z" fill="black"/>
<path d="M92.3772 23.9179C84.1326 23.9852 75.8993 24.0525 67.666 24.1198C65.7254 24.131 65.7254 27.1371 67.666 27.1258C75.8993 27.0585 84.1326 26.9912 92.3772 26.9239C94.3065 26.9127 94.3177 23.9067 92.3772 23.9179Z" fill="black"/>
<path d="M53.2184 35.0336C53.2072 35.0785 53.196 35.1121 53.1848 35.1458C53.1399 35.157 53.0726 35.1907 53.0277 35.1907C52.7473 35.2019 52.4557 35.2131 52.1752 35.2355C48.9784 35.3813 45.7927 35.415 42.5959 35.3365C40.8572 35.2916 40.8684 37.9724 42.5959 38.0173C44.4579 38.0621 46.3311 38.0733 48.1932 38.0397C49.1018 38.0285 50.0216 37.9948 50.9301 37.9612C51.8275 37.9275 52.7585 37.95 53.6447 37.7929C55.675 37.434 55.9217 35.4374 56.1573 33.7549C56.4041 31.9827 56.5162 30.2104 56.4602 28.427C56.4041 26.6996 53.712 26.6996 53.7681 28.427C53.8129 29.9637 53.7568 31.5116 53.5662 33.0483C53.4876 33.7101 53.3418 34.3718 53.2184 35.0336Z" fill="#59C69F"/>
</svg>
