<svg width="120" height="120" viewBox="0 0 120 120" fill="none" xmlns="http://www.w3.org/2000/svg">
<path d="M4.18861 105.6C4.19864 105.62 4.20867 105.65 4.2187 105.68C4.35912 105.67 4.4895 105.66 4.56974 105.66C4.92078 105.66 5.26179 105.66 5.61283 105.67C6.30488 105.67 6.99693 105.68 7.699 105.68C9.20346 105.69 10.7079 105.7 12.2124 105.71C15.2213 105.73 18.2302 105.75 21.2391 105.77C21.4196 105.77 21.6002 105.77 21.7707 105.77C21.1889 103.874 21.0285 101.828 20.9282 99.8623C20.7677 96.9434 20.7276 94.0146 20.7878 91.0857C20.1659 91.0857 19.5441 91.0757 18.9122 91.0657C18.4508 91.7277 17.9092 92.3195 17.0968 92.5401C16.3145 92.7608 15.7528 92.0286 15.8732 91.2763C15.8832 91.1961 15.9033 91.1158 15.9133 91.0356C12.423 90.9854 8.94269 90.9253 5.45235 90.8149C4.20867 90.7748 3.32606 91.3265 2.81454 92.1289C2.8346 93.503 2.87472 94.8772 2.94493 96.2614C3.07532 96.4419 3.21573 96.6124 3.37621 96.7629C3.23579 96.8833 3.11544 97.0036 2.99508 97.144C3.14552 99.8121 3.38624 102.47 3.75734 105.128C3.91781 105.239 4.06826 105.389 4.18861 105.6Z" fill="#59C69F"/>
<path d="M72.8518 95.469C72.581 95.479 72.3002 95.479 72.0294 95.489C72.7716 94.8671 73.5138 94.2252 74.2159 93.5632C76.3923 91.517 79.0201 89.1097 77.7363 85.7997C77.4154 84.9772 76.964 84.3554 76.4224 83.8739C75.5699 84.8468 74.3362 85.4587 72.9923 85.8699C73.0123 88.8489 70.9261 91.6775 68.168 92.52C66.4529 93.824 64.1762 94.2352 62.0699 93.834C62.0699 94.5963 62.0499 95.3586 62.0098 96.1209C61.8392 99.2504 61.1472 102.46 61.7991 105.569C61.8292 105.73 61.8392 105.88 61.8292 106.021C64.0959 106.001 66.3626 105.941 68.6293 105.79C73.5339 105.479 78.4284 104.597 83.3529 104.948C83.6538 102.229 83.8945 99.5011 84.1152 96.7729C83.032 95.9203 81.6278 95.4188 80.1033 95.3285C77.7062 95.2082 75.2489 95.4188 72.8518 95.469Z" fill="#59C69F"/>
<path d="M26.3542 101.718C26.274 101.447 26.2038 101.176 26.1236 100.895C25.923 102.029 25.7023 103.162 25.4516 104.286C25.3513 104.747 25.2811 105.289 25.1407 105.8C26.2439 105.81 27.3372 105.82 28.4404 105.82C28.4103 105.81 28.3802 105.8 28.3502 105.78C27.0363 104.897 26.7655 103.202 26.3542 101.718Z" fill="#59C69F"/>
<path d="M31.2186 83.0615C30.8776 83.3523 30.5968 83.6934 30.3661 84.0545C30.7472 84.887 31.1283 85.7195 31.4894 86.562C32.1112 87.9964 32.6428 89.4408 32.9537 90.9553C33.034 90.9854 33.1042 91.0255 33.1744 91.0556C33.1042 91.0556 33.034 91.0556 32.9738 91.0556C33.0741 91.5471 33.1443 92.0386 33.1945 92.5401C33.2546 93.2021 32.5124 93.7137 31.9407 93.5331C30.8575 93.1821 30.0351 92.3796 29.3531 91.4167C29.7041 96.0106 30.6469 100.564 29.8245 105.168C29.7643 105.479 29.5436 105.71 29.2628 105.83C37.106 105.89 44.9593 105.941 52.8025 106.001C54.8385 106.011 56.8746 106.031 58.9106 106.031C58.3289 102.841 58.8404 99.6917 59.051 96.482C59.1413 95.0276 59.1513 93.5732 59.1212 92.1188C57.5666 91.4869 56.0822 90.6845 54.7282 89.6915C53.1435 88.528 51.3683 87.1137 50.5358 85.238C50.1045 84.2751 50.0142 83.252 50.1848 82.2791C47.2962 81.9581 44.4277 81.5369 41.5291 81.3663C38.44 81.1958 33.7661 80.8949 31.2186 83.0615Z" fill="#59C69F"/>
<path d="M14.6295 108.629C12.9746 108.619 11.3097 108.609 9.65482 108.589C9.85541 108.629 10.056 108.659 10.2566 108.679C18.6514 109.732 27.2469 109.301 35.6718 108.92C36.4642 108.88 37.2565 108.829 38.0489 108.789C35.9125 108.769 33.7762 108.759 31.6399 108.739C25.9731 108.709 20.3063 108.669 14.6295 108.629Z" fill="#59C69F"/>
<path d="M59.2917 111.187C47.6974 111.869 36.0429 111.036 24.4486 110.525C22.553 110.444 22.553 113.493 24.4486 113.574C36.0429 114.085 47.6874 114.918 59.2917 114.236C61.1773 114.125 61.1873 111.076 59.2917 111.187Z" fill="#59C69F"/>
<path d="M12.9044 57.9956C12.9947 58.0157 13.0649 58.0458 13.1552 58.0658C13.8272 58.1762 14.8401 58.4069 15.8933 58.5673C15.9835 58.106 16.2142 57.7248 16.5151 57.3938C15.3216 57.5643 14.108 57.8652 12.9044 57.9956Z" fill="#59C69F"/>
<path d="M49.3322 59.1894C47.908 60.0018 46.2531 60.4231 44.6684 60.7842C42.9233 61.1754 41.1681 61.4863 39.3928 61.727C35.9927 62.1985 32.5726 62.4091 29.1525 62.3489C25.6521 62.2988 22.1618 61.9778 18.6915 61.4462C18.18 61.3659 17.6384 61.2155 17.167 60.9748C17.167 62.369 17.8591 63.693 19.4839 63.9939C24.2881 64.8766 29.3832 64.8866 34.2476 64.5656C38.8512 64.2647 43.1038 62.8605 47.5971 61.9979C49.4526 61.6468 50.1346 60.1623 49.9541 58.6979C49.7836 58.8885 49.5729 59.059 49.3322 59.1894Z" fill="#59C69F"/>
<path d="M49.934 54.8763C50.4455 55.3577 50.7163 55.9495 50.7765 56.5313C52.4013 56.1902 54.0663 56.0498 55.4303 54.9866C56.4734 54.1741 56.9548 52.9906 56.9348 51.8772C54.5276 53.4219 51.6692 53.6325 48.9612 54.2644C49.3222 54.4149 49.6432 54.6054 49.934 54.8763Z" fill="#59C69F"/>
<path d="M13.426 54.9064C15.8632 54.5653 18.2502 53.8431 20.6875 54.6255C21.6603 54.9365 22.232 56.4109 21.3394 57.1732C20.8279 57.6145 20.3164 58.0459 19.8048 58.4872C19.7848 58.5072 19.7547 58.5273 19.7346 58.5474C19.9352 58.5775 20.1358 58.6075 20.3364 58.6376C21.1589 58.748 21.9813 58.8483 22.8037 58.9285C24.4486 59.099 26.1035 59.2094 27.7584 59.2695C30.9478 59.3799 34.1373 59.2796 37.3067 58.9385C40.3858 58.6075 43.5852 58.1462 46.5239 57.1231C46.5641 57.113 46.6042 57.0829 46.6443 57.0729C46.4638 57.0829 46.2832 57.093 46.1027 57.0829C44.6985 57.0027 43.4348 56.2605 43.0236 54.8161C42.833 54.1641 43.154 53.4319 43.6956 53.0909C45.6313 51.8973 47.8178 51.4359 50.0042 51.0146C50.8768 50.8441 51.7594 50.6736 52.612 50.4429C52.4415 50.4429 52.281 50.4429 52.1205 50.4529C50.3553 50.4629 48.5901 50.473 46.8248 50.493C40.5563 50.5632 34.2877 50.7137 28.0192 50.9444C22.5129 51.145 16.7257 50.9143 11.4401 52.7298C11.0188 53.3517 10.7982 54.124 10.7982 54.8963C11.6206 55.1371 12.5935 55.0167 13.426 54.9064Z" fill="#59C69F"/>
<path d="M84.5465 51.165C84.4562 49.3295 84.3559 47.4839 84.2556 45.6484C81.5977 45.6082 78.9299 45.5882 76.272 45.5681C76.0915 46.6113 76.3221 47.7146 77.1646 48.4368C78.2779 49.3997 79.321 50.3526 80.7552 50.7839C81.8184 51.1048 82.9919 51.2052 84.1152 51.2453C84.1353 51.2352 84.1553 51.2352 84.1754 51.2252C84.2957 51.1851 84.4261 51.165 84.5465 51.165Z" fill="#59C69F"/>
<path d="M87.8663 47.885C87.8262 47.0525 87.5253 46.3103 87.0439 45.7285C87.1241 47.0826 87.1943 48.4467 87.2645 49.8008C87.6657 49.2391 87.9064 48.5771 87.8663 47.885Z" fill="#59C69F"/>
<path d="M119.881 21.4553C119.821 20.2516 119.249 19.389 118.477 18.8574C118.477 19.5896 118.477 20.3218 118.477 21.0541C118.467 21.9769 118.457 22.8896 118.447 23.8224C118.036 28.0853 117.845 32.288 117.765 36.4807C117.725 38.577 117.715 40.6734 117.725 42.7697C117.735 44.8761 117.755 46.9824 117.785 49.0988C117.815 51.2152 117.845 53.3517 117.865 55.5082C117.885 57.444 117.895 59.4 117.895 61.3759C118.698 60.6337 119.199 59.5303 118.978 58.1763C118.016 52.1681 119.019 45.528 119.43 39.4998C119.841 33.4816 120.192 27.4835 119.881 21.4553Z" fill="#59C69F"/>
<path d="M115.488 32.4886C115.528 31.4354 115.568 30.3722 115.588 29.319C115.649 27.1926 115.679 25.0662 115.669 22.9096C115.679 22.0771 115.679 21.2546 115.679 20.4221C115.679 19.71 115.679 18.9878 115.679 18.2756C114.305 18.5465 113.151 19.5996 113.251 21.4552C113.903 34.1837 110.584 47.3635 112.59 59.9616C112.84 61.5464 113.883 62.2987 115.057 62.389C115.067 61.8975 115.077 61.406 115.097 60.9145C115.739 51.8571 114.264 41.9371 115.488 32.4886Z" fill="#59C69F"/>
<path d="M84.0851 21.5756C83.6338 20.4723 82.681 19.5696 81.1966 19.4793C67.0447 18.5766 52.8527 20.4121 38.7409 19.4091C36.9857 19.2887 35.9727 20.362 35.6618 21.686C51.8597 20.4623 67.8972 21.1142 84.0851 21.5756Z" fill="#59C69F"/>
<path d="M36.1733 24.6448C36.6949 25.4673 37.5474 26.0792 38.7509 26.1594C52.8627 27.1624 67.0547 25.3269 81.2066 26.2296C82.5305 26.3099 83.4432 25.7181 83.9447 24.8454C68.0677 24.4743 52.3111 23.9728 36.1733 24.6448Z" fill="#59C69F"/>
<path d="M74.4767 79.3001C74.3563 78.0463 73.0023 77.0834 72.0395 76.5618C70.8159 75.9098 69.4418 75.5788 68.1078 75.288C66.6335 74.967 66.7839 72.7503 68.1078 72.3491C69.9633 71.7773 72.3604 70.9147 71.538 68.4272C70.8459 66.3509 68.9804 64.9066 67.0848 64.0741C64.8582 63.1011 62.1001 62.6397 59.7331 63.2415C58.9206 63.4421 57.3861 63.8634 57.5065 65.0069C57.6168 66.0902 58.8003 67.0531 59.5325 67.705C60.8163 68.8485 59.1413 71.005 57.7472 70.1023C55.5507 68.6679 52.7624 70.2026 52.4816 72.8305C52.1907 75.4685 54.1766 77.3141 56.4834 77.635C56.8345 77.635 57.1855 77.6451 57.5265 77.6752C59.4021 77.8557 59.4422 80.604 57.5265 80.7244C57.0852 80.7545 56.6439 80.7344 56.2126 80.6843C55.2498 80.7244 54.2869 80.9751 53.6149 81.7174C53.3642 81.9882 53.2138 82.2791 53.1235 82.5599C53.6851 82.6 54.2568 82.6301 54.8285 82.6502C59.0611 82.8007 63.2836 82.6001 67.5061 82.4596C67.7769 82.3292 68.1078 82.2991 68.4489 82.4095C68.4689 82.4195 68.489 82.4195 68.509 82.4295C68.5792 82.4295 68.6494 82.4195 68.7197 82.4195C69.6424 82.3894 70.6353 82.3493 71.6182 82.3794C71.7587 82.3292 71.889 82.2791 72.0194 82.2189C73.0124 81.7776 74.6071 80.594 74.4767 79.3001Z" fill="#59C69F"/>
<path d="M74.4767 70.965C74.1357 72.0482 73.4737 72.8506 72.6613 73.4926C73.2731 73.7634 73.8649 74.0844 74.4165 74.4756C74.7876 74.7464 75.1487 75.0473 75.4897 75.3883C76.0012 74.3652 76.2319 73.1616 76.0112 71.7674C75.8407 70.6741 75.3493 69.6811 74.6472 68.7683C74.7375 69.5005 74.6973 70.2428 74.4767 70.965Z" fill="#59C69F"/>
<path d="M77.3953 79.9119C77.2649 81.1958 76.5729 82.3593 75.6501 83.3022C75.931 83.4627 76.1817 83.6532 76.4224 83.8739C77.0844 83.1216 77.5257 82.1587 77.6059 80.8949C77.6561 80.2129 77.5658 79.5809 77.3753 78.9791C77.4154 79.28 77.4254 79.591 77.3953 79.9119Z" fill="#59C69F"/>
<path d="M54.8285 82.6503C54.2568 82.6302 53.6952 82.6001 53.1235 82.56C52.8828 83.3223 53.1536 84.1147 53.7553 84.8369C55.1394 86.5019 56.9949 87.8059 58.9608 88.7587C58.9106 87.9362 58.8504 87.1037 58.8003 86.2812C58.6699 84.3153 61.6086 84.3354 61.749 86.2812C61.8393 87.5852 61.9195 88.8992 61.9797 90.2031C62.1001 90.3636 62.1903 90.5441 62.2405 90.7347C63.8653 91.1359 65.6807 90.9754 66.8842 89.6715C68.0477 88.4177 68.2382 86.2311 67.0046 84.9673C66.2223 84.1648 66.6335 82.8609 67.496 82.4697C63.2735 82.6001 59.051 82.8108 54.8285 82.6503Z" fill="#59C69F"/>
<path d="M72.9922 85.87C74.3362 85.4588 75.5699 84.8469 76.4224 83.874C76.1817 83.6533 75.9209 83.4627 75.6501 83.3022C75.0082 83.9542 74.266 84.4959 73.5138 84.8569C72.5911 85.3083 71.6082 85.5892 70.6152 85.6794C71.0565 87.6554 70.5751 89.852 69.2913 91.4569C68.9603 91.8681 68.5792 92.2192 68.168 92.5201C70.9362 91.6675 73.0223 88.849 72.9922 85.87Z" fill="#59C69F"/>
<path d="M68.7196 82.4195C68.6494 82.4195 68.5792 82.4295 68.509 82.4295C69.5421 82.7395 70.6052 82.7395 71.6182 82.3795C70.6353 82.3495 69.6424 82.3995 68.7196 82.4195Z" fill="#59C69F"/>
<path d="M77.3853 78.979C77.2348 77.5949 76.4726 76.3611 75.4897 75.3882C75.4094 75.5587 75.3192 75.7192 75.2189 75.8696C76.2218 76.7222 77.0142 77.7654 77.3853 78.979Z" fill="black"/>
<path d="M0.808602 69.029C0.387355 77.1937 -0.164278 85.3684 0.0463459 93.5531C0.166702 98.1971 0.54783 102.821 1.28 107.405C1.39032 108.107 2.17264 108.528 2.82457 108.448C3.16558 108.528 3.51662 108.548 3.88772 108.558C4.70012 108.568 5.5025 108.568 6.3149 108.579C7.4282 108.589 8.55152 108.599 9.66482 108.599C4.50956 107.676 -0.575495 103.283 2.69418 97.5853C2.78445 97.4348 2.88475 97.2844 2.99507 97.154C2.97502 96.8631 2.95496 96.5622 2.94493 96.2713C2.0924 95.0777 2.05228 93.3324 2.81454 92.1388C2.63401 80.7946 3.81751 69.4001 4.0181 58.0759C4.08831 54.0738 3.99804 50.0817 4.04819 46.0796C4.10837 46.0897 4.16855 46.0997 4.23876 46.0897C25.0303 45.548 45.8319 45.3274 66.6335 45.4578C68.1279 45.4678 69.6223 45.4979 71.1268 45.5079C71.3274 48.4267 73.1327 51.0045 75.5398 52.489C76.8738 53.3215 78.4083 53.8431 79.9328 54.1239C81.4172 54.3948 83.1925 54.7057 84.6769 54.2443C85.2185 67.1032 85.2486 79.9921 84.4061 92.841C84.3158 94.1549 84.2055 95.4689 84.1052 96.7829C85.5695 97.9364 86.4321 99.7218 86.1512 101.969C85.9607 103.483 85.2686 104.777 83.714 105.228C79.9228 106.322 76.2218 105.931 72.3504 105.85C68.2482 105.76 64.1662 106.191 60.1041 106.723C52.7423 107.686 45.4407 108.398 38.0388 108.799C41.5693 108.829 45.0997 108.849 48.6302 108.879C54.2669 108.92 59.9035 109.05 65.5402 108.859C71.7586 108.639 78.0272 107.285 84.2456 107.927C84.4963 107.957 84.727 107.876 84.9276 107.746C85.5595 107.596 85.9206 107.014 86.0008 106.342C87.8262 90.4036 88.1772 74.325 87.6457 58.2865C87.5554 55.458 87.425 52.6294 87.2746 49.8109C86.6527 50.6936 85.6197 51.2954 84.5565 51.2753C84.4061 51.2753 84.2556 51.2653 84.1152 51.2553C83.0721 51.6264 81.7783 51.3857 80.7151 51.1951C79.4915 50.9744 78.288 50.6133 77.2048 49.9714C75.5699 49.0085 74.3262 47.3936 74.1056 45.548C74.8277 45.5581 75.5499 45.5681 76.272 45.5681C76.3923 44.8559 76.7033 44.1739 77.1646 43.6623C77.7965 42.9602 78.629 42.6693 79.4715 42.6994C60.3248 42.4587 41.1681 42.4888 22.0214 42.8097C16.134 42.9101 10.2566 43.0404 4.36914 43.1909C3.77739 42.7295 3.02516 42.5891 2.30303 42.8398C1.70124 43.0505 1.30006 43.5721 1.28 44.2341C1.16967 48.3766 1.29003 52.5191 1.23988 56.6616C1.19976 60.7941 1.01923 64.9166 0.808602 69.029Z" fill="black"/>
<path d="M82.3701 44.1137C82.4002 44.1438 82.4303 44.1639 82.4503 44.1839C82.5205 44.2241 82.691 44.3244 82.8515 44.3544C82.9819 44.3845 83.1022 44.4046 83.2326 44.4247C83.2928 44.4347 83.373 44.4347 83.5135 44.4547C83.8645 44.4748 84.2055 44.4949 84.5465 44.5049C85.5796 44.535 86.4421 45.0064 87.0439 45.7286C87.0239 45.3976 87.0138 45.0666 86.9938 44.7456C86.9336 43.8128 86.2014 43.3514 85.5094 43.3514C85.2887 43.0104 84.9277 42.7697 84.4161 42.7596C82.7813 42.7396 81.1364 42.7295 79.5016 42.7095C80.3441 42.7496 81.1966 43.1007 81.8485 43.6724C82.019 43.8128 82.1996 43.9633 82.3701 44.1137Z" fill="black"/>
<path d="M54.1766 77.6551C53.956 77.4143 53.7353 77.1736 53.5447 76.9128C52.4916 75.5286 51.94 73.8034 52.0804 72.0481C52.2308 70.2828 53.0733 68.4372 54.7583 67.725C55.0893 67.5846 55.4002 67.5244 55.7011 67.4943C54.9589 66.4111 54.6681 65.1573 55.4103 63.5825C57.2457 59.7008 63.1833 61.6968 66.0618 62.9907C68.6495 64.1543 72.561 66.06 74.6372 68.7582C74.3764 66.712 73.0625 64.7159 71.6383 63.4421C69.7226 61.7269 67.2954 60.6737 64.8081 60.2324C62.0198 59.7409 58.6198 59.6908 56.2427 61.5263C54.9088 62.5594 54.2568 64.2345 54.6881 65.9296C54.7483 66.1603 54.8285 66.381 54.9088 66.6017C52.3111 67.0731 50.0343 69.1995 49.6031 72.1484C49.2019 74.8967 50.3152 77.3842 52.2008 78.969C52.0403 79.0894 51.8798 79.2198 51.7294 79.3602C50.8869 80.1626 50.3553 81.1958 50.1647 82.2891C50.7364 82.3492 51.3081 82.4094 51.8798 82.4596C51.8999 81.6471 52.0403 80.8347 52.3612 80.0523C52.7724 79.0794 53.3742 78.297 54.1766 77.6551Z" fill="black"/>
<path d="M72.3604 105.85C76.2419 105.93 79.9429 106.322 83.724 105.228C85.2786 104.777 85.9707 103.483 86.1613 101.969C86.4421 99.7117 85.5795 97.9363 84.1152 96.7828C83.8946 99.5111 83.6538 102.239 83.3529 104.958C78.4384 104.606 73.5339 105.489 68.6294 105.8C66.3627 105.951 64.0959 106.001 61.8292 106.031C61.8393 105.89 61.8292 105.74 61.7991 105.579C61.1472 102.47 61.8393 99.2603 62.0098 96.1309C62.0499 95.3686 62.07 94.6063 62.07 93.844C64.1762 94.2452 66.4529 93.8339 68.168 92.53C66.7237 92.9713 65.0889 92.8811 63.4741 91.9683C59.8634 92.1288 55.9217 90.2331 53.6851 87.5449C52.4916 86.1106 51.8296 84.3051 51.8798 82.4696C51.3081 82.4194 50.7364 82.3593 50.1647 82.2991C49.9942 83.272 50.0945 84.2951 50.5157 85.258C51.3482 87.1337 53.1235 88.548 54.7082 89.7115C56.0722 90.7145 57.5566 91.5069 59.1012 92.1388C59.1413 93.5932 59.1313 95.0476 59.031 96.502C58.8203 99.7117 58.3088 102.861 58.8905 106.051C56.8545 106.051 54.8185 106.031 52.7825 106.021C44.9392 105.961 37.086 105.91 29.2428 105.85C28.982 105.961 28.6811 105.971 28.4304 105.84C27.3271 105.83 26.2339 105.82 25.1306 105.82C24.9902 106.372 24.7796 106.883 24.3984 107.234C23.4757 108.087 22.3323 107.485 21.9412 106.432C21.8609 106.221 21.7907 106.011 21.7305 105.79C21.55 105.79 21.3695 105.79 21.199 105.79C18.1901 105.77 15.1812 105.75 12.1722 105.73C10.6678 105.72 9.16334 105.71 7.65889 105.7C6.96684 105.7 6.27479 105.69 5.57271 105.69C5.22167 105.69 4.88066 105.69 4.52962 105.68C4.45941 105.68 4.32903 105.69 4.17858 105.7C4.16855 105.67 4.15852 105.65 4.14849 105.62C4.02814 105.409 3.87769 105.258 3.71722 105.148C3.34612 102.49 3.10541 99.8321 2.95496 97.164C2.87472 97.2844 2.77443 97.4248 2.68416 97.5853C-0.585519 103.282 4.49953 107.676 9.65479 108.599C11.3097 108.609 12.9746 108.619 14.6295 108.639C20.2963 108.679 25.9631 108.719 31.6298 108.759C33.7662 108.779 35.9025 108.789 38.0388 108.809C45.4407 108.408 52.7423 107.696 60.1041 106.733C64.1762 106.191 68.2583 105.76 72.3604 105.85Z" fill="black"/>
<path d="M2.93491 96.2614C2.8647 94.8872 2.83461 93.5131 2.80452 92.1289C2.04226 93.3325 2.08238 95.0778 2.93491 96.2614Z" fill="black"/>
<path d="M76.272 45.5681C78.9298 45.5882 81.5977 45.6082 84.2556 45.6483C84.3659 47.4839 84.4562 49.3194 84.5465 51.165C84.4161 51.165 84.2957 51.1851 84.1653 51.2252C84.1453 51.2352 84.1252 51.2352 84.1052 51.2453C84.2556 51.2553 84.4061 51.2553 84.5465 51.2653C85.6096 51.2954 86.6427 50.6836 87.2645 49.8009C87.1943 48.4468 87.1241 47.0827 87.0439 45.7286C86.4521 45.0064 85.5795 44.535 84.5465 44.5049C84.1954 44.4949 83.8544 44.4748 83.5134 44.4547C83.373 44.4347 83.2928 44.4347 83.2326 44.4246C83.1022 44.4046 82.9718 44.3845 82.8514 44.3544C82.691 44.3243 82.5205 44.224 82.4503 44.1839C82.4202 44.1639 82.4001 44.1438 82.37 44.1137C82.1995 43.9633 82.019 43.8128 81.8485 43.6623C81.1865 43.0906 80.344 42.7396 79.5015 42.6994C79.4915 42.6994 79.4815 42.6994 79.4714 42.6994C78.6289 42.6693 77.7965 42.9502 77.1646 43.6623C76.7032 44.1739 76.3923 44.856 76.272 45.5681Z" fill="black"/>
<path d="M67.506 82.4593C67.837 82.4493 68.178 82.4393 68.509 82.4293C68.489 82.4193 68.4689 82.4193 68.4488 82.4093C68.0978 82.3093 67.7768 82.3393 67.506 82.4593Z" fill="black"/>
<path d="M53.6149 81.7175C54.2869 80.9652 55.2397 80.7244 56.2126 80.6843C56.6439 80.7345 57.0752 80.7545 57.5265 80.7245C59.4422 80.6041 59.4021 77.8558 57.5265 77.6752C57.1855 77.6451 56.8344 77.6351 56.4834 77.6351C54.1866 77.3141 52.1907 75.4585 52.4816 72.8306C52.7724 70.2027 55.5507 68.668 57.7472 70.1024C59.1413 71.0151 60.8062 68.8486 59.5324 67.7051C58.8003 67.0531 57.6168 66.0902 57.5064 65.0069C57.3861 63.8635 58.9307 63.4523 59.733 63.2416C62.1 62.6498 64.8582 63.1012 67.0848 64.0741C68.9804 64.9066 70.8359 66.351 71.538 68.4273C72.3704 70.9048 69.9733 71.7774 68.1078 72.3491C66.7839 72.7504 66.6335 74.9671 68.1078 75.288C69.4418 75.5789 70.8259 75.8999 72.0395 76.5619C73.0123 77.0834 74.3563 78.0464 74.4767 79.3001C74.597 80.5941 73.0123 81.7776 72.0194 82.219C71.889 82.2792 71.7486 82.3293 71.6182 82.3795C73.0625 82.4196 74.4867 82.6302 75.6501 83.2922C76.5629 82.3594 77.2649 81.1858 77.3953 79.902C77.4254 79.581 77.4154 79.2701 77.3853 78.9691C77.0142 77.7655 76.2218 76.7224 75.2189 75.8698C75.3192 75.7093 75.4094 75.5488 75.4897 75.3883C75.1487 75.0473 74.7876 74.7464 74.4165 74.4756C73.8649 74.0844 73.2731 73.7634 72.6613 73.4926C73.4737 72.8507 74.1357 72.0482 74.4767 70.965C74.6973 70.2428 74.7374 69.5005 74.6472 68.7683C72.561 66.0702 68.6595 64.1644 66.0718 63.0009C63.1933 61.707 57.2557 59.7109 55.4203 63.5927C54.6781 65.1674 54.9689 66.4212 55.7111 67.5045C55.4002 67.5346 55.0893 67.5948 54.7683 67.7352C53.0833 68.4473 52.2308 70.2929 52.0904 72.0583C51.94 73.8236 52.4916 75.5388 53.5547 76.923C53.7453 77.1737 53.966 77.4245 54.1866 77.6652C53.3943 78.3071 52.7825 79.0895 52.3813 80.0625C52.0603 80.8448 51.9199 81.6573 51.8998 82.4697C52.3111 82.5099 52.7223 82.55 53.1335 82.57C53.2137 82.2691 53.3742 81.9883 53.6149 81.7175Z" fill="black"/>
<path d="M69.2913 91.4468C70.5751 89.842 71.0566 87.6453 70.6153 85.6693C71.6082 85.5791 72.5911 85.2982 73.5138 84.8469C74.2661 84.4757 75.0083 83.9341 75.6502 83.2922C74.4867 82.6201 73.0625 82.4195 71.6182 82.3794C70.6052 82.7305 69.532 82.7405 68.509 82.4295C68.178 82.4396 67.837 82.4496 67.5061 82.4596C66.6435 82.8508 66.2323 84.1648 67.0146 84.9572C68.2483 86.221 68.0577 88.4076 66.8942 89.6614C65.6907 90.9653 63.8753 91.1258 62.2505 90.7246C62.2003 90.534 62.1101 90.3535 61.9897 90.193C61.9295 88.8891 61.8493 87.5751 61.759 86.2712C61.6287 84.3253 58.6799 84.3052 58.8103 86.2712C58.8705 87.0936 58.9206 87.9262 58.9708 88.7486C57.005 87.7958 55.1394 86.4918 53.7654 84.8268C53.1636 84.1046 52.8828 83.3122 53.1335 82.5499C52.7223 82.5198 52.3111 82.4797 51.8999 82.4496C51.8597 84.2751 52.5217 86.0906 53.7052 87.5249C55.9418 90.2131 59.8835 92.1088 63.4942 91.9483C65.109 92.8711 66.7438 92.9614 68.1881 92.51C68.5792 92.2091 68.9604 91.8681 69.2913 91.4468Z" fill="black"/>
<path d="M10.8583 33.7223C10.6276 34.2037 10.6176 34.7754 10.6176 35.3171C10.6176 36.2599 10.6176 37.2028 10.6176 38.1456C10.6176 38.9882 10.6377 39.9009 11.1091 40.593C11.5805 41.2851 12.6837 41.576 13.2053 40.924C13.5162 40.5429 13.5162 39.9912 13.5062 39.4897C13.4761 38.1356 13.446 36.7815 13.4159 35.4174C25.271 35.8487 36.9857 34.9359 48.8107 34.3341C50.2951 34.2539 51.7895 34.1435 53.2739 34.1435C54.2267 34.1134 55.1795 34.0934 56.1123 34.1335C62.7118 35.0663 69.3414 35.8286 76.0613 35.3472C76.954 35.4475 77.8466 35.5277 78.7393 35.5879C83.2025 35.9189 87.6958 35.8988 92.169 35.8086C92.9413 35.7885 93.7036 35.7785 94.4758 35.7584C94.4458 39.2088 94.3856 42.6091 94.3053 45.9693C94.2753 47.0927 94.2552 48.2161 94.2251 49.3294C92.9012 63.2816 93.6334 76.2508 93.7437 89.6613C93.7437 90.8549 93.8139 92.0485 94.0747 93.2121C94.2452 93.9844 94.8369 95.1981 94.546 95.9904C94.2853 96.6926 93.2623 96.6524 92.6705 96.6023C91.5371 96.502 90.464 96.161 89.3106 96.2412C87.5253 96.3616 87.5153 99.2603 89.3106 99.14C91.3065 99.0096 93.182 99.9725 95.1378 99.1299C96.1709 98.6886 96.7927 97.9363 97.0936 97.0336C97.4045 96.1309 97.3945 95.0877 97.1638 94.0546C95.8399 88.4777 97.3142 83.1416 96.5921 77.8958C96.552 76.7924 96.5119 75.6891 96.4718 74.5757C96.1809 66.8323 95.88 59.0388 96.9532 50.9343C96.9933 49.8309 97.0434 48.7176 97.0735 47.6042C97.1939 44.2641 97.2741 40.914 97.2641 37.5137C97.2641 36.5909 97.2641 35.6782 97.2641 34.7554C97.2641 34.2338 97.0434 33.8627 96.7225 33.632C96.5319 33.1806 96.1307 32.8396 95.5089 32.8596C83.8343 33.1405 72.23 32.4083 60.5655 31.8566C57.6368 31.7162 54.7081 31.6059 51.7694 31.5557C48.9711 31.5056 46.0525 31.325 43.2943 31.7262C40.4058 32.1575 37.3969 32.1575 34.4883 32.3381C31.5195 32.5186 28.5407 32.659 25.5619 32.7192C21.8709 32.7995 18.18 32.7493 14.4991 32.4885C13.1652 32.3983 11.4701 32.4584 10.8583 33.7223Z" fill="black"/>
<path d="M35.6718 21.6859C35.2405 21.716 34.7992 21.7461 34.3679 21.7762C32.703 21.7762 31.0381 21.7662 29.3731 21.726C27.7082 21.6759 26.0433 21.5956 24.3884 21.4753C22.9441 21.375 21.5099 21.7862 21.2591 23.4813C21.1388 24.3038 21.2491 25.1865 21.2792 26.009C21.3093 26.9719 21.3494 27.9248 21.3795 28.8877C21.4397 30.7433 24.2379 30.7533 24.1778 28.8877C24.1276 27.3831 24.0574 25.8886 24.0173 24.3841C24.2279 24.3941 24.4786 24.374 24.5589 24.3841C25.2911 24.4342 26.0232 24.4844 26.7554 24.5245C29.6339 24.6749 32.5024 24.705 35.391 24.6749C35.6517 24.6649 35.9125 24.6549 36.1733 24.6449C35.6116 23.7622 35.4411 22.6589 35.6718 21.6859Z" fill="black"/>
<path d="M103.282 85.6192C102.149 85.5189 101.075 85.1779 99.922 85.2581C98.1367 85.3785 98.1267 88.2772 99.922 88.1569C101.918 88.0265 103.793 88.9894 105.749 88.1469C107.805 87.2642 108.237 85.1378 107.775 83.0715C107.565 82.1086 107.264 81.2059 107.194 80.2129C107.113 79.0193 107.163 77.8257 107.194 76.6421C107.254 74.2448 107.314 71.8476 107.364 69.4503C107.585 59.741 107.725 50.0316 107.805 40.3223C107.845 34.8056 107.876 29.289 107.876 23.7823C107.876 23.2607 107.655 22.8896 107.334 22.6589C107.143 22.2076 106.742 21.8665 106.12 21.8866C98.7184 21.9568 91.3767 21.7963 84.0751 21.5957C84.5064 22.6589 84.4663 23.9227 83.9247 24.8656C91.0457 25.0361 98.1969 25.1765 105.418 25.1765C105.418 29.7503 106.15 33.5719 105.037 38.0454C105.027 40.2521 105.007 42.4588 104.977 44.6654C104.957 46.8721 104.927 49.0788 104.897 51.2854C104.837 55.8994 104.756 60.5133 104.666 65.1273C104.576 69.6509 104.375 74.1746 104.355 78.6983C104.355 79.8919 104.425 81.0855 104.676 82.249C104.847 83.0214 105.438 84.235 105.147 85.0274C104.897 85.7095 103.874 85.6794 103.282 85.6192Z" fill="black"/>
<path d="M84.0851 21.5756C67.8872 21.1242 51.8597 20.4622 35.6618 21.6859C35.4311 22.6689 35.6016 23.7722 36.1633 24.6448C52.301 23.9728 68.0577 24.4743 83.9347 24.8555C84.4763 23.9026 84.5164 22.6388 84.0851 21.5756Z" fill="black"/>
<path d="M115.057 62.399C115.047 62.6598 115.047 62.9206 115.037 63.1814C114.997 64.6859 114.977 66.2005 114.967 67.705C114.967 68.8987 115.037 70.0923 115.287 71.2558C115.458 72.0281 116.05 73.2418 115.759 74.0342C115.498 74.7363 114.475 74.6962 113.883 74.646C112.75 74.5457 111.677 74.2047 110.523 74.2849C108.738 74.4053 108.728 77.3041 110.523 77.1837C112.519 77.0533 114.395 78.0162 116.351 77.1737C118.407 76.291 118.838 74.1646 118.377 72.0983C118.166 71.1354 117.865 70.2327 117.795 69.2397C117.715 68.0461 117.765 66.8525 117.795 65.6689C117.825 64.4753 117.855 63.2716 117.885 62.078C117.885 61.8473 117.885 61.6267 117.885 61.406C117.113 62.0981 116.04 62.4793 115.057 62.399Z" fill="black"/>
<path d="M118.477 18.8574C118.487 16.8313 118.487 14.8052 118.487 12.779C118.487 12.2575 118.266 11.8863 117.945 11.6556C117.755 11.2043 117.354 10.8632 116.732 10.8833C90.7047 12.1973 65.6706 11.435 39.9645 10.7429C38.2996 10.6927 36.6347 10.6125 34.9798 10.4921C33.5355 10.3918 32.1013 10.8031 31.8505 12.4982C31.7302 13.3207 31.8405 14.2033 31.8706 15.0258C31.9007 15.9887 31.9408 16.9416 31.9709 17.9045C32.0311 19.7601 34.8293 19.7702 34.7692 17.9045C34.719 16.4 34.6488 14.9055 34.6087 13.4009C34.8193 13.4109 35.07 13.3909 35.1503 13.4009C35.8825 13.4511 36.6146 13.5012 37.3468 13.5413C40.2253 13.6918 43.0938 13.7319 45.9723 13.8021C69.3515 14.4942 92.1791 15.2565 115.699 13.8122C115.699 15.3067 115.689 16.8012 115.689 18.2857C116.631 18.0951 117.665 18.2857 118.477 18.8574Z" fill="black"/>
<path d="M117.785 49.0887C117.755 46.9723 117.735 44.8559 117.725 42.7596C117.715 40.6633 117.725 38.5669 117.765 36.4706C117.845 32.2779 118.036 28.0752 118.447 23.8123C118.467 22.8896 118.477 21.9668 118.477 21.044C118.477 20.3118 118.477 19.5796 118.477 18.8473C117.665 18.2856 116.631 18.085 115.679 18.2656C115.679 18.9777 115.679 19.6999 115.679 20.4121C115.679 21.2446 115.669 22.0671 115.669 22.8996C115.679 25.0561 115.649 27.1926 115.588 29.309C115.558 30.3722 115.528 31.4254 115.488 32.4785C114.264 41.9271 115.739 51.8471 115.097 60.9044C115.087 61.3959 115.067 61.8874 115.057 62.3789C116.04 62.4591 117.113 62.078 117.895 61.3558C117.895 59.3798 117.885 57.4239 117.865 55.4881C117.845 53.3516 117.815 51.2152 117.785 49.0887Z" fill="black"/>
<path d="M22.0515 91.7979C22.0615 91.858 22.0816 91.9283 22.1016 91.9985C22.0615 92.821 21.9712 93.6434 21.9612 94.4659C21.9411 95.5191 22.1518 96.5522 22.3323 97.5854C22.4326 98.1671 22.5028 98.7589 22.5429 99.3507C22.3925 100.966 22.4827 102.59 22.553 104.215C22.6131 105.68 24.7595 105.68 24.8297 104.215C24.9099 102.54 24.93 100.825 24.7896 99.1401C24.94 98.0267 25.281 96.9735 25.9731 96.131C26.1035 97.9765 26.3241 99.8021 26.9058 101.587C27.3672 103.002 29.3431 102.41 29.0923 100.986C28.8215 99.3808 28.8315 97.7358 28.4905 96.131C28.4203 95.81 28.32 95.479 28.1796 95.158C28.1696 95.0377 28.1595 94.9273 28.1595 94.807C28.1295 93.9042 27.9188 92.841 28.3 91.9784C28.4404 91.6574 28.661 91.3565 28.9318 91.0957C30.2758 91.0857 31.6298 91.0757 32.9738 91.0657C32.9638 91.0356 32.9638 90.9954 32.9537 90.9653C32.4523 90.7547 31.9809 90.524 31.5496 90.2331C31.6499 90.0526 31.7301 89.852 31.7301 89.6514C31.7502 89.0596 31.4593 88.5681 31.1685 88.0766C31.1584 88.0566 31.1183 88.0064 31.0882 87.9562C31.018 87.8459 30.9879 87.6754 30.9578 87.555C30.9277 87.4447 30.9077 87.3243 30.8876 87.204C30.8876 87.1639 30.8575 86.9933 30.8575 86.9633C30.7572 86.0204 30.5466 85.0575 30.3059 84.1247C30.3159 84.1046 30.336 84.0845 30.3561 84.0545C29.8445 82.9311 29.323 81.8077 28.8115 80.6843C28.5808 80.1828 27.8887 80.0524 27.4474 80.3132C26.956 80.6141 26.8557 81.2159 27.0864 81.7174C27.9289 83.5529 28.7814 85.3785 29.5938 87.224C29.8847 87.886 30.1655 88.5681 30.4162 89.2602C30.0351 88.5982 29.664 87.9161 29.333 87.224C29.1425 86.8329 28.8215 86.6924 28.5006 86.7125C27.9489 86.5921 27.2769 86.9231 27.2468 87.6754C27.0964 92.0887 28.1796 96.5221 28.1896 100.925C28.1495 100.765 28.0994 100.615 28.0593 100.454C27.638 98.9395 27.2268 97.4249 26.8055 95.9103C26.5548 95.0176 25.0303 94.8471 24.8899 95.9103C24.6592 97.6355 24.3984 99.3507 24.0775 101.066C23.927 101.878 23.7665 102.691 23.586 103.503C23.5258 103.764 23.4757 104.015 23.4155 104.276C23.3654 104.065 23.3252 103.844 23.2851 103.624C23.1347 102.811 23.0444 101.999 22.9742 101.176C22.8438 99.4711 22.7836 97.7659 22.7435 96.0607C22.6633 92.52 22.7535 88.9793 22.9842 85.4487C23.0544 84.3754 21.7506 84.1748 21.219 84.8469C21.1689 84.887 21.1187 84.9171 21.0686 84.9672C20.1859 85.8599 19.3836 86.8228 18.6313 87.8459C19.3134 85.3283 20.2562 82.8909 21.4397 80.5739C22.0414 79.4004 20.3264 78.3673 19.7246 79.5308C17.8691 83.1317 16.5652 87.0134 15.8832 91.0255C16.8761 91.0356 17.8791 91.0456 18.8721 91.0556C19.1729 90.6243 19.4437 90.1529 19.7346 89.7216C20.0756 89.21 20.4467 88.7186 20.8278 88.2471C20.7877 89.19 20.7576 90.1328 20.7376 91.0757C21.0986 91.0757 21.4497 91.0857 21.8108 91.0857C21.9512 91.3164 22.0113 91.5772 22.0515 91.7979Z" fill="black"/>
<path d="M30.8676 86.9632C30.8676 86.9933 30.8977 87.1638 30.8977 87.2039C30.9177 87.3243 30.9378 87.4346 30.9679 87.555C30.998 87.6754 31.0281 87.8459 31.0983 87.9562C31.1284 88.0064 31.1585 88.0565 31.1785 88.0766C31.4694 88.5681 31.7602 89.0595 31.7402 89.6513C31.7301 89.862 31.6599 90.0626 31.5596 90.2331C31.9909 90.524 32.4623 90.7547 32.9638 90.9653C32.6529 89.4507 32.1213 88.0064 31.4995 86.572C31.1384 85.7295 30.7573 84.897 30.3761 84.0645C30.3561 84.0845 30.346 84.1046 30.326 84.1347C30.5567 85.0575 30.7673 86.0103 30.8676 86.9632Z" fill="black"/>
<path d="M29.8245 105.178C30.647 100.574 29.7042 96.0106 29.3531 91.4268C30.0251 92.3897 30.8475 93.1921 31.9408 93.5432C32.5125 93.7237 33.2647 93.2122 33.1945 92.5502C33.1443 92.0486 33.0641 91.5572 32.9738 91.0657C31.6299 91.0857 30.2759 91.0857 28.9319 91.0958C28.6711 91.3566 28.4404 91.6575 28.3 91.9784C27.9189 92.841 28.1295 93.9042 28.1596 94.807C28.1596 94.9273 28.1696 95.0377 28.1797 95.158C28.3201 95.479 28.4204 95.82 28.4906 96.131C28.8316 97.7258 28.8216 99.3708 29.0924 100.986C29.3331 102.41 27.3572 103.002 26.9059 101.587C26.3342 99.8021 26.1135 97.9766 25.9731 96.131C25.2811 96.9735 24.9401 98.0267 24.7896 99.1401C24.93 100.825 24.91 102.54 24.8297 104.215C24.7595 105.68 22.6232 105.68 22.553 104.215C22.4828 102.601 22.3925 100.966 22.543 99.3507C22.4928 98.7589 22.4326 98.1671 22.3323 97.5854C22.1518 96.5523 21.9512 95.5191 21.9612 94.466C21.9713 93.6435 22.0615 92.821 22.1017 91.9985C22.0816 91.9283 22.0615 91.848 22.0515 91.7979C22.0014 91.5672 21.9412 91.3164 21.8409 91.0958C21.4798 91.0958 21.1288 91.0857 20.7677 91.0857C20.7075 94.0146 20.7477 96.9434 20.9081 99.8623C21.0185 101.828 21.1689 103.884 21.7506 105.77C22.884 105.78 24.0173 105.79 25.1507 105.79C25.2811 105.279 25.3613 104.727 25.4616 104.276C25.7023 103.152 25.923 102.019 26.1336 100.885C26.2138 101.156 26.284 101.427 26.3643 101.708C26.7755 103.182 27.0363 104.877 28.3702 105.78C28.4003 105.8 28.4304 105.81 28.4605 105.82C28.7313 105.82 29.0021 105.82 29.2729 105.83C29.5437 105.72 29.7744 105.489 29.8245 105.178Z" fill="black"/>
<path d="M15.8631 91.2864C15.7428 92.0387 16.2944 92.7709 17.0868 92.5502C17.8992 92.3195 18.4408 91.7377 18.9021 91.0757C17.9092 91.0657 16.9062 91.0557 15.9133 91.0457C15.8932 91.1259 15.8732 91.2061 15.8631 91.2864Z" fill="black"/>
<path d="M29.2628 105.84C28.992 105.84 28.7212 105.84 28.4504 105.83C28.7012 105.96 29.0021 105.95 29.2628 105.84Z" fill="black"/>
<path d="M21.9713 106.422C22.3624 107.475 23.5058 108.067 24.4285 107.225C24.8097 106.874 25.0203 106.352 25.1607 105.81C24.0274 105.8 22.894 105.79 21.7607 105.79C21.8309 106.001 21.9011 106.212 21.9713 106.422Z" fill="black"/>
<path d="M23.7264 73.2215C23.7364 73.2015 23.7464 73.1815 23.7564 73.1715C23.7564 73.1615 23.7664 73.1615 23.7664 73.1515C23.7564 73.1615 23.7564 73.1615 23.7464 73.1715C23.7364 73.1915 23.7264 73.2115 23.7264 73.2215Z" fill="black"/>
<path d="M23.7966 73.1113C23.7866 73.1213 23.7766 73.1313 23.7666 73.1413C23.7666 73.1413 23.7666 73.1413 23.7666 73.1513C23.7866 73.1213 23.7966 73.1113 23.7966 73.1113Z" fill="black"/>
<path d="M23.7465 73.1616H23.7365V73.1716L23.7465 73.1616Z" fill="black"/>
<path d="M26.3041 71.6168C25.5318 71.0752 24.6191 70.7743 23.6963 70.9548C22.8137 71.1253 22.1417 71.7472 21.8308 72.5998C21.8208 72.6299 21.8208 72.66 21.8108 72.6901C21.6603 72.8104 21.55 72.981 21.5199 73.1916C21.2792 74.7864 21.209 76.632 21.9712 78.0964C22.8338 79.7414 24.7294 80.0323 26.284 79.3402C27.6982 78.6982 28.6811 77.284 28.7513 75.6891C28.7914 74.8967 28.5708 74.0542 28.1395 73.4022C27.6781 72.68 26.9861 72.0983 26.3041 71.6168ZM26.7654 75.7594C26.7454 75.8797 26.7253 76.0001 26.6852 76.1204C26.6752 76.1706 26.6551 76.2208 26.635 76.2709C26.635 76.2809 26.635 76.2809 26.625 76.291C26.625 76.291 26.625 76.301 26.615 76.301C26.5548 76.4314 26.4846 76.5517 26.4044 76.6721C26.3943 76.6821 26.3743 76.7122 26.3642 76.7323C26.3342 76.7724 26.3041 76.8025 26.274 76.8326C26.2038 76.9128 26.1235 76.9931 26.0433 77.0733C26.0333 77.0834 25.9831 77.1235 25.9631 77.1536C25.943 77.1636 25.9229 77.1837 25.9229 77.1837C25.8026 77.2639 25.6923 77.3441 25.5619 77.4144C25.5117 77.4444 25.4515 77.4745 25.4014 77.4946C25.3914 77.4946 25.3914 77.4946 25.3813 77.5046C25.271 77.5447 25.1607 77.5849 25.0403 77.6049C24.9902 77.615 24.94 77.625 24.8799 77.635C24.8498 77.635 24.8096 77.6451 24.7996 77.6451C24.7294 77.6451 24.6692 77.6551 24.599 77.6451C24.579 77.6451 24.4686 77.635 24.4285 77.635C24.3884 77.625 24.3282 77.615 24.3182 77.6049C24.2781 77.5949 24.248 77.5849 24.2079 77.5748C24.1878 77.5648 24.1477 77.5548 24.1377 77.5447C24.0975 77.5147 24.0474 77.4946 24.0073 77.4645C24.0374 77.4846 23.8568 77.3241 23.8267 77.294C23.8267 77.294 23.8167 77.2739 23.7966 77.2639C23.7766 77.2238 23.7264 77.1435 23.7164 77.1335C23.6863 77.0834 23.6562 77.0232 23.6261 76.973C23.6161 76.953 23.6161 76.9429 23.6061 76.9329C23.6061 76.9229 23.6061 76.9229 23.5961 76.9128C23.5459 76.7824 23.5058 76.642 23.4757 76.5016C23.4456 76.3612 23.4255 76.2207 23.3955 76.0803C23.3955 76.0703 23.3955 76.0703 23.3955 76.0703C23.3854 75.98 23.3754 75.8897 23.3754 75.8095C23.3253 75.1375 23.3453 74.315 23.4255 73.7433C23.4356 73.7031 23.4356 73.673 23.4356 73.6329C23.5559 73.5126 23.6562 73.3621 23.7264 73.1816C23.7264 73.1816 23.7264 73.1816 23.7164 73.1916C23.7164 73.1916 23.7164 73.1916 23.7264 73.1816C23.7264 73.1715 23.7365 73.1715 23.7365 73.1615C23.7365 73.1715 23.7365 73.1715 23.7264 73.1816C23.7365 73.1715 23.7465 73.1615 23.7465 73.1615C23.7565 73.1515 23.7666 73.1414 23.7766 73.1314C23.7866 73.1214 23.7966 73.1113 23.8067 73.1013C23.8167 73.1013 23.8167 73.1013 23.8167 73.0913C23.8468 73.0712 23.8969 73.0512 23.917 73.0311C23.9672 73.0211 24.0173 73.001 24.0674 72.981C24.0875 72.9709 24.1176 72.9709 24.1477 72.9709C24.1377 72.9709 24.1176 72.9709 24.0975 72.9709C24.1176 72.9709 24.1377 72.9709 24.1577 72.9709C24.1677 72.9709 24.1778 72.9709 24.1878 72.9709C24.248 72.9709 24.3182 72.9609 24.3784 72.9709C24.3884 72.9709 24.3884 72.981 24.3984 72.981C24.4586 73.011 24.5388 73.0211 24.599 73.0411C24.6091 73.0411 24.6993 73.0813 24.7294 73.0913C24.7595 73.1113 24.7996 73.1314 24.7996 73.1314C24.94 73.2117 25.0804 73.2919 25.2108 73.3822C25.5719 73.6329 26.0433 74.0241 26.3843 74.4454C26.3843 74.4554 26.3843 74.4554 26.3943 74.4554C26.4345 74.5156 26.4746 74.5758 26.5047 74.6259C26.5348 74.6761 26.5648 74.7363 26.5849 74.7864C26.5949 74.8065 26.605 74.8366 26.615 74.8466C26.6551 74.977 26.6952 75.1074 26.7153 75.2478C26.7153 75.2478 26.7153 75.2779 26.7253 75.308C26.7253 75.3581 26.7353 75.4685 26.7353 75.4885C26.7755 75.4986 26.7654 75.7192 26.7654 75.7594Z" fill="black"/>
<path d="M9.6548 57.7148C10.728 58.106 11.8112 58.1161 12.9044 57.9957C11.4802 57.6246 10.7882 56.2805 10.7882 54.8963C10.6678 54.8662 10.5474 54.8261 10.4371 54.776C10.2766 54.7058 9.81528 54.4851 9.7551 54.2744C9.66483 53.9735 9.9557 53.9334 9.66483 53.9535C10.3769 53.9033 10.8182 53.4419 10.9988 52.8802C11.1392 52.8301 11.2896 52.7799 11.4401 52.7298C11.8413 52.148 12.413 51.7067 13.1652 51.5462C16.2945 50.8842 19.5441 51.155 22.7235 50.824C26.1135 50.4629 29.4735 49.9012 32.8735 49.6003C39.7338 48.9985 46.895 48.3666 53.7754 48.6876C55.8516 48.7879 56.9247 50.2623 56.9548 51.8672C57.1354 51.7468 57.3159 51.6465 57.4964 51.5161C58.2687 50.9344 58.4994 49.8812 57.7973 49.1189C55.7613 46.9222 52.4114 47.3836 49.7535 47.4037C46.4036 47.4237 43.0537 47.4739 39.7038 47.5441C33.014 47.6845 26.3141 47.8952 19.6343 48.2462C16.0237 48.4268 12.5133 48.9082 9.15332 50.3626C8.66187 50.5733 8.27071 50.9644 8.13029 51.4559C7.34798 52.0176 6.84649 52.9605 6.8164 54.0438C6.75622 55.8492 8.12026 57.1632 9.6548 57.7148Z" fill="black"/>
<path d="M15.8932 58.5674C15.8732 58.6577 15.8531 58.7479 15.8531 58.8382C15.8029 59.8914 16.3947 60.5634 17.177 60.9747C17.177 60.2023 17.3776 59.42 17.7587 58.758C17.167 58.7479 16.5251 58.6677 15.8932 58.5674Z" fill="black"/>
<path d="M49.2921 56.9124C49.6632 57.444 49.8939 58.0759 49.9742 58.7078C50.5659 58.116 50.8668 57.3236 50.7866 56.5312C50.5158 56.5914 50.245 56.6516 49.9842 56.7218C49.7435 56.782 49.5128 56.8522 49.2921 56.9124Z" fill="black"/>
<path d="M53.7654 48.6976C46.885 48.3766 39.7238 49.0086 32.8635 49.6104C29.4634 49.9013 26.1035 50.473 22.7134 50.8341C19.534 51.1651 16.2844 50.8943 13.1551 51.5563C12.4029 51.7167 11.8312 52.1581 11.43 52.7398C16.7057 50.9143 22.5028 51.155 28.0091 50.9544C34.2777 50.7237 40.5462 50.5733 46.8148 50.5031C48.58 50.483 50.3452 50.473 52.1105 50.4629C52.2709 50.4629 52.4414 50.4629 52.6019 50.4529C51.7494 50.6836 50.8768 50.8541 49.9942 51.0246C47.8077 51.4359 45.6213 51.9073 43.6855 53.1009C43.1339 53.442 42.823 54.1742 43.0135 54.8261C43.4247 56.2705 44.6885 57.0127 46.0926 57.093C46.2732 57.103 46.4537 57.093 46.6343 57.083C46.5941 57.103 46.544 57.1231 46.5139 57.1331C43.5752 58.1562 40.3657 58.6176 37.2966 58.9486C34.1272 59.2896 30.9278 59.3899 27.7483 59.2796C26.0934 59.2194 24.4385 59.1091 22.7937 58.9386C21.9712 58.8583 21.1488 58.758 20.3264 58.6477C20.1258 58.6176 19.9252 58.5875 19.7246 58.5574C19.7446 58.5373 19.7747 58.5173 19.7948 58.4972C20.3063 58.0559 20.8178 57.6246 21.3293 57.1833C22.222 56.421 21.6503 54.9465 20.6774 54.6356C18.2402 53.8632 15.8531 54.5754 13.4159 54.9164C12.5935 55.0267 11.6206 55.1471 10.7781 54.9064C10.7781 56.2906 11.4702 57.6346 12.8944 58.0057C14.0979 57.8753 15.3115 57.5744 16.5151 57.4039C16.2142 57.7349 15.9735 58.106 15.8932 58.5775C16.5151 58.6778 17.157 58.758 17.7588 58.7781C17.3776 59.43 17.177 60.2224 17.177 60.9948C17.6484 61.2355 18.19 61.386 18.7016 61.4662C22.1618 61.9878 25.6521 62.3188 29.1625 62.3689C32.5927 62.4191 36.0128 62.2084 39.4028 61.7471C41.1681 61.5063 42.9333 61.1954 44.6785 60.8042C46.2531 60.4431 47.908 60.0319 49.3423 59.2094C49.583 59.069 49.7936 58.9085 49.9741 58.7279C49.8939 58.096 49.6632 57.4741 49.2921 56.9325C49.5228 56.8623 49.7535 56.8021 49.9842 56.7419C50.255 56.6717 50.5157 56.6115 50.7865 56.5513C50.7264 55.9596 50.4556 55.3778 49.944 54.8963C49.6532 54.6255 49.3322 54.435 48.9812 54.2945C51.6892 53.6626 54.5376 53.452 56.9548 51.9073C56.9147 50.2724 55.8315 48.7979 53.7654 48.6976Z" fill="black"/>
<path d="M39.804 116.924C39.0117 116.904 38.3297 117.636 38.3297 118.448C38.3297 119.291 39.0016 119.953 39.804 119.973C43.3244 120.053 46.8549 119.953 50.3653 119.692C51.1576 119.632 51.8396 119.03 51.8396 118.168C51.8396 117.385 51.1677 116.583 50.3653 116.643C46.8549 116.904 43.3345 117.004 39.804 116.924Z" fill="black"/>
<path d="M55.9719 2.71864C55.4002 2.06667 54.7081 1.515 53.8155 1.53506C52.7423 1.56515 52.0202 2.41773 51.4485 3.41073C51.1777 3.0697 50.8768 2.75876 50.5458 2.52806C49.603 1.85603 48.4095 1.96637 47.5971 2.81894C47.2561 3.18003 47.0254 3.65146 46.8549 4.12288C46.8348 4.1931 46.7546 4.36361 46.6844 4.56422C46.564 4.44385 46.4437 4.31346 46.3233 4.1931C45.8519 3.71164 45.3705 3.23019 44.8991 2.74873C43.5451 1.37458 41.4589 3.5311 42.8129 4.90525C44.1068 6.21922 46.0425 9.0578 48.1387 7.76389C48.8608 7.32255 49.1918 6.56025 49.4325 5.77789C49.7434 6.19916 50.0544 6.63046 50.3753 7.05174C51.0172 7.92437 52.3211 8.14504 52.9229 7.05174C53.2037 6.55022 53.4745 6.0487 53.7553 5.53716C53.8356 5.3867 53.9158 5.24628 53.996 5.09582C54.2367 5.33655 54.5176 5.58731 54.6379 5.7177L55.9919 7.26237C56.8044 8.19519 58.0781 7.58334 58.4492 6.59034C58.6298 6.10889 58.8604 5.64749 59.1212 5.21619C59.8133 5.93837 60.4852 6.67058 61.1271 7.44292C61.769 8.21525 62.9726 7.90431 63.444 7.13198C63.7148 6.68061 63.9856 6.23928 64.2564 5.78792C64.3166 5.68761 64.4069 5.52713 64.4971 5.36664C64.788 5.57728 65.0588 5.80798 65.3396 6.00858C65.9915 6.48001 66.6435 6.9414 67.2954 7.41283C68.2783 8.11495 69.4418 7.16207 69.512 6.09886C69.532 5.68761 69.9533 5.39673 70.3143 5.33655C71.0164 5.21619 71.6282 5.72773 72.0896 6.18913C73.3032 7.38274 75.0183 7.97453 76.2519 6.44992C76.6431 5.95843 76.7935 5.36664 77.0543 4.79492C77.2549 4.35358 77.1847 4.35358 77.5558 4.59431C78.1074 4.96543 78.3983 5.54719 78.7493 6.10889C79.2408 6.87119 79.7623 7.49307 80.4644 8.04474C81.1665 8.60643 82.5004 8.03471 82.6308 7.13198C82.7311 6.46998 82.8214 5.81801 82.9217 5.15601C82.9317 5.07576 82.9417 4.94537 82.9517 4.80495C82.9718 4.82501 82.9919 4.84507 83.0119 4.86513C83.4031 5.22622 83.8243 5.57728 84.2456 5.89825C85.0179 6.50007 85.9506 7.24231 86.9135 7.48304C88.5182 7.88425 89.6415 6.57028 90.0728 5.13595C90.2433 5.42683 90.484 5.72773 90.6545 5.96846C91.2363 6.78092 92.0487 7.38274 93.0617 7.39277C94.7366 7.4028 95.7296 6.21922 96.2511 4.79492C96.5219 5.04567 96.7827 5.33655 97.0033 5.5171C97.6954 6.08883 98.5379 6.49004 99.4406 6.53016C100.303 6.57028 101.105 6.25934 101.667 5.57728C101.858 5.34658 101.998 5.08579 102.118 4.80495C102.379 5.13595 102.63 5.48701 102.77 5.64749C103.192 6.14901 103.613 6.67058 104.155 7.04171C105.298 7.81404 106.712 7.52316 107.514 6.41983C107.835 5.97849 108.006 5.46695 108.207 4.9554C108.337 4.63443 108.397 4.37364 108.598 4.34355C109.571 4.16301 110.212 5.80798 110.553 6.48001C110.975 7.33258 112.248 7.49307 112.87 6.79095C113.372 6.21922 113.793 5.59734 114.124 4.94537C115.037 5.98852 116.09 6.88122 117.273 7.6034C118.908 8.59641 120.393 5.95843 118.758 4.96543C117.073 3.94234 115.769 2.52806 114.836 0.752698C114.094 -0.661577 112.188 0.100727 112.088 1.52503C112.058 2.00649 111.938 2.47791 111.787 2.91925C110.744 1.70558 109.37 0.903152 107.665 1.45482C106.481 1.83597 105.89 2.81894 105.458 3.94234C105.438 3.98246 105.418 4.04264 105.388 4.10282C105.378 4.09279 105.368 4.08276 105.358 4.07273C105.107 3.79188 104.867 3.501 104.626 3.22016C103.773 2.22715 102.841 0.812879 101.356 1.14388C100.403 1.35452 99.6512 2.33749 99.5308 3.34052C99.5509 3.14994 99.5108 3.34052 99.4907 3.49097C99.1096 3.42076 98.8087 3.12988 98.5279 2.86909C97.5449 1.98643 96.6022 1.23415 95.2481 1.20406C94.6765 1.19403 93.9142 1.68552 93.8239 2.32746C93.7537 2.84903 93.7236 3.46088 93.503 3.94234C93.4328 4.08276 93.2623 4.20313 93.2121 4.32349C93.2021 4.34355 93.1921 4.35358 93.1921 4.36361C92.51 3.68155 92.2292 2.7387 91.3767 2.16697C89.6416 1.01349 87.6156 2.25725 87.1843 4.1931C86.8433 3.92228 86.2615 3.68155 85.9907 3.47091C85.1382 2.82897 84.4662 1.83597 83.5335 1.33446C82.4402 0.742667 81.1163 1.06364 80.5446 2.23718C80.4243 2.48794 80.334 2.75876 80.2538 3.04964C79.7021 2.37761 78.98 1.82594 78.1475 1.58521C77.2047 1.30437 76.1717 1.44479 75.4094 2.10679C74.7374 2.61834 74.5068 3.28034 74.1958 4.00252C73.915 3.7317 73.4536 3.4007 73.3634 3.33049C72.5209 2.68855 71.4978 2.27731 70.4447 2.28734C69.201 2.3074 68.1279 2.89918 67.4158 3.81194C67.0647 3.56119 66.7137 3.31043 66.3626 3.04964C65.7107 2.58825 65.0588 1.99646 64.2263 1.98643C63.1832 1.96637 62.4611 2.82897 61.8794 3.79188C61.2676 3.11985 60.6357 2.46788 59.9737 1.846C59.4121 1.3144 58.4392 1.20406 57.8876 1.846C57.4262 2.38764 57.035 2.94934 56.674 3.54113C56.4533 3.27031 56.2126 2.98946 55.9719 2.71864Z" fill="#59C69F"/>
</svg>
