<svg width="120" height="120" viewBox="0 0 120 120" fill="none" xmlns="http://www.w3.org/2000/svg">
<path d="M54.0751 110.698C54.0527 110.676 54.019 110.653 53.9966 110.631C53.9966 110.653 53.9966 110.676 54.0078 110.698C54.0302 110.698 54.0527 110.698 54.0751 110.698Z" fill="white"/>
<path d="M54.0302 74.5339C52.2359 74.3993 50.4414 74.2422 48.647 74.0852C48.7368 75.622 48.8377 77.17 48.9723 78.7067C49.2639 81.9036 49.7013 85.0893 50.419 88.219C51.4956 92.8853 53.3013 97.5293 56.3293 101.22C57.2825 102.386 59.5928 105.348 61.3647 104.058C62.1722 103.463 62.2507 101.904 62.3517 100.995C62.4862 99.7727 62.5199 98.5388 62.4862 97.3161C62.4862 97.1703 62.4638 97.0357 62.4638 96.8899C60.4002 96.9572 58.348 96.9572 56.3293 96.9235C55.1629 96.9011 54.6694 95.8355 54.8377 94.9157C54.7928 94.5679 54.8489 94.2202 55.0395 93.9285C56.6433 91.5953 58.718 89.8006 60.8152 87.9834C60.2657 86.2111 59.6264 84.4836 58.9087 82.7898C57.6638 79.8621 56.2059 76.8671 54.0302 74.5339Z" fill="white"/>
<path d="M59.6601 74.9265C59.2115 74.8929 58.7629 74.8704 58.3143 74.8368C60.1872 77.5962 61.5666 80.8044 62.7329 83.8779C62.9572 84.4724 63.1703 85.0781 63.3834 85.6951C63.6189 85.4708 63.8433 85.2464 64.0564 85.0221C63.5741 83.4965 63.047 81.971 62.4526 80.4791C61.6675 78.5385 60.6694 76.7325 59.6601 74.9265Z" fill="white"/>
<path d="M65.1554 103.43C64.4265 106.503 61.6788 108.354 58.6732 107.266C55.9255 106.268 53.862 103.475 52.2695 101.074C48.7593 95.7683 47.1331 89.4193 46.3032 83.1264C45.8995 80.0304 45.5966 76.9008 45.4172 73.7712C44.6321 73.6927 43.8471 73.6142 43.0621 73.5356C42.5013 79.1891 43.5331 84.9324 45.4621 90.2606C46.864 94.1305 48.7144 97.8098 50.834 101.31C52.8863 104.697 55.1069 107.793 58.5386 109.823C58.9311 110.059 59.3349 110.272 59.7723 110.373C60.1312 110.452 60.5012 110.44 60.8713 110.407C63.1143 110.205 65.3573 108.949 66.49 106.907C66.961 106.066 67.2638 105.135 67.4432 104.181C67.5442 103.665 67.6115 103.149 67.6563 102.622C67.8245 100.603 67.6227 98.595 67.2414 96.6208C66.7143 96.6656 66.1872 96.7105 65.6601 96.7442C65.8059 98.9988 65.6713 101.253 65.1554 103.43Z" fill="white"/>
<path d="M104.733 47.4218C105.237 47.4218 105.742 47.5116 106.202 47.7135C106.179 47.6125 106.168 47.5116 106.146 47.4218C106 47.2872 105.821 47.2087 105.585 47.2199C105.293 47.2087 105.013 47.2872 104.733 47.4218Z" fill="black"/>
<path d="M67.017 79.4919C67.4095 80.2884 66.7703 81.5335 66.1311 82.4982C66.4002 83.2049 66.6694 83.9115 66.9273 84.6407C66.647 84.8538 66.3666 85.0669 66.0862 85.28C66.0302 85.3249 65.9741 85.381 65.918 85.4259C65.9853 85.6951 66.0525 85.9643 66.1086 86.2447C66.1871 86.5813 66.2769 86.929 66.3554 87.2879C67.6002 86.0204 68.6993 84.6294 69.4731 82.9469C70.2133 81.3428 70.6619 79.4919 69.7647 77.843C69.0806 76.5867 67.746 75.8688 66.4339 75.5323C65.3573 75.263 64.2357 75.1845 63.1143 75.1396C63.6414 76.2614 64.1124 77.3943 64.561 78.5048C65.4133 78.5721 66.6469 78.7292 67.017 79.4919Z" fill="black"/>
<path d="M104.172 60.1422L104.161 60.0973C104.06 58.7512 103.88 57.3603 103.634 55.9581L103.578 56.0703C103.533 57.0686 103.443 58.067 103.286 59.0765C102.467 64.0906 100.583 68.8355 98.0711 73.1878C95.4917 77.6523 92.3066 81.9709 88.4599 85.3586C84.6244 88.735 79.8693 90.8438 75.0133 92.0777C72.5572 92.7059 70.0563 93.0985 67.5442 93.334C67.6003 93.7266 67.6451 94.1305 67.69 94.5231C68.2956 94.6913 68.8227 95.0278 69.1704 95.5438C69.3498 95.499 69.5292 95.4653 69.6974 95.4317C69.7535 95.7345 69.7984 96.0262 69.8432 96.329C76.718 95.4317 83.3908 93.4013 89.0319 89.0378C93.372 85.6726 96.9047 81.1409 99.8206 76.4521C102.591 72.0212 104.789 67.1081 105.933 61.9481C105.697 61.8808 105.451 61.8135 105.204 61.7462C104.542 61.5219 104.116 60.8713 104.172 60.1422Z" fill="black"/>
<path d="M34.9873 72.5933C34.0228 72.4699 33.0696 72.3578 32.1051 72.2344C28.6173 71.7745 24.8155 71.5838 21.7089 69.7329C19.0734 68.1625 16.7632 65.8517 14.98 63.3166C11.0548 57.7417 9.1258 50.6187 10.1127 43.765C10.2249 42.991 9.96692 42.1946 9.2716 41.858C10.1127 38.3919 11.8174 35.2735 13.8361 32.357C16.236 28.8909 18.9276 25.5257 21.7425 22.4073C24.6696 19.1655 27.9781 16.5856 32.0042 14.9703C36.0864 13.3213 40.4378 12.2893 44.7443 11.5041C60.6246 8.62131 78.1422 10.9096 90.445 22.4522C94.258 26.0305 97.387 30.3043 99.5066 35.0828C99.6412 35.094 99.787 35.1165 99.9215 35.1277C100.045 35.1389 100.179 35.1501 100.325 35.1613C101.122 35.2062 102.12 35.2735 102.647 36.1485C103.084 36.8776 102.961 37.6964 102.849 38.4256C102.826 38.5602 102.804 38.6948 102.793 38.8294C102.602 40.4334 102.366 42.0712 102.108 43.6977C102.108 43.7089 102.108 43.7089 102.12 43.7201C102.243 44.2585 102.355 44.7857 102.467 45.3242C103.264 44.7633 104.295 44.2249 105.484 44.2024C105.327 43.4958 105.159 42.7779 104.991 42.0712C102.108 26.2661 89.1216 14.1963 74.6095 9.63086C65.761 6.84898 56.3405 6.54611 47.2116 7.81366C38.3518 9.04756 28.7407 11.2349 21.922 17.5839C18.2323 21.0276 15.0585 25.2228 12.0641 29.3059C9.14822 33.2881 6.61367 37.7189 5.83984 42.7105C5.71648 43.5406 6.03051 44.3819 6.83799 44.6736C6.35575 50.4056 7.45478 56.1488 10.0342 61.2863C12.8379 66.8725 17.7613 72.4475 23.8173 74.1413C27.0472 75.0499 30.5014 75.3415 33.8435 75.7229C34.3145 74.9714 34.6733 74.1525 34.864 73.2776C34.9313 73.0645 34.9649 72.8289 34.9873 72.5933Z" fill="black"/>
<path d="M66.3442 87.2768C66.2657 86.9178 66.176 86.5701 66.0975 86.2336C66.0302 85.9644 65.9629 85.6951 65.9068 85.4147C65.4358 85.7849 64.976 86.1663 64.5274 86.5589C64.3704 86.0429 64.2134 85.5381 64.0564 85.0333C63.8321 85.2577 63.6078 85.482 63.3835 85.7064C63.5517 86.2111 63.7199 86.7159 63.8882 87.2319C63.0246 88.0283 62.1274 88.7911 61.2863 89.61C61.1405 89.0715 60.9835 88.5331 60.8153 87.9947C58.7181 89.8119 56.6545 91.6066 55.0396 93.9398C54.8377 94.2315 54.7817 94.5792 54.8377 94.9269C54.6695 95.8355 55.1742 96.9124 56.3293 96.9348C58.348 96.9685 60.4003 96.9685 62.4638 96.9012C62.4414 96.5871 62.4302 96.2618 62.4078 95.9477C63.4844 95.9702 64.5611 95.9253 65.6377 95.8355C65.6601 96.1384 65.6825 96.4413 65.6937 96.7441C66.2208 96.7105 66.748 96.6656 67.2751 96.6208C67.2302 96.3964 67.1965 96.1608 67.1517 95.9365C67.8358 95.8355 68.5087 95.7009 69.1816 95.5551C68.8339 95.0391 68.3069 94.7026 67.7012 94.5343C67.6564 94.1417 67.6115 93.7379 67.5554 93.3453C64.819 93.6145 62.0713 93.693 59.3237 93.693C61.4657 91.3599 64.1349 89.5202 66.3442 87.2768Z" fill="black"/>
<path d="M52.8975 73.4346C51.776 72.4811 50.4639 71.7296 49.0396 71.4379C48.8601 71.4043 48.647 71.3818 48.5349 71.5277C48.4788 71.6062 48.4676 71.7071 48.4564 71.8081C48.4115 72.4923 48.591 73.1542 48.6246 73.8272C48.6246 73.9169 48.6358 73.9954 48.6358 74.0852C50.4302 74.2534 52.2246 74.3993 54.019 74.5339C53.6713 74.1525 53.3012 73.7823 52.8975 73.4346Z" fill="white"/>
<path d="M45.3611 72.6158C45.3274 71.9428 45.3835 71.2473 45.5518 70.5967C45.5181 70.5967 45.4844 70.5967 45.4508 70.5967C44.8115 70.5967 44.1723 70.6079 43.5219 70.6079C43.3312 71.5838 43.1742 72.5597 43.0845 73.5356C43.8695 73.6141 44.6545 73.6926 45.4396 73.7712C45.4059 73.3898 45.3835 72.9972 45.3611 72.6158Z" fill="white"/>
<path d="M57.5293 71.4604C56.7555 71.236 55.8471 71.18 55.062 71.1014C56.2956 72.1895 57.3611 73.4571 58.3031 74.848C58.7517 74.8817 59.2003 74.9041 59.6489 74.9377C59.3909 74.4778 59.133 74.0179 58.875 73.5468C58.4825 72.8177 58.0228 72.1222 57.5293 71.4604Z" fill="white"/>
<path d="M83.6935 49.34C83.1552 49.7102 82.5497 50.0242 81.8992 50.0803C81.3384 50.1252 80.8001 50.0467 80.2955 49.8336C80.5646 50.0579 80.8562 50.2598 81.1926 50.4393C83.1216 51.4376 84.7141 49.9906 84.9496 48.0164C84.6132 48.5436 84.1646 49.0147 83.6935 49.34Z" fill="white"/>
<path d="M101.996 59.2C101.581 59.8057 101.133 60.1871 100.617 60.389C100.404 62.2174 100.067 64.0122 99.5514 65.7733C99.2935 66.6482 98.4524 67.1193 97.6001 66.9174C96.7814 66.7267 96.2543 65.7284 96.4898 64.9095C96.916 63.4401 97.2299 61.9482 97.4318 60.4339C97.443 60.3441 97.4543 60.2656 97.4655 60.1759C97.4655 60.1422 97.4767 60.1086 97.4879 60.0637L94.7627 59.3346C94.4262 59.2448 94.1571 59.0541 93.9777 58.7961C93.6861 58.5269 93.529 58.1568 93.5178 57.7193L93.1589 39.8053C93.1477 39.2669 93.3832 38.807 93.7982 38.549C93.9664 38.448 94.1571 38.392 94.3589 38.3583C94.3477 38.1227 94.3365 37.8984 94.3253 37.6628C94.3253 37.5731 94.3253 37.4946 94.3253 37.4048C94.1235 37.3712 93.9216 37.3375 93.7309 37.3039C93.3832 37.2478 93.0805 37.0234 92.8674 36.6869C92.6431 36.3168 92.5645 35.8344 92.6655 35.4418C92.8673 34.6678 93.5963 34.2304 94.4262 34.3874C96.1085 34.679 97.8019 34.9146 99.4842 35.0829C97.3645 30.3043 94.2356 26.0305 90.4225 22.4522C78.1086 10.9097 60.5909 8.61014 44.7218 11.5042C40.4153 12.2894 36.064 13.3214 31.9817 14.9703C27.9556 16.5856 24.6472 19.1656 21.7202 22.4074C18.9052 25.5258 16.2136 28.8797 13.8136 32.3571C11.7949 35.2736 10.1015 38.4032 9.24915 41.8581C9.94447 42.1946 10.2024 42.9798 10.0903 43.765C9.10335 50.6188 11.0323 57.7417 14.9576 63.3167C16.7407 65.8518 19.0622 68.1626 21.6865 69.733C24.793 71.595 28.5949 71.7745 32.0827 72.2344C33.0472 72.3578 34.0005 72.4812 34.9649 72.5934C35.0322 71.9989 35.0546 71.4043 35.0658 70.7986C31.7911 70.4845 28.4939 70.0246 25.5556 68.3757C24.7818 67.9382 24.6024 66.9062 24.9837 66.1434C25.3874 65.347 26.4192 65.1451 27.1481 65.5601C28.3818 66.2444 29.7388 66.6931 31.2977 67.0184C31.7014 67.0969 32.1051 67.1754 32.5089 67.2427C32.6547 67.2652 32.8004 67.2876 32.9462 67.31C32.9686 67.31 33.3612 67.3661 33.4061 67.3661C34.1238 67.4559 34.8528 67.5232 35.5705 67.5905C36.378 65.9079 38.1724 65.5377 40.0004 64.9769C43.2752 63.9785 46.6508 63.227 50.0826 63.4962C51.6527 63.6196 53.234 63.9561 54.6358 64.7188C56.8676 65.9303 58.6507 67.7587 60.1423 69.89C60.1872 69.8788 60.2432 69.8676 60.2881 69.8564C63.3386 69.4413 66.3554 70.4621 69.204 71.4829C70.0451 71.7857 70.5161 72.5821 70.3142 73.4907C70.1348 74.3096 69.1479 74.9153 68.3628 74.6349C67.0058 74.1526 65.6489 73.6702 64.247 73.3449C63.9105 73.2664 63.5629 73.1991 63.2152 73.143C63.148 73.1318 63.1255 73.1206 63.1031 73.1206C63.0806 73.1206 63.0582 73.1206 63.0022 73.1094C62.7891 73.0869 62.576 73.0645 62.3629 73.0533C62.262 73.0421 62.1498 73.0533 62.0489 73.0533C62.4077 73.7375 62.7554 74.4442 63.0806 75.1509C64.2021 75.207 65.3124 75.2743 66.4002 75.5435C67.7124 75.8688 69.047 76.5979 69.7311 77.8543C70.6283 79.5032 70.1909 81.3428 69.4395 82.9581C68.6544 84.6407 67.5554 86.0316 66.3217 87.2992C66.4563 87.8713 66.5909 88.4546 66.7254 89.0603C67.0058 88.836 67.3086 88.7574 67.6675 88.7126C67.6227 88.7238 67.5778 88.7238 67.5217 88.735C68.9124 88.5443 70.2806 88.2527 71.6264 87.8601C72.4787 87.6133 73.3086 88.1629 73.5778 89.0042C73.8469 89.8455 73.275 90.7878 72.4675 91.0121C70.8974 91.4608 69.3049 91.7637 67.69 91.9768C67.5554 91.9992 67.4208 91.9656 67.2862 91.9319C67.3647 92.4143 67.4432 92.8854 67.5105 93.3677C70.0226 93.1209 72.5124 92.7283 74.9797 92.1114C79.8357 90.8775 84.5908 88.7686 88.4263 85.3923C92.273 82.0046 95.458 77.686 98.0375 73.2215C100.55 68.8692 102.445 64.1243 103.252 59.1102C103.421 58.1007 103.499 57.1023 103.544 56.104L102.568 58.1119C102.434 58.4484 102.243 58.841 101.996 59.2ZM15.1594 35.7222C15.5183 34.9707 15.866 34.2191 16.2248 33.4676C16.5613 32.7385 16.9538 31.9981 17.5594 31.4709C17.8959 31.1793 18.2435 31.011 18.6809 30.9886C19.1071 30.9661 19.4996 31.1793 19.8024 31.4709C20.094 31.7513 20.2622 32.2225 20.2622 32.6263C20.2622 33.0077 20.094 33.5237 19.8024 33.7817C19.7015 33.8714 19.6117 33.9836 19.522 34.0845C19.2304 34.5332 19.0061 35.0156 18.7818 35.4979C18.4902 36.1261 18.1987 36.7542 17.8958 37.3712C17.7164 37.7526 17.3239 37.9993 16.9538 38.1227C16.5501 38.2573 16.1015 38.1564 15.7314 37.9545C15.3837 37.7638 15.1033 37.36 15.0024 36.9786C14.8902 36.5411 14.98 36.1261 15.1594 35.7222ZM14.9576 52.5481C14.1052 52.8286 13.2865 52.2116 13.0062 51.404C12.1651 48.925 12.1202 46.1431 12.8716 43.6416C13.1295 42.7667 13.9594 42.2956 14.823 42.4975C15.6417 42.6882 16.1688 43.6865 15.9332 44.5054C15.7762 45.0214 15.6192 45.571 15.5744 46.1094C15.5744 46.1543 15.5631 46.2104 15.5631 46.2328C15.5519 46.4011 15.5407 46.5581 15.5295 46.7264C15.5183 46.9956 15.5071 47.2648 15.5183 47.5228C15.5183 47.792 15.5407 48.0612 15.5631 48.3192C15.5743 48.3977 15.5744 48.4875 15.5856 48.566C15.608 48.7567 15.608 48.7343 15.5744 48.4987C15.5631 48.6109 15.6192 48.7567 15.6304 48.8577C15.7314 49.4185 15.8772 49.9794 16.0678 50.5178C16.3594 51.404 15.7314 52.2901 14.9576 52.5481ZM22.0117 64.8983C21.4285 65.5602 20.3743 65.4928 19.7687 64.8983C18.0753 63.2382 16.6846 61.2303 15.7314 59.0205C15.5519 58.5942 15.4734 58.2128 15.5744 57.7642C15.6641 57.3491 15.9669 57.0126 16.3034 56.7882C16.6398 56.5639 17.1444 56.519 17.5257 56.62C17.8734 56.721 18.322 57.0238 18.4678 57.3715C18.9052 58.3923 19.4435 59.3794 20.0715 60.2993C20.15 60.4114 20.2286 60.5348 20.3183 60.647C20.3407 60.6806 20.3743 60.7255 20.3967 60.7592C20.565 60.9723 20.722 61.1854 20.9014 61.3873C21.2491 61.8024 21.6304 62.2062 22.0117 62.5876C22.6509 63.2157 22.5837 64.2589 22.0117 64.8983ZM29.7612 24.3704C29.6379 24.404 29.5145 24.4265 29.4023 24.4713C29.3126 24.505 29.2004 24.5611 29.0995 24.5835C29.0659 24.5947 29.0323 24.6172 28.9986 24.6284C28.8865 24.6845 28.7743 24.7518 28.6622 24.8079C28.2248 25.0659 27.8098 25.3687 27.3949 25.6716C26.4753 26.3671 25.5556 27.0737 24.636 27.7804C23.9295 28.3301 22.8977 27.8702 22.4715 27.1971C22.2585 26.8494 22.2024 26.3334 22.3145 25.9408C22.4267 25.5033 22.6958 25.2229 23.0435 24.9649C23.9856 24.247 24.9276 23.5179 25.8696 22.8C26.7892 22.1045 27.7874 21.4875 28.9089 21.2183C29.7724 21.0164 30.5799 21.4875 30.8603 22.3625C31.1182 23.1814 30.5687 24.1797 29.7612 24.3704ZM87.0357 25.4024C87.3048 25.0995 87.7646 24.92 88.1571 24.92C88.6057 24.92 88.9422 25.1107 89.2786 25.4024C90.8039 26.7148 92.1272 28.2403 93.2824 29.9117C93.5291 30.2707 93.529 30.7642 93.4393 31.168C93.3496 31.5831 93.0468 31.9196 92.7104 32.1439C92.3739 32.3683 91.8692 32.4132 91.4879 32.3122C91.073 32.1888 90.7814 31.9196 90.5459 31.5606C90.4226 31.3812 90.2992 31.2129 90.1758 31.0334C89.245 29.8108 88.202 28.7002 87.0469 27.7019C86.7329 27.4327 86.5982 26.9616 86.587 26.5465C86.5534 26.1203 86.7553 25.7052 87.0357 25.4024ZM77.7049 19.5357C77.8843 18.7057 78.8712 18.1224 79.6562 18.3916C81.4394 18.9973 83.0768 20.0854 84.288 21.5773C84.5684 21.925 84.7366 22.2728 84.7478 22.7327C84.7702 23.1701 84.5572 23.574 84.288 23.888C84.0188 24.1909 83.559 24.3704 83.1665 24.3704C82.7964 24.3704 82.2917 24.1909 82.045 23.888C81.6861 23.4393 81.2824 23.0467 80.845 22.6766C80.3403 22.2952 79.802 21.9699 79.2301 21.7007C79.0955 21.6446 78.9609 21.5885 78.8151 21.5436C77.9628 21.252 77.503 20.4331 77.7049 19.5357ZM48.905 13.3438C51.877 12.7381 54.9162 12.4577 57.9555 12.5362C58.8414 12.5586 59.5031 13.2653 59.5367 14.1739C59.5704 15.0376 58.7854 15.834 57.9555 15.8116C56.5424 15.778 55.118 15.8116 53.705 15.9238C53.3461 15.9574 52.9873 15.9911 52.6284 16.0247C52.4602 16.0472 52.2919 16.0584 52.1349 16.0808C52.1349 16.0808 51.9218 16.1145 51.8433 16.1257C51.148 16.2267 50.4415 16.35 49.7574 16.4959C48.8826 16.6753 48.0863 16.2491 47.8059 15.3517C47.548 14.5553 48.0863 13.5121 48.905 13.3438ZM34.92 17.5166C37.0845 16.4173 39.2939 15.3517 41.7499 15.2844C42.6359 15.262 43.2976 16.0472 43.3312 16.9221C43.3648 17.8195 42.5798 18.5374 41.7499 18.5598C41.6041 18.5598 41.4583 18.5711 41.3238 18.5823C41.2565 18.5823 41.178 18.5935 41.1107 18.6047C41.0882 18.6047 41.0883 18.6047 41.0658 18.6047C41.0098 18.6159 40.9537 18.6271 40.8864 18.6384C40.763 18.6608 40.6396 18.6832 40.5163 18.7169C40.0228 18.8291 39.5406 18.9861 39.0696 19.1544C38.8228 19.2441 38.5537 19.3338 38.307 19.4572C38.363 19.4348 38.4303 19.4011 38.4864 19.3787C38.4191 19.4124 38.3518 19.4348 38.2845 19.4684C38.1499 19.5245 38.0154 19.5918 37.8808 19.6591C37.421 19.8835 36.9612 20.1078 36.5126 20.3434C35.7163 20.7472 34.8415 20.5453 34.3481 19.7601C33.9107 19.0422 34.1686 17.8868 34.92 17.5166ZM69.1927 43.0359C69.1815 47.5677 69.3722 52.2901 67.7796 56.5976C67.7572 56.6536 67.7348 56.7097 67.7012 56.7546C67.5891 57.4613 66.9385 57.9436 66.2544 57.9885C63.1928 58.2016 60.1311 58.2801 57.0582 58.2128C56.3068 58.1904 55.7349 57.6295 55.6227 56.9004C55.6115 56.8668 55.5891 56.8443 55.5779 56.8107C54.7704 54.4887 53.7947 52.234 52.6732 50.0355C52.5723 50.5851 52.4713 51.1348 52.3704 51.6844C52.2022 52.5593 52.0339 53.4343 51.8657 54.3092C51.7311 55.0271 51.6302 55.7675 51.3947 56.4629C51.1256 57.2369 50.7106 57.9997 50.0041 58.4372C49.2639 58.8971 48.434 58.8971 47.6041 58.9083C45.877 58.9307 44.1387 58.9644 42.4116 58.9868C42.0191 58.9981 41.7051 58.8634 41.4808 58.6503C41.1443 58.4933 40.8528 58.2016 40.7182 57.7193C38.4416 49.8784 36.1649 42.0488 33.8995 34.2079C33.3612 32.3459 36.1761 31.5494 36.7145 33.4115C38.8902 40.9271 41.077 48.4426 43.2527 55.9582C43.948 55.947 44.6545 55.9357 45.3499 55.9245C44.3966 54.6794 44.1162 52.7164 43.6789 51.3254C42.9162 48.9586 42.0191 46.6479 41.0882 44.3371C39.3163 39.9175 37.5219 35.4755 36.5238 30.7867C36.1537 30.652 35.8509 30.394 35.6715 30.0127C34.8416 30.1248 34.0116 30.2146 33.1817 30.3043C32.3855 30.3828 31.7238 29.5415 31.7238 28.8012C31.7238 27.9263 32.3967 27.3766 33.1817 27.2981C35.7051 27.0289 38.2173 26.6699 40.7182 26.1988C41.8509 25.9857 43.2527 25.4697 44.2172 26.3783C45.0471 27.1635 45.0471 28.4535 45.1929 29.5303C45.72 33.232 46.1461 36.9337 46.4826 40.6578C46.8078 40.1643 47.1331 39.6707 47.4807 39.1884C48.6022 37.6628 50.0041 36.2495 51.8994 35.9242C54.0527 35.554 55.6452 36.6084 56.8788 38.3471C57.204 38.7958 57.5069 39.2669 57.8097 39.7268C57.9779 37.001 58.2582 34.2864 58.6732 31.5943C58.819 30.6296 58.9311 29.6425 59.5255 28.8349C60.0414 28.1282 60.8152 27.7131 61.6451 27.5224C63.5853 27.0737 65.6601 26.9728 67.6339 26.7148C67.9591 26.6699 68.2619 26.8045 68.5086 27.0177C68.9124 27.242 69.2152 27.657 69.2152 28.2852C69.2264 33.1984 69.2039 38.1115 69.1927 43.0359ZM69.0918 17.1465C67.9591 16.81 66.804 16.5632 65.6376 16.3837C64.7629 16.2491 64.3591 15.1498 64.5274 14.3758C64.6171 13.9832 64.9311 13.6018 65.2563 13.3999C65.6488 13.1643 66.0414 13.1643 66.4787 13.2316C69.0021 13.6242 71.4245 14.387 73.7572 15.4414C74.5647 15.8116 74.688 16.967 74.3292 17.6737C74.1497 18.0326 73.746 18.3243 73.3871 18.4252C72.9385 18.5486 72.5684 18.4477 72.1647 18.257C72.0974 18.2233 72.0301 18.2009 71.9628 18.1672C71.9516 18.1672 71.9516 18.1672 71.9516 18.156C71.8283 18.1112 71.7161 18.0551 71.5927 18.0102C71.3124 17.898 71.032 17.7859 70.7516 17.6849C70.2021 17.483 69.6526 17.3035 69.0918 17.1465ZM75.8544 80.4791C75.8095 81.1521 75.6974 81.8476 75.4619 82.4758C75.1815 83.2273 74.8339 83.8331 74.3516 84.4612C74.1049 84.7977 73.6227 84.9211 73.2301 84.9436C72.804 84.966 72.4114 84.7529 72.1086 84.4612C71.8171 84.1808 71.6488 83.7097 71.6488 83.3058C71.6488 82.8347 71.8395 82.5094 72.1086 82.1505C71.8058 82.5543 72.075 82.1953 72.131 82.0944C72.1983 81.9934 72.2544 81.8813 72.3217 81.7691C72.3666 81.6794 72.4002 81.5784 72.4451 81.4999C72.4563 81.4774 72.4675 81.455 72.4675 81.4326C72.546 81.2082 72.6021 80.9839 72.6469 80.7483C72.6581 80.7147 72.6582 80.6922 72.6582 80.6586C72.6582 80.5688 72.6806 80.4679 72.6806 80.3894C72.6918 80.1538 72.6918 79.9182 72.6694 79.6827C72.6694 79.6715 72.6694 79.6602 72.6694 79.6378C72.647 79.5144 72.6245 79.3798 72.5909 79.2564C72.5684 79.1555 72.5348 79.0545 72.5124 78.9648C72.4899 78.9087 72.389 78.6843 72.3778 78.6058C72.3666 78.5722 72.3441 78.5385 72.3329 78.5049C72.2768 78.3815 72.2095 78.2581 72.1423 78.1459C71.6824 77.3607 71.9965 76.3848 72.7142 75.9137C73.4432 75.4313 74.4525 75.7678 74.8787 76.497C75.5628 77.6636 75.9441 79.0994 75.8544 80.4791ZM84.9945 85.1118C83.1777 86.3345 81.2151 87.3104 79.174 88.0732C78.3441 88.3873 77.4694 87.7142 77.2226 86.929C77.0993 86.5364 77.1889 86.0204 77.3796 85.6727C77.5927 85.2913 77.9291 85.067 78.3217 84.9211C78.5684 84.8314 78.8263 84.7304 79.073 84.6295C79.1964 84.5846 79.3086 84.5285 79.4319 84.4837C79.8917 84.2705 80.3404 84.0574 80.789 83.8331C81.6861 83.3731 82.5497 82.8572 83.3796 82.2963C84.1198 81.8027 85.0955 82.1617 85.5441 82.8796C86.0487 83.6424 85.6899 84.6519 84.9945 85.1118ZM82.4151 58.5494C78.5011 58.9307 74.8899 56.2162 72.86 52.9183C70.6843 49.3736 70.7853 44.9092 73.0619 41.443C75.2936 38.0442 79.4095 36.3953 83.2898 36.8328C84.2655 36.9449 84.6468 37.8087 84.5347 38.5826C84.8823 38.8855 85.1628 39.2669 85.3422 39.6819C85.3534 39.6932 85.3758 39.7044 85.387 39.7044C85.1964 38.5378 86.4861 37.259 87.6525 38.1788C91.23 40.9944 91.7459 46.9844 90.5795 51.146C89.5253 54.9262 86.3179 58.1568 82.4151 58.5494ZM95.1104 73.4907C94.4936 75.2967 93.4393 76.9681 91.9926 78.1908C91.7907 78.3927 91.5665 78.5385 91.2973 78.6058L90.8711 78.6619C90.445 78.6843 90.0524 78.4712 89.7496 78.1796C89.458 77.8991 89.2899 77.428 89.2899 77.0242C89.2899 76.6428 89.458 76.1156 89.7496 75.8688C90.2094 75.4762 90.6244 75.0387 91.0057 74.5564C91.3758 74.0292 91.6898 73.4795 91.9478 72.885C91.9814 72.7953 92.015 72.7055 92.0487 72.6158C92.1945 72.2008 92.4188 71.8755 92.7777 71.6399C93.1365 71.4043 93.5963 71.3819 94.0001 71.4716C94.3814 71.5614 94.7515 71.8867 94.9421 72.2232C95.144 72.5709 95.245 73.1094 95.1104 73.4907Z" fill="white"/>
<path d="M82.1347 46.1543C81.8768 46.1094 81.63 46.0758 81.3721 46.0421C81.3497 46.0758 81.3272 46.0982 81.3047 46.1319C81.2711 46.2104 81.2375 46.3001 81.2151 46.3786C81.2039 46.4347 81.2038 46.4908 81.1926 46.5469C81.2038 46.603 81.2039 46.6591 81.2151 46.7151C81.2375 46.7712 81.2599 46.8273 81.2824 46.8722C81.316 46.9171 81.3496 46.9507 81.3833 46.9956C81.4057 47.018 81.4281 47.0292 81.4505 47.0404C81.4618 47.0404 81.473 47.0517 81.4842 47.0517C81.4954 47.0517 81.5178 47.0517 81.5291 47.0517C81.5851 47.0404 81.63 47.0292 81.6861 47.018C81.7646 46.9844 81.8431 46.9507 81.9104 46.9058C82.0562 46.7937 82.202 46.6815 82.3253 46.5469C82.3926 46.4684 82.4487 46.3898 82.5047 46.3001C82.4823 46.2777 82.4599 46.2665 82.4262 46.244C82.3365 46.2328 82.2356 46.1879 82.1347 46.1543Z" fill="white"/>
<path d="M101.951 45.7056C102.108 45.5823 102.288 45.4476 102.478 45.3243C102.366 44.7858 102.243 44.2586 102.131 43.7202C102.131 43.709 102.131 43.709 102.12 43.6978C102.008 44.4157 101.907 45.1336 101.783 45.8402C101.839 45.7954 101.895 45.7505 101.951 45.7056Z" fill="white"/>
<path d="M46.9537 68.5215C47.7051 68.0279 48.6134 67.8821 49.4209 68.1176C49.6003 68.1064 49.8022 68.1176 50.0153 68.1849C51.9667 68.8019 53.6265 69.8227 55.0732 71.1014C55.8583 71.1799 56.7667 71.2248 57.5405 71.4604C56.5985 70.1928 55.4881 69.0711 54.1872 68.1849C52.0227 66.7155 49.32 65.9864 46.7742 66.5136C45.9443 66.6818 45.092 67.0183 44.5424 67.6802C44.0938 68.2186 43.9032 68.9253 43.7349 69.6207C43.6564 69.946 43.5892 70.2826 43.5219 70.6191C44.1612 70.6079 44.8004 70.6079 45.4508 70.6079C45.4845 70.6079 45.5182 70.6079 45.5518 70.6079C45.7649 69.7666 46.1911 69.015 46.9537 68.5215Z" fill="white"/>
<path d="M66.6021 91.4608C66.288 91.1691 66.1535 90.7316 66.1423 90.3054C66.1198 89.9016 66.3329 89.4304 66.6021 89.15C66.6469 89.1051 66.703 89.0715 66.7479 89.0266C66.6133 88.4209 66.4787 87.8376 66.3441 87.2655C64.1348 89.5202 61.4656 91.3598 59.3124 93.6818C62.06 93.6818 64.8189 93.592 67.5441 93.334C67.4768 92.8517 67.3983 92.3694 67.3198 91.8982C67.0507 91.8197 66.7927 91.6515 66.6021 91.4608Z" fill="white"/>
<path d="M40.9985 73.3112C39.9667 73.1991 38.935 73.0869 37.9032 72.9635C35.4247 85.8185 40.1573 99.9074 48.9274 109.633C49.1741 109.969 49.4209 110.317 49.6676 110.653C49.69 110.687 49.7124 110.732 49.7237 110.766C50.8676 110.889 52.0227 110.9 53.1666 110.799C53.1554 110.777 53.1666 110.743 53.1554 110.721C53.447 110.721 53.7274 110.71 54.019 110.71C54.019 110.687 54.019 110.665 54.0078 110.642C53.3236 110.115 52.6732 109.532 52.0676 108.892C44.3293 98.6286 40.3705 85.7848 40.9985 73.3112Z" fill="#59C69F"/>
<path d="M41.1779 70.8098C41.1891 70.7425 41.2003 70.6864 41.2228 70.6191C41.133 70.6191 41.0433 70.6191 40.9648 70.6191C40.1125 70.6191 39.2153 70.462 38.3518 70.5742C38.2957 70.9332 38.2284 71.3033 38.1723 71.6623C38.0714 72.0885 37.9817 72.5148 37.9032 72.9523C38.935 73.0757 39.9667 73.1766 40.9985 73.3C41.0322 72.4699 41.0994 71.6398 41.1779 70.8098Z" fill="#59C69F"/>
<path d="M38.621 68.9477C38.52 69.4973 38.4415 70.0358 38.3518 70.5854C39.2041 70.4732 40.1013 70.6303 40.9649 70.6303C41.0546 70.6303 41.1443 70.6303 41.2228 70.6303C41.4247 69.6319 41.7051 68.7009 42.0976 67.8596C40.9313 68.1737 39.7761 68.5439 38.621 68.9477Z" fill="#59C69F"/>
<path d="M9.82111 111.629C9.87718 111.484 9.85475 111.517 9.82111 111.629V111.629Z" fill="black"/>
<path d="M69.5741 97.5069C68.9236 103.127 67.5666 112.538 60.5685 111.697C60.2096 111.854 59.8171 111.955 59.4246 112C57.6527 112.168 55.4097 112.403 53.2564 112.258C53.0658 112.347 52.8302 112.392 52.5723 112.359C51.9667 112.291 51.4396 112.123 50.9573 111.899C49.6676 111.573 48.5125 111.001 47.6265 110.07C44.7443 107.03 42.7144 101.803 40.7742 98.0677C38.7668 94.1978 37.1406 89.7333 36.7817 85.3249C36.7705 85.1791 36.7705 85.0445 36.7593 84.8987C36.7257 84.7192 36.6808 84.5509 36.6359 84.3715C36.0752 81.5896 35.5144 78.5834 35.5368 75.6669C35.5256 75.7566 35.5032 75.8463 35.492 75.9361C35.335 75.9136 35.1668 75.9024 35.0098 75.88C34.6285 75.8351 34.2471 75.7903 33.8658 75.7454C33.1817 76.8559 32.2509 77.8318 31.264 78.6731C29.2116 80.4118 27.0136 81.9822 24.9276 83.6872C20.6435 87.187 17.0547 91.3486 13.0398 95.1288C12.2996 95.8243 11.5034 96.4749 10.7407 97.1367C10.0566 97.7312 9.40621 98.5276 8.46416 98.6735C7.95949 98.752 7.44356 98.6286 6.95011 98.4828C5.70525 98.1126 4.50527 97.5966 3.38378 96.946C2.74453 96.5758 2.01559 96.1384 1.30905 96.3627C0.501582 96.6207 0.109044 97.5966 0.0305403 98.3818C-0.182543 100.401 0.770728 102.375 1.29783 104.282C1.83614 106.211 2.35205 108.152 3.2156 109.958C4.38195 112.381 6.13142 114.501 7.85851 116.509C8.19496 116.902 8.59868 117.059 8.96877 117.036C9.39494 117.059 9.8099 116.902 10.1688 116.576C11.223 115.612 12.0865 114.389 12.6473 113.054C12.9389 112.347 13.1968 111.629 13.3426 110.878C13.3875 110.642 13.4211 110.418 13.4547 110.182C13.5444 110.194 13.6454 110.205 13.7351 110.216C14.8229 110.317 15.9221 110.384 17.0211 110.452C17.9744 113.301 19.0959 115.982 21.5744 117.765C23.8398 119.392 26.7444 119.953 29.4584 119.997C32.4416 120.042 35.492 119.504 37.6452 117.204C39.1256 115.612 40.0452 113.581 40.6508 111.472C42.591 111.54 44.5312 111.618 46.4714 111.663C46.6172 111.876 46.7742 112.089 46.92 112.291C47.0658 112.493 47.234 112.661 47.4247 112.796C47.4583 112.908 47.5032 113.02 47.5705 113.133C47.7723 113.469 48.12 113.828 48.5125 113.884C52.7741 114.512 57.1368 114.187 61.376 113.48C64.9199 112.886 68.2282 111.73 69.6077 107.95C70.303 106.054 70.6619 104.372 70.6619 102.521C70.6619 101.859 70.6059 101.164 70.5049 100.435C70.3143 99.0661 70.1012 97.6976 69.8657 96.3403C69.7535 96.3515 69.6525 96.3739 69.5404 96.3851C69.6077 96.7104 69.6301 97.0806 69.5741 97.5069ZM10.494 108.556C10.4268 108.825 10.4043 109.106 10.3706 109.375C10.3594 109.442 10.3595 109.498 10.3483 109.565C10.3483 109.599 10.3258 109.756 10.3258 109.779V109.79C10.3146 109.857 10.3034 109.936 10.2922 110.003C10.2585 110.16 10.2249 110.328 10.1912 110.485C10.1127 110.822 10.0006 111.158 9.8884 111.484C9.86597 111.551 9.83232 111.618 9.80989 111.685C9.8211 111.663 9.82113 111.641 9.83234 111.629C9.83234 111.641 9.83233 111.641 9.82111 111.652C9.75383 111.798 9.68653 111.955 9.60803 112.101C9.46224 112.392 9.29401 112.673 9.11457 112.953C9.10336 112.964 9.1034 112.975 9.09219 112.987C7.60061 111.181 6.20992 109.251 5.33516 107.053C4.75199 105.583 4.5053 104.024 4.11278 102.499C3.95577 101.882 3.65292 101.209 3.43984 100.524C4.93142 101.152 6.46785 101.635 8.06037 101.938L10.4268 107.075C10.5501 107.333 10.6623 107.614 10.7744 107.883C10.6398 108.096 10.5501 108.332 10.494 108.556ZM35.6826 114.58C34.0901 116.498 31.7686 116.778 29.4472 116.733C27.3948 116.7 25.2753 116.329 23.5145 115.185C21.8884 114.131 21.0697 112.415 20.4304 110.631C21.1145 110.665 21.7987 110.698 22.4828 110.721C22.494 110.754 22.4939 110.788 22.5051 110.833C23.0435 112.157 23.8622 113.211 25.0509 113.996C26.2397 114.781 27.6416 115.118 29.0322 115.253C30.4789 115.387 31.8471 115.017 32.9462 114.007C33.7312 113.29 34.2247 112.302 34.4378 111.259C35.4135 111.293 36.3892 111.338 37.3649 111.371C36.9836 112.527 36.4565 113.649 35.6826 114.58ZM26.307 110.889C27.922 110.968 29.5369 111.046 31.1631 111.113C31.1631 111.113 31.0957 111.237 31.0509 111.304C31.0172 111.349 30.9724 111.416 30.9612 111.427C30.8827 111.517 30.793 111.585 30.7145 111.674C30.7145 111.674 30.7144 111.674 30.7032 111.685C30.6135 111.753 30.5014 111.798 30.4117 111.865C30.4005 111.876 30.4005 111.876 30.4005 111.876C30.2995 111.91 30.1986 111.943 30.0864 111.977C30.064 111.988 30.0303 111.988 30.0079 112C29.8845 112.011 29.75 112.011 29.6154 112.011C29.3687 112.011 29.1219 111.988 28.8752 111.966C28.8528 111.966 28.8303 111.955 28.8079 111.955C28.707 111.932 28.6061 111.921 28.5164 111.899C28.2809 111.854 28.0454 111.786 27.8211 111.719C27.6977 111.674 27.5743 111.641 27.4397 111.596C27.4061 111.585 27.3724 111.573 27.35 111.562C27.1481 111.472 26.9575 111.371 26.778 111.248C26.6771 111.181 26.5874 111.125 26.4865 111.057C26.4753 111.046 26.464 111.046 26.464 111.035C26.408 110.99 26.3631 110.934 26.307 110.889ZM41.1443 108.219C41.0209 108.264 40.8864 108.298 40.7518 108.309C39.8546 108.343 38.9238 108.343 38.049 108.118H38.0378C34.1799 107.984 30.3332 107.827 26.4753 107.647C23.0099 107.479 19.5557 107.3 16.0903 107.098C15.6977 107.075 15.3052 107.053 14.9127 107.03C14.6548 107.019 14.3856 106.997 14.1277 106.985C13.9482 106.941 13.8361 106.929 13.7912 106.941C13.6679 106.705 13.5781 106.368 13.4884 106.178C13.3202 105.808 13.1519 105.437 12.9837 105.079L11.066 100.928C15.5183 97.8097 18.9389 93.4574 22.8977 89.7221C26.5762 86.2447 30.8603 83.4965 34.5163 79.9855C34.763 83.8779 35.5817 87.7591 36.5574 91.5169C37.5331 95.2522 38.6995 99.0661 40.3593 102.543C41.1443 104.192 42.1985 105.662 43.2415 107.131C43.5331 107.535 43.8134 107.939 44.105 108.343C43.1069 108.287 42.1312 108.253 41.1443 108.219Z" fill="black"/>
<path d="M66.1311 82.4982C66.0301 82.2514 65.9516 81.9822 65.8507 81.7354C65.4357 80.6922 65.0096 79.6041 64.561 78.5048C64.4264 78.4936 64.3031 78.4824 64.1909 78.4824C64.1124 78.4712 64.0227 78.4712 63.9442 78.4712C64.5161 80.0977 64.9871 81.7803 65.4245 83.4853C65.6152 83.2161 65.8731 82.8796 66.1311 82.4982Z" fill="black"/>
<path d="M47.862 109.117C46.6733 107.558 45.5517 105.953 44.52 104.282C40.8415 98.3482 38.1948 91.73 36.7593 84.8987C36.7705 85.0445 36.7705 85.1791 36.7817 85.3249C37.1406 89.7221 38.7668 94.1978 40.7742 98.0677C42.7144 101.803 44.7443 107.019 47.6265 110.07C48.5125 111.001 49.6676 111.573 50.9573 111.899C49.7124 111.315 48.7704 110.295 47.862 109.117Z" fill="black"/>
<path d="M67.6787 102.622C67.6339 103.138 67.5666 103.665 67.4657 104.181C67.275 105.135 66.9722 106.066 66.5124 106.907C65.3797 108.948 63.1367 110.205 60.8938 110.407C60.5237 110.44 60.1535 110.452 59.7947 110.373C59.3573 110.283 58.9423 110.059 58.561 109.823C55.1293 107.793 52.92 104.708 50.8564 101.309C48.7368 97.8097 46.8864 94.1304 45.4845 90.2605C43.5556 84.9323 42.5238 79.1891 43.0845 73.5356C42.8714 73.5131 42.6583 73.4907 42.4453 73.4683C42.4228 75.2294 42.4453 76.9905 42.5238 78.7516C43.0284 89.8791 46.0116 101.343 53.6377 109.79C53.8508 110.025 53.9629 110.317 54.0078 110.631C54.0302 110.653 54.0639 110.676 54.0863 110.698C54.0639 110.698 54.0415 110.698 54.019 110.698C54.0751 111.326 53.8059 111.988 53.2676 112.246C55.4208 112.403 57.6638 112.157 59.4358 111.988C59.8283 111.955 60.2208 111.842 60.5797 111.685C67.5666 112.516 68.9348 103.115 69.5853 97.4956C69.6302 97.0694 69.6077 96.6992 69.5404 96.3627C68.789 96.4524 68.0376 96.5422 67.275 96.6095C67.6451 98.5949 67.847 100.603 67.6787 102.622Z" fill="black"/>
<path d="M65.4245 83.4628C64.9871 81.769 64.5161 80.0752 63.9441 78.4487C63.5853 78.4263 63.2152 78.4038 62.8563 78.3814C62.8563 78.3702 62.8563 78.3702 62.8563 78.359C62.6993 77.7757 62.4189 77.226 62.0713 76.7325C61.7348 76.2501 61.3647 75.8014 60.9834 75.3528C60.9497 75.3191 60.9161 75.2742 60.8825 75.2406C60.8825 75.1621 60.8489 75.0723 60.8264 74.9938C60.4339 74.9714 60.0526 74.9377 59.66 74.9153C60.6694 76.7213 61.6675 78.516 62.4525 80.479C63.0469 81.9709 63.5741 83.4853 64.0563 85.022C64.5049 84.5509 64.9535 84.0798 65.346 83.5638C65.3684 83.5414 65.4021 83.5077 65.4245 83.4628Z" fill="black"/>
<path d="M63.9442 78.46C64.0227 78.46 64.1124 78.4713 64.1909 78.4713C64.3031 78.4825 64.4264 78.4825 64.561 78.4937C64.1124 77.372 63.6302 76.2502 63.1143 75.1285C62.9236 75.1173 62.7442 75.1061 62.5648 75.1061C63.0694 76.1829 63.5292 77.3047 63.9442 78.46Z" fill="black"/>
<path d="M35.492 75.936C35.5032 75.8463 35.5256 75.7565 35.5368 75.6668C35.5368 74.9489 35.5705 74.2198 35.6603 73.5243C35.6939 73.2439 35.75 72.9747 35.8061 72.7055C35.5369 72.6718 35.2565 72.6381 34.9873 72.6045C34.9649 72.8401 34.9313 73.0756 34.8752 73.3C34.6958 74.1749 34.3256 74.9938 33.8546 75.7453C34.2359 75.7902 34.6172 75.8351 34.9986 75.8799C35.1668 75.9024 35.335 75.9136 35.492 75.936Z" fill="black"/>
<path d="M69.1703 95.5439C69.3274 95.7795 69.4507 96.0599 69.5292 96.374C69.6413 96.3628 69.7423 96.3404 69.8544 96.3291C69.7984 96.0263 69.7535 95.7346 69.7086 95.4318C69.5292 95.4766 69.3498 95.5103 69.1703 95.5439Z" fill="black"/>
<path d="M66.9274 84.6294C66.6694 83.9003 66.4003 83.1936 66.1311 82.4869C65.8732 82.8683 65.6264 83.2048 65.4246 83.4628C65.5928 84.1134 65.7498 84.764 65.9068 85.4146C65.9629 85.3698 66.019 85.3137 66.075 85.2688C66.3666 85.0669 66.647 84.8538 66.9274 84.6294Z" fill="black"/>
<path d="M65.346 83.5751C64.9423 84.0911 64.5049 84.5734 64.0563 85.0333C64.2133 85.5381 64.3703 86.0541 64.5273 86.5589C64.9759 86.1663 65.4357 85.7849 65.9068 85.4147C65.7497 84.7641 65.5927 84.1135 65.4245 83.4629C65.4021 83.5078 65.3684 83.5414 65.346 83.5751Z" fill="black"/>
<path d="M67.2638 96.6094C68.0152 96.5421 68.7778 96.4636 69.5291 96.3627C69.4619 96.0486 69.3273 95.7794 69.1703 95.5326C68.4974 95.6784 67.8246 95.813 67.1404 95.914C67.1853 96.1608 67.2189 96.3851 67.2638 96.6094Z" fill="black"/>
<path d="M60.8265 75.0051C60.8489 75.0836 60.8713 75.1734 60.8825 75.2519C60.9162 75.2856 60.9498 75.3304 60.9834 75.3641C61.3647 75.8128 61.7349 76.2615 62.0713 76.7438C62.419 77.2374 62.6994 77.7758 62.8564 78.3703C62.8564 78.3703 62.8564 78.3815 62.8564 78.3927C63.2152 78.4152 63.5853 78.4376 63.9442 78.46C63.5404 77.3047 63.0806 76.1829 62.5535 75.1061C62.2395 75.0949 61.9143 75.0837 61.6003 75.0612C61.3424 75.05 61.0844 75.0276 60.8265 75.0051Z" fill="black"/>
<path d="M59.2115 72.8626C58.9199 72.3915 58.7293 72.0101 58.2246 71.7297C58.0115 71.6175 57.776 71.5277 57.5405 71.4492C58.034 72.111 58.4825 72.8065 58.8863 73.5356C59.1442 74.0068 59.4021 74.4667 59.6601 74.9266C60.0526 74.949 60.434 74.9827 60.8265 75.0051C60.7816 74.8256 60.7031 74.6349 60.5685 74.4667C60.1311 73.9395 59.5704 73.4347 59.2115 72.8626Z" fill="black"/>
<path d="M42.5125 70.6191C42.4789 71.5726 42.4565 72.5148 42.4453 73.4683C42.6583 73.4907 42.8714 73.5132 43.0845 73.5356C43.1854 72.5597 43.3313 71.5838 43.5219 70.6079C43.1855 70.6191 42.849 70.6191 42.5125 70.6191Z" fill="black"/>
<path d="M39.1256 67.4784C39.4733 67.1531 39.9106 66.9063 40.449 66.7941C40.6284 66.7156 40.8079 66.6595 40.9986 66.6371C41.3238 66.5585 41.649 66.4912 41.9966 66.4576C42.4116 66.4127 42.7817 66.6146 43.0621 66.9063C43.3761 66.9399 43.6788 67.0072 43.948 67.1194C44.3069 67.0185 44.6658 66.8951 45.0134 66.7492C45.0695 66.7268 45.1256 66.7268 45.1817 66.7156C46.7293 65.9079 48.5237 65.5266 50.1611 65.6836C50.6433 65.7285 51.0807 65.8294 51.4844 65.964C51.933 65.8743 52.4041 65.8855 52.8751 66.0426C57.6863 67.6578 60.5797 71.023 62.5535 75.1061C62.733 75.1173 62.9236 75.1285 63.1031 75.1285C62.7778 74.4218 62.4302 73.7264 62.0713 73.0309C62.1722 73.0309 62.2843 73.0309 62.3853 73.0309C62.5984 73.0421 62.8115 73.0646 63.0245 73.087C63.0806 73.087 63.1031 73.0982 63.1255 73.0982C63.1479 73.0982 63.1815 73.1094 63.2376 73.1206C63.5853 73.1767 63.9218 73.244 64.2694 73.3226C65.6713 73.6479 67.0283 74.1302 68.3853 74.6125C69.1703 74.893 70.1572 74.2872 70.3367 73.4684C70.5385 72.5598 70.0675 71.7634 69.2264 71.4605C66.3778 70.4397 63.361 69.4189 60.3106 69.834C60.2657 69.8452 60.2096 69.8564 60.1648 69.8676C58.6732 67.7364 56.89 65.908 54.6583 64.6965C53.2676 63.9337 51.6863 63.5972 50.105 63.4738C46.6733 63.2158 43.2975 63.9674 40.0228 64.9545C38.1948 65.5153 36.4004 65.8855 35.593 67.5681C34.8752 67.5008 34.1463 67.4335 33.4285 67.3438C33.3836 67.3438 32.9911 67.2877 32.9687 67.2877C32.8229 67.2652 32.677 67.2428 32.5313 67.2204C32.1275 67.1531 31.7238 67.0858 31.3201 66.996C29.7612 66.6707 28.4042 66.222 27.1706 65.5378C26.4416 65.134 25.4098 65.3247 25.0061 66.1211C24.6136 66.8839 24.793 67.9271 25.5781 68.3533C28.5164 69.991 31.8023 70.4622 35.0883 70.7762C35.0771 71.3708 35.0546 71.9765 34.9873 72.571C35.2565 72.6047 35.5369 72.6383 35.8061 72.672C36.2546 70.5519 37.3873 68.6113 39.1256 67.4784Z" fill="black"/>
<path d="M42.5686 69.3179C42.5461 69.7553 42.535 70.1816 42.5237 70.6191C42.8602 70.6191 43.1966 70.6191 43.533 70.6079C43.6003 70.2713 43.6676 69.946 43.7461 69.6095C43.9144 68.9253 44.105 68.2186 44.5536 67.6689C45.1032 66.9959 45.9443 66.6706 46.7854 66.5023C49.3312 65.9751 52.0339 66.7042 54.1984 68.1737C55.4993 69.0487 56.6096 70.1816 57.5517 71.4491C57.7984 71.5165 58.0339 71.6062 58.2358 71.7296C58.7405 72.01 58.9311 72.3914 59.2227 72.8625C59.5816 73.4346 60.1423 73.9394 60.5685 74.4666C60.7143 74.6349 60.7816 74.8255 60.8264 75.005C61.0844 75.0162 61.3423 75.0387 61.6114 75.0611C61.9255 75.0835 62.2395 75.0948 62.5647 75.106C60.5909 71.0229 57.6975 67.6577 52.8863 66.0424C52.4153 65.8854 51.9442 65.8742 51.4957 65.9639C51.0919 65.8293 50.6433 65.7283 50.1723 65.6835C48.5349 65.5377 46.7405 65.9078 45.1929 66.7155C45.1368 66.7267 45.0807 66.7267 45.0246 66.7491C44.677 66.8949 44.3181 67.0183 43.9592 67.1193C43.7013 67.0071 43.3985 66.9398 43.0733 66.9062C43.3424 67.1978 43.5107 67.5904 43.5107 67.9606C43.5107 68.6224 43.1069 69.0935 42.5686 69.3179Z" fill="black"/>
<path d="M40.449 66.7941C39.9219 66.9062 39.4845 67.153 39.1256 67.4783C39.4845 67.2428 39.8658 67.0296 40.2808 66.8726C40.3369 66.8389 40.3929 66.8165 40.449 66.7941Z" fill="black"/>
<path d="M52.5722 112.347C52.8302 112.381 53.0657 112.336 53.2564 112.246C52.4713 112.19 51.6862 112.078 50.9573 111.887C51.4507 112.112 51.9778 112.28 52.5722 112.347Z" fill="black"/>
<path d="M37.2864 72.885C36.9836 72.8513 36.692 72.8065 36.3892 72.7728C36.378 72.7953 36.378 72.8289 36.3668 72.8513C36.1201 73.816 35.6826 74.7022 35.5368 75.6669C35.5144 78.5722 36.0864 81.5896 36.6359 84.3715C36.6696 84.551 36.7144 84.7192 36.7593 84.8987C36.5013 80.9726 37.0508 76.8783 37.2864 72.885Z" fill="black"/>
<path d="M52.0676 108.881C52.6732 109.521 53.3124 110.104 54.0078 110.631C53.9741 110.317 53.8507 110.014 53.6376 109.79C46.0115 101.343 43.0396 89.8792 42.5237 78.7516C42.4452 76.9905 42.4228 75.2294 42.4452 73.4683C41.963 73.4122 41.4807 73.3561 40.9873 73.3113C40.3705 85.7849 44.3293 98.6286 52.0676 108.881Z" fill="black"/>
<path d="M54.0077 110.698C53.7162 110.71 53.4358 110.71 53.1442 110.71C53.1554 110.732 53.1442 110.766 53.1554 110.788C52.0115 110.889 50.8563 110.867 49.7124 110.754C49.69 110.721 49.6788 110.676 49.6564 110.642C49.4096 110.306 49.1629 109.958 48.9162 109.622C40.1462 99.8961 35.4135 85.8073 37.892 72.9523C37.6901 72.9299 37.4882 72.8962 37.2863 72.8738C37.0508 76.8671 36.5013 80.9614 36.7705 84.8875C38.206 91.7188 40.8527 98.337 44.5311 104.271C45.5629 105.942 46.6844 107.546 47.8732 109.106C48.7704 110.283 49.7124 111.304 50.9685 111.876C51.7087 112.067 52.4825 112.179 53.2675 112.235C53.7946 111.988 54.0638 111.327 54.0077 110.698Z" fill="black"/>
<path d="M36.3892 72.7729C36.1985 72.7504 36.0078 72.728 35.8172 72.7056C35.7611 72.9748 35.7051 73.244 35.6715 73.5244C35.5817 74.2311 35.548 74.949 35.548 75.6669C35.6938 74.7022 36.12 73.8161 36.3779 72.8514C36.3779 72.829 36.3779 72.7953 36.3892 72.7729Z" fill="black"/>
<path d="M36.3892 72.7728C36.692 72.8065 36.9835 72.8513 37.2863 72.885C37.32 72.2232 37.3536 71.5614 37.3648 70.9108C36.7817 71.3146 36.591 71.9988 36.3892 72.7728Z" fill="black"/>
<path d="M38.3518 70.5854C38.2397 70.5967 38.1275 70.6079 38.0154 70.6303C37.7574 70.6976 37.5443 70.7874 37.3649 70.9108C37.3537 71.5614 37.32 72.2232 37.2864 72.885C37.4882 72.9074 37.6902 72.9411 37.892 72.9635C37.9705 72.5372 38.0602 72.0998 38.1612 71.6735C38.2285 71.3146 38.2845 70.9556 38.3518 70.5854Z" fill="black"/>
<path d="M41.2228 70.6304C41.2116 70.6977 41.1892 70.7537 41.1779 70.8211C41.0994 71.6511 41.0322 72.4812 40.9873 73.3113C41.4695 73.3674 41.9518 73.4235 42.4452 73.4683C42.4564 72.5149 42.4789 71.5726 42.5125 70.6191C42.0863 70.6191 41.6489 70.6304 41.2228 70.6304Z" fill="black"/>
<path d="M42.221 66.9174C42.378 66.8949 42.5462 66.8837 42.7144 66.8837C42.8378 66.8837 42.9499 66.9062 43.0733 66.9174C42.8041 66.6145 42.4228 66.4238 42.0079 66.4687C41.6602 66.5023 41.3237 66.5696 41.0097 66.6482C40.8191 66.6594 40.6284 66.7155 40.4602 66.8052C40.6733 66.7603 40.9088 66.7267 41.1555 66.7267C41.548 66.7267 41.8957 66.794 42.221 66.9174Z" fill="black"/>
<path d="M37.3648 70.9108C37.3648 70.7537 37.3761 70.6079 37.3761 70.4508C37.3985 69.1833 37.9817 68.3196 38.7892 67.8148C38.8901 67.6914 39.0022 67.5792 39.1144 67.4783C37.3648 68.6112 36.2434 70.5518 35.7948 72.6943C35.9855 72.7167 36.1761 72.7392 36.3668 72.7616C36.5911 71.9988 36.7817 71.3146 37.3648 70.9108Z" fill="black"/>
<path d="M38.3518 70.5854C38.4415 70.0357 38.5312 69.4973 38.6209 68.9477C39.7649 68.5439 40.92 68.1625 42.0976 67.8484C41.7051 68.6897 41.4247 69.6207 41.2228 70.619C41.6602 70.619 42.0864 70.6078 42.5125 70.6078C42.5238 70.1704 42.5349 69.7441 42.5574 69.3066C43.0957 69.0823 43.4995 68.5999 43.4995 67.9493C43.4995 67.5792 43.3312 67.1866 43.0621 66.8949C42.9387 66.8837 42.8265 66.8613 42.7032 66.8613C42.535 66.8613 42.3667 66.8725 42.2097 66.8949C41.8845 66.7827 41.5368 66.7042 41.1443 66.7042C40.8976 66.7042 40.6621 66.7379 40.449 66.7827C40.3929 66.8052 40.3369 66.8276 40.292 66.8613C39.8771 67.0183 39.4957 67.2314 39.1368 67.467C39.0247 67.5792 38.9014 67.6801 38.8116 67.8035C38.0042 68.2971 37.4098 69.172 37.3986 70.4396C37.3986 70.5966 37.3873 70.7424 37.3873 70.8995C37.5668 70.7761 37.7687 70.6863 38.0378 70.619C38.1275 70.6078 38.2396 70.6078 38.3518 70.5854Z" fill="black"/>
<path d="M58.3142 74.8368C57.4058 74.7807 56.4863 74.7246 55.5779 74.6573C55.062 74.6237 54.5461 74.5676 54.0302 74.5339C56.2059 76.8559 57.6526 79.8621 58.8974 82.8011C59.6152 84.4949 60.2544 86.2335 60.804 87.9946C61.1965 87.6581 61.589 87.3216 61.9703 86.9851C62.4413 86.5701 62.9124 86.1438 63.3722 85.7063C63.1591 85.0894 62.946 84.4836 62.7217 83.8891C61.5666 80.8156 60.1759 77.5963 58.3142 74.8368Z" fill="black"/>
<path d="M62.3516 101.007C62.2507 101.904 62.1722 103.474 61.3647 104.069C59.5928 105.359 57.2825 102.386 56.3293 101.231C53.3012 97.5293 51.4956 92.8966 50.419 88.2302C49.7012 85.1006 49.2527 81.9149 48.9723 78.718C48.8377 77.1812 48.7367 75.6444 48.647 74.0964C47.5704 73.9955 46.505 73.8945 45.4283 73.7936C45.6078 76.9232 45.8994 80.0528 46.3144 83.1488C47.1443 89.4416 48.7704 95.7906 52.2807 101.096C53.862 103.497 55.9255 106.29 58.6843 107.288C61.6899 108.376 64.4376 106.537 65.1666 103.452C65.6825 101.276 65.817 99.0212 65.6937 96.7553C64.617 96.8338 63.5404 96.8899 62.4638 96.9236C62.475 97.0694 62.4862 97.204 62.4862 97.3498C62.5199 98.5501 62.4862 99.784 62.3516 101.007Z" fill="black"/>
<path d="M60.804 87.9946C60.9722 88.533 61.1292 89.0715 61.275 89.6099C62.1161 88.791 63.0133 88.0283 63.8769 87.2318C63.7199 86.7159 63.5516 86.2111 63.3722 85.7063C62.9124 86.1438 62.4414 86.57 61.9703 86.9851C61.5778 87.3216 61.1965 87.6581 60.804 87.9946Z" fill="black"/>
<path d="M65.6264 95.8356C64.5497 95.9253 63.4731 95.9702 62.3965 95.9478C62.4189 96.2618 62.4413 96.5871 62.4525 96.9012C63.5292 96.8676 64.6058 96.8115 65.6824 96.733C65.6712 96.4301 65.6488 96.1272 65.6264 95.8356Z" fill="black"/>
<path d="M55.0732 71.1014C54.9162 71.0902 54.7704 71.0677 54.6358 71.0565C51.6302 70.6527 48.591 70.5966 45.563 70.6078C45.3947 71.2584 45.3499 71.9539 45.3723 72.6269C45.3947 73.0083 45.4172 73.4009 45.4396 73.7823C46.505 73.8833 47.5816 73.9954 48.6583 74.0852C48.6583 73.9954 48.647 73.9169 48.647 73.8272C48.6134 73.1542 48.434 72.4923 48.4789 71.8081C48.4901 71.7071 48.5013 71.6062 48.5574 71.5277C48.6695 71.3818 48.8826 71.4043 49.062 71.4379C50.4863 71.7408 51.7984 72.4811 52.9199 73.4346C53.3236 73.7823 53.6938 74.1525 54.0526 74.5339C54.5685 74.5787 55.0844 74.6236 55.6003 74.6573C56.5087 74.7246 57.4283 74.7807 58.3367 74.8367C57.3722 73.457 56.2956 72.1783 55.0732 71.1014Z" fill="black"/>
<path d="M55.0732 71.1014C53.6265 69.8226 51.9667 68.8131 50.0153 68.1849C49.8022 68.1176 49.6003 68.0951 49.4208 68.1176C48.6134 67.882 47.705 68.0278 46.9536 68.5214C46.191 69.015 45.7761 69.7665 45.5518 70.5966C48.5798 70.5854 51.619 70.6527 54.6246 71.0453C54.7704 71.0677 54.9162 71.0902 55.0732 71.1014Z" fill="black"/>
<path d="M67.7236 91.9431C69.3385 91.73 70.931 91.4271 72.5011 90.9784C73.2974 90.7541 73.8693 89.8118 73.6114 88.9705C73.3422 88.1292 72.5235 87.5796 71.66 87.8263C70.3142 88.2077 68.946 88.4994 67.5554 88.7013C67.6002 88.6901 67.6451 88.6901 67.7012 88.6789C67.3423 88.7237 67.0395 88.8135 66.7591 89.0266C66.961 89.9576 67.1628 90.9223 67.3311 91.887C67.4544 91.9319 67.589 91.9655 67.7236 91.9431Z" fill="black"/>
<path d="M66.1422 90.3054C66.1647 90.7316 66.2992 91.1691 66.602 91.4608C66.7927 91.6402 67.0506 91.8085 67.3198 91.887C67.1516 90.9111 66.9497 89.9464 66.7478 89.0266C66.703 89.0603 66.6469 89.1051 66.602 89.15C66.3329 89.4417 66.1198 89.9016 66.1422 90.3054Z" fill="black"/>
<path d="M83.402 82.2962C82.5609 82.8571 81.6973 83.373 80.8114 83.833C80.3628 84.0685 79.9142 84.2816 79.4543 84.4836C79.331 84.5284 79.2188 84.5845 79.0955 84.6294C78.8487 84.7303 78.602 84.8313 78.3441 84.921C77.9516 85.0669 77.6151 85.2912 77.402 85.6726C77.2001 86.0203 77.1216 86.5363 77.245 86.9289C77.4917 87.7141 78.3553 88.3872 79.1964 88.0731C81.2375 87.3103 83.1889 86.3344 85.017 85.1117C85.7123 84.6518 86.0599 83.6423 85.5889 82.8795C85.1178 82.1616 84.1422 81.7914 83.402 82.2962Z" fill="#59C69F"/>
<path d="M94.0001 71.4829C93.5963 71.3932 93.1365 71.4044 92.7777 71.6512C92.4188 71.8867 92.1945 72.212 92.0487 72.6271C92.015 72.7168 91.9814 72.8065 91.9478 72.8963C91.6898 73.4908 91.3758 74.0517 91.0057 74.5676C90.6244 75.05 90.2094 75.4875 89.7496 75.8801C89.458 76.1269 89.2899 76.6541 89.2899 77.0355C89.2899 77.4393 89.458 77.9104 89.7496 78.1908C90.0524 78.4713 90.445 78.6844 90.8711 78.6732L91.2973 78.6171C91.5665 78.5386 91.802 78.404 91.9926 78.202C93.4393 76.9794 94.4936 75.3192 95.1104 73.502C95.245 73.1206 95.144 72.5822 94.9534 72.2457C94.7627 71.8867 94.3814 71.5614 94.0001 71.4829Z" fill="black"/>
<path d="M97.4542 60.4339C97.2524 61.9482 96.9384 63.4513 96.5122 64.9096C96.2767 65.7284 96.8038 66.7268 97.6225 66.9175C98.4748 67.1194 99.3159 66.6483 99.5739 65.7733C100.09 64.0122 100.426 62.2174 100.639 60.389C100.572 60.4115 100.516 60.4451 100.449 60.4675C99.7645 60.6695 99.1365 60.5012 98.5309 60.3329L97.5103 60.0637C97.5103 60.0974 97.4991 60.131 97.4879 60.1759C97.4767 60.2656 97.4655 60.3441 97.4542 60.4339Z" fill="#59C69F"/>
<path d="M90.1646 31.0334C90.2879 31.2017 90.4225 31.3812 90.5347 31.5607C90.7814 31.9196 91.0617 32.1888 91.4767 32.3122C91.858 32.4244 92.3627 32.3683 92.6991 32.144C93.0356 31.9196 93.3384 31.5831 93.4281 31.1681C93.5179 30.7642 93.5178 30.2595 93.2711 29.9117C92.116 28.2404 90.7926 26.7148 89.2674 25.4024C88.9422 25.122 88.5945 24.92 88.1459 24.92C87.7534 24.92 87.2936 25.0995 87.0244 25.4024C86.744 25.7165 86.5421 26.1203 86.5646 26.5578C86.587 26.9728 86.7104 27.4439 87.0244 27.7131C88.1908 28.7003 89.2337 29.822 90.1646 31.0334Z" fill="#59C69F"/>
<path d="M78.8039 21.5436C78.9497 21.5885 79.0842 21.6446 79.2188 21.7007C79.7908 21.9699 80.3291 22.2952 80.8338 22.6766C81.2712 23.0467 81.6749 23.4393 82.0338 23.888C82.2805 24.1909 82.7852 24.3704 83.1553 24.3704C83.5478 24.3704 84.0076 24.1909 84.2768 23.888C84.5571 23.5739 84.759 23.1701 84.7366 22.7326C84.7142 22.2727 84.5571 21.925 84.2768 21.5773C83.0768 20.0854 81.4282 18.9973 79.645 18.3916C78.86 18.1224 77.8843 18.7057 77.6936 19.5357C77.503 20.4331 77.9628 21.252 78.8039 21.5436Z" fill="black"/>
<path d="M71.9516 18.1673C71.9628 18.1673 71.9628 18.1673 71.9628 18.1785C72.0301 18.2121 72.0974 18.2346 72.1647 18.2682C72.5684 18.4477 72.9385 18.5599 73.3871 18.4365C73.7572 18.3355 74.1497 18.0439 74.3292 17.6849C74.688 16.9782 74.5759 15.8116 73.7572 15.4527C71.4245 14.3983 69.0021 13.6243 66.4787 13.2429C66.0414 13.1756 65.66 13.1644 65.2563 13.4111C64.9311 13.6131 64.6171 13.9944 64.5274 14.387C64.3591 15.161 64.7629 16.2603 65.6376 16.3949C66.804 16.5744 67.9591 16.8324 69.0918 17.1577C69.6526 17.326 70.2021 17.5054 70.7516 17.7073C71.032 17.8083 71.3124 17.9205 71.5927 18.0326C71.7161 18.0663 71.8283 18.1112 71.9516 18.1673Z" fill="#59C69F"/>
<path d="M49.7461 16.4958C50.4414 16.35 51.1367 16.2378 51.832 16.1256C51.9105 16.1144 52.1236 16.0808 52.1236 16.0808C52.2919 16.0583 52.4601 16.0359 52.6171 16.0247C52.976 15.9798 53.3348 15.9462 53.6937 15.9237C55.1068 15.8003 56.5311 15.7667 57.9442 15.8116C58.7741 15.834 59.5703 15.0488 59.5254 14.1738C59.4918 13.2652 58.8301 12.5586 57.9442 12.5361C54.9049 12.4576 51.8769 12.738 48.8938 13.3438C48.0751 13.512 47.5368 14.5552 47.7835 15.3517C48.0751 16.249 48.8713 16.6753 49.7461 16.4958Z" fill="black"/>
<path d="M36.5126 20.3321C36.9724 20.0966 37.421 19.8722 37.8808 19.6479C38.0154 19.5806 38.15 19.5245 38.2845 19.4572C38.3518 19.4236 38.4191 19.4011 38.4864 19.3675C38.4303 19.3899 38.3631 19.4236 38.307 19.446C38.5425 19.3226 38.8117 19.2329 39.0696 19.1431C39.5406 18.9636 40.0228 18.8178 40.5163 18.7056C40.6397 18.6832 40.763 18.6496 40.8864 18.6271C40.9425 18.6159 40.9986 18.6047 41.0659 18.5935C41.0771 18.5935 41.0883 18.5935 41.1107 18.5935C41.178 18.5823 41.2565 18.5823 41.3238 18.571C41.4696 18.5598 41.6154 18.5486 41.75 18.5486C42.5799 18.5262 43.3761 17.8083 43.3312 16.9109C43.2976 16.0472 42.6359 15.2507 41.75 15.2732C39.2939 15.3405 37.0845 16.4061 34.9201 17.5054C34.1799 17.8868 33.9107 19.0309 34.3481 19.7376C34.8416 20.5341 35.7164 20.736 36.5126 20.3321Z" fill="#59C69F"/>
<path d="M28.9201 21.2183C27.7986 21.4875 26.8005 22.1157 25.8808 22.7999C24.9276 23.5066 23.9968 24.247 23.0547 24.9649C22.7071 25.2229 22.4491 25.5033 22.3257 25.9408C22.2248 26.3334 22.2697 26.8494 22.4828 27.1971C22.9089 27.8701 23.9407 28.3301 24.6472 27.7804C25.5668 27.0737 26.4752 26.367 27.406 25.6716C27.8098 25.3687 28.2247 25.0658 28.6733 24.8078C28.7855 24.7405 28.8977 24.6844 29.0098 24.6284C29.0435 24.6059 29.0771 24.5947 29.1107 24.5835C29.2117 24.5611 29.3238 24.505 29.4136 24.4713C29.5369 24.4377 29.6491 24.404 29.7724 24.3704C30.5799 24.1797 31.1294 23.1813 30.8827 22.3625C30.5911 21.4987 29.7836 21.0164 28.9201 21.2183Z" fill="black"/>
<path d="M15.7313 37.9544C16.1014 38.1563 16.5388 38.2573 16.9538 38.1227C17.3239 37.9993 17.7276 37.7525 17.8958 37.3711C18.1874 36.7429 18.4789 36.1148 18.7817 35.4978C19.006 35.0155 19.2304 34.5219 19.522 34.0844C19.6117 33.9835 19.7014 33.8713 19.8023 33.7816C20.0939 33.5236 20.2621 33.0076 20.2621 32.6262C20.2621 32.2224 20.0939 31.7513 19.8023 31.4708C19.4995 31.1792 19.107 30.9773 18.6808 30.9885C18.2435 31.0109 17.8958 31.1792 17.5594 31.4708C16.9538 31.998 16.5612 32.7384 16.2248 33.4675C15.8659 34.2191 15.5182 34.9706 15.1594 35.7222C14.9687 36.126 14.879 36.541 15.0023 36.9785C15.1033 37.3599 15.3949 37.7749 15.7313 37.9544Z" fill="#59C69F"/>
<path d="M16.0678 50.5402C15.8771 50.0018 15.7313 49.4409 15.6304 48.8801C15.6079 48.7679 15.5631 48.6333 15.5743 48.5211C15.608 48.7567 15.608 48.7791 15.5855 48.5884C15.5743 48.5099 15.5631 48.4202 15.5631 48.3416C15.5407 48.0724 15.5295 47.8144 15.5183 47.5452C15.5183 47.276 15.5183 47.0068 15.5295 46.7488C15.5407 46.5805 15.5519 46.4235 15.5631 46.2552C15.5631 46.2216 15.5743 46.1767 15.5743 46.1318C15.6192 45.5934 15.7762 45.0326 15.9332 44.5278C16.1799 43.7089 15.6416 42.7106 14.8229 42.5199C13.9706 42.318 13.1295 42.7891 12.8716 43.664C12.1314 46.1767 12.165 48.9586 13.0061 51.4264C13.2753 52.234 14.1052 52.851 14.9575 52.5706C15.7313 52.2901 16.3594 51.404 16.0678 50.5402Z" fill="black"/>
<path d="M20.9014 61.3873C20.7332 61.1854 20.565 60.9722 20.3967 60.7591C20.3743 60.7254 20.3407 60.6806 20.3183 60.6469C20.2398 60.5348 20.1613 60.4226 20.0715 60.2992C19.4435 59.3794 18.9164 58.4035 18.4678 57.3715C18.322 57.0237 17.8622 56.7209 17.5257 56.6199C17.1444 56.5078 16.6398 56.5638 16.3034 56.7882C15.9669 57.0125 15.6641 57.3491 15.5744 57.7641C15.4734 58.224 15.5519 58.6054 15.7314 59.0204C16.6846 61.219 18.0753 63.2381 19.7687 64.8983C20.3743 65.4928 21.4173 65.5601 22.0117 64.8983C22.5836 64.2589 22.6509 63.2157 22.0117 62.5875C21.6192 62.2061 21.2491 61.8023 20.9014 61.3873Z" fill="#59C69F"/>
<path d="M72.703 75.8912C71.9852 76.3624 71.6824 77.3383 72.131 78.1235C72.1983 78.2469 72.2657 78.359 72.3217 78.4824C72.3442 78.5161 72.3554 78.5497 72.3666 78.5834C72.3666 78.6619 72.4787 78.8863 72.5011 78.9423C72.5348 79.0433 72.5572 79.1443 72.5797 79.234C72.6133 79.3574 72.6357 79.492 72.6582 79.6154C72.6582 79.6266 72.6582 79.6378 72.6582 79.6602C72.6806 79.8958 72.6806 80.1314 72.6694 80.3669C72.6694 80.4567 72.6469 80.5464 72.6469 80.6361C72.6469 80.6698 72.6357 80.6922 72.6357 80.7259C72.5909 80.9615 72.5348 81.1858 72.4563 81.4101C72.4451 81.4326 72.4451 81.455 72.4339 81.4774C72.389 81.5672 72.3554 81.6681 72.3105 81.7467C72.2544 81.8588 72.1872 81.971 72.1199 82.072C72.0638 82.1617 71.7946 82.5319 72.0974 82.128C71.8283 82.487 71.6376 82.8123 71.6376 83.2834C71.6376 83.6872 71.8058 84.1584 72.0974 84.4388C72.4002 84.7192 72.7927 84.9324 73.2189 84.9211C73.6114 84.8987 74.0825 84.7753 74.3404 84.4388C74.8226 83.8106 75.1703 83.2049 75.4507 82.4533C75.6862 81.814 75.7983 81.1297 75.8432 80.4567C75.9329 79.0657 75.5516 77.6411 74.8675 76.4633C74.4525 75.7454 73.432 75.4089 72.703 75.8912Z" fill="#59C69F"/>
<path d="M82.9982 39.8278C79.802 39.4688 76.4488 40.9495 74.9684 44.0006C73.6563 46.7039 74.0488 49.7326 75.8431 52.077C77.5478 54.298 80.1833 56.1937 83.0319 55.3637C85.8693 54.5336 87.6637 51.8302 88.0674 48.925C88.4375 46.3113 88.1459 42.3741 85.9254 40.6242C85.6002 40.3662 85.4319 40.0409 85.3758 39.7156C85.3646 39.7044 85.3422 39.6932 85.331 39.6932C85.1515 39.2669 84.8712 38.8855 84.5235 38.5939C84.4226 39.2893 83.8954 39.9287 82.9982 39.8278ZM85.4431 45.6944C85.6337 46.4908 85.387 47.3097 84.9496 48.0051C84.7141 49.9794 83.1216 51.4264 81.1927 50.4281C80.8674 50.2598 80.5759 50.0467 80.2955 49.8223C80.0936 49.7326 79.8917 49.6204 79.7011 49.4858C78.6581 48.7118 78.0637 47.2424 78.3104 45.9412C78.5796 44.5278 79.4768 43.4061 80.7217 42.7667C81.316 42.4526 82.0002 42.677 82.4151 43.1593C82.9759 43.2603 83.5142 43.4285 84.0301 43.7314C84.7366 44.1576 85.2412 44.8868 85.4431 45.6944Z" fill="#59C69F"/>
<path d="M48.2433 55.8684C48.2658 55.8684 48.3779 55.8684 48.4452 55.8684L48.4564 55.8572C48.434 55.846 48.4565 55.8347 48.4789 55.8235C48.4901 55.8123 48.5013 55.7899 48.5125 55.7787C48.5237 55.7562 48.5798 55.6216 48.591 55.588C48.6695 55.3636 48.7256 55.1281 48.7705 54.8925C49.4322 51.7404 49.9929 48.566 50.5648 45.4027C50.7106 44.5951 51.6527 44.1464 52.3592 44.3483C52.7854 44.4717 53.0882 44.7633 53.2564 45.1335C53.3798 45.2344 53.4919 45.3578 53.5816 45.5149C55.376 48.5884 56.8676 51.8526 58.0901 55.2066C60.4564 55.2402 62.8227 55.1841 65.189 55.0383C66.4451 51.0674 66.232 46.7936 66.2432 42.6657C66.2544 38.4031 66.2657 34.1406 66.2881 29.878C65.0321 30.0126 63.7535 30.136 62.5199 30.394C61.9928 30.5062 61.8134 30.5623 61.7012 31.1007C61.5218 31.9308 61.4209 32.7833 61.2975 33.6358C60.7928 37.2478 60.5685 40.9158 60.5573 44.5726C60.5573 46.4235 57.9218 46.502 57.6639 44.8531C56.733 43.4509 55.8022 42.0375 54.8602 40.6354C54.2097 39.6595 53.5368 38.5714 52.2358 38.9191C51.0022 39.2556 50.1611 40.4335 49.4546 41.4654C48.5013 42.8676 47.6602 44.3371 46.92 45.8738C46.5723 46.6029 45.563 46.8049 44.9238 46.4122C44.8341 46.3562 44.7555 46.3001 44.677 46.2328C44.2509 46.0084 43.9256 45.5934 43.8807 44.9764C43.6789 42.116 43.4322 39.2669 43.1181 36.4177C42.9611 35.0155 42.7929 33.6134 42.6135 32.2112C42.5237 31.5269 42.434 30.8539 42.3331 30.1697C42.277 29.7771 42.221 29.3732 42.1649 28.9806C42.1649 28.9582 42.1537 28.9358 42.1537 28.9133C41.6041 29.0031 40.8976 29.2274 40.5051 29.2947C39.7425 29.4293 38.9687 29.5527 38.1949 29.6761C37.3537 29.7995 36.5014 29.9229 35.6603 30.0351C35.8397 30.4164 36.1425 30.6632 36.5126 30.809C37.5107 35.4979 39.3051 39.9399 41.077 44.3595C41.9966 46.659 42.905 48.9698 43.6677 51.3478C44.1163 52.7388 44.3855 54.7018 45.3387 55.9469C45.9443 55.9357 46.5499 55.9245 47.1443 55.9245C47.5256 55.8796 47.8845 55.8796 48.2433 55.8684Z" fill="#59C69F"/>
<path d="M106.785 52.3798C106.875 53.8604 106.852 55.3523 106.729 56.833C106.841 57.5846 106.931 58.3474 106.998 59.1213C108.467 59.5588 109.97 59.9514 111.473 60.2879C112.763 58.1903 113.413 55.7113 114.041 53.322C114.142 52.9294 114.243 52.5368 114.355 52.1442L116.677 43.5967C115.925 43.4621 115.151 43.3387 114.4 43.2826C114.321 43.2826 114.176 43.2714 114.142 43.2826C114.142 43.2826 114.12 43.3162 114.075 43.406C113.85 43.8547 113.649 44.337 113.447 44.7969L113.323 45.0773C112.336 47.3881 111.473 49.9008 110.755 52.5705C110.542 53.3332 109.869 53.7707 109.095 53.6137C108.456 53.4903 107.85 52.9406 107.884 52.1218L106.707 48.5883C106.606 48.2855 106.516 48.0275 106.415 47.8143C106.348 47.7807 106.269 47.747 106.191 47.7134C106.471 49.2614 106.684 50.8094 106.785 52.3798Z" fill="#59C69F"/>
<path d="M103.095 48.6333C103.185 49.1942 103.264 49.7438 103.331 50.3047C103.432 50.2486 103.533 50.1925 103.645 50.1589C104.049 50.0355 104.497 50.0804 104.845 50.2935C105.181 50.5066 105.406 50.8319 105.495 51.2245C105.574 51.3479 105.63 51.4713 105.664 51.6059C106.112 53.2885 106.471 55.0384 106.718 56.8444C106.841 55.3637 106.864 53.8718 106.774 52.3911C106.684 50.8207 106.471 49.2615 106.191 47.7135C105.731 47.5116 105.226 47.4106 104.721 47.4219C104.273 47.635 103.836 47.9827 103.398 48.3529C103.297 48.4426 103.196 48.5436 103.095 48.6333Z" fill="#59C69F"/>
<path d="M101.379 50.3159C101.447 51.303 101.436 52.2901 101.323 53.2772C101.279 53.7371 101.166 54.0961 100.864 54.4326C100.583 54.7579 100.157 54.8925 99.7421 54.9149C99.3496 54.9374 98.901 54.7242 98.6206 54.4326C98.3627 54.1634 98.116 53.6698 98.1608 53.2772C98.2954 52.0658 98.2842 50.8431 98.1496 49.6316C98.0711 49.1044 97.9813 48.5884 97.8468 48.0724C97.6449 47.2535 98.0486 46.4796 98.7664 46.143C98.9458 45.1335 99.1141 44.1239 99.2598 43.1368C99.4169 42.116 99.5627 41.1065 99.6972 40.0857C99.7645 39.5922 99.8206 39.0874 99.8879 38.5938L99.8991 38.4704C99.9103 38.347 99.9328 38.2237 99.944 38.089C99.8319 38.089 99.7309 38.0778 99.63 38.0778C99.4281 38.0778 99.2374 38.0778 99.1141 38.0554C98.7664 38.0217 98.4187 37.9769 98.0823 37.932L98.8898 39.895C99.0356 40.153 99.1029 40.4222 99.1029 40.7251C99.0805 40.8709 99.0692 41.0167 99.0468 41.1626C98.957 41.5776 98.6543 41.9141 98.3178 42.1385C97.9814 42.3628 97.4767 42.4077 97.0954 42.3067C96.7589 42.2058 96.288 41.9029 96.1534 41.5552C96.1422 41.5327 96.1421 41.5215 96.1309 41.4991L96.4337 56.6648L99.1029 57.3827C99.2711 57.4276 99.4281 57.4725 99.5964 57.5173C99.6524 57.4276 99.7197 57.3042 99.787 57.1696C100.651 55.4758 101.48 53.7259 102.277 52.0433L102.837 50.8655C102.95 50.6412 103.118 50.4505 103.342 50.3271C103.275 49.7662 103.196 49.2053 103.107 48.6557C102.501 49.1493 101.94 49.7213 101.379 50.3159Z" fill="#59C69F"/>
<path d="M94.3365 37.4048C94.3365 37.4833 94.3253 37.573 94.3365 37.6628C94.3477 37.8983 94.3589 38.1227 94.3701 38.3583C94.5271 38.3358 94.6841 38.3358 94.8411 38.3583C94.7178 38.0442 94.5832 37.7413 94.4599 37.4272C94.415 37.4272 94.3702 37.416 94.3365 37.4048Z" fill="#59C69F"/>
<path d="M99.8543 51.3367C99.4281 51.3479 99.0244 51.1796 98.744 50.888C98.6879 50.8207 98.6318 50.7534 98.587 50.6861C98.2281 50.3271 98.0823 49.8223 98.1833 49.2951C98.3851 48.2407 98.587 47.1863 98.7664 46.1431C98.0486 46.4796 97.6449 47.2536 97.8468 48.0724C97.9701 48.5884 98.0711 49.1044 98.1496 49.6316C98.2842 50.8431 98.2954 52.0658 98.1608 53.2772C98.116 53.6698 98.3627 54.1634 98.6206 54.4326C98.901 54.713 99.3496 54.9262 99.7421 54.915C100.157 54.8925 100.572 54.7579 100.864 54.4326C101.166 54.0961 101.279 53.7371 101.323 53.2772C101.436 52.2901 101.447 51.303 101.379 50.3159C101.2 50.5066 101.009 50.6973 100.83 50.8992C100.594 51.1796 100.247 51.3367 99.8543 51.3367Z" fill="#59C69F"/>
<path d="M97.0841 42.3067C97.4654 42.4189 97.9701 42.3628 98.3066 42.1385C98.643 41.9141 98.9459 41.5776 99.0356 41.1626C99.058 41.0168 99.0692 40.8709 99.0916 40.7251C99.0916 40.4335 99.0131 40.153 98.8786 39.895L98.0711 37.932C97.8468 37.9096 97.6225 37.8871 97.4094 37.8535C96.4337 37.7301 95.4356 37.5731 94.4487 37.416C94.572 37.7301 94.7066 38.033 94.83 38.3471C95.0207 38.3695 95.2001 38.4256 95.3683 38.5153C95.8169 38.7733 96.0861 39.2332 96.0861 39.7829L96.1197 41.4879C96.1309 41.5103 96.1309 41.5215 96.1421 41.544C96.2879 41.9029 96.7589 42.2058 97.0841 42.3067Z" fill="#59C69F"/>
<path d="M68.5311 27.0064C68.2844 26.7933 67.9815 26.6587 67.6563 26.7036C65.6825 26.9616 63.6078 27.0625 61.6676 27.5112C60.8377 27.7019 60.0638 28.1169 59.548 28.8236C58.9536 29.6313 58.8526 30.6184 58.6956 31.5831C58.2807 34.2752 58.0003 36.9898 57.832 39.7156C57.518 39.2557 57.2153 38.7846 56.9013 38.3359C55.6676 36.5972 54.0751 35.5428 51.9218 35.9129C50.0153 36.2382 48.6247 37.6628 47.5032 39.1772C47.1555 39.6483 46.8191 40.1418 46.505 40.6466C46.1686 36.9225 45.7424 33.2208 45.2153 29.5191C45.0583 28.4423 45.0695 27.1523 44.2396 26.3671C43.2751 25.4472 41.8733 25.9745 40.7406 26.1876C38.2396 26.6587 35.7275 27.0177 33.2042 27.2869C32.4192 27.3654 31.7463 27.915 31.7463 28.79C31.7463 29.5415 32.4192 30.3828 33.2042 30.2931C34.0341 30.2034 34.864 30.1024 35.6939 30.0015C35.6378 29.8668 35.5817 29.721 35.5593 29.564C35.4247 28.7675 35.9967 27.7243 36.849 27.6795C38.4079 27.601 39.9219 27.6683 41.4583 27.9823C42.2434 28.1506 43.0397 28.8461 42.8827 29.7659C42.6247 31.2129 42.8602 32.5814 43.1181 34.006C43.3873 35.4418 43.6677 36.8776 43.9705 38.3134C44.2845 39.8053 44.621 41.2972 44.9798 42.7891C45.0583 43.1144 45.1593 43.8435 45.3275 44.4829C47.1331 42.2283 49.1517 40.1755 51.3947 38.3695C52.1125 37.7862 53.0209 37.9545 53.6265 38.5939C54.7143 39.7492 55.8022 40.9046 56.9013 42.0712L58.5386 43.8099C58.6059 43.8772 58.6844 43.9782 58.7629 44.0791C58.8863 43.2827 58.9199 42.4414 58.9872 41.7459C59.1218 40.4111 59.2115 39.0762 59.3349 37.7414C59.5816 35.0156 59.9741 32.301 60.9386 29.7434C61.1853 29.0816 61.8807 28.6217 62.576 28.7115C63.619 28.8461 64.6507 28.9582 65.6937 29.1041C66.6357 29.2275 67.5329 29.4855 68.0825 30.3492C68.5759 31.1232 68.4862 32.0766 68.4862 32.9628C68.4862 34.0284 68.4862 35.0941 68.4638 36.1485C68.4077 39.9399 68.2395 43.7202 67.9479 47.5004C67.8021 49.3512 67.6339 51.2133 67.4432 53.0641C67.2638 54.7243 66.9273 56.4405 64.9871 56.5527C63.2713 56.6537 61.4769 56.4069 59.7835 56.1825C58.0676 55.947 56.4415 55.689 56.0601 53.6474C55.791 52.1555 55.5554 50.7982 54.8938 49.4185C54.5797 48.7567 54.2209 48.1398 53.7835 47.5565C53.604 47.3209 53.2003 46.6703 52.8302 46.3338C52.4602 46.7937 52.2134 47.5677 52.0564 48.0051C51.7424 48.8913 51.5293 49.8111 51.2826 50.7197C50.7331 52.75 49.8807 54.657 48.748 56.4181C48.3331 57.0687 47.5592 57.1584 46.8975 56.979C46.2246 56.7995 45.7312 56.4181 45.3387 55.9133C44.6434 55.9245 43.9369 55.9357 43.2415 55.947C41.0658 48.4314 38.8789 40.9158 36.7032 33.4003C36.1649 31.5494 33.3388 32.3346 33.8883 34.1967C36.1649 42.0376 38.4416 49.8672 40.707 57.7081C40.8415 58.1792 41.1331 58.4821 41.4696 58.6391C41.6939 58.841 42.0079 58.9756 42.4004 58.9756C44.1275 58.9532 45.8658 58.9195 47.5928 58.8971C48.4228 58.8859 49.2527 58.8859 49.9929 58.426C50.6994 57.9885 51.1143 57.2257 51.3835 56.4517C51.619 55.7675 51.72 55.0159 51.8546 54.298C52.0228 53.4231 52.191 52.5481 52.3592 51.6732C52.4601 51.1235 52.5611 50.5739 52.662 50.0243C53.7723 52.2228 54.748 54.4775 55.5667 56.7995C55.5779 56.8331 55.6003 56.8668 55.6115 56.8892C55.7237 57.6296 56.2957 58.1904 57.0471 58.2016C60.1087 58.2689 63.1815 58.2016 66.2432 57.9773C66.9161 57.9324 67.5778 57.4501 67.69 56.7434C67.7124 56.6873 67.7461 56.6424 67.7685 56.5863C69.361 52.2789 69.1703 47.5565 69.1815 43.0247C69.1927 38.1003 69.2152 33.1872 69.2264 28.2628C69.2376 27.657 68.9348 27.2308 68.5311 27.0064Z" fill="black"/>
<path d="M46.9087 56.9789C47.5704 57.1472 48.3443 57.0687 48.7592 56.4181C49.8919 54.6569 50.7443 52.7612 51.2938 50.7197C51.5405 49.8111 51.7536 48.8913 52.0676 48.0051C52.2246 47.5564 52.4714 46.7937 52.8415 46.3337C53.2116 46.6703 53.6153 47.3096 53.7947 47.5564C54.2209 48.1397 54.591 48.7679 54.905 49.4185C55.5554 50.7982 55.7909 52.1555 56.0713 53.6474C56.4414 55.6889 58.0788 55.9469 59.7946 56.1825C61.4881 56.4181 63.2825 56.6536 64.9984 56.5527C66.9385 56.4405 67.275 54.7243 67.4544 53.0641C67.6563 51.2133 67.8245 49.3624 67.9591 47.5003C68.2507 43.7201 68.4189 39.9399 68.475 36.1485C68.4862 35.0828 68.4974 34.0172 68.4974 32.9628C68.4974 32.0766 68.5871 31.1231 68.0937 30.3492C67.5442 29.4854 66.647 29.2274 65.7049 29.104C64.6731 28.9694 63.6302 28.846 62.5872 28.7114C61.8919 28.6217 61.1965 29.0928 60.9498 29.7434C59.9853 32.301 59.5928 35.0267 59.3461 37.7413C59.2227 39.0762 59.133 40.411 58.9984 41.7459C58.9311 42.4414 58.8975 43.2827 58.7741 44.0791C58.6844 43.9781 58.6059 43.8772 58.5498 43.8099L56.9124 42.0712C55.8246 40.9158 54.7367 39.7604 53.6377 38.5938C53.0321 37.9545 52.1349 37.7862 51.4059 38.3695C49.1742 40.1755 47.1443 42.2282 45.3387 44.4829C45.1705 43.8435 45.0695 43.1144 44.991 42.7891C44.6322 41.3084 44.2957 39.8165 43.9817 38.3134C43.6789 36.8888 43.3985 35.453 43.1293 34.006C42.8714 32.5814 42.6359 31.2017 42.8938 29.7659C43.062 28.8348 42.2546 28.1394 41.4696 27.9823C39.9331 27.657 38.4191 27.5897 36.8603 27.6794C36.0079 27.7243 35.4359 28.7675 35.5705 29.5639C35.5929 29.721 35.649 29.8668 35.7051 30.0014C36.5462 29.8892 37.3985 29.7771 38.2397 29.6425C39.0135 29.5303 39.7761 29.3957 40.5499 29.2611C40.9424 29.1938 41.649 28.9694 42.1985 28.8797C42.2097 28.9021 42.2097 28.9246 42.2097 28.947C42.2658 29.3396 42.3219 29.7434 42.378 30.136C42.4789 30.8203 42.5686 31.4933 42.6583 32.1776C42.849 33.5797 43.006 34.9819 43.163 36.384C43.477 39.2332 43.7238 42.0824 43.9256 44.9428C43.9705 45.5598 44.2957 45.9748 44.7218 46.1991C44.7891 46.2664 44.8789 46.3337 44.9686 46.3786C45.6191 46.7712 46.6171 46.5693 46.9648 45.8402C47.705 44.3034 48.5461 42.834 49.4994 41.4318C50.1947 40.3998 51.0471 39.2332 52.2807 38.8855C53.5816 38.5265 54.2545 39.6146 54.905 40.6017C55.8358 42.0039 56.7666 43.4173 57.7087 44.8194C57.9666 46.4796 60.6021 46.3898 60.6021 44.539C60.6134 40.8822 60.8376 37.2253 61.3423 33.6022C61.4657 32.7609 61.5667 31.9083 61.7461 31.0671C61.8582 30.5286 62.0489 30.4725 62.5648 30.3604C63.7984 30.1024 65.0657 29.979 66.3329 29.8444C66.3217 34.1069 66.3105 38.3695 66.2881 42.632C66.2769 46.76 66.49 51.0338 65.2339 55.0047C62.8676 55.1505 60.5012 55.2066 58.1349 55.1729C56.9124 51.8078 55.4208 48.5548 53.6265 45.4812C53.5367 45.3354 53.4246 45.212 53.3012 45.0998C53.133 44.7297 52.8302 44.438 52.4041 44.3146C51.6863 44.1127 50.7554 44.5614 50.6096 45.3691C50.0377 48.5323 49.477 51.718 48.8153 54.8589C48.7704 55.0944 48.7144 55.3188 48.6359 55.5543C48.6247 55.588 48.5686 55.7114 48.5574 55.745C48.5462 55.7562 48.5349 55.7787 48.5237 55.7899C48.5013 55.7899 48.4788 55.8123 48.5012 55.8235L48.4901 55.8348C48.4228 55.8348 48.3107 55.8348 48.2882 55.8348C47.9293 55.846 47.5704 55.846 47.2003 55.8572C46.5947 55.8684 45.9892 55.8796 45.3948 55.8796C45.7424 56.4181 46.2359 56.7994 46.9087 56.9789Z" fill="black"/>
<path d="M87.6636 38.1788C86.4973 37.259 85.1963 38.5377 85.3982 39.7043C86.9683 40.5905 88.572 41.5552 89.514 43.092C90.7365 45.0998 90.6916 47.8369 90.1197 50.0467C88.9758 54.4775 84.5459 57.7978 80.0823 56.2049C75.63 54.6121 72.5347 50.0018 73.2524 45.1447C73.5889 42.89 74.5534 40.5569 76.4151 39.2108C78.2655 37.8647 80.3515 38.19 82.4711 37.9544C83.3235 37.8647 84.0187 38.1227 84.5346 38.5714C84.658 37.7974 84.2655 36.9225 83.2898 36.8215C79.4094 36.384 75.2936 38.033 73.0618 41.4318C70.774 44.9092 70.6843 49.3736 72.86 52.9071C74.8786 56.2049 78.4899 58.9195 82.4151 58.5381C86.3178 58.1567 89.5253 54.9149 90.5795 51.1347C91.7458 46.9843 91.2412 40.9943 87.6636 38.1788Z" fill="black"/>
<path d="M82.4712 37.9656C80.3628 38.2012 78.2656 37.8759 76.4151 39.2219C74.5647 40.568 73.5889 42.9124 73.2525 45.1559C72.5235 50.0129 75.6189 54.6232 80.0824 56.2161C84.5459 57.8089 88.9758 54.4774 90.1197 50.0578C90.6917 47.8368 90.7365 45.0998 89.5141 43.1031C88.572 41.5551 86.9683 40.5904 85.3982 39.7155C85.4543 40.0408 85.6225 40.3661 85.9478 40.6241C88.1683 42.3628 88.4487 46.3112 88.0898 48.9249C87.6861 51.8413 85.8917 54.5335 83.0544 55.3636C80.2058 56.2049 77.5703 54.2979 75.8656 52.0769C74.0712 49.7325 73.6787 46.7038 74.9909 44.0005C76.4712 40.9494 79.8245 39.4687 83.0207 39.8277C83.9179 39.9286 84.445 39.2892 84.5571 38.5825C84.0188 38.1339 83.3235 37.8759 82.4712 37.9656Z" fill="black"/>
<path d="M84.9608 47.0966C84.8038 45.3354 82.4599 44.4829 80.9683 43.6753C80.0151 43.7538 79.2188 44.0903 78.8599 45.3242C78.3328 47.119 78.9721 48.7567 80.2955 49.8336C80.8001 50.0467 81.3385 50.1364 81.8992 50.0803C82.5497 50.0243 83.1552 49.7214 83.6936 49.34C84.1646 49.0147 84.6132 48.5436 84.9496 48.0052C84.9833 47.7135 84.9945 47.4106 84.9608 47.0966ZM82.3366 46.5693C82.202 46.704 82.0674 46.8161 81.9216 46.9283C81.8431 46.9732 81.7758 47.0068 81.6973 47.0405C81.6413 47.0517 81.5964 47.0629 81.5403 47.0741C81.5291 47.0741 81.5067 47.0741 81.4955 47.0741C81.4843 47.0741 81.473 47.0629 81.4618 47.0629C81.4394 47.0517 81.4169 47.0293 81.3945 47.018C81.3609 46.9732 81.3273 46.9395 81.2936 46.8946C81.2712 46.8386 81.2488 46.7937 81.2263 46.7376C81.2151 46.6815 81.2039 46.6254 81.2039 46.5693C81.2039 46.5133 81.2151 46.4572 81.2263 46.4011C81.2488 46.3113 81.2824 46.2328 81.316 46.1543C81.3384 46.1207 81.3609 46.0982 81.3833 46.0646C81.6412 46.087 81.8992 46.1207 82.1459 46.1767C82.2468 46.2104 82.3478 46.244 82.4487 46.2889C82.4711 46.3113 82.5048 46.3226 82.5272 46.345C82.4599 46.4123 82.3927 46.4908 82.3366 46.5693Z" fill="black"/>
<path d="M82.4151 43.1592C82.0002 42.6881 81.3161 42.4637 80.7217 42.7666C79.4768 43.406 78.5908 44.5277 78.3105 45.9411C78.0525 47.2535 78.6581 48.7117 79.7011 49.4857C79.8917 49.6315 80.0936 49.7325 80.2955 49.8222C78.9834 48.7454 78.3329 47.1077 78.86 45.3129C79.2188 44.079 80.0151 43.7537 80.9684 43.664C82.46 44.4716 84.8039 45.3241 84.9609 47.0852C84.9945 47.3993 84.9833 47.7022 84.9496 47.9938C85.387 47.2984 85.6338 46.4795 85.4431 45.6831C85.2412 44.8642 84.7366 44.1351 84.0301 43.72C83.5142 43.4284 82.9759 43.2601 82.4151 43.1592Z" fill="black"/>
<path d="M118.785 40.9046C118.336 40.8372 117.888 40.7587 117.439 40.6802C116.441 40.5007 115.398 40.3213 114.378 40.2652C113.604 40.2203 112.908 40.4222 112.381 40.8485C111.787 41.3196 111.495 41.9702 111.215 42.6096L111.148 42.7778C110.52 44.2024 109.914 45.7168 109.364 47.276C109.353 47.2535 109.342 47.2199 109.331 47.1974C108.669 45.4027 107.536 44.4043 105.955 44.2361H105.944C105.787 44.2249 105.641 44.2249 105.495 44.2249C105.731 45.2905 105.955 46.3561 106.157 47.433C106.258 47.534 106.348 47.6686 106.426 47.8368C106.572 47.9153 106.718 48.0051 106.852 48.106C107.649 48.7118 108.108 49.6316 108.434 50.5738C108.591 51.0225 108.692 51.5161 108.916 51.9311C108.994 52.0769 109.084 52.2115 109.196 52.3349C109.723 51.7292 110.026 50.8543 110.34 50.1364C110.789 49.0931 111.204 48.0387 111.563 46.9619C112.168 45.1559 112.426 42.8227 114.411 42.0375C116.508 41.2186 118.269 43.0246 117.989 45.1783C117.843 46.2776 117.45 47.3993 117.17 48.465C116.867 49.6316 116.564 50.7982 116.262 51.9648C115.712 54.0848 115.353 56.4292 114.523 58.4371C113.705 60.4001 111.966 61.1741 109.97 60.8152C108.692 60.5908 107.48 60.0075 106.471 59.1775C106.37 59.8842 106.247 60.5796 106.112 61.2751C106.067 61.4994 106.011 61.7238 105.955 61.9481C107.873 62.5202 109.824 63.0362 111.776 63.44C111.832 63.4512 111.888 63.4625 111.944 63.4625C112.561 63.5298 113.166 63.2157 113.435 62.6885C113.458 62.6548 113.48 62.6324 113.503 62.5987C115.286 60.1085 116.082 57.1023 116.856 54.197L119.94 42.8339C120.086 42.3067 119.963 41.7907 119.604 41.4205C119.379 41.1401 119.099 40.9494 118.785 40.9046Z" fill="black"/>
<path d="M101.077 38.2124C101.391 38.8293 101.413 39.5809 101.346 40.3212C101.559 41.1401 101.761 41.9702 101.918 42.8115C101.918 42.8227 101.918 42.8451 101.929 42.8563C101.929 42.8788 101.94 42.9012 101.94 42.9236C101.974 43.1031 102.008 43.2826 102.041 43.4621C102.052 43.5406 102.086 43.6191 102.108 43.6976C102.355 42.0599 102.591 40.4334 102.793 38.8293C102.804 38.6947 102.826 38.5713 102.849 38.4255C102.961 37.6964 103.084 36.8775 102.647 36.1484C102.108 35.2622 101.122 35.2062 100.325 35.1613C100.191 35.1501 100.056 35.1501 99.9215 35.1276C99.787 35.1164 99.6412 35.094 99.5066 35.0828C99.8543 35.8792 100.179 36.6868 100.482 37.5057C100.718 37.6964 100.931 37.9207 101.077 38.2124Z" fill="black"/>
<path d="M102.467 45.3241C102.647 46.1654 102.815 46.9955 102.961 47.8368C103.14 47.7583 103.32 47.6685 103.51 47.6124C103.903 47.489 104.318 47.4217 104.733 47.4217C105.013 47.2871 105.293 47.2086 105.596 47.2086C105.832 47.2086 106.011 47.2759 106.157 47.4105C105.966 46.3337 105.731 45.268 105.495 44.2024C104.307 44.2248 103.264 44.7633 102.467 45.3241Z" fill="black"/>
<path d="M106.46 59.1774C106.022 58.8185 105.608 58.4147 105.26 57.9548C104.643 57.1583 104.217 56.2722 103.936 55.3075C103.836 54.9485 103.768 54.5559 103.69 54.1633C103.667 54.197 103.634 54.2419 103.611 54.2755C103.622 54.87 103.611 55.4645 103.578 56.0703L103.634 55.9581C103.892 57.3603 104.06 58.7512 104.161 60.0973L104.172 60.1421C104.116 60.8713 104.542 61.5219 105.215 61.735C105.45 61.8135 105.697 61.8696 105.944 61.9369C105.989 61.7125 106.056 61.4882 106.101 61.2639C106.236 60.5796 106.359 59.8729 106.46 59.1774Z" fill="black"/>
<path d="M92.6767 35.4531C92.5646 35.8457 92.6431 36.328 92.8786 36.6982C93.0804 37.0347 93.3945 37.2478 93.7421 37.3151C93.944 37.3488 94.1459 37.3824 94.3366 37.4161C94.3366 37.3488 94.3477 37.2815 94.3589 37.2142C94.258 36.9898 94.1908 36.7655 94.1908 36.5075C94.2132 36.3617 94.2244 36.2158 94.2468 36.07C94.3365 35.655 94.6393 35.3185 94.9758 35.0941C95.3122 34.8698 95.8169 34.8249 96.1982 34.9259C96.5347 35.0268 97.0057 35.3297 97.1403 35.6774L97.4655 36.4626C98.4636 36.6645 99.6636 36.8664 100.471 37.4946C100.179 36.6757 99.8543 35.8681 99.4954 35.0717C97.8132 34.9034 96.1197 34.6791 94.4375 34.3762C93.6076 34.2416 92.8786 34.6791 92.6767 35.4531Z" fill="black"/>
<path d="M101.94 42.9237C101.94 42.9013 101.929 42.8788 101.929 42.8564C101.929 42.8452 101.929 42.8227 101.918 42.8115C101.761 41.9702 101.57 41.1401 101.346 40.3213C101.279 40.9943 101.144 41.6674 101.077 42.2619C100.908 43.5967 100.729 44.954 100.763 46.3113C100.763 46.4683 100.774 46.6815 100.796 46.917C100.841 47.0068 100.875 47.1077 100.897 47.2087C101.032 47.7583 101.133 48.3192 101.222 48.8913C101.29 48.8464 101.368 48.8015 101.402 48.7791C101.593 48.6333 101.794 48.4987 101.996 48.3641C102.31 48.1509 102.636 47.9827 102.961 47.8369C102.815 46.9956 102.647 46.1655 102.467 45.3242C102.277 45.4588 102.097 45.5822 101.94 45.7056C101.884 45.7504 101.828 45.7953 101.772 45.8402C101.895 45.1223 101.996 44.4044 102.108 43.6977C102.075 43.6192 102.052 43.5519 102.041 43.4621C102.008 43.2826 101.974 43.1032 101.94 42.9237Z" fill="black"/>
<path d="M99.6747 58.0782C98.5981 58.6952 97.2636 58.7849 96.2654 57.966C95.3907 57.2481 95.1664 56.104 95.1103 55.0159C94.83 49.4634 94.6056 43.9108 94.3589 38.3583C94.1682 38.3919 93.9664 38.448 93.7981 38.549C93.3832 38.807 93.1477 39.2669 93.1589 39.8053L93.5178 57.7193C93.529 58.1455 93.686 58.5269 93.9776 58.7961C94.1683 59.0653 94.4374 59.2448 94.7626 59.3345L97.4879 60.0637C97.544 59.6598 97.6561 59.3233 97.9364 59.0205C98.2168 58.6952 98.643 58.5606 99.0579 58.5381C99.4505 58.5157 99.899 58.7288 100.179 59.0205C100.437 59.2897 100.684 59.7832 100.639 60.1758C100.628 60.2544 100.617 60.3217 100.606 60.4002C101.11 60.1983 101.57 59.8169 101.985 59.2112C102.232 58.8522 102.411 58.4596 102.591 58.0782L103.566 56.0703C103.6 55.4758 103.611 54.8701 103.6 54.2756C103.252 54.7243 102.882 55.1617 102.501 55.5768C101.671 56.5078 100.751 57.4501 99.6747 58.0782Z" fill="black"/>
<path d="M100.426 60.4675C100.494 60.4451 100.55 60.4114 100.617 60.389C100.628 60.3105 100.639 60.2432 100.65 60.1646C100.695 59.772 100.437 59.2785 100.191 59.0093C99.9103 58.7288 99.4617 58.5157 99.0692 58.5269C98.6542 58.5493 98.2393 58.684 97.9477 59.0093C97.6673 59.3233 97.5552 59.6486 97.4991 60.0525L98.5197 60.3217C99.1253 60.5012 99.7421 60.6694 100.426 60.4675Z" fill="black"/>
<path d="M101.222 48.8801C101.144 48.3193 101.032 47.7584 100.897 47.1975C100.875 47.0966 100.841 47.0068 100.796 46.9059C100.841 47.5228 100.931 48.3193 101.166 48.9026C101.189 48.9026 101.211 48.8913 101.222 48.8801Z" fill="black"/>
<path d="M95.6262 35.7782C96.1645 35.6885 96.8038 35.9465 97.1739 36.4064C97.2636 36.4288 97.3645 36.4513 97.4655 36.4737L97.1403 35.6885C96.9945 35.3408 96.5346 35.0379 96.1982 34.9369C95.8169 34.8248 95.3122 34.8809 94.9757 35.1052C94.6393 35.3296 94.3365 35.6661 94.2468 36.0811C94.2244 36.2269 94.2132 36.3728 94.1907 36.5186C94.1907 36.7654 94.258 37.0009 94.3589 37.2253C94.4599 36.5074 94.8636 35.9128 95.6262 35.7782Z" fill="black"/>
<path d="M107.895 52.1219C107.862 52.9295 108.467 53.4791 109.107 53.6138C109.88 53.7708 110.564 53.3333 110.766 52.5705C111.495 49.9121 112.359 47.3882 113.335 45.0774L113.458 44.797C113.66 44.3259 113.862 43.8435 114.086 43.406C114.131 43.3163 114.164 43.2827 114.153 43.2827C114.198 43.2714 114.344 43.2827 114.411 43.2827C115.174 43.3387 115.936 43.4621 116.688 43.5967L114.366 52.1443C114.254 52.5369 114.153 52.9295 114.052 53.3221C113.424 55.7226 112.763 58.1904 111.484 60.288C109.981 59.9515 108.478 59.5589 107.009 59.1214C106.942 58.3474 106.841 57.5847 106.74 56.8331C106.673 57.6183 106.583 58.3923 106.471 59.1663C107.48 59.9964 108.692 60.5685 109.97 60.804C111.966 61.163 113.716 60.389 114.523 58.426C115.353 56.4068 115.712 54.0624 116.262 51.9536C116.564 50.787 116.867 49.6204 117.17 48.4538C117.45 47.3882 117.843 46.2664 117.989 45.1672C118.258 43.0134 116.508 41.2075 114.411 42.0263C112.426 42.8003 112.168 45.1335 111.563 46.9507C111.204 48.0276 110.8 49.082 110.34 50.1252C110.026 50.8431 109.712 51.718 109.196 52.3238C109.084 52.2004 108.994 52.0658 108.916 51.9199C108.692 51.5049 108.591 51.0113 108.434 50.5627C108.12 49.6204 107.66 48.6894 106.852 48.0949C106.718 47.9939 106.572 47.9042 106.426 47.8256C106.527 48.0388 106.617 48.2968 106.718 48.5996L107.895 52.1219Z" fill="black"/>
<path d="M103.409 48.3416C103.847 47.9714 104.284 47.6237 104.733 47.4105C104.318 47.4105 103.914 47.4778 103.51 47.6012C103.32 47.6573 103.14 47.747 102.961 47.8256C103.006 48.0948 103.05 48.364 103.095 48.6332C103.196 48.5435 103.297 48.4425 103.409 48.3416Z" fill="black"/>
<path d="M105.664 51.6059C105.63 51.4713 105.574 51.3479 105.495 51.2245C105.406 50.8319 105.181 50.5066 104.845 50.2935C104.497 50.0804 104.049 50.0243 103.645 50.1589C103.533 50.1925 103.421 50.2486 103.331 50.3047C103.499 51.6171 103.589 52.9408 103.611 54.2756C103.634 54.242 103.667 54.1971 103.69 54.1634C103.757 54.556 103.824 54.9486 103.936 55.3076C104.217 56.2723 104.643 57.1697 105.26 57.9549C105.607 58.4148 106.022 58.8186 106.46 59.1776C106.572 58.4036 106.662 57.6296 106.729 56.8444C106.471 55.0384 106.123 53.2885 105.664 51.6059Z" fill="black"/>
<path d="M101.077 38.2124C100.931 37.9208 100.718 37.6964 100.471 37.4945C100.808 38.4255 101.099 39.3678 101.357 40.3213C101.413 39.5809 101.391 38.8294 101.077 38.2124Z" fill="black"/>
<path d="M102.826 50.8543L102.265 52.0321C101.469 53.7259 100.639 55.4758 99.7758 57.1584C99.7085 57.293 99.63 57.4276 99.5851 57.5061C99.4169 57.4612 99.2487 57.4164 99.0917 57.3715L96.4225 56.6536L96.1197 41.4879C95.6935 40.4447 95.2562 39.3902 94.83 38.347C94.673 38.3246 94.516 38.3246 94.3589 38.347C94.6057 43.8996 94.8412 49.4521 95.1104 55.0047C95.1665 56.0927 95.3907 57.2369 96.2655 57.9548C97.2636 58.7736 98.5982 58.6951 99.6748 58.067C100.763 57.4388 101.671 56.4965 102.523 55.5655C102.905 55.1505 103.275 54.713 103.622 54.2643C103.6 52.9407 103.51 51.617 103.342 50.2934C103.118 50.4392 102.938 50.6187 102.826 50.8543Z" fill="black"/>
<path d="M94.4038 37.3263C94.3814 37.2926 94.3701 37.2477 94.3589 37.2029C94.3477 37.2702 94.3365 37.3375 94.3365 37.4048C94.3702 37.416 94.415 37.416 94.4487 37.4272C94.4375 37.3936 94.415 37.3599 94.4038 37.3263Z" fill="black"/>
<path d="M101.413 48.7679C101.368 48.8016 101.301 48.8352 101.234 48.8801C101.301 49.3512 101.357 49.8336 101.391 50.3047C101.94 49.7102 102.512 49.1493 103.095 48.6333C103.05 48.3641 103.006 48.0949 102.961 47.8257C102.636 47.9715 102.31 48.1398 101.996 48.3529C101.794 48.4875 101.604 48.6221 101.413 48.7679Z" fill="black"/>
<path d="M99.114 38.0666C99.2374 38.089 99.428 38.089 99.6299 38.089C99.7308 38.089 99.843 38.089 99.944 38.1003C99.9327 38.2236 99.9103 38.347 99.8991 38.4816L99.8878 38.605C99.8318 39.0986 99.7645 39.6034 99.6972 40.0969C99.5626 41.1177 99.4168 42.1385 99.2598 43.148C99.1028 44.1351 98.9458 45.1447 98.7663 46.1542C98.8224 46.1206 98.8897 46.0982 98.9458 46.0757C99.6524 45.8402 100.46 46.2552 100.785 46.9282C100.774 46.6927 100.763 46.4908 100.751 46.3225C100.707 44.9764 100.897 43.6079 101.065 42.2731C101.133 41.6786 101.279 41.0055 101.335 40.3325C101.077 39.379 100.785 38.4368 100.449 37.5057C99.6523 36.8776 98.4411 36.6757 97.443 36.4738L98.0486 37.9544C98.4187 37.9881 98.7663 38.033 99.114 38.0666Z" fill="black"/>
<path d="M98.9571 46.0646C98.8898 46.087 98.8337 46.1206 98.7776 46.1431C98.5982 47.1863 98.3963 48.2407 98.1945 49.2951C98.0935 49.8223 98.2393 50.3159 98.5982 50.6861C98.6431 50.7534 98.6991 50.8207 98.7552 50.888C99.0356 51.1796 99.4393 51.3479 99.8655 51.3367C100.258 51.3254 100.606 51.1684 100.841 50.888C101.021 50.6861 101.211 50.4954 101.391 50.3047C101.357 49.8223 101.301 49.3512 101.234 48.8801C101.211 48.8913 101.2 48.9025 101.178 48.9137C100.942 48.3304 100.841 47.534 100.807 46.9171C100.471 46.244 99.6636 45.829 98.9571 46.0646Z" fill="black"/>
<path d="M94.4487 37.4272C95.4356 37.5955 96.4337 37.7413 97.4094 37.8647C97.6337 37.8984 97.858 37.9208 98.0711 37.9432L97.4655 36.4626C97.3646 36.4401 97.2636 36.4177 97.1739 36.3952C96.815 35.9353 96.1646 35.6773 95.6262 35.7671C94.8636 35.9017 94.4599 36.4962 94.3589 37.1917C94.3814 37.2365 94.3814 37.2702 94.4039 37.3151C94.4151 37.3599 94.4375 37.3936 94.4487 37.4272Z" fill="black"/>
<path d="M95.3683 38.5265C95.2001 38.4256 95.0207 38.3807 94.83 38.3583C95.2562 39.4015 95.6935 40.4559 96.1197 41.4991L96.0861 39.7941C96.0749 39.2444 95.8169 38.7845 95.3683 38.5265Z" fill="black"/>
<path d="M99.5851 81.4998C97.7907 83.6872 95.8506 85.7288 93.7646 87.6133C93.1366 88.1741 93.159 89.3519 93.7646 89.924C94.4263 90.5522 95.3347 90.5297 96.0076 89.924C98.0935 88.0395 100.034 85.998 101.828 83.8106C102.108 83.4741 102.288 83.1151 102.288 82.6552C102.288 82.2514 102.12 81.7803 101.828 81.4998C101.245 80.939 100.157 80.7932 99.5851 81.4998Z" fill="black"/>
<path d="M76.6955 5.94044C85.3758 8.72232 93.0469 14.1851 98.7552 21.4651C99.2936 22.1494 100.437 22.0372 100.998 21.4651C101.66 20.7809 101.537 19.8386 100.998 19.1544C94.9646 11.4369 86.7104 5.72732 77.5366 2.78839C75.5852 2.16023 74.7553 5.32349 76.6955 5.94044Z" fill="black"/>
<path d="M86.9907 1.80121C86.6206 2.51912 86.7552 3.65206 87.5627 4.03345C88.4935 4.47092 89.4019 4.96448 90.2767 5.51412C90.7365 5.80577 91.1851 6.10864 91.6337 6.42272C91.8356 6.56855 92.0263 6.71437 92.2281 6.86019C92.3179 6.9275 92.4188 7.00602 92.5085 7.07332C92.5422 7.09576 92.643 7.17428 92.6767 7.20793C94.3028 8.54278 95.772 10.0683 97.0505 11.7397C97.5664 12.4127 98.7552 12.3342 99.2935 11.7397C99.9327 11.0218 99.843 10.1468 99.2935 9.42895C96.6131 5.91794 93.1028 3.06876 89.1664 1.2067C88.4038 0.858961 87.4169 0.971134 86.9907 1.80121Z" fill="#59C69F"/>
<path d="M98.3963 5.16642C98.6094 5.23372 98.8225 5.24494 99.0244 5.20007C99.2374 5.18885 99.4281 5.12155 99.6187 5.00938C99.9552 4.78503 100.258 4.44851 100.348 4.03348C100.37 3.88765 100.381 3.74183 100.404 3.596C100.404 3.30435 100.336 3.02392 100.191 2.76593C99.8094 2.24993 99.4169 1.75637 98.9346 1.33012C98.4636 0.915078 97.9477 0.522474 97.3982 0.219608C97.0281 0.0176977 96.5907 -0.0608232 96.1757 0.0513494C95.8056 0.152305 95.4132 0.443953 95.2337 0.802906C95.0431 1.18429 94.9421 1.6442 95.0767 2.05924C95.2001 2.46306 95.4356 2.83323 95.8057 3.03514C96.0861 3.19218 96.344 3.37166 96.5907 3.56235C96.9608 3.87643 97.286 4.21295 97.5888 4.59434C97.6225 4.62799 97.6449 4.67286 97.6786 4.70651C97.7346 4.7626 97.7907 4.81868 97.858 4.86355C98.015 5.02059 98.1945 5.12155 98.3963 5.16642Z" fill="black"/>
<path d="M13.2978 22.8561C13.2865 21.6783 13.309 20.5005 13.3538 19.3339C13.6454 19.39 13.937 19.4348 14.2285 19.4797C15.1033 19.6255 16.1576 20.0069 17.0099 19.6143C17.9968 19.1544 18.1425 18.0663 18.3668 17.0904C18.4678 16.6305 18.58 16.1594 18.6809 15.6995L18.7033 15.5761C19.1632 15.7331 19.6229 15.9126 20.0715 16.1145C20.8566 16.4623 21.765 16.3613 22.236 15.5312C22.6285 14.847 22.4603 13.6467 21.664 13.299C20.879 12.9513 20.0828 12.626 19.2641 12.3567C18.322 12.0539 17.2678 11.7847 16.4827 12.5923C15.8771 13.2092 15.7762 14.1515 15.5856 14.9704C15.4846 15.4303 15.3837 15.9014 15.2827 16.3613C14.9799 16.3052 14.666 16.2603 14.3632 16.2043C13.6679 16.0809 12.9613 15.9575 12.2659 15.8453C11.2117 15.6658 10.3258 16.2828 10.2585 17.4157C10.1912 18.5487 10.1576 19.6816 10.1352 20.8145C8.96881 20.579 7.77999 20.4107 6.59121 20.3098C5.7501 20.2425 4.98751 21.1174 5.00994 21.9475C5.0548 23.731 5.26789 25.5146 5.6492 27.2645C6.0978 29.3172 9.14821 28.4423 8.69962 26.4007C8.50896 25.537 8.38562 24.6733 8.2959 23.7983C9.29402 23.9554 10.2922 24.1685 11.2791 24.4377C12.2772 24.6957 13.309 23.9217 13.2978 22.8561Z" fill="#59C69F"/>
<path d="M2.37448 92.605C2.13896 93.4799 2.66605 94.3549 3.48474 94.6129C4.84174 95.0503 6.25479 95.4766 7.66787 95.6224C9.13702 95.7794 10.3707 95.1625 11.5258 94.2876C13.6454 92.6947 15.4622 90.799 16.9987 88.6228C17.5033 87.9049 17.1108 86.8056 16.4267 86.3906C15.6304 85.9083 14.7669 86.256 14.2622 86.9739C13.1071 88.6004 11.6492 90.1372 10.0791 91.3486C9.33891 91.9207 8.69966 92.4816 7.75761 92.3694C6.60247 92.2348 5.41369 91.8198 4.31463 91.4608C3.50716 91.2028 2.59877 91.7749 2.37448 92.605Z" fill="#59C69F"/>
</svg>
