<svg width="716" height="597" viewBox="0 0 716 597" fill="none" xmlns="http://www.w3.org/2000/svg">
<path d="M408.332 348.922C414.983 352.407 421.896 356.604 428.848 361.393C428.913 361.434 428.961 361.482 429.026 361.523C429.96 362.299 430.164 363.673 429.461 364.691C428.717 365.775 427.234 366.041 426.16 365.301C419.357 360.616 412.621 356.52 406.14 353.121C404.979 352.523 404.533 351.075 405.142 349.921C405.74 348.762 407.165 348.308 408.332 348.922Z" fill="black"/>
<path d="M338.179 336.715C338.938 336.542 339.692 336.736 340.25 337.203C340.627 337.513 340.917 337.964 341.042 338.482C341.341 339.758 340.558 341.031 339.281 341.329C336.276 342.05 333.266 342.85 330.271 343.644C325.652 344.877 320.866 346.149 316.315 347.027L315.705 344.729L315.469 342.357C319.821 341.532 324.3 340.336 329.047 339.061C332.074 338.254 335.135 337.433 338.179 336.715Z" fill="black"/>
<path d="M362.452 334.525C370.187 335.207 378.162 336.88 386.152 339.462C386.453 339.562 386.707 339.709 386.933 339.887C387.653 340.491 387.985 341.494 387.679 342.447C387.28 343.689 385.937 344.371 384.694 343.97C377.033 341.485 369.42 339.896 362.043 339.242C360.734 339.129 359.78 337.975 359.887 336.678C359.994 335.381 361.142 334.412 362.452 334.525Z" fill="black"/>
<path d="M448.076 375.389C452.961 378.898 459.48 383.381 466.553 386.838C467.009 387.057 467.465 387.277 467.926 387.484C468.119 387.579 468.296 387.681 468.446 387.813C469.249 388.479 469.546 389.631 469.085 390.629C468.529 391.819 467.119 392.335 465.939 391.783C465.443 391.561 464.968 391.32 464.477 391.086C457.087 387.468 450.351 382.852 445.31 379.224C444.254 378.41 444.007 376.977 444.769 375.915C445.527 374.864 447.012 374.627 448.076 375.389Z" fill="black"/>
<path d="M539.193 352.063C539.802 350.909 541.239 350.46 542.395 351.069C542.541 351.145 542.678 351.244 542.815 351.342C543.659 352.04 543.926 353.262 543.397 354.258C540.006 360.719 535.994 368.164 531.214 374.862C530.451 375.924 528.973 376.178 527.909 375.416C526.81 374.638 526.589 373.176 527.352 372.113C531.956 365.67 535.876 358.378 539.193 352.063Z" fill="black"/>
<path d="M232.631 277.905C227.561 271.936 221.388 267.188 214.797 264.18C213.612 263.64 213.083 262.226 213.622 261.043C214.166 259.847 215.565 259.327 216.762 259.872C221.006 261.809 225.07 264.369 228.843 267.491C231.484 269.685 233.98 272.16 236.257 274.83C237.11 275.833 236.988 277.329 235.99 278.168C234.982 279.031 233.484 278.908 232.631 277.905Z" fill="black"/>
<path d="M489.865 393.186C495.049 393.41 499.931 392.726 504.387 391.164C506.734 390.344 509.034 389.245 511.235 387.925C512.117 387.393 513.223 387.502 513.972 388.133C514.176 388.301 514.353 388.498 514.487 388.733C515.167 389.855 514.804 391.304 513.682 391.982C511.215 393.477 508.617 394.698 505.96 395.634C500.936 397.408 495.454 398.182 489.655 397.918C488.349 397.862 487.331 396.762 487.392 395.445C487.447 394.14 488.547 393.124 489.865 393.186Z" fill="black"/>
<path d="M248.178 322.699C246.883 322.551 245.934 321.385 246.086 320.079C246.192 319.111 246.28 318.121 246.335 317.144C246.71 310.715 245.832 304.169 243.707 297.686C243.297 296.446 243.984 295.105 245.226 294.697C246.035 294.435 246.874 294.624 247.485 295.127C247.82 295.406 248.077 295.774 248.219 296.217C250.529 303.27 251.486 310.411 251.07 317.425C251.004 318.493 250.916 319.551 250.803 320.6C250.651 321.905 249.473 322.847 248.178 322.699Z" fill="black"/>
<path d="M268.881 352.217C276.653 350.887 284.248 349.195 291.993 347.443C292.735 347.276 293.485 347.482 294.035 347.933C294.419 348.259 294.714 348.698 294.834 349.228C295.122 350.499 294.322 351.779 293.05 352.065C285.244 353.832 277.576 355.535 269.698 356.888C268.41 357.113 267.175 356.237 266.96 354.955C266.722 353.664 267.593 352.442 268.881 352.217Z" fill="black"/>
<path d="M52.5786 358.302C58.9765 362.419 65.8798 366.215 73.0771 369.574C73.2586 369.664 73.4352 369.765 73.5854 369.897C74.3997 370.569 74.6798 371.727 74.2188 372.725C73.6629 373.915 72.2578 374.419 71.066 373.863C63.6805 370.398 56.584 366.507 50.0145 362.276C48.9115 361.606 48.5858 360.099 49.295 359.001C50.0109 357.919 51.4787 357.592 52.5786 358.302Z" fill="black"/>
<path d="M94.87 378.227C100.201 379.992 105.736 381.568 111.295 382.922C113.361 383.422 115.436 383.899 117.526 384.341C117.917 384.423 118.268 384.598 118.55 384.84C119.209 385.391 119.544 386.258 119.359 387.153C119.093 388.437 117.832 389.249 116.546 388.981C114.416 388.537 112.294 388.041 110.177 387.533C104.491 386.153 98.8407 384.527 93.388 382.725C92.1374 382.308 91.4661 380.971 91.8774 379.734C92.2935 378.485 93.6311 377.815 94.87 378.227Z" fill="black"/>
<path d="M169.872 266.537C175.342 260.774 183.333 257.002 192.35 255.909C193.029 255.825 193.666 256.038 194.157 256.437C194.606 256.804 194.925 257.349 195 257.983C195.154 259.28 194.229 260.466 192.931 260.618C185.004 261.568 178.033 264.837 173.326 269.799C172.42 270.746 170.948 270.756 169.968 269.892C169.02 268.986 168.978 267.489 169.872 266.537Z" fill="black"/>
<path d="M17.4993 327.074C17.6195 327.179 17.7348 327.296 17.8335 327.42C22.5965 333.369 28.003 339.027 33.9191 344.257C34.899 345.121 34.9923 346.626 34.128 347.604C33.2637 348.582 31.7113 348.655 30.778 347.81C24.6632 342.401 19.0562 336.535 14.1209 330.376C13.3058 329.348 13.468 327.856 14.496 327.042C15.4003 326.327 16.655 326.376 17.4993 327.074Z" fill="black"/>
<path d="M186.838 383.758C190.06 382.814 193.25 381.719 196.306 380.486C200.316 378.873 204.265 376.92 208.042 374.689C208.936 374.162 210.026 374.278 210.775 374.908C210.978 375.076 211.151 375.286 211.297 375.525C211.96 376.653 211.597 378.103 210.463 378.776C206.479 381.139 202.322 383.196 198.08 384.903C194.88 386.185 191.542 387.341 188.164 388.329C186.914 388.693 185.586 387.97 185.221 386.721C184.865 385.448 185.588 384.122 186.838 383.758Z" fill="black"/>
<path d="M179.364 331.708C180.356 330.852 181.848 330.987 182.711 331.966C187.55 337.605 193.581 342.267 200.611 345.828C200.769 345.909 200.918 346.012 201.061 346.127C201.894 346.82 202.171 348.019 201.665 349.025C201.079 350.189 199.644 350.666 198.483 350.068C190.898 346.232 184.371 341.183 179.115 335.068C178.267 334.054 178.378 332.553 179.364 331.708Z" fill="black"/>
<path d="M219.711 354.786C219.938 353.499 221.178 352.637 222.467 352.865C225.424 353.398 228.503 353.804 231.664 354.08C234.715 350.187 237.338 346.074 239.494 341.832C240.08 340.668 241.51 340.202 242.687 340.793C242.845 340.873 242.993 340.977 243.137 341.092C243.97 341.785 244.247 342.984 243.741 343.99C241.916 347.576 239.78 351.087 237.346 354.458C240.054 354.571 242.83 354.59 245.652 354.531C246.964 354.508 248.052 355.541 248.076 356.852C248.1 358.163 247.067 359.249 245.755 359.272C241.672 359.361 237.675 359.28 233.795 359.017C232.441 360.638 231.017 362.23 229.542 363.745C228.636 364.692 227.167 364.731 226.188 363.799C225.239 362.893 225.214 361.389 226.132 360.447C226.758 359.807 227.365 359.145 227.978 358.472C225.821 358.221 223.717 357.91 221.653 357.535C220.348 357.314 219.485 356.074 219.711 354.786Z" fill="black"/>
<path d="M164.016 287.614C164.61 287.603 165.168 287.811 165.581 288.163C166.09 288.583 166.427 289.217 166.44 289.935C166.553 294.488 167.414 299.575 168.998 305.063C169.715 307.528 170.509 309.944 171.365 312.208C171.825 313.429 171.207 314.799 169.986 315.257C168.765 315.715 167.393 315.097 166.922 313.871C166.023 311.479 165.182 308.948 164.435 306.36C162.74 300.484 161.818 294.987 161.695 290.033C161.683 288.727 162.716 287.641 164.016 287.614Z" fill="black"/>
<path d="M140.692 387.779C148.753 388.433 156.598 388.462 164.022 387.862C164.663 387.804 165.272 388.019 165.728 388.403C166.207 388.796 166.527 389.369 166.577 390.034C166.685 391.339 165.713 392.477 164.406 392.585C156.728 393.201 148.623 393.172 140.311 392.494C139.002 392.381 138.031 391.233 138.138 389.936C138.229 388.646 139.377 387.677 140.692 387.779Z" fill="black"/>
<path d="M523.976 360.654L520.56 364.762C519.462 366.067 518.409 367.787 516.65 368.156C515.916 368.272 514.938 367.956 514.679 367.203C512.909 362.514 511.186 357.845 509.422 353.144C509.295 352.858 509.275 352.548 509.278 352.248C509.239 352.177 509.196 352.118 509.19 352.033C509.023 351.127 509.634 350.001 510.603 349.848C513.754 349.367 516.913 349.354 520.069 349.642C521.681 349.787 523.264 350.001 524.881 350.23C525.562 350.338 526.278 350.462 526.964 350.559C527.889 350.674 528.815 350.722 529.489 351.498C530.893 353.212 528.646 355.033 527.619 356.299C526.395 357.742 525.201 359.211 523.976 360.654ZM523.467 353.688C522.123 353.492 520.765 353.331 519.427 353.22C517.412 353.056 515.358 353.082 513.318 353.237C514.571 356.613 515.858 360.003 517.116 363.367C517.541 362.848 517.972 362.344 518.396 361.825C519.293 360.737 520.213 359.659 521.105 358.583L523.955 355.167C524.324 354.747 524.669 354.317 525.038 353.897C524.483 353.815 523.97 353.763 523.467 353.688Z" fill="#59C59F"/>
<path d="M337.652 351.16C339.254 350.904 340.839 350.722 342.459 350.555C343.145 350.488 343.878 350.44 344.565 350.373C345.487 350.268 346.403 350.078 347.24 350.664C349.014 351.986 347.286 354.299 346.596 355.775C345.757 357.476 344.957 359.18 344.13 360.885L341.814 365.703C341.059 367.235 340.467 369.163 338.848 369.947C338.16 370.246 337.136 370.171 336.702 369.509C333.843 365.388 331.035 361.276 328.176 357.155C327.99 356.913 327.885 356.608 327.827 356.324C327.767 356.271 327.712 356.207 327.701 356.134C327.312 355.299 327.644 354.055 328.535 353.664C331.455 352.428 334.524 351.652 337.652 351.16ZM338.11 365.185C338.405 364.583 338.687 363.977 338.977 363.386C339.579 362.12 340.209 360.851 340.816 359.573L342.737 355.561C342.999 355.069 343.215 354.557 343.477 354.065C342.938 354.139 342.428 354.212 341.927 354.261C340.582 354.394 339.218 354.573 337.891 354.794C335.89 355.116 333.915 355.64 331.965 356.299C333.999 359.25 336.08 362.222 338.11 365.185Z" fill="#59C59F"/>
<path d="M173.704 247.498C172.334 247.072 170.688 246.489 169.313 245.39C167.628 244.05 166.635 242.208 165.957 240.594C165.354 239.19 164.811 237.551 164.762 235.777C164.725 234.009 165.234 232.018 166.654 230.534C169.589 227.47 173.819 227.552 177.108 228.923C180.368 230.268 183.411 233.137 184.097 236.686C184.845 240.479 183.137 244.375 180.156 246.667C179.526 247.155 178.709 247.661 177.706 247.895L177.689 247.902L177.672 247.909C176.132 248.246 174.624 247.79 173.704 247.498ZM177.819 243.684L177.836 243.677C179.793 242.187 180.806 239.683 180.362 237.414C179.992 235.492 178.132 233.462 175.646 232.43C173.195 231.412 170.837 231.638 169.374 233.159C168.834 233.726 168.52 234.634 168.539 235.697C168.558 236.759 168.898 237.874 169.432 239.113C170.029 240.528 170.722 241.683 171.66 242.42C172.449 243.053 173.507 243.471 174.819 243.873C175.825 244.187 176.41 244.296 176.834 244.201C177.119 244.143 177.453 243.968 177.819 243.684Z" fill="#F7C300"/>
<path d="M646.337 238.155L646.32 238.162L646.304 238.168C644.763 238.506 643.26 238.037 642.347 237.763C640.977 237.337 639.33 236.753 637.956 235.654C636.271 234.315 635.278 232.472 634.599 230.858C633.997 229.455 633.453 227.815 633.405 226.042C633.368 224.273 633.877 222.282 635.296 220.799C638.232 217.734 642.462 217.816 645.751 219.187C649.011 220.532 652.054 223.402 652.74 226.95C653.488 230.743 651.779 234.639 648.799 236.932C648.157 237.414 647.329 237.915 646.337 238.155ZM648.999 227.662C648.634 225.728 646.768 223.71 644.282 222.677C641.831 221.659 639.473 221.886 638.011 223.406C637.47 223.973 637.156 224.882 637.175 225.944C637.194 227.007 637.534 228.122 638.068 229.361C638.665 230.776 639.359 231.931 640.296 232.668C641.085 233.301 642.155 233.724 643.455 234.121C644.461 234.435 645.046 234.544 645.47 234.448C645.748 234.374 646.082 234.199 646.449 233.915L646.453 233.904L646.458 233.892C648.423 232.418 649.447 229.919 648.999 227.662Z" fill="#F7C300"/>
<path d="M505.512 211.715C505.03 211.197 504.549 210.679 504.068 210.162C502.095 208.072 500.013 205.949 497.877 203.858C497.005 202.998 496.62 201.535 497.507 200.566C497.972 200.05 498.703 199.714 499.409 199.696C499.755 199.691 500.251 199.749 500.665 200.102C500.707 200.133 500.737 200.159 500.773 200.202C505.138 204.491 509.461 209.077 513.613 213.838C513.926 214.202 514.064 214.753 513.969 215.37C513.867 216.067 513.49 216.703 513.006 217.006C511.397 218.027 510.152 216.914 509.687 216.389C508.714 215.281 507.74 214.173 506.757 213.088C506.293 212.564 505.786 212.008 505.512 211.715Z" fill="#F7C300"/>
<path d="M665.512 305.306L665.398 304.437L664.297 305.165C662.924 306.08 661.742 306.869 660.262 306.15C659.426 305.757 658.796 304.78 658.66 303.668C658.657 303.612 658.635 303.37 658.618 303.117L658.574 302.276L657.824 302.659C657.62 302.751 657.516 302.803 657.419 302.872C657.134 303.026 656.791 303.224 656.442 303.433C654.763 304.424 653.018 305.443 651.49 304.252C649.634 302.799 649.135 299.357 649.019 297.939C648.947 297.101 649.335 296.634 649.682 296.397C650.25 295.992 651.113 295.931 651.767 296.233C652.181 296.422 652.678 296.836 652.759 297.719C652.811 298.248 652.906 299.356 653.22 300.241L653.441 300.855L654.823 300.081C655.117 299.903 655.418 299.742 655.724 299.57C656.742 299.04 657.853 298.549 659.055 298.658C660.229 298.769 661.217 299.321 661.809 300.228C661.985 300.494 662.118 300.796 662.219 301.208L662.42 301.937L663.056 301.533C664.207 300.785 665.18 300.264 666.139 300.202C666.889 300.148 667.544 300.382 668.088 300.913C668.813 301.602 669.239 302.739 669.217 303.867C669.214 304.071 669.188 304.197 669.177 304.288C669.073 304.861 669.403 305.054 669.744 305.157L669.958 305.233C670.73 305.517 671.645 305.135 672.312 304.855L672.548 304.749C674.396 304.006 675.969 303.463 677.895 303.644C678.726 303.72 679.232 304.604 679.352 305.394L679.612 307.024L682.646 305.973C683.798 305.581 684.619 306.269 684.914 307.133C685.227 308.018 685.004 309.102 683.83 309.511L678.725 311.279C678.083 311.502 677.579 311.331 677.273 311.147C676.748 310.83 676.376 310.249 676.27 309.588L675.921 307.387L675.286 307.627C674.943 307.756 674.591 307.909 674.267 308.06C673.997 308.18 673.727 308.299 673.479 308.4C672.038 308.957 670.707 309.123 669.42 308.923C668.058 308.706 666.852 308.02 666.195 307.073C665.831 306.536 665.593 305.929 665.512 305.306Z" fill="#F7C300"/>
<path d="M552.277 229.743C549.374 228.658 546.471 227.573 543.585 226.482C546.532 227.202 549.42 228.418 552.277 229.743Z" fill="#F7C300"/>
<path d="M582.393 240.449C589.772 242.364 597.319 243.883 604.949 245.041C610.337 245.857 617.509 245.398 621.158 249.728C622.418 251.23 623.31 253.181 624.027 255.29C608.842 250.158 593.611 244.842 578.42 239.365C579.746 239.732 581.056 240.105 582.393 240.449Z" fill="#F7C300"/>
<path d="M598.673 274.966C598.668 275.237 598.537 275.484 598.316 275.651C598.088 275.801 597.813 275.836 597.552 275.74L596.396 275.294C591.2 273.272 585.816 271.306 581.099 269.581L579.912 269.013C579.854 268.988 579.789 268.947 579.74 268.899C579.59 268.768 579.488 268.588 579.446 268.392C579.406 268.129 579.496 267.851 579.699 267.663L586.888 261.007C589.648 258.458 592.157 256.049 594.552 253.647L595.78 252.425C595.997 252.201 596.332 252.123 596.628 252.234C596.929 252.333 597.145 252.602 597.177 252.917L597.386 254.635C598.204 261.552 598.604 267.801 598.638 273.746L598.673 274.966ZM597.019 273.749C596.988 267.861 596.587 261.68 595.773 254.819L595.771 254.79L595.745 254.82C593.328 257.24 590.803 259.656 588.033 262.229L581.719 268.075L581.742 268.085C586.394 269.769 591.785 271.751 596.993 273.779L597.016 273.789L597.019 273.749Z" fill="#F7C300"/>
<path d="M600.515 251.925C600.48 251.651 600.586 251.366 600.812 251.188C601.038 251.009 601.335 250.956 601.596 251.052L602.865 251.49C605.055 252.248 607.252 253.022 609.438 253.792C613.008 255.048 616.591 256.31 620.176 257.532L621.688 258.045C621.977 258.139 622.187 258.391 622.235 258.699C622.284 259.007 622.161 259.298 621.919 259.484L620.628 260.433C618.257 262.188 615.802 263.852 613.401 265.484C610.463 267.48 607.428 269.544 604.599 271.736L603.29 272.76C603.048 272.945 602.716 272.984 602.441 272.854C602.372 272.825 602.318 272.789 602.27 272.741C602.085 272.594 601.974 272.37 601.98 272.126L601.939 270.465C601.789 264.664 601.374 258.874 600.687 253.244L600.515 251.925ZM602.3 253.06C602.996 258.735 603.415 264.581 603.568 270.439L603.565 270.479L603.591 270.449C606.451 268.215 609.519 266.138 612.5 264.106C614.863 262.498 617.302 260.841 619.651 259.105L619.673 259.086L619.65 259.076C616.052 257.85 612.47 256.588 608.887 255.327C606.702 254.557 604.516 253.788 602.326 253.03L602.303 253.02L602.3 253.06Z" fill="#F7C300"/>
<path d="M575.005 271.028L575.816 271.315C582.165 273.563 588.317 275.92 595.126 278.539L596.259 278.975C596.515 279.083 596.704 279.286 596.76 279.542C596.828 279.804 596.756 280.075 596.571 280.285L595.765 281.191C594.372 282.741 592.974 284.303 591.588 285.869C581.414 297.268 570.894 309.068 558.667 318.602L556.609 320.2C556.324 320.423 555.934 320.436 555.637 320.229C555.614 320.22 555.596 320.198 555.577 320.177C555.32 319.973 555.218 319.629 555.311 319.311L556.047 316.814C558.42 308.733 561.898 300.926 565.246 293.365C568.275 286.56 571.39 279.517 573.677 272.359L573.94 271.538C574.005 271.319 574.158 271.151 574.35 271.054C574.565 270.966 574.79 270.951 575.005 271.028ZM575.245 272.868C572.936 280.113 569.794 287.186 566.757 294.042C563.417 301.552 559.975 309.306 557.629 317.288L557.61 317.335L557.648 317.31C569.756 307.863 580.23 296.139 590.356 284.789C591.754 283.228 593.151 281.666 594.544 280.116L594.566 280.098L594.542 280.088C587.75 277.461 581.61 275.11 575.268 272.878L575.256 272.873L575.245 272.868Z" fill="#F7C300"/>
<path d="M548.116 262.462C548.325 262.29 548.61 262.232 548.876 262.316L550.062 262.692C556.536 264.705 563.07 266.839 569.483 269.032L570.259 269.304C570.682 269.441 570.911 269.907 570.774 270.329L570.526 271.115C568.124 278.677 564.898 286.015 561.775 293.109C559.367 298.6 556.869 304.273 554.803 309.963L553.489 313.573C553.349 313.939 552.984 314.155 552.607 314.106C552.452 314.082 552.313 314.023 552.188 313.929C552.026 313.793 551.916 313.596 551.89 313.366L547.796 263.19C547.782 262.896 547.895 262.629 548.116 262.462ZM553.23 309.465L553.26 309.396C555.35 303.647 557.858 297.951 560.275 292.436C563.367 285.384 566.579 278.081 568.958 270.605L568.963 270.594L568.951 270.589C562.55 268.401 556.028 266.272 549.565 264.263L549.542 264.253L553.23 309.465Z" fill="#F7C300"/>
<path d="M601.231 282.602L601.215 282.609C599.315 284.712 597.433 286.837 595.539 288.957L595.255 289.276C587.513 297.959 579.578 306.875 570.894 314.833C569.298 315.531 567.69 316.223 566.087 316.904C576.173 308.222 585.233 298.067 594.028 288.184L594.312 287.866C596.211 285.734 598.104 283.614 600.004 281.511L600.394 281.072C600.627 280.814 600.989 280.734 601.304 280.866L601.845 281.08C608.386 283.683 614.539 286.232 620.485 288.817C619.897 289.172 619.314 289.516 618.724 289.842C613.129 287.433 607.36 285.045 601.231 282.602Z" fill="#F7C300"/>
<path d="M573.184 251.185C572.637 248.476 572.067 245.661 571.124 243.114L570.503 241.428C570.398 241.124 570.467 240.797 570.69 240.562C570.907 240.339 571.253 240.265 571.554 240.364L575.556 241.803C581.142 243.811 586.739 245.825 592.338 247.799L593.591 248.244C593.852 248.34 594.059 248.564 594.123 248.837C594.186 249.111 594.108 249.393 593.912 249.598L592.983 250.535C590.923 252.626 588.584 254.86 585.638 257.591L577.44 265.178C577.221 265.374 576.914 265.45 576.636 265.361C576.538 265.333 576.438 265.277 576.355 265.215C576.212 265.099 576.116 264.936 576.081 264.757L573.628 253.289C573.462 252.575 573.315 251.883 573.184 251.185ZM575.218 252.931L577.375 262.987L584.517 256.38C587.453 253.672 589.764 251.44 591.813 249.372L591.835 249.353L591.812 249.344C586.2 247.365 580.615 245.356 575.013 243.354L572.664 242.516L572.678 242.549C573.664 245.224 574.238 248.095 574.799 250.865C574.935 251.552 575.066 252.251 575.218 252.931Z" fill="#F7C300"/>
<path d="M568.672 246.464C569.037 247.974 569.353 249.503 569.662 251.017L572.699 265.333C572.758 265.618 572.658 265.918 572.439 266.113C572.22 266.309 571.907 266.369 571.629 266.279L570.227 265.799C565.87 264.293 561.393 262.874 557.015 261.483L552.168 259.936C552.058 259.903 551.97 259.853 551.892 259.778C551.748 259.663 551.646 259.483 551.605 259.288C551.551 258.991 551.667 258.684 551.909 258.499L553.154 257.53C558.667 253.195 562.602 249.319 565.538 245.309L566.576 243.884C566.764 243.634 567.078 243.506 567.394 243.571C567.698 243.63 567.957 243.862 568.033 244.169L568.531 246.049C568.597 246.186 568.646 246.33 568.672 246.464ZM566.969 246.501L566.901 246.239L566.87 246.281C563.841 250.415 559.805 254.4 554.173 258.821L554.152 258.84L557.559 259.932C561.902 261.308 566.385 262.743 570.754 264.254L570.777 264.263L568.048 251.365C567.734 249.863 567.425 248.35 567.067 246.857C567.047 246.739 567.019 246.645 566.969 246.501Z" fill="#F7C300"/>
<path d="M627.803 282.38C627.502 280.226 627.179 278.063 626.789 275.927C626.305 273.299 625.762 270.647 625.193 268.025C624.895 266.68 624.592 265.348 624.273 264.022L624.271 263.994L624.25 264.012C621.815 265.822 619.144 267.574 616.794 269.118C613.017 271.609 609.12 274.187 605.635 277.157L605.614 277.175L605.637 277.185C611.083 279.395 618.031 282.238 625.18 285.384C624.737 285.786 624.265 286.19 623.78 286.561C616.912 283.561 610.271 280.834 605.024 278.707L603.749 278.184C603.668 278.15 603.603 278.109 603.531 278.051C603.376 277.931 603.273 277.751 603.249 277.549C603.202 277.269 603.308 276.985 603.527 276.79L604.573 275.902C608.127 272.865 612.078 270.255 615.893 267.739C618.227 266.201 620.87 264.452 623.273 262.683L624.293 261.921C624.514 261.754 624.806 261.713 625.067 261.809C625.328 261.905 625.524 262.124 625.587 262.398L625.89 263.634C626.204 264.972 626.514 266.321 626.812 267.665C627.399 270.309 627.932 272.985 628.423 275.629C628.671 276.993 628.887 278.371 629.097 279.761C628.99 280.113 628.855 280.467 628.691 280.823C628.438 281.36 628.138 281.877 627.803 282.38Z" fill="#F7C300"/>
<path d="M510.882 256.58C510.949 256.225 511.053 255.913 511.151 255.584C509.754 251.572 509.877 248.707 513.338 245.11C517.196 241.092 522.245 237.534 527.05 234.134C522.588 238.446 518.088 242.686 513.569 246.81L513.43 246.943C513.34 247.028 513.219 247.087 513.091 247.129L512.908 247.175C511.879 247.468 511.989 248.185 512.028 248.517L512.03 248.805C512.002 249.163 512.088 249.514 512.349 249.967L513.807 254.908C517.665 268.35 521.655 282.26 529.166 294.351C530.604 296.668 532.163 299.022 533.677 301.289L533.759 301.42C538.492 308.548 543.339 315.861 545.998 324.074C544.223 323.86 542.839 322.717 542.065 320.843C537.248 309.092 530.224 298.809 523.85 288.087C520.775 282.916 517.896 277.637 515.407 272.084C513.567 267.954 509.98 261.719 510.882 256.58Z" fill="#F7C300"/>
<path d="M535.994 298.814C535.169 297.549 534.349 296.272 533.524 295.007C525.895 283.099 521.819 270.305 517.646 256.017L517.229 254.596C517.143 254.313 517.219 254.002 517.431 253.79C517.644 253.579 517.939 253.497 518.226 253.564L519.661 253.935C526.568 255.733 533.81 257.782 543.15 260.577L543.699 260.739C544.028 260.837 544.251 261.122 544.284 261.465L548.88 317.714C548.906 318.108 548.663 318.458 548.286 318.573C548.019 318.652 547.732 318.586 547.528 318.418C547.445 318.356 547.376 318.258 547.319 318.166L545.397 314.426C542.674 309.103 539.303 303.918 535.994 298.814ZM546.91 313.762L542.7 262.168L542.688 262.163C533.371 259.377 526.141 257.334 519.25 255.528L519.227 255.519L519.24 255.552C523.383 269.717 527.411 282.396 534.915 294.114C535.728 295.374 536.549 296.65 537.424 297.991C540.701 303.041 544.092 308.275 546.877 313.679L546.91 313.762Z" fill="#F7C300"/>
<path d="M549.784 255.796L548.803 256.561C548.582 256.728 548.302 256.775 548.048 256.695C547.95 256.667 547.861 256.616 547.783 256.542C547.663 256.437 547.557 256.297 547.518 256.13L540.188 230.187C540.106 229.893 540.198 229.575 540.428 229.357C540.652 229.15 540.981 229.083 541.278 229.194L542.828 229.778C550.568 232.694 557.504 235.272 564.008 237.64L564.971 237.99C565.209 238.077 565.38 238.258 565.462 238.485C565.545 238.711 565.517 238.973 565.389 239.18L564.869 240.057C560.809 246.77 554.972 251.776 549.784 255.796ZM563.425 239.188C556.91 236.815 549.973 234.238 542.221 231.317L542.186 231.302L548.748 254.511L548.769 254.492C553.834 250.571 559.538 245.687 563.427 239.216L563.432 239.205L563.425 239.188Z" fill="#F7C300"/>
<path d="M543.746 256.815C543.534 257.027 543.227 257.103 542.933 257.021L541.472 256.584C532.778 253.978 525.52 251.937 518.637 250.176L517.14 249.792C517.019 249.755 516.914 249.711 516.824 249.632C516.692 249.521 516.591 249.369 516.552 249.202C516.482 248.913 516.569 248.607 516.793 248.4L517.931 247.359C523.014 242.678 528.272 237.647 534.471 231.519L535.481 230.52C535.689 230.32 535.984 230.239 536.266 230.317C536.549 230.395 536.773 230.612 536.848 230.89L543.962 256.043C544.046 256.298 543.971 256.608 543.746 256.815ZM535.655 232.648L535.634 232.666C529.413 238.812 524.15 243.855 519.046 248.554L519.025 248.572L519.048 248.582C525.954 250.353 533.223 252.399 541.94 255.014L541.964 255.024L535.655 232.648Z" fill="#F7C300"/>
<path d="M594.536 280.071L594.559 280.081L594.538 280.099C593.145 281.65 591.747 283.211 590.349 284.773C580.224 296.123 569.756 307.863 557.641 317.293L557.603 317.318L557.623 317.272C559.968 309.289 563.422 301.54 566.75 294.025C569.787 287.169 572.929 280.097 575.238 272.852L575.243 272.84L575.255 272.845C581.603 275.093 587.743 277.445 594.536 280.071Z" fill="#F7C300"/>
<path d="M595.539 288.957C597.433 286.837 599.326 284.717 601.215 282.609L601.231 282.602C607.36 285.045 613.129 287.433 618.724 289.842C616.612 291.049 614.53 292.117 612.792 293.152C606.237 297.062 599.608 300.79 592.88 304.299C585.637 308.084 578.296 311.581 570.894 314.833C579.578 306.875 587.525 297.964 595.255 289.276L595.539 288.957Z" fill="#F7C300"/>
<path d="M568.951 270.589L568.963 270.594L568.958 270.605C566.574 278.093 563.367 285.384 560.275 292.436C557.858 297.951 555.35 303.647 553.26 309.396L553.23 309.465L549.547 264.242L549.57 264.252C556.028 266.272 562.538 268.396 568.951 270.589Z" fill="#F7C300"/>
<path d="M605.649 277.19L605.625 277.18L605.647 277.162C609.12 274.187 613.028 271.614 616.805 269.123C619.161 267.567 621.82 265.81 624.261 264.017L624.283 263.998L624.285 264.027C624.599 265.364 624.907 266.685 625.205 268.029C625.785 270.657 626.323 273.321 626.801 275.932C627.19 278.068 627.514 280.231 627.814 282.385C627.11 283.471 626.213 284.463 625.192 285.389C618.038 282.254 611.083 279.395 605.649 277.19Z" fill="#F7C300"/>
<path d="M534.91 294.126C527.406 282.407 523.367 269.724 519.235 255.563L519.222 255.53L519.245 255.54C526.136 257.345 533.366 259.389 542.683 262.174L542.695 262.179L546.905 313.774L546.867 313.703C544.094 308.304 540.698 303.081 537.414 298.014C536.549 296.65 535.724 295.385 534.91 294.126Z" fill="#F7C300"/>
<path d="M608.894 255.343C612.477 256.605 616.059 257.866 619.656 259.093L619.68 259.103L619.658 259.121C617.321 260.862 614.882 262.52 612.507 264.122C609.515 266.149 606.463 268.22 603.598 270.465L603.577 270.483L603.58 270.444C603.438 264.591 603.008 258.74 602.311 253.065L602.31 253.037L602.333 253.047C604.512 253.8 606.697 254.569 608.894 255.343Z" fill="#F7C300"/>
<path d="M519.053 248.571L519.029 248.561L519.051 248.542C524.15 243.855 529.418 238.801 535.639 232.655L535.66 232.636L541.98 255.017L541.957 255.007C533.228 252.388 525.959 250.341 519.053 248.571Z" fill="#F7C300"/>
<path d="M572.653 242.511L575.001 243.349C580.598 245.363 586.195 247.377 591.8 249.339L591.823 249.349L591.802 249.367C589.752 251.435 587.441 253.667 584.505 256.375L577.363 262.982L575.207 252.926C575.059 252.234 574.923 251.547 574.776 250.855C574.214 248.085 573.629 245.209 572.655 242.539L572.653 242.511Z" fill="#F7C300"/>
<path d="M570.794 264.257L570.77 264.247C566.401 262.736 561.913 261.313 557.575 259.925L554.168 258.833L554.189 258.815C559.822 254.393 563.857 250.408 566.887 246.274L566.918 246.232L566.986 246.494C567.023 246.633 567.064 246.732 567.088 246.838C567.442 248.343 567.756 249.845 568.07 251.346L570.794 264.257Z" fill="#F7C300"/>
<path d="M581.747 268.073L581.724 268.064L588.038 262.217C590.819 259.649 593.333 257.229 595.75 254.809L595.776 254.779L595.778 254.807C596.58 261.663 596.988 267.861 597.024 273.737L597.026 273.765L597.002 273.756C591.795 271.728 586.399 269.758 581.747 268.073Z" fill="#F7C300"/>
<path d="M563.432 239.205C559.538 245.687 553.834 250.571 548.774 254.481L548.753 254.499L542.191 231.291L542.226 231.305C549.978 234.226 556.914 236.804 563.43 239.177L563.453 239.186L563.432 239.205Z" fill="#F7C300"/>
<path d="M566.075 316.899C564.479 318.282 562.857 319.626 561.199 320.927L556.169 324.863C555.84 325.122 555.762 325.568 555.967 325.928C556.012 326.016 556.079 326.085 556.151 326.143C556.385 326.337 556.705 326.39 557.003 326.269L562.869 323.767C573.114 319.397 583.359 315.027 593.604 310.657C595.256 309.956 596.904 309.266 598.568 308.57C603.871 306.365 609.339 304.092 614.479 301.326C616.678 300.143 618.787 298.812 620.842 297.513C622.615 296.397 624.421 295.267 626.234 294.25L627.686 293.437C627.954 293.29 628.121 292.99 628.101 292.681C628.092 292.376 627.898 292.088 627.618 291.971L626.095 291.289C624.235 290.464 622.363 289.635 620.474 288.812C621.617 288.116 622.74 287.37 623.78 286.561C625.086 287.139 626.398 287.704 627.711 288.298L629.082 288.917C629.357 289.046 629.677 289.003 629.903 288.824C630.14 288.65 630.268 288.348 630.226 288.056L629.885 285.543L629.071 285.653L629.87 285.482C629.621 283.597 629.342 281.686 629.057 279.758C630.674 274.646 627.879 269.169 626.573 264.812C625.71 261.943 625.061 258.437 624.003 255.281C624.363 255.404 624.71 255.523 625.07 255.647C625.625 255.826 625.913 256.153 626.027 256.694L626.094 257.024C626.131 257.231 626.256 257.42 626.44 257.539L626.713 257.736C628.174 258.762 628.773 261.15 629.255 263.229L629.375 263.759C630.091 266.813 630.753 269.899 631.341 272.899C632.51 278.883 633.457 285.102 634.176 291.376L634.154 291.722C634.146 291.87 634.19 292.026 634.268 292.168L634.382 292.353C634.674 292.832 634.77 293.352 634.642 293.722C634.603 293.815 634.499 294.127 633.861 294.338C629.555 295.84 625.779 298.263 622.133 300.604L622.095 300.629C620.215 301.837 618.259 303.095 616.286 304.168C611.144 307.002 605.549 309.317 600.147 311.562C598.483 312.259 596.807 312.95 595.154 313.651C585.956 317.586 576.752 321.503 567.543 325.433L562.927 327.407L551.211 332.308C551.079 332.361 550.976 332.442 550.888 332.555L550.736 332.751C550.259 333.331 549.306 333.642 548.607 333.444C548.117 333.306 547.861 332.938 547.792 332.32C547.473 329.461 546.841 326.729 545.981 324.08C546.854 324.188 547.816 324.086 548.855 323.702C554.644 321.578 560.384 319.311 566.075 316.899Z" fill="black"/>
<path d="M532.457 230.247C530.751 231.529 528.917 232.824 527.05 234.134C529.85 231.423 532.643 228.696 535.383 225.932L535.522 225.799C535.601 225.709 535.668 225.614 535.712 225.509L535.774 225.33C535.952 224.843 536.266 224.455 536.64 224.284C536.964 224.133 537.344 224.142 537.78 224.312C539.708 225.041 541.652 225.764 543.58 226.493C543.517 226.48 543.447 226.451 543.372 226.433C539.007 225.403 536.218 227.434 532.457 230.247Z" fill="black"/>
<path d="M552.277 229.743C560.961 232.988 569.684 236.208 578.425 239.353C572.829 237.792 567.322 236.022 561.914 234.047C558.701 232.886 555.507 231.254 552.277 229.743Z" fill="black"/>
<path d="M533.759 301.42L533.677 301.289C532.168 299.011 530.604 296.668 529.166 294.351C521.655 282.26 517.665 268.35 513.807 254.908L512.349 249.967C512.088 249.514 512.002 249.163 512.03 248.805L512.028 248.517C511.989 248.185 511.891 247.473 512.908 247.175L513.091 247.129C513.214 247.099 513.328 247.023 513.43 246.943L513.569 246.81C518.088 242.686 522.6 238.45 527.05 234.134C528.905 232.819 530.74 231.524 532.457 230.247C536.218 227.434 539.011 225.392 543.377 226.422C543.44 226.434 543.51 226.464 543.585 226.482C546.471 227.573 549.374 228.658 552.277 229.743C555.512 231.242 558.706 232.874 561.914 234.047C567.322 236.022 572.841 237.797 578.425 239.353C593.611 244.842 608.842 250.158 624.015 255.285C625.072 258.442 625.722 261.948 626.585 264.817C627.891 269.174 630.686 274.651 629.069 279.763C628.853 278.385 628.65 277.012 628.395 275.631C627.904 272.986 627.371 270.311 626.783 267.667C626.485 266.323 626.176 264.973 625.861 263.636L625.559 262.399C625.496 262.126 625.3 261.907 625.039 261.811C624.778 261.714 624.486 261.756 624.265 261.923L623.245 262.685C620.848 264.47 618.199 266.203 615.865 267.741C612.05 270.257 608.099 272.867 604.545 275.903L603.499 276.792C603.285 276.975 603.179 277.259 603.221 277.551C603.25 277.741 603.352 277.921 603.503 278.053C603.563 278.106 603.639 278.152 603.721 278.186L604.995 278.709C610.243 280.836 616.884 283.563 623.752 286.563C622.712 287.372 621.589 288.118 620.446 288.814C614.495 286.241 608.358 283.685 601.805 281.077L601.264 280.863C600.945 280.742 600.582 280.822 600.355 281.069L599.964 281.507C598.064 283.611 596.171 285.731 594.273 287.863L593.988 288.181C585.193 298.064 576.133 308.219 566.047 316.901C560.344 319.308 554.616 321.58 548.844 323.697C547.804 324.081 546.843 324.183 545.969 324.075C543.339 315.861 538.492 308.548 533.759 301.42ZM536.276 230.294C535.994 230.216 535.699 230.297 535.491 230.497L534.481 231.496C528.277 237.636 523.019 242.667 517.941 247.336L516.803 248.377C516.579 248.584 516.492 248.889 516.562 249.179C516.601 249.346 516.701 249.498 516.833 249.608C516.923 249.687 517.04 249.736 517.15 249.769L518.647 250.153C525.525 251.925 532.776 253.95 541.481 256.56L542.943 256.997C543.237 257.08 543.544 257.004 543.756 256.792C543.969 256.58 544.056 256.275 543.974 255.98L536.861 230.827C536.776 230.572 536.552 230.355 536.276 230.294ZM565.434 238.487C565.351 238.26 565.169 238.074 564.943 237.992L563.98 237.642C557.476 235.274 550.54 232.696 542.8 229.78L541.249 229.196C540.953 229.085 540.635 229.157 540.399 229.359C540.175 229.566 540.083 229.883 540.16 230.189L547.506 256.125C547.55 256.28 547.639 256.427 547.771 256.537C547.855 256.6 547.943 256.651 548.036 256.69C548.302 256.775 548.582 256.728 548.792 256.556L549.772 255.791C554.956 251.783 560.798 246.765 564.829 240.053L565.349 239.177C565.489 238.975 565.524 238.73 565.434 238.487ZM567.41 243.564C567.106 243.504 566.78 243.627 566.593 243.877L565.554 245.302C562.607 249.307 558.679 253.2 553.17 257.523L551.926 258.492C551.683 258.677 551.568 258.985 551.621 259.281C551.662 259.476 551.758 259.64 551.908 259.772C551.992 259.834 552.08 259.885 552.185 259.929L557.032 261.477C561.41 262.868 565.881 264.298 570.243 265.792L571.645 266.272C571.923 266.362 572.236 266.302 572.456 266.107C572.675 265.911 572.774 265.611 572.716 265.326L569.678 251.01C569.358 249.492 569.042 247.962 568.688 246.457C568.662 246.323 568.613 246.179 568.564 246.035L568.067 244.155C567.973 243.856 567.714 243.623 567.41 243.564ZM597.21 252.904C597.178 252.589 596.962 252.32 596.661 252.221C596.36 252.121 596.031 252.188 595.813 252.411L594.585 253.634C592.19 256.035 589.681 258.444 586.921 260.994L579.732 267.649C579.529 267.838 579.433 268.099 579.48 268.379C579.504 268.581 579.618 268.766 579.773 268.886C579.822 268.934 579.88 268.958 579.945 268.999L581.132 269.567C585.849 271.293 591.233 273.258 596.429 275.281L597.585 275.726C597.835 275.818 598.121 275.788 598.349 275.637C598.577 275.487 598.702 275.224 598.706 274.952L598.704 273.719C598.67 267.774 598.27 261.526 597.453 254.608L597.21 252.904ZM601.922 270.472L601.964 272.133C601.974 272.37 602.085 272.594 602.253 272.748C602.302 272.795 602.372 272.825 602.425 272.861C602.7 272.99 603.043 272.957 603.274 272.766L604.582 271.742C607.399 269.545 610.446 267.487 613.384 265.491C615.785 263.859 618.241 262.195 620.611 260.44L621.919 259.484C622.161 259.298 622.289 258.996 622.235 258.699C622.182 258.403 621.973 258.151 621.688 258.045L620.176 257.532C616.591 256.31 613.008 255.048 609.438 253.792C607.252 253.022 605.055 252.248 602.865 251.49L601.596 251.052C601.335 250.956 601.026 251.004 600.812 251.188C600.586 251.366 600.48 251.651 600.515 251.926L600.682 253.256C601.358 258.881 601.784 264.676 601.922 270.472ZM573.688 272.364C571.407 279.511 568.286 286.565 565.257 293.37C561.898 300.926 558.432 308.738 556.058 316.819L555.322 319.316C555.23 319.633 555.332 319.978 555.589 320.182C555.607 320.203 555.63 320.213 555.649 320.234C555.946 320.441 556.335 320.427 556.621 320.205L558.679 318.606C570.906 309.072 581.421 297.284 591.599 285.874C592.997 284.313 594.383 282.746 595.776 281.196L596.583 280.289C596.762 280.091 596.835 279.82 596.772 279.547C596.715 279.291 596.52 279.071 596.27 278.98L595.137 278.544C588.328 275.925 582.181 273.556 575.828 271.32L575.016 271.033C574.802 270.956 574.576 270.971 574.368 271.075C574.165 271.167 574.018 271.352 573.958 271.56L573.688 272.364ZM576.348 265.198C576.432 265.261 576.52 265.311 576.63 265.344C576.907 265.433 577.225 265.362 577.433 265.162L585.632 257.575C588.578 254.844 590.917 252.61 592.976 250.519L593.905 249.581C594.101 249.376 594.179 249.094 594.116 248.821C594.053 248.548 593.857 248.328 593.584 248.227L592.332 247.782C586.732 245.808 581.135 243.795 575.55 241.786L571.548 240.348C571.252 240.237 570.917 240.315 570.683 240.545C570.466 240.769 570.38 241.103 570.497 241.412L571.117 243.097C572.056 245.656 572.631 248.459 573.177 251.168C573.32 251.872 573.462 252.575 573.61 253.267L576.063 264.736C576.109 264.919 576.205 265.083 576.348 265.198ZM552.192 313.918C552.306 314.006 552.452 314.082 552.612 314.094C552.989 314.143 553.354 313.927 553.494 313.562L554.808 309.952C556.879 304.25 559.372 298.589 561.78 293.097C564.891 285.998 568.112 278.672 570.531 271.103L570.779 270.317C570.916 269.896 570.687 269.429 570.264 269.293L569.488 269.021C563.075 266.828 556.53 264.689 550.067 262.68L548.881 262.305C548.627 262.225 548.342 262.283 548.121 262.45C547.911 262.622 547.787 262.885 547.81 263.155L551.905 313.331C551.926 313.573 552.031 313.781 552.192 313.918ZM547.54 318.423C547.743 318.591 548.019 318.652 548.297 318.578C548.67 318.474 548.918 318.113 548.892 317.719L544.291 261.482C544.269 261.144 544.03 260.865 543.705 260.756L543.157 260.593C533.816 257.798 526.575 255.75 519.667 253.951L518.233 253.58C517.95 253.502 517.639 253.59 517.438 253.807C517.237 254.024 517.155 254.318 517.236 254.612L517.652 256.034C521.826 270.321 525.901 283.116 533.531 295.024C534.339 296.296 535.164 297.56 536.001 298.83C539.31 303.934 542.681 309.119 545.415 314.447L547.337 318.187C547.383 318.275 547.456 318.361 547.54 318.423Z" fill="black"/>
<path d="M629.635 321.154C629.985 321.137 630.465 321.202 630.82 321.53C637.66 328.148 643.935 335.295 649.5 342.759C649.779 343.137 649.886 343.634 649.801 344.16C649.709 344.737 649.402 345.238 648.97 345.549C648.06 346.18 646.816 345.943 646.114 345.004C640.721 337.749 634.776 330.96 628.421 324.82C627.652 324.072 627.271 322.829 628.064 321.89C628.416 321.477 629.031 321.188 629.635 321.154Z" fill="black"/>
<path d="M651.337 266.636C661.499 264.546 671.817 261.535 681.991 257.724C682.461 257.552 682.984 257.58 683.491 257.808C683.999 258.035 684.407 258.467 684.579 258.937C684.94 259.937 684.374 261.151 683.346 261.54C673.2 265.349 662.44 268.434 651.345 270.72C650.881 270.813 650.438 270.53 650.271 270.405C649.766 270.042 649.373 269.411 649.32 268.854C649.164 267.173 650.962 266.711 651.337 266.636Z" fill="black"/>
<path d="M601.362 203.528C601.729 203.601 602.092 203.781 602.398 204.033C602.673 204.258 603.298 204.891 603.108 205.797C601.717 212.456 599.882 219.325 597.64 226.215C597.531 226.539 597.194 226.849 596.731 227.038C596.169 227.267 595.502 227.287 595.092 227.087C593.71 226.396 593.775 225.136 594.082 224.211C594.342 223.43 594.59 222.644 594.832 221.842L595.382 220.047C595.869 218.403 596.332 216.749 596.767 215.097C597.62 211.896 598.394 208.592 599.081 205.266C599.202 204.687 599.594 204.113 600.088 203.786C600.513 203.527 600.932 203.443 601.362 203.528Z" fill="black"/>
<path d="M508.309 277.546C508.549 277.496 509.244 277.734 509.61 278.038C509.987 278.348 510.303 278.933 510.324 279.339C510.338 279.632 510.325 280.38 509.913 280.837C509.58 281.203 509.2 281.454 508.312 281.642C501.843 282.972 495.194 283.652 488.579 283.634C487.673 283.636 487.27 283.452 486.947 283.179C486.57 282.87 486.254 282.285 486.233 281.879C486.203 281.264 486.479 280.545 486.919 280.086C487.215 279.773 487.556 279.615 487.913 279.614C494.737 279.625 501.611 278.93 508.309 277.546Z" fill="black"/>
<path d="M458.399 240.897C458.444 240.367 458.723 239.869 459.163 239.506C459.582 239.162 460.075 239 460.56 239.053C471.64 240.225 482.792 241.811 493.717 243.74C494.204 243.821 494.665 244.029 495.019 244.329C495.54 244.753 495.762 245.299 495.709 245.947C495.659 246.488 495.313 247.082 494.812 247.46C494.429 247.75 494.018 247.879 493.663 247.811C482.651 245.86 471.419 244.268 460.288 243.088C459.159 242.969 458.306 241.966 458.399 240.897Z" fill="black"/>
<path d="M556.777 175.598L554.369 172.654C554.006 172.213 553.92 171.766 554.088 171.303C554.3 170.735 554.902 170.249 555.518 170.152C556.034 170.068 556.477 170.254 556.846 170.711L560.911 175.681C561.2 176.036 561.299 176.42 561.224 176.827C561.128 177.348 560.741 177.842 560.201 178.149L557.879 179.431C557.715 179.527 557.59 179.693 557.568 179.876C557.53 180.065 557.587 180.253 557.716 180.403L558.243 181.009C558.526 181.347 558.842 181.671 559.151 181.98C559.43 182.261 559.649 182.49 559.844 182.71C560.983 184.011 561.669 185.313 561.949 186.732C562.236 188.168 561.991 189.598 561.302 190.582C560.924 191.121 560.421 191.567 559.846 191.859L558.915 192.343C558.724 192.441 558.596 192.647 558.575 192.858C558.562 193.085 558.655 193.288 558.833 193.418L560.101 194.349C561.801 195.585 562.752 196.355 562.597 197.865C562.507 198.731 561.803 199.653 560.834 200.163C560.763 200.201 560.527 200.307 560.278 200.408L559.359 200.802C559.16 200.882 559.014 201.067 558.982 201.273C558.945 201.49 559.021 201.701 559.178 201.849L559.903 202.537C560.097 202.729 560.206 202.829 560.326 202.934C560.603 203.188 560.968 203.492 561.357 203.807L561.818 204.179C563.668 205.711 564.58 206.834 564.099 208.303C563.284 210.794 559.526 212.718 558.399 213.244C558.009 213.422 557.654 213.45 557.33 213.341C556.971 213.217 556.666 212.898 556.469 212.486C556.397 212.332 555.804 210.973 557.166 210.342C558.073 209.915 559.114 209.395 559.936 208.714L560.543 208.216C560.688 208.099 560.778 207.918 560.777 207.726C560.776 207.533 560.696 207.363 560.546 207.231L558.992 205.906C558.717 205.681 558.453 205.46 558.2 205.217C557.255 204.367 556.337 203.419 556.007 202.184C555.685 200.995 555.876 199.856 556.521 198.977C556.703 198.739 556.954 198.502 557.3 198.265L558.037 197.753C558.21 197.634 558.305 197.441 558.309 197.237C558.312 197.033 558.21 196.853 558.048 196.717L557.327 196.181C556.1 195.253 555.192 194.446 554.781 193.534C554.494 192.879 554.486 192.246 554.777 191.587C555.181 190.662 556.124 189.854 557.243 189.476C557.432 189.418 557.554 189.388 557.627 189.377C558.237 189.264 558.943 188.89 558.907 187.738L558.907 187.478C558.907 186.273 557.974 185.264 557.364 184.596L557.156 184.372C555.635 182.677 554.428 181.211 553.871 179.114C553.708 178.524 554.297 177.841 554.925 177.489L556.646 176.529C556.81 176.434 556.93 176.279 556.968 176.09C556.947 175.944 556.906 175.748 556.777 175.598Z" fill="black"/>
<path d="M156.206 308.155C160.338 321.727 168.057 334.042 178.567 343.602C180.362 345.234 178.033 348.225 176.22 346.572C165.229 336.59 157.019 323.781 152.687 309.577C151.997 307.273 155.498 305.83 156.206 308.155Z" fill="#F7C300"/>
<path d="M386.324 328.469C397.186 331.33 407.555 335.818 417.014 341.881C419.047 343.175 417.392 346.587 415.34 345.271C406.159 339.394 396.151 334.961 385.606 332.193C383.249 331.571 383.962 327.858 386.324 328.469Z" fill="#F7C300"/>
</svg>
