<svg width="219" height="16" viewBox="0 0 219 16" fill="none" xmlns="http://www.w3.org/2000/svg">
<path d="M169.115 8.04555C171.321 5.04522 174.708 3.71572 178.059 4.11182C180.257 4.33817 182.205 5.22617 184.027 6.44499C184.561 6.78229 185.082 7.18565 185.608 7.59195C186.738 8.46566 187.886 9.35304 189.204 9.62673C190.708 10.0645 191.824 8.85044 192.931 7.64627L192.931 7.64596C193.249 7.30071 193.565 6.95628 193.89 6.65185C195.211 5.29168 196.959 4.40008 198.753 4.80721C200.103 5.08765 201.144 6.09782 202.178 7.10098C202.622 7.53214 203.065 7.962 203.531 8.33207C203.604 8.38791 203.679 8.44542 203.756 8.50427C205.156 9.57818 207.136 11.0967 208.69 11.0268C209.568 10.8707 210.569 10.2077 211.411 9.64958L211.411 9.64951L211.412 9.64939C211.744 9.42908 212.052 9.22511 212.318 9.07512L215.136 7.485C215.222 7.43343 215.307 7.38189 215.391 7.3305L215.393 7.3292C216.154 6.9952 217.822 6.61922 218.405 7.78731C219.135 9.24743 219.259 10.4972 218.405 10.9151C217.25 11.4316 216.102 12.1602 214.955 12.8887L214.954 12.8891C214.094 13.4354 213.233 13.9816 212.369 14.4385C212.32 14.4654 212.271 14.4923 212.223 14.5192L212.125 14.5729C210.607 15.4102 209.192 16.1908 207.495 15.9584C205.843 15.7075 204.027 14.651 202.484 13.5823C201.899 13.1358 201.335 12.5763 200.775 12.021L200.774 12.0208C199.985 11.239 199.205 10.4653 198.389 10.0267C197.275 9.30099 195.895 10.8492 194.844 12.0283C194.573 12.332 194.324 12.6112 194.107 12.8208C192.774 13.8563 191.3 14.7356 189.654 14.647C187.248 14.6453 185.293 13.2119 183.33 11.7734C182.389 11.0836 181.446 10.3926 180.451 9.85773C177.484 8.26222 173.682 8.37557 171.822 11.8353C171.697 13.5471 169.746 15.0646 167.985 13.5913C166.992 12.5795 165.966 11.6098 164.94 10.6401L164.938 10.639L164.938 10.6385C163.912 9.66855 162.885 8.69864 161.892 7.68663L161.465 7.21804L160.269 8.24739C159.21 9.2706 158.287 10.2877 157.365 11.3047C157.122 11.5603 156.884 11.8339 156.645 12.1082L156.644 12.1086C155.454 13.4747 154.249 14.8588 152.399 14.1296C151.583 13.7572 150.846 12.924 150.21 12.2041C150.087 12.0655 149.969 11.9312 149.854 11.8051C149.199 11.1895 148.601 10.5003 147.983 9.78784C147.666 9.42278 147.344 9.05164 147.006 8.6812C146.869 8.53039 146.716 8.34658 146.558 8.15644L146.558 8.15632C146.225 7.75569 145.868 7.32692 145.583 7.11926C145.189 6.86298 145.186 6.64046 145.117 6.61621C145.063 6.59729 144.97 6.69913 144.62 6.99994C143.95 7.49712 143.361 8.32596 142.792 9.12809C142.568 9.44301 142.348 9.75382 142.126 10.0388L141.964 10.2307C140.457 12.0114 139.158 13.5475 136.876 12.5513C132.981 10.7753 129.336 8.33762 125.817 5.56915C125.558 5.98741 125.266 6.44782 124.974 6.90822L124.974 6.90827C124.682 7.36838 124.391 7.82848 124.132 8.24648C123.934 8.58733 123.737 8.94931 123.536 9.31916L123.536 9.31931C122.949 10.3987 122.325 11.5449 121.541 12.4279C119.624 14.5851 117.457 12.8506 115.598 11.3624C115.414 11.2148 115.232 11.0697 115.055 10.931C114.423 10.4716 113.825 10.0107 113.227 9.54985C112.629 9.08895 112.031 8.62805 111.399 8.16868C111.183 8.01189 110.892 7.75192 110.56 7.45544L110.56 7.45533C109.595 6.59367 108.284 5.42363 107.475 5.58099C107.123 5.70268 106.669 6.24245 106.286 6.69903L106.286 6.69913C106.08 6.9438 105.894 7.16457 105.755 7.28428C105.493 7.62125 105.196 7.91917 104.898 8.2171L104.898 8.2172C104.601 8.51509 104.303 8.81298 104.041 9.14991C103.446 9.74576 102.886 10.3401 102.325 10.9344L102.325 10.9344C101.764 11.5287 101.203 12.123 100.608 12.7188C99.8221 13.7298 98.723 13.6166 98.0169 12.998C98.0112 12.8356 97.8745 12.8418 97.8745 12.8418C96.8893 12.0731 95.8699 11.3059 94.8506 10.5388C93.8312 9.77165 92.8119 9.00451 91.8267 8.23583C91.7257 8.18152 91.5315 8.0249 91.3117 7.84773L91.3116 7.84759L91.3115 7.84755C90.9242 7.53526 90.4578 7.15921 90.2834 7.16706C90.2834 7.16706 90.0272 7.66637 89.8906 7.67251C89.2515 7.92109 88.5058 8.69467 87.8434 9.38181L87.8433 9.3819C87.5259 9.71114 87.2276 10.0205 86.9694 10.2428C86.7139 10.4823 86.4547 10.737 86.1908 10.9963L86.1907 10.9963C84.9487 12.2165 83.601 13.5406 82.0325 13.8793C80.2672 14.2839 78.4563 13.3898 76.913 12.321C76.3757 11.9981 75.8172 11.602 75.2421 11.1943C73.1233 9.69199 70.7811 8.03123 68.4566 9.28676C67.5484 9.79064 66.6547 10.706 65.7372 11.6457C64.0773 13.3458 62.3394 15.1259 60.2966 14.6942C58.9823 14.5143 57.7848 13.4506 56.6839 12.4726L56.6839 12.4726L56.6839 12.4726C56.2871 12.1201 55.9028 11.7788 55.5302 11.494C55.2649 11.3212 54.9887 11.1197 54.7035 10.9115L54.7034 10.9115C53.4824 10.0205 52.0943 9.00756 50.6727 9.59869C49.5175 10.1152 48.3698 10.8437 47.2221 11.5723L47.222 11.5723C46.3613 12.1187 45.5006 12.6651 44.6367 13.1221C44.556 13.1664 44.4757 13.2107 44.3956 13.2549L44.3926 13.2565C42.8749 14.0937 41.4597 14.8744 39.7622 14.642C38.1108 14.3911 36.2942 13.3346 34.751 12.2658C34.1668 11.8194 33.6023 11.2599 33.0419 10.7045C32.2529 9.92265 31.4722 9.1489 30.6564 8.71024C29.5425 7.98456 28.1621 9.53281 27.1109 10.7119L27.1108 10.712C26.8401 11.0156 26.5912 11.2948 26.3743 11.5043C25.0419 12.5398 23.567 13.4191 21.9213 13.3306C19.5157 13.3288 17.5601 11.8955 15.5974 10.457L15.5974 10.457C14.6563 9.76719 13.7135 9.07622 12.7188 8.5413C9.64935 6.89077 5.68599 7.06899 3.90381 10.8889C2.63408 13.7101 -1.00482 11.4348 0.264907 8.61354C2.30331 4.29437 6.34061 2.32426 10.3268 2.79539C12.5249 3.02174 14.4724 3.90974 16.2947 5.12856C16.828 5.46587 17.3498 5.86922 17.8754 6.27553C19.0056 7.14923 20.1535 8.03661 21.4712 8.31031C22.9758 8.74807 24.0918 7.534 25.1986 6.32983L25.1986 6.32982C25.516 5.98447 25.8327 5.63994 26.1576 5.33543C27.4787 3.97525 29.2268 3.08365 31.0206 3.49078C32.3708 3.77122 33.4118 4.78139 34.4456 5.78455C34.8899 6.21571 35.3329 6.64557 35.7985 7.01564C35.8716 7.07149 35.9466 7.12901 36.0233 7.18786C37.4233 8.26177 39.403 9.78028 40.9578 9.71036C41.8356 9.55432 42.8363 8.89126 43.6787 8.33309L43.6789 8.33299C44.0114 8.11267 44.3192 7.90869 44.5851 7.75869L47.4038 6.16857C47.4898 6.11657 47.5754 6.06458 47.6608 6.01276C49.3055 5.01437 50.8471 4.07862 52.6768 4.30548C54.6073 4.70646 56.2929 5.93142 57.9785 7.15638L57.9786 7.1564C58.4 7.46264 58.7872 7.77042 59.1745 8.0782C59.5617 8.38598 59.9489 8.69376 60.3703 9C60.5138 9.11196 60.6337 9.21119 60.7365 9.29638L60.7367 9.29652C61.3399 9.79606 61.3598 9.81261 62.1527 9.08245C62.6238 8.6769 63.0865 8.25319 63.548 7.83056C65.8197 5.75019 68.0629 3.69595 71.1441 3.96282C73.4075 4.17027 75.2683 5.44133 77.1426 6.72167C78.2249 7.46099 79.3118 8.20341 80.4833 8.74593C81.4571 9.18993 82.0037 9.16535 82.8009 8.47911C83.4615 7.79903 84.2586 7.11281 85.0558 6.42659L85.0559 6.42656C85.4148 6.09011 85.7807 5.71392 86.1545 5.3295C87.299 4.15274 88.5184 2.89881 89.8447 2.47149C91.4257 1.9937 92.7732 2.99576 94.072 3.96158C94.331 4.15417 94.588 4.34531 94.8446 4.523C95.2722 4.83375 95.6907 5.13445 96.1024 5.43029L96.1041 5.43154L96.1042 5.43159C97.3147 6.30149 98.467 7.12951 99.6225 8.04786C100.548 7.11197 101.439 6.17762 102.33 5.24326L102.331 5.24261C103.222 4.30847 104.113 3.37434 105.038 2.43867C107.554 0.0491385 109.912 0.918699 112.304 2.7623C113.187 3.33784 114.019 3.9804 114.83 4.60699L114.83 4.60728C115.305 4.97411 115.772 5.33546 116.239 5.67468C116.569 5.94577 116.901 6.24476 117.236 6.54695L117.236 6.54699C118.044 7.27578 118.873 8.02323 119.758 8.44315L119.889 8.27466C120.014 7.94384 120.145 7.77535 120.276 7.60687L121.831 5.09802C122.284 4.34598 122.738 3.63452 123.192 2.92307L123.192 2.92248C123.646 2.21123 124.1 1.49995 124.553 0.74812C125.076 0.0741773 126.295 -0.305814 127.001 0.312816C129.114 2.00637 131.227 3.69992 133.465 5.06265L136.403 6.88166C136.589 6.98169 136.79 7.06301 136.99 7.14432C137.391 7.30694 137.793 7.46956 138.077 7.78195C138.478 7.76396 138.664 7.92983 138.579 8.15462L138.766 7.91357C139.338 7.29169 139.86 6.58167 140.383 5.87165C141.428 4.45161 142.473 3.03158 143.908 2.31666C146.055 1.08195 147.746 2.46926 149.312 4.1874C149.968 4.803 150.566 5.49227 151.184 6.20471L151.184 6.20567C151.501 6.5704 151.822 6.94119 152.16 7.31128C152.297 7.462 152.463 7.61146 152.634 7.76607L152.635 7.76629C152.996 8.09227 153.383 8.44117 153.584 8.87322C153.652 8.87015 153.687 8.90919 153.723 8.94824C153.759 8.98729 153.794 9.02634 153.863 9.02327C155.292 6.84524 157.547 4.79269 159.409 3.24559C161.669 1.35537 163.07 2.26795 165.052 4.12999C166.046 5.14196 167.072 6.11184 168.098 7.0817L168.099 7.08231L168.11 7.09269C168.445 7.4098 168.781 7.72693 169.115 8.04555Z" fill="#59C69F"/>
</svg>
