<svg width="195" height="13" viewBox="0 0 195 13" fill="none" xmlns="http://www.w3.org/2000/svg">
<path d="M194.242 9.31728C192.006 7.49806 189.621 5.82773 187.386 4.00851C185.155 2.33386 183.574 1.50947 180.99 3.17308C178.861 4.53461 176.281 6.3428 174.636 8.26972C174.481 8.27403 174.476 8.12945 174.321 8.13376C173.992 7.56406 173.201 7.15186 172.721 6.73105C171.601 5.74915 170.636 4.76294 169.521 3.92562C167.761 2.38263 165.856 1.13311 163.407 2.2141C160.953 3.1505 159.478 5.50686 157.514 7.15324C157.364 7.30213 157.213 7.45101 157.063 7.5999C157.519 7.29782 157.354 7.01297 156.733 7.0302C156.253 6.60938 155.473 6.48634 154.842 6.21442C153.737 5.66626 152.631 5.11809 151.526 4.56993C148.999 3.33764 146.619 1.81189 144.238 0.286136C143.443 -0.270642 142.056 0.0572899 141.454 0.652841C140.412 1.98421 139.364 3.17101 138.321 4.50238C137.725 5.24251 137.128 5.98264 136.532 6.72277C136.381 6.87166 136.231 7.02055 136.085 7.31401C135.935 7.4629 135.935 7.4629 135.935 7.4629C134.519 6.92336 133.239 5.80118 131.969 4.96817C130.543 4.13946 129.113 3.16618 127.532 2.34178C124.836 0.680066 122.169 -0.114175 119.289 1.99179C117.169 3.64248 115.205 5.28886 113.086 6.93955C111.34 5.8303 109.599 4.86563 107.699 3.76069C105.958 2.79603 104.203 1.39762 102.045 1.89167C100.042 2.38141 98.2378 4.16807 96.5695 5.37209C95.6578 5.97626 94.7461 6.58042 93.9895 7.18028C93.0778 7.78445 92.4571 7.80168 91.3563 7.3981C87.739 6.05139 84.8541 3.38192 80.8051 3.06019C76.6009 2.74277 73.7395 5.42706 70.5484 7.54164C69.4863 8.2947 69.6367 8.14581 68.5263 7.45307C67.5759 6.9006 66.7807 6.34382 65.8304 5.79135C63.9297 4.68641 62.0289 3.58147 59.842 3.20805C57.6599 2.9792 55.8268 3.89837 53.8385 4.82186C52.7667 5.28575 51.695 5.74965 50.6232 6.21354C49.5515 6.67744 47.8784 7.73688 46.4866 7.92024C44.6245 7.97193 42.2438 6.44618 40.6582 5.4772C38.9127 4.36795 37.4582 2.67177 35.2712 2.29835C33.2395 1.92061 31.2463 2.69951 29.7332 3.89923C28.0649 5.10326 26.5759 7.02587 24.3842 6.50787C22.1972 6.13444 20.4372 4.59145 18.5413 3.63109C16.4854 2.53046 14.284 1.7233 11.7915 1.50307C7.27213 1.04968 2.66999 2.7693 0.312712 6.5973C-1.15696 9.09823 2.95 11.1549 4.41968 8.65398C6.48109 5.26834 10.9812 5.14341 14.4481 6.63901C17.9151 8.1346 20.8048 10.9486 24.8442 10.9812C26.7111 11.0741 28.3939 10.3038 29.9167 9.39326C31.1291 8.49131 33.2243 6.11773 34.805 6.94213C36.3809 7.62194 37.8306 9.17354 39.4161 10.1425C41.1569 11.1072 43.2079 12.0632 45.0797 12.3007C47.1066 12.5339 48.7894 11.7636 50.6274 10.989C52.926 10.0569 55.2102 8.69104 57.5137 7.90352C59.5117 7.2692 61.4269 8.80788 63.0076 9.63227C64.5931 10.6012 66.358 12.2888 68.3849 12.522C71.9781 13.1458 74.7912 9.0157 77.7009 7.77721C81.0713 6.38122 84.4266 9.18234 87.268 10.5506C89.0087 11.5153 91.055 12.3267 93.0626 11.9816C95.2254 11.6321 97.0344 9.99002 98.7027 8.786C99.6144 8.18183 100.968 6.84184 102.044 6.52253C102.199 6.51822 102.495 6.07586 102.495 6.07586C102.806 6.06725 103.921 6.90457 104.236 7.04053C106.457 8.42601 108.833 9.80719 111.053 11.1927C111.053 11.1927 111.208 11.1884 111.213 11.3329C112.008 11.8897 113.255 11.9998 114.157 11.1065C115.52 10.0557 116.727 9.00916 118.09 7.95833C118.691 7.36278 119.453 6.9075 120.054 6.31195C120.51 6.00986 121.407 4.97196 122.023 4.81015C123.26 4.6311 125.5 6.5949 126.45 7.14737C127.876 7.97608 129.146 8.80909 130.571 9.6378C132.792 11.0233 135.503 13.1187 137.918 11.0257C139.125 9.97917 140.008 8.50753 140.901 7.32504C141.497 6.58491 142.244 5.69589 142.841 4.95576C146.807 7.45049 150.919 9.65176 155.322 11.2661C157.993 12.2049 159.497 10.716 161.306 9.07396C162.208 8.18063 163.1 6.99815 164.167 6.38967C165.079 5.78551 164.468 6.0919 165.258 6.5041C165.733 6.78033 166.378 7.486 166.858 7.90681C167.978 8.88871 168.943 9.87492 170.058 10.7122C170.858 11.4136 171.823 12.3998 172.924 12.8034C175.436 13.6019 176.925 11.6793 178.588 10.3307C179.645 9.43308 180.703 8.53545 181.915 7.63351C181.915 7.63351 182.827 7.02934 183.283 6.72726C183.443 6.86753 183.603 7.0078 183.763 7.14807C185.998 8.96729 188.384 10.6376 190.619 12.4568C193.319 14.2631 196.477 11.1365 194.242 9.31728Z" fill="#F7C300"/>
</svg>
