<svg width="61" height="64" viewBox="0 0 61 64" fill="none" xmlns="http://www.w3.org/2000/svg">
<path d="M38.3733 43.3736C38.0442 41.9473 37.0567 40.8501 36.0693 39.8627C34.9722 38.7655 33.5459 37.9975 32.0098 38.217C30.6933 38.3267 29.4864 38.985 28.6087 39.8627C27.4018 40.9599 26.6338 42.6056 26.4144 44.1416C26.1949 45.7873 26.4144 47.433 27.6212 48.7496C28.1698 49.2982 28.8281 49.7371 29.4864 50.0662C29.8155 50.2856 30.1447 50.5051 30.5835 50.6148C32.0098 51.1634 33.6556 51.6022 35.1916 51.0537C38.2636 49.9565 39.0316 46.3359 38.3733 43.3736Z" fill="#F7C300"/>
<path d="M54.5008 48.64C54.1717 46.9942 53.0745 45.5679 51.758 44.7999C52.526 38.6559 52.3065 32.4021 52.0871 26.2581C51.8677 20.2237 51.3191 14.1894 49.2345 8.4842C49.2345 8.04534 49.0151 7.71619 48.7956 7.38704C48.3568 6.28989 46.8208 6.07046 45.943 6.61904C45.3945 6.94818 45.0653 7.49676 45.0653 8.15505C43.3099 11.8854 43.5293 16.3837 43.2002 20.3334C42.7613 25.0512 42.2127 29.6592 42.2127 34.377C42.2127 34.5964 42.103 34.7061 42.103 34.9256C41.9933 37.6684 41.9933 40.4113 41.9933 43.1542C41.9933 43.3736 41.8836 43.5931 41.8836 43.8125C41.8836 45.2388 41.8836 46.6651 41.8836 47.9817V48.0914C41.7739 48.5302 41.7739 48.9691 41.8836 49.5177C41.7739 49.6274 41.6642 49.6274 41.6642 49.7371C41.335 50.0663 41.2253 50.3954 40.8961 50.6148C40.3476 51.1634 39.5796 51.3828 38.8116 51.4926C36.727 51.8217 34.423 51.712 32.3384 51.8217C30.1441 51.8217 27.9498 51.8217 25.6457 51.8217C25.0972 51.8217 24.5486 51.8217 24 51.8217C24 51.0537 23.7806 50.2857 23.5611 49.5177C23.5611 47.5428 23.5611 45.4582 23.5611 43.4833C23.5611 43.2639 23.5611 43.0445 23.4514 42.8251C23.4514 40.0822 23.4514 37.3393 23.3417 34.5964C23.3417 34.377 23.3417 34.2673 23.232 34.0478C23.232 29.3301 22.6834 24.722 22.2446 20.0043C21.9154 15.9448 22.1348 11.5562 20.4891 7.82591C20.4891 7.16761 20.16 6.61904 19.5017 6.18018C18.624 5.6316 17.1977 5.85103 16.7588 6.94818C16.5394 7.27733 16.4297 7.60647 16.4297 8.04534C14.4548 13.7505 13.9062 19.7849 13.6868 25.8192C13.4673 32.073 13.2479 38.217 14.0159 44.3611C12.6993 45.2388 11.7119 46.5554 11.3828 48.2011C11.1633 49.408 11.1633 50.6148 11.1633 51.9314C11.1633 53.1383 11.1633 54.2354 11.1633 55.4423C11.273 57.856 11.0536 61.9155 14.0159 62.0252C14.6742 62.0252 15.4422 62.0252 16.1005 62.0252C16.3199 62.1349 16.6491 62.2446 16.8685 62.2446C17.3074 62.2446 17.856 62.3544 18.2948 62.3544C18.9531 62.5738 19.6114 62.5738 20.3794 62.5738C23.0126 62.7932 25.6457 62.9029 28.2789 62.9029C30.9121 63.0127 33.5452 63.0127 36.1784 62.9029C37.3853 62.9029 38.5921 62.9029 39.9087 62.7932C40.567 62.7932 41.335 62.7932 41.9933 62.6835C42.5419 62.6835 43.3099 62.4641 43.8585 62.5738C44.1876 62.6835 44.6265 62.6835 44.9556 62.5738C45.175 62.5738 45.5042 62.5738 45.7236 62.5738C46.7111 62.6835 47.6985 62.5738 48.6859 62.5738C49.0151 62.5738 49.2345 62.4641 49.4539 62.3544C50.2219 62.3544 50.8802 62.3544 51.6482 62.3544C54.7203 62.2446 54.5008 58.0755 54.5008 55.7715C54.5008 54.5646 54.6105 53.4674 54.5008 52.2606C54.7203 51.1634 54.7203 49.8468 54.5008 48.64Z" fill="#F7C300"/>
<path d="M45.3949 31.4146C45.1755 31.1952 44.8463 31.0854 44.6269 31.0854C43.9686 31.0854 43.5298 31.5243 43.5298 32.1826C43.42 33.2798 43.42 34.3769 43.42 35.4741C43.42 36.0226 43.9686 36.5712 44.5172 36.5712C45.0658 36.5712 45.6143 36.1323 45.6143 35.4741C45.6143 34.3769 45.6143 33.2798 45.7241 32.1826C45.8338 31.9632 45.6143 31.634 45.3949 31.4146Z" fill="#1E1E1E"/>
<path d="M48.7956 51.9313C48.5761 50.9439 47.6984 50.1759 46.711 50.2856C46.4915 50.2856 46.3818 50.3953 46.1624 50.505C46.0527 50.505 45.6138 50.505 45.2847 50.505C44.8458 50.505 44.407 50.6147 44.0778 50.8342C43.2001 51.3828 43.3098 52.2605 43.3098 53.1382V58.0754C43.3098 58.5142 43.3098 59.0628 43.639 59.392C43.9681 59.7211 44.5167 59.8308 44.9555 59.9405C45.8333 60.0503 46.9304 60.2697 47.5887 59.6114C48.1373 59.0628 48.247 58.1851 48.3567 57.4171C48.4664 56.5394 48.5761 55.6616 48.6859 54.7839C48.6859 53.9062 48.9053 52.809 48.7956 51.9313ZM46.6013 53.3576C46.6013 54.1256 46.4915 54.8936 46.3818 55.6616C46.2721 56.3199 46.1624 56.9782 46.0527 57.6365C46.0527 57.6365 46.0527 57.6365 46.0527 57.7462C45.943 57.7462 45.8333 57.7462 45.8333 57.7462C45.7235 57.7462 45.6138 57.7462 45.5041 57.7462C45.5041 57.3074 45.5041 56.9782 45.5041 56.5394C45.5041 55.7714 45.5041 55.1131 45.5041 54.3451V53.1382C45.5041 52.9188 45.5041 52.809 45.5041 52.5896C45.943 52.5896 46.2721 52.5896 46.6013 52.5896C46.6013 52.6993 46.6013 52.6993 46.6013 52.809C46.6013 52.9188 46.6013 53.1382 46.6013 53.3576Z" fill="#1E1E1E"/>
<path d="M46.6013 41.8374C46.4916 41.618 46.3819 41.5083 46.2722 41.3986C46.0527 41.0694 45.6139 40.9597 45.2847 40.85C45.0653 40.7403 44.7362 40.6306 44.5167 40.7403C44.1876 40.85 43.8584 41.0694 43.5293 41.2888C43.4196 41.3986 43.3099 41.5083 43.2001 41.7277C43.0904 41.9471 42.9807 42.1666 42.9807 42.386C42.9807 42.6054 42.9807 42.8249 42.9807 43.0443C42.9807 43.2637 43.0904 43.3734 43.2001 43.5929C43.3099 43.7026 43.4196 43.922 43.5293 44.0317C43.7487 44.2512 43.9682 44.3609 44.2973 44.4706C44.407 44.4706 44.5167 44.5803 44.6264 44.5803C44.9556 44.5803 45.2847 44.69 45.5042 44.5803C45.943 44.4706 46.3819 44.1414 46.6013 43.7026C46.8207 43.3734 46.9305 42.9346 46.8207 42.6054C46.8207 42.2763 46.711 42.0569 46.6013 41.8374ZM44.9556 43.154C44.2973 43.154 44.2973 42.0569 44.9556 42.0569C45.6139 42.0569 45.6139 43.154 44.9556 43.154Z" fill="#1E1E1E"/>
<path d="M15.6614 31.4146C15.8809 31.1952 16.21 31.0854 16.4294 31.0854C17.0877 31.0854 17.5266 31.5243 17.5266 32.1826C17.6363 33.2798 17.6363 34.3769 17.6363 35.4741C17.6363 36.0226 17.0877 36.5712 16.5391 36.5712C15.9906 36.5712 15.442 36.1323 15.442 35.4741C15.442 34.3769 15.442 33.2798 15.3323 32.1826C15.3323 31.9632 15.442 31.634 15.6614 31.4146Z" fill="#1E1E1E"/>
<path d="M17.6365 51.273C17.3074 50.8342 16.7588 50.505 16.2102 50.3953C15.8811 50.3953 15.4422 50.505 15.1131 50.3953C14.6742 50.3953 14.3451 50.1759 13.9062 50.2856C13.4674 50.3953 13.0285 50.7245 12.6994 51.0536C12.3702 51.4925 12.2605 52.1508 12.2605 52.6993C12.2605 53.2479 12.3702 53.7965 12.3702 54.3451C12.3702 54.5645 12.3702 54.6742 12.3702 54.8936C12.3702 55.2228 12.3702 55.6616 12.3702 55.9908C12.3702 56.4297 12.3702 56.8685 12.4799 57.4171C12.4799 57.7462 12.4799 58.1851 12.5896 58.5142C12.5896 58.8434 12.5896 59.1725 12.8091 59.392C13.0285 59.8308 13.7965 60.0503 14.2354 60.16C14.3451 60.16 14.4548 60.16 14.5645 60.16C15.1131 60.0503 15.7714 60.0503 16.32 59.9405C16.9783 59.8308 17.6365 59.6114 17.856 58.9531C17.9657 58.624 17.9657 58.2948 17.9657 57.9657C17.9657 56.3199 17.9657 54.6742 17.9657 53.0285C17.856 52.3702 17.856 51.8216 17.6365 51.273ZM15.6617 57.5268C15.6617 57.6365 15.6617 57.6365 15.6617 57.7462C15.552 57.856 15.3325 57.8559 15.1131 57.8559C15.0034 57.8559 14.8937 57.8559 14.7839 57.8559C14.6742 57.8559 14.6742 57.856 14.6742 57.6365C14.5645 56.8685 14.5645 56.1005 14.5645 55.2228C14.5645 54.5645 14.5645 53.9062 14.5645 53.2479C14.5645 53.1382 14.5645 52.9188 14.5645 52.6993C14.5645 52.4799 14.5645 52.5896 14.7839 52.5896C14.8937 52.5896 15.7714 52.5896 15.7714 52.6993C15.6617 54.3451 15.6617 55.8811 15.6617 57.5268Z" fill="#1E1E1E"/>
<path d="M59.9868 61.696C57.4633 61.696 55.0496 61.696 52.5262 61.696C52.5262 58.8434 52.5262 55.8811 52.4164 53.0285C52.4164 51.4925 52.3067 49.9565 52.3067 48.4204C52.3067 47.2136 52.3067 45.7873 50.8804 45.3484C50.661 45.3484 50.5513 45.2387 50.3319 45.2387C50.4416 42.057 50.4416 38.9849 50.3319 35.8032C50.2221 34.3769 48.0278 34.3769 48.1376 35.8032C48.1376 36.4615 48.1376 37.1198 48.1376 37.6684C45.8335 37.6684 43.6392 37.6684 41.3352 37.8878C41.3352 34.5963 41.3352 31.4146 41.4449 28.1231C41.6644 28.3426 41.8838 28.6717 42.1032 29.0008C42.2129 29.2203 42.6518 29.33 42.8712 29.33C43.0906 29.33 43.2004 29.2203 43.4198 29.2203C43.5295 29.2203 43.5295 29.2203 43.6392 29.2203C43.8587 29.1106 44.1878 29.0008 44.2975 28.6717C44.6267 28.0134 44.8461 27.4648 45.1752 26.8065C45.1752 26.6968 45.285 26.6968 45.285 26.5871C45.3947 26.6968 45.3947 26.8065 45.5044 26.9163C45.6141 27.026 45.6141 27.2454 45.7238 27.3551C45.7238 27.3551 45.7238 27.3551 45.7238 27.4648C45.7238 27.5746 45.7238 27.5746 45.8335 27.6843C45.9432 28.0134 46.053 28.3426 46.1627 28.6717C46.2724 29.1106 46.7113 29.4397 47.1501 29.4397C47.2598 29.4397 47.4793 29.4397 47.589 29.4397C47.6987 29.4397 47.8084 29.33 47.8084 29.33C48.0278 29.2203 48.1376 29.1106 48.2473 28.8911C48.2473 28.7814 48.357 28.7814 48.357 28.6717C48.357 29.6591 48.4667 30.7563 48.357 31.7437C48.357 32.2923 48.9056 32.8409 49.4541 32.8409C50.1124 32.8409 50.5513 32.402 50.5513 31.7437C50.661 29.7689 50.5513 27.9037 50.3319 25.9288C50.3319 25.8191 50.3319 25.8191 50.3319 25.7094C50.3319 25.5997 50.3319 25.3802 50.2221 25.2705C50.3319 23.6248 50.1124 21.9791 49.893 20.3333C49.6736 18.139 49.3444 15.9447 48.9056 13.7504C48.4667 11.5561 48.0278 9.47154 47.4793 7.27724C46.9307 5.08293 46.053 2.99834 45.7238 0.80404C45.6141 0.145749 45.1752 -0.0736818 44.6267 0.0360334C44.0781 -0.0736818 43.5295 0.0360335 43.3101 0.80404C42.3226 4.53436 41.2255 8.26468 40.7866 11.995C40.2381 15.7253 40.3478 19.5653 39.4701 23.2957C39.4701 23.4054 39.3603 23.4054 39.3603 23.5151C39.1409 26.3677 39.1409 29.2203 39.0312 32.1826C33.4357 31.9632 27.6208 31.8534 21.9156 31.9632C21.9156 29.2203 21.8059 26.4774 21.5865 23.7345C21.5865 23.6248 21.5865 23.6248 21.4768 23.5151C20.7087 19.7848 20.7087 16.0545 20.1602 12.2144C19.831 8.37439 18.7339 4.64407 17.7464 0.913755C17.527 0.255464 16.9784 0.0360334 16.4299 0.145749C15.991 0.0360334 15.4424 0.255464 15.3327 0.913755C15.0036 3.10806 14.2355 5.19265 13.5773 7.38695C13.0287 9.47154 12.5898 11.6658 12.151 13.8602C11.7121 16.0545 11.383 18.2488 11.1635 20.4431C10.9441 22.0888 10.7247 23.7345 10.8344 25.3802C10.7247 25.49 10.7247 25.7094 10.7247 25.8191C10.7247 25.9288 10.7247 25.9288 10.7247 26.0385C10.5052 28.0134 10.5052 29.8786 10.5052 31.8534V31.9632C10.5052 32.9506 10.5052 34.0477 10.5052 35.0352C10.5052 35.9129 10.5052 36.7906 10.7247 37.6684C10.6149 40.1918 10.6149 42.7153 10.7247 45.3484C10.5052 45.3484 10.3955 45.3484 10.1761 45.4581C8.8595 45.7873 8.8595 47.2136 8.8595 48.4204C8.8595 49.9565 8.74979 51.4925 8.74979 53.0285C8.74979 53.2479 8.74979 53.4673 8.74979 53.5771C8.74979 54.1256 9.07893 54.5645 9.84694 54.5645C10.2858 54.5645 10.6149 54.3451 10.7247 54.0159C10.7247 54.0159 10.7247 54.0159 10.7247 53.9062C10.8344 53.7965 10.8344 53.6868 10.8344 53.5771V53.4673C10.8344 52.2605 10.8344 50.9439 10.9441 49.737C10.9441 49.1884 10.9441 48.7496 10.9441 48.201C10.9441 47.9816 10.9441 47.7621 10.9441 47.5427C11.9315 47.6524 12.919 47.5427 13.9064 47.5427C14.8938 47.5427 15.991 47.5427 16.9784 47.5427C17.527 47.5427 17.9659 47.5427 18.5144 47.5427C18.7339 47.5427 18.9533 47.5427 19.1727 47.5427C19.1727 47.9816 19.1727 48.3107 19.1727 48.6399C19.1727 49.2982 19.1727 49.8467 19.1727 50.505C19.1727 51.7119 19.1727 53.0285 19.1727 54.2353C19.1727 56.7588 19.1727 59.1725 19.2824 61.696C16.4299 61.696 13.4675 61.696 10.6149 61.696C10.6149 60.7085 10.6149 59.8308 10.6149 58.8434C10.6149 58.5142 10.5052 58.2948 10.2858 58.0754C10.1761 57.9657 10.1761 57.9657 10.0664 57.8559C10.0664 57.8559 10.0664 57.8559 9.95666 57.7462C9.84694 57.6365 9.62751 57.6365 9.51779 57.6365C9.29836 57.6365 9.18865 57.6365 9.07893 57.7462C9.07893 57.7462 9.07893 57.7462 8.96922 57.8559C8.8595 57.9657 8.74979 57.9657 8.74979 58.0754C8.64007 58.2948 8.53036 58.5142 8.53036 58.8434C8.53036 58.8434 8.53036 58.8434 8.53036 58.9531C8.53036 59.8308 8.53036 60.8183 8.53036 61.696C6.00691 61.696 3.59317 61.696 1.06972 61.696C-0.356574 61.696 -0.356574 63.8903 1.06972 63.8903C10.7247 63.8903 20.2699 64 29.9248 64C30.1443 64 30.254 64 30.4734 64C30.6928 64 30.8025 64 31.022 64C40.6769 64 50.2221 63.8903 59.8771 63.8903C61.3034 63.8903 61.3034 61.696 59.9868 61.696ZM41.6644 23.954C42.4324 20.3333 42.4324 16.603 42.8712 12.8727C43.2004 10.2395 43.8587 7.7161 44.5169 5.08293C44.7364 5.85094 44.9558 6.50923 45.1752 7.27724C45.7238 9.36183 46.1627 11.3367 46.6015 13.4213C47.0404 15.5059 47.3695 17.5905 47.589 19.6751C47.8084 21.4305 48.2473 23.5151 48.0278 25.2705C48.0278 25.3802 48.0278 25.3802 48.0278 25.49C47.8084 25.7094 47.589 25.9288 47.4793 26.258C47.0404 25.3802 46.6015 24.6122 45.9432 23.954C45.9432 23.8442 45.8335 23.7345 45.7238 23.6248C45.285 23.1859 44.6267 23.1859 44.1878 23.6248C43.8587 23.9539 43.7489 24.2831 43.6392 24.722C43.5295 25.0511 43.3101 25.3802 43.2004 25.7094C43.0906 26.0385 42.9809 26.258 42.8712 26.5871C42.5421 26.258 42.2129 25.9288 41.8838 25.5997C41.7741 25.3802 41.6644 25.3802 41.5546 25.2705C41.5546 24.8317 41.5546 24.3928 41.6644 23.954ZM13.4675 19.6751C13.687 17.5905 14.1258 15.5059 14.455 13.4213C14.8938 11.3367 15.3327 9.25211 15.8813 7.27724C16.1007 6.50923 16.3201 5.85094 16.5396 5.08293C17.1979 7.60638 17.8562 10.2395 18.1853 12.8727C18.6242 16.603 18.6242 20.3333 19.3922 23.954C19.3922 24.3928 19.3922 24.8317 19.5019 25.2705C19.3922 25.2705 19.2824 25.3802 19.1727 25.49C18.8436 25.8191 18.5144 26.1483 18.1853 26.4774C18.0756 26.1483 17.9659 25.9288 17.8562 25.5997C17.7464 25.2705 17.527 24.9414 17.4173 24.6122C17.1979 24.2831 17.0881 23.8442 16.8687 23.5151C16.4299 23.0762 15.7716 23.0762 15.3327 23.5151C15.223 23.6248 15.223 23.7345 15.1133 23.8442C14.5647 24.5025 14.0161 25.3802 13.5773 26.1483C13.3578 25.9288 13.1384 25.7094 13.0287 25.3802C13.0287 25.2705 13.0287 25.2705 13.0287 25.1608C12.8093 23.5151 13.2481 21.5402 13.4675 19.6751ZM19.6116 45.3484C19.3922 45.3484 19.1727 45.3484 18.9533 45.3484H14.455C14.0161 45.3484 13.5773 45.3484 13.1384 45.3484C13.0287 43.593 13.0287 41.8375 13.0287 40.0821C15.3327 40.0821 17.527 40.0821 19.831 40.3015C19.7213 41.9472 19.6116 43.593 19.6116 45.3484ZM13.1384 37.7781C12.919 36.2421 12.919 34.706 12.8093 33.17C12.8093 32.402 12.8093 31.634 12.8093 30.866C12.8093 30.5369 12.8093 30.098 12.8093 29.7689C12.8093 29.5494 12.919 29.0009 12.8093 28.8911C12.8093 29.0009 12.919 29.0008 12.919 29.1106C13.0287 29.33 13.1384 29.4397 13.3578 29.5494C13.4675 29.5494 13.5773 29.6591 13.5773 29.6591C13.687 29.6591 13.9064 29.6591 14.0161 29.6591C14.455 29.6591 14.8938 29.33 15.0036 28.8911C15.1133 28.562 15.223 28.2328 15.3327 27.9037C15.3327 27.794 15.3327 27.794 15.4424 27.6843C15.4424 27.6843 15.4424 27.6843 15.4424 27.5746C15.5521 27.4648 15.5521 27.2454 15.6618 27.1357C15.6618 27.026 15.7716 26.9163 15.8813 26.8065C15.8813 26.9163 15.991 26.9163 15.991 27.026C16.3201 27.6843 16.5396 28.2328 16.8687 28.8911C16.9784 29.1106 17.3076 29.33 17.527 29.4397C17.6367 29.4397 17.6367 29.4397 17.7464 29.4397C17.8562 29.5494 18.0756 29.5494 18.295 29.5494C18.5144 29.5494 18.9533 29.4397 19.063 29.2203C19.2824 28.8911 19.5019 28.6717 19.7213 28.3426C19.831 31.634 19.831 34.8158 19.831 38.1072C19.7213 37.7781 13.7967 37.7781 13.1384 37.7781ZM22.0253 34.1575C27.7305 34.1575 33.4357 34.2672 39.1409 34.4866C39.1409 34.8158 39.1409 35.1449 39.1409 35.3643C33.4357 35.474 27.7305 35.474 22.0253 35.474C21.9156 35.0352 22.0253 34.5963 22.0253 34.1575ZM39.3603 61.8057C36.398 61.8057 33.4357 61.8057 30.5831 61.8057C27.6208 61.8057 24.6585 61.8057 21.8059 61.8057L21.6962 52.041C21.8059 52.041 21.8059 52.041 21.9156 52.041C23.2322 52.1508 24.5488 52.1508 25.8654 52.1508H25.9751C27.4014 52.2605 28.8277 52.2605 30.3637 52.1508C31.3511 52.2605 32.3386 52.3702 33.326 52.041C34.2037 52.041 34.9717 52.041 35.8494 52.041C35.9592 52.041 35.9592 52.041 36.0689 52.041C37.2757 52.041 38.4826 52.1508 39.7992 52.1508L39.3603 61.8057ZM35.0814 46.4456C34.7523 47.5427 34.094 48.5302 33.4357 49.4079C33.2163 49.6273 32.9969 49.8467 32.6677 49.9565C31.8997 49.9565 31.1317 50.0662 30.3637 50.0662C28.718 49.737 27.0722 48.969 26.0848 47.5427C26.0848 47.2136 25.9751 46.9941 25.7556 46.7747C25.2071 46.1164 25.6459 44.7998 25.7556 44.0318C25.9751 42.9347 26.3042 41.9472 27.2917 41.3987C29.1568 40.1918 31.2414 39.9724 33.2163 41.1792C34.862 42.2764 35.5203 44.4707 35.0814 46.4456ZM39.4701 49.9565C39.0312 49.9565 38.4826 49.9565 38.0437 49.9565H37.934C37.166 49.8467 36.5077 49.8467 35.7397 49.8467C35.7397 49.8467 35.7397 49.737 35.8494 49.737C36.2883 49.0787 36.7272 48.3107 37.0563 47.5427C38.0438 44.7998 37.166 41.3987 34.862 39.6432C32.3386 37.6684 29.2665 37.7781 26.6334 39.2044C24.9876 40.0821 24.1099 41.5084 23.7808 43.3735C23.5613 44.4707 23.3419 45.6776 23.5613 46.665C23.4516 46.9941 23.5613 47.2136 23.6711 47.5427C24.1099 48.4204 24.6585 49.1884 25.4265 49.8467C25.0974 49.8467 24.8779 49.8467 24.5488 49.737C24.4391 49.737 24.3293 49.737 24.2196 49.8467C23.4516 49.8467 22.6836 49.737 22.0253 49.737C21.9156 49.737 21.9156 49.737 21.8059 49.737C21.8059 48.969 21.8059 48.201 21.8059 47.5427C21.9156 47.433 21.9156 47.3233 21.9156 47.1039C22.135 43.9221 22.135 40.7404 22.2448 37.5586C27.95 37.5586 33.6551 37.5586 39.3603 37.4489C39.3603 40.6307 39.47 43.8124 39.6895 46.9941C39.6895 47.1039 39.6895 47.3233 39.7992 47.433C39.4701 48.4204 39.4701 49.1884 39.4701 49.9565ZM41.3352 40.1918C43.6392 39.9724 45.8335 39.9724 48.1376 39.9724C48.1376 41.7278 48.1376 43.4833 48.0278 45.2387C47.589 45.2387 47.1501 45.2387 46.7113 45.2387H42.2129C41.9935 45.2387 41.7741 45.2387 41.5546 45.2387C41.4449 43.593 41.3352 41.9472 41.3352 40.1918ZM41.5546 61.8057C41.5546 59.2822 41.5546 56.8685 41.6644 54.3451C41.6644 53.1382 41.6644 51.8216 41.6644 50.6147C41.6644 49.9565 41.6644 49.4079 41.6644 48.7496C41.6644 48.4204 41.6644 47.9816 41.6644 47.6524C41.8838 47.6524 42.1032 47.6524 42.3226 47.6524C42.8712 47.6524 43.3101 47.6524 43.8587 47.6524C44.8461 47.6524 45.9432 47.6524 46.9307 47.6524C47.9181 47.6524 48.9056 47.7621 49.893 47.6524C49.893 47.8719 49.893 48.0913 49.893 48.3107C49.893 48.8593 49.893 49.2982 49.893 49.8467C50.0027 53.9062 50.1124 57.8559 50.1124 61.9154C47.3695 61.696 44.4072 61.8057 41.5546 61.8057Z" fill="#1E1E1E"/>
<path d="M14.2351 42.6054C14.2351 42.9346 14.3448 43.3734 14.4545 43.7026C14.674 44.1414 15.1128 44.4706 15.5517 44.5803C15.8808 44.69 16.21 44.5803 16.4294 44.5803C16.5391 44.5803 16.6488 44.5803 16.7586 44.4706C17.0877 44.3609 17.3071 44.2512 17.5266 44.0317C17.6363 43.922 17.746 43.8123 17.8557 43.5929C17.9654 43.4831 18.0751 43.2637 18.0751 43.0443C18.0751 42.8249 18.1849 42.6054 18.0751 42.386C18.0751 42.1666 17.9654 41.9471 17.8557 41.7277C17.746 41.618 17.6363 41.3986 17.5266 41.2888C17.3071 40.9597 16.978 40.85 16.5391 40.7403C16.3197 40.6306 15.9906 40.7403 15.7711 40.85C15.3323 40.9597 15.0031 41.0694 14.7837 41.3986C14.674 41.5083 14.5643 41.7277 14.4545 41.8374C14.3448 42.0569 14.2351 42.2763 14.2351 42.6054ZM16.21 42.0569C16.8683 42.0569 16.8683 43.154 16.21 43.154C15.442 43.154 15.442 42.0569 16.21 42.0569Z" fill="#1E1E1E"/>
<path d="M34.8617 29.8785C34.3131 28.7813 33.6548 27.6842 33.1062 26.587C32.7771 25.9287 32.3382 25.2704 31.6799 24.9413C31.5702 23.6247 31.5702 22.1984 31.4605 20.8818C31.4605 20.3332 31.0216 19.7847 30.3634 19.7847C29.8148 19.7847 29.2662 20.2235 29.2662 20.8818C29.3759 22.3081 29.3759 23.6247 29.4856 25.051C28.7176 25.4899 28.169 26.1481 27.7302 26.8064C27.1816 27.7939 26.633 28.7813 26.0845 29.8785C25.7553 30.427 25.9747 31.0853 26.5233 31.4145C27.0719 31.6339 27.7302 31.5242 28.0593 30.9756C28.4982 30.0979 29.0468 29.2202 29.4856 28.3425C29.5953 28.123 29.7051 28.0133 29.8148 27.7939C29.7051 27.6842 29.7051 27.5744 29.8148 27.5744C29.9245 27.4647 29.8148 27.5744 29.9245 27.4647C30.0342 27.355 30.0342 27.355 30.1439 27.2453L30.2536 27.1356C30.3633 27.1356 30.3634 27.0259 30.4731 27.0259H30.5828C30.5828 27.1356 30.6925 27.1356 30.6925 27.1356C30.9119 27.4647 31.1314 27.9036 31.3508 28.3425L32.8868 31.0853C33.1062 31.6339 33.8742 31.7436 34.4228 31.5242C34.9714 31.0853 35.0811 30.427 34.8617 29.8785Z" fill="#1E1E1E"/>
<path d="M27.5106 57.4171C27.5106 57.1977 27.6204 57.088 27.5106 56.8685C27.4009 55.8811 26.4135 55.0034 25.4261 54.784C24.7678 54.6742 23.9998 54.784 23.4512 55.2228C23.0123 55.6617 22.9026 56.2103 22.6832 56.7588C22.5735 57.3074 22.4637 57.856 22.4637 58.4046C22.4637 58.624 22.4637 58.8434 22.4637 59.1726C22.4637 59.5017 22.4637 59.8309 22.5735 60.0503C22.6832 60.4891 23.122 60.8183 23.5609 60.928C23.89 61.0377 24.2192 61.0377 24.5483 61.0377C25.2066 61.0377 25.8649 61.1474 26.4135 60.8183C27.0718 60.4891 27.2912 59.8309 27.4009 59.0629C27.5106 58.624 27.5106 58.0754 27.5106 57.4171ZM24.7678 58.8434C24.7678 58.7337 24.7678 58.7337 24.7678 58.624C24.7678 58.2948 24.7678 57.856 24.7678 57.5268C24.7678 57.5268 24.7678 57.5268 24.7678 57.4171C24.7678 57.3074 24.7678 57.1977 24.7678 57.1977C24.7678 57.088 24.8775 56.8685 24.8775 56.7588C24.8775 56.7588 24.8775 56.7588 24.9872 56.7588C24.9872 56.7588 24.9872 56.7588 25.0969 56.7588L25.2066 56.8685C25.2066 56.8685 25.2066 56.8685 25.2066 56.9783C25.2066 56.9783 25.2066 56.9783 25.2066 57.088C25.2066 57.1977 25.2066 57.1977 25.2066 57.3074C25.2066 57.7463 25.2066 58.0754 25.2066 58.5143C25.2066 58.624 25.2066 58.7337 25.2066 58.7337C25.0969 58.7337 25.0969 58.7337 24.9872 58.7337C24.9872 58.9531 24.8775 58.8434 24.7678 58.8434Z" fill="#1E1E1E"/>
<path d="M38.4822 57.3075C38.4822 57.0881 38.5919 56.9784 38.4822 56.7589C38.3725 55.7715 37.385 54.8938 36.3976 54.6743C35.7393 54.5646 34.9713 54.6743 34.4227 55.1132C33.9839 55.5521 33.8742 56.1006 33.6547 56.6492C33.545 57.1978 33.4353 57.7464 33.4353 58.2949C33.4353 58.5144 33.4353 58.7338 33.4353 59.0629C33.4353 59.3921 33.4353 59.7212 33.545 59.9407C33.6547 60.3795 34.0936 60.7087 34.5325 60.8184C34.8616 60.9281 35.1907 60.9281 35.5199 60.9281C36.1782 60.9281 36.8365 61.0378 37.3851 60.7087C38.0433 60.3795 38.2628 59.7212 38.3725 58.9532C38.5919 58.5144 38.5919 57.9658 38.4822 57.3075C38.5919 57.3075 38.4822 57.3075 38.4822 57.3075ZM35.849 58.8435C35.849 58.7338 35.849 58.7338 35.849 58.6241C35.849 58.2949 35.849 57.8561 35.849 57.5269C35.849 57.5269 35.849 57.5269 35.849 57.4172C35.849 57.3075 35.849 57.1978 35.849 57.1978C35.849 57.0881 35.9588 56.8686 35.9588 56.7589C35.9588 56.7589 35.9588 56.7589 36.0685 56.7589C36.0685 56.7589 36.0685 56.7589 36.1782 56.7589L36.2879 56.8686C36.2879 56.8686 36.2879 56.8686 36.2879 56.9784C36.2879 56.9784 36.2879 56.9784 36.2879 57.0881C36.2879 57.1978 36.2879 57.1978 36.2879 57.3075C36.2879 57.7464 36.2879 58.0755 36.2879 58.5144C36.2879 58.6241 36.2879 58.7338 36.2879 58.7338C36.1782 58.7338 36.1782 58.7338 36.0685 58.7338C35.9588 58.8435 35.9588 58.8435 35.849 58.8435Z" fill="#1E1E1E"/>
<path d="M33.1061 55.8811C32.9964 54.5645 32.7769 52.8091 31.2409 52.4799C29.7049 52.1508 28.498 53.3577 28.1689 54.784C28.0592 55.4422 27.9495 56.2103 27.9495 56.8685C27.9495 57.5268 27.9495 58.2948 27.9495 58.9531C27.9495 59.5017 27.9495 60.0503 28.2786 60.4891C28.6078 60.8183 29.0466 60.928 29.4855 60.928C30.2535 61.0377 31.1312 61.1474 31.8992 61.0377C32.4478 60.928 32.9964 60.5989 32.9964 59.9406V59.8309C33.2158 58.5143 33.2158 57.1977 33.1061 55.8811ZM30.5826 58.9531C30.4729 58.9531 30.2535 58.9531 30.1438 58.9531C30.1438 58.8434 30.1438 58.8434 30.1438 58.7337C30.1438 58.4046 30.1438 58.1851 30.1438 57.856C30.1438 57.3074 30.1438 56.6491 30.2535 56.1005C30.2535 55.9908 30.2535 55.8811 30.2535 55.6617C30.2535 55.6617 30.2535 55.6617 30.2535 55.552C30.2535 55.4422 30.2535 55.3325 30.3632 55.1131V55.0034L30.4729 54.8937C30.5826 54.784 30.6923 54.6742 30.4729 54.784L30.5826 54.6742C30.5826 54.6742 30.5826 54.784 30.6923 54.784C30.6923 54.8937 30.6923 55.0034 30.8021 55.1131C30.8021 55.2228 30.8021 55.2228 30.8021 55.1131C30.8021 55.2228 30.8021 55.2228 30.8021 55.3325C30.8021 55.6617 30.9118 55.8811 30.9118 56.2102C30.9118 56.7588 30.9118 57.3074 30.9118 57.856C30.9118 58.1851 30.9118 58.4046 30.9118 58.7337C30.9118 58.8434 30.9118 58.8434 30.9118 58.9531C30.8021 58.9531 30.6923 58.9531 30.5826 58.9531Z" fill="#1E1E1E"/>
<path d="M32.5576 42.057C31.8993 41.6181 31.0216 41.3987 30.2536 41.5084C29.2662 41.6181 28.4981 42.057 27.9496 42.825C27.8399 42.9347 27.8399 43.0444 27.8399 43.0444C27.6204 43.2639 27.5107 43.4833 27.2913 43.7027C27.0718 44.0319 26.9621 44.4707 26.8524 44.9096C26.8524 45.4582 26.9621 45.7873 27.1816 46.3359C27.401 46.8845 27.7301 47.4331 28.169 47.7622C28.8273 48.3108 29.5953 48.4205 30.473 48.4205C31.241 48.5302 32.009 48.4205 32.5576 47.9816C33.2159 47.5428 33.6548 46.7748 33.9839 46.0068C34.5325 44.4707 33.8742 42.825 32.5576 42.057ZM31.8993 45.4582C31.7896 45.5679 31.7896 45.6776 31.6799 45.7873L31.5702 45.897C31.5702 45.897 31.5702 45.897 31.5702 46.0068C31.5702 46.0068 31.4605 46.1165 31.3507 46.2262C31.3507 46.2262 31.241 46.2262 31.241 46.3359H31.1313C31.0216 46.3359 30.9119 46.3359 30.9119 46.3359C30.6925 46.3359 30.473 46.3359 30.2536 46.3359H30.1439C30.0342 46.3359 29.9244 46.2262 29.8147 46.2262C29.8147 46.2262 29.8147 46.2262 29.705 46.2262C29.705 46.2262 29.5953 46.2262 29.5953 46.1165C29.4856 46.0068 29.4856 45.897 29.3759 45.7873C29.3759 45.6776 29.2662 45.5679 29.2662 45.4582C29.2662 45.3485 29.2662 45.3485 29.1564 45.2387C29.1564 45.2387 29.1564 45.129 29.0467 45.129C29.1564 45.0193 29.1564 44.9096 29.2662 44.7999C29.2662 44.7999 29.2662 44.7999 29.2662 44.6902C29.2662 44.6902 29.2662 44.6902 29.2662 44.5805L29.3759 44.4707C29.3759 44.4707 29.3759 44.4707 29.4856 44.4707C29.4856 44.4707 29.4856 44.4707 29.5953 44.4707C29.9244 44.361 30.1439 44.1416 30.3633 43.8124C30.473 43.8124 30.473 43.8124 30.5827 43.8124H30.6924C30.8022 43.8124 30.9119 43.8124 30.9119 43.8124H31.0216C31.1313 43.8124 31.241 43.9222 31.3507 43.9222C31.3507 43.9222 31.3507 43.9222 31.4605 43.9222C31.4605 43.9222 31.5702 44.0319 31.6799 44.0319C31.6799 44.1416 31.7896 44.1416 31.7896 44.2513C31.7896 44.361 31.8993 44.4707 31.8993 44.4707C31.8993 44.4707 31.8993 44.4707 31.8993 44.5805V44.6902V44.7999C31.8993 44.9096 31.8993 44.9096 31.7896 45.0193C31.8993 45.3485 31.8993 45.4582 31.8993 45.4582Z" fill="#1E1E1E"/>
</svg>
