<svg width="64" height="42" viewBox="0 0 64 42" fill="none" xmlns="http://www.w3.org/2000/svg">
<path d="M60.1942 16.4779C59.3298 13.3086 57.2169 10.8115 55.104 8.5065C54.0476 7.354 52.8951 6.2015 51.7426 4.95296C50.6861 3.8965 50.0138 2.45588 48.5732 1.87963C47.6128 1.49546 46.5563 1.39942 45.5959 1.30338C41.4661 0.919215 37.4324 0.63109 33.3026 0.439007C29.749 0.246924 25.7153 -0.713491 22.3539 1.01526C19.9528 2.2638 18.5122 4.85692 16.9755 7.16191C15.5349 9.27483 13.9022 11.1957 12.0774 12.9244C10.3487 14.5571 9.10012 15.3254 9.10012 17.9186C9.00408 23.6811 9.58033 29.4436 9.38825 35.206C9.38825 35.8783 9.38825 36.5506 9.86846 36.9348C10.1566 37.1269 10.5407 37.2229 10.9249 37.2229C27.0599 37.7992 43.1949 38.0873 59.4259 38.0873C59.714 38.0873 60.0982 38.0873 60.2903 37.8952C60.5784 37.7031 60.6744 37.319 60.6744 37.0308C61.2507 34.3417 60.6744 31.6525 60.5784 28.8673C60.4823 25.6019 60.3863 22.4325 60.2903 19.1671C60.2903 18.3027 60.1942 17.3423 60.0021 16.4779C60.1942 16.574 60.1942 16.574 60.1942 16.4779Z" fill="#F7C300"/>
<path d="M63.0753 39.0477C61.3465 39.0477 59.6178 39.0477 57.793 39.0477C57.3128 31.5564 57.2167 24.0652 57.6969 16.67C57.6969 16.4779 57.6969 16.3819 57.6009 16.1898C57.6009 16.0937 57.6009 16.0937 57.6009 15.9977C57.3128 14.8452 56.5444 14.0769 55.6801 13.4046C54.8157 12.6362 53.9513 11.7719 53.087 10.9075C51.4543 9.08271 50.1097 7.16188 48.9572 5.04897C48.8611 4.95293 48.7651 4.76084 48.669 4.76084C48.477 4.56876 48.2849 4.37668 47.9007 4.37668C37.4322 3.70439 27.0597 3.5123 16.5912 3.70439C16.3991 3.70439 16.3031 3.70439 16.111 3.80043C15.9189 3.80043 15.6308 3.89647 15.4387 4.08855C12.3653 7.64209 9.4841 11.3877 6.89098 15.3254C6.31473 15.3254 6.0266 15.8056 6.12264 16.1898V16.2858C5.93056 23.8731 5.83453 31.5564 6.02661 39.1437C4.29786 39.1437 2.66515 39.1437 0.936405 39.1437C-0.312135 39.1437 -0.312135 41.0645 0.936405 41.0645C16.9753 40.8725 33.0143 40.7764 49.1493 40.8725C53.7592 40.8725 58.3692 40.8725 62.9792 40.9685C64.3238 41.0645 64.3238 39.1437 63.0753 39.0477ZM55.7761 16.9581C55.584 19.9354 55.584 22.8166 55.488 25.7939C51.9345 25.6979 48.2849 25.6019 44.7313 25.5058C47.7086 22.9127 50.4938 20.0314 53.279 17.2462L53.3751 17.1502C54.1434 17.1502 54.8157 17.0542 55.584 17.0542C55.584 17.0542 55.6801 17.0542 55.7761 16.9581ZM51.3582 11.8679C52.1265 12.7323 52.8949 13.5967 53.7592 14.365C54.0474 14.6531 54.4315 14.9412 54.7197 15.2294C50.3978 15.4215 45.9799 15.6135 41.658 15.7096C40.4095 13.8848 39.1609 12.06 37.7203 10.3313C36.4718 8.79459 35.1272 7.25792 33.8787 5.62522C38.3926 5.72126 42.9065 5.91334 47.4205 6.20147C48.573 8.21834 49.9176 10.0431 51.3582 11.8679ZM16.8793 5.52917C21.7774 5.43313 26.6755 5.43313 31.5736 5.52917C31.5736 5.62522 31.6697 5.72126 31.7657 5.8173C33.3024 7.64209 34.8391 9.56292 36.3757 11.3877C37.5282 12.7323 38.4886 14.1729 39.449 15.6135C29.3647 15.9017 19.3764 15.9017 9.29202 15.3254C11.597 11.964 14.0941 8.69854 16.8793 5.52917ZM8.13952 17.2462C16.207 17.8225 24.2745 17.9185 32.342 17.8225C32.1499 18.0146 32.0539 18.1106 31.8618 18.2067C31.7657 18.3027 31.7657 18.3027 31.6697 18.3987C31.6697 18.3987 31.7657 18.3987 31.6697 18.3987L31.5736 18.4948C31.3816 18.5908 31.1895 18.6869 31.0934 18.8789C30.6132 19.1671 30.2291 19.5512 29.9409 20.0314C29.6528 20.4156 29.8449 21.0879 30.3251 21.376C30.8053 21.6642 31.3816 21.4721 31.6697 20.9919C31.6697 20.9919 31.6697 20.8958 31.7657 20.8958C31.8618 20.7998 31.8618 20.7037 31.9578 20.7037L32.0539 20.6077L32.1499 20.5117L32.2459 20.4156C32.6301 20.1275 33.0143 19.9354 33.3024 19.5512C33.5905 19.2631 33.8786 18.975 34.1668 18.6869C34.2628 18.5908 34.4549 18.3987 34.5509 18.3027L34.647 18.2067C34.743 18.1106 34.8391 18.1106 34.9351 18.0146C35.0311 17.9185 35.1272 17.8225 35.2232 17.7264C36.8559 17.7264 38.4886 17.6304 40.2174 17.6304C40.3134 20.2235 40.4095 22.8167 40.5055 25.4098C29.7489 25.2177 18.8962 25.2177 8.04347 25.4098C8.04347 22.7206 8.04348 19.9354 8.13952 17.2462ZM14.8624 39.1437C12.5574 39.1437 10.3485 39.1437 8.04347 39.2397C7.94743 35.302 7.94744 31.3643 7.94744 27.4266C10.3485 27.3306 12.8455 27.3306 15.2466 27.3306C15.2466 29.2514 15.2466 31.2683 15.3426 33.1891C15.3426 34.3416 15.3426 35.3981 15.3426 36.5506C15.3426 37.415 15.2466 38.3754 15.4387 39.2397C15.2466 39.1437 15.0545 39.1437 14.8624 39.1437ZM31.3816 39.0477C26.6755 39.0477 22.0655 39.0477 17.3595 39.1437C17.1674 38.1833 17.2635 37.0308 17.2635 36.0704C17.2635 35.0139 17.2635 33.9575 17.2635 32.901C17.2635 30.9802 17.2635 29.1554 17.1674 27.2346C24.9468 27.1385 32.7261 27.2346 40.4095 27.3306C40.4095 27.9069 40.4095 28.4831 40.5055 29.0594C40.2174 29.0594 40.0253 29.2514 39.8332 29.5396C37.9124 32.9971 35.1272 36.0704 31.7657 38.2793C31.4776 38.4714 31.3816 38.7595 31.3816 39.0477ZM33.9747 39.0477C36.5678 37.1268 38.8728 34.7258 40.6016 31.9406C40.6976 34.3416 40.7936 36.6466 40.8897 39.0477C38.5847 39.0477 36.2797 39.0477 33.9747 39.0477ZM42.0422 17.5344C44.9234 17.4383 47.7086 17.3423 50.5899 17.2462C47.9007 19.9354 45.2115 22.6246 42.3303 25.1216C42.2343 22.5285 42.1382 20.0314 42.0422 17.5344ZM42.8105 39.0477L42.4263 27.4266C44.3472 27.4266 46.3641 27.5227 48.2849 27.5227C47.9007 27.8108 47.5165 28.195 47.1324 28.5791C46.7482 28.9633 46.7482 29.6356 47.1324 29.9237C47.5165 30.3079 48.0928 30.3079 48.477 29.9237C49.0532 29.3475 49.7255 28.7712 50.3978 28.195C50.4938 28.0989 50.5899 28.0989 50.5899 28.0029C50.782 27.9069 50.878 27.7148 50.974 27.5227C52.5107 27.5227 53.9513 27.6187 55.488 27.6187C55.488 29.2514 55.488 30.9802 55.584 32.6129C55.3919 32.7089 55.1999 32.805 55.0078 32.9971C54.9117 33.1891 54.7197 33.3812 54.6236 33.4773C54.6236 33.5733 54.5276 33.5733 54.5276 33.6693C54.4315 33.7654 54.4315 33.8614 54.3355 33.8614C54.0474 34.2456 53.7592 34.5337 53.4711 34.8218C52.8949 35.4941 52.3186 36.0704 51.7424 36.7427C51.3582 37.1268 51.3582 37.7031 51.7424 38.0873C52.1265 38.4714 52.7028 38.4714 53.087 38.0873C54.0474 37.1268 54.8157 36.1664 55.6801 35.11C55.7761 36.3585 55.7761 37.607 55.8722 38.8556C51.5503 39.0477 47.1324 39.0477 42.8105 39.0477Z" fill="#1E1E1E"/>
<path d="M46.1716 30.7881C44.923 30.7881 44.923 32.7089 46.1716 32.7089C47.4201 32.7089 47.4201 30.7881 46.1716 30.7881Z" fill="#1E1E1E"/>
<path d="M29.0768 31.1723C28.8848 30.9802 28.6927 30.8841 28.4045 30.8841C28.2125 30.8841 27.9243 30.9802 27.7322 31.1723C27.3481 31.6525 26.7718 32.1327 26.1956 32.5168C26.0035 32.6129 25.9075 32.805 25.7154 32.901C25.7154 31.3643 25.7154 29.9237 25.7154 28.3871C25.7154 24.6414 25.8114 20.8958 26.1956 17.1502C26.1956 16.8621 26.0995 16.67 26.0035 16.4779C26.0995 16.1898 26.0995 15.9017 25.9075 15.7096C24.5629 13.7887 22.8341 12.156 21.2014 10.4273C20.4331 9.56291 19.6648 8.69854 19.0885 7.73812C18.4162 6.68167 17.84 5.52917 17.3598 4.28063C17.1677 3.80042 16.4954 3.70438 16.0152 3.89646C15.535 4.18459 15.4389 4.76084 15.631 5.24104C16.1112 6.39354 16.5914 7.54604 17.2637 8.6025C17.936 9.65895 18.7044 10.5233 19.4727 11.4837C21.0093 13.2125 22.7381 14.7492 24.0827 16.67C24.0827 16.766 24.1787 16.766 24.1787 16.766C24.0827 16.8621 24.0827 16.9581 24.0827 17.1502C23.6985 20.8958 23.6025 24.6414 23.6025 28.3871C23.6025 31.9406 23.4104 35.5902 23.8906 39.1437C24.0827 40.3922 26.0035 40.3922 25.8114 39.1437C25.6193 37.8952 25.6193 36.6466 25.5233 35.3981C25.7154 35.302 25.9075 35.206 26.0995 35.0139C26.8679 34.0535 28.0204 33.4772 28.8847 32.5168C29.0768 32.3248 29.1729 32.1327 29.1729 31.8445C29.365 31.6525 29.2689 31.3643 29.0768 31.1723Z" fill="#1E1E1E"/>
<path d="M30.3247 28.9634C29.0762 28.9634 29.0762 30.8842 30.3247 30.8842C31.5733 30.8842 31.5733 28.9634 30.3247 28.9634Z" fill="#1E1E1E"/>
</svg>
