<svg width="64" height="38" viewBox="0 0 64 38" fill="none" xmlns="http://www.w3.org/2000/svg">
<path d="M41.109 12.6614C40.1125 12.299 39.0253 12.299 38.0287 12.299C36.8509 12.299 35.6731 12.299 34.4953 12.2084C32.3209 12.2084 30.2371 12.1178 28.0627 12.1178C26.9755 11.4836 25.2542 11.9366 25.2542 13.5674C25.3448 17.6443 25.2542 21.6307 25.1636 25.7077C25.073 27.7009 24.9824 29.6941 24.8918 31.6873C24.8012 33.2274 24.167 35.7642 26.0696 36.5796C26.5226 36.7608 26.9755 36.7608 27.5191 36.7608L27.8815 37.1232C28.8781 37.9386 30.1465 37.6668 30.6901 36.6702C31.0525 36.6702 31.4149 36.6702 31.7773 36.6702C33.7705 36.5796 35.8543 36.6702 37.8475 36.8514C38.7535 36.942 39.7501 37.2138 40.5655 36.5796C41.3809 35.9454 41.4715 35.0394 41.4715 34.0428L41.7433 28.1539C41.9245 23.6239 42.1963 19.0939 42.3774 14.564C42.468 13.4768 41.8338 12.9332 41.109 12.6614Z" fill="#F7C300"/>
<path d="M60.498 33.4086C60.5886 33.2274 60.5886 33.0462 60.5886 32.865C60.5886 28.6974 60.498 24.5298 60.4074 20.4528C60.4074 20.3622 60.4074 20.3622 60.4074 20.2716C60.4074 19.6374 60.4074 19.0032 60.4074 18.369C60.4074 17.4631 59.7732 16.7383 58.8672 16.5571C58.4142 16.4665 57.9612 16.6477 57.5988 16.8289C57.327 16.8289 57.1458 16.7383 56.874 16.7383C56.1492 16.7383 55.4244 16.6477 54.6996 16.9195C54.3372 17.0101 54.0654 17.2819 53.8842 17.5537C53.6124 17.8254 53.4312 18.1878 53.4312 18.6408C53.4312 18.7314 53.4312 18.822 53.3406 18.9126C53.1594 20.3622 53.25 21.9024 53.25 23.352C53.25 24.0768 53.25 24.8016 53.3406 25.5264C53.25 28.788 53.1594 31.959 53.0688 35.2205C53.0688 36.2171 53.9748 36.9419 54.8808 37.0325C56.1492 37.1231 57.8706 37.5761 59.0484 37.0325C60.4074 36.3983 60.6792 35.0393 60.5886 33.6803C60.498 33.5897 60.498 33.4991 60.498 33.4086Z" fill="#F7C300"/>
<path d="M14.2011 33.4086C14.2917 33.2274 14.2917 33.0462 14.2917 32.865C14.2917 28.6974 14.2011 24.5298 14.1105 20.4528C14.1105 20.3622 14.1105 20.3622 14.1105 20.2716C14.1105 19.6374 14.1105 19.0032 14.1105 18.369C14.1105 17.4631 13.4763 16.7383 12.5703 16.5571C12.1173 16.4665 11.6643 16.6477 11.3019 16.8289C11.0301 16.8289 10.8489 16.7383 10.5771 16.7383C9.85229 16.7383 9.1275 16.6477 8.4027 16.9195C8.04031 17.0101 7.76851 17.2819 7.58731 17.5537C7.31551 17.8254 7.13431 18.1878 7.13431 18.6408C7.13431 18.7314 7.13431 18.822 7.04371 18.9126C6.86251 20.3622 6.95311 21.9024 6.95311 23.352C6.95311 24.0768 6.95311 24.8016 7.04371 25.5264C6.95311 28.788 6.86251 31.959 6.77191 35.2205C6.77191 36.2171 7.67791 36.9419 8.5839 37.0325C9.85229 37.1231 11.5737 37.5761 12.7515 37.0325C14.1105 36.3983 14.3823 35.0393 14.2917 33.6803C14.2011 33.5897 14.2011 33.4991 14.2011 33.4086Z" fill="#F7C300"/>
<path d="M40.2029 0.702172C40.1123 0.702172 40.0217 0.611572 39.8405 0.611572C37.6661 0.611572 35.5823 0.611572 33.4079 0.611572C32.6831 0.611572 32.5019 1.42697 32.7737 1.97056C32.7737 2.06116 32.7737 2.24236 32.7737 2.33296C32.6831 2.60476 32.5925 2.78596 32.5925 3.14836C32.5925 3.42015 32.6831 3.60135 32.7737 3.87315C32.7737 3.96375 32.7737 4.14495 32.7737 4.23555V4.14495V4.23555C32.7737 4.32615 32.7737 4.32615 32.7737 4.41675C32.7737 4.59795 32.6831 4.68855 32.6831 4.86974C32.5925 5.32274 32.8643 5.86634 33.2267 5.95694C33.3173 5.95694 33.3173 5.95694 33.4079 5.95694C33.4985 5.95694 33.4985 5.95694 33.5891 5.95694C35.5823 5.86634 37.5755 5.95694 39.5687 6.04754C39.7499 6.04754 39.8405 5.95694 39.9311 5.95694C40.2029 5.86634 40.4747 5.50394 40.4747 5.14154C40.4747 4.59795 40.5653 3.96375 40.5653 3.42015C40.5653 3.32956 40.5653 3.14836 40.5653 3.05776C40.5653 3.05776 40.5653 3.05776 40.5653 2.96716C40.5653 2.87656 40.5653 2.87656 40.5653 2.78596C40.5653 2.51416 40.6559 2.24236 40.6559 1.87996C40.8371 1.33637 40.6559 0.792771 40.2029 0.702172Z" fill="#F7C300"/>
<path d="M43.0124 22.446C41.8346 22.446 41.8346 24.258 43.0124 24.258C44.0996 24.258 44.0996 22.446 43.0124 22.446Z" fill="#1E1E1E"/>
<path d="M46.1829 22.2649C45.0051 22.2649 45.0051 24.0769 46.1829 24.0769C47.3607 24.0769 47.3607 22.2649 46.1829 22.2649Z" fill="#1E1E1E"/>
<path d="M49.354 22.446C48.1763 22.446 48.1763 24.258 49.354 24.258C50.5318 24.258 50.5318 22.446 49.354 22.446Z" fill="#1E1E1E"/>
<path d="M56.8735 20.7245C56.6923 20.3621 56.4205 20.0903 56.1487 19.9091C55.6051 19.6373 54.8803 19.6373 54.4273 20.0903C54.4273 20.0903 54.4273 20.0903 54.3367 20.1809C53.9743 20.3621 53.7025 20.6339 53.6119 20.9057C53.4307 21.3587 53.3401 21.8117 53.4307 22.2647C53.5213 22.6271 53.7025 22.9895 53.9743 23.1707C54.1555 23.3519 54.3367 23.4425 54.6085 23.5331C54.7897 23.6237 55.0615 23.6237 55.2427 23.6237C55.5145 23.6237 55.7863 23.6237 56.0581 23.4425C56.3299 23.3519 56.4205 23.0801 56.6017 22.8989C56.7829 22.6271 56.9641 22.3553 56.9641 21.9929C56.9641 21.8117 57.0547 21.6305 57.0547 21.4493C57.0547 21.1775 56.9641 20.9963 56.8735 20.7245ZM55.8769 21.9929C55.8769 22.0835 55.7863 22.1741 55.6957 22.2647L55.6051 22.3553C55.6051 22.3553 55.5145 22.3553 55.5145 22.4459C55.4239 22.4459 55.3333 22.4459 55.2427 22.4459C55.1521 22.4459 55.1521 22.4459 55.1521 22.3553C55.0615 22.2647 54.9709 22.2647 54.9709 22.1741C54.9709 22.0835 54.8803 21.9929 54.8803 21.9929C54.8803 21.9023 54.8803 21.8117 54.8803 21.7211C54.8803 21.6305 54.8803 21.5399 54.8803 21.4493C54.8803 21.3587 54.8803 21.3587 54.9709 21.2681L55.0615 21.1775C55.1521 21.0869 55.2427 21.0869 55.3333 21.0869C55.4239 21.0869 55.4239 21.0869 55.5145 21.0869H55.6051C55.6957 21.0869 55.7863 21.1775 55.8769 21.2681C55.9675 21.2681 55.9675 21.3587 55.9675 21.4493C55.9675 21.5399 55.9675 21.5399 56.0581 21.6305C56.0581 21.7211 56.0581 21.8117 56.0581 21.8117V21.9023C55.8769 21.8117 55.8769 21.9023 55.8769 21.9929Z" fill="#1E1E1E"/>
<path d="M57.2355 25.7982C57.2355 25.0734 56.8731 24.5298 56.1483 24.4392C55.6953 24.4392 55.2423 24.4392 54.7894 24.4392C54.6082 24.4392 54.5176 24.5298 54.3364 24.5298C53.8834 24.5298 53.4304 24.9828 53.4304 25.4358C53.4304 27.429 53.4304 29.4222 53.521 31.506C53.521 31.8684 53.7928 32.3214 54.1552 32.412C54.6988 32.5026 55.1517 32.5026 55.6953 32.5026C56.3295 32.412 56.9637 32.3214 57.0543 31.5966C57.1449 31.1436 57.1449 30.6 57.2355 30.0564C57.2355 29.6034 57.3261 29.0598 57.3261 28.6068C57.3261 27.7008 57.3261 26.7042 57.2355 25.7982ZM55.8765 26.523C55.6047 27.882 55.8765 29.241 55.8765 30.6C55.8765 31.1436 54.9705 31.1436 54.9705 30.6C54.9705 29.1504 54.7894 27.7008 55.0612 26.2512C55.0612 25.9794 55.4235 25.8888 55.6047 25.9794C55.7859 25.9794 55.8765 26.2512 55.8765 26.523Z" fill="#1E1E1E"/>
<path d="M33.0461 23.0803C33.0461 22.6273 32.5931 22.1743 32.1401 22.1743C31.5966 22.1743 31.2342 22.5367 31.2342 23.0803C31.1436 24.0769 31.1436 25.0735 31.1436 26.0701C31.1436 26.5231 31.506 26.9761 32.0495 26.9761C32.5025 26.9761 32.9555 26.6137 32.9555 26.0701C32.9555 25.0735 32.9555 24.0769 33.0461 23.0803Z" fill="#1E1E1E"/>
<path d="M32.8655 31.9588C32.8655 31.7776 32.5937 31.5058 32.4125 31.4152C32.2313 31.3246 31.9595 31.234 31.6877 31.3246C31.5065 31.4152 31.2347 31.5058 31.1441 31.7776C31.1441 31.8682 31.0535 31.9588 31.0535 31.9588C31.0535 32.14 31.0535 32.3212 31.0535 32.4118C31.0535 32.5024 31.0535 32.6836 31.1441 32.7742C31.2347 33.3178 31.2347 33.952 31.3253 34.4956C31.3253 34.7674 31.4159 34.9486 31.5971 35.1298C31.7783 35.311 32.0501 35.4016 32.2313 35.4016C32.5031 35.4016 32.6843 35.311 32.8655 35.1298C33.0467 34.9486 33.1372 34.7674 33.1372 34.4956C33.0466 33.6802 32.9561 32.7742 32.8655 31.9588Z" fill="#1E1E1E"/>
<path d="M36.1268 19.2749C36.1268 19.3655 36.2175 19.4561 36.3081 19.5467C36.3987 19.6373 36.4892 19.7279 36.5798 19.8185C36.6704 19.9091 36.7611 19.9091 36.9422 19.9091C37.0328 19.9091 37.214 19.9091 37.3046 19.9091C37.4858 19.8185 37.7576 19.7279 37.8482 19.5467C37.8482 19.4561 37.9388 19.3655 37.9388 19.3655C38.0294 19.1843 38.0294 19.0937 37.9388 18.9126C37.9388 18.6408 37.9388 18.369 37.9388 18.0972C37.9388 18.0066 37.9388 17.8254 37.8482 17.7348C37.8482 17.6442 37.7576 17.5536 37.667 17.463C37.5764 17.3724 37.4858 17.2818 37.3952 17.2818C37.3046 17.1912 37.214 17.1912 37.0328 17.1912C36.761 17.1912 36.5798 17.2818 36.3986 17.463C36.308 17.5536 36.3081 17.5536 36.2175 17.6442C36.1269 17.8254 36.1269 17.916 36.0363 18.0972C36.0363 18.369 36.0362 18.822 36.1268 19.2749Z" fill="#1E1E1E"/>
<path d="M63.2157 35.7641C62.1286 35.7641 61.0414 35.7641 59.8636 35.7641C59.8636 29.7846 59.773 23.805 59.5012 17.8254C59.5012 17.7348 59.5918 17.6442 59.5918 17.463C59.5918 16.9194 59.1388 16.557 58.6858 16.557C56.5114 16.4664 54.2464 16.3758 52.072 16.2852C51.8002 16.2852 51.619 16.3758 51.4378 16.557C51.0754 16.6476 50.8036 16.9194 50.8036 17.3724V19.0032C47.4515 19.1844 44.0993 19.1844 40.8377 19.0032C40.9283 16.7382 41.0189 14.3827 41.1095 12.1177C41.1095 11.4835 40.6565 11.2117 40.2035 11.2117C40.1129 11.2117 40.0223 11.1211 39.9317 11.1211C37.5761 10.9399 35.3111 10.7587 32.9555 10.6681C32.9555 10.5775 32.9555 10.3963 32.9555 10.3057C32.9555 8.94669 33.0461 7.4971 33.0461 6.13811C34.8581 6.13811 36.6701 6.13811 38.4821 6.13811C38.8445 6.13811 39.2069 5.86631 39.2975 5.50391C39.3881 5.41331 39.3881 5.23212 39.3881 5.14152C39.3881 3.78253 39.4787 2.42353 39.3881 1.06454C39.3881 0.611546 39.0257 0.249148 38.5727 0.158548C38.4821 0.067949 38.3009 0.0679496 38.2103 0.0679496C36.1265 -0.0226499 34.0427 -0.0226499 31.9589 0.0679496C31.5059 0.0679496 31.053 0.520947 31.053 0.973944C31.053 1.06454 31.053 1.06454 31.053 1.15514C30.9624 4.23552 31.0529 7.3159 31.1435 10.3963C31.1435 10.4869 31.1435 10.6681 31.1435 10.7587C28.788 10.8493 26.523 11.0305 24.1674 11.2117C24.0768 11.2117 23.9862 11.2117 23.8956 11.3023C23.4426 11.3023 22.9896 11.5741 22.9896 12.2083C23.0802 14.4733 23.1708 16.8288 23.2614 19.0938C19.9092 19.1844 16.557 19.1844 13.2955 19.0938V17.463C13.2955 17.01 13.0237 16.7382 12.6613 16.6476C12.4801 16.4664 12.2989 16.3758 12.0271 16.3758C9.85269 16.4664 7.5877 16.557 5.41332 16.6476C4.96032 16.6476 4.50732 17.01 4.50732 17.5536C4.50732 17.6442 4.50732 17.8254 4.59792 17.916C4.41672 23.8956 4.32612 29.8752 4.23552 35.8547C3.14833 35.8547 2.06114 35.8547 0.883344 35.8547C-0.294448 35.8547 -0.294448 37.6667 0.883344 37.6667C5.50391 37.6667 10.2151 37.6667 14.8357 37.7573C16.1946 37.7573 17.6442 37.7573 19.0032 37.7573C19.0938 37.8479 19.275 37.8479 19.4562 37.8479C19.6374 37.8479 19.728 37.7573 19.9092 37.7573C23.5332 37.7573 27.0666 37.8479 30.6906 37.8479C31.6871 37.8479 32.6837 37.8479 33.6803 37.8479H33.7709C37.1231 37.8479 40.5659 37.7573 43.9181 37.7573C44.0087 37.8479 44.1899 37.8479 44.3711 37.8479C44.5523 37.8479 44.6429 37.7573 44.8241 37.7573C46.1831 37.7573 47.6326 37.7573 48.9916 37.7573C53.6122 37.7573 58.3234 37.7573 62.9439 37.6667C64.3029 37.5761 64.3029 35.7641 63.2157 35.7641ZM11.5741 35.7641C9.76209 35.7641 8.0407 35.7641 6.22871 35.7641C6.22871 29.9658 6.31931 24.1674 6.59111 18.369C8.3125 18.2784 9.94329 18.1878 11.6647 18.1878C11.5741 23.9862 11.5741 29.8752 11.5741 35.7641ZM13.3861 20.8152C16.7382 20.9964 20.0904 20.9964 23.4426 20.8152C23.4426 22.3554 23.4426 23.805 23.5332 25.3452C20.181 25.2546 16.8288 25.164 13.4767 24.9828L13.3861 20.8152ZM17.2818 35.7641C17.1006 34.4051 16.9194 33.0461 16.8288 31.6871C16.8288 31.3247 16.6476 30.5094 16.8288 30.3282C17.01 30.147 17.6442 30.147 18.0066 30.2376C18.0972 30.2376 18.369 30.3282 18.4596 30.3282C18.5502 30.4188 18.6408 30.5094 18.6408 30.7812C18.7314 31.2341 18.6408 31.9589 18.6408 32.4119C18.6408 33.4991 18.6408 34.6769 18.7314 35.7641C18.1878 35.8547 17.7348 35.8547 17.2818 35.7641ZM23.4426 35.8547C22.446 35.8547 21.54 35.8547 20.5434 35.8547C20.4528 34.6769 20.4528 33.4991 20.4528 32.2307C20.4528 30.9623 20.634 29.6034 19.4562 28.8786C18.5502 28.2444 17.01 28.2444 16.104 28.788C14.8357 29.4222 15.0169 30.9623 15.1075 32.1401C15.198 33.4085 15.3792 34.5863 15.5604 35.8547C14.8357 35.8547 14.2015 35.8547 13.4767 35.8547C13.4767 32.8649 13.4767 29.8752 13.4767 26.8854C16.8288 27.0666 20.181 27.1572 23.6238 27.2478C23.5332 30.0564 23.4426 32.9555 23.4426 35.8547ZM37.7573 1.97054C37.7573 2.78593 37.7573 3.60133 37.7573 4.41672C36.2171 4.41672 34.6769 4.41672 33.1367 4.41672C33.1367 3.60133 33.1367 2.78593 33.1367 1.97054C34.6769 1.87994 36.2171 1.87994 37.7573 1.97054ZM34.8581 35.8547C34.2239 35.8547 33.4991 35.8547 32.8649 35.8547C32.3213 35.8547 31.7777 35.8547 31.2341 35.8547C30.6 35.8547 29.8752 35.8547 29.241 35.8547C29.0598 33.6803 28.9692 31.5059 28.9692 29.4222C29.8752 29.3316 30.8717 29.3316 31.7777 29.4222C31.8683 29.4222 31.9589 29.4222 31.9589 29.4222C32.0495 29.4222 32.1401 29.4222 32.1401 29.4222C33.0461 29.3316 34.0427 29.3316 34.9487 29.4222C35.1299 31.5965 35.0393 33.6803 34.8581 35.8547ZM32.1401 27.6102C31.1435 27.5196 30.0564 27.5196 29.0598 27.6102C29.0598 27.2478 29.0598 26.976 29.0598 26.6136C29.0598 24.4392 29.241 20.634 32.1401 20.3622C34.9487 20.634 35.1299 24.5298 35.2205 26.6136C35.2205 26.976 35.2205 27.2478 35.2205 27.6102C34.1333 27.5196 33.1367 27.5196 32.1401 27.6102ZM39.0257 35.8547C38.2103 35.8547 37.4855 35.8547 36.7607 35.8547C37.0325 32.2307 37.2137 28.4256 36.9419 24.8016C36.7607 22.1742 35.4923 19.1844 32.7743 18.6408C32.6837 18.5502 32.5025 18.5502 32.3213 18.5502C32.2307 18.5502 32.2307 18.5502 32.1401 18.5502C32.0495 18.5502 32.0495 18.5502 31.9589 18.5502C31.7777 18.5502 31.6871 18.5502 31.5059 18.6408C28.6974 19.1844 27.5196 22.1742 27.3384 24.8016C27.0666 28.4256 27.2478 32.2307 27.5196 35.8547C26.7948 35.8547 25.9794 35.8547 25.2546 35.8547C25.4358 28.2444 25.3452 20.634 24.9828 13.0237C25.8888 12.9331 26.7042 12.9331 27.6102 12.8425C27.6102 13.1143 27.7008 13.3861 27.7008 13.7485C27.7008 13.9297 27.7914 14.0203 27.9726 14.1109C28.0632 14.2015 28.0632 14.2015 28.1538 14.2921C28.335 14.3827 28.6068 14.4733 28.8786 14.3827C29.0598 14.2921 29.3316 14.1109 29.4222 13.9297C29.5128 13.8391 29.5128 13.7485 29.5128 13.5673C29.5128 13.4767 29.5128 13.2955 29.5128 13.2049C29.5128 13.2955 29.5128 13.2955 29.5128 13.3861C29.5128 13.2049 29.5128 12.9331 29.5128 12.7519C30.0564 12.7519 30.6 12.6613 31.1435 12.6613C31.1435 12.7519 31.1435 12.8425 31.1435 12.8425C31.1435 13.1143 31.1435 13.2955 31.2341 13.5673C31.2341 13.6579 31.3247 13.8391 31.4153 13.9297C31.4153 13.9297 31.4153 14.0203 31.5059 14.0203C31.5965 14.2015 31.7777 14.2921 31.9589 14.3827C32.0495 14.3827 32.0495 14.3827 32.1401 14.3827H32.2307H32.3213C32.4119 14.3827 32.4119 14.3827 32.5025 14.3827C32.6837 14.3827 32.8649 14.2015 32.9555 14.0203C32.9555 14.0203 32.9555 13.9297 33.0461 13.9297C33.1367 13.8391 33.1367 13.6579 33.2273 13.5673C33.3179 13.2955 33.3179 13.1143 33.3179 12.8425C33.3179 12.7519 33.3179 12.6613 33.3179 12.6613C33.8615 12.6613 34.4051 12.7519 34.9487 12.7519C34.9487 12.9331 34.9487 13.2049 34.9487 13.3861C34.9487 13.2955 34.9487 13.2955 34.9487 13.2049C34.9487 13.2955 34.9487 13.4767 34.9487 13.5673C34.9487 13.6579 34.9487 13.8391 35.0393 13.9297C35.1299 14.1109 35.4017 14.2921 35.5829 14.3827C35.8547 14.4733 36.0359 14.3827 36.3077 14.2921C36.3983 14.2015 36.3983 14.2015 36.4889 14.1109C36.5795 14.0203 36.6701 13.8391 36.7607 13.7485C36.7607 13.4767 36.8513 13.2049 36.8513 12.8425C37.7573 12.9331 38.5727 12.9331 39.4787 13.0237C38.9351 20.634 38.8445 28.2444 39.0257 35.8547ZM40.8377 20.8152C44.1899 20.9058 47.542 20.9058 50.8942 20.8152V24.9828C47.542 25.164 44.1899 25.2546 40.8377 25.3452C40.7471 23.8956 40.8377 22.3554 40.8377 20.8152ZM47.4514 31.6871C47.3608 33.0461 47.1796 34.4051 46.9984 35.7641C46.5454 35.7641 46.0019 35.7641 45.5489 35.7641C45.6395 34.6769 45.6395 33.4991 45.6395 32.4119C45.6395 31.8683 45.5489 31.2341 45.6395 30.7812C45.6395 30.6 45.7301 30.4188 45.8207 30.3282C45.9113 30.2376 46.0925 30.2376 46.2737 30.2376C46.5455 30.2376 47.2702 30.2376 47.4514 30.3282C47.6326 30.6 47.4514 31.3247 47.4514 31.6871ZM48.8104 35.7641C48.9916 34.4957 49.0822 33.3179 49.2634 32.0495C49.354 30.8718 49.5352 29.3316 48.2668 28.6974C47.2702 28.2444 45.8207 28.2444 44.9147 28.788C43.7369 29.6034 43.9181 30.9623 43.9181 32.1401C43.9181 33.3179 43.9181 34.4957 43.8275 35.7641C42.8309 35.7641 41.9249 35.7641 40.9283 35.7641C40.8377 32.8649 40.8377 29.9658 40.8377 27.0666C44.1899 26.976 47.542 26.8854 50.9848 26.7042C50.9848 29.694 50.9848 32.6837 50.9848 35.6735C50.1694 35.7641 49.5352 35.7641 48.8104 35.7641ZM52.7062 35.7641C52.7062 29.8752 52.7062 23.9862 52.7062 18.0972C54.4276 18.1878 56.0584 18.2784 57.7798 18.2784C57.961 24.0768 58.0516 29.8752 58.1422 35.6735C56.2396 35.7641 54.5182 35.7641 52.7062 35.7641Z" fill="#1E1E1E"/>
<path d="M21.2684 22.446C22.4462 22.446 22.4462 24.258 21.2684 24.258C20.0906 24.258 20.0906 22.446 21.2684 22.446Z" fill="#1E1E1E"/>
<path d="M18.1872 22.3555C19.365 22.3555 19.365 24.1675 18.1872 24.1675C17.1 24.1675 17.0094 22.3555 18.1872 22.3555Z" fill="#1E1E1E"/>
<path d="M15.1976 22.2649C16.3754 22.2649 16.3754 24.0769 15.1976 24.0769C14.0198 24.0769 14.0198 22.2649 15.1976 22.2649Z" fill="#1E1E1E"/>
<path d="M7.22467 21.7213C7.22467 21.9025 7.22467 22.0837 7.31527 22.2649C7.40587 22.5367 7.49647 22.8991 7.67767 23.1709C7.85887 23.3521 7.94946 23.6239 8.22126 23.7145C8.49306 23.8051 8.76486 23.8957 9.03666 23.8957C9.21786 23.8957 9.48965 23.8957 9.67085 23.8051C9.94265 23.7145 10.1239 23.6239 10.3051 23.4427C10.5768 23.2615 10.758 22.8991 10.8486 22.5367C10.9392 22.0837 10.8486 21.6307 10.6675 21.1777C10.4863 20.9059 10.2145 20.5435 9.94265 20.4529C9.94265 20.4529 9.94265 20.4529 9.85205 20.3623C9.39906 19.9093 8.67426 19.9093 8.13066 20.1811C7.85887 20.3623 7.58707 20.6341 7.40587 20.9965C7.31527 21.1777 7.22467 21.3589 7.22467 21.7213ZM8.31186 21.9931C8.31186 21.8119 8.31186 21.8119 8.31186 21.7213C8.31186 21.6307 8.31187 21.6307 8.40247 21.5401C8.40247 21.4495 8.49306 21.4495 8.49306 21.3589C8.58366 21.2683 8.67426 21.2683 8.76486 21.1777H8.85546C8.94606 21.1777 8.94606 21.1777 9.03666 21.1777C9.12726 21.1777 9.21786 21.2683 9.30846 21.2683L9.39906 21.3589C9.39906 21.4495 9.48966 21.4495 9.48966 21.5401C9.48966 21.6307 9.48966 21.7213 9.48966 21.8119C9.48966 21.9025 9.48966 21.9931 9.48966 22.0837C9.48966 22.1743 9.48966 22.2649 9.39906 22.2649C9.30846 22.3555 9.30845 22.4461 9.21785 22.4461C9.21785 22.4461 9.12726 22.4461 9.12726 22.5367C9.03666 22.5367 8.94606 22.5367 8.85546 22.5367C8.85546 22.5367 8.76486 22.5367 8.76486 22.4461L8.67426 22.3555C8.58366 22.2649 8.58366 22.1743 8.49306 22.0837C8.31186 22.1743 8.31186 22.0837 8.31186 21.9931Z" fill="#1E1E1E"/>
<path d="M6.95325 28.9692C6.95325 29.4222 6.95325 29.9658 7.04385 30.4188C7.04385 30.8718 7.13445 31.4153 7.22505 31.9589C7.40625 32.6837 7.94984 32.7743 8.58404 32.8649C9.12764 32.9555 9.58063 32.8649 10.1242 32.7743C10.4866 32.6837 10.7584 32.2307 10.7584 31.8683C10.7584 29.8752 10.7584 27.882 10.849 25.7982C10.849 25.3452 10.396 24.8922 9.94303 24.8922C9.85243 24.8016 9.67123 24.8016 9.49003 24.8016C9.03704 24.711 8.58404 24.711 8.13104 24.8016C7.40625 24.8922 7.04385 25.4358 7.04385 26.1606C7.04385 26.976 6.95325 27.9726 6.95325 28.9692ZM8.76524 26.1606C8.94643 26.07 9.30884 26.2512 9.30884 26.4324C9.58064 27.882 9.39944 29.3316 9.39944 30.7812C9.39944 31.3247 8.49344 31.3247 8.49344 30.7812C8.49344 29.4222 8.67464 28.0632 8.49344 26.7042C8.40284 26.523 8.58404 26.2512 8.76524 26.1606Z" fill="#1E1E1E"/>
<path d="M25.9795 17.7348C25.9795 17.6442 26.0701 17.5536 26.1607 17.463C26.2513 17.3724 26.3419 17.2818 26.4325 17.1912C26.5231 17.1006 26.6137 17.1006 26.7949 17.1006C26.8855 17.1006 27.0667 17.1006 27.1573 17.1006C27.3385 17.1912 27.6103 17.2818 27.7009 17.5536C27.7009 17.6442 27.7915 17.7348 27.7915 17.7348C27.7915 17.916 27.7915 18.0066 27.7915 18.1878C27.7915 18.4596 27.7915 18.7314 27.7915 19.0032C27.7915 19.0938 27.7915 19.275 27.7009 19.3656C27.7009 19.4562 27.6103 19.5468 27.5197 19.6374C27.4291 19.728 27.3385 19.8186 27.2479 19.8186C27.1573 19.9092 27.0667 19.9092 26.8855 19.9092C26.6137 19.9092 26.4325 19.8186 26.2513 19.6374C26.1607 19.5468 26.1607 19.5468 26.0701 19.4562C25.9795 19.275 25.9795 19.1844 25.9795 19.0032C25.7983 18.6408 25.8889 18.1878 25.9795 17.7348Z" fill="#1E1E1E"/>
</svg>
