<svg width="130" height="11" viewBox="0 0 130 11" fill="none" xmlns="http://www.w3.org/2000/svg">
<path d="M129.494 7.88385C128.004 6.34451 126.414 4.93115 124.924 3.39181C123.437 1.97481 122.383 1.27724 120.66 2.68491C119.24 3.83698 117.52 5.36699 116.424 6.99746C116.321 7.00111 116.318 6.87877 116.214 6.88241C115.994 6.40036 115.467 6.05158 115.147 5.6955C114.401 4.86466 113.758 4.03018 113.014 3.32168C111.841 2.01607 110.57 0.958786 108.938 1.87347C107.302 2.66581 106.319 4.65965 105.009 6.05274C104.909 6.17872 104.809 6.3047 104.709 6.43069C105.013 6.17508 104.903 5.93405 104.489 5.94863C104.169 5.59256 103.648 5.48845 103.228 5.25835C102.491 4.79452 101.754 4.3307 101.017 3.86687C99.3329 2.82416 97.7458 1.53314 96.1586 0.242115C95.6285 -0.229005 94.7039 0.0484761 94.303 0.552404C93.6078 1.67895 92.9094 2.68316 92.2142 3.80971C91.8165 4.43597 91.4188 5.06223 91.0211 5.6885C90.9208 5.81448 90.8206 5.94046 90.7236 6.18878C90.6234 6.31476 90.6234 6.31476 90.6234 6.31476C89.6794 5.85822 88.8261 4.90869 87.9792 4.20384C87.0288 3.50262 86.0752 2.67908 85.0214 1.98151C83.2242 0.57544 81.4462 -0.0966094 79.5257 1.68536C78.1128 3.0821 76.8034 4.47519 75.3905 5.87193C74.2268 4.93333 73.0663 4.11708 71.7991 3.18213C70.6386 2.36587 69.4685 1.1826 68.0299 1.60064C66.6947 2.01504 65.4919 3.52683 64.3797 4.54562C63.7719 5.05683 63.164 5.56805 62.6597 6.07562C62.0518 6.58684 61.638 6.60142 60.9042 6.25993C58.4927 5.12041 56.5694 2.86163 53.8701 2.5894C51.0673 2.32081 49.1597 4.59213 47.0323 6.38139C46.3242 7.01859 46.4244 6.89261 45.6842 6.30644C45.0506 5.83897 44.5205 5.36785 43.8869 4.90037C42.6198 3.96543 41.3526 3.03048 39.8947 2.7145C38.4399 2.52086 37.2178 3.29862 35.8923 4.08003C35.1778 4.47256 34.4633 4.86509 33.7488 5.25761C33.0343 5.65014 31.9189 6.54659 30.9911 6.70174C29.7497 6.74548 28.1625 5.45446 27.1055 4.63456C25.9418 3.69596 24.9721 2.26073 23.5142 1.94475C22.1597 1.62513 20.8309 2.2842 19.8221 3.29935C18.7099 4.31814 17.7173 5.94497 16.2561 5.50666C14.7982 5.19068 13.6248 3.88508 12.3609 3.07246C10.9903 2.14116 9.52265 1.45818 7.86102 1.27183C4.84809 0.888194 1.77999 2.34326 0.208475 5.58233C-0.77131 7.69851 1.96667 9.43878 2.94645 7.3226C4.32073 4.45783 7.32078 4.35211 9.63208 5.61762C11.9434 6.88313 13.8699 9.26424 16.5628 9.2918C17.8074 9.37039 18.9293 8.71861 19.9444 7.94814C20.7527 7.18496 22.1495 5.17654 23.2034 5.87411C24.2539 6.44934 25.2204 7.76223 26.2774 8.58213C27.4379 9.39839 28.8053 10.2074 30.0531 10.4083C31.4044 10.6056 32.5263 9.95379 33.7516 9.29836C35.284 8.50967 36.8068 7.35396 38.3425 6.6876C39.6744 6.15086 40.9513 7.45282 42.0051 8.15038C43.0621 8.97029 44.2387 10.3982 45.59 10.5955C47.9854 11.1234 49.8608 7.62867 51.8006 6.58072C54.0476 5.39949 56.2844 7.76967 58.1787 8.92742C59.3392 9.74368 60.7033 10.4303 62.0417 10.1382C63.4836 9.84254 64.6896 8.4531 65.8018 7.43431C66.4096 6.92309 67.3117 5.78925 68.0294 5.51906C68.1329 5.51542 68.3301 5.14111 68.3301 5.14111C68.537 5.13382 69.2805 5.84233 69.4906 5.95737C70.9711 7.1297 72.555 8.29839 74.0355 9.47072C74.0355 9.47072 74.1389 9.46708 74.1422 9.58941C74.6723 10.0605 75.5031 10.1537 76.1045 9.39782C77.013 8.50865 77.8181 7.62313 78.7266 6.73397C79.1275 6.23004 79.6351 5.84481 80.0361 5.34088C80.34 5.08527 80.9381 4.20704 81.3487 4.07012C82.1731 3.91863 83.6665 5.5803 84.3 6.04778C85.2504 6.74899 86.0973 7.45385 87.0477 8.15506C88.5282 9.32739 90.3351 11.1005 91.9452 9.32943C92.7503 8.44391 93.3388 7.19868 93.9338 6.19811C94.3315 5.57185 94.8294 4.8196 95.2271 4.19334C97.8713 6.30427 100.613 8.16687 103.548 9.53284C105.329 10.3272 106.331 9.06741 107.537 7.67797C108.139 6.92207 108.734 5.92151 109.445 5.40665C110.053 4.89543 109.645 5.15468 110.172 5.50347C110.489 5.7372 110.919 6.3343 111.239 6.69038C111.986 7.52122 112.629 8.3557 113.372 9.0642C113.906 9.65766 114.549 10.4921 115.283 10.8336C116.957 11.5093 117.95 9.8825 119.059 8.74138C119.764 7.98184 120.468 7.2223 121.277 6.45912C121.277 6.45912 121.885 5.9479 122.189 5.69229C122.295 5.81099 122.402 5.92968 122.509 6.04837C123.999 7.58771 125.589 9.00107 127.079 10.5404C128.88 12.0688 130.985 9.4232 129.494 7.88385Z" fill="#F7C300"/>
</svg>
