<svg width="362" height="17" viewBox="0 0 362 17" fill="none" xmlns="http://www.w3.org/2000/svg">
<path d="M179.815 8.26529C182.16 5.18302 185.762 3.8172 189.326 4.22412C191.663 4.45665 193.734 5.3689 195.671 6.62102C196.238 6.96753 196.793 7.3819 197.352 7.7993C198.554 8.69687 199.774 9.60849 201.175 9.88966C202.775 10.3394 203.962 9.09216 205.138 7.85511C205.476 7.50032 205.813 7.14637 206.158 6.83353C207.563 5.4362 209.421 4.52026 211.329 4.9385C212.764 5.2266 213.871 6.26436 214.97 7.29492C215.443 7.73785 215.914 8.17945 216.409 8.55963C216.487 8.617 216.566 8.67609 216.648 8.73654C218.137 9.83978 220.242 11.3998 221.895 11.328C222.828 11.1676 223.892 10.4865 224.788 9.91305C225.141 9.68668 225.469 9.47709 225.752 9.32298L228.749 7.68943C228.84 7.63601 228.931 7.58261 229.022 7.52938C230.771 6.50371 232.41 5.5424 234.355 5.77546C236.408 6.18739 238.2 7.44581 239.992 8.70424C240.44 9.01886 240.852 9.33506 241.264 9.65126C241.676 9.96743 242.087 10.2836 242.536 10.5982C242.688 10.7133 242.816 10.8153 242.925 10.9028C243.566 11.416 243.588 11.433 244.431 10.6829C244.932 10.2663 245.424 9.83099 245.914 9.39683C248.33 7.25963 250.715 5.14928 253.991 5.42344C256.398 5.63655 258.376 6.94232 260.369 8.25764C261.52 9.01715 262.675 9.77985 263.921 10.3372C264.956 10.7933 265.538 10.7681 266.385 10.0631C267.088 9.36441 267.935 8.65944 268.783 7.95446C269.165 7.60884 269.554 7.2224 269.951 6.82749C271.168 5.61858 272.465 4.33037 273.875 3.89137C275.556 3.40053 276.989 4.42998 278.37 5.42219C278.645 5.62003 278.918 5.81639 279.191 5.99891C279.646 6.31849 280.092 6.62772 280.53 6.93197C281.817 7.82576 283.042 8.67649 284.271 9.62005C285.255 8.6586 286.203 7.69872 287.15 6.73885C288.098 5.77898 289.045 4.81911 290.029 3.85765C292.705 1.40286 295.212 2.29617 297.755 4.19013C298.694 4.78137 299.578 5.44146 300.44 6.08514C300.945 6.46211 301.443 6.83345 301.939 7.18204C302.29 7.46054 302.643 7.76768 302.999 8.07813C303.858 8.82684 304.739 9.59473 305.681 10.0261L305.82 9.85304C305.953 9.51318 306.093 9.3401 306.232 9.16701L307.885 6.58964C308.366 5.81696 308.849 5.08598 309.332 4.355C309.815 3.62421 310.297 2.89341 310.779 2.12094C311.336 1.42859 312.631 1.03822 313.382 1.67374C315.629 3.41355 317.875 5.15335 320.255 6.5533L323.379 8.422C323.577 8.52476 323.79 8.60829 324.003 8.69183C324.43 8.85889 324.856 9.02596 325.159 9.34688C325.585 9.32839 325.783 9.49879 325.693 9.7297L325.892 9.48208C326.499 8.84322 327.055 8.11381 327.611 7.3844C328.722 5.92558 329.833 4.46676 331.359 3.73232C333.642 2.46388 335.44 3.88908 337.105 5.65414C337.802 6.28656 338.438 6.99465 339.095 7.72656C339.431 8.10156 339.774 8.48281 340.133 8.86335C340.279 9.01826 340.455 9.17187 340.637 9.33078C341.022 9.66567 341.433 10.0241 341.647 10.4679C341.719 10.4648 341.757 10.5049 341.795 10.545C341.833 10.5851 341.871 10.6252 341.943 10.6221C343.463 8.38458 345.86 6.27597 347.84 4.68661C350.244 2.74477 351.733 3.68228 353.841 5.59517C354.897 6.63505 355.989 7.63166 357.08 8.62827C358.172 9.62478 359.263 10.6213 360.32 11.6611C362.433 13.7408 359.509 17.3756 356.959 15.3149C355.903 14.275 354.811 13.2785 353.72 12.2819C352.628 11.2853 351.537 10.2888 350.48 9.24895L350.026 8.76756L348.755 9.82503C347.629 10.8762 346.648 11.921 345.667 12.9659C345.409 13.2286 345.155 13.5097 344.901 13.7917C343.636 15.1951 342.354 16.617 340.387 15.8678C339.519 15.4854 338.736 14.6293 338.06 13.8898C337.929 13.7475 337.803 13.6094 337.681 13.4799C336.984 12.8475 336.348 12.1394 335.691 11.4075C335.355 11.0325 335.012 10.6512 334.653 10.2707C334.507 10.1158 334.345 9.92693 334.177 9.73159C333.822 9.31998 333.443 8.87943 333.139 8.66608C332.721 8.4028 332.717 8.1742 332.644 8.1493C332.587 8.12986 332.488 8.23448 332.116 8.5435C331.403 9.05426 330.778 9.90575 330.172 10.7298C329.934 11.0533 329.7 11.3726 329.464 11.6654C329.406 11.7313 329.349 11.7971 329.292 11.8625C327.69 13.6919 326.308 15.2699 323.882 14.2465C319.74 12.4219 315.865 9.91772 312.123 7.07364C311.848 7.50319 311.537 7.97602 311.227 8.44885C310.917 8.92169 310.607 9.39453 310.331 9.82409C310.121 10.1743 309.912 10.5462 309.698 10.9261C309.073 12.035 308.411 13.2126 307.576 14.1197C305.538 16.3358 303.234 14.554 301.258 13.0251C301.062 12.8735 300.869 12.7244 300.68 12.5819C300.008 12.1101 299.372 11.6366 298.736 11.1632C298.101 10.6897 297.465 10.2161 296.793 9.74417C296.563 9.58307 296.253 9.31596 295.9 9.01133C294.874 8.12614 293.481 6.92414 292.621 7.0858C292.246 7.21081 291.764 7.76531 291.356 8.23435C291.137 8.48575 290.94 8.71261 290.792 8.83561C290.514 9.18179 290.197 9.48784 289.881 9.7939C289.565 10.1 289.248 10.406 288.97 10.7522C288.337 11.3643 287.741 11.9749 287.144 12.5854C286.548 13.1959 285.952 13.8065 285.319 14.4186C284.483 15.4571 283.315 15.3409 282.564 14.7053C282.558 14.5386 282.413 14.5449 282.413 14.5449C281.365 13.7552 280.281 12.9671 279.197 12.179C278.114 11.3909 277.03 10.6028 275.982 9.81315C275.875 9.75734 275.668 9.59637 275.434 9.4143C275.023 9.09347 274.527 8.70713 274.341 8.71518C274.341 8.71518 274.069 9.22813 273.924 9.23445C273.244 9.48981 272.451 10.2845 271.747 10.9904C271.409 11.3287 271.092 11.6466 270.818 11.875C270.546 12.121 270.27 12.3825 269.99 12.6489C268.669 13.9025 267.236 15.2628 265.568 15.6108C263.691 16.0264 261.766 15.1079 260.125 14.0099C259.554 13.6782 258.96 13.2713 258.348 12.8524C256.095 11.3091 253.605 9.60296 251.133 10.8928C250.168 11.4104 249.218 12.3507 248.242 13.3162C246.477 15.0627 244.629 16.8914 242.457 16.4479C241.06 16.2631 239.786 15.1703 238.616 14.1657C238.194 13.8036 237.785 13.4529 237.389 13.1603C237.107 12.9827 236.813 12.7757 236.51 12.5618C235.212 11.6465 233.736 10.606 232.224 11.2132C230.996 11.7438 229.776 12.4923 228.555 13.2407C227.64 13.8021 226.725 14.3634 225.806 14.8328C225.719 14.8789 225.633 14.925 225.547 14.971C223.933 15.8311 222.428 16.633 220.624 16.3943C218.868 16.1365 216.936 15.0512 215.295 13.9532C214.674 13.4946 214.074 12.9198 213.478 12.3493C212.639 11.546 211.809 10.7512 210.942 10.3005C209.757 9.55501 208.289 11.1455 207.172 12.3569C206.884 12.6688 206.619 12.9557 206.388 13.1709C204.972 14.2347 203.404 15.138 201.654 15.047C199.096 15.0452 197.017 13.5728 194.93 12.0949C193.929 11.3863 192.927 10.6765 191.869 10.127C188.714 8.48787 184.671 8.60433 182.693 12.1586C182.561 13.9171 180.486 15.476 178.614 13.9625C177.557 12.9226 176.466 11.9261 175.374 10.9295C174.283 9.93296 173.192 8.9364 172.135 7.89656L171.681 7.41518L170.409 8.47265C169.283 9.5238 168.302 10.5686 167.322 11.6135C167.063 11.8762 166.81 12.1574 166.556 12.4393C165.29 13.8427 164.008 15.2646 162.042 14.5155C161.174 14.133 160.391 13.277 159.714 12.5374C159.584 12.3951 159.458 12.257 159.335 12.1275C158.639 11.4951 158.003 10.787 157.346 10.0552C157.009 9.68014 156.667 9.29885 156.308 8.9183C156.162 8.76337 155.999 8.57455 155.831 8.3792C155.477 7.9676 155.098 7.52705 154.794 7.3137C154.376 7.05042 154.372 6.82182 154.299 6.79691C154.242 6.77748 154.142 6.8821 153.771 7.19112C153.058 7.70188 152.432 8.55336 151.827 9.37739C151.589 9.70092 151.354 10.0202 151.119 10.313C151.061 10.379 151.003 10.4447 150.946 10.5101C149.344 12.3395 147.963 13.9175 145.537 12.8941C141.395 11.0696 137.52 8.56534 133.778 5.72126C133.502 6.15094 133.192 6.62392 132.881 7.09689C132.571 7.56959 132.261 8.04227 131.986 8.47171C131.776 8.82186 131.566 9.19373 131.352 9.57368C130.728 10.6826 130.065 11.8602 129.231 12.7673C127.193 14.9834 124.889 13.2016 122.912 11.6727C122.716 11.5211 122.523 11.372 122.334 11.2296C121.662 10.7576 121.027 10.2842 120.391 9.81067C119.755 9.33718 119.119 8.86369 118.447 8.39178C118.218 8.23069 117.908 7.96358 117.555 7.65895C116.529 6.77376 115.136 5.57176 114.275 5.73341C113.901 5.85843 113.418 6.41295 113.011 6.88199C112.792 7.13338 112.595 7.36023 112.447 7.48323C112.168 7.8294 111.852 8.13546 111.536 8.44152C111.219 8.74758 110.903 9.05364 110.624 9.39982C109.992 10.012 109.395 10.6225 108.799 11.2331C108.203 11.8436 107.606 12.4541 106.974 13.0662C106.138 14.1047 104.969 13.9885 104.219 13.353C104.213 13.1862 104.067 13.1925 104.067 13.1925C103.02 12.4028 101.936 11.6147 100.852 10.8266C99.7681 10.0385 98.6843 9.25044 97.6368 8.46077C97.5294 8.40496 97.3227 8.24399 97.089 8.06192C96.6772 7.74109 96.1813 7.35475 95.9958 7.3628C95.9958 7.3628 95.7234 7.87575 95.5781 7.88206C94.8986 8.13743 94.1057 8.93213 93.4014 9.63805C93.0639 9.97631 92.7467 10.2942 92.4721 10.5226C92.2005 10.7686 91.9249 11.0302 91.6442 11.2966C90.3237 12.5502 88.8906 13.9104 87.2228 14.2584C85.3459 14.674 83.4204 13.7555 81.7795 12.6575C81.2082 12.3258 80.6143 11.9189 80.0029 11.5001C77.75 9.9567 75.2595 8.25058 72.7879 9.5404C71.8223 10.058 70.8721 10.9984 69.8966 11.9638C68.1316 13.7103 66.2837 15.539 64.1117 15.0955C62.7142 14.9107 61.441 13.8179 60.2704 12.8133C59.8485 12.4512 59.4399 12.1005 59.0437 11.8079C58.7615 11.6304 58.4679 11.4233 58.1646 11.2095C56.8664 10.2942 55.3904 9.25358 53.8788 9.86085C52.6506 10.3915 51.4303 11.1399 50.21 11.8883C49.2947 12.4497 48.3795 13.011 47.4609 13.4804C47.3741 13.5265 47.2876 13.5726 47.2014 13.6186C45.5876 14.4787 44.0829 15.2806 42.2781 15.0419C40.5222 14.7841 38.5906 13.6988 36.9497 12.6008C36.3286 12.1422 35.7284 11.5675 35.1325 10.9969C34.2936 10.1937 33.4635 9.39878 32.5961 8.94813C31.4117 8.20263 29.944 9.79317 28.8262 11.0045C28.5384 11.3165 28.2737 11.6033 28.0431 11.8185C26.6263 12.8823 25.0582 13.7856 23.3083 13.6946C20.7505 13.6929 18.6712 12.2204 16.5843 10.7426C15.5836 10.0339 14.5812 9.32411 13.5235 8.77458C10.2599 7.07897 6.04575 7.26206 4.15081 11.1862C2.80075 14.0845 -1.0684 11.7471 0.281668 8.8488C2.44905 4.41166 6.74179 2.38774 10.9802 2.87174C13.3173 3.10427 15.3881 4.01652 17.3257 5.26863C17.8927 5.61515 18.4475 6.02952 19.0064 6.44692C20.2081 7.34449 21.4287 8.2561 22.8297 8.53728C24.4296 8.987 25.6161 7.73977 26.793 6.50271C27.1305 6.14793 27.4672 5.79398 27.8127 5.48115C29.2173 4.08382 31.0761 3.16787 32.9834 3.58612C34.4189 3.87422 35.5258 4.91198 36.625 5.94254C37.0974 6.38547 37.5684 6.82707 38.0635 7.20725C38.1412 7.26463 38.221 7.32371 38.3025 7.38418C39.7912 8.48742 41.8961 10.0474 43.5493 9.97557C44.4826 9.81526 45.5466 9.1341 46.4424 8.56068C46.796 8.3343 47.1234 8.12471 47.4061 7.97059L50.4032 6.33704C50.4946 6.28362 50.5856 6.23022 50.6764 6.17698C52.4252 5.15132 54.0643 4.19001 56.0098 4.42307C58.0624 4.835 59.8547 6.09343 61.647 7.35186C62.0951 7.66646 62.5068 7.98265 62.9185 8.29883C63.3303 8.61502 63.742 8.9312 64.1901 9.24581C64.3428 9.36089 64.4702 9.46288 64.5796 9.55042C65.2209 10.0636 65.2422 10.0806 66.0853 9.33051C66.5862 8.91388 67.0781 8.4786 67.5688 8.04443C69.9843 5.90724 72.3694 3.7969 75.6455 4.07105C78.0522 4.28416 80.0306 5.58994 82.0236 6.90526C83.1744 7.66477 84.33 8.42746 85.5756 8.9848C86.611 9.44092 87.1923 9.41567 88.0399 8.71069C88.7422 8.01203 89.5899 7.30705 90.4375 6.60208C90.8192 6.25644 91.2082 5.86998 91.6057 5.47506C92.8225 4.26616 94.1192 2.97798 95.5294 2.53899C97.2104 2.04815 98.6432 3.07758 100.024 4.06978C100.299 4.26763 100.573 4.46399 100.846 4.64653C101.301 4.96622 101.746 5.27555 102.185 5.57989C103.472 6.47357 104.697 7.32421 105.926 8.26766C106.91 7.30621 107.857 6.34634 108.805 5.38647C109.752 4.4266 110.7 3.46672 111.684 2.50527C114.36 0.0504806 116.866 0.943791 119.41 2.83774C120.349 3.42901 121.233 4.08911 122.095 4.73281C122.6 5.10976 123.097 5.48109 123.594 5.82966C123.945 6.10816 124.297 6.41531 124.654 6.72576C125.513 7.47447 126.394 8.24235 127.336 8.67375L127.475 8.50066C127.608 8.1608 127.747 7.98771 127.887 7.81463L129.539 5.23726C130.021 4.46468 130.503 3.73379 130.986 3.0029C131.469 2.27202 131.952 1.54113 132.433 0.768553C132.99 0.0762032 134.286 -0.314167 135.037 0.32136C137.283 2.06117 139.53 3.80097 141.909 5.20092L145.034 7.06961C145.231 7.17238 145.445 7.25591 145.658 7.33944C146.085 7.50651 146.511 7.67357 146.814 7.99449C147.239 7.97601 147.438 8.14641 147.347 8.37734L147.546 8.1297C148.154 7.49084 148.71 6.76143 149.265 6.03202C150.377 4.5732 151.488 3.11438 153.014 2.37994C155.296 1.1115 157.095 2.5367 158.76 4.30176C159.456 4.93418 160.092 5.64227 160.749 6.37417C161.086 6.74918 161.428 7.13043 161.787 7.51096C161.933 7.66588 162.11 7.81949 162.292 7.9784C162.676 8.31328 163.088 8.67172 163.301 9.11556C163.374 9.11241 163.412 9.15252 163.449 9.19263C163.487 9.23275 163.525 9.27287 163.598 9.26971C165.117 7.0322 167.515 4.92359 169.495 3.33423C171.898 1.39239 173.388 2.32989 175.495 4.24279C176.552 5.28262 177.643 6.27918 178.735 7.27574C179.095 7.60507 179.456 7.9344 179.815 8.26529Z" fill="#59C69F"/>
</svg>
