<svg width="163" height="13" viewBox="0 0 163 13" fill="none" xmlns="http://www.w3.org/2000/svg">
<path d="M162.366 9.31728C160.498 7.49806 158.504 5.82773 156.635 4.00851C154.771 2.33386 153.449 1.50947 151.289 3.17308C149.509 4.53461 147.352 6.3428 145.978 8.26972C145.848 8.27403 145.844 8.12945 145.715 8.13376C145.439 7.56406 144.778 7.15186 144.377 6.73105C143.441 5.74915 142.634 4.76294 141.702 3.92562C140.231 2.38263 138.638 1.13311 136.591 2.2141C134.54 3.1505 133.307 5.50686 131.666 7.15324C131.54 7.30213 131.414 7.45101 131.289 7.5999C131.67 7.29782 131.532 7.01297 131.013 7.0302C130.612 6.60938 129.959 6.48634 129.432 6.21442C128.508 5.66626 127.584 5.11809 126.66 4.56993C124.548 3.33765 122.558 1.81189 120.568 0.286136C119.903 -0.270642 118.744 0.0572899 118.241 0.652841C117.37 1.98421 116.494 3.17101 115.622 4.50238C115.124 5.24251 114.625 5.98264 114.126 6.72277C114.001 6.87166 113.875 7.02055 113.753 7.31401C113.628 7.4629 113.628 7.4629 113.628 7.4629C112.444 6.92336 111.374 5.80118 110.312 4.96817C109.121 4.13946 107.925 3.16618 106.604 2.34178C104.35 0.680066 102.121 -0.114175 99.713 1.99179C97.9414 3.64248 96.2996 5.28886 94.528 6.93955C93.0689 5.8303 91.6139 4.86563 90.0251 3.76069C88.57 2.79603 87.1028 1.39762 85.299 1.89167C83.6249 2.38141 82.1168 4.16807 80.7222 5.37209C79.9601 5.97626 79.198 6.58042 78.5656 7.18028C77.8035 7.78445 77.2846 7.80168 76.3645 7.3981C73.3408 6.05139 70.9294 3.38192 67.5448 3.06019C64.0305 2.74277 61.6387 5.42706 58.9712 7.54164C58.0834 8.2947 58.2091 8.14581 57.281 7.45307C56.4865 6.9006 55.8219 6.34382 55.0275 5.79135C53.4386 4.68641 51.8498 3.58147 50.0218 3.20805C48.1978 2.9792 46.6655 3.89837 45.0034 4.82186C44.1076 5.28575 43.2117 5.74965 42.3158 6.21354C41.42 6.67744 40.0214 7.73688 38.858 7.92024C37.3015 7.97193 35.3115 6.44618 33.9861 5.4772C32.527 4.36795 31.3112 2.67177 29.4831 2.29835C27.7848 1.92061 26.1187 2.69951 24.8539 3.89923C23.4594 5.10326 22.2147 7.02587 20.3827 6.50787C18.5546 6.13444 17.0834 4.59145 15.4986 3.63109C13.7801 2.53046 11.9399 1.7233 9.8565 1.50307C6.07876 1.04968 2.23184 2.7693 0.261395 6.5973C-0.967104 9.09823 2.4659 11.1549 3.6944 8.65398C5.41753 5.26834 9.17913 5.14341 12.0772 6.63901C14.9752 8.1346 17.3907 10.9486 20.7672 10.9812C22.3277 11.0741 23.7344 10.3038 25.0073 9.39326C26.0207 8.49131 27.7721 6.11773 29.0934 6.94213C30.4107 7.62194 31.6225 9.17354 32.9479 10.1425C34.4029 11.1072 36.1174 12.0632 37.682 12.3007C39.3763 12.5339 40.783 11.7636 42.3193 10.989C44.2407 10.0569 46.1501 8.69104 48.0756 7.90352C49.7456 7.2692 51.3466 8.80788 52.6679 9.63227C53.9932 10.6012 55.4685 12.2888 57.1628 12.522C60.1663 13.1458 62.5178 9.0157 64.95 7.77721C67.7673 6.38122 70.572 9.18234 72.9471 10.5506C74.4022 11.5153 76.1126 12.3267 77.7908 11.9816C79.5987 11.6321 81.1108 9.99002 82.5053 8.786C83.2674 8.18183 84.3985 6.84184 85.2984 6.52253C85.4281 6.51822 85.6754 6.07586 85.6754 6.07586C85.9349 6.06725 86.867 6.90457 87.1305 7.04053C88.9868 8.42601 90.9728 9.80719 92.8291 11.1927C92.8291 11.1927 92.9588 11.1884 92.9629 11.3329C93.6275 11.8897 94.6693 11.9998 95.4233 11.1065C96.5625 10.0557 97.5719 9.00916 98.7111 7.95833C99.2138 7.36278 99.8502 6.9075 100.353 6.31195C100.734 6.00986 101.484 4.97196 101.999 4.81015C103.032 4.6311 104.905 6.5949 105.699 7.14737C106.891 7.97608 107.953 8.80909 109.144 9.6378C111.001 11.0233 113.266 13.1187 115.285 11.0257C116.295 9.97917 117.033 8.50753 117.778 7.32504C118.277 6.58491 118.901 5.69589 119.4 4.95576C122.716 7.45049 126.153 9.65176 129.833 11.2661C132.066 12.2049 133.323 10.716 134.835 9.07396C135.589 8.18063 136.335 6.99815 137.227 6.38967C137.989 5.78551 137.478 6.0919 138.139 6.5041C138.536 6.78033 139.075 7.486 139.476 7.90681C140.413 8.88871 141.219 9.87492 142.151 10.7122C142.82 11.4136 143.627 12.3998 144.547 12.8034C146.646 13.6019 147.891 11.6793 149.281 10.3307C150.165 9.43308 151.049 8.53545 152.062 7.63351C152.062 7.63351 152.825 7.02934 153.206 6.72726C153.339 6.86753 153.473 7.0078 153.607 7.14807C155.475 8.96729 157.469 10.6376 159.338 12.4568C161.595 14.2631 164.234 11.1365 162.366 9.31728Z" fill="#F7C300"/>
</svg>
