<svg width="173" height="16" viewBox="0 0 173 16" fill="none" xmlns="http://www.w3.org/2000/svg">
<path d="M133.593 8.04555C135.335 5.04522 138.011 3.71572 140.659 4.11182C142.395 4.33817 143.934 5.22617 145.373 6.44499C145.794 6.78229 146.207 7.18565 146.622 7.59195C147.515 8.46566 148.421 9.35304 149.462 9.62673C150.651 10.0645 151.533 8.85044 152.407 7.64627L152.407 7.64618C152.658 7.30085 152.908 6.95635 153.164 6.65185C154.208 5.29168 155.589 4.40008 157.006 4.80721C158.073 5.08765 158.895 6.09782 159.712 7.10098C160.063 7.53214 160.412 7.962 160.78 8.33207C160.838 8.38791 160.897 8.44542 160.958 8.50427C162.064 9.57818 163.628 11.0967 164.856 11.0268C165.549 10.8708 166.34 10.2078 167.005 9.64962L167.005 9.64951L167.006 9.64919C167.268 9.42895 167.511 9.22507 167.721 9.07512L169.948 7.485L170.151 7.3292C170.752 6.9952 172.069 6.61922 172.53 7.78731C173.107 9.24743 173.205 10.4972 172.53 10.9151C171.618 11.4316 170.711 12.1602 169.804 12.8887C169.124 13.4351 168.445 13.9815 167.762 14.4385L167.569 14.5729C166.37 15.4102 165.252 16.1908 163.911 15.9584C162.607 15.7075 161.172 14.651 159.953 13.5823C159.491 13.1358 159.045 12.5763 158.603 12.021C157.979 11.2391 157.363 10.4653 156.718 10.0267C155.838 9.30099 154.748 10.8492 153.917 12.0283C153.704 12.332 153.507 12.6112 153.336 12.8208C152.283 13.8563 151.118 14.7356 149.818 14.647C147.918 14.6453 146.373 13.2119 144.822 11.7734L144.822 11.7732C144.079 11.0835 143.334 10.3926 142.548 9.85773C140.204 8.26222 137.201 8.37557 135.731 11.8353C135.633 13.5471 134.092 15.0646 132.701 13.5913C131.916 12.5793 131.105 11.6095 130.294 10.6396L130.294 10.639L130.293 10.6383C129.483 9.66845 128.672 8.69859 127.887 7.68663L127.55 7.21804L126.605 8.24739C125.768 9.2706 125.04 10.2877 124.311 11.3047C124.119 11.5604 123.931 11.8341 123.742 12.1086C122.802 13.4747 121.849 14.8588 120.389 14.1296C119.744 13.7573 119.162 12.9241 118.659 12.2043L118.659 12.2041L118.659 12.2038C118.562 12.0653 118.468 11.9311 118.378 11.8051C117.86 11.1895 117.388 10.5003 116.9 9.78784C116.649 9.42278 116.395 9.05164 116.128 8.6812C116.02 8.53039 115.899 8.34658 115.774 8.15644L115.774 8.15636C115.511 7.75572 115.229 7.32692 115.004 7.11926C114.693 6.86298 114.69 6.64046 114.636 6.61621C114.593 6.59729 114.519 6.69913 114.243 6.99994C113.714 7.4971 113.249 8.32589 112.799 9.12799L112.799 9.12809C112.623 9.44301 112.448 9.75382 112.273 10.0388L112.145 10.2307C110.955 12.0114 109.928 13.5475 108.126 12.5513C105.049 10.7753 102.17 8.33762 99.3897 5.56915C99.1854 5.9866 98.9553 6.44603 98.7252 6.90553L98.7238 6.90822C98.4933 7.36835 98.2629 7.82846 98.0583 8.24648C97.9022 8.58733 97.7466 8.94931 97.5877 9.31916L97.5877 9.31933C97.1239 10.3987 96.6314 11.5449 96.0117 12.4279C94.4975 14.5851 92.7858 12.8506 91.3172 11.3624C91.1716 11.2148 91.0284 11.0697 90.888 10.931C90.3886 10.4716 89.9163 10.0107 89.4439 9.54985C88.9716 9.08895 88.4992 8.62805 87.9999 8.16868C87.8294 8.0119 87.5995 7.75196 87.3372 7.45549L87.337 7.45533C86.5747 6.59367 85.5396 5.42363 84.9004 5.58099C84.6222 5.70268 84.2639 6.24245 83.9608 6.69903L83.9607 6.69914C83.7983 6.9438 83.6518 7.16457 83.5419 7.28428C83.335 7.62125 83.1 7.91917 82.865 8.2171C82.6299 8.51502 82.3949 8.81294 82.188 9.14991C81.7179 9.74576 81.2749 10.3401 80.8318 10.9344L80.8318 10.9344C80.3887 11.5287 79.9457 12.123 79.4756 12.7188C78.8549 13.7298 77.9867 13.6166 77.4288 12.998C77.4243 12.8356 77.3164 12.8418 77.3164 12.8418C76.5381 12.0731 75.7329 11.3059 74.9276 10.5388C74.1224 9.77165 73.3172 9.00451 72.5389 8.23583C72.4591 8.18153 72.3057 8.02495 72.1322 7.84781L72.132 7.84759C71.826 7.53529 71.4575 7.15921 71.3198 7.16706C71.3198 7.16706 71.1174 7.66637 71.0094 7.67251C70.5046 7.92109 69.9155 8.69467 69.3923 9.38181L69.392 9.38207C69.1414 9.71124 68.9058 10.0206 68.7019 10.2428C68.5001 10.4822 68.2954 10.7368 68.087 10.996L68.0868 10.9963C67.1057 12.2165 66.041 13.5406 64.8019 13.8793C63.4074 14.2839 61.9769 13.3898 60.7578 12.321C60.3333 11.9981 59.8921 11.602 59.4379 11.1943C57.7641 9.69199 55.9138 8.03123 54.0775 9.28676C53.3602 9.79064 52.6542 10.7059 51.9294 11.6457L51.9294 11.6457C50.6182 13.3458 49.2453 15.1259 47.6316 14.6942C46.5933 14.5143 45.6474 13.4506 44.7777 12.4726C44.4642 12.1201 44.1607 11.7788 43.8663 11.494C43.6567 11.3212 43.4386 11.1197 43.2132 10.9115L43.2132 10.9115C42.2487 10.0205 41.1521 9.00756 40.0291 9.59869C39.1166 10.1152 38.2099 10.8437 37.3033 11.5723C36.6233 12.1187 35.9434 12.6651 35.2609 13.1221L35.0681 13.2565C33.8692 14.0937 32.7513 14.8744 31.4104 14.642C30.1058 14.3911 28.6708 13.3346 27.4517 12.2658C26.9902 11.8194 26.5443 11.2599 26.1016 10.7045C25.4783 9.92265 24.8616 9.1489 24.2172 8.71024C23.3372 7.98456 22.2468 9.53281 21.4164 10.7119L21.4163 10.712C21.2025 11.0156 21.0058 11.2948 20.8345 11.5043C19.7819 12.5398 18.6169 13.4191 17.3168 13.3306C15.4165 13.3288 13.8717 11.8955 12.3212 10.457L12.3212 10.457C11.5778 9.76719 10.8331 9.07622 10.0472 8.5413C7.62254 6.89077 4.49167 7.06899 3.08383 10.8889C2.0808 13.7101 -0.793762 11.4348 0.209264 8.61354C1.81951 4.29437 5.00879 2.32426 8.15769 2.79539C9.89408 3.02174 11.4326 3.90974 12.8721 5.12856C13.2933 5.46587 13.7055 5.86922 14.1207 6.27553L14.1207 6.27553C15.0136 7.14924 15.9204 8.03661 16.9613 8.31031C18.1499 8.74807 19.0314 7.534 19.9057 6.32983C20.1565 5.98448 20.4067 5.63995 20.6633 5.33543C21.7069 3.97525 23.0879 3.08365 24.5049 3.49078C25.5714 3.77122 26.3938 4.78139 27.2104 5.78455C27.5614 6.21571 27.9114 6.64557 28.2792 7.01564C28.3365 7.07107 28.3953 7.12815 28.4554 7.18655L28.4567 7.18786C29.5627 8.26177 31.1266 9.78028 32.3548 9.71036C33.0482 9.55432 33.8387 8.89126 34.5042 8.33309L34.5044 8.33294C34.767 8.11264 35.0102 7.90868 35.2202 7.75869L37.4469 6.16857L37.6499 6.01276C38.9491 5.01437 40.1669 4.07862 41.6123 4.30548C43.1373 4.70646 44.4688 5.93143 45.8004 7.1564C46.1333 7.46263 46.4392 7.7704 46.7451 8.07817L46.7451 8.0782C47.051 8.38598 47.3569 8.69376 47.6898 9C47.8032 9.11198 47.8979 9.21123 47.9791 9.29642L47.9792 9.29652C48.4557 9.79606 48.4715 9.81261 49.0978 9.08245C49.47 8.6769 49.8355 8.25319 50.2 7.83056C51.9946 5.75019 53.7666 3.69595 56.2006 3.96282C57.9886 4.17026 59.4585 5.44131 60.9391 6.72165L60.9391 6.72167C61.7941 7.46099 62.6527 8.20341 63.5781 8.74593C64.3474 9.18993 64.7792 9.16535 65.409 8.47911C65.9308 7.79902 66.5605 7.11279 67.1902 6.42656C67.4738 6.09011 67.7628 5.71392 68.0581 5.3295C68.9622 4.15274 69.9255 2.89881 70.9732 2.47149C72.2221 1.9937 73.2866 2.99576 74.3126 3.96158L74.3127 3.96169C74.5173 4.15424 74.7203 4.34535 74.9229 4.523C75.2612 4.83419 75.5922 5.13529 75.9178 5.43154L75.918 5.43164C76.8742 6.30152 77.7845 7.12953 78.6972 8.04786C79.4282 7.11197 80.1321 6.17762 80.8361 5.24326L80.8373 5.24161C81.5409 4.30781 82.2444 3.374 82.9749 2.43867C84.9631 0.0491385 86.8255 0.918699 88.7149 2.7623C89.4128 3.33776 90.0694 3.98023 90.7098 4.60673L90.7101 4.60699L90.7105 4.60741C91.0854 4.97419 91.4547 5.3355 91.8234 5.67468C92.0845 5.94577 92.3463 6.24476 92.611 6.54695C93.2493 7.27575 93.9039 8.02322 94.6035 8.44315L94.707 8.27466C94.8059 7.94384 94.9094 7.77535 95.0128 7.60687L96.2408 5.09802C96.5984 4.34598 96.9571 3.63452 97.3158 2.92307C97.6746 2.21161 98.0333 1.50016 98.3909 0.74812C98.8047 0.0741773 99.7673 -0.305814 100.325 0.312816L100.325 0.312904C101.994 2.00643 103.663 3.69994 105.431 5.06265L107.752 6.88166C107.899 6.98168 108.058 7.06298 108.216 7.14428L108.216 7.14432C108.533 7.30694 108.85 7.46956 109.075 7.78195C109.391 7.76396 109.538 7.92983 109.471 8.15462L109.619 7.91357C110.07 7.29169 110.483 6.58167 110.896 5.87165C111.722 4.45161 112.547 3.03158 113.681 2.31666C115.377 1.08195 116.713 2.46926 117.95 4.1874C118.468 4.80295 118.94 5.49215 119.428 6.20454L119.428 6.20471L119.428 6.20507C119.678 6.56999 119.933 6.94099 120.199 7.31128C120.308 7.46206 120.439 7.61156 120.574 7.76623L120.574 7.76629C120.86 8.09227 121.165 8.44117 121.324 8.87322C121.378 8.87015 121.406 8.90919 121.434 8.94824C121.462 8.98729 121.49 9.02634 121.544 9.02327C122.673 6.84524 124.455 4.79269 125.926 3.24559C127.711 1.35537 128.818 2.26795 130.384 4.12999C131.168 5.14191 131.979 6.11173 132.79 7.08155L132.79 7.08231L132.796 7.08893C133.062 7.4073 133.328 7.72568 133.593 8.04555Z" fill="#59C69F"/>
</svg>
