<svg width="205" height="13" viewBox="0 0 205 13" fill="none" xmlns="http://www.w3.org/2000/svg">
<path d="M204.203 9.31728C201.853 7.49806 199.345 5.82773 196.995 4.00851C194.65 2.33386 192.989 1.50947 190.271 3.17308C188.033 4.53461 185.321 6.3428 183.592 8.26972C183.429 8.27403 183.424 8.12945 183.261 8.13376C182.914 7.56406 182.083 7.15186 181.579 6.73105C180.401 5.74915 179.387 4.76294 178.215 3.92562C176.364 2.38263 174.361 1.13311 171.786 2.2141C169.207 3.1505 167.657 5.50686 165.592 7.15324C165.434 7.30213 165.276 7.45101 165.118 7.5999C165.597 7.29782 165.423 7.01297 164.771 7.0302C164.266 6.60938 163.446 6.48634 162.783 6.21442C161.621 5.66626 160.458 5.11809 159.296 4.56993C156.64 3.33764 154.138 1.81189 151.635 0.286136C150.799 -0.270642 149.341 0.0572899 148.709 0.652841C147.612 1.98421 146.511 3.17101 145.415 4.50238C144.788 5.24251 144.16 5.98264 143.533 6.72277C143.375 6.87166 143.217 7.02055 143.064 7.31401C142.906 7.4629 142.906 7.4629 142.906 7.4629C141.418 6.92336 140.072 5.80118 138.736 4.96817C137.238 4.13946 135.734 3.16618 134.072 2.34178C131.238 0.680066 128.434 -0.114175 125.406 1.99179C123.178 3.64248 121.113 5.28886 118.885 6.93955C117.05 5.8303 115.22 4.86563 113.222 3.76069C111.392 2.79603 109.546 1.39762 107.278 1.89167C105.172 2.38141 103.276 4.16807 101.522 5.37209C100.563 5.97626 99.6048 6.58042 98.8095 7.18028C97.851 7.78445 97.1984 7.80168 96.0413 7.3981C92.2385 6.05139 89.2057 3.38192 84.949 3.06019C80.5292 2.74277 77.521 5.42706 74.1663 7.54164C73.0497 8.2947 73.2078 8.14581 72.0405 7.45307C71.0414 6.9006 70.2054 6.34382 69.2063 5.79135C67.2081 4.68641 65.2099 3.58147 62.9108 3.20805C60.6168 2.9792 58.6897 3.89837 56.5994 4.82186C55.4727 5.28575 54.346 5.74965 53.2193 6.21354C52.0926 6.67744 50.3337 7.73688 48.8705 7.92024C46.9129 7.97193 44.4101 6.44618 42.7433 5.4772C40.9082 4.36795 39.3791 2.67177 37.08 2.29835C34.9441 1.92061 32.8487 2.69951 31.258 3.89923C29.5041 5.10326 27.9388 7.02587 25.6346 6.50787C23.3355 6.13444 21.4853 4.59145 19.4921 3.63109C17.3308 2.53046 15.0165 1.7233 12.3962 1.50307C7.64506 1.04968 2.80691 2.7693 0.328749 6.5973C-1.2163 9.09823 3.10129 11.1549 4.64633 8.65398C6.81346 5.26834 11.5443 5.14341 15.1891 6.63901C18.8338 8.1346 21.8717 10.9486 26.1182 10.9812C28.0809 11.0741 29.85 10.3038 31.4509 9.39326C32.7255 8.49131 34.9281 6.11773 36.5899 6.94213C38.2466 7.62194 39.7706 9.17354 41.4375 10.1425C43.2675 11.1072 45.4237 12.0632 47.3915 12.3007C49.5224 12.5339 51.2914 11.7636 53.2237 10.989C55.6402 10.0569 58.0415 8.69104 60.4631 7.90352C62.5635 7.2692 64.577 8.80788 66.2387 9.63227C67.9056 10.6012 69.761 12.2888 71.8918 12.522C75.6693 13.1458 78.6267 9.0157 81.6856 7.77721C85.2289 6.38122 88.7561 9.18234 91.7433 10.5506C93.5733 11.5153 95.7245 12.3267 97.835 11.9816C100.109 11.6321 102.01 9.99002 103.764 8.786C104.723 8.18183 106.145 6.84184 107.277 6.52253C107.44 6.51822 107.751 6.07586 107.751 6.07586C108.078 6.06725 109.25 6.90457 109.581 7.04053C111.916 8.42601 114.414 9.80719 116.748 11.1927C116.748 11.1927 116.911 11.1884 116.916 11.3329C117.752 11.8897 119.063 11.9998 120.011 11.1065C121.444 10.0557 122.713 9.00916 124.146 7.95833C124.778 7.36278 125.578 6.9075 126.211 6.31195C126.69 6.00986 127.633 4.97196 128.281 4.81015C129.581 4.6311 131.936 6.5949 132.935 7.14737C134.433 7.97608 135.769 8.80909 137.267 9.6378C139.602 11.0233 142.451 13.1187 144.991 11.0257C146.26 9.97917 147.188 8.50753 148.126 7.32504C148.753 6.58491 149.539 5.69589 150.166 4.95576C154.336 7.45049 158.658 9.65176 163.287 11.2661C166.096 12.2049 167.676 10.716 169.578 9.07396C170.526 8.18063 171.464 6.99815 172.586 6.38967C173.545 5.78551 172.902 6.0919 173.733 6.5041C174.233 6.78033 174.911 7.486 175.415 7.90681C176.593 8.88871 177.607 9.87492 178.779 10.7122C179.62 11.4136 180.635 12.3998 181.792 12.8034C184.432 13.6019 185.998 11.6793 187.747 10.3307C188.858 9.43308 189.97 8.53545 191.244 7.63351C191.244 7.63351 192.203 7.02934 192.682 6.72726C192.85 6.86753 193.018 7.0078 193.187 7.14807C195.536 8.96729 198.044 10.6376 200.394 12.4568C203.233 14.2631 206.553 11.1365 204.203 9.31728Z" fill="#F7C300"/>
</svg>
