<svg width="168" height="15" viewBox="0 0 168 15" fill="none" xmlns="http://www.w3.org/2000/svg">
<path d="M167.347 10.7507C165.421 8.65161 163.366 6.7243 161.44 4.6252C159.518 2.69292 158.156 1.74169 155.93 3.66125C154.095 5.23224 151.872 7.31862 150.456 9.54199C150.322 9.54696 150.318 9.38014 150.184 9.38511C149.9 8.72776 149.219 8.25215 148.806 7.76659C147.841 6.63363 147.01 5.4957 146.049 4.52956C144.533 2.74919 142.891 1.30743 140.781 2.55473C138.667 3.6352 137.397 6.35407 135.704 8.25374C135.575 8.42553 135.445 8.59732 135.316 8.76912C135.709 8.42056 135.567 8.09188 135.032 8.11177C134.618 7.62621 133.946 7.48424 133.403 7.17048C132.45 6.53799 131.498 5.90549 130.545 5.273C128.369 3.85113 126.318 2.09064 124.267 0.330157C123.581 -0.312279 122.387 0.0661037 121.868 0.753278C120.97 2.28948 120.067 3.65885 119.169 5.19505C118.655 6.04905 118.141 6.90305 117.627 7.75704C117.498 7.92884 117.368 8.10063 117.243 8.43925C117.113 8.61104 117.113 8.61104 117.113 8.61104C115.893 7.98849 114.791 6.69367 113.696 5.7325C112.468 4.77631 111.236 3.65329 109.874 2.70206C107.551 0.784691 105.254 -0.13174 102.772 2.29822C100.946 4.20286 99.2536 6.10253 97.4277 8.00717C95.9238 6.72727 94.4241 5.61419 92.7866 4.33926C91.2869 3.22618 89.7747 1.61264 87.9155 2.1827C86.19 2.74779 84.6357 4.80931 83.1984 6.19857C82.4129 6.89568 81.6274 7.5928 80.9756 8.28494C80.1901 8.98206 79.6553 9.00194 78.707 8.53627C75.5906 6.98237 73.1051 3.90222 69.6167 3.53099C65.9946 3.16474 63.5294 6.26199 60.7802 8.7019C59.8651 9.57081 59.9947 9.39901 59.038 8.5997C58.2193 7.96223 57.5342 7.31979 56.7154 6.68233C55.0779 5.4074 53.4403 4.13247 51.5562 3.70159C49.6762 3.43754 48.0969 4.49812 46.3839 5.56368C45.4606 6.09894 44.5372 6.63421 43.6139 7.16947C42.6905 7.70474 41.249 8.92717 40.05 9.13873C38.4457 9.19838 36.3946 7.4379 35.0286 6.31985C33.5248 5.03995 32.2717 3.08281 30.3875 2.65194C28.6371 2.21609 26.9199 3.11482 25.6163 4.49911C24.179 5.88837 22.8962 8.10678 21.0079 7.50908C19.1238 7.0782 17.6074 5.29783 15.974 4.18972C14.2028 2.91976 12.3062 1.98842 10.1589 1.73431C6.26522 1.21117 2.3003 3.19535 0.269414 7.61227C-0.99677 10.498 2.54154 12.8711 3.80773 9.98537C5.58371 6.07886 9.4607 5.9347 12.4476 7.66039C15.4345 9.38608 17.9241 12.6331 21.4042 12.6706C23.0126 12.7778 24.4624 11.889 25.7744 10.8384C26.8189 9.79767 28.624 7.05892 29.9859 8.01014C31.3436 8.79455 32.5925 10.5849 33.9585 11.7029C35.4582 12.816 37.2253 13.9191 38.8379 14.1931C40.5842 14.4621 42.034 13.5734 43.6174 12.6796C45.5978 11.6041 47.5657 10.0281 49.5503 9.11945C51.2716 8.38754 52.9216 10.1629 54.2835 11.1142C55.6495 12.2322 57.17 14.1794 58.9162 14.4484C62.0119 15.1682 64.4355 10.4027 66.9424 8.97371C69.8461 7.36294 72.7367 10.595 75.1847 12.1738C76.6844 13.2868 78.4474 14.2232 80.177 13.8249C82.0403 13.4216 83.5989 11.5269 85.0362 10.1377C85.8217 9.44057 86.9874 7.89443 87.9149 7.52599C88.0486 7.52102 88.3035 7.01061 88.3035 7.01061C88.5709 7.00067 89.5317 7.96681 89.8032 8.12369C91.7165 9.72232 93.7634 11.316 95.6766 12.9146C95.6766 12.9146 95.8103 12.9096 95.8145 13.0765C96.4996 13.7189 97.5732 13.846 98.3504 12.8152C99.5245 11.6027 100.565 10.3952 101.739 9.18269C102.257 8.49551 102.913 7.97019 103.431 7.28302C103.824 6.93446 104.597 5.73688 105.128 5.55017C106.193 5.34358 108.123 7.60951 108.942 8.24697C110.17 9.20317 111.264 10.1643 112.492 11.1205C114.406 12.7192 116.741 15.137 118.822 12.722C119.862 11.5144 120.622 9.81638 121.391 8.45197C121.905 7.59798 122.549 6.57219 123.063 5.71819C126.48 8.59672 130.022 11.1366 133.816 12.9993C136.117 14.0826 137.413 12.3647 138.971 10.47C139.748 9.43919 140.517 8.07479 141.436 7.3727C142.222 6.67558 141.695 7.02911 142.376 7.50473C142.786 7.82346 143.341 8.63769 143.755 9.12324C144.72 10.2562 145.551 11.3941 146.512 12.3603C147.201 13.1695 148.032 14.3075 148.981 14.7731C151.145 15.6945 152.427 13.4761 153.861 11.9201C154.771 10.8843 155.682 9.8486 156.727 8.80789C156.727 8.80789 157.512 8.11078 157.905 7.76222C158.043 7.92407 158.181 8.08592 158.319 8.24778C160.244 10.3469 162.3 12.2742 164.225 14.3733C166.552 16.4575 169.272 12.8498 167.347 10.7507Z" fill="#59C69F"/>
</svg>
