<svg width="65" height="64" viewBox="0 0 65 64" fill="none" xmlns="http://www.w3.org/2000/svg">
<path d="M37.3184 55.045C35.2189 55.045 33.0835 54.8083 30.9482 54.3203C25.0579 52.9734 19.5865 49.9499 15.5392 45.8054C11.6035 41.7727 9.37903 36.066 9.10911 29.2995C8.9828 26.131 9.25139 23.0676 9.91088 20.1916C10.1422 19.1784 10.4241 18.1852 10.7499 17.2385C12.3095 12.771 14.9395 9.10522 18.5641 6.33961C19.6637 5.49929 20.8816 4.73077 22.182 4.05266C29.346 0.187448 38.5842 -0.355038 46.28 2.63794C53.2938 5.36632 58.5046 10.7486 60.9497 17.7943C61.4843 19.1 61.9018 20.4097 62.2089 21.7566C62.5227 23.1367 62.7155 24.5594 62.7846 25.9874C62.9069 26.986 62.9881 27.9912 63.0253 28.9777C63.0625 29.9843 63.0492 30.9323 62.9854 31.8737C62.9216 32.815 62.8032 33.7684 62.6317 34.7058C62.1078 37.5671 61.1146 40.2463 59.6813 42.6728C55.0542 50.4897 46.5366 55.0436 37.3184 55.045Z" fill="#F7C300"/>
<path d="M33.5305 55.767C31.3752 55.767 29.1827 55.5237 26.9914 55.0237C20.9443 53.6409 15.328 50.5376 11.1729 46.2828C7.13221 42.1437 4.84926 36.284 4.57137 29.3381C4.44106 26.0858 4.71762 22.9399 5.3944 19.9882C5.6324 18.9484 5.92093 17.9286 6.25466 16.9566C7.85553 12.3695 10.5547 8.60663 14.2763 5.76789C15.4051 4.90629 16.655 4.11516 17.9899 3.41977C25.344 -0.547819 34.8282 -1.10493 42.7288 1.96783C49.9287 4.76801 55.2778 10.2939 57.7881 17.5271C58.3373 18.8673 58.7654 20.2116 59.0805 21.5957C59.4023 23.0117 59.6017 24.4743 59.6709 25.9396C59.7972 26.9647 59.8796 27.9965 59.9182 29.0097C59.9554 30.0428 59.9435 31.0161 59.877 31.9827C59.8118 32.9493 59.6895 33.9266 59.514 34.8906C58.9768 37.8277 57.957 40.5787 56.4851 43.0691C51.737 51.0907 42.9934 55.7656 33.5305 55.767ZM31.9882 2.16461C27.4541 2.16461 22.9228 3.2323 19.0323 5.33177C17.7958 5.97663 16.6496 6.70128 15.6152 7.49107C12.2193 10.0785 9.75821 13.5156 8.29563 17.7052C7.98849 18.6001 7.7199 19.5441 7.50052 20.5081C6.86895 23.2617 6.611 26.2002 6.73333 29.245C6.98862 35.6471 9.06947 41.0241 12.7485 44.7923C16.6044 48.7426 21.8272 51.6265 27.4542 52.911C38.3424 55.4 49.2599 50.991 54.613 41.9429C55.9599 39.6666 56.8933 37.1483 57.3853 34.4571C57.5462 33.5729 57.6578 32.6741 57.7177 31.7873C57.7788 30.8951 57.7908 29.9976 57.7562 29.0416C57.7203 28.0856 57.6419 27.111 57.5209 26.1443L57.5156 26.0845C57.4531 24.7323 57.2709 23.384 56.9744 22.0784C56.6859 20.8099 56.2923 19.5747 55.7724 18.3036C53.4549 11.6289 48.5446 6.55768 41.9337 3.98619C38.7985 2.76826 35.392 2.16461 31.9882 2.16461Z" fill="#1E1E1E"/>
<path d="M24.8821 56.9636C21.5913 56.3001 18.6103 55.0037 15.8726 53.0532C15.2876 52.6357 14.3927 52.9495 14.0537 53.5305C13.6628 54.198 13.9433 54.9319 14.531 55.3494C17.403 57.3957 20.7191 58.8304 24.1748 59.5271C24.8781 59.6694 25.6108 59.325 25.8102 58.599C25.991 57.9435 25.5895 57.1059 24.8821 56.9636Z" fill="#1E1E1E"/>
<path d="M63.1941 61.3408C42.553 61.3342 21.9133 60.9872 1.28292 60.2997C-0.428304 60.2426 -0.426975 62.9018 1.28292 62.959C21.9133 63.6464 42.553 63.9934 63.1941 64.0001C64.9053 64.0001 64.908 61.3408 63.1941 61.3408Z" fill="#1E1E1E"/>
<path d="M41.6646 56.9636C44.9554 56.3001 47.9364 55.0037 50.6741 53.0532C51.2591 52.6357 52.1539 52.9495 52.493 53.5305C52.8839 54.198 52.6034 54.9319 52.0157 55.3494C49.1437 57.3957 45.8276 58.8304 42.3719 59.5271C41.6686 59.6694 40.9359 59.325 40.7365 58.599C40.557 57.9435 40.9572 57.1059 41.6646 56.9636Z" fill="#1E1E1E"/>
<path d="M46.4876 10.7539C42.2567 7.59604 37.1231 5.47263 31.7939 5.40349C26.6137 5.33568 21.6396 7.37665 17.8755 10.9041C16.6243 12.0769 18.507 13.9543 19.7555 12.7842C23.1354 9.61574 27.6003 7.90584 32.2367 8.07337C36.9608 8.24356 41.4031 10.2566 45.1447 13.0501C46.5182 14.074 47.8451 11.7671 46.4876 10.7539Z" fill="#1E1E1E"/>
<path d="M37.9421 44.0051C34.0384 46.3319 29.2557 45.9503 25.1179 44.4824C24.4412 44.2418 23.6633 44.755 23.4825 45.4105C23.2804 46.1458 23.7325 46.8053 24.4106 47.0459C29.2052 48.7478 34.7936 48.9792 39.2837 46.3013C40.7529 45.4251 39.4167 43.1249 37.9421 44.0051Z" fill="#1E1E1E"/>
<path d="M55.0437 25.8825C54.7059 25.0196 54.2206 24.275 53.4548 23.7312C52.7075 23.2007 51.7063 23.0225 50.8234 23.2685C50.7038 23.3017 50.6001 23.3722 50.495 23.4387C50.3009 23.452 50.1068 23.4945 49.918 23.5929C48.6801 24.2404 47.9648 25.5395 47.8411 26.897C47.7786 27.5871 47.9568 28.3184 48.2852 28.9247C48.6735 29.6427 49.3356 30.1107 50.0802 30.3979C51.2542 30.85 52.778 30.6545 53.8085 29.9352C54.4414 29.4924 54.9267 28.934 55.1833 28.1974C55.4452 27.4488 55.3269 26.6058 55.0437 25.8825ZM52.0839 27.8583C52.0773 27.861 52.0666 27.865 52.0613 27.8663C52.0081 27.8836 51.9536 27.9009 51.9004 27.9155C51.8552 27.9275 51.8087 27.9341 51.7622 27.9448C51.588 27.9607 51.4125 27.9607 51.237 27.9501C51.1146 27.9235 50.991 27.8982 50.87 27.8597C50.8487 27.849 50.8274 27.8371 50.8075 27.8251C50.7822 27.8105 50.7583 27.7945 50.7344 27.7786C50.7038 27.7466 50.6612 27.6988 50.6267 27.6642C50.624 27.6602 50.6187 27.6522 50.6174 27.6509C50.5987 27.6203 50.5828 27.5884 50.5655 27.5565C50.5522 27.5086 50.5336 27.4594 50.5203 27.4116C50.5136 27.3876 50.5123 27.3637 50.5057 27.3384C50.4964 27.2108 50.499 27.0845 50.507 26.9568C50.5323 26.8345 50.5522 26.7109 50.5934 26.5925C50.6014 26.5739 50.6107 26.5566 50.6147 26.5473C50.6586 26.4609 50.7078 26.3771 50.761 26.2947C50.7689 26.2841 50.7756 26.2734 50.7836 26.2628C50.8434 26.1963 50.9032 26.1312 50.9697 26.07C50.9817 26.0594 50.9936 26.0487 51.0056 26.0381C51.088 25.9849 51.1705 25.9344 51.2556 25.8892C51.2755 25.8785 51.2848 25.8586 51.3034 25.8466C51.3779 25.84 51.4497 25.8533 51.5255 25.832C51.5308 25.8307 51.5361 25.8307 51.5401 25.8293C51.592 25.8267 51.6438 25.8253 51.6957 25.8267C51.7396 25.8373 51.7848 25.844 51.83 25.8559C51.8712 25.8785 51.9137 25.8998 51.9536 25.9237C51.9749 25.937 51.9975 25.9517 52.0201 25.9676C52.0281 25.9743 52.0361 25.9809 52.044 25.9889C52.0906 26.0328 52.1358 26.078 52.1797 26.1245C52.1863 26.1312 52.1916 26.1391 52.1983 26.1458C52.2475 26.2375 52.3286 26.3319 52.3764 26.4157C52.4256 26.5034 52.4669 26.6085 52.5174 26.6989C52.5214 26.7095 52.5267 26.7215 52.5307 26.7321C52.5546 26.8 52.5772 26.8664 52.5972 26.9356C52.6211 27.014 52.6331 27.0951 52.6503 27.1749C52.6543 27.248 52.653 27.3212 52.649 27.393C52.6291 27.4302 52.6091 27.4661 52.5865 27.5007C52.5692 27.5193 52.5546 27.5379 52.5453 27.5472C52.4496 27.6469 52.173 27.8158 52.5174 27.5991C52.423 27.6589 52.3339 27.7254 52.2355 27.7799C52.2116 27.7985 52.1398 27.8317 52.0839 27.8583Z" fill="#1E1E1E"/>
<path d="M15.675 25.8825C15.3373 25.0196 14.852 24.275 14.0861 23.7312C13.3389 23.2007 12.3377 23.0225 11.4548 23.2685C11.3351 23.3017 11.2314 23.3722 11.1264 23.4387C10.9323 23.452 10.7381 23.4945 10.5493 23.5929C9.31145 24.2404 8.59611 25.5395 8.47246 26.897C8.40997 27.5871 8.58814 28.3184 8.91655 28.9247C9.3048 29.6427 9.96695 30.1107 10.7115 30.3979C11.8856 30.85 13.4093 30.6545 14.4398 29.9352C15.0727 29.4924 15.558 28.934 15.8146 28.1974C16.0766 27.4488 15.9596 26.6058 15.675 25.8825ZM12.7166 27.8583C12.71 27.861 12.6993 27.865 12.694 27.8663C12.6408 27.8836 12.5863 27.9009 12.5331 27.9155C12.4879 27.9275 12.4414 27.9341 12.3948 27.9448C12.2207 27.9607 12.0452 27.9607 11.8696 27.9501C11.7473 27.9235 11.6237 27.8982 11.5027 27.8597C11.4814 27.849 11.4601 27.8371 11.4402 27.8251C11.4149 27.8105 11.391 27.7945 11.367 27.7786C11.3365 27.7466 11.2939 27.6988 11.2593 27.6642C11.2567 27.6602 11.2514 27.6522 11.25 27.6509C11.2314 27.6203 11.2155 27.5884 11.1982 27.5565C11.1849 27.5086 11.1663 27.4594 11.153 27.4116C11.1463 27.3876 11.145 27.3637 11.1383 27.3384C11.129 27.2108 11.1317 27.0845 11.1397 26.9568C11.1649 26.8345 11.1849 26.7109 11.2261 26.5925C11.2341 26.5739 11.2434 26.5566 11.2474 26.5473C11.2913 26.4609 11.3405 26.3771 11.3936 26.2947C11.4016 26.2841 11.4083 26.2734 11.4162 26.2628C11.4761 26.1963 11.5359 26.1312 11.6024 26.07C11.6144 26.0594 11.6263 26.0487 11.6383 26.0381C11.7207 25.9849 11.8032 25.9344 11.8883 25.8892C11.9082 25.8785 11.9175 25.8586 11.9361 25.8466C12.0106 25.84 12.0824 25.8533 12.1582 25.832C12.1635 25.8307 12.1688 25.8307 12.1728 25.8293C12.2246 25.8267 12.2765 25.8253 12.3284 25.8267C12.3722 25.8373 12.4174 25.844 12.4627 25.8559C12.5039 25.8785 12.5464 25.8998 12.5863 25.9237C12.6076 25.937 12.6302 25.9517 12.6528 25.9676C12.6608 25.9743 12.6687 25.9809 12.6767 25.9889C12.7233 26.0328 12.7685 26.078 12.8123 26.1245C12.819 26.1312 12.8243 26.1391 12.831 26.1458C12.8802 26.2375 12.9613 26.3319 13.0091 26.4157C13.0583 26.5034 13.0995 26.6085 13.1501 26.6989C13.1541 26.7095 13.1594 26.7215 13.1634 26.7321C13.1873 26.8 13.2099 26.8664 13.2298 26.9356C13.2538 27.014 13.2657 27.0951 13.283 27.1749C13.287 27.248 13.2857 27.3212 13.2817 27.393C13.2618 27.4302 13.2418 27.4661 13.2192 27.5007C13.2019 27.5193 13.1873 27.5379 13.178 27.5472C13.0823 27.6469 12.8057 27.8158 13.1501 27.5991C13.0557 27.6589 12.9666 27.7254 12.8682 27.7799C12.8429 27.7985 12.7725 27.8317 12.7166 27.8583Z" fill="#1E1E1E"/>
<path d="M42.9689 18.5282C42.9038 17.6294 42.1299 17.2172 41.4319 17.269C38.2514 16.7079 35.172 15.7001 32.3 14.2162C32.1245 14.1245 31.9357 14.0806 31.7456 14.0646C31.5049 13.9596 31.231 13.9091 30.9066 13.9968C29.2592 14.4423 27.6131 14.8996 25.9631 15.3318C24.4114 15.7386 22.8491 16.0936 21.2416 16.1535C21.1445 16.1575 21.0568 16.1934 20.965 16.216C20.4425 16.2146 19.9412 16.4885 19.787 17.1547C18.6954 21.8376 19.4719 26.6149 21.3652 30.9841C22.276 33.0849 23.4248 35.1192 24.8568 36.9102C26.4324 38.8794 28.5292 40.0228 30.7816 41.0626C30.9718 41.1504 31.1579 41.1903 31.3374 41.1956C31.7031 41.4416 32.1737 41.5346 32.675 41.27C34.6176 40.2476 36.5628 39.1945 38.2155 37.7292C39.8191 36.3092 40.9838 34.5009 41.7896 32.5291C43.6032 28.0895 43.3107 23.2085 42.9689 18.5282ZM40.4613 26.5604C34.5538 27.1069 28.6157 27.1747 22.6975 26.7506C22.5765 26.3011 22.4382 25.8571 22.3452 25.4023C28.3896 26.4926 34.5046 25.8212 40.5543 24.9928C40.5371 25.5167 40.5078 26.0392 40.4613 26.5604ZM22.1909 18.7436C25.2743 18.4697 28.2966 17.4765 31.2683 16.6587C34.1522 18.1147 37.2236 19.1691 40.3988 19.7634C40.4586 20.617 40.5091 21.4746 40.5424 22.3336C34.4075 23.1819 28.1064 23.9703 21.9862 22.6487C21.9117 21.347 21.9649 20.0386 22.1909 18.7436ZM31.9065 38.6626C30.065 37.8077 28.2939 36.9062 26.9683 35.3133C25.6626 33.7444 24.6401 31.8483 23.8131 29.9895C23.736 29.8153 23.6828 29.6319 23.6096 29.4563C29.0824 29.802 34.5671 29.7342 40.0305 29.2516C39.8829 29.8938 39.7114 30.532 39.4813 31.1609C38.1225 34.8825 35.2146 36.8783 31.9065 38.6626Z" fill="#1E1E1E"/>
<path d="M34.005 33.2154C33.9478 32.8351 33.7284 32.4894 33.4771 32.2088C33.3202 32.036 33.1061 31.9004 32.8814 31.79C32.8548 31.7754 32.8349 31.7501 32.8096 31.7382C32.4865 31.5866 32.2871 31.5294 31.9254 31.5068C31.5731 31.4855 31.1144 31.6065 30.8218 31.8073C30.8086 31.8166 30.8019 31.8246 30.7899 31.8339C30.5931 31.9403 30.407 32.0692 30.2608 32.2288C30.0241 32.4867 29.8712 32.8125 29.8712 33.1688C29.8685 33.2406 29.9044 33.3031 29.9164 33.3709C29.9137 33.4813 29.9204 33.5903 29.9376 33.7206C29.9509 33.8177 29.9589 33.9174 29.9855 34.0118C30.0281 34.1621 30.1025 34.3163 30.165 34.4533C30.1703 34.4665 30.1796 34.4772 30.1863 34.4905C30.2262 34.6008 30.2541 34.7165 30.3206 34.8109C30.4988 35.0675 30.6689 35.2497 30.9389 35.4172C30.9654 35.4332 31 35.4372 31.0279 35.4531C31.3324 35.6725 31.6821 35.8254 32.0704 35.8254C32.1515 35.8254 32.2219 35.8108 32.307 35.8002C32.3775 35.7908 32.4666 35.7842 32.5424 35.7656C32.694 35.7257 32.8402 35.6552 32.9798 35.5861C33.1434 35.5037 33.291 35.3813 33.4199 35.2563C33.6859 34.9997 33.8574 34.6753 33.9704 34.3283C34.0262 34.1581 34.0422 33.952 34.0581 33.7845C34.0714 33.593 34.0329 33.4015 34.005 33.2154Z" fill="#1E1E1E"/>
</svg>
