<svg width="63" height="64" viewBox="0 0 63 64" fill="none" xmlns="http://www.w3.org/2000/svg">
<path d="M58.8691 57.2164C58.3867 44.8789 58.2638 32.5307 58.5076 20.1857C58.5245 19.3556 58.1408 18.7821 57.6022 18.4567C57.2238 18.0422 56.6884 17.7782 56.064 17.7612C53.3947 17.687 50.7253 17.6139 48.0559 17.5397C48.2213 15.9845 48.3263 14.424 48.3411 12.8561C48.3411 12.8444 48.3379 12.8328 48.3379 12.82C48.3602 12.6939 48.3719 12.5656 48.3666 12.4352C48.3146 11.2786 47.4358 10.3245 46.2463 10.315C42.2836 10.2832 38.3241 10.1348 34.3689 9.90792C34.8554 9.09164 35.2159 8.20221 35.3993 7.26507C35.7025 5.71412 35.6781 4.1653 35.589 2.59634C35.5329 1.59453 34.8109 0.631953 33.7911 0.499439C33.5791 0.425231 33.3533 0.376466 33.1105 0.379647C29.7436 0.416751 26.3777 0.292717 23.0235 0.00542685C22.75 -0.0178956 22.4797 0.0351107 22.2285 0.142182C21.2383 0.349964 20.5588 1.15671 20.5015 2.21046C20.3892 4.28827 20.4602 6.37139 20.7146 8.43755C20.7295 8.55522 20.7475 8.66547 20.7687 8.77572C20.7655 8.80011 20.7623 8.82449 20.7592 8.84887C20.7602 9.23157 20.8567 9.58883 21.0486 9.91852C21.1588 10.0616 21.2691 10.2048 21.3804 10.3479C21.5998 10.5652 21.8595 10.7136 22.1426 10.8207V11.302C21.9698 11.3253 21.7981 11.355 21.6316 11.391C21.4821 11.426 21.3454 11.4832 21.2171 11.5543C20.5196 11.7525 19.8952 12.2359 19.7944 12.9833C19.5072 15.1215 19.7563 17.1421 20.1496 19.2549C20.2344 19.7086 20.3213 20.1613 20.4019 20.615C20.4422 20.8419 20.4803 21.0677 20.5164 21.2956C20.5302 21.3826 20.5429 21.4706 20.5556 21.5575C20.5567 21.5723 20.5577 21.5829 20.5609 21.6052C20.598 22.0589 20.6489 22.5073 20.6584 22.9632C20.6584 23.0024 20.6574 23.0427 20.6574 23.0819C17.3435 23.189 14.0274 23.2314 10.7125 23.1667C10.2959 23.1582 9.88665 23.2961 9.53999 23.5314C8.96329 23.8494 8.54243 24.4367 8.54561 25.3007C8.57423 32.0939 8.6071 38.8871 8.63996 45.6803C8.65586 48.99 8.67176 52.2996 8.68767 55.6093C8.69509 57.1051 8.38447 59.1246 9.87711 60.048C11.181 60.8547 13.1232 60.4561 14.5808 60.4137C14.9487 60.4031 15.2625 60.312 15.5307 60.171C29.3747 59.6027 43.2441 59.1639 57.0743 60.2293C58.8945 60.3692 59.4839 58.5204 58.8691 57.2164Z" fill="#F7C300"/>
<path d="M61.1821 61.8767C59.7467 61.8184 58.3092 61.7739 56.8738 61.724C56.5653 57.3331 56.3851 52.9336 56.3458 48.532C56.3342 47.1687 54.2139 47.1655 54.2256 48.532C54.2638 52.9092 54.444 57.2822 54.7482 61.6488C51.5976 61.547 48.448 61.458 45.2963 61.3912C45.3843 48.3062 45.4712 35.2202 45.5581 22.1353C47.8586 21.9455 50.1664 21.9084 52.4711 22.0653C52.7796 22.0865 54.162 22.0123 54.4048 22.2423C54.6019 22.43 54.4249 23.6194 54.4302 23.9321C54.4525 25.2456 54.4747 26.5602 54.4959 27.8736C54.5829 33.0565 54.6698 38.2383 54.7557 43.4212C54.7779 44.7845 56.8981 44.7888 56.8759 43.4212C56.7762 37.4358 56.6766 31.4505 56.5759 25.4651C56.5547 24.2343 56.8006 22.6388 56.3999 21.4642C56.0193 20.3479 54.9899 20.1794 53.9606 20.0723C53.4146 20.015 52.8687 19.979 52.3216 19.944C51.9623 16.7404 51.9199 13.5123 52.2294 10.3012C52.2845 9.7309 51.7025 9.24113 51.1693 9.24113C50.5502 9.24113 50.1643 9.72878 50.1092 10.3012C49.8028 13.4848 49.842 16.6842 50.1929 19.8613C48.6515 19.8401 47.1091 19.891 45.5719 20.0172L45.6143 13.6872C45.6196 12.7734 44.6782 12.4851 44.0485 12.7967C42.1541 12.8476 40.2586 12.8996 38.3642 12.9505C37.8108 12.9653 37.2776 13.4275 37.3041 14.0106C37.3296 14.5724 37.7706 15.0866 38.3642 15.0707C40.071 15.0251 41.7788 14.9785 43.4856 14.9329C43.3817 30.4073 43.28 45.8817 43.1761 61.3572C41.8679 61.3329 40.5597 61.3318 39.2515 61.3148C39.3088 60.206 39.3576 59.0971 39.3692 57.9861C39.3756 57.3362 39.3745 56.6864 39.366 56.0365C39.3575 55.4227 39.4243 54.7284 39.278 54.1262C38.9589 52.8149 37.6285 52.8106 36.5366 52.7513C35.1712 52.6771 33.8036 52.6421 32.4361 52.6442C29.7985 52.6495 27.1504 52.7799 24.5298 53.0873C23.9881 53.1509 23.4771 53.2315 23.1177 53.6905C22.7329 54.1835 22.7891 54.8429 22.787 55.4323C22.7827 56.7988 22.8357 58.1642 22.9375 59.5264C23.0382 60.8791 25.1595 60.8897 25.0577 59.5264C24.9506 58.0932 24.8468 56.6143 24.904 55.1673C25.1075 55.1461 25.3111 55.1249 25.5146 55.1047C25.9365 55.0634 26.3595 55.0263 26.7825 54.9934C27.6285 54.9266 28.4766 54.8736 29.3236 54.8365C31.1131 54.757 32.9068 54.7432 34.6973 54.7952C35.1213 54.8079 35.5454 54.8238 35.9694 54.8429C36.3521 54.8609 36.8355 54.9796 37.2129 54.915C37.2193 55.0443 37.2278 55.1768 37.2288 55.2001C37.2405 55.6645 37.2479 56.1288 37.2511 56.592C37.2617 58.1589 37.2172 59.7257 37.1366 61.2905C35.4521 61.2724 33.7665 61.2682 32.0809 61.2576C31.9728 60.0151 31.9251 58.7685 31.958 57.5207C31.9728 56.9663 31.4597 56.4352 30.8979 56.4606C30.3106 56.4871 29.8537 56.926 29.8378 57.5207C29.8038 58.7632 29.8526 60.0056 29.9597 61.2438C26.7316 61.2332 23.5025 61.2353 20.2745 61.2671L19.649 15.112C24.5966 15.1131 29.543 15.1141 34.4906 15.1152C35.8549 15.1152 35.8571 12.995 34.4906 12.995L30.4388 12.9939C30.4378 12.0578 30.4081 11.1228 30.3572 10.1889C31.3166 10.1009 32.2145 9.85388 32.6757 8.85101C33.2312 7.63825 33.3202 6.04384 33.2916 4.72718C33.2619 3.37872 32.6078 2.40978 31.1989 2.29847C29.6671 2.17761 28.0949 2.255 26.5578 2.23804C24.9973 2.22108 23.4368 2.20412 21.8763 2.18715C21.8562 2.18291 21.8435 2.16595 21.8223 2.16277C20.5936 1.97725 19.226 2.0663 18.7034 3.4031C18.4755 3.98616 18.4787 4.64767 18.4628 5.26678C18.4447 5.95373 18.4787 6.65976 18.6515 7.32869C18.9483 8.47785 19.7095 9.5263 20.8353 9.96519C20.8512 9.97155 20.8703 9.97261 20.8862 9.97897C20.8798 10.0182 20.8618 10.0511 20.8597 10.0924C20.8056 11.0635 20.8915 12.0356 21.06 12.9918C20.1897 12.9918 19.3193 12.9918 18.449 12.9918C17.5691 12.9918 17.2638 13.8685 17.5193 14.495C17.5447 16.4128 17.5712 18.3305 17.5977 20.2493C14.0612 19.9525 10.5088 19.9355 6.97116 20.2101C6.64783 20.2355 6.3616 20.3882 6.16442 20.6182C5.87607 20.7751 5.66086 21.0561 5.67783 21.4928C6.08173 31.971 4.60499 42.447 5.51881 52.9156C5.63648 54.264 7.75776 54.2768 7.63903 52.9156C6.74854 42.7099 8.11714 32.4968 7.81289 22.2826C11.0823 22.0717 14.3612 22.096 17.6274 22.3717C17.8034 35.3474 17.9794 48.3221 18.1553 61.2979C14.7121 61.3413 11.2689 61.4081 7.82667 61.4908C7.82879 61.4558 7.84681 61.4272 7.84469 61.3922C7.77791 59.942 7.74716 58.4896 7.75352 57.0373C7.75564 56.4829 7.26481 55.9517 6.69341 55.9772C6.11671 56.0026 5.63542 56.4426 5.6333 57.0373C5.62694 58.4896 5.65662 59.942 5.72447 61.3922C5.72659 61.4463 5.75097 61.4951 5.76051 61.5481C4.17989 61.5905 2.59926 61.6255 1.01864 61.6795C-0.342544 61.7262 -0.339363 63.8464 1.02712 63.7997C15.2241 63.3163 29.4307 63.2167 43.6319 63.4838C43.9743 63.6927 44.4249 63.699 44.7768 63.504C50.2491 63.6142 55.7204 63.7764 61.1895 63.999C62.5549 64.052 62.5432 61.9318 61.1821 61.8767ZM23.1654 12.9918C23.1622 12.925 23.1718 12.8603 23.158 12.7914C23.1156 12.5837 23.0838 12.3738 23.052 12.1639C22.9788 11.5532 22.9576 10.9394 22.9788 10.3256C23.652 10.3479 24.3294 10.3256 24.9485 10.3341C26.0457 10.3489 27.143 10.3277 28.2402 10.2885C28.2858 11.1896 28.3165 12.0907 28.3186 12.9929C26.6012 12.9918 24.8828 12.9918 23.1654 12.9918ZM20.5978 6.16363C20.5533 5.6516 20.478 4.88938 20.6243 4.39324C20.6742 4.22469 20.6159 4.22787 20.7367 4.17592C20.7971 4.15048 20.8915 4.15366 20.9879 4.16426C21.1289 4.24377 21.2911 4.29996 21.4915 4.30208C24.1937 4.33176 26.8959 4.36144 29.5971 4.39007C29.9353 4.39431 30.2724 4.39643 30.6106 4.40067C30.7049 4.40173 30.9996 4.37098 31.1587 4.40703C31.1502 4.43777 31.1746 4.5194 31.1682 4.60633C31.1459 4.92224 31.1746 5.24663 31.1587 5.56467C31.1279 6.19013 31.0452 6.80606 30.9063 7.41668C30.882 7.52375 30.8449 7.91917 30.7579 8.00186C30.6424 8.11105 30.248 8.07607 30.1187 8.08455C28.7755 8.1736 27.4292 8.21601 26.0828 8.22131C24.781 8.22555 23.4251 8.27007 22.1307 8.11211C21.0865 7.98384 20.6848 7.13999 20.5978 6.16363Z" fill="#1E1E1E"/>
<path d="M53.259 27.1994C53.2494 26.6184 53.3289 25.9378 53.1455 25.3792C52.6674 23.9204 50.8748 24.2788 49.6853 24.3C48.3083 24.3244 46.9312 24.3487 45.5541 24.3721C44.9997 24.3816 44.4685 24.8523 44.494 25.4322C44.5194 25.9983 44.9594 26.5029 45.5541 26.4923C47.1315 26.4647 48.709 26.4372 50.2854 26.4096C50.5652 26.4043 50.8462 26.399 51.126 26.3947C51.1313 26.7064 51.1366 27.0192 51.1419 27.3319C51.143 27.44 51.1451 27.5492 51.1472 27.6573C50.9331 27.6648 50.719 27.6711 50.5059 27.6754C49.979 27.687 49.4511 27.6923 48.9242 27.6913C47.8694 27.6891 46.8156 27.6595 45.7619 27.6065C45.2074 27.5789 44.6774 28.1142 44.7018 28.6666C44.7283 29.2645 45.1672 29.697 45.7619 29.7267C46.9683 29.7871 48.1768 29.8168 49.3853 29.8104C49.979 29.8072 50.5716 29.7966 51.1653 29.7765C51.8649 29.7532 52.7067 29.82 53.1159 29.1214C53.4212 28.5977 53.2685 27.7835 53.259 27.1994Z" fill="#1E1E1E"/>
<path d="M53.259 34.5968C53.2494 34.0159 53.3289 33.3353 53.1455 32.7766C52.6674 31.3179 50.8748 31.6762 49.6853 31.6974C48.3083 31.7218 46.9312 31.7462 45.5541 31.7695C44.9997 31.7791 44.4685 32.2497 44.494 32.8296C44.5194 33.3957 44.9594 33.9003 45.5541 33.8897C47.1315 33.8622 48.709 33.8346 50.2854 33.8071C50.5652 33.8018 50.8462 33.7965 51.126 33.7922C51.1313 34.1039 51.1366 34.4166 51.1419 34.7293C51.143 34.8375 51.1451 34.9467 51.1472 35.0548C50.9331 35.0622 50.719 35.0686 50.5059 35.0728C49.979 35.0845 49.4511 35.0898 48.9242 35.0887C47.8694 35.0866 46.8156 35.0569 45.7619 35.0039C45.2074 34.9764 44.6774 35.5117 44.7018 36.064C44.7283 36.6619 45.1672 37.0945 45.7619 37.1241C46.9683 37.1846 48.1768 37.2142 49.3853 37.2079C49.979 37.2047 50.5716 37.1941 51.1653 37.174C51.8649 37.1506 52.7067 37.2174 53.1159 36.5188C53.4212 35.9951 53.2685 35.181 53.259 34.5968Z" fill="#1E1E1E"/>
<path d="M53.259 41.9953C53.2494 41.4143 53.3289 40.7337 53.1455 40.1751C52.6674 38.7163 50.8748 39.0747 49.6853 39.0959C48.3083 39.1202 46.9312 39.1446 45.5541 39.168C44.9997 39.1775 44.4685 39.6482 44.494 40.2281C44.5194 40.7942 44.9594 41.2988 45.5541 41.2882C47.1315 41.2606 48.709 41.2331 50.2854 41.2055C50.5652 41.2002 50.8462 41.1949 51.126 41.1906C51.1313 41.5023 51.1366 41.8151 51.1419 42.1278C51.143 42.2359 51.1451 42.3451 51.1472 42.4532C50.9331 42.4607 50.719 42.467 50.5059 42.4713C49.979 42.4829 49.4511 42.4882 48.9242 42.4872C47.8694 42.485 46.8156 42.4554 45.7619 42.4024C45.2074 42.3748 44.6774 42.9101 44.7018 43.4625C44.7283 44.0604 45.1672 44.4929 45.7619 44.5226C46.9683 44.583 48.1768 44.6127 49.3853 44.6063C49.979 44.6031 50.5716 44.5925 51.1653 44.5724C51.8649 44.5491 52.7067 44.6159 53.1159 43.9173C53.4212 43.3925 53.2685 42.5783 53.259 41.9953Z" fill="#1E1E1E"/>
<path d="M53.259 49.3927C53.2494 48.8118 53.3289 48.1312 53.1455 47.5725C52.6674 46.1138 50.8748 46.4721 49.6853 46.4933C48.3083 46.5177 46.9312 46.5421 45.5541 46.5654C44.9997 46.575 44.4685 47.0456 44.494 47.6255C44.5194 48.1916 44.9594 48.6962 45.5541 48.6856C47.1315 48.6581 48.709 48.6305 50.2854 48.603C50.5652 48.5976 50.8462 48.5923 51.126 48.5881C51.1313 48.8998 51.1366 49.2125 51.1419 49.5252C51.143 49.6334 51.1451 49.7426 51.1472 49.8507C50.9331 49.8581 50.719 49.8645 50.5059 49.8687C49.979 49.8804 49.4511 49.8857 48.9242 49.8846C47.8694 49.8825 46.8156 49.8528 45.7619 49.7998C45.2074 49.7723 44.6774 50.3076 44.7018 50.8599C44.7283 51.4578 45.1672 51.8904 45.7619 51.92C46.9683 51.9805 48.1768 52.0101 49.3853 52.0038C49.979 52.0006 50.5716 51.99 51.1653 51.9699C51.8649 51.9465 52.7067 52.0133 53.1159 51.3147C53.4212 50.791 53.2685 49.9769 53.259 49.3927Z" fill="#1E1E1E"/>
<path d="M9.69363 49.0513C9.70317 49.6323 9.62367 50.3129 9.80707 50.8716C10.2852 52.3303 12.0778 51.972 13.2673 51.9508C14.6444 51.9264 16.0214 51.902 17.3985 51.8787C17.953 51.8691 18.4841 51.3984 18.4586 50.8186C18.4332 50.2525 17.9932 49.7478 17.3985 49.7584C15.8211 49.786 14.2436 49.8136 12.6672 49.8411C12.3874 49.8464 12.1064 49.8517 11.8266 49.856C11.8213 49.5443 11.816 49.2316 11.8107 48.9188C11.8096 48.8107 11.8075 48.7015 11.8054 48.5934C12.0195 48.586 12.2337 48.5796 12.4467 48.5754C12.9736 48.5637 13.5016 48.5584 14.0284 48.5595C15.0832 48.5616 16.137 48.5913 17.1907 48.6443C17.7452 48.6718 18.2752 48.1365 18.2508 47.5842C18.2243 46.9863 17.7855 46.5537 17.1907 46.524C15.9843 46.4636 14.7758 46.4339 13.5673 46.4403C12.9736 46.4435 12.381 46.4541 11.7874 46.4742C11.0877 46.4975 10.246 46.4308 9.83675 47.1294C9.53144 47.6531 9.68409 48.4672 9.69363 49.0513Z" fill="#1E1E1E"/>
<path d="M9.69363 41.6541C9.70317 42.2351 9.62367 42.9157 9.80707 43.4743C10.2852 44.9331 12.0778 44.5747 13.2673 44.5535C14.6444 44.5292 16.0214 44.5048 17.3985 44.4815C17.953 44.4719 18.4841 44.0012 18.4586 43.4213C18.4332 42.8552 17.9932 42.3506 17.3985 42.3612C15.8211 42.3888 14.2436 42.4164 12.6672 42.4439C12.3874 42.4492 12.1064 42.4545 11.8266 42.4588C11.8213 42.1471 11.816 41.8344 11.8107 41.5216C11.8096 41.4135 11.8075 41.3043 11.8054 41.1962C12.0195 41.1887 12.2337 41.1824 12.4467 41.1781C12.9736 41.1665 13.5016 41.1612 14.0284 41.1622C15.0832 41.1644 16.137 41.194 17.1907 41.2471C17.7452 41.2746 18.2752 40.7393 18.2508 40.1869C18.2243 39.589 17.7855 39.1565 17.1907 39.1268C15.9843 39.0664 14.7758 39.0367 13.5673 39.0431C12.9736 39.0463 12.381 39.0569 11.7874 39.077C11.0877 39.1003 10.246 39.0335 9.83675 39.7322C9.53144 40.2559 9.68409 41.07 9.69363 41.6541Z" fill="#1E1E1E"/>
<path d="M9.69363 34.2555C9.70317 34.8364 9.62367 35.517 9.80707 36.0757C10.2852 37.5344 12.0778 37.1761 13.2673 37.1549C14.6444 37.1305 16.0214 37.1061 17.3985 37.0828C17.953 37.0732 18.4841 36.6025 18.4586 36.0227C18.4332 35.4566 17.9932 34.9519 17.3985 34.9625C15.8211 34.9901 14.2436 35.0177 12.6672 35.0452C12.3874 35.0505 12.1064 35.0558 11.8266 35.0601C11.8213 34.7484 11.816 34.4357 11.8107 34.1229C11.8096 34.0148 11.8075 33.9056 11.8054 33.7975C12.0195 33.7901 12.2337 33.7837 12.4467 33.7795C12.9736 33.7678 13.5016 33.7625 14.0284 33.7636C15.0832 33.7657 16.137 33.7954 17.1907 33.8484C17.7452 33.8759 18.2752 33.3406 18.2508 32.7883C18.2243 32.1904 17.7855 31.7578 17.1907 31.7281C15.9843 31.6677 14.7758 31.638 13.5673 31.6444C12.9736 31.6476 12.381 31.6582 11.7874 31.6783C11.0877 31.7016 10.246 31.6349 9.83675 32.3335C9.53144 32.8582 9.68409 33.6724 9.69363 34.2555Z" fill="#1E1E1E"/>
<path d="M9.69363 26.858C9.70317 27.4389 9.62367 28.1195 9.80707 28.6782C10.2852 30.1369 12.0778 29.7786 13.2673 29.7574C14.6444 29.733 16.0214 29.7086 17.3985 29.6853C17.953 29.6758 18.4841 29.2051 18.4586 28.6252C18.4332 28.0591 17.9932 27.5545 17.3985 27.5651C15.8211 27.5927 14.2436 27.6202 12.6672 27.6478C12.3874 27.6531 12.1064 27.6584 11.8266 27.6626C11.8213 27.3509 11.816 27.0382 11.8107 26.7255C11.8096 26.6173 11.8075 26.5082 11.8054 26.4C12.0195 26.3926 12.2337 26.3862 12.4467 26.382C12.9736 26.3703 13.5016 26.365 14.0284 26.3661C15.0832 26.3682 16.137 26.3979 17.1907 26.4509C17.7452 26.4785 18.2752 25.9431 18.2508 25.3908C18.2243 24.7929 17.7855 24.3604 17.1907 24.3307C15.9843 24.2703 14.7758 24.2406 13.5673 24.2469C12.9736 24.2501 12.381 24.2607 11.7874 24.2809C11.0877 24.3042 10.246 24.2374 9.83675 24.936C9.53144 25.4597 9.68409 26.2739 9.69363 26.858Z" fill="#1E1E1E"/>
<path d="M41.3812 38.7948C41.3907 38.0071 41.5042 37.0923 40.7038 36.6396C39.9839 36.2325 38.891 36.436 38.0927 36.4318C37.005 36.4265 35.9163 36.4223 34.8276 36.417L22.2313 36.3587C22.2292 36.3587 22.2282 36.3587 22.226 36.3587H22.1327C21.3345 36.3544 21.0164 37.0753 21.1521 37.6785C21.1415 38.5573 21.1299 39.4362 21.1193 40.3161C21.1097 41.1048 20.9963 42.0186 21.7967 42.4713C22.5165 42.8783 23.6095 42.6748 24.4077 42.678C25.4954 42.6833 26.5841 42.6875 27.6729 42.6928L40.2691 42.7511C40.2712 42.7511 40.2723 42.7511 40.2744 42.7511H40.3677C41.166 42.7554 41.484 42.0345 41.3483 41.4313C41.3589 40.5525 41.3706 39.6736 41.3812 38.7948ZM23.8639 40.5556C23.7865 40.5556 23.5109 40.5313 23.2374 40.5164C23.2384 40.3924 23.2406 40.2684 23.2416 40.1433C23.248 39.5899 23.2554 39.0376 23.2628 38.4842C26.5735 38.499 29.8843 38.5149 33.1961 38.5298C35.0099 38.5382 36.8227 38.5467 38.6365 38.5542C38.7139 38.5542 38.9896 38.5785 39.2631 38.5934C39.262 38.7174 39.2599 38.8414 39.2588 38.9665C39.2525 39.5199 39.2451 40.0722 39.2376 40.6256C35.9269 40.6108 32.6162 40.5949 29.3044 40.58C27.4916 40.5726 25.6778 40.5641 23.8639 40.5556Z" fill="#1E1E1E"/>
<path d="M41.3812 29.5411C41.3907 28.7535 41.5042 27.8386 40.7038 27.3859C39.9839 26.9788 38.891 27.1824 38.0927 27.1781C37.005 27.1728 35.9163 27.1686 34.8276 27.1633L22.2313 27.105C22.2292 27.105 22.2282 27.105 22.226 27.105H22.1327C21.3345 27.1008 21.0164 27.8216 21.1521 28.4248C21.1415 29.3037 21.1299 30.1825 21.1193 31.0624C21.1097 31.8511 20.9963 32.7649 21.7967 33.2176C22.5165 33.6247 23.6095 33.4211 24.4077 33.4243C25.4954 33.4296 26.5841 33.4339 27.6729 33.4392L40.2691 33.4975C40.2712 33.4975 40.2723 33.4975 40.2744 33.4975H40.3677C41.166 33.5017 41.484 32.7808 41.3483 32.1776C41.3589 31.2999 41.3706 30.421 41.3812 29.5411ZM23.8639 31.303C23.7865 31.303 23.5109 31.2787 23.2374 31.2638C23.2384 31.1398 23.2406 31.0158 23.2416 30.8907C23.248 30.3373 23.2554 29.785 23.2628 29.2316C26.5735 29.2464 29.8843 29.2623 33.1961 29.2772C35.0099 29.2856 36.8227 29.2941 38.6365 29.3016C38.7139 29.3016 38.9896 29.3259 39.2631 29.3408C39.262 29.4648 39.2599 29.5888 39.2588 29.7139C39.2525 30.2673 39.2451 30.8196 39.2376 31.373C35.9269 31.3582 32.6162 31.3423 29.3044 31.3274C27.4916 31.32 25.6778 31.3115 23.8639 31.303Z" fill="#1E1E1E"/>
<path d="M41.3812 20.2884C41.3907 19.5008 41.5042 18.5859 40.7038 18.1332C39.9839 17.7262 38.891 17.9297 38.0927 17.9255C37.005 17.9202 35.9163 17.9159 34.8276 17.9106L22.2313 17.8523C22.2292 17.8523 22.2282 17.8523 22.226 17.8523H22.1327C21.3345 17.8481 21.0164 18.5689 21.1521 19.1722C21.1415 20.051 21.1299 20.9298 21.1193 21.8097C21.1097 22.5984 20.9963 23.5122 21.7967 23.9649C22.5165 24.372 23.6095 24.1685 24.4077 24.1716C25.4954 24.1769 26.5841 24.1812 27.6729 24.1865L40.2691 24.2448C40.2712 24.2448 40.2723 24.2448 40.2744 24.2448H40.3677C41.166 24.249 41.484 23.5281 41.3483 22.9249C41.3589 22.0472 41.3706 21.1673 41.3812 20.2884ZM23.8639 22.0504C23.7865 22.0504 23.5109 22.026 23.2374 22.0111C23.2384 21.8871 23.2406 21.7631 23.2416 21.638C23.248 21.0846 23.2554 20.5323 23.2628 19.9789C26.5735 19.9937 29.8843 20.0096 33.1961 20.0245C35.0099 20.033 36.8227 20.0414 38.6365 20.0489C38.7139 20.0489 38.9896 20.0732 39.2631 20.0881C39.262 20.2121 39.2599 20.3362 39.2588 20.4612C39.2525 21.0146 39.2451 21.5669 39.2376 22.1203C35.9269 22.1055 32.6162 22.0896 29.3044 22.0747C27.4916 22.0663 25.6778 22.0578 23.8639 22.0504Z" fill="#1E1E1E"/>
<path d="M41.3812 48.0475C41.3907 47.2598 41.5042 46.3449 40.7038 45.8923C39.9839 45.4852 38.891 45.6887 38.0927 45.6845C37.005 45.6792 35.9163 45.675 34.8276 45.6697L22.2313 45.6113C22.2292 45.6113 22.2282 45.6113 22.226 45.6113H22.1327C21.3345 45.6071 21.0164 46.328 21.1521 46.9312C21.1415 47.81 21.1299 48.6889 21.1193 49.5687C21.1097 50.3575 20.9963 51.2713 21.7967 51.7239C22.5165 52.131 23.6095 51.9275 24.4077 51.9307C25.4954 51.936 26.5841 51.9402 27.6729 51.9455L40.2691 52.0038C40.2712 52.0038 40.2723 52.0038 40.2744 52.0038H40.3677C41.166 52.0081 41.484 51.2872 41.3483 50.684C41.3589 49.8062 41.3706 48.9263 41.3812 48.0475ZM23.8639 49.8094C23.7865 49.8094 23.5109 49.785 23.2374 49.7702C23.2384 49.6461 23.2406 49.5221 23.2416 49.397C23.248 48.8436 23.2554 48.2913 23.2628 47.7379C26.5735 47.7528 29.8843 47.7687 33.1961 47.7835C35.0099 47.792 36.8227 47.8005 38.6365 47.8079C38.7139 47.8079 38.9896 47.8323 39.2631 47.8471C39.262 47.9712 39.2599 48.0952 39.2588 48.2203C39.2525 48.7737 39.2451 49.326 39.2376 49.8794C35.9269 49.8645 32.6162 49.8486 29.3044 49.8338C27.4916 49.8253 25.6778 49.8168 23.8639 49.8094Z" fill="#1E1E1E"/>
</svg>
