<svg width="212" height="15" viewBox="0 0 212 15" fill="none" xmlns="http://www.w3.org/2000/svg">
<path d="M211.175 10.7507C208.745 8.65161 206.152 6.7243 203.722 4.6252C201.297 2.69292 199.578 1.74169 196.768 3.66125C194.454 5.23224 191.649 7.31862 189.861 9.54199C189.692 9.54696 189.687 9.38014 189.518 9.38511C189.16 8.72776 188.301 8.25215 187.779 7.76659C186.561 6.63363 185.512 5.4957 184.3 4.52956C182.386 2.74919 180.315 1.30743 177.652 2.55473C174.984 3.6352 173.381 6.35407 171.246 8.25374C171.083 8.42553 170.919 8.59732 170.756 8.76912C171.251 8.42056 171.072 8.09188 170.397 8.11177C169.875 7.62621 169.027 7.48424 168.341 7.17048C167.139 6.53799 165.938 5.90549 164.736 5.273C161.989 3.85113 159.401 2.09064 156.813 0.330157C155.948 -0.312279 154.44 0.0661037 153.786 0.753278C152.653 2.28948 151.514 3.65885 150.38 5.19505C149.732 6.04905 149.083 6.90305 148.434 7.75704C148.271 7.92884 148.107 8.10063 147.949 8.43925C147.786 8.61104 147.786 8.61104 147.786 8.61104C146.246 7.98849 144.855 6.69367 143.474 5.7325C141.924 4.77631 140.369 3.65329 138.65 2.70206C135.719 0.784691 132.82 -0.13174 129.688 2.29822C127.384 4.20286 125.249 6.10253 122.944 8.00717C121.047 6.72727 119.154 5.61419 117.088 4.33926C115.195 3.22618 113.287 1.61264 110.941 2.1827C108.764 2.74779 106.802 4.80931 104.988 6.19857C103.997 6.89568 103.006 7.5928 102.183 8.28494C101.192 8.98206 100.517 9.00194 99.3207 8.53627C95.3881 6.98237 92.2517 3.90222 87.8497 3.53099C83.2789 3.16474 80.1681 6.26199 76.6988 8.7019C75.5441 9.57081 75.7076 9.39901 74.5004 8.5997C73.4672 7.96223 72.6027 7.31979 71.5695 6.68233C69.503 5.4074 67.4366 4.13247 65.059 3.70159C62.6867 3.43754 60.6937 4.49812 58.5321 5.56368C57.3669 6.09894 56.2017 6.63421 55.0365 7.16947C53.8714 7.70474 52.0524 8.92717 50.5393 9.13873C48.5149 9.19838 45.9266 7.4379 44.2028 6.31985C42.3051 5.03995 40.7238 3.08281 38.3462 2.65194C36.1373 2.21609 33.9704 3.11482 32.3253 4.49911C30.5116 5.88837 28.8928 8.10678 26.51 7.50908C24.1324 7.0782 22.2189 5.29783 20.1577 4.18972C17.9226 2.91976 15.5293 1.98842 12.8195 1.73431C7.90612 1.21117 2.90276 3.19535 0.339974 7.61227C-1.25783 10.498 3.20718 12.8711 4.80499 9.98537C7.04611 6.07886 11.9385 5.9347 15.7077 7.66039C19.4769 9.38608 22.6185 12.6331 27.0101 12.6706C29.0398 12.7778 30.8693 11.889 32.5248 10.8384C33.8429 9.79767 36.1208 7.05892 37.8393 8.01014C39.5526 8.79455 41.1287 10.5849 42.8524 11.7029C44.7449 12.816 46.9748 13.9191 49.0097 14.1931C51.2134 14.4621 53.0429 13.5734 55.041 12.6796C57.5401 11.6041 60.0234 10.0281 62.5277 9.11945C64.6999 8.38754 66.782 10.1629 68.5006 11.1142C70.2243 12.2322 72.1431 14.1794 74.3467 14.4484C78.2531 15.1682 81.3115 10.4027 84.4749 8.97371C88.1391 7.36294 91.7868 10.595 94.876 12.1738C96.7685 13.2868 98.9931 14.2232 101.176 13.8249C103.527 13.4216 105.494 11.5269 107.308 10.1377C108.299 9.44057 109.77 7.89443 110.94 7.52599C111.109 7.52102 111.431 7.01061 111.431 7.01061C111.768 7.00067 112.98 7.96681 113.323 8.12369C115.737 9.72232 118.32 11.316 120.735 12.9146C120.735 12.9146 120.904 12.9096 120.909 13.0765C121.773 13.7189 123.128 13.846 124.109 12.8152C125.59 11.6027 126.903 10.3952 128.385 9.18269C129.039 8.49551 129.867 7.97019 130.52 7.28302C131.016 6.93446 131.991 5.73688 132.661 5.55017C134.005 5.34358 136.441 7.60951 137.474 8.24697C139.024 9.20317 140.405 10.1643 141.955 11.1205C144.369 12.7192 147.316 15.137 149.941 12.722C151.254 11.5144 152.214 9.81638 153.184 8.45197C153.833 7.59798 154.645 6.57219 155.293 5.71819C159.605 8.59672 164.076 11.1366 168.862 12.9993C171.767 14.0826 173.402 12.3647 175.368 10.47C176.349 9.43919 177.319 8.07479 178.479 7.3727C179.471 6.67558 178.806 7.02911 179.665 7.50473C180.182 7.82346 180.883 8.63769 181.405 9.12324C182.623 10.2562 183.672 11.3941 184.884 12.3603C185.754 13.1695 186.803 14.3075 187.999 14.7731C190.73 15.6945 192.349 13.4761 194.157 11.9201C195.307 10.8843 196.456 9.8486 197.774 8.80789C197.774 8.80789 198.766 8.11078 199.261 7.76222C199.435 7.92407 199.609 8.08592 199.783 8.24778C202.213 10.3469 204.807 12.2742 207.237 14.3733C210.173 16.4575 213.606 12.8498 211.175 10.7507Z" fill="#59C69F"/>
</svg>
