<svg width="57" height="64" viewBox="0 0 57 64" fill="none" xmlns="http://www.w3.org/2000/svg">
<path d="M39.0236 15.063C38.4738 16.585 38.3984 18.333 38.8442 19.8985C39.8153 23.3065 42.9888 25.4006 46.5199 25.1172C50.0383 24.8349 53.1831 22.9563 54.4726 19.6332C55.4024 17.2377 55.0012 14.5164 53.6183 12.3746C53.7074 12.0975 53.6618 11.7908 53.3561 11.5265C50.172 8.79036 45.8279 9.41868 42.4178 11.3068C40.8395 12.1803 39.6413 13.3553 39.0236 15.063Z" fill="#F7C300"/>
<path d="M50.5512 48.5297C50.5332 47.6085 50.513 46.6872 50.4918 45.766C50.4748 45.0644 50.6425 43.9691 50.2275 43.3482C49.7509 42.6328 48.783 42.7528 48.0294 42.7305C47.0721 42.7018 46.1147 42.6721 45.1584 42.6434C45.0343 42.6392 44.9334 42.671 44.8315 42.6997C44.2595 42.6339 43.629 42.9587 43.6184 43.7016C43.5431 49.1294 43.2024 54.5487 42.5995 59.9436C42.5348 60.5231 43.1387 60.9932 43.6609 61.0049C45.6477 61.0495 47.6346 61.093 49.6214 61.1365C50.1946 61.1493 50.6849 60.6398 50.6828 60.0752C50.6701 56.2267 50.6276 52.3782 50.5512 48.5297Z" fill="#F7C300"/>
<path d="M34.1923 28.8807C34.9204 26.8037 34.689 24.093 34.6773 22.0117C34.6561 18.1611 34.6349 14.3105 34.6147 10.4599C34.6041 8.5993 34.7198 6.67612 34.5733 4.82087C34.4067 2.6971 33.1532 1.39482 31.1653 0.955416C27.5323 0.150908 23.7761 -0.0656081 20.0699 0.0161163C16.4889 0.095718 12.738 0.220958 9.20161 0.835483C5.04109 1.55933 4.68872 6.02976 4.5465 9.59698C4.24083 17.2631 4.21216 24.9516 4.05084 32.622C4.0052 34.7967 3.96275 36.964 4.15061 39.1334C4.32255 41.1288 4.58153 43.104 4.51254 45.1131C4.47115 46.2912 4.33847 47.5139 4.313 48.7281C3.91605 49.2163 3.6592 49.7958 3.66238 50.4422C3.66875 51.5768 3.80142 52.7315 4.04871 53.8375C4.11346 54.1293 4.244 54.4117 4.37561 54.6738C4.4446 54.8107 4.54543 54.9169 4.64095 55.041C4.75664 55.1918 4.80228 55.2661 4.91372 55.3701C5.28307 55.7161 5.74158 56.0016 6.24042 56.1151C6.37203 56.1353 6.5047 56.1534 6.6363 56.1693C6.76791 56.1926 6.90059 56.2096 7.03326 56.2202C7.07784 56.2213 7.12241 56.2213 7.16805 56.2192C7.48964 56.2001 7.81017 56.1597 8.1307 56.1236C15.1367 56.0366 22.1438 56.0769 29.1477 56.2605C31.1016 56.3115 32.976 56.2234 33.7593 54.0444C34.2029 52.8101 34.3122 51.4218 34.17 50.1195C34.0087 48.64 33.5799 47.1891 32.8125 45.9187C32.4135 45.2575 31.9274 44.6069 31.3839 44.0634C31.1738 43.8533 30.9286 43.6718 30.6845 43.4935C30.7577 43.2101 30.8204 42.9204 30.8809 42.638C31.0284 41.9545 31.1462 41.2646 31.2428 40.5716C31.4476 39.1027 31.5803 37.6274 31.5718 36.1425C31.5644 34.7989 31.4922 33.4701 31.2226 32.207C31.8053 31.9905 32.3827 31.7453 32.9558 31.4333C34.0469 30.8411 34.3685 29.8317 34.1923 28.8807Z" fill="#F7C300"/>
<path d="M24.0521 61.1586C24.0617 61.1618 24.0776 61.1714 24.0967 61.183C24.0808 61.1671 24.0628 61.1554 24.0458 61.1533C24.0479 61.1544 24.05 61.1565 24.0521 61.1586Z" fill="#1E1E1E"/>
<path d="M1.2276 63.9426C11.1035 63.8142 20.9815 63.8333 30.8575 64C30.9042 64.001 30.936 63.9809 30.9795 63.9777C39.464 63.8312 46.5337 63.8227 55.0182 63.9575C56.3852 63.9798 56.3852 61.8571 55.0182 61.8348C52.8137 61.7998 52.0262 61.7785 49.8218 61.7647C49.6923 55.5494 49.5639 49.3331 49.4344 43.1178C49.4461 43.0902 49.4652 43.0721 49.4747 43.0424C49.6382 42.5362 49.2826 41.8272 48.7339 41.737C48.0037 41.616 47.2713 41.5544 46.5401 41.5215C46.5401 40.3158 46.4934 39.1112 46.4053 37.9097C46.7831 37.793 47.1663 37.6932 47.5558 37.6189C47.7192 37.5881 47.8615 37.4937 47.9835 37.3769C48.0132 37.3557 48.0334 37.3249 48.062 37.3005C48.0652 37.2973 48.0684 37.2941 48.0705 37.2909C48.1459 37.223 48.2234 37.1551 48.2786 37.0702C48.597 36.5756 48.3656 35.9165 47.8975 35.6182C47.1907 35.1672 46.4456 34.7734 45.6761 34.4348C45.7929 34.3818 45.9086 34.3287 46.0274 34.2809C46.0752 34.2618 46.124 34.2427 46.1421 34.2353C46.2142 34.2066 46.2853 34.178 46.3575 34.1493C46.7173 34.0071 47.0814 33.8755 47.4465 33.7513C47.4528 33.7492 47.4571 33.7449 47.4634 33.7428C47.9814 33.7004 48.3592 33.1708 48.3805 32.6868C48.3921 32.4225 48.2542 32.12 48.0705 31.9364C47.8668 31.7326 47.6248 31.6626 47.3499 31.6318C47.4125 31.6403 47.4741 31.6488 47.5356 31.6573C47.3817 31.636 47.2342 31.5989 47.0877 31.5469C47.0707 31.5405 47.0548 31.5341 47.0378 31.5278C47.0347 31.5267 47.0368 31.5278 47.0336 31.5257C46.9731 31.497 46.9126 31.4683 46.8532 31.4386C46.5443 31.2858 46.2376 31.1298 45.9298 30.9759L47.2883 30.4229C47.4539 30.355 47.5887 30.269 47.7086 30.1639C47.837 30.0727 47.9506 29.9612 48.0355 29.8307C48.1809 29.6057 48.2128 29.2671 48.1427 29.0124C48.0695 28.746 47.8859 28.5241 47.6555 28.3777C47.2034 28.0911 46.7523 27.8056 46.3013 27.519C46.2652 26.9438 46.2365 26.3675 46.2174 25.7911C47.0368 25.4929 47.8476 25.1395 48.6415 24.7945C50.4416 24.0123 51.8702 22.7864 52.7692 21.0203C54.323 17.97 54.0608 14.1077 51.4541 11.7123C48.8252 9.29661 44.8451 9.03233 41.7448 10.6721C38.5035 12.3862 36.9889 15.8919 37.5345 19.4368C37.8178 21.2814 38.4769 22.8098 39.9671 23.9847C40.5073 24.4103 41.0773 24.7754 41.6652 25.1013C41.8191 25.4982 42.2012 25.7434 42.6491 25.7933C43.149 25.8485 43.6213 26.0554 44.1202 26.1297C44.1425 26.7888 44.152 27.449 44.2019 28.107C44.2284 28.4562 44.3908 28.7385 44.6339 28.9285C44.6912 28.9816 44.7421 29.0421 44.8079 29.0845C44.8302 29.0983 44.8525 29.1132 44.8748 29.127C44.2677 29.3743 43.6606 29.6205 43.0535 29.8678C42.7829 29.9782 42.5791 30.1087 42.4188 30.356C42.2639 30.597 42.2501 30.9026 42.3116 31.1743C42.3689 31.4269 42.5791 31.6795 42.7988 31.809C42.8752 31.8536 42.975 31.8886 43.079 31.9152C43.5608 32.1572 44.0427 32.3991 44.5256 32.6411C43.8272 32.9574 43.1405 33.3013 42.4751 33.6813C41.9603 33.9753 41.8276 34.6291 42.094 35.1332C42.232 35.3954 42.4857 35.5577 42.7638 35.6193C42.8051 35.6373 42.8391 35.6692 42.8826 35.6809C43.2467 35.7827 43.6075 35.8974 43.9641 36.0247C44.1541 36.0927 44.342 36.1648 44.5299 36.2402C44.5362 36.2423 44.5521 36.2487 44.5638 36.2529C44.601 36.2667 44.636 36.2848 44.6721 36.3007C44.6031 36.3431 44.5362 36.392 44.4757 36.4514C44.4205 36.5225 44.3653 36.5947 44.3102 36.6658C44.1552 36.9067 44.1414 37.2113 44.203 37.4841C44.2125 37.5255 44.2465 37.5626 44.2634 37.604C44.3706 38.918 44.4195 40.2351 44.4184 41.5533C43.5895 41.6138 42.7616 41.7115 41.9391 41.8887C41.3596 42.014 41.0762 42.6593 41.1982 43.1942C41.212 43.2536 41.2503 43.2961 41.2736 43.3492C41.3309 49.5082 40.9701 55.6598 40.1985 61.7701C37.0048 61.787 33.8112 61.803 30.6187 61.8592C30.5911 61.8592 30.573 61.873 30.5465 61.8751C29.4172 61.8592 28.2879 61.8528 27.1586 61.8401C27.3529 61.3869 27.4611 60.887 27.5206 60.3871C27.6522 59.2971 27.684 58.188 27.7477 57.0905C28.4206 57.0948 29.0946 57.0873 29.7675 57.0937C30.3576 57.099 30.677 56.7031 30.7577 56.2542C30.8957 56.0557 31.0071 55.8349 31.0644 55.576C31.1886 55.0113 31.1578 54.4223 31.1642 53.8481L31.2013 50.1875C31.3223 50.0304 31.4168 49.8436 31.4285 49.5963C31.5261 47.4969 30.4223 45.9389 28.895 44.8117C29.9129 39.9857 30.2928 35.0472 29.9999 30.1236C30.2482 30.1268 30.4892 30.0132 30.6813 29.8466C31.1939 29.8254 31.6832 29.4921 31.6673 28.8298C31.5601 24.474 32.303 20.1744 32.5312 15.8346C32.6437 13.6864 32.6098 11.5339 32.2807 9.40487C32.0165 7.69396 31.6864 5.54153 30.331 4.32416C29.1105 3.22884 27.3921 3.10466 25.8309 3.0707C23.498 3.01975 21.162 3.04204 18.8281 3.0707C14.1262 3.12801 9.42763 3.30632 4.73325 3.59076C4.54327 3.51541 4.31613 3.51116 4.0561 3.62048C0.99409 4.91003 0.312709 8.32016 0.118481 11.3302C-0.14049 15.3347 0.0675216 19.3795 0.336045 23.3776C0.878397 31.4503 1.86122 39.5113 1.40271 47.6147C1.3921 47.8015 1.42925 47.9576 1.49081 48.0934C1.28173 48.6761 1.11614 49.297 1.03866 49.9932C1.03548 50.0261 1.04823 50.0484 1.04717 50.0803C0.799871 51.3571 0.674623 52.6498 0.766961 53.951C0.833827 54.919 0.87628 56.1311 1.62454 56.8485C2.39083 57.583 3.56575 57.4567 4.57935 57.3898C4.62074 58.2644 4.71626 59.1379 4.88608 59.9965C5.0092 60.6185 5.15143 61.2744 5.49106 61.7976C4.08158 61.8093 2.6721 61.803 1.26368 61.821C-0.105471 61.839 -0.140492 63.9607 1.2276 63.9426ZM46.6069 23.3606C46.2036 23.5252 45.7409 23.7629 45.2792 23.9125C45.2293 23.9041 45.1836 23.8818 45.1306 23.8786C44.947 23.8701 44.7782 23.9338 44.6243 24.024C43.2329 23.782 41.8276 22.9021 40.8395 21.9459C39.7506 20.8919 39.4736 19.1025 39.5065 17.6431C39.5627 15.0704 41.4254 12.8426 43.8368 12.0721C46.2906 11.2877 49.2646 11.9075 50.7643 14.1353C52.2257 16.3079 51.7258 19.3434 50.068 21.2719C49.1489 22.3417 47.8816 22.8395 46.6069 23.3606ZM42.3212 61.7499C43.0726 55.784 43.4271 49.7789 43.39 43.7663C43.4812 43.7514 43.5725 43.7366 43.6638 43.7238C43.5184 43.745 43.8591 43.7005 43.8516 43.7015C44.3409 43.6453 44.8334 43.6113 45.3269 43.5986C45.9945 43.5827 46.6844 43.6134 47.3223 43.6771C47.4475 49.7046 47.5728 55.7309 47.698 61.7584C45.9064 61.7509 44.1138 61.7456 42.3212 61.7499ZM23.1934 27.2622C21.1301 27.3301 18.9384 27.5318 17.2838 28.8967C13.4618 32.05 15.8265 37.3886 15.2916 41.4854C15.2863 41.5268 15.2916 41.5671 15.2937 41.6085C11.4368 41.8601 6.57364 42.4353 3.62094 44.9805C3.75361 38.6272 3.12848 32.2909 2.64238 25.9567C2.37173 22.4373 2.14991 18.9104 2.14036 15.3792C2.13612 13.6354 2.11914 11.8555 2.34414 10.1234C2.5405 8.60991 2.98731 6.4405 4.53371 5.71454C4.54751 5.71454 4.556 5.7209 4.57086 5.71984C8.71333 5.46724 12.86 5.29636 17.0089 5.21994C19.0838 5.18173 21.1577 5.16581 23.2327 5.17218C24.8237 5.17749 27.4261 4.76674 28.7825 5.809C30.1113 6.83108 30.2557 9.79439 30.3777 11.3259C30.5295 13.2258 30.4658 15.1341 30.3268 17.0318C30.0646 20.6149 29.5531 24.1779 29.5361 27.7727C27.4951 27.1539 25.3108 27.1921 23.1934 27.2622ZM17.1363 34.9963C17.1076 33.4361 17.357 31.6095 18.619 30.5375C19.969 29.3913 21.9888 29.4178 23.6583 29.3722C25.0741 29.3329 26.4857 29.3244 27.8623 29.5674C27.8623 29.6025 27.8464 29.629 27.8496 29.6662C28.169 34.3648 27.8729 39.0698 26.9549 43.6856C26.733 43.5827 26.5091 43.485 26.2841 43.3948C26.1992 43.3608 26.1153 43.3385 26.0304 43.3056C26.3764 42.585 26.4348 41.7327 26.2512 40.9611C26.0187 39.9878 25.3809 39.1929 24.5658 38.6378C24.3439 38.4871 24.0956 38.3587 23.8355 38.2451C23.8928 37.6773 23.567 37.0638 22.8304 37.0638C22.2902 37.0638 21.9718 37.3981 21.8582 37.7993C20.817 37.7675 19.7833 38.0466 19.0616 38.7514C18.6253 39.177 18.3759 39.7289 18.1647 40.2893C18.0087 40.7032 17.8941 41.1405 17.8495 41.5831C17.6967 41.5778 17.5491 41.5565 17.3952 41.5544C17.3995 41.5311 17.4101 41.5109 17.4133 41.4875C17.6988 39.3075 17.1777 37.1699 17.1363 34.9963ZM19.9924 41.5586C20.0465 41.3177 20.125 41.0832 20.2121 40.8518C20.2259 40.8157 20.2407 40.7796 20.2545 40.7435C20.2566 40.7393 20.2694 40.7138 20.2938 40.6597C20.3394 40.5748 20.3872 40.4909 20.4339 40.406C20.4583 40.3699 20.4647 40.3604 20.4721 40.3487C20.5018 40.3158 20.5315 40.2818 20.5634 40.25C20.5846 40.2245 20.5835 40.2203 20.5878 40.2107C20.5995 40.2065 20.6016 40.2075 20.6271 40.1927C20.6578 40.1746 20.8404 40.0823 20.8478 40.0696C20.9072 40.0483 20.9677 40.0261 21.0282 40.0091C21.1248 39.9815 21.2246 39.9634 21.3244 39.9454C21.3583 39.9422 21.4273 39.9348 21.4698 39.9327C21.6842 39.921 21.8943 39.9348 22.1087 39.9486C22.1289 39.9507 22.1246 39.9496 22.1374 39.9518C22.1703 39.9571 22.2032 39.9624 22.235 39.9687C22.3411 39.9889 22.4452 40.0123 22.5492 40.0388C22.6373 40.0621 22.7253 40.0887 22.8124 40.1173C22.8697 40.1364 22.926 40.1566 22.9822 40.1778C23.1732 40.2723 23.3547 40.3742 23.532 40.493C23.5575 40.51 23.5543 40.5068 23.5681 40.5143C23.5776 40.5249 23.5744 40.5249 23.601 40.5504C23.6891 40.6331 23.7729 40.7181 23.8578 40.804C23.8833 40.8306 23.8833 40.8274 23.895 40.8369C23.9013 40.8486 23.8971 40.8454 23.912 40.8677C23.9756 40.9654 24.0319 41.0651 24.0892 41.1659C24.0987 41.1829 24.104 41.1904 24.1115 41.201C24.1147 41.2116 24.1157 41.2169 24.12 41.2307C24.1561 41.3411 24.1911 41.4515 24.2166 41.565C24.2229 41.5969 24.2304 41.6754 24.2346 41.7147C24.2389 41.7996 24.2452 41.8834 24.241 41.9683C24.2399 42.0065 24.2229 42.0893 24.2187 42.1201C24.2038 42.1848 24.19 42.2496 24.1699 42.3133C24.155 42.3579 24.155 42.3674 24.1518 42.3823C24.1455 42.3897 24.1444 42.3865 24.1285 42.4099C24.0871 42.4725 24.0467 42.534 24.0075 42.5956C22.6734 42.1923 21.3286 41.91 19.9626 41.7401C19.969 41.703 19.9871 41.5852 19.9924 41.5586ZM23.3165 58.6889C23.3197 58.1529 23.3516 57.618 23.3537 57.0831C24.1094 57.0831 24.864 57.0842 25.6197 57.0863C25.5655 57.9439 25.5093 58.8004 25.4552 59.658C25.4424 59.849 25.4308 60.0411 25.4116 60.2321C25.4085 60.2661 25.384 60.4221 25.3904 60.3977C25.3894 60.402 25.3883 60.4083 25.3883 60.4115C25.3798 60.4625 25.3692 60.5123 25.3586 60.5633C25.3395 60.6503 25.3182 60.7363 25.2928 60.8223C25.2822 60.8594 25.2408 60.9454 25.2291 60.9995C25.2142 61.0271 25.2004 61.0547 25.1856 61.0812C25.1675 61.112 25.1484 61.1417 25.1304 61.1725C25.1198 61.1831 25.107 61.198 25.0901 61.2171C25.0816 61.2245 25.0444 61.2638 25.0168 61.2808C24.9871 61.2988 24.9563 61.3147 24.9266 61.3328C24.9181 61.3338 24.9234 61.3307 24.9107 61.3338C24.8672 61.3444 24.8226 61.3551 24.778 61.3667C24.7101 61.3667 24.6039 61.3593 24.5827 61.3614C24.5764 61.3614 24.5806 61.3625 24.5753 61.3625C24.5594 61.3582 24.5382 61.3529 24.536 61.3529C24.4692 61.3381 24.4034 61.3169 24.3376 61.2967C24.3036 61.2818 24.2495 61.2585 24.2335 61.25C24.2155 61.2404 24.1561 61.198 24.1062 61.1672C24.137 61.198 24.1529 61.2277 24.0839 61.163L24.0616 61.1428C24.0574 61.1417 24.0457 61.1322 24.0436 61.1332C24.0467 61.1322 24.051 61.1364 24.0552 61.1375C24.0351 61.1184 24.0149 61.1003 23.9947 61.0812C23.9544 61.043 23.8982 60.9921 23.8536 60.9411C23.8515 60.9369 23.8525 60.939 23.8493 60.9337C23.8143 60.8774 23.774 60.8244 23.7389 60.7681C23.6976 60.7002 23.6583 60.6302 23.6222 60.558C23.6073 60.5283 23.5946 60.4985 23.5787 60.4688C23.5214 60.2916 23.4598 60.1186 23.4174 59.936C23.394 59.8352 23.3781 59.7322 23.3579 59.6304C23.3516 59.5752 23.3452 59.5189 23.3409 59.4637C23.3218 59.2048 23.3155 58.9468 23.3165 58.6889ZM22.044 48.9319C21.9739 49.6122 21.8052 50.2851 21.6024 50.9379C21.1705 52.3325 20.5273 53.6422 19.883 54.9487C19.8809 54.953 19.8809 54.9583 19.8788 54.9625C19.1507 54.9668 18.4226 54.9795 17.6945 54.9859C17.5704 52.6307 17.6606 50.2703 17.963 47.931C17.9726 47.8536 17.9662 47.7771 17.9524 47.7018C18.1329 47.2634 18.3144 46.8251 18.4958 46.3868C19.19 46.4653 19.8788 46.5916 20.5581 46.754C20.99 46.8569 21.6916 46.9365 21.9378 47.3653C22.1904 47.8047 22.0928 48.4564 22.044 48.9319ZM10.5346 61.769C10.6885 61.4007 10.8286 61.0282 10.9284 60.6397C11.1874 59.6282 11.267 58.5605 11.1311 57.5257C11.1162 57.4132 11.0961 57.3092 11.0674 57.2105C14.4542 57.1362 17.8431 57.0937 21.231 57.0789C21.2278 58.1975 21.1174 59.3109 21.353 60.4179C21.456 60.8966 21.6396 61.3614 21.8901 61.7838C18.1063 61.7616 14.3205 61.7552 10.5346 61.769ZM15.5729 54.9944C15.5729 54.9997 15.5761 55.005 15.5761 55.0103C14.8596 55.0188 14.1422 55.0209 13.4258 55.0336C12.8855 55.0432 12.3453 55.0623 11.8051 55.074C11.8167 54.9551 11.822 54.8341 11.787 54.6982C11.3444 52.9406 10.9294 51.1618 10.836 49.3448C10.8127 48.8937 10.8074 48.4415 10.8254 47.9905C10.835 47.7495 10.8509 47.5086 10.8732 47.2687C10.8743 47.2539 10.8944 47.1594 10.9072 47.0713C10.9634 47.0512 11.0186 47.0299 11.0759 47.0098C11.2924 46.9355 11.5121 46.8676 11.7329 46.8081C12.1383 46.6988 12.5523 46.6075 12.9704 46.5566C13.1286 46.5375 13.2782 46.4897 13.4151 46.4239C13.5669 46.4494 13.724 46.4568 13.8843 46.4345C14.1188 46.4016 14.3555 46.3815 14.5922 46.3581C14.6081 46.3931 14.6081 46.4324 14.6283 46.4664C15.0157 47.118 15.402 47.7708 15.7883 48.4224C15.5347 50.6025 15.4572 52.7995 15.5729 54.9944ZM6.69357 57.3198C7.47155 57.2975 8.24952 57.2741 9.02855 57.254C9.00733 57.341 8.99672 57.4302 9.00946 57.5257C9.07314 58.0054 9.0933 58.4883 9.06358 58.9723C9.05615 59.0933 9.04342 59.2132 9.03174 59.3332C9.03068 59.3502 9.03068 59.3587 9.02962 59.3693C9.0275 59.382 9.02538 59.3905 9.02114 59.4107C8.97656 59.6484 8.93304 59.8851 8.87148 60.1196C8.80992 60.3531 8.73775 60.5845 8.65284 60.8106C8.64754 60.8244 8.61144 60.9167 8.59658 60.9549C8.58597 60.9804 8.57323 61.0059 8.56155 61.0313C8.54563 61.0292 8.54563 61.0282 8.51379 61.0229C8.40766 61.0006 8.30047 60.9825 8.19433 60.9581C7.96826 60.905 7.74431 60.8392 7.52567 60.7596C7.4811 60.7437 7.43759 60.7267 7.39407 60.7098C7.38452 60.7055 7.38876 60.7076 7.37496 60.7013C7.34949 60.6875 7.27839 60.6408 7.22956 60.61C7.22213 60.5962 7.21257 60.5835 7.20514 60.5686C7.2009 60.5612 7.20302 60.5665 7.19878 60.5612C7.19665 60.5506 7.19984 60.5559 7.19665 60.541C7.13934 60.3149 7.07248 60.092 7.02047 59.8649C6.96316 59.6102 6.91114 59.3533 6.86657 59.0954C6.84959 58.9989 6.83367 58.9023 6.81881 58.8046C6.80926 58.7441 6.80077 58.6826 6.79228 58.6221C6.79122 58.6115 6.79121 58.6146 6.78909 58.6008C6.73815 58.1742 6.71268 57.7475 6.69357 57.3198ZM5.52183 55.2279C5.01132 55.2438 3.87354 55.4985 3.41504 55.2979C3.17623 55.403 3.05101 55.352 3.03933 55.144C2.96928 54.8277 2.92364 54.5072 2.90135 54.1835C2.78142 52.8642 2.88225 51.5587 3.16032 50.266C3.18367 50.1556 3.16987 50.0601 3.1635 49.9603C3.81305 44.3978 11.3487 43.9764 15.5814 43.71C18.429 43.5306 21.0749 43.8384 23.7857 44.7395C26.0792 45.5026 29.4183 46.6096 29.3015 49.5676C29.171 49.7396 29.0786 49.9434 29.0754 50.1822C29.0648 51.2127 29.0542 52.2433 29.0436 53.2739C29.0383 53.7706 29.0394 54.2663 29.0288 54.763C29.0277 54.8288 29.0203 54.8988 29.0192 54.9668C26.7596 54.9477 24.4989 54.9455 22.2382 54.9508C22.8421 53.6942 23.4078 52.4131 23.7772 51.0695C24.1815 49.5952 24.6018 47.5489 23.6954 46.1724C22.736 44.7151 20.5315 44.523 18.9565 44.3171C17.0715 44.0709 15.1993 44.1176 13.3207 44.3861C13.274 44.3925 13.24 44.4264 13.1965 44.4413C13.1233 44.4275 13.0479 44.4232 12.9704 44.4317C11.8921 44.5633 10.7278 44.7565 9.75134 45.2649C8.63479 45.8465 8.70059 47.3526 8.6921 48.4405C8.67618 50.7022 9.15911 52.9406 9.70677 55.1238C8.31215 55.1589 6.91751 55.1843 5.52183 55.2279Z" fill="#1E1E1E"/>
<path d="M6.26286 48.0956C5.98478 48.017 5.72901 48.0223 5.44987 48.0765C5.17498 48.1295 4.95846 48.2824 4.74725 48.4564C4.67932 48.5137 4.62413 48.5955 4.57743 48.6836C4.55089 48.7186 4.50738 48.7377 4.48403 48.777C4.27919 49.0529 4.12741 49.3586 4.01491 49.6844C3.87906 50.0792 3.87588 50.4942 3.95123 50.8997C4.01385 51.2361 4.22187 51.5758 4.46492 51.8124C4.70797 52.0502 5.03488 52.2487 5.37027 52.3208C5.78738 52.411 6.25649 52.3803 6.62266 52.1372C7.0281 51.8676 7.26266 51.4972 7.41656 51.043C7.52163 50.7352 7.57789 50.403 7.60018 50.0803C7.62671 49.6876 7.53649 49.2312 7.32316 48.8958C7.07799 48.5116 6.70651 48.2197 6.26286 48.0956Z" fill="#1E1E1E"/>
<path d="M27.9379 48.4181C27.8243 48.3268 27.7097 48.2324 27.5844 48.1549C27.4836 48.0923 27.3754 48.0488 27.266 48.0021C27.1567 47.9564 27.0516 47.9087 26.9349 47.8864C26.7778 47.8566 26.6059 47.8237 26.4435 47.8354C26.2907 47.846 26.1261 47.8566 25.9807 47.9097C25.8417 47.9607 25.6931 48.0148 25.57 48.1018C25.4532 48.1867 25.3301 48.2716 25.2367 48.3841C25.0605 48.5922 24.9852 48.7291 24.8854 48.9817C24.8313 49.1207 24.8122 49.2831 24.8058 49.4296C24.8058 49.4423 24.809 49.455 24.8101 49.4678C24.7941 49.5092 24.7793 49.5506 24.7697 49.5952C24.7283 49.7819 24.6965 49.9868 24.7114 50.18C24.7273 50.3689 24.7485 50.5663 24.8154 50.7457C24.9226 51.029 25.0308 51.2222 25.2304 51.4525C25.2633 51.4907 25.2993 51.5268 25.3386 51.5587C25.4458 51.6478 25.5583 51.7433 25.6814 51.8091C25.8481 51.8983 26.0349 51.98 26.2238 52.0119C26.4159 52.0448 26.6069 52.0745 26.8012 52.0543C26.9328 52.0405 27.0888 52.0246 27.2236 51.9885C27.3584 51.9524 27.4868 51.8909 27.612 51.8357C27.7893 51.7582 27.9421 51.6361 28.0886 51.5098C28.2372 51.3814 28.3645 51.2148 28.4569 51.0418C28.6129 50.7467 28.6734 50.4962 28.7084 50.1693C28.7541 49.7512 28.6278 49.2566 28.3805 48.9148C28.2478 48.7312 28.1151 48.5593 27.9379 48.4181Z" fill="#1E1E1E"/>
<path d="M10.6069 27.051C8.93524 27.0701 7.2668 27.1497 5.60047 27.2792C4.87025 27.3365 4.54442 27.9776 4.60174 28.5433C4.25149 28.7248 3.96916 29.0771 4.01904 29.4741C4.37459 32.3132 4.73015 35.1523 5.08571 37.9915C5.16849 38.6495 5.25022 39.3086 5.33301 39.9666C5.42534 40.7085 5.51661 41.4186 6.27654 41.7593C6.86241 42.0214 7.5438 41.8283 8.14984 41.7497C8.89491 41.6531 9.63999 41.5565 10.384 41.461C11.0463 41.3751 11.7086 41.2901 12.3709 41.2042C13.0671 41.114 13.8621 41.1373 14.2993 40.4973C14.6506 39.9847 14.5859 39.3638 14.5912 38.7684C14.5986 38.0169 14.605 37.2655 14.6124 36.514C14.6262 35.095 14.639 33.6749 14.6528 32.2559C14.6591 31.5883 14.6655 30.9196 14.6719 30.252C14.6782 29.5728 14.7822 28.815 14.5477 28.1665C14.0075 26.6774 11.8391 27.0361 10.6069 27.051ZM12.5502 30.0016C12.547 30.4187 12.5428 30.8369 12.5386 31.254C12.5301 32.2145 12.5205 33.174 12.512 34.1345C12.5035 35.0526 12.495 35.9717 12.4866 36.8898C12.4823 37.3493 12.4781 37.8078 12.4738 38.2674C12.4717 38.5179 12.4696 38.7684 12.4674 39.0188C12.4674 39.0518 12.4674 39.0847 12.4664 39.1176C12.1427 39.1515 11.7266 39.1643 11.5016 39.1929C10.9635 39.2619 10.4254 39.3319 9.88728 39.402C9.39057 39.4667 8.89385 39.5304 8.39713 39.5952C8.14878 39.627 7.90042 39.6588 7.65207 39.6917C7.56185 39.7034 7.47058 39.7151 7.38036 39.7268C7.35489 39.4636 7.35701 39.1759 7.33153 38.9796C7.27528 38.5274 7.21797 38.0742 7.16171 37.6221C7.04815 36.7168 6.93565 35.8114 6.82209 34.9061C6.59602 33.0954 6.36888 31.2858 6.14175 29.4751C6.13751 29.4401 6.12159 29.4093 6.11522 29.3754C7.23602 29.2947 8.35681 29.2268 9.47972 29.196C10.1059 29.179 10.7332 29.1705 11.3594 29.1695C11.6937 29.1695 12.028 29.1695 12.3613 29.1748C12.4335 29.1748 12.5056 29.178 12.5768 29.1801C12.5874 29.4539 12.5524 29.7437 12.5502 30.0016Z" fill="#1E1E1E"/>
<path d="M7.03232 18.9178C8.59039 19.1746 10.1654 19.3253 11.7447 19.3423C13.1118 19.3572 14.8789 19.5121 15.8692 18.3712C16.8106 17.2865 16.8552 15.6775 16.8424 14.3147C16.8276 12.7948 16.7172 11.1667 16.3914 9.67867C16.2438 9.01001 15.9541 8.34667 15.4478 7.87118C14.8439 7.30229 14.0585 7.17705 13.2667 7.09957C11.4391 6.92233 9.60823 6.77161 7.77951 6.6071C7.57785 6.58906 7.39531 6.66654 7.23186 6.77692C7.20002 6.77161 7.17243 6.75675 7.14058 6.75357C5.89455 6.61453 4.44793 6.72491 3.67102 7.85207C3.22843 8.49313 3.19659 9.25837 3.18385 10.0109C3.16899 10.8324 3.16581 11.6539 3.17218 12.4753C3.17748 13.2225 3.19234 13.9687 3.21357 14.7159C3.23692 15.5193 3.19445 16.3928 3.53621 17.14C4.15392 18.4922 5.72791 18.7023 7.03232 18.9178ZM5.31081 9.78799C5.32248 9.37512 5.28108 9.01957 5.71199 8.88477C6.1567 8.74574 6.68526 8.82534 7.14058 8.87628C7.34967 8.89963 7.54814 8.83277 7.71583 8.71389C7.73812 8.71708 7.75829 8.72769 7.78058 8.72982C9.02449 8.84126 10.2684 8.9527 11.5123 9.06414C12.1258 9.11933 12.7445 9.15754 13.3559 9.22971C13.7348 9.27429 14.0076 9.32417 14.1784 9.68822C14.5817 10.5437 14.5531 11.7154 14.6316 12.6367C14.7325 13.7935 14.8513 15.0735 14.5924 16.2177C14.5361 16.4639 14.4586 16.8311 14.2559 17.0063C13.9237 17.2928 13.2306 17.1994 12.8316 17.2101C11.6015 17.243 10.3692 17.1973 9.14442 17.0742C8.0629 16.9659 6.81155 16.881 5.78947 16.4873C5.50184 16.3769 5.42119 16.2495 5.38404 15.9481C5.30762 15.324 5.33203 14.6713 5.31717 14.043C5.28639 12.6271 5.27154 11.2049 5.31081 9.78799Z" fill="#1E1E1E"/>
<path d="M28.9629 8.29457C28.2847 7.05597 26.9687 6.60595 25.642 6.47965C24.0054 6.32363 22.3242 6.40748 20.6812 6.38731C19.8884 6.37776 18.9915 6.25358 18.2549 6.61232C17.5725 6.94452 17.0821 7.71295 17.2254 8.47394C17.2318 9.98743 17.3178 11.4977 17.5067 13.0006C17.6839 14.4165 17.8155 15.9862 18.3282 17.3278C18.567 17.954 18.9395 18.5218 19.5286 18.8678C20.2259 19.2775 21.076 19.3221 21.8604 19.3995C23.4206 19.5545 24.9956 19.5747 26.559 19.46C27.2266 19.4112 27.9982 19.4261 28.583 19.0588C29.2718 18.6269 29.4745 17.8478 29.5032 17.0858C29.5605 15.5351 29.4979 13.9696 29.4936 12.4179C29.4915 11.0626 29.6401 9.52999 28.9629 8.29457ZM27.3815 16.2919C27.3826 16.5785 27.4038 16.8767 27.3794 17.1622C27.3805 17.1463 27.3762 17.2174 27.3699 17.2726C27.3518 17.2726 27.3454 17.2747 27.3051 17.2726C27.1342 17.263 26.9432 17.3076 26.7734 17.3214C26.4539 17.3479 26.1334 17.3681 25.8129 17.3819C24.5668 17.4392 23.3165 17.4116 22.0737 17.2981C21.6491 17.2588 21.0484 17.2768 20.6568 17.0709C20.3596 16.9138 20.2842 16.5307 20.2078 16.2335C19.5859 13.8062 19.3736 11.2409 19.3524 8.73503C19.3747 8.66392 19.3874 8.59281 19.3927 8.51958C19.6135 8.55354 19.9775 8.50259 20.1569 8.50472C20.7873 8.51215 21.4167 8.51958 22.0461 8.52807C23.1605 8.54187 24.2845 8.51321 25.3979 8.58432C26.1408 8.63208 26.9358 8.7881 27.2107 9.56607C27.5386 10.4937 27.3699 11.6718 27.373 12.6345C27.3752 13.8529 27.3784 15.0724 27.3815 16.2919Z" fill="#1E1E1E"/>
<path d="M26.643 20.5681C24.4544 20.4259 22.2606 20.3463 20.07 20.272C15.2472 20.1096 10.4212 20.0703 5.5952 20.1435C4.58479 20.1595 4.32476 21.3238 4.81086 21.9213C4.20589 23.628 4.93185 26.0659 6.90173 26.205C9.04142 26.3557 11.2565 26.1731 13.4015 26.154C15.5401 26.1349 17.6787 26.1158 19.8174 26.0967C21.956 26.0776 24.0957 26.0585 26.2343 26.0394C26.9168 26.033 27.7277 26.1307 28.2732 25.6255C28.8304 25.1086 28.8102 24.1746 28.8612 23.4805C28.9111 22.7916 29.0066 21.9914 28.6234 21.3768C28.1798 20.6626 27.4061 20.618 26.643 20.5681ZM26.7279 23.9708C26.0104 24.0578 25.052 23.9273 24.464 23.9326C23.5788 23.94 22.6947 23.9485 21.8095 23.9559C19.8917 23.9729 17.9738 23.9899 16.057 24.0069L10.3044 24.0589C9.42883 24.0663 8.52348 24.1449 7.64999 24.0822C7.0811 24.0419 7.05032 24.1056 6.8423 23.6524C6.7489 23.4497 6.56316 22.3979 6.98452 22.3947C7.18618 22.3926 7.34962 22.3352 7.49184 22.2546C10.8818 22.2238 14.2707 22.2355 17.6596 22.3215C19.6327 22.3713 21.6058 22.4414 23.5778 22.5316C24.5691 22.5772 25.6601 22.7704 26.6451 22.6887C26.6843 22.6972 26.7045 22.6993 26.7374 22.7067C26.7448 22.7609 26.7544 22.816 26.7735 22.8925C26.6865 23.2066 26.7724 23.6174 26.7279 23.9708Z" fill="#1E1E1E"/>
<path d="M24.7505 30.1926C23.3527 30.0917 21.957 30.1883 20.5783 30.4324C20.331 30.476 20.0667 30.7105 19.9436 30.9207C19.8109 31.1478 19.7536 31.4832 19.8364 31.739C20.0264 32.328 20.555 32.5849 21.1419 32.4798C21.3022 32.4511 21.4624 32.4246 21.6237 32.4013C21.6471 32.3981 21.6588 32.3959 21.6726 32.3938C21.6736 32.3938 21.6736 32.3938 21.6757 32.3938C21.75 32.3853 21.8254 32.3758 21.8997 32.3673C22.2107 32.3333 22.5227 32.3079 22.8358 32.293C23.4737 32.2612 24.1126 32.2707 24.7494 32.3163C25.3045 32.3567 25.8352 31.7995 25.8108 31.255C25.7843 30.6447 25.3448 30.235 24.7505 30.1926Z" fill="#1E1E1E"/>
<path d="M53.3812 12.0562C53.3833 12.0594 53.3865 12.0636 53.3886 12.0668C53.3578 12.0328 53.3366 12.0031 53.3345 11.9978C53.3472 12.0137 53.361 12.0296 53.3737 12.0466C53.378 12.0509 53.378 12.0509 53.3812 12.0562Z" fill="#1E1E1E"/>
<path d="M50.4069 9.57275C50.4345 9.58655 50.4429 9.59186 50.4069 9.57275V9.57275Z" fill="#1E1E1E"/>
<path d="M50.314 9.53128C50.3447 9.5419 50.3808 9.55994 50.4073 9.57268C50.3872 9.56206 50.3617 9.5472 50.3097 9.51855C50.3479 9.53978 50.3914 9.5557 50.4296 9.5748C50.5188 9.61938 50.6069 9.6682 50.6918 9.71914C50.8733 9.82953 51.0442 9.9537 51.214 10.08C51.2395 10.1002 51.266 10.1203 51.2915 10.1405C51.37 10.2021 51.4475 10.2636 51.526 10.3252C51.682 10.4483 51.8381 10.5735 51.992 10.6998C52.3072 10.9599 52.615 11.2295 52.9026 11.5213C53.0491 11.6699 53.1902 11.8238 53.3229 11.9851C53.3261 11.9894 53.3303 11.9936 53.3335 11.9979C53.3325 11.9936 53.342 12.0053 53.3728 12.0467C53.3845 12.0605 53.394 12.0754 53.4067 12.0881C53.4004 12.0817 53.394 12.0743 53.3876 12.0669C53.4439 12.1433 53.497 12.2218 53.55 12.3004C53.878 12.796 54.4692 12.9626 55.002 12.6814C55.4891 12.4235 55.6897 11.6933 55.3819 11.2295C54.8523 10.4292 54.1794 9.76372 53.4407 9.15875C52.6511 8.51238 51.8593 7.81401 50.8765 7.48499C50.3129 7.29607 49.7398 7.70363 49.571 8.22582C49.3895 8.79152 49.7896 9.3551 50.314 9.53128Z" fill="#1E1E1E"/>
</svg>
