<svg width="258" height="15" viewBox="0 0 258 15" fill="none" xmlns="http://www.w3.org/2000/svg">
<path fill-rule="evenodd" clip-rule="evenodd" d="M130.095 11.669C130.322 11.929 130.548 12.1914 130.772 12.4569C131.671 13.3329 132.643 13.0486 133.231 12.3159C133.424 12.186 133.624 12.0239 133.834 11.8269C135.294 10.4654 137.065 8.65721 138.192 6.73029C138.246 6.72813 138.273 6.7632 138.301 6.79827C138.328 6.83333 138.355 6.8684 138.409 6.86625C138.562 7.25261 138.861 7.56654 139.14 7.85984C139.272 7.99901 139.4 8.13354 139.506 8.26896C139.767 8.60161 140.015 8.93474 140.259 9.26241C140.735 9.90198 141.196 10.5207 141.702 11.0744C142.909 12.6174 144.216 13.8669 145.897 12.7859C147.019 12.1616 147.843 10.9063 148.666 9.65093C149.078 9.02325 149.49 8.39557 149.939 7.84677L150.087 7.63377C150.019 7.83316 150.163 7.98243 150.475 7.96981C150.694 8.25036 151.005 8.39855 151.317 8.54675C151.472 8.62085 151.628 8.69495 151.772 8.78559L154.047 10.4301C155.78 11.6624 157.414 13.1881 159.047 14.7139C159.593 15.2707 160.544 14.9427 160.957 14.3472C161.314 13.6815 161.673 13.0519 162.031 12.4224C162.39 11.7929 162.748 11.1633 163.106 10.4976L164.334 8.27724C164.437 8.12835 164.54 7.97946 164.64 7.686L164.743 7.53711C165.43 7.91851 166.07 8.59104 166.694 9.24676C166.953 9.51866 167.209 9.78767 167.464 10.0318C167.825 10.3379 168.187 10.6637 168.554 10.9944C169.181 11.5591 169.824 12.1383 170.508 12.6582C172.357 14.3199 174.187 15.1142 176.163 13.0082C176.89 12.1829 177.591 11.3586 178.291 10.5343C178.991 9.71007 179.692 8.8858 180.419 8.06046C181.312 8.88789 182.203 9.63488 183.14 10.4197C183.459 10.6869 183.783 10.9586 184.114 11.2393C184.313 11.3997 184.512 11.572 184.712 11.7457C185.717 12.6166 186.759 13.5203 187.993 13.1083C189.029 12.7392 189.987 11.6332 190.886 10.5953C191.18 10.2562 191.468 9.92439 191.749 9.62791C192.375 9.02375 193 8.41958 193.519 7.81972C194.145 7.21555 194.571 7.19832 195.326 7.6019C196.234 8.09488 197.075 8.7651 197.913 9.43253C199.363 10.5884 200.803 11.7359 202.564 11.9398C204.962 12.2036 206.723 10.3938 208.506 8.56103C208.868 8.18869 209.231 7.8154 209.601 7.45836C210.223 6.81505 210.239 6.82995 210.705 7.27982C210.785 7.35657 210.877 7.44598 210.988 7.54693C211.314 7.82319 211.614 8.10052 211.913 8.37785C212.212 8.65514 212.512 8.93244 212.838 9.20865C214.142 10.3136 215.446 11.4185 216.946 11.792C218.369 12.0095 219.576 11.1895 220.863 10.3147C220.93 10.2693 220.997 10.2237 221.065 10.1781L223.27 8.78646C223.479 8.65516 223.72 8.47614 223.98 8.28279C224.64 7.79301 225.424 7.21122 226.108 7.07977C227.319 7.03076 228.85 8.39957 229.933 9.3676C229.992 9.42063 230.05 9.47247 230.107 9.5228C230.467 9.85624 230.809 10.2427 231.152 10.6304C231.95 11.5323 232.753 12.4405 233.803 12.7017C235.196 13.0794 236.564 12.3005 237.602 11.1008C237.857 10.8324 238.106 10.5284 238.355 10.2236C239.226 9.16097 240.103 8.08958 241.271 8.49213C242.296 8.74702 243.183 9.54681 244.057 10.3343C244.464 10.7005 244.867 11.0641 245.28 11.3689C246.69 12.4695 248.201 13.2767 249.911 13.4969C253.011 13.9503 256.168 12.2307 257.785 8.4027C258.794 5.90176 255.976 3.84508 254.968 6.34601C253.554 9.73166 250.466 9.85659 248.088 8.361C247.317 7.87628 246.588 7.25309 245.86 6.63098C244.342 5.33353 242.829 4.0408 240.956 4.01878C239.675 3.9259 238.521 4.69619 237.476 5.60674C237.306 5.79146 237.11 6.0379 236.897 6.30596C236.07 7.34677 234.985 8.71344 234.122 8.05788C233.49 7.66039 232.888 6.96488 232.279 6.26206C231.846 5.76283 231.411 5.25991 230.959 4.85748C229.765 3.89281 228.358 2.93676 227.074 2.6993C225.753 2.47796 224.646 3.16091 223.459 3.89338C223.395 3.9325 223.332 3.97176 223.268 4.01103C222.592 4.41049 221.918 4.88962 221.244 5.36876C220.345 6.00761 219.446 6.64647 218.543 7.09648C217.432 7.61066 216.358 6.69704 215.414 5.89342C215.193 5.70565 214.98 5.52388 214.774 5.36773C214.486 5.11101 214.189 4.80385 213.883 4.48666C213.032 3.60664 212.107 2.64942 211.085 2.47803C209.498 2.07628 208.132 3.64628 206.828 5.14578C206.107 5.97462 205.405 6.78192 204.694 7.22279C202.875 8.3208 201.063 6.82228 199.424 5.46673C198.979 5.09884 198.547 4.74148 198.131 4.44941C196.936 3.48475 195.533 2.67327 194.155 3.01844C192.932 3.30666 191.873 4.47406 190.898 5.54985C190.69 5.77848 190.487 6.00297 190.286 6.21401C190.083 6.40973 189.849 6.68267 189.6 6.97312C189.079 7.57925 188.493 8.26161 187.994 8.47748C187.887 8.48179 187.684 8.92414 187.684 8.92414C187.548 8.92964 187.188 8.59085 186.888 8.30951C186.719 8.14985 186.568 8.0087 186.49 7.95948C185.728 7.26674 184.94 6.57507 184.152 5.88341C183.363 5.19174 182.575 4.50008 181.813 3.80733C181.813 3.80733 181.707 3.81164 181.703 3.66706C181.158 3.11029 180.303 3.00017 179.684 3.8935C179.216 4.41891 178.776 4.94325 178.335 5.46759C177.894 5.99192 177.453 6.51626 176.986 7.04168C176.779 7.33946 176.546 7.60218 176.312 7.86489C176.078 8.12759 175.844 8.39029 175.638 8.68806C175.529 8.79347 175.383 8.98848 175.221 9.2046C174.919 9.60782 174.562 10.0845 174.287 10.1899C173.656 10.3231 172.644 9.27021 171.899 8.49487C171.642 8.22804 171.417 7.99408 171.25 7.85263C170.761 7.43828 170.299 7.02285 169.836 6.60742C169.374 6.19199 168.912 5.77656 168.423 5.36221C168.285 5.23722 168.145 5.10645 168.003 4.9735C166.565 3.63274 164.89 2.07009 163.383 3.97432C162.766 4.75376 162.272 5.76902 161.808 6.725C161.649 7.05257 161.493 7.37319 161.337 7.67497C161.132 8.04518 160.901 8.45264 160.671 8.86009C160.44 9.26722 160.21 9.67433 160.006 10.0442C157.285 7.54951 154.464 5.34825 151.443 3.73392C149.674 2.82752 148.651 4.18405 147.466 5.75659C147.423 5.81283 147.381 5.86935 147.338 5.92605C147.163 6.17791 146.989 6.45275 146.813 6.73124C146.364 7.44052 145.9 8.17341 145.375 8.61034C145.105 8.87071 145.03 8.96197 144.988 8.94852C144.932 8.93077 144.935 8.73047 144.626 8.49592C144.405 8.30858 144.131 7.92373 143.874 7.56418C143.752 7.39355 143.635 7.22863 143.529 7.0932C143.268 6.7605 143.02 6.4273 142.776 6.09957C142.3 5.46007 141.839 4.84138 141.333 4.28777C141.245 4.17455 141.153 4.0539 141.059 3.92947C140.568 3.28318 140 2.53505 139.367 2.19662C137.932 1.53165 136.984 2.75361 136.048 3.95975C135.86 4.20205 135.672 4.4437 135.481 4.66929C134.756 5.56693 134.031 6.46456 133.199 7.3665L132.311 8.22388C131.846 7.69837 131.376 7.18063 130.906 6.6629C130.81 6.55769 130.715 6.45249 130.619 6.34721C130.369 6.06793 130.118 5.79029 129.866 5.51311C129.424 5.01892 128.985 4.51959 128.554 4.00851C128.329 3.76264 128.114 3.53511 127.905 3.33108C127.678 3.07099 127.452 2.80867 127.228 2.54316C126.329 1.66712 125.357 1.95137 124.769 2.68407C124.576 2.814 124.376 2.9761 124.166 3.17308C122.705 4.53461 120.935 6.3428 119.808 8.26973C119.754 8.27188 119.727 8.23681 119.699 8.20175C119.672 8.16668 119.645 8.13161 119.591 8.13376C119.438 7.7474 119.139 7.43348 118.86 7.14019C118.728 7.00101 118.6 6.86647 118.494 6.73105C118.233 6.39838 117.985 6.06523 117.741 5.73753C117.265 5.09799 116.804 4.47926 116.298 3.92562C115.091 2.38263 113.784 1.13311 112.103 2.2141C110.981 2.83837 110.157 4.09373 109.334 5.3491C108.922 5.97677 108.51 6.60445 108.061 7.15324L107.913 7.36626C107.981 7.16685 107.837 7.01758 107.525 7.0302C107.306 6.74966 106.995 6.60146 106.683 6.45326C106.528 6.37916 106.372 6.30506 106.228 6.21442L103.953 4.56993C102.22 3.33765 100.586 1.81189 98.953 0.286136C98.4074 -0.270642 97.456 0.0572899 97.0434 0.652841C96.6857 1.31853 96.3272 1.94807 95.9687 2.57761C95.6101 3.20715 95.2516 3.83669 94.8939 4.50238L93.6661 6.72277C93.563 6.87166 93.4598 7.02055 93.36 7.31401L93.2569 7.4629C92.5702 7.0815 91.9301 6.40897 91.3061 5.75325C91.0473 5.48135 90.7913 5.21234 90.5358 4.96817C90.1746 4.66211 89.813 4.33633 89.4459 4.00561C88.8189 3.44086 88.176 2.86171 87.4921 2.34178C85.6426 0.680066 83.813 -0.114175 81.8367 1.99179C81.1097 2.81714 80.4094 3.6414 79.709 4.46567C79.0086 5.28994 78.3083 6.11421 77.5813 6.93955C76.688 6.1121 75.7965 5.3651 74.86 4.58032C74.541 4.31305 74.2169 4.0414 73.8856 3.76069C73.687 3.60032 73.4882 3.42795 73.2879 3.25429C72.2834 2.38336 71.2411 1.47976 70.0068 1.89167C68.9711 2.26082 68.0129 3.36683 67.1136 4.40476C66.8198 4.74382 66.5324 5.07562 66.2506 5.37209C65.6251 5.97626 64.9996 6.58043 64.4805 7.18028C63.8551 7.78445 63.4292 7.80168 62.6741 7.3981C61.7657 6.90512 60.9246 6.2349 60.087 5.56747C58.6365 4.41162 57.1965 3.26415 55.4355 3.0602C53.0383 2.79637 51.2774 4.60616 49.4941 6.43897C49.1319 6.81131 48.7687 7.1846 48.399 7.54164C47.7766 8.18495 47.7611 8.17005 47.295 7.72018C47.2154 7.64343 47.1228 7.55403 47.0118 7.45307C46.6858 7.17684 46.3864 6.89953 46.087 6.62223C45.7877 6.34491 45.4883 6.06759 45.1623 5.79135C43.8583 4.68641 42.5543 3.58147 41.054 3.20805C39.6309 2.99049 38.4241 3.81046 37.1365 4.68533C37.0697 4.73073 37.0026 4.77629 36.9353 4.82186L34.7296 6.21354C34.5215 6.34484 34.2803 6.52386 34.0198 6.71721C33.36 7.20698 32.5762 7.78878 31.8917 7.92024C30.6806 7.96925 29.1497 6.60047 28.067 5.63245C28.0077 5.5794 27.9497 5.52755 27.8932 5.4772C27.5332 5.14376 27.1913 4.75729 26.8483 4.36965C26.0503 3.46774 25.2468 2.55952 24.1975 2.29835C22.8036 1.92061 21.4362 2.69951 20.3982 3.89923C20.1431 4.16758 19.8941 4.47163 19.6445 4.77639C18.7744 5.83903 17.897 6.91042 16.7285 6.50787C15.7044 6.25298 14.8168 5.45318 13.9428 4.66569C13.5364 4.29948 13.1329 3.93594 12.7201 3.63109C11.3096 2.53046 9.79938 1.7233 8.08945 1.50307C4.98897 1.04968 1.83172 2.7693 0.214533 6.5973C-0.793724 9.09824 2.02382 11.1549 3.03208 8.65399C4.44629 5.26834 7.53352 5.14341 9.91199 6.63901C10.6828 7.12371 11.4121 7.74691 12.1401 8.36902C13.6583 9.66647 15.171 10.9592 17.0441 10.9812C18.3249 11.0741 19.4793 10.3038 20.524 9.39326C20.6944 9.20854 20.8901 8.96209 21.1031 8.69403C21.9298 7.65322 23.0153 6.28657 23.8776 6.94213C24.5098 7.33961 25.1123 8.03513 25.7212 8.73796C26.1536 9.23719 26.5893 9.7401 27.041 10.1425C28.2353 11.1072 29.6424 12.0632 30.9265 12.3007C32.2465 12.522 33.3538 11.8391 34.5414 11.1066C34.6049 11.0675 34.6685 11.0282 34.7324 10.989C35.4082 10.5895 36.0823 10.1104 36.7563 9.63124C37.655 8.99238 38.5537 8.35353 39.4567 7.90352C40.5678 7.38934 41.6415 8.30297 42.586 9.10659C42.8067 9.29436 43.0203 9.47613 43.2257 9.63227C43.5139 9.889 43.8107 10.1962 44.1173 10.5134C44.9677 11.3934 45.8926 12.3506 46.9148 12.522C48.5023 12.9237 49.8679 11.3537 51.1722 9.85423C51.8932 9.02539 52.5954 8.21809 53.3059 7.77721C55.1246 6.67921 56.9368 8.17772 58.5762 9.53328C59.0211 9.90117 59.4532 10.2585 59.8693 10.5506C61.0635 11.5153 62.4673 12.3267 63.8447 11.9816C65.0683 11.6934 66.1269 10.526 67.1025 9.45018C67.3098 9.22154 67.5134 8.99704 67.714 8.786C67.9166 8.59028 68.151 8.31734 68.4005 8.02689C68.921 7.42076 69.507 6.7384 70.0063 6.52253C70.1128 6.51822 70.3158 6.07586 70.3158 6.07586C70.4516 6.07037 70.8121 6.40915 71.1115 6.69048C71.2815 6.85015 71.4317 6.99131 71.51 7.04053C72.2717 7.73325 73.06 8.42489 73.8484 9.11654C74.6368 9.80822 75.4252 10.4999 76.1869 11.1927C76.1869 11.1927 76.2934 11.1884 76.2967 11.3329C76.8422 11.8897 77.6972 11.9998 78.3161 11.1065C78.7835 10.5811 79.2244 10.0568 79.6652 9.53242C80.1061 9.00809 80.5469 8.48375 81.0144 7.95833C81.2207 7.66055 81.4544 7.39784 81.6881 7.13513C81.9219 6.87242 82.1556 6.60972 82.3619 6.31195C82.471 6.20654 82.617 6.01153 82.7788 5.79541C83.0807 5.39219 83.4376 4.9155 83.7127 4.81015C84.3438 4.67694 85.356 5.72978 86.1014 6.50513C86.3579 6.77196 86.5828 7.00592 86.7498 7.14737C87.2388 7.56173 87.7011 7.97716 88.1635 8.39259C88.6259 8.80802 89.0883 9.22345 89.5772 9.6378C89.7147 9.76279 89.8549 9.89355 89.9974 10.0265C91.4346 11.3673 93.1097 12.9299 94.6171 11.0257C95.2342 10.2463 95.7276 9.231 96.1922 8.27502C96.3514 7.94744 96.5072 7.62683 96.6635 7.32504C96.8681 6.95497 97.0985 6.54768 97.3289 6.14039C97.5593 5.73311 97.7898 5.32583 97.9944 4.95576C100.715 7.4505 103.536 9.65176 106.557 11.2661C108.326 12.1725 109.349 10.816 110.534 9.24342C110.577 9.18718 110.619 9.13066 110.662 9.07396C110.837 8.8221 111.011 8.54726 111.187 8.26878C111.636 7.5595 112.1 6.8266 112.625 6.38967C112.895 6.1293 112.97 6.03804 113.012 6.05149C113.068 6.06924 113.065 6.26954 113.374 6.5041C113.595 6.69143 113.869 7.07626 114.126 7.4358C114.248 7.60644 114.365 7.77138 114.471 7.90681C114.732 8.23949 114.98 8.57266 115.224 8.90037C115.7 9.5399 116.161 10.1586 116.667 10.7122C116.755 10.8255 116.847 10.9461 116.941 11.0706C117.432 11.7168 118 12.465 118.633 12.8034C120.068 13.4684 121.016 12.2464 121.952 11.0403C122.14 10.798 122.328 10.5563 122.519 10.3307C123.244 9.43308 123.969 8.53545 124.801 7.63351L125.689 6.77613C126.154 7.30165 126.624 7.81938 127.094 8.33712C127.19 8.44214 127.285 8.54715 127.38 8.65224C127.631 8.93169 127.882 9.20949 128.134 9.48684C128.576 9.98106 129.015 10.4804 129.446 10.9915C129.671 11.2374 129.886 11.4649 130.095 11.669Z" fill="#F7C300"/>
</svg>
