<svg width="159" height="15" viewBox="0 0 159 15" fill="none" xmlns="http://www.w3.org/2000/svg">
<path d="M158.382 10.7507C156.559 8.65161 154.614 6.7243 152.791 4.6252C150.973 2.69292 149.684 1.74169 147.576 3.66125C145.84 5.23224 143.736 7.31862 142.396 9.54199C142.269 9.54696 142.265 9.38014 142.139 9.38511C141.87 8.72776 141.226 8.25215 140.834 7.76659C139.921 6.63363 139.134 5.4957 138.225 4.52956C136.79 2.74919 135.236 1.30743 133.239 2.55473C131.238 3.6352 130.036 6.35407 128.435 8.25374C128.312 8.42553 128.189 8.59732 128.067 8.76912C128.438 8.42056 128.304 8.09188 127.798 8.11177C127.407 7.62621 126.77 7.48424 126.256 7.17048C125.355 6.53799 124.453 5.90549 123.552 5.273C121.492 3.85113 119.551 2.09064 117.609 0.330157C116.961 -0.312279 115.83 0.0661037 115.34 0.753278C114.49 2.28948 113.635 3.65885 112.785 5.19505C112.299 6.04905 111.812 6.90305 111.326 7.75704C111.203 7.92884 111.081 8.10063 110.962 8.43925C110.839 8.61104 110.839 8.61104 110.839 8.61104C109.685 7.98849 108.641 6.69367 107.605 5.7325C106.443 4.77631 105.277 3.65329 103.988 2.70206C101.79 0.784691 99.615 -0.13174 97.266 2.29822C95.538 4.20286 93.9364 6.10253 92.2083 8.00717C90.785 6.72727 89.3657 5.61419 87.8159 4.33926C86.3965 3.22618 84.9653 1.61264 83.2058 2.1827C81.5727 2.74779 80.1016 4.80931 78.7413 6.19857C77.9979 6.89568 77.2545 7.5928 76.6376 8.28494C75.8942 8.98206 75.3881 9.00194 74.4906 8.53627C71.5411 6.98237 69.1888 3.90222 65.8873 3.53099C62.4592 3.16474 60.126 6.26199 57.5241 8.7019C56.6581 9.57081 56.7807 9.39901 55.8753 8.5997C55.1004 7.96223 54.452 7.31979 53.6771 6.68233C52.1273 5.4074 50.5774 4.13247 48.7943 3.70159C47.015 3.43754 45.5203 4.49812 43.8991 5.56368C43.0252 6.09894 42.1513 6.63421 41.2774 7.16947C40.4035 7.70474 39.0393 8.92717 37.9045 9.13873C36.3861 9.19838 34.4449 7.4379 33.1521 6.31985C31.7288 5.03995 30.5428 3.08281 28.7596 2.65194C27.103 2.21609 25.4778 3.11482 24.244 4.49911C22.8837 5.88837 21.6696 8.10678 19.8825 7.50908C18.0993 7.0782 16.6642 5.29783 15.1183 4.18972C13.4419 2.91977 11.6469 1.98842 9.61463 1.73431C5.92959 1.21117 2.17707 3.19535 0.254981 7.61227C-0.943371 10.498 2.40539 12.8711 3.60374 9.98537C5.28458 6.07885 8.95388 5.9347 11.7808 7.66039C14.6077 9.38608 16.9639 12.6331 20.2576 12.6706C21.7798 12.7778 23.1519 11.889 24.3936 10.8384C25.3822 9.79767 27.0906 7.05892 28.3795 8.01014C29.6644 8.79455 30.8465 10.5849 32.1393 11.7029C33.5587 12.816 35.2311 13.9191 36.7573 14.1931C38.41 14.4621 39.7821 13.5734 41.2808 12.6796C43.1551 11.6041 45.0176 10.0281 46.8958 9.11945C48.5249 8.38754 50.0865 10.1629 51.3754 11.1142C52.6683 12.2322 54.1073 14.1794 55.76 14.4484C58.6898 15.1682 60.9836 10.4027 63.3562 8.97371C66.1043 7.36294 68.8401 10.595 71.157 12.1738C72.5764 13.2868 74.2448 14.2232 75.8818 13.8249C77.6453 13.4216 79.1203 11.527 80.4807 10.1377C81.2241 9.44057 82.3274 7.89443 83.2052 7.52599C83.3317 7.52102 83.573 7.01061 83.573 7.01061C83.826 7.00067 84.7353 7.96681 84.9923 8.12369C86.8031 9.72232 88.7404 11.316 90.5511 12.9146C90.5511 12.9146 90.6776 12.9097 90.6816 13.0765C91.3299 13.7189 92.3461 13.846 93.0817 12.8152C94.1928 11.6027 95.1775 10.3952 96.2887 9.18269C96.7791 8.49551 97.3999 7.97019 97.8903 7.28302C98.262 6.93446 98.9936 5.73688 99.4958 5.55017C100.504 5.34358 102.331 7.6095 103.105 8.24697C104.268 9.20317 105.304 10.1643 106.466 11.1205C108.277 12.7192 110.487 15.137 112.456 12.722C113.441 11.5144 114.161 9.81638 114.888 8.45197C115.375 7.59798 115.984 6.57219 116.47 5.71819C119.704 8.59672 123.057 11.1366 126.647 12.9993C128.825 14.0826 130.051 12.3647 131.526 10.47C132.262 9.43919 132.99 8.07479 133.859 7.3727C134.603 6.67558 134.105 7.02911 134.749 7.50473C135.137 7.82346 135.662 8.63769 136.054 9.12324C136.967 10.2562 137.754 11.3941 138.663 12.3603C139.315 13.1695 140.102 14.3075 141 14.7731C143.048 15.6945 144.262 13.4761 145.618 11.9201C146.48 10.8843 147.342 9.8486 148.331 8.80789C148.331 8.80789 149.074 8.11078 149.446 7.76222C149.576 7.92407 149.707 8.08592 149.837 8.24778C151.66 10.3469 153.605 12.2742 155.428 14.3733C157.63 16.4575 160.204 12.8498 158.382 10.7507Z" fill="#59C69F"/>
</svg>
