<svg width="196" height="13" viewBox="0 0 196 13" fill="none" xmlns="http://www.w3.org/2000/svg">
<path d="M195.238 9.31728C192.991 7.49806 190.593 5.82773 188.347 4.00851C186.105 2.33386 184.516 1.50947 181.918 3.17308C179.778 4.53461 177.185 6.3428 175.532 8.26972C175.376 8.27403 175.371 8.12945 175.215 8.13376C174.884 7.56406 174.089 7.15186 173.607 6.73105C172.481 5.74915 171.511 4.76294 170.39 3.92562C168.621 2.38263 166.706 1.13311 164.245 2.2141C161.778 3.1505 160.296 5.50686 158.322 7.15324C158.171 7.30213 158.02 7.45101 157.868 7.5999C158.327 7.29782 158.161 7.01297 157.537 7.0302C157.055 6.60938 156.27 6.48634 155.636 6.21442C154.525 5.66626 153.414 5.11809 152.303 4.56993C149.764 3.33765 147.371 1.81189 144.978 0.286136C144.178 -0.270642 142.784 0.0572899 142.18 0.652841C141.132 1.98421 140.079 3.17101 139.031 4.50238C138.431 5.24251 137.831 5.98264 137.232 6.72277C137.081 6.87166 136.93 7.02055 136.783 7.31401C136.632 7.4629 136.632 7.4629 136.632 7.4629C135.209 6.92336 133.922 5.80118 132.646 4.96817C131.213 4.13946 129.775 3.16618 128.186 2.34178C125.476 0.680066 122.796 -0.114175 119.9 1.99179C117.77 3.64248 115.796 5.28886 113.666 6.93955C111.911 5.8303 110.161 4.86563 108.251 3.76069C106.501 2.79603 104.737 1.39762 102.568 1.89167C100.555 2.38141 98.7416 4.16807 97.0648 5.37209C96.1484 5.97626 95.2319 6.58042 94.4715 7.18028C93.5551 7.78445 92.9312 7.80168 91.8248 7.3981C88.189 6.05139 85.2893 3.38192 81.2195 3.06019C76.9937 2.74277 74.1176 5.42706 70.9102 7.54164C69.8427 8.2947 69.9938 8.14581 68.8777 7.45307C67.9225 6.9006 67.1232 6.34382 66.168 5.79135C64.2575 4.68641 62.347 3.58147 60.1489 3.20805C57.9556 2.9792 56.1131 3.89837 54.1146 4.82186C53.0373 5.28575 51.9601 5.74965 50.8828 6.21354C49.8056 6.67744 48.1239 7.73688 46.725 7.92024C44.8534 7.97193 42.4604 6.44618 40.8667 5.4772C39.1122 4.36795 37.6503 2.67177 35.4521 2.29835C33.4099 1.92061 31.4066 2.69951 29.8857 3.89923C28.2088 5.10326 26.7122 7.02587 24.5092 6.50787C22.3111 6.13444 20.542 4.59145 18.6364 3.63109C16.5699 2.53046 14.3572 1.7233 11.852 1.50307C7.30943 1.04968 2.68368 2.7693 0.314316 6.5973C-1.1629 9.09823 2.96513 11.1549 4.44235 8.65398C6.51433 5.26834 11.0375 5.14341 14.5222 6.63901C18.007 8.1346 20.9115 10.9486 24.9716 10.9812C26.8481 11.0741 28.5395 10.3038 30.0701 9.39326C31.2887 8.49131 33.3947 6.11773 34.9835 6.94213C36.5675 7.62194 38.0246 9.17354 39.6183 10.1425C41.3679 11.1072 43.4295 12.0632 45.3109 12.3007C47.3482 12.5339 49.0396 11.7636 50.887 10.989C53.1975 10.0569 55.4933 8.69104 57.8086 7.90352C59.8169 7.2692 61.7419 8.80788 63.3307 9.63227C64.9244 10.6012 66.6983 12.2888 68.7356 12.522C72.3472 13.1458 75.1748 9.0157 78.0994 7.77721C81.4871 6.38122 84.8595 9.18234 87.7155 10.5506C89.4652 11.5153 91.5219 12.3267 93.5398 11.9816C95.7137 11.6321 97.532 9.99002 99.2089 8.786C100.125 8.18183 101.485 6.84184 102.567 6.52253C102.723 6.51822 103.021 6.07586 103.021 6.07586C103.333 6.06725 104.454 6.90457 104.77 7.04053C107.003 8.42601 109.391 9.80719 111.623 11.1927C111.623 11.1927 111.779 11.1884 111.784 11.3329C112.583 11.8897 113.835 11.9998 114.742 11.1065C116.112 10.0557 117.326 9.00916 118.695 7.95833C119.3 7.36278 120.065 6.9075 120.67 6.31195C121.128 6.00986 122.03 4.97196 122.649 4.81015C123.892 4.6311 126.143 6.5949 127.099 7.14737C128.531 7.97608 129.808 8.80909 131.241 9.6378C133.473 11.0233 136.198 13.1187 138.625 11.0257C139.839 9.97917 140.726 8.50753 141.623 7.32504C142.223 6.58491 142.974 5.69589 143.573 4.95576C147.56 7.45049 151.693 9.65176 156.118 11.2661C158.804 12.2049 160.315 10.716 162.133 9.07396C163.04 8.18063 163.937 6.99815 165.009 6.38967C165.926 5.78551 165.311 6.0919 166.106 6.5041C166.583 6.78033 167.232 7.486 167.714 7.90681C168.84 8.88871 169.81 9.87492 170.93 10.7122C171.735 11.4136 172.704 12.3998 173.811 12.8034C176.335 13.6019 177.832 11.6793 179.504 10.3307C180.567 9.43308 181.629 8.53545 182.848 7.63351C182.848 7.63351 183.764 7.02934 184.223 6.72726C184.383 6.86753 184.544 7.0078 184.705 7.14807C186.952 8.96729 189.35 10.6376 191.596 12.4568C194.311 14.2631 197.484 11.1365 195.238 9.31728Z" fill="#F7C300"/>
</svg>
