<svg width="49" height="64" viewBox="0 0 49 64" fill="none" xmlns="http://www.w3.org/2000/svg">
<path d="M42.9159 49.5039C42.7939 47.8852 42.5929 46.4998 40.8559 46.0907C40.8999 44.0112 40.9639 41.9277 40.9469 39.8492C40.9349 38.3854 41.0799 35.9364 39.7549 34.9265C39.6349 34.8351 39.5059 34.7715 39.3769 34.709C39.4299 33.6126 39.3189 32.41 38.8349 31.4119C38.4749 30.6691 37.9489 30.391 37.3029 30.2639C37.3399 28.3006 37.7039 25.0522 35.4419 24.2399C34.9099 24.0492 34.3269 23.9916 33.7389 23.9817C33.7649 23.4375 33.7889 22.8933 33.7779 22.3481C33.7649 21.6857 33.7929 20.9319 33.5879 20.2964C33.3019 19.4095 32.5469 18.9706 31.6899 18.7839C31.7809 17.8822 31.7189 16.9527 31.4429 16.0966C31.2439 15.4799 30.8549 14.9447 30.2559 14.6597C29.8999 14.4908 29.5299 14.4094 29.1519 14.3677C29.1329 13.6129 29.1149 12.8572 29.0969 12.1014C29.0759 11.2106 29.1229 10.2662 28.8819 9.39827C28.6299 8.48762 27.9848 7.73683 27.0378 7.50842C26.5498 7.39025 26.0299 7.38134 25.5309 7.34659L24.1888 7.25124C23.6678 7.00595 22.9999 7.12811 22.8769 7.84313C22.6519 9.15201 22.5099 10.4718 22.5019 11.8005C22.4979 12.447 22.5219 13.0915 22.5749 13.736C22.6009 14.0588 22.6689 14.4094 22.7209 14.7589C22.7189 14.7589 22.7159 14.7589 22.7139 14.7589C22.3719 14.755 22.0139 14.7371 21.6769 14.8165C21.0709 14.9605 20.5889 15.3667 20.3889 15.9566C20.1599 16.6349 20.1929 17.4492 20.3109 18.2516C20.3079 17.9428 20.3479 17.627 20.4299 17.3261C20.6189 16.6299 21.3428 16.2724 22.0248 16.4263C22.1918 16.4641 22.3399 16.5395 22.4679 16.6398C22.6359 16.5644 22.8139 16.5177 22.9849 16.5098C23.1399 16.5028 23.3049 16.5395 23.4609 16.6031C23.5649 16.6031 23.6699 16.6031 23.7739 16.5972C24.2119 16.5743 24.6489 16.5286 25.0859 16.4819C25.8359 16.4005 26.5999 16.2565 27.3549 16.2506C27.9679 16.2456 28.3959 16.6637 28.6059 17.196C28.8309 17.766 28.8639 18.4512 28.5539 18.9984C28.2829 19.4771 27.8269 19.7909 27.2999 19.9379C26.6209 20.1266 25.8938 20.0491 25.2018 20.0074C24.9218 19.9905 24.6439 19.9826 24.3649 20.0025C24.3099 20.0114 24.2559 20.0203 24.2009 20.0302C24.0579 20.056 23.9169 20.0839 23.7739 20.1097C22.9599 20.2596 22.0699 20.4175 21.2979 20.0163C20.8389 19.778 20.5699 19.4075 20.4289 18.9855C19.6139 19.1484 18.9009 19.5605 18.5839 20.4503C18.1579 21.648 18.4139 23.1783 18.5939 24.4624C18.4749 24.4713 18.3559 24.4802 18.2369 24.4891C17.8619 24.517 17.4339 24.5001 17.0759 24.6163C16.2859 24.8715 16.1629 25.5945 16.1299 26.3115C16.2879 26.3006 16.4449 26.2896 16.6019 26.2995C17.1979 26.3373 17.7749 26.521 18.2039 26.955C18.8379 27.5975 18.8929 28.5489 18.8939 29.401C18.8959 30.7794 18.8799 32.1935 18.6729 33.5659C18.9629 34.1965 18.8459 34.9026 18.6739 35.5571C18.2379 37.2086 18.5349 39.0656 18.5439 40.7558C18.5489 41.7499 18.5679 42.744 18.6429 43.7351C18.7179 44.7232 18.9449 45.6856 18.8689 46.6816C18.8289 47.202 18.5019 47.8336 17.9169 47.923C15.8939 48.2338 13.8178 48.1275 11.8138 47.7283C11.7848 47.7223 11.7639 47.7065 11.7369 47.6985C11.6899 47.9806 11.6679 48.2805 11.6519 48.5853C11.6689 48.5963 11.6879 48.6012 11.7049 48.6132C12.4759 49.1574 12.6649 49.9687 12.6479 50.8685C12.6339 51.5974 12.6339 52.2995 12.6849 53.0294C12.7809 54.4058 12.9129 55.7594 13.1429 57.106C16.2949 57.0484 19.4479 57.0295 22.5999 57.0166C22.2659 54.1049 22.6449 51.2458 22.7789 48.3321C22.7739 47.5833 22.7629 46.8335 22.7569 46.0848C22.6709 44.6279 22.5209 43.1532 22.7009 41.7261C22.6639 40.0051 22.6099 38.2851 22.5189 36.5671C22.3699 33.7507 22.0808 31.0157 21.8839 28.2539C21.8229 27.4068 21.8399 26.4912 22.5389 25.8994C23.3229 25.235 24.5459 25.2002 25.5289 25.1863C26.2399 25.1764 26.8149 25.7851 26.8259 26.4743C26.8459 27.7316 26.7029 28.9759 26.6569 30.2312C26.6089 31.5152 26.7529 32.7884 26.8499 34.0665C27.0479 36.6594 27.1769 39.2553 27.2249 41.8562C27.2719 44.4243 27.4099 47.0153 27.3619 49.5814C27.3159 52.0641 26.9459 54.526 27.0229 57.0116C30.1759 57.0196 33.3298 57.0345 36.4828 57.0861C36.5229 54.7613 36.7329 52.4395 36.6899 50.1137C36.6769 49.4156 37.2939 48.8257 37.9869 48.8257C38.6969 48.8257 39.2709 49.4176 39.2839 50.1137C39.3279 52.4564 39.1158 54.7951 39.0768 57.1358C40.0448 57.1556 41.0129 57.1676 41.9799 57.1914C42.1459 57.1954 42.2889 57.1636 42.4119 57.109C42.8629 57.0583 43.2719 56.7554 43.2559 56.1715C43.1929 53.949 43.0839 51.7255 42.9159 49.5039ZM30.7488 28.5688C30.8508 27.6104 31.1719 26.7007 32.0089 26.1367C32.4398 25.8457 32.9799 25.7633 33.4869 25.8308C34.0689 25.9083 34.6739 26.1546 35.0799 26.5896C35.9379 27.5082 35.9769 28.9511 35.5179 30.0703C35.3559 30.4655 35.1889 30.7615 34.9139 31.0922C34.7329 31.3097 34.5059 31.4785 34.2779 31.6443C33.9339 31.8946 33.5389 32.0664 33.1589 32.2541C32.5079 32.5758 31.7859 32.41 31.3849 31.7923C31.2219 31.541 31.1819 31.2213 31.2369 30.9174C31.0259 30.6115 30.8899 30.2272 30.8249 29.8638C30.7489 29.4347 30.7028 29.0017 30.7488 28.5688ZM38.1789 48.3609C36.2209 48.1841 34.2689 48.5387 32.3099 48.49C31.5489 48.4711 31.0839 47.909 31.0129 47.202C30.8729 45.8305 31.2079 44.4541 31.2079 43.0797C31.2079 41.7758 31.3059 40.4311 31.1709 39.1341C31.0599 38.0696 30.7849 36.7001 31.0099 35.5322C30.4569 34.9433 30.5019 33.99 31.2639 33.5252C33.2109 32.3375 35.5999 33.1677 37.7219 32.9611C38.4239 32.8926 39.0189 33.6056 39.0189 34.2492C39.0189 34.3316 38.9868 34.3971 38.9728 34.4716C39.0928 34.6255 39.1959 34.8004 39.2649 35.0159C39.5149 35.7984 39.3409 36.7696 39.3329 37.574C39.3059 40.304 39.4069 43.0231 38.9719 45.7302C38.9539 45.8405 38.9149 45.9378 38.8669 46.0281C39.2219 46.2476 39.4749 46.5962 39.4749 47.0719C39.4759 47.7244 38.8779 48.4245 38.1789 48.3609Z" fill="#F7C300"/>
<path d="M34.9838 43.6191C33.6968 43.6191 33.6948 45.6053 34.9838 45.6053C36.2698 45.6053 36.2728 43.6191 34.9838 43.6191Z" fill="black"/>
<path d="M35.0807 39.6348C33.7937 39.6348 33.7917 41.6209 35.0807 41.6209C36.3687 41.6209 36.3697 39.6348 35.0807 39.6348Z" fill="black"/>
<path d="M35.1789 35.5557C33.8919 35.5557 33.8899 37.5418 35.1789 37.5418C36.4659 37.5418 36.4679 35.5557 35.1789 35.5557Z" fill="black"/>
<path d="M14.1638 43.6191C15.4508 43.6191 15.4528 45.6053 14.1638 45.6053C12.8768 45.6053 12.8748 43.6191 14.1638 43.6191Z" fill="black"/>
<path d="M14.0656 39.6348C15.3526 39.6348 15.3546 41.6209 14.0656 41.6209C12.7786 41.6209 12.7766 39.6348 14.0656 39.6348Z" fill="black"/>
<path d="M13.9687 35.5557C15.2557 35.5557 15.2577 37.5418 13.9687 37.5418C12.6817 37.5418 12.6797 35.5557 13.9687 35.5557Z" fill="black"/>
<path d="M43.2468 57.8466C42.4628 57.8684 41.6788 57.8774 40.8948 57.8973C40.8628 56.4523 40.8368 55.0074 40.8428 53.5614C40.8458 52.6895 40.8577 51.8176 40.8747 50.9457C40.8837 50.4928 40.8957 50.039 40.9087 49.5861C40.9207 49.1829 40.9858 48.741 40.8978 48.3428C40.7488 47.6635 40.2728 47.4123 39.7078 47.3338C39.6888 43.3962 39.6707 39.4587 39.6517 35.5211C39.6477 34.6988 39.8478 33.5508 39.4968 32.7822C39.1368 31.9946 38.3427 31.8308 37.5547 31.7722C37.1217 31.7404 36.6877 31.7236 36.2547 31.6977C36.5578 30.0164 36.6647 28.3004 36.5047 26.5973C36.4497 26.0143 36.4027 25.4234 35.8407 25.0848C35.3877 24.8127 34.8818 24.8922 34.3818 24.9289C33.4588 24.9964 32.5357 25.0629 31.6127 25.1304C31.6187 23.6259 31.6347 22.1204 31.6327 20.6159C31.6317 19.894 30.9957 19.594 30.4407 19.6874C30.3327 19.6467 30.2178 19.6169 30.0928 19.6188C30.0568 19.6188 30.0217 19.6199 29.9867 19.6199C30.0487 19.0608 30.1117 18.5007 30.1367 17.9386C30.1537 17.5642 30.1727 17.1848 30.1637 16.8094C30.1497 16.1858 29.8287 15.6465 29.2007 15.4678C28.8277 15.3615 28.4667 15.4419 28.0937 15.4836C28.0087 15.4936 27.9217 15.4956 27.8357 15.5045C27.8457 13.9245 28.1787 12.3673 28.2317 10.7874C28.2457 10.3633 28.2378 9.93729 28.1918 9.51424C28.1338 8.974 28.0837 8.37219 27.5547 8.06632C27.1147 7.81109 26.5387 7.90544 26.0527 7.91636C25.9547 7.91835 25.8567 7.92134 25.7587 7.92333C25.7997 6.96799 25.7407 6.01758 25.6617 5.05131C25.6227 4.58555 25.5917 4.11582 25.5727 3.64709C25.5837 3.32136 25.5858 2.99662 25.5748 2.67188C25.5948 2.18527 25.6397 1.70167 25.7587 1.22499C25.9597 0.412651 25.2067 -0.0828825 24.5737 0.0114603C23.9407 -0.0828825 23.1877 0.412651 23.3887 1.22499C23.5067 1.70167 23.5527 2.18627 23.5727 2.67188C23.5617 2.99662 23.5648 3.32136 23.5748 3.64709C23.5558 4.11681 23.5247 4.58555 23.4857 5.05131C23.4057 6.01658 23.3477 6.96799 23.3887 7.92333C23.2907 7.92134 23.1927 7.91835 23.0947 7.91636C22.6077 7.90544 22.0318 7.8101 21.5928 8.06632C21.0648 8.37318 21.0137 8.974 20.9557 9.51424C20.9107 9.9363 20.9018 10.3623 20.9158 10.7874C20.9688 12.3673 21.3018 13.9245 21.3118 15.5045C21.2258 15.4966 21.1398 15.4936 21.0538 15.4836C20.6798 15.4429 20.3188 15.3615 19.9468 15.4678C19.3188 15.6475 18.9968 16.1858 18.9838 16.8094C18.9758 17.1848 18.9937 17.5632 19.0107 17.9386C19.0367 18.5007 19.0998 19.0608 19.1608 19.6199C19.1258 19.6199 19.0907 19.6188 19.0547 19.6188C18.9297 19.6169 18.8147 19.6467 18.7067 19.6874C18.1517 19.594 17.5158 19.894 17.5148 20.6159C17.5128 22.1204 17.5287 23.6259 17.5347 25.1304C16.6117 25.0629 15.6887 24.9964 14.7657 24.9289C14.2657 24.8922 13.7587 24.8127 13.3068 25.0848C12.7448 25.4234 12.6977 26.0143 12.6427 26.5973C12.4827 28.3004 12.5887 30.0155 12.8927 31.6977C12.4597 31.7236 12.0248 31.7404 11.5928 31.7722C10.8048 31.8298 10.0107 31.9946 9.65074 32.7822C9.29874 33.5508 9.49972 34.6988 9.49572 35.5211C9.47672 39.4587 9.45875 43.3962 9.43975 47.3338C8.87375 47.4133 8.39774 47.6645 8.24974 48.3428C8.16274 48.741 8.22776 49.1829 8.23876 49.5861C8.25176 50.039 8.26275 50.4928 8.27275 50.9457C8.29075 51.8176 8.30174 52.6895 8.30474 53.5614C8.31174 55.0272 8.28573 56.493 8.25273 57.9578C7.18473 57.936 6.11572 57.9251 5.04772 57.8973C3.75972 57.8645 3.76072 59.8507 5.04772 59.8834C17.7787 60.2072 30.5168 60.1903 43.2468 59.8318C44.5308 59.796 44.5368 57.8098 43.2468 57.8466ZM14.5828 27.4613C14.5908 27.2755 14.6048 27.0908 14.6188 26.9051C14.6678 26.9091 14.7167 26.9121 14.7657 26.916C15.0787 26.9389 15.3917 26.9617 15.7037 26.9845C16.3167 27.0292 16.9307 27.0739 17.5427 27.1186C17.5517 28.5794 17.5497 30.0413 17.5627 31.5021C16.6727 31.5269 15.7817 31.5567 14.8907 31.5935C14.7027 30.661 14.6098 29.8844 14.5748 28.9022C14.5588 28.4206 14.5608 27.9409 14.5828 27.4613ZM11.8907 58.0263C11.3447 58.0174 10.7978 58.0055 10.2518 57.9956C10.2848 56.5526 10.3107 55.1096 10.3047 53.6657C10.3017 52.7938 10.2917 51.9219 10.2737 51.0499C10.2657 50.6319 10.2558 50.2128 10.2438 49.7947C10.2398 49.6269 10.2337 49.459 10.2287 49.2912C10.3457 49.2932 10.4617 49.2952 10.5787 49.2982C10.9267 49.3051 11.2737 49.311 11.6207 49.318C11.7947 49.321 11.9697 49.3249 12.1437 49.3279C11.9727 52.2247 11.8907 55.1245 11.8907 58.0263ZM11.4397 47.3288C11.4557 43.9454 11.4717 40.562 11.4877 37.1776C11.4917 36.2739 11.4957 35.3701 11.5007 34.4664C11.5017 34.2747 11.5337 34.0533 11.5037 33.8636C11.5037 33.8338 11.5037 33.804 11.5037 33.7752C11.8237 33.7514 12.4118 33.7078 12.4838 33.7038C14.1788 33.6045 15.8757 33.5349 17.5727 33.4873C17.6187 38.1418 17.6897 42.7954 17.7897 47.449C16.1157 47.4172 14.4407 47.3855 12.7667 47.3537C12.3247 47.3458 11.8817 47.3378 11.4397 47.3288ZM13.8907 58.0641C13.8897 55.1633 13.9727 52.2625 14.1427 49.3667C15.3707 49.3905 16.5997 49.4133 17.8287 49.4371C17.8957 52.324 17.9778 55.2099 18.0668 58.0958C16.6738 58.0859 15.2817 58.0819 13.8907 58.0641ZM23.3007 9.90653C23.6897 9.91546 24.0788 9.92438 24.4678 9.93332C24.5058 9.93431 24.5377 9.91644 24.5737 9.91247C24.6097 9.91644 24.6427 9.93431 24.6797 9.93332C25.0687 9.92438 25.4577 9.91546 25.8467 9.90653C25.9797 9.90355 26.1138 9.90053 26.2468 9.89756C26.2578 10.1806 26.2408 10.4696 26.2338 10.7198C26.2168 11.3276 26.1517 11.9334 26.0787 12.5372C25.9547 13.5551 25.8218 14.572 25.8248 15.5969C25.4438 15.5929 25.0628 15.578 24.6818 15.5522C24.6448 15.5492 24.6107 15.569 24.5737 15.572C24.5367 15.569 24.5027 15.5502 24.4657 15.5522C24.0857 15.578 23.7037 15.5929 23.3227 15.5969C23.3257 14.572 23.1917 13.5551 23.0687 12.5372C22.9957 11.9334 22.9307 11.3276 22.9137 10.7198C22.9067 10.4696 22.8897 10.1806 22.9007 9.89756C23.0337 9.90053 23.1667 9.90355 23.3007 9.90653ZM22.4767 17.5731C23.1397 17.5959 23.8037 17.5831 24.4657 17.5384C24.5047 17.5354 24.5367 17.5185 24.5737 17.5125C24.6107 17.5185 24.6428 17.5354 24.6818 17.5384C25.3438 17.5831 26.0078 17.5959 26.6708 17.5731C27.1678 17.5562 27.6587 17.4996 28.1507 17.451C28.1447 17.6863 28.1387 17.9217 28.1257 18.157C28.0987 18.6566 28.0417 19.1531 27.9857 19.6496C26.9267 19.6645 25.8678 19.6794 24.8088 19.6943C24.7278 19.6953 24.6507 19.7241 24.5737 19.745C24.4957 19.7241 24.4188 19.6953 24.3378 19.6943C23.2788 19.6794 22.2198 19.6645 21.1608 19.6496C21.1048 19.1531 21.0477 18.6566 21.0207 18.157C21.0077 17.9217 21.0017 17.6863 20.9957 17.451C21.4887 17.4996 21.9797 17.5552 22.4767 17.5731ZM23.0718 58.1227C23.0938 47.5106 23.1168 36.8995 23.1398 26.2874C24.0958 26.2656 25.0527 26.2427 26.0087 26.2209C26.0317 36.8518 26.0537 47.4828 26.0767 58.1137C25.0747 58.1167 24.0728 58.1227 23.0718 58.1227ZM29.0817 58.0879C28.7467 58.0909 28.4107 58.0938 28.0757 58.0958C28.0527 47.157 28.0297 36.2173 28.0057 25.2785C28.0057 25.0014 27.8997 24.7968 27.7527 24.6389C27.5747 24.3846 27.3017 24.202 26.9617 24.2099C25.3617 24.2467 23.7627 24.2844 22.1627 24.3211C22.1467 24.3211 22.1327 24.3221 22.1167 24.3221L22.0698 24.3231C22.0298 24.3241 21.9927 24.3429 21.9527 24.3489C21.8827 24.3608 21.8127 24.3698 21.7457 24.3946C21.6507 24.4294 21.5667 24.482 21.4847 24.5406C21.4737 24.5495 21.4608 24.5545 21.4498 24.5634C21.2178 24.7451 21.0547 25.0073 21.0687 25.3162C21.0737 25.4214 21.1047 25.5218 21.1387 25.6201C21.1157 36.4496 21.0918 47.2792 21.0698 58.1098C20.7348 58.1088 20.3997 58.1058 20.0637 58.1048C19.6887 45.9435 19.5067 33.7772 19.5157 21.61C21.1227 21.6328 22.7297 21.6547 24.3357 21.6775C24.4207 21.6785 24.4938 21.6497 24.5718 21.6308C24.6488 21.6497 24.7218 21.6785 24.8068 21.6775C26.4128 21.6547 28.0198 21.6328 29.6268 21.61C29.6388 33.7723 29.4567 45.9335 29.0817 58.0879ZM31.6027 27.1176C32.2157 27.0729 32.8288 27.0282 33.4418 26.9836C33.7548 26.9607 34.0667 26.9379 34.3797 26.9151C34.4287 26.9111 34.4777 26.9081 34.5267 26.9041C34.5407 27.0888 34.5547 27.2745 34.5627 27.4602C34.5847 27.9399 34.5867 28.4205 34.5707 28.9002C34.5357 29.8824 34.4427 30.659 34.2547 31.5915C33.3637 31.5557 32.4728 31.5249 31.5828 31.5001C31.5958 30.0402 31.5947 28.5785 31.6027 27.1176ZM31.0828 58.072C31.1708 55.1941 31.2528 52.3151 31.3198 49.4362C32.5488 49.4123 33.7777 49.3895 35.0057 49.3657C35.1757 52.2466 35.2568 55.1315 35.2568 58.0164C33.8658 58.0413 32.4738 58.0571 31.0828 58.072ZM31.3577 47.45C31.4587 42.7964 31.5288 38.1418 31.5748 33.4882C33.2718 33.5359 34.9687 33.6054 36.6637 33.7048C36.7357 33.7087 37.3237 33.7524 37.6437 33.7763C37.6437 33.8061 37.6437 33.8358 37.6437 33.8646C37.6137 34.0543 37.6457 34.2748 37.6467 34.4674C37.6507 35.3711 37.6547 36.2748 37.6597 37.1785C37.6757 40.562 37.6918 43.9454 37.7078 47.3298C37.2658 47.3388 36.8227 47.3467 36.3807 47.3556C34.7057 47.3864 33.0317 47.4182 31.3577 47.45ZM38.9028 49.7957C38.8908 50.2138 38.8817 50.6328 38.8727 51.0509C38.8547 51.9228 38.8447 52.7948 38.8417 53.6667C38.8367 55.0918 38.8627 56.5158 38.8937 57.9409C38.3477 57.9528 37.8018 57.9658 37.2547 57.9757C37.2537 55.0918 37.1727 52.2088 37.0027 49.3289C37.1767 49.3259 37.3517 49.322 37.5257 49.319C37.8727 49.3121 38.2197 49.3061 38.5677 49.2991C38.6837 49.2971 38.8007 49.2941 38.9177 49.2922C38.9127 49.46 38.9078 49.6278 38.9028 49.7957Z" fill="black"/>
<path d="M27.4517 62.0134C18.7607 61.8207 10.0708 61.5854 1.38175 61.3063C0.0937541 61.2646 0.095754 63.2508 1.38175 63.2925C10.0698 63.5705 18.7597 63.8069 27.4517 63.9995C28.7387 64.0283 28.7387 62.0422 27.4517 62.0134Z" fill="black"/>
<path d="M47.4067 61.6593C42.2697 61.5818 37.1317 61.6434 31.9977 61.846C30.7147 61.8966 30.7087 63.8828 31.9977 63.8321C37.1317 63.6305 42.2687 63.568 47.4067 63.6454C48.6947 63.6653 48.6947 61.6791 47.4067 61.6593Z" fill="black"/>
</svg>
