<svg width="76" height="64" viewBox="0 0 76 64" fill="none" xmlns="http://www.w3.org/2000/svg">
<path d="M20.9143 32.6233C21.1668 30.3971 20.9882 28.1308 20.9068 25.8971C20.8149 23.3624 20.7061 20.8287 20.5814 18.2961C20.5212 17.0736 20.4568 15.8501 20.3891 14.6276C20.3352 13.664 20.3733 12.6032 20.0288 11.684C19.2692 9.65745 17.1127 10.0093 15.3503 10.0727C13.6502 10.134 11.8065 10.0642 11.6153 12.1816C11.3955 14.6223 11.6871 17.2036 11.7156 19.6559C11.7748 24.7899 11.7748 29.9238 11.7156 35.0577C11.703 36.1523 11.6745 37.2459 11.6554 38.3405C11.4589 39.7626 11.2909 41.1869 11.1461 42.6143C11.7833 42.8489 12.2777 43.4269 12.4309 44.2352C12.6074 45.1703 12.5662 46.1222 12.487 47.0647C12.4373 47.6638 12.3179 48.2745 12.3232 48.8757C12.3401 50.693 12.8863 53.6853 10.565 54.1903C10.565 54.4206 10.5555 54.6499 10.5576 54.8802C10.5598 55.1084 10.6348 55.2838 10.7341 55.4349C10.7161 55.9759 11.05 56.5327 11.7484 56.5359C14.4754 56.5507 17.2025 56.5655 19.9295 56.5813C20.4821 56.5845 21.0104 56.0943 20.9861 55.5248C20.6575 47.8952 20.6343 40.2561 20.9143 32.6233ZM17.5364 34.9352C17.0514 35.5268 16.1015 35.3969 15.5986 34.9352C15.1622 34.5347 15.1253 33.9546 15.326 33.4569C15.3249 33.364 15.326 33.271 15.3186 33.178C15.3038 32.9752 15.2742 32.7744 15.252 32.5726C15.1897 32.001 15.2267 31.4135 15.2436 30.8398C15.2637 30.1604 15.2869 29.481 15.2658 28.8006C15.2563 28.4942 15.2246 28.1931 15.1897 27.8888C15.1802 27.818 15.177 27.7905 15.1749 27.7789C15.1569 27.6458 15.139 27.5137 15.121 27.3806C15.0988 27.2105 15.0777 27.0393 15.0597 26.8681C14.9784 26.1053 15.7528 25.5284 16.4301 25.4978C17.2236 25.4618 17.7255 26.1581 17.8005 26.8681C17.8121 26.9749 17.8259 27.0815 17.8375 27.1893C17.8385 27.202 17.8396 27.2073 17.8396 27.2157C17.8724 27.4619 17.9072 27.707 17.9379 27.9532C17.9833 28.3262 18.0044 28.6971 18.0108 29.0722C18.0234 29.797 17.9886 30.5197 17.9727 31.2445C17.9601 31.8203 17.9748 32.3803 18.0372 32.9519C18.1175 33.6926 18.0224 34.3445 17.5364 34.9352Z" fill="#F7C300"/>
<path d="M67.8812 48.1032C68.2129 35.8606 67.8864 23.6074 66.8827 11.3986C66.8795 11.3595 66.8605 11.3331 66.8531 11.2972C66.8605 10.7636 66.5224 10.229 65.8356 10.2364C63.6527 10.2586 61.4699 10.2808 59.2859 10.303C58.5315 10.3104 58.1712 10.9686 58.2673 11.6406C58.9541 16.429 58.3952 21.2058 58.1923 26.0069C57.9842 30.9422 57.9483 35.8828 58.0677 40.8212C58.0899 41.7162 59.008 42.011 59.6272 41.7257C60.015 42.3987 59.886 44.1305 59.8945 44.552C59.9251 45.9446 59.903 47.3393 59.8279 48.7308C59.8058 49.1323 59.9072 50.1572 59.5258 50.4351C59.4201 50.5122 59.1908 50.4847 59.063 50.5228C58.7492 50.6147 58.4797 50.8186 58.298 51.087C57.9715 51.5677 58.0201 52.2556 57.981 52.8113C57.9303 53.5478 57.8796 54.2842 57.8278 55.0207C57.8268 55.0471 57.8373 55.0639 57.8373 55.0882C57.8341 55.121 57.8162 55.1527 57.8162 55.1865C57.8162 55.7898 58.3011 56.2051 58.8727 56.2431C61.5575 56.4206 64.2486 56.4587 66.9376 56.3551C67.2831 56.3424 67.5811 56.1617 67.7755 55.8997C68.0143 55.7317 68.1876 55.4697 68.1865 55.0882C68.1876 52.7532 68.0787 50.4256 67.8812 48.1032ZM63.7721 34.3561C63.1783 34.7037 62.2063 34.5378 61.8978 33.8647C60.3266 30.4393 61.1096 26.3313 61.622 22.7484C61.7277 22.0109 62.6648 21.6147 63.3072 21.7912C64.0838 22.0046 64.3691 22.7452 64.2645 23.4764C64.2085 23.8673 64.1525 24.2583 64.0986 24.6492C64.0955 24.6756 64.0912 24.7052 64.087 24.7305C64.0753 24.8172 64.0648 24.9028 64.0532 24.9894C64.0257 25.2092 63.9982 25.4279 63.9729 25.6477C63.8757 26.4856 63.7996 27.3255 63.7647 28.1687C63.7299 29.0224 63.7468 29.874 63.8271 30.7246C63.8303 30.7563 63.8355 30.7974 63.8387 30.8249C63.8535 30.9263 63.8704 31.0288 63.8883 31.1303C63.9211 31.3088 63.9581 31.4864 64.0025 31.6628C64.05 31.853 64.1039 32.0421 64.1673 32.2281C64.1906 32.2978 64.217 32.3665 64.2423 32.4351C64.2487 32.4489 64.254 32.4626 64.2635 32.4816C64.5731 33.1557 64.4621 33.9514 63.7721 34.3561Z" fill="#F7C300"/>
<path d="M46.5448 6.19795C44.7126 4.48946 42.2783 3.70017 39.808 3.59345C38.4439 3.53428 37.0841 3.69388 35.7423 3.92421C35.6229 3.94534 35.5278 3.99389 35.438 4.04777C35.3482 4.0763 35.2573 4.11436 35.1654 4.17353C32.1435 6.12926 30.247 9.6054 30.3156 13.221C30.3547 15.2771 31.088 17.2276 32.096 18.9974C33.0554 20.6826 34.3064 22.0573 36.1554 22.7504C39.5586 24.0278 44.3713 23.3061 46.7782 20.4481C47.8063 19.2267 48.4075 17.8235 48.6611 16.358C49.0045 15.3025 49.1534 14.1751 49.1154 13.0192C49.0309 10.4782 48.4667 7.99097 46.5448 6.19795ZM39.3304 15.5223C38.8021 16.2059 37.9949 16.3908 37.1803 16.4373C36.7904 16.6105 36.3329 16.619 35.9272 16.4056C35.5679 16.2154 35.3598 15.8509 35.2932 15.4599C35.1506 14.9771 35.2816 14.4985 35.6155 14.116C35.6187 14.1118 35.6229 14.1096 35.626 14.1054C35.7676 13.6849 35.869 13.2548 35.9863 12.8248C36.1131 12.362 36.2811 11.9151 36.3794 11.446C36.391 11.2811 36.4047 11.1153 36.3857 10.9494C36.3942 10.9505 36.4037 10.9515 36.4121 10.9526C36.4238 10.83 36.4164 10.7095 36.4343 10.5849C36.4819 10.2415 36.7861 9.94461 37.064 9.76604C37.3197 9.60122 37.6462 9.56425 37.9378 9.60334C38.2432 9.64455 38.4978 9.77239 38.725 9.98053C39.005 10.2373 39.0853 10.5912 39.1265 10.9494C39.1603 11.2463 39.1339 11.5337 39.0895 11.8179C39.0969 12.007 39.1202 12.194 39.1402 12.3811C39.1867 12.6547 39.2427 12.9263 39.3093 13.1957C39.3991 13.4059 39.4889 13.6162 39.5682 13.8297C39.6041 13.9258 39.6379 14.022 39.6611 14.1213C39.7826 14.6253 39.6411 15.1208 39.3304 15.5223Z" fill="#F7C300"/>
<path d="M65.147 12.777C65.147 12.7125 65.1217 12.666 65.1111 12.6069C65.2199 12.3734 65.2643 12.1081 65.1893 11.8778C65.0001 11.2925 64.474 11.0347 63.8897 11.1403C63.242 11.2565 62.5837 11.3432 61.9202 11.4161L61.8727 10.4525C62.1907 10.3447 62.5024 10.2095 62.7919 10.0098C64.4645 8.8581 65.4122 6.68681 65.2474 4.67508C65.0561 2.33581 63.2452 0.204679 60.7749 0.247999C60.7073 0.249055 60.6576 0.276513 60.5973 0.287079C60.3342 0.0556873 59.9782 -0.073195 59.6369 0.0440856C57.7963 0.672752 56.2484 2.05475 55.6398 3.9323C55.0672 5.69785 55.5511 7.78566 56.8624 9.10216C57.622 9.86501 58.7081 10.3479 59.751 10.5687C59.7552 10.5698 59.7605 10.5698 59.7647 10.5698C59.7816 10.9026 59.7986 11.2354 59.8144 11.5682C59.022 11.5999 58.2263 11.6126 57.4286 11.5852C57.081 11.5735 56.7609 11.7838 56.5643 12.0722C56.2801 12.2339 56.0583 12.5054 56.0319 12.9185C56.0044 13.3517 55.9864 13.7849 55.96 14.2181C55.1517 13.7881 54.223 13.5218 53.328 13.3401C51.3269 12.9333 49.294 12.6787 47.2548 12.5582C46.679 8.88027 44.55 5.55942 41.0094 4.07598C37.2141 2.48688 32.1584 3.7305 29.3616 6.74387C27.8623 8.35939 27.1734 10.2507 27.1058 12.1684C24.0533 12.2677 21.0463 12.9851 18.2717 14.2636C18.2443 13.8156 18.2252 13.3665 18.1967 12.9185C18.1703 12.5054 17.9474 12.2339 17.6642 12.0722C17.4677 11.7838 17.1465 11.5735 16.7999 11.5852C16.0033 11.6126 15.2077 11.5999 14.4142 11.5682C14.4311 11.2354 14.4469 10.9026 14.4638 10.5698C14.468 10.5687 14.4733 10.5687 14.4776 10.5687C15.5215 10.3479 16.6076 9.86395 17.3663 9.10216C18.6785 7.78566 19.1614 5.69785 18.5887 3.9323C17.9801 2.05475 16.4312 0.672752 14.5917 0.0440856C14.2504 -0.0721384 13.8933 0.0556873 13.6312 0.287079C13.57 0.276513 13.5214 0.249055 13.4537 0.247999C10.9834 0.204679 9.17246 2.33581 8.98122 4.67508C8.81639 6.68681 9.76415 8.8581 11.4367 10.0098C11.7262 10.2095 12.0379 10.3447 12.3559 10.4525L12.3084 11.4161C11.6459 11.3432 10.9866 11.2565 10.3389 11.1403C9.75464 11.0357 9.22845 11.2925 9.03932 11.8778C8.9643 12.1081 9.00869 12.3734 9.11751 12.6069C9.10801 12.665 9.08265 12.7115 9.08159 12.777C9.01186 26.3414 8.56491 39.9005 7.78199 53.4416C7.43015 53.8326 7.36254 54.4496 7.70276 54.8427C7.64042 55.8834 7.59285 56.9252 7.52629 57.9659C7.48825 58.5597 7.87497 58.8767 8.32401 58.9506C8.51843 59.1482 8.78681 59.2761 9.08159 59.2909C12.1108 59.4451 15.1443 59.4969 18.1767 59.4472C18.2548 59.4462 18.3129 59.4166 18.3827 59.4018C18.9342 59.4346 19.5122 59.1038 19.5164 58.3928C19.5587 49.732 19.4086 41.0722 19.1149 32.4178C30.6084 27.8766 43.429 27.5279 55.1433 31.433C54.8263 40.415 54.6668 49.4034 54.7111 58.3928C54.7143 59.1038 55.2933 59.4346 55.8448 59.4018C55.9146 59.4166 55.9727 59.4462 56.0509 59.4472C59.0833 59.4969 62.1167 59.4451 65.1459 59.2909C65.4407 59.2761 65.7091 59.1482 65.9035 58.9506C66.3526 58.8767 66.7392 58.5597 66.7012 57.9659C65.7439 42.9212 65.2252 27.8512 65.147 12.777ZM16.9225 30.1091C16.5537 30.5529 16.6203 31.2217 16.9785 31.5989C17.0207 32.8076 17.0535 34.0175 17.0894 35.2262C16.7988 35.2304 16.4481 35.26 16.1427 35.2388C16.0804 34.981 16.0635 34.5615 16.0518 34.3618C16.0223 33.86 16.0075 33.357 15.9885 32.8541C15.9441 31.751 15.9029 30.648 15.8648 29.546C15.8469 29.0314 15.83 28.5169 15.8131 28.0013C15.7962 27.4793 15.7169 26.9161 15.7782 26.3963C15.8352 25.9124 16.3382 25.9895 16.7524 26.0836C16.8084 27.4254 16.8718 28.7673 16.9225 30.1091ZM12.3338 8.04029C11.4219 7.20665 10.8662 5.72639 11.1314 4.44898C11.2656 3.79918 11.5381 3.31313 12.0083 2.89261C12.4246 2.5207 12.9244 2.35165 13.4537 2.36116C13.7411 2.36645 13.9535 2.26292 14.1194 2.11817C15.3249 2.56193 16.3562 3.57307 16.6509 4.84836C16.7651 5.3439 16.7323 5.89649 16.5664 6.43852C16.4037 6.96998 16.1258 7.42961 15.6535 7.81103C15.5996 7.85435 15.4084 7.97585 15.27 8.05087C15.1273 8.12905 14.9836 8.19563 14.8315 8.25375C14.5663 8.35518 14.28 8.44812 13.9947 8.50835C13.832 8.41537 13.6524 8.35306 13.4664 8.34461C13.3111 8.33721 13.1515 8.39109 13.0015 8.46611C12.7617 8.37524 12.5408 8.22942 12.3338 8.04029ZM11.517 43.5858C11.5413 44.5938 11.5149 45.6092 11.5149 46.6129C11.5149 47.8037 11.5149 48.9955 11.5149 50.1874V52.0934C11.5149 52.3312 11.5149 52.57 11.5149 52.8088C11.5149 52.9725 11.4779 53.2346 11.4769 53.4607C11.4748 53.4607 11.4726 53.4607 11.4705 53.4607C11.163 53.4543 10.8556 53.4374 10.5492 53.411C10.3305 53.392 10.1149 53.3592 9.89831 53.3275C10.0885 50.0415 10.2597 46.7556 10.4076 43.4675C10.676 43.4971 10.9444 43.5256 11.2138 43.5552C11.2803 43.5616 11.3966 43.5732 11.517 43.5858ZM9.68385 57.1978C9.72083 56.6103 9.74618 56.0218 9.7821 55.4343C10.1899 55.4882 10.5988 55.5336 11.0098 55.5558C11.8488 55.6002 12.8504 55.6763 13.3629 54.8627C13.7866 54.1897 13.628 53.205 13.628 52.4506C13.628 51.4975 13.628 50.5444 13.628 49.5914C13.628 47.7255 13.628 45.8586 13.628 43.9926C13.628 43.1093 13.7348 41.9714 12.6856 41.6375C12.0168 41.4251 11.2275 41.4019 10.4963 41.3501C10.8894 32.0363 11.1324 22.7173 11.1884 13.395C12.8251 13.6211 14.4755 13.7257 16.1279 13.7036C16.3382 17.1248 16.5083 20.5481 16.6626 23.9714C15.5732 23.8858 14.4702 24.1183 13.9355 25.2213C13.5985 25.9166 13.6587 26.7006 13.682 27.4508C13.7084 28.2961 13.7369 29.1424 13.7675 29.9876C13.8256 31.638 13.7961 33.3275 13.9894 34.9684C14.0718 35.6689 14.1828 36.4444 14.7375 36.9367C15.3587 37.4872 16.3815 37.333 17.1549 37.3382C17.3356 44.0021 17.4254 50.6681 17.4043 57.334C14.8294 57.3605 12.2556 57.3161 9.68385 57.1978ZM30.3527 8.87077C32.1246 6.25468 36.2843 4.89696 39.2797 5.70419C42.8108 6.65511 44.9948 10.0013 45.278 13.525C45.298 13.7786 45.4037 13.9688 45.5379 14.1272C45.1026 14.2234 44.7032 14.5372 44.6419 15.0919C44.3028 18.2057 41.8388 20.7774 38.7377 21.2275C35.5796 21.6861 32.4669 19.7948 30.7098 17.2495C30.0326 16.2679 29.5729 15.15 29.3616 13.9994C29.7684 13.5778 29.723 12.8002 29.2464 12.4082C29.2813 11.1752 29.6173 9.95588 30.3527 8.87077ZM55.2267 29.2364C43.5113 25.4486 30.6168 25.7708 19.1096 30.1694C19.0832 29.8545 19.0568 29.5396 19.0219 29.2311C19.0156 29.2332 19.0092 29.2343 19.0029 29.2364C18.8402 25.0069 18.6363 20.7795 18.3996 16.5543C21.1573 15.1353 24.1865 14.3639 27.2749 14.2752C28.2036 19.1059 32.7289 23.5129 37.884 23.4072C42.5752 23.3111 46.2543 19.6817 46.7551 15.0919C46.7741 14.9186 46.754 14.7696 46.7075 14.6418C48.5407 14.7274 50.3644 14.9229 52.1701 15.262C53.3228 15.4786 55.1665 15.6762 55.8163 16.8279C55.5849 20.9623 55.3863 25.0988 55.2267 29.2364ZM63.4385 33.6465C63.1701 33.6201 62.906 33.5694 62.6408 33.4743C62.2182 33.3222 62.0248 33.2894 62.0269 32.8499C62.0322 31.7405 62.085 30.6279 62.1188 29.5185C62.1537 28.408 62.1907 27.2986 62.2308 26.1882C62.253 25.5901 62.2752 24.9931 62.2995 24.3951C62.3164 23.9852 62.2762 23.5023 62.3365 23.0787C62.5562 22.955 62.8574 22.8948 63.1659 22.8694C63.2314 26.4629 63.3223 30.0552 63.4385 33.6465ZM59.3981 8.25265C59.247 8.19454 59.1023 8.12802 58.9596 8.04983C58.8212 7.97482 58.6289 7.85332 58.5761 7.81C58.1038 7.42857 57.8259 6.96895 57.6632 6.43749C57.4973 5.89652 57.4646 5.34286 57.5787 4.84733C57.8724 3.57098 58.9036 2.5609 60.1103 2.11714C60.2761 2.26189 60.4885 2.36541 60.7759 2.36013C61.3053 2.35062 61.8061 2.51966 62.2213 2.89158C62.6915 3.3121 62.9641 3.79815 63.0983 4.44795C63.3635 5.72641 62.8088 7.20561 61.8959 8.03926C61.6888 8.22838 61.4679 8.37311 61.2281 8.46398C61.0781 8.38791 60.9185 8.33509 60.7632 8.34248C60.5783 8.35093 60.3987 8.41331 60.2349 8.50628C59.9496 8.44606 59.6633 8.35408 59.3981 8.25265ZM56.9574 42.5387C57.1592 42.5335 57.3621 42.5271 57.5639 42.5218C57.753 42.5166 57.9422 42.5113 58.1313 42.506C58.1355 42.5715 58.1429 42.637 58.1461 42.7014C58.164 43.048 58.1683 43.3957 58.1704 43.7422C58.1725 44.4892 58.1693 45.2362 58.1682 45.9842C58.1672 47.1613 58.22 48.3595 58.1904 49.5439C57.7445 49.5428 57.2976 49.5376 56.8549 49.5312C56.8761 47.2004 56.9109 44.8696 56.9574 42.5387ZM56.8253 57.333C56.819 55.4354 56.8253 53.5377 56.8369 51.6412C57.4783 51.6454 58.1207 51.6571 58.7621 51.6486C59.7352 51.6359 60.2603 51.1161 60.2761 50.1419C60.2994 48.6669 60.2793 47.1888 60.2814 45.7127C60.2825 44.9974 60.2878 44.2832 60.2825 43.5679C60.2762 42.8694 60.2898 42.1056 60.125 41.423C59.9253 40.5957 59.2227 40.3601 58.4577 40.3822L57.0039 40.4235C57.0705 37.4809 57.1497 34.5394 57.2522 31.5989C57.6104 31.2217 57.677 30.5529 57.3082 30.1091C57.4646 25.9103 57.6643 21.7135 57.8946 17.5179C58.051 17.2981 58.1228 17.0128 58.034 16.6736C58.014 16.5965 57.977 16.5331 57.9527 16.4592C58.0045 15.541 58.0457 14.6217 58.1027 13.7036C59.7552 13.7247 61.4057 13.6211 63.0423 13.395C63.0571 15.8537 63.1004 18.3124 63.1384 20.77C61.7934 20.8736 60.3649 21.3945 60.2508 22.8589C60.1092 24.6857 60.1029 26.5347 60.0437 28.3658C60.0141 29.2628 59.9866 30.1588 59.9613 31.0558C59.938 31.9117 59.7764 32.8996 59.993 33.7375C60.3554 35.1459 62.1093 35.691 63.5029 35.7703C63.7523 42.9159 64.0978 50.0595 64.5458 57.1967C61.9741 57.3161 59.4002 57.3605 56.8253 57.333Z" fill="black"/>
<path d="M41.2481 15.1158C40.7377 13.7941 40.2285 12.4723 39.7171 11.1515C39.2437 9.9259 38.7662 8.68547 37.9875 7.61621C37.6039 7.08897 36.8337 6.86501 36.3276 7.40281C35.2224 8.57562 34.7459 10.2999 34.3285 11.8182C33.8826 13.4422 33.61 15.1127 33.4811 16.7916C33.4568 17.1181 33.6385 17.4054 33.8942 17.6009C34.0886 17.8165 34.3581 17.9612 34.6571 17.9422C35.309 17.901 35.9599 17.8587 36.6107 17.8164C36.6762 18.3711 36.7417 18.9248 36.8073 19.4784C36.802 19.6242 36.8316 19.7595 36.8981 19.8852C36.9414 20.0162 37.0133 20.1293 37.1168 20.2255C37.2996 20.4083 37.6007 20.5466 37.8638 20.535C38.1364 20.5234 38.4207 20.4336 38.6108 20.2255C38.7873 20.0332 38.9521 19.75 38.9204 19.4784C38.8496 18.8794 38.7788 18.2803 38.7081 17.6812C38.8031 17.6749 38.8982 17.6696 38.9933 17.6633C39.6896 17.6178 40.5877 17.7087 41.1287 17.1846C41.7489 16.5834 41.5175 15.8153 41.2481 15.1158ZM38.9933 15.5511C38.502 15.5828 38.0107 15.6156 37.5194 15.6473C36.9203 15.6864 36.3223 15.7234 35.7232 15.7614C35.8553 14.6742 36.0412 13.5954 36.3244 12.5357C36.5125 11.833 36.7312 11.1389 36.9826 10.4553C37.008 10.3866 37.0355 10.3179 37.0619 10.2482C37.3704 10.9054 37.6314 11.5869 37.8945 12.2673L39.0884 15.3599C39.1117 15.4202 39.1338 15.4804 39.1571 15.5395C39.1032 15.5438 39.0483 15.5469 38.9933 15.5511Z" fill="black"/>
<path d="M50.4699 57.1959C41.4203 57.3797 32.3675 57.3575 23.3189 57.1293C21.9581 57.0955 21.9591 59.2087 23.3189 59.2425C32.3675 59.4707 41.4203 59.4929 50.4699 59.309C51.8287 59.2816 51.8329 57.1684 50.4699 57.1959Z" fill="black"/>
<path d="M74.8759 60.9986C55.9958 62.1724 37.0703 61.9981 18.1702 61.5057C12.7425 61.3641 7.31595 61.1983 1.88934 61.0313C0.529522 60.9891 0.530578 63.1022 1.88934 63.1445C20.7895 63.7245 39.7044 64.3046 58.614 63.8186C64.0385 63.6791 69.4609 63.4477 74.877 63.1117C76.2273 63.0283 76.2367 60.914 74.8759 60.9986Z" fill="black"/>
</svg>
