<svg width="50" height="64" viewBox="0 0 50 64" fill="none" xmlns="http://www.w3.org/2000/svg">
<path d="M34.6652 30.4124C34.296 29.3039 33.4241 28.4373 32.4207 27.8561C31.2805 27.1942 29.9239 26.6342 28.615 26.4433C27.2276 26.2407 25.8678 26.6024 24.5695 27.0733C23.2171 27.5644 21.9019 28.2018 21.7724 29.8014C21.7184 30.4675 22.4969 31.0339 23.1153 30.8239C24.8347 30.2395 26.6219 30.1578 28.4219 30.2639C29.2843 30.3148 30.1084 30.4272 30.9209 30.7337C31.6093 30.9936 32.2563 31.3638 32.8906 31.7393C33.0773 32.0182 33.3764 32.1317 33.6904 32.1201C34.5782 32.2664 35.2411 31.1135 34.6652 30.4124Z" fill="#F7C300"/>
<path d="M43.4054 59.5553C42.9737 58.8839 42.542 58.2125 42.1102 57.54C42.0084 57.382 41.9066 57.225 41.8058 57.0659C41.7624 57.0001 41.7199 56.9344 41.6796 56.8665C41.6117 56.7742 41.6107 56.7604 41.6775 56.8261C41.6786 56.8145 42.0784 56.3297 42.1792 56.1908C42.9641 55.0951 43.381 53.9867 42.7912 52.6842C42.2089 51.3997 41.3338 50.1958 40.5595 49.0205C39.7258 47.7541 38.8518 46.5163 37.9449 45.3018C37.4411 42.7423 33.962 43.1433 31.9117 43.244C30.064 43.3342 28.2173 43.4286 26.3696 43.5155C25.5094 43.5558 24.6736 43.646 23.8749 43.2493C23.2342 42.9311 22.723 42.4061 22.0834 42.0911C19.6204 40.8766 17.2244 44.2527 15.8975 45.8989C14.0031 48.2483 12.3303 50.7537 10.8698 53.3927C10.4115 53.7438 10.1655 54.4449 10.6481 55.0177C11.5709 56.1123 12.3515 57.312 12.9636 58.6071C13.3974 59.5245 13.6488 60.3466 14.7434 60.5916C16.1244 60.9014 17.7865 60.7263 19.193 60.7422C20.7596 60.7592 22.3263 60.755 23.8929 60.7465C30.0651 60.7094 36.2446 60.599 42.3945 61.2142C42.823 61.2567 43.0999 61.0636 43.2568 60.7899C43.574 60.4929 43.7119 60.0337 43.4054 59.5553Z" fill="#F7C300"/>
<path d="M12.6008 10.2681C11.7246 10.0592 10.6915 10.2257 9.7963 10.2257C7.63462 10.2257 5.47292 10.1514 3.31548 10.0093C3.11819 9.93612 2.90925 9.90327 2.7056 9.97752C1.86659 10.2841 1.28321 11.0594 1.43807 11.9811C1.58444 12.8498 2.31846 13.3865 3.15534 13.5085C3.99223 13.6305 4.85457 13.4767 5.69251 13.4343C6.62698 13.3876 7.56249 13.3674 8.49802 13.3738C9.46749 13.3812 10.4348 13.4195 11.4022 13.4821C12.3176 13.5414 13.2372 13.3675 13.689 12.4744C14.1579 11.5452 13.5787 10.5015 12.6008 10.2681Z" fill="#F7C300"/>
<path d="M48.1327 61.874C46.4356 61.8274 44.7375 61.7934 43.0404 61.7531C43.0245 61.7223 43.0255 61.6884 43.0053 61.6587C41.7665 59.8661 40.658 57.9887 39.6589 56.0519C39.7649 55.9596 39.8625 55.8578 39.9707 55.7676C40.3982 55.4112 40.8532 55.0952 41.1353 54.6019C41.4992 53.9666 41.4132 53.2284 41.1025 52.593C40.8193 52.0171 40.377 51.4984 40.0089 50.9744C39.6143 50.4133 39.2208 49.8521 38.8273 49.291C37.9957 48.1063 37.1641 46.9215 36.3315 45.7378C36.1459 45.4726 35.8701 45.3029 35.5742 45.2477C35.4501 45.0239 35.2559 44.8425 35.0321 44.7386C35.1721 40.8342 35.2496 36.9277 35.2528 33.0201C35.2528 32.7857 35.1764 32.6064 35.0724 32.4526C35.0799 32.3996 35.0767 32.3466 35.082 32.2935C35.9358 31.9456 36.7611 31.5436 37.5364 31.043C37.7666 30.8934 37.9501 30.6781 38.0233 30.4087C38.0933 30.1541 38.0625 29.8168 37.9161 29.5909C37.7698 29.3639 37.5523 29.1656 37.2819 29.103C37.0103 29.0415 36.7059 29.0541 36.4641 29.2101C35.9518 29.5421 35.4108 29.8263 34.8593 30.0851C34.7988 29.8889 34.7362 29.6927 34.6567 29.5018C36.1957 28.7519 37.6043 27.7697 38.8008 26.5255C39.1858 26.1256 39.2282 25.4182 38.8008 25.0257C38.3839 24.6439 37.7114 24.5982 37.2999 25.0257C36.9764 25.3619 36.637 25.6833 36.2816 25.9846C36.1904 26.062 36.0981 26.1384 36.0037 26.2137C35.9751 26.237 35.9401 26.2667 35.9072 26.2911C35.9051 26.2922 35.9051 26.2922 35.903 26.2943C35.7099 26.4375 35.5158 26.5775 35.3164 26.7122C34.9409 26.9657 34.5517 27.199 34.1518 27.4133C33.9577 27.5172 33.7604 27.6148 33.561 27.7092C33.5461 27.6922 33.5345 27.6732 33.5196 27.6562C33.0921 27.1587 32.5883 26.7536 32.0421 26.4184C33.2714 25.1763 34.3321 23.7592 35.1531 22.2191C35.414 21.7301 35.2931 21.0428 34.7733 20.7681C34.2812 20.5082 33.6002 20.6259 33.3212 21.1489C33.0836 21.5943 32.8291 22.0303 32.5533 22.4546C32.4197 22.6604 32.2807 22.8629 32.1386 23.0634C32.0675 23.1631 31.9954 23.2628 31.9212 23.3615C31.9201 23.3625 31.8999 23.389 31.8787 23.4176C31.8639 23.4357 31.7886 23.5343 31.7864 23.5364C31.2147 24.2577 30.5783 24.9228 29.8995 25.5433C29.2068 25.3789 28.4909 25.2983 27.7792 25.3131C28.0274 22.6105 28.1345 19.8972 28.0836 17.1829C28.0581 15.8199 25.9367 15.8146 25.9622 17.1829C26.0152 19.9906 25.9017 22.7961 25.6334 25.591C25.1783 25.695 24.7244 25.8149 24.2831 25.9729C24.036 25.6653 23.8334 25.3842 23.5629 24.9832C23.214 24.4656 22.8894 23.9321 22.5818 23.389C21.9729 22.3156 21.4309 21.2062 20.89 20.0977C20.646 19.5982 19.8951 19.4231 19.439 19.7169C18.9266 20.0468 18.7983 20.6334 19.0592 21.168C20.0287 23.1546 21.0438 25.1116 22.359 26.884C21.922 27.1492 21.5041 27.4409 21.1212 27.7697C19.9194 26.3558 18.6212 25.0246 17.2094 23.8186C16.7883 23.458 16.1169 23.3742 15.7085 23.8186C15.3447 24.2153 15.2588 24.9334 15.7085 25.3185C17.1786 26.5754 18.5321 27.9596 19.7741 29.4403C19.6246 29.7129 19.4867 29.9907 19.3743 30.2814C18.7113 29.7871 18.0081 29.347 17.2614 28.9895C17.0004 28.8643 16.7321 28.8028 16.4436 28.8824C16.1975 28.9502 15.9313 29.1401 15.8093 29.3702C15.6788 29.6163 15.6141 29.9144 15.7021 30.1881C15.7828 30.4384 15.9429 30.7035 16.189 30.8223C16.9368 31.1798 17.6422 31.6158 18.3019 32.1164C18.4812 32.2596 18.6583 32.4038 18.8301 32.5566C18.7824 32.9851 18.7495 33.4157 18.7442 33.8464C18.7103 36.5893 19.003 39.3609 19.1992 42.1049C19.0125 42.0582 18.8238 42.0158 18.6254 41.9903C18.2966 41.949 17.989 41.9596 17.6909 41.9935C17.2773 38.5144 16.3513 35.1478 15.2885 31.8109C14.0942 28.0603 12.8627 24.3203 11.6482 20.5761C11.5941 20.4085 11.5103 20.2738 11.4095 20.1667C11.4095 20.1476 11.4201 20.1317 11.4191 20.1126C11.4106 19.9206 11.3406 19.7466 11.2483 19.5875C11.3427 18.1036 11.4392 16.6187 11.5347 15.1348C12.3207 15.1443 13.1024 15.0637 13.708 14.5036C14.4251 13.8407 14.6319 12.8723 14.7284 11.9399C14.8228 11.0171 14.6977 9.93312 13.8025 9.42929C13.6381 9.33595 13.463 9.28609 13.2859 9.25002C13.3591 7.10637 13.2668 4.96484 13.0048 2.83604C12.8945 1.94718 11.9165 1.40732 11.1942 2.08616C10.8177 2.44043 10.3669 2.93261 9.83122 3.02171C9.35921 3.1002 9.22028 2.81058 9.08345 2.43828C8.85328 1.80823 8.74934 1.12092 8.30703 0.592693C7.72047 -0.108423 6.74781 -0.201781 6.04352 0.389023C5.54817 0.804813 5.37847 1.46778 4.91919 1.88994C4.83964 1.96313 4.91387 1.96096 4.82053 1.91111C4.53202 1.75837 4.24353 1.60141 3.937 1.48474C3.21679 1.21108 2.41596 1.39033 1.92911 1.99598C1.46134 2.57936 1.46133 3.33673 1.4433 4.04951C1.39875 5.7795 1.39768 7.5105 1.42844 9.24154C1.30116 9.32428 1.19936 9.43567 1.12511 9.56401C0.529 9.59159 0.177901 10.0604 0.113199 10.6152C-0.00453732 11.6197 -0.165778 13.0463 0.421844 13.9394C0.976584 14.7837 1.98319 14.8855 2.91023 14.9152C2.77446 15.9356 2.72567 16.9527 2.83704 17.9816C2.94948 19.0137 3.05553 20.3969 4.0791 20.9622C4.54686 21.221 5.07191 21.2485 5.59377 21.2411C5.80591 21.2379 6.01805 21.2348 6.23019 21.2316C7.11269 25.4298 7.49028 29.7044 7.363 33.9938C7.32163 35.3589 9.44301 35.3578 9.48438 33.9938C9.61272 29.7012 9.22028 25.4097 8.37491 21.2008C8.78858 21.1945 9.2033 21.1891 9.61697 21.1828C10.7837 24.7806 11.96 28.3743 13.1151 31.9764C14.2501 35.5148 15.3129 39.1031 15.6629 42.8156C15.1718 43.1772 14.7242 43.6281 14.3063 44.1234C13.1448 45.5002 11.994 46.8865 10.84 48.2696C10.5037 45.3231 10.3817 42.3542 10.4804 39.3906C10.5249 38.0255 8.40353 38.0265 8.35898 39.3906C8.23594 43.1019 8.464 46.8027 8.9954 50.4769C8.14579 51.4963 7.29405 52.5124 6.44338 53.5296C6.29594 53.7057 6.23654 53.8945 6.21003 54.0822C6.03713 54.4397 6.04351 54.882 6.38612 55.2564L9.6785 58.8606C9.91609 59.1205 10.1526 59.3984 10.4242 59.6211C10.456 60.2055 10.4889 60.789 10.5207 61.3734C9.53213 61.3723 8.54355 61.3585 7.55499 61.3607C6.18988 61.3638 6.18776 63.4852 7.55499 63.482C21.0809 63.4555 34.6079 63.6284 48.1285 63.9996C49.4989 64.0325 49.4978 61.9112 48.1327 61.874ZM3.58057 3.64535C3.8065 3.75354 4.06319 3.87449 4.12471 3.89783C4.98599 4.22876 5.90879 3.96464 6.52081 3.28261C6.68627 3.09911 6.81994 2.89759 6.94828 2.69394C7.14133 3.29959 7.36088 3.90314 7.81168 4.36984C8.48628 5.06884 9.48228 5.2767 10.4104 5.05077C10.6448 4.9935 10.8654 4.90761 11.0775 4.80366C11.1868 6.26635 11.2186 7.73328 11.1698 9.20128C10.9089 9.20446 10.649 9.20977 10.3891 9.21189C8.10972 9.23205 5.83032 9.19598 3.55196 9.12916C3.51696 7.30371 3.4989 5.46973 3.58057 3.64535ZM9.16405 19.0635C8.66446 19.071 8.16595 19.0784 7.66637 19.0848C7.22724 19.0911 6.78812 19.0975 6.35006 19.1039C5.96715 19.1092 5.56515 19.142 5.18012 19.1102C5.16209 19.0508 5.14405 18.9904 5.1292 18.9299C5.03374 18.5375 4.97964 18.163 4.94994 17.8533C4.90539 17.4036 4.88736 16.9517 4.89585 16.5009C4.89903 16.2962 4.90858 16.0905 4.92343 15.8857C4.93191 15.7627 4.94358 15.6407 4.95525 15.5176C4.95843 15.4901 4.99662 15.1846 4.97859 15.3109C4.9945 15.1952 4.9913 15.0775 4.98069 14.9608C6.46035 14.9969 7.94108 15.0329 9.42074 15.07C9.33482 16.4012 9.2489 17.7324 9.16405 19.0635ZM6.05941 12.867C4.89689 12.8384 3.69195 12.8988 2.53474 12.7779C2.40958 12.7652 2.31199 12.7471 2.20486 12.7153C2.1985 12.6729 2.19108 12.6167 2.18259 12.5286C2.14123 12.0927 2.15715 11.6536 2.18897 11.2155C4.50976 11.3004 6.83161 11.3449 9.15346 11.3396C9.81215 11.3386 10.4708 11.3332 11.1295 11.3247C11.3766 11.3215 11.6238 11.3173 11.8699 11.3131C11.9484 11.312 12.4076 11.3439 12.6431 11.328C12.642 11.3311 12.6442 11.3343 12.6442 11.3375C12.6102 11.4966 12.6357 11.6843 12.6187 11.8466C12.5869 12.1521 12.5604 12.6135 12.3472 12.8521C12.1244 13.1024 11.7171 13.0017 11.4064 12.9953C10.8262 12.9815 10.246 12.9667 9.66578 12.9529C8.46402 12.9253 7.26117 12.8967 6.05941 12.867ZM23.4335 28.7073C25.4435 27.5193 28.1917 26.8989 30.4001 27.9076C32.0972 28.6829 33.3032 30.5667 32.9044 32.4303C31.0514 31.1681 28.8218 30.7534 26.5848 31.0079C25.2802 31.1564 24.0063 31.464 22.7536 31.8533C22.1384 32.0442 21.5476 32.2659 20.9855 32.5438C21.223 30.9825 21.8849 29.6227 23.4335 28.7073ZM21.0332 34.9845C21.712 34.4096 22.5775 34.1264 23.4134 33.8697C24.4486 33.5515 25.5093 33.263 26.5848 33.1293C28.3763 32.9076 30.4022 33.0986 31.8681 34.2558C32.2383 34.5475 32.7124 34.6376 33.1155 34.4223C33.0974 38.0255 33.0295 41.6286 32.8959 45.2297C30.5645 45.0345 28.2289 44.9136 25.889 44.9136C25.2356 44.9136 24.5822 44.921 23.9289 44.9369C23.6934 44.9422 23.4547 44.9476 23.2171 44.9613C23.1821 44.9104 23.1673 44.8574 23.1217 44.8097C22.5648 44.2273 21.9804 43.6556 21.3408 43.173C21.3609 43.0807 21.3885 42.9927 21.3811 42.8824C21.3493 42.3764 21.3121 41.8705 21.275 41.3646C21.3005 41.3836 21.3217 41.4048 21.3471 41.4239C21.8425 41.7803 22.4121 42.0137 22.9689 42.2513C23.6955 42.561 24.4221 42.8707 25.1476 43.1804C25.9229 43.5114 26.7323 43.9038 27.601 43.7967C28.1493 43.7288 28.6892 43.3576 28.6617 42.736C28.6383 42.2194 28.1907 41.6032 27.601 41.6753C27.4663 41.6923 27.3284 41.6976 27.1915 41.6849C27.1788 41.6806 27.147 41.6743 27.0854 41.6636C27.0101 41.6446 26.9359 41.6233 26.8616 41.6C26.5148 41.4897 26.4141 41.4335 26.0969 41.2977C25.451 41.022 24.806 40.7472 24.1601 40.4725C23.6615 40.2604 23.1546 40.0567 22.691 39.7746C22.6041 39.7215 22.5192 39.6643 22.4365 39.6049C22.4237 39.5879 22.2678 39.4574 22.2455 39.4351C22.2074 39.3969 22.1702 39.3566 22.1352 39.3163C22.131 39.3089 22.1331 39.3121 22.1267 39.3036C22.1023 39.2623 21.9411 38.9313 22.0281 39.152C21.8658 38.7415 21.4999 38.4084 21.0618 38.3819C20.9865 37.2788 20.9282 36.1746 20.8921 35.0714C20.9398 35.0386 20.9907 35.0206 21.0332 34.9845ZM12.6452 61.3776C12.6166 60.8483 12.5869 60.3201 12.5572 59.7909C12.8807 59.6222 13.1841 59.4005 13.4715 59.182C15.648 57.5284 17.0842 55.1821 18.4472 52.8582C19.1388 51.6776 17.3059 50.6095 16.6154 51.7869C15.5017 53.6876 14.3667 55.6287 12.693 57.0988C12.5137 57.2568 12.3302 57.4075 12.1361 57.5464C12.0247 57.627 11.9113 57.7045 11.7956 57.7798L11.6662 57.8625C11.558 57.7426 11.4 57.5973 11.3862 57.5814C11.1571 57.3311 10.929 57.0808 10.6999 56.8305C9.95744 56.018 9.21602 55.2054 8.47354 54.393C10.5398 51.9216 12.606 49.4491 14.6722 46.9777C15.4688 46.0242 16.503 44.221 17.8713 44.0693C19.2088 43.9208 20.3193 44.956 21.2145 45.8863C21.1085 46.0146 20.9971 46.1366 20.9048 46.2829C20.7224 46.5746 20.6163 46.9703 20.2981 47.1315C19.0815 47.751 20.1528 49.5817 21.3684 48.9633C21.8223 48.7321 22.1426 48.3577 22.4078 47.9302C22.5446 47.7085 22.6666 47.2789 22.8904 47.1442C23.2468 46.93 24.0423 47.0551 24.4486 47.0477C25.102 47.036 25.7553 47.0328 26.4087 47.0371C28.2522 47.0487 30.0925 47.1432 31.9317 47.2758C28.1164 51.7031 24.649 56.4231 21.608 61.4158C18.6222 61.3904 15.6343 61.3872 12.6452 61.3776ZM24.1155 61.4275C27.2647 56.3956 30.8255 51.6415 34.7871 47.2195C36.0918 49.0778 37.3964 50.9362 38.7011 52.7945C38.8612 53.0237 39.0097 53.2697 39.1763 53.4935C39.207 53.5317 39.224 53.5773 39.241 53.6218C39.2378 53.625 39.2378 53.6218 39.2335 53.6272C39.155 53.7884 38.8443 53.9602 38.7085 54.0706C38.4942 54.2456 38.2832 54.4227 38.0753 54.6041C37.2437 55.3317 36.4704 56.1208 35.7502 56.9577C34.8635 57.9877 36.358 59.4949 37.25 58.4576C37.5131 58.1531 37.7952 57.8667 38.0721 57.575C38.823 58.9826 39.6324 60.3572 40.5074 61.6926C35.0449 61.5728 29.5802 61.4847 24.1155 61.4275Z" fill="black"/>
<path d="M31.3728 34.9784C29.0064 34.29 26.5053 34.0545 24.054 34.3133C23.5035 34.3717 22.9657 34.7599 22.9933 35.374C23.0167 35.8991 23.4622 36.4973 24.054 36.4347C26.3737 36.1897 28.5927 36.3796 30.8085 37.0245C31.341 37.1793 31.9869 36.8367 32.1132 36.2841C32.2436 35.7156 31.9434 35.1439 31.3728 34.9784Z" fill="black"/>
</svg>
