<svg width="205" height="15" viewBox="0 0 205 15" fill="none" xmlns="http://www.w3.org/2000/svg">
<path fill-rule="evenodd" clip-rule="evenodd" d="M142.131 6.79406L142.477 7.18616C143.343 8.09575 144.239 8.96811 145.134 9.84048C146.029 10.7129 146.924 11.5853 147.79 12.4949C148.806 13.3712 149.904 13.0865 150.569 12.3534C150.806 12.2176 151.053 12.0433 151.314 11.8269C152.963 10.4654 154.963 8.6572 156.237 6.73028C156.297 6.72812 156.328 6.76319 156.359 6.79826C156.39 6.83333 156.421 6.8684 156.481 6.86624C156.654 7.2526 156.992 7.56652 157.307 7.85982C157.457 7.999 157.601 8.13353 157.721 8.26896C158.015 8.60163 158.295 8.93479 158.571 9.26249C159.109 9.90202 159.63 10.5208 160.201 11.0744C161.565 12.6174 163.042 13.8669 164.939 12.7859C166.207 12.1616 167.138 10.9063 168.068 9.65091C168.533 9.02323 168.998 8.39556 169.506 7.84676L169.672 7.63375C169.596 7.83315 169.759 7.98242 170.111 7.9698C170.359 8.25035 170.71 8.39854 171.062 8.54674C171.238 8.62084 171.413 8.69494 171.576 8.78559L174.146 10.4301C176.104 11.6624 177.949 13.1881 179.794 14.7139C180.41 15.2706 181.485 14.9427 181.951 14.3472C182.355 13.6815 182.76 13.0519 183.165 12.4224C183.57 11.7929 183.975 11.1633 184.379 10.4976L185.766 8.27723C185.882 8.12834 185.999 7.97946 186.112 7.68599L186.228 7.5371C187.004 7.9185 187.727 8.59104 188.432 9.24677C188.724 9.51866 189.013 9.78767 189.302 10.0318C189.71 10.3379 190.118 10.6637 190.533 10.9944C191.241 11.5591 191.967 12.1383 192.74 12.6582C194.829 14.3199 196.896 15.1142 199.128 13.0082C199.267 12.892 199.521 12.72 199.852 12.4948C200.934 11.7595 202.85 10.458 204.344 8.68805C205.879 6.86914 204.395 6.24845 203.217 5.75585C202.898 5.62233 202.601 5.49822 202.393 5.3622C201.613 4.85196 200.511 6.26925 200.057 7.04167C199.824 7.33945 199.56 7.60215 199.296 7.86486C199.032 8.12757 198.768 8.39028 198.535 8.68805C198.412 8.79346 198.247 8.98847 198.064 9.20459C197.723 9.60781 197.32 10.0845 197.009 10.1899C196.296 10.3231 195.153 9.27023 194.311 8.49488C194.021 8.22805 193.767 7.99408 193.578 7.85263C193.026 7.43827 192.504 7.02284 191.982 6.60741C191.459 6.19198 190.937 5.77656 190.385 5.3622C190.229 5.23722 190.071 5.10645 189.91 4.97351C188.287 3.63274 186.394 2.07008 184.692 3.97431C183.995 4.75376 183.437 5.76903 182.912 6.72502C182.733 7.05259 182.557 7.37319 182.38 7.67496C182.149 8.04502 181.889 8.45231 181.628 8.8596C181.368 9.26689 181.108 9.67417 180.877 10.0442C177.803 7.54951 174.617 5.34824 171.205 3.73391C169.206 2.82752 168.051 4.18403 166.712 5.75656C166.664 5.81281 166.616 5.86933 166.567 5.92604C166.37 6.17788 166.174 6.4527 165.975 6.73117C165.468 7.44047 164.944 8.17339 164.35 8.61033C164.042 8.87386 163.958 8.96415 163.911 8.94798C163.85 8.92708 163.85 8.72831 163.504 8.49591C163.255 8.30858 162.944 7.92375 162.655 7.5642C162.517 7.39357 162.384 7.22863 162.264 7.09319C161.97 6.7605 161.69 6.42731 161.414 6.09958C160.876 5.46008 160.356 4.84138 159.785 4.28776C159.685 4.17454 159.581 4.0539 159.475 3.92949C158.921 3.28318 158.279 2.53505 157.564 2.19661C155.943 1.53165 154.872 2.7536 153.814 3.95974C153.602 4.20203 153.39 4.44369 153.175 4.66929C152.355 5.56692 151.536 6.46455 150.596 7.3665L149.538 8.27122C149.529 8.26214 149.52 8.25307 149.511 8.24401L149.165 7.85193C148.299 6.94235 147.403 6.06998 146.508 5.19762C145.613 4.3252 144.718 3.45279 143.852 2.54316C142.836 1.66687 141.738 1.95154 141.073 2.68469C140.836 2.82049 140.589 2.99478 140.328 3.21117C138.679 4.5727 136.679 6.38089 135.405 8.30781C135.345 8.30997 135.314 8.2749 135.283 8.23983C135.252 8.20476 135.221 8.16969 135.161 8.17185C134.988 7.78549 134.65 7.47157 134.335 7.17827C134.185 7.03909 134.041 6.90456 133.921 6.76913C133.627 6.43647 133.347 6.1033 133.071 5.77561C132.533 5.13607 132.012 4.51734 131.441 3.9637C130.077 2.42072 128.6 1.1712 126.703 2.25218C125.435 2.87646 124.504 4.13182 123.574 5.38718C123.109 6.01486 122.644 6.64253 122.136 7.19132L121.97 7.40434C122.046 7.20494 121.883 7.05567 121.531 7.06828C121.283 6.78774 120.932 6.63954 120.58 6.49134C120.404 6.41725 120.229 6.34315 120.066 6.2525L117.496 4.60802C115.538 3.37573 113.693 1.84998 111.848 0.324222C111.232 -0.232556 110.157 0.0953758 109.691 0.690927C109.287 1.35659 108.882 1.9861 108.477 2.61562C108.072 3.24519 107.667 3.87475 107.263 4.54047L105.876 6.76086C105.76 6.90974 105.643 7.05863 105.53 7.3521L105.414 7.50099C104.638 7.11959 103.915 6.44706 103.21 5.79134C102.918 5.51944 102.629 5.25043 102.34 5.00626C101.932 4.70019 101.524 4.3744 101.109 4.04368C100.401 3.47893 99.6747 2.89979 98.9021 2.37987C96.813 0.718152 94.7462 -0.0760888 92.5138 2.02988C91.6927 2.85522 90.9016 3.67949 90.1104 4.50376C89.3193 5.32802 88.5282 6.15229 87.707 6.97764C86.6979 6.15017 85.6909 5.40316 84.633 4.61835C84.2728 4.3511 83.9066 4.07947 83.5324 3.79878C83.3082 3.6384 83.0836 3.46604 82.8573 3.29238C81.7226 2.42145 80.5453 1.51784 79.151 1.92976C77.9811 2.29891 76.8987 3.4049 75.8829 4.44283C75.5511 4.7819 75.2264 5.1137 74.908 5.41018C74.2015 6.01435 73.4949 6.61851 72.9086 7.21837C72.2021 7.82254 71.7211 7.83977 70.8681 7.43619C69.842 6.94321 68.8919 6.27299 67.9458 5.60556C66.3073 4.4497 64.6807 3.30224 62.6915 3.09828C59.9837 2.83446 57.9946 4.64424 55.9803 6.47705C55.571 6.84939 55.1608 7.22268 54.7432 7.57973C54.0401 8.22304 54.0227 8.20814 53.4961 7.75826C53.4063 7.68152 53.3016 7.59211 53.1762 7.49116C52.808 7.21492 52.4698 6.93761 52.1316 6.6603C51.7935 6.38299 51.4553 6.10567 51.087 5.82944C49.6141 4.7245 48.1412 3.61956 46.4464 3.24613C44.8388 3.02858 43.4757 3.84855 42.0213 4.72341C41.9458 4.76882 41.8701 4.81438 41.794 4.85994L39.3024 6.25163C39.0673 6.38293 38.7949 6.56194 38.5007 6.7553C37.7554 7.24507 36.87 7.82687 36.0968 7.95832C34.7288 8.00733 32.9995 6.63855 31.7765 5.67053C31.7095 5.61748 31.644 5.56563 31.5802 5.51529C31.1735 5.18185 30.7873 4.79537 30.3999 4.40774C29.4985 3.50582 28.5909 2.59761 27.4056 2.33643C25.8311 1.9587 24.2865 2.7376 23.1139 3.93732C22.8258 4.20567 22.5446 4.50971 22.2626 4.81447C21.2797 5.87712 20.2887 6.94851 18.9687 6.54595C17.812 6.29106 16.8093 5.49126 15.8221 4.70378C15.363 4.33757 14.9072 3.97402 14.4409 3.66918C12.8477 2.56855 11.1417 1.76138 9.21022 1.54115C5.70797 1.08777 2.14159 2.80739 0.314843 6.63539C-0.824067 9.13632 2.35858 11.193 3.49749 8.69207C5.09496 5.30643 8.58224 5.18149 11.2689 6.67709C12.1397 7.1618 12.9634 7.78499 13.7857 8.40711C15.5007 9.70455 17.2094 10.9973 19.3252 11.0193C20.772 11.1122 22.076 10.3419 23.2561 9.43134C23.4485 9.24662 23.6696 9.00018 23.9102 8.73212C24.844 7.69131 26.0702 6.32465 27.0443 6.98021C27.7583 7.3777 28.4389 8.07321 29.1267 8.77605C29.6152 9.27527 30.1073 9.77819 30.6176 10.1806C31.9666 11.1453 33.556 12.1013 35.0065 12.3388C36.4977 12.5601 37.7484 11.8772 39.0899 11.1447C39.1616 11.1056 39.2334 11.0663 39.3056 11.0271C40.0691 10.6276 40.8304 10.1485 41.5918 9.66932C42.6069 9.03047 43.6221 8.39162 44.6421 7.94161C45.8972 7.42743 47.1101 8.34105 48.1769 9.14467C48.4262 9.33245 48.6675 9.51422 48.8995 9.67036C49.2251 9.92708 49.5604 10.2342 49.9066 10.5514C50.8672 11.4315 51.9121 12.3887 53.0667 12.5601C54.8599 12.9618 56.4025 11.3918 57.8758 9.89231C58.6901 9.06348 59.4833 8.25617 60.286 7.8153C62.3403 6.71729 64.3874 8.21581 66.2391 9.57137C66.7417 9.93925 67.2299 10.2966 67.6999 10.5887C69.0488 11.5533 70.6346 12.3648 72.1903 12.0197C73.5726 11.7314 74.7684 10.5641 75.8703 9.48828C76.1045 9.25964 76.3344 9.03513 76.5611 8.82408C76.79 8.62836 77.0547 8.35541 77.3365 8.06496C77.9245 7.45884 78.5865 6.77648 79.1505 6.56061C79.2707 6.5563 79.5 6.11395 79.5 6.11395C79.6534 6.10845 80.0607 6.44723 80.3989 6.72856C80.5908 6.88823 80.7605 7.02939 80.849 7.07862C81.7094 7.77136 82.5999 8.46303 83.4905 9.15469C84.381 9.84636 85.2715 10.538 86.132 11.2308C86.132 11.2308 86.2522 11.2264 86.256 11.371C86.8722 11.9278 87.838 12.0379 88.537 11.1446C89.065 10.6192 89.563 10.0948 90.061 9.57051C90.559 9.04617 91.0569 8.52183 91.585 7.99642C91.818 7.69864 92.082 7.43593 92.346 7.17321C92.6101 6.91051 92.8741 6.64781 93.1071 6.35003C93.2304 6.24462 93.3953 6.04961 93.5781 5.83349C93.9191 5.43027 94.3222 4.95358 94.6329 4.84823C95.3459 4.71503 96.4892 5.76787 97.3312 6.54321C97.6209 6.81004 97.875 7.04401 98.0636 7.18546C98.616 7.59983 99.1383 8.01527 99.6606 8.43071C100.183 8.84613 100.705 9.26155 101.257 9.67589C101.413 9.80087 101.571 9.93164 101.732 10.0646C103.355 11.4054 105.248 12.968 106.95 11.0638C107.647 10.2843 108.205 9.26909 108.73 8.31311C108.909 7.98553 109.085 7.66491 109.262 7.36313C109.493 6.99306 109.753 6.58577 110.014 6.17848C110.274 5.7712 110.534 5.36391 110.765 4.99385C113.839 7.48858 117.025 9.68985 120.437 11.3042C122.436 12.2106 123.591 10.854 124.93 9.28151C124.978 9.22527 125.026 9.16875 125.075 9.11205C125.272 8.86019 125.468 8.58536 125.667 8.30688C126.174 7.59759 126.698 6.86469 127.292 6.42776C127.6 6.16423 127.684 6.07394 127.731 6.09011C127.792 6.11101 127.792 6.30978 128.138 6.54218C128.387 6.72951 128.698 7.11434 128.987 7.47389C129.125 7.64452 129.258 7.80946 129.378 7.9449C129.672 8.27758 129.952 8.61075 130.228 8.93846C130.766 9.57799 131.286 10.1967 131.857 10.7503C131.957 10.8636 132.061 10.9842 132.168 11.1086C132.721 11.7549 133.363 12.503 134.078 12.8415C135.699 13.5064 136.77 12.2845 137.828 11.0784C138.04 10.8361 138.252 10.5944 138.467 10.3688C139.287 9.47117 140.106 8.57354 141.046 7.67159L142.104 6.76687C142.113 6.77594 142.122 6.785 142.131 6.79406Z" fill="#F7C300"/>
</svg>
