<svg width="100" height="15" viewBox="0 0 100 15" fill="none" xmlns="http://www.w3.org/2000/svg">
<path d="M99.6111 10.7507C98.4648 8.65161 97.2414 6.7243 96.0952 4.6252C94.9514 2.69292 94.1408 1.74169 92.8152 3.66125C91.7234 5.23224 90.4003 7.31862 89.5571 9.54199C89.4775 9.54696 89.4751 9.38014 89.3955 9.38511C89.2264 8.72776 88.8211 8.25215 88.575 7.76659C88.0006 6.63363 87.5058 5.4957 86.9339 4.52956C86.0313 2.74919 85.0541 1.30743 83.7982 2.55473C82.5399 3.6352 81.7837 6.35407 80.7764 8.25374C80.6993 8.42553 80.6222 8.59732 80.5451 8.76912C80.7789 8.42056 80.6944 8.09188 80.3761 8.11177C80.1299 7.62621 79.7296 7.48424 79.4063 7.17048C78.8393 6.53799 78.2724 5.90549 77.7055 5.273C76.41 3.85113 75.1891 2.09064 73.9682 0.330157C73.5604 -0.312279 72.8491 0.0661037 72.5407 0.753278C72.006 2.28948 71.4688 3.65885 70.934 5.19505C70.6281 6.04905 70.3221 6.90305 70.0162 7.75704C69.9391 7.92884 69.862 8.10063 69.7874 8.43925C69.7103 8.61104 69.7103 8.61104 69.7103 8.61104C68.9842 7.98849 68.3278 6.69367 67.6763 5.7325C66.9452 4.77631 66.2117 3.65329 65.4011 2.70206C64.0186 0.784691 62.6509 -0.13174 61.1736 2.29822C60.0868 4.20286 59.0795 6.10253 57.9927 8.00717C57.0975 6.72727 56.2048 5.61419 55.2301 4.33926C54.3374 3.22618 53.4373 1.61264 52.3307 2.1827C51.3036 2.74779 50.3784 4.80931 49.5228 6.19857C49.0553 6.89568 48.5877 7.5928 48.1997 8.28494C47.7322 8.98206 47.4139 9.00194 46.8494 8.53627C44.9944 6.98237 43.515 3.90222 41.4385 3.53099C39.2825 3.16474 37.8151 6.26199 36.1787 8.7019C35.634 9.57081 35.7111 9.39901 35.1417 8.5997C34.6543 7.96223 34.2465 7.31979 33.7592 6.68233C32.7844 5.4074 31.8097 4.13247 30.6882 3.70159C29.5692 3.43754 28.6291 4.49812 27.6095 5.56368C27.0599 6.09894 26.5102 6.63421 25.9606 7.16947C25.411 7.70474 24.553 8.92717 23.8393 9.13873C22.8844 9.19838 21.6635 7.4379 20.8504 6.31985C19.9552 5.03995 19.2093 3.08281 18.0878 2.65194C17.0459 2.21609 16.0238 3.11482 15.2478 4.49911C14.3923 5.88837 13.6287 8.10678 12.5047 7.50908C11.3832 7.0782 10.4806 5.29783 9.50836 4.18972C8.45405 2.91976 7.32512 1.98842 6.04694 1.73431C3.7293 1.21117 1.36923 3.19535 0.160365 7.61227C-0.593315 10.498 1.51282 12.8711 2.2665 9.98537C3.32364 6.07886 5.63137 5.9347 7.4093 7.66039C9.18722 9.38608 10.6691 12.6331 12.7406 12.6706C13.698 12.7778 14.561 11.889 15.3419 10.8384C15.9636 9.79767 17.0381 7.05892 17.8487 8.01014C18.6569 8.79455 19.4003 10.5849 20.2134 11.7029C21.1061 12.816 22.1579 13.9191 23.1178 14.1931C24.1572 14.4621 25.0202 13.5734 25.9628 12.6796C27.1416 11.6041 28.3129 10.0281 29.4942 9.11945C30.5188 8.38754 31.501 10.1629 32.3116 11.1142C33.1247 12.2322 34.0297 14.1794 35.0692 14.4484C36.9118 15.1682 38.3545 10.4027 39.8466 8.97371C41.5751 7.36294 43.2957 10.595 44.7528 12.1738C45.6455 13.2868 46.6949 14.2232 47.7244 13.8249C48.8335 13.4216 49.7612 11.5269 50.6168 10.1377C51.0843 9.44057 51.7782 7.89443 52.3303 7.52599C52.4099 7.52102 52.5616 7.01061 52.5616 7.01061C52.7208 7.00067 53.2927 7.96681 53.4543 8.12369C54.5931 9.72232 55.8115 11.316 56.9504 12.9146C56.9504 12.9146 57.03 12.9096 57.0324 13.0765C57.4402 13.7189 58.0793 13.846 58.5419 12.8152C59.2408 11.6027 59.8601 10.3952 60.5589 9.18269C60.8673 8.49551 61.2578 7.97019 61.5662 7.28302C61.8 6.93446 62.2601 5.73688 62.5759 5.55017C63.2101 5.34358 64.3588 7.60951 64.8462 8.24697C65.5772 9.20317 66.2287 10.1643 66.9597 11.1205C68.0986 12.7192 69.4885 15.137 70.7271 12.722C71.3464 11.5144 71.7991 9.81638 72.2567 8.45197C72.5627 7.59798 72.9457 6.57219 73.2516 5.71819C75.2856 8.59672 77.3942 11.1366 79.6521 12.9993C81.0222 14.0826 81.7933 12.3647 82.7209 10.47C83.1835 9.43919 83.6412 8.07479 84.1883 7.3727C84.6559 6.67558 84.3425 7.02911 84.7479 7.50473C84.9915 7.82346 85.3222 8.63769 85.5684 9.12324C86.1427 10.2562 86.6375 11.3941 87.2094 12.3603C87.6197 13.1695 88.1145 14.3075 88.679 14.7731C89.967 15.6945 90.7306 13.4761 91.5837 11.9201C92.1259 10.8843 92.6681 9.8486 93.2898 8.80789C93.2898 8.80789 93.7574 8.11078 93.9912 7.76222C94.0732 7.92407 94.1553 8.08592 94.2373 8.24778C95.3836 10.3469 96.6069 12.2742 97.7532 14.3733C99.1382 16.4575 100.757 12.8498 99.6111 10.7507Z" fill="#59C69F"/>
</svg>
