<svg width="105" height="14" viewBox="0 0 105 14" fill="none" xmlns="http://www.w3.org/2000/svg">
<path d="M97.3195 10.4115C97.1637 10.2768 97.0105 10.1444 96.8604 10.0178C96.326 9.59809 95.8203 9.17697 95.3147 8.75584C94.809 8.33472 94.3034 7.91361 93.769 7.49394C93.5866 7.35068 93.3402 7.11311 93.0592 6.84215L93.0591 6.84208L93.0589 6.84193C92.2423 6.05448 91.1335 4.98529 90.4532 5.13027C90.1573 5.24208 89.7781 5.73665 89.4575 6.155C89.2856 6.37921 89.1305 6.58153 89.014 6.69128C88.7952 7.00001 88.5462 7.27304 88.2972 7.54606C88.0482 7.81909 87.7992 8.09213 87.5804 8.40086C87.0831 8.94622 86.6145 9.49016 86.1458 10.0341L86.1443 10.0359C85.675 10.5806 85.2057 11.1253 84.7077 11.6714C84.0512 12.5976 83.1255 12.4954 82.528 11.93C82.5223 11.7814 82.4074 11.7872 82.4074 11.7872C81.5742 11.0849 80.7123 10.384 79.8503 9.68308L79.8503 9.683C78.9884 8.98213 78.1265 8.28125 77.2933 7.57892C77.2081 7.52938 77.044 7.38644 76.8583 7.2247L76.8577 7.22419C76.5301 6.93884 76.1356 6.59521 75.9889 6.60259C75.9889 6.60259 75.7757 7.05989 75.6606 7.06567C75.124 7.29394 74.5001 8.00278 73.9459 8.63245L73.9458 8.63251L73.9453 8.63315C73.6799 8.93468 73.4305 9.218 73.2144 9.42166C73.001 9.64062 72.7846 9.87338 72.5643 10.1104L72.5626 10.1122C71.5232 11.2305 70.3952 12.444 69.0765 12.7559C67.5924 13.1283 66.0635 12.3121 64.7591 11.3358C64.3052 11.0409 63.833 10.6791 63.3469 10.3066L63.3469 10.3066C61.5558 8.93416 59.5758 7.41697 57.6252 8.56888C56.8633 9.03115 56.1155 9.86996 55.3478 10.7312C53.9589 12.2892 52.5047 13.9205 50.7829 13.5278C49.6756 13.3647 48.6623 12.3926 47.7307 11.4989L47.7306 11.4988C47.3948 11.1767 47.0697 10.8648 46.7546 10.6046C46.5303 10.4467 46.2969 10.2626 46.0557 10.0724C45.0234 9.25843 43.8499 8.33302 42.656 8.87576C41.6862 9.34987 40.7237 10.018 39.7612 10.6862L39.7611 10.6862L39.7606 10.6866C39.0388 11.1876 38.3172 11.6886 37.5924 12.1078L37.3876 12.2312L37.3875 12.2312C36.114 12.9993 34.9266 13.7154 33.4966 13.5048C32.1051 13.2771 30.5707 12.3123 29.2662 11.336C28.7722 10.9281 28.2943 10.4168 27.8198 9.90917L27.8197 9.9091C27.1517 9.19442 26.4906 8.48718 25.8017 8.08667C24.8603 7.42384 23.706 8.84248 22.827 9.92291C22.6006 10.2012 22.3924 10.457 22.2108 10.6491C21.0943 11.5985 19.8571 12.405 18.4713 12.3259C16.4463 12.3272 14.7929 11.0178 13.1335 9.70352L13.1334 9.70345C12.3378 9.07327 11.5407 8.442 10.7007 7.95361C8.1086 6.44665 4.77307 6.61454 3.29176 10.1128C2.23693 12.6965 -0.837682 10.6184 0.217191 8.03471C1.91167 4.07914 5.30055 2.27114 8.6585 2.69755C10.51 2.90207 12.1539 3.71247 13.694 4.8258C14.1446 5.13388 14.5858 5.50241 15.0303 5.87365C15.9861 6.67196 16.9568 7.48275 18.0674 7.73168C19.3362 8.13054 20.2696 7.01803 21.1954 5.91458L21.1954 5.91452C21.4609 5.59808 21.7258 5.28238 21.9977 5.00328C23.1031 3.75679 24.5703 2.93866 26.0823 3.30912C27.2203 3.56416 28.1016 4.4874 28.9768 5.40426L28.9769 5.40435L28.9769 5.40441C29.3531 5.79848 29.7281 6.19136 30.1219 6.52951L30.312 6.68683L30.3122 6.68697C31.4961 7.66819 33.1701 9.05551 34.4785 8.98965C35.2167 8.84576 36.0558 8.23768 36.7622 7.72579C37.0411 7.52372 37.2992 7.33663 37.5223 7.19902L39.8872 5.74027L40.1029 5.5973L40.1029 5.59726C41.4825 4.68156 42.7755 3.82332 44.3169 4.02874C45.944 4.39342 47.3691 5.51255 48.7941 6.63167C49.15 6.91115 49.4772 7.19208 49.8044 7.473L49.8054 7.47386L49.8055 7.47395C50.133 7.75517 50.4605 8.03638 50.8167 8.31614C50.9381 8.4185 51.0395 8.50921 51.1266 8.58709C51.6368 9.04358 51.6537 9.05869 52.3176 8.38946C52.7122 8.01773 53.0995 7.62938 53.4859 7.24203C55.3879 5.33523 57.2661 3.45238 59.8612 3.69293C61.7676 3.88008 63.3404 5.04117 64.9246 6.21076L64.9249 6.21103C65.8396 6.88629 66.7581 7.56437 67.7468 8.05943C68.5688 8.46463 69.0289 8.44148 69.6965 7.81244C70.2492 7.1892 70.9169 6.56016 71.5846 5.93112C71.8851 5.62276 72.1912 5.27801 72.504 4.9257L72.504 4.92566C73.4616 3.84728 74.4819 2.69819 75.5962 2.30551C76.9248 1.8663 78.0642 2.78182 79.1623 3.66424C79.3812 3.84019 79.5986 4.01483 79.8154 4.17714C80.1775 4.46146 80.5317 4.73655 80.8802 5.00721C81.9036 5.80193 82.8777 6.55838 83.855 7.39751C84.6291 6.54001 85.3745 5.68397 86.1198 4.82792L86.1205 4.82721L86.1229 4.8244C86.8676 3.96915 87.6123 3.1139 88.3857 2.2572C90.4925 0.0671537 92.4815 0.860194 94.5041 2.54467C95.2507 3.07037 95.9538 3.65747 96.6394 4.22999C97.0409 4.56525 97.4364 4.8955 97.8311 5.20549C98.1107 5.45321 98.3913 5.72646 98.6748 6.00266L98.6749 6.00276C99.3587 6.66878 100.06 7.35185 100.808 7.7351C101.5 8.09012 102.514 9.04928 103.5 10.0178C104.5 11 104.5 13 102 13.5C100.4 12.7 98.2133 11.108 97.32 10.412L97.3195 10.4115Z" fill="#F7C300"/>
</svg>
