<svg width="197" height="13" viewBox="0 0 197 13" fill="none" xmlns="http://www.w3.org/2000/svg">
<path d="M196.234 9.31728C193.976 7.49806 191.566 5.82773 189.308 4.00851C187.054 2.33386 185.457 1.50947 182.846 3.17308C180.695 4.53461 178.089 6.3428 176.428 8.26972C176.271 8.27403 176.266 8.12945 176.109 8.13376C175.776 7.56406 174.978 7.15186 174.493 6.73105C173.361 5.74915 172.386 4.76294 171.26 3.92562C169.482 2.38263 167.557 1.13311 165.083 2.2141C162.604 3.1505 161.114 5.50686 159.13 7.15324C158.978 7.30213 158.826 7.45101 158.674 7.5999C159.134 7.29782 158.968 7.01297 158.341 7.0302C157.856 6.60938 157.067 6.48634 156.43 6.21442C155.314 5.66626 154.197 5.11809 153.08 4.56993C150.528 3.33765 148.122 1.81189 145.717 0.286136C144.914 -0.270642 143.513 0.0572899 142.905 0.652841C141.852 1.98421 140.793 3.17101 139.74 4.50238C139.137 5.24251 138.535 5.98264 137.932 6.72277C137.78 6.87166 137.628 7.02055 137.481 7.31401C137.329 7.4629 137.329 7.4629 137.329 7.4629C135.899 6.92336 134.606 5.80118 133.322 4.96817C131.882 4.13946 130.437 3.16618 128.84 2.34178C126.117 0.680066 123.422 -0.114175 120.512 1.99179C118.371 3.64248 116.387 5.28886 114.246 6.93955C112.482 5.8303 110.724 4.86563 108.803 3.76069C107.045 2.79603 105.272 1.39762 103.091 1.89167C101.068 2.38141 99.2454 4.16807 97.56 5.37209C96.6389 5.97626 95.7178 6.58042 94.9535 7.18028C94.0324 7.78445 93.4053 7.80168 92.2933 7.3981C88.6389 6.05139 85.7245 3.38192 81.6339 3.06019C77.3866 2.74277 74.4958 5.42706 71.272 7.54164C70.199 8.2947 70.3509 8.14581 69.2291 7.45307C68.269 6.9006 67.4657 6.34382 66.5056 5.79135C64.5854 4.68641 62.6651 3.58147 60.4558 3.20805C58.2513 2.9792 56.3994 3.89837 54.3907 4.82186C53.3079 5.28575 52.2252 5.74965 51.1424 6.21354C50.0597 6.67744 48.3694 7.73688 46.9634 7.92024C45.0822 7.97193 42.677 6.44618 41.0752 5.4772C39.3118 4.36795 37.8424 2.67177 35.633 2.29835C33.5804 1.92061 31.5668 2.69951 30.0382 3.89923C28.3528 5.10326 26.8485 7.02587 24.6343 6.50787C22.4249 6.13444 20.6468 4.59145 18.7315 3.63109C16.6545 2.53046 14.4305 1.7233 11.9125 1.50307C7.34672 1.04968 2.69737 2.7693 0.315919 6.5973C-1.16883 9.09823 2.98026 11.1549 4.46501 8.65398C6.54756 5.26834 11.0938 5.14341 14.5963 6.63901C18.0988 8.1346 21.0182 10.9486 25.099 10.9812C26.9851 11.0741 28.6851 10.3038 30.2235 9.39326C31.4484 8.49131 33.5651 6.11773 35.162 6.94213C36.7541 7.62194 38.2186 9.17354 39.8204 10.1425C41.579 11.1072 43.6511 12.0632 45.5421 12.3007C47.5898 12.5339 49.2898 11.7636 51.1466 10.989C53.4689 10.0569 55.7765 8.69104 58.1036 7.90352C60.122 7.2692 62.0569 8.80788 63.6538 9.63227C65.2556 10.6012 67.0386 12.2888 69.0863 12.522C72.7163 13.1458 75.5583 9.0157 78.4979 7.77721C81.9028 6.38122 85.2925 9.18234 88.1631 10.5506C89.9216 11.5153 91.9889 12.3267 94.0171 11.9816C96.2021 11.6321 98.0296 9.99002 99.715 8.786C100.636 8.18183 102.003 6.84184 103.091 6.52253C103.247 6.51822 103.546 6.07586 103.546 6.07586C103.86 6.06725 104.987 6.90457 105.305 7.04053C107.548 8.42601 109.949 9.80719 112.192 11.1927C112.192 11.1927 112.349 11.1884 112.354 11.3329C113.157 11.8897 114.416 11.9998 115.328 11.1065C116.704 10.0557 117.924 9.00916 119.301 7.95833C119.909 7.36278 120.678 6.9075 121.285 6.31195C121.746 6.00986 122.652 4.97196 123.275 4.81015C124.524 4.6311 126.787 6.5949 127.747 7.14737C129.187 7.97608 130.471 8.80909 131.911 9.6378C134.154 11.0233 136.892 13.1187 139.332 11.0257C140.552 9.97917 141.444 8.50753 142.346 7.32504C142.948 6.58491 143.703 5.69589 144.306 4.95576C148.313 7.45049 152.467 9.65176 156.915 11.2661C159.614 12.2049 161.133 10.716 162.96 9.07396C163.872 8.18063 164.773 6.99815 165.851 6.38967C166.772 5.78551 166.155 6.0919 166.953 6.5041C167.433 6.78033 168.085 7.486 168.57 7.90681C169.701 8.88871 170.676 9.87492 171.803 10.7122C172.611 11.4136 173.586 12.3998 174.698 12.8034C177.235 13.6019 178.739 11.6793 180.42 10.3307C181.488 9.43308 182.556 8.53545 183.781 7.63351C183.781 7.63351 184.702 7.02934 185.163 6.72726C185.324 6.86753 185.486 7.0078 185.648 7.14807C187.906 8.96729 190.316 10.6376 192.574 12.4568C195.302 14.2631 198.492 11.1365 196.234 9.31728Z" fill="#F7C300"/>
</svg>
