<svg width="176" height="9" viewBox="0 0 176 9" fill="none" xmlns="http://www.w3.org/2000/svg">
<path d="M0.684539 2.42023C2.70196 3.61581 4.85507 4.71354 6.8725 5.90911C8.88556 7.00967 10.3123 7.55146 12.6453 6.45815C14.5668 5.56336 16.8955 4.37503 18.3795 3.10867C18.5195 3.10584 18.5239 3.20086 18.6639 3.19803C18.9615 3.57243 19.6748 3.84332 20.108 4.11988C21.1189 4.76518 21.9898 5.4133 22.9963 5.96359C24.5849 6.97762 26.3047 7.7988 28.5151 7.08838C30.7299 6.47298 32.0607 4.92441 33.8335 3.84242C33.9692 3.74457 34.1049 3.64672 34.2406 3.54888C33.8291 3.7474 33.9779 3.9346 34.5381 3.92328C34.9714 4.19983 35.676 4.2807 36.2449 4.4594C37.2428 4.81965 38.2406 5.1799 39.2384 5.54015C41.5185 6.34999 43.6673 7.35271 45.816 8.35542C46.5337 8.72133 47.7855 8.50581 48.3283 8.11442C49.2695 7.23946 50.215 6.45951 51.1562 5.58454C51.6946 5.09813 52.233 4.61172 52.7715 4.12532C52.9072 4.02747 53.0429 3.92962 53.1742 3.73676C53.3099 3.63891 53.3099 3.63891 53.3099 3.63891C54.5878 3.99349 55.7431 4.73098 56.8897 5.27843C58.1764 5.82304 59.4674 6.46268 60.8941 7.00446C63.3273 8.09653 65.7344 8.6185 68.3344 7.23447C70.2473 6.14966 72.0201 5.06767 73.9329 3.98285C75.5084 4.71184 77.0795 5.34581 78.795 6.07197C80.3661 6.70594 81.9503 7.62496 83.898 7.30027C85.7057 6.97842 87.334 5.80424 88.8398 5.01297C89.6627 4.61592 90.4856 4.21886 91.1684 3.82464C91.9914 3.42759 92.5516 3.41626 93.545 3.68149C96.8099 4.56654 99.4137 6.32089 103.068 6.53233C106.863 6.74093 109.445 4.97684 112.326 3.58716C113.284 3.09226 113.148 3.1901 114.151 3.64537C115.008 4.00845 115.726 4.37436 116.584 4.73743C118.299 5.46359 120.015 6.18975 121.989 6.43516C123.958 6.58556 125.613 5.98148 127.407 5.37458C128.375 5.06971 129.342 4.76484 130.309 4.45997C131.277 4.1551 132.787 3.45885 134.043 3.33835C135.724 3.30437 137.872 4.30709 139.303 4.94389C140.879 5.67288 142.192 6.78759 144.165 7.03301C145.999 7.28125 147.798 6.76936 149.164 5.98092C150.67 5.18964 152.014 3.92611 153.992 4.26654C155.966 4.51196 157.554 5.52599 159.265 6.15713C161.121 6.88046 163.108 7.41092 165.357 7.55565C169.436 7.85361 173.59 6.7235 175.718 4.20777C177.044 2.56417 173.337 1.21254 172.011 2.85613C170.15 5.08115 166.089 5.16325 162.96 4.18036C159.83 3.19747 157.222 1.3481 153.577 1.32669C151.892 1.26565 150.373 1.77188 148.998 2.37029C147.904 2.96304 146.013 4.52294 144.586 3.98115C143.164 3.53438 141.855 2.51468 140.424 1.87788C138.853 1.24391 137.002 0.615598 135.313 0.45954C133.483 0.306313 131.964 0.81254 130.306 1.3216C128.231 1.93416 126.169 2.83178 124.09 3.34933C122.287 3.7662 120.558 2.755 119.132 2.21321C117.701 1.57641 116.108 0.467355 114.278 0.314128C111.035 -0.0958362 108.496 2.61842 105.87 3.43234C102.828 4.34978 99.7996 2.50891 97.235 1.6097C95.6639 0.975731 93.817 0.442439 92.005 0.669278C90.053 0.898949 88.4202 1.9781 86.9145 2.76938C86.0916 3.16643 84.8703 4.04706 83.8986 4.25691C83.7586 4.25975 83.4916 4.55046 83.4916 4.55046C83.2114 4.55612 82.2049 4.00584 81.9204 3.91649C79.9161 3.00596 77.7717 2.09826 75.7673 1.18773C75.7673 1.18773 75.6273 1.19057 75.6229 1.09555C74.9052 0.729639 73.7804 0.657272 72.9662 1.24436C71.7362 1.93496 70.6463 2.62272 69.4163 3.31332C68.8735 3.70471 68.1863 4.00391 67.6435 4.39531C67.232 4.59383 66.4222 5.27593 65.8663 5.38228C64.7503 5.49994 62.7285 4.20935 61.8707 3.84627C60.5841 3.30165 59.4375 2.7542 58.1508 2.20959C56.1465 1.29906 53.7002 -0.0780579 51.5203 1.29747C50.4304 1.98524 49.6336 2.95239 48.8281 3.72951C48.2897 4.21592 47.6156 4.80017 47.0771 5.28658C43.4973 3.64706 39.7862 2.20041 35.8123 1.13949C33.4009 0.522505 32.0439 1.50098 30.4111 2.58014C29.597 3.16722 28.7915 3.94434 27.8285 4.34423C27.0056 4.74128 27.5571 4.53992 26.8438 4.26903C26.4149 4.08749 25.8329 3.62373 25.3997 3.34718C24.3888 2.70188 23.5179 2.05375 22.5114 1.50347C21.7893 1.04255 20.9185 0.394419 19.925 0.129188C17.658 -0.395611 16.3141 0.867915 14.8127 1.75421C13.8585 2.34412 12.9042 2.93404 11.8099 3.52679C11.8099 3.52679 10.987 3.92384 10.5756 4.12237C10.4312 4.03019 10.2867 3.938 10.1423 3.84582C8.12489 2.65024 5.97179 1.55251 3.95436 0.356932C1.51677 -0.830151 -1.33289 1.22465 0.684539 2.42023Z" fill="#F7C300"/>
</svg>
