<svg width="33" height="64" viewBox="0 0 33 64" fill="none" xmlns="http://www.w3.org/2000/svg">
<path d="M26.9696 39.2226C26.9739 39.2108 26.9749 39.2034 26.976 39.1948C26.976 39.1959 26.976 39.1959 26.9749 39.197C26.976 39.2023 26.9707 39.2151 26.9696 39.2226Z" fill="#F7C300"/>
<path d="M27.0763 39.0176C27.0816 39.0112 27.0838 39.0069 27.088 39.0005C27.087 39.0016 27.0848 39.0037 27.0827 39.0048C27.0806 39.009 27.0795 39.0122 27.0763 39.0176Z" fill="#F7C300"/>
<path d="M29.6894 29.1994C29.6147 26.8883 29.5421 24.5762 29.4653 22.2651C29.4088 20.5548 29.3554 18.6726 28.2863 17.2503C27.787 16.5856 27.1286 16.352 26.5162 15.8409C25.8685 15.2989 25.7715 14.2223 25.2689 13.5149C24.8176 12.88 24.1518 12.3721 23.7581 11.7021C23.1958 10.7471 23.3505 9.53932 23.2096 8.46808C22.9834 6.74491 22.4969 5.06443 21.6465 3.54612C20.9349 2.27429 19.7356 0.638616 18.3218 0.114731C16.8035 -0.447565 15.1561 1.18277 14.3047 2.27536C13.2452 3.63361 12.6391 5.24048 12.5324 6.96578C12.4119 8.91087 13.1161 11.2155 12.1142 13.0134C11.6511 13.8435 10.8253 14.0569 10.1307 14.6149C9.60251 15.0396 9.26747 15.5891 9.01673 16.2132C8.7756 16.814 8.65183 17.4445 8.44484 18.0559C8.11941 19.0141 7.81213 18.8487 6.97135 19.1837C5.18417 19.8964 5.7422 22.1723 5.84463 23.6799C6.01001 26.1201 6.17433 28.5603 6.33971 31.0005C6.41653 32.1464 6.35251 33.4406 6.72061 34.5364C7.02897 35.454 7.7385 35.9032 8.31573 36.6255C9.04768 37.5421 8.82575 39.2375 8.88444 40.3568C8.95379 41.6787 9.00608 43.0018 9.04129 44.3259C9.14372 48.1265 9.1021 51.927 8.92605 55.7233C8.91858 55.8919 8.90684 56.0594 8.89937 56.228C8.8887 57.3259 8.80974 58.4612 9.13623 59.5132C9.39124 60.3337 10.0357 60.5855 10.837 60.6592C11.6084 60.7306 12.3895 60.6367 13.1577 60.5781C14.1873 60.4991 15.2233 60.5557 16.254 60.5706C18.7006 60.6047 21.1632 60.656 23.6087 60.5429C24.5551 60.4991 25.6274 60.3615 26.2559 59.5591C26.5386 59.1985 26.6357 58.7557 26.6837 58.2937C26.6794 58.2691 26.6784 58.2457 26.6741 58.2211C26.6634 57.6556 26.6656 57.1413 26.6688 56.6452C26.6976 51.6827 26.7264 46.7191 26.7552 41.7566C26.7552 41.7524 26.7573 41.7492 26.7573 41.7449C26.7573 41.2349 26.7712 40.7259 26.8032 40.217C26.8096 40.1082 26.8171 39.9993 26.8267 39.8905C26.8277 39.8798 26.8299 39.8574 26.832 39.8339C26.8342 39.8201 26.8363 39.8051 26.8374 39.7987C26.8523 39.6984 26.8694 39.5992 26.8907 39.5C26.9024 39.4466 26.9611 39.3015 26.9707 39.2226C26.9494 39.2748 26.9088 39.3335 26.9601 39.2279C26.9654 39.2172 26.9707 39.2076 26.975 39.197C26.975 39.1916 26.9803 39.1788 26.9793 39.1756C26.9803 39.1799 26.9771 39.1884 26.975 39.1959C26.991 39.1628 27.0059 39.1297 27.0241 39.0977C27.0315 39.086 27.055 39.0508 27.0753 39.0188C27.0411 39.0604 26.9921 39.0977 27.0721 39.0156C27.0753 39.0124 27.0796 39.0092 27.0828 39.006C27.0902 38.9932 27.102 38.9761 27.1009 38.9718C27.103 38.9793 27.0956 38.991 27.0881 39.0017C27.2396 38.8459 27.4018 38.7083 27.5661 38.5664C27.7133 38.4394 27.8414 38.29 27.9694 38.1407C28.9734 37.3895 29.4813 36.1635 29.6744 34.9227C29.9657 33.0426 29.7502 31.089 29.6894 29.1994Z" fill="#F7C300"/>
<path d="M32.2202 61.9599C31.8745 61.6089 31.3591 61.595 30.8971 61.5928C29.1078 61.5843 27.3185 61.5694 25.5281 61.5747C25.5004 53.7879 26.2302 45.951 24.8068 38.256C26.6943 37.9401 27.3783 36.4592 27.3388 34.5354C27.3473 34.4693 27.3729 34.4149 27.3686 34.3423C27.1136 28.8506 26.9568 23.3546 26.896 17.8575C26.8917 17.5033 26.7455 17.2483 26.5332 17.0808C26.1854 16.5878 25.5431 16.2859 24.8826 16.1643C24.8719 16.1429 24.873 16.1237 24.8602 16.1024C24.3779 15.3053 24.4579 14.2917 23.9725 13.4755C23.5094 12.6955 22.6814 12.2229 21.8097 12.0447C21.2495 11.9305 20.6734 11.9017 20.0983 11.8974C19.8443 9.83176 20.4301 7.68394 19.5285 5.71858C19.0676 4.71348 18.2449 3.99968 17.4874 3.22185C16.6231 2.33626 15.8272 1.38559 15.0323 0.438116C14.7911 0.1511 14.3857 0.106287 14.0272 0.203382C13.7146 0.22152 13.4062 0.366629 13.1917 0.698458C12.59 1.62993 11.9893 2.5614 11.3886 3.4918C10.8113 4.38486 10.1477 5.26831 9.72195 6.24779C9.29729 7.22408 9.21299 8.25051 9.1223 9.30041C9.04654 10.1828 9.00813 11.0673 8.98892 11.9518C8.72645 11.9913 8.46931 12.0489 8.21964 12.1354C6.35137 12.7873 5.72078 14.7196 5.39536 16.4897C5.37508 16.6028 5.39109 16.7009 5.4007 16.8012C4.66875 16.9709 3.99549 17.3017 3.51962 17.9344C3 18.6247 2.91891 19.4495 2.8709 20.2871C2.80901 21.354 2.80794 22.4242 2.83355 23.4922C2.93491 27.7079 3.48333 31.9139 3.05868 36.1295C3.0224 36.4859 3.1451 36.7387 3.34356 36.903C3.89412 37.986 4.8352 38.4299 5.90431 38.6027C5.96833 46.3116 6.03234 54.0216 6.09636 61.7305C6.09529 61.7753 3.93788 61.7636 3.7917 61.7646C3.24861 61.7668 2.70552 61.7678 2.16136 61.7721C1.56919 61.7764 0.837241 61.691 0.352834 62.0965C-0.0568845 62.4379 -0.113441 63.0951 0.202384 63.5145C0.55982 63.9893 1.20108 64.0127 1.74417 63.9967C5.90217 63.8815 10.0559 63.8228 14.215 63.8026C18.4925 63.7823 22.7721 63.7407 27.0496 63.7962C28.2414 63.8122 29.4343 63.8218 30.6208 63.9092C31.325 63.9615 32.2202 63.9743 32.5072 63.1688C32.6576 62.7569 32.5253 62.2704 32.2202 61.9599ZM13.3155 4.435C13.6505 3.91645 13.9856 3.3979 14.3206 2.87829C14.7794 3.41711 15.2425 3.9506 15.7279 4.46488C16.2838 5.05385 17.003 5.61935 17.4372 6.32995C15.5498 6.45479 13.6655 6.63831 11.7887 6.87411C12.2304 6.028 12.7991 5.2363 13.3155 4.435ZM11.2307 9.57996C11.2435 9.41244 11.2562 9.24386 11.2701 9.07421C13.483 8.78186 15.7055 8.56526 17.9344 8.42869C17.9376 8.70184 17.9345 8.97392 17.927 9.24066C17.9046 10.1305 17.8598 11.0172 17.9622 11.9017C16.9784 11.9006 15.9958 11.8996 15.0131 11.8985L11.4387 11.8942C11.3352 11.8942 11.2285 11.891 11.1229 11.8889C11.1399 11.1185 11.1709 10.3492 11.2307 9.57996ZM9.70274 14.0346C11.5902 13.9321 13.5086 14.0303 15.4004 14.0324C17.1929 14.0346 19.0196 13.9321 20.8078 14.0538C21.5632 14.105 22.0989 14.2736 22.3208 15.0365C22.4286 15.4088 22.5054 15.7759 22.6035 16.1333C21.3136 16.1643 20.0225 16.2112 18.7347 16.2443L7.58373 16.5334C7.57413 16.5334 7.56773 16.5388 7.55812 16.5398C7.80886 15.284 8.1951 14.1167 9.70274 14.0346ZM23.3952 61.5907C18.3399 61.611 13.2856 61.6419 8.23138 61.7038C8.20257 58.2052 8.17376 54.7066 8.14389 51.208C13.275 50.7268 18.4263 50.5326 23.5798 50.6414C23.5531 54.2937 23.3856 57.9545 23.3952 61.5907ZM8.12681 49.0719C8.098 45.617 8.0692 42.1622 8.04039 38.7073C8.19724 38.7041 8.35514 38.7009 8.50879 38.6977C11.2157 38.6337 13.9216 38.5707 16.6285 38.5067C18.628 38.4598 20.6467 38.479 22.6526 38.4086C23.3035 41.746 23.5382 45.1198 23.5766 48.5085C18.4189 48.3976 13.2622 48.5918 8.12681 49.0719ZM24.1016 36.2127C23.7697 36.0057 23.3248 36.0388 22.9727 36.2575C22.5939 36.2533 22.2141 36.2415 21.8492 36.2501C19.9468 36.2949 18.0454 36.3397 16.143 36.3845C14.2406 36.4293 12.3392 36.4741 10.4368 36.5189C9.5587 36.5392 8.68164 36.5616 7.80352 36.5808C7.06518 36.5979 5.56928 36.8337 5.22892 35.9481C5.22358 35.9342 5.2129 35.9268 5.2065 35.9129C5.53299 32.4708 5.23212 29.0288 5.05393 25.5856C4.96537 23.8668 4.90669 22.1404 4.99631 20.4194C5.02619 19.8443 4.99525 19.2457 5.56715 18.9608C6.0985 18.6962 6.8219 18.7602 7.3938 18.7762C7.59333 18.7815 7.75445 18.7325 7.89422 18.6599C10.6961 18.5874 13.499 18.5137 16.3009 18.4412C17.7168 18.4049 19.1327 18.3676 20.5485 18.3313C21.2559 18.3131 21.9644 18.295 22.6729 18.2758C23.0271 18.2662 23.3803 18.2577 23.7345 18.2481C24.1016 18.2385 24.5038 18.3836 24.6319 17.9952C24.5102 18.3633 24.5988 18.6588 24.7823 18.8776C24.8495 24.0492 24.9946 29.2208 25.2358 34.3871C25.2368 34.3978 25.2422 34.4053 25.2432 34.4159C25.2347 34.4789 25.2091 34.529 25.2101 34.5984C25.2251 35.4189 25.2859 36.0399 24.3587 36.1871C24.2755 36.201 24.1869 36.2042 24.1016 36.2127Z" fill="#1E1E1E"/>
<path d="M12.5067 53.9872C12.5045 53.4623 11.986 52.9715 11.4184 53.0078C10.8326 53.0451 10.3717 53.4719 10.3738 54.0342C10.3759 54.8696 10.3781 55.7061 10.3813 56.5416C10.3834 57.3439 10.33 58.1676 10.4335 58.9647C10.5008 59.4843 10.9062 59.9836 11.5219 59.9442C12.0511 59.91 12.639 59.4758 12.5664 58.9177C12.4629 58.1207 12.5163 57.297 12.5141 56.4946C12.5109 55.6592 12.5088 54.8237 12.5067 53.9872Z" fill="#1E1E1E"/>
<path d="M16.5486 53.3162C16.3597 53.1348 16.0524 53.0025 15.7878 53.0195C15.1519 53.0622 14.8051 53.5125 14.7443 54.11C14.5864 55.672 14.5512 57.2426 14.6397 58.809C14.6707 59.3659 15.1401 59.8919 15.7302 59.8525C16.2914 59.8151 16.8078 59.3595 16.7737 58.762C16.6851 57.1946 16.7203 55.624 16.8783 54.0631C16.9028 53.8112 16.7235 53.4826 16.5486 53.3162Z" fill="#1E1E1E"/>
<path d="M20.0395 53.2511C19.474 53.2885 18.9672 53.7441 18.996 54.3416C19.0654 55.8022 19.0579 57.2651 18.9747 58.7258C18.9427 59.2849 19.5199 59.8055 20.0651 59.7693C20.6797 59.7287 21.0745 59.2774 21.1086 58.6788C21.1929 57.2192 21.1993 55.7553 21.13 54.2946C21.1022 53.7377 20.6253 53.2116 20.0395 53.2511Z" fill="#1E1E1E"/>
<path d="M12.2262 41.1174C12.224 40.5924 11.7055 40.1016 11.1378 40.1379C10.5521 40.1752 10.0911 40.602 10.0933 41.1643C10.0954 41.9998 10.0975 42.8363 10.1007 43.6717C10.1029 44.4741 10.0495 45.2978 10.153 46.0948C10.2202 46.6144 10.6257 47.1138 11.2413 47.0743C11.7706 47.0401 12.3585 46.6059 12.2859 46.0479C12.1824 45.2508 12.2357 44.4271 12.2336 43.6248C12.2315 42.7893 12.2283 41.9528 12.2262 41.1174Z" fill="#1E1E1E"/>
<path d="M16.2678 40.4453C16.0789 40.2639 15.7717 40.1316 15.507 40.1487C14.8711 40.1914 14.5244 40.6416 14.4635 41.2391C14.3056 42.8012 14.2704 44.3718 14.359 45.9381C14.3899 46.4951 14.8594 47.0211 15.4494 46.9816C16.0107 46.9443 16.5271 46.4887 16.4929 45.8912C16.4044 44.3238 16.4396 42.7532 16.5975 41.1922C16.622 40.9404 16.4428 40.6128 16.2678 40.4453Z" fill="#1E1E1E"/>
<path d="M19.759 40.3802C19.1935 40.4175 18.6867 40.8731 18.7155 41.4706C18.7848 42.9313 18.7774 44.3941 18.6941 45.8548C18.6621 46.4139 19.2394 46.9346 19.7846 46.8983C20.3992 46.8578 20.794 46.4064 20.8281 45.8079C20.9124 44.3482 20.9188 42.8844 20.8494 41.4237C20.8228 40.8667 20.3448 40.3417 19.759 40.3802Z" fill="#1E1E1E"/>
<path d="M19.8603 21.8235C19.3962 21.481 18.6643 21.7797 18.4092 22.2375C18.0998 22.7955 18.358 23.3461 18.8243 23.6885C20.4962 24.9198 21.2506 27.1423 20.6296 29.1184C19.9201 31.3772 17.6133 32.5306 15.4121 32.8688C14.2427 33.0481 13.1619 33.0481 12.2219 32.2574C11.3629 31.5351 10.6225 30.6484 10.0676 29.6743C8.97718 27.7569 9.09669 25.6006 10.6353 23.9638C12.097 22.4082 14.3547 21.736 16.4215 22.2663C17.7541 22.6088 18.2737 20.5388 16.9443 20.1963C14.3462 19.5284 11.571 20.271 9.5683 22.0294C7.2615 24.0545 6.59037 27.1914 7.84299 29.9773C8.45757 31.3452 9.40505 32.5679 10.5062 33.5826C11.7375 34.7179 13.0904 35.1916 14.7645 35.0753C17.8213 34.863 21.0788 33.4322 22.3784 30.4884C23.7772 27.3184 22.5854 23.8305 19.8603 21.8235Z" fill="#1E1E1E"/>
<path d="M19.2767 26.1926C18.2204 26.3227 17.1641 26.4529 16.1089 26.5831L16.0651 24.5665C16.0534 24.0085 15.5508 23.4846 14.9747 23.523C14.3974 23.5614 13.9184 24.0149 13.9312 24.6134L13.9984 27.6746C14.0059 27.9968 14.1851 28.2924 14.438 28.4908C14.6354 28.7192 14.9117 28.8707 15.2286 28.8312C16.5943 28.6626 17.959 28.4951 19.3247 28.3265C19.6139 28.2913 19.8635 28.2155 20.0716 27.9979C20.253 27.809 20.3853 27.5017 20.3671 27.2371C20.3309 26.7058 19.87 26.1189 19.2767 26.1926Z" fill="#1E1E1E"/>
</svg>
