<svg width="62" height="64" viewBox="0 0 62 64" fill="none" xmlns="http://www.w3.org/2000/svg">
<path d="M55.5136 19.5258C50.9175 7.46975 37.8754 -0.0615752 26.2131 5.28692C25.8862 5.43719 25.5725 5.59515 25.2654 5.75639C24.8486 5.83208 24.4241 5.96261 23.9941 6.17102C12.1629 11.9122 7.24658 27.0769 11.9391 39.8273C17.009 53.6033 32.4633 55.0358 44.0487 50.8654C49.6287 48.857 53.6137 45.8558 55.7977 39.8262C58.1494 33.3259 57.9651 25.9569 55.5136 19.5258Z" fill="#F7C300"/>
<path d="M55.8021 34.3922C55.8164 34.1816 55.8197 33.9644 55.8273 33.7505C56.0182 33.8668 56.2156 33.9699 56.423 34.0499C57.7568 34.5688 59.5009 34.1629 60.4431 33.077C61.461 31.9044 61.71 30.0419 60.8051 28.7212C59.8036 27.259 57.8347 26.7534 56.2606 27.5804C56.2288 27.5969 56.2091 27.6309 56.1794 27.6517C55.9469 27.7395 55.7275 27.8612 55.5169 27.9972C55.4248 27.0616 55.2931 26.1303 55.0825 25.2221C54.7962 23.9914 54.409 22.799 53.9187 21.6341C53.8277 21.3774 53.707 21.1372 53.6072 20.8849C54.9257 21.3401 56.5974 20.9354 57.5144 19.8791C58.5323 18.7065 58.7813 16.8439 57.8763 15.5233C56.8749 14.0611 54.9059 13.5554 53.3319 14.3825C53.3001 14.3989 53.2803 14.4329 53.2507 14.4538C52.8668 14.5975 52.5092 14.8147 52.1922 15.0812C51.7545 15.4487 51.4584 15.9368 51.2796 16.4677C49.7351 14.1872 47.7925 12.2161 45.5055 10.6212C46.224 10.449 46.8942 10.0761 47.3636 9.53528C48.3816 8.36269 48.6295 6.50015 47.7256 5.17948C46.7241 3.71731 44.7552 3.21164 43.1801 4.03871C43.1482 4.05516 43.1285 4.08916 43.1 4.10891C42.7161 4.2526 42.3585 4.46979 42.0415 4.73634C41.4118 5.26504 41.0586 6.03507 40.9588 6.8369C40.8996 7.31186 40.9676 7.77366 41.1135 8.20693C40.8996 8.11699 40.7011 8.0073 40.4828 7.92284C38.1738 7.02118 35.7123 6.46286 33.2136 6.23032C33.3386 6.12611 33.4571 6.01532 33.5635 5.89357C34.5814 4.72098 34.8304 2.85844 33.9255 1.53777C32.924 0.0756005 30.9551 -0.430072 29.381 0.396992C29.3492 0.413446 29.3295 0.44745 29.2999 0.468291C28.9159 0.611985 28.5583 0.829172 28.2413 1.09572C27.6117 1.62443 27.2585 2.39335 27.1587 3.19629C27.0128 4.3612 27.57 5.45919 28.4344 6.19522C25.7711 6.39156 23.144 6.95756 20.6903 7.89322C20.9009 6.97073 20.7813 5.97584 20.2351 5.17729C19.2336 3.71512 17.2646 3.20945 15.6906 4.03651C15.6588 4.05297 15.639 4.08697 15.6094 4.10671C15.2255 4.25041 14.8679 4.4676 14.5509 4.73414C13.9213 5.26285 13.5681 6.03287 13.4683 6.83471C13.273 8.3956 14.3326 9.83803 15.7169 10.4413C15.3363 10.6903 14.9513 10.9382 14.5959 11.2037C13.0975 12.3214 11.7933 13.6092 10.6668 15.0428C10.6032 14.9167 10.5428 14.7894 10.4617 14.671C9.46019 13.2088 7.49125 12.7031 5.9161 13.5302C5.88429 13.5467 5.86455 13.5807 5.83603 13.6015C5.45211 13.7452 5.09452 13.9624 4.77752 14.2289C4.1479 14.7576 3.79469 15.5266 3.69488 16.3295C3.49305 17.9419 4.62834 19.437 6.07954 20.0008C6.57863 20.195 7.13476 20.2586 7.6854 20.207C7.56036 20.5164 7.42983 20.8224 7.31575 21.1405C7.01191 22.0071 6.74865 22.9098 6.53585 23.8235C6.26053 25.0016 6.06857 26.2181 5.94133 27.4587C4.88392 26.6963 3.45027 26.5416 2.24367 27.1768C2.21186 27.1921 2.19322 27.225 2.1636 27.2459C1.77968 27.3896 1.42209 27.6067 1.10509 27.8733C0.476565 28.402 0.122266 29.1709 0.0235449 29.9739C-0.179382 31.5863 0.955912 33.0814 2.40711 33.6452C3.51608 34.0763 4.90037 33.8613 5.881 33.156C6.11574 36.2032 6.81117 38.9959 7.93989 41.4672C7.2609 41.3882 6.55889 41.4946 5.91939 41.8303C5.88758 41.8467 5.86784 41.8807 5.83932 41.9016C5.4554 42.0453 5.09781 42.2624 4.78081 42.529C4.15119 43.0577 3.79798 43.8266 3.69817 44.6296C3.49634 46.242 4.63163 47.7371 6.08283 48.3009C7.41666 48.8197 9.16074 48.4139 10.103 47.329C10.4277 46.9539 10.6646 46.5053 10.8203 46.0303C11.1352 46.4 11.4489 46.7685 11.7911 47.1119C12.809 48.1309 13.9301 49.0676 15.1224 49.9276C15.0643 49.9539 15.005 49.9693 14.948 49.9989C14.9162 50.0154 14.8964 50.0494 14.8668 50.0702C14.4829 50.2139 14.1253 50.4311 13.8083 50.6976C13.1787 51.2263 12.8255 51.9953 12.7257 52.7982C12.5238 54.4106 13.658 55.9057 15.1092 56.4695C15.1345 56.4794 15.1619 56.4838 15.1871 56.4926C14.3491 58.1324 13.5143 59.7756 12.6653 61.41C11.2449 61.3584 9.82436 61.297 8.40388 61.2081C6.99326 61.1204 6.99874 63.3142 8.40388 63.4019C9.83424 63.4919 11.2646 63.5456 12.6961 63.5983C13.0372 63.8221 13.4683 63.8725 13.816 63.6498C26.8592 64.0601 39.9244 63.21 52.9622 63.9976C54.3728 64.0831 54.3674 61.8882 52.9622 61.8038C50.956 61.682 48.9487 61.6041 46.9402 61.5504C46.5179 60.3043 46.0803 59.0615 45.6448 57.8176C46.3907 57.6531 47.0894 57.2779 47.5753 56.7185C48.5933 55.5459 48.8423 53.6834 47.9373 52.3627C47.5227 51.7561 46.9369 51.3261 46.2865 51.075C48.1545 49.7718 49.824 48.1967 51.2368 46.3791C51.6503 46.8475 52.1736 47.2248 52.7516 47.4497C54.0855 47.9674 55.8295 47.5627 56.7718 46.4767C57.7897 45.3042 58.0387 43.4416 57.1337 42.1209C56.5107 41.2116 55.5136 40.673 54.4694 40.5941C54.9005 39.4291 55.2405 38.2226 55.4741 36.9754C55.6299 36.1231 55.7407 35.2554 55.8021 34.3922ZM56.2167 30.5431C56.2167 30.542 56.2167 30.542 56.2178 30.5399C56.2365 30.4762 56.2496 30.4115 56.2705 30.3479C56.2705 30.3457 56.2716 30.3424 56.2727 30.3402C56.3012 30.304 56.333 30.2207 56.3517 30.1877C56.3648 30.1647 56.4197 30.0967 56.4427 30.0539C56.4482 30.0484 56.4526 30.043 56.4581 30.0375C56.503 29.9881 56.5502 29.9409 56.5985 29.896C56.6105 29.885 56.6237 29.874 56.6368 29.8631C56.6741 29.8389 56.7103 29.8137 56.7487 29.7907C56.7937 29.7643 57.0295 29.6799 56.8529 29.7271C56.6687 29.7764 56.8749 29.7216 56.9045 29.7117C56.967 29.6919 57.0295 29.6788 57.091 29.6634C57.1688 29.6623 57.2467 29.6601 57.3246 29.6645C57.5944 29.681 57.8533 29.5581 58.0562 29.3717C58.1583 29.3969 58.2603 29.4177 58.3612 29.4506C58.3656 29.4517 58.3678 29.4539 58.3721 29.4561C58.359 29.4462 58.3524 29.4441 58.3349 29.4309C58.3634 29.4528 58.4193 29.4704 58.4489 29.4846C58.5422 29.5318 58.6277 29.5888 58.7177 29.6426C58.7583 29.6799 58.7999 29.7161 58.8394 29.7556C58.8493 29.7654 58.8625 29.783 58.8734 29.7983C58.8822 29.7994 58.8987 29.8104 58.9305 29.8565C58.9305 29.8576 58.9327 29.862 58.9338 29.8631C58.9447 29.874 58.9568 29.8905 58.9667 29.896C58.9546 29.8894 58.9502 29.8828 58.9403 29.8762C58.982 29.9475 59.0292 30.0682 59.0807 30.1362C59.0972 30.1888 59.1147 30.2404 59.129 30.2941C59.14 30.3369 59.1477 30.3819 59.1586 30.4247C59.1608 30.4367 59.1597 30.4291 59.1608 30.4378C59.1619 30.4466 59.163 30.4554 59.163 30.4653C59.1707 30.5772 59.1707 30.689 59.1641 30.8009L59.163 30.8251C59.1575 30.8591 59.1531 30.8942 59.1498 30.9084C59.1268 31.0192 59.0895 31.1234 59.0588 31.232C59.0588 31.2331 59.0588 31.2331 59.0577 31.2353C59.0303 31.289 59.004 31.3439 58.9732 31.3954C58.9458 31.4437 58.914 31.4898 58.8833 31.5358C58.8142 31.6049 58.7473 31.673 58.6771 31.7399C58.6859 31.7377 58.6924 31.7311 58.7012 31.7311C58.6935 31.7311 58.6782 31.7443 58.665 31.7508C58.6541 31.7607 58.6442 31.7717 58.6343 31.7815C58.5849 31.8276 58.5795 31.8166 58.5959 31.7947C58.5729 31.8123 58.5487 31.832 58.5367 31.8386C58.4994 31.8616 58.461 31.8825 58.4226 31.9033C58.3996 31.9154 58.3776 31.9263 58.3546 31.9373C58.2745 31.9461 58.1385 32.0119 58.0727 32.0284C58.0255 32.0404 57.9773 32.0503 57.929 32.0591C57.8391 32.0547 57.7337 32.0755 57.646 32.0744C57.5846 32.0744 57.5242 32.0689 57.4639 32.0656C57.3564 32.0415 57.2511 32.0174 57.1458 31.9834C57.1557 31.9922 57.1645 31.9954 57.1754 32.0064C57.1612 31.9932 57.1359 31.9823 57.1129 31.9713C57.1195 31.9735 57.1206 31.9757 57.1283 31.979C57.1337 31.9812 57.1392 31.9812 57.1458 31.9834C57.0745 31.9252 57.0339 31.9241 57.0602 31.9461C57.0372 31.9362 57.012 31.9274 56.9944 31.9176C56.9549 31.8956 56.8749 31.8331 56.8036 31.787C56.8266 31.8145 56.8266 31.832 56.7707 31.7783C56.7641 31.7717 56.7564 31.764 56.7487 31.7574C56.7367 31.7519 56.7158 31.7344 56.7071 31.7344C56.7158 31.7333 56.7246 31.7399 56.7334 31.7421C56.6796 31.6916 56.6248 31.6422 56.5743 31.5874C56.5469 31.5578 56.5217 31.5271 56.4953 31.4974C56.4921 31.492 56.4953 31.4964 56.4921 31.4898C56.4339 31.3921 56.3714 31.2989 56.3198 31.1969C56.3166 31.1892 56.3122 31.1815 56.3089 31.1739C56.2979 31.1432 56.2858 31.1113 56.2771 31.0828C56.2562 31.0181 56.2387 30.9534 56.2244 30.8876C56.2233 30.8799 56.2222 30.8722 56.22 30.8645C56.2189 30.813 56.208 30.7472 56.208 30.7132C56.2102 30.6583 56.2145 30.6013 56.2167 30.5431ZM5.14608 30.4181C5.1395 30.4521 5.13511 30.4872 5.13291 30.5015C5.10988 30.6123 5.07258 30.7165 5.04187 30.8251C5.04187 30.8261 5.04187 30.8261 5.04077 30.8283C5.01335 30.8821 4.98703 30.9369 4.95631 30.9885C4.92889 31.0368 4.89708 31.0828 4.86637 31.1289C4.79726 31.198 4.73035 31.266 4.66015 31.3329C4.66892 31.3307 4.6766 31.3241 4.68428 31.3241C4.6766 31.3241 4.66125 31.3373 4.64808 31.3439C4.63711 31.3538 4.62724 31.3647 4.61737 31.3746C4.56801 31.4207 4.56253 31.4097 4.57898 31.3878C4.55594 31.4053 4.53181 31.4251 4.51975 31.4316C4.48245 31.4547 4.44516 31.4755 4.40567 31.4964C4.38263 31.5084 4.36069 31.5194 4.33766 31.5304C4.25759 31.5391 4.12157 31.6049 4.05576 31.6214C4.00749 31.6335 3.95923 31.6433 3.91206 31.6521C3.82321 31.6488 3.71791 31.6697 3.63016 31.6686C3.56873 31.6686 3.5084 31.6631 3.44807 31.6598C3.34058 31.6357 3.23527 31.6115 3.12997 31.5775C3.14094 31.5863 3.14862 31.5896 3.15959 31.6006C3.14533 31.5874 3.1212 31.5764 3.09706 31.5655C3.10365 31.5677 3.10474 31.5698 3.11242 31.5731C3.11791 31.5753 3.12449 31.5753 3.12997 31.5775C3.05867 31.5194 3.01809 31.5183 3.04441 31.5402C3.02138 31.5304 2.99615 31.5216 2.9786 31.5117C2.93911 31.4898 2.86013 31.4272 2.78774 31.3812C2.81077 31.4086 2.81077 31.4262 2.75593 31.3724C2.74825 31.3658 2.74167 31.3581 2.73399 31.3516C2.72083 31.3461 2.70108 31.3285 2.69231 31.3285C2.70218 31.3274 2.70986 31.334 2.71863 31.3362C2.66488 31.2857 2.60894 31.2364 2.55849 31.1815C2.53216 31.1519 2.50583 31.1212 2.47951 31.0916C2.47622 31.0861 2.47951 31.0905 2.47622 31.0839C2.41808 30.9863 2.35556 30.8931 2.304 30.791C2.30071 30.7834 2.29633 30.7757 2.29304 30.768C2.28207 30.7373 2.27 30.7055 2.26232 30.677C2.24148 30.6123 2.22393 30.5475 2.20857 30.4817C2.20748 30.474 2.20638 30.4664 2.20419 30.4587C2.20309 30.4071 2.19212 30.3413 2.19212 30.3073C2.19322 30.2525 2.1976 30.1943 2.1998 30.1373C2.2009 30.1362 2.2009 30.1362 2.2009 30.134C2.22064 30.0704 2.23271 30.0057 2.25355 29.942C2.25464 29.9398 2.25574 29.9366 2.25574 29.9344C2.28426 29.8982 2.31607 29.8148 2.33472 29.7819C2.34898 29.7589 2.40272 29.6909 2.42576 29.6481C2.43124 29.6426 2.43563 29.6371 2.44112 29.6316C2.48609 29.5823 2.53326 29.5351 2.58152 29.4901C2.59468 29.4792 2.60675 29.4682 2.61991 29.4572C2.65611 29.4331 2.69231 29.4079 2.7318 29.3848C2.77677 29.3585 3.0126 29.274 2.836 29.3212C2.65062 29.3706 2.85794 29.3157 2.88756 29.3058C2.95008 29.2861 3.0126 29.2729 3.07513 29.2576C3.15301 29.2565 3.23089 29.2543 3.30877 29.2587C3.5786 29.2751 3.83747 29.1523 4.0404 28.9658C4.14241 28.991 4.24442 29.0119 4.34424 29.0448C4.34973 29.0459 4.35192 29.0481 4.35631 29.0503C4.34205 29.0404 4.33656 29.0382 4.31901 29.025C4.34753 29.047 4.40347 29.0645 4.43309 29.0788C4.52633 29.1259 4.61189 29.183 4.70183 29.2367C4.74242 29.274 4.7841 29.3102 4.82249 29.3497C4.83236 29.3596 4.84553 29.3771 4.85649 29.3925C4.86637 29.3936 4.88172 29.4046 4.91353 29.4506C4.91463 29.4517 4.91573 29.4561 4.91682 29.4572C4.92779 29.4682 4.93986 29.4846 4.94973 29.4901C4.93767 29.4835 4.93218 29.477 4.92341 29.4704C4.96399 29.5417 5.01116 29.6623 5.06381 29.7303C5.08026 29.783 5.09781 29.8345 5.11207 29.8883C5.12304 29.9311 5.13072 29.976 5.14169 30.0188C5.14388 30.0309 5.14279 30.0232 5.14388 30.032C5.14498 30.0408 5.14608 30.0495 5.14717 30.0594C5.15485 30.1713 5.15485 30.2832 5.14827 30.3951C5.14717 30.4027 5.14608 30.4104 5.14608 30.4181ZM53.2869 17.3441C53.2869 17.343 53.2869 17.343 53.288 17.3408C53.3067 17.2772 53.3198 17.2125 53.3407 17.1489C53.3407 17.1467 53.3418 17.1434 53.3428 17.1412C53.3714 17.105 53.4032 17.0216 53.4218 16.9887C53.435 16.9657 53.4898 16.8977 53.5129 16.8549C53.5184 16.8494 53.5227 16.8439 53.5282 16.8385C53.5732 16.7891 53.6204 16.7419 53.6686 16.697C53.6807 16.686 53.6939 16.675 53.707 16.664C53.7443 16.6399 53.7805 16.6147 53.8189 16.5917C53.8639 16.5653 54.0997 16.4809 53.9231 16.528C53.7388 16.5774 53.945 16.5225 53.9747 16.5127C54.0372 16.4929 54.0997 16.4798 54.1611 16.4644C54.239 16.4633 54.3169 16.4611 54.3948 16.4655C54.6646 16.482 54.9235 16.3591 55.1264 16.1726C55.2284 16.1979 55.3304 16.2187 55.4314 16.2516C55.4357 16.2527 55.4379 16.2549 55.4423 16.2571C55.4292 16.2472 55.4226 16.245 55.405 16.2319C55.4335 16.2538 55.4895 16.2714 55.5191 16.2856C55.6123 16.3328 55.6979 16.3898 55.7878 16.4436C55.8284 16.4809 55.8701 16.5171 55.9096 16.5566C55.9195 16.5664 55.9326 16.584 55.9436 16.5993C55.9524 16.6004 55.9688 16.6114 56.0006 16.6575C56.0006 16.6586 56.0028 16.663 56.0039 16.664C56.0149 16.675 56.027 16.6915 56.0368 16.697C56.0248 16.6904 56.0204 16.6838 56.0105 16.6772C56.0522 16.7485 56.0994 16.8692 56.1509 16.9372C56.1674 16.9898 56.1849 17.0414 56.1992 17.0951C56.2102 17.1379 56.2178 17.1829 56.2288 17.2257C56.231 17.2377 56.2299 17.23 56.231 17.2388C56.2321 17.2476 56.2332 17.2564 56.2332 17.2662C56.2409 17.3781 56.2409 17.49 56.2343 17.6019L56.2332 17.626C56.2277 17.66 56.2233 17.6951 56.22 17.7094C56.197 17.8202 56.1597 17.9244 56.129 18.033C56.129 18.0341 56.129 18.0341 56.1279 18.0363C56.1005 18.09 56.0741 18.1449 56.0434 18.1964C56.016 18.2447 55.9842 18.2908 55.9535 18.3368C55.8844 18.4059 55.8175 18.4739 55.7473 18.5408C55.756 18.5387 55.7626 18.5321 55.7714 18.5321C55.7637 18.5321 55.7484 18.5452 55.7352 18.5518C55.7242 18.5617 55.7144 18.5727 55.7045 18.5825C55.6551 18.6286 55.6496 18.6176 55.6661 18.5957C55.6431 18.6132 55.6189 18.633 55.6069 18.6396C55.5696 18.6626 55.5312 18.6834 55.4928 18.7043C55.4697 18.7163 55.4478 18.7273 55.4248 18.7383C55.3447 18.7471 55.2087 18.8129 55.1429 18.8293C55.0957 18.8414 55.0474 18.8513 54.9992 18.86C54.9092 18.8557 54.8039 18.8765 54.7162 18.8754C54.6547 18.8754 54.5944 18.8699 54.5341 18.8666C54.4266 18.8425 54.3213 18.8184 54.216 18.7844C54.2259 18.7931 54.2346 18.7964 54.2456 18.8074C54.2313 18.7942 54.2061 18.7833 54.1831 18.7723C54.1897 18.7745 54.1908 18.7767 54.1984 18.78C54.2039 18.7822 54.2094 18.7822 54.216 18.7844C54.1447 18.7262 54.1041 18.7251 54.1304 18.7471C54.1074 18.7372 54.0822 18.7284 54.0646 18.7185C54.0251 18.6966 53.945 18.6341 53.8738 18.588C53.8968 18.6154 53.8968 18.633 53.8408 18.5792C53.8343 18.5727 53.8266 18.565 53.8189 18.5584C53.8068 18.5529 53.786 18.5354 53.7772 18.5354C53.786 18.5343 53.7948 18.5408 53.8035 18.543C53.7498 18.4926 53.695 18.4432 53.6445 18.3884C53.6171 18.3588 53.5918 18.328 53.5655 18.2984C53.5622 18.2929 53.5655 18.2973 53.5622 18.2908C53.5041 18.1931 53.4416 18.0999 53.39 17.9979C53.3867 17.9902 53.3823 17.9825 53.3791 17.9748C53.3681 17.9441 53.356 17.9123 53.3472 17.8838C53.3264 17.8191 53.3088 17.7544 53.2946 17.6886C53.2935 17.6809 53.2924 17.6732 53.2902 17.6655C53.2891 17.614 53.2781 17.5482 53.2781 17.5141C53.2814 17.4593 53.2858 17.4023 53.2869 17.3441ZM43.1384 6.99924C43.1384 6.99815 43.1384 6.99815 43.1395 6.99595C43.1581 6.93233 43.1702 6.86762 43.1921 6.804C43.1921 6.8018 43.1932 6.79961 43.1943 6.79632C43.2228 6.76012 43.2546 6.67676 43.2733 6.64385C43.2865 6.62081 43.3413 6.55281 43.3632 6.51003C43.3687 6.50454 43.3742 6.49906 43.3786 6.49357C43.4236 6.44421 43.4707 6.39705 43.5201 6.35207C43.5322 6.3411 43.5453 6.33013 43.5574 6.31917C43.5947 6.29503 43.6309 6.2698 43.6693 6.24677C43.7142 6.22044 43.9512 6.13598 43.7735 6.18315C43.5892 6.23251 43.7965 6.17767 43.8261 6.16779C43.8887 6.14805 43.9501 6.13489 44.0126 6.11953C44.0905 6.11843 44.1684 6.11624 44.2473 6.12063C44.5172 6.13708 44.776 6.01423 44.9779 5.82775C45.081 5.85298 45.183 5.87382 45.2828 5.90673C45.2872 5.90783 45.2894 5.91002 45.2938 5.91222C45.2806 5.90234 45.274 5.90015 45.2576 5.88699C45.2861 5.90892 45.342 5.92538 45.3717 5.94073C45.4649 5.9879 45.5505 6.04494 45.6393 6.09869C45.6799 6.13598 45.7216 6.17218 45.7611 6.21167C45.7709 6.22154 45.7841 6.23909 45.7951 6.25445C45.8038 6.25445 45.8203 6.26651 45.8521 6.31258C45.8521 6.31368 45.8543 6.31807 45.8554 6.31917C45.8664 6.33013 45.8784 6.34659 45.8872 6.35207C45.8751 6.34549 45.8708 6.33891 45.8609 6.33233C45.9026 6.40363 45.9497 6.52429 46.0024 6.59229C46.0188 6.64495 46.0364 6.6965 46.0506 6.75025C46.0616 6.79303 46.0693 6.838 46.0792 6.88078C46.0814 6.89285 46.0814 6.88517 46.0825 6.89394C46.0836 6.90272 46.0847 6.91149 46.0847 6.92136C46.0934 7.03325 46.0934 7.14513 46.0868 7.25702C46.0857 7.2647 46.0857 7.27347 46.0847 7.28115C46.0792 7.31515 46.0748 7.35025 46.0715 7.36451C46.0485 7.4753 46.0112 7.57951 45.9815 7.687C45.9804 7.6881 45.9804 7.6881 45.9804 7.69029C45.953 7.74404 45.9256 7.79889 45.896 7.85044C45.8675 7.8998 45.8357 7.94478 45.806 7.99194C45.7369 8.06105 45.67 8.12905 45.5998 8.19597C45.6086 8.19377 45.6152 8.18719 45.6229 8.18719C45.6152 8.18719 45.5998 8.20035 45.5878 8.20693C45.5768 8.21681 45.5669 8.22778 45.557 8.23765C45.5066 8.28372 45.5022 8.27275 45.5187 8.24971C45.4956 8.26726 45.4715 8.28701 45.4594 8.29359C45.4221 8.31662 45.3837 8.33747 45.3453 8.35831C45.3223 8.37037 45.3004 8.38134 45.2773 8.39231C45.1973 8.40109 45.0612 8.4669 44.9943 8.48335C44.9472 8.49542 44.8989 8.50529 44.8506 8.51407C44.7607 8.50968 44.6554 8.53052 44.5676 8.52942C44.5062 8.52942 44.447 8.52394 44.3855 8.52065C44.2781 8.49652 44.1727 8.47238 44.0685 8.43948C44.0784 8.44825 44.0872 8.45154 44.0982 8.46251C44.0839 8.44935 44.0587 8.43838 44.0356 8.42741C44.0422 8.4296 44.0433 8.4318 44.051 8.43509C44.0565 8.43728 44.062 8.43728 44.0685 8.43948C43.9972 8.38134 43.9556 8.38024 43.983 8.40218C43.9599 8.39231 43.9347 8.38354 43.9172 8.37366C43.8777 8.35172 43.7976 8.2892 43.7263 8.24313C43.7493 8.27055 43.7493 8.28811 43.6934 8.23436C43.6868 8.22778 43.6791 8.2201 43.6715 8.21352C43.6594 8.20803 43.6386 8.19048 43.6309 8.19048C43.6397 8.18938 43.6484 8.19596 43.6561 8.19816C43.6024 8.1477 43.5475 8.09834 43.4971 8.0435C43.4696 8.01388 43.4433 7.98317 43.4181 7.95355C43.4148 7.94806 43.4181 7.95245 43.4137 7.94587C43.3556 7.84825 43.2941 7.75501 43.2426 7.653C43.2382 7.64532 43.2349 7.63764 43.2316 7.62996C43.2206 7.59925 43.2086 7.56744 43.1998 7.53892C43.179 7.4742 43.1625 7.40949 43.1471 7.34367C43.145 7.33599 43.1439 7.32832 43.1428 7.32064C43.1417 7.26908 43.1307 7.20327 43.1296 7.16927C43.1318 7.11442 43.1362 7.05738 43.1384 6.99924ZM29.3382 3.35753C29.3382 3.35643 29.3382 3.35643 29.3393 3.35424C29.358 3.29062 29.3712 3.2259 29.392 3.16228C29.392 3.16009 29.3931 3.1568 29.3942 3.1546C29.4227 3.11841 29.4545 3.03504 29.4732 3.00213C29.4863 2.9791 29.5412 2.91109 29.5642 2.86831C29.5697 2.86283 29.5741 2.85734 29.5796 2.85186C29.6245 2.8025 29.6717 2.75533 29.72 2.71036C29.732 2.69939 29.7452 2.68842 29.7584 2.67745C29.7957 2.65332 29.8319 2.62809 29.8702 2.60506C29.9152 2.57873 30.1511 2.49427 29.9744 2.54144C29.7902 2.5908 29.9964 2.53595 30.026 2.52608C30.0885 2.50634 30.1511 2.49317 30.2125 2.47782C30.2904 2.47672 30.3682 2.47452 30.4461 2.47891C30.716 2.49537 30.9748 2.37251 31.1778 2.18604C31.2798 2.21127 31.3818 2.23211 31.4827 2.26502C31.4871 2.26611 31.4893 2.26831 31.4937 2.2705C31.4805 2.26063 31.4739 2.25844 31.4564 2.24527C31.4849 2.26721 31.5408 2.28476 31.5704 2.29902C31.6637 2.34619 31.7492 2.40323 31.8392 2.45697C31.8798 2.49427 31.9215 2.53047 31.9609 2.56996C31.9708 2.57983 31.984 2.59738 31.9949 2.61273C32.0037 2.61383 32.0202 2.6248 32.052 2.67087C32.052 2.67197 32.0542 2.67635 32.0553 2.67745C32.0662 2.68842 32.0783 2.70487 32.0882 2.71036C32.0761 2.70378 32.0717 2.6972 32.0619 2.69061C32.1035 2.76191 32.1507 2.88257 32.2023 2.95058C32.2187 3.00323 32.2363 3.05479 32.2505 3.10853C32.2615 3.15131 32.2692 3.19629 32.2801 3.23907C32.2823 3.25113 32.2812 3.24345 32.2823 3.25223C32.2834 3.261 32.2845 3.26978 32.2845 3.27965C32.2922 3.39153 32.2922 3.50342 32.2856 3.6153L32.2845 3.63943C32.279 3.67344 32.2747 3.70854 32.2714 3.7228C32.2483 3.83359 32.211 3.93779 32.1803 4.04638C32.1803 4.04748 32.1803 4.04748 32.1792 4.04968C32.1518 4.10342 32.1255 4.15827 32.0948 4.20982C32.0673 4.25809 32.0355 4.30416 32.0048 4.35023C31.9357 4.41933 31.8688 4.48734 31.7986 4.55425C31.8074 4.55096 31.8151 4.54438 31.8238 4.54438C31.8161 4.54438 31.8008 4.55754 31.7876 4.56412C31.7767 4.57399 31.7668 4.58496 31.7569 4.59484C31.7076 4.64091 31.7021 4.62994 31.7185 4.608C31.6955 4.62555 31.6714 4.64529 31.6593 4.65188C31.622 4.67491 31.5836 4.69575 31.5452 4.71659C31.5222 4.72866 31.5002 4.73963 31.4772 4.7506C31.3971 4.76047 31.2611 4.82628 31.1953 4.84274C31.1481 4.8548 31.0999 4.86467 31.0516 4.87345C30.9617 4.86906 30.8564 4.8899 30.7686 4.88881C30.7072 4.88881 30.6469 4.88332 30.5865 4.88003C30.479 4.8559 30.3737 4.83177 30.2684 4.79776C30.2783 4.80654 30.2871 4.80983 30.298 4.8208C30.2838 4.80764 30.2585 4.79667 30.2355 4.7857C30.2421 4.78789 30.2432 4.79008 30.2509 4.79338C30.2564 4.79557 30.2618 4.79557 30.2684 4.79776C30.1971 4.73963 30.1565 4.73853 30.1829 4.76047C30.1598 4.7506 30.1346 4.74182 30.117 4.73195C30.0776 4.71001 29.9975 4.64749 29.9262 4.60142C29.9492 4.62884 29.9492 4.64639 29.8933 4.59264C29.8867 4.58606 29.879 4.57838 29.8713 4.5718C29.8593 4.56632 29.8384 4.54877 29.8297 4.54877C29.8384 4.54767 29.8472 4.55425 29.856 4.55644C29.8022 4.50599 29.7474 4.45663 29.6969 4.40178C29.6695 4.37217 29.6443 4.34145 29.618 4.31184C29.6147 4.30635 29.618 4.31074 29.6147 4.30416C29.5565 4.20653 29.494 4.1133 29.4425 4.01128C29.4392 4.00361 29.4348 3.99593 29.4315 3.98825C29.4205 3.95754 29.4084 3.92573 29.3997 3.89721C29.3788 3.83249 29.3613 3.76777 29.347 3.70196C29.3459 3.69428 29.3448 3.6866 29.3426 3.67892C29.3415 3.62737 29.3306 3.56155 29.3306 3.52755C29.3328 3.47271 29.3372 3.41567 29.3382 3.35753ZM15.7092 7.54221C15.6884 7.47749 15.6709 7.41278 15.6566 7.34696C15.6555 7.33928 15.6544 7.33161 15.6522 7.32393C15.6511 7.27237 15.6401 7.20656 15.6401 7.17256C15.6401 7.11442 15.6434 7.05738 15.6456 6.99924C15.6456 6.99815 15.6456 6.99815 15.6467 6.99595C15.6654 6.93233 15.6785 6.86762 15.6994 6.804C15.6994 6.8018 15.7005 6.79961 15.7016 6.79632C15.7301 6.76012 15.7619 6.67676 15.7805 6.64385C15.7937 6.62081 15.8485 6.55281 15.8716 6.51003C15.8771 6.50454 15.8815 6.49906 15.8869 6.49357C15.9319 6.44421 15.9791 6.39705 16.0273 6.35207C16.0394 6.3411 16.0526 6.33013 16.0657 6.31917C16.103 6.29503 16.1392 6.2698 16.1776 6.24677C16.2226 6.22044 16.4584 6.13598 16.2818 6.18315C16.0975 6.23251 16.3038 6.17767 16.3334 6.16779C16.3959 6.14805 16.4584 6.13489 16.5199 6.11953C16.5977 6.11843 16.6756 6.11624 16.7535 6.12063C17.0233 6.13708 17.2822 6.01423 17.4851 5.82775C17.5871 5.85298 17.6891 5.87382 17.7901 5.90673C17.7945 5.90783 17.7966 5.91002 17.801 5.91222C17.7879 5.90234 17.7813 5.90015 17.7637 5.88699C17.7923 5.90892 17.8482 5.92538 17.8778 5.94073C17.9711 5.9879 18.0566 6.04494 18.1466 6.09869C18.1871 6.13598 18.2288 6.17218 18.2683 6.21167C18.2782 6.22154 18.2913 6.23909 18.3023 6.25445C18.3111 6.25445 18.3275 6.26651 18.3594 6.31258C18.3594 6.31368 18.3615 6.31807 18.3626 6.31917C18.3736 6.33013 18.3857 6.34659 18.3956 6.35207C18.3835 6.34549 18.3791 6.33891 18.3692 6.33233C18.4109 6.40363 18.4581 6.52429 18.5096 6.59229C18.5261 6.64495 18.5436 6.6965 18.5579 6.75025C18.5689 6.79303 18.5765 6.838 18.5875 6.88078C18.5897 6.89285 18.5886 6.88517 18.5897 6.89394C18.5908 6.90272 18.5919 6.91149 18.5919 6.92136C18.5996 7.03325 18.5996 7.14513 18.593 7.25702L18.5919 7.28115C18.5864 7.31515 18.582 7.35025 18.5787 7.36451C18.5557 7.4753 18.5184 7.57951 18.4877 7.687C18.4877 7.6881 18.4877 7.6881 18.4866 7.69029C18.4592 7.74404 18.4328 7.79889 18.4021 7.85044C18.3747 7.8987 18.3429 7.94477 18.3122 7.99084C18.2431 8.05995 18.1762 8.12796 18.106 8.19487C18.1147 8.19267 18.1213 8.18609 18.1301 8.18609C18.1224 8.18609 18.1071 8.19926 18.0939 8.20584C18.0829 8.21571 18.0731 8.22668 18.0632 8.23655C18.0138 8.28262 18.0083 8.27165 18.0248 8.24862C18.0018 8.26617 17.9776 8.28591 17.9656 8.29249C17.9283 8.31553 17.8899 8.33637 17.8515 8.35721C17.8285 8.36928 17.8065 8.38024 17.7835 8.39121C17.7034 8.39999 17.5674 8.4658 17.5016 8.48226C17.4544 8.49432 17.4061 8.50419 17.3579 8.51297C17.2679 8.50858 17.1626 8.52942 17.0749 8.52833C17.0135 8.52833 16.9531 8.52284 16.8928 8.51955C16.7853 8.49542 16.68 8.47129 16.5747 8.43838C16.5846 8.44716 16.5933 8.45045 16.6043 8.46142C16.5901 8.44825 16.5648 8.43728 16.5418 8.42631C16.5484 8.42851 16.5495 8.4307 16.5571 8.43399C16.5626 8.43619 16.5681 8.43619 16.5747 8.43838C16.5034 8.38024 16.4628 8.37915 16.4891 8.40108C16.4661 8.39121 16.4409 8.38244 16.4233 8.37257C16.3838 8.35063 16.3038 8.28811 16.2325 8.24203C16.2555 8.26946 16.2555 8.28701 16.1996 8.23326C16.193 8.22668 16.1853 8.219 16.1776 8.21242C16.1656 8.20693 16.1447 8.18938 16.1359 8.18938C16.1447 8.18829 16.1535 8.19487 16.1623 8.19706C16.1085 8.1466 16.0537 8.09724 16.0032 8.0424C15.9758 8.01278 15.9506 7.98207 15.9242 7.95245C15.9209 7.94697 15.9242 7.95136 15.9209 7.94477C15.8628 7.84715 15.8003 7.75391 15.7487 7.6519C15.7454 7.64422 15.7411 7.63655 15.7378 7.62887C15.7301 7.60254 15.718 7.57073 15.7092 7.54221ZM7.73038 17.977C7.68321 17.9891 7.63495 17.999 7.58668 18.0078C7.49674 18.0034 7.39144 18.0242 7.30368 18.0231C7.24226 18.0231 7.18302 18.0176 7.1216 18.0143C7.0141 17.9902 6.9088 17.9661 6.80459 17.9321C6.81446 17.9408 6.82324 17.9441 6.83421 17.9551C6.81995 17.9419 6.79472 17.931 6.77169 17.92C6.77827 17.9222 6.77936 17.9244 6.78704 17.9277C6.79253 17.9299 6.79801 17.9299 6.80459 17.9321C6.73329 17.8739 6.69161 17.8728 6.71903 17.8948C6.696 17.8849 6.67077 17.8761 6.65322 17.8663C6.61373 17.8443 6.53366 17.7818 6.46236 17.7357C6.48539 17.7631 6.48539 17.7807 6.42945 17.7269C6.42287 17.7204 6.41519 17.7127 6.40751 17.7061C6.39545 17.7006 6.37461 17.6831 6.36693 17.6831C6.3757 17.682 6.38448 17.6886 6.39216 17.6907C6.33841 17.6403 6.28356 17.5909 6.23311 17.5361C6.20568 17.5065 6.17936 17.4758 6.15413 17.4461C6.15084 17.4407 6.15413 17.445 6.14974 17.4385C6.09161 17.3408 6.03018 17.2476 5.97863 17.1456C5.97424 17.1379 5.97095 17.1302 5.96766 17.1226C5.95669 17.0918 5.94462 17.06 5.93585 17.0315C5.91501 16.9668 5.89855 16.9021 5.88319 16.8363C5.881 16.8286 5.8799 16.8209 5.87881 16.8132C5.87881 16.7661 5.86784 16.6991 5.86784 16.6651C5.86784 16.607 5.87223 16.55 5.87442 16.4918C5.87442 16.4907 5.87442 16.4907 5.87552 16.4885C5.89416 16.4249 5.90623 16.3602 5.92817 16.2966C5.92817 16.2944 5.92927 16.2911 5.93036 16.2889C5.95888 16.2527 5.99069 16.1693 6.00934 16.1364C6.0225 16.1134 6.07735 16.0454 6.09928 16.0026C6.10477 15.9971 6.11025 15.9916 6.11464 15.9862C6.15961 15.9368 6.20678 15.8896 6.25614 15.8447C6.26821 15.8337 6.28137 15.8227 6.29344 15.8118C6.33073 15.7876 6.36693 15.7624 6.40532 15.7394C6.45029 15.713 6.68722 15.6286 6.50953 15.6757C6.32525 15.7251 6.53256 15.6703 6.56218 15.6604C6.6247 15.6406 6.68613 15.6275 6.74865 15.6121C6.82653 15.611 6.90441 15.6088 6.98339 15.6132C7.25323 15.6297 7.51209 15.5068 7.71392 15.3203C7.81703 15.3456 7.91904 15.3664 8.01886 15.3993C8.02325 15.4004 8.02544 15.4026 8.02983 15.4048C8.01667 15.3949 8.01009 15.3927 7.99363 15.3796C8.02215 15.4015 8.0781 15.4191 8.10771 15.4333C8.20095 15.4805 8.28651 15.5375 8.37536 15.5913C8.41594 15.6286 8.45762 15.6648 8.49711 15.7043C8.50698 15.7141 8.52015 15.7317 8.53112 15.747C8.53989 15.7481 8.55634 15.7591 8.58815 15.8052C8.58815 15.8063 8.59035 15.8107 8.59145 15.8118C8.60242 15.8227 8.61448 15.8392 8.62326 15.8447C8.61119 15.8381 8.6068 15.8315 8.59693 15.8249C8.63861 15.8962 8.68578 16.0169 8.73843 16.0849C8.75488 16.1375 8.77243 16.1891 8.78669 16.2428C8.79766 16.2856 8.80534 16.3306 8.81521 16.3734C8.81741 16.3854 8.81741 16.3778 8.8185 16.3865C8.8196 16.3953 8.8207 16.4041 8.8207 16.414C8.82947 16.5258 8.82947 16.6377 8.82289 16.7496C8.82179 16.7573 8.82179 16.7661 8.8207 16.7737C8.81521 16.8077 8.81083 16.8428 8.80754 16.8571C8.7845 16.9679 8.74721 17.0721 8.71759 17.1807C8.71649 17.1818 8.71649 17.1818 8.71649 17.184C8.68907 17.2377 8.66165 17.2926 8.63203 17.3441C8.60461 17.3924 8.5717 17.4385 8.54209 17.4845C8.47298 17.5536 8.40607 17.6216 8.33587 17.6886C8.34464 17.6864 8.35122 17.6798 8.3589 17.6798C8.35122 17.6798 8.33587 17.6929 8.3238 17.6995C8.31283 17.7094 8.30296 17.7204 8.29309 17.7302C8.24263 17.7763 8.23824 17.7653 8.2547 17.7434C8.23166 17.7609 8.20753 17.7807 8.19546 17.7873C8.15817 17.8103 8.11978 17.8312 8.08139 17.852C8.05835 17.8641 8.03641 17.875 8.01338 17.886C7.93221 17.8948 7.79619 17.9606 7.73038 17.977ZM8.8196 45.0727C8.81412 45.1067 8.80973 45.1418 8.80644 45.1561C8.7834 45.2669 8.74611 45.3711 8.71649 45.4797C8.7154 45.4808 8.7154 45.4808 8.7154 45.4829C8.68797 45.5367 8.66055 45.5904 8.63093 45.6431C8.60351 45.6914 8.5706 45.7374 8.54099 45.7835C8.47188 45.8526 8.40497 45.9206 8.33477 45.9875C8.34355 45.9853 8.35013 45.9787 8.35781 45.9787C8.35013 45.9787 8.33477 45.9919 8.3227 45.9985C8.31174 46.0084 8.30186 46.0193 8.29199 46.0292C8.24153 46.0753 8.23715 46.0643 8.2536 46.0424C8.23057 46.0599 8.20643 46.0797 8.19437 46.0862C8.15707 46.1093 8.11868 46.1301 8.08029 46.151C8.05725 46.163 8.03532 46.174 8.01228 46.185C7.93221 46.1948 7.79619 46.2596 7.72928 46.276C7.68211 46.2881 7.63385 46.2979 7.58559 46.3067C7.49564 46.3023 7.39034 46.3232 7.30259 46.3221C7.24116 46.3221 7.18193 46.3166 7.1205 46.3133C7.013 46.2892 6.9077 46.265 6.8035 46.231C6.81337 46.2398 6.82214 46.2431 6.83311 46.2541C6.81885 46.2409 6.79362 46.2299 6.77059 46.219C6.77717 46.2212 6.77827 46.2234 6.78594 46.2267C6.79143 46.2288 6.79691 46.2288 6.8035 46.231C6.7322 46.1729 6.69051 46.1718 6.71794 46.1937C6.6949 46.1839 6.66967 46.1751 6.65212 46.1652C6.61263 46.1433 6.53256 46.0819 6.46126 46.0347C6.4843 46.0621 6.4843 46.0797 6.42836 46.0259C6.42177 46.0193 6.4141 46.0117 6.40642 46.0051C6.39435 45.9996 6.37351 45.982 6.36583 45.982C6.37461 45.9809 6.38338 45.9875 6.39106 45.9897C6.33951 45.9415 6.28466 45.8921 6.2342 45.8372C6.20678 45.8076 6.18046 45.7769 6.15523 45.7473C6.15194 45.7418 6.15523 45.7462 6.15084 45.7396C6.0927 45.642 6.03128 45.5488 5.97972 45.4468C5.97533 45.4391 5.97204 45.4314 5.96875 45.4237C5.95778 45.393 5.94572 45.3612 5.93694 45.3327C5.9161 45.268 5.89965 45.2032 5.88429 45.1374C5.8821 45.1297 5.881 45.1221 5.8799 45.1144C5.87881 45.065 5.86784 44.9992 5.86784 44.9641C5.86784 44.906 5.87223 44.8489 5.87442 44.7908C5.87442 44.7897 5.87442 44.7897 5.87552 44.7875C5.89416 44.7239 5.90623 44.6592 5.92817 44.5956C5.92817 44.5934 5.92927 44.5901 5.93036 44.5879C5.95888 44.5517 5.99069 44.4683 6.00934 44.4354C6.0225 44.4124 6.07735 44.3444 6.09928 44.3016C6.10477 44.2961 6.11025 44.2906 6.11464 44.2851C6.15961 44.2358 6.20678 44.1886 6.25614 44.1436C6.26821 44.1327 6.28137 44.1217 6.29344 44.1107C6.33073 44.0866 6.36693 44.0614 6.40532 44.0383C6.45029 44.012 6.68722 43.9275 6.50953 43.9747C6.32525 44.0241 6.53256 43.9692 6.56218 43.9594C6.6247 43.9396 6.68613 43.9264 6.74865 43.9111C6.82653 43.91 6.90441 43.9078 6.98339 43.9122C7.25323 43.9286 7.51209 43.8058 7.71392 43.6193C7.81703 43.6445 7.91904 43.6654 8.01886 43.6983C8.02325 43.6994 8.02544 43.7016 8.02983 43.7038C8.01667 43.6939 8.01009 43.6917 7.99363 43.6785C8.02215 43.7005 8.0781 43.718 8.10771 43.7323C8.20095 43.7795 8.28651 43.8365 8.37536 43.8902C8.41594 43.9275 8.45762 43.9637 8.49711 44.0032C8.50698 44.0131 8.52015 44.0307 8.53112 44.046C8.53989 44.0471 8.55634 44.0581 8.58815 44.1041C8.58815 44.1052 8.59035 44.1096 8.59145 44.1107C8.60242 44.1217 8.61448 44.1381 8.62326 44.1436C8.61119 44.1371 8.6068 44.1305 8.59693 44.1239C8.63861 44.1952 8.68578 44.3158 8.73843 44.3839C8.75488 44.4365 8.77243 44.4881 8.78669 44.5418C8.79766 44.5846 8.80534 44.6296 8.81521 44.6723C8.81741 44.6844 8.81741 44.6767 8.8185 44.6855C8.8196 44.6943 8.8207 44.7031 8.8207 44.7129C8.82947 44.8248 8.82947 44.9367 8.82289 45.0486C8.8207 45.0563 8.8207 45.065 8.8196 45.0727ZM15.1827 53.9148C15.1794 53.9094 15.1827 53.9137 15.1794 53.9072C15.1213 53.8095 15.0588 53.7163 15.0072 53.6143C15.0039 53.6066 14.9995 53.5989 14.9963 53.5913C14.9853 53.5605 14.9732 53.5287 14.9644 53.5002C14.9436 53.4355 14.9261 53.3708 14.9118 53.305C14.9107 53.2973 14.9096 53.2896 14.9074 53.2819C14.9063 53.2304 14.8953 53.1646 14.8953 53.1306C14.8953 53.0724 14.8986 53.0154 14.9008 52.9572C14.9008 52.9561 14.9008 52.9561 14.9019 52.9539C14.9206 52.8903 14.9337 52.8256 14.9546 52.762C14.9546 52.7598 14.9557 52.7565 14.9568 52.7543C14.9853 52.7181 15.0171 52.6348 15.0357 52.6018C15.0489 52.5788 15.1038 52.5108 15.1268 52.468C15.1323 52.4625 15.1367 52.4571 15.1421 52.4516C15.1871 52.4022 15.2343 52.355 15.2825 52.3101C15.2946 52.2991 15.3078 52.2881 15.3209 52.2772C15.3582 52.253 15.3944 52.2278 15.4328 52.2048C15.4778 52.1784 15.7136 52.094 15.537 52.1411C15.3527 52.1905 15.559 52.1357 15.5886 52.1258C15.6511 52.106 15.7136 52.0929 15.7751 52.0775C15.8529 52.0764 15.9308 52.0742 16.0087 52.0786C16.2785 52.0951 16.5374 51.9722 16.7403 51.7858C16.8423 51.811 16.9444 51.8318 17.0453 51.8647C17.0497 51.8658 17.0518 51.868 17.0562 51.8702C17.0431 51.8603 17.0365 51.8581 17.0189 51.845C17.0475 51.8669 17.1034 51.8845 17.133 51.8987C17.2263 51.9459 17.3118 52.0029 17.4018 52.0567C17.4423 52.094 17.484 52.1302 17.5235 52.1697C17.5334 52.1795 17.5466 52.1971 17.5575 52.2124C17.5663 52.2135 17.5828 52.2245 17.6146 52.2706C17.6146 52.2717 17.6168 52.2761 17.6179 52.2772C17.6288 52.2881 17.6409 52.3046 17.6508 52.3101C17.6387 52.3035 17.6343 52.2969 17.6244 52.2903C17.6661 52.3616 17.7133 52.4823 17.7648 52.5503C17.7813 52.6029 17.7988 52.6545 17.8131 52.7082C17.8241 52.751 17.8317 52.796 17.8427 52.8388C17.8449 52.8508 17.8438 52.8432 17.8449 52.8519C17.846 52.8607 17.8471 52.8695 17.8471 52.8794C17.8548 52.9912 17.8548 53.1031 17.8482 53.215L17.8471 53.2391C17.8416 53.2731 17.8372 53.3082 17.8339 53.3225C17.8109 53.4333 17.7736 53.5375 17.7429 53.6461C17.7429 53.6472 17.7429 53.6472 17.7418 53.6494C17.7144 53.7031 17.6881 53.7569 17.6573 53.8095C17.6299 53.8578 17.5981 53.9039 17.5674 53.9499C17.4994 54.019 17.4314 54.087 17.3612 54.154C17.37 54.1518 17.3765 54.1452 17.3853 54.1452C17.3776 54.1452 17.3623 54.1583 17.3491 54.1649C17.3381 54.1748 17.3283 54.1858 17.3184 54.1956C17.269 54.2417 17.2636 54.2307 17.28 54.2088C17.257 54.2264 17.2328 54.2461 17.2208 54.2527C17.1835 54.2757 17.1451 54.2966 17.1067 54.3174C17.0837 54.3295 17.0617 54.3404 17.0387 54.3514C16.9586 54.3613 16.8226 54.426 16.7568 54.4424C16.7096 54.4545 16.6614 54.4644 16.6131 54.4732C16.5231 54.4688 16.4178 54.4896 16.3301 54.4885C16.2687 54.4885 16.2083 54.483 16.148 54.4797C16.0405 54.4556 15.9352 54.4315 15.8299 54.3975C15.8398 54.4062 15.8485 54.4095 15.8595 54.4205C15.8453 54.4073 15.82 54.3964 15.797 54.3854C15.8036 54.3876 15.8047 54.3898 15.8124 54.3931C15.8178 54.3953 15.8233 54.3953 15.8299 54.3975C15.7586 54.3393 15.718 54.3382 15.7443 54.3602C15.7213 54.3503 15.6961 54.3415 15.6785 54.3317C15.639 54.3097 15.559 54.2483 15.4877 54.2011C15.5107 54.2285 15.5107 54.2461 15.4548 54.1924C15.4482 54.1858 15.4405 54.1781 15.4328 54.1715C15.4208 54.166 15.3999 54.1485 15.3911 54.1485C15.3999 54.1474 15.4087 54.154 15.4175 54.1562C15.3637 54.1057 15.3089 54.0563 15.2584 54.0015C15.2354 53.9752 15.2091 53.9445 15.1827 53.9148ZM15.0906 61.4758C15.956 59.8063 16.8029 58.128 17.6628 56.4564C18.2288 56.2567 18.7455 55.9342 19.1283 55.4944C19.7634 54.7627 20.0979 53.7624 20.042 52.7927C20.563 53.0318 21.095 53.2479 21.6303 53.4585C20.4139 56.1514 19.1864 58.8399 17.9941 61.5427C17.0255 61.5284 16.0592 61.4999 15.0906 61.4758ZM31.8238 57.9821C31.8161 57.9821 31.8008 57.9953 31.7876 58.0019C31.7767 58.0118 31.7668 58.0227 31.7569 58.0326C31.7076 58.0787 31.7021 58.0677 31.7185 58.0458C31.6955 58.0633 31.6714 58.0831 31.6593 58.0896C31.622 58.1127 31.5836 58.1335 31.5452 58.1544C31.5222 58.1664 31.5002 58.1774 31.4772 58.1884C31.3971 58.1971 31.2611 58.263 31.1953 58.2794C31.1481 58.2915 31.0999 58.3013 31.0516 58.3101C30.9617 58.3057 30.8564 58.3266 30.7686 58.3255C30.7072 58.3255 30.6469 58.32 30.5865 58.3167C30.479 58.2926 30.3737 58.2684 30.2684 58.2344C30.2783 58.2432 30.2871 58.2465 30.298 58.2575C30.2838 58.2443 30.2585 58.2333 30.2355 58.2224C30.2421 58.2246 30.2432 58.2268 30.2509 58.23C30.2564 58.2322 30.2618 58.2322 30.2684 58.2344C30.1971 58.1763 30.1565 58.1752 30.1829 58.1971C30.1598 58.1873 30.1346 58.1785 30.117 58.1686C30.0776 58.1467 29.9975 58.0842 29.9262 58.0381C29.9492 58.0655 29.9492 58.0831 29.8933 58.0293C29.8867 58.0227 29.879 58.0151 29.8713 58.0085C29.8593 58.003 29.8384 57.9854 29.8297 57.9854C29.8384 57.9843 29.8472 57.9909 29.856 57.9931C29.8022 57.9427 29.7474 57.8933 29.6969 57.8385C29.6695 57.8088 29.6443 57.7781 29.618 57.7485C29.6147 57.743 29.618 57.7474 29.6147 57.7408C29.5565 57.6432 29.494 57.55 29.4425 57.448C29.4392 57.4403 29.4348 57.4326 29.4315 57.4249C29.4205 57.3942 29.4084 57.3624 29.3997 57.3339C29.3788 57.2692 29.3613 57.2044 29.347 57.1386C29.3459 57.131 29.3448 57.1233 29.3426 57.1156C29.3415 57.064 29.3306 56.9982 29.3306 56.9642C29.3306 56.9061 29.3339 56.849 29.3361 56.7909C29.3361 56.7898 29.3361 56.7898 29.3372 56.7876C29.3558 56.724 29.369 56.6593 29.3898 56.5957C29.3898 56.5935 29.3909 56.5902 29.392 56.588C29.4205 56.5518 29.4523 56.4684 29.471 56.4355C29.4841 56.4125 29.539 56.3445 29.562 56.3017C29.5675 56.2962 29.5719 56.2907 29.5774 56.2852C29.6223 56.2359 29.6695 56.1887 29.7178 56.1437C29.7298 56.1328 29.743 56.1218 29.7562 56.1108C29.7935 56.0867 29.8297 56.0615 29.868 56.0384C29.913 56.0121 30.1489 55.9277 29.9723 55.9748C29.788 56.0242 29.9942 55.9693 30.0238 55.9595C30.0863 55.9397 30.1489 55.9266 30.2103 55.9112C30.2882 55.9101 30.366 55.9079 30.4439 55.9123C30.7138 55.9287 30.9726 55.8059 31.1756 55.6194C31.2776 55.6446 31.3796 55.6655 31.4805 55.6984C31.4849 55.6995 31.4871 55.7017 31.4915 55.7039C31.4783 55.694 31.4717 55.6918 31.4542 55.6787C31.4827 55.7006 31.5386 55.7181 31.5682 55.7324C31.6615 55.7796 31.747 55.8366 31.837 55.8904C31.8776 55.9276 31.9193 55.9638 31.9587 56.0033C31.9686 56.0132 31.9818 56.0308 31.9928 56.0461C32.0015 56.0472 32.018 56.0582 32.0498 56.1043C32.0498 56.1054 32.052 56.1097 32.0531 56.1108C32.064 56.1218 32.0761 56.1383 32.086 56.1437C32.0739 56.1372 32.0695 56.1306 32.0597 56.124C32.1013 56.1953 32.1485 56.316 32.2001 56.384C32.2165 56.4366 32.2341 56.4882 32.2483 56.5419C32.2593 56.5847 32.267 56.6297 32.2779 56.6724C32.2801 56.6845 32.279 56.6768 32.2801 56.6856C32.2812 56.6944 32.2823 56.7032 32.2823 56.713C32.29 56.8249 32.29 56.9368 32.2834 57.0487L32.2823 57.0728C32.2768 57.1068 32.2725 57.1419 32.2692 57.1562C32.2461 57.267 32.2088 57.3712 32.1781 57.4798C32.1781 57.4809 32.1781 57.4809 32.177 57.4831C32.1496 57.5368 32.1233 57.5917 32.0926 57.6432C32.0651 57.6915 32.0333 57.7375 32.0026 57.7836C31.9335 57.8527 31.8666 57.9207 31.7964 57.9876C31.8074 57.9887 31.8151 57.9821 31.8238 57.9821ZM26.5368 52.6852C25.8852 52.5393 25.2413 52.3693 24.604 52.1773C24.8015 51.7441 24.9923 51.3086 25.1898 50.8764C26.5477 51.2362 27.9364 51.5017 29.3459 51.6355C30.0874 51.7057 30.8245 51.7408 31.554 51.7408C32.9536 51.7408 34.3248 51.6026 35.6619 51.3569C35.8506 51.868 36.0326 52.3814 36.218 52.8925C33.1149 53.4541 29.8275 53.4212 26.5368 52.6852ZM22.2358 47.521C24.3024 43.4361 26.347 39.3403 28.3741 35.2357C28.7733 35.5505 29.2308 35.7984 29.7134 35.9717C29.7101 35.9827 29.7024 35.9915 29.6991 36.0035C27.7686 40.061 25.8698 44.1338 23.9952 48.2175C23.3974 48.008 22.8106 47.7766 22.2358 47.521ZM23.0859 50.2205C22.8983 50.6318 22.7173 51.0464 22.5298 51.4578C21.8881 51.2088 21.2596 50.9356 20.6409 50.6428C20.8395 50.2534 21.0402 49.8662 21.2387 49.4768C21.8409 49.7488 22.4585 49.9956 23.0859 50.2205ZM29.6377 49.4559C29.6092 49.4537 29.5818 49.4537 29.5532 49.4504C28.3916 49.3397 27.2443 49.1356 26.1199 48.8581C27.2048 46.4998 28.305 44.1469 29.4084 41.7974C29.4304 44.3509 29.4962 46.9045 29.6377 49.4559ZM31.6001 41.1688C32.7397 43.8486 33.8377 46.5448 34.8754 49.264C33.8827 49.4263 32.867 49.5163 31.8348 49.5305C31.6779 46.7455 31.6143 43.9572 31.6001 41.1688ZM31.894 36.3063V36.3052C32.3734 36.2942 32.8505 36.2339 33.3189 36.0979C33.4593 36.0573 33.5997 36.0013 33.7401 35.9476C35.9646 39.7977 37.8743 43.7992 39.5745 47.8928C38.7617 48.2471 37.9215 48.5532 37.0539 48.7967C35.4524 44.5868 33.7313 40.4218 31.894 36.3063ZM40.3939 49.932C40.599 50.4464 40.8097 50.9598 41.0093 51.4764C40.1537 51.8362 39.2729 52.1422 38.369 52.3967C38.1837 51.8834 37.9961 51.37 37.8074 50.8578C38.6937 50.6022 39.5581 50.294 40.3939 49.932ZM35.697 34.9505C36.1445 35.2971 36.6403 35.5845 37.1701 35.8423C38.2912 36.3885 39.4023 36.9458 40.4828 37.571C42.636 38.8182 44.6729 40.2529 46.5662 41.8676C46.6759 41.9608 46.7976 42.0332 46.926 42.0858C45.4835 44.0449 43.6418 45.6738 41.5204 46.9056C39.8148 42.8109 37.9149 38.8028 35.697 34.9505ZM42.1369 35.9991C41.1069 35.3816 40.0495 34.8079 38.969 34.2814C38.1255 33.8701 37.0407 33.5015 36.49 32.6942C36.3617 32.5055 36.1829 32.375 35.9877 32.2817C35.9932 32.1984 35.9943 32.115 35.9975 32.0316C40.7142 32.0667 45.4309 32.1029 50.1465 32.138C50.1487 32.511 50.1662 32.8861 50.1443 33.2536C50.0247 35.251 49.564 37.1629 48.7732 38.9366C48.5658 39.4028 48.3366 39.8547 48.0898 40.2957C46.2251 38.7074 44.2397 37.2595 42.1369 35.9991ZM35.7672 29.8356C35.6652 29.4232 35.5379 29.0174 35.3591 28.6258C35.2352 28.3526 35.0739 28.0949 34.8973 27.8459C35.7683 25.8309 37.8491 24.4345 39.2301 22.8012C40.8447 20.8915 42.2005 18.6538 44.1991 17.1039C45.5011 18.4015 46.6024 19.9153 47.4635 21.6242C47.9658 22.5007 48.3695 23.3606 48.6986 24.2513C49.0364 25.1661 49.2942 26.1259 49.4653 27.1044L49.4839 27.1866C49.6649 27.8963 49.8141 28.6027 49.9249 29.2872C49.9611 29.5099 49.9699 29.7216 49.9984 29.942C45.2554 29.9069 40.5113 29.8707 35.7672 29.8356ZM37.554 21.3983C36.1138 23.0765 34.2897 24.463 33.2015 26.3804C32.8769 26.2203 32.5269 26.0963 32.1672 26.0272C32.38 21.3544 32.5939 16.6816 32.8067 12.0077C33.8948 12.0998 34.9741 12.2688 36.025 12.5331C38.4612 13.1474 40.655 14.2191 42.5417 15.6659C40.6067 17.3354 39.218 19.459 37.554 21.3983ZM32.2472 28.3965C32.8308 28.651 33.2904 29.1929 33.5602 29.9892C33.8487 30.8426 33.886 31.8188 33.7281 32.7019C33.6063 33.3841 33.3134 33.8306 32.6268 33.9907C31.8907 34.1607 31.0889 34.1717 30.3869 33.8657C29.1726 33.3359 28.8611 31.9911 28.8633 30.7801C28.8644 30.2733 28.9642 29.7567 29.2318 29.3256C29.8055 28.4009 31.2512 27.9621 32.2472 28.3965ZM29.9591 26.3047C29.6695 26.3881 29.3876 26.4934 29.1167 26.6217C25.9795 22.7508 22.7031 18.9972 19.2983 15.3587C22.5726 13.1934 26.5927 12.0066 30.6139 11.9353C30.3968 16.7266 30.1785 21.5156 29.9591 26.3047ZM27.4329 28.0148C27.2838 28.232 27.1499 28.4601 27.0512 28.7146C26.9624 28.9428 26.902 29.183 26.8527 29.4276C21.774 29.6722 16.691 29.7918 11.6068 29.7983C11.6145 29.0941 11.6419 28.3965 11.7132 27.7131C11.79 26.987 11.903 26.274 12.0489 25.5994C12.7498 22.4283 14.2602 19.709 16.5363 17.5185C16.8445 17.2224 17.1758 16.9372 17.5169 16.6564C20.9579 20.3222 24.264 24.112 27.4329 28.0148ZM26.743 31.6258C26.7748 32.0942 26.834 32.5614 26.9262 33.0232C22.8139 35.7863 18.4877 38.2116 13.9794 40.2661C13.975 40.2683 13.9728 40.2727 13.9696 40.2749C13.0109 38.4946 12.3253 36.4478 11.9458 34.1761C11.8229 33.4412 11.7439 32.7139 11.6858 31.9911C16.7074 31.9834 21.7268 31.8649 26.743 31.6258ZM25.1623 36.7746C23.5422 40.0324 21.91 43.2837 20.2647 46.5294C19.4036 46.038 18.5798 45.495 17.8131 44.8983C16.8094 44.1173 15.9286 43.1806 15.1542 42.1286C18.5996 40.5535 21.9418 38.7655 25.1623 36.7746ZM20.3733 61.5701C21.4658 59.1021 22.5857 56.645 23.6991 54.1869C24.4768 54.4282 25.2622 54.6487 26.0596 54.8264C26.6124 54.9503 27.1653 55.0512 27.717 55.1401C27.4187 55.5843 27.2289 56.0977 27.162 56.6319C26.9602 58.2443 28.0944 59.7394 29.5456 60.3032C30.8794 60.822 32.6235 60.4162 33.5657 59.3302C34.4838 58.2717 34.7668 56.6571 34.1515 55.3803C35.1069 55.3002 36.0502 55.1719 36.9782 54.9898C37.7328 57.1364 38.4645 59.2918 39.1555 61.4615C32.8955 61.4648 26.6333 61.6052 20.3733 61.5701ZM41.4108 61.4593C41.4031 61.3804 41.4129 61.3091 41.3866 61.2246C40.6692 58.9595 39.9113 56.7076 39.1237 54.4666C39.8345 54.2615 40.5365 54.0344 41.2221 53.7689C41.2056 53.8523 41.1804 53.9324 41.1705 54.0168C40.9841 55.5075 41.9427 56.8874 43.2338 57.5346C43.7 58.8575 44.1596 60.1825 44.6115 61.5109C43.5442 61.4922 42.4769 61.4659 41.4108 61.4593ZM46.2887 54.0618C46.2909 54.0739 46.2898 54.0662 46.2909 54.075C46.292 54.0838 46.2931 54.0925 46.2931 54.1024C46.3007 54.2143 46.3007 54.3262 46.2942 54.4381L46.2931 54.4622C46.2876 54.4962 46.2832 54.5313 46.2799 54.5456C46.2569 54.6563 46.2196 54.7605 46.1889 54.8691C46.1889 54.8702 46.1889 54.8702 46.1878 54.8724C46.1603 54.9262 46.134 54.9799 46.1033 55.0326C46.0759 55.0808 46.0441 55.1269 46.0134 55.173C45.9442 55.2421 45.8773 55.3101 45.8071 55.377C45.8159 55.3748 45.8225 55.3682 45.8313 55.3682C45.8236 55.3682 45.8082 55.3814 45.7951 55.388C45.7841 55.3978 45.7742 55.4088 45.7644 55.4187C45.715 55.4648 45.7095 55.4538 45.726 55.4319C45.7029 55.4494 45.6788 55.4691 45.6667 55.4757C45.6294 55.4988 45.591 55.5196 45.5527 55.5404C45.5296 55.5525 45.5077 55.5635 45.4846 55.5744C45.4046 55.5843 45.2686 55.649 45.2027 55.6655C45.1556 55.6776 45.1073 55.6874 45.059 55.6962C44.9691 55.6918 44.8638 55.7127 44.776 55.7116C44.7146 55.7116 44.6543 55.7061 44.594 55.7028C44.4865 55.6787 44.3812 55.6545 44.2759 55.6205C44.2857 55.6293 44.2945 55.6326 44.3055 55.6436C44.2912 55.6304 44.266 55.6194 44.243 55.6084C44.2495 55.6106 44.2506 55.6128 44.2583 55.6161C44.2638 55.6183 44.2693 55.6183 44.2759 55.6205C44.2046 55.5624 44.164 55.5613 44.1903 55.5832C44.1673 55.5733 44.142 55.5646 44.1245 55.5547C44.085 55.5328 44.0049 55.4713 43.9336 55.4242C43.9567 55.4516 43.9567 55.4691 43.9007 55.4154C43.8941 55.4088 43.8865 55.4011 43.8788 55.3946C43.8667 55.3891 43.8459 55.3715 43.8371 55.3715C43.8459 55.3704 43.8546 55.377 43.8634 55.3792C43.8097 55.3287 43.7548 55.2794 43.7044 55.2245C43.677 55.1949 43.6517 55.1642 43.6254 55.1346C43.6221 55.1291 43.6254 55.1335 43.6221 55.1269C43.564 55.0293 43.5014 54.9361 43.4499 54.834C43.4466 54.8264 43.4422 54.8187 43.4389 54.811C43.428 54.7803 43.4159 54.7485 43.4071 54.72C43.3863 54.6552 43.3687 54.5905 43.3545 54.5247C43.3534 54.517 43.3523 54.5094 43.3501 54.5017C43.349 54.4501 43.338 54.3843 43.338 54.3503C43.338 54.2922 43.3413 54.2351 43.3435 54.177C43.3435 54.1759 43.3435 54.1759 43.3446 54.1737C43.3632 54.1101 43.3764 54.0454 43.3972 53.9817C43.3972 53.9796 43.3983 53.9763 43.3994 53.9741C43.428 53.9379 43.4598 53.8545 43.4784 53.8216C43.4916 53.7986 43.5464 53.7306 43.5695 53.6878C43.5749 53.6823 43.5793 53.6768 43.5848 53.6713C43.6298 53.622 43.6769 53.5748 43.7252 53.5298C43.7373 53.5189 43.7504 53.5079 43.7636 53.4969C43.8009 53.4728 43.8371 53.4476 43.8755 53.4245C43.9205 53.3982 44.1563 53.3137 43.9797 53.3609C43.7954 53.4103 44.0016 53.3554 44.0312 53.3455C44.0938 53.3258 44.1563 53.3126 44.2177 53.2973C44.2956 53.2962 44.3735 53.294 44.4514 53.2984C44.7212 53.3148 44.9801 53.192 45.183 53.0055C45.285 53.0307 45.387 53.0516 45.4879 53.0845C45.4923 53.0856 45.4945 53.0878 45.4989 53.09C45.4857 53.0801 45.4792 53.0779 45.4616 53.0647C45.4901 53.0867 45.5461 53.1042 45.5757 53.1185C45.6689 53.1657 45.7545 53.2227 45.8444 53.2764C45.885 53.3137 45.9267 53.3499 45.9662 53.3894C45.9761 53.3993 45.9892 53.4168 46.0002 53.4322C46.009 53.4333 46.0254 53.4443 46.0572 53.4903C46.0572 53.4914 46.0594 53.4958 46.0605 53.4969C46.0715 53.5079 46.0836 53.5243 46.0934 53.5298C46.0846 53.5276 46.0803 53.521 46.0693 53.5145C46.111 53.5858 46.1581 53.7064 46.2097 53.7744C46.2262 53.8271 46.2437 53.8786 46.258 53.9324C46.27 53.9752 46.2766 54.019 46.2887 54.0618ZM51.4485 41.6756C50.8189 42.2043 50.4657 42.9743 50.3659 43.7762C50.3637 43.7915 50.3659 43.8069 50.3648 43.8222C48.4781 46.6566 45.9355 48.925 42.9804 50.5298C42.7753 50.0022 42.5658 49.4779 42.3563 48.9525C46.0452 46.8826 49.0342 43.7509 50.7794 39.8295C51.6756 37.8145 52.1999 35.647 52.3348 33.3852C52.3787 32.6525 52.3809 31.9044 52.3392 31.1629C52.2986 30.4356 52.2141 29.6854 52.0902 28.9329C51.9706 28.2002 51.8127 27.4433 51.6196 26.6853C51.4255 25.5917 51.1359 24.519 50.7575 23.4934C50.3856 22.4864 49.9304 21.5178 49.3951 20.5877C46.8141 15.4596 42.2565 11.8432 36.5592 10.4073C35.1782 10.0596 33.7544 9.85667 32.3185 9.7777C32.0279 9.63949 31.679 9.62303 31.3686 9.7426C26.4885 9.6713 21.5349 11.094 17.6387 13.8209C16.6855 14.4702 15.8025 15.1832 15.0149 15.9401C12.4218 18.4366 10.7019 21.5277 9.90553 25.1343C9.74319 25.8912 9.61705 26.6821 9.53259 27.4861C9.4218 28.5391 9.3878 29.6174 9.41632 30.7099C9.38889 30.8799 9.39218 31.0521 9.43496 31.2188C9.48432 32.3135 9.59621 33.4225 9.78268 34.5403C10.6492 39.722 12.9593 43.9034 16.465 46.6303C17.3425 47.3137 18.2826 47.9345 19.2698 48.4918C19.0789 48.868 18.8881 49.2453 18.6972 49.6216C16.7195 48.4819 14.9019 47.1228 13.3432 45.5608C10.0657 42.2756 8.21301 37.5831 7.98596 31.9889C7.87736 29.3146 8.10771 26.7358 8.67262 24.3215C8.86896 23.4835 9.10809 22.6575 9.38341 21.871C10.6876 18.2173 12.8825 15.2205 15.9078 12.9631C16.8325 12.2731 17.857 11.638 18.9659 11.072C22.4596 9.22815 26.5148 8.29249 30.5745 8.29249C33.6951 8.29249 36.8169 8.84533 39.6875 9.96527C45.4989 12.2337 49.8185 16.6377 51.8719 22.425C52.3359 23.5328 52.6869 24.61 52.9458 25.719C53.209 26.8576 53.3725 28.0323 53.4273 29.2126L53.435 29.2982C53.5436 30.1505 53.6138 31.006 53.6445 31.843C53.6752 32.6602 53.6653 33.4664 53.6127 34.2408C53.5567 35.0196 53.4569 35.8039 53.3143 36.5706C52.9907 38.3004 52.4511 39.9469 51.7107 41.488C51.6229 41.5506 51.5308 41.6054 51.4485 41.6756ZM54.6602 42.8274C54.6888 42.8493 54.7447 42.8657 54.7743 42.8811C54.8675 42.9283 54.9531 42.9853 55.043 43.0391C55.0836 43.0763 55.1253 43.1125 55.1648 43.152C55.1747 43.1619 55.1878 43.1795 55.1988 43.1948C55.2076 43.1948 55.224 43.2069 55.2558 43.2529C55.2558 43.254 55.258 43.2584 55.2591 43.2595C55.2701 43.2705 55.2822 43.287 55.292 43.2924C55.28 43.2859 55.2756 43.2793 55.2657 43.2727C55.3074 43.344 55.3546 43.4646 55.4061 43.5327C55.4226 43.5853 55.4401 43.6369 55.4544 43.6906C55.4654 43.7334 55.473 43.7784 55.484 43.8211C55.4862 43.8332 55.4851 43.8255 55.4862 43.8343C55.4873 43.8431 55.4884 43.8519 55.4884 43.8617C55.4961 43.9736 55.4961 44.0855 55.4895 44.1974L55.4884 44.2215C55.4829 44.2555 55.4785 44.2906 55.4752 44.3049C55.4522 44.4157 55.4149 44.5199 55.3842 44.6274C55.3842 44.6285 55.3842 44.6285 55.3831 44.6307C55.3557 44.6844 55.3293 44.7393 55.2986 44.7908C55.2712 44.8391 55.2394 44.8851 55.2087 44.9312C55.1396 45.0003 55.0727 45.0683 55.0025 45.1352C55.0112 45.133 55.0178 45.1265 55.0266 45.1265C55.0189 45.1265 55.0036 45.1396 54.9904 45.1462C54.9794 45.1561 54.9696 45.167 54.9597 45.1769C54.9103 45.223 54.9048 45.212 54.9213 45.189C54.8983 45.2065 54.8741 45.2263 54.8621 45.2329C54.8248 45.2559 54.7864 45.2767 54.748 45.2976C54.7249 45.3096 54.703 45.3206 54.68 45.3316C54.5999 45.3404 54.4639 45.4062 54.3981 45.4226C54.3509 45.4347 54.3026 45.4446 54.2544 45.4533C54.1644 45.4489 54.0591 45.4698 53.9714 45.4687C53.9099 45.4687 53.8496 45.4632 53.7893 45.4599C53.6818 45.4358 53.5765 45.4116 53.4712 45.3787C53.4811 45.3875 53.4898 45.3908 53.5008 45.4018C53.4865 45.3886 53.4613 45.3776 53.4383 45.3667C53.4449 45.3689 53.446 45.3711 53.4536 45.3744C53.4591 45.3766 53.4646 45.3765 53.4712 45.3787C53.3999 45.3206 53.3593 45.3195 53.3856 45.3414C53.3626 45.3316 53.3374 45.3228 53.3198 45.3129C53.2803 45.291 53.2003 45.2285 53.129 45.1824C53.152 45.2098 53.152 45.2274 53.096 45.1736C53.0895 45.167 53.0818 45.1594 53.0741 45.1528C53.062 45.1473 53.0412 45.1297 53.0324 45.1297C53.0412 45.1287 53.05 45.1352 53.0588 45.1374C53.005 45.087 52.9502 45.0376 52.8997 44.9828C52.8723 44.9531 52.847 44.9224 52.8207 44.8928C52.8174 44.8873 52.8207 44.8917 52.8174 44.8851C52.7593 44.7875 52.6968 44.6943 52.6452 44.5923C52.6419 44.5846 52.6375 44.5769 52.6343 44.5692C52.6233 44.5385 52.6112 44.5067 52.6024 44.4782C52.597 44.4617 52.5937 44.4442 52.5882 44.4266C52.6299 44.3597 52.6759 44.2972 52.7165 44.2303C52.9447 43.8541 53.1432 43.4614 53.3461 43.072C53.3681 43.0665 53.39 43.061 53.412 43.0555C53.4898 43.0544 53.5677 43.0522 53.6456 43.0566C53.9154 43.0731 54.1743 42.9502 54.3772 42.7637C54.4792 42.789 54.5813 42.8098 54.6822 42.8427C54.6866 42.8438 54.6887 42.846 54.6931 42.8482C54.6844 42.8427 54.6789 42.8405 54.6602 42.8274Z" fill="#1E1E1E"/>
<path d="M33.0041 31.2374C32.991 31.1113 32.9811 30.9796 32.9493 30.8557C32.9197 30.7372 32.8549 30.61 32.81 30.508C32.7957 30.4762 32.7793 30.4454 32.7606 30.4169C32.7003 30.3292 32.6312 30.2436 32.5643 30.1614C32.5544 30.1482 32.5434 30.1361 32.5314 30.1252C32.4458 30.0385 32.3438 29.9672 32.244 29.8992C32.1793 29.8553 32.1036 29.829 32.0334 29.7994C31.9632 29.7698 31.8908 29.7325 31.8151 29.7149C31.7975 29.7105 31.7811 29.7083 31.7635 29.705C31.6571 29.6886 31.5474 29.6699 31.4399 29.6623C31.407 29.6601 31.3752 29.6623 31.3423 29.6655C31.2546 29.6743 31.0824 29.6864 30.9694 29.7226C30.9551 29.727 30.9419 29.7325 30.9277 29.7379C30.8301 29.7774 30.7237 29.8136 30.6315 29.8652C30.6162 29.874 30.6019 29.8827 30.5876 29.8926C30.5065 29.9496 30.4143 30.0166 30.3408 30.0846C30.3288 30.0955 30.3178 30.1065 30.3068 30.1186C30.2355 30.1997 30.1653 30.2908 30.105 30.3796C30.0557 30.4509 30.0271 30.5321 29.9942 30.6122C29.9602 30.6912 29.924 30.769 29.9021 30.8524C29.8692 30.9796 29.8571 31.1233 29.8429 31.2473C29.8385 31.2879 29.8352 31.3274 29.8363 31.369C29.8363 31.3932 29.8385 31.4173 29.8418 31.4414C29.8549 31.5544 29.8659 31.6696 29.8889 31.7804C29.8933 31.8034 29.8999 31.8264 29.9076 31.8495C29.9427 31.9537 29.9887 32.0568 30.0348 32.1555C30.0732 32.2367 30.1259 32.2981 30.1818 32.3705C30.2344 32.4385 30.2794 32.5054 30.3452 32.5603C30.4264 32.6283 30.512 32.6974 30.6008 32.7555C30.6162 32.7654 30.6326 32.7753 30.648 32.7829C30.7456 32.8323 30.852 32.874 30.954 32.9124C30.9716 32.919 30.988 32.9244 31.0056 32.9288C31.1142 32.9552 31.2337 32.965 31.3445 32.976C31.3621 32.9782 31.3796 32.9793 31.3983 32.9782C31.407 32.9782 31.4158 32.9771 31.4246 32.976C31.5211 32.9672 31.6341 32.9519 31.7295 32.9354C31.7526 32.931 31.7734 32.9266 31.7953 32.919C31.8798 32.8992 31.9434 32.8455 32.0147 32.8038C32.086 32.7753 32.1782 32.7358 32.2308 32.7116C32.2385 32.7073 32.2473 32.704 32.2549 32.6996C32.2604 32.6963 32.267 32.6919 32.2725 32.6886C32.3471 32.6403 32.437 32.5658 32.5061 32.5087C32.5204 32.4967 32.5347 32.4846 32.5489 32.4703C32.7474 32.2586 32.8253 32.0941 32.9273 31.8264C32.9405 31.7935 32.9504 31.7595 32.957 31.7244C32.9789 31.6169 32.9888 31.5062 33.003 31.3976C33.0052 31.3789 33.0074 31.3603 33.0085 31.3416C33.0085 31.3076 33.0074 31.2725 33.0041 31.2374Z" fill="#1E1E1E"/>
<path d="M58.665 31.7497C58.6694 31.7464 58.6727 31.7421 58.6771 31.7388C58.642 31.7497 58.6101 31.7739 58.5959 31.7936C58.6222 31.7728 58.642 31.7629 58.665 31.7497Z" fill="#1E1E1E"/>
<path d="M58.9393 29.8773C58.9382 29.874 58.9349 29.8675 58.9338 29.8642C58.9118 29.8422 58.8932 29.8236 58.8734 29.7984C58.8592 29.7973 58.8778 29.8357 58.9393 29.8773Z" fill="#1E1E1E"/>
<path d="M56.7521 31.7586C56.7685 31.7652 56.7861 31.774 56.8058 31.7883C56.7904 31.7696 56.7652 31.7521 56.7367 31.7444C56.7422 31.7488 56.7466 31.7532 56.7521 31.7586Z" fill="#1E1E1E"/>
<path d="M54.9915 45.1462C54.9959 45.1429 54.9991 45.1385 55.0035 45.1353C54.9684 45.1462 54.9366 45.1704 54.9224 45.1901C54.9487 45.1693 54.9684 45.1594 54.9915 45.1462Z" fill="#1E1E1E"/>
<path d="M55.2657 43.2728C55.2646 43.2695 55.2613 43.2629 55.2602 43.2597C55.2383 43.2377 55.2197 43.2191 55.1999 43.1938C55.1846 43.1938 55.2043 43.2322 55.2657 43.2728Z" fill="#1E1E1E"/>
<path d="M53.0785 45.1539C53.095 45.1605 53.1125 45.1693 53.1323 45.1835C53.1169 45.1649 53.0917 45.1473 53.0632 45.1396C53.0687 45.144 53.073 45.1495 53.0785 45.1539Z" fill="#1E1E1E"/>
<path d="M45.7962 55.3879C45.8006 55.3846 45.8039 55.3802 45.8083 55.377C45.7732 55.3879 45.7414 55.4121 45.7271 55.4318C45.7534 55.411 45.7732 55.4011 45.7962 55.3879Z" fill="#1E1E1E"/>
<path d="M46.0693 53.5145C46.0682 53.5112 46.0649 53.5047 46.0638 53.5014C46.0418 53.4794 46.0232 53.4608 46.0034 53.4355C45.9892 53.4355 46.0078 53.4728 46.0693 53.5145Z" fill="#1E1E1E"/>
<path d="M43.8821 55.3956C43.8985 55.4022 43.9161 55.411 43.9358 55.4252C43.9204 55.4066 43.8952 55.3901 43.8667 55.3813C43.8722 55.3857 43.8777 55.3912 43.8821 55.3956Z" fill="#1E1E1E"/>
<path d="M31.7877 58.0019C31.7921 57.9986 31.7953 57.9943 31.7997 57.991C31.7646 58.0019 31.7328 58.0261 31.7186 58.0458C31.7449 58.025 31.7646 58.0151 31.7877 58.0019Z" fill="#1E1E1E"/>
<path d="M32.0607 56.1295C32.0596 56.1262 32.0563 56.1197 32.0552 56.1164C32.0333 56.0944 32.0146 56.0758 31.9949 56.0506C31.9806 56.0495 31.9993 56.0879 32.0607 56.1295Z" fill="#1E1E1E"/>
<path d="M29.8735 58.0106C29.89 58.0172 29.9075 58.026 29.9273 58.0402C29.9119 58.0216 29.8867 58.004 29.8582 57.9963C29.8636 58.0007 29.8691 58.0051 29.8735 58.0106Z" fill="#1E1E1E"/>
<path d="M55.7363 18.5517C55.7407 18.5485 55.744 18.5441 55.7484 18.5408C55.7133 18.5517 55.6815 18.5759 55.6672 18.5956C55.6936 18.5748 55.7133 18.5649 55.7363 18.5517Z" fill="#1E1E1E"/>
<path d="M56.0094 16.6783C56.0083 16.675 56.005 16.6685 56.0039 16.6652C55.982 16.6432 55.9633 16.6246 55.9436 16.5994C55.9293 16.5994 55.948 16.6378 56.0094 16.6783Z" fill="#1E1E1E"/>
<path d="M53.8222 18.5597C53.8386 18.5662 53.8562 18.575 53.8759 18.5893C53.8606 18.5706 53.8353 18.5531 53.8068 18.5454C53.8123 18.5498 53.8178 18.5553 53.8222 18.5597Z" fill="#1E1E1E"/>
<path d="M45.5867 8.20701C45.5911 8.20372 45.5944 8.19934 45.5987 8.19604C45.5636 8.20701 45.5307 8.23115 45.5176 8.25089C45.5439 8.23005 45.5636 8.22018 45.5867 8.20701Z" fill="#1E1E1E"/>
<path d="M45.8597 6.33337C45.8586 6.33008 45.8553 6.3235 45.8542 6.32021C45.8323 6.29827 45.8137 6.27962 45.7939 6.25439C45.7797 6.25439 45.7994 6.29279 45.8597 6.33337Z" fill="#1E1E1E"/>
<path d="M43.6726 8.2147C43.6901 8.22128 43.7066 8.23006 43.7274 8.24432C43.7121 8.22567 43.6868 8.20812 43.6583 8.20044C43.6638 8.20483 43.6682 8.21031 43.6726 8.2147Z" fill="#1E1E1E"/>
<path d="M31.7877 4.56419C31.7921 4.5609 31.7953 4.55651 31.7997 4.55322C31.7646 4.56419 31.7328 4.58832 31.7186 4.60807C31.7449 4.58723 31.7646 4.57735 31.7877 4.56419Z" fill="#1E1E1E"/>
<path d="M32.0607 2.69179C32.0596 2.6885 32.0563 2.68192 32.0552 2.67863C32.0333 2.65669 32.0146 2.63804 31.9949 2.61282C31.9806 2.61172 31.9993 2.65011 32.0607 2.69179Z" fill="#1E1E1E"/>
<path d="M29.8735 4.57285C29.89 4.57943 29.9075 4.58821 29.9273 4.60247C29.9119 4.58382 29.8867 4.56627 29.8582 4.55859C29.8636 4.56298 29.8691 4.56737 29.8735 4.57285Z" fill="#1E1E1E"/>
<path d="M18.0939 8.20701C18.0983 8.20372 18.1016 8.19934 18.106 8.19604C18.0709 8.20701 18.0391 8.23115 18.0248 8.25089C18.0512 8.23005 18.0709 8.22018 18.0939 8.20701Z" fill="#1E1E1E"/>
<path d="M18.3681 6.33337C18.367 6.33008 18.3637 6.3235 18.3626 6.32021C18.3407 6.29827 18.322 6.27962 18.3023 6.25439C18.288 6.25439 18.3067 6.29279 18.3681 6.33337Z" fill="#1E1E1E"/>
<path d="M16.1809 8.2147C16.1973 8.22128 16.2149 8.23006 16.2346 8.24432C16.2193 8.22567 16.194 8.20812 16.1655 8.20044C16.171 8.20483 16.1754 8.21031 16.1809 8.2147Z" fill="#1E1E1E"/>
<path d="M8.32264 17.6997C8.32703 17.6964 8.33032 17.692 8.33471 17.6887C8.29961 17.6997 8.2667 17.7238 8.25354 17.7436C8.27987 17.7227 8.29851 17.7129 8.32264 17.6997Z" fill="#1E1E1E"/>
<path d="M8.59587 15.826C8.59477 15.8228 8.59148 15.8162 8.59038 15.8129C8.56844 15.7909 8.5498 15.7723 8.53005 15.7471C8.51579 15.7471 8.53444 15.7855 8.59587 15.826Z" fill="#1E1E1E"/>
<path d="M6.40861 17.7071C6.42616 17.7137 6.44261 17.7225 6.46345 17.7367C6.4481 17.7181 6.42287 17.7005 6.39435 17.6929C6.39874 17.6973 6.40422 17.7027 6.40861 17.7071Z" fill="#1E1E1E"/>
<path d="M4.64808 31.344C4.65247 31.3407 4.65686 31.3363 4.66015 31.333C4.62505 31.344 4.59324 31.3681 4.57898 31.3879C4.60531 31.367 4.62615 31.3571 4.64808 31.344Z" fill="#1E1E1E"/>
<path d="M4.92234 29.4703C4.92015 29.467 4.91796 29.4605 4.91576 29.4572C4.89382 29.4352 4.87627 29.4166 4.85543 29.3914C4.84227 29.3914 4.86092 29.4297 4.92234 29.4703Z" fill="#1E1E1E"/>
<path d="M2.73514 31.3526C2.7516 31.3592 2.76805 31.368 2.78889 31.3823C2.77354 31.3636 2.74831 31.3461 2.71979 31.3384C2.72527 31.3428 2.72966 31.3472 2.73514 31.3526Z" fill="#1E1E1E"/>
<path d="M8.32264 45.9985C8.32703 45.9952 8.33032 45.9908 8.33471 45.9875C8.29961 45.9985 8.2667 46.0227 8.25354 46.0424C8.27987 46.0216 8.29851 46.0117 8.32264 45.9985Z" fill="#1E1E1E"/>
<path d="M8.59587 44.1249C8.59477 44.1216 8.59148 44.115 8.59038 44.1117C8.56844 44.0898 8.5498 44.0711 8.53005 44.0459C8.51579 44.0459 8.53444 44.0843 8.59587 44.1249Z" fill="#1E1E1E"/>
<path d="M6.40861 46.0062C6.42616 46.0128 6.44261 46.0216 6.46345 46.0358C6.4481 46.0172 6.42287 46.0007 6.39435 45.9919C6.39874 45.9963 6.40422 46.0018 6.40861 46.0062Z" fill="#1E1E1E"/>
<path d="M17.3503 54.166C17.3547 54.1627 17.358 54.1583 17.3624 54.155C17.3273 54.166 17.2954 54.1901 17.2812 54.2099C17.3075 54.189 17.3273 54.1792 17.3503 54.166Z" fill="#1E1E1E"/>
<path d="M17.6233 52.2926C17.6222 52.2893 17.6189 52.2827 17.6178 52.2795C17.5959 52.2575 17.5773 52.2389 17.5575 52.2136C17.5433 52.2125 17.5619 52.2509 17.6233 52.2926Z" fill="#1E1E1E"/>
<path d="M15.4361 54.1737C15.4526 54.1803 15.4701 54.189 15.4899 54.2033C15.4745 54.1847 15.4493 54.1682 15.4208 54.1594C15.4263 54.1638 15.4317 54.1682 15.4361 54.1737Z" fill="#1E1E1E"/>
</svg>
