<svg width="35" height="64" viewBox="0 0 35 64" fill="none" xmlns="http://www.w3.org/2000/svg">
<path d="M34.1969 28.8802C34.925 26.8032 34.6936 24.0925 34.6819 22.0112C34.6607 18.1607 34.6395 14.3102 34.6193 10.4597C34.6087 8.59914 34.7244 6.676 34.5779 4.82078C34.4113 2.69705 33.1579 1.39479 31.17 0.955398C27.537 0.150906 23.7809 -0.0656069 20.0748 0.016116C16.4938 0.0957162 12.7431 0.220954 9.20669 0.835467C5.04625 1.5593 4.69388 6.02965 4.55166 9.5968C4.246 17.2628 4.21734 24.9511 4.05602 32.6214C4.01038 34.7961 3.96793 36.9633 4.15578 39.1327C4.32772 41.128 4.58669 43.1032 4.5177 45.1123C4.47631 46.2904 4.34364 47.513 4.31817 48.7272C3.92123 49.2154 3.66439 49.7949 3.66757 50.4412C3.67394 51.5758 3.8066 52.7305 4.0539 53.8365C4.11864 54.1283 4.24918 54.4106 4.38079 54.6728C4.44977 54.8097 4.5506 54.9158 4.64612 55.04C4.76181 55.1907 4.80745 55.265 4.91889 55.369C5.28823 55.715 5.74673 56.0005 6.24556 56.1141C6.37716 56.1343 6.50983 56.1523 6.64144 56.1682C6.77304 56.1916 6.90571 56.2085 7.03838 56.2192C7.08295 56.2202 7.12753 56.2202 7.17316 56.2181C7.49475 56.199 7.81527 56.1587 8.13579 56.1226C15.1417 56.0355 22.1486 56.0759 29.1524 56.2595C31.1063 56.3104 32.9806 56.2223 33.7639 54.0434C34.2075 52.8091 34.3168 51.4209 34.1746 50.1186C34.0133 48.6391 33.5845 47.1883 32.8172 45.9178C32.4181 45.2566 31.932 44.606 31.3886 44.0626C31.1785 43.8525 30.9333 43.671 30.6892 43.4927C30.7624 43.2093 30.825 42.9196 30.8855 42.6372C31.0331 41.9537 31.1509 41.2639 31.2474 40.5708C31.4523 39.1019 31.5849 37.6267 31.5765 36.1419C31.569 34.7982 31.4969 33.4694 31.2273 32.2064C31.81 31.9899 32.3873 31.7448 32.9604 31.4327C34.0504 30.8405 34.372 29.8312 34.1969 28.8802Z" fill="#F7C300"/>
<path d="M24.0559 61.1577C24.0654 61.1608 24.0813 61.1704 24.1004 61.1821C24.0845 61.1661 24.0665 61.1545 24.0495 61.1523C24.0516 61.1534 24.0537 61.1555 24.0559 61.1577Z" fill="#1E1E1E"/>
<path d="M32.2801 9.40581C32.0159 7.69494 31.6858 5.54255 30.3305 4.3252C29.1099 3.2299 27.3916 3.10572 25.8304 3.07176C23.4976 3.02082 21.1616 3.04311 18.8277 3.0707C14.126 3.12801 9.42745 3.30632 4.73316 3.59075C4.54318 3.51646 4.31606 3.51115 4.05603 3.62047C0.994076 4.91 0.312699 8.32007 0.118475 11.33C-0.140491 15.3344 0.0675325 19.3792 0.336051 23.3772C0.878393 31.4498 1.86119 39.5106 1.40269 47.6139C1.39208 47.8007 1.42922 47.9567 1.49078 48.0926C1.2817 48.6752 1.11614 49.2961 1.03866 49.9924C1.03547 50.0253 1.0482 50.0475 1.04714 50.0794C0.799852 51.3562 0.674615 52.6489 0.766951 53.9501C0.833815 54.918 0.876267 56.1301 1.62451 56.8475C2.39079 57.582 3.5657 57.4557 4.57927 57.3888C4.62067 58.2634 4.71619 59.1368 4.886 59.9955C5.00912 60.6174 5.15133 61.2733 5.49096 61.7965C4.08151 61.8082 2.67205 61.8018 1.26366 61.8199C-0.100158 61.8379 -0.135182 63.9606 1.23394 63.9426C11.1097 63.8141 20.9875 63.8332 30.8633 63.9999C32.2292 64.0232 32.261 61.9005 30.893 61.8772C29.6491 61.856 28.4052 61.8528 27.1613 61.8379C27.3555 61.3847 27.4638 60.8849 27.5232 60.385C27.6548 59.295 27.6867 58.1859 27.7504 57.0885C28.4232 57.0927 29.0972 57.0853 29.7701 57.0916C30.3602 57.0969 30.6796 56.7011 30.7603 56.2521C30.8983 56.0536 31.0097 55.834 31.067 55.5739C31.1912 55.0093 31.1604 54.4203 31.1668 53.8461L31.2039 50.1855C31.3249 50.0284 31.4194 49.8417 31.4311 49.5944C31.5287 47.495 30.4249 45.937 28.8977 44.8099C29.9155 39.984 30.2954 35.0456 30.0025 30.122C30.2509 30.1252 30.4918 30.0117 30.6839 29.845C31.1965 29.8238 31.6858 29.4905 31.6699 28.8283C31.5627 24.4725 32.3056 20.1731 32.5338 15.8333C32.6431 13.6872 32.6092 11.5349 32.2801 9.40581ZM9.0666 58.9713C9.05917 59.0923 9.04643 59.2122 9.03476 59.3321C9.0337 59.3491 9.0337 59.3576 9.03264 59.3682C9.03051 59.3809 9.02839 59.3894 9.02414 59.4096C8.97957 59.6473 8.93605 59.884 8.8745 60.1186C8.81294 60.3521 8.74077 60.5834 8.65586 60.8095C8.65055 60.8244 8.61447 60.9156 8.59962 60.9538C8.589 60.9793 8.57626 61.0037 8.56459 61.0292C8.54867 61.0271 8.54867 61.026 8.51683 61.0207C8.41069 60.9984 8.3035 60.9804 8.19736 60.956C7.9713 60.9029 7.74736 60.8371 7.52872 60.7575C7.48415 60.7416 7.44063 60.7246 7.39712 60.7076C7.38757 60.7034 7.39181 60.7044 7.37802 60.6991C7.35254 60.6853 7.28143 60.6386 7.23261 60.6078C7.22518 60.594 7.21563 60.5813 7.2082 60.5664C7.20395 60.559 7.20608 60.5643 7.20183 60.559C7.19971 60.5495 7.2029 60.5537 7.19971 60.5389C7.1424 60.3128 7.07554 60.0899 7.02353 59.8628C6.96622 59.6081 6.91421 59.3512 6.86963 59.0933C6.85265 58.9967 6.83673 58.9002 6.82187 58.8025C6.81232 58.742 6.80383 58.6805 6.79534 58.62C6.79428 58.6093 6.79428 58.6125 6.79216 58.5987C6.74334 58.1731 6.71787 57.7465 6.69876 57.3188C7.47672 57.2954 8.25468 57.2731 9.0337 57.253C9.01247 57.34 9.00186 57.4291 9.0146 57.5247C9.07615 58.0044 9.09631 58.4884 9.0666 58.9713ZM10.5397 61.7679C10.6936 61.3996 10.8337 61.0271 10.9335 60.6386C11.1925 59.6272 11.2721 58.5595 11.1362 57.5247C11.1213 57.4122 11.1012 57.3092 11.0725 57.2094C14.4592 57.1352 17.8481 57.0927 21.2359 57.0778C21.2327 58.1965 21.1223 59.3098 21.3579 60.4168C21.4609 60.8955 21.6445 61.3603 21.895 61.7827C18.1102 61.7605 14.3245 61.7541 10.5397 61.7679ZM15.5768 54.9934C15.5768 54.9987 15.58 55.004 15.58 55.0093C14.8636 55.0178 14.1462 55.0199 13.4297 55.0326C12.8895 55.0422 12.3493 55.0613 11.8091 55.073C11.8208 54.9541 11.8261 54.8331 11.791 54.6973C11.3485 52.9397 10.9335 51.1609 10.8401 49.3439C10.8167 48.8928 10.8114 48.4407 10.8295 47.9896C10.839 47.7487 10.8549 47.5078 10.8772 47.2679C10.8783 47.2531 10.8985 47.1586 10.9112 47.0705C10.9674 47.0503 11.0226 47.0291 11.08 47.0089C11.2965 46.9347 11.5162 46.8667 11.7369 46.8073C12.1423 46.698 12.5563 46.6067 12.9744 46.5558C13.1326 46.5366 13.2822 46.4878 13.4191 46.4231C13.5709 46.4486 13.728 46.456 13.8882 46.4337C14.1228 46.3997 14.3595 46.3806 14.5962 46.3573C14.6121 46.3923 14.6121 46.4316 14.6322 46.4655C15.0196 47.1172 15.406 47.7699 15.7923 48.4216C15.5386 50.6016 15.4611 52.7985 15.5768 54.9934ZM22.0478 48.931C21.9778 49.6113 21.809 50.2842 21.6063 50.937C21.1743 52.3315 20.5311 53.6412 19.8869 54.9477C19.8848 54.952 19.8848 54.9573 19.8827 54.9615C19.1546 54.9658 18.4265 54.9785 17.6984 54.9849C17.5743 52.6298 17.6645 50.2694 17.967 47.9302C17.9765 47.8527 17.9701 47.7763 17.9563 47.7009C18.1368 47.2626 18.3183 46.8243 18.4998 46.3859C19.1939 46.4645 19.8827 46.5908 20.5619 46.7532C20.9939 46.8572 21.6954 46.9357 21.9417 47.3645C22.1943 47.8039 22.0977 48.4555 22.0478 48.931ZM25.4589 59.6569C25.4462 59.849 25.4345 60.04 25.4154 60.2311C25.4122 60.265 25.3878 60.421 25.3942 60.3966C25.3931 60.4009 25.3921 60.4072 25.3921 60.4104C25.3836 60.4614 25.373 60.5113 25.3624 60.5611C25.3432 60.6482 25.322 60.7341 25.2965 60.8201C25.2859 60.8573 25.2445 60.9432 25.2329 60.9974C25.218 61.0249 25.2042 61.0515 25.1894 61.0791C25.1713 61.1099 25.1522 61.1396 25.1342 61.1703C25.1235 61.181 25.1108 61.1958 25.0938 61.2149C25.0853 61.2224 25.0482 61.2616 25.0206 61.2786C24.9909 61.2966 24.9601 61.3126 24.9304 61.3306C24.9219 61.3317 24.9272 61.3285 24.9145 61.3317C24.8709 61.3412 24.8264 61.3529 24.7818 61.3646C24.7139 61.3646 24.6077 61.3571 24.5865 61.3593C24.5801 61.3593 24.5844 61.3603 24.5791 61.3603C24.5632 61.3561 24.5419 61.3508 24.5398 61.3508C24.473 61.3359 24.4072 61.3147 24.3414 61.2945C24.3074 61.2797 24.2533 61.2563 24.2373 61.2478C24.2193 61.2383 24.1599 61.1958 24.11 61.165C24.1408 61.1958 24.1567 61.2255 24.0877 61.1608C24.0803 61.1544 24.0728 61.147 24.0654 61.1406C24.0612 61.1396 24.0495 61.13 24.0474 61.1311C24.0505 61.13 24.0548 61.1343 24.059 61.1353C24.0389 61.1173 24.0187 61.0982 23.9985 61.0791C23.9582 61.0409 23.902 60.9899 23.8574 60.939C23.8553 60.9347 23.8563 60.9369 23.8531 60.9315C23.8181 60.8753 23.7778 60.8222 23.7428 60.7649C23.7014 60.697 23.6621 60.6269 23.626 60.5558C23.6111 60.5261 23.5984 60.4964 23.5825 60.4667C23.5252 60.2894 23.4636 60.1164 23.4212 59.9339C23.3978 59.8331 23.3819 59.7301 23.3617 59.6282C23.3554 59.573 23.349 59.5157 23.3448 59.4616C23.3235 59.2048 23.3182 58.9469 23.3193 58.69C23.3225 58.154 23.3543 57.6191 23.3564 57.0842C24.1121 57.0831 24.8667 57.0853 25.6224 57.0874C25.5693 57.9428 25.5141 58.7993 25.4589 59.6569ZM29.3052 49.5678C29.1747 49.7398 29.0823 49.9435 29.0792 50.1823C29.0685 51.2129 29.0579 52.2435 29.0473 53.274C29.042 53.7697 29.0431 54.2664 29.0325 54.762C29.0314 54.8278 29.024 54.8979 29.0229 54.9658C26.7633 54.9467 24.5027 54.9446 22.242 54.9499C22.8459 53.6932 23.4116 52.4122 23.781 51.0686C24.1853 49.5933 24.6056 47.5481 23.6992 46.1716C22.7398 44.7143 20.5354 44.5222 18.9604 44.3163C17.0754 44.0701 15.2032 44.1168 13.3247 44.3853C13.278 44.3917 13.244 44.4257 13.2005 44.4405C13.1273 44.4267 13.0519 44.4225 12.9744 44.432C11.8961 44.5636 10.7318 44.7568 9.75541 45.2652C8.63888 45.8468 8.70468 47.3528 8.69619 48.4407C8.68027 50.7024 9.16318 52.9408 9.71083 55.1239C8.31624 55.1579 6.92058 55.1834 5.52598 55.2269C5.01548 55.2428 3.87773 55.4975 3.41923 55.2969C3.18043 55.402 3.0552 55.351 3.04352 55.143C2.97347 54.8267 2.92783 54.5062 2.90554 54.1825C2.78561 52.8633 2.88644 51.5578 3.16451 50.2651C3.18786 50.1547 3.17406 50.0592 3.16769 49.9595C3.81723 44.397 11.3527 43.9756 15.5853 43.7093C18.4329 43.5299 21.0788 43.8377 23.7895 44.7387C26.083 45.5029 29.422 46.6099 29.3052 49.5678ZM26.9597 43.6838C26.7378 43.5808 26.5139 43.4832 26.2889 43.393C26.204 43.359 26.1201 43.3367 26.0352 43.3038C26.3812 42.5821 26.4396 41.7299 26.256 40.9593C26.0236 39.9861 25.3857 39.1911 24.5706 38.6361C24.3488 38.4854 24.1004 38.3569 23.8404 38.2434C23.8977 37.6756 23.5719 37.0621 22.8353 37.0621C22.2951 37.0621 21.9767 37.3964 21.8631 37.7976C20.822 37.7658 19.7882 38.0449 19.0665 38.7496C18.6303 39.1752 18.3809 39.7271 18.1697 40.2875C18.0137 40.7014 17.899 41.1387 17.8545 41.5813C17.7016 41.576 17.5541 41.5547 17.4002 41.5526C17.4045 41.5293 17.4151 41.5091 17.4183 41.4858C17.7038 39.3079 17.1816 37.1704 17.1402 34.9957C17.1115 33.4355 17.3609 31.609 18.6229 30.537C19.9729 29.3908 21.9926 29.4173 23.6621 29.3717C25.0779 29.3324 26.4895 29.3228 27.866 29.567C27.866 29.602 27.8501 29.6274 27.8533 29.6657C28.1738 34.3631 27.8777 39.068 26.9597 43.6838ZM22.1115 39.9489C22.1316 39.9511 22.1274 39.9511 22.1401 39.9521C22.173 39.9574 22.2059 39.9627 22.2378 39.9691C22.3439 39.9893 22.4479 40.0126 22.5519 40.0392C22.64 40.0625 22.7281 40.089 22.8151 40.1177C22.8725 40.1368 22.9287 40.157 22.985 40.1782C23.176 40.2726 23.3575 40.3745 23.5347 40.4934C23.5602 40.5104 23.557 40.5072 23.5708 40.5146C23.5804 40.5252 23.5772 40.5252 23.6037 40.5507C23.6918 40.6335 23.7757 40.7184 23.8606 40.8044C23.886 40.8309 23.886 40.8277 23.8977 40.8373C23.9041 40.849 23.8998 40.8458 23.9147 40.8681C23.9784 40.9657 24.0346 41.0655 24.0919 41.1663C24.1015 41.1833 24.1068 41.1918 24.1142 41.2024C24.1174 41.213 24.1185 41.2183 24.1227 41.2321C24.1588 41.3425 24.1938 41.4529 24.2193 41.5664C24.2257 41.5983 24.2331 41.6768 24.2373 41.7161C24.2416 41.801 24.2479 41.8848 24.2437 41.9697C24.2426 42.0079 24.2257 42.0907 24.2214 42.1215C24.2066 42.1862 24.1928 42.251 24.1726 42.3147C24.1577 42.3592 24.1577 42.3688 24.1546 42.3836C24.1482 42.3911 24.1471 42.3879 24.1312 42.4112C24.0898 42.4728 24.0495 42.5354 24.0102 42.597C22.6761 42.1937 21.3314 41.9113 19.9655 41.7415C19.9729 41.7023 19.9909 41.5855 19.9973 41.559C20.0514 41.3181 20.13 41.0835 20.217 40.8521C20.2308 40.8161 20.2457 40.78 20.2595 40.7439C20.2616 40.7396 20.2743 40.7142 20.2987 40.66C20.3444 40.5751 20.3921 40.4913 20.4388 40.4064C20.4632 40.3703 20.4696 40.3607 20.477 40.3491C20.5067 40.3151 20.5365 40.2822 20.5683 40.2504C20.5895 40.2249 20.5885 40.2206 20.5927 40.2111C20.6044 40.2068 20.6065 40.2079 20.632 40.193C20.6628 40.175 20.8453 40.0827 20.8527 40.0699C20.9122 40.0487 20.9727 40.0264 21.0332 40.0094C21.1297 39.9818 21.2295 39.9638 21.3293 39.9458C21.3632 39.9426 21.4322 39.9351 21.4747 39.933C21.6869 39.9224 21.8981 39.9362 22.1115 39.9489ZM30.3305 17.0326C30.0683 20.6156 29.5567 24.1785 29.5398 27.7733C27.4988 27.1535 25.3146 27.1917 23.1972 27.2617C21.134 27.3297 18.9423 27.5313 17.2877 28.8962C13.4658 32.0494 15.8305 37.3879 15.2956 41.4847C15.2903 41.5261 15.2956 41.5664 15.2977 41.6078C11.4408 41.8593 6.57777 42.4346 3.62513 44.9797C3.7578 38.6265 3.13267 32.2903 2.64658 25.9563C2.37594 22.4369 2.15412 18.9101 2.14457 15.379C2.14032 13.6352 2.12334 11.8554 2.34835 10.1233C2.54469 8.60981 2.99151 6.44044 4.53788 5.71449C4.55168 5.71449 4.56017 5.72086 4.57503 5.71979C8.71742 5.4672 12.8641 5.29632 17.0128 5.2199C19.0877 5.1817 21.1616 5.16578 23.2365 5.17215C24.8274 5.17745 27.4298 4.76671 28.7862 5.80895C30.115 6.83101 30.2594 9.79426 30.3814 11.3258C30.5332 13.2266 30.4695 15.1349 30.3305 17.0326Z" fill="#1E1E1E"/>
<path d="M6.26788 48.0948C5.98981 48.0163 5.73403 48.0216 5.4549 48.0757C5.18001 48.1288 4.9635 48.2816 4.7523 48.4557C4.68437 48.513 4.62918 48.5947 4.58248 48.6828C4.55595 48.7178 4.51244 48.7369 4.48909 48.7762C4.28425 49.0522 4.13248 49.3578 4.01997 49.6837C3.88412 50.0785 3.88094 50.4935 3.9563 50.8989C4.01892 51.2353 4.22694 51.575 4.46998 51.8116C4.71303 52.0494 5.03992 52.2478 5.3753 52.32C5.79241 52.4102 6.26152 52.3795 6.62768 52.1364C7.03311 51.8668 7.26766 51.4964 7.42156 51.0422C7.52663 50.7344 7.58288 50.4022 7.60517 50.0795C7.6317 49.6868 7.54148 49.2305 7.32816 48.8951C7.08192 48.5109 6.71046 48.219 6.26788 48.0948Z" fill="#1E1E1E"/>
<path d="M27.9414 48.4174C27.8278 48.3261 27.7132 48.2316 27.5879 48.1541C27.4871 48.0915 27.3788 48.048 27.2695 48.0013C27.1602 47.9557 27.0551 47.9079 26.9384 47.8856C26.7813 47.8559 26.6094 47.823 26.447 47.8347C26.2942 47.8453 26.1297 47.8559 25.9843 47.909C25.8452 47.9599 25.6966 48.0141 25.5735 48.1011C25.4568 48.186 25.3337 48.2709 25.2403 48.3834C25.0641 48.5914 24.9887 48.7283 24.889 48.9809C24.8348 49.12 24.8157 49.2824 24.8093 49.4288C24.8093 49.4416 24.8125 49.4543 24.8136 49.467C24.7977 49.5084 24.7828 49.5498 24.7733 49.5944C24.7319 49.7812 24.7 49.986 24.7149 50.1792C24.7308 50.3681 24.752 50.5655 24.8189 50.7449C24.9261 51.0282 25.0344 51.2214 25.2339 51.4517C25.2668 51.4899 25.3029 51.526 25.3421 51.5579C25.4493 51.647 25.5618 51.7425 25.685 51.8083C25.8516 51.8975 26.0384 51.9792 26.2273 52.011C26.4194 52.0439 26.6104 52.0737 26.8047 52.0535C26.9363 52.0397 27.0923 52.0238 27.2271 51.9877C27.3619 51.9516 27.4903 51.8901 27.6155 51.8349C27.7928 51.7574 27.9456 51.6353 28.0921 51.509C28.2407 51.3806 28.368 51.214 28.4603 51.041C28.6164 50.7459 28.6769 50.4955 28.7119 50.1686C28.7575 49.7504 28.6312 49.2558 28.3839 48.9141C28.2523 48.7305 28.1186 48.5585 27.9414 48.4174Z" fill="#1E1E1E"/>
<path d="M10.6109 27.0505C8.9393 27.0696 7.27088 27.1492 5.60458 27.2787C4.87438 27.336 4.54856 27.9771 4.60587 28.5427C4.25563 28.7242 3.97331 29.0766 4.02319 29.4735C4.37874 32.3126 4.73429 35.1517 5.08984 37.9908C5.17262 38.6488 5.25434 39.3079 5.33712 39.9659C5.42946 40.7078 5.52073 41.4178 6.28065 41.7585C6.86651 42.0207 7.54789 41.8275 8.15391 41.7489C8.89897 41.6524 9.64403 41.5558 10.388 41.4603C11.0503 41.3743 11.7126 41.2894 12.3748 41.2034C13.0711 41.1132 13.866 41.1366 14.3033 40.4966C14.6546 39.9839 14.5898 39.3631 14.5952 38.7677C14.6026 38.0162 14.609 37.2648 14.6164 36.5134C14.6302 35.0944 14.6429 33.6743 14.6567 32.2553C14.6631 31.5877 14.6695 30.9191 14.6758 30.2515C14.6822 29.5722 14.7862 28.8144 14.5516 28.166C14.0114 26.6769 11.8442 27.0356 10.6109 27.0505ZM12.5542 30.001C12.551 30.4181 12.5468 30.8363 12.5425 31.2534C12.534 32.2139 12.5245 33.1734 12.516 34.1339C12.5075 35.0519 12.499 35.971 12.4905 36.8891C12.4863 37.3487 12.482 37.8071 12.4778 38.2667C12.4757 38.5172 12.4735 38.7677 12.4714 39.0181C12.4714 39.051 12.4714 39.0839 12.4704 39.1168C12.1467 39.1508 11.7306 39.1635 11.5056 39.1922C10.9675 39.2612 10.4294 39.3312 9.89132 39.4013C9.39461 39.466 8.89791 39.5297 8.4012 39.5944C8.15285 39.6263 7.9045 39.6581 7.65615 39.691C7.56593 39.7027 7.47466 39.7144 7.38444 39.726C7.35897 39.4628 7.36109 39.1752 7.33562 38.9789C7.27937 38.5267 7.22206 38.0735 7.16581 37.6214C7.05224 36.7161 6.93974 35.8108 6.82618 34.9055C6.60011 33.0948 6.37299 31.2852 6.14586 29.4746C6.14162 29.4396 6.1257 29.4088 6.11933 29.3748C7.2401 29.2942 8.36088 29.2262 9.48377 29.1955C10.11 29.1785 10.7372 29.17 11.3634 29.1689C11.6977 29.1689 12.032 29.1689 12.3653 29.1742C12.4375 29.1742 12.5096 29.1774 12.5807 29.1795C12.5914 29.4534 12.5563 29.7431 12.5542 30.001Z" fill="#1E1E1E"/>
<path d="M7.03732 18.9175C8.59536 19.1744 10.1704 19.3251 11.7496 19.3421C13.1166 19.3569 14.8838 19.5119 15.874 18.371C16.8154 17.2863 16.86 15.6773 16.8472 14.3145C16.8324 12.7947 16.722 11.1666 16.3962 9.67861C16.2487 9.00997 15.9589 8.34663 15.4527 7.87115C14.8488 7.30228 14.0634 7.17704 13.2716 7.09956C11.444 6.92232 9.61318 6.77161 7.7845 6.6071C7.58284 6.58906 7.40029 6.66654 7.23685 6.77692C7.20501 6.77161 7.17742 6.75675 7.14558 6.75357C5.89957 6.61453 4.45297 6.72491 3.67607 7.85205C3.23349 8.4931 3.20165 9.25832 3.18892 10.0108C3.17406 10.8323 3.17087 11.6538 3.17724 12.4752C3.18255 13.2224 3.19741 13.9685 3.21864 14.7157C3.24199 15.5191 3.19953 16.3926 3.54128 17.1398C4.15898 18.4919 5.73188 18.7021 7.03732 18.9175ZM5.31477 9.78793C5.32645 9.37507 5.28505 9.01952 5.71596 8.88473C6.16066 8.7457 6.6892 8.8253 7.14452 8.87624C7.3536 8.89959 7.55207 8.83272 7.71976 8.71386C7.74205 8.71704 7.76221 8.72765 7.7845 8.72978C9.02838 8.84122 10.2723 8.95266 11.5162 9.0641C12.1296 9.11929 12.7484 9.15749 13.3597 9.22966C13.7386 9.27424 14.0114 9.32412 14.1822 9.68816C14.5855 10.5436 14.5569 11.7153 14.6354 12.6366C14.7362 13.7934 14.8551 15.0734 14.5962 16.2175C14.5399 16.4637 14.4624 16.831 14.2597 17.0061C13.9275 17.2926 13.2345 17.1992 12.8354 17.2099C11.6053 17.2428 10.3731 17.1971 9.14832 17.074C8.06682 16.9657 6.8155 16.8808 5.79343 16.4871C5.50581 16.3767 5.42515 16.2493 5.38801 15.9479C5.31159 15.3239 5.336 14.6711 5.32114 14.0428C5.29036 12.627 5.2755 11.2048 5.31477 9.78793Z" fill="#1E1E1E"/>
<path d="M28.9677 8.29453C28.2895 7.05595 26.9734 6.60595 25.6468 6.47965C24.0102 6.32363 22.329 6.40748 20.6861 6.38731C19.8933 6.37776 18.9964 6.25358 18.2599 6.61232C17.5774 6.94451 17.0871 7.71292 17.2304 8.4739C17.2367 9.98736 17.3227 11.4976 17.5116 13.0005C17.6889 14.4163 17.8205 15.986 18.3331 17.3276C18.5719 17.9538 18.9444 18.5216 19.5335 18.8676C20.2308 19.2772 21.0809 19.3218 21.8652 19.3993C23.4254 19.5542 25.0004 19.5744 26.5637 19.4598C27.2313 19.411 28.0029 19.4258 28.5877 19.0586C29.2765 18.6266 29.4792 17.8476 29.5079 17.0856C29.5652 15.535 29.5026 13.9695 29.4983 12.4178C29.4952 11.0625 29.6448 9.52993 28.9677 8.29453ZM27.3852 16.2917C27.3863 16.5783 27.4075 16.8765 27.3831 17.162C27.3842 17.1461 27.3799 17.2172 27.3735 17.2724C27.3555 17.2724 27.3491 17.2745 27.3088 17.2724C27.1379 17.2628 26.9469 17.3074 26.7771 17.3212C26.4576 17.3477 26.1371 17.3679 25.8166 17.3817C24.5706 17.439 23.3203 17.4114 22.0775 17.2978C21.653 17.2586 21.0522 17.2766 20.6606 17.0707C20.3634 16.9136 20.2881 16.5305 20.2117 16.2333C19.5897 13.806 19.3774 11.2408 19.3562 8.73499C19.3785 8.66388 19.3912 8.59277 19.3965 8.51954C19.6173 8.5535 19.9813 8.50255 20.1607 8.50468C20.7911 8.51211 21.4205 8.51954 22.0499 8.52803C23.1643 8.54182 24.2882 8.51317 25.4016 8.58428C26.1445 8.63204 26.9395 8.78805 27.2143 9.56601C27.5423 10.4936 27.3735 11.6717 27.3767 12.6343C27.3799 13.8527 27.3831 15.0722 27.3852 16.2917Z" fill="#1E1E1E"/>
<path d="M26.6466 20.5678C24.4581 20.4256 22.2643 20.346 20.0737 20.2717C15.251 20.1093 10.4251 20.0701 5.59921 20.1433C4.58882 20.1592 4.32879 21.3235 4.81488 21.921C4.20992 23.6277 4.93588 26.0656 6.90572 26.2046C9.04537 26.3553 11.2604 26.1728 13.4053 26.1537C15.5439 26.1345 17.6825 26.1154 19.8211 26.0963C21.9597 26.0772 24.0994 26.0581 26.2379 26.039C26.9204 26.0327 27.7313 26.1303 28.2768 25.6251C28.834 25.1082 28.8138 24.1743 28.8647 23.4801C28.9146 22.7913 29.0102 21.9911 28.627 21.3766C28.1834 20.6623 27.4097 20.6177 26.6466 20.5678ZM26.7315 23.9705C26.014 24.0575 25.0556 23.927 24.4676 23.9323C23.5825 23.9397 22.6984 23.9482 21.8132 23.9556C19.8954 23.9726 17.9776 23.9896 16.0608 24.0066L10.3084 24.0586C9.43276 24.066 8.52744 24.1445 7.65396 24.0819C7.08508 24.0416 7.0543 24.1053 6.84628 23.6521C6.75288 23.4494 6.56714 22.3976 6.9885 22.3944C7.19015 22.3923 7.3536 22.335 7.49582 22.2543C10.8857 22.2235 14.2746 22.2352 17.6634 22.3212C19.6364 22.371 21.6095 22.4411 23.5814 22.5313C24.5727 22.5769 25.6638 22.7701 26.6487 22.6884C26.688 22.6969 26.7081 22.699 26.741 22.7064C26.7484 22.7606 26.758 22.8157 26.7771 22.8922C26.6911 23.2063 26.776 23.6171 26.7315 23.9705Z" fill="#1E1E1E"/>
<path d="M24.7542 30.1918C23.3565 30.091 21.9608 30.1876 20.5821 30.4317C20.3348 30.4752 20.0706 30.7098 19.9474 30.9199C19.8148 31.147 19.7575 31.4824 19.8403 31.7382C20.0302 32.3272 20.5588 32.5841 21.1457 32.479C21.306 32.4504 21.4662 32.4238 21.6275 32.4005C21.6509 32.3973 21.6626 32.3952 21.6764 32.3931C21.6774 32.3931 21.6774 32.3931 21.6796 32.3931C21.7538 32.3846 21.8292 32.375 21.9035 32.3665C22.2145 32.3326 22.5265 32.3071 22.8396 32.2922C23.4775 32.2604 24.1164 32.2699 24.7532 32.3156C25.3083 32.3559 25.8389 31.7987 25.8145 31.2542C25.788 30.644 25.3486 30.2343 24.7542 30.1918Z" fill="#1E1E1E"/>
</svg>
