<svg width="64" height="11" viewBox="0 0 64 11" fill="none" xmlns="http://www.w3.org/2000/svg">
<path d="M42.3981 3.03307C43.9359 2.05653 45.3514 1.08848 47.0815 1.25837C48.3417 1.63106 51.1689 2.57062 52.3961 3.34736C53.9301 4.31828 56.3994 3.37733 57.8705 2.50468C59.3416 1.63202 58.7907 0.14996 60.2898 0.098764C61.7889 0.047568 64.3387 1.46137 63.8731 2.47785C63.4075 3.49433 62.4889 5.89473 61.0114 6.57791C59.5338 7.26109 57.0823 8.72421 54.5834 8.7986C52.0845 8.87299 51.9547 8.96598 49.7993 7.59353C48.5236 6.81222 46.9594 5.32607 45.4041 6.01387C43.6129 6.86302 41.8566 8.28963 40.0742 9.28315C38.6499 10.1068 37.348 10.922 35.7402 10.7436C34.2548 10.5568 32.6033 9.65656 31.1964 8.73938C29.9119 7.8137 28.7147 6.30208 27.4477 5.66514C26.1719 4.88383 24.5992 7.31251 23.6731 8.2466C22.5022 9.19768 21.2003 10.0129 19.7236 9.97037C16.5343 10.0467 14.1575 7.31218 11.37 5.91091C8.58254 4.50963 5.03496 4.75579 3.52348 8.19502C2.44885 10.7341 -0.86291 8.78933 0.211723 6.25024C1.94163 2.36093 5.51534 0.518266 9.09789 0.849568C11.0727 1.00249 12.8378 1.74984 14.498 2.79442C16.0272 3.70312 17.469 5.19776 19.2079 5.51202C20.9555 5.97065 22.0651 4.00902 23.3408 2.76073C24.4941 1.52092 26.0407 0.688749 27.6572 1.0115C29.396 1.32576 30.602 2.98175 32.0175 4.0433C33.3021 4.96897 35.2332 6.42967 36.7012 6.32781C37.7934 6.10705 39.0778 5.00312 39.9079 4.51061L42.3981 3.03307Z" fill="#F7C300"/>
</svg>
