<svg width="104" height="142" viewBox="0 0 104 142" fill="none" xmlns="http://www.w3.org/2000/svg">
<path d="M86.0533 26.9217C81.1716 24.5881 75.8009 24.1143 70.535 23.2721C64.6141 22.3246 58.6757 21.4385 52.7374 20.5963C47.7596 19.8945 42.2754 18.1574 37.7954 21.2631C33.691 24.1143 30.6257 27.8692 26.172 30.3695C24.1896 31.4836 23.6132 33.3435 23.9451 35.0894C23.6132 37.809 22.5565 40.3619 21.9976 43.0377C21.43 45.7486 21.2379 48.5384 21.0632 51.3019C20.644 57.9431 20.2773 64.593 19.8843 71.2342C19.1158 84.1217 18.356 97.0181 17.5875 109.906C16.0593 112.836 17.343 117.301 21.4649 117.082C29.7262 116.652 37.4286 119.012 45.5939 119.337C54.0124 119.67 62.1077 121.89 70.4739 122.574C73.1374 123.451 76.7703 121.986 77.0148 118.187C78.0977 101.378 82.5165 84.9025 82.4466 68.0232C82.6824 66.7775 82.9182 65.5317 83.1627 64.2947C85.3197 53.4162 88.2103 42.6429 88.4112 31.4661C88.4112 31.4135 88.4112 31.3696 88.4025 31.317C88.6819 29.6238 88.0619 27.8867 86.0533 26.9217Z" fill="white"/>
<path d="M51.672 89.4557C51.541 89.5347 51.4187 89.5961 51.2877 89.6487C51.2266 89.6838 51.1655 89.7014 51.0432 89.754L50.9646 89.7715C50.9559 89.7803 50.9559 89.7803 50.9471 89.7803C50.8947 89.8417 50.8249 89.8944 50.7375 89.9031C50.624 89.9207 50.5367 89.8944 50.4406 89.8417C50.5454 89.9031 50.4668 89.8593 50.4406 89.8505C50.4319 89.8505 50.4319 89.8505 50.4232 89.8505C50.3708 89.8505 50.3271 89.8505 50.2834 89.8417C50.2223 89.833 50.1612 89.8242 50.0913 89.8154L50.004 89.7979C49.9778 89.7891 49.9429 89.7803 49.9079 89.7715H49.8992C49.7769 89.7365 49.6634 89.6399 49.5848 89.5434C49.5411 89.4996 49.4975 89.4469 49.4713 89.4294L49.4014 89.3417L49.4101 89.3329L49.4014 89.3241L49.3927 89.3329L49.3577 89.289C49.3141 89.2101 49.2704 89.1223 49.2268 89.0083H49.2355C49.2268 88.9907 49.2268 88.9557 49.218 88.9381H49.2093C49.2006 88.9118 49.2006 88.8767 49.2268 88.8153C49.2093 88.7276 49.2006 88.6398 49.2006 88.5433C49.2093 88.2801 49.3403 88.0433 49.5149 87.8503C49.5149 87.8415 49.5149 87.8415 49.5149 87.8415C49.5324 87.8152 49.5586 87.7976 49.5761 87.7713C49.611 87.745 49.6459 87.7274 49.6809 87.7099C49.6983 87.7011 49.7071 87.6923 49.7158 87.6748L49.7944 87.6222C49.8206 87.6134 49.8643 87.5871 49.8905 87.5695C49.9429 87.5344 49.9865 87.5169 50.0214 87.4993L50.0913 87.473C50.2398 87.4467 50.3708 87.4292 50.5192 87.4116C50.7201 87.4028 50.9646 87.2449 51.1829 86.9905L51.4536 86.6747L51.7156 86.9905L51.7506 87.0256C51.768 87.0519 51.7855 87.0782 51.8204 87.1133L51.9514 87.3853C52.0038 87.6573 52.0387 87.9204 52.0649 88.2275C52.0737 88.4907 52.0649 88.7539 52.03 89.0171L52.0213 89.1574L51.7506 89.3768L51.672 89.4557Z" fill="#F7C300"/>
<path d="M47.4103 100.22L47.6723 99.9571C47.7247 99.9132 47.7858 99.8606 47.8906 99.7816L48.0915 99.6676C48.1264 99.6501 48.1701 99.6325 48.2399 99.5974L48.3622 99.5448L48.4845 99.5799C48.8425 99.6851 49.218 99.615 49.5499 99.3693L49.873 99.1324L50.1437 99.5974C50.2048 99.7027 50.266 99.7992 50.3096 99.9045L50.4144 100.176C50.4232 100.229 50.4319 100.273 50.4406 100.317L50.4581 100.475L50.4406 100.641L50.266 100.843C50.2136 100.887 50.1612 100.931 50.1 100.984L49.9691 101.063C49.873 101.115 49.7769 101.168 49.6721 101.22C49.5062 101.299 49.3316 101.37 49.1569 101.44L48.9386 101.501C48.5805 101.589 48.2225 101.633 47.9168 101.659C47.8557 101.659 47.7946 101.659 47.7334 101.65C47.681 101.642 47.6112 101.633 47.55 101.624L47.3754 101.554L47.2444 101.387L47.1571 100.984C47.1571 100.896 47.1658 100.817 47.1571 100.738L47.3055 100.378C47.3143 100.343 47.3667 100.273 47.4103 100.22Z" fill="#F7C300"/>
<path d="M49.2442 108.388C49.2093 108.344 49.1831 108.309 49.1569 108.283C49.3752 108.318 49.5761 108.37 49.7595 108.441L49.5237 108.73L49.2442 108.388Z" fill="#F7C300"/>
<path d="M49.7333 112.362C49.6023 112.441 49.48 112.494 49.349 112.555C49.2879 112.59 49.2268 112.608 49.1045 112.66L49.0259 112.678C48.9648 112.695 48.9036 112.713 48.8338 112.722C48.7988 112.731 48.7552 112.739 48.7115 112.739L48.6067 112.748C48.5194 112.748 48.4321 112.739 48.3535 112.731C48.2923 112.722 48.2312 112.713 48.1613 112.704L48.074 112.687C48.0478 112.678 48.0129 112.669 47.978 112.66L47.8819 112.608C47.8557 112.59 47.7946 112.546 47.7422 112.502L47.6636 112.441C47.6199 112.388 47.5762 112.336 47.55 112.318L47.4802 112.231L47.5064 112.222L47.4976 112.213L47.4714 112.222L47.4365 112.178C47.4103 112.134 47.3841 112.081 47.3667 112.029C47.3492 111.994 47.3317 111.95 47.3143 111.906C47.3055 111.906 47.3055 111.897 47.3055 111.897C47.2881 111.844 47.2619 111.801 47.2444 111.748C47.1571 111.415 47.2793 111.064 47.5238 110.836C47.5326 110.836 47.5326 110.827 47.5413 110.818L47.681 110.669C47.716 110.643 47.7509 110.616 47.7858 110.581L47.8644 110.529C47.8906 110.52 47.9343 110.493 47.9605 110.476C48.0129 110.441 48.0565 110.423 48.0915 110.406L48.1613 110.379C48.3098 110.344 48.4408 110.336 48.5893 110.318C48.7901 110.309 49.0346 110.151 49.253 109.897L49.5237 109.581L49.7857 109.897L49.8206 109.932C49.8381 109.958 49.8555 109.985 49.8905 110.02L50.0214 110.292C50.0738 110.564 50.1088 110.827 50.135 111.134C50.1437 111.397 50.135 111.66 50.1 111.923L50.0913 112.064L49.8206 112.283L49.7333 112.362Z" fill="#F7C300"/>
<path d="M70.5612 42.0113C71.5567 42.4324 72.6483 42.7482 73.8098 42.95C74.8752 43.1255 75.9668 43.1781 77.1982 43.0904C77.792 43.0465 78.4033 43.0027 78.8574 42.6605C79.2941 42.3359 79.4687 41.8622 79.5997 41.4147C79.6434 41.2744 79.6696 41.1252 79.7045 40.9849C79.687 41.327 79.6608 41.6604 79.6434 42.0025C79.5211 44.0466 77.2942 44.7222 75.731 43.8361C73.9757 42.8535 71.1288 43.2395 69.7665 41.6604C69.9586 41.7481 70.1595 41.8358 70.3691 41.9323L70.5612 42.0113Z" fill="#F7C300"/>
<path d="M69.6093 32.4575C70.9454 30.4924 75.1983 30.3345 77.1545 31.2556C77.6872 31.51 78.0889 31.8785 78.3771 32.3172C78.8225 32.4575 79.2242 32.7119 79.5298 33.0716C79.3465 33.1067 79.1718 33.1945 79.0321 33.326C78.8574 33.4927 78.7701 33.6945 78.7614 33.8963C78.7701 35.4228 78.6391 36.923 78.4033 38.3705C78.2898 39.0724 78.1326 39.783 77.9492 40.4673L77.923 40.555C77.8881 40.6778 77.8619 40.8094 77.8182 40.9323L77.7483 41.1516L77.5213 41.1867C77.3815 41.2042 77.2506 41.213 77.1021 41.2305C75.897 41.3446 74.6045 41.2569 73.3819 40.9761C72.7619 40.8357 72.1244 40.6252 71.4607 40.362L71.2511 40.283C70.9978 40.1865 70.666 40.0462 70.404 39.9146L70.1682 39.7918L70.3865 38.5372C70.4913 37.9582 70.5961 37.3704 70.7096 36.7914C70.8144 36.2387 70.9192 35.6948 71.0415 35.1508C71.0677 35.028 71.0939 34.914 71.1201 34.7473C71.1725 34.4227 71.2336 34.0542 71.3646 33.7384C71.4519 33.5191 71.5829 33.4138 71.7663 33.4313H71.9846C72.3514 33.4313 72.7095 33.4489 73.0762 33.4752C73.2422 33.4927 73.4256 33.5015 73.6002 33.5015L77.041 33.6594C77.7309 33.6857 78.0103 33.1067 78.0278 32.7207C78.0365 32.3259 77.8531 31.8522 77.2156 31.7995L72.8841 31.6065C71.7488 31.5539 70.3254 31.4925 69.7054 32.8523C69.522 33.2471 69.4346 33.7033 69.356 34.1419C69.3298 34.2823 69.2949 34.4227 69.2687 34.563C69.1814 34.9841 69.094 35.4053 69.0155 35.8264C69.0067 34.6771 68.9893 33.3699 69.6093 32.4575Z" fill="#F7C300"/>
<path d="M18.4172 85.6746C17.9281 93.3598 17.2469 101.027 16.3649 108.669C16.3125 109.169 16.2514 109.695 16.4348 110.16C16.6182 110.634 17.116 111.02 17.605 110.888C18.1988 110.73 18.3822 109.993 18.4521 109.379C19.3079 99.15 20.2598 88.947 20.8449 78.7089C21.7095 63.4175 22.705 48.17 24.4865 32.9576C24.5127 32.6769 24.5651 32.361 24.7834 32.1768C25.0017 31.9926 25.3161 31.9926 25.5956 32.0013C29.6564 32.1417 33.7084 32.5189 37.7343 33.1067C38.2495 33.1769 38.8259 33.2383 39.2451 32.9225C39.6293 32.6242 39.7341 32.0978 39.8127 31.6153C40.3716 28.0272 40.7209 24.4215 40.8781 20.7894C47.9168 21.4562 54.8857 22.5002 61.9244 23.1318C68.8233 23.7547 75.766 24.9478 82.4292 26.6849C83.2675 26.9042 84.0971 27.1235 84.9355 27.3604C86.4987 27.7991 87.3807 27.9745 87.3545 29.852C87.3283 32.8348 87.0838 35.8176 86.7083 38.7829C85.8262 45.6872 83.9836 52.4074 83.2239 59.2942L81.9489 70.8833C80.8398 80.9811 79.9316 88.596 79.0583 95.9654C78.185 103.326 77.2768 110.932 76.1677 121.021L76.1328 121.381L75.7747 121.337C72.037 120.872 68.3081 120.416 64.5792 119.968C50.2048 118.231 35.8131 116.17 21.3514 115.485C20.4868 115.45 18.2425 115.503 18.7228 117.003C19.0197 117.942 20.5654 117.67 21.3165 117.696C22.9233 117.758 24.5302 117.872 26.1458 117.994C29.2721 118.231 32.3898 118.547 35.5074 118.898C41.6553 119.591 47.8732 120.442 53.9687 121.153C61.5663 122.039 69.1726 122.951 76.7615 123.907C77.5737 124.039 77.8444 123.434 77.923 123.179L77.9492 123.074L78.0365 123.013C78.2723 122.82 78.4208 122.548 78.4557 122.214L80.342 104.809C81.4685 94.5442 82.3942 86.7713 83.2937 79.244C83.5208 77.2964 83.7566 75.3488 83.9836 73.4012C84.822 66.3301 85.3896 59.303 86.7257 52.3021C88.0793 45.2135 89.4679 38.0547 89.4504 30.8082C89.4417 28.071 89.005 26.3778 86.2367 25.5444C76.4821 22.5967 66.3083 21.3509 56.1956 20.1227C52.6151 19.6928 49.0259 19.2454 45.4454 18.8155C43.236 18.5435 40.948 18.2803 38.8259 18.9383C36.2759 19.7279 34.311 21.7194 32.3112 23.4827C30.2589 25.2812 28.067 26.9042 25.7615 28.3342C24.7136 28.9834 23.6045 29.6239 22.9146 30.6503C22.1985 31.7118 22.0238 33.0453 21.8754 34.3262C21.5785 36.8704 21.3077 39.4058 21.0458 41.9499C20.4519 48.9771 19.7533 56.0043 19.3341 63.0578C18.8538 70.5763 18.8975 78.1386 18.4172 85.6746ZM28.0757 29.694L28.8529 29.115C31.9531 26.7989 34.9485 24.4916 37.7518 22.2633L38.3805 21.7632L38.3281 22.5704C38.1535 25.1408 37.8827 27.7289 37.516 30.2731L37.4636 30.624L37.1143 30.5713C34.4507 30.2116 31.7261 29.9309 29.0363 29.7554L28.0757 29.694Z" fill="#1E1E1E"/>
<path d="M69.0941 40.327C69.2251 40.8884 69.4521 41.3183 69.749 41.6605C68.8408 41.2306 68.1858 40.7393 68.247 39.8708C68.2732 39.4935 68.3518 39.0987 68.4391 38.7215C68.474 38.5548 68.509 38.3793 68.5352 38.2214C68.6574 37.5722 68.7709 36.9318 68.9019 36.2914C68.9369 36.1335 68.9631 35.9755 68.998 35.8176C68.998 35.9931 68.998 36.1598 68.9893 36.3177C68.9631 37.5985 68.7971 39.0636 69.0941 40.327Z" fill="#1E1E1E"/>
<path d="M79.5298 33.0716C79.6084 33.0541 79.687 33.0453 79.7656 33.0541C80.2721 33.098 80.6127 33.5015 80.6127 34.0805C80.6215 36.4054 80.3071 38.7215 79.7045 40.9849C79.8268 38.9233 79.9578 36.8704 80.08 34.8087C80.1237 34.0805 79.8966 33.5015 79.5298 33.0716Z" fill="#1E1E1E"/>
<path d="M69.3473 34.1244C69.4259 33.6857 69.5132 33.2295 69.6966 32.8347C70.3167 31.4749 71.7401 31.5363 72.8754 31.5889L77.2069 31.782C77.8444 31.8346 78.0365 32.3083 78.0191 32.7031C78.0016 33.0979 77.7221 33.6769 77.0322 33.6418L73.5915 33.4839C73.4168 33.4751 73.2334 33.4664 73.0675 33.4576C72.7007 33.4313 72.334 33.4137 71.9759 33.4137H71.7576C71.5742 33.3962 71.4345 33.5015 71.3559 33.7208C71.2336 34.0366 71.1725 34.4051 71.1114 34.7297C71.0852 34.8964 71.059 35.0104 71.0328 35.1332C70.9192 35.6859 70.8057 36.2211 70.7009 36.7738C70.5874 37.3528 70.4826 37.9406 70.3778 38.5196L70.1595 39.7742L70.3953 39.897C70.6572 40.0286 70.9891 40.1602 71.2424 40.2655L71.4607 40.3532C72.1244 40.6164 72.7706 40.8269 73.3819 40.9673C74.6045 41.248 75.897 41.3358 77.1021 41.2217C77.2418 41.2042 77.3816 41.1954 77.5213 41.1779L77.7483 41.1428L77.8182 40.9234C77.8531 40.8006 77.8881 40.669 77.923 40.5462L77.9492 40.4585C78.1326 39.7742 78.2898 39.0636 78.4033 38.3617C78.6478 36.9229 78.7701 35.4228 78.7614 33.8875C78.7614 33.6769 78.8487 33.4751 79.0321 33.3172C79.1805 33.1856 79.3552 33.0979 79.5298 33.0628C79.8966 33.4927 80.1237 34.0717 80.08 34.7999C79.9578 36.8528 79.8268 38.9144 79.7045 40.9761C79.6696 41.1164 79.6434 41.2656 79.5997 41.406C79.4687 41.8621 79.2941 42.3271 78.8574 42.6517C78.412 42.9851 77.8007 43.0377 77.1982 43.0816C75.9668 43.1693 74.8752 43.1167 73.8098 42.9412C72.6396 42.7395 71.548 42.4236 70.5612 42.0025L70.3516 41.9148C70.142 41.8271 69.9412 41.7393 69.749 41.6428C69.4521 41.3007 69.2251 40.8708 69.0941 40.3093C68.7971 39.046 68.9631 37.5809 68.998 36.2913C68.998 36.1334 69.0067 35.9579 69.0067 35.7912C69.0941 35.3701 69.1727 34.949 69.26 34.5279C69.2862 34.4139 69.3211 34.2735 69.3473 34.1244Z" fill="#1E1E1E"/>
<path d="M68.8757 85.5606L66.6925 85.4115C67.4523 85.3588 68.1946 85.4115 68.8757 85.5606Z" fill="#59C59F"/>
<path d="M70.9978 86.4554C70.893 86.3764 70.7795 86.3063 70.666 86.2361C70.1507 85.9202 69.5394 85.7009 68.8757 85.5605L72.6658 85.815C73.3033 85.8676 73.4867 86.3589 73.478 86.7624C73.478 86.7888 73.4692 86.8239 73.4692 86.8502C72.7793 86.4817 71.9235 86.3677 70.9978 86.4554Z" fill="#1E1E1E"/>
<path d="M73.2684 116.591C73.1374 117.056 72.9627 117.538 72.5261 117.872C72.072 118.214 71.4694 118.266 70.8668 118.31C69.6355 118.407 62.754 117.863 61.6973 117.687C60.5271 117.486 59.4355 117.161 58.4487 116.731L58.2391 116.643C57.0427 116.126 56.0646 115.617 56.1432 114.538C56.1694 114.152 56.2567 113.748 56.3353 113.353C56.3703 113.178 56.4052 113.003 56.4314 112.836C56.5536 112.169 58.4312 90.605 58.5622 89.947C58.6757 89.3505 58.798 88.7627 58.9203 88.1661C58.9465 88.017 58.9814 87.8766 59.0076 87.7275C59.0862 87.28 59.1735 86.8063 59.3656 86.4027C59.9857 85.0078 61.4091 85.0692 62.5444 85.1219L66.6925 85.4026C66.0376 85.4465 65.3739 85.5518 64.7189 85.7535C64.553 85.8062 64.387 85.8588 64.2298 85.9115C63.5749 85.6921 62.981 85.736 62.4833 85.9729C62.361 86.0343 62.2387 86.1045 62.1252 86.1834C61.6798 86.4291 61.4266 86.7098 61.2519 87.0256C61.1559 87.0695 61.0685 87.166 61.0161 87.3151C60.8939 87.631 60.8328 87.9907 60.7804 88.3153C60.6581 88.6486 60.5009 88.9908 60.2127 89.3329C60.1603 89.4294 60.1167 89.5259 60.0643 89.6137C60.0206 89.7014 59.9769 89.7891 59.942 89.8856C58.8242 92.4298 58.8941 96.1671 58.7543 99.071C58.6583 100.957 58.4836 103.001 58.4487 104.993C58.4399 105.142 58.4399 105.3 58.405 105.467C57.3571 106.019 58.4137 107.274 58.2216 107.897C58.1867 108.028 58.1518 108.169 58.1081 108.3C57.8636 109.125 57.5492 110.002 57.4182 110.66C57.4095 110.765 57.4182 110.871 57.4269 110.967C57.4531 111.257 57.5405 111.502 57.5667 111.625C57.5579 111.766 57.5405 111.897 57.5405 112.037C57.5143 112.59 57.5579 113.134 57.6627 113.582C57.5667 113.713 57.4706 113.836 57.4007 113.95C57.3134 114.038 57.2348 114.117 57.1737 114.213C57.0514 114.389 57.0427 114.59 57.2173 114.801C57.75 115.433 58.274 116.064 58.8504 116.108C58.9639 116.178 59.0862 116.231 59.2084 116.284C60.3175 116.714 61.872 116.389 62.9723 116.713C62.9112 116.836 62.8762 116.942 62.8675 117.038C64.6054 117.187 65.8105 116.705 67.7929 116.503C67.95 116.529 68.0985 116.573 68.2382 116.635C68.378 116.696 68.5177 116.775 68.6574 116.88C68.7797 116.942 68.9019 116.994 69.0242 117.038C71.1026 117.775 73.5129 115.88 73.8011 111.748C74.1941 106.054 74.6045 100.352 74.9975 94.6581C75.0848 93.4124 74.9713 92.3596 74.7093 91.4911C74.6831 91.3507 74.6569 91.2104 74.622 91.0788C74.8578 90.605 74.9713 90.14 74.98 89.7102C74.98 89.561 74.9713 89.4207 74.9538 89.2715C74.884 88.5697 74.6656 88.017 74.3513 87.5871C74.3949 87.5169 74.4386 87.4555 74.4997 87.3941C74.7093 87.2011 74.98 87.087 75.2333 87.1134C75.7398 87.1572 76.0804 87.5783 76.0804 88.1661C76.0629 90.6927 73.9583 114.125 73.2684 116.591Z" fill="#1E1E1E"/>
<path d="M74.9538 89.7014C74.9451 90.1313 74.8316 90.5962 74.5958 91.07C74.622 91.2016 74.6569 91.3419 74.6831 91.4823C74.9451 92.3421 75.0586 93.4036 74.9713 94.6494C74.5783 100.343 74.1679 106.046 73.7749 111.739C73.4867 115.871 71.0677 117.766 68.998 117.029C68.8757 116.985 68.7535 116.933 68.6312 116.871C68.5002 116.766 68.3605 116.687 68.212 116.626C68.0723 116.564 67.9151 116.52 67.7667 116.494C65.7843 116.696 64.5792 117.178 62.8413 117.029C62.85 116.933 62.8937 116.819 62.9461 116.705C61.8545 116.389 60.2913 116.705 59.1822 116.275C59.06 116.231 58.9377 116.17 58.8242 116.099C58.2478 116.047 57.7238 115.424 57.1911 114.792C57.0165 114.582 57.034 114.389 57.1475 114.204C57.2086 114.117 57.2872 114.029 57.3745 113.941C57.4531 113.818 57.5405 113.696 57.6365 113.573C57.5317 113.125 57.4968 112.581 57.5143 112.029C57.523 111.888 57.5317 111.757 57.5405 111.616C57.5143 111.494 57.4357 111.248 57.4007 110.958C57.392 110.862 57.392 110.757 57.392 110.651C57.523 109.993 57.8374 109.116 58.0819 108.291C58.1256 108.151 58.1605 108.019 58.1954 107.888C58.3875 107.274 57.3309 106.01 58.3788 105.458C58.4137 105.291 58.4137 105.142 58.4225 104.984C58.4574 102.992 58.6321 100.948 58.7281 99.0622C58.8679 96.1583 58.7893 92.421 59.9158 89.8768C59.9595 89.7891 59.9944 89.6926 60.0381 89.6049C60.0817 89.5084 60.1341 89.4207 60.1865 89.3241C60.4747 88.982 60.6319 88.6399 60.7542 88.3065C60.7542 88.3153 60.7454 88.3328 60.7454 88.3416C60.7192 88.5083 60.693 88.6311 60.6668 88.7539C60.5446 89.3154 60.4398 89.8768 60.335 90.4383C60.2214 91.0349 58.3526 112.538 58.2478 113.134L58.0295 114.424L58.2653 114.547C58.5273 114.678 58.8591 114.819 59.1124 114.924L59.322 115.012C59.9857 115.283 60.6319 115.494 61.2432 115.634C62.4658 115.924 69.5482 116.503 70.7533 116.38C70.893 116.363 71.0328 116.354 71.1725 116.336L71.3995 116.301L71.4694 116.082C71.5131 115.95 71.5393 115.827 71.5742 115.696L71.6004 115.599C71.7838 114.897 71.941 114.161 72.0632 113.441C72.3078 111.959 74.1941 89.5172 74.1941 87.9468C74.1941 87.8064 74.2377 87.6748 74.3163 87.552C74.6394 87.9819 74.849 88.5346 74.9189 89.2364C74.9538 89.4119 74.9626 89.5522 74.9538 89.7014Z" fill="#1E1E1E"/>
<path d="M72.4911 87.7275L63.2605 87.0871C63.0858 87.0783 62.9024 87.0695 62.7365 87.0607C62.3697 87.0344 62.003 87.0169 61.6449 87.0169H61.4266C61.3655 87.0081 61.3043 87.0256 61.2607 87.052C61.4353 86.7361 61.6886 86.4554 62.1339 86.2098C62.2475 86.1308 62.3697 86.0606 62.492 85.9992C62.9898 85.7623 63.5836 85.7185 64.2386 85.9378C64.4045 85.8852 64.5617 85.8325 64.7276 85.7799C65.3826 85.5781 66.0463 85.4728 66.7012 85.429L68.8845 85.5781C69.5482 85.7185 70.1595 85.9466 70.6747 86.2536C70.7882 86.3238 70.9018 86.394 71.0066 86.4729C71.941 86.3852 72.7968 86.4993 73.478 86.859C73.4081 87.245 73.1286 87.7538 72.4911 87.7275Z" fill="#1E1E1E"/>
<path d="M32.9225 47.0206C39.6293 47.3277 46.3624 47.7576 53.0954 48.3278C61.086 49.0034 69.0591 49.8719 76.9624 50.9159C77.8706 51.0387 78.2549 51.7493 78.1588 52.3897C78.0802 52.9161 77.6697 53.46 76.7965 53.346C62.2125 51.4159 47.3754 50.1 32.6779 49.4332C31.7959 49.3718 31.4728 48.7753 31.4903 48.2489C31.5165 47.6348 31.9706 46.9856 32.9225 47.0206Z" fill="#1E1E1E"/>
<path d="M41.4196 56.9517C41.1052 56.5131 41.1663 55.9516 41.568 55.6007C41.8038 55.3989 42.2667 55.1621 43.105 55.2586C53.8028 56.3991 64.6577 57.2939 75.3817 57.9343C75.4167 57.9343 75.4516 57.9431 75.4691 57.9431C76.6655 58.0484 77.0846 58.6713 77.0672 59.1801C77.0497 59.803 76.4471 60.4346 75.1285 60.3469C64.422 59.7065 53.6019 58.8029 42.9478 57.6799C42.0396 57.5834 41.6117 57.2325 41.4196 56.9517Z" fill="#1E1E1E"/>
<path d="M34.3809 70.9008C34.0141 70.4534 34.0752 69.9007 34.5293 69.5498C34.7913 69.348 35.3327 69.1199 36.3021 69.2252C48.7115 70.506 61.3043 71.5588 73.7399 72.3396C73.7749 72.3396 73.8185 72.3484 73.8447 72.3484C75.2333 72.4624 75.7223 73.0941 75.7048 73.6117C75.6874 74.2346 74.9975 74.8574 73.4692 74.7522C61.0511 73.9714 48.5019 72.9186 36.1362 71.6465C35.1057 71.5412 34.5992 71.1816 34.3809 70.9008Z" fill="#1E1E1E"/>
<path d="M52.1261 63.2069C59.7935 64.0842 67.5833 64.7246 75.2857 65.1106C75.3119 65.1106 75.3293 65.1106 75.3468 65.1194C76.2026 65.1896 76.4908 65.8037 76.4646 66.3213C76.4384 66.9442 75.9843 67.5846 75.0411 67.532C67.3562 67.1547 59.5927 66.5055 51.9514 65.637C51.3139 65.558 51.0083 65.2247 50.8773 64.9439C50.6677 64.5141 50.7201 63.9526 51.017 63.5929C51.1829 63.3736 51.5235 63.1279 52.1261 63.2069Z" fill="#1E1E1E"/>
<path d="M44.5372 64.9352C38.267 64.672 31.9531 64.1544 25.7266 63.3999C25.2026 63.3385 24.9668 62.9964 24.862 62.7244C24.6961 62.2945 24.7485 61.7418 24.993 61.3734C25.1327 61.1628 25.4209 60.9172 25.91 60.9786C32.154 61.7418 38.494 62.2507 44.773 62.5139C44.7905 62.5139 44.8079 62.5139 44.8254 62.5226C45.524 62.584 45.7511 63.1894 45.7161 63.6982C45.6899 64.3211 45.3144 64.9703 44.5372 64.9352Z" fill="#1E1E1E"/>
<path d="M54.4578 89.1223C54.5101 87.9468 54.4665 86.4641 53.567 85.4816C53.3312 85.2271 53.0343 85.0868 52.7286 85.0605C52.4317 85.0341 52.1173 85.1219 51.8379 85.3324C51.8292 85.35 51.803 85.3763 51.7855 85.4026C51.7593 85.4377 51.7331 85.4728 51.7156 85.5079L51.4362 85.85L51.1567 85.5079C51.0694 85.4026 50.9995 85.3236 50.9297 85.271C50.6502 85.078 50.362 85.0517 49.9778 85.078C48.6591 85.1745 47.3143 86.2799 46.93 87.5958C46.5545 88.8855 46.8863 90.2804 47.7684 91.1577C48.3098 91.6928 48.8338 92.0174 49.3839 92.1578C50.135 92.3508 50.8685 92.342 51.5497 92.1315C52.5976 91.8157 54.3617 90.9998 54.4578 89.1223ZM50.6327 91.0612C47.4365 90.7892 47.8557 85.8062 51.0519 86.0781C54.2394 86.3589 53.8202 91.3332 50.6327 91.0612Z" fill="#1E1E1E"/>
<path d="M51.0519 86.0869C47.8557 85.8149 47.4365 90.798 50.6327 91.07C53.8202 91.3332 54.2394 86.3589 51.0519 86.0869ZM52.0213 89.175L51.7506 89.3943L51.6632 89.4557C51.5322 89.5347 51.41 89.5961 51.279 89.6488C51.2179 89.6838 51.1567 89.7014 51.0345 89.754L50.9559 89.7716C50.9471 89.7804 50.9471 89.7803 50.9384 89.7803C50.886 89.8418 50.8161 89.8944 50.7288 89.9032C50.6153 89.9207 50.528 89.8944 50.4319 89.8418C50.5367 89.9032 50.4581 89.8593 50.4319 89.8505C50.4232 89.8505 50.4232 89.8505 50.4144 89.8505C50.362 89.8505 50.3184 89.8505 50.2747 89.8418C50.2136 89.833 50.1524 89.8242 50.0826 89.8154L49.9953 89.7979C49.9691 89.7891 49.9341 89.7804 49.8992 89.7716H49.8905C49.7682 89.7365 49.6547 89.64 49.5761 89.5435C49.5324 89.4996 49.4887 89.447 49.4625 89.4294L49.3927 89.3417L49.4014 89.3329L49.3927 89.3242L49.3839 89.3329L49.349 89.2891C49.3054 89.2101 49.2617 89.1224 49.218 89.0083H49.2268C49.218 88.9908 49.218 88.9557 49.2093 88.9381H49.2006C49.1918 88.9118 49.1918 88.8767 49.218 88.8153C49.2006 88.7276 49.1918 88.6399 49.1918 88.5434C49.2006 88.2802 49.3316 88.0433 49.5062 87.8503C49.5062 87.8415 49.5062 87.8415 49.5062 87.8415C49.5237 87.8152 49.5499 87.7977 49.5673 87.7713C49.6023 87.745 49.6372 87.7275 49.6721 87.7099C49.6896 87.7011 49.6983 87.6924 49.7071 87.6748L49.7857 87.6222C49.8119 87.6134 49.8555 87.5871 49.8817 87.5695C49.9341 87.5345 49.9778 87.5169 50.0127 87.4994L50.0826 87.473C50.231 87.4467 50.362 87.4292 50.5105 87.4116C50.7113 87.4029 50.9559 87.245 51.1742 86.9905L51.4449 86.6747L51.7069 86.9905L51.7418 87.0256C51.7593 87.0519 51.7768 87.0783 51.8117 87.1134L51.9427 87.3853C51.9951 87.6573 52.03 87.9205 52.0562 88.2275C52.0649 88.4907 52.0562 88.7539 52.0213 89.0171V89.175Z" fill="#1E1E1E"/>
<path d="M48.0565 107.958C48.4408 107.932 48.7377 107.958 49.0084 108.151C49.0521 108.177 49.0958 108.23 49.1482 108.283C49.0958 108.274 49.0521 108.256 48.991 108.256C45.7947 107.984 45.3756 112.967 48.5718 113.239C51.4798 113.485 52.0737 109.388 49.7507 108.449L49.7944 108.397C49.8206 108.362 49.8468 108.326 49.8643 108.291C49.8817 108.265 49.9079 108.239 49.9167 108.221C50.1961 108.011 50.5018 107.923 50.8074 107.949C51.1131 107.976 51.41 108.116 51.6458 108.37C52.5452 109.353 52.5976 110.827 52.5365 112.011C52.4405 113.889 50.6764 114.696 49.6285 115.02C48.9473 115.231 48.2225 115.24 47.4627 115.047C46.9213 114.906 46.3886 114.582 45.8471 114.046C44.9564 113.178 44.6245 111.774 45.0088 110.485C45.4018 109.16 46.7379 108.055 48.0565 107.958Z" fill="#1E1E1E"/>
<path d="M49.7595 108.441L49.5237 108.73L49.2442 108.388C49.2093 108.344 49.1831 108.309 49.1569 108.283C49.1045 108.274 49.0608 108.256 48.9997 108.256C45.8035 107.984 45.3843 112.967 48.5805 113.239C51.4886 113.485 52.0824 109.379 49.7595 108.441ZM50.0913 112.081L49.8206 112.301L49.7333 112.362C49.6023 112.441 49.48 112.494 49.349 112.555C49.2879 112.59 49.2268 112.608 49.1045 112.66L49.0259 112.678C48.9648 112.695 48.9036 112.713 48.8338 112.722C48.7988 112.731 48.7552 112.739 48.7115 112.739L48.6067 112.748C48.5194 112.748 48.4321 112.739 48.3535 112.731C48.2923 112.722 48.2312 112.713 48.1613 112.704L48.074 112.687C48.0478 112.678 48.0129 112.669 47.978 112.66L47.8819 112.608C47.8557 112.59 47.7946 112.546 47.7422 112.502L47.6636 112.441C47.6199 112.388 47.5762 112.336 47.55 112.318L47.4802 112.231L47.5064 112.222L47.4976 112.213L47.4714 112.222L47.4365 112.178C47.4103 112.134 47.3841 112.081 47.3667 112.029C47.3492 111.994 47.3317 111.95 47.3143 111.906C47.3055 111.906 47.3055 111.897 47.3055 111.897C47.2881 111.844 47.2619 111.801 47.2444 111.748C47.1571 111.415 47.2793 111.064 47.5238 110.836C47.5326 110.836 47.5326 110.827 47.5413 110.818L47.681 110.669C47.716 110.643 47.7509 110.616 47.7858 110.581L47.8644 110.529C47.8906 110.52 47.9343 110.493 47.9605 110.476C48.0129 110.441 48.0566 110.423 48.0915 110.406L48.1613 110.379C48.3098 110.344 48.4408 110.336 48.5893 110.318C48.7901 110.309 49.0346 110.151 49.253 109.897L49.5237 109.581L49.7857 109.897L49.8206 109.932C49.8381 109.958 49.8555 109.985 49.8905 110.02L50.0214 110.292C50.0738 110.564 50.1088 110.827 50.135 111.134C50.1437 111.397 50.135 111.66 50.1 111.923L50.0913 112.081Z" fill="#1E1E1E"/>
<path d="M46.5894 103.861C47.1658 104.098 47.9081 104.142 48.8425 103.993C50.3446 103.756 51.6632 103.054 52.3531 102.124C52.8072 101.519 52.9819 100.703 52.8334 99.8957C52.7112 99.185 52.3444 98.5271 52.0387 98.0446C51.8204 97.6936 51.6196 97.5182 51.3314 97.3866C51.2528 97.3515 51.1567 97.3252 51.0607 97.3252C50.8598 97.3076 50.6327 97.3515 50.4057 97.448C50.3358 97.4743 50.2485 97.5357 50.1524 97.6234L49.9167 97.8428L49.6809 97.6234C49.2093 97.1848 48.6941 97.0269 48.1002 97.1146C47.8208 97.1585 47.4976 97.2725 47.1309 97.4655C46.4322 97.8252 45.8646 98.2902 45.428 98.8604C44.642 99.8957 44.4935 101.343 45.0612 102.449C45.4018 103.098 45.9345 103.589 46.5894 103.861ZM49.1132 97.9831C52.3007 98.2551 51.8903 103.238 48.694 102.966C45.5065 102.694 45.917 97.7112 49.1132 97.9831Z" fill="#1E1E1E"/>
<path d="M48.6941 102.966C51.8903 103.238 52.3007 98.2551 49.1132 97.9831C45.917 97.7112 45.5066 102.694 48.6941 102.966ZM47.1483 100.729L47.2968 100.369C47.3143 100.343 47.3579 100.273 47.4103 100.22L47.6723 99.9571C47.7247 99.9132 47.7858 99.8606 47.8906 99.7816L48.0915 99.6676C48.1264 99.65 48.1701 99.6325 48.2399 99.5974L48.3622 99.5447L48.4845 99.5798C48.8425 99.6851 49.218 99.6149 49.5499 99.3693L49.873 99.1324L50.1437 99.5974C50.2048 99.7027 50.266 99.7992 50.3096 99.9044L50.4144 100.176C50.4232 100.229 50.4319 100.273 50.4406 100.317L50.4581 100.475L50.4406 100.641L50.266 100.843C50.2136 100.887 50.1612 100.931 50.1 100.984L49.9691 101.062C49.873 101.115 49.7769 101.168 49.6721 101.22C49.5062 101.299 49.3316 101.37 49.1569 101.44L48.9386 101.501C48.5805 101.589 48.2225 101.633 47.9168 101.659C47.8557 101.659 47.7946 101.659 47.7334 101.65C47.681 101.641 47.6112 101.633 47.55 101.624L47.3754 101.554L47.2444 101.387L47.1571 100.984C47.1483 100.887 47.1571 100.808 47.1483 100.729Z" fill="#1E1E1E"/>
<path d="M39.1839 110.055C33.953 109.099 28.6084 108.616 23.2814 108.634C23.0281 108.634 22.7749 108.511 22.5653 108.283C22.3208 108.011 22.181 107.642 22.2072 107.318C22.2684 106.554 22.9233 106.221 23.5434 106.212C26.0584 106.203 28.5735 106.3 31.0798 106.511C33.8394 106.747 36.5903 107.116 39.3149 107.607C39.9262 107.712 40.5201 108.169 40.4502 108.923C40.424 109.248 40.2232 109.599 39.935 109.827C39.6992 110.028 39.4285 110.099 39.1839 110.055Z" fill="#1E1E1E"/>
<path d="M24.9319 98.0358C24.3555 97.9831 24.0935 97.641 23.9713 97.369C23.7879 96.9392 23.8403 96.3865 24.111 96.018C24.2682 95.8074 24.5738 95.5618 25.0978 95.632L40.686 97.4831C41.5156 97.5796 41.8125 98.2814 41.7339 98.8955C41.6728 99.4219 41.3235 100.001 40.5113 99.9044L24.9319 98.0358Z" fill="#1E1E1E"/>
<path d="M22.7487 85.7623C22.8185 85.2359 23.1591 84.6394 23.9713 84.7534C30.1716 85.4991 36.4942 85.8413 42.7557 85.8062C42.7994 85.8062 42.843 85.8062 42.8867 85.8062C43.2185 85.8325 43.4805 85.9816 43.629 86.2448C43.8473 86.6133 43.8298 87.1485 43.5853 87.5783C43.4543 87.8152 43.1312 88.21 42.4937 88.2188C36.2759 88.2538 29.9882 87.9117 23.8053 87.166C22.9757 87.0695 22.6788 86.3677 22.7487 85.7623Z" fill="#1E1E1E"/>
<path d="M90.4198 22.6931C89.6076 22.5616 88.7867 22.4475 87.9745 22.351C86.324 22.1492 84.6561 22.0001 82.9881 21.9036C81.4686 21.8071 81.486 19.4822 83.0143 19.5787C84.9704 19.7016 86.9179 19.8858 88.8566 20.1402C89.8085 20.263 90.8477 20.3244 91.7646 20.6052C92.6554 20.8771 93.2492 21.4912 93.712 22.2633C95.7119 25.6321 95.0744 29.6677 94.4107 33.3436C94.2972 33.9665 93.5199 34.3262 92.9436 34.177C92.2711 34.0016 92.0091 33.3787 92.1139 32.7558C92.6466 29.8168 93.2754 26.448 91.7821 23.6933C91.4328 23.0177 91.1795 22.816 90.4198 22.6931Z" fill="#1E1E1E"/>
<path d="M38.6425 123.442C37.1666 123.258 37.35 120.933 38.8346 121.118C44.8516 121.872 50.8773 122.627 56.903 123.381C58.3788 123.565 58.1954 125.89 56.7108 125.706C50.6851 124.951 44.6682 124.197 38.6425 123.442Z" fill="#1E1E1E"/>
<path d="M14.4699 6.62976L16.5309 7.77902C17.2644 8.18258 18.0154 8.59491 18.7403 9.01602C19.3865 9.37571 20.3471 10.2091 21.0283 9.38448C21.3514 9.00724 21.299 8.56859 21.3077 8.12117C21.3077 7.79657 21.3165 7.45442 21.3077 7.12105C21.3077 6.35779 21.2903 5.59454 21.2466 4.84006C21.168 3.34865 20.9322 1.89233 20.5043 0.488647C20.3733 0.0675427 19.8319 -0.107918 19.4389 0.0675427C19.404 0.0850887 19.3603 0.120181 19.3428 0.1465C19.2031 0.172819 19.0634 0.216684 18.9411 0.295641C16.9588 1.58527 14.9589 2.86613 12.9591 4.17331C12.6447 4.37509 12.5487 4.85761 12.6797 5.17344C12.9591 5.95424 13.7975 6.24374 14.4699 6.62976ZM14.8716 4.86638C16.3038 3.93644 17.736 3.0065 19.1769 2.07656C19.3865 2.98896 19.5262 3.94521 19.5786 4.90147C19.6223 5.5419 19.6398 6.18233 19.6485 6.81399C19.6485 7.05086 19.6572 7.29651 19.666 7.54215C19.4476 7.41933 19.238 7.30528 19.0197 7.18246L17.2993 6.2262C16.7404 5.91037 16.199 5.61209 15.6401 5.29626C15.3868 5.15589 15.1249 5.01552 14.8716 4.86638Z" fill="#1E1E1E"/>
<path d="M9.2651 13.6745C9.20397 13.1745 8.83719 12.9288 8.51407 12.6218C8.26955 12.4024 8.03376 12.1744 7.77178 11.955C7.21287 11.4462 6.6365 10.9461 6.04267 10.4724C4.88993 9.54245 3.65859 8.7441 2.33119 8.12122C1.92948 7.92821 1.44044 8.21772 1.30945 8.63005C1.30071 8.66514 1.29198 8.71778 1.30071 8.75287C1.22212 8.8757 1.16972 9.00729 1.14352 9.15643C0.768008 11.5076 0.375028 13.8588 0.00824746 16.2187C-0.0528827 16.5872 0.235302 16.982 0.558419 17.096C1.32691 17.4031 2.10414 16.9732 2.8377 16.7188L5.07332 15.9467C5.86801 15.666 6.67143 15.3853 7.46613 15.1309C8.15602 14.9028 9.42229 14.7448 9.2651 13.6745ZM7.00328 13.464C6.7675 13.5429 6.54044 13.6219 6.30465 13.7096L4.44455 14.3588C3.84198 14.5606 3.24815 14.7712 2.64558 14.9729C2.36613 15.0607 2.08667 15.1659 1.80722 15.2625C2.07794 13.5693 2.34866 11.8761 2.62811 10.1829C3.449 10.6391 4.24369 11.1742 4.98599 11.7708C5.4925 12.1656 5.9728 12.5867 6.44438 12.999C6.62777 13.1482 6.81116 13.3061 7.00328 13.464Z" fill="#59C59F"/>
<path d="M103.668 102.308C103.842 101.58 104.41 100.369 103.484 99.9307C103.056 99.7377 102.663 99.9132 102.253 100.045C101.947 100.141 101.624 100.229 101.318 100.325C100.602 100.554 99.9124 100.782 99.2138 101.045C97.8514 101.554 96.5415 102.194 95.3364 103.028C94.9696 103.282 94.9346 103.879 95.1879 104.221C95.2054 104.256 95.2316 104.273 95.2665 104.291C95.3189 104.414 95.3975 104.537 95.5023 104.633C97.1703 106.238 98.812 107.835 100.48 109.441C100.742 109.704 101.205 109.642 101.484 109.441C102.139 108.932 102.235 108.011 102.427 107.247L103.021 104.852C103.248 104.001 103.449 103.15 103.668 102.308ZM102.104 101.817C102.034 102.063 101.982 102.317 101.912 102.563L101.414 104.563C101.266 105.195 101.091 105.826 100.943 106.458C100.864 106.756 100.794 107.054 100.716 107.353C99.5281 106.195 98.3143 105.045 97.1266 103.887C97.9388 103.414 98.7858 102.992 99.6591 102.659C100.236 102.44 100.838 102.229 101.432 102.045C101.65 101.984 101.869 101.896 102.104 101.817Z" fill="#1E1E1E"/>
<path d="M18.8014 141.348C19.5175 141.734 20.3122 141.866 20.9672 141.945C21.4038 141.997 22.1286 142.076 22.7923 141.804H22.8011H22.8098C23.2377 141.611 23.5696 141.313 23.8141 141.041C24.9756 139.752 25.4209 137.839 24.7747 136.172C24.1721 134.619 22.5565 133.567 20.9759 133.224C19.3778 132.882 17.4565 133.189 16.3824 134.83C15.8584 135.619 15.7973 136.567 15.9632 137.374C16.1291 138.172 16.5134 138.874 16.8976 139.462C17.3255 140.12 17.9281 140.874 18.8014 141.348ZM17.8233 135.777C18.356 134.961 19.404 134.663 20.6004 134.918C21.8055 135.181 22.8185 135.944 23.1416 136.795C23.5259 137.786 23.2726 139.006 22.5129 139.848C22.3644 140.015 22.2334 140.12 22.1112 140.173C21.9278 140.252 21.6483 140.243 21.168 140.19C20.548 140.111 20.0327 140.015 19.6223 139.795C19.1333 139.532 18.7315 139.067 18.3386 138.471C17.998 137.953 17.7535 137.471 17.6574 136.997C17.5526 136.523 17.6225 136.076 17.8233 135.777Z" fill="#1E1E1E"/>
<path d="M89.2059 127.004C89.922 127.39 90.7167 127.522 91.3716 127.601C91.8083 127.654 92.5331 127.732 93.1968 127.461H93.2055H93.2143C93.6422 127.268 93.974 126.969 94.2185 126.697C95.38 125.408 95.8254 123.495 95.1792 121.828C94.5766 120.275 92.961 119.223 91.3804 118.881C89.7822 118.538 87.861 118.845 86.7869 120.486C86.2629 121.276 86.2018 122.223 86.3677 123.03C86.5336 123.828 86.9179 124.53 87.3021 125.118C87.73 125.785 88.3326 126.539 89.2059 127.004ZM88.2278 121.442C88.7605 120.626 89.8084 120.328 91.0048 120.582C92.21 120.846 93.223 121.609 93.5461 122.46C93.9304 123.451 93.6771 124.671 92.9173 125.513C92.7689 125.68 92.6379 125.785 92.5156 125.838C92.3322 125.916 92.0528 125.908 91.5725 125.855C90.9524 125.776 90.4372 125.68 90.0268 125.46C89.5377 125.197 89.136 124.732 88.743 124.136C88.4024 123.618 88.1579 123.135 88.0619 122.662C87.9571 122.179 88.0269 121.741 88.2278 121.442Z" fill="#F7C300"/>
</svg>
