<svg width="185" height="12" viewBox="0 0 185 12" fill="none" xmlns="http://www.w3.org/2000/svg">
<path d="M184.28 7.9929C182.16 6.43226 179.897 4.99935 177.776 3.43871C175.66 2.0021 174.16 1.29488 171.708 2.72203C169.688 3.89003 167.241 5.44121 165.681 7.09424C165.533 7.09794 165.529 6.97391 165.382 6.97761C165.069 6.48888 164.319 6.13527 163.864 5.77427C162.801 4.93194 161.886 4.08591 160.828 3.3676C159.158 2.04394 157.35 0.972024 155.027 1.89936C152.699 2.70267 151.3 4.72409 149.436 6.13646C149.294 6.26418 149.151 6.39191 149.008 6.51963C149.441 6.26049 149.285 6.01612 148.696 6.03091C148.24 5.66991 147.5 5.56435 146.902 5.33108C145.853 4.86083 144.804 4.39059 143.755 3.92034C141.358 2.86321 139.1 1.55433 136.841 0.245442C136.087 -0.232196 134.771 0.0491241 134.2 0.560024C133.211 1.70216 132.217 2.72026 131.228 3.86239C130.662 4.49732 130.096 5.13225 129.53 5.76718C129.387 5.8949 129.245 6.02263 129.107 6.27438C128.964 6.40211 128.964 6.40211 128.964 6.40211C127.621 5.93925 126.406 4.97659 125.201 4.26198C123.849 3.55106 122.492 2.71612 120.992 2.0089C118.434 0.583382 115.904 -0.0979655 113.171 1.70866C111.161 3.12472 109.297 4.53709 107.286 5.95315C105.63 5.00157 103.979 4.17402 102.176 3.22613C100.524 2.39858 98.859 1.19895 96.8117 1.62277C94.9116 2.04291 93.2 3.5756 91.6172 4.60849C90.7523 5.12678 89.8873 5.64507 89.1695 6.15967C88.3045 6.67796 87.7157 6.69274 86.6714 6.34652C83.2396 5.19124 80.5026 2.90121 76.6613 2.62521C72.6726 2.35291 69.958 4.65565 66.9305 6.46967C65.9229 7.11568 66.0655 6.98796 65.0121 6.39368C64.1105 5.91974 63.3561 5.4421 62.4544 4.96816C60.6512 4.02028 58.848 3.07239 56.7732 2.75205C54.703 2.55573 52.9638 3.34425 51.0775 4.13647C50.0607 4.53443 49.0439 4.93239 48.0272 5.33035C47.0104 5.7283 45.423 6.63716 44.1027 6.79445C42.336 6.8388 40.0774 5.52992 38.5732 4.69867C36.9171 3.74709 35.5372 2.292 33.4624 1.97165C31.5349 1.64761 29.6439 2.3158 28.2084 3.34499C26.6257 4.37788 25.213 6.02722 23.1337 5.58284C21.0589 5.26249 19.3891 3.93883 17.5904 3.11497C15.64 2.17078 13.5514 1.47835 11.1868 1.28942C6.89917 0.900482 2.53304 2.37568 0.296646 5.65956C-1.09766 7.80502 2.79869 9.56937 4.193 7.42391C6.1487 4.5195 10.418 4.41232 13.7072 5.69534C16.9963 6.97835 19.7379 9.39241 23.5701 9.42035C25.3413 9.50003 26.9378 8.83923 28.3825 8.0581C29.5327 7.28436 31.5205 5.24815 33.0201 5.95537C34.5152 6.53856 35.8905 7.86962 37.3948 8.70086C39.0462 9.52841 40.9921 10.3486 42.7679 10.5523C44.6909 10.7523 46.2874 10.0915 48.0311 9.427C50.2119 8.62739 52.3789 7.45569 54.5643 6.78011C56.4598 6.23595 58.2768 7.55592 59.7764 8.26314C61.2806 9.09438 62.955 10.5421 64.878 10.7421C68.2869 11.2772 70.9558 7.7342 73.7163 6.67175C76.9138 5.47418 80.097 7.87715 82.7927 9.05092C84.4442 9.87847 86.3855 10.5746 88.2901 10.2785C90.342 9.9787 92.0582 8.57003 93.641 7.53715C94.506 7.01885 95.7897 5.86933 96.8111 5.5954C96.9583 5.59171 97.239 5.21223 97.239 5.21223C97.5334 5.20484 98.5914 5.92314 98.8904 6.03978C100.997 7.22833 103.251 8.41318 105.358 9.60174C105.358 9.60174 105.505 9.59804 105.51 9.72207C106.264 10.1997 107.447 10.2942 108.303 9.52782C109.595 8.62635 110.741 7.72858 112.034 6.82712C112.605 6.31622 113.327 5.92565 113.897 5.41475C114.33 5.15561 115.181 4.26523 115.765 4.12642C116.939 3.97282 119.064 5.65749 119.965 6.13143C121.318 6.84234 122.523 7.55695 123.876 8.26787C125.982 9.45642 128.554 11.254 130.845 9.45849C131.991 8.56072 132.828 7.29825 133.675 6.28384C134.241 5.64891 134.95 4.88626 135.516 4.25133C139.278 6.39146 143.179 8.27984 147.356 9.66471C149.891 10.4701 151.318 9.19284 153.034 7.78417C153.89 7.01782 154.736 6.00341 155.748 5.48142C156.613 4.96313 156.034 5.22597 156.784 5.57958C157.234 5.81655 157.846 6.42191 158.301 6.78292C159.364 7.62525 160.279 8.47128 161.337 9.18958C162.096 9.79125 163.012 10.6373 164.056 10.9835C166.439 11.6685 167.852 10.0192 169.43 8.86229C170.433 8.09224 171.436 7.3222 172.586 6.54846C172.586 6.54846 173.451 6.03017 173.884 5.77102C174.035 5.89135 174.187 6.01169 174.339 6.13202C176.46 7.69266 178.723 9.12557 180.843 10.6862C183.406 12.2358 186.401 9.55354 184.28 7.9929Z" fill="#F7C300"/>
</svg>
