<svg width="39" height="64" viewBox="0 0 39 64" fill="none" xmlns="http://www.w3.org/2000/svg">
<path d="M30.4794 40.2829C29.0129 36.677 27.5408 33.0738 26.0826 29.466C24.6653 25.9593 23.6768 22.4109 22.9324 18.7047C22.111 14.6152 21.3935 10.495 19.8648 6.59484C19.5278 5.73535 18.802 5.11811 17.8284 5.26477C16.9587 5.39564 16.1725 6.15024 16.2189 7.0877C16.6366 15.6148 14.8758 24.1253 11.01 31.7456C10.725 32.3071 10.7436 32.8483 10.9376 33.3058C9.52305 40.2263 10.0011 47.4522 12.4793 54.0858C12.6983 54.6724 13.1346 55.1486 13.685 55.35C13.9003 55.608 14.2048 55.8206 14.6132 55.9468C18.053 57.0133 21.6636 56.1575 24.9567 54.7885C24.9549 55.1198 24.953 55.4502 24.9512 55.7816C24.9456 56.9177 26.1522 57.9795 27.3013 57.5721C30.5425 56.4202 33.0644 54.1062 33.366 50.5244C33.663 46.9751 31.776 43.4712 30.4794 40.2829Z" fill="#F7C300"/>
<path d="M28.1478 39.1527C28.0382 38.9624 27.8897 38.8576 27.7319 38.7879C27.4897 37.78 27.2029 36.7822 26.8836 35.8039C25.7475 32.3288 24.2828 28.9651 22.5499 25.7471C22.511 25.6738 22.4562 25.632 22.4089 25.5782C22.007 21.5072 21.3136 17.4733 20.12 13.5462C18.8549 9.3843 17.1526 5.29198 17.0059 0.888717C16.9772 0.0264428 16.0026 -0.205601 15.4782 0.180519C15.2647 0.273337 15.093 0.4599 15.0419 0.779192C13.7954 8.61113 12.8941 16.6009 10.6637 24.2295C9.79218 27.2099 8.78419 30.1949 7.94976 33.2133C7.9479 33.2189 7.94697 33.2254 7.94512 33.231C7.08841 36.332 6.41641 39.4674 6.26883 42.6714C6.23263 42.7123 6.19087 42.7373 6.15931 42.7884C4.80046 44.9891 3.87692 47.459 3.4973 50.0198C3.31259 51.2654 3.22906 52.5222 3.29032 53.7808C3.35344 55.0728 3.47596 56.4539 4.23892 57.5426C4.33359 57.6772 4.44682 57.7719 4.56748 57.8387C4.69278 58.0086 4.858 58.1478 5.05385 58.1924C5.57548 58.3112 6.02009 58.0337 6.19551 57.5445C6.55286 56.5486 6.91113 55.7243 7.41698 54.7553C7.66017 54.2903 7.91913 53.8346 8.19202 53.3872C8.65332 54.3646 9.19352 55.3085 9.84417 56.194C9.9639 56.3564 10.1115 56.4613 10.2683 56.5235C10.4345 56.7593 10.6842 56.9319 10.9923 56.9106C12.134 56.8298 13.2765 56.7491 14.4182 56.6683C14.0627 56.8539 13.9448 57.1612 13.9875 57.4656C13.5931 58.4374 15.0577 59.2468 15.6378 58.2648C15.6722 58.2072 15.7056 58.1478 15.739 58.0903C18.272 56.9328 21.0008 56.1235 23.3129 54.5484C23.2192 54.708 23.1412 54.8769 23.0419 55.0319C22.7198 55.5285 22.4608 55.8719 22.0961 56.2952C21.7694 56.6748 21.7229 57.2345 22.0961 57.6076C22.1648 57.6763 22.2529 57.7246 22.3439 57.7682C22.5342 58.0726 22.8767 58.2713 23.3278 58.1441C25.2611 57.5965 27.2391 56.9848 28.7799 55.6343C30.1684 54.4175 31.0298 52.6484 31.35 50.8477C32.0981 46.6236 30.1963 42.716 28.1478 39.1527ZM5.24598 55.0208C5.15409 54.4546 5.1411 53.868 5.12996 53.3111C5.10675 52.2205 5.17452 51.1243 5.36108 50.0495C5.57178 48.8336 5.91612 47.6567 6.36629 46.5224C6.52779 48.1495 6.83873 49.7571 7.34923 51.296C6.53615 52.473 5.84187 53.7232 5.24598 55.0208ZM16.5976 31.4646C16.6208 31.46 16.772 31.4006 16.8018 31.3932C16.8788 31.3728 16.9558 31.3598 17.0329 31.3421C16.8166 31.3895 17.0895 31.3384 17.1415 31.3347C17.2352 31.3291 17.329 31.3264 17.4227 31.3273C17.7865 31.3291 18.1485 31.3681 18.5096 31.4071C18.6043 31.4173 18.698 31.4284 18.7927 31.4387C18.815 31.4414 18.8261 31.4424 18.8391 31.4433C18.8493 31.4452 18.854 31.4461 18.8679 31.4479C19.0544 31.4767 19.241 31.5073 19.4257 31.5482C19.6095 31.589 19.7914 31.6373 19.9687 31.6976C20.0448 31.7236 20.12 31.7515 20.1952 31.7812C19.9975 31.7023 20.3028 31.8396 20.3372 31.8573C20.5274 31.9566 20.7493 31.9816 20.96 31.951C20.973 32.3297 20.9906 32.7093 20.9999 33.088C19.5213 33.0203 18.0381 33.1391 16.5864 33.4287C16.5901 32.7743 16.5939 32.1199 16.5976 31.4646ZM20.8876 30.0882C20.1302 29.7726 19.3329 29.6389 18.5096 29.5517C17.8562 29.4821 17.2269 29.4598 16.6068 29.5712C16.6068 29.4895 16.6078 29.4069 16.6078 29.3252C16.6096 28.8732 16.6152 28.4202 16.618 27.9682C17.3382 28.0072 17.962 28.1009 18.724 28.2959C19.1593 28.4072 19.5881 28.5418 20.0086 28.7005C20.262 28.7961 20.2796 28.8017 20.5247 28.9168C20.6277 28.9651 20.727 29.0208 20.8282 29.0737C20.8477 29.4106 20.8709 29.7485 20.8876 30.0882ZM16.7526 9.1077C16.993 9.89015 17.2445 10.6689 17.4998 11.4476C18.6683 15.009 19.6113 18.5918 20.1618 22.3045C20.391 23.8536 20.5553 25.4102 20.6824 26.9714C19.3932 26.4664 18.0112 26.2056 16.6328 26.1286C16.6514 23.0823 16.67 20.036 16.7015 16.9898C16.7275 14.3983 16.6356 11.7382 16.7526 9.1077ZM12.2676 25.348C13.3582 21.6984 14.1388 17.9968 14.7616 14.2414C14.796 14.0326 14.8285 13.8228 14.8628 13.614C14.8628 14.4373 14.8628 15.2587 14.8544 16.0764C14.8182 19.3325 14.7978 22.5885 14.7774 25.8446C13.6051 26.459 12.4941 27.1885 11.4508 28.0053C11.7274 27.1208 12.0031 26.2353 12.2676 25.348ZM14.7607 27.9923C14.7598 28.2838 14.7551 28.5762 14.7542 28.8676C14.7542 28.9576 14.7533 29.0477 14.7523 29.1377C14.7449 29.1414 14.7366 29.1414 14.7291 29.1451C13.5652 29.742 12.4004 30.3378 11.2355 30.9347C11.0137 31.0479 10.7937 31.1639 10.5746 31.2799C11.8509 29.9731 13.2069 28.9075 14.7607 27.9923ZM9.62419 34.097C10.3927 33.4296 11.3562 32.9553 12.2834 32.4801L14.7375 31.2233C14.7338 31.6967 14.7291 32.171 14.7254 32.6453C12.8422 33.4992 11.0127 34.4627 9.24828 35.5393C9.36894 35.0576 9.49239 34.5759 9.62419 34.097ZM8.6858 38.0965C10.6136 36.8258 12.6259 35.6925 14.7078 34.6966C14.7022 35.3621 14.6985 36.0276 14.6948 36.6931C13.3174 37.3483 11.9391 38.0027 10.5616 38.658C9.87015 38.9866 9.17124 39.3003 8.55771 39.7635C8.50295 39.8043 8.45375 39.8526 8.40085 39.8971C8.48253 39.2947 8.57535 38.6933 8.6858 38.0965ZM8.11311 43.9922C8.11311 43.4947 8.1224 42.9963 8.14931 42.4979C8.68209 42.1795 9.08306 41.7033 9.56942 41.3144C10.1384 40.8587 10.8457 40.5728 11.4982 40.2628L14.6892 38.7462C14.6892 39.5361 14.6967 40.3259 14.7022 41.1149C12.4663 42.0226 10.1319 42.677 8.11311 43.9922ZM8.21428 46.1706C8.26533 46.1391 8.3201 46.1177 8.36744 46.0778C10.1737 44.5621 12.5145 43.8808 14.7208 43.0696C14.7338 43.9031 14.7533 44.7357 14.7774 45.5683C12.5609 46.2208 10.4493 47.2213 8.55586 48.5449C8.39714 47.7634 8.28482 46.9707 8.21428 46.1706ZM9.59634 51.9216C9.38843 51.4204 9.1963 50.9145 9.03572 50.3985C9.09513 50.3771 9.15917 50.3697 9.21208 50.3307C10.9376 49.0814 12.831 48.1393 14.847 47.4914C14.8739 48.1542 14.9157 48.8159 14.9519 49.4777C14.8609 49.5594 14.7867 49.6569 14.7384 49.7664C14.7059 49.7757 14.6725 49.785 14.64 49.7933C14.3412 49.8741 14.0404 49.9492 13.7406 50.0272C13.1596 50.1776 12.5786 50.3344 12.0142 50.5414C11.1371 50.8644 10.2971 51.3035 9.59634 51.9216ZM15.2266 54.7535C13.9161 54.8463 12.6064 54.9391 11.2967 55.0319C10.983 54.5892 10.7055 54.1335 10.4456 53.6712C10.4493 53.6675 10.454 53.6666 10.4567 53.6638C11.1984 52.8322 12.1553 52.4154 13.2329 52.0924C13.8437 51.9096 14.4646 51.7629 15.08 51.5986C15.0809 51.5986 15.0818 51.5977 15.0837 51.5977C15.1496 52.5166 15.2192 53.4355 15.312 54.3525C15.3306 54.5326 15.3984 54.6755 15.4847 54.8008C15.4021 54.772 15.3185 54.747 15.2266 54.7535ZM16.5771 35.3156C17.3865 35.13 18.0566 35.0233 18.8521 34.962C19.5826 34.9063 20.3149 34.9091 21.0463 34.9453C21.0593 35.5653 21.0723 36.1844 21.0806 36.81C20.3994 36.7562 19.6902 36.8546 19.0247 36.9167C18.2024 36.9929 17.3837 37.1015 16.5679 37.223C16.5688 36.5863 16.5734 35.9514 16.5771 35.3156ZM16.5679 39.0497C16.6421 39.0506 16.7136 39.058 16.7906 39.046C17.2426 38.9764 17.471 38.9448 17.8292 38.9003C18.2265 38.852 18.6247 38.8084 19.0238 38.7722C19.4062 38.7369 19.7896 38.7063 20.1738 38.6821C20.3567 38.6701 20.5395 38.6571 20.7224 38.6524C20.8226 38.6496 20.9275 38.6636 21.0268 38.6561C21.0407 38.6571 21.037 38.6561 21.0444 38.6571C21.0556 38.6589 21.0658 38.6617 21.076 38.6636C21.0602 39.5862 21.0277 40.5088 20.9368 41.4221C19.4823 41.5084 18.026 41.5585 16.5688 41.5715C16.5595 40.7315 16.5679 39.8906 16.5679 39.0497ZM16.5985 43.4279C17.8172 43.4168 19.0359 43.375 20.2536 43.3119C20.1218 43.5272 19.9854 43.7388 19.8397 43.9449C19.8007 44.0006 19.7608 44.0553 19.7199 44.1101C19.7097 44.124 19.6791 44.1649 19.6605 44.189C19.5863 44.2818 19.512 44.3737 19.435 44.4637C19.2586 44.6689 19.0721 44.8666 18.8753 45.0531C18.7778 45.1459 18.6767 45.236 18.5736 45.3232C18.5337 45.3576 18.492 45.391 18.4511 45.4244C18.4381 45.4346 18.4335 45.4392 18.4251 45.4457C18.414 45.4532 18.4056 45.4597 18.3861 45.4727C18.181 45.6184 17.9713 45.7567 17.7513 45.8792C17.6353 45.9432 17.5183 46.0036 17.3986 46.0602C17.3642 46.076 17.3308 46.0918 17.315 46.0992C17.2714 46.1168 17.2269 46.1345 17.1823 46.1502C17.0125 46.2124 16.8352 46.2514 16.6597 46.295C16.6282 45.3399 16.6152 44.3839 16.5985 43.4279ZM16.7414 48.1672C16.7869 48.1634 16.8305 48.1718 16.8769 48.1625C17.8627 47.9695 18.7778 47.5026 19.5724 46.8881C18.8354 48.7009 17.9443 50.4774 16.9865 52.2186C16.8788 50.87 16.8036 49.5186 16.7414 48.1672ZM22.2873 53.0234C20.7381 54.0694 18.9997 54.7618 17.2631 55.4533C18.6618 52.9862 19.9928 50.4718 21.1354 47.8878C22.7467 44.2438 22.9342 40.6164 22.9156 36.6856C22.9064 34.5759 22.8572 32.4606 22.7551 30.3471C23.5514 32.0949 24.2754 33.8751 24.8936 35.6981C25.9536 38.8204 26.8233 42.1219 26.4928 45.4467C26.1958 48.4484 24.8286 51.3081 22.2873 53.0234ZM29.6004 50.0848C29.3952 51.594 28.7836 53.0893 27.6595 54.1446C26.8344 54.9196 25.8125 55.4013 24.7488 55.7717C25.6575 54.3126 26.3109 52.7013 26.6339 51.0027C26.6348 50.9953 26.633 50.9879 26.6339 50.9814C27.4906 49.5056 28.0373 47.8442 28.2694 46.1242C28.3817 45.2935 28.4188 44.4609 28.403 43.6312C29.3136 45.6722 29.9057 47.8358 29.6004 50.0848Z" fill="black"/>
<path d="M26.4899 58.9041C20.2879 59.1296 14.0811 59.2206 7.87444 59.176C6.67895 59.1677 6.67803 61.024 7.87444 61.0324C14.0811 61.0769 20.2879 60.986 26.4899 60.7604C27.6808 60.7168 27.6873 58.8605 26.4899 58.9041Z" fill="black"/>
<path d="M37.2958 61.5466C25.4959 61.9475 13.6886 62.1471 1.88221 62.1434C0.687652 62.1434 0.685795 63.9997 1.88221 63.9997C13.6895 64.0034 25.4959 63.8039 37.2958 63.4029C38.4866 63.3621 38.4922 61.5057 37.2958 61.5466Z" fill="black"/>
</svg>
