<svg width="65" height="52" viewBox="0 0 65 52" fill="none" xmlns="http://www.w3.org/2000/svg">
<path d="M61.4081 13.743C61.5136 13.2182 61.3883 12.6473 60.8899 12.1536C57.0552 8.36417 50.9659 6.99425 45.9215 8.99919C45.7727 9.05855 45.6342 9.13392 45.5023 9.21778C44.7438 9.54754 44.1399 10.1713 43.8591 11.1002C43.4041 12.604 43.6999 14.3894 43.7018 15.9402C43.7065 19.4451 43.5736 22.9481 43.4295 26.4501C43.1459 33.361 42.8576 40.2709 42.5712 47.1817C42.5222 48.3773 43.4135 48.9794 44.3406 48.9954C44.4687 49.0227 44.6044 49.0397 44.7495 49.0416C49.9795 49.1122 55.1888 48.7316 60.3622 47.9694C60.7335 47.9147 61.0415 47.7056 61.2724 47.4201C61.8066 46.8416 61.9112 45.9155 61.5795 45.2022C60.3943 34.7337 62.729 24.2162 61.4081 13.743Z" fill="#F7C300"/>
<path d="M25.6082 13.743C25.7137 13.2182 25.5884 12.6473 25.09 12.1536C21.2553 8.36417 15.1661 6.99425 10.1217 8.99919C9.97282 9.05855 9.83432 9.13392 9.70241 9.21778C8.94396 9.54754 8.34003 10.1713 8.05926 11.1002C7.60419 12.604 7.90003 14.3894 7.90192 15.9402C7.90663 19.4451 7.77378 22.9481 7.62963 26.4501C7.34603 33.361 7.05773 40.2709 6.77131 47.1817C6.72232 48.3773 7.61361 48.9794 8.54071 48.9954C8.66885 49.0227 8.80452 49.0397 8.94961 49.0416C14.1796 49.1122 19.3889 48.7316 24.5624 47.9694C24.9336 47.9147 25.2417 47.7056 25.4725 47.4201C26.0067 46.8416 26.1113 45.9155 25.7797 45.2022C24.5944 34.7337 26.9291 24.2162 25.6082 13.743Z" fill="#F7C300"/>
<path d="M36.3196 4.79256C36.2537 4.57492 36.1548 4.36576 36.0558 4.1613C36.0389 4.12644 36.02 4.09441 35.9984 4.06238C35.678 3.60165 35.5103 3.41699 35.0373 3.10607C34.6162 2.83001 34.1555 2.75653 33.6684 2.71884C33.4272 2.69999 33.1059 2.77443 32.9212 2.80269C32.8788 2.80929 32.8374 2.81777 32.7969 2.8319C32.2212 3.02975 32.0167 3.16449 31.5579 3.54795C31.3393 3.73073 31.1612 4.00585 31.0039 4.21972C30.9445 4.2998 30.8927 4.38554 30.8437 4.47222C30.709 4.68327 30.6383 4.91222 30.6006 5.14965C30.5922 5.17791 30.579 5.20523 30.5714 5.2335C30.5083 5.47375 30.4838 5.73003 30.4659 5.97405C30.4621 6.01456 30.464 6.05225 30.4669 6.09371C30.5055 6.57045 30.578 7.05095 30.8616 7.45703C31.1565 7.87912 31.3732 8.13445 31.8245 8.40392C32.0535 8.54053 32.3116 8.65924 32.5754 8.70729C33.1945 8.81941 33.3687 8.8213 33.9953 8.70259C34.0311 8.69599 34.065 8.68563 34.0989 8.67338C34.3213 8.59612 34.5653 8.50378 34.7764 8.3813C35.2898 8.08358 35.6187 7.70388 35.9522 7.22432C36.1058 7.0029 36.2103 6.69104 36.2942 6.46681C36.3074 6.43195 36.3187 6.39614 36.3272 6.36034C36.3837 6.11349 36.4205 5.85816 36.428 5.60566C36.4355 5.33337 36.3978 5.05166 36.3196 4.79256Z" fill="#F7C300"/>
<path d="M32.3984 49.7755C30.5866 49.7811 28.7748 49.7905 26.9621 49.7887C26.8688 46.0134 26.9998 42.2164 27.4605 38.4675C27.6668 36.7914 28.1125 35.1482 29.0688 33.734C29.6492 32.8748 30.3388 32.6505 31.346 32.6317C31.6965 32.6251 32.0479 32.6326 32.3984 32.6402V30.7115C30.9937 30.6484 29.5257 30.7351 28.4724 31.5859C27.0271 32.7523 26.2149 34.9051 25.8513 36.6698C25.4245 38.7332 25.3058 40.8908 25.1842 42.9909C25.0523 45.2521 25.024 47.5171 25.0787 49.7811C24.8846 49.7811 24.6905 49.7792 24.4964 49.7783C24.2712 39.3447 24.0527 28.911 23.8341 18.4774C26.6879 18.3681 29.5436 18.3662 32.3984 18.4293V16.545C29.5305 16.4809 26.6615 16.4838 23.7936 16.594C23.7785 15.8676 23.7625 15.1402 23.7474 14.4138C26.6276 14.2254 29.5144 14.1848 32.3984 14.2847V12.4004C29.5012 12.2996 26.6012 12.341 23.7078 12.5313C23.6824 11.3291 23.6569 10.1269 23.6315 8.92469C24.6283 8.94636 25.6261 8.96898 26.6229 8.99159C26.8 8.99536 26.9659 8.9247 27.1157 8.82859C27.4492 8.75416 27.7507 8.51956 27.8317 8.17378C28.0691 7.15906 28.3725 6.16224 28.7503 5.19086C29.0471 4.42676 29.3938 3.62591 29.896 2.98052C30.3615 2.3813 30.9918 1.93942 31.7728 1.89136C31.982 1.87817 32.1912 1.8876 32.3994 1.90738V0.0268025C32.2128 0.0145543 32.0272 -0.00711304 31.8397 0.0023087C30.6752 0.0560126 29.6021 0.530866 28.7984 1.37977C28.0503 2.17119 27.5726 3.14352 27.1571 4.13845C26.7548 5.09947 26.4382 6.09064 26.1744 7.09688C25.1983 7.07521 24.2223 7.05354 23.2452 7.03187C22.694 6.62767 21.7038 6.85757 21.7227 7.74321C21.7472 8.90208 21.7717 10.061 21.7962 11.2198C19.7846 9.84426 17.0316 9.72366 14.5923 9.77265C11.3578 9.83766 7.34414 10.3474 5.07727 12.9346C4.96987 13.0571 4.90675 13.1871 4.87 13.318C4.77578 13.4547 4.70418 13.6148 4.70041 13.8231C4.50915 25.7227 4.39609 37.6233 4.36028 49.5239C4.36028 49.5512 4.37347 49.5701 4.37536 49.5965C3.3531 49.5804 2.33084 49.5748 1.30858 49.5559C0.0950575 49.5343 0.0950575 51.4186 1.30858 51.4403C11.6706 51.6231 22.0345 51.6871 32.3984 51.657V49.7755ZM22.548 46.7407C21.0575 46.4581 19.5528 46.2169 18.0463 46.0501C18.3045 41.1197 18.3958 36.1846 18.3827 31.2486C19.6631 31.3042 20.9435 31.3597 22.2239 31.4323C22.3313 36.5351 22.4378 41.6379 22.548 46.7407ZM21.8838 15.3965C21.9827 20.113 22.0835 24.8305 22.1834 29.547C20.9133 29.4754 19.6423 29.4198 18.3713 29.3652C18.3393 25.0057 18.2404 20.6453 18.116 16.2859C19.4172 16.1455 20.7013 15.8958 21.8838 15.3965ZM21.5305 13.4867C20.479 14.0209 19.2843 14.281 18.0614 14.4232C18.035 13.5395 18.0086 12.6557 17.9813 11.7719C19.3616 11.9698 20.6608 12.4324 21.5305 13.4867ZM10.5268 12.0989C10.5268 12.9374 10.5268 13.7759 10.5268 14.6135C9.25205 14.5203 7.99048 14.3215 6.75435 13.9512C7.76624 12.9817 9.11167 12.4249 10.5268 12.0989ZM6.55838 15.8647C7.85481 16.2284 9.1861 16.4216 10.5278 16.5092L10.5306 29.1061C9.15218 29.074 7.77472 29.0288 6.39538 29.0118C6.4406 24.6289 6.49148 20.2468 6.55838 15.8647ZM6.37182 30.8952C7.7587 30.9113 9.1437 30.9574 10.5306 30.9895C10.5315 36.0113 10.5325 41.034 10.5334 46.0558C9.08999 46.2583 7.66166 46.5966 6.25971 47.1157C6.28043 41.7095 6.32 36.3024 6.37182 30.8952ZM6.22484 49.62C6.22767 49.5852 6.24463 49.5606 6.24463 49.5239C6.24463 49.3948 6.24652 49.2658 6.24652 49.1367C7.63811 48.5356 9.07398 48.1521 10.5334 47.926C10.5334 48.5092 10.5334 49.0933 10.5334 49.6765C9.09753 49.6558 7.66072 49.6407 6.22484 49.62ZM12.4112 11.787C13.0528 11.7192 13.6869 11.6815 14.2851 11.6636C14.8514 11.6466 15.4647 11.6287 16.0922 11.6363C16.1224 12.6124 16.1516 13.5894 16.1808 14.5664C15.4402 14.5994 14.7091 14.6173 14.0138 14.6465C13.4786 14.6691 12.9444 14.6804 12.4112 14.6804C12.4112 13.7157 12.4112 12.7509 12.4112 11.787ZM14.3134 16.5167C14.9418 16.4866 15.5853 16.4621 16.2345 16.4282C16.357 20.7132 16.4531 24.9991 16.4861 29.2851C15.1293 29.2342 13.7717 29.1861 12.414 29.1475L12.4112 16.5657C13.0462 16.5657 13.6812 16.5478 14.3134 16.5167ZM15.9377 49.7416C15.7512 49.7406 15.5646 49.7406 15.3781 49.7387C14.3916 49.7302 13.4061 49.7123 12.4196 49.7001C12.4196 49.0387 12.4196 48.3773 12.4196 47.7168C13.6256 47.6377 14.8429 47.6556 16.0602 47.7375C16.0187 48.4056 15.9839 49.0745 15.9377 49.7416ZM16.1723 45.8824C14.9173 45.8033 13.6633 45.7891 12.4187 45.8654C12.4178 40.9209 12.4168 35.9773 12.4159 31.0328C13.7773 31.0714 15.1388 31.1195 16.4992 31.1704C16.5115 36.0763 16.4248 40.9812 16.1723 45.8824ZM17.8211 49.75C17.8645 49.1376 17.8956 48.5252 17.9323 47.9128C19.501 48.0965 21.0603 48.3632 22.5876 48.6637C22.5951 49.033 22.6036 49.4014 22.6111 49.7708C21.0151 49.766 19.4181 49.7576 17.8211 49.75Z" fill="black"/>
<path d="M32.3983 51.6567C42.7623 51.6868 53.1262 51.6218 63.4882 51.44C64.7017 51.4183 64.7017 49.534 63.4882 49.5556C62.4659 49.5735 61.4437 49.5801 60.4214 49.5961C60.4233 49.5698 60.4365 49.5518 60.4365 49.5236C60.4007 37.623 60.2876 25.7224 60.0964 13.8227C60.0935 13.6136 60.021 13.4543 59.9268 13.3177C59.89 13.1868 59.8269 13.0567 59.7195 12.9343C57.4536 10.3471 53.439 9.83733 50.2045 9.77233C47.7652 9.72333 45.0112 9.84487 43.0006 11.2195C43.0251 10.0606 43.0496 8.90176 43.0741 7.74288C43.093 6.85724 42.1027 6.62735 41.5516 7.03154C40.5745 7.05321 39.5984 7.07488 38.6223 7.09655C38.3585 6.09031 38.042 5.09914 37.6397 4.13813C37.2242 3.14413 36.7474 2.17086 35.9984 1.37944C35.1957 0.53054 34.1216 0.0556858 32.9571 0.00198193C32.7686 -0.00649764 32.584 0.0142275 32.3974 0.0264758V1.90612C32.6056 1.88633 32.8138 1.87691 33.0239 1.8901C33.805 1.93909 34.4353 2.38097 34.9008 2.97925C35.4029 3.62464 35.7487 4.42549 36.0464 5.18959C36.4243 6.16097 36.7276 7.15779 36.9651 8.17251C37.0461 8.51829 37.3466 8.75289 37.6811 8.82733C37.8309 8.92437 37.9967 8.99409 38.1739 8.99032C39.1707 8.96865 40.1685 8.94604 41.1653 8.92343C41.1398 10.1256 41.1144 11.3279 41.089 12.5301C38.1955 12.3388 35.2955 12.2983 32.3983 12.3991V14.2835C35.2823 14.1836 38.1692 14.2241 41.0494 14.4125C41.0343 15.1389 41.0183 15.8663 41.0032 16.5927C38.1362 16.4825 35.2673 16.4797 32.3983 16.5437V18.4281C35.2531 18.365 38.1089 18.3668 40.9627 18.4761C40.7441 28.9098 40.5255 39.3434 40.3004 49.777C40.1063 49.777 39.9122 49.7789 39.7181 49.7799C39.7737 47.5158 39.7445 45.2508 39.6126 42.9896C39.491 40.8904 39.3723 38.7329 38.9455 36.6686C38.5809 34.9039 37.7687 32.751 36.3244 31.5846C35.2701 30.7338 33.8031 30.6481 32.3983 30.7103V32.6389C32.7498 32.6313 33.1003 32.6238 33.4508 32.6304C34.4579 32.6502 35.1476 32.8735 35.728 33.7328C36.6843 35.147 37.1299 36.7901 37.3363 38.4662C37.797 42.2161 37.928 46.013 37.8347 49.7874C36.0229 49.7883 34.2101 49.7789 32.3983 49.7742V51.6567ZM42.5729 31.4329C43.8524 31.3604 45.1328 31.3048 46.4141 31.2492C46.4019 36.1852 46.4923 41.1203 46.7505 46.0507C45.243 46.2175 43.7393 46.4587 42.2488 46.7413C42.3581 41.6376 42.4655 36.5348 42.5729 31.4329ZM46.6808 16.2856C46.5564 20.6441 46.4575 25.0045 46.4254 29.3648C45.1544 29.4195 43.8834 29.4751 42.6134 29.5467C42.7123 24.8302 42.8131 20.1127 42.913 15.3962C44.0954 15.8955 45.3787 16.1452 46.6808 16.2856ZM46.8155 11.7716C46.7882 12.6554 46.7618 13.5391 46.7354 14.4229C45.5125 14.2806 44.3178 14.0206 43.2663 13.4864C44.1359 12.4321 45.4352 11.9695 46.8155 11.7716ZM58.0415 13.9518C56.8054 14.3221 55.5438 14.5209 54.269 14.6142C54.269 13.7756 54.269 12.9371 54.269 12.0995C55.6842 12.4245 57.0305 12.9814 58.0415 13.9518ZM58.4005 29.0115C57.0221 29.0275 55.6437 29.0737 54.2653 29.1057L54.2681 16.5089C55.6097 16.4222 56.9401 16.2281 58.2375 15.8644C58.3053 20.2465 58.3552 24.6285 58.4005 29.0115ZM58.5361 47.1154C57.1342 46.5962 55.7058 46.258 54.2624 46.0554C54.2634 41.0337 54.2643 36.0109 54.2653 30.9891C55.6512 30.9571 57.0371 30.9109 58.424 30.8949C58.4768 36.3021 58.5154 41.7092 58.5361 47.1154ZM54.2615 49.6762C54.2615 49.093 54.2615 48.5089 54.2615 47.9257C55.7209 48.1518 57.1568 48.5352 58.5484 49.1364C58.5484 49.2654 58.5503 49.3945 58.5503 49.5236C58.5503 49.5603 58.5672 49.5858 58.57 49.6197C57.1351 49.6404 55.6983 49.6555 54.2615 49.6762ZM52.3847 14.6792C51.8514 14.6792 51.3172 14.6688 50.782 14.6452C50.0867 14.6151 49.3556 14.5981 48.615 14.5652C48.6443 13.5881 48.6735 12.612 48.7036 11.635C49.3311 11.6275 49.9444 11.6454 50.5107 11.6623C51.1099 11.6802 51.7431 11.7179 52.3847 11.7857C52.3856 12.7505 52.3856 13.7153 52.3847 14.6792ZM52.3847 16.5663L52.3819 29.1481C51.0242 29.1868 49.6674 29.2348 48.3098 29.2857C48.3428 24.9997 48.4389 20.7138 48.5613 16.4288C49.2105 16.4627 49.854 16.4863 50.4824 16.5173C51.1146 16.5475 51.7497 16.5654 52.3847 16.5663ZM48.7375 47.7372C49.9548 47.6562 51.1721 47.6383 52.3781 47.7165C52.3781 48.3779 52.3781 49.0393 52.3781 49.6998C51.3916 49.712 50.4061 49.7299 49.4197 49.7384C49.2331 49.7403 49.0466 49.7393 48.86 49.7412C48.812 49.0742 48.7771 48.4052 48.7375 47.7372ZM48.2985 31.17C49.659 31.1192 51.0204 31.0711 52.3819 31.0325C52.3809 35.977 52.38 40.9206 52.379 45.8651C51.1335 45.7888 49.8804 45.8029 48.6254 45.8821C48.372 40.9809 48.2843 36.0759 48.2985 31.17ZM42.1847 49.7695C42.1922 49.4002 42.2007 49.0318 42.2083 48.6624C43.7355 48.3628 45.2948 48.0952 46.8635 47.9115C46.9012 48.5239 46.9314 49.1363 46.9747 49.7488C45.3787 49.7572 43.7817 49.7657 42.1847 49.7695Z" fill="black"/>
<path d="M35.6358 5.94149C35.4784 4.95975 34.8029 4.17398 33.9898 3.63505C33.9842 3.63223 33.9785 3.63222 33.9729 3.6294C33.645 3.45698 33.286 3.38161 32.9195 3.34675C32.7556 3.28268 32.5897 3.23746 32.4032 3.22803C32.2769 3.22144 32.1488 3.2384 32.0235 3.25159C31.82 3.27231 31.6146 3.29493 31.4139 3.33732C30.859 3.45321 30.3643 3.78486 30.0722 4.25971C29.6172 4.72609 29.2658 5.28385 29.1612 5.94149C29.0491 6.64718 29.1744 7.31895 29.5164 7.94644C29.7915 8.44956 30.2221 8.98377 30.7374 9.25512C31.2462 9.5227 31.8313 9.56038 32.3985 9.45015C32.9657 9.56038 33.5508 9.5227 34.0595 9.25512C34.5749 8.98377 35.0055 8.44862 35.2806 7.94644C35.6235 7.31895 35.7479 6.64812 35.6358 5.94149ZM33.7185 7.35381C33.4848 7.60914 33.1532 7.80983 32.8074 7.90593C32.407 8.0171 31.9952 7.9568 31.6231 7.79475C31.1096 7.57146 30.8213 7.10602 30.7629 6.60007C30.7129 6.16667 30.8967 5.70218 31.2255 5.39126C31.2726 5.34604 31.3329 5.31401 31.3866 5.27538C31.3913 5.26972 31.3932 5.26219 31.3979 5.25559C31.6316 4.97765 31.9849 4.82031 32.3598 4.79204C33.009 4.74399 33.6516 5.2 33.9399 5.71066C34.0784 5.95563 34.1594 6.23734 34.1236 6.51434C34.0821 6.83656 33.9436 7.10696 33.7185 7.35381Z" fill="black"/>
<path d="M56.8543 17.8837C56.8157 17.7669 56.7517 17.666 56.6593 17.5803C56.5736 17.488 56.4728 17.4239 56.3559 17.3853C56.2438 17.3259 56.1223 17.2995 55.9932 17.3042C55.9103 17.3156 55.8264 17.3269 55.7426 17.3382C55.5834 17.3824 55.4449 17.4635 55.3271 17.5803C55.2781 17.6434 55.2291 17.7075 55.1801 17.7706C55.0953 17.9176 55.052 18.0759 55.051 18.2464V18.3388C55.0463 18.4688 55.0736 18.5894 55.1321 18.7015C55.1697 18.8183 55.2347 18.9191 55.3271 19.0049C55.4128 19.0972 55.5136 19.1613 55.6305 19.1999C55.7426 19.2593 55.8641 19.2856 55.9932 19.2809L56.2438 19.247C56.4031 19.2018 56.5415 19.1217 56.6593 19.0049C56.7083 18.9417 56.7573 18.8777 56.8063 18.8145C56.8911 18.6676 56.9344 18.5093 56.9344 18.3388V18.2464C56.941 18.1173 56.9137 17.9958 56.8543 17.8837Z" fill="black"/>
<path d="M50.2328 17.4434C49.0203 17.4434 49.0184 19.3277 50.2328 19.3277C51.4454 19.3277 51.4473 17.4434 50.2328 17.4434Z" fill="black"/>
<path d="M44.4724 17.1211C43.2598 17.1211 43.2579 19.0054 44.4724 19.0054C45.685 19.0054 45.6869 17.1211 44.4724 17.1211Z" fill="black"/>
<path d="M44.3339 43.4805C43.1213 43.4805 43.1194 45.3648 44.3339 45.3648C45.5465 45.3648 45.5484 43.4805 44.3339 43.4805Z" fill="black"/>
<path d="M50.3251 42.4209C49.1125 42.4209 49.1106 44.3052 50.3251 44.3052C51.5377 44.3052 51.5396 42.4209 50.3251 42.4209Z" fill="black"/>
<path d="M56.178 43.8955C54.9654 43.8955 54.9636 45.7799 56.178 45.7799C57.3906 45.7799 57.3925 43.8955 56.178 43.8955Z" fill="black"/>
<path d="M20.0474 43.3887C18.8348 43.3887 18.8329 45.273 20.0474 45.273C21.26 45.273 21.2619 43.3887 20.0474 43.3887Z" fill="black"/>
<path d="M14.2409 42.9277C13.0283 42.9277 13.0265 44.8121 14.2409 44.8121C15.4535 44.8121 15.4554 42.9277 14.2409 42.9277Z" fill="black"/>
<path d="M8.52647 43.3887C7.3139 43.3887 7.31201 45.273 8.52647 45.273C9.73905 45.273 9.74094 43.3887 8.52647 43.3887Z" fill="black"/>
<path d="M8.43422 17.5811C7.22164 17.5811 7.21976 19.4654 8.43422 19.4654C9.6468 19.4654 9.64868 17.5811 8.43422 17.5811Z" fill="black"/>
<path d="M14.2409 17.7656C13.0283 17.7656 13.0265 19.65 14.2409 19.65C15.4535 19.65 15.4554 17.7656 14.2409 17.7656Z" fill="black"/>
<path d="M20.0474 16.9365C18.8348 16.9365 18.8329 18.8209 20.0474 18.8209C21.26 18.8209 21.2619 16.9365 20.0474 16.9365Z" fill="black"/>
</svg>
