<svg width="47" height="64" viewBox="0 0 47 64" fill="none" xmlns="http://www.w3.org/2000/svg">
<path d="M44.2893 18.1185C42.7724 14.2481 40.8805 10.1121 38.3666 6.78144C35.7433 3.3049 31.8865 1.27545 27.7005 0.263845C23.2217 -0.818601 19.2399 1.58278 16.1551 4.6728C9.93028 10.907 8.00501 20.0083 7.16947 28.4679C6.67252 33.5029 6.75274 38.5589 7.49764 43.5648C7.86436 46.0318 8.41652 48.4707 9.18017 50.846C9.87819 53.0192 11.3815 55.3946 11.2409 57.7293C11.2221 57.9262 11.2221 58.1231 11.2513 58.3169C11.2534 58.3315 11.2555 58.346 11.2586 58.3596C11.393 59.1409 11.9264 59.8223 12.8536 59.9442C13.0099 59.9838 13.1662 60.0119 13.3224 60.0119C13.4912 60.0119 13.6496 59.99 13.7996 59.9546C22.5331 59.6764 31.2708 59.6441 40.0064 59.864C40.1429 59.8671 40.2679 59.8525 40.3909 59.8358C41.1962 59.8046 41.9963 59.3754 42.3474 58.4242C45.5207 49.8094 46.225 40.5289 46.2136 31.4162C46.2063 26.8593 45.9708 22.4055 44.2893 18.1185Z" fill="#F7C300"/>
<path d="M45.8478 61.6251L37.8477 61.6772C39.8428 58.8914 39.9636 54.7512 40.4303 51.5508C41.1721 46.4636 41.8285 41.3545 42.067 36.2163C42.2994 31.2166 42.1202 26.1878 41.2534 21.2506C40.4585 16.7229 39.1489 12.0379 36.4694 8.23628C33.8753 4.55555 29.9674 1.84266 25.4188 1.52074C15.4518 -0.282641 9.11757 9.66774 6.39531 17.7908C4.86697 22.3497 4.12936 27.1452 3.76681 31.9271C3.38551 36.9612 3.14172 42.213 3.72097 47.2387C4.33981 52.6155 6.9631 57.1984 9.49888 61.8616L1.006 61.9168C-0.333771 61.9251 -0.336896 64.0088 1.006 64.0004L32.1031 63.7994C32.3552 63.89 32.6376 63.8994 32.8949 63.7942L45.8499 63.7098C47.1876 63.7004 47.1907 61.6168 45.8478 61.6251ZM24.9542 60.525C24.9834 60.3874 24.9469 60.5698 24.9417 60.5948C24.9229 60.7062 24.9011 60.8167 24.8771 60.9271C24.825 61.1615 24.7615 61.3917 24.6906 61.622C24.6771 61.6678 24.6875 61.7157 24.6802 61.7626L22.9237 61.7741C23.005 61.572 23.0393 61.3459 22.9935 61.1042C22.9747 61.0042 22.956 60.9031 22.9393 60.8021C22.9352 60.7771 22.9237 60.7094 22.9154 60.6573C22.8872 60.4656 22.8706 60.2718 22.856 60.078C22.8289 59.728 22.8133 59.3748 22.8404 59.0247C22.8404 59.0299 22.8424 58.9997 22.8445 58.9674C22.8591 58.8945 22.8706 58.8216 22.8883 58.7487C22.9081 58.6716 22.9383 58.5965 22.957 58.5195C22.9727 58.4913 22.9883 58.4611 22.9904 58.458C23.0143 58.4142 23.0456 58.3694 23.0748 58.3246C23.0946 58.3059 23.1123 58.284 23.131 58.2663C23.1383 58.259 23.1477 58.2507 23.1571 58.2423C23.2081 58.2152 23.2592 58.185 23.3092 58.1559C23.33 58.1475 23.3508 58.1413 23.3665 58.1371C23.4175 58.1225 23.4706 58.1111 23.5227 58.1006C23.5332 58.1006 23.5394 58.1006 23.554 58.0996C23.6332 58.0965 23.7113 58.1027 23.7905 58.1038C23.7978 58.1048 23.8061 58.1069 23.8144 58.1079C23.8863 58.1236 23.9582 58.1434 24.0291 58.1673C24.0416 58.1715 24.0364 58.1694 24.0457 58.1715C24.1124 58.208 24.178 58.2434 24.2416 58.284C24.2656 58.2996 24.2635 58.2965 24.276 58.3038C24.3343 58.3569 24.3927 58.409 24.4479 58.4663C24.4604 58.4788 24.4968 58.5132 24.5312 58.5465C24.5312 58.5476 24.5323 58.5497 24.5437 58.5695C24.5729 58.6184 24.6083 58.6632 24.6375 58.7122C24.6729 58.7705 24.7073 58.8299 24.7385 58.8903C24.7458 58.9039 24.7708 58.9581 24.7927 59.0018C24.8094 59.0456 24.8375 59.1227 24.8458 59.1477C24.874 59.2352 24.899 59.3237 24.9198 59.4133C24.9354 59.479 24.9511 59.5529 24.9604 59.6227C24.9625 59.6894 24.9709 59.7571 24.974 59.8238C24.9834 60.0332 24.9761 60.2437 24.9563 60.4531C24.9563 60.4906 24.925 60.6666 24.9542 60.525ZM27.0941 61.747L26.8117 61.7491C27.043 60.8469 27.1378 59.9197 26.9628 58.9956C26.7888 58.0829 26.2773 57.2328 25.5428 56.665C24.7833 56.0774 23.7478 55.8576 22.8174 56.1285C21.8142 56.4212 21.0943 57.2495 20.8661 58.2621C20.7088 58.9654 20.7244 59.6998 20.8036 60.426C20.3431 58.8601 20.1504 57.237 20.1556 55.5888C20.1608 53.8761 20.0754 51.4341 21.3433 50.0943C22.3778 49.0014 24.1437 48.7816 25.3824 49.6463C26.9232 50.7215 27.3608 52.7561 27.4129 54.5158C27.4827 56.9161 27.2462 59.3456 27.0941 61.747ZM30.4987 54.8491C30.3133 56.9703 30.3289 59.654 29.1923 61.5605C29.3579 59.0945 29.6174 56.5838 29.4798 54.1261C29.3507 51.8185 28.5995 49.4609 26.6815 48.0242C24.9854 46.7542 22.5789 46.7115 20.8026 47.8617C18.796 49.1608 18.3168 51.4539 18.1491 53.6854C17.9438 56.4108 18.1293 59.2175 19.069 61.7991L18.3501 61.8033C16.8551 57.2547 15.9915 52.4946 16.3144 47.694C16.6113 43.2798 17.8292 36.6174 23.5936 37.007C28.7714 37.3571 30.5915 42.7776 30.7634 47.1626C30.8634 49.7203 30.7217 52.3009 30.4987 54.8491ZM31.9719 61.7157L31.4614 61.7189C32.0479 60.2812 32.1688 58.6476 32.349 57.1203C32.6553 54.5168 32.8314 51.8966 32.8668 49.2754C32.9199 45.2603 32.5199 40.869 29.6246 37.8051C26.943 34.9672 22.6049 33.9972 19.144 35.9996C15.3883 38.1728 14.5933 43.2808 14.2652 47.2324C13.8568 52.1581 14.6798 57.1213 16.1675 61.8178L15.481 61.822C15.4789 61.8168 15.4789 61.8126 15.4768 61.8074C12.2784 55.7003 11.4398 48.7816 11.1783 41.9827C10.9314 35.5683 10.2969 27.8568 14.5246 22.4852C18.4991 17.4355 26.1273 16.9969 30.6352 21.5798C33.0293 24.0146 33.9971 27.5619 34.6233 30.8291C35.3015 34.3671 35.4182 37.9884 35.4161 41.5816C35.4109 48.3045 35.6536 55.8118 31.9719 61.7157ZM35.0108 61.6459C34.99 61.6616 34.9775 61.6793 34.9587 61.6959L34.3941 61.7001C37.4268 56.0712 37.433 49.2984 37.4903 43.0318C37.5268 39.0834 37.4435 35.1224 36.7975 31.2187C36.2089 27.6588 35.2004 23.8343 32.8834 20.9818C28.6881 15.8186 20.9495 14.7643 15.5393 18.6555C9.32698 23.1238 8.88108 31.3437 8.99776 38.3103C9.13111 46.3125 9.67598 54.5293 13.1744 61.8366L11.8586 61.8449C9.70828 57.8475 7.10478 53.8167 6.15048 49.3348C5.18576 44.8029 5.46497 39.921 5.65562 35.3172C6.014 26.616 7.40483 17.423 12.4191 10.0751C15.132 6.09952 19.5763 2.71675 24.6271 3.49707C24.724 3.52936 24.8188 3.56582 24.9365 3.56999C33.9201 3.86274 37.6987 13.6266 39.1135 21.0787C40.8637 30.2957 39.9907 39.8105 38.7041 49.0275C38.3665 51.4435 38.0498 53.873 37.6175 56.2743C37.2497 58.309 36.7079 60.3249 35.0108 61.6459Z" fill="black"/>
</svg>
