<svg width="117" height="13" viewBox="0 0 117 13" fill="none" xmlns="http://www.w3.org/2000/svg">
<path d="M5.60056 8.9915C3.95652 7.17228 2.2019 5.50194 0.557853 3.68272C-1.0862 1.8635 1.23604 -1.26315 3.2225 0.543152C4.86655 2.36238 6.62118 4.03271 8.26523 5.85193L8.61829 6.27275L9.62418 5.3665C10.516 4.46455 11.2936 3.56692 12.0712 2.66928C13.2948 1.32068 14.3899 -0.601939 16.2374 0.19661C17.047 0.600193 17.7567 1.5864 18.3451 2.28776C19.1653 3.12508 19.875 4.11129 20.6988 5.09319C21.0519 5.51401 21.5261 6.21967 21.8756 6.49591C22.457 6.90811 22.0075 7.2145 22.6781 6.61033C23.4629 6.00186 24.1193 4.81937 24.7828 3.92604C26.1133 2.28397 27.2192 0.795091 29.1843 1.73391C32.4227 3.34824 35.447 5.54951 38.3643 8.04424C38.8031 7.30411 39.3524 6.41509 39.7912 5.67496C40.4476 4.49247 41.0969 3.02083 41.9851 1.97431C43.7616 -0.11874 45.7551 1.97672 47.3885 3.3622C48.437 4.19091 49.3714 5.02392 50.4199 5.85263C51.119 6.4051 52.7665 8.3689 53.6761 8.18985C54.1291 8.02804 54.789 6.99014 55.1243 6.68805C55.5667 6.0925 56.1267 5.63722 56.569 5.04167C57.5714 3.99084 58.4596 2.94432 59.4619 1.89349C60.1254 1.00016 61.0421 1.11027 61.6269 1.66705C61.6305 1.81163 61.7446 1.80732 61.7446 1.80732C63.378 3.19281 65.1255 4.57398 66.7589 5.95947C66.9908 6.09543 67.811 6.93275 68.0393 6.92414C68.0393 6.92414 68.2569 6.48178 68.371 6.47747C69.1629 6.15816 70.1581 4.81817 70.8287 4.214C72.0558 3.00997 73.3863 1.3679 74.9771 1.01843C76.4538 0.673263 77.9588 1.48474 79.2392 2.4494C81.3291 3.81766 83.797 6.61878 86.276 5.22279C88.4161 3.98429 90.4852 -0.145791 93.1281 0.478021C94.6189 0.711175 95.917 2.39874 97.0832 3.36772C98.2459 4.19212 99.6546 5.7308 101.124 5.09647C102.818 4.30895 104.498 2.94311 106.189 2.01102C107.541 1.23642 108.779 0.466131 110.27 0.699285C111.646 0.936748 113.155 1.8928 114.435 2.85747L116.534 4.214C116.886 4.40304 117.378 4.99542 116.534 5.85263C115.48 6.92414 115.074 8.76836 113.522 7.52279C112.355 6.55382 110.604 5.02806 109.235 5.07976C108.211 5.26311 106.98 6.32256 106.192 6.78645L103.827 8.17814C102.365 9.10162 101.017 10.0208 99.4116 9.79195C97.8031 9.41853 96.405 8.31359 95.007 7.20866L95.007 7.20865C94.308 6.65618 93.7231 6.0994 93.0241 5.54693C92.2074 4.85418 92.318 4.7053 91.5368 5.45835C89.1897 7.57294 87.0851 10.2572 83.9928 9.93981C81.0146 9.61808 78.8927 6.94861 76.2321 5.6019C75.4225 5.19831 74.966 5.21555 74.2954 5.81971C73.739 6.41953 73.0684 7.02364 72.3979 7.62776L72.3977 7.62791C71.1706 8.83193 69.8436 10.6186 68.3705 11.1083C66.7833 11.6024 65.4923 10.204 64.212 9.23931C62.814 8.13437 61.5336 7.1697 60.2497 6.06045C58.6909 7.71114 57.2462 9.35752 55.6874 11.0082C53.5685 13.1142 51.6069 12.3199 49.6241 10.6582C48.4614 9.83382 47.4093 8.86054 46.3608 8.03183C45.4264 7.19882 44.485 6.07665 43.4435 5.5371L43.3329 5.68599C43.2259 5.97946 43.1153 6.12834 43.0048 6.27723L41.6884 8.49762C40.9214 9.829 40.1509 11.0158 39.3839 12.3472C38.9416 12.9427 37.9215 13.2706 37.3366 12.7139C35.5855 11.1881 33.8344 9.66236 31.9763 8.43007L29.5369 6.78559C29.0732 6.51366 28.499 6.39062 28.1459 5.9698C27.8117 5.98242 27.6572 5.83315 27.7299 5.63374L27.5717 5.84676C26.127 7.49315 25.0425 9.8495 23.2377 10.7859C21.4364 11.8669 20.0348 10.6174 18.7402 9.07439C17.92 8.23707 17.2103 7.25086 16.3865 6.26896C16.0335 5.84814 15.4522 5.43594 15.2097 4.86624C15.0955 4.87055 15.092 4.72597 14.9779 4.73028C13.7685 6.6572 11.8709 8.4654 10.3049 9.82693C8.40372 11.4905 7.24106 10.6661 5.60056 8.9915Z" fill="#F7C300"/>
</svg>
