<svg width="244" height="15" viewBox="0 0 244 15" fill="none" xmlns="http://www.w3.org/2000/svg">
<path d="M121.143 6.98603C122.669 4.68205 124.898 3.64858 127.134 3.93669C128.715 4.11067 130.129 4.87672 131.46 5.9388C131.849 6.23237 132.231 6.58486 132.616 6.93994C133.443 7.70349 134.284 8.479 135.234 8.70613C136.322 9.07697 137.098 7.98236 137.868 6.89668C138.089 6.58531 138.309 6.27468 138.536 5.99956C139.457 4.77234 140.693 3.95686 141.987 4.2968C142.96 4.52953 143.727 5.41566 144.488 6.29564C144.815 6.67386 145.141 7.05094 145.482 7.37453C145.536 7.42333 145.591 7.47359 145.647 7.52501C146.672 8.46339 148.121 9.79026 149.235 9.70857C149.861 9.5587 150.566 8.956 151.159 8.44862C151.393 8.24832 151.61 8.06287 151.798 7.92601L153.787 6.47537C153.848 6.42801 153.909 6.38066 153.969 6.33347C155.128 5.42422 156.215 4.57203 157.532 4.75108C158.924 5.08384 160.157 6.15311 161.39 7.22237C161.698 7.48969 161.982 7.7588 162.265 8.02791C162.549 8.29702 162.833 8.56613 163.141 8.83345C163.246 8.93137 163.334 9.01823 163.41 9.0928C163.852 9.52989 163.867 9.54437 164.421 8.88454C164.751 8.51767 165.074 8.13473 165.397 7.75278C166.985 5.87261 168.553 4.01607 170.767 4.21507C172.395 4.3714 173.754 5.4795 175.123 6.5957C175.914 7.24024 176.708 7.88747 177.559 8.35571C178.266 8.73873 178.657 8.71001 179.215 8.08922C179.675 7.47571 180.233 6.85503 180.791 6.23434C181.042 5.93038 181.297 5.59064 181.558 5.24378C182.355 4.18203 183.205 3.05065 184.148 2.6537C185.272 2.20864 186.258 3.08372 187.208 3.92715C187.398 4.09534 187.586 4.26226 187.773 4.41721C188.087 4.68888 188.393 4.95168 188.695 5.21025C189.58 5.96939 190.422 6.69198 191.269 7.49494C191.914 6.65033 192.535 5.80751 193.155 4.9647C193.776 4.12187 194.396 3.27905 195.042 2.43444C196.799 0.276025 198.507 1.02053 200.258 2.63161C200.903 3.13286 201.512 3.69442 202.106 4.24202C202.453 4.56267 202.796 4.87854 203.137 5.17471C203.38 5.41187 203.623 5.67386 203.87 5.93865C204.463 6.57725 205.072 7.23221 205.716 7.59491L205.806 7.44331C205.889 7.14727 205.98 6.99566 206.071 6.84405L207.136 4.59147C207.446 3.91635 207.757 3.27734 208.069 2.63833C208.381 1.99944 208.692 1.36055 209.002 0.685563C209.364 0.0791308 210.231 -0.274345 210.749 0.267468C212.297 1.74848 213.846 3.22949 215.477 4.41446L217.62 5.99682C217.756 6.08353 217.901 6.15339 218.047 6.22326C218.337 6.36299 218.628 6.50273 218.839 6.77723C219.125 6.7562 219.262 6.90152 219.206 7.10267L219.335 6.88576C219.733 6.32507 220.094 5.68654 220.454 5.048C221.176 3.77095 221.897 2.49391 222.912 1.83961C224.427 0.713734 225.667 1.92743 226.824 3.43716C227.306 3.97691 227.748 4.58294 228.206 5.20936C228.44 5.53032 228.678 5.85663 228.928 6.18212C229.029 6.31462 229.151 6.44564 229.277 6.58118C229.542 6.86682 229.827 7.17254 229.979 7.5546C230.028 7.55101 230.054 7.58532 230.081 7.61964C230.107 7.65395 230.133 7.68826 230.182 7.68467C231.164 5.72812 232.741 3.87293 234.045 2.47256C235.629 0.761788 236.652 1.55656 238.109 3.18917C238.842 4.0777 239.597 4.92832 240.352 5.77894C241.108 6.62956 241.863 7.48018 242.595 8.3687C244.06 10.1457 242.158 13.3295 240.399 11.574C239.667 10.6855 238.911 9.83487 238.156 8.98425C237.401 8.13363 236.646 7.28301 235.913 6.39448L235.598 5.98274L234.761 6.91393C234.021 7.83793 233.38 8.75476 232.739 9.67159C232.569 9.90224 232.404 10.1489 232.238 10.3961C231.411 11.627 230.574 12.874 229.234 12.2481C228.641 11.9269 228.096 11.1944 227.626 10.5617C227.535 10.4398 227.447 10.3217 227.362 10.2109C226.881 9.67118 226.438 9.06516 225.981 8.43876C225.747 8.11779 225.509 7.79146 225.259 7.46595C225.158 7.33344 225.044 7.17175 224.927 7.00448C224.681 6.65201 224.416 6.27476 224.207 6.09347C223.915 5.86608 223.913 5.66482 223.861 5.65056C223.821 5.6399 223.754 5.73374 223.515 5.99931C223.044 6.45024 222.638 7.19537 222.246 7.91648C222.092 8.19958 221.94 8.47898 221.786 8.73543C221.749 8.79326 221.711 8.85091 221.674 8.90827C220.629 10.5121 219.727 11.8957 218.071 11.0374C215.243 9.50534 212.582 7.38117 210.004 4.96097C209.826 5.3364 209.626 5.74973 209.426 6.16306C209.225 6.57639 209.025 6.98972 208.848 7.36515C208.713 7.67103 208.579 7.99571 208.442 8.32745C208.042 9.29555 207.617 10.3237 207.072 11.1195C205.74 13.0636 204.152 11.5468 202.79 10.2454C202.655 10.1163 202.522 9.98942 202.392 9.8682C201.929 9.46723 201.492 9.06446 201.054 8.66169C200.616 8.25892 200.178 7.85615 199.716 7.45518C199.558 7.31829 199.344 7.0905 199.1 6.8307C198.391 6.07581 197.428 5.05076 196.851 5.20094C196.601 5.31366 196.287 5.79977 196.02 6.21096C195.878 6.43136 195.749 6.63024 195.652 6.73856C195.471 7.04177 195.263 7.31068 195.056 7.57958C194.848 7.84849 194.641 8.11739 194.459 8.42061C194.044 8.95846 193.654 9.49452 193.263 10.0306C192.873 10.5665 192.482 11.1025 192.068 11.6403C191.524 12.5499 190.734 12.4629 190.215 11.9211C190.208 11.7767 190.11 11.7839 190.11 11.7839C189.388 11.112 188.642 10.442 187.896 9.77197C187.15 9.10184 186.404 8.4317 185.683 7.75977C185.609 7.71268 185.467 7.57564 185.306 7.42064C185.022 7.1475 184.68 6.81859 184.555 6.82775C184.555 6.82775 184.381 7.2754 184.283 7.28258C183.83 7.51183 183.31 8.2097 182.849 8.82961C182.628 9.12668 182.42 9.40584 182.239 9.60696C182.061 9.82333 181.88 10.0532 181.696 10.2874C180.829 11.389 179.889 12.5845 178.771 12.9056C177.513 13.2878 176.197 12.5146 175.069 11.5826C174.677 11.3018 174.269 10.9563 173.849 10.6006C172.3 9.28987 170.587 7.84092 168.945 8.98754C168.304 9.44741 167.681 10.2733 167.042 11.1213C165.885 12.6553 164.674 14.2615 163.2 13.9028C162.254 13.7591 161.375 12.8272 160.566 11.9706C160.275 11.6618 159.992 11.3628 159.72 11.1139C159.526 10.9634 159.324 10.7875 159.115 10.6057C158.222 9.82795 157.207 8.9437 156.199 9.48765C155.381 9.96185 154.572 10.6247 153.764 11.2875C153.157 11.7846 152.551 12.2818 151.94 12.6993C151.882 12.7403 151.825 12.7812 151.768 12.822C150.696 13.5863 149.697 14.2988 148.475 14.1132C147.286 13.9105 145.962 12.9929 144.835 12.0608C144.407 11.6708 143.991 11.1799 143.578 10.6925C142.997 10.0064 142.422 9.32747 141.828 8.94722C141.015 8.31522 140.056 9.71058 139.325 10.7733C139.137 11.047 138.964 11.2986 138.813 11.4878C137.878 12.4262 136.838 13.2273 135.656 13.169C133.931 13.1976 132.5 11.9463 131.064 10.6904C130.376 10.0882 129.686 9.48492 128.963 9.02122C127.033 7.78512 124.652 7.77238 123.264 9.99879C123.52 11.6867 122 13.5093 120.574 12.0863C119.841 11.1977 119.086 10.3471 118.331 9.49648C117.576 8.64586 116.821 7.79524 116.088 6.90672L115.773 6.49498L114.936 7.42617C114.196 8.35018 113.555 9.267 112.913 10.1838C112.744 10.4145 112.579 10.6611 112.413 10.9084C111.586 12.1393 110.749 13.3863 109.408 12.7603C108.816 12.4392 108.271 11.7067 107.801 11.0739C107.71 10.9521 107.622 10.8339 107.537 10.7232C107.055 10.1834 106.613 9.5774 106.156 8.951C105.922 8.63003 105.683 8.3037 105.434 7.9782C105.332 7.84568 105.219 7.68399 105.102 7.51672C104.855 7.16425 104.591 6.787 104.382 6.60571C104.09 6.37832 104.088 6.17706 104.035 6.1628C103.996 6.15214 103.929 6.24598 103.69 6.51155C103.219 6.96248 102.813 7.70759 102.421 8.42869C102.267 8.71181 102.115 8.99122 101.961 9.24767C101.923 9.3055 101.886 9.36314 101.849 9.4205C100.803 11.0244 99.9017 12.4079 98.246 11.5497C95.4179 10.0176 92.7565 7.89341 90.1783 5.47321C90.0008 5.84864 89.8006 6.26197 89.6004 6.6753C89.4002 7.08863 89.2 7.50197 89.0225 7.8774C88.8875 8.18326 88.7534 8.50793 88.6165 8.83965C88.2168 9.80777 87.7923 10.8359 87.2471 11.6317C85.9151 13.5758 84.3272 12.059 82.9648 10.7576C82.8297 10.6286 82.6968 10.5017 82.5666 10.3804C82.1043 9.97947 81.6664 9.5767 81.2286 9.17393C80.7907 8.77116 80.3529 8.36839 79.8906 7.96742C79.7327 7.83054 79.5188 7.60274 79.2748 7.34295C78.5659 6.58806 77.6032 5.563 77.0261 5.71318C76.7759 5.82591 76.4613 6.31204 76.1952 6.72323C76.0526 6.94362 75.9239 7.14249 75.8265 7.2508C75.6453 7.55402 75.4378 7.82292 75.2304 8.09182C75.0229 8.36073 74.8154 8.62963 74.6342 8.93285C74.2193 9.47066 73.8288 10.0067 73.4383 10.5427C73.0478 11.0787 72.6573 11.6147 72.2424 12.1525C71.6988 13.0622 70.9085 12.9752 70.39 12.4334C70.3827 12.2889 70.2848 12.2961 70.2848 12.2961C69.5632 11.6243 68.8172 10.9542 68.0711 10.2841C67.3251 9.61402 66.579 8.94391 65.8574 8.27201C65.7839 8.22492 65.6414 8.08787 65.4803 7.93286C65.1964 7.65973 64.8546 7.33083 64.7297 7.33999C64.7297 7.33999 64.5558 7.78764 64.4579 7.79482C64.0046 8.02408 63.4851 8.72196 63.0236 9.34188C62.8025 9.63894 62.5947 9.91809 62.4139 10.1192C62.2354 10.3356 62.0545 10.5655 61.8704 10.7996C61.0038 11.9013 60.0635 13.0967 58.9454 13.4178C57.6875 13.8 56.3713 13.0268 55.2437 12.0948C54.852 11.8141 54.4437 11.4685 54.0233 11.1128C52.4744 9.80211 50.7621 8.35316 49.12 9.49978C48.4787 9.95965 47.8559 10.7856 47.2165 11.6335C46.0597 13.1676 44.8485 14.7738 43.3752 14.415C42.4292 14.2713 41.5496 13.3395 40.7409 12.4828C40.4494 12.174 40.1672 11.875 39.8943 11.6262C39.7007 11.4756 39.4987 11.2997 39.29 11.118C38.3969 10.3402 37.3816 9.45594 36.3738 9.99989C35.5557 10.4741 34.747 11.1369 33.9384 11.7998C33.3319 12.2969 32.7255 12.794 32.115 13.2116C32.0573 13.2525 31.9999 13.2935 31.9426 13.3343C30.8708 14.0985 29.8714 14.8111 28.6496 14.6255C27.4605 14.4228 26.137 13.5051 25.0094 12.5731C24.5817 12.183 24.1659 11.6921 23.7531 11.2048C23.1719 10.5187 22.5969 9.83971 22.0033 9.45946C21.1902 8.82746 20.2309 10.2228 19.5003 11.2855C19.3121 11.5592 19.1391 11.8108 18.9877 12.0001C18.0526 12.9384 17.0124 13.7396 15.8306 13.6813C14.1055 13.7098 12.675 12.4585 11.2393 11.2026C10.5508 10.6004 9.86121 9.99716 9.13735 9.53347C6.90385 8.10272 4.06535 8.31093 2.86263 11.7333C2.00771 14.2604 -0.646455 12.2806 0.208464 9.75356C1.58508 5.88355 4.44131 4.07944 7.30896 4.44893C8.8896 4.62291 10.3036 5.38896 11.6344 6.45104C12.0234 6.74461 12.4055 7.09711 12.7904 7.45219C13.618 8.21574 14.4587 8.99124 15.4089 9.21838C16.4965 9.58921 17.2728 8.4946 18.0427 7.40892C18.2635 7.09755 18.4838 6.78692 18.7108 6.5118C19.6313 5.28458 20.8673 4.4691 22.1616 4.80904C23.1353 5.04178 23.9017 5.92791 24.6627 6.8079C24.9898 7.18611 25.3159 7.56319 25.6571 7.88677C25.7106 7.93556 25.7655 7.98582 25.8217 8.03725C26.8468 8.97563 28.2963 10.3025 29.4098 10.2208C30.0362 10.0709 30.7407 9.46824 31.3337 8.96086C31.5679 8.76056 31.7847 8.57511 31.9724 8.43825L33.9623 6.98762C34.0229 6.94025 34.0833 6.89291 34.1435 6.84572C35.3032 5.93647 36.3902 5.08427 37.7067 5.26332C39.0989 5.59608 40.3317 6.66535 41.5646 7.73461C41.8728 8.00192 42.1565 8.27103 42.4403 8.54014C42.724 8.80925 43.0077 9.07837 43.316 9.34569C43.4211 9.44361 43.509 9.53047 43.5845 9.60504C44.0268 10.0421 44.0415 10.0566 44.5957 9.39678C44.9255 9.02991 45.2489 8.64697 45.5716 8.26501C47.1595 6.38485 48.7276 4.52831 50.9423 4.72731C52.5694 4.88364 53.9288 5.99174 55.298 7.10794C56.0887 7.75248 56.8826 8.39971 57.7334 8.86795C58.4404 9.25097 58.8319 9.22225 59.39 8.60146C59.8503 7.98788 60.4084 7.36712 60.9665 6.74636C61.2172 6.4424 61.4723 6.10288 61.7328 5.75603C62.5302 4.69427 63.38 3.56289 64.3226 3.16594C65.4469 2.72088 66.4329 3.59597 67.3832 4.43941C67.5727 4.60759 67.7608 4.77451 67.9483 4.92946C68.2615 5.20108 68.5679 5.46385 68.8693 5.72238C69.7545 6.48156 70.5971 7.20419 71.4438 8.00718C72.0888 7.1626 72.7094 6.31982 73.33 5.47703C73.9506 4.63418 74.5713 3.79133 75.2164 2.94668C76.9741 0.788266 78.6817 1.53278 80.4331 3.14385C81.078 3.6451 81.6869 4.20666 82.2806 4.75426C82.6283 5.07491 82.9707 5.39078 83.3122 5.68695C83.5545 5.92412 83.7981 6.1861 84.0443 6.4509C84.6381 7.0895 85.247 7.74446 85.8904 8.10715L85.9809 7.95555C86.0642 7.65951 86.1548 7.5079 86.2454 7.35629L87.3107 5.10371C87.6204 4.42869 87.932 3.78977 88.2436 3.15085C88.5553 2.51187 88.8669 1.87289 89.1767 1.1978C89.5391 0.591372 90.4054 0.237896 90.924 0.779709C92.4723 2.26072 94.0206 3.74173 95.6523 4.9267L97.7952 6.50906C97.9306 6.59577 98.076 6.66564 98.2214 6.7355C98.5123 6.87524 98.8031 7.01497 99.0135 7.28947C99.3001 7.26844 99.4371 7.41376 99.3805 7.61491L99.5102 7.398C99.9076 6.83731 100.268 6.19879 100.629 5.56026C101.351 4.28321 102.072 3.00615 103.087 2.35185C104.602 1.22598 105.842 2.43967 106.999 3.9494C107.481 4.48914 107.923 5.09515 108.38 5.72155C108.615 6.04253 108.853 6.36886 109.102 6.69436C109.204 6.82687 109.326 6.95789 109.452 7.09343C109.717 7.37907 110.001 7.68479 110.154 8.06684C110.203 8.06325 110.229 8.09756 110.256 8.13188C110.282 8.16619 110.308 8.2005 110.357 8.19691C111.339 6.24037 112.915 4.38517 114.22 2.9848C115.804 1.27403 116.827 2.0688 118.284 3.70141C119.017 4.58992 119.772 5.44053 120.527 6.29113C120.733 6.52251 120.938 6.75389 121.143 6.98603Z" fill="#F7C300"/>
</svg>
