<svg width="139" height="15" viewBox="0 0 139 15" fill="none" xmlns="http://www.w3.org/2000/svg">
<path d="M138.459 10.7507C136.866 8.65161 135.166 6.7243 133.572 4.6252C131.982 2.69292 130.856 1.74169 129.013 3.66125C127.496 5.23224 125.656 7.31862 124.484 9.54199C124.374 9.54696 124.37 9.38014 124.26 9.38511C124.025 8.72776 123.461 8.25215 123.119 7.76659C122.321 6.63363 121.633 5.4957 120.838 4.52956C119.584 2.74919 118.225 1.30743 116.48 2.55473C114.73 3.6352 113.679 6.35407 112.279 8.25374C112.172 8.42553 112.065 8.59732 111.958 8.76912C112.283 8.42056 112.165 8.09188 111.723 8.11177C111.381 7.62621 110.824 7.48424 110.375 7.17048C109.587 6.53799 108.799 5.90549 108.011 5.273C106.21 3.85113 104.513 2.09064 102.816 0.330157C102.249 -0.312279 101.26 0.0661037 100.832 0.753278C100.088 2.28948 99.3416 3.65885 98.5983 5.19505C98.173 6.04905 97.7478 6.90305 97.3225 7.75704C97.2154 7.92884 97.1082 8.10063 97.0045 8.43925C96.8973 8.61104 96.8973 8.61104 96.8973 8.61104C95.888 7.98849 94.9756 6.69367 94.07 5.7325C93.0539 4.77631 92.0343 3.65329 90.9075 2.70206C88.9858 0.784691 87.0848 -0.13174 85.0313 2.29822C83.5206 4.20286 82.1205 6.10253 80.6098 8.00717C79.3655 6.72727 78.1247 5.61419 76.7698 4.33926C75.529 3.22618 74.2779 1.61264 72.7396 2.1827C71.312 2.74779 70.026 4.80931 68.8368 6.19857C68.1868 6.89568 67.5369 7.5928 66.9976 8.28494C66.3477 8.98206 65.9053 9.00194 65.1207 8.53627C62.5422 6.98237 60.4858 3.90222 57.5996 3.53099C54.6027 3.16474 52.563 6.26199 50.2884 8.7019C49.5313 9.57081 49.6384 9.39901 48.847 8.5997C48.1695 7.96223 47.6027 7.31979 46.9253 6.68233C45.5704 5.4074 44.2155 4.13247 42.6566 3.70159C41.1012 3.43754 39.7945 4.49812 38.3772 5.56368C37.6132 6.09894 36.8492 6.63421 36.0853 7.16947C35.3213 7.70474 34.1287 8.92717 33.1366 9.13873C31.8093 9.19838 30.1122 7.4379 28.982 6.31985C27.7378 5.03995 26.701 3.08281 25.1421 2.65194C23.6938 2.21609 22.273 3.11482 21.1944 4.49911C20.0052 5.88837 18.9439 8.10678 17.3815 7.50908C15.8226 7.0782 14.5681 5.29783 13.2166 4.18972C11.7511 2.91976 10.1819 1.98842 8.40524 1.73431C5.18373 1.21117 1.90322 3.19535 0.222908 7.61227C-0.824708 10.498 2.10282 12.8711 3.15044 9.98537C4.61986 6.07886 7.8276 5.9347 10.2989 7.66039C12.7702 9.38608 14.8301 12.6331 17.7094 12.6706C19.0402 12.7778 20.2397 11.889 21.3252 10.8384C22.1895 9.79767 23.683 7.05892 24.8097 8.01014C25.9331 8.79455 26.9664 10.5849 28.0966 11.7029C29.3375 12.816 30.7995 13.9191 32.1337 14.1931C33.5786 14.4621 34.7781 13.5734 36.0882 12.6796C37.7268 11.6041 39.355 10.0281 40.9969 9.11945C42.4211 8.38754 43.7863 10.1629 44.9131 11.1142C46.0433 12.2322 47.3013 14.1794 48.7462 14.4484C51.3075 15.1682 53.3127 10.4027 55.3868 8.97371C57.7893 7.36294 60.181 10.595 62.2064 12.1738C63.4473 13.2868 64.9059 14.2232 66.3369 13.8249C67.8786 13.4216 69.1681 11.5269 70.3573 10.1377C71.0072 9.44057 71.9717 7.89443 72.7391 7.52599C72.8498 7.52102 73.0606 7.01061 73.0606 7.01061C73.2819 7.00067 74.0768 7.96681 74.3015 8.12369C75.8845 9.72232 77.578 11.316 79.161 12.9146C79.161 12.9146 79.2716 12.9096 79.2751 13.0765C79.8419 13.7189 80.7302 13.846 81.3733 12.8152C82.3447 11.6027 83.2055 10.3952 84.1769 9.18269C84.6056 8.49551 85.1483 7.97019 85.577 7.28302C85.902 6.93446 86.5415 5.73688 86.9806 5.55017C87.862 5.34358 89.4588 7.60951 90.1362 8.24697C91.1523 9.20317 92.0579 10.1643 93.074 11.1205C94.657 12.7192 96.5891 15.137 98.3107 12.722C99.1715 11.5144 99.8007 9.81638 100.437 8.45197C100.862 7.59798 101.395 6.57219 101.82 5.71819C104.647 8.59672 107.578 11.1366 110.716 12.9993C112.621 14.0826 113.693 12.3647 114.982 10.47C115.625 9.43919 116.261 8.07479 117.022 7.3727C117.672 6.67558 117.236 7.02911 117.8 7.50473C118.138 7.82346 118.598 8.63769 118.94 9.12324C119.738 10.2562 120.426 11.3941 121.221 12.3603C121.791 13.1695 122.479 14.3075 123.264 14.7731C125.054 15.6945 126.116 13.4761 127.301 11.9201C128.055 10.8843 128.809 9.8486 129.673 8.80789C129.673 8.80789 130.323 8.11078 130.648 7.76222C130.762 7.92407 130.876 8.08592 130.99 8.24778C132.583 10.3469 134.284 12.2742 135.877 14.3733C137.802 16.4575 140.053 12.8498 138.459 10.7507Z" fill="#59C69F"/>
</svg>
