<svg width="261" height="16" viewBox="0 0 261 16" fill="none" xmlns="http://www.w3.org/2000/svg">
<path d="M201.548 8.04555C204.177 5.04522 208.214 3.71572 212.208 4.11182C214.827 4.33817 217.148 5.22617 219.32 6.44499C219.956 6.78229 220.578 7.18565 221.204 7.59195C222.551 8.46566 223.919 9.35304 225.49 9.62673C227.283 10.0645 228.613 8.85044 229.932 7.64627C230.31 7.30092 230.687 6.95638 231.075 6.65185C232.649 5.29168 234.732 4.40008 236.87 4.80721C238.479 5.08765 239.72 6.09782 240.952 7.10098C241.482 7.53214 242.01 7.962 242.564 8.33207C242.652 8.38791 242.741 8.44542 242.832 8.50427C244.501 9.57818 246.86 11.0967 248.713 11.0268C249.759 10.8708 250.952 10.2078 251.956 9.64965L251.956 9.64951C252.352 9.42915 252.719 9.22514 253.036 9.07512L256.396 7.485C256.491 7.43634 256.587 7.38771 256.682 7.33921L256.702 7.3292C257.608 6.9952 259.596 6.61922 260.291 7.78731C261.161 9.24743 261.309 10.4972 260.291 10.9151C258.915 11.4316 257.547 12.1602 256.179 12.8887C255.153 13.4351 254.127 13.9815 253.098 14.4385C253 14.4834 252.903 14.5282 252.807 14.5729C250.998 15.4102 249.311 16.1908 247.288 15.9584C245.32 15.7075 243.155 14.651 241.316 13.5823C240.62 13.1358 239.947 12.5763 239.279 12.021C238.339 11.2391 237.408 10.4653 236.436 10.0267C235.109 9.30099 233.464 10.8492 232.211 12.0283C231.888 12.332 231.591 12.6112 231.333 12.8208C229.745 13.8563 227.987 14.7356 226.026 14.647C223.159 14.6453 220.828 13.2119 218.489 11.7734C217.368 11.0836 216.244 10.3926 215.059 9.85773C211.522 8.26222 206.991 8.37557 204.774 11.8353C204.625 13.5471 202.3 15.0646 200.202 13.5913C199.017 12.5792 197.794 11.6093 196.571 10.6394L196.571 10.639L196.57 10.6385C195.347 9.66861 194.124 8.69867 192.94 7.68663L192.43 7.21804L191.005 8.24739C189.743 9.2706 188.644 10.2877 187.544 11.3047C187.255 11.5603 186.971 11.8339 186.686 12.1082L186.686 12.1086C185.268 13.4747 183.831 14.8588 181.627 14.1296C180.654 13.7573 179.776 12.9241 179.017 12.2042L179.017 12.2041L179.016 12.203C178.871 12.0648 178.729 11.9308 178.593 11.8051C177.812 11.1895 177.099 10.5003 176.363 9.78784C175.986 9.42278 175.602 9.05164 175.199 8.6812C175.036 8.53039 174.853 8.34658 174.665 8.15644C174.268 7.75577 173.843 7.32694 173.503 7.11926C173.034 6.86298 173.03 6.64046 172.948 6.61621C172.884 6.59729 172.772 6.69913 172.356 6.99994C171.557 7.4971 170.855 8.32589 170.177 9.12799L170.177 9.12809C169.91 9.44301 169.647 9.75382 169.383 10.0388L169.19 10.2307C167.394 12.0114 165.846 13.5475 163.126 12.5513C158.484 10.7753 154.141 8.33762 149.946 5.56915C149.637 5.98741 149.29 6.44782 148.942 6.90822C148.594 7.36835 148.246 7.82846 147.938 8.24648C147.702 8.58733 147.467 8.94931 147.228 9.31916L147.228 9.31937C146.528 10.3987 145.785 11.545 144.85 12.4279C142.566 14.5851 139.983 12.8506 137.768 11.3624L137.766 11.3616C137.547 11.2143 137.331 11.0694 137.12 10.931C136.367 10.4716 135.654 10.0107 134.941 9.54985C134.229 9.08895 133.516 8.62805 132.763 8.16868C132.506 8.01193 132.159 7.75205 131.763 7.45566L131.763 7.45533C130.613 6.59367 129.051 5.42363 128.087 5.58099C127.667 5.70268 127.126 6.24245 126.669 6.69903L126.669 6.69913C126.424 6.9438 126.203 7.16457 126.037 7.28428C125.725 7.62125 125.371 7.91917 125.016 8.2171L125.016 8.21719C124.661 8.51508 124.307 8.81298 123.995 9.14991C123.286 9.74564 122.617 10.3398 121.949 10.934L121.948 10.9344C121.28 11.5287 120.612 12.123 119.903 12.7188C118.966 13.7298 117.656 13.6166 116.815 12.998C116.808 12.8356 116.645 12.8418 116.645 12.8418C115.471 12.0731 114.256 11.3059 113.041 10.5388C111.826 9.77165 110.611 9.00451 109.437 8.23583C109.317 8.18151 109.085 8.02482 108.823 7.84759C108.362 7.53529 107.806 7.15921 107.598 7.16706C107.598 7.16706 107.293 7.66637 107.13 7.67251C106.368 7.92109 105.479 8.69467 104.69 9.38181L104.69 9.3819C104.312 9.71114 103.956 10.0205 103.648 10.2428C103.344 10.4823 103.035 10.737 102.72 10.9963C101.24 12.2165 99.6341 13.5406 97.7647 13.8793C95.6609 14.2839 93.5027 13.3898 91.6635 12.321C91.0231 11.9981 90.3574 11.602 89.6721 11.1943C87.147 9.69199 84.3555 8.03123 81.5852 9.28676C80.5029 9.79064 79.4379 10.706 78.3444 11.6457C76.3661 13.3458 74.2949 15.1259 71.8604 14.6942C70.2939 14.5143 68.8668 13.4506 67.5548 12.4726C67.0819 12.1201 66.6239 11.7788 66.1798 11.494C65.8635 11.3212 65.5344 11.1196 65.1944 10.9115C63.7393 10.0205 62.085 9.00756 60.3907 9.59869C59.014 10.1152 57.6462 10.8437 56.2784 11.5723C55.2526 12.1187 54.2267 12.6651 53.1971 13.1221C53.0998 13.1669 53.0029 13.2118 52.9063 13.2565C51.0974 14.0937 49.4109 14.8744 47.3879 14.642C45.4198 14.3911 43.2548 13.3346 41.4155 12.2658C40.7193 11.8194 40.0465 11.2599 39.3787 10.7045L39.3787 10.7045C38.4384 9.92264 37.508 9.1489 36.5358 8.71024C35.2081 7.98456 33.5631 9.53281 32.3102 10.7119L32.3101 10.712C31.9875 11.0156 31.6909 11.2948 31.4324 11.5043C29.8444 12.5398 28.0867 13.4191 26.1254 13.3306C23.2585 13.3288 20.9278 11.8955 18.5887 10.457L18.5887 10.457C17.4671 9.76719 16.3435 9.07622 15.158 8.5413C11.4999 6.89077 6.77645 7.06899 4.65248 10.8889C3.13925 13.7101 -1.19753 11.4348 0.315711 8.61354C2.74504 4.29437 7.55662 2.32426 12.3073 2.79539C14.9269 3.02174 17.248 3.90974 19.4198 5.12856C20.0553 5.46587 20.6771 5.86922 21.3035 6.27553C22.6505 7.14923 24.0186 8.03661 25.589 8.31031C27.3822 8.74807 28.7121 7.534 30.0312 6.32983C30.4095 5.98448 30.7869 5.63995 31.1741 5.33543C32.7486 3.97525 34.832 3.08365 36.9698 3.49078C38.5789 3.77122 39.8195 4.78139 41.0516 5.78455C41.5811 6.21571 42.109 6.64557 42.6639 7.01564C42.751 7.07149 42.8404 7.12901 42.9319 7.18786C44.6004 8.26177 46.9598 9.78028 48.8128 9.71036C49.8589 9.55432 51.0515 8.89126 52.0555 8.33309L52.0555 8.33306C52.4518 8.11271 52.8188 7.90871 53.1357 7.75869L56.495 6.16857C56.5974 6.11657 56.6995 6.06458 56.8012 6.01276C58.7614 5.01437 60.5985 4.07862 62.7792 4.30548C65.0799 4.70646 67.0888 5.93143 69.0977 7.1564C69.6 7.46264 70.0615 7.77042 70.523 8.0782C70.9845 8.38598 71.446 8.69376 71.9482 9C72.1192 9.11191 72.2619 9.2111 72.3845 9.29626L72.3848 9.29652C73.1037 9.79606 73.1275 9.81261 74.0724 9.08245C74.6339 8.6769 75.1853 8.25319 75.7353 7.83056C78.4427 5.75019 81.1161 3.69595 84.7881 3.96282C87.4857 4.17027 89.7033 5.44133 91.9371 6.72167C93.227 7.46099 94.5222 8.20341 95.9184 8.74593C97.079 9.18993 97.7305 9.16535 98.6806 8.47911C99.4678 7.79903 100.418 7.11281 101.368 6.42659L101.368 6.42656C101.796 6.09011 102.232 5.71392 102.677 5.3295C104.041 4.15274 105.495 2.89881 107.075 2.47149C108.959 1.9937 110.565 2.99576 112.113 3.96158L112.113 3.96164C112.422 4.1542 112.728 4.34533 113.034 4.523C113.544 4.83419 114.044 5.13529 114.535 5.43154C115.978 6.30146 117.351 7.12949 118.728 8.04786C119.831 7.11215 120.893 6.17798 121.954 5.24381L121.955 5.24326L121.956 5.24272C123.017 4.30855 124.079 3.37437 125.182 2.43867C128.181 0.0491385 130.991 0.918699 133.842 2.7623C134.895 3.33784 135.885 3.9804 136.852 4.60699L136.852 4.60719C137.418 4.97405 137.975 5.33543 138.531 5.67468C138.925 5.94577 139.32 6.24476 139.719 6.54695C140.682 7.27575 141.67 8.02322 142.726 8.44315L142.882 8.27466C143.031 7.94384 143.187 7.77535 143.343 7.60687L145.196 5.09802C145.735 4.34598 146.276 3.63452 146.818 2.92307C147.359 2.21161 147.9 1.50016 148.439 0.74812C149.064 0.0741773 150.516 -0.305814 151.358 0.312816C153.876 2.00637 156.393 3.69992 159.061 5.06265L162.563 6.88166C162.784 6.98167 163.023 7.06297 163.262 7.14426L163.262 7.14432C163.741 7.30694 164.219 7.46956 164.558 7.78195C165.035 7.76396 165.257 7.92983 165.156 8.15462L165.379 7.91357C166.06 7.29176 166.683 6.58183 167.305 5.87189L167.306 5.87165C168.551 4.45161 169.797 3.03158 171.507 2.31666C174.066 1.08195 176.081 2.46926 177.948 4.1874C178.729 4.80297 179.441 5.49219 180.178 6.2046L180.178 6.20471L180.178 6.20496C180.555 6.56991 180.939 6.94095 181.341 7.31128C181.505 7.46208 181.703 7.6116 181.907 7.76629C182.338 8.09227 182.799 8.44117 183.038 8.87322C183.119 8.87015 183.162 8.90919 183.204 8.94824C183.247 8.98729 183.289 9.02634 183.37 9.02327C185.074 6.84524 187.761 4.79269 189.98 3.24559C192.674 1.35537 194.344 2.26795 196.706 4.12999C197.89 5.14218 199.114 6.11224 200.337 7.08231L200.342 7.08669C200.745 7.40581 201.147 7.72493 201.548 8.04555Z" fill="#59C69F"/>
</svg>
