<svg width="208" height="13" viewBox="0 0 208 13" fill="none" xmlns="http://www.w3.org/2000/svg">
<path d="M207.191 9.31728C204.807 7.49806 202.262 5.82773 199.878 4.00851C197.499 2.33386 195.813 1.50947 193.056 3.17308C190.785 4.53461 188.033 6.3428 186.279 8.26972C186.113 8.27403 186.108 8.12945 185.943 8.13376C185.591 7.56406 184.748 7.15186 184.236 6.73105C183.041 5.74915 182.012 4.76294 180.823 3.92562C178.945 2.38263 176.913 1.13311 174.3 2.2141C171.683 3.1505 170.11 5.50686 168.015 7.15324C167.855 7.30213 167.694 7.45101 167.534 7.5999C168.02 7.29782 167.844 7.01297 167.182 7.0302C166.67 6.60938 165.837 6.48634 165.165 6.21442C163.986 5.66626 162.807 5.11809 161.627 4.56993C158.933 3.33765 156.393 1.81189 153.854 0.286136C153.006 -0.270642 151.526 0.0572899 150.885 0.652841C149.772 1.98421 148.655 3.17101 147.543 4.50238C146.906 5.24251 146.27 5.98264 145.634 6.72277C145.473 6.87166 145.313 7.02055 145.158 7.31401C144.997 7.4629 144.997 7.4629 144.997 7.4629C143.487 6.92336 142.122 5.80118 140.767 4.96817C139.246 4.13946 137.72 3.16618 136.034 2.34178C133.159 0.680066 130.314 -0.114175 127.241 1.99179C124.98 3.64248 122.885 5.28886 120.625 6.93955C118.763 5.8303 116.906 4.86563 114.879 3.76069C113.022 2.79603 111.15 1.39762 108.848 1.89167C106.711 2.38141 104.787 4.16807 103.008 5.37209C102.035 5.97626 101.062 6.58042 100.255 7.18028C99.283 7.78445 98.6209 7.80168 97.4468 7.3981C93.5883 6.05139 90.5111 3.38192 86.1921 3.06019C81.7076 2.74277 78.6555 5.42706 75.2516 7.54164C74.1187 8.2947 74.2791 8.14581 73.0947 7.45307C72.081 6.9006 71.2328 6.34382 70.2191 5.79135C68.1916 4.68641 66.1642 3.58147 63.8315 3.20805C61.5039 2.9792 59.5486 3.89837 57.4277 4.82186C56.2845 5.28575 55.1413 5.74965 53.9981 6.21354C52.8549 6.67744 51.0702 7.73688 49.5857 7.92024C47.5995 7.97193 45.06 6.44618 43.3688 5.4772C41.5069 4.36795 39.9554 2.67177 37.6227 2.29835C35.4554 1.92061 33.3294 2.69951 31.7154 3.89923C29.9359 5.10326 28.3477 7.02587 26.0098 6.50787C23.677 6.13444 21.7997 4.59145 19.7774 3.63109C17.5844 2.53046 15.2362 1.7233 12.5776 1.50307C7.75694 1.04968 2.84799 2.7693 0.33356 6.5973C-1.2341 9.09823 3.14667 11.1549 4.71433 8.65398C6.91317 5.26834 11.7132 5.14341 15.4113 6.63901C19.1094 8.1346 22.1918 10.9486 26.5005 10.9812C28.4918 11.0741 30.2868 10.3038 31.9111 9.39326C33.2044 8.49131 35.4393 6.11773 37.1254 6.94213C38.8063 7.62194 40.3526 9.17354 42.0439 10.1425C43.9007 11.1072 46.0885 12.0632 48.085 12.3007C50.2471 12.5339 52.042 11.7636 54.0025 10.989C56.4544 10.0569 58.8909 8.69104 61.3479 7.90352C63.4791 7.2692 65.522 8.80788 67.2081 9.63227C68.8993 10.6012 70.7819 12.2888 72.9439 12.522C76.7766 13.1458 79.7773 9.0157 82.881 7.77721C86.4761 6.38122 90.055 9.18234 93.0859 10.5506C94.9426 11.5153 97.1253 12.3267 99.2668 11.9816C101.574 11.6321 103.503 9.99002 105.283 8.786C106.255 8.18183 107.699 6.84184 108.847 6.52253C109.013 6.51822 109.328 6.07586 109.328 6.07586C109.659 6.06725 110.849 6.90457 111.185 7.04053C113.554 8.42601 116.088 9.80719 118.457 11.1927C118.457 11.1927 118.622 11.1884 118.627 11.3329C119.476 11.8897 120.805 11.9998 121.767 11.1065C123.221 10.0557 124.509 9.00916 125.963 7.95833C126.604 7.36278 127.416 6.9075 128.058 6.31195C128.544 6.00986 129.501 4.97196 130.158 4.81015C131.477 4.6311 133.866 6.5949 134.88 7.14737C136.401 7.97608 137.756 8.80909 139.276 9.6378C141.645 11.0233 144.536 13.1187 147.112 11.0257C148.4 9.97917 149.342 8.50753 150.294 7.32504C150.93 6.58491 151.727 5.69589 152.363 4.95576C156.594 7.45049 160.98 9.65176 165.676 11.2661C168.526 12.2049 170.13 10.716 172.06 9.07396C173.022 8.18063 173.974 6.99815 175.112 6.38967C176.084 5.78551 175.432 6.0919 176.276 6.5041C176.782 6.78033 177.47 7.486 177.982 7.90681C179.177 8.88871 180.206 9.87492 181.396 10.7122C182.249 11.4136 183.278 12.3998 184.452 12.8034C187.131 13.6019 188.72 11.6793 190.494 10.3307C191.622 9.43308 192.75 8.53545 194.043 7.63351C194.043 7.63351 195.015 7.02934 195.502 6.72726C195.672 6.86753 195.843 7.0078 196.014 7.14807C198.398 8.96729 200.942 10.6376 203.327 12.4568C206.207 14.2631 209.575 11.1365 207.191 9.31728Z" fill="#F7C300"/>
</svg>
