<svg width="132" height="104" viewBox="0 0 132 104" fill="none" xmlns="http://www.w3.org/2000/svg">
<g clip-path="url(#clip0_2_1432)">
<path d="M93.7611 47.574C93.7865 47.3818 93.7679 47.1865 93.7067 47.0026C93.6454 46.8188 93.5431 46.6513 93.4075 46.5129C93.2719 46.3744 93.1066 46.2686 92.9241 46.2034C92.7416 46.1383 92.5467 46.1156 92.3541 46.1369H92.2942C77.0366 45.3385 61.7391 46.4962 46.4715 45.8375H46.202C45.9889 45.6218 45.7181 45.4722 45.4221 45.4065C45.126 45.3408 44.8173 45.3618 44.5329 45.4671C44.2486 45.5725 44.0006 45.7575 43.8188 46.0002C43.6369 46.2429 43.5289 46.5329 43.5077 46.8355C43.0375 54.4795 43.0375 62.1451 43.5077 69.7891C43.525 69.9966 43.5791 70.1993 43.6674 70.3879C43.7517 70.6827 43.9319 70.941 44.1795 71.1218C44.4271 71.3025 44.7281 71.3955 45.0345 71.3859L91.7055 71.4658C91.9185 71.5431 92.1475 71.5658 92.3716 71.5318C92.5957 71.4979 92.8077 71.4083 92.9883 71.2714C93.1689 71.1344 93.3123 70.9545 93.4055 70.7479C93.4986 70.5413 93.5385 70.3146 93.5216 70.0886C92.9837 62.5899 93.0638 55.0595 93.7611 47.574Z" fill="#F7C300"/>
<path d="M89.1609 92.0642C89.1579 91.6935 89.0481 91.3315 88.8445 91.0217C88.641 90.7119 88.3524 90.4675 88.0133 90.3177C87.5656 90.1594 87.09 90.0947 86.6163 90.128C85.8512 90.128 85.0829 90.128 84.3112 90.128H84.1615C83.928 89.9645 83.6481 89.8806 83.3632 89.8885C82.9678 89.8937 82.5901 90.0531 82.3105 90.3327C82.0309 90.6123 81.8715 90.9901 81.8663 91.3855C81.8663 92.8326 81.8664 94.2796 81.7666 95.7267C81.7691 96.1232 81.9267 96.5029 82.2056 96.7846C82.3424 96.9264 82.5069 97.0385 82.6889 97.114C82.8708 97.1896 83.0664 97.2269 83.2634 97.2237C83.5654 97.1924 83.8631 97.1289 84.1515 97.0341L84.6604 96.8046L84.87 96.7447C85.1594 96.9043 85.4387 97.084 85.7181 97.2537C86.2377 97.5754 86.8257 97.7702 87.4345 97.8224C87.7649 97.8236 88.0856 97.7108 88.3426 97.5031C88.603 97.3121 88.7898 97.0372 88.8715 96.7247C89.0297 95.8915 89.123 95.0473 89.1509 94.1998C89.1908 93.5311 89.2108 92.7927 89.1609 92.0642Z" fill="#59C69F"/>
<path d="M48.5869 94.9981C48.5618 94.2869 48.3431 93.5961 47.9545 93C47.5659 92.4038 47.0221 91.9249 46.3816 91.6149C45.7618 91.2019 45.0638 90.9206 44.3309 90.7884C43.5979 90.6562 42.8456 90.6759 42.1206 90.8465C41.2847 91.0744 40.5479 91.5728 40.0251 92.2637C39.6225 92.9104 39.4404 93.6703 39.5062 94.4293C39.5679 95.1683 39.8092 95.881 40.2093 96.5055C40.6093 97.1299 41.1558 97.6471 41.8013 98.0121C42.4655 98.396 43.2107 98.6182 43.9767 98.6608C44.8014 98.683 45.6013 98.378 46.202 97.8124C46.7418 97.6948 47.2451 97.4483 47.6689 97.0939C47.9572 96.826 48.1875 96.5018 48.3454 96.1413C48.5033 95.7808 48.5855 95.3917 48.5869 94.9981Z" fill="#59C69F"/>
<path d="M131.451 16.5366C129.247 17.7661 127.197 19.2536 125.344 20.9676C124.905 21.3768 124.506 21.6763 124.416 22.285C124.324 22.9465 124.274 23.6132 124.266 24.281C124.215 25.6126 124.251 26.9462 124.376 28.273C124.394 28.481 124.359 28.6902 124.276 28.8816C124.193 29.073 124.063 29.2407 123.899 29.3695C123.734 29.4982 123.54 29.5839 123.335 29.619C123.129 29.6541 122.917 29.6374 122.72 29.5704C122.568 29.5247 122.423 29.4574 122.291 29.3707L120.494 27.9835L115.186 23.9916C114.717 23.6223 114.627 23.4626 114.058 23.6023C113.739 23.6822 113.429 23.782 113.13 23.8818C112.831 23.9816 112.441 24.1413 112.132 24.281C110.785 24.8299 109.448 25.4187 108.091 25.9875C107.886 26.0759 107.659 26.1003 107.44 26.0576C107.221 26.0148 107.02 25.9069 106.863 25.748C106.653 25.5683 106.506 25.3262 106.443 25.0569C106.38 24.7876 106.405 24.5052 106.514 24.251C107.073 23.0036 107.632 21.7561 108.171 20.4986C108.43 19.8898 108.679 19.2711 108.939 18.6624C109.059 18.353 109.188 18.0436 109.308 17.7442L109.498 17.2751C109.502 17.2453 109.502 17.2151 109.498 17.1854L109.408 17.0556C109.318 16.9359 109.208 16.8161 109.119 16.6864C109.029 16.5566 108.709 16.1974 108.5 15.9479C108.101 15.4588 107.682 14.9498 107.272 14.5007C106.444 13.5726 105.596 12.6544 104.728 11.7662C104.531 11.5607 104.393 11.3055 104.329 11.0277C104.309 10.8954 104.309 10.7608 104.329 10.6285C104.223 10.421 104.176 10.1884 104.193 9.95606C104.21 9.72369 104.29 9.5004 104.424 9.31026C104.559 9.12013 104.743 8.97036 104.957 8.8773C105.17 8.78425 105.405 8.75141 105.636 8.78228C107.146 9.03546 108.642 9.36859 110.116 9.78026C110.988 9.99535 111.902 9.97127 112.761 9.71046C112.997 9.62211 113.222 9.50481 113.429 9.36119C114.351 8.56887 115.107 7.6022 115.655 6.51683C116.094 5.81824 116.513 5.11968 116.942 4.42109C117.371 3.7225 117.69 3.2036 118.07 2.60481C118.176 2.43045 118.315 2.27796 118.479 2.15564C118.615 2.04079 118.776 1.95786 118.948 1.91297C119.121 1.86808 119.301 1.86234 119.477 1.89616C119.739 1.95362 119.977 2.09271 120.157 2.29343C120.336 2.49414 120.447 2.74622 120.474 3.0139C120.588 4.56236 120.798 6.10223 121.103 7.62458C121.333 8.76228 121.462 10.1596 122.51 10.8382C122.74 10.9879 122.969 11.1175 123.219 11.2573C124.297 11.8413 125.41 12.358 126.552 12.8042C127.626 13.2282 128.721 13.5946 129.835 13.9019C130.204 14.0117 130.573 14.1315 130.952 14.2214C131.9 14.4309 132.499 15.8979 131.451 16.5366Z" fill="#F7C300"/>
<path d="M108.949 48.9612L108.709 79.0304C108.65 86.0962 119.626 86.0962 119.686 79.0304L119.926 48.9612C119.985 41.8954 109.009 41.8854 108.949 48.9612Z" fill="#59C69F"/>
<path d="M129.635 14.4508C129.635 14.4508 129.635 14.371 129.565 14.3311C129.308 13.9868 128.964 13.7179 128.567 13.5526L123.149 11.5567L121.303 10.878C120.562 9.0883 120.043 7.21489 119.756 5.29927C119.676 4.93002 119.606 4.55085 119.517 4.12172L119.307 3.33327C119.203 2.95427 118.999 2.60983 118.718 2.33529C118.407 2.01641 118.007 1.79753 117.571 1.70655C117.153 1.61723 116.719 1.6476 116.319 1.79415C115.918 1.94069 115.567 2.19741 115.305 2.53484L110.965 8.08369C110.126 9.16151 108.021 8.84211 105.975 8.53274C105.173 8.38929 104.363 8.28941 103.55 8.23341H102.732C102.306 8.20821 101.882 8.30223 101.506 8.50496C101.131 8.70769 100.819 9.01101 100.607 9.381C100.395 9.75021 100.292 10.1713 100.308 10.5964C100.323 11.0216 100.458 11.4338 100.696 11.7862L105.057 18.2231C104.668 19.1612 104.359 20.0794 104.059 21.0175C103.613 22.5057 103.021 23.9464 102.293 25.3189L102.213 25.4785C102.052 25.8879 102.014 26.3352 102.103 26.7659C102.169 27.0755 102.296 27.3686 102.478 27.6276C102.66 27.8866 102.892 28.1061 103.161 28.2729C103.384 28.4035 103.627 28.4978 103.88 28.5524C104.237 28.6419 104.61 28.6419 104.967 28.5524L112.441 26.4167L114.108 27.7739C114.17 27.8317 114.24 27.8789 114.318 27.9136C114.95 28.3051 115.533 28.7708 116.054 29.3009C117.152 30.2988 118.598 31.6461 120.155 31.3966C120.51 31.3435 120.849 31.2178 121.153 31.0274C121.383 30.946 121.592 30.8141 121.765 30.6414C121.938 30.4687 122.07 30.2596 122.151 30.0294C122.4 29.1134 122.481 28.1599 122.39 27.215C122.39 26.9056 122.39 26.5962 122.39 26.3368L122.54 21.9058L123.169 21.5065L123.917 21.0275L124.047 20.9278C124.725 20.3719 125.45 19.8745 126.212 19.4408C127.63 18.6947 128.888 17.6774 129.914 16.4468C130.092 16.2017 130.174 15.8999 130.144 15.5985C130.083 15.1766 129.907 14.7795 129.635 14.4508ZM124.805 17.2651C123.963 17.7502 123.162 18.3043 122.41 18.9218L121.722 19.3608L121.033 19.8C120.732 20.0057 120.483 20.2805 120.31 20.6017C120.136 20.923 120.042 21.2812 120.035 21.6463L119.876 26.1872C119.876 26.4965 119.876 26.8358 119.876 27.1851C119.876 27.5344 119.876 27.8737 119.876 28.2729C119.876 28.4925 119.876 28.702 119.876 28.8417C119.477 28.9714 118.878 28.4625 117.7 27.4147C117.069 26.7708 116.358 26.2107 115.585 25.748L113.938 24.3907C113.578 24.0958 113.135 23.9182 112.671 23.8817C112.489 23.8618 112.305 23.8618 112.122 23.8817C112.034 23.8959 111.948 23.916 111.863 23.9417L106.265 25.5185L104.588 26.0075C105.278 24.6188 105.855 23.1772 106.314 21.6962C106.614 20.818 106.923 19.8997 107.312 18.9716C107.443 18.6318 107.491 18.2658 107.452 17.9038C107.407 17.5456 107.277 17.2034 107.073 16.9058L102.852 10.6385H103.381C103.66 10.6385 103.959 10.6885 104.259 10.7284L105.576 10.9079C108.111 11.2972 110.975 11.7263 112.701 9.68044C112.701 9.63054 112.791 9.6006 112.831 9.5507L116.982 4.24147L117.062 4.53081V4.68053C117.132 5.04978 117.211 5.40903 117.281 5.77829C117.606 8.01889 118.244 10.2026 119.177 12.2652C119.228 12.3577 119.288 12.4447 119.357 12.5247C119.609 12.7938 119.92 13.002 120.265 13.1334L127.09 15.6084C126.386 16.2354 125.62 16.7904 124.805 17.2651Z" fill="#1E1E1E"/>
<path d="M117.161 11.2074C117.103 10.8866 116.92 10.6017 116.653 10.4148C116.386 10.2279 116.056 10.1542 115.735 10.2094C115.58 10.2324 115.433 10.2867 115.301 10.3691C115.168 10.4515 115.055 10.5602 114.966 10.6884C114.786 10.9432 114.714 11.259 114.767 11.5667C114.997 12.9096 115.622 14.1534 116.563 15.1394C117.664 16.1672 118.995 16.9167 120.445 17.325H120.594C120.743 17.35 120.895 17.35 121.043 17.325C121.269 17.2897 121.481 17.1939 121.656 17.0481C121.832 16.9023 121.965 16.7118 122.041 16.4966C122.095 16.352 122.119 16.1981 122.112 16.0439C122.105 15.8898 122.068 15.7385 122.002 15.599C121.936 15.4596 121.843 15.3347 121.728 15.2317C121.613 15.1288 121.478 15.0499 121.333 14.9997C120.264 14.7082 119.27 14.1909 118.419 13.4827C117.777 12.8709 117.338 12.0767 117.161 11.2074Z" fill="#1E1E1E"/>
<path d="M54.8237 22.754C54.7638 22.275 54.7339 21.8459 54.7139 21.4167V20.4986L55.632 20.4287C63.6749 19.8765 71.7311 19.5006 79.8007 19.301C82.8609 19.2212 85.9244 19.1679 88.9912 19.1413H93.5815C95.188 19.1413 96.7747 18.9318 98.3813 18.9517C98.8107 19.004 99.2459 18.9238 99.6286 18.7221C99.8313 18.5738 99.9846 18.3678 100.068 18.131C100.152 17.8942 100.162 17.6376 100.098 17.3948C99.5887 15.2791 96.4055 15.9876 94.8787 15.9876C92.883 15.9876 90.8872 15.9876 88.8316 15.9876C84.7935 16.0276 80.7554 16.1107 76.7173 16.2371C72.8854 16.3469 69.0635 16.5067 65.2316 16.7063C61.3997 16.9059 57.6876 17.2651 53.9156 17.3948H53.6362H53.5165C53.3871 17.3554 53.2526 17.3353 53.1173 17.335C52.8882 17.3184 52.6582 17.3496 52.4418 17.4266C52.2254 17.5037 52.0274 17.6248 51.8604 17.7825C51.6933 17.9401 51.561 18.1308 51.4716 18.3424C51.3822 18.554 51.3377 18.7819 51.3411 19.0116C51.038 21.6456 51.3805 24.3139 52.339 26.7859C52.4787 27.2055 52.7659 27.5601 53.1473 27.7839C53.5586 27.9972 54.0313 28.0606 54.4844 27.9635C54.7425 27.8871 54.9826 27.7595 55.1901 27.588C55.3976 27.4165 55.5683 27.2047 55.6919 26.9655C55.7607 26.8398 55.8017 26.7008 55.812 26.5578C55.8224 26.4149 55.8018 26.2715 55.7517 26.1372C55.3293 25.0436 55.0184 23.9101 54.8237 22.754Z" fill="#1E1E1E"/>
<path d="M115.445 33.0932C115.381 33.0082 115.303 32.9341 115.216 32.8737C114.866 32.7012 114.469 32.6519 114.088 32.7339C113.878 32.7389 113.671 32.7865 113.479 32.8737C113.307 32.9962 113.161 33.1523 113.05 33.3327C112.332 34.3307 112.701 35.4085 112.751 36.5662L112.871 39.5601C112.94 41.5561 112.99 43.5521 113.02 45.598C113.1 49.5899 113.1 53.6151 113.02 57.6736C112.901 65.7173 112.505 73.7545 111.833 81.7849C111.683 83.5813 111.523 85.3877 111.344 87.184L111.274 87.8826L104.049 89.3198C103.201 89.4096 102.053 89.8885 102.133 90.8566C102.184 91.3579 102.423 91.8215 102.802 92.154C102.933 92.2805 103.09 92.3758 103.263 92.4328C103.436 92.4899 103.619 92.5071 103.8 92.4833L110.955 91.1161C111.504 91.0778 112.027 90.8684 112.451 90.5173L112.671 90.3077H112.98C113.402 90.2938 113.806 90.1323 114.122 89.8515C114.437 89.5707 114.644 89.1884 114.707 88.7708C115.532 80.7869 116.084 72.7565 116.363 64.6794C116.643 56.6024 116.643 48.5421 116.363 40.4983C116.363 39.3307 116.283 38.163 116.233 36.9954C116.315 35.7939 116.124 34.5896 115.675 33.4724C115.614 33.3368 115.537 33.2094 115.445 33.0932Z" fill="#1E1E1E"/>
<path d="M50.1237 11.4669C50.133 11.2539 50.0968 11.0414 50.0174 10.8435C49.938 10.6457 49.8172 10.4671 49.6632 10.3197C49.5092 10.1723 49.3255 10.0596 49.1244 9.98894C48.9233 9.91828 48.7094 9.89132 48.4971 9.91C39.9053 9.91 31.2138 10.1495 22.652 10.5587C22.4214 10.5552 22.1926 10.5999 21.9803 10.6899C21.768 10.7799 21.5768 10.9133 21.419 11.0815C21.2612 11.2496 21.1403 11.4489 21.0639 11.6665C20.9875 11.8841 20.9574 12.1152 20.9755 12.3451C20.9744 12.5439 21.0166 12.7405 21.0992 12.9213C21.1819 13.102 21.3029 13.2627 21.4539 13.3919C21.605 13.5211 21.7824 13.6158 21.9738 13.6694C22.1652 13.723 22.3659 13.7343 22.5621 13.7024C31.1739 13.2932 39.8954 13.0736 48.5071 13.0537C48.7209 13.0696 48.9356 13.0398 49.137 12.9661C49.3383 12.8924 49.5216 12.7766 49.6747 12.6264C49.8277 12.4762 49.9469 12.295 50.0243 12.095C50.1017 11.8951 50.1356 11.681 50.1237 11.4669Z" fill="#1E1E1E"/>
<path d="M42.5597 19.7301C35.9038 20.0095 29.1682 20.0095 22.5322 19.7301H22.4424C22.2534 19.7387 22.0679 19.7847 21.8967 19.8652C21.7254 19.9457 21.5718 20.0592 21.4445 20.1992C21.2841 20.3485 21.1562 20.5291 21.0686 20.73C20.981 20.9309 20.9358 21.1477 20.9356 21.3668C20.9356 22.3648 21.9335 22.8338 22.8216 22.8738C29.4076 23.1432 36.0934 23.1432 42.6994 22.8738C42.9781 22.8822 43.2538 22.8141 43.4966 22.6769C43.7394 22.5397 43.9399 22.3385 44.0765 22.0953C44.2083 21.8312 44.2711 21.538 44.2588 21.243C44.2466 20.9481 44.1599 20.6611 44.0066 20.4088C43.8471 20.1777 43.6291 19.9932 43.3749 19.874C43.1207 19.7547 42.8393 19.7051 42.5597 19.7301Z" fill="#1E1E1E"/>
<path d="M91.6755 41.3864C91.508 41.178 91.2972 41.0085 91.0577 40.8896C90.8182 40.7707 90.5557 40.7052 90.2884 40.6977L85.4587 40.4982C70.4905 39.8495 55.0732 39.1808 39.9353 40.6877C39.6924 40.7123 39.457 40.7855 39.243 40.9031C39.0291 41.0207 38.841 41.1803 38.6901 41.3722C38.5392 41.5641 38.4286 41.7844 38.3648 42.02C38.301 42.2557 38.2852 42.5018 38.3187 42.7437C38.3383 43.0066 38.4223 43.2606 38.5633 43.4834C38.7042 43.7061 38.8978 43.8908 39.127 44.0211H38.8676C38.6589 44.0324 38.455 44.0874 38.269 44.1828C38.0831 44.2781 37.9194 44.4116 37.7885 44.5746C37.6576 44.7375 37.5625 44.9261 37.5095 45.1282C37.4564 45.3304 37.4465 45.5414 37.4805 45.7476C38.3132 53.1995 38.7031 60.6942 38.648 68.1923C38.6572 68.5798 38.7943 68.9534 39.038 69.2548C39.2816 69.5563 39.6182 69.7688 39.9952 69.8589C42.0818 70.1422 44.1861 70.2755 46.2918 70.258C48.1778 70.258 50.0737 70.1783 51.9298 70.1084C53.0574 70.1084 54.185 70.0086 55.3027 69.9787C60.5216 69.849 65.7605 69.7291 70.8896 69.6293C76.0187 69.5295 81.3474 69.4497 86.4765 69.3898H87.3048C89.1209 69.3898 91.6156 69.4897 91.6855 66.9548C91.6935 66.216 91.6367 65.4781 91.5158 64.7493C91.5158 64.4 91.426 64.0406 91.3961 63.6913C91.2763 62.3441 91.1766 61.1065 91.1167 59.899C90.7077 54.2003 91.0229 48.4728 92.0547 42.8534C92.1029 42.596 92.0939 42.3313 92.0283 42.0778C91.9628 41.8242 91.8424 41.5882 91.6755 41.3864ZM40.045 44.1807C55.163 42.6737 70.6102 43.3424 85.5385 43.9911L88.2727 44.1109C87.6499 48.0245 87.3662 51.9845 87.4245 55.947C87.4245 58.2124 87.5742 60.5477 87.7937 63.1026C87.7937 63.392 87.7937 63.7113 87.7937 64.0406C87.8028 64.6355 87.8529 65.2291 87.9434 65.8171C87.694 65.8171 87.4445 65.8171 87.195 65.8171C86.9456 65.8171 86.7859 65.8171 86.6062 65.8171C76.827 65.9368 66.9181 66.1265 57.1488 66.366L48.986 66.5955H48.7964C46.5585 66.7069 44.3159 66.6835 42.0807 66.5256C42.0806 59.5234 41.6908 52.5267 40.9132 45.5679C40.8927 45.2591 40.7892 44.9617 40.6135 44.707C40.4379 44.4522 40.1966 44.2497 39.9153 44.1209L40.045 44.1807Z" fill="#1E1E1E"/>
<path d="M40.3245 81.0962C50.453 81.3257 60.7312 81.226 70.8697 80.8368H70.9695C71.2046 80.8261 71.4394 80.8629 71.66 80.9452C71.8805 81.0276 72.0821 81.1535 72.2526 81.3157C72.4232 81.4779 72.5592 81.6729 72.6525 81.889C72.7458 82.1051 72.7945 82.3379 72.7956 82.5733C72.8049 82.8296 72.763 83.085 72.6723 83.3248C72.5815 83.5647 72.4438 83.784 72.2673 83.9699C72.0907 84.1558 71.8787 84.3046 71.6439 84.4075C71.409 84.5104 71.156 84.5655 70.8996 84.5693C60.7412 84.9585 50.453 85.0583 40.3145 84.8288C39.9704 84.8322 39.6321 84.7408 39.3364 84.5648C39.0407 84.3887 38.7991 84.1349 38.638 83.8308C38.4738 83.5346 38.3876 83.2013 38.3876 82.8626C38.3876 82.5239 38.4738 82.1908 38.638 81.8946C38.8264 81.6274 39.0808 81.4135 39.3763 81.2736C39.6718 81.1337 39.9984 81.0726 40.3245 81.0962Z" fill="#1E1E1E"/>
<path d="M90.3583 76.6153C90.1914 76.9071 89.9479 77.1477 89.6543 77.3113C89.3606 77.4748 89.0278 77.5552 88.6919 77.5435C72.7258 77.7231 56.5401 77.7929 40.6139 77.753C40.3567 77.7718 40.0983 77.7374 39.855 77.6519C39.6118 77.5664 39.3887 77.4316 39.1998 77.256C39.0109 77.0804 38.8603 76.8677 38.7573 76.6312C38.6543 76.3948 38.6011 76.1397 38.6011 75.8818C38.6011 75.6239 38.6543 75.3688 38.7573 75.1323C38.8603 74.8959 39.0109 74.6832 39.1998 74.5076C39.3887 74.332 39.6118 74.1973 39.855 74.1118C40.0983 74.0263 40.3567 73.9918 40.6139 74.0106C56.58 74.0106 72.7158 74.0106 88.6819 73.801C89.0068 73.7884 89.3291 73.8633 89.6152 74.0177C89.9013 74.1722 90.1408 74.4007 90.3085 74.6793C90.4804 74.9712 90.5752 75.3021 90.5839 75.6408C90.5927 75.9795 90.515 76.3149 90.3583 76.6153Z" fill="#1E1E1E"/>
<path d="M43.7673 93.1719H43.6774C43.7068 93.1805 43.738 93.1805 43.7673 93.1719Z" fill="#1E1E1E"/>
<path d="M44.2477 97.6172C43.4396 97.7902 42.6026 97.775 41.8013 97.5729C40.9099 97.3725 40.116 96.868 39.5561 96.1458C39.1269 95.4311 38.925 94.6027 38.9773 93.7706C38.8991 92.9156 39.0985 92.0581 39.5461 91.3255C39.8418 90.8673 40.2767 90.5163 40.787 90.3241C41.2972 90.1318 41.8556 90.1085 42.3801 90.2577L42.5298 90.3275C43.1381 90.1824 43.7694 90.1621 44.3858 90.2677C45.229 90.4238 45.9932 90.8641 46.5512 91.5151C47.1538 92.2479 47.4757 93.1713 47.4593 94.1199C47.4989 94.5788 47.4291 95.0406 47.2556 95.4674C47.0821 95.8941 46.81 96.2737 46.4614 96.5749C45.8132 97.0875 45.0558 97.4441 44.2477 97.6172Z" fill="#1E1E1E"/>
<path d="M44.326 93.5212C44.326 93.5212 44.276 93.4712 44.326 93.5212V93.5212Z" fill="#1E1E1E"/>
<path d="M42.8493 93.2817H42.7793C42.8156 93.2889 42.8529 93.2889 42.8892 93.2817H42.8493Z" fill="#1E1E1E"/>
<path d="M44.396 93.6511L44.336 93.5412C44.3503 93.5806 44.3706 93.6177 44.396 93.6511Z" fill="#1E1E1E"/>
<path d="M98.9102 34.5901C98.7976 34.5363 98.696 34.4618 98.6108 34.3705C98.4455 34.2031 98.2479 34.0709 98.0302 33.9817C97.8124 33.8925 97.5788 33.8482 97.3435 33.8516C75.3312 33.0053 53.2865 33.7591 31.3835 36.107C30.9938 36.1256 30.6208 36.2712 30.3217 36.5217C30.0226 36.7722 29.8137 37.1138 29.7269 37.4942C29.6814 37.7032 29.565 37.8901 29.3976 38.0232C29.1883 38.176 29.0292 38.3875 28.9403 38.631C28.8515 38.8744 28.837 39.1387 28.8987 39.3904C31.0441 49.1807 30.9743 58.9908 30.5851 68.1423C30.4055 72.3039 30.176 76.5354 29.9565 80.6271L29.0085 97.3633C28.9893 97.526 29.0082 97.6909 29.0636 97.845C29.119 97.9992 29.2095 98.1384 29.3278 98.2516C29.5459 98.4255 29.7979 98.5517 30.0678 98.6222C30.3376 98.6926 30.6192 98.7058 30.8944 98.6608C31.01 98.6402 31.1282 98.6402 31.2437 98.6608C31.3254 98.5774 31.4241 98.5127 31.5331 98.4711C31.7958 98.3831 32.0258 98.218 32.1931 97.9972C32.3605 97.7764 32.4574 97.5103 32.4711 97.2336C32.664 93.8205 32.8603 90.4074 33.0599 86.9943L33.3692 81.6151C33.3745 81.5487 33.3745 81.482 33.3692 81.4156C33.6187 77.1143 33.8881 72.1443 34.0777 67.2442C34.5267 56.1167 34.0777 47.6837 32.4911 39.9094C32.4686 39.7796 32.472 39.6466 32.5011 39.5181C32.5302 39.3896 32.5844 39.2683 32.6607 39.1609C32.7416 39.0566 32.8423 38.9695 32.957 38.9044C33.0718 38.8393 33.1983 38.7976 33.3293 38.7817C53.8414 36.6908 74.4709 35.9806 95.0783 36.656C95.2048 36.6597 95.3293 36.689 95.4442 36.7422C95.5591 36.7954 95.6621 36.8713 95.7469 36.9653C95.8335 37.0568 95.9004 37.1651 95.9433 37.2836C95.9862 37.4021 96.0043 37.5282 95.9964 37.654C94.8289 57.9729 94.1203 78.6712 93.8908 99.1698C93.8755 99.4239 93.7637 99.6626 93.5782 99.837C93.3927 100.011 93.1475 100.108 92.8929 100.108H62.9564H59.5836C55.7118 100.108 51.7203 100.108 47.8086 100.248C46.4415 100.307 45.0444 100.457 43.5676 100.627C39.9053 101.036 36.1234 101.455 32.5909 100.357C32.3677 100.29 32.1352 100.26 31.9023 100.268C31.8035 100.288 31.7017 100.288 31.603 100.268C31.5341 100.338 31.453 100.396 31.3635 100.437C31.0989 100.582 30.8818 100.801 30.7385 101.066C30.5951 101.332 30.5314 101.633 30.5552 101.934C30.5867 102.246 30.7169 102.54 30.9268 102.774C31.1368 103.007 31.4155 103.167 31.7227 103.232C35.1953 104.309 38.7079 103.96 42.5098 103.591C43.6674 103.481 44.8648 103.361 46.0523 103.291C50.2634 103.042 54.5543 103.052 58.7055 103.062H62.8766H93.9807C94.1448 103.06 94.3065 103.101 94.4496 103.182C94.7855 103.356 95.1586 103.448 95.5373 103.448C95.916 103.448 96.2892 103.356 96.6251 103.182C96.8272 103.078 96.9954 102.918 97.1103 102.722C97.2252 102.526 97.2818 102.301 97.2737 102.074C97.4732 80.0283 98.2715 57.6934 99.5189 35.6878C99.5495 35.4636 99.5068 35.2357 99.3971 35.0378C99.2874 34.8399 99.1166 34.6828 98.9102 34.5901Z" fill="#1E1E1E"/>
<path d="M22.9912 73.1424C22.658 72.8744 22.2695 72.6835 21.8536 72.5836C21.5734 72.5277 21.2902 72.4877 21.0054 72.4639L18.3211 72.1744H18.1515C17.7872 72.1855 17.4244 72.1244 17.0838 71.9947C16.3054 71.6454 16.2855 70.7273 16.2655 70.0587C16.2714 69.9756 16.2714 69.8923 16.2655 69.8092L16.1158 68.0827C15.9162 65.9769 15.7366 63.7614 15.557 61.2963C15.2377 56.6857 14.9982 52.1149 14.8485 47.7038C14.6988 43.2927 14.639 38.7219 14.6589 34.0813C14.6589 30.9376 14.7487 27.5345 14.8784 23.7322C14.8784 23.4727 14.8784 23.2133 14.8784 22.9439V21.9459C14.8784 21.4569 14.8784 20.9478 14.8784 20.4688C15.068 15.9678 15.3475 11.3971 15.7167 6.8762C15.7965 5.99798 15.8663 5.10987 15.9462 4.23164L16.016 3.39325H16.8543C24.069 3.17369 31.6928 3.12387 40.1748 3.22367H40.5839C51.4608 3.36338 62.0584 3.78253 72.0771 4.46116L73.0051 4.52097V5.45914C73.0051 5.8783 72.9553 6.30745 72.8954 6.7266C72.7072 7.89815 72.3927 9.0458 71.9574 10.1496C71.9058 10.2853 71.8844 10.4306 71.8948 10.5754C71.9051 10.7202 71.9469 10.8609 72.0172 10.9879C72.2731 11.4662 72.7068 11.8247 73.2247 11.9859C73.6746 12.0807 74.1433 12.0173 74.5518 11.8063C74.937 11.5843 75.2279 11.2295 75.3701 10.8083C76.3381 8.34218 76.6809 5.67478 76.368 3.04397C76.3524 2.58773 76.1674 2.15369 75.8491 1.82646C75.4962 1.52497 75.0459 1.36189 74.5818 1.36743C74.4465 1.36692 74.3118 1.38705 74.1826 1.42724H74.033H73.8733C63.2857 0.668776 52.0995 0.209718 40.6438 0.0699997H40.4043C37.7599 0.0699997 35.1754 0.0699997 32.6407 0.0699997C26.1844 0.0699997 20.0075 0.169745 13.9404 0.389301C13.6401 0.374739 13.3419 0.445915 13.0804 0.594332C12.819 0.742748 12.605 0.962382 12.4636 1.2277C12.3275 1.49197 12.2616 1.7867 12.2721 2.08376C12.2826 2.38081 12.3691 2.6702 12.5234 2.92422L12.713 3.20369V3.53298C12.0944 10.2594 11.7151 17.1954 11.4457 24.7501C10.936 40.7882 11.5095 56.8424 13.1621 72.8031C13.2189 73.2215 13.4228 73.606 13.7374 73.8876C14.0519 74.1693 14.4564 74.3297 14.8784 74.3401H15.1878L15.4173 74.5496C15.8178 74.887 16.3126 75.0926 16.8343 75.1384L19.8878 75.4678L22.7517 75.7771C22.874 75.7974 22.9987 75.7974 23.121 75.7771C23.121 75.7771 23.2407 75.7273 23.3904 75.4478C23.5545 75.1811 23.6535 74.8796 23.6795 74.5675C23.7055 74.2555 23.6578 73.9416 23.5401 73.6514C23.3934 73.4464 23.2067 73.2733 22.9912 73.1424Z" fill="#1E1E1E"/>
<path d="M7.99297 48.9811C7.72161 48.8363 7.43331 48.7257 7.13474 48.6518C7.47483 48.1975 7.74094 47.6923 7.92311 47.1548C8.18492 46.4064 8.19181 45.5923 7.94272 44.8395C7.69364 44.0868 7.20256 43.4376 6.54603 42.9932C6.07238 42.6964 5.56261 42.4617 5.02922 42.2946C5.25874 41.9254 5.47826 41.5062 5.63792 41.2966C6.24561 40.5945 6.9134 39.9466 7.63369 39.3605C7.94444 39.0484 8.14331 38.6424 8.19926 38.2056C8.25521 37.7688 8.1651 37.3256 7.94303 36.9453C7.21144 35.9612 6.2752 35.1476 5.19885 34.5602L6.84538 32.175C7.70356 30.9375 8.98086 29.6002 9.47981 28.1831C10.328 25.778 8.61166 24.7799 6.62587 24.2809C7.4142 23.4826 8.22245 22.714 9.08063 21.9755C9.29606 21.7593 9.45909 21.4966 9.5571 21.2076C9.6551 20.9185 9.68547 20.6109 9.64596 20.3083C9.60644 20.0056 9.49806 19.716 9.32912 19.4618C9.16019 19.2076 8.93524 18.9956 8.67152 18.842L5.96724 17.1953C5.62796 16.9857 5.20886 16.7761 4.79973 16.5566C5.02924 16.347 5.24879 16.1673 5.36853 16.0476C5.89741 15.5286 6.44621 15.0496 7.015 14.5706C9.01077 12.9239 6.15687 10.1095 4.19104 11.7462C2.61438 13.0635 -0.508998 15.329 0.319245 17.7341C0.718399 18.9017 1.92581 19.4307 2.91372 20.0295L4.39056 20.9377C3.29747 21.9892 2.26153 23.0985 1.28716 24.261C0.438962 25.2589 0.538755 27.3347 2.1653 27.5942L4.68998 27.9934H4.98933C4.43052 28.8118 3.80187 29.6002 3.26301 30.3786L0.269363 34.64C-0.668647 35.9973 0.628582 37.5142 1.99568 37.634C2.41479 37.6824 2.82283 37.8005 3.20308 37.9833C1.14744 40.089 -0.978042 43.2526 1.77612 45.1887C2.24685 45.4958 2.75713 45.7376 3.29292 45.9073C3.47254 45.9672 3.71203 46.0769 3.92159 46.1268C3.64218 46.4262 3.28295 46.8952 2.99356 47.2046C2.31319 47.8973 1.7951 48.7325 1.47676 49.6498C1.3595 50.0743 1.38599 50.5257 1.55204 50.9337C1.7181 51.3416 2.01438 51.6831 2.3948 51.9051C2.92919 52.2573 3.54332 52.4701 4.18105 52.524C3.91162 52.8333 3.65214 53.1627 3.40267 53.5219C2.65518 54.6026 2.09207 55.7998 1.73622 57.0647C1.61138 57.575 1.68655 58.1137 1.94635 58.5702C2.20614 59.0268 2.63088 59.3665 3.13328 59.5197C3.73554 59.755 4.29254 60.0926 4.77975 60.5177C6.70567 62.2043 9.53967 59.39 7.60378 57.6935C7.15402 57.3028 6.67348 56.9491 6.16683 56.6357C6.46168 56.0603 6.82708 55.5238 7.25455 55.0388C8.14266 54.0408 9.31015 53.472 9.58956 52.1048C9.68579 51.4823 9.58331 50.8454 9.29666 50.2846C9.01001 49.7238 8.55381 49.2676 7.99297 48.9811Z" fill="#59C69F"/>
<path d="M88.5821 89.9983C88.5821 89.8516 88.553 89.7064 88.4965 89.5711C88.4399 89.4357 88.3571 89.3129 88.2528 89.2099C88.0386 89.0158 87.7632 88.9028 87.4744 88.8906C85.959 88.7209 84.4295 88.7209 82.9141 88.8906C82.7464 88.908 82.5819 88.9483 82.4251 89.0103C82.2406 88.9072 82.0328 88.853 81.8214 88.853C81.6101 88.853 81.4022 88.9072 81.2177 89.0103C80.9999 89.1337 80.8181 89.3119 80.6903 89.5272C80.5625 89.7425 80.4932 89.9875 80.4892 90.2378C80.4294 90.8366 80.4893 91.4454 80.4094 92.0542C80.3396 93.2917 80.2198 94.5292 80.0602 95.7567C80.0588 95.9025 80.0866 96.0472 80.1418 96.1822C80.197 96.3172 80.2785 96.4398 80.3816 96.543C80.4847 96.6461 80.6074 96.7276 80.7424 96.7828C80.8773 96.838 81.022 96.8658 81.1678 96.8645C81.2142 96.8691 81.2611 96.8691 81.3075 96.8645C81.3833 96.8795 81.4612 96.8795 81.537 96.8645H81.5969C82.525 96.5052 83.433 96.096 84.3311 95.6569C84.7876 95.874 85.222 96.1347 85.6284 96.4354C85.9434 96.6904 86.2402 96.9671 86.5165 97.2637C86.6726 97.4169 86.8705 97.5204 87.0854 97.5613C87.3003 97.6021 87.5224 97.5784 87.7239 97.4932C87.9206 97.4092 88.0891 97.2705 88.2094 97.0936C88.3297 96.9167 88.3967 96.7091 88.4024 96.4952L88.4923 94.2997C88.4972 94.2532 88.4972 94.2064 88.4923 94.16C88.5022 92.7029 88.5123 91.3855 88.5821 89.9983ZM86.3269 94.0602V94.13C85.9618 93.9017 85.5818 93.6983 85.1893 93.5212C85.0159 93.3572 84.795 93.2524 84.5583 93.2219C84.3216 93.1914 84.0813 93.2368 83.8721 93.3515C83.413 93.601 82.9341 93.8206 82.4551 94.0402C82.4551 93.6909 82.5449 93.3316 82.5748 92.9723C82.6048 92.613 82.6347 92.0741 82.6547 91.625C82.6547 91.4554 82.6547 91.2857 82.6547 91.116C82.7371 91.1312 82.8217 91.1312 82.9042 91.116C84.0402 90.9865 85.1846 90.9464 86.3269 90.9963C86.3069 92.0242 86.3069 93.0422 86.3069 94.0602H86.3269Z" fill="#1E1E1E"/>
</g>
<defs>
<clipPath id="clip0_2_1432">
<rect width="132" height="104" fill="white"/>
</clipPath>
</defs>
</svg>
