<svg width="145" height="15" viewBox="0 0 145 15" fill="none" xmlns="http://www.w3.org/2000/svg">
<path d="M144.436 10.7507C142.774 8.65161 141 6.7243 139.338 4.6252C137.68 2.69292 136.504 1.74169 134.582 3.66125C132.999 5.23224 131.08 7.31862 129.858 9.54199C129.742 9.54696 129.739 9.38014 129.623 9.38511C129.378 8.72776 128.791 8.25215 128.434 7.76659C127.601 6.63363 126.883 5.4957 126.054 4.52956C124.745 2.74919 123.328 1.30743 121.507 2.55473C119.683 3.6352 118.586 6.35407 117.126 8.25374C117.014 8.42553 116.902 8.59732 116.79 8.76912C117.129 8.42056 117.007 8.09188 116.545 8.11177C116.188 7.62621 115.608 7.48424 115.139 7.17048C114.317 6.53799 113.495 5.90549 112.673 5.273C110.794 3.85113 109.024 2.09064 107.254 0.330157C106.663 -0.312279 105.631 0.0661037 105.184 0.753278C104.409 2.28948 103.63 3.65885 102.854 5.19505C102.411 6.04905 101.967 6.90305 101.523 7.75704C101.412 7.92884 101.3 8.10063 101.192 8.43925C101.08 8.61104 101.08 8.61104 101.08 8.61104C100.027 7.98849 99.0753 6.69367 98.1306 5.7325C97.0706 4.77631 96.007 3.65329 94.8316 2.70206C92.8269 0.784691 90.8438 -0.13174 88.7017 2.29822C87.1258 4.20286 85.6653 6.10253 84.0894 8.00717C82.7914 6.72727 81.497 5.61419 80.0836 4.33926C78.7893 3.22618 77.4841 1.61264 75.8795 2.1827C74.3902 2.74779 73.0487 4.80931 71.8081 6.19857C71.1302 6.89568 70.4522 7.5928 69.8896 8.28494C69.2117 8.98206 68.7501 9.00194 67.9316 8.53627C65.2419 6.98237 63.0967 3.90222 60.0859 3.53099C56.9597 3.16474 54.8319 6.26199 52.4591 8.7019C51.6693 9.57081 51.7811 9.39901 50.9555 8.5997C50.2488 7.96223 49.6575 7.31979 48.9508 6.68233C47.5374 5.4074 46.1241 4.13247 44.4979 3.70159C42.8753 3.43754 41.5122 4.49812 40.0337 5.56368C39.2368 6.09894 38.4399 6.63421 37.6429 7.16947C36.846 7.70474 35.6019 8.92717 34.567 9.13873C33.1823 9.19838 31.412 7.4379 30.233 6.31985C28.9351 5.03995 27.8535 3.08281 26.2273 2.65194C24.7165 2.21609 23.2345 3.11482 22.1093 4.49911C20.8688 5.88837 19.7616 8.10678 18.1318 7.50908C16.5056 7.0782 15.1969 5.29783 13.7871 4.18972C12.2584 2.91976 10.6214 1.98842 8.76806 1.73431C5.40749 1.21117 1.98538 3.19535 0.23253 7.61227C-0.860307 10.498 2.19359 12.8711 3.28643 9.98537C4.81927 6.07886 8.16548 5.9347 10.7435 7.66039C13.3215 9.38608 15.4702 12.6331 18.4739 12.6706C19.8621 12.7778 21.1134 11.889 22.2457 10.8384C23.1473 9.79767 24.7053 7.05892 25.8807 8.01014C27.0525 8.79455 28.1304 10.5849 29.3094 11.7029C30.6038 12.816 32.129 13.9191 33.5208 14.1931C35.028 14.4621 36.2793 13.5734 37.646 12.6796C39.3553 11.6041 41.0538 10.0281 42.7666 9.11945C44.2523 8.38754 45.6764 10.1629 46.8518 11.1142C48.0308 12.2322 49.3431 14.1794 50.8503 14.4484C53.5222 15.1682 55.614 10.4027 57.7776 8.97371C60.2838 7.36294 62.7787 10.595 64.8916 12.1738C66.186 13.2868 67.7076 14.2232 69.2004 13.8249C70.8086 13.4216 72.1538 11.5269 73.3943 10.1377C74.0723 9.44057 75.0784 7.89443 75.879 7.52599C75.9943 7.52102 76.2143 7.01061 76.2143 7.01061C76.4451 7.00067 77.2744 7.96681 77.5087 8.12369C79.16 9.72232 80.9267 11.316 82.578 12.9146C82.578 12.9146 82.6934 12.9096 82.697 13.0765C83.2883 13.7189 84.215 13.846 84.8858 12.8152C85.8991 11.6027 86.7971 10.3952 87.8104 9.18269C88.2576 8.49551 88.8238 7.97019 89.271 7.28302C89.61 6.93446 90.2772 5.73688 90.7351 5.55017C91.6546 5.34358 93.3203 7.60951 94.027 8.24697C95.087 9.20317 96.0316 10.1643 97.0916 11.1205C98.7429 12.7192 100.758 15.137 102.554 12.722C103.452 11.5144 104.109 9.81638 104.772 8.45197C105.216 7.59798 105.771 6.57219 106.215 5.71819C109.164 8.59672 112.222 11.1366 115.496 12.9993C117.482 14.0826 118.6 12.3647 119.945 10.47C120.616 9.43919 121.28 8.07479 122.073 7.3727C122.751 6.67558 122.297 7.02911 122.884 7.50473C123.238 7.82346 123.717 8.63769 124.074 9.12324C124.907 10.2562 125.624 11.3941 126.454 12.3603C127.049 13.1695 127.766 14.3075 128.584 14.7731C130.452 15.6945 131.559 13.4761 132.796 11.9201C133.583 10.8843 134.369 9.8486 135.27 8.80789C135.27 8.80789 135.948 8.11078 136.287 7.76222C136.406 7.92407 136.525 8.08592 136.644 8.24778C138.306 10.3469 140.08 12.2742 141.742 14.3733C143.75 16.4575 146.098 12.8498 144.436 10.7507Z" fill="#59C69F"/>
</svg>
