<svg width="140" height="15" viewBox="0 0 140 15" fill="none" xmlns="http://www.w3.org/2000/svg">
<path d="M139.455 10.7507C137.851 8.65161 136.138 6.7243 134.533 4.6252C132.932 2.69292 131.797 1.74169 129.941 3.66125C128.413 5.23224 126.56 7.31862 125.38 9.54199C125.269 9.54696 125.265 9.38014 125.154 9.38511C124.917 8.72776 124.35 8.25215 124.005 7.76659C123.201 6.63363 122.508 5.4957 121.707 4.52956C120.444 2.74919 119.076 1.30743 117.318 2.55473C115.556 3.6352 114.497 6.35407 113.087 8.25374C112.979 8.42553 112.871 8.59732 112.763 8.76912C113.09 8.42056 112.972 8.09188 112.526 8.11177C112.182 7.62621 111.621 7.48424 111.169 7.17048C110.375 6.53799 109.581 5.90549 108.788 5.273C106.974 3.85113 105.265 2.09064 103.555 0.330157C102.985 -0.312279 101.989 0.0661037 101.557 0.753278C100.808 2.28948 100.056 3.65885 99.3076 5.19505C98.8793 6.04905 98.451 6.90305 98.0227 7.75704C97.9147 7.92884 97.8068 8.10063 97.7023 8.43925C97.5944 8.61104 97.5944 8.61104 97.5944 8.61104C96.5779 7.98849 95.6589 6.69367 94.7468 5.7325C93.7233 4.77631 92.6964 3.65329 91.5615 2.70206C89.626 0.784691 87.7113 -0.13174 85.6431 2.29822C84.1215 4.20286 82.7113 6.10253 81.1897 8.00717C79.9365 6.72727 78.6868 5.61419 77.3221 4.33926C76.0724 3.22618 74.8122 1.61264 73.2629 2.1827C71.825 2.74779 70.5297 4.80931 69.332 6.19857C68.6774 6.89568 68.0228 7.5928 67.4796 8.28494C66.8251 8.98206 66.3794 9.00194 65.5892 8.53627C62.9921 6.98237 60.9209 3.90222 58.0139 3.53099C54.9955 3.16474 52.9412 6.26199 50.6501 8.7019C49.8876 9.57081 49.9956 9.39901 49.1984 8.5997C48.5161 7.96223 47.9452 7.31979 47.2628 6.68233C45.8982 5.4074 44.5336 4.13247 42.9635 3.70159C41.3969 3.43754 40.0808 4.49812 38.6533 5.56368C37.8838 6.09894 37.1143 6.63421 36.3449 7.16947C35.5754 7.70474 34.3742 8.92717 33.375 9.13873C32.0381 9.19838 30.3289 7.4379 29.1905 6.31985C27.9373 5.03995 26.893 3.08281 25.3229 2.65194C23.8642 2.21609 22.4333 3.11482 21.3469 4.49911C20.1492 5.88837 19.0802 8.10678 17.5066 7.50908C15.9365 7.0782 14.6729 5.29783 13.3117 4.18972C11.8357 2.91976 10.2552 1.98842 8.46571 1.73431C5.22102 1.21117 1.91692 3.19535 0.224511 7.61227C-0.830642 10.498 2.11795 12.8711 3.17311 9.98537C4.65309 6.07886 7.88392 5.9347 10.373 7.66039C12.8621 9.38608 14.9368 12.6331 17.8368 12.6706C19.1772 12.7778 20.3854 11.889 21.4786 10.8384C22.3491 9.79767 23.8534 7.05892 24.9882 8.01014C26.1196 8.79455 27.1604 10.5849 28.2988 11.7029C29.5485 12.816 31.0211 13.9191 32.3649 14.1931C33.8201 14.4621 35.0283 13.5734 36.3479 12.6796C37.9982 11.6041 39.6381 10.0281 41.2919 9.11945C42.7263 8.38754 44.1013 10.1629 45.2362 11.1142C46.3746 12.2322 47.6416 14.1794 49.0969 14.4484C51.6766 15.1682 53.6963 10.4027 55.7853 8.97371C58.2051 7.36294 60.614 10.595 62.654 12.1738C63.9037 13.2868 65.3728 14.2232 66.8142 13.8249C68.3669 13.4216 69.6657 11.5269 70.8635 10.1377C71.5181 9.44057 72.4895 7.89443 73.2624 7.52599C73.3739 7.52102 73.5863 7.01061 73.5863 7.01061C73.8091 7.00067 74.6097 7.96681 74.836 8.12369C76.4304 9.72232 78.1362 11.316 79.7305 12.9146C79.7305 12.9146 79.8419 12.9096 79.8454 13.0765C80.4163 13.7189 81.311 13.846 81.9587 12.8152C82.9371 11.6027 83.8041 10.3952 84.7825 9.18269C85.2143 8.49551 85.7609 7.97019 86.1927 7.28302C86.52 6.93446 87.1642 5.73688 87.6063 5.55017C88.4941 5.34358 90.1023 7.60951 90.7847 8.24697C91.8081 9.20317 92.7202 10.1643 93.7436 11.1205C95.338 12.7192 97.2839 15.137 99.0179 12.722C99.8849 11.5144 100.519 9.81638 101.159 8.45197C101.588 7.59798 102.124 6.57219 102.552 5.71819C105.4 8.59672 108.352 11.1366 111.513 12.9993C113.431 14.0826 114.511 12.3647 115.809 10.47C116.457 9.43919 117.098 8.07479 117.864 7.3727C118.518 6.67558 118.08 7.02911 118.647 7.50473C118.988 7.82346 119.451 8.63769 119.796 9.12324C120.6 10.2562 121.293 11.3941 122.093 12.3603C122.668 13.1695 123.36 14.3075 124.151 14.7731C125.954 15.6945 127.023 13.4761 128.217 11.9201C128.976 10.8843 129.735 9.8486 130.606 8.80789C130.606 8.80789 131.26 8.11078 131.588 7.76222C131.702 7.92407 131.817 8.08592 131.932 8.24778C133.537 10.3469 135.25 12.2742 136.854 14.3733C138.793 16.4575 141.06 12.8498 139.455 10.7507Z" fill="#59C69F"/>
</svg>
