<svg width="173" height="15" viewBox="0 0 173 15" fill="none" xmlns="http://www.w3.org/2000/svg">
<path d="M172.327 10.7507C170.344 8.65161 168.228 6.7243 166.245 4.6252C164.266 2.69292 162.864 1.74169 160.57 3.66125C158.681 5.23224 156.392 7.31862 154.934 9.54199C154.796 9.54696 154.792 9.38014 154.654 9.38511C154.362 8.72776 153.661 8.25215 153.235 7.76659C152.241 6.63363 151.385 5.4957 150.396 4.52956C148.834 2.74919 147.144 1.30743 144.971 2.55473C142.794 3.6352 141.486 6.35407 139.743 8.25374C139.61 8.42553 139.476 8.59732 139.343 8.76912C139.747 8.42056 139.601 8.09188 139.051 8.11177C138.625 7.62621 137.932 7.48424 137.373 7.17048C136.392 6.53799 135.411 5.90549 134.43 5.273C132.189 3.85113 130.077 2.09064 127.965 0.330157C127.259 -0.312279 126.029 0.0661037 125.495 0.753278C124.57 2.28948 123.641 3.65885 122.716 5.19505C122.187 6.04905 121.657 6.90305 121.128 7.75704C120.995 7.92884 120.861 8.10063 120.732 8.43925C120.599 8.61104 120.599 8.61104 120.599 8.61104C119.343 7.98849 118.207 6.69367 117.08 5.7325C115.815 4.77631 114.546 3.65329 113.144 2.70206C110.752 0.784691 108.386 -0.13174 105.83 2.29822C103.95 4.20286 102.208 6.10253 100.327 8.00717C98.7787 6.72727 97.2343 5.61419 95.5481 4.33926C94.0037 3.22618 92.4465 1.61264 90.532 2.1827C88.7552 2.74779 87.1546 4.80931 85.6745 6.19857C84.8656 6.89568 84.0568 7.5928 83.3856 8.28494C82.5767 8.98206 82.026 9.00194 81.0495 8.53627C77.8403 6.98237 75.2809 3.90222 71.6886 3.53099C67.9588 3.16474 65.4202 6.26199 62.5891 8.7019C61.6468 9.57081 61.7802 9.39901 60.7951 8.5997C59.952 7.96223 59.2465 7.31979 58.4034 6.68233C56.7171 5.4074 55.0308 4.13247 53.0906 3.70159C51.1547 3.43754 49.5284 4.49812 47.7644 5.56368C46.8135 6.09894 45.8627 6.63421 44.9119 7.16947C43.9611 7.70474 42.4767 8.92717 41.242 9.13873C39.5899 9.19838 37.4778 7.4379 36.0711 6.31985C34.5225 5.03995 33.2321 3.08281 31.2919 2.65194C29.4894 2.21609 27.7211 3.11482 26.3787 4.49911C24.8986 5.88837 23.5776 8.10678 21.6331 7.50908C19.6929 7.0782 18.1315 5.29783 16.4495 4.18972C14.6255 2.91976 12.6725 1.98842 10.4612 1.73431C6.45169 1.21117 2.36876 3.19535 0.277432 7.61227C-1.02644 10.498 2.61718 12.8711 3.92105 9.98537C5.74989 6.07886 9.74227 5.9347 12.8181 7.66039C15.8939 9.38608 18.4576 12.6331 22.0412 12.6706C23.6975 12.7778 25.1905 11.889 26.5415 10.8384C27.6171 9.79767 29.4759 7.05892 30.8783 8.01014C32.2764 8.79455 33.5625 10.5849 34.9692 11.7029C36.5135 12.816 38.3332 13.9191 39.9938 14.1931C41.792 14.4621 43.285 13.5734 44.9156 12.6796C46.9549 11.6041 48.9814 10.0281 51.025 9.11945C52.7975 8.38754 54.4967 10.1629 55.899 11.1142C57.3057 12.2322 58.8714 14.1794 60.6697 14.4484C63.8575 15.1682 66.3532 10.4027 68.9347 8.97371C71.9248 7.36294 74.9015 10.595 77.4224 12.1738C78.9667 13.2868 80.7821 14.2232 82.5632 13.8249C84.482 13.4216 86.0869 11.5269 87.567 10.1377C88.3759 9.44057 89.5763 7.89443 90.5314 7.52599C90.6691 7.52102 90.9316 7.01061 90.9316 7.01061C91.2069 7.00067 92.1963 7.96681 92.4759 8.12369C94.4461 9.72232 96.554 11.316 98.5241 12.9146C98.5241 12.9146 98.6618 12.9096 98.6661 13.0765C99.3716 13.7189 100.477 13.846 101.278 12.8152C102.487 11.6027 103.558 10.3952 104.767 9.18269C105.3 8.49551 105.976 7.97019 106.51 7.28302C106.914 6.93446 107.71 5.73688 108.256 5.55017C109.353 5.34358 111.341 7.60951 112.184 8.24697C113.449 9.20317 114.576 10.1643 115.84 11.1205C117.811 12.7192 120.215 15.137 122.358 12.722C123.429 11.5144 124.212 9.81638 125.004 8.45197C125.533 7.59798 126.196 6.57219 126.725 5.71819C130.244 8.59672 133.892 11.1366 137.798 12.9993C140.168 14.0826 141.502 12.3647 143.107 10.47C143.908 9.43919 144.699 8.07479 145.646 7.3727C146.455 6.67558 145.913 7.02911 146.614 7.50473C147.035 7.82346 147.607 8.63769 148.033 9.12324C149.027 10.2562 149.883 11.3941 150.872 12.3603C151.582 13.1695 152.438 14.3075 153.415 14.7731C155.643 15.6945 156.964 13.4761 158.44 11.9201C159.378 10.8843 160.316 9.8486 161.391 8.80789C161.391 8.80789 162.2 8.11078 162.605 7.76222C162.747 7.92407 162.889 8.08592 163.031 8.24778C165.014 10.3469 167.13 12.2742 169.113 14.3733C171.509 16.4575 174.31 12.8498 172.327 10.7507Z" fill="#F7C300"/>
</svg>
