<svg width="156" height="103" viewBox="0 0 156 103" fill="none" xmlns="http://www.w3.org/2000/svg">
<path d="M88.4497 43.5321C86.4097 43.1989 83.5924 42.9491 83.2229 40.3286C83.1784 40.0384 83.1964 39.742 83.2757 39.4594C82.9166 38.7654 81.9093 38.5518 81.0096 38.4728C80.7184 38.8055 80.3863 39.099 80.0213 39.3462C78.5697 39.0857 77.1153 38.8479 75.6581 38.633C74.2347 38.4194 73.1598 39.9485 74.22 41.1316C75.8503 42.9533 77.0963 45.0697 78.5683 47.0174C79.2694 47.9443 79.9938 48.901 80.8913 49.6442C81.8987 50.4771 83.0877 50.7825 84.3485 50.9876C85.1932 51.1264 85.8543 50.774 86.1668 49.9454C86.5985 48.8174 87.221 47.7739 88.0062 46.8615C88.6968 46.4664 89.3473 45.9752 89.6514 45.2726C90.135 44.1578 89.455 43.6944 88.4497 43.5321Z" fill="#59C59F"/>
<path d="M155.837 45.1467C155.886 40.4483 156 35.7286 156 31.0216C155.972 30.9361 155.937 30.8532 155.894 30.7739C155.736 29.4157 155.571 28.0553 155.392 26.6991C155.138 24.7771 154.866 22.855 154.574 20.9329C154.3 19.1561 154.12 17.3024 153.614 15.5682C153.191 14.1459 152.437 12.777 151.113 12.0423C149.635 11.2222 147.831 11.3248 146.197 11.2692C138.33 11.0087 126.489 11.9569 118.622 11.7925C102.815 11.4565 87.0059 11.3141 71.1936 11.3653C55.3814 11.4166 39.574 11.6601 23.7716 12.0957C19.9069 12.2025 16.0436 12.3207 12.1816 12.4502C10.281 12.5143 10.281 15.5042 12.1816 15.4401C22.2862 15.1084 32.3965 14.8528 42.5123 14.6734C42.4061 15.4321 42.543 16.2053 42.903 16.8795C41.5979 15.7583 39.6507 16.2581 38.24 17.1209C37.4586 17.5992 36.2147 18.2079 35.427 19.0087C33.1166 17.5565 30.3585 17.7274 27.6764 18.1929C25.9553 18.4962 24.2531 18.8443 22.5066 18.5197C20.8762 18.2164 19.2987 17.7893 17.6493 17.6185C14.6821 17.3109 11.584 17.6014 8.81532 18.7653C6.62743 19.6836 2.02567 22.3617 3.97915 25.3537C4.87881 26.7333 6.95688 27.122 8.46053 27.2416C9.91758 27.3453 11.3782 27.0979 12.7223 26.5197C13.0179 27.3462 12.5386 28.6105 12.2344 29.2598C11.4425 30.9469 10.1775 32.3521 9.7002 34.2037C9.20391 36.1258 9.72555 37.8941 11.0814 39.3121C11.6537 39.9123 12.2872 40.4163 12.661 41.1766C13.0644 41.9902 13.2355 42.9064 13.5311 43.7628C14.7518 47.3144 17.9069 49.8536 21.0346 51.6902C22.6396 52.6321 24.572 52.726 25.9384 51.2973C27.2731 49.9027 27.4294 47.8141 26.5086 46.1483C26.011 45.2829 25.3039 44.5597 24.4537 44.0468C23.8645 43.6816 22.608 43.4062 22.2595 42.7655C21.9723 42.2316 22.439 41.5674 22.8931 41.3068C23.7948 40.7943 25.0049 41.2406 25.8497 41.672C26.0458 41.7834 26.2641 41.8487 26.4886 41.8632C26.7131 41.8776 26.9379 41.8408 27.1463 41.7555C27.3548 41.6702 27.5417 41.5385 27.693 41.3703C27.8444 41.2021 27.9563 41.0015 28.0207 40.7836C28.6568 38.6152 29.9494 36.703 31.7164 35.3164C33.6699 33.7851 35.9022 33.5716 38.1344 32.7088C39.7667 32.0632 41.1174 30.8493 41.9429 29.2858C42.7684 27.7223 43.0145 25.912 42.6369 24.1812C42.7769 24.0452 42.8827 23.8773 42.9455 23.6916C43.0083 23.5059 43.0263 23.3076 42.9981 23.1134C42.8925 22.0456 43.1184 21.2341 43.5598 20.2794C43.9463 19.4508 44.0118 18.5838 43.6021 17.7872C43.8899 18.0448 44.2173 18.2533 44.5714 18.4044C44.6157 18.4214 44.6897 18.4578 44.7826 18.4962C44.4552 19.1369 44.0624 19.7541 43.79 20.4353C43.2621 21.7552 43.2071 23.3099 44.0836 24.493C45.847 26.8636 49.0591 25.6548 50.8099 23.9848C51.7898 23.0515 52.5543 22.1481 53.8636 21.7018C55.1307 21.2746 56.3831 20.8475 57.2426 19.7797C57.7727 19.1241 58.0156 18.2549 58.5647 17.6291C58.9363 17.202 59.4854 16.9564 59.9669 16.683C61.0102 16.0915 61.8676 15.4593 62.4188 14.4449C75.8123 14.3424 89.2065 14.3766 102.601 14.5474C110.12 14.6457 117.636 14.788 125.152 14.9745C128.953 15.0685 136.712 14.0092 140.505 14.1203C142.402 14.1772 144.298 14.2378 146.195 14.3018C147.447 14.3445 149.415 14.0434 150.254 15.2394C151.033 16.352 151.115 18.0007 151.329 19.2971C151.633 21.1479 151.914 22.9988 152.173 24.8497C153.842 36.6789 153.44 48.6705 152.853 60.5638C152.551 66.6226 152.188 72.6813 152.009 78.7465C151.899 82.6205 152.67 87.5795 151.734 91.3467C151.588 91.8958 151.51 92.4611 151.502 93.0296C151.502 93.9351 151.502 94.8392 151.502 95.7418C151.502 95.9938 151.394 97.3072 151.407 98.091C151.293 98.091 151.181 98.106 151.122 98.106L149.643 98.0718L146.687 98.0056C135.038 97.7621 123.387 97.6432 111.735 97.6489C113.032 96.7001 114.477 95.9781 116.01 95.5133C117.739 95.0093 120.233 93.4546 118.939 91.2826C117.866 89.4759 114.54 89.3606 112.721 89.4503C111.591 89.4988 110.472 89.694 109.391 90.0312C108.808 90.217 108.177 90.5715 107.564 90.6377C106.952 90.7039 106.403 90.4818 105.839 90.3344C103.415 89.688 100.911 89.4003 98.4051 89.4802C95.8856 89.572 93.5309 90.1358 91.1149 90.8171C90.6777 90.9388 90.1646 91.1267 89.7147 90.9879C89.3262 90.8705 89.0094 90.4497 88.6778 90.2212C87.7021 89.5464 86.5533 89.4588 85.4044 89.5207C82.8192 89.6754 80.2449 89.9791 77.694 90.4305C76.4268 90.6441 75.1597 90.911 73.8926 91.1993C72.6255 91.4877 71.3415 91.8294 70.03 91.7119C67.8484 91.5197 65.8865 90.3024 63.6712 90.2063C61.422 90.108 59.8043 91.3467 58.4929 93.0637C57.2933 94.6334 56.1318 95.7141 54.1656 96.1519C52.265 96.579 50.2249 96.3847 48.3263 96.1006C47.5681 95.9896 46.32 95.9981 45.6844 95.5304C45.1691 95.1502 45.0719 94.2875 44.9473 93.7087C44.6179 92.1689 44.2779 90.4668 42.8354 89.5848C40.9348 88.4316 38.7321 89.431 37.3298 90.8875C36.5885 91.6606 35.9993 92.7391 35.049 93.273C34.0986 93.8069 32.9667 93.4631 31.9889 93.1321C29.8981 92.4273 27.6807 91.2677 25.4421 92.0023C22.9965 92.8011 22.1539 95.2805 23.5752 97.4332C24.2099 98.391 24.9871 99.2439 25.8792 99.9618C21.6555 100.141 17.4318 100.152 13.2735 99.5091C11.6159 99.2575 9.97839 98.8849 8.37395 98.3943C7.14484 98.0141 4.99496 97.5592 4.15021 96.4722C3.72784 95.9298 3.77008 95.1225 3.7574 94.4754C3.7384 93.4951 3.73417 92.5128 3.72361 91.5325L3.66025 85.777C3.57719 78.1741 3.49412 70.5706 3.41105 62.9664C3.32799 55.3621 3.24422 47.7593 3.15974 40.1579L3.05203 28.6105L2.98868 22.8443C2.96967 21.1892 2.84085 19.4722 3.08372 17.8277C3.259 16.6425 3.66025 15.359 4.70985 14.6862C5.49757 14.1844 6.54507 13.9943 7.22721 14.7375C8.52601 16.1491 10.6062 14.0327 9.31795 12.6232C7.38981 10.5239 4.08896 11.0578 2.18194 12.9073C-0.293167 15.3056 -0.00806721 19.2607 0.0278346 22.4172C0.113717 30.3774 0.201006 38.3362 0.289704 46.2935C0.46499 62.2787 0.545241 78.2703 0.817672 94.2554C0.845126 95.9041 1.04787 97.5806 2.29598 98.768C3.47229 99.8807 5.21247 100.432 6.70557 100.946C10.0106 102.085 13.5058 102.616 16.9819 102.843C24.3967 103.328 31.9002 102.567 39.3086 102.234C55.0913 101.522 70.8818 101.042 86.68 100.795C102.478 100.547 118.276 100.526 134.072 100.733C138.002 100.787 141.933 100.853 145.865 100.931C147.829 100.972 149.795 101.042 151.761 101.064C157.989 101.126 154.765 90.0653 154.621 86.5266C154.329 79.3786 154.621 72.2392 155.003 65.102C155.352 58.4538 155.77 51.7992 155.837 45.1467ZM39.1587 28.2752C37.9443 30.1866 35.5579 30.1973 33.6319 30.8978C31.8778 31.5394 30.2721 32.5371 28.9134 33.8295C27.5548 35.122 26.4719 36.6818 25.7314 38.4131C24.4516 38.0244 23.1 37.9582 21.8223 38.5134C20.306 39.1712 19.1677 40.7964 19.2057 42.4942C19.248 44.4441 20.7115 45.4841 22.2806 46.2615C22.9754 46.6096 23.6681 47.0047 23.9997 47.7564C24.2278 48.2732 24.2109 49.1766 23.552 49.3987C22.8931 49.6208 21.8963 48.7004 21.3788 48.3459C20.5985 47.8271 19.8469 47.2652 19.1276 46.663C17.7274 45.4564 16.7243 44.1194 16.171 42.3319C15.6177 40.5444 15.0517 39.0687 13.717 37.7425C13.1827 37.2128 12.5195 36.6917 12.4499 35.8845C12.3569 34.9085 12.9314 33.9154 13.396 33.1082C14.3189 31.5 15.3516 30.0414 15.6367 28.1556C15.9218 26.2699 15.4255 24.5251 13.8162 23.3975C13.59 23.2639 13.3327 23.1935 13.0707 23.1935C12.8088 23.1935 12.5515 23.2639 12.3253 23.3975C10.9664 24.1849 9.37301 24.4525 7.83543 24.1513C7.4981 24.0873 7.16726 23.9923 6.84706 23.8673C6.76933 23.8423 6.69376 23.8108 6.6211 23.7733C7.05829 23.2456 7.5819 22.7977 8.16909 22.4492C10.5471 20.903 13.3875 20.4097 16.1773 20.5015C19.3683 20.6083 22.3693 21.9217 25.5815 21.5416C27.9278 21.264 31.1906 20.0659 33.4925 21.2768C32.9962 21.4199 32.4598 21.4903 32.0396 21.5651C30.8633 21.7915 29.6722 22.0819 28.7303 22.8764C27.0302 24.3115 26.6184 27.0643 28.6141 28.4568C30.5317 29.8001 32.7766 28.8839 34.4555 27.6175C35.3658 26.9748 36.1832 26.2072 36.8842 25.3366C37.2115 24.9103 37.4892 24.4474 37.712 23.957C37.7839 23.799 37.8747 23.6367 37.9422 23.4722C38.3871 23.5834 38.8408 23.6548 39.2981 23.6858C39.6964 24.3904 39.8948 25.1924 39.8713 26.0037C39.8478 26.815 39.6034 27.604 39.165 28.2838L39.1587 28.2752ZM33.9571 24.1898C33.6813 24.4558 33.3915 24.7068 33.0892 24.9415C32.4957 25.4071 31.6784 26.1118 30.8886 26.146C30.3353 26.1695 30.0164 25.9324 30.3754 25.4156C30.8759 24.6916 32.0438 24.602 32.821 24.4525C33.2138 24.3756 33.5918 24.2902 33.9571 24.1898ZM40.4849 19.8737C40.3796 20.141 40.2914 20.4149 40.221 20.6938C39.8061 20.7373 39.3873 20.7208 38.9771 20.6446C38.8864 20.5383 38.7794 20.4475 38.6603 20.3755C39.108 20.0915 39.5536 19.7989 40.0119 19.5341C40.2459 19.406 40.496 19.3105 40.7553 19.2501C40.6496 19.4507 40.5592 19.6591 40.4849 19.8737ZM57.5615 14.6115C57.0203 14.9537 56.541 15.3871 56.1445 15.8929C55.7221 16.4417 55.5109 17.091 55.1117 17.6505C54.4296 18.6243 53.0168 18.7525 51.9925 19.2052C50.7254 19.7712 49.8131 20.7664 48.8247 21.7274C48.4023 22.1353 47.1183 23.3142 46.4467 22.6991C45.7752 22.0841 47.3823 19.9036 47.6336 19.3205C48.1785 18.0627 48.17 16.6766 46.8184 15.9826C46.4742 15.8053 45.7625 15.7925 45.5112 15.485C45.2113 15.1176 45.4394 14.808 45.7773 14.6094C49.6828 14.5453 53.5863 14.4933 57.4876 14.4535H57.8234C57.7283 14.5154 57.6397 14.5602 57.5615 14.6115ZM33.8389 99.5133C32.8336 99.5625 31.822 99.6201 30.8105 99.6756C30.6357 99.3585 30.3549 99.1147 30.0185 98.988C28.4621 98.3708 26.6078 97.083 25.8877 95.492C25.271 94.1337 28.8443 95.1204 29.33 95.2933C31.0892 95.9212 32.8379 96.7221 34.7491 96.4444C36.7279 96.1583 37.881 94.7509 39.1249 93.3222C39.5346 92.848 40.3223 91.9233 41.0573 92.0301C41.5514 92.1027 41.6908 92.6366 41.8006 93.0595C42.1723 94.3964 42.2547 95.8358 43.0804 96.9912C44.0751 98.3964 45.7097 98.6997 47.3042 98.9132C42.8143 99.094 38.3259 99.2941 33.8389 99.5133ZM108.111 96.737C107.845 96.9558 107.674 97.2719 107.636 97.6169C105.635 97.6169 103.635 97.6262 101.634 97.6447C86.5385 97.7458 71.4464 98.0561 56.3578 98.5758C57.0313 98.3287 57.6702 97.9941 58.2584 97.5806C59.0222 97.0253 59.6992 96.3572 60.2668 95.5987C60.8075 94.9004 61.3228 94.0504 62.064 93.5528C63.5614 92.5533 65.6542 93.6062 67.1684 94.0739C69.2388 94.7201 71.4413 94.8011 73.5526 94.3088C75.8756 93.8176 78.1776 93.2901 80.5218 92.9612C81.6073 92.8117 82.6991 92.6921 83.791 92.5982C84.6906 92.5213 86.114 92.1711 86.9588 92.5982C87.8035 93.0253 88.2702 93.7194 89.3092 93.9052C90.3483 94.091 91.4085 93.8198 92.4179 93.5058C94.5489 92.8275 96.7649 92.4607 98.9985 92.4166C101.493 92.3825 103.712 92.974 106.126 93.4503C108.608 93.9415 110.812 92.3825 113.306 92.3825C113.923 92.3781 114.538 92.4339 115.144 92.5491L115.311 92.5832C114.901 92.7092 114.485 92.8139 114.084 92.9676C111.851 93.8326 109.913 95.1567 108.111 96.737Z" fill="black"/>
<path d="M47.2999 98.9154C42.8129 99.0948 38.3259 99.292 33.8389 99.507C32.8336 99.5561 31.822 99.6138 30.8105 99.6693C30.6357 99.3522 30.3549 99.1084 30.0185 98.9816C28.4621 98.3644 26.6078 97.0767 25.8877 95.4856C25.271 94.1274 28.8443 95.114 29.33 95.287C31.0892 95.9149 32.8379 96.7157 34.7491 96.4381C36.7279 96.1519 37.881 94.7446 39.1249 93.3158C39.5346 92.8417 40.3223 91.917 41.0573 92.0238C41.5514 92.0964 41.6908 92.6303 41.8006 93.0531C42.1723 94.39 42.2547 95.8295 43.0804 96.9848C44.0751 98.3901 45.7118 98.6891 47.2999 98.9154Z" fill="#59C59F"/>
<path d="M115.309 92.594C114.899 92.72 114.483 92.8246 114.081 92.9784C111.851 93.8327 109.902 95.1567 108.111 96.7371C107.845 96.9559 107.674 97.272 107.636 97.617C105.635 97.617 103.635 97.6262 101.634 97.6448C86.5385 97.7458 71.4464 98.0562 56.3578 98.5759C57.0313 98.3288 57.6702 97.9942 58.2584 97.5807C59.0222 97.0254 59.6992 96.3573 60.2668 95.5988C60.8075 94.9005 61.3228 94.0505 62.064 93.5529C63.5614 92.5534 65.6542 93.6063 67.1684 94.074C69.2388 94.7202 71.4413 94.8012 73.5526 94.3089C75.8756 93.8177 78.1776 93.2902 80.5218 92.9613C81.6073 92.8118 82.6991 92.6922 83.791 92.5983C84.6906 92.5214 86.114 92.1711 86.9588 92.5983C87.8035 93.0254 88.2702 93.7195 89.3092 93.9053C90.3483 94.0911 91.4085 93.8198 92.4179 93.5059C94.5489 92.8276 96.7649 92.4608 98.9985 92.4167C101.493 92.3826 103.712 92.9741 106.126 93.4504C108.608 93.9416 110.812 92.3826 113.306 92.3826C113.923 92.3782 114.538 92.434 115.144 92.5492L115.309 92.594Z" fill="#59C59F"/>
<path d="M57.8255 14.4555C57.7262 14.5089 57.6375 14.5601 57.5594 14.6114C57.0182 14.9536 56.5389 15.387 56.1423 15.8928C55.72 16.4416 55.5088 17.0909 55.1096 17.6504C54.4275 18.6242 53.0146 18.7524 51.9904 19.2051C50.7233 19.7711 49.8109 20.7663 48.8226 21.7273C48.4002 22.1352 47.1162 23.3141 46.4446 22.699C45.773 22.084 47.3802 19.9035 47.6315 19.3205C48.1763 18.0626 48.1679 16.6766 46.8163 15.9825C46.4721 15.8052 45.7604 15.7924 45.5091 15.4849C45.2092 15.1175 45.4373 14.8079 45.7752 14.6093C49.6793 14.5452 53.5827 14.4932 57.4855 14.4534L57.8255 14.4555Z" fill="#59C59F"/>
<path d="M39.165 28.2837C37.9507 30.195 35.5643 30.2057 33.6383 30.9062C31.8842 31.5478 30.2784 32.5455 28.9198 33.838C27.5611 35.1304 26.4782 36.6902 25.7377 38.4215C24.4579 38.0328 23.1063 37.9666 21.8287 38.5219C20.3123 39.1796 19.1741 40.8048 19.2121 42.5027C19.2543 44.4525 20.7178 45.4925 22.287 46.2699C22.9818 46.618 23.6744 47.0131 24.006 47.7649C24.2341 48.2817 24.2172 49.185 23.5583 49.4072C22.8994 49.6293 21.9026 48.7088 21.3852 48.3543C20.6048 47.8355 19.8533 47.2737 19.1339 46.6714C17.7338 45.4648 16.7306 44.1279 16.1773 42.3404C15.624 40.5528 15.058 39.0771 13.7233 37.7509C13.189 37.2213 12.5259 36.7002 12.4562 35.8929C12.3633 34.9169 12.9377 33.9239 13.4023 33.1166C14.3252 31.5085 15.3579 30.0498 15.643 28.1641C15.9281 26.2783 15.4318 24.5335 13.8226 23.4059C13.5963 23.2723 13.3391 23.2019 13.0771 23.2019C12.8151 23.2019 12.5578 23.2723 12.3316 23.4059C10.9727 24.1934 9.37934 24.4609 7.84175 24.1598C7.50442 24.0958 7.1736 24.0007 6.8534 23.8757C6.77567 23.8507 6.70009 23.8193 6.62743 23.7818C7.06462 23.254 7.58824 22.8061 8.17543 22.4577C10.5534 20.9115 13.3939 20.4182 16.1836 20.51C19.3747 20.6168 22.3756 21.9302 25.5878 21.55C27.9341 21.2724 31.1969 20.0743 33.4989 21.2852C33.0026 21.4283 32.4662 21.4988 32.0459 21.5735C30.8696 21.7999 29.6785 22.0903 28.7366 22.8848C27.0471 24.3199 26.6353 27.0728 28.6204 28.4652C30.538 29.8085 32.7829 28.8923 34.4619 27.6259C35.3722 26.9833 36.1896 26.2156 36.8905 25.345C37.2178 24.9187 37.4956 24.4558 37.7184 23.9654C37.7902 23.8074 37.881 23.6451 37.9486 23.4806C38.3935 23.5918 38.8471 23.6633 39.3044 23.6942C39.7002 24.3984 39.8965 25.1992 39.8719 26.0087C39.8474 26.8183 39.6028 27.6054 39.165 28.2837Z" fill="#59C59F"/>
<path d="M45.5006 54.0758C44.7408 53.6762 43.9008 53.4571 43.0445 53.4352C42.3117 53.4202 41.5789 53.6658 40.8461 53.5996C40.8429 53.5434 40.8429 53.4871 40.8461 53.4309C40.8829 53.0234 40.8559 52.6125 40.7658 52.2136C40.7044 51.7753 40.5286 51.3614 40.2565 51.0146C39.9844 50.6678 39.6259 50.4005 39.2178 50.2403C38.3456 49.9156 37.3657 50.3962 36.6202 49.8302C35.8747 49.2643 35.4144 48.5339 34.6034 48.1089C33.5475 47.5515 32.3437 47.5109 31.4356 48.0235C28.6902 48.1644 27.2752 50.599 26.5002 52.9888C25.5815 55.8313 24.8106 59.3295 26.6332 61.9905C27.0417 62.5899 27.56 63.1046 28.1601 63.5068C28.6796 63.8592 29.4272 64.077 29.7334 64.6579C30.0396 65.2388 30.0059 65.982 30.046 66.5799C30.103 67.4171 30.1452 68.2585 30.1938 69.0978C30.3797 72.3291 30.6838 75.6286 32.1452 78.5629C33.501 81.2859 35.8832 83.6009 38.9032 84.2309C40.0837 84.4786 41.3191 83.1994 40.5715 82.0355C38.4597 78.7487 40.0436 74.8512 42.128 71.998C43.2219 70.5031 44.6622 69.2473 45.621 67.6584C46.1015 66.8892 46.3719 66.0049 46.4045 65.0957C46.3914 64.6808 46.3477 64.2675 46.2736 63.8592C46.1891 63.1928 46.3201 63.2185 46.7699 62.7572C49.2703 60.2179 48.7234 55.7587 45.5006 54.0758ZM44.8671 60.44C44.3687 61.0807 43.7372 61.4288 43.4437 62.2339C43.1185 63.1288 43.3677 63.8997 43.4205 64.8074C43.5092 66.3215 41.902 67.573 41.0171 68.6259C39.9074 69.8966 38.938 71.2858 38.126 72.769C37.0088 74.9153 36.4048 77.4097 36.6815 79.7909C35.5323 78.7113 34.6721 77.355 34.181 75.8486C33.0301 72.4615 33.2961 68.88 32.8843 65.384C32.69 63.7225 32.067 62.4133 30.631 61.5142C30.0143 61.1277 29.4019 60.8736 29.0027 60.2201C28.656 59.6225 28.4696 58.9438 28.4621 58.251C28.4051 56.598 28.9372 54.7827 29.518 53.2472C29.7757 52.5724 30.1938 51.5772 30.8865 51.1821C31.2323 51.3363 31.6207 51.3628 31.9839 51.257C32.3471 51.1512 32.662 50.9199 32.8738 50.6033C32.9112 50.622 32.9472 50.6434 32.9815 50.6674C33.1525 50.7891 33.3679 50.8489 33.5432 50.992C34.1641 51.4981 34.6351 52.1346 35.3257 52.566C35.9817 52.9728 36.7486 53.1582 37.5157 53.0956C37.5727 53.0956 37.7057 53.0956 37.8219 53.0956C37.8354 53.3941 37.8714 53.6911 37.9296 53.984C38.1408 55.5665 39.277 56.519 40.8313 56.5959C42.1702 56.6621 43.4394 56.0577 44.5946 57.0551C45.056 57.4774 45.3409 58.0615 45.3915 58.6888C45.4422 59.316 45.2546 59.9391 44.8671 60.4315V60.44Z" fill="black"/>
<path d="M44.8671 60.4313C44.3687 61.072 43.7372 61.4201 43.4437 62.2252C43.1184 63.1201 43.3676 63.891 43.4204 64.7987C43.5091 66.3128 41.902 67.5643 41.0171 68.6172C39.9074 69.8879 38.938 71.2771 38.126 72.7603C37.0088 74.9066 36.4048 77.401 36.6815 79.7822C35.5323 78.7026 34.6721 77.3463 34.181 75.8398C33.03 72.4527 33.2961 68.8713 32.8843 65.3753C32.69 63.7138 32.067 62.4046 30.631 61.5055C30.0143 61.119 29.4018 60.8648 29.0027 60.2113C28.6559 59.6138 28.4696 58.9351 28.4621 58.2423C28.405 56.5893 28.9372 54.774 29.518 53.2385C29.7756 52.5637 30.1938 51.5684 30.8865 51.1734C31.2323 51.3275 31.6207 51.3541 31.9839 51.2483C32.3471 51.1425 32.662 50.9112 32.8738 50.5946C32.9112 50.6132 32.9472 50.6347 32.9815 50.6587C33.1525 50.7804 33.3679 50.8402 33.5432 50.9833C34.1641 51.4894 34.6351 52.1258 35.3256 52.5572C35.9817 52.9641 36.7486 53.1495 37.5156 53.0869C37.5727 53.0869 37.7057 53.0869 37.8219 53.0869C37.8354 53.3854 37.8714 53.6824 37.9296 53.9753C38.1408 55.5578 39.2769 56.5103 40.8313 56.5872C42.1702 56.6534 43.4394 56.049 44.5946 57.0463C45.0583 57.469 45.3448 58.0549 45.3955 58.6841C45.4461 59.3133 45.2571 59.9384 44.8671 60.4313Z" fill="#59C59F"/>
<path d="M132.55 56.5082C131.891 55.8675 131.116 55.9123 130.343 55.5557C130.268 55.5201 130.191 55.4894 130.113 55.4638C130.058 55.3795 129.996 55.3002 129.927 55.2268C129.604 54.8637 129.481 54.458 129.029 54.1825C128.307 53.7404 127.536 53.8023 126.732 53.8472C125.807 53.9006 124.89 53.7468 123.965 53.8023C122.922 53.8664 122.022 55.0517 122.698 56.0511C122.771 56.1806 122.797 56.3313 122.774 56.4783C121.657 55.656 120.029 55.4574 118.734 55.3635C117.171 55.2481 115.509 55.4254 114.012 54.8637C112.289 54.223 111.782 52.207 110.272 51.2545C110.043 51.1106 109.8 50.9911 109.547 50.8979C111.376 51.3122 113.665 51.1926 114.32 49.1296C114.599 48.2475 114.36 47.357 113.927 46.5668C113.744 46.2358 113.416 45.8685 113.157 45.4883C115.213 44.7024 117.15 43.3527 117.541 41.0313C117.94 38.6564 116.538 36.9501 115.458 35.075C115.857 35.1021 116.257 35.1056 116.656 35.0857C117.754 35.0088 118.793 34.6436 119.53 33.7829C121.177 31.8609 120.411 29.2298 119.004 27.4487C118.897 27.3141 118.793 27.1839 118.671 27.0514C118.914 27.0447 119.158 27.0583 119.399 27.092C120.533 27.2565 121.325 27.8352 122.174 28.5549C123.023 29.2746 123.999 29.7936 125.116 29.5053C126.233 29.217 126.846 28.3734 126.989 27.2372C127.003 26.9234 126.908 26.6145 126.721 26.3638L129.466 26.2762C130.343 26.2485 130.839 25.6078 130.945 24.7813C131.276 22.1737 129.317 20.0124 127.072 19.092C124.639 18.0925 121.764 18.0242 119.175 17.8576C113.549 17.518 107.824 17.7807 102.293 16.5164C99.5476 15.8885 96.8888 14.6648 94.0103 15.1261C91.4211 15.5404 89.153 17.0482 86.6821 17.8234C83.9811 18.6704 81.1395 18.9608 78.3254 18.6777C75.6624 18.4128 73.1366 17.8917 70.4925 18.6264C68.1969 19.2671 64.877 20.8709 64.5793 23.5853C64.5211 24.0924 64.5656 24.6061 64.7102 25.0952L64.6426 25.0205C63.6395 24.0167 62.0936 24.4225 61.3375 25.5031C60.9821 25.9989 60.7987 26.5995 60.8159 27.2116C60.8434 27.9313 61.2932 28.493 61.403 29.1636C61.5361 29.9687 60.3471 30.5325 59.8191 31.0088C58.9005 31.8331 58.2394 32.9137 58.212 34.1866C58.1976 34.8436 58.3322 35.4952 58.6053 36.0915C58.8783 36.6879 59.2827 37.2131 59.7874 37.6271C58.5877 38.4775 57.5029 39.4826 56.5605 40.617C55.211 42.3041 54.645 44.35 55.1477 46.4857C55.6503 48.6213 57.0927 50.4387 58.5499 51.9892C59.2278 52.7067 59.9648 53.6229 60.9828 53.7959C61.5399 53.8952 62.1133 53.7711 62.5814 53.4499C62.9489 53.2129 63.2002 52.8327 63.6374 52.7281C64.404 52.5444 65.3269 52.9865 65.9921 53.3261C66.1294 53.3965 66.2645 53.4734 66.4018 53.5503C66.2962 53.6656 66.1906 53.7938 66.1125 53.8984C64.48 55.9102 66.0787 57.702 67.3796 59.293C68.6467 60.8478 68.4693 62.9513 68.3489 64.8456C68.1378 68.2755 68.2687 72.8841 71.994 74.409C73.8947 75.1864 76.0995 74.6225 77.5567 73.2088C78.2615 72.4889 78.7838 71.6075 79.0794 70.6396C79.4574 69.4757 79.2779 68.425 79.3412 67.2482C79.3602 66.8937 79.3264 66.9791 79.7277 66.7506C80.129 66.5221 80.5492 66.4004 80.9505 66.2189C81.0244 66.1868 81.0983 66.1505 81.1617 66.1142C81.3243 68.3139 81.1469 70.8126 82.8955 72.094C84.0042 72.8991 85.415 72.7346 86.4519 71.8804C87.6895 70.8745 87.9028 69.371 88.0252 67.859C88.1477 66.347 88.5828 64.9161 88.5997 63.4212C88.6102 62.2188 88.3399 60.3694 87.2016 59.6945C86.2133 59.1093 84.7392 59.75 83.7867 60.1537C83.6368 60.2156 83.4911 60.2839 83.3453 60.3566C83.4204 59.794 83.6025 59.2515 83.8818 58.7591C85.5037 55.7692 88.851 53.4841 88.7855 49.7895C91.0516 48.5081 93.4 46.3618 92.6524 43.5962C93.2859 43.5428 94.023 43.4189 94.6227 43.6431C95.421 43.9421 95.6639 44.8263 95.8561 45.5801C96.3988 47.7158 96.5298 49.8322 97.9933 51.5941C98.7831 52.5444 100.105 51.8717 100.464 50.9342C100.916 49.7983 101.503 48.7226 102.213 47.7307C102.546 47.2649 102.909 46.8218 103.3 46.4045C103.395 46.5455 103.484 46.6736 103.486 46.6736C104.736 48.5322 106.551 49.9282 108.656 50.6501L108.806 50.6992C107.737 50.5134 106.61 50.7676 105.887 51.6581C105.734 51.8444 105.625 52.0635 105.569 52.2988C104.679 53.6934 105.357 54.9833 106.344 56.2262C106.91 56.9503 107.512 57.6453 108.147 58.3085C108.369 58.5806 108.607 58.8382 108.861 59.0795C108.88 59.2918 108.932 59.4999 109.013 59.6966C109.585 61.3539 111.41 61.5141 112.876 61.7148L118.882 62.5413C119.207 62.584 119.547 62.6417 119.893 62.6908L118.166 64.0063C116.688 65.1339 114.825 66.1847 114.052 67.9679C113.668 68.8563 113.513 69.8195 113.313 70.7613C113.123 71.654 112.774 72.6407 112.943 73.559C112.997 73.9303 113.151 74.2794 113.388 74.5683C113.625 74.8571 113.936 75.0746 114.286 75.197C115.317 75.5195 116.187 74.8916 117.032 74.4111C118.252 73.7256 120.162 72.7645 121.479 73.7982C122.02 74.2253 122.088 74.96 122.385 75.5409C122.57 75.9259 122.839 76.2627 123.173 76.525C123.507 76.7872 123.897 76.9679 124.311 77.0529C125.967 77.3989 127.612 76.0449 128.839 75.0902C130.13 74.0844 131.304 72.8927 131.952 71.3593C132.689 69.6209 132.522 67.8035 131.834 66.08C131.314 64.7752 130.225 63.214 130.21 61.7212C130.729 61.7838 131.255 61.7042 131.734 61.4908C132.212 61.2775 132.625 60.9381 132.93 60.5082C133.341 59.9024 133.528 59.1697 133.459 58.4383C133.389 57.7069 133.068 57.0236 132.55 56.5082ZM84.8427 62.915C85.0619 62.8237 85.2861 62.7453 85.5142 62.6801C85.5709 62.9223 85.6139 63.1676 85.643 63.4148C85.6361 63.7506 85.61 64.0857 85.5649 64.4185C85.4488 65.3219 85.2502 66.2124 85.1425 67.1179C85.0665 67.7843 85.2165 69.134 84.5998 69.5846L84.5639 69.6102C84.477 69.3844 84.423 69.147 84.4034 68.9055C84.1183 67.1649 84.283 65.3582 83.7846 63.6604C84.0747 63.3316 84.4372 63.0763 84.8427 62.915ZM89.6535 45.2683C89.3283 46.0201 88.6102 46.5262 87.8669 46.9363C87.4825 47.4445 86.963 47.8589 86.6441 48.4312C86.3252 49.0036 86.1393 49.6549 85.7993 50.2081C85.4973 52.5957 83.1152 54.5242 81.8523 56.4014C81.035 57.6208 80.45 58.9983 80.3739 60.4847C80.338 61.1766 80.7689 62.4388 80.4056 63.0474C80.1332 63.5045 79.3159 63.6881 78.8534 63.891C78.1882 64.1772 77.563 64.5317 77.0984 65.0955C76.3994 65.9498 76.3973 66.8916 76.4522 67.953C76.5367 69.5825 75.8883 71.5302 74.0468 71.7779C72.5537 71.9765 71.7575 70.5456 71.4302 69.2984C70.9888 67.6134 71.2359 65.8814 71.3225 64.1729C71.4196 62.2509 71.3225 60.2455 70.408 58.5156C69.9856 57.7297 69.3521 57.1339 68.8009 56.4526C68.7249 56.3587 68.3321 55.9102 68.3426 55.8248C68.3659 55.6454 68.9403 55.2375 69.0649 55.0901C72.0447 51.562 64.782 48.9352 62.2182 50.0821C61.9025 50.2148 61.6068 50.3916 61.3397 50.6074C61.2383 50.5113 61.1285 50.4216 61.1095 50.3939C60.3675 49.6755 59.693 48.889 59.0947 48.0447C58.0388 46.4942 57.4052 44.7003 58.4886 42.9896C59.5171 41.3815 61.3925 40.0724 62.9785 39.0793C63.1897 38.9448 63.4135 38.8145 63.6395 38.6885C63.8339 38.6352 64.0152 38.5413 64.1717 38.413C65.4874 37.7723 66.934 37.4477 68.3363 38.0884C69.3458 38.5497 70.237 39.2288 71.3415 39.4851C72.3425 39.7221 73.278 39.5064 74.2622 39.4274C74.9156 39.2714 75.596 39.2714 76.2495 39.4274C77.3835 39.641 78.4205 39.8844 79.5292 39.6794C80.0808 39.3606 80.5796 38.9563 81.0075 38.4813C81.9072 38.5603 82.9082 38.7739 83.2735 39.468C83.1943 39.7505 83.1763 40.047 83.2207 40.3372C83.5924 42.9661 86.4076 43.216 88.4476 43.5406C89.455 43.6944 90.135 44.1578 89.6535 45.2683ZM77.2125 36.0254C77.6731 36.0417 78.1319 36.0924 78.5852 36.177C78.6126 36.177 78.6612 36.1983 78.714 36.2133C78.6493 36.3669 78.6087 36.5297 78.5936 36.6959C78.2661 36.9923 77.8994 37.241 77.5039 37.4349C76.5135 36.6319 75.278 36.3051 73.768 36.4909C72.7121 36.6212 71.9476 36.6425 70.9846 36.1257C69.9751 35.5876 69.01 35.0259 67.8696 34.8315C67.3213 34.7384 66.7638 34.714 66.2096 34.7589C66.9826 33.9752 67.9266 33.3964 68.9551 33.4028C69.8843 33.4028 69.8589 34.4364 70.465 34.9597C71.2169 35.6004 72.315 35.5448 73.3182 35.4551C73.5497 35.7004 73.8326 35.8901 74.146 36.0104C75.1238 36.3927 76.1882 35.9677 77.2125 36.0211V36.0254ZM77.0013 33.0355C77.2547 32.4845 77.5652 31.8118 78.0572 31.5405C78.5493 31.2693 78.5408 31.4273 78.6908 31.6836C78.9315 32.0979 79.054 32.4888 79.2969 32.8219C79.1195 32.9522 78.9505 33.0825 78.8428 33.1423L78.7415 33.2021C78.1737 33.1111 77.6011 33.0541 77.0266 33.0312C77.0175 33.0259 77.0075 33.0222 76.9971 33.0205L77.0013 33.0355ZM108.789 47.5043C107.864 47.058 107.044 46.4182 106.382 45.6271C105.748 44.8583 105.376 43.8695 104.445 43.389C103.389 42.8401 102.272 43.2843 101.455 44.051C100.555 44.9095 99.7763 45.8898 99.1421 46.964C99.1231 46.8658 99.1041 46.7676 99.0851 46.6736C98.857 45.5182 98.6628 44.3628 98.177 43.2843C97.7314 42.2539 96.9241 41.4268 95.911 40.9629C94.2954 40.2496 92.7432 40.8711 91.0875 40.6426C90.6895 40.5767 90.2811 40.6434 89.9238 40.8327C89.5968 40.7291 89.262 40.6527 88.9228 40.6041C88.2787 40.508 86.9566 40.5721 86.359 40.0553C86.4371 38.6372 85.6283 37.3131 84.4921 36.5187C83.6883 35.99 82.7721 35.6614 81.8185 35.5598C81.7749 35.3381 81.704 35.1229 81.6073 34.9191L81.5946 34.8977C82.3148 34.319 82.8871 33.5822 82.885 32.6553C83.2363 33.6672 83.854 34.5629 84.6716 35.2459C85.1524 35.6572 85.6824 36.0059 86.2492 36.2838C86.7448 36.5121 87.2012 36.8192 87.6008 37.1935C88.4983 37.9709 89.8182 37.9389 90.7939 37.326C91.8815 36.6447 92.3187 35.3014 92.249 34.0606C92.188 33.4159 92.0628 32.7791 91.8752 32.1599C91.7083 31.5363 91.664 30.8529 91.3768 30.2656C90.8024 29.0568 89.4085 28.4054 88.1731 28.1299C87.9682 28.0786 87.7547 28.0736 87.5477 28.1153C87.3407 28.157 87.1454 28.2444 86.9757 28.3713C85.8289 28.4012 84.7033 28.3542 83.7297 29.1102C82.885 29.7637 82.5872 30.729 82.6738 31.7263C82.548 31.489 82.377 31.2791 82.1708 31.1087C81.9646 30.9382 81.7272 30.8107 81.4721 30.7333C81.4468 30.6649 81.4235 30.5945 81.4003 30.5197C81.2853 30.1833 81.1193 29.867 80.9083 29.5822C80.0762 28.5015 78.6084 28.2132 77.3498 28.5912C75.8292 29.0483 74.9422 30.4962 74.277 31.8438C74.1903 32.0174 74.1359 32.2056 74.1165 32.3991L72.9085 32.4524L72.427 32.4738C72.1609 32.0407 71.836 31.6475 71.4619 31.3056C70.4059 30.3958 68.9656 30.257 67.6605 30.5987C65.2002 31.2394 63.1094 33.2512 62.0619 35.5534C61.1369 35.1263 60.7948 34.0926 61.874 33.1337C63.0397 32.0894 64.3448 31.1454 64.366 29.4818C64.9968 29.5635 65.6378 29.4674 66.2181 29.2042C66.6404 29.0248 67.6204 28.0744 68.1483 27.91C68.4799 27.9462 68.8146 27.9419 69.1451 27.8972C70.6995 27.6836 70.3932 25.4198 69.1451 25.0141C68.7744 24.8879 68.3806 24.8464 67.992 24.8923C67.728 24.6958 67.5422 24.4102 67.4683 24.0872C67.4007 23.3483 68.4883 22.7887 69.0121 22.4727C70.9275 21.3194 73.0246 21.0567 75.2167 21.281C77.4786 21.5138 79.6517 21.879 81.9452 21.7252C84.2562 21.5782 86.5332 21.0882 88.7031 20.2708C90.6714 19.5191 92.6038 18.2697 94.7262 18.0284C97.0028 17.77 99.2879 18.9104 101.467 19.408C106.029 20.4502 110.726 20.5357 115.378 20.6894C118.003 20.777 120.643 20.8752 123.249 21.2319C124.78 21.4454 127.002 21.9003 127.733 23.3483L122.685 23.5106C122.383 23.5342 122.092 23.6407 121.845 23.8187C121.597 23.9966 121.402 24.2393 121.281 24.5207C120.904 24.3838 120.517 24.2788 120.124 24.2068C118.385 23.895 115.266 23.9826 115.197 26.4193C115.167 27.4145 115.727 28.2004 116.339 28.9287C116.869 29.5694 117.651 30.4236 117.475 31.3419C117.315 32.1791 116.521 32.1257 115.841 32.1086C114.812 32.0809 113.799 32.0168 112.814 32.3841C112.109 32.6447 111.492 33.4113 111.782 34.2229C112.175 35.2611 112.68 36.2523 113.287 37.1786C113.801 37.9987 114.489 38.917 114.618 39.9058C114.878 41.909 112.339 42.6821 110.863 43.0836C110.553 43.1743 110.28 43.3634 110.085 43.623C109.889 43.8826 109.782 44.1989 109.778 44.5251C109.821 45.4355 110.127 46.3132 110.658 47.0495C110.869 47.3655 111.081 47.8162 111.34 48.0831C110.468 47.9507 109.651 47.9123 108.785 47.4894L108.789 47.5043ZM85.5966 31.438C85.8564 31.1689 87.0981 31.3697 87.4297 31.3526C87.6416 31.3423 87.8493 31.2885 88.04 31.1946C88.3437 31.2823 88.6028 31.484 88.7644 31.7584C88.9904 32.1855 89.0495 32.9821 89.1678 33.4669C89.2523 33.8128 89.379 34.2699 89.2755 34.6393C89.0387 34.3996 88.7709 34.1934 88.4793 34.0264C87.5226 33.4904 86.5322 33.217 85.9282 32.2047C85.8234 32.016 85.7357 31.8179 85.6663 31.6131C85.6262 31.5277 85.6093 31.4722 85.5924 31.4231L85.5966 31.438ZM118.21 59.4724C116.421 59.2268 114.62 58.9919 112.84 58.7356C112.639 58.7057 112.05 58.5092 111.889 58.5733L111.801 58.552C111.744 57.8856 111.378 57.3838 110.935 56.9097C110.401 56.3288 109.83 55.7906 109.313 55.2012C109.011 54.853 108.711 54.5007 108.434 54.1333C108.336 54.0121 108.244 53.8852 108.16 53.7532C108.15 53.7323 108.139 53.7123 108.126 53.6934C108.131 53.6831 108.135 53.6724 108.139 53.6614C108.274 53.5994 108.439 53.6486 108.726 53.8194C109.256 54.1397 109.636 54.8723 109.993 55.3528C110.797 56.4738 111.923 57.3172 113.218 57.7682C114.571 58.2423 116.054 58.2765 117.471 58.3192C118.274 58.3448 120.776 58.2145 121.101 59.1307C121.146 59.4137 121.146 59.702 121.101 59.985C121.061 60.1985 121.049 60.1985 121.065 60.0063C121.116 59.7928 120.994 59.7351 120.702 59.8248C119.965 59.5493 118.994 59.577 118.206 59.4575L118.21 59.4724ZM125.695 73.6978C125.47 73.8638 125.224 73.9988 124.964 74.0993C124.936 74.036 124.913 73.9703 124.896 73.9028C124.854 73.3134 124.335 72.5488 123.971 72.1153C123.084 71.0475 121.739 70.5179 120.394 70.4068C118.947 70.2958 117.53 70.8126 116.253 71.4597C116.316 71.0518 116.364 70.6375 116.443 70.2829C116.654 69.3646 116.89 68.7731 117.617 68.1644C118.343 67.5558 119.095 67.0347 119.826 66.4751L124.191 63.15C124.555 63.7145 124.967 64.2468 125.42 64.741C126.113 65.497 127.219 65.1895 127.743 64.4377C127.777 64.3886 127.815 64.3438 127.849 64.2946C127.861 64.3288 127.872 64.363 127.887 64.395C128.349 65.5611 128.996 66.6609 129.34 67.8718C130.096 70.5456 127.693 72.4207 125.69 73.6829L125.695 73.6978ZM126.199 60.6961C126.381 60.7773 126.558 60.8648 126.734 60.9588C126.653 61.0506 126.569 61.1425 126.489 61.2364C126.385 61.0464 126.288 60.8584 126.195 60.6812L126.199 60.6961ZM130.459 58.821C130.239 58.7147 129.998 58.6641 129.754 58.6738C129.511 58.6835 129.274 58.7531 129.063 58.8766C128.111 58.2359 126.803 57.5204 125.623 57.3304C125.67 57.173 125.701 57.0113 125.716 56.8477C126.056 56.8627 126.396 56.8712 126.736 56.8477C127.122 56.8264 127.245 56.726 127.441 56.8968C127.69 57.1104 127.84 57.514 128.117 57.7511C128.782 58.3234 129.536 58.2231 130.254 58.6053C130.332 58.631 130.649 58.8937 130.455 58.8061L130.459 58.821Z" fill="black"/>
<path d="M85.643 63.4212C85.6361 63.757 85.61 64.0921 85.5649 64.4249C85.4487 65.3283 85.2502 66.2189 85.1425 67.1244C85.0665 67.7907 85.2165 69.1404 84.5998 69.591L84.5639 69.6166C84.477 69.3908 84.423 69.1534 84.4034 68.9119C84.1183 67.1713 84.283 65.3646 83.7846 63.6668C84.0741 63.3383 84.4358 63.083 84.8405 62.9214C85.0597 62.8301 85.284 62.7517 85.5121 62.6865C85.5695 62.9287 85.6132 63.174 85.643 63.4212Z" fill="#59C59F"/>
<path d="M126.729 60.9438C126.649 61.0357 126.565 61.1275 126.485 61.2215C126.383 61.0463 126.288 60.8648 126.195 60.6812C126.385 60.7623 126.554 60.8584 126.729 60.9438Z" fill="#59C59F"/>
<path d="M130.455 58.8061C130.235 58.6997 129.993 58.6492 129.75 58.6588C129.507 58.6685 129.269 58.7381 129.059 58.8616C128.106 58.2209 126.799 57.5055 125.619 57.3154C125.665 57.1581 125.696 56.9964 125.712 56.8328C126.052 56.8477 126.392 56.8563 126.732 56.8328C127.118 56.8114 127.241 56.711 127.437 56.8819C127.686 57.0955 127.836 57.4991 128.113 57.7361C128.778 58.3085 129.532 58.2081 130.25 58.5904C130.332 58.631 130.649 58.8937 130.455 58.8061Z" fill="#59C59F"/>
<path d="M121.106 59.9637C121.065 60.1773 121.053 60.1773 121.07 59.9851C121.12 59.7715 120.998 59.7138 120.706 59.8035C119.959 59.5494 118.979 59.5665 118.2 59.4576C116.411 59.212 114.609 58.977 112.829 58.7208C112.629 58.6909 112.039 58.4944 111.879 58.5585L111.79 58.5371C111.733 57.8708 111.368 57.3689 110.924 56.8948C110.39 56.3139 109.82 55.7757 109.302 55.1863C109 54.8382 108.7 54.4858 108.424 54.1185C108.325 53.9973 108.233 53.8704 108.149 53.7384C108.14 53.7175 108.128 53.6975 108.115 53.6786C108.121 53.6683 108.125 53.6576 108.128 53.6465C108.263 53.5846 108.428 53.6337 108.715 53.8046C109.245 54.1249 109.625 54.8574 109.982 55.3379C110.786 56.459 111.912 57.3023 113.207 57.7533C114.561 58.2274 116.043 58.2616 117.46 58.3043C118.263 58.33 120.766 58.1997 121.091 59.1159C121.139 59.396 121.144 59.682 121.106 59.9637Z" fill="#59C59F"/>
<path d="M125.69 73.6829C125.466 73.8488 125.22 73.9839 124.96 74.0844C124.931 74.0211 124.909 73.9553 124.892 73.8879C124.85 73.2985 124.33 72.5339 123.967 72.1004C123.08 71.0326 121.735 70.5029 120.39 70.3919C118.943 70.2808 117.526 70.7976 116.248 71.4447C116.312 71.0368 116.36 70.6225 116.438 70.268C116.65 69.3497 116.886 68.7581 117.613 68.1495C118.339 67.5408 119.091 67.0197 119.822 66.4602L124.187 63.135C124.551 63.6996 124.962 64.2318 125.416 64.726C126.109 65.4821 127.215 65.1745 127.739 64.4228C127.773 64.3737 127.811 64.3288 127.845 64.2797C127.857 64.3139 127.868 64.348 127.883 64.3801C128.345 65.5461 128.991 66.646 129.336 67.8569C130.096 70.5456 127.692 72.4207 125.69 73.6829Z" fill="#59C59F"/>
<path d="M80.3697 60.4868C80.3338 61.1787 80.7646 62.4409 80.4014 63.0495C80.129 63.5066 79.3117 63.6902 78.8492 63.8931C78.1839 64.1793 77.5588 64.5338 77.0942 65.0976C76.3952 65.9518 76.3931 66.8937 76.448 67.9551C76.5324 69.5845 75.8841 71.5322 74.0425 71.78C72.5495 71.9786 71.7533 70.5477 71.4259 69.3005C70.9846 67.6155 71.2316 65.8835 71.3182 64.175C71.4154 62.2529 71.3182 60.2476 70.4038 58.5177C69.9814 57.7318 69.3479 57.136 68.7967 56.4547C68.7206 56.3607 68.3278 55.9123 68.3384 55.8268C68.3616 55.6474 68.9361 55.2395 69.0607 55.0922C72.0405 51.5641 64.7778 48.9373 62.214 50.0841C61.8999 50.2166 61.6056 50.3927 61.3396 50.6074C61.2383 50.5113 61.1285 50.4216 61.1095 50.3938C60.3675 49.6754 59.693 48.889 59.0947 48.0446C58.0388 46.4941 57.4052 44.7002 58.4886 42.9896C59.5171 41.3815 61.3924 40.0723 62.9785 39.0793C63.1896 38.9447 63.4135 38.8144 63.6395 38.6884C63.8339 38.6351 64.0152 38.5413 64.1717 38.4129C65.4874 37.7722 66.934 37.4476 68.3363 38.0883C69.3457 38.5496 70.237 39.2287 71.3415 39.485C72.446 39.7413 73.5061 39.4466 74.6275 39.4039C75.7489 39.3612 76.1565 40.2474 76.6021 41.138C77.1259 42.1887 77.5314 43.295 77.9981 44.3735C78.8428 46.3148 79.9537 48.1364 81.7868 49.2576C82.98 50.0208 84.3984 50.3409 85.7993 50.1632C85.529 52.5764 83.1172 54.5198 81.8459 56.4184C81.0265 57.6229 80.4415 59.0004 80.3697 60.4868Z" fill="#59C59F"/>
<path d="M127.758 23.346L122.711 23.5083C122.408 23.532 122.117 23.6385 121.87 23.8164C121.622 23.9944 121.428 24.2371 121.306 24.5185C120.93 24.3815 120.543 24.2765 120.149 24.2046C118.411 23.8928 115.292 23.9803 115.222 26.4171C115.192 27.4123 115.752 28.1982 116.364 28.9264C116.894 29.5671 117.676 30.4214 117.501 31.3397C117.34 32.1769 116.546 32.1235 115.866 32.1064C114.838 32.0786 113.824 32.0145 112.84 32.3819C112.134 32.6424 111.518 33.4091 111.807 34.2207C112.2 35.2589 112.705 36.2501 113.313 37.1764C113.826 37.9964 114.514 38.9148 114.643 39.9036C114.903 41.9068 112.365 42.6799 110.888 43.0814C110.578 43.1721 110.306 43.3612 110.11 43.6208C109.915 43.8804 109.807 44.1967 109.803 44.5229C109.846 45.4333 110.152 46.3109 110.683 47.0472C110.895 47.3633 111.106 47.8139 111.366 48.0809C110.468 47.9506 109.651 47.9122 108.785 47.4893C107.86 47.043 107.039 46.4031 106.377 45.6121C105.744 44.8433 105.372 43.8545 104.441 43.3739C103.385 42.8251 102.268 43.2693 101.45 44.036C100.551 44.8993 99.7739 45.8847 99.1421 46.9639C99.1231 46.8657 99.1041 46.7675 99.0851 46.6735C98.857 45.5181 98.6627 44.3627 98.177 43.2843C97.7314 42.2538 96.9241 41.4267 95.9109 40.9628C94.2954 40.2495 92.7431 40.871 91.0874 40.6425C90.6894 40.5766 90.281 40.6433 89.9238 40.8326C89.5968 40.729 89.262 40.6526 88.9228 40.604C88.2786 40.5079 86.9566 40.572 86.359 40.0552C86.4371 38.6371 85.6283 37.313 84.4921 36.5186C83.6883 35.9899 82.772 35.6613 81.8184 35.5597C81.7749 35.338 81.7039 35.1228 81.6072 34.919L81.5946 34.8976C82.3147 34.3189 82.887 33.5821 82.8849 32.6552C83.2363 33.6671 83.854 34.5628 84.6716 35.2458C85.1524 35.6571 85.6824 36.0058 86.2491 36.2837C86.7448 36.512 87.2011 36.8191 87.6007 37.1934C88.4983 37.9708 89.8182 37.9388 90.7939 37.3259C91.8815 36.6446 92.3187 35.3013 92.249 34.0605C92.188 33.4158 92.0628 32.779 91.8752 32.1598C91.7083 31.5362 91.664 30.8528 91.3768 30.2655C90.8023 29.0567 89.4085 28.4053 88.1731 28.1298C87.9682 28.0785 87.7547 28.0735 87.5477 28.1152C87.3407 28.1569 87.1454 28.2443 86.9756 28.3712C85.8289 28.4011 84.7033 28.3541 83.7297 29.1101C82.8849 29.7636 82.5872 30.7289 82.6737 31.7262C82.5479 31.4889 82.377 31.279 82.1708 31.1086C81.9646 30.9381 81.7272 30.8106 81.4721 30.7332C81.4467 30.6648 81.4235 30.5944 81.4003 30.5196C81.2853 30.1832 81.1193 29.8669 80.9082 29.5821C80.0762 28.5014 78.6084 28.2131 77.3497 28.5911C75.8292 29.0482 74.9422 30.4961 74.2769 31.8437C74.1903 32.0173 74.1358 32.2055 74.1164 32.399L72.9085 32.4524L72.4269 32.4737C72.1608 32.0406 71.836 31.6474 71.4618 31.3055C70.4059 30.3957 68.9656 30.2569 67.6605 30.5986C65.2001 31.2393 63.1094 33.2511 62.0619 35.5533C61.1369 35.1262 60.7948 34.0925 61.8739 33.1336C63.0397 32.0893 64.3448 31.1453 64.3659 29.4817C64.9968 29.5634 65.6377 29.4673 66.218 29.2041C66.6404 29.0247 67.6203 28.0743 68.1483 27.9099C68.4799 27.9461 68.8145 27.9418 69.1451 27.8971C70.6994 27.6835 70.3932 25.4197 69.1451 25.014C68.7743 24.8878 68.3806 24.8463 67.992 24.8922C67.728 24.6957 67.5422 24.4101 67.4683 24.0871C67.4007 23.3482 68.4883 22.7886 69.012 22.4726C70.9275 21.3193 73.0246 21.0566 75.2167 21.2809C77.4785 21.5137 79.6516 21.8789 81.9451 21.7251C84.2561 21.5781 86.5332 21.0881 88.7031 20.2707C90.6714 19.519 92.6038 18.2696 94.7262 18.0283C97.0028 17.7699 99.2878 18.9103 101.467 19.4079C106.029 20.4501 110.726 20.5356 115.378 20.6893C118.003 20.7769 120.643 20.8751 123.249 21.2318C124.806 21.4411 127.019 21.8981 127.758 23.346Z" fill="#59C59F"/>
<path d="M138.685 71.1094C138.548 71.1268 138.414 71.1575 138.284 71.2012L137.937 71.1478C137.033 71.0133 136.037 71.5215 136.066 72.5894C136.089 73.2898 136.328 73.6572 135.656 74.0437C134.985 74.4303 134.066 74.4559 133.304 74.6588C131.901 75.0325 130.375 75.9402 129.747 77.3219C129.435 78.0139 129.6 78.7143 129.568 79.4383C129.535 79.8057 129.577 80.1759 129.691 80.5262C129.805 80.8766 129.989 81.1997 130.231 81.4757C131.287 82.6268 132.902 82.7165 134.244 82.1164C135.735 81.4544 136.989 80.472 138.55 79.906C140.015 79.3742 141.464 78.7998 142.294 77.3732C143.876 74.678 142.085 70.6822 138.685 71.1094ZM139.967 75.3187C139.796 76.2648 138.879 76.6278 138.083 76.9161C136.927 77.3023 135.806 77.7897 134.733 78.3726C134.142 78.7143 133.226 79.6348 132.495 79.4853C132.495 79.2974 132.581 79.024 132.571 78.8297C132.554 78.7058 132.537 78.5819 132.522 78.4602C132.628 78.3577 132.748 78.2253 132.748 78.2231C133.561 77.4757 134.704 77.4522 135.718 77.1874C136.738 76.9554 137.658 76.4002 138.345 75.6027C138.703 75.1734 138.931 74.6482 138.999 74.0907C139.625 74.1441 140.1 74.584 139.967 75.3251V75.3187Z" fill="black"/>
<path d="M139.967 75.3253C139.796 76.2714 138.879 76.6344 138.083 76.9227C136.927 77.3089 135.806 77.7962 134.733 78.3792C134.142 78.7209 133.226 79.6414 132.495 79.4919C132.495 79.304 132.581 79.0306 132.571 78.8362C132.554 78.7124 132.537 78.5885 132.522 78.4668C132.628 78.3643 132.748 78.2319 132.748 78.2297C133.561 77.4823 134.704 77.4588 135.718 77.1939C136.738 76.962 137.658 76.4068 138.345 75.6093C138.703 75.18 138.931 74.6548 138.999 74.0973C139.625 74.1443 140.1 74.5842 139.967 75.3253Z" fill="#59C59F"/>
<path d="M27.2541 21.9474C27.1168 22.3745 26.9711 22.7888 26.8169 23.2138C26.5156 24.0282 26.1826 24.8348 25.818 25.6335C25.6898 25.9105 25.5067 26.1578 25.28 26.3603C25.0533 26.5627 24.7879 26.7158 24.5002 26.8102C24.5002 26.7867 24.5002 26.7568 24.5002 26.7333C24.6288 26.5957 24.7318 26.4359 24.8043 26.2614C25.2837 25.0077 25.8602 23.6986 26.4241 22.3532C27.8707 18.9127 29.2836 15.2437 29.0238 11.6942C28.7936 8.53138 26.4473 5.96222 23.4569 5.69954C23.8918 5.60401 24.3362 5.56029 24.7811 5.56926C27.7377 5.63974 29.6384 8.82609 29.8496 11.549C30.1262 14.919 28.7894 18.6671 27.2541 21.9474Z" fill="#F7C300" stroke="#F7C300" stroke-width="0.4" stroke-linecap="round" stroke-linejoin="round"/>
<path d="M29.0154 11.6878C28.7852 8.52491 26.4389 5.95575 23.4485 5.69307C22.837 5.64241 22.2216 5.6827 21.6217 5.81266C17.8415 6.66691 16.5532 9.50516 16.5997 12.9243C16.6419 14.4644 16.8702 15.9935 17.2797 17.4775C18.3546 21.5757 20.4813 25.6569 22.0293 27.7562C22.7389 28.7109 23.8793 28.2752 24.3165 27.4444C24.27 27.2586 24.2214 27.075 24.1686 26.8956C24.281 26.8752 24.3918 26.8466 24.5002 26.8101C24.5002 26.7867 24.5002 26.7568 24.5002 26.7333C24.6288 26.5957 24.7318 26.4358 24.8043 26.2613C25.2837 25.0077 25.8602 23.6985 26.4241 22.3531C27.8623 18.9062 29.2751 15.2372 29.0154 11.6878ZM25.5941 15.833C25.2689 16.9585 24.8845 18.069 24.477 19.1753C23.9384 20.6275 23.3598 22.0669 22.7875 23.4999C22.7808 23.511 22.7765 23.5234 22.7748 23.5362C22.6037 23.2266 22.4327 22.8955 22.2553 22.556C21.0599 20.1961 19.8498 17.155 19.4824 14.5068C19.1044 11.7582 19.6429 9.42828 22.0715 8.71711C22.88 8.48291 23.7472 8.58136 24.4842 8.991C25.2212 9.40064 25.7682 10.0883 26.0059 10.904C26.4748 12.4459 26.0186 14.3466 25.5941 15.833Z" fill="black"/>
<path d="M26.0059 10.9039C25.7682 10.0882 25.2212 9.40055 24.4842 8.99091C23.7472 8.58127 22.88 8.48282 22.0715 8.71703C19.6429 9.42819 19.1149 11.7582 19.4824 14.5067C19.8498 17.1549 21.0599 20.196 22.2553 22.5559C22.4432 22.8613 22.6143 23.1838 22.7875 23.4998C23.3598 22.0668 23.9384 20.6274 24.477 19.1752C24.8845 18.0689 25.2689 16.9584 25.5941 15.8329C26.0186 14.3465 26.4748 12.4458 26.0059 10.9039ZM23.78 14.7288C23.7209 14.7523 23.6618 14.763 23.6026 14.7886C23.541 14.8202 23.4775 14.848 23.4126 14.8719C23.2289 14.9774 23.0258 15.0438 22.8158 15.0671C22.6058 15.0904 22.3933 15.07 22.1914 15.0072C21.9894 14.9444 21.8023 14.8405 21.6415 14.7019C21.4808 14.5633 21.3497 14.393 21.2564 14.2013C21.0898 13.8655 21.0279 13.4864 21.0789 13.1143C21.1029 12.9204 21.1548 12.7312 21.2331 12.5526C21.2974 12.2478 21.4264 11.9607 21.6111 11.7112L21.7167 11.5126C21.8959 11.2482 22.1563 11.0511 22.4577 10.9519C22.759 10.8526 23.0843 10.8568 23.383 10.9637C24.1053 11.3033 24.6712 11.818 24.8317 12.6487C24.9024 13.0638 24.8381 13.4909 24.6485 13.8659C24.4589 14.241 24.1542 14.5437 23.78 14.7288Z" fill="#F7C300" stroke="#F7C300" stroke-width="0.4" stroke-linecap="round" stroke-linejoin="round"/>
<path d="M23.78 14.7288C23.7209 14.7523 23.6618 14.763 23.6026 14.7886C23.541 14.8202 23.4775 14.8481 23.4126 14.8719C23.2289 14.9774 23.0258 15.0439 22.8158 15.0671C22.6058 15.0904 22.3933 15.07 22.1914 15.0072C21.9894 14.9444 21.8023 14.8405 21.6415 14.7019C21.4808 14.5634 21.3497 14.393 21.2564 14.2013C21.0898 13.8655 21.0279 13.4865 21.0789 13.1143C21.1029 12.9205 21.1548 12.7312 21.2331 12.5526C21.2974 12.2478 21.4264 11.9607 21.6111 11.7112L21.7167 11.5126C21.8959 11.2482 22.1563 11.0511 22.4577 10.9519C22.759 10.8526 23.0843 10.8568 23.383 10.9637C24.1053 11.3033 24.6712 11.818 24.8317 12.6487C24.9024 13.0638 24.8381 13.4909 24.6485 13.866C24.4589 14.241 24.1542 14.5438 23.78 14.7288Z" fill="black"/>
<path d="M79.375 43.8974C79.2399 44.3245 79.092 44.7388 78.9379 45.1638C78.638 45.9754 78.305 46.7819 77.9389 47.5835C77.8111 47.8607 77.628 48.1083 77.4013 48.3107C77.1746 48.5132 76.909 48.6662 76.6211 48.7602C76.6211 48.7367 76.6211 48.7068 76.6211 48.6833C76.7461 48.5434 76.8442 48.3812 76.9105 48.205C77.3899 46.9492 77.9664 45.6422 78.5303 44.2968C79.979 40.8541 81.3897 37.1851 81.13 33.6357C80.8998 30.475 78.5535 27.9058 75.5631 27.6431C75.998 27.5481 76.4423 27.5037 76.8872 27.5107C79.8439 27.5833 81.7445 30.7676 81.9557 33.4905C82.2472 36.8691 80.9125 40.6171 79.375 43.8974Z" fill="#F7C300" stroke="#F7C300" stroke-width="0.4" stroke-linecap="round" stroke-linejoin="round"/>
<path d="M81.1363 33.6357C80.9061 30.475 78.5598 27.9058 75.5694 27.6431C74.9587 27.5925 74.3439 27.6328 73.7448 27.7627C69.9624 28.617 68.6763 31.4552 68.7206 34.8744C68.7639 36.4144 68.9922 37.9433 69.4007 39.4275C70.4777 43.5258 72.6044 47.607 74.1524 49.7042C74.862 50.6609 76.0024 50.2253 76.4395 49.3945C76.391 49.2087 76.3445 49.0229 76.2917 48.8435C76.4036 48.8248 76.5137 48.797 76.6211 48.7602C76.6211 48.7367 76.6211 48.7068 76.6211 48.6833C76.7461 48.5434 76.8442 48.3812 76.9105 48.205C77.3899 46.9492 77.9664 45.6422 78.5303 44.2968C79.9854 40.8541 81.4024 37.1851 81.1363 33.6357ZM77.7151 37.7938C77.3899 38.9171 77.0055 40.0298 76.5979 41.1339C76.0615 42.5861 75.4807 44.0277 74.9084 45.4607C74.9015 45.4716 74.8971 45.484 74.8957 45.497C74.7247 45.1852 74.5536 44.8563 74.3762 44.5167C73.183 42.1569 71.9708 39.1157 71.6055 36.4676C71.2274 33.719 71.7638 31.389 74.1946 30.6779C75.0031 30.4431 75.8706 30.5413 76.6077 30.951C77.3448 31.3607 77.8917 32.0487 78.129 32.8648C78.5957 34.396 78.1417 36.2988 77.7151 37.7938Z" fill="black"/>
<path d="M78.129 32.854C77.8917 32.0379 77.3448 31.35 76.6077 30.9402C75.8705 30.5305 75.0031 30.4323 74.1946 30.6671C71.7638 31.3783 71.238 33.7082 71.6054 36.4568C71.9708 39.105 73.183 42.1461 74.3762 44.506C74.5663 44.8114 74.7373 45.1339 74.9084 45.4499C75.4807 44.0169 76.0615 42.5754 76.5979 41.1231C77.0055 40.019 77.3899 38.9064 77.7151 37.783C78.1417 36.2988 78.5957 34.3959 78.129 32.854ZM75.9115 36.6832C75.8524 36.7088 75.7933 36.7195 75.7341 36.743C75.675 36.7665 75.6095 36.8028 75.5462 36.8284C75.3623 36.9336 75.159 36.9998 74.949 37.023C74.7389 37.0461 74.5263 37.0256 74.3243 36.9629C74.1223 36.9001 73.9351 36.7963 73.774 36.6579C73.613 36.5195 73.4816 36.3493 73.3879 36.1578C73.2213 35.822 73.1594 35.4429 73.2104 35.0708C73.2364 34.8773 73.2882 34.6884 73.3646 34.5091C73.4288 34.2003 73.5577 33.909 73.7426 33.6549L73.8504 33.4584C74.0295 33.194 74.29 32.9969 74.5913 32.8977C74.8926 32.7984 75.2179 32.8026 75.5166 32.9095C76.2368 33.2491 76.8049 33.7638 76.9632 34.5945C77.0366 35.011 76.9736 35.4403 76.7838 35.8172C76.594 36.1942 76.2877 36.4982 75.9115 36.6832Z" fill="#F7C300" stroke="#F7C300" stroke-width="0.4" stroke-linecap="round" stroke-linejoin="round"/>
<path d="M75.9116 36.6831C75.8524 36.7087 75.7933 36.7194 75.7342 36.7429C75.675 36.7664 75.6096 36.8027 75.5462 36.8283C75.3623 36.9335 75.1591 36.9997 74.949 37.0228C74.7389 37.046 74.5263 37.0255 74.3243 36.9627C74.1223 36.9 73.9351 36.7962 73.7741 36.6578C73.613 36.5194 73.4816 36.3492 73.3879 36.1577C73.2213 35.8219 73.1594 35.4428 73.2105 35.0707C73.2364 34.8772 73.2882 34.6883 73.3646 34.509C73.4288 34.2002 73.5577 33.9089 73.7427 33.6547L73.8504 33.4583C74.0295 33.1939 74.29 32.9968 74.5913 32.8976C74.8926 32.7983 75.2179 32.8025 75.5166 32.9094C76.2368 33.249 76.8049 33.7637 76.9633 34.5944C77.0366 35.0109 76.9736 35.4402 76.7838 35.8171C76.594 36.1941 76.2877 36.4981 75.9116 36.6831Z" fill="black"/>
<path d="M116.73 17.3856C116.595 17.8128 116.447 18.2292 116.293 18.6521C115.991 19.4657 115.659 20.273 115.294 21.0717C115.166 21.3492 114.983 21.597 114.756 21.7999C114.529 22.0027 114.264 22.1561 113.976 22.2506C113.976 22.2271 113.976 22.1972 113.976 22.1716C114.101 22.0314 114.199 21.8693 114.265 21.6932C114.745 20.4396 115.321 19.1305 115.885 17.7871C117.332 14.3445 118.744 10.6755 118.485 7.12609C118.255 3.96537 115.908 1.39407 112.918 1.13139C113.353 1.036 113.797 0.992278 114.242 1.00111C117.199 1.07159 119.099 4.25795 119.31 6.98087C119.602 10.3594 118.267 14.1053 116.73 17.3856Z" fill="#F7C300" stroke="#F7C300" stroke-width="0.4" stroke-linecap="round" stroke-linejoin="round"/>
<path d="M118.491 7.12617C118.261 3.96544 115.915 1.39414 112.924 1.13146C112.313 1.08073 111.699 1.12103 111.1 1.25106C107.317 2.10531 106.031 4.94569 106.075 8.3627C106.118 9.9027 106.347 11.4317 106.755 12.9159C107.83 17.0163 109.959 21.0974 111.507 23.1946C112.215 24.1514 113.357 23.7136 113.794 22.8828C113.746 22.6992 113.699 22.5134 113.646 22.334C113.758 22.3143 113.868 22.2864 113.976 22.2507C113.976 22.2272 113.976 22.1973 113.976 22.1717C114.101 22.0315 114.199 21.8693 114.265 21.6933C114.745 20.4397 115.321 19.1305 115.885 17.7872C117.338 14.3446 118.751 10.6713 118.491 7.12617ZM115.07 11.2736C114.745 12.3969 114.36 13.5074 113.953 14.6137C113.414 16.0659 112.835 17.5053 112.263 18.9405C112.256 18.9506 112.252 18.9624 112.25 18.9746C112.079 18.665 111.908 18.3339 111.731 17.9965C110.538 15.6345 109.326 12.5934 108.96 9.94733C108.582 7.19664 109.119 4.86667 111.547 4.15551C112.356 3.92124 113.223 4.01963 113.961 4.42924C114.698 4.83885 115.246 5.5265 115.484 6.34239C115.95 7.89499 115.494 9.78502 115.07 11.2736Z" fill="black"/>
<path d="M115.484 6.34233C115.246 5.52643 114.698 4.83879 113.961 4.42918C113.223 4.01957 112.356 3.92118 111.547 4.15545C109.119 4.86661 108.591 7.19658 108.96 9.94727C109.326 12.5933 110.538 15.6344 111.731 17.9964C111.921 18.2997 112.092 18.6222 112.263 18.9404C112.835 17.5053 113.414 16.0658 113.953 14.6136C114.36 13.5074 114.745 12.3968 115.07 11.2735C115.494 9.78496 115.951 7.89493 115.484 6.34233ZM113.256 10.1736C113.197 10.1971 113.137 10.2099 113.078 10.2334C113.017 10.2647 112.955 10.2925 112.89 10.3167C112.707 10.422 112.503 10.4884 112.293 10.5116C112.083 10.5349 111.871 10.5146 111.669 10.4521C111.467 10.3895 111.28 10.286 111.119 10.1478C110.958 10.0096 110.826 9.83961 110.732 9.64828C110.566 9.31165 110.504 8.93195 110.555 8.55911C110.579 8.36532 110.631 8.17612 110.709 7.99744C110.774 7.69304 110.903 7.40621 111.087 7.156C111.123 7.0898 111.159 7.02359 111.192 6.95739C111.371 6.68926 111.633 6.4889 111.936 6.38796C112.24 6.28702 112.568 6.29126 112.869 6.39999C113.592 6.74169 114.158 7.25424 114.318 8.085C114.39 8.50261 114.325 8.93251 114.133 9.30946C113.942 9.6864 113.633 9.98981 113.256 10.1736Z" fill="#F7C300" stroke="#F7C300" stroke-width="0.4" stroke-linecap="round" stroke-linejoin="round"/>
<path d="M113.256 10.1736C113.197 10.1971 113.137 10.2099 113.078 10.2334C113.017 10.2646 112.954 10.2924 112.89 10.3167C112.707 10.422 112.503 10.4883 112.293 10.5116C112.083 10.5349 111.871 10.5146 111.669 10.452C111.467 10.3895 111.28 10.2859 111.119 10.1477C110.958 10.0095 110.826 9.83957 110.732 9.64824C110.566 9.31161 110.504 8.93191 110.555 8.55907C110.579 8.36528 110.631 8.17608 110.709 7.9974C110.774 7.69299 110.903 7.40617 111.087 7.15596C111.123 7.08976 111.159 7.02355 111.192 6.95735C111.371 6.68921 111.633 6.48885 111.936 6.38792C112.24 6.28698 112.568 6.29121 112.869 6.39995C113.592 6.74165 114.158 7.2542 114.318 8.08496C114.39 8.50257 114.325 8.93247 114.133 9.30941C113.942 9.68636 113.633 9.98977 113.256 10.1736Z" fill="black"/>
<path d="M130.476 64.6001C130.339 65.0272 130.191 65.4544 130.039 65.8665C129.736 66.6795 129.403 67.4868 129.04 68.2883C128.911 68.5649 128.728 68.8119 128.501 69.0143C128.274 69.2166 128.009 69.37 127.722 69.4651C127.722 69.4416 127.722 69.4117 127.722 69.386C127.847 69.2465 127.946 69.0851 128.013 68.9098C128.491 67.6541 129.069 66.347 129.631 65.0016C131.08 61.559 132.493 57.89 132.231 54.3406C132.001 51.1798 129.654 48.6107 126.666 48.348C127.1 48.2518 127.544 48.2073 127.988 48.2156C130.945 48.2882 132.845 51.4724 133.057 54.1953C133.354 57.5739 132.011 61.3198 130.476 64.6001Z" fill="#F7C300" stroke="#F7C300" stroke-width="0.4" stroke-linecap="round" stroke-linejoin="round"/>
<path d="M132.235 54.3405C132.005 51.1798 129.659 48.6106 126.67 48.3479C126.059 48.2954 125.443 48.335 124.844 48.4654C121.061 49.3196 119.775 52.16 119.822 55.577C119.863 57.117 120.091 58.6461 120.499 60.1302C121.577 64.2306 123.703 68.3118 125.251 70.4089C125.961 71.3657 127.101 70.9279 127.538 70.0971C127.492 69.9135 127.443 69.7277 127.391 69.5483C127.503 69.5296 127.614 69.5018 127.722 69.465C127.722 69.4415 127.722 69.4116 127.722 69.386C127.847 69.2464 127.946 69.085 128.014 68.9097C128.491 67.654 129.069 66.347 129.631 65.0015C131.084 61.5589 132.497 57.8899 132.235 54.3405ZM128.814 58.4879C128.489 59.6112 128.106 60.7217 127.699 61.828C127.16 63.2802 126.582 64.7196 126.009 66.1548C126.007 66.166 126.007 66.1777 126.009 66.1889C125.838 65.8793 125.665 65.5483 125.49 65.2108C124.295 62.8488 123.084 59.8077 122.717 57.1616C122.339 54.4131 122.877 52.081 125.306 51.3698C126.115 51.1362 126.982 51.2349 127.718 51.6445C128.455 52.054 129.002 52.7413 129.241 53.5567C129.695 55.0922 129.241 56.9993 128.814 58.4879Z" fill="black"/>
<path d="M129.228 53.5567C128.99 52.7413 128.442 52.0541 127.706 51.6445C126.969 51.2349 126.102 51.1362 125.293 51.3699C122.865 52.081 122.337 54.4131 122.704 57.1617C123.072 59.8077 124.282 62.8488 125.477 65.2108C125.665 65.5141 125.836 65.8366 126.007 66.1548C126.582 64.7196 127.16 63.2802 127.697 61.828C128.104 60.7218 128.487 59.6112 128.812 58.4879C129.24 56.9994 129.695 55.0922 129.228 53.5567ZM127 57.388C126.941 57.4115 126.882 57.4244 126.822 57.4478C126.761 57.4794 126.699 57.5072 126.634 57.5311C126.383 57.6759 126.096 57.7462 125.807 57.734C125.529 57.72 125.26 57.6321 125.026 57.4791C124.793 57.3261 124.604 57.1134 124.478 56.8627C124.31 56.5267 124.248 56.1464 124.301 55.7735C124.326 55.5801 124.377 55.3911 124.453 55.2118C124.519 54.9078 124.648 54.6211 124.831 54.3704L124.939 54.1739C125.117 53.9089 125.378 53.7112 125.679 53.6115C125.98 53.5118 126.306 53.5158 126.605 53.6229C127.325 53.9646 127.893 54.4772 128.052 55.3079C128.123 55.7231 128.059 56.1506 127.87 56.5259C127.68 56.9011 127.375 57.2038 127 57.388Z" fill="#F7C300" stroke="#F7C300" stroke-width="0.4" stroke-linecap="round" stroke-linejoin="round"/>
<path d="M127 57.3882C126.941 57.4117 126.882 57.4245 126.822 57.448C126.761 57.4795 126.699 57.5074 126.634 57.5312C126.383 57.676 126.096 57.7464 125.807 57.7341C125.529 57.7202 125.26 57.6322 125.026 57.4792C124.793 57.3262 124.604 57.1135 124.478 56.8628C124.31 56.5269 124.248 56.1465 124.301 55.7736C124.326 55.5802 124.377 55.3912 124.453 55.212C124.519 54.9079 124.648 54.6212 124.831 54.3705L124.939 54.174C125.117 53.909 125.378 53.7113 125.679 53.6116C125.98 53.5119 126.306 53.5159 126.605 53.623C127.325 53.9647 127.893 54.4773 128.052 55.3081C128.123 55.7232 128.059 56.1507 127.87 56.526C127.68 56.9013 127.375 57.2039 127 57.3882Z" fill="black"/>
<path d="M42.6074 60.837C42.4701 61.2642 42.3223 61.6913 42.1702 62.1035C41.8675 62.9164 41.5345 63.7237 41.1713 64.5253C41.0425 64.8018 40.8591 65.0489 40.6325 65.2512C40.4059 65.4536 40.1408 65.607 39.8535 65.702C39.8535 65.6785 39.8535 65.6486 39.8535 65.6251C39.9765 65.4838 40.0744 65.3219 40.1428 65.1467C40.6201 63.891 41.1987 62.584 41.7626 61.2385C43.2092 57.7959 44.6221 54.1269 44.3623 50.5775C44.1321 47.4168 41.7858 44.8476 38.7954 44.5849C39.2302 44.4887 39.6746 44.4442 40.1196 44.4525C43.0762 44.5251 44.9769 47.7093 45.1881 50.4323C45.4795 53.8108 44.1427 57.5567 42.6074 60.837Z" fill="#F7C300" stroke="#F7C300" stroke-width="0.4" stroke-linecap="round" stroke-linejoin="round"/>
<path d="M44.3687 50.5775C44.1385 47.4168 41.7922 44.8476 38.8018 44.5849C38.1904 44.532 37.5746 44.5723 36.975 44.7045C33.1948 45.5588 31.9065 48.397 31.953 51.814C31.9945 53.3563 32.2229 54.8876 32.633 56.3736C33.7079 60.474 35.8346 64.5552 37.3826 66.6524C38.0922 67.6091 39.2326 67.1713 39.6698 66.3427C39.6233 66.1569 39.5747 65.9711 39.5219 65.7917C39.6345 65.773 39.7454 65.7452 39.8535 65.7084C39.8535 65.6849 39.8535 65.655 39.8535 65.6315C39.9765 65.4902 40.0744 65.3283 40.1428 65.1532C40.6201 63.8974 41.1987 62.5904 41.7626 61.245C43.2156 57.7959 44.6284 54.1269 44.3687 50.5775ZM40.9474 54.7249C40.6222 55.8482 40.2379 56.9588 39.8303 58.065C39.2917 59.5172 38.7131 60.9566 38.1408 62.3918C38.1335 62.4026 38.1291 62.4151 38.1281 62.4281C37.957 62.1163 37.786 61.7874 37.6086 61.4478C36.4133 59.0858 35.2031 56.0447 34.8357 53.3987C34.4577 50.6501 34.9962 48.318 37.4248 47.6068C38.2333 47.3732 39.1003 47.4719 39.8371 47.8815C40.5739 48.291 41.121 48.9783 41.3593 49.7937C41.826 51.3356 41.3719 53.2364 40.9474 54.7249Z" fill="black"/>
<path d="M41.3593 49.7938C41.1188 48.9804 40.5708 48.2957 39.8342 47.8882C39.0976 47.4808 38.2319 47.3836 37.4248 47.6176C34.9962 48.3288 34.4682 50.6609 34.8357 53.4095C35.2031 56.0555 36.4133 59.0966 37.6086 61.4586C37.7965 61.7619 37.9676 62.0865 38.1408 62.4026C38.7131 60.9674 39.2917 59.528 39.8303 58.0758C40.2379 56.9695 40.6222 55.859 40.9474 54.7357C41.3719 53.2365 41.826 51.3358 41.3593 49.7938ZM39.1333 53.6252C39.0721 53.6486 39.0151 53.6615 38.9559 53.685C38.8943 53.7166 38.8308 53.7444 38.7659 53.7682C38.5142 53.913 38.2273 53.9833 37.938 53.9711C37.6604 53.9569 37.3913 53.8689 37.1581 53.7159C36.9248 53.5629 36.7357 53.3504 36.6097 53.0998C36.4423 52.7642 36.3804 52.3849 36.4323 52.0128C36.4562 51.8189 36.5081 51.6297 36.5864 51.4511C36.6511 51.1457 36.78 50.858 36.9645 50.6075C36.9982 50.5413 37.0341 50.4751 37.07 50.411C37.2492 50.1449 37.5106 49.9465 37.8133 49.8468C38.116 49.7471 38.4429 49.7517 38.7426 49.86C39.4628 50.2017 40.0309 50.7143 40.1914 51.5451C40.2616 51.9609 40.1963 52.3885 40.0055 52.7636C39.8147 53.1387 39.5087 53.4411 39.1333 53.6252Z" fill="#F7C300" stroke="#F7C300" stroke-width="0.4" stroke-linecap="round" stroke-linejoin="round"/>
<path d="M39.1333 53.6252C39.0721 53.6487 39.0151 53.6615 38.9559 53.685C38.8943 53.7166 38.8308 53.7444 38.7659 53.7682C38.5142 53.913 38.2273 53.9834 37.938 53.9711C37.6604 53.9569 37.3913 53.8689 37.1581 53.7159C36.9248 53.5629 36.7357 53.3504 36.6097 53.0998C36.4423 52.7642 36.3804 52.3849 36.4323 52.0128C36.4562 51.8189 36.5081 51.6297 36.5864 51.4511C36.6511 51.1457 36.78 50.858 36.9645 50.6075C36.9982 50.5413 37.0341 50.4751 37.07 50.411C37.2492 50.1449 37.5106 49.9465 37.8133 49.8468C38.116 49.7471 38.4429 49.7517 38.7426 49.86C39.4628 50.2017 40.0309 50.7143 40.1914 51.5451C40.2616 51.9609 40.1963 52.3885 40.0055 52.7636C39.8147 53.1387 39.5087 53.4411 39.1333 53.6252Z" fill="black"/>
</svg>
