<svg width="153" height="13" viewBox="0 0 153 13" fill="none" xmlns="http://www.w3.org/2000/svg">
<path d="M152.405 9.31728C150.651 7.49806 148.779 5.82773 147.026 4.00851C145.276 2.33386 144.035 1.50947 142.007 3.17308C140.337 4.53461 138.312 6.3428 137.022 8.26972C136.901 8.27403 136.897 8.12945 136.775 8.13376C136.516 7.56406 135.896 7.15186 135.52 6.73105C134.641 5.74915 133.884 4.76294 133.009 3.92562C131.628 2.38263 130.133 1.13311 128.211 2.2141C126.286 3.1505 125.129 5.50686 123.588 7.15324C123.47 7.30213 123.352 7.45101 123.234 7.5999C123.592 7.29782 123.462 7.01297 122.975 7.0302C122.599 6.60938 121.986 6.48634 121.492 6.21442C120.624 5.66626 119.757 5.11809 118.889 4.56993C116.907 3.33765 115.039 1.81189 113.171 0.286136C112.547 -0.270642 111.459 0.0572899 110.987 0.652841C110.169 1.98421 109.347 3.17101 108.529 4.50238C108.061 5.24251 107.593 5.98264 107.125 6.72277C107.007 6.87166 106.889 7.02055 106.775 7.31401C106.657 7.4629 106.657 7.4629 106.657 7.4629C105.546 6.92336 104.541 5.80118 103.545 4.96817C102.426 4.13946 101.304 3.16618 100.064 2.34178C97.9484 0.680066 95.8559 -0.114175 93.5956 1.99179C91.9328 3.64248 90.3916 5.28886 88.7288 6.93955C87.3592 5.8303 85.9934 4.86563 84.5021 3.76069C83.1363 2.79603 81.7591 1.39762 80.0659 1.89167C78.4945 2.38141 77.0789 4.16807 75.77 5.37209C75.0546 5.97626 74.3392 6.58042 73.7456 7.18028C73.0302 7.78445 72.5432 7.80168 71.6796 7.3981C68.8414 6.05139 66.5779 3.38192 63.4009 3.06019C60.1023 2.74277 57.8571 5.42706 55.3534 7.54164C54.52 8.2947 54.638 8.14581 53.7668 7.45307C53.0211 6.9006 52.3972 6.34382 51.6515 5.79135C50.1602 4.68641 48.6689 3.58147 46.953 3.20805C45.2408 2.9792 43.8025 3.89837 42.2425 4.82186C41.4016 5.28575 40.5607 5.74965 39.7198 6.21354C38.8789 6.67744 37.5661 7.73688 36.4741 7.92024C35.0131 7.97193 33.1451 6.44618 31.9011 5.4772C30.5315 4.36795 29.3903 2.67177 27.6744 2.29835C26.0802 1.92061 24.5164 2.69951 23.3291 3.89923C22.0202 5.10326 20.8519 7.02587 19.1322 6.50787C17.4163 6.13444 16.0353 4.59145 14.5478 3.63109C12.9347 2.53046 11.2074 1.7233 9.25181 1.50307C5.70583 1.04968 2.09491 2.7693 0.245359 6.5973C-0.907773 9.09823 2.31462 11.1549 3.46775 8.65398C5.08516 5.26834 8.61599 5.14341 11.3362 6.63901C14.0565 8.1346 16.3238 10.9486 19.4931 10.9812C20.9579 11.0741 22.2783 10.3038 23.4731 9.39326C24.4244 8.49131 26.0683 6.11773 27.3086 6.94213C28.545 7.62194 29.6825 9.17354 30.9265 10.1425C32.2923 11.1072 33.9016 12.0632 35.3702 12.3007C36.9606 12.5339 38.2809 11.7636 39.723 10.989C41.5266 10.0569 43.3188 8.69104 45.1261 7.90352C46.6938 7.2692 48.1965 8.80788 49.4367 9.63227C50.6808 10.6012 52.0655 12.2888 53.6559 12.522C56.4751 13.1458 58.6824 9.0157 60.9654 7.77721C63.6098 6.38122 66.2424 9.18234 68.4718 10.5506C69.8376 11.5153 71.4431 12.3267 73.0183 11.9816C74.7153 11.6321 76.1347 9.99002 77.4436 8.786C78.159 8.18183 79.2207 6.84184 80.0654 6.52253C80.1871 6.51822 80.4193 6.07586 80.4193 6.07586C80.6628 6.06725 81.5378 6.90457 81.7851 7.04053C83.5275 8.42601 85.3917 9.80719 87.1341 11.1927C87.1341 11.1927 87.2558 11.1884 87.2596 11.3329C87.8835 11.8897 88.8614 11.9998 89.5691 11.1065C90.6384 10.0557 91.5859 9.00916 92.6552 7.95833C93.127 7.36278 93.7244 6.9075 94.1963 6.31195C94.554 6.00986 95.258 4.97196 95.7412 4.81015C96.7114 4.6311 98.469 6.5949 99.2147 7.14737C100.333 7.97608 101.33 8.80909 102.448 9.6378C104.191 11.0233 106.317 13.1187 108.212 11.0257C109.16 9.97917 109.853 8.50753 110.553 7.32504C111.021 6.58491 111.607 5.69589 112.075 4.95576C115.187 7.45049 118.413 9.65176 121.868 11.2661C123.964 12.2049 125.144 10.716 126.563 9.07396C127.271 8.18063 127.971 6.99815 128.808 6.38967C129.524 5.78551 129.044 6.0919 129.664 6.5041C130.037 6.78033 130.543 7.486 130.92 7.90681C131.798 8.88871 132.555 9.87492 133.43 10.7122C134.058 11.4136 134.815 12.3998 135.679 12.8034C137.65 13.6019 138.818 11.6793 140.123 10.3307C140.953 9.43308 141.782 8.53545 142.733 7.63351C142.733 7.63351 143.449 7.02934 143.806 6.72726C143.932 6.86753 144.058 7.0078 144.183 7.14807C145.937 8.96729 147.809 10.6376 149.562 12.4568C151.681 14.2631 154.159 11.1365 152.405 9.31728Z" fill="#F7C300"/>
</svg>
