<svg width="362" height="17" viewBox="0 0 362 17" fill="none" xmlns="http://www.w3.org/2000/svg">
<path d="M179.822 8.26529C182.167 5.18302 185.768 3.8172 189.332 4.22412C191.669 4.45665 193.74 5.3689 195.677 6.62102C196.244 6.96753 196.799 7.3819 197.358 7.7993C198.56 8.69687 199.78 9.60849 201.181 9.88966C202.781 10.3394 203.968 9.09216 205.145 7.85511C205.482 7.50032 205.819 7.14637 206.164 6.83353C207.569 5.4362 209.428 4.52026 211.335 4.9385C212.77 5.2266 213.877 6.26436 214.977 7.29492C215.449 7.73785 215.92 8.17945 216.415 8.55963C216.493 8.617 216.573 8.67609 216.654 8.73654C218.143 9.83978 220.248 11.3998 221.901 11.328C222.834 11.1676 223.898 10.4865 224.794 9.91305C225.148 9.68668 225.475 9.47709 225.758 9.32298L228.755 7.68943C228.846 7.63601 228.937 7.58261 229.028 7.52938C230.777 6.50371 232.416 5.5424 234.361 5.77546C236.414 6.18739 238.206 7.44581 239.999 8.70424C240.447 9.01886 240.858 9.33506 241.27 9.65126C241.682 9.96743 242.094 10.2836 242.542 10.5982C242.694 10.7133 242.822 10.8153 242.931 10.9028C243.573 11.416 243.594 11.433 244.437 10.6829C244.938 10.2663 245.43 9.83099 245.92 9.39683C248.336 7.25963 250.721 5.14928 253.997 5.42344C256.404 5.63655 258.382 6.94232 260.375 8.25764C261.526 9.01715 262.682 9.77985 263.927 10.3372C264.963 10.7933 265.544 10.7681 266.392 10.0631C267.094 9.36441 267.941 8.65944 268.789 7.95446C269.171 7.60884 269.56 7.2224 269.957 6.82749C271.174 5.61858 272.471 4.33037 273.881 3.89137C275.562 3.40053 276.995 4.42998 278.376 5.42219C278.651 5.62003 278.924 5.81639 279.197 5.99891C279.652 6.31849 280.098 6.62772 280.536 6.93197C281.823 7.82576 283.049 8.67649 284.277 9.62005C285.261 8.6586 286.209 7.69872 287.156 6.73885C288.104 5.77898 289.051 4.81911 290.035 3.85765C292.711 1.40286 295.218 2.29617 297.761 4.19013C298.7 4.78137 299.584 5.44146 300.446 6.08514C300.951 6.46211 301.449 6.83345 301.945 7.18204C302.297 7.46054 302.649 7.76768 303.005 8.07813C303.864 8.82684 304.745 9.59473 305.687 10.0261L305.826 9.85304C305.96 9.51318 306.099 9.3401 306.238 9.16701L307.891 6.58964C308.372 5.81696 308.855 5.08598 309.338 4.355C309.821 3.62421 310.304 2.89341 310.785 2.12094C311.342 1.42859 312.638 1.03822 313.388 1.67374C315.635 3.41355 317.881 5.15335 320.261 6.5533L323.385 8.422C323.583 8.52476 323.796 8.60829 324.01 8.69183C324.436 8.85889 324.863 9.02596 325.165 9.34688C325.591 9.32839 325.789 9.49879 325.699 9.7297L325.898 9.48208C326.505 8.84322 327.061 8.11381 327.617 7.3844C328.728 5.92558 329.839 4.46676 331.365 3.73232C333.648 2.46388 335.446 3.88908 337.111 5.65414C337.808 6.28656 338.444 6.99465 339.101 7.72656C339.438 8.10156 339.78 8.48281 340.139 8.86335C340.285 9.01826 340.461 9.17187 340.644 9.33078C341.028 9.66567 341.439 10.0241 341.653 10.4679C341.725 10.4648 341.763 10.5049 341.801 10.545C341.839 10.5851 341.877 10.6252 341.949 10.6221C343.469 8.38458 345.867 6.27597 347.846 4.68661C350.25 2.74477 351.74 3.68228 353.847 5.59517C354.903 6.63505 355.995 7.63166 357.086 8.62827C358.178 9.62478 359.269 10.6213 360.326 11.6611C362.439 13.7408 359.515 17.3756 356.966 15.3149C355.909 14.275 354.817 13.2785 353.726 12.2819C352.635 11.2853 351.543 10.2888 350.487 9.24895L350.032 8.76756L348.761 9.82503C347.635 10.8762 346.654 11.921 345.673 12.9659C345.415 13.2286 345.161 13.5097 344.907 13.7917C343.642 15.1951 342.36 16.617 340.394 15.8678C339.525 15.4854 338.742 14.6293 338.066 13.8898C337.935 13.7475 337.809 13.6094 337.687 13.4799C336.99 12.8475 336.355 12.1394 335.697 11.4075C335.361 11.0325 335.018 10.6512 334.659 10.2707C334.513 10.1158 334.351 9.92693 334.183 9.73159C333.829 9.31998 333.449 8.87943 333.146 8.66608C332.727 8.4028 332.723 8.1742 332.65 8.1493C332.593 8.12986 332.494 8.23448 332.122 8.5435C331.409 9.05426 330.784 9.90575 330.178 10.7298C329.941 11.0533 329.706 11.3726 329.47 11.6654C329.413 11.7313 329.355 11.7971 329.298 11.8625C327.696 13.6919 326.314 15.2699 323.888 14.2465C319.747 12.4219 315.871 9.91772 312.129 7.07364C311.854 7.50319 311.544 7.97602 311.233 8.44885C310.923 8.92169 310.613 9.39453 310.337 9.82409C310.127 10.1743 309.918 10.5462 309.704 10.9261C309.08 12.035 308.417 13.2126 307.583 14.1197C305.544 16.3358 303.241 14.554 301.264 13.0251C301.068 12.8735 300.875 12.7244 300.686 12.5819C300.014 12.1101 299.378 11.6366 298.743 11.1632C298.107 10.6897 297.471 10.2161 296.799 9.74417C296.569 9.58307 296.26 9.31596 295.907 9.01133C294.88 8.12614 293.487 6.92414 292.627 7.0858C292.252 7.21081 291.77 7.76531 291.362 8.23435C291.143 8.48575 290.946 8.71261 290.798 8.83561C290.52 9.18179 290.203 9.48784 289.887 9.7939C289.571 10.1 289.254 10.406 288.976 10.7522C288.343 11.3643 287.747 11.9749 287.151 12.5854C286.554 13.1959 285.958 13.8065 285.325 14.4186C284.49 15.4571 283.321 15.3409 282.57 14.7053C282.564 14.5386 282.419 14.5449 282.419 14.5449C281.371 13.7552 280.287 12.9671 279.204 12.179C278.12 11.3909 277.036 10.6028 275.988 9.81315C275.881 9.75734 275.674 9.59637 275.441 9.4143C275.029 9.09347 274.533 8.70713 274.347 8.71518C274.347 8.71518 274.075 9.22813 273.93 9.23445C273.25 9.48981 272.457 10.2845 271.753 10.9904C271.415 11.3287 271.098 11.6466 270.824 11.875C270.552 12.121 270.276 12.3825 269.996 12.6489C268.675 13.9025 267.242 15.2628 265.574 15.6108C263.697 16.0264 261.772 15.1079 260.131 14.0099C259.56 13.6782 258.966 13.2713 258.354 12.8524C256.102 11.3091 253.611 9.60296 251.139 10.8928C250.174 11.4104 249.224 12.3507 248.248 13.3162C246.483 15.0627 244.635 16.8914 242.463 16.4479C241.066 16.2631 239.793 15.1703 238.622 14.1657C238.2 13.8036 237.791 13.4529 237.395 13.1603C237.113 12.9827 236.819 12.7757 236.516 12.5618C235.218 11.6465 233.742 10.606 232.23 11.2132C231.002 11.7438 229.782 12.4923 228.562 13.2407C227.646 13.8021 226.731 14.3634 225.812 14.8328C225.726 14.8789 225.639 14.925 225.553 14.971C223.939 15.8311 222.435 16.633 220.63 16.3943C218.874 16.1365 216.942 15.0512 215.301 13.9532C214.68 13.4946 214.08 12.9198 213.484 12.3493C212.645 11.546 211.815 10.7512 210.948 10.3005C209.763 9.55501 208.296 11.1455 207.178 12.3569C206.89 12.6688 206.625 12.9557 206.395 13.1709C204.978 14.2347 203.41 15.138 201.66 15.047C199.102 15.0452 197.023 13.5728 194.936 12.0949C193.935 11.3863 192.933 10.6765 191.875 10.127C188.72 8.48787 184.677 8.60433 182.7 12.1586C182.567 13.9171 180.492 15.476 178.62 13.9625C177.563 12.9226 176.472 11.9261 175.381 10.9295C174.289 9.93296 173.198 8.9364 172.141 7.89656L171.687 7.41518L170.416 8.47265C169.289 9.5238 168.309 10.5686 167.328 11.6135C167.07 11.8762 166.816 12.1574 166.562 12.4393C165.296 13.8427 164.015 15.2646 162.048 14.5155C161.18 14.133 160.397 13.277 159.72 12.5374C159.59 12.3951 159.464 12.257 159.342 12.1275C158.645 11.4951 158.009 10.787 157.352 10.0552C157.015 9.68014 156.673 9.29885 156.314 8.9183C156.168 8.76337 156.005 8.57455 155.837 8.3792C155.483 7.9676 155.104 7.52705 154.8 7.3137C154.382 7.05042 154.378 6.82182 154.305 6.79691C154.248 6.77748 154.148 6.8821 153.777 7.19112C153.064 7.70188 152.438 8.55336 151.833 9.37739C151.595 9.70092 151.361 10.0202 151.125 10.313C151.067 10.379 151.01 10.4447 150.952 10.5101C149.35 12.3395 147.969 13.9175 145.543 12.8941C141.401 11.0696 137.526 8.56534 133.784 5.72126C133.508 6.15094 133.198 6.62392 132.888 7.09689C132.577 7.56959 132.267 8.04227 131.992 8.47171C131.782 8.82186 131.572 9.19373 131.358 9.57368C130.734 10.6826 130.071 11.8602 129.237 12.7673C127.199 14.9834 124.895 13.2016 122.918 11.6727C122.722 11.5211 122.53 11.372 122.341 11.2296C121.668 10.7576 121.033 10.2842 120.397 9.81067C119.761 9.33718 119.125 8.86369 118.453 8.39178C118.224 8.23069 117.914 7.96358 117.561 7.65895C116.535 6.77376 115.142 5.57176 114.281 5.73341C113.907 5.85843 113.425 6.41295 113.017 6.88199C112.798 7.13338 112.601 7.36023 112.453 7.48323C112.174 7.8294 111.858 8.13546 111.542 8.44152C111.225 8.74758 110.909 9.05364 110.631 9.39982C109.998 10.012 109.401 10.6225 108.805 11.2331C108.209 11.8436 107.612 12.4541 106.98 13.0662C106.144 14.1047 104.976 13.9885 104.225 13.353C104.219 13.1862 104.073 13.1925 104.073 13.1925C103.026 12.4028 101.942 11.6147 100.858 10.8266C99.7743 10.0385 98.6904 9.25044 97.6429 8.46077C97.5355 8.40496 97.3289 8.24399 97.0952 8.06192C96.6834 7.74109 96.1874 7.35475 96.002 7.3628C96.002 7.3628 95.7296 7.87575 95.5843 7.88206C94.9048 8.13743 94.1119 8.93213 93.4076 9.63805C93.0701 9.97631 92.7529 10.2942 92.4783 10.5226C92.2066 10.7686 91.931 11.0302 91.6504 11.2966C90.3298 12.5502 88.8968 13.9104 87.229 14.2584C85.352 14.674 83.4266 13.7555 81.7856 12.6575C81.2143 12.3258 80.6204 11.9189 80.009 11.5001C77.7561 9.9567 75.2657 8.25058 72.7941 9.5404C71.8285 10.058 70.8783 10.9984 69.9027 11.9638C68.1378 13.7103 66.2899 15.539 64.1179 15.0955C62.7204 14.9107 61.4471 13.8179 60.2766 12.8133C59.8546 12.4512 59.4461 12.1005 59.0498 11.8079C58.7677 11.6304 58.4741 11.4233 58.1707 11.2095C56.8725 10.2942 55.3966 9.25358 53.885 9.86085C52.6567 10.3915 51.4364 11.1399 50.2161 11.8883C49.3009 12.4497 48.3857 13.011 47.4671 13.4804C47.3802 13.5265 47.2938 13.5726 47.2076 13.6186C45.5938 14.4787 44.0891 15.2806 42.2843 15.0419C40.5283 14.7841 38.5968 13.6988 36.9559 12.6008C36.3348 12.1422 35.7345 11.5675 35.1387 10.9969C34.2998 10.1937 33.4697 9.39878 32.6023 8.94813C31.4178 8.20263 29.9502 9.79317 28.8324 11.0045C28.5445 11.3165 28.2799 11.6033 28.0492 11.8185C26.6325 12.8823 25.0643 13.7856 23.3145 13.6946C20.7567 13.6929 18.6773 12.2204 16.5904 10.7426C15.5898 10.0339 14.5874 9.32411 13.5297 8.77458C10.266 7.07897 6.05192 7.26206 4.15697 11.1862C2.80691 14.0845 -1.06223 11.7471 0.287833 8.8488C2.45521 4.41166 6.74796 2.38774 10.9863 2.87174C13.3235 3.10427 15.3943 4.01652 17.3319 5.26863C17.8989 5.61515 18.4537 6.02952 19.0125 6.44692C20.2143 7.34449 21.4348 8.2561 22.8359 8.53728C24.4357 8.987 25.6223 7.73977 26.7991 6.50271C27.1367 6.14793 27.4734 5.79398 27.8188 5.48115C29.2235 4.08382 31.0822 3.16787 32.9895 3.58612C34.4251 3.87422 35.532 4.91198 36.6312 5.94254C37.1036 6.38547 37.5746 6.82707 38.0697 7.20725C38.1474 7.26463 38.2271 7.32371 38.3087 7.38418C39.7974 8.48742 41.9023 10.0474 43.5555 9.97557C44.4888 9.81526 45.5528 9.1341 46.4485 8.56068C46.8021 8.3343 47.1295 8.12471 47.4123 7.97059L50.4093 6.33704C50.5007 6.28362 50.5918 6.23022 50.6826 6.17698C52.4314 5.15132 54.0704 4.19001 56.016 4.42307C58.0686 4.835 59.8609 6.09343 61.6531 7.35186C62.1012 7.66646 62.513 7.98265 62.9247 8.29883C63.3364 8.61502 63.7482 8.9312 64.1963 9.24581C64.3489 9.36089 64.4764 9.46288 64.5858 9.55042C65.2271 10.0636 65.2484 10.0806 66.0914 9.33051C66.5923 8.91388 67.0843 8.4786 67.575 8.04443C69.9904 5.90724 72.3755 3.7969 75.6517 4.07105C78.0583 4.28416 80.0368 5.58994 82.0297 6.90526C83.1805 7.66477 84.3361 8.42746 85.5818 8.9848C86.6172 9.44092 87.1985 9.41567 88.0461 8.71069C88.7484 8.01203 89.596 7.30705 90.4437 6.60208C90.8253 6.25644 91.2143 5.86998 91.6119 5.47506C92.8287 4.26616 94.1253 2.97798 95.5355 2.53899C97.2166 2.04815 98.6493 3.07758 100.03 4.06978C100.306 4.26763 100.579 4.46399 100.852 4.64653C101.307 4.96622 101.753 5.27555 102.191 5.57989C103.478 6.47357 104.703 7.32421 105.932 8.26766C106.916 7.30621 107.863 6.34634 108.811 5.38647C109.758 4.4266 110.706 3.46672 111.69 2.50527C114.366 0.0504806 116.873 0.943791 119.416 2.83774C120.355 3.42901 121.239 4.08911 122.101 4.73281C122.606 5.10976 123.103 5.48109 123.6 5.82966C123.951 6.10816 124.304 6.41531 124.66 6.72576C125.519 7.47447 126.4 8.24235 127.342 8.67375L127.481 8.50066C127.614 8.1608 127.753 7.98771 127.893 7.81463L129.546 5.23726C130.027 4.46468 130.51 3.73379 130.992 3.0029C131.475 2.27202 131.958 1.54113 132.439 0.768553C132.996 0.0762032 134.292 -0.314167 135.043 0.32136C137.289 2.06117 139.536 3.80097 141.915 5.20092L145.04 7.06961C145.238 7.17238 145.451 7.25591 145.664 7.33944C146.091 7.50651 146.517 7.67357 146.82 7.99449C147.245 7.97601 147.444 8.14641 147.353 8.37734L147.553 8.1297C148.16 7.49084 148.716 6.76143 149.271 6.03202C150.383 4.5732 151.494 3.11438 153.02 2.37994C155.302 1.1115 157.101 2.5367 158.766 4.30176C159.463 4.93418 160.098 5.64227 160.755 6.37417C161.092 6.74918 161.434 7.13043 161.793 7.51096C161.94 7.66588 162.116 7.81949 162.298 7.9784C162.682 8.31328 163.094 8.67172 163.307 9.11556C163.38 9.11241 163.418 9.15252 163.456 9.19263C163.493 9.23275 163.531 9.27287 163.604 9.26971C165.124 7.0322 167.521 4.92359 169.501 3.33423C171.905 1.39239 173.394 2.32989 175.501 4.24279C176.558 5.28262 177.649 6.27918 178.741 7.27574C179.102 7.60507 179.462 7.9344 179.822 8.26529Z" fill="#59C69F"/>
</svg>
