<svg width="196" height="64" viewBox="0 0 196 64" fill="none" xmlns="http://www.w3.org/2000/svg">
<path d="M176.037 26.0762C175.952 26.0471 175.858 26.0191 175.775 25.9996C175.065 25.8096 174.325 25.7589 173.572 25.8454C172.216 26.0012 170.84 26.6054 169.692 27.5521C169.511 27.6989 169.292 27.792 169.055 27.8193C168.649 27.8659 168.247 27.7181 167.985 27.4185C167.771 27.1811 167.67 26.8824 167.688 26.57C167.706 26.2575 167.859 25.9781 168.103 25.7755C169.603 24.5362 171.435 23.7341 173.257 23.5248C174.326 23.402 175.381 23.4747 176.394 23.7463C176.519 23.7804 176.644 23.8145 176.771 23.8581C177.412 24.0657 177.763 24.7237 177.555 25.3392C177.356 25.944 176.677 26.2742 176.037 26.0762Z" fill="#1E1E1E"/>
<path d="M173.548 45.6788C173.874 45.6414 174.185 45.7214 174.442 45.9138C175.815 46.933 177.406 47.9369 179.438 49.0831C179.764 49.2675 180.088 49.4425 180.413 49.6174C180.694 49.7684 180.9 50.0245 180.991 50.3227C181.082 50.6209 181.044 50.9338 180.89 51.2021C180.703 51.5224 180.371 51.7341 179.986 51.7782C179.729 51.8076 179.472 51.7599 179.244 51.6317C178.908 51.4484 178.572 51.2651 178.246 51.0807C176.108 49.8888 174.439 48.8264 172.987 47.7391C172.73 47.5468 172.562 47.2767 172.52 46.9633C172.478 46.6595 172.556 46.3516 172.754 46.1072C172.943 45.8734 173.222 45.7161 173.548 45.6788Z" fill="#1E1E1E"/>
<path d="M179.925 36.3841C180.515 35.0767 180.719 33.506 180.51 31.9637C180.458 31.5852 180.376 31.2006 180.275 30.8277C180.102 30.2134 180.494 29.5821 181.13 29.4226C181.767 29.263 182.427 29.6484 182.6 30.2628C182.724 30.7291 182.829 31.2072 182.894 31.6898C183.163 33.6673 182.901 35.6195 182.136 37.3218C182.06 37.4939 181.982 37.6566 181.895 37.8204C181.713 38.168 181.377 38.4084 180.974 38.4546C180.739 38.4817 180.504 38.4414 180.291 38.3409C180.003 38.201 179.782 37.967 179.682 37.671C179.572 37.3761 179.599 37.0654 179.741 36.7896C179.793 36.6587 179.865 36.5256 179.925 36.3841Z" fill="#1E1E1E"/>
<path d="M187.027 52.4623C189.458 53.5069 191.957 54.457 194.458 55.2716C195.089 55.4794 195.441 56.1442 195.232 56.7478C195.088 57.1699 194.698 57.4754 194.244 57.5275C194.066 57.5479 193.883 57.5302 193.714 57.4723C191.14 56.6371 188.577 55.6558 186.071 54.581C185.462 54.3127 185.178 53.6304 185.449 53.0391C185.702 52.4691 186.419 52.2035 187.027 52.4623Z" fill="#1E1E1E"/>
<path d="M167.182 44.448C167.609 44.3408 168.037 44.2336 168.444 44.1191C170.621 43.5011 172.569 42.6768 174.24 41.6616C174.509 41.4951 174.834 41.4481 175.154 41.5082C175.475 41.5779 175.741 41.7605 175.918 42.0212C176.094 42.2819 176.156 42.5944 176.088 42.9025C176.019 43.2107 175.833 43.4646 175.564 43.6311C173.708 44.7644 171.551 45.6804 169.16 46.3521C168.733 46.4688 168.277 46.589 167.811 46.7103C167.763 46.7255 167.714 46.7312 167.664 46.7369C167.061 46.8062 166.497 46.4349 166.339 45.8622C166.143 45.2357 166.529 44.6005 167.182 44.448Z" fill="#1E1E1E"/>
<path d="M151.682 48.0094C152.384 47.7731 153.108 47.5538 153.845 47.3525C155.827 46.833 157.839 46.4654 159.696 46.1448C160.009 46.0797 160.331 46.1496 160.607 46.3315C160.872 46.5051 161.061 46.7845 161.123 47.0979C161.185 47.4017 161.118 47.7204 160.931 47.975C160.744 48.2296 160.475 48.3966 160.151 48.4533C158.332 48.7598 156.398 49.1086 154.504 49.6082C153.824 49.7836 153.147 49.9878 152.513 50.2064C152.427 50.2358 152.339 50.2558 152.25 50.266C151.685 50.331 151.149 50.0136 150.958 49.4916C150.847 49.1935 150.855 48.8817 150.997 48.5934C151.131 48.3253 151.374 48.1128 151.682 48.0094Z" fill="#1E1E1E"/>
<path d="M143.116 57.223C142.933 57.5717 142.594 57.8033 142.189 57.8496C141.952 57.8768 141.716 57.8363 141.501 57.7261C141.211 57.5858 140.998 57.3499 140.888 57.0542C140.787 56.7573 140.805 56.4469 140.948 56.1703C141.733 54.654 142.856 53.2628 144.274 52.0499C144.517 51.8486 144.824 51.746 145.146 51.7573C145.47 51.778 145.769 51.9172 145.981 52.1436C146.427 52.6225 146.387 53.3595 145.894 53.7823C144.7 54.8056 143.766 55.9632 143.116 57.223Z" fill="#1E1E1E"/>
<path d="M165.592 32.2745C166.253 32.3041 166.773 32.8399 166.76 33.4754C166.743 34.0058 166.778 34.5588 166.853 35.1074C167.084 36.81 167.741 38.5692 168.757 40.1816C168.923 40.4507 168.975 40.7617 168.896 41.059C168.817 41.3563 168.622 41.6092 168.355 41.7648C168.207 41.8491 168.054 41.8955 167.888 41.9146C167.417 41.9687 166.95 41.7534 166.708 41.3587C165.525 39.4677 164.757 37.4042 164.482 35.3801C164.39 34.7085 164.349 34.0408 164.37 33.3853C164.382 32.7403 164.931 32.2448 165.592 32.2745Z" fill="#1E1E1E"/>
<path d="M123.286 32.2539C124.316 32.2482 125.353 32.2736 126.371 32.3305C127.073 32.366 127.671 31.8597 127.716 31.1975C127.761 30.5353 127.222 29.9611 126.526 29.9192C125.45 29.8568 124.36 29.832 123.277 29.8384C123.028 29.8413 122.806 29.9062 122.61 30.0209C122.252 30.231 122.013 30.6146 122.012 31.0453C122.02 31.7193 122.584 32.2558 123.286 32.2539Z" fill="#1E1E1E"/>
<path d="M110.909 33.771C112.931 33.2794 114.993 32.8996 117.05 32.6385C117.745 32.5556 118.237 31.9507 118.143 31.2839C118.057 30.6233 117.422 30.1563 116.721 30.2456C114.565 30.514 112.391 30.9138 110.278 31.4314C110.147 31.4579 110.03 31.5092 109.919 31.5791C109.463 31.8466 109.226 32.3799 109.364 32.9026C109.535 33.5559 110.229 33.9411 110.909 33.771Z" fill="#1E1E1E"/>
<path d="M95.4381 57.5247C97.7127 57.3423 99.6366 56.908 101.328 56.1831C101.589 56.0677 101.843 55.9586 102.091 55.8309C102.711 55.5054 102.945 54.7849 102.61 54.2021C102.282 53.6129 101.512 53.3909 100.899 53.7101C100.709 53.8059 100.507 53.9019 100.305 53.9854C98.8749 54.5949 97.2127 54.9638 95.2331 55.1241C95.0233 55.139 94.8338 55.2099 94.6709 55.3054C94.2799 55.5346 94.0356 55.9619 94.0738 56.4295C94.1273 57.0843 94.7367 57.5765 95.4381 57.5247Z" fill="#1E1E1E"/>
<path d="M77.2808 28.9746C79.363 28.6009 81.434 28.3895 83.4349 28.3601C84.1303 28.352 84.6948 27.8024 84.6805 27.1347C84.6728 26.4732 84.0958 25.9368 83.3939 25.9512C81.2486 25.9823 79.0334 26.2078 76.8072 26.6082C76.65 26.635 76.4998 26.6929 76.3694 26.7693C75.9393 27.0239 75.6957 27.5136 75.8 28.018C75.9322 28.6719 76.5933 29.1011 77.2808 28.9746Z" fill="#1E1E1E"/>
<path d="M99.7588 34.5249C99.9049 34.673 100.038 34.8338 100.178 34.9882C99.4662 35.3148 98.768 35.6538 98.0766 36.0114C98.0505 36.0242 98.0309 36.0307 98.0114 36.0496C97.4444 36.387 97.2491 37.0822 97.5707 37.6527C97.9055 38.2356 98.6759 38.4576 99.2955 38.132C100.098 37.717 100.913 37.3268 101.742 36.9488C101.882 37.1407 102.009 37.3327 102.143 37.5309C102.51 38.0947 102.865 38.6836 103.18 39.2854C103.496 39.8748 104.26 40.1156 104.879 39.815C105.499 39.502 105.753 38.7874 105.438 38.198C105.083 37.5343 104.701 36.8833 104.28 36.2577C104.214 36.1586 104.147 36.0595 104.074 35.9667C104.361 35.851 104.648 35.7353 104.942 35.6258C105.589 35.3873 105.916 34.6782 105.659 34.057C105.402 33.4357 104.664 33.1322 104.011 33.377C103.521 33.5637 103.024 33.7567 102.541 33.9496C102.242 33.5972 101.929 33.2451 101.61 32.9117C101.192 32.4734 100.515 32.4001 100 32.6994C99.9349 32.7376 99.8764 32.782 99.8179 32.8264C99.3243 33.2691 99.2938 34.031 99.7588 34.5249Z" fill="#1E1E1E"/>
<path d="M91.4721 29.3536C92.7169 29.7325 93.9371 30.2614 95.1063 30.9158C95.7074 31.2522 96.4862 31.0621 96.8405 30.4899C97.1948 29.9177 96.9958 29.1771 96.3947 28.8407C95.0671 28.1008 93.682 27.505 92.2528 27.0659C91.5546 26.8493 90.8109 26.6644 90.0545 26.5171C89.7191 26.4523 89.3917 26.5185 89.1245 26.6777C88.8443 26.8495 88.6309 27.1204 88.5625 27.4521C88.4126 28.1031 88.8597 28.7409 89.5438 28.8828C90.2014 29 90.853 29.161 91.4721 29.3536Z" fill="#1E1E1E"/>
<path d="M106.225 43.2721C106.068 43.2989 105.918 43.3568 105.788 43.4332C105.357 43.6879 105.114 44.1776 105.218 44.6819C105.594 46.55 105.405 48.3623 104.669 49.9375C104.381 50.5463 104.671 51.2607 105.304 51.528C105.944 51.8014 106.695 51.5243 106.977 50.9218C107.931 48.8947 108.18 46.5824 107.706 44.2286C107.574 43.5747 106.913 43.1455 106.225 43.2721Z" fill="#1E1E1E"/>
<path d="M92.5366 39.5096C90.6907 40.9788 89.1745 42.5939 88.027 44.3295C87.6531 44.8955 87.8257 45.636 88.4202 45.9911C89.0147 46.3461 89.7999 46.1747 90.1673 45.6151C91.173 44.0933 92.5208 42.6673 94.1588 41.3628C94.6983 40.9385 94.7682 40.1763 94.3227 39.6636C93.9105 39.1941 93.2075 39.0962 92.6799 39.4206C92.6342 39.4398 92.5822 39.4779 92.5366 39.5096Z" fill="#1E1E1E"/>
<path d="M85.6957 53.8743C85.8455 54.347 86.0474 54.7817 86.3013 55.1658C86.8091 55.9465 87.538 56.5498 88.4549 56.9574C89.0882 57.2373 89.8465 56.9788 90.1413 56.376C90.4362 55.7733 90.1653 55.0523 89.5321 54.7725C89.0572 54.5657 88.706 54.2764 88.4455 53.8861C88.3053 53.6817 88.1976 53.4457 88.1157 53.172C87.8979 52.5003 87.8757 51.7265 88.0291 50.807C88.1396 50.144 87.6665 49.5314 86.9828 49.427C86.6673 49.3807 86.3661 49.4466 86.1119 49.5932C85.8121 49.7715 85.5925 50.0737 85.5309 50.424C85.3163 51.7187 85.3687 52.8418 85.6957 53.8743Z" fill="#1E1E1E"/>
<path d="M64.2381 30.636C63.7038 30.9543 63.495 31.612 63.7639 32.1706C64.0661 32.7724 64.8105 33.0321 65.4502 32.7501C67.4148 31.8723 69.3742 31.1131 71.2566 30.5046C71.9168 30.291 72.2696 29.6066 72.0523 28.9726C71.8286 28.3448 71.1096 28.0099 70.4428 28.2174C68.4623 28.8582 66.4245 29.6433 64.3751 30.5658C64.3294 30.585 64.2837 30.6043 64.2381 30.636Z" fill="#1E1E1E"/>
<g clip-path="url(#clip0)">
<path d="M15.1689 29.9899C15.2489 29.9519 15.3389 29.9138 15.4189 29.8853C16.0989 29.6189 16.8289 29.4858 17.5889 29.4858C18.9589 29.4858 20.4089 29.9233 21.6789 30.7224C21.8789 30.846 22.1089 30.9126 22.3489 30.9126C22.7589 30.9126 23.1389 30.7223 23.3589 30.3989C23.5389 30.1421 23.5989 29.8377 23.5389 29.5333C23.4789 29.2289 23.2889 28.9721 23.0189 28.8009C21.3589 27.7546 19.4289 27.1743 17.5889 27.1743C16.5089 27.1743 15.4689 27.3646 14.4989 27.7451C14.3789 27.7926 14.2589 27.8402 14.1389 27.8972C13.5289 28.1731 13.2689 28.858 13.5589 29.4382C13.8389 30.0089 14.5589 30.2563 15.1689 29.9899Z" fill="#1E1E1E"/>
<path d="M20.1989 49.2059C19.8689 49.2059 19.5688 49.3201 19.3388 49.5389C18.1088 50.6994 16.6589 51.8694 14.7889 53.2297C14.4889 53.4485 14.1889 53.6578 13.8889 53.8671C13.6289 54.0478 13.4589 54.3237 13.4089 54.6281C13.3589 54.9325 13.4389 55.2369 13.6289 55.4842C13.8589 55.7791 14.2189 55.9503 14.6089 55.9503C14.8689 55.9503 15.1188 55.8742 15.3288 55.722C15.6388 55.5032 15.9488 55.2844 16.2488 55.0657C18.2188 53.6483 19.7389 52.4117 21.0388 51.175C21.2688 50.9562 21.3988 50.6709 21.3988 50.357C21.3988 50.0526 21.2788 49.7577 21.0488 49.5389C20.8288 49.3296 20.5289 49.2059 20.1989 49.2059Z" fill="#1E1E1E"/>
<path d="M12.6888 40.7013C11.9188 39.4742 11.4988 37.9426 11.4988 36.3921C11.4988 36.0116 11.5288 35.6215 11.5788 35.241C11.6688 34.6132 11.1888 34.033 10.5288 33.9473C9.86884 33.8617 9.25885 34.3183 9.16885 34.9462C9.10885 35.4218 9.06885 35.9069 9.06885 36.3921C9.06885 38.3802 9.59885 40.2827 10.5988 41.8808C10.6988 42.0426 10.7988 42.1948 10.9088 42.347C11.1388 42.6704 11.5089 42.8701 11.9189 42.8701C12.1589 42.8701 12.3888 42.8036 12.5888 42.6799C12.8588 42.5087 13.0489 42.2518 13.1089 41.9474C13.1789 41.643 13.1088 41.3386 12.9288 41.0818C12.8588 40.9581 12.7688 40.8345 12.6888 40.7013Z" fill="#1E1E1E"/>
<path d="M7.70884 57.5296C5.42884 58.8328 3.06886 60.0504 0.688859 61.1348C0.0888594 61.4106 -0.171148 62.105 0.118852 62.6758C0.318852 63.0753 0.748848 63.3322 1.20885 63.3322C1.38885 63.3322 1.56887 63.2941 1.72887 63.218C4.17886 62.105 6.59886 60.8494 8.94886 59.5082C9.51886 59.1752 9.70886 58.4713 9.35886 57.9196C9.02886 57.3869 8.27884 57.2061 7.70884 57.5296Z" fill="#1E1E1E"/>
<path d="M26.3689 47.2178C25.9289 47.1607 25.4889 47.1036 25.0689 47.037C22.8189 46.6755 20.7689 46.0857 18.9689 45.2771C18.6789 45.1439 18.3489 45.1344 18.0389 45.2296C17.7289 45.3342 17.4889 45.5435 17.3489 45.8194C17.2089 46.0952 17.1888 46.4092 17.2988 46.7041C17.4088 46.999 17.6289 47.2273 17.9189 47.3605C19.9189 48.2642 22.1889 48.9206 24.6589 49.3106C25.0989 49.3772 25.5689 49.4438 26.0489 49.5104C26.0989 49.5199 26.1489 49.5199 26.1989 49.5199C26.8089 49.5199 27.3189 49.0918 27.3989 48.5115C27.5089 47.8742 27.0389 47.2939 26.3689 47.2178Z" fill="#1E1E1E"/>
<path d="M42.2088 48.93C41.4788 48.7778 40.7289 48.6446 39.9689 48.5304C37.9289 48.245 35.8789 48.1118 33.9889 48.0072C33.6689 47.9786 33.3589 48.0833 33.1089 48.2926C32.8689 48.4924 32.7189 48.7873 32.6989 49.1012C32.6789 49.4057 32.7889 49.7101 33.0089 49.9384C33.2289 50.1668 33.5189 50.2999 33.8489 50.319C35.6989 50.4141 37.6689 50.5378 39.6189 50.8137C40.3189 50.9088 41.0189 51.0325 41.6788 51.1752C41.7688 51.1942 41.8589 51.2037 41.9489 51.2037C42.5189 51.2037 43.0089 50.8327 43.1289 50.3C43.1989 49.9955 43.1489 49.6911 42.9689 49.4247C42.7989 49.1773 42.5288 48.9966 42.2088 48.93Z" fill="#1E1E1E"/>
<path d="M51.9189 57.0253C52.1489 57.3487 52.5189 57.5389 52.9289 57.5389C53.1689 57.5389 53.3989 57.4723 53.5989 57.3392C53.8689 57.168 54.0489 56.9111 54.1189 56.6067C54.1789 56.3023 54.1189 55.9979 53.9389 55.7411C52.9489 54.3333 51.6389 53.0871 50.0589 52.0503C49.7889 51.8791 49.4689 51.8125 49.1489 51.86C48.8289 51.9171 48.5489 52.0883 48.3689 52.3357C47.9889 52.8588 48.1289 53.5818 48.6789 53.9432C50.0089 54.8184 51.0989 55.8552 51.9189 57.0253Z" fill="#1E1E1E"/>
<path d="M26.3288 34.9464C25.6688 35.051 25.2188 35.6408 25.3188 36.2687C25.4088 36.7919 25.4489 37.3436 25.4489 37.8954C25.4489 39.6077 25.0289 41.4246 24.2289 43.1369C24.0989 43.4223 24.0888 43.7362 24.2088 44.0216C24.3288 44.307 24.5588 44.5353 24.8488 44.659C25.0088 44.7256 25.1688 44.7541 25.3388 44.7541C25.8188 44.7541 26.2589 44.4878 26.4489 44.0692C27.3789 42.062 27.8688 39.9311 27.8688 37.8954C27.8688 37.2199 27.8188 36.5541 27.7088 35.9072C27.6088 35.2698 26.9888 34.8418 26.3288 34.9464Z" fill="#1E1E1E"/>
</g>
<defs>
<clipPath id="clip0">
<rect width="55" height="37" fill="white" transform="translate(0 27)"/>
</clipPath>
</defs>
</svg>
