<svg width="67" height="178" viewBox="0 0 67 178" fill="none" xmlns="http://www.w3.org/2000/svg">
<path d="M20.3503 166.178C20.3758 166.263 20.4081 166.356 20.4407 166.435C20.7002 167.122 21.0912 167.754 21.6003 168.314C22.518 169.325 23.8112 170.09 25.2498 170.471C25.4748 170.532 25.6778 170.656 25.8386 170.833C26.1132 171.135 26.2278 171.548 26.1372 171.936C26.0687 172.247 25.885 172.504 25.6208 172.671C25.3566 172.839 25.0404 172.878 24.7335 172.798C22.8517 172.302 21.132 171.282 19.8995 169.924C19.1761 169.128 18.6194 168.228 18.2497 167.247C18.2043 167.125 18.1589 167.004 18.1205 166.875C17.9149 166.233 18.2447 165.564 18.8659 165.374C19.4734 165.183 20.1376 165.542 20.3503 166.178Z" fill="#1E1E1E"/>
<path d="M37.7249 156.766C37.5045 156.523 37.3877 156.224 37.3941 155.903C37.4214 154.193 37.3087 152.315 37.0548 149.997C37.0144 149.624 36.9672 149.258 36.9199 148.892C36.8784 148.576 36.9666 148.26 37.1558 148.012C37.3451 147.764 37.6211 147.612 37.9288 147.581C38.2981 147.546 38.6637 147.692 38.9241 147.979C39.0978 148.171 39.209 148.407 39.238 148.667C39.285 149.047 39.332 149.427 39.3723 149.799C39.6514 152.231 39.762 154.207 39.7258 156.02C39.7194 156.341 39.5975 156.635 39.3679 156.852C39.1453 157.063 38.8496 157.179 38.536 157.161C38.236 157.144 37.9453 157.009 37.7249 156.766Z" fill="#1E1E1E"/>
<path d="M26.4553 157.007C25.0495 157.291 23.6541 158.041 22.5238 159.111C22.2464 159.374 21.982 159.665 21.7378 159.964C21.3399 160.463 20.5982 160.512 20.0975 160.089C19.5969 159.665 19.5248 158.904 19.9227 158.405C20.2296 158.033 20.5567 157.668 20.9104 157.334C22.3597 155.962 24.0985 155.036 25.9275 154.665C26.1118 154.626 26.2891 154.594 26.4731 154.57C26.8616 154.515 27.2529 154.648 27.5251 154.947C27.6845 155.123 27.7886 155.337 27.8313 155.569C27.8857 155.884 27.8247 156.201 27.6426 156.455C27.4671 156.716 27.1987 156.875 26.892 156.92C26.7554 156.954 26.6055 156.974 26.4553 157.007Z" fill="#1E1E1E"/>
<path d="M35.3731 141.861C34.8034 139.276 34.1176 136.692 33.3207 134.186C33.1216 133.552 33.4565 132.879 34.0686 132.697C34.495 132.567 34.9706 132.705 35.2782 133.044C35.3985 133.177 35.491 133.336 35.5423 133.507C36.365 136.084 37.0632 138.739 37.6518 141.402C37.789 142.053 37.4003 142.681 36.7621 142.806C36.1512 142.933 35.5173 142.505 35.3731 141.861Z" fill="#1E1E1E"/>
<path d="M40.4384 162.655C40.1018 162.37 39.7653 162.085 39.4352 161.822C37.6631 160.414 35.8573 159.312 34.058 158.547C33.766 158.425 33.538 158.189 33.4004 157.894C33.2697 157.592 33.2628 157.27 33.3718 156.974C33.4807 156.679 33.698 156.446 33.9883 156.322C34.2787 156.198 34.5937 156.202 34.8858 156.323C36.8888 157.169 38.8909 158.387 40.8312 159.938C41.1748 160.216 41.5384 160.516 41.9087 160.824C41.9491 160.854 41.9826 160.891 42.0161 160.928C42.4245 161.378 42.4514 162.052 42.0786 162.515C41.6839 163.039 40.9429 163.096 40.4384 162.655Z" fill="#1E1E1E"/>
<path d="M52.3718 173.168C51.7704 172.736 51.1696 172.275 50.5761 171.794C48.9985 170.487 47.5264 169.067 46.1826 167.746C45.9471 167.529 45.8165 167.228 45.8032 166.897C45.7896 166.581 45.9064 166.264 46.1244 166.031C46.3354 165.803 46.6335 165.672 46.9492 165.675C47.2649 165.679 47.5575 165.8 47.7926 166.03C49.1027 167.329 50.5141 168.696 52.0244 169.943C52.5636 170.393 53.1239 170.824 53.6715 171.211C53.7458 171.264 53.8131 171.324 53.8735 171.391C54.2555 171.811 54.3104 172.432 53.9982 172.892C53.8207 173.156 53.5628 173.331 53.2458 173.384C52.9496 173.431 52.6354 173.358 52.3718 173.168Z" fill="#1E1E1E"/>
<path d="M64.8519 174.752C65.2418 174.697 65.6278 174.838 65.9014 175.139C66.0616 175.316 66.1665 175.531 66.2026 175.77C66.2577 176.088 66.1901 176.398 66.0143 176.66C65.8319 176.915 65.5693 177.082 65.2615 177.127C63.5718 177.374 61.7867 177.273 59.9744 176.828C59.669 176.748 59.4068 176.559 59.228 176.291C59.0561 176.016 58.9944 175.691 59.055 175.388C59.1838 174.746 59.8056 174.348 60.4369 174.502C61.9642 174.875 63.4495 174.959 64.8519 174.752Z" fill="#1E1E1E"/>
<path d="M31.477 171.047C31.1157 170.493 31.2472 169.757 31.7711 169.397C32.2121 169.102 32.6407 168.751 33.0428 168.37C34.2908 167.189 35.3365 165.629 36.054 163.864C36.1758 163.572 36.398 163.349 36.6855 163.239C36.9731 163.13 37.292 163.141 37.5744 163.267C37.729 163.338 37.8558 163.435 37.9686 163.559C38.2868 163.91 38.3844 164.415 38.2053 164.842C37.3591 166.906 36.131 168.733 34.6473 170.137C34.1551 170.603 33.6366 171.026 33.0922 171.392C32.5614 171.758 31.8384 171.601 31.477 171.047Z" fill="#1E1E1E"/>
<path d="M21.1433 117.728C20.4387 118.48 19.7068 119.215 18.9654 119.914C18.4563 120.4 18.4125 121.182 18.8622 121.67C19.312 122.158 20.099 122.162 20.6082 121.686C21.3943 120.947 22.1619 120.174 22.9021 119.384C23.0715 119.201 23.1773 118.995 23.2287 118.774C23.3227 118.369 23.2084 117.932 22.8968 117.635C22.4023 117.177 21.6249 117.217 21.1433 117.728Z" fill="#1E1E1E"/>
<path d="M28.5571 107.702C27.523 109.507 26.3797 111.265 25.1538 112.938C24.7362 113.499 24.837 114.272 25.3849 114.663C25.9238 115.055 26.6998 114.915 27.1173 114.345C28.4054 112.596 29.6107 110.744 30.689 108.854C30.7598 108.74 30.8034 108.62 30.8288 108.491C30.9486 107.976 30.7243 107.438 30.2505 107.178C29.6583 106.853 28.9017 107.091 28.5571 107.702Z" fill="#1E1E1E"/>
<path d="M21.9616 80.1323C20.5291 81.9086 19.5207 83.6036 18.8835 85.3294C18.7877 85.5983 18.6916 85.8582 18.6138 86.1259C18.4238 86.7995 18.7855 87.4652 19.4388 87.6232C20.0923 87.7902 20.7833 87.384 20.9734 86.7195C21.034 86.5163 21.1035 86.3034 21.1821 86.0991C21.7234 84.6421 22.5993 83.182 23.8449 81.635C23.9784 81.4725 24.0573 81.2863 24.1 81.1023C24.2027 80.6609 24.0607 80.1896 23.695 79.8956C23.183 79.484 22.4065 79.5876 21.9616 80.1323Z" fill="#1E1E1E"/>
<path d="M55.1731 86.5963C54.0119 88.3645 52.7404 90.0129 51.3853 91.4853C50.9127 91.9956 50.9232 92.7833 51.4176 93.2323C51.903 93.6818 52.6893 93.6321 53.1617 93.1128C54.615 91.5344 55.9753 89.7716 57.2164 87.8805C57.3051 87.748 57.3664 87.5992 57.4006 87.452C57.5117 86.9647 57.3239 86.451 56.8861 86.1796C56.3206 85.8258 55.5542 86.0103 55.1731 86.5963Z" fill="#1E1E1E"/>
<path d="M35.6809 99.091C35.473 99.0951 35.2647 99.0812 35.0566 99.0762C35.309 98.3352 35.5434 97.5953 35.7595 96.8475C35.7682 96.8198 35.777 96.8011 35.7766 96.7739C35.9218 96.1303 35.5517 95.5103 34.9164 95.3512C34.263 95.1932 33.5719 95.5995 33.3819 96.2731C33.1312 97.1409 32.8532 98.0014 32.5572 98.863C32.3216 98.8326 32.095 98.7926 31.8592 98.7532C31.1973 98.632 30.526 98.4842 29.8722 98.299C29.2276 98.1224 28.5273 98.5111 28.3189 99.1678C28.1198 99.8329 28.4635 100.509 29.1081 100.686C29.8344 100.884 30.5693 101.055 31.3128 101.18C31.4306 101.2 31.5485 101.22 31.6662 101.23C31.5525 101.519 31.4387 101.807 31.3159 102.095C31.044 102.729 31.3341 103.454 31.9615 103.695C32.5888 103.936 33.3171 103.609 33.589 102.966C33.7905 102.482 33.992 101.989 34.1845 101.506C34.6462 101.531 35.1168 101.546 35.5781 101.544C36.1841 101.542 36.7028 101.102 36.8398 100.522C36.8569 100.448 36.865 100.375 36.8731 100.302C36.8913 99.6397 36.3594 99.0934 35.6809 99.091Z" fill="#1E1E1E"/>
<path d="M45.1348 96.6347C44.0036 97.2774 42.7802 97.7991 41.5009 98.1974C40.8432 98.4023 40.4454 99.0982 40.617 99.749C40.7885 100.4 41.4628 100.765 42.1205 100.56C43.5709 100.106 44.9561 99.5102 46.2581 98.7751C46.8956 98.4175 47.5414 98.005 48.1687 97.5573C48.4465 97.3585 48.6236 97.0753 48.692 96.7719C48.7601 96.4503 48.7103 96.109 48.5166 95.8313C48.1473 95.2746 47.3768 95.1602 46.8031 95.5591C46.2656 95.9558 45.7005 96.3179 45.1348 96.6347Z" fill="#1E1E1E"/>
<path d="M24.884 97.7663C24.9726 97.6338 25.034 97.4849 25.0682 97.3377C25.1793 96.8504 24.9915 96.3367 24.5537 96.0654C22.9393 95.0531 21.754 93.6692 21.1174 92.0512C20.8738 91.4232 20.1555 91.1425 19.5261 91.418C18.8876 91.6941 18.5718 92.43 18.8152 93.0489C19.63 95.136 21.137 96.9073 23.171 98.183C23.7365 98.5368 24.5029 98.3523 24.884 97.7663Z" fill="#1E1E1E"/>
<path d="M37.032 90.4204C37.2357 88.07 37.1067 85.8585 36.6365 83.8316C36.483 83.1709 35.8268 82.7867 35.1601 82.9739C34.4935 83.1611 34.0777 83.8488 34.2311 84.5005C34.6436 86.2773 34.7512 88.2365 34.5711 90.3227C34.5079 91.0062 35.0129 91.5812 35.6915 91.6107C36.3158 91.6345 36.8705 91.1917 36.9981 90.5856C37.0155 90.5392 37.0237 90.4753 37.032 90.4204Z" fill="#1E1E1E"/>
<path d="M31.3133 75.5731C30.8671 75.3566 30.4128 75.2041 29.9594 75.1241C29.0434 74.9555 28.1041 75.0695 27.1775 75.4545C26.5387 75.7216 26.2047 76.4497 26.4392 77.0784C26.6738 77.707 27.3834 78.0065 28.0222 77.7394C28.4989 77.537 28.9505 77.4812 29.4129 77.5606C29.6577 77.5995 29.9031 77.6837 30.1581 77.8125C30.7954 78.1166 31.3723 78.6329 31.934 79.3768C32.3393 79.9131 33.1092 79.9912 33.6554 79.5668C33.9061 79.3697 34.0654 79.1058 34.134 78.8204C34.2108 78.4802 34.1426 78.1129 33.9307 77.8272C33.1387 76.7807 32.2876 76.0461 31.3133 75.5731Z" fill="#1E1E1E"/>
<path d="M62.9404 75.9877C63.077 75.381 62.7433 74.777 62.1529 74.5878C61.5082 74.3931 60.8076 74.7546 60.5722 75.4129C59.8577 77.4426 59.0607 79.387 58.2072 81.1718C57.9081 81.7978 58.162 82.5247 58.7716 82.8032C59.3812 83.0727 60.1189 82.7813 60.4271 82.1547C61.3245 80.2765 62.1567 78.2574 62.8971 76.1355C62.9146 76.0891 62.932 76.0426 62.9404 75.9877Z" fill="#1E1E1E"/>
<path d="M53.1789 25.7862C53.1381 25.7075 53.0894 25.6228 53.0429 25.5517C52.6618 24.9287 52.1605 24.3816 51.5549 23.9225C50.4631 23.0949 49.0432 22.5677 47.5485 22.4373C47.3144 22.415 47.0908 22.3292 46.8996 22.1842C46.5728 21.9365 46.3849 21.5553 46.405 21.1647C46.4167 20.8513 46.5527 20.5725 46.7844 20.3662C47.0161 20.1598 47.3227 20.0699 47.6413 20.0966C49.5962 20.2655 51.4848 20.969 52.9512 22.0805C53.8118 22.7329 54.5257 23.5127 55.0689 24.4019C55.1358 24.5123 55.2027 24.6227 55.2638 24.7407C55.5833 25.329 55.3768 26.0318 54.7952 26.3191C54.2273 26.6047 53.5041 26.3669 53.1789 25.7862Z" fill="#1E1E1E"/>
<path d="M37.5624 38.0614C37.8254 38.2607 37.9955 38.5329 38.0466 38.8462C38.3258 40.5141 38.7745 42.3224 39.4431 44.5361C39.55 44.8917 39.6626 45.2397 39.7753 45.5877C39.8733 45.8888 39.8421 46.2113 39.6981 46.4841C39.5541 46.7569 39.3064 46.9512 39.0056 47.0335C38.6442 47.1296 38.2538 47.0485 37.943 46.8129C37.7358 46.6559 37.5826 46.4442 37.5072 46.1961C37.3923 45.8345 37.2774 45.4728 37.1705 45.1173C36.4568 42.7977 35.9925 40.894 35.7035 39.1232C35.6523 38.8099 35.7211 38.504 35.9108 38.2538C36.0947 38.0112 36.3684 37.8487 36.6839 37.8133C36.9856 37.7794 37.2994 37.862 37.5624 38.0614Z" fill="#1E1E1E"/>
<path d="M48.6848 35.8206C50.0397 35.3079 51.2995 34.3411 52.2362 33.1054C52.4661 32.8022 52.6777 32.4732 52.8678 32.1398C53.1753 31.5851 53.9083 31.4126 54.486 31.7431C55.0637 32.0735 55.274 32.8059 54.9665 33.3606C54.727 33.7759 54.4658 34.1867 54.1727 34.5733C52.9717 36.1577 51.4001 37.3537 49.6378 38.0232C49.4604 38.0916 49.2888 38.1525 49.1092 38.2074C48.7305 38.3262 48.315 38.2619 47.9882 38.0142C47.797 37.8692 47.6539 37.6772 47.5692 37.4579C47.4575 37.1583 47.4612 36.8388 47.5973 36.56C47.7254 36.2751 47.9651 36.0749 48.2637 35.9789C48.3941 35.9226 48.5406 35.8784 48.6848 35.8206Z" fill="#1E1E1E"/>
<path d="M42.4879 52.2398C43.5176 54.6556 44.6628 57.0516 45.9044 59.3535C46.216 59.9358 46.0037 60.6462 45.4278 60.9259C45.0271 61.1234 44.5292 61.0684 44.1627 60.7905C44.0192 60.6818 43.8987 60.5427 43.8172 60.3854C42.5371 58.0185 41.367 55.5559 40.3044 53.0675C40.0513 52.4578 40.3251 51.7821 40.9373 51.5538C41.5221 51.3287 42.229 51.6377 42.4879 52.2398Z" fill="#1E1E1E"/>
<path d="M33.8464 32.7496C34.2316 32.9699 34.6167 33.1902 34.9916 33.3909C37.0031 34.462 38.993 35.2303 40.916 35.6733C41.2275 35.7423 41.4963 35.9341 41.6858 36.1972C41.8697 36.4678 41.9345 36.7796 41.8794 37.084C41.8244 37.3884 41.6507 37.6507 41.3849 37.8193C41.1191 37.9878 40.8058 38.0369 40.4942 37.9678C38.3545 37.4799 36.1489 36.6317 33.9449 35.4505C33.554 35.2377 33.1393 35.0069 32.7165 34.77C32.6709 34.7474 32.6311 34.7172 32.5912 34.687C32.1051 34.3185 31.9573 33.6692 32.2441 33.1585C32.5414 32.5841 33.2665 32.4056 33.8464 32.7496Z" fill="#1E1E1E"/>
<path d="M20.1888 24.5456C20.8625 24.8652 21.5406 25.2122 22.2152 25.5803C24.0134 26.5851 25.7275 27.7174 27.2969 28.7757C27.5692 28.9462 27.753 29.2169 27.8258 29.5347C27.8964 29.8389 27.8378 30.1645 27.6641 30.4268C27.4961 30.6815 27.2245 30.8577 26.9113 30.9067C26.598 30.9558 26.2865 30.8867 26.012 30.7026C24.4802 29.6608 22.8356 28.5694 21.1149 27.6113C20.4996 27.2642 19.867 26.94 19.2549 26.655C19.1716 26.6158 19.0942 26.569 19.0224 26.5146C18.5682 26.1703 18.4018 25.5786 18.628 25.0816C18.7561 24.7967 18.9799 24.5843 19.2843 24.4807C19.5692 24.3863 19.8935 24.4053 20.1888 24.5456Z" fill="#1E1E1E"/>
<path d="M7.56048 25.1314C7.18182 25.2502 6.77204 25.1783 6.4453 24.9307C6.25404 24.7857 6.11096 24.5937 6.03203 24.3667C5.92029 24.0672 5.932 23.7538 6.06009 23.4689C6.19616 23.1901 6.42784 22.9837 6.72643 22.8878C8.36583 22.3639 10.1626 22.1622 12.048 22.2903C12.3667 22.317 12.6619 22.4572 12.8882 22.6884C13.1087 22.9272 13.2284 23.2328 13.2225 23.5386C13.2093 24.1851 12.661 24.6767 12.0043 24.6325C10.4157 24.5265 8.92075 24.6943 7.56048 25.1314Z" fill="#1E1E1E"/>
<path d="M41.2913 22.9947C41.754 23.4768 41.7563 24.2186 41.2974 24.6586C40.9096 25.0211 40.5444 25.4367 40.2111 25.8764C39.1768 27.241 38.4139 28.9427 38.017 30.7905C37.9483 31.0965 37.7666 31.3527 37.4986 31.5076C37.2306 31.6626 36.9093 31.7056 36.6035 31.6289C36.4358 31.5854 36.291 31.5115 36.1556 31.4088C35.773 31.1188 35.5833 30.6407 35.6847 30.1924C36.1561 28.031 37.0528 26.0369 38.2826 24.4145C38.6906 23.8763 39.1327 23.3758 39.6111 22.9267C40.0758 22.4792 40.8285 22.5126 41.2913 22.9947Z" fill="#1E1E1E"/>
</svg>
