<svg width="104" height="11" viewBox="0 0 104 11" fill="none" xmlns="http://www.w3.org/2000/svg">
<path d="M103.595 7.88385C102.403 6.34451 101.131 4.93115 99.939 3.39181C98.7494 1.97481 97.9064 1.27724 96.5278 2.68491C95.3923 3.83698 94.0163 5.36699 93.1394 6.99746C93.0566 7.00111 93.0541 6.87877 92.9713 6.88241C92.7955 6.40036 92.374 6.05158 92.118 5.6955C91.5206 4.86466 91.006 4.03018 90.4113 3.32168C89.4726 2.01607 88.4563 0.958786 87.1502 1.87347C85.8414 2.66581 85.055 4.65965 84.0075 6.05274C83.9273 6.17872 83.8471 6.3047 83.7669 6.43069C84.0101 6.17508 83.9221 5.93405 83.5911 5.94863C83.3351 5.59256 82.9187 5.48845 82.5825 5.25835C81.9929 4.79452 81.4033 4.3307 80.8137 3.86687C79.4664 2.82416 78.1966 1.53314 76.9269 0.242115C76.5028 -0.229005 75.7631 0.048476 75.4424 0.552404C74.8862 1.67895 74.3275 2.68316 73.7714 3.80971C73.4532 4.43597 73.135 5.06223 72.8169 5.6885C72.7367 5.81448 72.6565 5.94046 72.5789 6.18878C72.4987 6.31476 72.4987 6.31476 72.4987 6.31476C71.7436 5.85822 71.0609 4.90869 70.3833 4.20384C69.623 3.50262 68.8602 2.67908 68.0171 1.98151C66.5793 0.57544 65.157 -0.0966095 63.6206 1.68536C62.4902 3.0821 61.4427 4.47519 60.3124 5.87193C59.3814 4.93333 58.453 4.11707 57.4393 3.18213C56.5109 2.36587 55.5748 1.1826 54.4239 1.60064C53.3557 2.01504 52.3935 3.52683 51.5038 4.54562C51.0175 5.05683 50.5312 5.56805 50.1277 6.07562C49.6415 6.58684 49.3104 6.60142 48.7234 6.25993C46.7942 5.12041 45.2556 2.86163 43.0961 2.5894C40.8538 2.32081 39.3277 4.59213 37.6258 6.38139C37.0594 7.01859 37.1396 6.89261 36.5474 6.30644C36.0405 5.83897 35.6164 5.36785 35.1095 4.90037C34.0958 3.96543 33.0821 3.03048 31.9157 2.7145C30.7519 2.52086 29.7743 3.29862 28.7138 4.08003C28.1423 4.47256 27.5707 4.86509 26.9991 5.25761C26.4275 5.65014 25.5351 6.54659 24.7929 6.70174C23.7997 6.74548 22.53 5.45446 21.6844 4.63456C20.7534 3.69596 19.9777 2.26073 18.8113 1.94475C17.7277 1.62513 16.6647 2.2842 15.8577 3.29935C14.968 4.31814 14.1738 5.94497 13.0049 5.50666C11.8385 5.19068 10.8998 3.88508 9.88869 3.07246C8.79221 2.14116 7.61812 1.45818 6.28881 1.27183C3.87847 0.888194 1.42399 2.34326 0.16678 5.58233C-0.617048 7.69851 1.57334 9.43878 2.35716 7.3226C3.45658 4.45783 5.85662 4.35211 7.70567 5.61762C9.55471 6.88313 11.0959 9.26424 13.2502 9.2918C14.2459 9.37039 15.1434 8.71861 15.9556 7.94814C16.6022 7.18496 17.7196 5.17654 18.5627 5.87411C19.4032 6.44934 20.1763 7.76223 21.0219 8.58213C21.9503 9.39839 23.0442 10.2074 24.0425 10.4083C25.1235 10.6056 26.021 9.95379 27.0013 9.29836C28.2272 8.50967 29.4454 7.35396 30.674 6.6876C31.7396 6.15086 32.761 7.45282 33.604 8.15038C34.4497 8.97029 35.3909 10.3982 36.472 10.5955C38.3883 11.1234 39.8887 7.62867 41.4405 6.58072C43.2381 5.39949 45.0275 7.76967 46.5429 8.92742C47.4713 9.74368 48.5627 10.4303 49.6334 10.1382C50.7869 9.84254 51.7517 8.4531 52.6414 7.43431C53.1277 6.92309 53.8494 5.78925 54.4235 5.51906C54.5063 5.51542 54.6641 5.14111 54.6641 5.14111C54.8296 5.13382 55.4244 5.84233 55.5925 5.95737C56.7769 7.1297 58.044 8.29839 59.2284 9.47072C59.2284 9.47072 59.3112 9.46708 59.3137 9.58941C59.7378 10.0605 60.4025 10.1537 60.8836 9.39782C61.6104 8.50865 62.2545 7.62313 62.9813 6.73397C63.302 6.23004 63.7081 5.84481 64.0288 5.34088C64.272 5.08527 64.7505 4.20704 65.079 4.07012C65.7385 3.91863 66.9332 5.5803 67.44 6.04778C68.2003 6.74899 68.8778 7.45385 69.6381 8.15506C70.8225 9.32739 72.2681 11.1005 73.5562 9.32943C74.2002 8.44391 74.6711 7.19868 75.147 6.19811C75.4652 5.57185 75.8635 4.8196 76.1817 4.19334C78.297 6.30427 80.49 8.16687 82.8382 9.53284C84.2631 10.3272 85.065 9.06741 86.0298 7.67797C86.5109 6.92207 86.9868 5.92151 87.5559 5.40665C88.0421 4.89543 87.7162 5.15468 88.1378 5.50347C88.3912 5.7372 88.7351 6.3343 88.9911 6.69038C89.5885 7.52122 90.103 8.3557 90.6978 9.0642C91.1245 9.65766 91.6391 10.4921 92.2261 10.8336C93.5657 11.5093 94.3599 9.8825 95.247 8.74138C95.8109 7.98184 96.3748 7.2223 97.0214 6.45912C97.0214 6.45912 97.5077 5.9479 97.7508 5.69229C97.8361 5.81099 97.9215 5.92968 98.0068 6.04837C99.1989 7.58771 100.471 9.00107 101.663 10.5404C103.104 12.0688 104.788 9.4232 103.595 7.88385Z" fill="#F7C300"/>
</svg>
