<svg width="204" height="118" viewBox="0 0 204 118" fill="none" xmlns="http://www.w3.org/2000/svg">
<path d="M75.8119 88.9127C75.8119 88.9227 75.8119 88.9127 75.8119 88.9127C75.8019 88.9227 75.8019 88.9227 75.8019 88.9327C75.8019 88.9227 75.8119 88.9227 75.8119 88.9127C75.8119 88.9127 75.8219 88.9127 75.8119 88.9127Z" fill="#1E1E1E"/>
<path d="M98.4793 99.8898C98.1597 99.1794 97.0613 99.0279 96.4322 99.3783C96.4123 99.3878 96.3923 99.4067 96.3723 99.4162C96.1327 99.4351 95.893 99.4541 95.6534 99.473C93.826 96.5654 92.1484 93.5821 90.6106 90.5324C90.9901 90.2672 91.2597 89.8505 91.2597 89.3958C91.2597 88.6003 90.5707 88.0036 89.7618 87.9752C86.6463 87.8521 83.5208 87.9373 80.4152 88.2025C80.2854 87.9752 80.1456 87.7573 79.9659 87.549C79.5365 87.0376 78.9374 86.6114 78.3282 86.3367C77.6093 86.0147 76.8304 85.7969 76.0315 85.8821C75.1528 85.9673 74.344 86.2893 73.7249 86.905C73.4153 87.208 73.1856 87.549 73.0059 87.9184C69.3412 87.7668 65.6764 87.8521 62.0216 88.193C61.2128 88.2688 60.5238 88.7897 60.5238 89.6137C60.5238 90.324 61.2128 91.1101 62.0216 91.0343C62.0516 91.0343 62.0816 91.0343 62.1115 91.0249C61.4425 92.2466 60.8134 93.4779 60.2941 94.7564C59.6051 96.4328 59.2357 98.1471 59.016 99.9087C58.5067 99.8613 57.9974 99.814 57.4882 99.7382C57.4782 99.7382 57.4682 99.7382 57.4582 99.7382C56.6094 99.1889 55.0816 99.5677 55.0117 100.856C54.8619 103.565 56.1701 106.112 57.5681 108.404C58.966 110.687 61.9218 111.89 64.608 112.221C67.1942 112.543 70.3897 111.833 71.8875 109.664C73.4153 107.467 74.0244 104.55 74.1742 101.964C74.2241 101.102 73.5851 100.657 72.8861 100.61C72.7762 100.581 72.6564 100.553 72.5266 100.553C72.1271 100.534 71.7377 100.515 71.3383 100.496C70.6093 98.5543 69.7805 96.6317 68.8419 94.7659C68.3825 93.8472 67.8932 92.938 67.384 92.0383C67.1343 91.6121 66.8647 91.1859 66.6151 90.7502C68.722 90.6744 70.839 90.6744 72.946 90.7597C73.0059 90.9112 73.0758 91.0628 73.1657 91.2048C74.0344 92.6823 75.8218 93.3263 77.5294 93.0517C78.7277 92.8623 79.7961 92.0856 80.3553 91.0722C82.4923 90.8923 84.6392 90.7976 86.7861 90.7976C85.5978 93.7525 84.2198 96.6222 82.642 99.4162L81.953 99.4067C81.8032 99.4067 81.6734 99.4256 81.5536 99.4541C81.4438 99.4256 81.3239 99.4067 81.2141 99.4067C80.3454 99.4067 79.7862 100.06 79.7163 100.827C79.5864 102.276 79.6963 103.839 79.9859 105.269C80.2655 106.652 81.0743 107.808 82.0729 108.83C84.1798 110.99 86.9259 112.268 90.0714 111.946C92.9972 111.653 95.8431 110.137 97.7603 108.035C99.9572 105.582 99.7275 102.665 98.4793 99.8898ZM71.0387 103.29C70.819 104.815 70.3697 106.34 69.6207 107.694C69.1614 108.527 68.6122 108.868 67.6636 109.124C66.7149 109.38 65.7763 109.522 64.7877 109.361C63.7492 109.2 62.7506 108.821 61.812 108.366C60.8933 107.921 60.4539 107.448 59.9546 106.595C59.2157 105.326 58.4967 104.019 58.1772 102.617C60.2842 102.835 62.4111 102.873 64.5281 102.958C66.695 103.063 68.8718 103.176 71.0387 103.29ZM68.073 100.306C66.9945 100.25 65.9061 100.193 64.8276 100.146C63.889 100.108 62.9403 100.089 62.0017 100.06C62.2014 98.4975 62.5709 96.9916 63.18 95.5047C63.5495 94.6049 63.9888 93.7241 64.4582 92.8622C64.5081 92.9475 64.548 93.0233 64.598 93.1085C65.1172 93.9988 65.6065 94.908 66.0758 95.8267C66.8148 97.2757 67.4738 98.7816 68.073 100.306ZM77.769 89.4811C77.769 89.519 77.769 89.5569 77.769 89.5853C77.7591 89.6137 77.7591 89.6516 77.7491 89.6894C77.7491 89.6989 77.7491 89.6989 77.7391 89.7084C77.6592 89.841 77.4195 90.0778 77.7291 89.7652C77.6492 89.841 77.5793 89.9262 77.4994 90.002C77.4895 90.0115 77.4695 90.0304 77.4495 90.0399C77.3696 90.0872 77.2897 90.1346 77.2098 90.1725C77.1799 90.1819 77.1499 90.1914 77.1399 90.2009C77.08 90.2198 77.0301 90.2198 76.9702 90.2388C76.8004 90.2483 76.6307 90.2483 76.4609 90.2388C76.421 90.2293 76.381 90.2293 76.3411 90.2104C76.3211 90.2009 76.2912 90.2009 76.2612 90.1914C76.2312 90.1725 76.1314 90.1251 76.0415 90.0778C75.9916 90.0399 75.9517 89.9925 75.9017 89.9546C75.8818 89.9357 75.8618 89.9168 75.8418 89.8978C75.7919 89.822 75.7419 89.7463 75.702 89.6705C75.692 89.6421 75.682 89.6232 75.682 89.6137C75.6721 89.5758 75.6621 89.5284 75.6521 89.4906C75.6521 89.4053 75.6421 89.3295 75.6521 89.2443C75.6521 89.2254 75.6621 89.2159 75.6621 89.197C75.6621 89.178 75.6721 89.1496 75.692 89.1212C75.722 89.0644 75.7719 88.9696 75.7919 88.9412C75.7419 88.9981 75.712 89.0265 75.8019 88.9318C75.8218 88.9128 75.8618 88.8655 75.8718 88.8371C75.8618 88.856 75.8418 88.8844 75.8119 88.9223C75.8518 88.8749 75.9017 88.8371 75.9516 88.7992C75.9816 88.7802 76.0116 88.7613 76.0515 88.7423C76.0914 88.7329 76.1314 88.7234 76.1813 88.7139C76.2912 88.7045 76.401 88.7045 76.5108 88.7139C76.5508 88.7234 76.6007 88.7234 76.6407 88.7423C76.7205 88.7613 76.7905 88.7897 76.8703 88.8086C76.9203 88.8181 76.9302 88.8276 76.9302 88.8276C77.0001 88.8655 77.0601 88.9128 77.1 88.9318C77.1699 88.9697 77.2398 89.0075 77.3097 89.0549C77.3297 89.0644 77.3696 89.0928 77.3996 89.1117C77.4495 89.1496 77.4994 89.197 77.5494 89.2349C77.5993 89.2822 77.6492 89.3296 77.6892 89.3769C77.6992 89.3864 77.7091 89.3958 77.7191 89.4148C77.7391 89.4337 77.7491 89.4527 77.759 89.4622C77.759 89.4716 77.769 89.4716 77.769 89.4811C77.769 89.4716 77.769 89.4811 77.769 89.4811ZM88.8332 93.5442C89.9016 95.5804 91.0499 97.5693 92.2382 99.5393C91.3595 99.5298 90.4808 99.5109 89.602 99.5014C88.3838 99.4825 87.1755 99.4635 85.9573 99.4351C86.9958 97.503 87.9744 95.5425 88.8332 93.5442ZM96.4722 104.18C96.3723 105.156 95.7832 105.885 95.0642 106.548C93.5763 107.912 91.6192 109.001 89.5122 109.105C87.2155 109.219 85.478 108.167 84.0001 106.576C82.9017 105.402 82.6321 103.782 82.642 102.21C84.9687 102.248 87.2854 102.286 89.612 102.333C91.8189 102.371 94.0357 102.428 96.2425 102.267C96.4322 102.892 96.5421 103.546 96.4722 104.18Z" fill="#1E1E1E"/>
<path d="M102.903 99.4352C102.703 99.1227 102.374 98.8764 102.004 98.7817C101.645 98.687 101.165 98.7344 100.846 98.9238C100.177 99.331 99.8773 100.193 100.307 100.865C100.436 101.064 100.546 101.282 100.646 101.5C100.786 101.86 100.896 102.229 100.966 102.617C101.006 103.044 101.016 103.47 100.956 103.896C100.916 104.237 101.155 104.673 101.395 104.9C101.655 105.146 102.084 105.336 102.454 105.317C102.843 105.298 103.242 105.184 103.512 104.9L103.742 104.616C103.881 104.398 103.941 104.152 103.941 103.896C104.161 102.362 103.752 100.742 102.903 99.4352Z" fill="#F7C300"/>
<path d="M61.183 85.939C61.173 85.7496 61.1131 85.5696 61.0033 85.4086C60.7936 85.1056 60.494 84.8404 60.1046 84.7551C59.9747 84.7362 59.835 84.7172 59.7051 84.7078C59.4355 84.7078 59.1859 84.7741 58.9462 84.8972C58.5268 85.1624 58.1174 85.4654 57.7879 85.8253C57.4584 86.1852 57.1488 86.5735 56.9191 87.0092C56.8093 87.1702 56.7494 87.3501 56.7394 87.5396C56.6994 87.729 56.6994 87.9184 56.7693 88.1078C56.8193 88.2972 56.9091 88.4582 57.039 88.5908C57.1488 88.7423 57.2886 88.8655 57.4584 88.9602C57.8079 89.1307 58.2273 89.2254 58.6167 89.1022C58.9762 88.9886 59.3357 88.7802 59.5154 88.4488C59.6053 88.2688 59.7351 88.0983 59.8549 87.9373C60.0347 87.7384 60.2244 87.5396 60.4441 87.3785C60.4541 87.3691 60.4641 87.3691 60.474 87.3596C60.6438 87.2744 60.7936 87.1512 60.8934 86.9902C61.0233 86.8576 61.1131 86.6967 61.163 86.5072C61.213 86.3178 61.223 86.1284 61.183 85.939Z" fill="#F7C300"/>
<g clip-path="url(#clip0)">
<path d="M132.29 92.7437C130.287 92.2041 128.601 93.5723 127.431 94.9695C126.925 95.5765 126.826 96.4244 127.431 97.0122C127.956 97.5228 129.027 97.6192 129.533 97.0122C129.88 96.5978 130.247 96.1161 130.684 95.8174C130.941 95.6439 131.1 95.5668 131.358 95.5283C131.447 95.5187 131.556 95.538 131.626 95.5765C131.685 95.6054 131.765 95.6825 131.814 95.7499C131.953 95.933 132.003 96.0775 132.042 96.3377C132.052 96.4148 132.062 96.7135 132.042 96.8965C132.013 97.1471 131.933 97.4072 131.824 97.6384C131.566 98.2069 131.12 98.708 130.743 99.209C130.356 99.7197 129.96 100.24 129.553 100.741C128.75 101.753 127.897 102.735 126.975 103.651C126.409 104.21 126.399 105.135 126.975 105.694C127.54 106.243 128.512 106.252 129.077 105.694C130.356 104.412 131.497 103.015 132.598 101.589C133.718 100.144 134.859 98.7754 134.998 96.8965C135.146 95.1044 134.145 93.2447 132.29 92.7437Z" fill="#1E1E1E"/>
<path d="M123.434 92.6089C125.983 91.7803 128.026 93.4375 129.365 95.0852C129.93 95.7789 129.94 96.7521 129.137 97.4458C128.462 98.0239 127.203 98.1685 126.637 97.5229C126.251 97.0797 125.834 96.5497 125.328 96.2221C125.031 96.0294 124.833 95.9523 124.535 95.9138C124.426 95.9042 124.297 95.9331 124.218 95.9812C124.148 96.0198 124.049 96.1161 123.99 96.1836C123.831 96.3956 123.761 96.569 123.712 96.8581C123.692 96.9448 123.682 97.2724 123.712 97.4747C123.752 97.7445 123.841 98.0239 123.95 98.2648C124.237 98.8622 124.723 99.3632 125.14 99.8643C125.556 100.365 125.973 100.866 126.39 101.348C127.213 102.292 128.066 103.189 128.978 103.998C129.523 104.48 129.444 105.279 128.799 105.751C128.175 106.204 127.183 106.214 126.637 105.751C125.378 104.692 124.228 103.477 123.077 102.196C121.857 100.847 120.568 99.527 120.32 97.5807C120.082 95.6055 121.173 93.3412 123.434 92.6089Z" fill="#1E1E1E"/>
<path d="M145.817 95.8076C145.748 94.1696 145.956 92.175 145.411 90.6045C144.895 89.1303 143.308 88.5907 141.87 88.3209C140.085 87.9933 138.28 88.1089 136.485 88.2246C134.551 88.3498 132.618 88.4173 130.684 88.4366C126.786 88.4751 122.889 88.3787 118.991 88.5136C115.956 88.6196 112.485 88.8701 111.583 92.2714C111.186 93.7456 111.285 95.374 111.236 96.8867C111.157 98.9005 111.087 100.924 111.008 102.938C110.879 106.349 110.512 110.183 114.459 111.658C116.165 112.294 117.999 112.149 119.785 112.024C121.996 111.87 124.208 111.706 126.419 111.542C126.389 111.966 126.37 112.39 126.36 112.823C126.35 113.228 126.35 113.623 126.36 114.028C126.36 114.134 126.37 114.23 126.37 114.336C124.535 114.356 122.7 114.365 120.875 114.404C118.961 114.442 118.961 117.333 120.875 117.294C125.626 117.208 130.386 117.159 135.136 117.131C137.051 117.121 137.051 114.23 135.136 114.24C133.213 114.25 131.279 114.288 129.355 114.307C129.315 113.72 129.325 113.132 129.345 112.554C129.355 112.226 129.394 111.898 129.414 111.571C132.855 111.638 136.297 111.715 139.738 111.783C141.285 111.812 142.902 111.792 144.092 110.665C145.133 109.682 145.5 108.295 145.669 106.946C146.125 103.265 145.976 99.4979 145.817 95.8076ZM142.922 103.419C142.872 104.845 142.961 106.522 142.436 107.881C141.87 109.336 140.046 108.892 138.756 108.863C135.186 108.796 131.616 108.719 128.046 108.651C127.758 108.642 127.53 108.709 127.322 108.815C127.113 108.7 126.846 108.622 126.528 108.651C123.494 108.873 120.389 109.307 117.345 109.258C116.274 109.239 114.925 109.046 114.28 108.102C113.586 107.081 113.884 105.491 113.923 104.344C114.033 101.396 114.142 98.4476 114.251 95.4992C114.29 94.4779 114.082 92.8784 114.955 92.1172C115.808 91.3657 117.434 91.4813 118.495 91.4428C124.793 91.1922 131.09 91.4428 137.388 91.0766C138.756 90.9995 140.165 90.9224 141.513 91.2211C142.267 91.3946 142.515 91.3657 142.654 92.0209C142.813 92.7628 142.743 93.63 142.773 94.4008C142.932 97.3878 143.031 100.404 142.922 103.419Z" fill="#1E1E1E"/>
<path d="M149.953 91.308C149.576 89.7663 148.852 88.3307 147.85 87.0781C146.809 85.7677 145.371 84.4573 143.675 84.0429C142.922 83.8599 142.029 84.2742 141.841 85.0546C141.662 85.8062 142.069 86.6348 142.882 86.8372C142.971 86.8565 143.06 86.8854 143.15 86.9046C143.199 86.9239 143.249 86.9335 143.298 86.9528C143.417 87.0106 143.546 87.0877 143.646 87.1455C143.695 87.1744 143.963 87.3189 144.062 87.4057C144.012 87.3671 143.943 87.3286 144.062 87.4153C144.141 87.4828 144.221 87.5406 144.3 87.608C144.548 87.8103 144.776 88.032 145.004 88.2536C145.123 88.3692 145.232 88.4945 145.351 88.6197C145.411 88.6872 145.46 88.745 145.52 88.8124C145.907 89.3327 146.254 89.8627 146.541 90.4408C146.571 90.5082 146.611 90.5757 146.641 90.6528C146.641 90.6528 146.641 90.6527 146.641 90.6431C146.641 90.6527 146.641 90.6528 146.651 90.6624V90.672C146.66 90.7009 146.67 90.7395 146.68 90.7588C146.72 90.8744 146.779 90.9996 146.819 91.1056C146.928 91.4236 147.017 91.7415 147.097 92.0595C147.275 92.7918 148.188 93.3025 148.931 93.0712C149.705 92.84 150.151 92.098 149.953 91.308Z" fill="#F7C300"/>
<path d="M146.631 90.6721C146.661 90.866 146.681 90.8466 146.671 90.7788C146.651 90.74 146.641 90.7109 146.631 90.6721Z" fill="#F7C300"/>
<path d="M108.588 94.4685C107.755 94.507 107.13 95.1044 107.1 95.9137C107.011 98.1298 106.981 100.346 107.011 102.562C107.021 103.313 107.686 104.046 108.499 104.007C109.292 103.969 109.996 103.371 109.986 102.562C109.957 100.346 109.986 98.1298 110.076 95.9137C110.105 95.1622 109.371 94.4396 108.588 94.4685Z" fill="#F7C300"/>
</g>
<g clip-path="url(#clip1)">
<path d="M176.144 85.7419C174.322 85.135 173.531 87.8757 175.343 88.4827C176.895 89.0043 178.316 89.7724 179.547 90.7493C178.226 91.3752 176.875 91.8588 175.493 92.2477C175.003 91.1476 174.412 90.0949 173.691 89.0991C172.61 87.6007 170.008 89.0232 171.099 90.5311C171.639 91.2803 172.11 92.077 172.51 92.8926C171.439 93.0727 170.348 93.196 169.237 93.2719C168.146 93.3478 167.045 93.3762 165.944 93.3667C166.024 93.1202 166.084 92.8641 166.174 92.608C166.955 90.4932 168.446 88.0559 170.648 87.0507C170.709 87.0222 170.759 86.9843 170.819 86.9558C170.969 86.9653 171.119 86.9748 171.279 86.9938C173.201 87.1834 173.181 84.3384 171.279 84.1487C167.716 83.7978 164.392 83.959 161.299 85.8368C158.647 87.449 156.475 89.8294 155.153 92.5322C153.812 95.2634 153.251 98.2697 153.772 101.257C154.062 102.898 154.753 104.434 155.514 105.933C156.234 107.374 156.985 108.815 158.016 110.086C160.078 112.609 163.401 114.031 166.544 114.98C169.818 115.966 173.371 116.194 176.664 115.179C182.951 113.235 187.215 107.668 187.545 101.447C187.915 94.3909 183.081 88.0654 176.144 85.7419ZM181.719 92.8736C183.191 94.6849 184.172 96.8662 184.462 99.1991C182.01 99.4836 179.517 99.5785 177.015 99.6069C177.035 98.0326 176.855 96.4584 176.454 94.9315C178.256 94.4289 180.008 93.7555 181.719 92.8736ZM165.884 102.509C167.686 102.509 169.487 102.509 171.289 102.48C172.09 102.471 172.901 102.462 173.711 102.462C173.541 103.211 173.321 103.95 173.051 104.681C172.44 104.595 171.83 104.529 171.209 104.472C169.637 104.33 168.066 104.225 166.504 104.311C166.274 103.713 166.054 103.116 165.884 102.509ZM169.247 96.1265C170.709 96.0221 172.14 95.8419 173.541 95.5954C173.902 96.9041 174.062 98.2603 174.042 99.6354C172.951 99.6354 171.87 99.6354 170.799 99.6544C168.977 99.6733 167.155 99.6828 165.343 99.6733C165.343 99.6638 165.343 99.6543 165.343 99.6449C165.223 98.4974 165.233 97.3403 165.363 96.2023C166.645 96.2403 167.946 96.2118 169.247 96.1265ZM162.16 88.7198C163.401 87.8473 164.673 87.3636 165.994 87.0981C165.023 88.2456 164.262 89.5733 163.702 90.8441C163.361 91.6028 163.091 92.3804 162.871 93.177C161.53 93.0348 159.978 92.7977 158.717 92.2666C159.638 90.901 160.799 89.6776 162.16 88.7198ZM157.185 95.3867C157.245 95.2066 157.325 95.0169 157.395 94.8367C158.917 95.491 160.759 95.7661 162.35 95.9557C162.23 97.0558 162.21 98.1654 162.3 99.2655C162.31 99.3888 162.33 99.5121 162.35 99.6354C160.438 99.6069 158.527 99.55 156.625 99.4647C156.545 98.099 156.735 96.7334 157.185 95.3867ZM157.165 102.329C159.057 102.405 160.949 102.462 162.831 102.49C163.021 103.258 163.261 103.998 163.531 104.737C161.95 105.107 160.428 105.667 158.917 106.255C158.236 105.06 157.696 103.789 157.265 102.642C157.225 102.537 157.195 102.433 157.165 102.329ZM161.519 109.479C161.209 109.233 160.919 108.939 160.639 108.645C161.96 108.142 163.311 107.687 164.703 107.393C165.603 109.157 166.695 110.835 167.936 112.41C165.644 111.831 163.271 110.892 161.519 109.479ZM170.018 110.333C169.227 109.299 168.506 108.228 167.866 107.108C168.837 107.118 169.818 107.203 170.779 107.279C171.129 107.308 171.479 107.345 171.83 107.383C171.289 108.398 170.679 109.394 170.018 110.333ZM177.335 111.879C175.754 112.618 174.022 112.979 172.28 113.007C172.17 112.884 172.06 112.761 171.95 112.647C173.051 111.139 174.052 109.546 174.873 107.877C176.825 108.284 178.716 108.882 180.538 109.716C179.617 110.57 178.546 111.31 177.335 111.879ZM182.48 107.45C180.398 106.445 178.236 105.695 175.994 105.193C176.304 104.282 176.554 103.362 176.734 102.424C179.327 102.386 181.92 102.3 184.482 102.035C184.262 103.979 183.561 105.828 182.48 107.45Z" fill="#1E1E1E"/>
<path d="M160.579 114.657C160.028 114.373 159.498 114.05 158.987 113.69C158.947 113.661 158.907 113.633 158.867 113.605C158.747 113.51 158.627 113.415 158.507 113.311C158.266 113.111 158.036 112.903 157.816 112.694C157.606 112.485 157.395 112.277 157.205 112.059C157.105 111.954 157.015 111.841 156.915 111.727C156.925 111.746 156.935 111.755 156.945 111.774C156.935 111.755 156.915 111.736 156.905 111.717L156.895 111.708C156.805 111.603 156.825 111.622 156.865 111.67C156.835 111.641 156.815 111.603 156.785 111.575C156.415 111.091 156.074 110.579 155.784 110.048C155.414 109.384 154.393 109.138 153.732 109.536C153.021 109.972 152.801 110.778 153.191 111.48C154.503 113.842 156.585 115.833 159.057 117.113C159.748 117.474 160.729 117.294 161.109 116.601C161.49 115.938 161.319 115.037 160.579 114.657Z" fill="#F7C300"/>
<path d="M156.925 111.728C156.905 111.709 156.895 111.689 156.875 111.67C156.885 111.689 156.905 111.699 156.915 111.718C156.915 111.728 156.925 111.728 156.925 111.728Z" fill="#F7C300"/>
<path d="M190.818 91.6029C189.647 89.2604 187.915 87.136 185.823 85.4573C185.223 84.9737 184.282 84.8598 183.701 85.4573C183.191 85.9884 183.061 86.9558 183.701 87.4679C184.192 87.8568 184.652 88.274 185.093 88.7008C185.323 88.9284 185.543 89.156 185.753 89.3837C185.853 89.4975 185.953 89.6113 186.054 89.7251C186.104 89.7915 186.164 89.8484 186.214 89.9148C186.224 89.9242 186.234 89.9432 186.254 89.9622C186.214 89.9148 186.304 90.0286 186.324 90.057C186.374 90.1234 186.424 90.1898 186.474 90.2562C186.564 90.3795 186.654 90.4933 186.744 90.6166C186.934 90.8726 187.105 91.1287 187.275 91.3943C187.615 91.9254 187.925 92.4754 188.206 93.035C188.546 93.7083 189.617 93.936 190.258 93.5471C191.008 93.1014 191.179 92.3237 190.818 91.6029Z" fill="#F7C300"/>
</g>
<path d="M45.197 5.33844C42.6056 3.05002 38.911 2.17134 35.4592 2.5962C34.0421 2.77 32.5237 3.17555 31.1775 3.8418C31.2787 3.10796 31.3698 2.36446 31.4406 1.62096C31.5216 0.867811 30.6916 0.143626 29.9223 0.172594C29.0315 0.211217 28.4849 0.809876 28.4039 1.62096C28.3432 2.17134 28.2926 2.72172 28.2217 3.2721C28.1914 3.54247 28.1509 3.82248 28.1205 4.09285C28.1104 4.15078 28.1003 4.21837 28.0901 4.27631C28.0699 4.40183 28.0496 4.52736 28.0294 4.65288C27.8472 5.73433 27.584 6.77716 27.2803 7.82964C27.25 7.94551 27.2399 8.07103 27.2399 8.19656C27.0779 9.52906 28.8898 10.1663 29.8008 9.36491C29.983 9.26835 30.1652 9.1718 30.3576 9.08489C30.4082 9.06558 30.4588 9.03661 30.5094 9.0173C30.6612 8.95937 30.8029 8.91109 30.9548 8.85316C31.4913 8.67935 32.048 8.54417 32.6148 8.44761C32.6655 8.43796 32.7059 8.43795 32.7566 8.4283C32.8983 8.41864 33.04 8.39933 33.1817 8.38968C33.4651 8.37036 33.7486 8.36071 34.0421 8.37037C34.3255 8.37037 34.609 8.38968 34.9025 8.41864C34.9531 8.41864 35.0037 8.4283 35.0543 8.43795C35.0746 8.43795 35.0847 8.43796 35.105 8.44761C35.2669 8.47658 35.4289 8.50555 35.5908 8.53451C36.3702 8.68901 37.2711 8.32208 37.4635 7.52065C37.6355 6.79647 37.2307 5.90814 36.4006 5.73433C35.9654 5.64743 35.5402 5.5895 35.105 5.55087C36.2083 5.35776 37.3116 5.32879 38.1822 5.40604C41.148 5.69571 44.6706 7.47237 44.4783 10.7264C44.2961 13.7776 41.1581 16.4136 38.1113 16.8771C34.7001 17.3889 31.7038 14.4825 29.4162 12.4644C24.77 8.36071 21.0753 2.21962 13.7568 3.2721C7.4101 4.20872 2.7538 11.2285 5.97272 16.9351C7.80488 20.1794 11.4793 21.2029 15.1132 20.5753C18.5245 19.9863 21.4802 18.0068 23.444 15.3129C24.5675 13.7776 21.9357 12.3292 20.8223 13.8549C19.0407 16.2978 16.004 17.9006 12.8661 17.891C9.29287 17.8717 7.36961 14.608 8.16928 11.4892C8.93858 8.47658 11.7526 6.22678 15.0019 6.08194C18.4941 5.92745 20.9336 8.09035 23.12 10.3981C25.4786 12.8893 27.8978 15.2453 30.7118 17.2827C33.3943 19.2331 36.2994 20.4401 39.7005 19.5325C45.6727 17.9103 50.6631 10.176 45.197 5.33844Z" fill="#1E1E1E"/>
<path d="M3.77615 5.13581C3.06758 4.77855 2.09583 4.9427 1.70106 5.65722C0.577474 7.67525 -0.0197465 9.92502 0.000498222 12.2038C0.0106206 12.9569 0.68882 13.6907 1.51886 13.6521C2.33877 13.6135 3.04733 13.0148 3.03721 12.2038C3.02709 11.721 3.05746 11.2285 3.10807 10.7458C3.10807 10.7071 3.11819 10.6782 3.11819 10.6395C3.11819 10.6299 3.11819 10.6299 3.11819 10.6106C3.13844 10.5044 3.14856 10.4078 3.1688 10.3016C3.20929 10.0602 3.27003 9.81881 3.33076 9.58707C3.45223 9.11395 3.60407 8.65047 3.78627 8.19666C3.80651 8.13872 3.88749 7.99389 3.89761 7.9263C3.91786 7.87802 3.94823 7.82974 3.96847 7.78146C4.07982 7.55938 4.19116 7.34696 4.31263 7.12488C4.69728 6.44898 4.5252 5.50273 3.77615 5.13581Z" fill="#F7C300"/>
<path d="M51.2703 14.7913C50.582 14.4437 49.5697 14.5886 49.1952 15.3128C48.8915 15.9018 48.5372 16.4715 48.1324 17.0025C48.0817 17.0798 48.021 17.1474 47.9603 17.215C47.9805 17.1764 48.0008 17.157 48.021 17.1377C48.0008 17.1667 47.9805 17.1957 47.9704 17.2053C47.8692 17.3212 47.7679 17.4371 47.6667 17.5433C47.4238 17.804 47.1808 18.0454 46.9177 18.2868C46.6646 18.5089 46.4115 18.731 46.1484 18.9337C46.1585 18.9241 46.1787 18.9144 46.1889 18.9048C46.1686 18.9241 46.1382 18.9337 46.118 18.953C46.0573 19.0013 46.037 19.011 46.0573 19.0013C46.0269 19.0206 45.9965 19.0496 45.9662 19.0689C45.8244 19.1655 45.6827 19.262 45.541 19.3489C44.9539 19.7159 44.3263 20.0345 43.6785 20.3049C43.3546 20.44 43.0712 20.8649 42.9801 21.1739C42.8788 21.5215 42.9294 21.985 43.1319 22.294C43.3445 22.603 43.6481 22.8733 44.0429 22.9602C44.468 23.0568 44.8122 22.9796 45.2171 22.8154C48.0615 21.647 50.4706 19.4262 51.827 16.7805C52.1611 16.0949 52.0295 15.1776 51.2703 14.7913Z" fill="#F7C300"/>
<path d="M46.1281 18.9435C46.0876 18.9627 46.0572 18.9916 46.0471 19.0012C46.0674 18.982 46.0876 18.9724 46.1079 18.9531C46.118 18.9531 46.118 18.9531 46.1281 18.9435Z" fill="#F7C300"/>
<path d="M48.011 17.1377C48.0717 17.0605 48.1223 16.9929 48.011 17.1377V17.1377Z" fill="#F7C300"/>
<g clip-path="url(#clip2)">
<path d="M90.054 23.3786C90.0147 23.3125 89.9655 23.2654 89.9261 23.2088C89.7195 22.7938 89.4145 22.4449 89.0307 22.1714C87.4072 20.7284 84.9375 20.3323 82.763 20.2097C81.2772 20.1248 79.7718 20.2474 78.3156 20.5209C77.0069 20.7567 75.4326 21.0962 74.301 21.813C73.0514 22.6052 72.8448 24.1048 73.4942 25.312C73.4942 25.3308 73.4942 25.3403 73.4942 25.3591C73.8288 28.3111 73.8583 31.2914 73.5434 34.2434C73.4745 34.9319 73.3269 35.5826 73.5631 36.2617C73.8189 36.9785 74.4388 37.4123 75.1374 37.6953C76.446 38.2328 77.8137 38.6101 79.2208 38.8081C82.0742 39.2137 85.0359 38.9968 87.7615 38.0442C88.4109 37.8179 89.1095 37.5915 89.6309 37.1294C90.2804 36.5541 90.4378 35.809 90.5165 34.9979C90.6444 33.5266 90.7231 32.0553 90.8314 30.5841C91.0085 28.1791 91.3233 25.5666 90.054 23.3786ZM87.9976 29.5278C84.2684 30.188 80.4212 30.1597 76.7019 29.4712C76.692 28.7733 76.6822 28.0848 76.633 27.3869C76.6724 27.3963 76.7019 27.4057 76.7412 27.4152C78.4041 27.8018 80.1752 27.8679 81.8774 27.8962C83.56 27.915 85.3704 28.0188 87.0333 27.6887C87.3974 27.6132 87.7516 27.5 88.0861 27.3397C88.1058 28.0659 88.0566 28.8016 87.9976 29.5278ZM76.1509 24.067C76.3476 24.0388 76.5641 23.9161 76.7412 23.8596C77.2529 23.6898 77.7744 23.5389 78.3057 23.4163C80.3228 22.9447 82.4875 22.8693 84.5341 23.256C85.0851 23.3597 85.6558 23.4823 86.1871 23.6992C86.3938 24.0765 86.7775 24.3406 87.2301 24.4254L87.24 24.4349C87.1022 24.6235 86.9546 24.7555 86.7086 24.8498C85.8329 25.1799 84.7112 25.0479 83.7961 25.0573C81.6511 25.0856 79.3192 25.1894 77.2332 24.6141C76.9183 24.5292 76.5346 24.416 76.2886 24.1991C76.2689 24.1991 76.2099 24.1331 76.1509 24.067ZM87.5745 35.0639C87.545 35.0828 87.5056 35.1017 87.4367 35.1394C86.9743 35.3846 86.3839 35.5166 85.8723 35.6487C83.9437 36.1768 81.8873 36.3183 79.8997 36.0448C78.778 35.8939 77.6563 35.6109 76.6035 35.2054C76.633 35.2148 76.5248 35.1771 76.4067 35.1299C76.4165 35.0168 76.4362 34.8942 76.4461 34.781C76.5248 34.1397 76.5838 33.4889 76.633 32.8381C76.6429 32.6684 76.6428 32.4892 76.6527 32.3194C80.3326 32.9325 84.0717 32.9513 87.7615 32.4043C87.7024 33.1682 87.6532 33.9322 87.604 34.6961C87.5942 34.7904 87.604 34.979 87.5745 35.0639Z" fill="#1E1E1E"/>
<path d="M83.3926 16.3427C82.5169 11.9855 80.6179 7.5905 76.564 5.11006C72.6085 2.68622 67.4428 3.23323 63.5365 5.46845C59.6007 7.7131 56.9638 11.5328 55.7634 15.7203C55.1631 17.8329 54.7499 20.2379 55.173 22.4165C55.5666 24.4348 56.8654 26.2739 58.4003 27.6603C61.8343 30.7632 66.7737 31.9987 71.3491 30.933C73.1989 30.5086 72.4117 27.7735 70.5619 28.2073C67.4034 28.943 64.0285 28.2545 61.4112 26.4154C60.1222 25.51 58.912 24.2273 58.3315 22.7843C57.6525 21.1056 57.9674 19.1438 58.361 17.4273C59.1481 13.9755 60.9881 10.6368 64.0285 8.53363C66.882 6.56248 70.9358 5.52504 74.2321 7.1095C78.1678 8.99576 79.7421 13.221 80.5195 17.0973C80.9032 18.8892 83.7468 18.1253 83.3926 16.3427Z" fill="#1E1E1E"/>
<path d="M72.6479 19.6532C71.9887 19.257 71.3393 18.8421 70.6997 18.3988C70.6899 18.3894 70.6702 18.3799 70.6604 18.3705C70.6997 18.1347 70.7391 17.8895 70.7784 17.6537C71.0047 16.0787 71.0736 14.5131 70.926 12.9287C70.8571 12.193 70.2963 11.4763 69.4501 11.514C68.7121 11.5423 67.8955 12.1365 67.9742 12.9287C68.0529 13.7775 68.0824 14.6263 68.0529 15.4846C68.0332 15.909 68.0037 16.3334 67.9545 16.7578C67.9447 16.8615 67.9348 16.9558 67.9151 17.0596C67.9151 17.069 67.9151 17.069 67.9151 17.069C67.9151 17.0784 67.9053 17.0973 67.9053 17.1256C67.866 17.3519 67.8364 17.5689 67.7872 17.7952C67.6888 18.3045 67.5511 18.8232 67.7184 19.3231C67.925 19.9267 68.3874 20.2662 68.8991 20.6246C69.637 21.1433 70.3947 21.6243 71.1621 22.0958C71.8214 22.492 72.8152 22.2467 73.1793 21.5866C73.563 20.8886 73.3465 20.0776 72.6479 19.6532Z" fill="#1E1E1E"/>
<path d="M85.6754 7.39243C84.4159 4.49699 82.4382 2.06369 79.8012 0.205697C79.1813 -0.23758 78.1285 0.0830882 77.7841 0.714993C77.3807 1.45064 77.6464 2.17686 78.3155 2.64843C78.3745 2.69559 78.4434 2.74275 78.5024 2.78047C78.5122 2.7899 78.5122 2.7899 78.5319 2.79934C78.6598 2.89365 78.7779 2.9974 78.9058 3.09171C79.1617 3.30863 79.4175 3.52555 79.6635 3.75191C80.1554 4.20462 80.6081 4.69505 81.0312 5.20435C81.0705 5.26093 81.1492 5.35525 81.1591 5.37411C81.2574 5.49672 81.346 5.62876 81.4346 5.75137C81.6313 6.02488 81.8085 6.29839 81.9856 6.58133C82.1627 6.86428 82.3201 7.14722 82.4775 7.43959C82.5563 7.59049 82.635 7.75083 82.7137 7.90173C82.7432 7.96775 82.7727 8.02434 82.8023 8.09036C82.8318 8.14695 82.9794 8.47705 82.8219 8.12809C82.9794 8.48648 83.1368 8.76942 83.5009 8.97691C83.8157 9.15611 84.288 9.23156 84.6422 9.11838C85.3212 8.92032 85.9902 8.11865 85.6754 7.39243Z" fill="#F7C300"/>
<path d="M67.7282 33.9322C67.4428 33.6775 67.0886 33.5172 66.6852 33.5172C66.4687 33.5172 66.2424 33.4983 66.026 33.4795C65.6127 33.4134 65.1994 33.3097 64.8059 33.1588C64.6091 33.0739 64.4024 32.9796 64.2155 32.8759C63.8908 32.6873 63.448 32.6401 63.0741 32.7344C62.7297 32.8287 62.3657 33.0739 62.1885 33.3852C61.8146 34.0642 62.0114 34.9224 62.7199 35.3185C63.9105 35.9881 65.2978 36.3559 66.6754 36.3465C67.0591 36.3465 67.4527 36.1862 67.7184 35.9315C67.9742 35.6863 68.171 35.2808 68.1513 34.9318C68.1513 34.5735 68.0234 34.1868 67.7282 33.9322Z" fill="#F7C300"/>
</g>
<g clip-path="url(#clip3)">
<path d="M128.118 7.10097C125.966 6.77644 124.161 5.61742 122.327 4.58822C120.364 3.48483 118.411 2.3629 116.467 1.22243C115.942 0.740274 115.049 0.536287 114.315 1.08334C111.559 3.13249 108.227 4.35641 104.936 5.45053C103.309 5.98831 101.663 6.47973 100.067 7.08242C98.4112 7.71293 98.5103 8.89049 98.7582 10.3277C99.8192 16.3268 102.556 22.0848 106.512 26.9063C108.376 29.1872 110.508 31.2086 112.848 33.0352C112.838 33.2484 112.838 33.4524 112.828 33.6657C112.769 35.1121 114.702 35.381 115.476 34.4909C115.981 34.3796 116.378 33.9438 116.527 33.4339C118.093 32.1358 119.452 30.68 120.78 29.1409C122.456 27.203 124.142 25.2373 125.421 23.0398C128.009 18.5521 128.643 13.4431 129.208 8.4547C129.268 7.8891 128.703 7.18442 128.118 7.10097ZM103.012 14.8525C102.427 13.1928 101.971 11.4867 101.663 9.76208C101.644 9.66935 101.634 9.5859 101.614 9.49318C101.624 9.49318 101.624 9.49318 101.624 9.48391C101.981 9.47464 102.467 9.19648 102.794 9.08521C103.765 8.76068 104.747 8.44543 105.729 8.1209C108.307 7.25859 110.815 6.32211 113.165 5.07037C112.689 9.48391 113.066 13.9716 113.086 18.4037C113.106 22.0755 113.046 25.7473 112.947 29.419C108.416 25.4413 104.945 20.3787 103.012 14.8525ZM122.853 21.6212C121.732 23.559 120.285 25.2929 118.817 26.999C117.885 28.0838 116.943 29.1872 115.902 30.1979C116.011 26.4241 116.08 22.6411 116.061 18.8673C116.041 14.0736 115.495 9.11302 116.219 4.34714C117.885 5.32072 119.551 6.28502 121.236 7.23078C122.793 8.10236 124.37 9.0203 126.105 9.51173C125.629 13.6564 124.994 17.9123 122.853 21.6212Z" fill="#1E1E1E"/>
<path d="M132.897 16.1598C132.074 15.9465 131.33 16.4194 131.063 17.1334C129.744 20.6753 127.999 24.0596 125.867 27.24C125.441 27.8797 125.718 28.7699 126.402 29.1407C127.116 29.5302 128.009 29.2798 128.435 28.64C130.696 25.2557 132.53 21.6396 133.928 17.8659C134.206 17.1612 133.641 16.3452 132.897 16.1598Z" fill="#F7C300"/>
<path d="M100.741 3.43854C100.493 2.72459 99.7101 2.25172 98.9069 2.46498C98.2724 2.63187 97.6378 2.80804 97.0032 2.97494C96.2695 3.16965 95.4961 3.36437 94.9408 3.89287C94.336 4.47701 94.1476 5.22805 94.0484 6.0069C93.979 6.60959 93.9889 7.22154 94.0484 7.8335C94.0881 8.21365 94.1872 8.53817 94.4847 8.81634C94.7425 9.05741 95.1688 9.24285 95.5357 9.22431C95.9224 9.20576 96.3191 9.0945 96.5868 8.81634C96.8347 8.55672 97.0627 8.19511 97.023 7.8335C96.9635 7.25863 96.9635 6.68376 97.023 6.1089C97.0428 6.02545 97.0627 5.942 97.0924 5.84928C97.4593 5.72874 97.8361 5.63602 98.2029 5.5433C98.6987 5.40422 99.2044 5.27441 99.7002 5.13533C100.454 4.94989 100.989 4.16176 100.741 3.43854Z" fill="#F7C300"/>
</g>
<g clip-path="url(#clip4)">
<path d="M172.462 29.0369C172.149 25.2219 171.982 21.3972 172.002 17.5725C172.012 15.6601 172.09 13.7478 172.1 11.8354C172.109 10.1259 172.364 7.91415 171.385 6.40744C170.534 5.10357 168.977 4.75587 167.519 4.62065C166.834 4.55304 166.149 4.52407 165.463 4.51441C165.551 3.74174 165.64 2.97873 165.737 2.20606C165.835 1.45271 164.994 0.728336 164.269 0.757311C163.388 0.795944 162.909 1.39476 162.801 2.20606C162.703 2.97873 162.615 3.76106 162.517 4.53372C161.95 4.55304 161.382 4.57236 160.824 4.59167C158.729 4.64962 156.635 4.71723 154.54 4.77518C154.462 3.87696 154.344 2.98839 154.158 2.09982C154.002 1.35613 153.072 0.853894 152.348 1.08569C151.555 1.33681 151.153 2.07085 151.32 2.87249C151.388 3.1719 151.447 3.48096 151.496 3.79003C151.506 3.82866 151.545 4.07978 151.545 4.11842C151.564 4.23432 151.574 4.35022 151.584 4.46612C151.604 4.60133 151.604 4.72689 151.613 4.86211C150.331 4.90074 149.059 4.93938 147.777 4.97801C147.767 4.97801 147.767 4.97801 147.767 4.97801C147.757 4.97801 147.747 4.97801 147.728 4.97801C147.581 4.97801 147.444 4.98767 147.297 4.98767C147.111 4.99732 146.954 5.03596 146.798 5.08425C143.597 5.80863 143.529 10.2128 143.166 12.9075C142.657 16.7032 142.031 20.499 141.845 24.3237C141.767 26.0815 141.786 27.849 142.011 29.5971C142.207 31.1231 142.599 33.0645 143.979 33.9917C145.32 34.8996 147.61 34.5325 149.166 34.5808C151.271 34.6388 153.385 34.7064 155.489 34.7547C159.336 34.8513 163.242 35.0927 167.088 34.9672C168.615 34.9189 170.201 34.6098 171.326 33.5088C172.618 32.2725 172.589 30.6692 172.462 29.0369ZM147.757 7.86585C149.088 7.82722 150.419 7.78859 151.75 7.74995C151.75 8.46467 151.75 9.18905 151.741 9.90377C151.731 10.6571 152.426 11.3912 153.209 11.3525C154.011 11.3139 154.667 10.7151 154.677 9.90377C154.687 9.16007 154.687 8.40672 154.677 7.66303C155.441 7.64371 156.194 7.61474 156.958 7.59542C158.7 7.54713 160.452 7.4602 162.194 7.41191C162.096 8.36809 161.998 9.31461 161.92 10.2708C161.852 11.0241 162.644 11.7485 163.388 11.7195C164.24 11.6809 164.788 11.0821 164.857 10.2708C164.935 9.31461 165.033 8.35843 165.131 7.40225C165.61 7.41191 166.08 7.41191 166.56 7.44089C167.705 7.49884 168.948 7.41191 169.095 8.77374C169.222 10.01 169.193 11.2849 169.153 12.5502C161.558 14.1148 153.767 13.6705 146.073 13.1586C146.103 12.9172 146.142 12.6661 146.171 12.4246C146.318 11.4298 146.269 7.88517 147.757 7.86585ZM169.153 31.5481C168.194 32.3787 166.403 32.0793 165.238 32.06C163.613 32.0407 161.989 32.0117 160.374 31.9731C157.124 31.9055 153.884 31.8186 150.644 31.722C149.832 31.7027 149.02 31.6737 148.207 31.6544C147.61 31.635 146.259 31.8475 145.77 31.5771C144.821 31.0459 144.85 28.7762 144.801 27.791C144.605 24.3816 145.036 20.9722 145.486 17.6015C145.555 17.0799 145.623 16.5584 145.692 16.0368C153.503 16.5584 161.372 16.9544 169.104 15.5056C169.065 18.1134 169.056 20.7115 169.163 23.3192C169.222 24.7486 169.3 26.1877 169.408 27.6172C169.486 28.6892 170.093 30.7368 169.153 31.5481Z" fill="#1E1E1E"/>
<path d="M176.798 18.2002C176.896 17.4468 176.054 16.7225 175.33 16.7515C174.458 16.7901 173.959 17.3889 173.861 18.2002C173.578 20.4892 173.812 22.7879 174.057 25.0673C174.135 25.8206 174.674 26.5546 175.525 26.516C176.25 26.487 177.082 25.8785 176.994 25.0673C176.749 22.7879 176.514 20.4892 176.798 18.2002Z" fill="#F7C300"/>
<path d="M140.054 18.2583C139.378 17.9009 138.429 18.0651 138.047 18.7798C137.088 20.5666 137 22.5852 137 24.5651C137 25.3184 137.675 26.0524 138.468 26.0138C139.261 25.9752 139.936 25.3764 139.936 24.5651C139.936 23.7248 139.956 22.8846 140.044 22.054C140.093 21.7256 140.152 21.3875 140.25 21.0688C140.299 20.895 140.367 20.7211 140.426 20.5473C140.475 20.4507 140.524 20.3445 140.573 20.2479C140.945 19.5718 140.778 18.635 140.054 18.2583Z" fill="#F7C300"/>
</g>
<g clip-path="url(#clip5)">
<path d="M22.8052 53.0901C20.8802 48.8795 16.2759 46.2456 11.4732 46.4438C10.471 46.4816 9.99469 47.2841 10.0443 48.0299C9.81608 47.69 9.41916 47.4634 8.85355 47.5012C4.62638 47.7561 2.13572 51.8345 1.85788 55.4975C1.58004 59.17 3.52493 63.5977 7.50403 64.7023C9.52831 65.2593 11.9197 65.3537 14.0135 65.2687C16.1668 65.1837 18.3597 64.7306 20.1756 63.5788C21.7732 62.5592 23.093 61.0864 23.5792 59.2738C24.125 57.2157 23.6883 55.0066 22.8052 53.0901ZM19.3619 60.605C16.9507 62.7763 13.2494 62.5592 10.1931 62.276C8.67494 62.1344 7.3155 61.8511 6.34305 60.6427C5.52937 59.6231 5.0233 58.3581 4.86453 57.093C4.69584 55.7335 4.88438 54.2608 5.53929 53.024C6.17436 51.8062 7.32542 50.4184 8.86347 50.324C9.86569 50.2673 10.3321 49.4554 10.2825 48.719C10.5107 49.0589 10.9076 49.2949 11.4732 49.276C14.5493 49.1533 17.5957 50.4373 19.3223 52.9107C20.9198 55.2048 21.6839 58.528 19.3619 60.605Z" fill="#1E1E1E"/>
<path d="M17.6651 57.263C16.7721 56.7626 15.8492 56.3284 14.9066 55.9224C14.8966 55.8091 14.8768 55.6958 14.8569 55.5826C14.8173 55.3843 14.7279 55.1766 14.6188 55.0067C14.5196 54.8462 14.3906 54.6857 14.2417 54.5724C14.0532 54.4213 13.9143 54.3269 13.7456 54.2514C13.7059 53.3545 13.6563 52.4577 13.6166 51.5702C13.5769 50.8339 12.9617 50.1164 12.1281 50.1541C11.3541 50.1919 10.6 50.7772 10.6397 51.5702C10.6992 52.7503 10.7588 53.9304 10.8084 55.1105C10.7389 55.2238 10.6893 55.3465 10.6496 55.4693C10.5603 55.5826 10.5305 55.6675 10.4412 55.8846C10.3817 56.0263 10.3718 56.2245 10.3619 56.3567C10.342 56.5549 10.3817 56.7626 10.4412 56.9515C10.5603 57.2913 10.6893 57.4801 10.9374 57.7539C10.9572 57.7822 10.987 57.8011 11.0168 57.8294C11.0465 57.8483 11.0763 57.8766 11.1061 57.8955C11.116 57.905 11.116 57.9144 11.1259 57.9238C11.3839 58.1504 11.6221 58.2731 11.9594 58.377C12.1083 58.4242 12.3464 58.4431 12.4655 58.4525C12.5251 58.462 12.5747 58.462 12.6342 58.4525C12.8724 58.4336 13.1105 58.3959 13.3288 58.3298C14.3013 58.7452 15.2539 59.1984 16.1668 59.7176C16.8415 60.0952 17.8338 59.8781 18.201 59.2078C18.5781 58.5186 18.3796 57.6689 17.6651 57.263Z" fill="#1E1E1E"/>
<path d="M32.5394 47.8412C27.0123 56.9892 21.4456 66.1183 16.0376 75.323C15.1048 76.9185 17.6749 78.344 18.6076 76.7485C24.0156 67.5439 29.5824 58.4147 35.1095 49.2667C36.0621 47.6902 33.492 46.2646 32.5394 47.8412Z" fill="#F7C300"/>
<path d="M58.5179 62.9368C56.7318 60.8787 53.6656 58.849 50.7086 59.6231C49.5377 59.9346 48.6545 60.5577 47.9599 61.3507C47.7912 60.9259 47.5928 60.52 47.3149 60.1423C46.8684 59.5381 45.9952 59.1983 45.2807 59.6325C44.6457 60.0196 44.2686 60.9165 44.7449 61.5679C44.8838 61.7661 45.0128 61.9644 45.122 62.1815C45.1319 62.2004 45.1418 62.2193 45.1418 62.2287C45.1418 62.2382 45.1418 62.2382 45.1517 62.2476C45.1914 62.3609 45.2311 62.4742 45.2708 62.578C45.3403 62.8046 45.3998 63.0406 45.4494 63.2672C45.4693 63.3899 45.499 63.5032 45.5189 63.626C45.5288 63.6826 45.5387 63.7392 45.5487 63.7959C45.6479 64.5511 45.7173 65.3158 45.8463 66.0711C45.8463 66.09 45.8364 66.0994 45.8364 66.1183C45.6776 66.7791 45.9753 67.2984 46.4417 67.6005C46.7692 67.9026 47.2355 68.0631 47.6821 67.997C48.0393 68.0819 48.4263 68.0536 48.7935 67.8648C49.4087 67.5533 50.0338 67.27 50.6788 67.0057C51.1353 66.8263 51.5917 66.6564 52.0581 66.5053C52.4252 66.3826 52.7428 66.1844 52.9512 65.854C53.1397 65.5519 53.2191 65.0987 53.1 64.7588C52.9809 64.419 52.7626 64.0885 52.4153 63.9092C52.0779 63.7392 51.6513 63.6448 51.2643 63.7676C50.6689 63.9658 50.0735 64.1924 49.4881 64.4284C50.2025 62.8707 51.3734 61.7284 53.5168 62.6536C55.799 63.6354 57.7439 66.1088 58.3592 68.384C59.0637 70.9708 57.5356 73.2932 54.6281 73.3404C51.81 73.3876 49.3988 71.49 47.3348 69.8851C45.1021 68.148 42.8298 66.5998 40.1605 65.5235C37.908 64.6078 34.6731 63.3238 32.2221 64.1452C29.9895 64.891 28.4613 67.3078 27.866 69.3753C27.2111 71.6316 27.5087 74.1806 29.0865 76.031C30.8726 78.1268 33.9587 78.1552 36.5386 77.702C39.1583 77.2394 41.5795 75.8327 42.8794 73.5859C43.8022 71.9904 41.2322 70.5554 40.3093 72.1603C39.1682 74.1334 36.8562 75.0114 34.5739 75.0869C33.4824 75.1247 32.1725 75.1436 31.4085 74.2845C30.6047 73.3876 30.3864 72.0942 30.5452 70.9614C30.6841 69.904 31.1604 68.8561 31.8252 68.0064C32.7679 66.798 33.651 66.6186 35.1494 66.9396C37.9477 67.5344 40.5872 68.6484 42.9389 70.1967C47.2554 73.0383 51.8497 77.9852 57.6646 75.5495C60.056 74.5488 61.4452 72.3491 61.5246 69.8946C61.6238 67.3267 60.2148 64.891 58.5179 62.9368Z" fill="#1E1E1E"/>
<path d="M28.9872 77.9664C28.7789 77.6549 28.4812 77.4094 28.0942 77.315C28.0247 77.2961 27.9553 77.2678 27.8858 77.2489C27.7171 77.1734 27.5583 77.079 27.4095 76.9846C27.2904 76.8808 27.1813 76.7769 27.0721 76.6636C26.963 76.5031 26.8439 76.3426 26.7645 76.1727C26.6752 76.0122 26.5462 75.8706 26.3775 75.7762C26.2386 75.6535 26.0699 75.5685 25.8714 75.5213C25.673 75.4647 25.4745 75.4552 25.2761 75.493C25.0776 75.5024 24.8891 75.5591 24.7204 75.6629C24.4028 75.8612 24.125 76.1444 24.0357 76.5126C24.0159 76.6353 23.996 76.7675 23.9861 76.8902C23.9861 77.1451 24.0555 77.3811 24.1845 77.6077C24.2838 77.8343 24.4227 78.0419 24.5715 78.2402C24.7998 78.5234 25.028 78.8066 25.3158 79.0426C25.8913 79.5052 26.5363 79.8734 27.2805 80.0528C27.6576 80.1472 28.0843 80.1 28.4316 79.9112C28.7392 79.7412 29.0369 79.4014 29.1162 79.0615C29.2254 78.6933 29.2056 78.2874 28.9872 77.9664Z" fill="#F7C300"/>
<path d="M64.9481 63.56C64.6504 62.8897 64.3527 62.2099 64.055 61.5396C64.0054 61.3508 63.9161 61.1903 63.7871 61.0582C63.6779 60.9071 63.539 60.7844 63.3703 60.69C63.2016 60.5861 63.0131 60.5295 62.8146 60.52C62.6162 60.4823 62.4177 60.4823 62.2193 60.5483C61.862 60.6616 61.5147 60.8693 61.3262 61.1998L61.1773 61.5396C61.1079 61.7945 61.1079 62.04 61.1773 62.2949C61.475 62.9652 61.7727 63.6449 62.0704 64.3152C62.12 64.504 62.2093 64.6645 62.3383 64.7967C62.4475 64.9478 62.5864 65.0705 62.7551 65.1649C62.9238 65.2687 63.1123 65.3254 63.3108 65.3348C63.5092 65.3726 63.7077 65.3726 63.9061 65.3065C64.2634 65.1932 64.6107 64.9855 64.7992 64.6551L64.9481 64.3152C65.0175 64.0603 65.0175 63.8054 64.9481 63.56Z" fill="#F7C300"/>
<path d="M6.56132 45.3677C6.52163 44.5936 5.90641 43.961 5.07288 43.9516C3.79282 43.9327 2.80053 44.839 1.99677 45.6792C1.30216 46.4062 0.68694 47.2181 0.200716 48.0772C0.0121797 48.4076 -0.0572809 48.8041 0.0518714 49.1723C0.151101 49.5027 0.409097 49.852 0.736554 50.0219C1.43116 50.3712 2.38376 50.2107 2.77076 49.5121C3.02875 49.0495 3.33636 48.6058 3.66382 48.181C4.05082 47.7184 4.4775 47.2747 4.9538 46.8876C5.01334 46.8499 5.0828 46.8121 5.15226 46.7743C5.90641 46.7366 6.59109 46.0946 6.56132 45.3677Z" fill="#F7C300"/>
</g>
<g clip-path="url(#clip6)">
<path d="M91.3806 62.6509C91.3705 62.5748 91.2996 62.5178 91.2996 62.5463C91.3299 62.5748 91.3502 62.6128 91.3704 62.6414L91.3806 62.6509Z" fill="#1E1E1E"/>
<path d="M97.9838 59.4091C95.5431 57.6123 92.363 57.3366 89.3653 57.232C86.1853 57.1274 82.5596 57.0704 79.7543 58.7056C76.787 60.4263 76.4122 64.2291 76.078 67.1952C75.9869 67.9653 76.8376 68.6117 77.5971 68.6212C78.4884 68.6307 79.0251 67.9558 79.1163 67.1952C79.2581 65.9593 79.491 64.7234 79.8252 63.5161C80.129 62.4323 80.4835 61.5671 81.5773 61.0157C83.1065 60.2457 84.8991 60.0651 86.6613 60.046C86.6613 60.1506 86.6511 60.2457 86.6714 60.3598C86.6714 60.3598 86.6714 60.3503 86.6613 60.3503C86.6613 60.3503 86.6613 60.3693 86.6714 60.3788C86.6714 60.3883 86.6714 60.3883 86.6714 60.3978C86.6714 60.4168 86.6815 60.4168 86.6815 60.4358C86.6815 60.4739 86.6815 60.5119 86.6815 60.5214C86.6916 60.6545 86.7018 60.7781 86.7018 60.9112C86.7119 61.2154 86.6916 61.5101 86.6714 61.8048C86.6714 61.8238 86.6714 61.8333 86.6714 61.8524C86.6613 61.8809 86.6613 61.9094 86.6511 61.9284C86.6309 62.0615 86.6005 62.1851 86.5701 62.3087C86.4992 62.6034 86.398 62.8886 86.3068 63.1738C86.0739 63.9629 86.0637 64.7615 86.4587 65.503C86.7423 66.0354 87.279 66.5012 87.8462 66.7674C88.5652 67.1001 89.2843 67.2047 90.0641 67.2998C91.0566 67.4234 91.9377 66.8815 92.3225 66.0354C92.6669 65.2748 92.5352 64.4762 92.1807 63.7537C92.0491 63.478 91.8567 63.2498 91.6643 63.0122C91.5731 62.8981 91.4718 62.784 91.3706 62.6699V62.6794C91.3706 62.6699 91.3604 62.6604 91.3604 62.6604C91.3503 62.6509 91.3503 62.6414 91.3402 62.6319C91.3098 62.5939 91.2997 62.5749 91.2895 62.5654C91.2693 62.5464 91.2592 62.5273 91.249 62.5178C91.1579 62.3942 91.0769 62.2707 91.006 62.1471C90.9857 62.0995 90.9553 62.0615 90.9351 62.014C90.9351 62.014 90.9249 61.995 90.9148 61.9854C90.9047 61.9664 90.8844 61.9284 90.8844 61.9094C90.854 61.8333 90.8338 61.7573 90.8034 61.6812C90.7629 61.5386 90.7224 61.396 90.692 61.2534C90.692 61.2439 90.692 61.2249 90.6819 61.2059C90.6819 61.1774 90.6819 61.1583 90.6718 61.1488C90.6616 61.0157 90.6616 60.8922 90.6616 60.7591C90.6616 60.6925 90.6616 60.626 90.6718 60.5594C90.6718 60.5404 90.6819 60.4929 90.6819 60.4453C90.7021 60.3503 90.7224 60.2647 90.7427 60.1696C92.3732 60.2647 94.024 60.4929 95.4317 61.2534C97.2445 62.2421 98.2978 64.2386 97.9433 66.197C97.6192 67.9938 100.546 68.7638 100.87 66.9575C101.407 64.1055 100.424 61.2059 97.9838 59.4091Z" fill="#1E1E1E"/>
<path d="M108.972 67.0621C108.689 65.3033 108.365 63.554 107.473 61.9664C106.633 60.4453 105.306 59.2759 103.605 58.639C102.865 58.3633 101.903 58.9432 101.731 59.6372C101.529 60.4643 102.005 61.0917 102.795 61.396C102.764 61.3865 102.734 61.377 102.714 61.3674C102.724 61.377 102.734 61.377 102.754 61.3865C102.845 61.4245 102.926 61.472 103.017 61.5101C103.149 61.5861 103.291 61.6622 103.412 61.7382C103.483 61.7858 103.676 61.9569 103.433 61.7477C103.493 61.7953 103.554 61.8428 103.615 61.8903C103.736 61.9854 103.848 62.09 103.949 62.1946C104.06 62.3086 104.172 62.4322 104.283 62.5463C104.324 62.6129 104.374 62.6699 104.415 62.7269C104.617 63.0026 104.79 63.2974 104.952 63.6016C104.982 63.6681 105.012 63.7347 105.053 63.8012C105.053 63.8107 105.053 63.8012 105.053 63.8107C105.053 63.8202 105.053 63.8107 105.053 63.8202C105.124 64.0104 105.205 64.2005 105.266 64.3907C105.387 64.7519 105.499 65.1227 105.59 65.4935C105.772 66.2635 105.904 67.0431 106.025 67.8132C106.147 68.5547 107.18 69.0301 107.889 68.8114C108.77 68.5547 109.104 67.8512 108.972 67.0621Z" fill="#1E1E1E"/>
<path d="M102.723 61.3577C102.673 61.3294 102.683 61.3388 102.723 61.3577V61.3577Z" fill="#1E1E1E"/>
<path d="M75.8959 59.1715C75.663 58.3729 74.8426 58.0402 74.0223 58.1733C71.7132 58.5536 69.6067 60.1317 68.6649 62.1471C67.5103 64.6189 68.118 67.49 68.5636 70.0568C68.6953 70.8173 69.6979 71.2451 70.4372 71.055C71.298 70.8363 71.6322 70.0663 71.5006 69.2962C71.3183 68.2505 71.1765 67.1952 71.0955 66.14C71.055 65.5981 71.0145 65.0372 71.0752 64.4953C71.0854 64.3622 71.1259 64.1721 71.1765 64.001C71.2069 63.9059 71.2271 63.8108 71.2575 63.7253C71.2676 63.7062 71.3284 63.5446 71.3487 63.4876C71.3689 63.4401 71.4196 63.345 71.4196 63.3355C71.4601 63.2499 71.5107 63.1644 71.5614 63.0788C71.6626 62.8982 71.7841 62.7271 71.9057 62.5654C71.9361 62.5369 71.9968 62.4514 72.0272 62.4228C72.0981 62.3468 72.1589 62.2802 72.2298 62.2137C72.3918 62.0616 72.5538 61.9095 72.7361 61.7669C72.7564 61.7478 72.7766 61.7383 72.7969 61.7288C72.8982 61.6623 73.0096 61.5957 73.121 61.5292C73.2931 61.4246 73.4754 61.3391 73.6577 61.2535C73.7489 61.2155 73.7489 61.2155 73.6476 61.2535C73.6983 61.2345 73.7388 61.2155 73.7894 61.206C73.8805 61.1774 73.9818 61.1394 74.0831 61.1109C74.3261 61.0348 74.5793 60.9873 74.8325 60.9493C75.6529 60.7972 76.0985 59.8655 75.8959 59.1715Z" fill="#F7C300"/>
<path d="M90.1553 44.4458C89.7603 44.3317 89.3249 44.4077 88.9704 44.6074C88.7273 44.4363 88.4438 44.3222 88.0994 44.3032C85.5675 44.2081 83.7041 46.4992 83.0357 48.5622C82.3065 50.7963 83.1471 53.3442 85.4258 54.4565C87.5222 55.4832 90.3173 55.6733 92.434 54.5991C94.338 53.6294 95.6343 51.6995 95.7153 49.6745C95.8369 46.87 92.6365 45.1778 90.1553 44.4458ZM92.5353 50.34C92.515 50.4066 92.4948 50.4636 92.4644 50.5206C92.4542 50.5491 92.4543 50.5492 92.4543 50.5492C92.4441 50.5587 92.4441 50.5682 92.4239 50.5967C92.3429 50.7298 92.272 50.8629 92.1909 50.996C92.1606 51.0435 92.0289 51.2146 92.0188 51.2336C91.9175 51.3477 91.8061 51.4618 91.6947 51.5664C91.6542 51.6044 91.4415 51.7755 91.4212 51.8041C91.1984 51.9562 90.9655 52.0893 90.7224 52.2033C90.7528 52.1843 90.4288 52.3079 90.368 52.3174C90.287 52.3364 89.892 52.422 89.9629 52.4125C89.1122 52.5361 88.3931 52.4125 87.6133 52.2033C87.4412 52.1558 87.269 52.1083 87.0968 52.0417C87.0968 52.0417 87.0968 52.0417 87.0867 52.0417C87.0765 52.0322 87.0563 52.0227 87.0259 52.0132C86.955 51.9752 86.8841 51.9467 86.8234 51.9086C86.7322 51.8611 86.6512 51.8136 86.5601 51.7565C86.5499 51.747 86.5094 51.7185 86.479 51.6995C86.3879 51.6139 86.1145 51.3382 86.2259 51.4808C86.1246 51.3477 86.0334 51.1956 85.9625 51.053C85.9625 51.0435 85.9524 51.0245 85.9423 50.996C85.922 50.9294 85.8916 50.8629 85.8714 50.7868C85.8511 50.7013 85.8208 50.6062 85.8106 50.5111C85.8106 50.4921 85.8106 50.4826 85.8106 50.4541C85.8005 50.264 85.8005 50.0738 85.8207 49.8742C85.8106 49.9407 85.7701 50.0833 85.841 49.7791C85.8613 49.6745 85.8916 49.5699 85.922 49.4654C85.9524 49.3608 85.9929 49.2657 86.0233 49.1612C86.0739 48.99 86.0436 49.0756 86.0942 48.9805C86.1853 48.7809 86.2967 48.5908 86.4183 48.4101C86.479 48.3151 86.5398 48.2295 86.6006 48.1344C86.6107 48.1154 86.6917 48.0108 86.712 47.9728C86.8234 47.8397 86.955 47.7066 87.0867 47.583C87.1474 47.526 87.2183 47.4689 87.2892 47.4119C87.3095 47.3929 87.3399 47.3739 87.3601 47.3644C87.4412 47.3168 87.5323 47.2693 87.6133 47.2218C87.6538 47.2028 87.664 47.1932 87.6741 47.1837C87.6741 47.1837 87.6842 47.1932 87.7146 47.1837C87.7551 47.1742 87.7956 47.1647 87.8361 47.1552C87.7956 47.1742 88.0589 47.1457 88.0994 47.1457C88.3729 47.1552 88.626 47.0792 88.859 46.9461C89.0008 47.0411 89.1628 47.1267 89.3451 47.1837C90.1148 47.4119 90.6921 47.6686 91.4314 48.1249C91.7757 48.3436 91.8871 48.4196 92.1808 48.6668C92.3125 48.7714 92.4441 48.895 92.5555 49.0186C92.5555 49.0281 92.5657 49.0471 92.5859 49.0756C92.6264 49.1612 92.6366 49.1612 92.6062 49.0756C92.6264 49.1231 92.6365 49.1802 92.6568 49.2277C92.6568 49.2372 92.6771 49.3418 92.6771 49.3703C92.6771 49.4369 92.6771 49.5034 92.6771 49.5699C92.6771 49.5985 92.6669 49.7221 92.6669 49.7791C92.6669 49.7981 92.6669 49.8171 92.6568 49.8171C92.6365 50.0073 92.596 50.1784 92.5353 50.34Z" fill="#1E1E1E"/>
<path d="M100.04 43.9226C99.3411 43.5233 98.3688 43.7799 97.9637 44.4359C97.5384 45.1109 97.8017 45.9855 98.5106 46.3848C98.6119 46.4419 98.7132 46.4989 98.8144 46.5655C98.8448 46.5845 98.8549 46.594 98.8651 46.594C98.8752 46.6035 98.8853 46.613 98.9056 46.6225C99.0676 46.7556 99.2196 46.8887 99.3613 47.0408C99.4221 47.1074 99.4829 47.1739 99.5436 47.2404C99.5639 47.269 99.6145 47.3355 99.6449 47.3831C99.7664 47.5542 99.8677 47.7253 99.969 47.9059C99.969 47.9059 100.04 48.0485 100.07 48.1056C100.09 48.1721 100.141 48.2862 100.141 48.3052C100.212 48.5144 100.263 48.733 100.313 48.9517C100.313 48.9707 100.323 48.9802 100.323 48.9992C100.334 49.1038 100.344 49.1989 100.344 49.3034C100.354 49.5221 100.344 49.7408 100.323 49.9499C100.323 49.9594 100.313 49.9689 100.313 49.9879C100.283 50.0925 100.263 50.2066 100.232 50.3112C100.202 50.4253 100.161 50.5393 100.121 50.6534C100.111 50.6819 100.06 50.7865 100.05 50.8245C99.9589 51.0052 99.8576 51.1763 99.7462 51.3474C99.6753 51.452 99.6044 51.547 99.5335 51.6516C99.4018 51.8418 99.5335 51.6611 99.4423 51.7657C99.1284 52.127 98.7841 52.4502 98.4093 52.7544C98.3081 52.8305 98.2068 52.916 98.1055 52.9921C98.0852 53.0111 98.065 53.0206 98.0549 53.0301C98.0346 53.0491 98.0144 53.0586 97.9738 53.0872C97.7612 53.2298 97.5485 53.3629 97.3257 53.496C96.637 53.9143 96.3534 54.7604 96.7788 55.4449C97.1839 56.0913 98.1663 56.3765 98.855 55.9582C101.154 54.5702 103.058 52.6023 103.352 49.9689C103.625 47.5922 102.207 45.1489 100.04 43.9226Z" fill="#F7C300"/>
<path d="M81.5772 53.3057C80.848 52.7733 80.1796 52.2124 79.572 51.5659C79.4201 51.4043 79.1973 51.1001 79.015 50.8149C78.7618 50.4156 78.6807 50.2444 78.5491 49.8261C78.3263 49.1036 78.3263 48.5808 78.5795 47.8677C78.701 47.516 78.8631 47.2022 79.096 46.841C79.1466 46.7554 79.2074 46.6603 79.2681 46.5748C79.3796 46.4322 79.3897 46.4037 79.3188 46.4892C79.3897 46.4132 79.4606 46.3371 79.5315 46.2611C79.6732 46.147 79.6935 46.128 79.5922 46.185C80.2505 45.7192 80.5847 44.9491 80.1391 44.2361C79.7644 43.6276 78.7213 43.2569 78.063 43.7227C76.0274 45.1583 75.0248 47.7917 75.5008 50.1209C75.9464 52.2884 77.6377 54.0092 79.4403 55.3211C80.0885 55.7965 80.9594 55.9106 81.5873 55.3211C82.0937 54.8268 82.2254 53.781 81.5772 53.3057Z" fill="#1E1E1E"/>
</g>
<g clip-path="url(#clip7)">
<path d="M153.734 63.6131C152.316 61.6887 150.05 61.0156 147.724 60.7501C147.375 57.3278 146.187 54.0193 143.781 51.3933C141.554 48.9664 138.28 47.3737 134.886 47.241C127.847 46.9661 122.876 53.0618 122.926 59.3092C119.781 59.6884 116.956 61.6507 115.997 64.6369C114.849 68.2109 117.195 72.221 121.129 72.8941C122.217 73.0837 123.295 73.0837 124.393 72.9605C124.962 72.8941 125.531 72.8088 126.1 72.714C126.48 72.6476 126.839 72.6002 127.159 72.3632C127.368 72.2021 127.498 72.003 127.608 71.7944C127.698 71.6617 127.758 71.51 127.807 71.3583C127.817 71.3394 127.817 71.3299 127.827 71.3109C127.837 71.292 127.837 71.273 127.837 71.2635C127.847 71.2351 127.857 71.2161 127.857 71.1877C127.907 71.0076 127.897 70.818 127.847 70.6378C127.428 67.8507 127.268 64.8266 127.348 61.9351C127.368 61.3853 126.969 60.8544 126.45 60.6269C126.42 60.2192 126.22 59.8969 125.921 59.6694C125.831 57.3183 126.44 54.9483 128.047 53.0997C129.724 51.1752 132.23 49.9902 134.876 50.0945C140.666 50.3126 144.14 55.6593 144.709 60.6364C144.26 60.788 143.901 61.1388 143.761 61.5939C143.022 63.9923 142.912 66.5614 142.633 69.0262C142.483 70.3155 141.884 72.4485 143.831 72.7329C144.4 72.8183 144.919 72.7898 145.478 72.8657C145.757 72.9036 146.037 72.932 146.326 72.9605C145.787 73.5103 145.338 73.8326 144.579 74.2213C143.381 74.8375 142.054 75.1124 140.696 75.2357C140.566 74.2877 140.107 73.3776 139.338 72.7045C139.069 72.4675 138.709 72.3348 138.35 72.3063C138.29 71.7375 137.891 71.273 137.272 71.0644C135.525 70.4767 133.478 70.9128 132.14 72.1167C130.842 73.2828 130.273 75.1978 130.802 76.8189C131.302 78.3451 132.679 79.6629 134.356 79.9852C136.373 80.3739 138.679 79.7766 139.927 78.1745C139.937 78.165 139.947 78.1461 139.957 78.1271C142.133 78.0323 144.32 77.6341 146.227 76.6103C147.894 75.7192 149.281 74.354 150.06 72.7045C151.797 72.3158 153.484 71.5385 154.343 70.1259C155.501 68.2015 155.022 65.3574 153.734 63.6131ZM120.969 69.9268C119.641 69.4244 118.733 68.0972 118.683 66.9217C118.623 65.4996 119.192 64.2009 120.43 63.2244C121.488 62.3807 122.906 62.0489 124.343 62.0963C124.273 64.7602 124.433 67.4146 124.773 70.0596C123.475 70.2586 122.097 70.3534 120.969 69.9268ZM137.741 75.8045C137.541 76.032 137.411 76.3164 137.381 76.6198C137.312 76.6861 137.232 76.7525 137.202 76.7809C137.162 76.8094 137.122 76.8378 137.072 76.8568C137.002 76.8947 136.942 76.9326 136.872 76.9611C136.842 76.98 136.802 76.9895 136.772 77.0085C136.723 77.0274 136.713 77.0369 136.723 77.0274C136.623 77.0559 136.493 77.0843 136.473 77.0843C136.333 77.1222 136.203 77.1507 136.064 77.1791C136.004 77.1886 135.944 77.1981 135.894 77.2075C135.864 77.2075 135.824 77.217 135.804 77.217C135.604 77.217 135.395 77.2075 135.205 77.217C135.195 77.217 135.195 77.217 135.195 77.217C135.135 77.2075 135.075 77.1981 135.015 77.1791C134.926 77.1601 134.796 77.1033 134.686 77.0748C134.646 77.0559 134.616 77.0369 134.576 77.0179C134.516 76.9895 134.456 76.9516 134.406 76.9231C134.356 76.8947 134.327 76.8757 134.307 76.8757C134.247 76.8283 134.197 76.762 134.157 76.7335C134.107 76.6861 134.067 76.6387 134.017 76.5913L134.007 76.5819C134.037 76.6103 133.897 76.4396 133.857 76.3828C133.827 76.3259 133.787 76.269 133.757 76.2121C133.738 76.1837 133.698 76.0699 133.688 76.051C133.668 76.0036 133.658 75.9467 133.648 75.9277C133.628 75.8614 133.618 75.8045 133.598 75.7381C133.588 75.7002 133.578 75.6718 133.578 75.6528C133.578 75.558 133.588 75.4537 133.588 75.4063C133.588 75.3589 133.588 75.3115 133.598 75.2641C133.638 75.1978 133.668 74.9513 133.688 74.8849C133.698 74.8375 133.718 74.7901 133.738 74.7522C133.787 74.6669 133.827 74.5721 133.887 74.4867C133.927 74.4299 133.967 74.373 133.997 74.3161C133.997 74.3161 133.997 74.3161 133.997 74.3066C134.107 74.2024 134.207 74.0981 134.317 73.9938C134.327 73.9843 134.327 73.9843 134.337 73.9748C134.386 73.9369 134.456 73.9085 134.496 73.88C134.546 73.8516 134.586 73.8232 134.636 73.8042C134.666 73.7947 134.686 73.7757 134.716 73.7663C134.806 73.7473 135.065 73.6525 135.095 73.643C135.165 73.6241 135.235 73.6146 135.305 73.5956C135.465 73.5956 135.624 73.5767 135.784 73.5861C135.824 73.5861 135.874 73.5956 135.914 73.5956C135.924 73.5956 135.924 73.5956 135.924 73.5956C136.104 73.6336 136.273 73.6809 136.453 73.7378C136.553 73.7757 136.663 73.7852 136.772 73.7947C136.792 74.1075 136.922 74.4204 137.192 74.6479C137.202 74.6574 137.361 74.8091 137.451 74.8849C137.461 74.8944 137.451 74.8944 137.461 74.9039C137.491 74.9513 137.521 74.9892 137.551 75.0366C137.581 75.084 137.611 75.1314 137.631 75.1883C137.661 75.302 137.701 75.4253 137.731 75.539C137.731 75.5959 137.741 75.6433 137.741 75.7002C137.741 75.7666 137.741 75.7855 137.741 75.8045ZM151.977 67.955C151.977 67.9929 151.977 68.0024 151.977 68.0119C151.967 68.0782 151.947 68.1541 151.937 68.2204C151.917 68.3152 151.887 68.4005 151.857 68.4953C151.797 68.6565 151.787 68.6755 151.837 68.5522C151.697 68.7987 151.638 68.9219 151.288 69.1684C151.428 69.0736 150.989 69.3296 150.929 69.358C150.889 69.377 150.539 69.5382 150.529 69.5476C150.16 69.6898 149.771 69.8036 149.381 69.9079C148.962 69.8036 148.523 69.8984 148.183 70.1164C147.744 70.1638 147.295 70.1733 146.806 70.1544C146.366 70.1354 145.937 70.0785 145.498 70.0311C145.548 69.6614 145.598 69.2917 145.638 68.9314C145.727 68.1446 145.817 67.3672 145.897 66.5804C146.017 65.5091 146.127 64.5042 146.346 63.4804C147.934 63.5657 149.491 63.7174 150.699 64.6369C150.549 64.5232 150.939 64.8645 150.979 64.9024C150.979 64.9024 151.138 65.0825 151.168 65.1015C151.418 65.4238 151.558 65.7177 151.667 66.04C151.787 66.3813 151.877 66.7415 151.947 67.0923C151.977 67.2629 151.977 67.2914 151.957 67.1587C151.967 67.2535 151.977 67.3577 151.977 67.4525C151.987 67.6042 151.987 67.7749 151.977 67.955Z" fill="#1E1E1E"/>
<path d="M147.944 49.0424C145.438 46.3974 142.303 44.3877 138.839 43.0699C138.11 42.795 137.162 43.3733 136.992 44.0653C136.792 44.8901 137.262 45.5158 138.04 45.8192C138.06 45.8286 138.18 45.876 138.25 45.895C138.3 45.914 138.38 45.9519 138.4 45.9519C138.589 46.0277 138.789 46.113 138.979 46.1984C139.358 46.369 139.737 46.5491 140.107 46.7387C140.846 47.1179 141.564 47.5445 142.253 47.9996C142.403 48.1039 142.563 48.2081 142.712 48.3124C142.802 48.3788 142.902 48.4451 142.992 48.5115C143.002 48.521 142.992 48.5115 143.002 48.521C143.012 48.5305 143.002 48.521 143.022 48.5399C143.351 48.7959 143.671 49.0424 143.99 49.3078C144.639 49.8577 145.248 50.436 145.827 51.0522C146.356 51.6115 147.415 51.602 147.944 51.0522C148.523 50.4549 148.513 49.6302 147.944 49.0424Z" fill="#F7C300"/>
<path d="M117.754 73.2733C117.664 73.2259 117.585 73.1691 117.495 73.1122C117.155 72.8373 116.856 72.515 116.576 72.1832C116.007 71.4722 115.448 70.7422 115.049 69.9269C115.019 69.8511 114.989 69.7848 114.959 69.7089C114.709 69.0074 113.911 68.467 113.112 68.7135C112.373 68.941 111.804 69.7089 112.064 70.4673C112.433 71.529 113.052 72.4486 113.751 73.3397C114.46 74.2498 115.169 75.1693 116.217 75.7381C116.896 76.1078 117.884 75.9088 118.263 75.2262C118.673 74.5437 118.483 73.662 117.754 73.2733Z" fill="#F7C300"/>
</g>
<path d="M182.136 64.3511C181.343 63.4548 180.079 62.959 178.946 62.5967C178.745 62.5299 178.545 62.4822 178.334 62.425C178.334 61.4143 178.324 60.4036 178.324 59.3929C178.344 59.3929 178.374 59.3929 178.394 59.3929C178.514 59.4024 178.645 59.412 178.765 59.4215C178.795 59.4215 179.056 59.4501 179.116 59.4501C179.136 59.4501 179.156 59.4596 179.176 59.4596C180.2 60.785 182.577 59.4024 181.654 57.8578C180.992 56.7422 179.698 56.6182 178.484 56.5419C178.424 56.5419 178.374 56.5419 178.314 56.5324C178.314 55.9698 178.314 55.4072 178.314 54.8447C178.294 53.0044 175.284 53.0044 175.305 54.8447C175.315 55.5217 175.305 56.1891 175.305 56.8566C175.264 56.8661 175.224 56.8756 175.184 56.8947C172.977 57.7147 171.433 60.0317 172.305 62.2725C172.737 63.3881 173.599 64.2176 174.773 64.6372C174.943 64.6944 175.124 64.7325 175.305 64.7802C175.305 65.5811 175.285 66.3916 175.285 67.1926C175.184 67.183 175.084 67.1926 174.994 67.183C174.432 67.1067 173.88 66.9542 173.409 66.7158C173.168 66.5918 172.987 66.4774 172.857 66.3535C172.747 66.2581 172.616 66.096 172.596 66.0388C172.325 65.3141 171.573 64.8279 170.741 65.0376C169.998 65.2283 169.416 66.0674 169.687 66.8016C170.51 68.9565 172.957 69.9386 175.244 70.0531C175.234 70.5298 175.234 71.0161 175.234 71.4928C175.204 73.3331 178.213 73.3331 178.244 71.4928C178.254 70.9112 178.254 70.3296 178.264 69.7575C178.655 69.6621 179.046 69.5572 179.427 69.4333C180.541 69.0614 181.684 68.6133 182.376 67.6598C183.159 66.6109 182.968 65.2951 182.136 64.3511ZM175.094 60.7659C175.124 60.6134 175.164 60.5085 175.274 60.3464C175.274 60.3369 175.305 60.2987 175.335 60.2606C175.335 60.7278 175.335 61.195 175.335 61.6527C175.305 61.6146 175.274 61.5669 175.244 61.5192C175.084 61.2522 175.034 61.0615 175.094 60.7659ZM179.738 66.2009C179.718 66.2104 179.688 66.2295 179.648 66.2486C179.618 66.2676 179.297 66.4297 179.267 66.4488C178.966 66.5728 178.645 66.6777 178.334 66.773C178.324 66.773 178.304 66.7826 178.294 66.7826C178.294 66.3344 178.304 65.8767 178.304 65.4286C178.685 65.5621 179.056 65.7146 179.407 65.9053C179.487 65.953 179.578 66.0007 179.648 66.0483C179.668 66.0674 179.708 66.096 179.768 66.1437C179.778 66.1628 179.758 66.1818 179.738 66.2009Z" fill="#1E1E1E"/>
<path d="M191.574 49.7435C191.454 49.5623 191.293 49.4098 191.093 49.3049C191.023 49.2667 190.942 49.2477 190.862 49.2095C190.842 49.2 190.822 49.1904 190.802 49.1809C189.167 48.3895 187.241 48.0748 185.456 47.8365C183.58 47.579 181.704 47.4646 179.818 47.5027C178.905 47.3502 177.962 47.2548 176.99 47.2358C175.164 47.1881 173.278 47.2071 171.523 47.7602C169.928 48.2655 168.473 49.076 167.139 50.0486C161.723 53.9962 159.004 60.7756 160.93 67.107C161.813 69.9866 163.458 73.3811 165.715 75.5169C168.052 77.7196 171.483 78.3298 174.622 78.6921C174.933 78.7303 175.244 78.7398 175.555 78.7589C175.655 78.8352 175.766 78.9115 175.906 78.9782C178.103 79.9603 180.35 79.6266 182.697 79.6743C185.054 79.7219 187.201 80.3131 189.448 79.3977C193.41 77.7863 196.7 75.5551 198.335 71.6457C201.645 63.722 197.402 55.4074 191.574 49.7435ZM196.279 67.9937C195.587 67.8793 194.895 67.7649 194.212 67.66C194.012 67.6028 193.811 67.5933 193.611 67.6314C193.41 67.6409 193.219 67.6981 193.049 67.803C192.738 67.9747 192.437 68.3179 192.357 68.6612C192.266 69.0235 192.287 69.4431 192.507 69.7673C192.708 70.0628 193.029 70.3584 193.41 70.4252C194.092 70.5396 194.784 70.6445 195.466 70.7589C195.065 71.6457 194.564 72.418 193.962 73.095C193.099 72.7708 192.236 72.4562 191.374 72.132C191.173 72.0748 190.972 72.0652 190.772 72.1034C190.571 72.1129 190.381 72.1701 190.21 72.275C189.899 72.4466 189.598 72.7899 189.518 73.1332C189.428 73.4955 189.448 73.915 189.668 74.2392L189.899 74.5253C190.09 74.7065 190.31 74.8209 190.561 74.8972L191.394 75.2023C190.722 75.6218 189.999 75.9937 189.237 76.337C189.187 76.2893 189.127 76.2512 189.077 76.213C189.077 76.213 189.077 76.2035 189.067 76.2035C188.976 76.0414 188.846 75.8983 188.675 75.803C188.525 75.679 188.364 75.5932 188.164 75.5455C187.963 75.4883 187.763 75.4788 187.562 75.5169C187.422 75.5265 187.291 75.5646 187.171 75.6123C187.131 75.6218 187.081 75.6218 187.04 75.6314C186.92 75.679 186.8 75.7267 186.679 75.7744L186.378 75.9937C186.228 76.1272 186.128 76.2798 186.067 76.4514C185.997 76.5658 185.967 76.6802 185.967 76.8137C185.947 76.8805 185.967 76.9472 185.967 77.0235C185.345 77.0044 184.713 76.9281 184.051 76.8709C187.121 75.2023 189.538 72.5134 190.692 69.0712C191.273 67.3072 188.374 66.5635 187.793 68.3084C186.338 72.6755 181.895 75.9079 177.06 75.9651C174.452 75.9937 171.212 75.5932 168.925 74.2869C166.698 73.0092 165.344 70.1105 164.401 67.9079C162.204 62.7875 163.548 57.076 167.761 53.2715C169.878 51.3549 172.375 50.144 175.324 50.0867C176.478 50.0677 177.591 50.0963 178.675 50.2298C178.875 50.3251 179.096 50.3823 179.327 50.3728C179.407 50.3728 179.477 50.3728 179.557 50.3728C181.002 50.6398 182.386 51.1261 183.73 51.9652C188.364 54.8829 190.742 60.3084 190.09 65.486C189.859 67.3072 192.868 67.2977 193.099 65.486C193.761 60.1845 191.524 54.6922 187.392 51.0975C188.074 51.25 188.746 51.4121 189.347 51.6887C189.839 52.1559 190.3 52.6612 190.752 53.1761C190.461 54.0152 190.912 55.1213 192.116 55.1213C192.196 55.1213 192.266 55.1118 192.347 55.1022C192.838 55.7506 193.32 56.4181 193.741 57.1046C192.587 57.7244 192.828 59.784 194.473 59.784C194.704 59.784 194.915 59.7363 195.095 59.6696C195.516 60.6421 195.857 61.6338 196.088 62.6541C195.747 62.6731 195.406 62.7017 195.065 62.7208C194.854 62.7113 194.664 62.7589 194.483 62.8448C194.293 62.902 194.132 62.9973 194.002 63.1403C193.851 63.2738 193.751 63.4264 193.691 63.598C193.601 63.7697 193.55 63.9508 193.56 64.1511C193.58 64.5229 193.701 64.9043 194.002 65.1618C194.283 65.4097 194.674 65.6099 195.065 65.5813C195.526 65.5527 195.988 65.5241 196.449 65.4955C196.479 66.3155 196.429 67.1546 196.279 67.9937Z" fill="#1E1E1E"/>
<path d="M169.617 44.7947C169.236 44.0605 168.433 43.784 167.641 44.051C163.348 45.5003 159.817 48.7804 158.102 52.7852C157.811 53.4813 158.162 54.3871 158.924 54.6541C159.687 54.9116 160.569 54.616 160.89 53.8722C161.081 53.4145 161.302 52.9759 161.542 52.5468C161.552 52.5277 161.622 52.4133 161.653 52.3561C161.693 52.2989 161.753 52.194 161.763 52.1749C161.893 51.9652 162.034 51.7649 162.184 51.5552C162.465 51.1738 162.756 50.8019 163.077 50.4396C163.247 50.2488 163.418 50.0677 163.589 49.8865C163.629 49.8484 163.689 49.7912 163.709 49.7625C163.789 49.6863 163.879 49.61 163.96 49.5337C164.672 48.8853 165.454 48.3227 166.277 47.8174C166.317 47.7888 166.337 47.7792 166.367 47.7602C166.387 47.7506 166.397 47.7411 166.427 47.722C166.528 47.6648 166.628 47.6076 166.728 47.5599C166.949 47.4455 167.18 47.3311 167.41 47.2262C167.872 47.0164 168.353 46.8257 168.835 46.6636C169.587 46.4252 169.958 45.4526 169.617 44.7947Z" fill="#F7C300"/>
<path d="M202.869 70.4728C201.996 70.2917 201.334 70.7493 201.033 71.4931C201.033 71.5026 201.023 71.5312 201.003 71.5598C200.993 71.5789 200.923 71.7315 200.923 71.741C200.853 71.884 200.793 72.027 200.712 72.1701C200.562 72.4656 200.402 72.7612 200.231 73.0568C199.89 73.6384 199.509 74.1915 199.108 74.7445C199.007 74.878 198.917 75.002 198.817 75.1259C198.797 75.1545 198.777 75.1831 198.746 75.2117C198.676 75.2975 198.706 75.2689 198.807 75.1259C198.797 75.1736 198.706 75.2499 198.676 75.2975C198.466 75.5645 198.245 75.8315 198.024 76.0889C197.573 76.6229 197.111 77.1473 196.64 77.6813C196.138 78.2534 196.038 79.1687 196.67 79.7027C197.242 80.189 198.255 80.2843 198.797 79.6741C200.823 77.3857 202.789 75.0592 203.922 72.2368C204.223 71.5217 203.601 70.6254 202.869 70.4728Z" fill="#F7C300"/>
<g clip-path="url(#clip8)">
<path d="M46.8778 96.1905C46.6361 94.831 46.3339 93.2595 45.3569 92.1797C44.3497 91.0613 42.8792 90.637 41.3885 90.4538C37.2993 89.9621 33.0388 90.2803 28.9193 90.3092C24.6186 90.3382 20.2775 90.2514 16.0573 91.1384C15.3019 91.3023 14.9796 91.8422 14.9796 92.411C14.4458 93.1727 13.9221 93.9537 13.4285 94.7443C13.2372 94.5514 13.0458 94.3586 12.8444 94.1851C10.971 92.5364 8.52346 91.3601 5.92488 91.5048C3.51766 91.6397 0.657201 92.9027 0.133454 95.3902C-0.38022 97.8777 0.637056 100.452 2.35938 102.303C4.38385 104.463 7.41554 105.446 10.3666 105.581C10.9105 107.047 11.7969 108.454 12.5825 109.775C13.3077 110.99 14.0329 112.426 15.3523 113.159C16.8631 113.998 18.9279 114.017 20.62 114.162C24.4171 114.49 28.2344 114.403 32.0417 114.172C33.8244 114.065 35.6172 113.93 37.4 113.796C39.1828 113.661 41.1669 113.738 42.8993 113.313C46.1325 112.523 46.4447 109.206 46.8073 106.555C47.2807 103.113 47.4922 99.6324 46.8778 96.1905ZM4.09177 99.7385C3.49752 98.8997 3.07449 97.9163 3.0342 96.8943C3.02413 96.4797 3.00399 95.9591 3.23564 95.5927C3.49752 95.1878 4.09177 94.8696 4.52486 94.696C6.54934 93.8765 8.86591 94.6671 10.4372 95.988C10.9609 96.4218 11.4343 96.9039 11.8775 97.4149C11.2832 98.514 10.7292 99.6421 10.2659 100.789C10.0141 101.416 9.88319 102.033 9.86304 102.65C7.63712 102.428 5.38099 101.551 4.09177 99.7385ZM44.1886 102.775C44.0979 104.212 43.9267 105.639 43.7252 107.066C43.5943 107.972 43.554 109.505 42.7986 110.19C41.9828 110.942 39.9382 110.72 38.8705 110.797C37.2489 110.922 35.6273 111.048 34.0057 111.163C30.9338 111.376 27.8416 111.53 24.7596 111.482C23.2991 111.462 21.8488 111.385 20.3984 111.25C19.0991 111.135 17.2559 111.202 16.3696 110.141C15.3624 108.936 14.6372 107.355 13.912 105.986C13.1264 104.482 12.4918 103.2 13.1868 101.561C13.4084 101.04 13.6602 100.519 13.9019 100.008C14.2645 100.5 14.6271 100.982 15.0099 101.455C14.9897 101.599 14.9696 101.744 14.9696 101.888C14.9494 102.631 15.0904 103.421 15.6746 103.952C16.1681 104.395 16.8631 104.646 17.5178 104.742C18.0013 104.819 18.384 104.829 18.8674 104.742C19.1898 104.684 19.502 104.559 19.784 104.414C20.3178 104.135 20.7912 103.682 21.0934 103.171C21.2344 102.93 21.3552 102.66 21.4257 102.38C21.5365 101.927 21.5265 101.541 21.456 101.088C21.3351 100.384 20.8315 99.7578 20.197 99.401C19.5725 99.0539 18.7567 98.8804 18.0315 99.0346C17.6487 98.9768 17.2761 98.9672 16.9034 99.0925C16.4099 98.4562 15.9365 97.8006 15.4631 97.1546C16.1581 95.9976 16.8933 94.8696 17.6689 93.7801C20.489 93.2788 23.3495 93.2402 26.21 93.2209C29.4431 93.2016 32.6863 93.1727 35.9194 93.1631C37.3496 93.1534 38.7698 93.1534 40.2 93.2402C41.3583 93.3173 42.8389 93.3752 43.3727 94.5322C44.4907 96.9521 44.3497 100.201 44.1886 102.775Z" fill="#1E1E1E"/>
<path d="M36.292 106.073C35.8388 105.851 35.4057 105.601 34.9826 105.321C34.5697 105.051 34.4287 104.945 34.0258 104.608C33.4618 104.135 32.9481 103.605 32.4445 103.075C33.8344 101.889 35.0431 100.529 36.2417 99.1698C36.7453 98.5913 36.8762 97.685 36.2417 97.1258C35.6776 96.6341 34.6503 96.5088 34.1064 97.1258C32.9682 98.4274 31.81 99.7194 30.5006 100.867C29.4732 99.6808 28.4358 98.4949 27.4085 97.309C26.9049 96.7209 25.7869 96.7691 25.2732 97.309C24.679 97.9261 24.7293 98.736 25.2732 99.353C26.2401 100.471 27.2171 101.58 28.184 102.699C27.8516 102.959 27.5092 103.219 27.207 103.508C26.4013 104.261 25.7063 105.128 25.1221 106.054C24.7092 106.7 24.9509 107.674 25.666 108.03C26.4013 108.406 27.2977 108.204 27.7308 107.51C28.2646 106.661 28.6776 106.16 29.4632 105.446C29.6848 105.244 29.9063 105.061 30.1279 104.887C31.4675 106.353 32.9783 107.664 34.7913 108.57C35.4862 108.917 36.4632 108.763 36.856 108.05C37.2086 107.384 37.0474 106.449 36.292 106.073Z" fill="#1E1E1E"/>
<path d="M51.8031 92.0736C50.9671 90.5888 49.8995 89.2197 48.6606 88.0242C48.0059 87.3975 47.2908 86.8286 46.5556 86.2887C45.78 85.7295 44.934 85.2378 43.9872 84.9968C43.2217 84.804 42.3152 85.2378 42.1239 86.0091C41.9426 86.7612 42.3555 87.5903 43.1814 87.7928C43.2822 87.8217 43.3728 87.841 43.4735 87.8699C43.534 87.8892 43.5843 87.9085 43.6448 87.9278C43.5944 87.9085 43.5541 87.8892 43.5037 87.8699C43.675 87.8892 43.8865 88.0531 44.0376 88.1399C44.4002 88.3424 44.7325 88.5737 45.0649 88.8148C45.075 88.8244 45.0649 88.8148 45.0851 88.8244C45.1556 88.8823 45.2361 88.9401 45.3066 88.998C45.4577 89.1137 45.5987 89.2294 45.7397 89.3547C46.0419 89.6054 46.3239 89.8753 46.6059 90.1453C46.8678 90.4056 47.1297 90.6756 47.3714 90.9455C47.4923 91.0805 47.6131 91.2252 47.734 91.3698C47.7441 91.3891 47.7541 91.3891 47.7642 91.3987C47.8146 91.4662 47.8649 91.524 47.9153 91.5915C48.3887 92.2086 48.8117 92.8545 49.1944 93.5294C49.5671 94.1947 50.5945 94.4647 51.2592 94.0501C51.9743 93.6162 52.206 92.787 51.8031 92.0736Z" fill="#F7C300"/>
<path d="M14.4862 115.126C14.2848 114.827 14.0128 114.635 13.6704 114.5C13.6905 114.509 13.7006 114.509 13.7207 114.519C13.4488 114.413 13.197 114.268 12.9553 114.104C12.7236 113.921 12.5121 113.719 12.3106 113.497C12.1696 113.304 12.0488 113.092 11.938 112.88C11.938 112.87 11.938 112.87 11.9279 112.861C11.797 112.504 11.5855 112.195 11.2329 111.993C10.9106 111.81 10.4272 111.732 10.0646 111.848C9.70198 111.964 9.34946 112.176 9.15809 112.513C8.97679 112.841 8.87607 113.265 9.00701 113.632C9.31924 114.471 9.78256 115.232 10.4473 115.859C11.102 116.495 11.8977 116.939 12.774 117.238C13.1265 117.363 13.62 117.267 13.9423 117.093C14.2545 116.92 14.5567 116.573 14.6373 116.225C14.7279 115.869 14.7078 115.454 14.4862 115.126Z" fill="#F7C300"/>
</g>
<defs>
<clipPath id="clip0">
<rect width="43" height="34" fill="white" transform="translate(107 84)"/>
</clipPath>
<clipPath id="clip1">
<rect width="38" height="34" fill="white" transform="translate(153 84)"/>
</clipPath>
<clipPath id="clip2">
<rect width="36" height="40" fill="white" transform="translate(55)"/>
</clipPath>
<clipPath id="clip3">
<rect width="40" height="36" fill="white" transform="translate(94)"/>
</clipPath>
<clipPath id="clip4">
<rect width="40" height="36" fill="white" transform="translate(137)"/>
</clipPath>
<clipPath id="clip5">
<rect width="65" height="38" fill="white" transform="translate(0 43)"/>
</clipPath>
<clipPath id="clip6">
<rect width="41" height="29" fill="white" transform="translate(68 43)"/>
</clipPath>
<clipPath id="clip7">
<rect width="43" height="38" fill="white" transform="translate(112 43)"/>
</clipPath>
<clipPath id="clip8">
<rect width="52" height="34" fill="white" transform="translate(0 84)"/>
</clipPath>
</defs>
</svg>
