<svg width="185" height="15" viewBox="0 0 185 15" fill="none" xmlns="http://www.w3.org/2000/svg">
<path d="M184.28 10.7507C182.16 8.65161 179.897 6.7243 177.776 4.6252C175.66 2.69292 174.16 1.74169 171.708 3.66125C169.688 5.23224 167.241 7.31862 165.681 9.54199C165.533 9.54696 165.529 9.38014 165.382 9.38511C165.069 8.72776 164.319 8.25215 163.864 7.76659C162.801 6.63363 161.886 5.4957 160.828 4.52956C159.158 2.74919 157.35 1.30743 155.027 2.55473C152.699 3.6352 151.3 6.35407 149.436 8.25374C149.294 8.42553 149.151 8.59732 149.008 8.76912C149.441 8.42056 149.285 8.09188 148.696 8.11177C148.24 7.62621 147.5 7.48424 146.902 7.17048C145.853 6.53799 144.804 5.90549 143.755 5.273C141.358 3.85113 139.1 2.09064 136.841 0.330157C136.087 -0.312279 134.771 0.0661037 134.2 0.753278C133.211 2.28948 132.217 3.65885 131.228 5.19505C130.662 6.04905 130.096 6.90305 129.53 7.75704C129.387 7.92884 129.245 8.10063 129.107 8.43925C128.964 8.61104 128.964 8.61104 128.964 8.61104C127.621 7.98849 126.406 6.69367 125.201 5.7325C123.849 4.77631 122.492 3.65329 120.992 2.70206C118.434 0.784691 115.904 -0.13174 113.171 2.29822C111.161 4.20286 109.297 6.10253 107.286 8.00717C105.63 6.72727 103.979 5.61419 102.176 4.33926C100.524 3.22618 98.859 1.61264 96.8117 2.1827C94.9116 2.74779 93.2 4.80931 91.6173 6.19857C90.7523 6.89568 89.8873 7.5928 89.1695 8.28494C88.3045 8.98206 87.7157 9.00194 86.6714 8.53627C83.2396 6.98237 80.5027 3.90222 76.6613 3.53099C72.6727 3.16474 69.958 6.26199 66.9305 8.7019C65.9229 9.57081 66.0656 9.39901 65.0121 8.5997C64.1105 7.96223 63.3561 7.31979 62.4545 6.68233C60.6512 5.4074 58.848 4.13247 56.7732 3.70159C54.703 3.43754 52.9639 4.49812 51.0775 5.56368C50.0607 6.09894 49.044 6.63421 48.0272 7.16947C47.0104 7.70474 45.4231 8.92717 44.1027 9.13873C42.3361 9.19838 40.0774 7.4379 38.5732 6.31985C36.9172 5.03995 35.5372 3.08281 33.4625 2.65194C31.5349 2.21609 29.644 3.11482 28.2084 4.49911C26.6257 5.88837 25.2131 8.10678 23.1337 7.50908C21.0589 7.0782 19.3891 5.29783 17.5905 4.18972C15.64 2.91976 13.5515 1.98842 11.1868 1.73431C6.8992 1.21117 2.53307 3.19535 0.296676 7.61227C-1.09763 10.498 2.79872 12.8711 4.19303 9.98537C6.14873 6.07886 10.418 5.9347 13.7072 7.66039C16.9964 9.38608 19.7379 12.6331 23.5701 12.6706C25.3413 12.7778 26.9378 11.889 28.3825 10.8384C29.5327 9.79767 31.5205 7.05892 33.0202 8.01014C34.5152 8.79455 35.8906 10.5849 37.3948 11.7029C39.0463 12.816 40.9921 13.9191 42.7679 14.1931C44.6909 14.4621 46.2874 13.5734 48.0311 12.6796C50.2119 11.6041 52.3789 10.0281 54.5643 9.11945C56.4598 8.38754 58.2768 10.1629 59.7764 11.1142C61.2807 12.2322 62.955 14.1794 64.878 14.4484C68.2869 15.1682 70.9558 10.4027 73.7163 8.97371C76.9138 7.36294 80.097 10.595 82.7927 12.1738C84.4442 13.2868 86.3855 14.2232 88.2902 13.8249C90.342 13.4216 92.0583 11.5269 93.641 10.1377C94.506 9.44057 95.7897 7.89443 96.8111 7.52599C96.9583 7.52102 97.239 7.01061 97.239 7.01061C97.5334 7.00067 98.5914 7.96681 98.8905 8.12369C100.997 9.72232 103.251 11.316 105.358 12.9146C105.358 12.9146 105.505 12.9097 105.51 13.0765C106.264 13.7189 107.447 13.846 108.303 12.8152C109.595 11.6027 110.741 10.3952 112.034 9.18269C112.605 8.49551 113.327 7.97019 113.897 7.28302C114.33 6.93446 115.181 5.73688 115.765 5.55017C116.939 5.34358 119.064 7.6095 119.965 8.24697C121.318 9.20317 122.523 10.1643 123.876 11.1205C125.982 12.7192 128.554 15.137 130.845 12.722C131.991 11.5144 132.828 9.81638 133.675 8.45197C134.241 7.59798 134.95 6.57219 135.516 5.71819C139.278 8.59672 143.179 11.1366 147.356 12.9993C149.891 14.0826 151.318 12.3647 153.034 10.47C153.89 9.43919 154.736 8.07479 155.748 7.3727C156.613 6.67558 156.034 7.02911 156.784 7.50473C157.234 7.82346 157.846 8.63769 158.301 9.12324C159.364 10.2562 160.279 11.3941 161.337 12.3603C162.096 13.1695 163.012 14.3075 164.056 14.7731C166.439 15.6945 167.852 13.4761 169.43 11.9201C170.433 10.8843 171.436 9.8486 172.586 8.80789C172.586 8.80789 173.451 8.11078 173.884 7.76222C174.035 7.92407 174.187 8.08592 174.339 8.24778C176.46 10.3469 178.723 12.2742 180.843 14.3733C183.406 16.4575 186.401 12.8498 184.28 10.7507Z" fill="#F7C300"/>
</svg>
