<svg width="134" height="97" viewBox="0 0 134 97" fill="none" xmlns="http://www.w3.org/2000/svg">
<path fill-rule="evenodd" clip-rule="evenodd" d="M44.3582 8.0126C42.4515 7.88801 40.2868 8.5039 39.0801 10.0774C37.8004 11.715 37.6344 14.045 38.5289 15.8936C38.7039 16.3181 39.0151 16.7515 39.3993 17.1209C40.0461 17.6451 40.9265 17.7715 41.3983 17.8711C42.1424 17.9886 43.0909 18.1194 44.0638 17.9076C45.1778 17.6362 46.1118 17.0087 46.8416 16.3679C47.4935 15.8597 48.1601 15.1459 48.5592 14.3458C49.0312 13.4816 49.2455 12.3941 48.9101 11.3394C48.3124 9.16603 46.26 8.20573 44.3582 8.0126ZM44.2117 10.0685C45.6418 10.1619 46.6874 10.8499 47.0178 11.9731C47.1247 12.3932 47.0906 12.8729 46.7791 13.4033C46.5358 13.9382 46.093 14.3912 45.5141 14.8353C44.8622 15.3435 44.2832 15.7876 43.6606 15.8846C43.1061 15.9861 42.4932 15.9461 41.8171 15.833C41.2772 15.7289 40.9416 15.6381 40.7471 15.4877C40.6158 15.4103 40.4942 15.1958 40.3727 14.9813C39.7747 13.7718 39.9453 12.3371 40.6995 11.3537C41.3758 10.5028 42.7817 9.97506 44.2117 10.0685Z" fill="#59C59F"/>
<path d="M109.109 39.3774C109.664 40.2415 110.502 40.0203 110.852 39.9053C111.558 39.6066 112.333 39.3123 113.107 39.0181C113.458 38.9031 113.813 38.7194 114.023 38.6641C114.373 38.5491 114.729 38.3654 115.079 38.2504C116.555 37.7261 118.099 37.2062 119.642 36.6864C120.275 36.4519 120.797 35.8651 120.641 35.1652C120.529 34.813 120.281 34.4519 119.95 34.2923C119.75 34.2102 119.551 34.1282 119.273 34.179L119.205 34.1746C116.049 35.2098 112.816 36.3779 109.708 37.6922C109.494 37.8161 109.275 38.0087 109.182 38.3476C108.88 38.7417 108.919 39.1581 109.109 39.3774Z" fill="#59C59F"/>
<path d="M28.9669 47.4768C28.9728 45.7585 32.8127 41.0204 34.7319 38.8662C35.2124 38.1487 36.3182 36.2835 36.8977 34.5633C37.622 32.4129 37.6195 33.1289 39.0608 30.9762C40.502 28.8236 41.2165 29.5372 42.6503 29.5325L48.3857 29.5137C50.5365 29.5067 51.9703 29.502 54.8356 30.2086C57.7008 30.9152 60.5709 30.1898 65.5869 30.8894C70.6029 31.5889 67.7377 30.8823 69.886 31.5913C72.0343 32.3002 76.3334 33.0021 78.4841 32.9951C80.6349 32.988 92.8201 33.6641 96.3973 35.8003C99.9745 37.9365 102.093 47.2373 104.229 51.5262C106.365 55.8151 103.488 58.6885 99.1712 62.9985C94.8548 67.3085 84.7932 74.5012 84.0738 75.2196C83.4983 75.7942 73.7724 82.6518 68.9814 86.0087C67.5418 87.684 64.2329 90.8929 62.5143 90.3257C60.366 89.6168 39.6691 62.4774 38.9546 61.7637C38.2402 61.0501 28.9596 49.6248 28.9669 47.4768Z" fill="white"/>
<path d="M5.96301 44.6877C6.21636 44.9812 6.48928 44.9991 6.69397 45.0126C7.04 44.966 7.32759 44.7772 7.55184 44.5149L8.23927 43.5215L8.49262 43.815C8.6193 43.9618 8.74598 44.1086 8.87265 44.2554C8.99933 44.4022 9.06267 44.4756 9.18934 44.6223C9.76427 45.2139 10.349 45.6677 11.0215 45.8503C11.7573 46.1062 12.4494 46.0132 13.0197 45.7044C13.3073 45.5155 13.5949 45.3267 13.7558 44.9911L14.0581 44.5955L14.4234 45.2426C14.8472 46.032 15.2126 46.679 16.0995 46.7372C16.5772 46.7685 17.1523 46.3908 17.4595 45.9263C17.4595 45.9263 17.5375 45.793 17.6155 45.6596L17.8495 45.2595L18.098 45.622C18.1613 45.6954 18.2247 45.7688 18.2198 45.8377C18.3465 45.9845 18.4682 46.2002 18.5267 46.3425C19.0821 47.2098 19.7008 48.1504 20.7438 47.9419C21.9964 47.6778 23.0689 46.0865 23.4541 45.4887C23.6881 45.0886 23.6395 44.8084 23.5177 44.5928C23.3375 44.2347 22.9428 44.0012 22.5334 43.9743C22.2605 43.9564 21.9778 44.0763 21.6755 44.4719C21.5195 44.7386 21.2123 45.2032 20.8418 45.5943L20.6176 45.8565L20.1207 45.1316C19.994 44.9848 19.9355 44.8425 19.8089 44.6957C19.4337 44.1864 19.0586 43.6772 18.4592 43.4302C17.8598 43.1831 17.2409 43.2118 16.7388 43.525C16.5975 43.585 16.4512 43.7139 16.3001 43.9117L16.0027 44.2384L15.9054 43.6781C15.54 43.031 15.1649 42.5217 14.7702 42.2881C14.4437 42.059 14.0343 42.0322 13.6834 42.1476C13.1911 42.323 12.6793 42.7741 12.4355 43.312C12.3575 43.4454 12.3526 43.5143 12.3526 43.5143C12.2648 43.7855 12.0552 43.841 11.8505 43.8276L11.7141 43.8186C11.3047 43.7918 10.9247 43.3514 10.6713 43.0579L10.608 42.9845C9.91125 42.1772 9.27298 41.5122 8.274 41.1005C7.80618 40.9313 7.37235 41.2491 7.07009 41.6447L6.53868 42.3714L5.32548 41.1148C4.87722 40.67 4.32161 40.772 3.95112 41.1631C3.58062 41.5543 3.40504 42.0966 3.91663 42.6148L5.96301 44.6877Z" fill="#59C59F"/>
<path d="M90.3748 53.7522C89.5049 50.8966 87.7158 47.9318 86.3913 45.2919C85.5801 43.6677 84.9837 42.4502 83.3049 42.0459C80.8596 41.4442 78.1053 41.7552 75.587 41.4925C72.878 41.1681 70.1273 40.7429 67.4357 40.1742C64.5533 39.5439 61.7299 38.7702 58.8683 37.8466C56.867 37.1757 54.4774 35.792 52.4653 36.6426C50.7029 37.4112 49.2836 39.5281 47.9617 40.9638C46.6917 42.3539 44.5823 43.8855 44.4707 46.1369C44.3383 48.6815 46.5472 51.2318 47.7747 53.1779C49.3523 55.687 50.9855 58.1015 52.6673 60.5192C56.3048 65.6179 60.2094 70.3905 64.3777 74.8856C65.2378 75.8256 66.3096 75.8466 67.1944 75.0696C70.8895 71.8249 75.1046 69.498 79.1465 66.8651C81.0893 65.6172 83.0391 64.2716 84.8537 62.7698C86.2033 61.6305 88.507 60.1116 89.1319 58.1883C89.1909 58.0449 89.1978 57.9471 89.2083 57.8005C90.4643 56.606 90.9259 55.605 90.3748 53.7522Z" fill="#F7C300"/>
<path d="M101.613 53.6859C101.55 53.6129 101.55 53.6129 101.487 53.5398L101.425 53.4667C99.5477 48.3728 97.7438 43.2145 96.0861 37.9271L96.0232 37.854C96.0283 37.7852 95.9654 37.7121 96.0384 37.6476L96.0435 37.5788C96.0639 37.3037 96.0162 37.0243 95.8905 36.8781C95.7647 36.732 95.5659 36.6504 95.3619 36.6375C78.8183 35.0428 62.1692 33.0268 45.7392 30.8172C45.3993 30.7958 45.1904 30.8518 45.0341 31.1183L44.9559 31.2516C44.8829 31.3161 44.8098 31.3806 44.6688 31.4409L44.4071 31.2862C43.4403 31.4326 42.5433 32.4818 41.8655 33.3375L41.6464 33.531C40.5252 34.8426 39.4668 36.2271 38.4816 37.5472C36.443 40.1831 34.4572 43.0296 32.6074 45.8847L32.5242 46.0868C32.5191 46.1556 32.446 46.2201 32.373 46.2846L32.2999 46.3491C32.0128 46.5383 31.8616 46.7361 31.8463 46.9425C31.8413 47.0113 31.8311 47.1488 32.0826 47.4411C33.7958 49.2076 35.0077 51.288 36.1517 53.3641C36.7551 54.4387 37.3585 55.5133 38.035 56.5234C39.8231 59.1239 41.8881 61.6726 43.9633 64.0839C44.5921 64.8145 45.221 65.5452 45.8448 66.3447C49.2932 70.5009 52.7417 74.6572 56.1902 78.8134L57.9459 80.9281L62.3377 86.1804C62.4006 86.2534 62.3955 86.3222 62.4584 86.3953L62.5162 86.5371C62.6216 86.9584 63.004 87.328 63.3387 87.4182C63.6106 87.4353 63.8196 87.3794 63.981 87.044C67.5244 81.6004 73.0173 78.4219 78.2961 75.3682L78.3691 75.3037C79.6536 74.5553 81.006 73.8112 82.2276 72.9897C88.8111 68.9124 94.1573 63.0986 99.2895 57.4096L101.219 55.3197C101.433 55.195 101.585 54.9972 101.668 54.7951L101.746 54.6618C101.824 54.5285 102.053 54.1974 101.676 53.759L101.613 53.6859ZM78.4891 37.6481L78.4618 37.0935C78.472 36.956 78.4822 36.8184 78.6232 36.7582C78.6963 36.6937 78.8373 36.6334 78.9732 36.642L79.517 36.6762C83.24 37.118 87.172 37.5039 91.6427 37.9928L92.5263 38.0484C92.6622 38.057 92.856 38.2074 92.9138 38.3492C92.9716 38.4911 92.9563 38.6974 92.8102 38.8265L82.9213 49.7445C82.8483 49.809 82.7752 49.8735 82.7073 49.8692C82.6393 49.8649 82.5713 49.8606 82.5713 49.8606C82.4354 49.8521 82.3045 49.7747 82.2467 49.6329L81.9526 48.9924C80.3463 45.7814 78.7856 41.9514 78.4891 37.6481ZM76.3586 38.7578C76.4894 38.8352 76.6203 38.9125 76.673 39.1232L76.8057 40.099C77.2243 42.7514 78.1713 45.6445 79.7624 49.0618L80.1143 49.8441C80.1721 49.986 80.1568 50.1923 80.0787 50.3256C80.0056 50.3901 79.9326 50.4546 79.7916 50.5149C79.7236 50.5106 79.6556 50.5063 79.6556 50.5063L76.9572 50.0599C74.5256 49.6995 72.0311 49.2659 69.5264 48.97L68.7159 48.8498C68.5799 48.8413 68.4542 48.6951 68.3964 48.5533C68.3386 48.4114 68.3538 48.2051 68.4999 48.0761L73.4688 41.8239C73.9955 41.166 74.5221 40.5081 75.0487 39.8502C75.1218 39.7857 75.1268 39.7169 75.1999 39.6524L75.8726 38.8655C76.0136 38.8052 76.2226 38.7493 76.3586 38.7578ZM62.2358 34.8968C62.3139 34.7635 62.4549 34.7033 62.6589 34.7162L63.3335 34.8277C66.5127 35.2353 69.6971 35.5741 72.8764 35.9816L75.1771 36.2647C75.381 36.2776 75.5068 36.4237 75.5646 36.5655C75.6224 36.7074 75.5392 36.9095 75.4611 37.0428L74.7305 37.6878C73.6297 38.7242 72.7174 39.9798 71.7423 41.1623C71.513 41.4934 71.2888 41.7557 70.9915 42.0825L67.0027 47.0834C66.9297 47.1479 66.8566 47.2124 66.7836 47.2769C66.7156 47.2726 66.6476 47.2683 66.6476 47.2683C66.5117 47.2598 66.3859 47.1136 66.3281 46.9718L64.1571 41.2374C63.421 39.187 62.8633 37.4933 62.3584 36.0103L62.1373 35.3053C62.1475 35.1677 62.1627 34.9613 62.2358 34.8968ZM59.7552 36.1227C59.8333 35.9895 60.0423 35.9335 60.1783 35.9421C60.3142 35.9506 60.5079 36.101 60.5657 36.2429L60.8395 37.1585C61.3921 38.921 62.0126 40.6877 62.691 42.5963L64.505 47.6171C64.5628 47.759 64.5527 47.8966 64.4745 48.0299C64.4015 48.0944 64.3284 48.1589 64.1874 48.2191C64.1874 48.2191 64.1194 48.2148 64.0515 48.2105L63.3667 48.2365C60.6581 47.9277 57.6097 47.5975 54.6241 47.3404L53.9445 47.2976C53.8085 47.289 53.6777 47.2117 53.6199 47.0698C53.5621 46.928 53.5722 46.7904 53.5824 46.6528L53.9 46.0509C55.3421 43.1701 57.1341 40.1732 59.2133 36.987L59.7552 36.1227ZM46.3394 32.8591C46.4175 32.7258 46.6265 32.6699 46.7625 32.6784L47.641 32.8029C49.6699 33.0689 51.6988 33.3348 53.7277 33.6008C54.946 33.7467 56.2323 33.8968 57.4507 34.0426L58.1933 34.1585C58.3292 34.1671 58.46 34.2444 58.5178 34.3863C58.5756 34.5281 58.5655 34.6657 58.4873 34.799L58.0287 35.4612C56.3351 38.0497 54.6993 40.78 53.1944 43.5877L52.7935 44.3917C52.7154 44.525 52.6423 44.5895 52.5013 44.6498C52.4334 44.6455 52.4334 44.6455 52.3654 44.6412C52.2294 44.6326 52.0306 44.551 51.9728 44.4092L51.6209 43.6268C50.7965 41.8472 49.831 40.1279 48.9335 38.4128C48.1465 37.0502 47.4325 35.6231 46.7186 34.196L46.3038 33.3406C46.246 33.1988 46.2613 32.9924 46.3394 32.8591ZM35.3141 45.295L36.0802 44.1684L36.4728 44.4005L36.1533 44.1039C37.1487 42.6463 38.2172 41.1241 39.2806 39.6707C40.1877 38.484 41.0949 37.2972 41.9969 36.1792C42.4505 35.5858 42.972 34.9967 43.4256 34.4033L43.8741 33.8787C43.9522 33.7454 44.0932 33.6851 44.2971 33.698C44.4331 33.7065 44.5639 33.7839 44.6217 33.9257L44.9158 34.5662C45.6298 35.9933 46.4746 37.4978 47.1936 38.8561C48.4004 41.0053 49.6702 43.2275 50.5899 45.566L50.8789 46.2752C50.9367 46.4171 50.9265 46.5547 50.8484 46.688C50.7754 46.7525 50.7023 46.817 50.5613 46.8772C50.4933 46.8729 50.4933 46.8729 50.4253 46.8686L49.6777 46.8216C46.0804 46.5259 41.2547 46.222 36.4238 45.9868L35.6082 45.9355C35.4722 45.9269 35.2734 45.8453 35.2156 45.7034C35.1527 45.6304 35.168 45.424 35.3141 45.295ZM61.6333 81.8514C61.5654 81.8471 61.5603 81.9159 61.4923 81.9116C61.3513 81.9718 61.1525 81.8902 61.0267 81.7441L58.8308 79.1179C55.005 74.5233 51.1164 69.8556 47.2906 65.2609C46.6617 64.5302 46.0329 63.7996 45.404 63.0689C43.3917 60.7307 41.3216 58.2507 39.5335 55.6503C38.7942 54.5671 38.065 53.3464 37.3936 52.2675C36.7851 51.2617 36.2394 50.329 35.6258 49.3919L35.1329 48.6698C35.0072 48.5237 35.0224 48.3173 35.1006 48.184C35.1787 48.0507 35.3248 47.9217 35.5287 47.9346L36.4123 47.9902C40.9713 48.2082 45.5932 48.4993 50.5498 48.8806L50.8896 48.902C51.0935 48.9148 51.2193 49.061 51.2771 49.2028L51.3927 49.4865C51.7617 50.961 52.1936 52.5085 52.5626 53.983L52.6154 54.1937C54.6815 62.271 56.8632 70.6321 60.3344 78.176L61.81 81.3097C61.8678 81.4515 61.8474 81.7267 61.6333 81.8514ZM63.5664 78.7942C63.5512 79.0006 63.4051 79.1296 63.2012 79.1168C63.2012 79.1168 63.2012 79.1168 63.1332 79.1125C62.9242 79.1684 62.7305 79.018 62.6727 78.8762L62.0845 77.5952C58.5504 69.9782 56.4366 61.6214 54.2974 53.6085C54.0389 52.4865 53.7074 51.4291 53.4489 50.3071L53.3587 49.6794C53.3009 49.5376 53.379 49.4043 53.4572 49.271C53.5353 49.1377 53.6763 49.0775 53.8123 49.086L54.492 49.1288C58.424 49.5147 61.9533 49.8061 65.5353 50.3081L66.011 50.338C66.147 50.3466 66.2099 50.4197 66.3407 50.497C66.4036 50.5701 66.4614 50.7119 66.4512 50.8495L66.3477 51.3267C65.7079 55.3637 65.4657 59.564 65.2337 63.6267C64.9713 68.1021 64.7615 72.7881 63.8822 77.2938L63.5664 78.7942ZM65.8616 76.3818L66.0821 74.3225C66.462 71.0293 66.7111 67.6588 66.8872 64.3528C67.1294 60.1525 67.3868 55.7459 68.1098 51.5068L68.2083 51.0984C68.2286 50.8232 68.4427 50.6985 68.7145 50.7156L69.1224 50.7413C72.7723 51.2476 76.4223 51.7539 79.9992 52.3247L80.6738 52.4363C80.8098 52.4449 80.9406 52.5222 80.9984 52.6641C81.0562 52.8059 81.0461 52.9435 80.9679 53.0768L66.6619 76.6396C66.5838 76.7728 66.5107 76.8373 66.3748 76.8288C66.3068 76.8245 66.2389 76.8202 66.1029 76.8117C65.967 76.8031 65.8463 76.5882 65.8616 76.3818ZM97.7294 56.3438L97.2079 56.9329C91.7156 62.8757 86.6139 68.1521 80.0354 72.1606C79.3201 72.5993 78.6049 73.038 77.8947 73.4079C75.0387 75.0939 72.1776 76.8487 69.5102 78.7539L67.7042 80.0914C67.6312 80.1559 67.6312 80.1559 67.5632 80.1516C67.4222 80.2119 67.2913 80.1345 67.1605 80.0572C67.0347 79.911 66.982 79.7004 67.0652 79.4983L83.08 53.1407C83.1582 53.0074 83.3722 52.8827 83.5031 52.96L83.8429 52.9814C89.0359 53.8613 93.0053 54.6642 96.7709 55.4542L97.5764 55.6431C97.7123 55.6517 97.8381 55.7978 97.8959 55.9397C97.8857 56.0772 97.8755 56.2148 97.7294 56.3438ZM99.4128 53.8929C99.3398 53.9574 99.2667 54.0219 99.1988 54.0176C99.1308 54.0133 99.0628 54.0091 98.9949 54.0048L98.1894 53.8158C94.4238 53.0258 90.4544 52.223 85.6642 51.4376L84.8536 51.3174C84.7177 51.3088 84.5919 51.1627 84.5341 51.0209C84.4763 50.879 84.4916 50.6726 84.6377 50.5436L94.2292 39.9524C94.3074 39.8191 94.5164 39.7632 94.6472 39.8405C94.7832 39.8491 94.9089 39.9952 94.9667 40.1371L95.1878 40.8421C96.6296 45.3557 97.9234 49.0998 99.2325 52.6376L99.5164 53.4157C99.5742 53.5575 99.491 53.7596 99.4128 53.8929Z" fill="#1E1E1E"/>
<path d="M26.6468 61.229C21.7454 62.7904 16.9496 64.7741 12.4686 67.124C12.2543 67.249 12.1029 67.4473 12.0145 67.7188C11.921 68.0593 11.9686 68.3394 12.0844 68.6238C12.389 69.1279 12.9914 69.3045 13.5562 69.063C17.9589 66.8467 22.4774 64.9148 27.0283 63.4698C27.5881 63.2973 28.0371 62.7714 27.9468 62.1422C27.8991 61.8621 27.6473 61.5692 27.3852 61.4141C27.1283 61.1901 26.8611 61.1039 26.6468 61.229Z" fill="#1E1E1E"/>
<path d="M29.0013 31.6992C29.1949 31.8495 29.4718 31.7979 29.6077 31.8065C29.9525 31.7591 30.3126 31.5055 30.4637 31.3077C30.9324 30.5083 30.2307 29.8425 30.032 29.7609C25.6504 26.2383 21.4353 22.3118 17.5224 17.9899C17.3338 17.7708 17.0671 17.6849 16.7953 17.6678C16.5235 17.6507 16.1736 17.7668 16.0225 17.9645C15.5215 18.2784 15.5386 18.9702 15.9158 19.4084C19.8286 23.7304 24.2324 27.876 29.0013 31.6992Z" fill="#1E1E1E"/>
<path d="M66.889 24.2698C67.6985 24.2525 68.0118 23.6538 68.0519 23.1065C68.154 22.6319 68.1841 22.2214 68.2863 21.7468L68.4956 20.7291C68.6998 19.7798 68.8321 18.8947 69.0313 18.0139C69.4299 16.2522 69.8335 14.4221 70.299 12.6647C70.3912 12.3269 70.3492 11.9806 70.1681 11.6942C70.0491 11.4804 69.858 11.3308 69.6619 11.2496C69.4658 11.1685 69.2596 11.2241 69.0535 11.2797C68.8474 11.3354 68.4301 11.5151 68.2609 11.9854C67.3247 15.5687 66.5075 19.3657 65.8865 23.2439C65.8715 23.4491 65.9235 23.6586 66.1095 23.8766C66.3627 24.0989 66.6208 24.2528 66.889 24.2698Z" fill="#1E1E1E"/>
<path d="M96.6368 69.8436C96.5058 69.7661 96.1708 69.6758 95.8885 69.7964C95.6113 69.8482 95.3239 70.0377 95.2407 70.24C95.1625 70.3735 94.9959 70.7783 95.0436 71.0581C95.0912 71.3379 95.212 71.5532 95.5998 71.8544C98.3722 74.1053 101.374 76.0247 104.606 77.6124C105.067 77.8491 105.271 77.862 105.48 77.8059C105.757 77.7542 106.044 77.5647 106.128 77.3623C106.284 77.0953 106.315 76.682 106.272 76.3333C106.219 76.1224 106.093 75.976 105.894 75.8943C102.673 74.1687 99.5402 72.1719 96.6368 69.8436Z" fill="#1E1E1E"/>
<path d="M129.088 62.8481C123.491 60.7533 117.679 58.7841 111.989 57.0315C111.721 56.9449 111.449 56.9277 111.239 56.984C110.888 57.1011 110.669 57.296 110.507 57.6339C110.418 57.9068 110.393 58.2533 110.572 58.6128C110.693 58.8293 110.819 58.9766 111.018 59.0588C116.777 60.8157 122.589 62.7849 128.254 64.884C128.784 65.1264 129.49 64.823 129.668 64.2773C129.756 64.0044 129.782 63.6578 129.661 63.4413C129.482 63.0819 129.287 62.9303 129.088 62.8481Z" fill="#1E1E1E"/>
<path d="M94.1116 13.8836C94.4277 13.2839 95.1242 13.0524 95.5451 12.8724L95.6855 12.8124C96.808 12.3324 97.7902 11.9123 98.5323 11.064C98.7554 10.8027 98.6555 10.3144 98.4052 10.0232L97.7897 9.1582C97.7998 9.02113 97.8048 8.9526 97.815 8.81553C97.82 8.747 97.8978 8.6142 98.033 8.62273L99.9298 7.77841C100.21 7.6584 100.361 7.46133 100.381 7.1872C100.406 6.84453 100.229 6.48907 99.9735 6.26641C99.7131 6.11228 99.5102 6.09949 99.2296 6.2195L96.0649 7.67238C95.8519 7.79665 95.7065 7.92519 95.6237 8.12652C95.5358 8.39639 95.5781 8.74333 95.7608 9.03025L96.554 10.2508C96.6165 10.3236 96.6064 10.4606 96.6014 10.5292C96.5963 10.5977 96.5186 10.7305 96.3833 10.722L95.9624 10.902C95.7494 11.0263 95.5414 11.082 95.2658 11.1335C95.0579 11.1892 94.9176 11.2492 94.7773 11.3092C93.9354 11.6692 93.2913 12.1106 92.7673 12.7661C92.3109 13.4258 92.0524 14.1669 92.1421 14.7922C92.1845 15.1391 92.2944 15.4903 92.5447 15.7815L92.8525 16.2141C92.9151 16.2869 92.905 16.4239 92.8949 16.561C92.8171 16.6938 92.7444 16.7581 92.6092 16.7495L91.7824 16.904C90.6802 17.1099 90.0614 17.2085 89.7302 18.0139C89.5595 18.4851 89.6492 19.1104 90.0246 19.5472C90.0246 19.5472 90.1498 19.6928 90.2073 19.8341L90.5827 20.2709C90.6453 20.3437 90.7028 20.485 90.625 20.6178C90.6149 20.7549 90.4746 20.8149 90.4019 20.8792L89.9134 21.0549C89.773 21.1149 89.7054 21.1107 89.6327 21.1749C89.4248 21.2307 89.2168 21.2864 88.9413 21.3379L88.6657 21.3894C87.418 21.7238 86.7164 22.0238 86.5881 22.842C86.3466 24.2726 87.708 26.0798 88.0733 26.6536C88.1934 26.8678 88.3912 26.9491 88.5941 26.9619C88.797 26.9747 89.0049 26.919 89.223 26.7261C89.2957 26.6619 89.8772 26.1477 89.4493 25.5011C89.1415 25.0686 88.7711 24.5632 88.536 24.0664L88.3584 23.711C88.2959 23.6382 88.306 23.5011 88.3787 23.4368C88.4514 23.3726 88.524 23.3083 88.5967 23.244L89.6365 22.9653C89.8444 22.9096 89.9847 22.8496 90.1927 22.7939C90.8165 22.6266 91.513 22.3952 91.9593 21.8725C92.4055 21.3498 92.5863 20.7415 92.4915 20.1847C92.434 20.0434 92.3815 19.8335 92.3291 19.6237L92.0889 19.1954C92.0263 19.1226 92.0365 18.9855 92.1142 18.8527C92.1919 18.7199 92.2596 18.7242 92.3323 18.6599L92.8158 18.5527C93.6425 18.3983 94.2663 18.2311 94.7025 17.8455C94.9932 17.5884 95.1538 17.2543 95.1791 16.9116C95.2195 16.3633 94.9269 15.7252 94.5515 15.2884C94.4889 15.2156 94.4264 15.1428 94.3587 15.1386C94.1034 14.9159 93.8582 14.5562 94.1691 14.025L94.1116 13.8836Z" fill="#1E1E1E"/>
</svg>
