<svg width="122" height="131" viewBox="0 0 122 131" fill="none" xmlns="http://www.w3.org/2000/svg">
<path d="M35.9014 37.9769C33.9008 48.1489 26.793 78.782 23.4892 92.8271L23.4388 97.5859L23.3884 102.345L26.5272 103.899L76.9014 113.69C77.6986 112.888 79.4542 110.967 80.0987 109.691C80.7432 108.416 81.475 103.861 81.7603 101.743C85.3129 89.0176 92.9048 62.292 94.8517 57.1962C96.7986 52.1005 97.856 46.5909 98.1413 44.4731C97.3721 42.6305 95.6793 38.6297 95.0617 37.3673L95.061 37.3658C94.2883 35.7863 91.9727 31.0531 88.8605 27.121C86.9875 25.237 80.7403 24.2968 77.8509 24.0622C67.3531 22.3199 45.5687 18.8434 42.4135 18.8759C38.4695 18.9166 38.4022 25.2619 35.9014 37.9769Z" fill="white"/>
<path d="M57.0254 79.2634C54.4167 78.6356 53.2933 82.8567 55.902 83.4844C58.5107 84.1122 59.6341 79.8911 57.0254 79.2634Z" fill="#F7C300"/>
<path d="M55.2801 89.4097C52.6714 88.782 51.548 93.0029 54.1566 93.6307C56.7653 94.2584 57.8887 90.0375 55.2801 89.4097Z" fill="#F7C300"/>
<path d="M52.5007 97.7523C49.892 97.1245 48.7686 101.346 51.3773 101.973C53.986 102.601 55.1094 98.3801 52.5007 97.7523Z" fill="#F7C300"/>
<path d="M58.9201 32.3008C58.2298 30.2899 54.1446 28.8325 51.9576 28.9915C51.329 29.051 50.86 29.2017 50.4222 29.4653C49.3904 29.4279 48.3552 29.864 47.9944 30.9894C47.3963 33.0064 46.7982 35.0235 46.2 37.0405C45.681 38.7603 47.614 40.0161 49.3978 39.7601C51.8102 39.4446 55.1877 41.2588 56.9099 38.9324C57.5899 37.9892 57.8619 36.737 58.2095 35.6611C58.6591 34.6625 59.303 33.3943 58.9201 32.3008Z" fill="#F7C300"/>
<path d="M93.2684 51.3266C93.7921 49.165 94.3029 47.0524 94.8267 44.8909C95.065 43.8044 95.3162 42.6691 95.091 41.6269C94.8529 40.6335 94.1724 39.7934 93.4919 38.9533C92.0627 37.1527 90.8138 35.2395 89.7324 33.2628C88.6511 31.2861 87.6688 29.1253 85.908 27.8167C84.4386 26.7343 82.5386 26.328 80.733 25.9445C77.7823 25.3368 74.8185 24.7779 71.8678 24.1702C63.5344 22.4722 55.0938 20.8003 46.5598 20.6138C44.1185 20.5449 43.2705 21.8483 42.4849 24.0506C40.357 29.9849 39.4084 36.2037 38.4257 42.3623C37.4689 48.4231 35.8516 54.3246 34.5045 60.3432C34.1105 62.0161 33.7294 63.64 33.3354 65.3129C31.8844 71.7225 30.3344 78.3161 28.2735 87.0224L24.7582 101.774C24.6803 102.067 24.7098 102.334 24.8596 102.526L24.8938 102.586L24.8678 102.684C24.8501 102.94 24.9091 103.474 25.5825 103.584C31.8743 104.842 38.1191 106.088 44.398 107.395C49.3902 108.443 54.5629 109.378 59.6495 110.449C62.2098 111.015 64.7702 111.58 67.3176 112.195C68.6385 112.513 69.9464 112.881 71.2071 113.237C71.8074 113.434 72.9561 114.023 73.481 113.369C74.2771 112.262 72.5364 111.634 71.8417 111.414C60.2121 108.141 48.2369 105.981 36.3737 103.587C33.2814 102.945 30.2234 102.364 27.1311 101.722L26.848 101.654L26.9259 101.36C28.9478 92.8007 30.4589 86.3536 31.9182 80.102C33.3774 73.8504 34.8414 67.392 36.9105 58.8437L39.2697 49.0134C40.6723 43.1641 41.1527 37.1964 42.4609 31.3243C43.0283 28.8094 43.6901 26.3172 44.5406 23.8705C45.0501 22.3295 45.8309 22.4138 47.1695 22.4767C47.916 22.5008 48.6024 22.5623 49.3489 22.5864C55.1278 22.9404 60.9185 23.8171 66.5924 25.1336C72.3606 26.4729 78.1596 27.5077 83.8936 28.7867C82.9476 31.7823 82.1903 34.8234 81.6216 37.9101C81.565 38.3124 81.4954 38.7636 81.7006 39.125C81.9529 39.4979 82.4247 39.6117 82.8622 39.6652C86.2163 40.2662 89.5315 41.0139 92.7818 42.0058C93.0177 42.0627 93.2406 42.1685 93.3903 42.3606C93.4929 42.5413 93.4623 42.8459 93.3974 43.0902C90.4223 55.9957 86.7868 68.7419 83.0097 81.454C80.4901 89.9977 78.3137 98.5721 76.0299 107.173C75.8872 107.71 75.8258 108.319 76.2457 108.629C76.5841 108.866 77.0866 108.675 77.3791 108.33C77.6716 107.985 77.7884 107.545 77.845 107.143C79.3691 100.647 81.0347 94.1848 82.8891 87.7685C84.7045 81.4988 86.8973 75.3202 88.7256 69.0016C90.2226 63.1751 91.6983 57.2394 93.2684 51.3266ZM90.4963 39.2707C88.3393 38.6984 86.1091 38.2125 83.866 37.7755L83.5829 37.7072L83.6608 37.414C84.0902 35.2297 84.614 33.0682 85.2451 30.8806L85.4267 30.1964L85.7817 30.75C87.3595 33.3144 89.053 36.0107 90.8407 38.7298L91.2641 39.4039L90.4963 39.2707Z" fill="#1E1E1E"/>
<path d="M54.492 29.1505L50.9696 28.146C50.4472 28.0203 50.1526 28.3677 50.0611 28.7117C49.9695 29.0557 50.0287 29.5928 50.5985 29.7299L53.3742 30.5024C53.5167 30.5367 53.6591 30.571 53.8016 30.6052C54.0865 30.6738 54.419 30.7538 54.6908 30.8715L54.8808 30.9172C55.0232 30.9515 55.092 31.0726 55.0872 31.2806C55.1037 31.5983 55.0252 31.8931 54.9943 32.1994C54.955 32.3468 54.9289 32.4451 54.9502 32.5548C54.8669 33.0576 54.7967 33.5113 54.7134 34.0142C54.6301 34.517 54.5468 35.0198 54.4634 35.5226L54.2707 36.6266L54.0546 36.6791C53.791 36.7203 53.4799 36.75 53.2768 36.7534L53.0738 36.7569C52.4516 36.8163 51.9031 36.7889 51.3546 36.7615C50.3181 36.6689 49.2258 36.4061 48.3284 35.981C48.2334 35.9581 48.104 35.8747 48.009 35.8519L47.8321 35.757L47.837 35.549C47.8631 35.4507 47.8418 35.341 47.881 35.1936L47.9072 35.0953C47.9692 34.4828 48.0311 33.8703 48.1406 33.2692C48.3726 32.0178 48.7127 30.7402 49.1477 29.4854C49.2 29.2888 49.1918 29.13 49.0885 28.9483C48.9984 28.7174 48.7871 28.562 48.5972 28.5163C48.1698 28.4135 47.8063 28.6397 47.6281 29.1197C46.8888 31.1379 46.4688 33.2852 46.2994 35.4405C46.2898 35.8564 46.2801 36.2724 46.5341 36.6473C46.788 37.0221 47.2842 37.2461 47.7329 37.4586C48.691 37.846 49.5802 38.1123 50.4481 38.2688C51.424 38.3991 52.4261 38.431 53.2988 38.3796L53.5018 38.3762C54.5906 38.2722 55.537 38.1339 55.7724 37.2494C55.8509 36.9545 55.895 36.5991 55.939 36.2437C55.9783 36.0963 55.97 35.9374 56.0092 35.79C56.1056 35.2381 56.202 34.6861 56.264 34.0736C56.3473 33.5707 56.4306 33.0679 56.4664 32.5537C56.4926 32.4554 56.4843 32.2965 56.5105 32.1982C56.5676 31.7937 56.6248 31.3892 56.6213 31.0223C56.5684 29.7024 55.4418 29.379 54.492 29.1505Z" fill="#1E1E1E"/>
<path d="M48.6653 79.7336C48.6441 79.6247 48.657 79.5759 48.6358 79.4671C48.6147 79.3582 48.6276 79.3095 48.6064 79.2006C48.1724 78.0064 48.9004 77.1452 48.0131 76.1525C47.945 76.0322 47.8639 75.9608 47.7828 75.8893C47.4714 75.5546 47.0143 75.3921 46.4246 75.3532C46.2965 75.2703 46.2155 75.1988 46.0874 75.116C44.5763 74.0242 42.7436 73.5807 41.26 73.8961C41.1531 73.9221 41.0462 73.9481 40.9394 73.9741C39.419 73.295 37.8802 73.4413 37.014 75.2027C36.9412 75.2888 36.9024 75.4351 36.8766 75.5326C36.7863 75.8738 36.7301 76.2751 36.7549 76.748C36.6821 76.8341 36.6563 76.9316 36.5706 77.0664C36.108 77.6807 35.7348 78.524 35.404 79.585C34.0925 84.3507 32.734 89.1051 31.4355 93.822C30.4724 97.2716 31.8406 99.4699 33.6613 99.3918C33.7682 99.3658 33.8622 99.3885 33.9691 99.3625C34.0889 99.2878 34.2428 99.2731 34.3497 99.2471C34.5035 99.2325 34.5975 99.2552 34.7514 99.2406C36.2718 99.9197 37.0826 100.635 38.4924 100.976C38.5182 100.878 38.497 100.769 38.5228 100.672C39.4673 100.693 40.5859 101.378 41.6031 101.313C41.71 101.287 41.804 101.31 41.9109 101.284C42.3808 101.398 42.9798 101.024 43.5787 100.65C43.7584 100.538 43.81 100.343 43.8017 100.186C43.7806 100.077 43.7465 100.017 43.6783 99.8964C43.6571 99.7875 43.6359 99.6787 43.5806 99.5097C43.7649 99.1912 43.988 98.7265 44.1041 98.2878C44.1299 98.1903 44.1686 98.0441 44.1944 97.9466C44.2672 97.8605 44.3658 97.6769 44.4773 97.4445C44.5031 97.347 44.563 97.3096 44.5888 97.2121C44.6838 96.6646 44.7022 95.8391 44.7419 95.1226C44.7207 95.0137 44.7594 94.8675 44.7852 94.77C44.8332 94.2111 46.0311 93.4636 45.3271 92.7227C45.3658 92.5764 45.3917 92.4789 45.4304 92.3327C45.963 90.6981 46.4146 88.992 46.8874 87.3948C47.6947 85.1004 48.8366 82.109 48.6653 79.7336Z" fill="#F7C300"/>
<path d="M47.9974 75.1535L39.8054 73.0173C39.2881 72.8922 38.9966 73.2369 38.9062 73.5783C38.8157 73.9197 38.8747 74.4528 39.4261 74.6381L46.8785 76.5436C47.0196 76.5777 47.1607 76.6119 47.3018 76.646C47.584 76.7142 47.9132 76.7938 48.1825 76.9108L48.3706 76.9563C48.5117 76.9904 48.58 77.1107 48.5753 77.3171C48.5919 77.6325 48.5143 77.9251 48.4839 78.2291C48.4451 78.3754 48.4193 78.473 48.4404 78.5819C48.3583 79.081 48.289 79.5313 48.2069 80.0304C48.1247 80.5294 43.3915 98.586 43.3093 99.0851L43.1191 100.181L42.9052 100.233C42.6442 100.274 42.3361 100.303 42.1351 100.306L41.934 100.309C41.3179 100.368 40.7747 100.341 40.2315 100.313C39.2051 100.22 33.4201 98.8218 32.5311 98.3993C32.4499 98.3278 32.3088 98.2937 32.2148 98.271L32.0396 98.1767L32.0442 97.9702C32.07 97.8727 32.0618 97.715 32.0876 97.6175L32.1135 97.5199C32.1744 96.9119 32.2483 96.2552 32.3563 95.6586C32.5982 94.3678 37.5852 75.5422 38.0151 74.2969C38.0668 74.1019 38.0585 73.9442 37.9562 73.7637C37.8668 73.5345 37.6575 73.3802 37.4693 73.3347C37.046 73.2323 36.6734 73.5055 36.4972 73.9818C35.7535 76.0335 30.675 95.771 30.5087 97.9104C30.4994 98.3233 30.4772 98.7849 30.7289 99.1572C30.9677 99.5782 31.4721 99.752 31.9166 99.9633C32.8655 100.348 38.4495 101.75 39.309 101.906C40.2755 102.036 41.2679 102.068 42.1449 101.969L42.346 101.966C43.4241 101.863 44.3611 101.727 44.6066 100.8C44.6971 100.458 44.7405 100.106 44.7709 99.8017C44.8097 99.6554 44.8014 99.4977 44.8402 99.3514C44.9482 98.7548 49.6814 80.6982 49.7424 80.0902C49.8246 79.5912 49.9197 79.0433 49.9548 78.5329C49.9935 78.3865 49.9724 78.2776 50.0111 78.1313C50.0674 77.7298 50.1238 77.3282 50.1201 76.9641C50.0539 75.7026 48.9381 75.381 47.9974 75.1535Z" fill="#1E1E1E"/>
<path d="M45.2423 45.8017C57.6072 48.2522 69.9747 51.2949 82.0552 54.8573C82.7791 55.0386 83.2462 54.6178 83.3496 54.2134C83.5401 53.6696 83.3445 53.0291 82.537 52.7731C77.0517 51.1309 71.4312 49.6161 65.833 48.2144C59.1732 46.547 52.4745 45.0311 45.7724 43.7295C44.9873 43.5867 44.5073 44.0581 44.3651 44.614C44.297 45.081 44.5055 45.671 45.2423 45.8017Z" fill="#1E1E1E"/>
<path d="M72.8699 58.4662C73.25 58.1849 73.3795 57.6796 73.1194 57.292C72.9782 57.0417 72.6922 56.7552 71.9685 56.5743C62.9903 54.5453 53.9191 52.278 45.1056 49.8063C45.0574 49.7943 45.0574 49.7943 45.0091 49.7822C43.9959 49.529 43.4804 49.9378 43.3639 50.3925C43.1732 50.9362 43.5133 51.6126 44.6101 51.9405C53.4718 54.4242 62.4465 56.6674 71.4247 58.6964C72.2096 58.8388 72.6604 58.6827 72.8699 58.4662Z" fill="#1E1E1E"/>
<path d="M74.7177 71.6802C75.1461 71.4109 75.2753 70.9056 74.9668 70.5057C74.8255 70.2552 74.4429 69.9443 73.6225 69.7389C63.195 67.3434 52.7227 64.7216 42.4116 61.8713C42.3633 61.8592 42.3633 61.8592 42.3151 61.8471C41.1568 61.5571 40.5932 61.9538 40.4286 62.3966C40.2381 62.9404 40.6268 63.6292 41.9168 64.006C52.1797 66.8443 62.652 69.4661 73.0312 71.8495C73.9128 72.0164 74.4601 71.8845 74.7177 71.6802Z" fill="#1E1E1E"/>
<path d="M63.0083 62.2935C63.2921 61.9881 63.422 61.4834 63.3071 61.1325C63.2144 60.8946 63.0252 60.6327 62.4947 60.5007C56.0288 59.1065 49.5667 57.4985 43.2177 55.65L43.1694 55.638C42.4461 55.458 42.0268 55.8907 41.9099 56.345C41.767 56.9002 41.9134 57.5274 42.7203 57.7819C49.021 59.6184 55.4832 61.2265 61.9491 62.6207C62.4444 62.6902 62.8116 62.4594 63.0083 62.2935Z" fill="#1E1E1E"/>
<path d="M84.6961 67.7829C84.9319 67.4658 85.0621 66.9616 84.9956 66.6232C84.9513 66.3976 84.7623 66.1362 84.3767 66.0405C79.1187 64.951 73.8163 63.6359 68.6755 62.0927L68.6273 62.0807C68.0488 61.9372 67.6776 62.3817 67.5604 62.8355C67.4172 63.3901 67.515 64.0045 68.1286 64.2103C73.2695 65.7536 78.5236 67.0567 83.7817 68.1462C84.2285 68.2034 84.5477 67.9607 84.6961 67.7829Z" fill="#1E1E1E"/>
<path d="M59.8407 81.6109C59.904 80.4236 59.1815 79.1518 58.1285 78.7416C57.8092 78.6124 57.5718 78.5553 57.2951 78.6456C57.2346 78.6833 57.1265 78.7096 57.0529 78.7964L56.7501 78.985L56.6386 78.6445C56.6517 78.5953 56.6042 78.5839 56.6173 78.5348L56.5828 78.4742C56.4452 78.232 56.1865 78.0651 55.949 78.008C55.7116 77.9509 55.4005 77.9806 55.1583 78.1314C54.1549 78.6742 53.6724 79.9175 53.3633 80.8888C52.8973 82.4497 54.0521 83.6164 54.8153 84.166C55.2722 84.5374 55.8764 84.7351 56.5199 84.7854C57.0209 84.8013 57.5006 84.7076 58.0932 84.3797C59.0966 83.8369 59.7773 82.7982 59.8407 81.6109ZM57.6322 82.1251L57.6191 82.1743C57.5455 82.2611 57.4849 82.2988 57.4113 82.3857L57.3507 82.4234L57.2901 82.4611C57.2901 82.4611 57.2296 82.4988 57.169 82.5365C57.0954 82.6234 56.9398 82.6382 56.8449 82.6154C56.7974 82.6039 56.7974 82.6039 56.7499 82.5925L56.6549 82.5696C56.6074 82.5582 56.5599 82.5468 56.5125 82.5354C56.465 82.5239 56.4175 82.5125 56.4175 82.5125C56.4175 82.5125 56.3094 82.5388 56.4175 82.5125C56.3094 82.5388 56.262 82.5274 56.167 82.5045C56.1195 82.4931 56.0376 82.4211 56.0507 82.372L56.0032 82.3605C55.9213 82.2886 55.8738 82.2771 55.8394 82.2166C55.7575 82.1446 55.6756 82.0726 55.6068 81.9515L55.5724 81.8909L55.4348 81.6486L55.4609 81.5504C55.5132 81.3538 55.5786 81.1081 55.6784 80.923C55.7913 80.6888 55.9042 80.4545 56.004 80.2694L56.1987 80.1071C56.2593 80.0694 56.2593 80.0694 56.2593 80.0694L56.3199 80.0317L56.6227 79.8432L56.7342 80.1837C56.8112 80.4636 56.9619 80.6568 57.1519 80.7025C57.2469 80.7253 57.3762 80.8087 57.4581 80.8807L57.5056 80.8921C57.5056 80.8921 57.54 80.9527 57.5875 80.9641C57.5875 80.9641 57.6219 81.0247 57.6694 81.0361L57.7038 81.0967C57.7038 81.0967 57.7038 81.0967 57.7382 81.1573C57.7857 81.1687 57.7726 81.2178 57.8201 81.2292L57.8545 81.2898C57.9447 81.5206 57.9873 81.74 57.8875 81.9252C57.8614 82.0234 57.8483 82.0726 57.7746 82.1594C57.6927 82.0874 57.6927 82.0874 57.6322 82.1251Z" fill="#1E1E1E"/>
<path d="M55.0242 100.643C55.0876 99.4556 54.3651 98.1838 53.3121 97.7736C52.9928 97.6444 52.7554 97.5873 52.4787 97.6776C52.4181 97.7153 52.3101 97.7416 52.2364 97.8284L51.9336 98.017L51.8221 97.6764C51.8352 97.6273 51.7877 97.6159 51.8008 97.5667L51.7664 97.5062C51.6288 97.2639 51.37 97.0971 51.1326 97.04C50.8952 96.9828 50.5841 97.0125 50.3418 97.1634C49.3384 97.7062 48.8559 98.9495 48.5468 99.9208C48.0808 101.482 49.2356 102.648 49.9988 103.198C50.4557 103.569 51.06 103.767 51.7035 103.817C52.2045 103.833 52.6842 103.74 53.2767 103.412C54.2802 102.869 54.9739 101.781 55.0242 100.643ZM52.8894 101.07C52.8763 101.119 52.8157 101.157 52.8157 101.157C52.8027 101.206 52.7552 101.195 52.7421 101.244C52.729 101.293 52.6685 101.331 52.6685 101.331L52.6079 101.369L52.5473 101.406C52.5473 101.406 52.4868 101.444 52.4262 101.482L52.3051 101.557C52.2445 101.595 52.197 101.583 52.1364 101.621L52.0284 101.647C51.9809 101.636 51.9809 101.636 51.9334 101.624L51.8385 101.602C51.791 101.59 51.7435 101.579 51.696 101.567C51.6485 101.556 51.5535 101.533 51.506 101.522L51.4111 101.499C51.3636 101.487 51.3636 101.487 51.3161 101.476C51.2686 101.465 51.2342 101.404 51.1867 101.393L51.1392 101.381C51.0574 101.309 51.0099 101.298 50.9755 101.237C50.8936 101.165 50.8117 101.093 50.7429 100.972L50.7084 100.911L50.5364 100.609L50.5626 100.51C50.6149 100.314 50.6803 100.068 50.7801 99.883C50.893 99.6488 51.0058 99.4145 51.1056 99.2294L51.3004 99.0671C51.361 99.0294 51.361 99.0294 51.361 99.0294L51.4215 98.9917L51.7244 98.8031L51.8358 99.1437C51.9129 99.4236 52.0636 99.6167 52.2535 99.6625C52.3485 99.6853 52.4779 99.7687 52.5598 99.8407L52.6073 99.8521C52.6073 99.8521 52.6417 99.9127 52.6892 99.9241C52.6892 99.9241 52.7236 99.9847 52.7711 99.9961L52.8055 100.057C52.8399 100.117 52.8399 100.117 52.8743 100.178L52.93 100.348C53.0938 100.492 53.0497 100.847 52.8894 101.07Z" fill="#1E1E1E"/>
<path d="M57.9717 91.0965C57.7698 90.5243 57.4597 89.9784 57.0283 89.508C56.7954 89.2425 56.5838 89.0869 56.3591 88.9805C55.9098 88.7676 55.4556 88.763 54.9491 88.9553L54.7196 89.0571L54.5817 88.8145C54.5604 88.7047 54.4784 88.6326 54.4308 88.6211C54.2668 88.4769 54.0897 88.3819 53.947 88.3476C53.8519 88.3247 53.8044 88.3133 53.6962 88.3396C53.4322 88.3808 53.2027 88.4826 52.947 88.6829C52.5569 89.0079 52.0931 89.4199 51.7933 89.9761C51.4197 90.6192 51.3315 91.3311 51.5203 91.9525C51.8208 92.9149 52.636 93.8442 53.7938 94.437C54.5023 94.8169 55.1205 94.9657 55.6353 94.9325C56.2583 94.873 56.8255 94.643 57.2549 94.1703C57.9661 93.399 58.2935 92.1688 57.9717 91.0965ZM55.9572 92.3919L55.7704 92.7135L55.636 92.8382L55.4803 92.8531C55.4327 92.8417 55.3852 92.8302 55.3376 92.8188C55.2901 92.8073 55.2425 92.7959 55.195 92.7844C54.9703 92.678 54.6981 92.5601 54.439 92.3931L54.2618 92.2981C54.1323 92.2145 54.0158 92.0818 53.8993 91.949C53.8173 91.8769 53.7829 91.8163 53.7009 91.7442L53.6189 91.6721C53.5844 91.6114 53.5499 91.5508 53.5155 91.4901L53.4252 91.259L53.4645 91.1113L53.5038 90.9637C53.5169 90.9145 53.5169 90.9145 53.5775 90.8767L53.725 90.7028C53.7988 90.6158 53.8594 90.578 53.9332 90.4911L54.2757 90.1546L54.448 90.4579C54.6203 90.7611 54.94 90.8905 55.2384 90.9099L55.3336 90.9328L55.4156 91.0049C55.45 91.0656 55.4976 91.077 55.4976 91.077L55.614 91.2098C55.6961 91.2819 55.7305 91.3425 55.765 91.4032L55.8897 91.695C55.9242 91.7556 55.9111 91.8048 55.9455 91.8655L55.962 92.1836C56.031 92.3049 56.0179 92.3541 55.9572 92.3919Z" fill="#1E1E1E"/>
<path d="M59.9305 102.083C64.4319 102.713 68.9123 103.82 73.192 105.307C73.3847 105.354 73.6386 105.363 73.8835 105.21C74.1766 105.068 74.3512 104.79 74.4295 104.487C74.5991 103.833 74.1605 103.349 73.6918 103.18C71.6724 102.467 69.6269 101.854 67.5072 101.33C65.1947 100.758 62.9044 100.3 60.5267 99.9798C59.9837 99.8992 59.4106 100.133 59.241 100.787C59.1627 101.089 59.2289 101.427 59.4176 101.688C59.51 101.925 59.7378 102.035 59.9305 102.083Z" fill="#1E1E1E"/>
<path d="M75.7683 95.9407C76.0524 95.6359 76.183 95.1327 76.0686 94.7832C76.0245 94.5581 75.8359 94.2973 75.4024 94.1903L62.2798 91.4327C61.6054 91.2662 61.1598 91.7988 61.0161 92.3524C60.8986 92.8053 61.0571 93.3799 61.7314 93.5464L74.8541 96.304C75.3006 96.3607 75.6067 96.1685 75.7683 95.9407Z" fill="#1E1E1E"/>
<path d="M79.2866 85.7318C74.0782 84.657 68.8778 83.1553 63.7908 81.4137C63.7426 81.4018 63.7426 81.4018 63.6944 81.3898C63.4053 81.3183 63.1864 81.3713 62.9897 81.5371C62.7187 81.7917 62.5532 82.2332 62.6417 82.6839C62.6859 82.9093 62.8226 83.372 63.3526 83.5032C68.3785 85.2833 73.5437 86.7227 78.7521 87.7975C79.4267 87.9644 79.8723 87.4314 80.0157 86.8772C80.12 86.4742 80.0224 85.8603 79.2866 85.7318Z" fill="#1E1E1E"/>
<path d="M49.6009 16.6311C47.9858 16.1811 46.3932 15.8403 44.7528 15.4878C43.9263 15.3358 43.1251 15.0865 42.2605 15.0807C41.4566 15.0381 40.8033 15.3956 40.2205 15.8741C37.6571 18.0941 37.0229 21.5156 36.5 24.7053C36.4086 25.2532 36.9423 25.7478 37.4464 25.7683C38.0462 25.8125 38.4122 25.3842 38.5036 24.8363C38.9099 22.292 39.3569 19.3947 41.3628 17.5558C41.8372 17.1024 42.1146 17.0152 42.7496 17.1199C43.4325 17.2364 44.1154 17.3529 44.7857 17.5181C46.1867 17.8117 47.5272 18.1422 48.903 18.5332C50.1956 18.8519 50.8456 16.938 49.6009 16.6311Z" fill="#1E1E1E"/>
<path d="M57.1411 110.93C52.0746 109.878 46.9598 108.814 41.8933 107.761C40.6266 107.498 40.1165 109.485 41.3832 109.748C46.4497 110.8 51.5645 111.864 56.631 112.916C57.8976 113.179 58.4077 111.193 57.1411 110.93Z" fill="#1E1E1E"/>
<path d="M102.84 24.751C102.916 24.4588 103.027 24.2271 103.103 23.9348C103.315 23.3134 103.528 22.692 103.788 22.0824C104.296 20.912 104.899 19.7651 105.621 18.751C105.853 18.4454 106.309 18.4542 106.606 18.6829C106.654 18.6947 106.641 18.7434 106.689 18.7552C106.772 18.8275 106.903 18.9116 106.986 18.9839C108.201 20.579 109.463 22.186 110.678 23.7812C110.867 24.035 110.814 24.4364 110.607 24.6446C110.155 25.207 109.387 25.2249 108.749 25.3268L106.764 25.7184C106.066 25.8573 105.32 25.9843 104.622 26.1232C103.985 26.2252 103.007 26.6578 102.67 25.7975C102.555 25.458 102.691 25.1289 102.84 24.751ZM106.566 24.3222C107.108 24.1967 107.637 24.1198 108.179 23.9942C108.444 23.9558 108.66 23.9056 108.925 23.8671C108.052 22.7191 107.179 21.571 106.259 20.4112C105.83 21.0828 105.436 21.8149 105.125 22.6194C104.89 23.1315 104.703 23.6555 104.516 24.1795C104.465 24.3743 104.367 24.5574 104.316 24.7522C104.533 24.702 104.737 24.7004 104.954 24.6502L106.566 24.3222Z" fill="#1E1E1E"/>
<path d="M11.6508 76.2783C11.8646 76.4346 12.0784 76.591 12.3401 76.7591C12.8507 77.144 13.3614 77.5289 13.8242 77.902C14.7851 78.7088 15.6376 79.5406 16.3918 80.5554C16.6155 80.8695 16.489 81.3564 16.174 81.5895C16.1613 81.6382 16.1135 81.6264 16.1135 81.6264C16.0404 81.712 15.9195 81.7858 15.7985 81.8596C13.9998 82.7111 12.2489 83.5745 10.4502 84.4261C10.1605 84.5619 9.80322 84.3702 9.64986 84.177C9.29809 83.5722 9.45261 82.7815 9.52137 82.125L9.71775 79.9977C9.76398 79.2321 9.85803 78.4782 9.93943 77.7731C10.0082 77.1166 9.89117 75.9999 10.7801 75.9082C11.0698 75.7725 11.354 76.0497 11.6508 76.2783ZM11.0469 80.17C11.0035 80.7291 10.96 81.2882 10.8687 81.8356C10.8533 82.0908 10.8379 82.346 10.8099 82.6499C12.0896 82.033 13.3694 81.4161 14.697 80.8109C14.1891 80.2195 13.6334 79.6163 13.0045 79.0986C12.5895 78.7373 12.1619 78.4246 11.782 78.1238C11.6034 78.0279 11.4852 77.8952 11.3192 77.7506C11.3164 77.9572 11.2532 78.2006 11.2505 78.4071L11.0469 80.17Z" fill="#1E1E1E"/>
<path fill-rule="evenodd" clip-rule="evenodd" d="M95.6735 94.5791C94.2819 94.4435 92.7031 94.8323 91.7991 95.9581C90.7867 97.1091 90.5956 98.8256 91.1664 100.159C91.2946 100.45 91.4581 100.802 91.7427 101.079C92.1935 101.502 92.7808 101.595 93.164 101.689C93.6908 101.819 94.3739 101.936 95.0725 101.797C95.9274 101.644 96.6061 101.189 97.1765 100.759C97.6862 100.366 98.1608 99.9126 98.517 99.3261C98.8732 98.7396 99.0885 97.9108 98.8826 97.1339C98.4963 95.4825 97.0651 94.7147 95.6735 94.5791ZM95.4978 96.04C96.5415 96.1417 97.267 96.6837 97.4602 97.5094C97.5405 97.7886 97.4871 98.1904 97.2421 98.5449C97.045 98.9113 96.7043 99.2423 96.2677 99.5496C95.7579 99.9427 95.3341 100.201 94.8524 100.29C94.4791 100.354 94.0355 100.296 93.496 100.215C93.1129 100.12 92.8734 100.061 92.7551 99.9285C92.6719 99.8562 92.6015 99.7351 92.5437 99.5652C92.159 98.6923 92.3418 97.5962 92.9276 96.9107C93.3922 96.299 94.4541 95.9383 95.4978 96.04Z" fill="#59C59F"/>
<path fill-rule="evenodd" clip-rule="evenodd" d="M15.1896 94.4797C13.798 94.3441 12.2192 94.733 11.3152 95.8588C10.3028 97.0097 10.1117 98.7262 10.6825 100.06C10.8107 100.351 10.9742 100.702 11.2588 100.98C11.7096 101.402 12.2969 101.495 12.6801 101.59C13.2069 101.72 13.89 101.836 14.5886 101.697C15.4435 101.545 16.1222 101.09 16.6926 100.66C17.2023 100.267 17.6769 99.8132 18.0331 99.2267C18.3893 98.6402 18.6046 97.8115 18.3987 97.0345C18.0603 95.3949 16.5812 94.6153 15.1896 94.4797ZM15.0013 95.9894C16.045 96.0911 16.7705 96.6331 16.9636 97.4588C17.044 97.738 16.9905 98.1398 16.7456 98.4943C16.5485 98.8607 16.2077 99.1917 15.7711 99.499C15.2614 99.892 14.8375 100.151 14.3558 100.239C13.9826 100.303 13.5389 100.245 12.9994 100.164C12.6163 100.07 12.3768 100.011 12.2585 99.8779C12.1754 99.8056 12.1049 99.6844 12.0471 99.5146C11.6624 98.6417 11.8452 97.5456 12.431 96.86C12.9562 96.2114 13.9702 95.839 15.0013 95.9894Z" fill="#59C59F"/>
</svg>
