<svg width="138" height="125" viewBox="0 0 138 125" fill="none" xmlns="http://www.w3.org/2000/svg">
<path d="M33.8395 106.999C33.7576 106.765 33.6512 106.488 33.5861 106.188C33.39 105.568 33.1938 104.949 33.0223 104.372C32.6959 103.152 32.5016 101.968 32.4974 100.731C32.4904 100.34 32.8627 100.125 33.2509 100.127C33.2922 100.103 33.3169 100.145 33.3415 100.187C33.4489 100.181 33.5562 100.176 33.6883 100.212C35.6024 100.741 37.4751 101.295 39.3892 101.824C39.6532 101.897 39.875 102.276 39.8741 102.558C39.8387 103.255 39.2675 103.697 38.8282 104.176L37.5105 105.613C37.0299 106.116 36.5493 106.618 36.0687 107.121C35.6708 107.576 35.1312 108.451 34.3647 107.992C34.0435 107.727 33.9952 107.36 33.8395 106.999ZM36.5065 104.558C36.8877 104.169 37.2274 103.804 37.5672 103.439C37.7248 103.235 37.907 103.074 38.0892 102.912C36.7031 102.529 35.3584 102.122 33.9723 101.739C34.0523 102.538 34.1736 103.313 34.4023 104.082C34.5492 104.617 34.6714 105.11 34.8597 105.621C34.9169 105.814 34.9741 106.006 35.0312 106.199C35.1721 106.061 35.3129 105.923 35.4291 105.744L36.5065 104.558Z" fill="#1E1E1E"/>
<path d="M27.5578 92.9602C27.6907 92.7144 27.8236 92.4686 27.9812 92.265C28.2884 91.7496 28.6124 91.1681 28.9443 90.6948C29.6247 89.6822 30.3959 88.73 31.2409 87.9042C31.4812 87.6528 31.9846 87.7567 32.157 88.0516C32.1817 88.0937 32.2063 88.1358 32.2063 88.1358C32.297 88.1962 32.3709 88.3226 32.4201 88.4068C33.3475 90.1818 34.2088 91.9385 35.1362 93.7135C35.284 93.9663 35.1422 94.3862 34.9187 94.5716C34.3888 94.9901 33.646 94.8554 33.0185 94.8231L31.0532 94.7742C30.3597 94.7237 29.6495 94.7392 28.956 94.6888C28.3285 94.6565 27.3286 94.8392 27.158 93.9798C27.1511 93.5894 27.3667 93.2958 27.5578 92.9602ZM31.2066 93.3333C31.7267 93.3712 32.2636 93.3431 32.7837 93.3809C33.0231 93.4118 33.2792 93.3767 33.5186 93.4075C32.8869 92.1381 32.1892 90.8504 31.5575 89.5809C31.0601 90.1497 30.546 90.7845 30.1393 91.4137C29.8488 91.8631 29.5583 92.3126 29.3092 92.7381C29.193 92.9179 29.1182 93.0738 29.002 93.2535C29.2167 93.2423 29.3901 93.2549 29.6295 93.2858L31.2066 93.3333Z" fill="#59C59F"/>
<path d="M33.4457 41.2896C33.5786 41.0438 33.7116 40.798 33.8691 40.5944C34.1764 40.079 34.5003 39.4976 34.8322 39.0243C35.5127 38.0117 36.2838 37.0595 37.1289 36.2337C37.3692 35.9823 37.8726 36.0861 38.045 36.381C38.0697 36.4232 38.0943 36.4653 38.0943 36.4653C38.1849 36.5257 38.2589 36.6521 38.3081 36.7363C39.2355 38.5113 40.0968 40.2679 41.0242 42.0429C41.172 42.2956 41.0303 42.7156 40.8067 42.9009C40.2768 43.3195 39.534 43.1848 38.9065 43.1525L36.9412 43.1036C36.2477 43.0531 35.5374 43.0686 34.8439 43.0181C34.2164 42.9859 33.2166 43.1686 33.046 42.3091C33.0557 41.8527 33.296 41.6013 33.4457 41.2896ZM37.0946 41.6627C37.6147 41.7006 38.1516 41.6724 38.6717 41.7103C38.9111 41.7412 39.1672 41.7061 39.4066 41.7369C38.7749 40.4675 38.0771 39.1798 37.4454 37.9104C36.9481 38.4792 36.434 39.114 36.0273 39.7432C35.7368 40.1926 35.4463 40.642 35.1971 41.0675C35.0809 41.2473 35.0061 41.4032 34.8899 41.5829C35.1047 41.5717 35.278 41.5843 35.5174 41.6152L37.0946 41.6627Z" fill="#F7C300"/>
<path fill-rule="evenodd" clip-rule="evenodd" d="M120.013 51.286C118.854 51.955 117.842 53.1593 117.772 54.5533C117.684 56.0133 118.522 57.4465 119.784 58.1841C120.056 58.3653 120.411 58.4988 120.783 58.5662C121.369 58.6223 121.932 58.3539 122.246 58.2288C122.726 58.0081 123.33 57.7158 123.811 57.2127C124.35 56.6196 124.642 55.8875 124.809 55.2271C124.985 54.6748 125.086 53.9961 124.997 53.3708C124.925 52.6794 124.614 51.9572 123.995 51.4683C122.751 50.3822 121.172 50.617 120.013 51.286ZM120.753 52.5506C121.622 52.0488 122.506 52.0459 123.149 52.577C123.38 52.7822 123.552 53.0772 123.584 53.51C123.657 53.9189 123.581 54.3574 123.422 54.8436C123.247 55.3958 123.089 55.8821 122.765 56.1814C122.483 56.4568 122.111 56.6719 121.672 56.8686C121.317 57.0176 121.085 57.0949 120.911 57.0823C120.804 57.0879 120.647 57.0093 120.491 56.9306C119.658 56.4529 119.181 55.5438 119.225 54.6726C119.278 53.9096 119.884 53.0523 120.753 52.5506Z" fill="#59C59F"/>
<path d="M46.8013 46.7725C51.9398 39.0866 60.1789 34.5443 68.6205 32.0324C70.3797 31.5779 72.1397 31.2413 73.9243 31.07C75.6153 30.945 77.354 30.9148 79.0475 31.1436C80.7879 31.3493 82.4822 31.6961 84.1783 32.2787C85.7091 32.7654 87.2408 33.37 88.7265 34.1156C101.676 41.0348 107.496 56.4458 105.293 70.4342C105.069 71.965 104.703 73.4474 104.196 74.8811C102.053 80.8509 96.7434 84.2426 91.0239 86.2386C88.094 87.2714 85.0218 88.1376 81.8544 88.8142C81.7615 88.9784 81.6687 89.1426 81.5759 89.3068C81.2974 89.7994 81.0896 90.3163 80.8111 90.8088C79.0712 93.9759 76.3746 94.775 72.9679 94.8597C67.8464 95.0219 62.1282 93.8811 57.3441 91.924C56.4016 91.561 55.5519 91.0338 54.772 90.413C53.9922 89.7921 53.2821 89.0776 52.7594 88.2706C49.6482 80.339 41.9738 75.0753 41.9356 66.3954C41.9059 65.5224 41.9 64.6969 41.9172 63.8008C42.0981 59.51 43.501 55.2075 44.9285 51.0704C45.1346 50.3177 45.3876 49.5418 45.735 48.8377C46.0595 48.204 46.407 47.4998 46.8013 46.7725Z" fill="white"/>
<path d="M70.0934 41.9849C75.5993 42.5293 81.4774 44.6498 86.688 47.1658C87.7477 47.7012 88.7631 48.2558 89.7282 48.8454C90.6286 49.4101 91.5171 50.0064 92.2846 50.6286C93.0845 51.2634 93.8077 51.9048 94.4424 52.5846C95.0301 53.192 95.5735 53.8185 96.0402 54.4518C99.9493 60.0387 97.0422 64.5219 90.6274 66.0028C89.934 66.1707 89.1877 66.282 88.3885 66.3367C85.0442 66.5529 81.0798 65.2607 77.438 63.6031C75.5685 62.7556 73.6904 61.8323 71.8361 60.8456C71.7271 60.8398 71.618 60.834 71.5089 60.8283C71.1817 60.811 70.8809 60.822 70.5537 60.8047C68.4753 60.7109 66.8121 59.9066 65.0616 58.7423C62.4166 56.9974 59.9647 54.8374 58.2935 52.8694C57.9556 52.4853 57.7269 52.107 57.5689 51.7378C57.4109 51.3686 57.3236 51.0086 57.3659 50.6984C58.8036 48.351 56.928 44.8535 60.1995 43.4487C60.5154 43.2984 60.8255 43.164 61.1738 43.0263C62.8919 42.4009 65.2307 42.1961 67.5192 42.0264C67.9086 41.977 68.3303 41.9401 68.7726 41.9473C69.1765 41.9579 69.6187 41.9651 70.0934 41.9849Z" fill="#F7C300"/>
<path d="M68.4898 35.3968C68.4485 35.4207 68.4485 35.4207 68.4898 35.3968C67.9028 35.623 67.9836 36.1398 68.0901 36.4164C68.2704 36.8194 68.7395 37.3376 69.4093 37.0637C80.8867 32.4675 93.1736 40.4204 98.4826 50.8232C103.644 60.9732 102.309 72.7881 95.1495 80.1322C93.426 81.9159 91.464 83.3864 89.3876 84.4722C88.2046 85.0987 86.9152 85.4485 85.7085 85.7505C84.5678 86.0709 83.5099 86.3434 82.4678 86.8322C81.0119 87.5598 80.2971 88.9867 79.598 90.6299C79.5399 90.7198 79.5064 90.8518 79.473 90.9838C79.0732 92.0034 78.5159 93.2266 77.0531 93.5638C75.7804 93.8476 74.2465 93.2116 73.0672 92.709C72.7786 92.5939 72.4899 92.4787 72.2012 92.3636L63.4499 89.1317C63.0952 88.9983 62.6745 88.8467 62.2125 88.719C59.4737 87.8205 55.7202 86.6061 55.3343 83.3916C55.1893 82.292 55.523 81.2542 55.8065 80.4144C56.1984 79.2866 56.5153 78.3148 55.9329 77.1296C55.3997 76.0286 54.4863 75.0345 53.5729 74.0403C52.7748 73.1486 51.9106 72.2387 51.2947 71.1855C48.0585 65.8409 47.0139 59.513 48.4942 53.8126C49.2807 50.7104 50.7104 47.8566 52.6594 45.323C55.3214 41.927 58.028 40.0266 60.5892 39.6753C60.8867 39.6162 61.0936 39.4969 61.1851 39.275C61.3348 38.9632 61.2372 38.5124 60.9573 38.2231C60.7928 38.0364 60.5376 37.7892 60.0914 37.8778C59.323 37.9832 58.5625 38.1967 57.8514 38.4945C53.4355 40.3108 49.8597 45.3612 47.9712 49.6067C45.6583 54.8297 45.3573 61.0327 47.1395 66.5404C47.9814 69.2099 49.2862 71.725 50.9387 73.983C51.4649 74.6935 52.0492 75.3142 52.6582 75.977C52.9873 76.3505 53.2917 76.6819 53.6208 77.0554C54.7973 78.4048 54.2726 79.7784 53.9221 80.8822C53.7804 81.3021 53.6386 81.722 53.5628 82.1602C52.6696 87.6344 59.4505 89.8624 64.3754 91.4713C65.1921 91.7324 65.9428 91.9753 66.5861 92.2238C67.4275 92.527 68.2934 92.8724 69.1841 93.2599C71.4766 94.2469 73.8765 95.2283 76.1305 95.3924C78.2771 95.5621 79.8747 94.4145 80.9725 92.0341C81.0641 91.8122 81.1557 91.5903 81.2886 91.3445C81.6883 90.3249 82.1629 89.1494 83.2799 88.5047C84.0905 88.0932 84.9583 87.874 85.8508 87.6969C86.4458 87.5789 86.9334 87.4665 87.4377 87.2881C89.918 86.42 92.276 85.0589 94.4124 83.3187C102.908 76.2736 105.632 63.9952 101.276 52.7609C98.3849 45.3575 92.4926 39.0667 85.5411 35.9792C79.8762 33.3888 73.9557 33.1998 68.4898 35.3968Z" fill="#1E1E1E"/>
<path d="M73.0279 97.9897C72.8961 97.9532 72.6984 97.8986 72.5666 97.8621C70.4578 97.279 68.226 96.4855 65.7227 95.5112C63.2853 94.5551 60.84 93.4911 58.3534 92.4508L58.197 92.3723C56.0645 91.4653 53.9074 90.5161 52.3638 88.5377C51.9369 87.9965 51.4825 88.2587 51.276 88.3779C50.9289 88.6346 50.6054 89.2152 51.057 89.7985C53.0768 92.4023 56.4693 93.7636 59.7053 95.0463C60.3476 95.2944 60.9899 95.5426 61.6322 95.7907C64.2093 96.8912 66.3339 97.6903 68.2775 98.3688C69.3398 98.7683 70.3942 99.0599 71.4073 99.3753C71.671 99.4482 71.9592 99.5632 72.2641 99.6122C72.5277 99.6851 72.7913 99.758 72.989 99.8127C73.3185 99.9038 73.5152 100.24 73.4976 100.588C73.4141 100.918 73.1742 101.169 72.828 101.143C72.6549 101.131 72.5477 101.136 72.3746 101.124C72.2673 101.129 72.2014 101.111 72.0696 101.075C70.9238 101.005 69.7701 100.827 68.5672 100.565C66.7957 100.181 65.0577 99.6649 63.3856 99.1672C62.8997 98.9976 62.3971 98.8939 61.9112 98.7243C61.5158 98.6149 61.0958 98.4635 60.6345 98.336C59.0696 97.8327 57.3483 97.2509 55.9625 97.432C55.7481 97.4432 55.5583 97.4965 55.3931 97.5919C55.0381 97.7406 54.7569 98.0154 54.5661 98.3506C54.342 98.8176 54.406 99.3995 54.7917 99.9646C55.9487 101.66 58.039 102.873 59.7013 103.826C61.2732 104.719 62.8451 105.612 64.417 106.505L66.7954 107.833C67.4456 108.189 67.9747 107.771 68.1821 107.37C68.3148 107.125 68.4731 106.639 67.9134 106.344L61.3544 102.59C60.6137 102.174 59.873 101.758 59.149 101.275C59.1244 101.233 59.0585 101.215 59.0339 101.173L58.968 101.155C58.6965 100.974 58.607 100.632 58.7151 100.344C58.8645 100.033 59.1782 99.9081 59.4831 99.9571C60.4471 100.188 61.4189 100.528 62.5392 100.837C64.6067 101.444 66.6988 102.093 68.8164 102.503L69.0554 102.533C70.8682 102.894 72.9445 103.327 74.6115 102.871C75.3707 102.658 75.9824 102.192 76.2812 101.569C76.5467 101.079 76.5485 100.515 76.3606 100.004C75.9275 98.7915 74.4777 98.3906 73.0279 97.9897Z" fill="#1E1E1E"/>
<path d="M60.5953 107.607C60.0329 107.593 58.0893 107.587 57.3654 108.907C57.1159 109.334 57.1387 109.941 57.5926 110.244C57.8403 110.383 58.1461 110.432 58.4441 110.373C58.6345 110.32 58.8002 110.224 58.8752 110.068C58.9166 110.044 58.9334 109.978 58.9334 109.978C58.9501 109.912 59.033 109.864 59.0744 109.84C59.1159 109.816 59.1987 109.768 59.2402 109.744L59.323 109.696C59.323 109.696 59.323 109.696 59.3645 109.672C59.4059 109.649 59.4059 109.649 59.4473 109.625L59.4888 109.601C59.5963 109.595 59.6792 109.547 59.7867 109.542L59.8281 109.518L59.8696 109.494C59.911 109.47 59.911 109.47 59.9771 109.488C60.1261 109.459 60.2583 109.495 60.4319 109.508C60.7131 109.515 61.019 109.564 61.3248 109.613C61.3248 109.613 61.3248 109.613 61.391 109.631C61.9198 109.778 62.4072 109.948 62.9193 110.16C62.9193 110.16 62.944 110.202 62.9854 110.178C63.167 110.299 63.39 110.396 63.5716 110.517C63.7778 110.681 64.059 110.688 64.3155 110.652C64.4645 110.623 64.6963 110.545 64.8294 110.299C65.0375 109.897 65.0147 109.289 64.5608 108.987C63.356 108.159 61.9845 107.709 60.5953 107.607Z" fill="#1E1E1E"/>
<path d="M62.7815 82.8885C62.978 83.2246 63.3394 83.4655 63.6605 83.4486C63.8746 83.4374 64.0808 83.3184 64.2133 83.0732C67.0296 77.7943 67.4368 71.6024 67.319 67.3434C67.1224 62.0059 65.8879 56.8744 63.64 51.9909C63.3128 51.3369 62.7855 51.4728 62.5793 51.5919L62.538 51.6157C62.1836 51.7642 61.7211 52.1998 62.0483 52.8538C64.141 57.3774 65.3185 62.317 65.5003 67.1573C65.6514 71.2847 65.2697 77.237 62.7764 81.9361C62.5447 82.2947 62.6341 82.6364 62.7815 82.8885Z" fill="#1E1E1E"/>
<path d="M74.1834 85.8573C74.4822 85.798 74.7483 85.5876 74.8571 85.2982C78.6311 75.0172 85.6851 66.07 94.6699 60.1424C95.0607 59.86 95.12 59.4859 95.1209 59.2021C95.1139 58.8096 94.8912 58.4285 94.6013 58.3127C94.535 58.2944 94.3777 58.2153 94.1452 58.293C94.1037 58.317 94.0206 58.365 93.979 58.389C84.3374 64.8094 77.1004 73.919 73.1088 84.7788C73 85.0683 73.0407 85.328 73.2059 85.5158C73.4207 85.7882 73.8184 85.8983 74.1834 85.8573Z" fill="#1E1E1E"/>
<path d="M70.5827 54.6469C71.3822 54.9738 72.3805 55.0734 73.3384 54.9147C73.5944 54.8795 73.8169 54.9763 73.9814 55.163C75.3128 56.8724 77.4396 57.6722 79.3643 57.1808C79.6369 57.0797 79.9254 57.1947 80.0732 57.4474C80.862 58.5126 81.9491 59.2367 83.0459 59.5047C85.3302 60.1009 88.045 57.7455 88.5722 55.5264C88.7148 54.8246 88.188 54.3966 87.7509 54.311C87.487 54.2381 86.9672 54.2002 86.8413 54.836C86.5816 55.9996 85.6711 56.8068 84.9761 57.3205C83.975 58.0673 83.1263 57.6562 82.4675 57.1917C82.1958 57.0106 81.9407 56.7636 81.727 56.4928C81.4719 56.2458 81.4896 55.8977 81.6638 55.6282C82.6667 54.3172 83.0857 52.3858 81.9178 51.1452C81.3338 50.5249 80.4015 50.4436 79.7311 50.9995C78.92 51.6929 78.6515 53.0305 78.7226 54.0032C78.7384 54.2193 78.7542 54.4355 78.836 54.6699C78.8932 54.8621 78.843 55.06 78.7022 55.1976C78.5615 55.3352 78.3961 55.4306 78.2474 55.4601C77.8182 55.4826 77.4716 55.4574 77.1418 55.3662C76.746 55.2568 76.4082 55.0575 76.0212 54.774C75.8401 54.6533 75.7829 54.461 75.7671 54.2449C75.7513 54.0287 75.8675 53.8491 76.0082 53.7115L76.1323 53.6399C76.2149 53.5922 76.273 53.5024 76.3557 53.4546C77.217 52.5633 77.9491 50.7891 77.6564 49.4375C77.5017 48.7947 77.1235 48.3372 76.4973 48.0229C75.8957 47.7506 75.2764 47.8265 74.6976 48.1606C73.6226 48.7811 72.9741 50.2254 72.8798 51.2935C72.8376 51.5995 72.8613 51.9237 72.9096 52.29C72.9254 52.5062 72.8506 52.662 72.7098 52.7995C72.5691 52.9371 72.3791 52.9905 72.2058 52.9779C71.364 52.9569 70.7791 52.6187 70.401 52.1612C69.7273 51.1984 69.6748 49.5955 69.7849 48.7436C69.8351 48.5457 69.7119 48.3352 69.5967 48.2327C69.4076 48.0039 69.1359 47.8229 68.8553 47.8159C68.682 47.8033 68.5747 47.8089 68.492 47.8567C68.0539 48.0532 67.9448 48.6231 67.9113 48.755C67.582 51.0288 68.5219 53.8653 70.5827 54.6469Z" fill="#1E1E1E"/>
<path d="M43.4474 50.0336C42.9035 49.9537 42.4817 50.366 42.3647 50.8274C41.4371 54.6262 41.2098 58.5834 41.5185 62.5125C41.6299 63.7423 43.5517 63.5332 43.4403 62.3034C43.1227 58.5482 43.4071 54.7831 44.2601 51.1399C44.3937 50.6126 43.9254 50.0952 43.4474 50.0336Z" fill="#1E1E1E"/>
<path d="M107.911 54.7246C107.442 54.7709 106.962 55.2726 107.109 55.8064C108.458 61.3243 107.838 66.967 106.972 72.4711C106.762 73.7168 108.672 73.9632 108.907 72.7595C109.806 67.1237 110.41 61.2652 109.029 55.5974C108.882 55.0636 108.463 54.6306 107.911 54.7246Z" fill="#1E1E1E"/>
<path d="M67.7969 17.4664C68.4257 21.0865 69.3504 24.6479 70.5464 28.1086C70.9533 29.2762 72.6804 28.5587 72.3147 27.3673C71.1922 24.0325 70.3244 20.6626 69.7113 17.2578C69.469 15.9952 67.5791 16.2457 67.7969 17.4664Z" fill="#1E1E1E"/>
<path d="M93.1206 20.0732C92.7326 19.789 92.021 19.8045 91.7714 20.231C90.0655 23.1921 88.5412 26.2742 87.1493 29.3929C86.6491 30.5286 88.4338 31.3052 88.9339 30.1695C90.2263 27.1648 91.6755 24.2389 93.3064 21.434C93.556 21.0076 93.5579 20.4419 93.1206 20.0732Z" fill="#1E1E1E"/>
<path d="M113.271 37.1179C109.438 38.6531 105.506 40.0186 101.541 41.2327C100.352 41.5794 101.135 43.397 102.324 43.0503C106.288 41.8362 110.196 40.4283 114.054 38.9355C115.168 38.4616 114.41 36.6864 113.271 37.1179Z" fill="#1E1E1E"/>
<path d="M103.298 90.3916C101.259 88.5966 99.4008 86.6407 97.6831 84.5477C96.906 83.5943 95.3829 84.7549 96.16 85.7084C97.9757 87.9691 99.9482 90.0271 102.102 91.9242C102.511 92.2485 103.169 92.1492 103.441 91.7675C103.837 91.3144 103.707 90.716 103.298 90.3916Z" fill="#1E1E1E"/>
<path d="M53.2768 33.9014C50.7967 31.9143 48.6542 29.5637 46.9395 26.9099C46.629 26.4724 46.0054 26.4403 45.5777 26.7437C45.1744 27.0889 45.1315 27.6745 45.4419 28.1119C47.2301 30.8916 49.5116 33.3861 52.1064 35.4752C53.1217 36.1781 54.2756 34.67 53.2768 33.9014Z" fill="#1E1E1E"/>
<path d="M118.44 64.549C116.986 64.1472 115.499 63.8775 114.028 63.8242C113.747 63.8172 113.532 63.8285 113.309 64.014C113.126 64.1757 112.993 64.4217 112.968 64.662C112.942 64.9024 113.007 65.2032 113.172 65.3901C113.337 65.577 113.543 65.74 113.824 65.747C114.493 65.7554 115.212 65.8481 115.906 65.8986C116.253 65.9239 116.583 66.0152 116.955 66.0826C117.129 66.0952 117.285 66.1739 117.459 66.1866C117.525 66.2048 117.591 66.2231 117.723 66.2596L117.789 66.2779C118.053 66.351 118.293 66.3818 118.525 66.3045C118.756 66.2272 118.955 65.9995 119.047 65.7774C119.148 65.381 118.968 64.6951 118.44 64.549Z" fill="#1E1E1E"/>
<path d="M38.4582 54.7201C37.6645 54.5006 36.9201 54.3656 36.1255 54.429C35.4137 54.4445 34.6931 54.6346 33.9972 54.8669C33.5333 55.0218 33.258 55.689 33.5049 56.1113C33.735 56.5997 34.2721 56.8544 34.7528 56.6333C34.8772 56.5615 35.0677 56.508 35.2167 56.4785L35.2582 56.4545C35.2996 56.4306 35.3658 56.4489 35.4072 56.4249C35.7053 56.3658 36.0035 56.3067 36.3263 56.2897C36.3924 56.308 36.4753 56.2601 36.5415 56.2784C36.5415 56.2784 36.5829 56.2545 36.6076 56.2967C36.7813 56.3094 36.8889 56.3037 37.0627 56.3164C37.2364 56.329 37.3687 56.3656 37.501 56.4022C37.5672 56.4205 37.6333 56.4388 37.7409 56.4331C37.807 56.4514 38.0716 56.5246 37.807 56.4514C38.0716 56.5246 38.3115 56.5556 38.5435 56.4781C38.7754 56.4007 38.9748 56.1726 39.0666 55.9502C39.1583 55.7278 39.1592 55.4449 39.0772 55.2099C38.8709 55.0466 38.6566 54.775 38.4582 54.7201Z" fill="#1E1E1E"/>
</svg>
