<svg width="198" height="15" viewBox="0 0 198 15" fill="none" xmlns="http://www.w3.org/2000/svg">
<path d="M197.23 10.7507C194.96 8.65161 192.538 6.7243 190.268 4.6252C188.004 2.69292 186.399 1.74169 183.774 3.66125C181.612 5.23224 178.993 7.31862 177.323 9.54199C177.166 9.54696 177.161 9.38014 177.003 9.38511C176.668 8.72776 175.866 8.25215 175.378 7.76659C174.241 6.63363 173.262 5.4957 172.129 4.52956C170.342 2.74919 168.407 1.30743 165.92 2.55473C163.429 3.6352 161.932 6.35407 159.937 8.25374C159.785 8.42553 159.632 8.59732 159.479 8.76912C159.942 8.42056 159.775 8.09188 159.145 8.11177C158.657 7.62621 157.865 7.48424 157.224 7.17048C156.102 6.53799 154.979 5.90549 153.857 5.273C151.292 3.85113 148.874 2.09064 146.457 0.330157C145.65 -0.312279 144.241 0.0661037 143.631 0.753278C142.572 2.28948 141.508 3.65885 140.449 5.19505C139.844 6.04905 139.238 6.90305 138.632 7.75704C138.479 7.92884 138.327 8.10063 138.179 8.43925C138.026 8.61104 138.026 8.61104 138.026 8.61104C136.589 7.98849 135.289 6.69367 133.999 5.7325C132.552 4.77631 131.099 3.65329 129.494 2.70206C126.757 0.784691 124.049 -0.13174 121.124 2.29822C118.972 4.20286 116.977 6.10253 114.825 8.00717C113.053 6.72727 111.286 5.61419 109.356 4.33926C107.588 3.22618 105.806 1.61264 103.615 2.1827C101.581 2.74779 99.7492 4.80931 98.0552 6.19857C97.1295 6.89568 96.2037 7.5928 95.4355 8.28494C94.5097 8.98206 93.8795 9.00194 92.7618 8.53627C89.0889 6.98237 86.1596 3.90222 82.0483 3.53099C77.7794 3.16474 74.8739 6.26199 71.6338 8.7019C70.5553 9.57081 70.708 9.39901 69.5806 8.5997C68.6156 7.96223 67.8082 7.31979 66.8432 6.68233C64.9132 5.4074 62.9832 4.13247 60.7627 3.70159C58.547 3.43754 56.6856 4.49812 54.6667 5.56368C53.5785 6.09894 52.4903 6.63421 51.4021 7.16947C50.3138 7.70474 48.6149 8.92717 47.2018 9.13873C45.311 9.19838 42.8937 7.4379 41.2837 6.31985C39.5113 5.03995 38.0345 3.08281 35.8139 2.65194C33.7509 2.21609 31.7271 3.11482 30.1906 4.49911C28.4967 5.88837 26.9848 8.10678 24.7593 7.50908C22.5387 7.0782 20.7516 5.29783 18.8265 4.18972C16.739 2.91976 14.5037 1.98842 11.9729 1.73431C7.38401 1.21117 2.71107 3.19535 0.317523 7.61227C-1.17476 10.498 2.99539 12.8711 4.48768 9.98537C6.5808 6.07886 11.1501 5.9347 14.6704 7.66039C18.1907 9.38608 21.1249 12.6331 25.2264 12.6706C27.122 12.7778 28.8307 11.889 30.3769 10.8384C31.608 9.79767 33.7355 7.05892 35.3405 8.01014C36.9406 8.79455 38.4126 10.5849 40.0225 11.7029C41.79 12.816 43.8727 13.9191 45.7732 14.1931C47.8313 14.4621 49.54 13.5734 51.4063 12.6796C53.7403 11.6041 56.0596 10.0281 58.3985 9.11945C60.4272 8.38754 62.3719 10.1629 63.9769 11.1142C65.5869 12.2322 67.3789 14.1794 69.437 14.4484C73.0854 15.1682 75.9419 10.4027 78.8963 8.97371C82.3186 7.36294 85.7255 10.595 88.6106 12.1738C90.3781 13.2868 92.4558 14.2232 94.4943 13.8249C96.6904 13.4216 98.5272 11.5269 100.221 10.1377C101.147 9.44057 102.521 7.89443 103.614 7.52599C103.772 7.52102 104.072 7.01061 104.072 7.01061C104.387 7.00067 105.519 7.96681 105.84 8.12369C108.094 9.72232 110.507 11.316 112.762 12.9146C112.762 12.9146 112.919 12.9097 112.924 13.0765C113.732 13.7189 114.997 13.846 115.913 12.8152C117.297 11.6027 118.523 10.3952 119.907 9.18269C120.517 8.49551 121.29 7.97019 121.901 7.28302C122.364 6.93446 123.275 5.73688 123.9 5.55017C125.156 5.34358 127.43 7.6095 128.395 8.24697C129.843 9.20317 131.133 10.1643 132.58 11.1205C134.835 12.7192 137.587 15.137 140.04 12.722C141.266 11.5144 142.162 9.81638 143.068 8.45197C143.674 7.59798 144.432 6.57219 145.038 5.71819C149.066 8.59672 153.241 11.1366 157.711 12.9993C160.424 14.0826 161.951 12.3647 163.787 10.47C164.703 9.43919 165.61 8.07479 166.693 7.3727C167.619 6.67558 166.998 7.02911 167.801 7.50473C168.283 7.82346 168.938 8.63769 169.425 9.12324C170.563 10.2562 171.542 11.3941 172.675 12.3603C173.487 13.1695 174.467 14.3075 175.584 14.7731C178.135 15.6945 179.647 13.4761 181.336 11.9201C182.409 10.8843 183.483 9.8486 184.714 8.80789C184.714 8.80789 185.64 8.11078 186.102 7.76222C186.265 7.92407 186.427 8.08592 186.59 8.24778C188.859 10.3469 191.282 12.2742 193.551 14.3733C196.294 16.4575 199.499 12.8498 197.23 10.7507Z" fill="#F7C300"/>
</svg>
