<svg width="507" height="309" viewBox="0 0 507 309" fill="none" xmlns="http://www.w3.org/2000/svg">
<path d="M407.689 193.489C407.468 192.853 407.351 192.198 407.275 191.535C407.158 190.572 406.993 189.549 406.999 188.572C407.006 188.028 407.124 187.53 407.323 187.058C406.483 186.92 405.635 186.822 404.78 186.769C403.871 186.717 402.92 186.625 402.017 186.795C401.631 186.867 401.169 186.966 400.866 187.228C400.48 187.556 400.631 187.929 400.735 188.356C400.942 189.162 401.059 189.968 401.141 190.795C401.238 191.745 401.403 192.689 401.472 193.64C401.534 194.545 401.424 195.449 401.403 196.354C401.369 197.764 401.41 199.173 401.576 200.57C401.638 200.504 401.693 200.425 401.769 200.373C402.354 199.98 403.106 199.835 403.809 199.717C405.573 199.416 407.385 199.121 408.543 197.678C409.019 197.088 409.281 196.413 409.384 195.712C408.357 195.698 407.951 194.243 407.689 193.489Z" fill="#F7C300"/>
<path d="M399.405 187.005C399.384 186.939 399.363 186.867 399.37 186.776C399.625 183.275 399.232 179.767 398.419 176.351C398.026 174.693 397.799 173.06 397.606 171.369C397.427 169.749 397.089 168.13 396.717 166.537C396.655 166.439 396.6 166.327 396.6 166.202C396.572 165.527 396.524 164.852 396.544 164.17C396.558 163.698 396.613 163.233 396.786 162.793C396.386 162.702 395.993 162.603 395.593 162.492C393.388 160.951 390.225 161.023 387.695 162.328C382.065 161.417 377.054 164.249 371.672 166.93C364.938 170.28 357.633 173.735 351.954 178.62C347.433 182.508 344.125 187.759 340.672 192.676C333.932 197.764 327.529 203.146 322.532 209.958C321.967 210.246 321.402 210.594 320.865 211.066C317.832 213.715 314.152 213.42 310.465 213.584C306.66 217.281 300.857 219.3 295.668 220.389C289.562 221.667 283.173 222.454 276.956 223.096C273.931 223.411 271.091 223.155 268.086 223.051C268.073 223.057 268.059 223.057 268.045 223.064C267.666 223.182 267.301 223.332 266.936 223.464C263.193 222.906 259.478 222.198 255.791 221.359C253.041 221.221 250.347 220.998 247.611 220.159C243.944 219.038 240.202 218.206 236.515 217.15C233.613 216.317 230.719 215.196 227.996 213.938C226.136 213.079 224.199 211.99 222.786 210.496C222.765 210.489 222.752 210.496 222.731 210.489C222.373 210.476 222.042 210.371 221.739 210.187C220.884 209.624 219.94 209.191 219.099 208.601C218.699 208.371 218.375 208.07 218.141 207.69C218.051 207.486 217.962 207.283 217.872 207.08C217.741 206.627 217.741 206.175 217.872 205.723C217.962 205.52 218.051 205.316 218.141 205.113C218.306 204.818 218.541 204.575 218.83 204.398C219.085 204.175 219.395 204.018 219.74 203.939C220.098 203.835 220.45 203.815 220.808 203.894C220.967 203.9 221.111 203.933 221.263 203.972C238.183 195.062 252.194 182.022 264.124 167.52C271.581 158.46 278.459 148.973 285.364 139.526C285.551 139.27 285.73 139.021 285.916 138.765C286.005 137.86 286.357 136.995 286.729 136.09C287.315 134.681 287.728 133.192 288.183 131.737C289.21 128.459 290.547 125.319 291.781 122.113C294.262 115.694 295.709 108.895 294.855 102.057C294.82 101.756 294.875 101.467 294.979 101.199C294.469 97.973 293.469 94.7933 292.966 91.5677C292.291 87.2144 291.994 82.8349 291.154 78.5079C290.299 74.1218 288.728 70.3652 286.453 66.4774C284.427 63.0092 282.001 59.2263 281.16 55.2992C280.223 54.1191 279.272 52.9521 278.348 51.7655C275.867 48.5989 273.731 45.1307 270.678 42.4099C268.031 40.0563 264.971 38.1616 261.891 36.3717C258.727 34.5426 255.536 32.72 252.29 31.0285C245.653 27.5734 238.624 25.5148 231.222 24.1315C223.048 22.6039 214.888 21.2271 206.638 20.1519C200.257 19.3193 193.289 18.0277 186.969 19.8175C185.908 20.1191 185.046 19.8175 184.467 19.2406C179.677 19.2209 174.901 18.8013 170.111 18.6964C165.521 18.5915 161.111 18.9915 156.617 19.8569C149.077 21.3123 141.482 23.1612 134.156 25.4034C128.243 27.2194 122.592 29.7238 117.492 33.1199C109.049 38.7319 103.088 46.6648 97.4778 54.7747C96.4578 57.1218 95.5343 59.5148 94.659 61.9275C94.7004 62.111 94.7141 62.3012 94.7141 62.511C94.6521 68.7196 92.9292 74.7775 92.7362 80.9861C92.5708 86.2244 92.3227 91.548 93.2737 96.7339C94.3006 102.313 95.7273 107.801 97.2228 113.282C98.6563 118.546 99.6005 123.935 101.62 129.042C102.454 131.153 103.391 133.245 104.28 135.33C105.135 137.323 106.113 139.368 107.643 140.975C107.719 141.053 107.76 141.132 107.816 141.211C108.663 141.473 109.408 142.083 109.559 142.928C110.18 146.41 113.074 149.111 114.804 152.126C115.824 153.91 116.534 155.857 117.437 157.699C118.215 159.279 119.049 160.833 119.925 162.367C120.166 162.682 120.373 163.003 120.593 163.324C121.207 163.364 121.806 163.593 122.233 164.039C127.209 169.264 131.999 174.948 135.487 181.229C137.416 183.242 139.443 185.156 141.91 186.553C143.888 187.674 143.495 190.611 141.269 191.208C138.87 191.85 136.762 193.214 134.253 193.319C132.799 193.758 131.345 194.204 129.883 194.604C119.683 197.416 109.332 199.698 98.8906 201.553C89.8485 202.097 80.7856 202.392 71.7366 203.585C70.7717 203.199 69.6139 203.035 68.2493 203.205C67.8771 203.251 67.5119 203.297 67.1397 203.343C56.9466 203.743 46.7535 204.018 36.5604 204.182C34.672 203.992 32.7836 203.815 30.8815 203.697C27.1461 203.467 23.5416 203.861 19.9165 204.333C13.8999 204.346 7.88326 204.333 1.86664 204.261C1.67366 204.261 1.49448 204.287 1.30839 204.3C1.32218 204.392 1.33596 204.484 1.34285 204.569C1.57718 206.536 1.79083 208.476 1.80461 210.463C1.83218 215.537 1.15677 220.592 0.750152 225.64C0.0954224 233.875 -0.180253 242.149 0.12299 250.403C1.03272 250.278 1.83907 250.016 2.54204 249.649C2.6592 249.642 2.76947 249.642 2.89353 249.636C17.208 248.396 31.5982 247.479 45.8713 245.866C49.1588 245.492 52.3911 244.686 55.6234 243.938C63.4043 245.21 72.2121 243.368 79.8552 241.899C80.9235 241.755 81.9986 241.572 83.0875 241.296C83.2323 241.257 83.3632 241.211 83.5011 241.172C85.3067 241.034 86.7333 240.365 87.7809 239.382C88.2358 239.264 88.6975 239.159 89.1593 239.074C89.2213 239.067 89.2833 239.074 89.3454 239.067C90.3102 239.31 91.3647 239.382 92.5019 239.238C100.772 238.169 109.049 237.1 117.32 236.025C118.67 235.848 119.987 235.606 121.296 235.343C122.199 235.691 123.253 235.868 124.466 235.802C140.145 234.989 156.603 229.489 171.517 225.044C174.364 224.198 177.189 223.287 180.001 222.342C180.132 222.421 180.249 222.5 180.387 222.579C181.428 223.149 182.455 223.732 183.475 224.322C187.065 226.879 190.808 229.233 194.522 231.626C201.097 240.857 208.72 248.659 219.643 253.523C231.608 258.854 245.612 264.525 258.727 266.334C261.953 266.78 265.102 266.321 268.293 266.629C269.382 266.734 270.437 266.911 271.484 267.095C275.619 267.003 279.734 266.511 283.869 266.465C284.91 266.452 285.95 266.419 286.991 266.386C287.928 266.216 288.866 266.052 289.796 265.862C294.717 264.839 299.727 264.19 304.627 263.102C306.261 262.597 307.88 262.053 309.465 261.443C315.709 259.916 321.885 258.185 327.818 255.693C328.776 255.195 329.7 254.644 330.637 254.081C332.484 252.966 334.4 252.009 336.013 250.593C339.645 247.393 343.711 245.007 347.75 242.319C349.631 241.067 351.396 239.677 353.05 238.162C354.766 236.595 356.227 234.779 358.012 233.285C359.625 231.928 361.416 230.688 363.208 229.554C363.45 229.403 363.691 229.266 363.939 229.122C364.697 228.066 365.462 227.024 366.261 225.994C368.66 222.906 371.279 220.212 374.401 217.773C377.068 215.688 380.603 213.8 382.547 211.027C383.209 210.089 384.194 209.788 385.125 209.899C388.46 207.735 391.982 206.149 395.897 204.667C397.296 204.136 398.626 203.546 399.777 202.799C399.777 202.72 399.777 202.641 399.784 202.563C400.025 202.425 400.245 202.255 400.459 202.078C399.722 197.731 400.555 193.305 399.522 188.992C399.356 188.356 399.15 187.654 399.405 187.005ZM203.082 159.85C201.256 160.826 200.188 162.177 199.733 163.646C195.108 166.222 190.573 168.923 186.121 171.756C185.797 171.054 185.467 170.353 185.074 169.703C182.82 165.934 179.739 162.577 176.156 159.909C176.038 159.823 175.914 159.745 175.797 159.659C174.005 156.735 172.351 153.746 170.828 150.697C169.56 148.98 168.347 147.223 167.244 145.406C164.474 140.843 162.537 136.005 160.787 131.016C157.382 121.306 155.459 111.61 156.369 101.349C157.189 92.079 159.257 82.2121 163.619 73.8203C167.065 67.1986 172.648 61.1604 179.712 57.9217C186.948 54.6043 192.097 57.5873 202.076 57.3972C211.483 58.3872 221.194 63.6583 229.044 68.0378C232.028 69.703 235.054 71.5125 237.914 73.5318C238.086 74.0628 241.063 75.6101 241.401 76.1542C247.783 86.4539 249.354 95.1408 246.88 107.296C245.826 112.469 243.82 117.346 241.201 121.929C231.263 136.707 219.023 151.314 203.082 159.85Z" fill="white"/>
<path d="M409.439 177.649C409.232 176.771 409.377 175.886 409.391 174.988C409.404 173.985 409.37 172.975 409.363 171.965C409.342 169.913 409.039 168.005 408.46 166.032C408.446 165.993 408.453 165.96 408.453 165.927C408.433 165.875 408.412 165.829 408.384 165.776C407.854 164.609 406.916 163.855 405.634 163.508C404.139 163.101 402.519 163.305 400.989 163.278C400.024 163.259 399.08 163.187 398.15 163.056C398.143 163.062 398.15 163.056 398.136 163.075C398.115 163.115 398.088 163.147 398.067 163.187C398.06 163.2 398.06 163.2 398.053 163.206C398.019 163.292 397.991 163.37 397.971 163.455C397.957 163.501 397.95 163.541 397.943 163.587C397.936 163.606 397.936 163.619 397.936 163.632C397.902 163.901 397.895 164.177 397.895 164.452C397.895 164.924 397.922 165.396 397.943 165.868C397.95 165.881 397.957 165.894 397.964 165.914C398.77 169.356 398.998 172.863 399.79 176.299C400.514 179.42 400.879 182.632 400.748 185.831C401.093 185.7 401.444 185.602 401.775 185.543C403.753 185.196 406.027 185.477 408.012 185.871C408.522 185.196 409.177 184.494 409.322 183.668C409.487 182.744 409.142 181.76 409.17 180.829C409.205 179.767 409.322 178.705 409.439 177.649Z" fill="#F7C300"/>
<path d="M408.419 112.58C408.653 112.783 409.99 113.216 410.149 113.406C410.19 113.55 410.266 113.688 410.369 113.813C410.507 114.016 410.687 114.16 410.9 114.239C413.974 116.232 417.062 118.231 419.908 120.519C422.623 122.703 424.849 125.233 428.157 126.643C431.08 127.889 434.264 128.695 437.489 128.649C439.178 128.623 440.659 128.105 442.293 127.895C443.513 127.738 443.919 128.485 444.595 129.311C444.925 129.711 445.504 130.229 445.925 130.754C445.739 130.799 445.559 130.845 445.373 130.891C444.732 131.055 444.098 131.219 443.457 131.383C442.182 131.711 440.901 132.039 439.626 132.36C438.413 132.668 438.419 134.077 439.302 134.7C441.748 136.425 444.195 138.149 446.786 139.663C448.068 140.411 451.163 141.492 452.348 143.059C453.885 143.354 455.718 142.666 456.924 143.918C457.324 144.331 457.379 144.384 457.979 144.39C458.358 144.39 458.709 144.443 459.04 144.646C459.688 145.052 459.757 145.629 459.874 146.219C460.274 145.872 460.66 145.505 461.142 145.229C461.921 144.777 462.741 144.371 463.582 144.03C464.939 143.472 466.407 143.302 467.848 143.033C467.407 142.22 466.766 141.473 466.27 140.712C465.642 139.755 465.036 138.791 464.388 137.847C462.982 135.795 461.376 133.887 459.646 132.078C458.144 130.504 456.483 129.036 455.043 127.41C454.354 126.63 453.733 125.791 453.065 124.991C452.596 124.427 452.224 123.83 452.183 123.089C452.114 121.87 453.072 121.319 454.236 121.608C455.725 121.981 457.034 123.017 458.137 123.988C459.605 125.286 460.818 126.971 462.472 128.059C464.057 129.095 465.319 130.255 466.504 131.704C467.414 132.819 468.254 133.946 469.075 135.12C469.757 136.097 470.804 137.775 472.224 137.749C472.279 137.749 472.314 137.769 472.362 137.775C472.369 137.755 472.362 137.729 472.369 137.716C472.672 136.674 474.03 135.933 474.416 134.884C474.726 134.038 474.368 133.337 473.809 132.694C471.852 130.432 469.64 128.321 467.483 126.23C463.651 122.519 459.64 118.998 455.47 115.642C455.429 115.53 455.367 115.412 455.277 115.301C452.513 111.852 449.391 108.404 445.587 105.952C441.659 103.421 436.71 102.189 432.306 100.622C427.482 98.9039 422.465 97.4026 417.882 95.1407C416.517 94.4654 414.877 93.0165 413.23 93.6066C412.389 93.9082 412.024 94.6621 411.286 95.062C409.715 95.9143 409.57 94.472 409.191 93.3968C408.715 92.0266 407.944 90.8858 406.407 90.4465C404.029 89.7713 401.155 89.9614 398.695 89.8237C396.289 89.686 393.884 89.568 391.472 89.4631C389.032 89.3582 386.275 88.9386 383.877 89.5549C380.652 90.381 378.426 93.9016 379.473 96.9961C380.073 98.7597 381.761 98.7531 383.402 99.1006C385.814 99.612 388.15 100.425 390.328 101.539C392.519 102.661 394.38 104.09 396.255 105.624C397.075 106.293 397.937 106.961 398.977 107.289C400.3 107.702 401.534 107.414 402.878 107.433C404.119 107.447 405.111 107.866 406.138 108.509C406.6 108.797 407.172 109.131 407.551 109.505C408.102 110.049 407.833 109.99 407.716 110.679C407.592 111.426 407.854 112.082 408.419 112.58Z" fill="white"/>
<path d="M494.25 179.544C493.926 178.03 493.382 176.535 493.141 175.007C492.879 173.388 493.506 172.273 494.113 170.825C494.547 169.789 494.719 168.733 494.381 167.645C494.202 167.068 493.727 166.491 493.658 165.894C493.582 165.173 493.988 164.459 494.023 163.737C494.071 162.675 493.678 161.705 493.196 160.767C492.7 159.817 491.769 158.781 492.079 157.66C492.135 157.45 492.135 157.253 492.1 157.076C492.1 157.037 492.121 157.011 492.121 156.971C492.107 152.336 491.473 146.987 487.028 144.194C484.719 142.738 481.817 142.555 479.157 142.181C477.731 141.984 475.863 142.03 474.533 141.532C473.816 141.263 472.913 140.044 472.52 138.968C472.431 139.014 472.334 139.041 472.217 139.041C470.728 139.06 469.612 137.965 468.764 136.923C467.875 135.828 467.151 134.622 466.269 133.52C465.132 132.098 464.002 130.622 462.444 129.587C461.686 129.082 460.942 128.616 460.287 127.98C459.66 127.371 459.102 126.708 458.468 126.105C457.268 124.958 456.028 123.732 454.457 123.057C454.229 122.958 453.933 122.808 453.678 122.808C453.402 122.808 453.581 122.722 453.512 122.899C453.257 123.555 454.367 124.492 454.732 124.945C457.262 128.118 460.432 130.76 463.023 133.887C464.298 135.422 465.435 137.028 466.524 138.686C467.076 139.513 467.599 140.358 468.178 141.165C468.668 141.853 469.15 142.528 469.433 143.322C469.55 143.643 469.302 144.036 468.964 144.108C467.31 144.482 465.553 144.567 463.981 145.236C463.147 145.59 462.313 146.003 461.548 146.482C460.914 146.875 460.48 147.459 459.846 147.852C459.563 148.029 459.074 147.924 458.923 147.622C458.723 147.209 458.668 146.823 458.578 146.377C458.468 145.806 458.233 145.682 457.654 145.688C456.807 145.695 456.51 145.334 455.959 144.823C455.311 144.22 454.229 144.397 453.388 144.397C453.188 144.397 452.989 144.39 452.796 144.377C452.796 144.443 452.803 144.502 452.789 144.567C451.211 144.974 449.639 145.682 448.164 146.324C441.128 149.412 434.76 153.91 428.309 157.961C427.937 158.171 427.558 158.361 427.213 158.597C427.054 158.702 426.924 158.827 426.82 158.971C422.299 161.377 417.619 163.521 412.988 165.73C412.12 166.143 411.244 166.675 410.335 166.976C410.252 167.002 410.19 167.015 410.114 167.035C410.466 168.504 410.686 169.979 410.7 171.506C410.707 172.509 410.728 173.513 410.728 174.522C410.734 175.368 410.562 176.273 410.707 177.125C410.769 177.217 410.81 177.335 410.796 177.486C410.79 177.538 410.79 177.584 410.783 177.636C410.79 177.715 410.783 177.794 410.762 177.859C410.672 178.692 410.583 179.525 410.535 180.357C410.486 181.209 410.61 182.003 410.679 182.848C410.81 184.468 409.845 185.523 408.956 186.802C408.377 187.628 408.288 188.421 408.391 189.392C408.488 190.283 408.529 191.201 408.701 192.08C408.791 192.545 408.922 192.991 409.087 193.43C409.177 193.666 409.273 193.902 409.384 194.132C409.425 194.21 409.515 194.315 409.528 194.4C409.535 194.413 409.549 194.427 409.556 194.44C412.547 193.45 415.552 192.552 418.764 192.761C421.803 192.958 424.677 193.673 427.744 193.338C433.857 192.683 439.522 189.011 444.76 186.179C446.276 185.359 447.785 184.527 449.295 183.694C450.397 183.091 451.976 181.826 453.202 181.55C454.084 181.347 453.671 181.078 454.167 182.042C454.45 182.586 454.705 183.15 455.015 183.681C455.566 184.625 456.269 185.55 457.241 186.14C459.536 187.53 462.286 186.841 464.629 185.943C466.938 185.058 469.033 183.852 470.99 182.416C473.292 183.53 475.918 182.993 478.123 181.583C480.77 179.892 483.21 177.833 485.663 175.86C486.917 178.456 487.751 181.137 488.275 183.976C488.475 185.038 488.799 185.891 489.729 186.559C491.053 187.51 492.079 188.172 492.817 189.641C493.403 190.808 495.353 190.211 495.326 188.992C495.27 185.825 494.926 182.658 494.25 179.544Z" fill="white"/>
<path d="M124.935 52.3032C124.342 46.737 123.446 41.2889 123.329 35.6834C123.315 34.8901 123.047 34.2542 122.633 33.769C121.806 32.3267 120.007 31.4219 118.119 32.543C109.862 37.4273 103.039 44.5538 98.9181 52.9588C96.63 57.6267 95.3343 62.511 94.1627 67.5133C92.8257 73.2434 91.9435 78.9538 92.9911 84.7887C93.4597 87.3718 96.8919 87.6013 98.6218 86.2048C102.736 82.894 107.643 80.7829 111.84 77.6163C115.748 74.6661 118.56 70.6275 121.234 66.6807C122.647 64.6024 123.963 62.4455 124.57 60.0131C125.204 57.4825 125.204 54.8666 124.935 52.3032Z" fill="#59C59F"/>
<path d="M84.7209 235.887C81.9435 233.639 78.5251 232.065 75.0723 230.997C67.9736 228.8 60.3236 229.023 53.094 230.479C48.8142 231.337 44.6446 232.662 40.5646 234.15C36.588 235.599 32.7699 237.12 29.889 240.221C29.1447 241.027 28.8966 242.129 29.0827 243.132C28.7657 243.597 28.5727 244.155 28.5727 244.784C28.5727 246.403 30.1165 248.134 31.9428 247.99C40.2476 247.315 48.5592 246.541 56.8157 245.446C60.5511 244.948 64.1762 243.912 67.9185 243.453C71.8055 242.981 75.7339 242.876 79.6416 242.712C81.5231 242.634 83.694 242.817 85.1827 241.499C87.0573 239.834 86.5473 237.363 84.7209 235.887Z" fill="#59C59F"/>
<path d="M307.46 257.162C307.246 256.959 307.012 256.762 306.715 256.598C298.907 252.252 289.81 249.983 280.754 250.396C276.288 250.599 271.822 251.38 267.597 252.776C263.593 254.1 258.803 255.746 256.405 259.286C256.143 259.68 256.012 260.093 255.964 260.512C255.24 261.004 254.716 261.751 254.606 262.656C254.427 264.079 255.343 265.934 257.018 266.17C257.314 266.209 257.618 266.236 257.914 266.268C257.914 266.275 257.914 266.282 257.914 266.282C257.948 266.282 257.99 266.282 258.024 266.282C263.669 266.963 269.251 266.695 274.806 266.065C276.536 266.098 278.266 266.15 279.989 266.236C283.655 266.426 287.204 266.649 290.85 266.105C294.372 265.58 297.928 264.708 301.326 263.685C301.802 263.541 302.194 263.325 302.518 263.069C303.662 263.069 304.813 263.095 305.957 263.161C309.72 263.384 310.203 258.604 307.46 257.162Z" fill="#59C59F"/>
<path d="M306.081 65.6973C306.212 65.9727 306.536 66.1038 306.715 66.1628C307.163 66.3005 307.722 66.2677 308.066 66.0776C309.135 65.4809 308.693 64.3205 308.535 63.9796C301.099 48.1531 292.656 31.7103 278.541 19.9355C278.231 19.6733 277.894 19.5422 277.535 19.5422C277.37 19.5422 277.204 19.5684 277.039 19.6274C276.439 19.8175 275.929 20.3289 275.826 20.8403C275.778 21.0698 275.771 21.4172 276.274 21.8368C290.244 33.4871 298.342 49.2349 306.081 65.6973Z" fill="black"/>
<path d="M188.616 152.225C188.837 152.395 189.967 153.189 190.87 152.33C191.152 152.061 191.325 151.563 191.304 151.11C191.29 150.927 191.242 150.599 190.994 150.409C187.065 147.406 184.584 143.571 182.076 138.732C179.877 134.497 178.085 129.855 176.769 124.932C176.555 124.138 175.969 123.974 175.515 123.974C175.308 123.974 175.136 124.007 175.032 124.033C174.777 124.092 173.53 124.466 173.874 125.751C175.218 130.76 177.134 135.671 179.574 140.358C181.683 144.416 184.405 149.006 188.616 152.225Z" fill="black"/>
<path d="M217.41 260.807C204.819 257.096 193.413 250.344 184.426 241.27C184.047 240.89 183.675 240.503 183.302 240.116C181.566 238.313 179.925 236.615 177.858 235.481C175.528 234.202 172.965 233.96 170.029 234.734C165.004 236.058 159.932 237.651 155.032 239.192C152.599 239.959 150.159 240.719 147.726 241.46C147.175 241.624 146.837 241.958 146.72 242.457C146.589 243.034 146.796 243.715 147.216 244.083C147.527 244.351 147.919 244.41 148.416 244.26C150.828 243.532 153.24 242.791 155.652 242.044C160.408 240.582 165.321 239.067 170.194 237.677C171.173 237.402 172.186 237.107 173.275 237.107C173.723 237.107 174.191 237.159 174.674 237.277C176.286 237.677 177.541 238.661 178.664 239.657C179.85 240.719 180.959 241.853 182.027 242.955C182.958 243.912 183.923 244.902 184.908 245.807C193.778 253.93 204.771 260.079 216.7 263.594C217.21 263.744 217.603 263.679 217.92 263.403C218.341 263.03 218.547 262.348 218.41 261.778C218.292 261.292 217.962 260.971 217.41 260.807Z" fill="black"/>
<path d="M25.8642 195.036C46.0781 195.272 66.5125 194.479 86.6162 192.696C87.2295 192.643 88.2633 192.276 88.2633 191.26C88.2633 190.88 88.029 190.427 87.6844 190.126C87.5397 190.001 87.202 189.778 86.8987 189.818C66.6848 191.607 46.1332 192.401 25.8297 192.171C25.816 192.171 25.8091 192.171 25.8022 192.171C25.2715 192.171 24.9062 192.348 24.6719 192.722C24.3687 193.201 24.3687 193.915 24.665 194.42C24.9062 194.827 25.2991 195.03 25.8642 195.036Z" fill="black"/>
<path d="M505.043 77.3409L499.895 69.8472C501.081 66.9363 503.086 64.445 504.168 61.4816C504.857 59.5869 505.133 57.1022 503.768 55.4238C502.149 53.4307 499.585 53.8634 497.345 54.3945C495.491 54.8338 493.679 55.4041 491.852 55.9483C490.06 56.4859 488.103 57.2267 486.222 57.3972C484.809 57.5283 482.976 56.0597 481.832 55.3845C480.136 54.3945 478.482 53.3193 476.918 52.1457C474.705 50.4805 471.225 51.4246 471.17 54.4142L471.025 61.7046C471.011 62.3208 471.128 63.6452 471.004 64.0582C470.901 64.3991 470.536 64.6876 470.308 64.9892C470.177 65.1662 470.081 65.3432 469.977 65.5268C469.971 65.5333 469.964 65.5333 469.964 65.5399C469.612 65.7562 469.337 66.0447 469.13 66.3922C469.088 66.4184 469.04 66.4446 468.999 66.4708C468.854 66.5626 468.716 66.6741 468.585 66.7921C468.558 66.8249 468.53 66.8642 468.503 66.897C468.089 67.0806 467.627 67.2314 467.193 67.3953C465.767 67.9329 464.34 68.477 462.906 69.0146C460.418 69.9521 459.309 73.4597 462.1 74.8758C464.939 76.3116 468.082 76.6394 470.997 77.826C472.231 78.3309 472.424 78.5865 472.748 79.7339C473.168 81.2024 473.582 82.6579 474.119 84.0937C475.153 86.8407 476.27 90.1712 478.999 91.8299C480.577 92.7936 482.555 92.951 484.127 91.9348C485.395 91.1153 486.38 89.8368 487.311 88.6895C487.745 88.1585 488.172 87.6209 488.572 87.0636C488.758 86.8013 489.164 85.9359 489.475 85.8048C490.198 85.5032 491.894 85.89 492.714 85.9163C494.506 85.9753 496.298 86.0015 498.096 85.9949C499.785 85.9884 501.632 86.1261 503.293 85.7589C505.043 85.3721 506.504 84.0674 506.904 82.3891C507.359 80.4288 506.105 78.8816 505.043 77.3409Z" fill="#F7C300"/>
<path d="M101.054 20.5912L93.1218 15.779C92.9426 12.6583 93.6938 9.60968 93.3974 6.48242C93.2045 4.48281 92.3774 2.11605 90.4133 1.11952C88.0769 -0.0605772 85.9266 1.33587 84.1141 2.69299C82.6116 3.82064 81.2057 5.05319 79.7791 6.25951C78.3731 7.45272 76.9121 8.88851 75.2718 9.7867C74.045 10.462 71.7362 9.83915 70.3992 9.67524C68.4212 9.43267 66.4502 9.11142 64.5204 8.65249C61.7775 8.00344 59.0207 10.2194 60.2612 12.973L63.2799 19.6733C63.5349 20.2437 64.2103 21.4041 64.2792 21.8237C64.3344 22.1712 64.1207 22.5777 64.0449 22.9448C64.0035 23.1546 63.9898 23.3578 63.976 23.5676C63.976 23.5742 63.9691 23.5807 63.9691 23.5807C63.7417 23.9151 63.6176 24.2823 63.5762 24.6822C63.5487 24.7215 63.5142 24.7609 63.4935 24.8067C63.4039 24.951 63.3212 25.1018 63.2592 25.2657C63.2454 25.3116 63.2385 25.3509 63.2248 25.3968C62.9215 25.7246 62.57 26.0393 62.2461 26.3605C61.1779 27.4095 60.1096 28.4651 59.0414 29.514C57.1806 31.3432 57.6837 34.9753 60.8402 35.1654C64.0449 35.3621 67.0567 34.4311 70.2269 34.3721C71.5708 34.3459 71.8534 34.5098 72.6529 35.4276C73.6729 36.6012 74.6791 37.7682 75.7887 38.863C77.9183 40.9676 80.3787 43.5572 83.5765 44.003C85.4304 44.2587 87.305 43.6359 88.2974 42.0952C89.0969 40.8495 89.4415 39.3023 89.793 37.8927C89.9584 37.2371 90.11 36.5815 90.2341 35.9193C90.2892 35.6112 90.2892 34.6606 90.5166 34.418C91.0473 33.8607 92.7565 33.546 93.5146 33.251C95.1756 32.602 96.8227 31.9267 98.4561 31.2186C99.993 30.5565 101.737 29.9533 103.087 28.9699C104.514 27.934 105.279 26.1704 104.921 24.4855C104.5 22.499 102.688 21.5877 101.054 20.5912Z" fill="#F7C300"/>
<path d="M364.814 269.428L355.744 271.815C353.188 269.855 351.306 267.278 348.66 265.403C346.971 264.203 344.566 263.2 342.478 263.921C339.99 264.78 339.645 267.239 339.493 269.428C339.369 271.245 339.39 273.061 339.383 274.877C339.376 276.666 339.521 278.666 339.128 280.423C338.832 281.741 336.806 282.954 335.779 283.793C334.269 285.032 332.698 286.206 331.044 287.261C328.701 288.762 328.59 292.198 331.568 293.162L338.825 295.509C339.438 295.705 340.796 296.007 341.175 296.243C341.485 296.44 341.657 296.859 341.892 297.161C342.03 297.331 342.181 297.476 342.333 297.626C342.333 297.633 342.333 297.639 342.34 297.646C342.45 298.026 342.657 298.367 342.939 298.662C342.953 298.708 342.96 298.761 342.981 298.8C343.029 298.964 343.098 299.121 343.181 299.272C343.208 299.311 343.236 299.344 343.263 299.383C343.318 299.816 343.332 300.275 343.36 300.721C343.463 302.176 343.573 303.638 343.677 305.094C343.863 307.638 347.033 309.703 349.301 307.605C351.602 305.467 352.884 302.72 354.959 300.439C355.834 299.475 356.158 299.383 357.405 299.429C359.004 299.495 360.589 299.56 362.188 299.508C365.255 299.41 368.929 299.403 371.417 297.436C372.857 296.295 373.622 294.558 373.084 292.821C372.65 291.424 371.665 290.139 370.803 288.953C370.404 288.395 369.99 287.851 369.556 287.314C369.349 287.064 368.605 286.435 368.57 286.114C368.488 285.366 369.39 283.944 369.666 283.216C370.273 281.61 370.845 279.99 371.382 278.364C371.892 276.83 372.588 275.204 372.726 273.585C372.871 271.88 372.009 270.156 370.445 269.284C368.612 268.262 366.682 268.937 364.814 269.428Z" fill="#F7C300"/>
<path d="M459.019 75.5904L470.77 79.688C471.239 79.8519 471.59 80.2256 471.714 80.6845C472.086 82.0941 472.548 83.5233 472.955 84.7821C473.741 87.234 474.478 89.5221 474.74 91.9938C474.747 92.0397 474.754 92.1052 474.781 92.197C474.926 92.7412 475.243 93.246 475.698 93.6459C476.353 94.2098 477.255 94.4982 478.138 94.4392C478.572 94.3933 478.882 94.3212 479.185 94.1901C479.647 94 480.06 93.6918 480.391 93.305L488.207 84.0609C488.517 83.7003 488.992 83.5102 489.482 83.5298L492.604 83.7265C492.693 83.7331 492.81 83.72 492.921 83.7069C493.948 83.5626 495.381 83.7265 496.766 83.897C499.075 84.1723 502.232 84.546 503.893 82.9857C504.203 82.6972 504.471 82.3235 504.609 82.0023C504.651 81.9105 504.699 81.8253 504.754 81.74C505.705 80.3829 504.568 78.7701 502.714 76.4689C502.39 76.0624 502.08 75.6691 501.839 75.3609C501.825 75.3478 501.818 75.3347 501.811 75.3216L498.538 70.6799L497.959 69.8604C497.683 69.467 497.628 68.9622 497.814 68.5229L498.103 67.8542C498.303 67.3953 498.469 66.9953 498.641 66.5757C498.648 66.5495 498.703 66.4053 498.703 66.3856C499.041 65.0678 499.606 63.8025 500.205 62.4651C501.225 60.2032 502.239 57.9479 502.273 55.3582C502.273 55.2927 502.245 55.2402 502.239 55.1747C502.204 54.919 502.108 54.6764 501.922 54.4863C501.556 54.0929 501.081 53.7979 500.557 53.6274C500.536 53.6209 500.516 53.6143 500.495 53.6078C499.902 53.4307 499.275 53.4242 498.669 53.5815L486.539 56.7547C486.146 56.853 485.739 56.8071 485.388 56.617C482.886 55.2533 480.433 53.0767 478.062 50.9788L475.574 48.8939C474.981 48.4284 474.257 48.1859 473.52 48.1859C473.079 48.1859 472.638 48.2711 472.217 48.4481C471.101 48.9136 470.37 49.9167 470.315 51.0574L469.805 62.1373C469.702 64.6482 466.366 66.2348 463.134 67.769C461.907 68.3524 460.66 68.9425 459.598 69.585L458.427 70.2799C457.386 70.8897 456.814 71.9714 456.945 73.1187C457.083 74.2267 457.869 75.1839 459.019 75.5904ZM461.949 71.3027C462.714 70.8897 463.561 70.4897 464.395 70.0964C468.193 68.2934 472.472 66.2611 472.638 62.2159L473.044 53.3586C473.072 52.8014 473.437 52.3096 473.975 52.0999C474.519 51.8835 475.14 51.995 475.574 52.3752L476.132 52.8669C478.909 55.3255 481.756 57.843 484.892 59.3312C484.995 59.3771 485.112 59.4165 485.243 59.4427C485.746 59.541 486.277 59.5279 486.773 59.3968L496.994 56.7219C497.531 56.5777 498.103 56.735 498.489 57.1153C498.868 57.5021 498.999 58.0528 498.827 58.5576C498.489 59.5083 498.048 60.4982 497.655 61.3702C497.07 62.6683 496.408 64.1303 496.07 65.4743C496.05 65.5464 496.029 65.6186 496.001 65.6841L494.416 69.408C494.389 69.4735 494.396 69.5522 494.437 69.6178L499.509 76.8098C499.751 77.1376 500.054 77.5179 500.364 77.8981L500.467 78.0227C500.743 78.3636 501.108 78.8291 501.439 79.2684C501.763 79.7011 501.804 80.2715 501.549 80.7501C501.294 81.2287 500.784 81.5237 500.226 81.5302C499.33 81.5433 497.841 81.3729 497.159 81.2942C495.602 81.1106 494.079 80.9271 492.997 81.0844C492.886 81.1041 492.769 81.1041 492.666 81.0975L489.109 80.8681C488.296 80.8156 487.538 81.0582 486.918 81.5106C486.67 81.4975 486.422 81.4778 486.18 81.4647C486.18 81.4647 486.18 81.4647 486.174 81.4647C485.126 82.3694 484.285 83.4971 483.486 84.6051C482.349 86.1785 481.253 87.7717 480.143 89.3648L479.799 89.7713C479.509 90.1122 479.075 90.3089 478.627 90.3089C478.51 90.3089 478.393 90.2958 478.275 90.2695C477.71 90.1384 477.269 89.7123 477.152 89.1681C476.745 87.2996 476.16 85.5098 475.643 83.9232L475.581 83.7331C475.146 82.376 474.699 80.9795 474.333 79.4978C474.209 79.052 473.961 78.6193 473.623 78.2718C473.554 78.1997 473.465 78.1407 473.382 78.0752C473.355 77.9572 473.327 77.8391 473.306 77.7211C473.299 77.6752 473.279 77.6293 473.265 77.5835C473.182 77.5441 473.093 77.5113 473.031 77.4917C472.776 77.413 472.521 77.3409 472.266 77.2688C471.756 77.118 471.246 76.9737 470.736 76.8361C470.529 76.7771 470.315 76.7246 470.109 76.6722L462.19 73.8924C461.638 73.7022 461.259 73.2171 461.211 72.6598C461.142 72.1091 461.439 71.5781 461.949 71.3027Z" fill="black"/>
<path d="M331.382 289.47L343.132 293.568C343.601 293.732 343.952 294.106 344.076 294.565C344.449 295.974 344.91 297.403 345.317 298.662C346.103 301.114 346.84 303.402 347.102 305.874C347.109 305.92 347.116 305.985 347.143 306.077C347.288 306.621 347.605 307.126 348.06 307.526C348.715 308.09 349.618 308.378 350.5 308.319C350.934 308.273 351.244 308.201 351.547 308.07C352.009 307.88 352.423 307.572 352.753 307.185L360.569 297.941C360.879 297.58 361.354 297.39 361.844 297.41L364.966 297.607C365.055 297.613 365.166 297.6 365.283 297.587C366.31 297.443 367.743 297.607 369.128 297.777C371.437 298.052 374.594 298.426 376.255 296.866C376.565 296.577 376.834 296.204 376.971 295.882C377.013 295.791 377.061 295.705 377.116 295.62C378.067 294.263 376.93 292.65 375.076 290.349C374.752 289.943 374.442 289.549 374.201 289.241C374.187 289.228 374.18 289.215 374.173 289.202L370.9 284.56L370.321 283.74C370.045 283.347 369.99 282.842 370.176 282.403L370.466 281.734C370.665 281.275 370.831 280.875 371.003 280.456C371.01 280.43 371.065 280.285 371.065 280.266C371.403 278.948 371.968 277.683 372.568 276.345C373.588 274.083 374.601 271.828 374.635 269.238C374.635 269.173 374.608 269.12 374.601 269.055C374.566 268.799 374.47 268.556 374.284 268.366C373.918 267.973 373.443 267.678 372.919 267.507C372.898 267.501 372.878 267.494 372.857 267.488C372.264 267.311 371.637 267.304 371.031 267.462L358.901 270.635C358.508 270.733 358.101 270.687 357.75 270.497C355.248 269.133 352.795 266.957 350.424 264.859L347.936 262.774C347.343 262.308 346.62 262.066 345.882 262.066C345.441 262.066 345 262.151 344.58 262.328C343.463 262.794 342.733 263.797 342.677 264.937L342.167 276.017C342.064 278.528 338.728 280.115 335.496 281.649C334.269 282.233 333.022 282.823 331.961 283.465L330.789 284.16C329.748 284.77 329.176 285.852 329.307 286.999C329.445 288.113 330.238 289.071 331.382 289.47ZM334.318 285.189C335.083 284.776 335.937 284.376 336.764 283.983C340.562 282.18 344.841 280.148 345.007 276.103L345.414 267.245C345.441 266.688 345.806 266.196 346.344 265.986C346.888 265.77 347.509 265.882 347.943 266.262L348.501 266.754C351.279 269.212 354.125 271.73 357.261 273.218C357.364 273.264 357.481 273.303 357.612 273.329C358.115 273.428 358.646 273.415 359.142 273.283L369.363 270.609C369.9 270.464 370.472 270.622 370.858 271.002C371.237 271.389 371.368 271.939 371.196 272.444C370.858 273.395 370.417 274.385 370.024 275.257C369.439 276.555 368.777 278.017 368.439 279.361C368.419 279.433 368.398 279.505 368.37 279.571L366.785 283.295C366.758 283.36 366.765 283.439 366.806 283.504L371.878 290.696C372.12 291.024 372.423 291.405 372.733 291.785L372.836 291.909C373.112 292.25 373.477 292.716 373.808 293.155C374.132 293.588 374.173 294.158 373.918 294.637C373.663 295.115 373.153 295.41 372.595 295.417C371.699 295.43 370.211 295.26 369.528 295.181C367.971 294.997 366.448 294.814 365.366 294.971C365.255 294.991 365.138 294.991 365.035 294.984L361.479 294.755C360.665 294.702 359.907 294.945 359.287 295.397C359.039 295.384 358.791 295.364 358.549 295.351C358.549 295.351 358.549 295.351 358.543 295.351C357.495 296.256 356.654 297.384 355.855 298.492C354.718 300.065 353.622 301.658 352.512 303.251L352.168 303.658C351.878 303.999 351.444 304.196 350.996 304.196C350.879 304.196 350.762 304.182 350.644 304.156C350.079 304.025 349.638 303.599 349.521 303.055C349.114 301.186 348.529 299.396 348.012 297.81L347.95 297.62C347.516 296.263 347.068 294.866 346.702 293.385C346.578 292.939 346.33 292.506 345.992 292.159C345.924 292.086 345.834 292.027 345.751 291.962C345.724 291.844 345.696 291.726 345.675 291.608C345.669 291.562 345.648 291.516 345.634 291.47C345.551 291.431 345.462 291.398 345.4 291.378C345.145 291.3 344.89 291.228 344.635 291.155C344.125 291.005 343.615 290.86 343.105 290.723C342.898 290.664 342.684 290.611 342.478 290.559L334.559 287.779C334.007 287.589 333.628 287.104 333.58 286.546C333.511 285.996 333.808 285.465 334.318 285.189Z" fill="black"/>
<path d="M57.5117 38.0763L69.9792 37.0011C70.0274 36.9946 70.0687 36.9946 70.117 36.9946C70.565 36.9946 70.9923 37.1847 71.2817 37.5191C72.2397 38.6271 73.2597 39.6892 74.2452 40.7119C76.0578 42.6066 77.7532 44.3768 79.104 46.5009C79.1316 46.5468 79.1729 46.5993 79.2281 46.6649C79.6071 47.0976 80.124 47.4319 80.7029 47.6024C81.5506 47.845 82.4879 47.7466 83.2667 47.327C83.6389 47.1107 83.887 46.914 84.1075 46.678C84.4383 46.3174 84.6727 45.8716 84.7967 45.3864L87.6982 33.8477C87.8154 33.3953 88.1531 33.0216 88.6079 32.8511L91.5232 31.7563C91.6128 31.7235 91.7093 31.6645 91.8127 31.6055C92.6673 31.0613 94.0318 30.6286 95.362 30.2156C97.5743 29.5206 100.6 28.5766 101.399 26.4917C101.551 26.1049 101.627 25.6525 101.606 25.3116C101.599 25.2133 101.606 25.1149 101.62 25.0166C101.868 23.4038 100.111 22.4073 97.402 21.0764C96.9333 20.8469 96.4716 20.6174 96.1201 20.4339C96.1063 20.4273 96.0925 20.4208 96.0787 20.4076L91.0339 17.5426L90.1448 17.0378C89.7175 16.7952 89.4419 16.3625 89.4143 15.8905L89.3729 15.1628C89.3523 14.7563 89.3247 14.2842 89.2833 13.7925L89.2696 13.6483C88.9663 12.2453 88.9112 10.8619 88.8491 9.40649C88.7527 6.98729 88.6562 4.52875 87.5259 2.17511C87.4983 2.1161 87.4501 2.07677 87.4156 2.02432C87.2709 1.80797 87.0779 1.63095 86.8229 1.52605C86.3129 1.31626 85.7616 1.23759 85.2033 1.30315C85.1827 1.30315 85.1551 1.3097 85.1344 1.3097C84.521 1.38838 83.949 1.63751 83.4735 2.03087L73.942 9.83264C73.6388 10.0818 73.2459 10.2063 72.8393 10.1736C69.9516 9.95721 66.7606 8.99346 63.68 8.05594L60.4959 7.17742C59.3036 6.88239 58.0631 7.25609 57.2498 8.14117C56.4504 9.01313 56.2436 10.2129 56.7123 11.275L61.2333 21.496C62.2671 23.8103 59.9583 26.6097 57.7254 29.3174C56.8432 30.386 56.0162 31.3891 55.3546 32.3856L54.6033 33.4871C53.9348 34.4639 53.9073 35.6768 54.5344 36.6537C55.1547 37.6436 56.3194 38.1812 57.5117 38.0763ZM58.2423 33.0085C58.7385 32.3398 59.3174 31.6383 59.8894 30.9499C62.5359 27.7439 65.4856 24.1708 63.8247 20.447L60.1996 12.2781C59.9721 11.7601 60.0824 11.1701 60.4752 10.7571C60.8681 10.344 61.4883 10.1932 62.0397 10.3571L62.7633 10.5735C66.3678 11.6618 70.0825 12.7829 73.5836 12.855C73.7008 12.855 73.8248 12.8419 73.9558 12.8157C74.4589 12.6977 74.9275 12.4748 75.3135 12.1535L83.3494 5.57773C83.7698 5.23025 84.3625 5.13847 84.8794 5.3286C85.3963 5.51872 85.7616 5.97109 85.8305 6.49558C85.9477 7.47244 85.9959 8.50831 86.0373 9.51795C86.0924 10.9275 86.1475 12.5206 86.4508 13.8712C86.4646 13.9433 86.4783 14.0154 86.4783 14.0876L86.7196 18.0999C86.7264 18.172 86.7678 18.2376 86.8367 18.2769L94.6521 22.7154C95.0174 22.9121 95.4585 23.1284 95.9064 23.3513L96.065 23.43C96.3269 23.5611 96.9402 23.8627 97.4985 24.1577C97.9878 24.42 98.2841 24.9182 98.2704 25.4493C98.2566 25.9803 97.9258 26.4655 97.4227 26.6949C96.5474 27.0949 95.1759 27.5276 94.5212 27.7374C93.0601 28.1963 91.599 28.6487 90.6824 29.2387C90.5928 29.2977 90.4894 29.3502 90.386 29.3895L87.071 30.6286C86.3336 30.904 85.7478 31.435 85.3825 32.1037C85.1551 32.189 84.9208 32.2808 84.6933 32.366C84.1489 33.6116 83.9008 34.9688 83.6733 36.2931C83.3563 38.1747 83.0806 40.0694 82.7981 41.9576L82.6671 42.4689C82.5293 43.0065 82.0813 43.4261 81.5093 43.5376C81.4059 43.5573 81.3025 43.5638 81.1992 43.5638C80.7305 43.5638 80.2825 43.354 79.9931 42.9934C78.7801 41.4659 77.45 40.0891 76.2783 38.8696L76.1198 38.6992C75.1205 37.6568 74.0936 36.575 73.1012 35.3949C72.7842 35.0409 72.3706 34.7524 71.9089 34.5754C71.8124 34.5361 71.7021 34.5229 71.6056 34.4902C71.5298 34.3918 71.454 34.3 71.3782 34.2017C71.3506 34.1689 71.3162 34.1296 71.2817 34.0968C71.1852 34.0968 71.0956 34.0968 71.0267 34.1099C70.7648 34.1427 70.5029 34.182 70.2342 34.2214C69.7104 34.2935 69.1797 34.3722 68.6559 34.4508C68.4423 34.4836 68.2217 34.5229 68.0081 34.5557L59.6069 35.2638C59.0073 35.3228 58.4628 35.0343 58.1665 34.5492C57.8701 34.0706 57.9046 33.4674 58.2423 33.0085Z" fill="black"/>
<path d="M410.452 194.499C409.942 192.433 409.418 190.335 409.398 188.205C409.398 187.884 409.46 187.575 409.57 187.3C409.632 187.071 409.715 186.854 409.825 186.671C410.108 186.212 410.542 185.871 411.045 185.648C411.072 185.635 411.1 185.615 411.128 185.602C411.162 185.569 411.196 185.536 411.224 185.504C411.383 185.268 411.527 185.025 411.651 184.769C411.693 184.664 411.727 184.553 411.768 184.442L411.824 183.707C411.893 182.783 411.968 181.865 412.037 180.941C412.023 178.869 412.023 176.804 411.92 174.732C411.727 170.988 410.928 167.337 409.694 163.79C409.639 163.698 409.563 163.619 409.529 163.514C409.377 163.082 409.219 162.747 409.046 162.439C408.212 160.99 407.068 160.774 404.615 160.853L398.095 161.017C397.84 161.017 397.613 161.069 397.42 161.167C396.937 161.397 396.344 161.371 395.883 161.076C394.546 160.217 392.974 160.099 391.451 160.741C391.265 160.82 391.058 160.859 390.872 160.859C390.617 160.794 390.362 160.728 390.107 160.682C389.811 160.617 389.515 160.564 389.204 160.531C387.481 160.315 385.579 160.44 383.519 161.003C363.305 166.596 349.921 181.157 335.675 194.722C333.642 196.669 331.581 198.583 329.486 200.452C327.398 202.327 325.268 204.143 323.07 205.887C322.973 205.952 322.884 206.031 322.801 206.09C300.671 221.615 269.637 225.706 238.072 216.934C236.067 216.344 234.054 215.701 232.09 215.039C230.326 214.167 228.561 213.256 226.776 212.305C226.266 211.997 225.729 211.689 225.24 211.354C223.689 210.332 222.221 209.204 220.836 208.037C220.581 207.821 220.298 207.611 220.043 207.395C219.692 207.073 219.519 206.641 219.574 206.175C219.63 205.729 219.898 205.329 220.319 205.1C237.163 195.744 251.649 184.704 263.379 172.319C269.01 166.373 275.158 158.886 280.533 150.048C288.163 137.559 294.269 122.368 295.247 105.047C295.316 103.841 295.344 102.647 295.358 101.454C295.385 101.349 295.413 101.251 295.44 101.159C295.413 100.943 295.413 100.733 295.385 100.517C295.316 99.5136 295.234 98.5171 295.185 97.514C295.103 96.0127 295.054 94.4982 295.089 92.9903C294.951 91.3644 294.779 89.745 294.551 88.1453C291.884 68.9818 282.814 51.7524 268.796 40.1612C251.856 26.1639 227.541 18.7882 194.474 17.6344C166.149 16.6444 134.143 18.0474 111.606 35.9259C106.334 40.1022 102.054 44.9996 98.8424 50.4543C95.6101 55.9548 93.4667 62.0061 92.4949 68.477C90.7444 80.1928 91.4818 93.6787 94.6797 108.555C94.721 108.732 94.7486 108.915 94.7899 109.092C100.276 134.346 112.743 157.948 130.814 177.348C133.86 180.632 137.189 183.858 140.717 186.979C141.11 187.326 141.269 187.838 141.165 188.323C141.055 188.808 140.697 189.221 140.194 189.385C138.092 190.093 136.003 190.755 133.915 191.384C128.457 193.05 123.067 194.472 117.823 195.613C113.184 196.623 108.512 197.423 103.805 198.072C88.1599 200.248 72.2397 200.727 56.7467 201.173L13.3416 202.432C11.5497 202.497 9.7027 202.609 7.92459 202.727C6.22919 202.845 4.51311 202.943 2.80392 203.008C2.42487 203.022 1.91487 203.061 1.65987 203.225C1.50136 203.33 1.47379 204.071 1.75636 204.752C1.79771 204.831 1.82527 204.903 1.88041 204.982C2.61095 206.313 7.58 205.801 9.69581 205.572C10.5435 205.48 11.2741 205.421 11.7978 205.395L20.075 205.139L23.2039 205.047C30.5644 204.818 37.9181 204.588 45.2786 204.366C47.9871 204.287 50.6819 204.221 53.4042 204.149C58.6765 204.005 64.0108 203.867 69.3589 203.664C83.3218 203.14 97.4295 202.215 111.165 199.829C121.999 197.96 132.943 195.023 144.639 190.867C144.908 190.762 145.218 190.749 145.514 190.814C146.203 190.965 146.913 190.572 147.265 190.132C147.423 189.929 147.658 189.759 147.913 189.673C155.314 186.933 162.778 183.786 170.732 180.082C189.746 171.211 205.246 161.62 218.072 150.75C236.039 135.546 246.225 121.044 249.216 106.404C250.967 97.8418 250.106 89.4435 246.708 82.1203C243.434 75.0331 237.142 69.1982 228.031 64.7859C219.106 60.4654 209.443 57.6332 199.299 56.3482C189.891 55.1681 179.229 54.7223 171.414 60.3868C165.308 64.8384 160.58 72.0042 157.382 81.6941C154.742 89.7057 153.771 98.8056 154.605 108.004C155.707 120.428 159.98 133.219 167.554 146.796C168.388 148.298 169.277 149.812 170.194 151.32C171.876 154.1 173.688 156.926 175.639 159.797C177.527 162.538 179.684 165.527 182.434 169.179C182.675 169.513 182.772 169.92 182.675 170.32C182.579 170.72 182.31 171.061 181.931 171.257C179.05 172.785 176.5 174.089 174.129 175.256C164.694 179.872 155.439 183.858 146.61 187.116C146.086 187.307 145.48 187.208 145.059 186.848C141.868 184.114 138.808 181.255 135.866 178.285C123.116 165.363 112.902 150.225 105.838 133.737C104.866 131.442 103.922 129.147 103.074 126.8C98.6563 114.776 95.9478 102.457 95.0174 90.1974C94.9622 89.5418 95.4102 88.9255 96.0649 88.7354C114.687 83.143 127.368 66.3791 126.927 47.9564C126.803 42.8688 125.672 37.7878 123.584 32.8642C123.288 32.1824 123.598 31.4153 124.273 31.0678C137.533 24.3216 154.742 20.8272 176.872 20.3748C188.182 20.1453 200.284 20.283 212.331 21.6926C216.804 22.204 221.277 22.8989 225.701 23.8102C235.605 25.8754 245.295 29.0551 254.282 33.887C258.672 36.2472 262.745 39.0138 266.467 42.0887C271.222 46.0223 275.385 50.487 278.838 55.3844C279.541 56.3744 280.223 57.3578 280.857 58.3872C281.87 60 282.787 61.6718 283.676 63.3764C284.661 65.2711 285.578 67.2248 286.398 69.2244C289.334 76.3247 291.25 83.9822 292.001 91.8496C294.214 115.157 286.557 138.837 269.858 160.308C254.441 180.154 231.973 197.278 204.86 209.873C198.596 212.784 191.655 215.655 183.027 218.933C180.559 219.871 178.12 220.769 175.735 221.654C173.929 222.31 172.151 222.959 170.442 223.588C170.387 223.601 170.346 223.614 170.291 223.627C166.183 224.676 162.041 225.961 158.044 227.207C156.21 227.784 154.363 228.361 152.516 228.912C144.797 231.233 136.493 233.081 127.14 234.55C123.612 235.101 120.104 235.612 116.575 236.091C108.064 237.231 99.5247 238.202 90.9994 239.231C90.324 239.31 89.6004 239.388 88.9939 239.087C88.4356 238.805 88.091 238.254 87.7464 237.749C85.2585 234.084 81.2267 231.528 76.8917 230.098C72.5567 228.669 67.9185 228.276 63.3354 228.23C56.1402 228.164 48.8348 228.964 42.198 231.593C35.5611 234.222 29.6065 238.825 26.4638 244.981C26.1605 245.577 25.8504 246.226 25.2577 246.58C24.7753 246.869 24.1826 246.921 23.6174 246.961C17.4147 247.426 11.212 247.898 5.00933 248.364C4.16162 248.429 3.25879 248.508 2.5696 248.986C1.88041 249.465 1.54271 250.494 2.10784 251.104C2.59717 251.629 3.45865 251.596 4.18919 251.517C17.5663 250.075 30.9504 248.685 44.3344 247.295C53.6592 246.325 62.9908 245.354 72.2741 244.069C99.4902 240.293 126.927 239.179 153.495 231.731C156.534 230.878 159.553 229.954 162.544 228.958C166.534 227.62 170.58 226.125 174.832 225.752C179.264 225.365 182.138 226.84 185.673 229.239C188.816 231.383 191.897 234.137 194.915 236.858C196.79 238.536 198.726 240.267 200.615 241.794C204.819 245.499 209.319 248.836 214.026 251.74C234.93 264.662 261.07 269.868 288.163 266.596C289.996 266.367 291.829 266.111 293.676 265.816C295.723 265.56 297.68 265.265 299.569 264.944C300.106 264.839 300.644 264.741 301.188 264.636C304.6 263.993 308.018 263.187 311.402 262.236L312.105 262.046C312.174 262.033 312.229 262.02 312.291 262.02C312.415 261.994 312.532 261.968 312.684 261.902L312.842 261.863C314.931 261.325 316.654 260.853 318.246 260.374C337.116 253.569 350.872 241.48 365.441 228.682C366.882 227.41 368.322 226.145 369.783 224.886C371.265 223.287 372.719 221.825 374.097 220.487C381.079 213.767 387.64 209.604 394.635 207.388C395.269 207.237 395.89 207.054 396.455 206.811C397.047 206.568 397.599 206.273 398.136 205.952C398.191 205.978 398.247 205.978 398.295 205.992C399.618 206.555 401.217 205.992 401.961 204.693C402.285 204.156 402.458 203.435 402.513 202.517C402.54 202.13 402.713 201.776 403.023 201.514C403.333 201.251 403.739 201.127 404.139 201.166C404.325 201.166 404.477 201.166 404.608 201.127C405.063 200.996 405.538 200.871 406.007 200.753C406.979 200.497 407.895 200.255 408.784 199.96C409.349 199.77 409.825 199.514 410.183 199.193C410.273 199.114 410.376 199.049 410.487 198.996C410.493 198.983 410.493 198.976 410.5 198.963C410.604 198.721 410.693 198.478 410.783 198.236C410.797 198.203 410.804 198.17 410.811 198.137C410.797 197.311 410.783 196.479 410.776 195.652C410.673 195.298 410.556 194.905 410.452 194.499ZM160.015 121.437C154.88 102.615 157.079 84.015 166.052 70.4242C168.623 66.5036 171.428 63.6648 174.612 61.757C178.264 59.5541 182.737 58.5117 188.671 58.5117C188.685 58.5117 188.685 58.5117 188.699 58.5117C194.185 58.5248 199.746 59.1149 205.343 60.2425C209.45 61.0752 213.565 62.1897 217.672 63.6124C222.455 65.2907 228.561 67.7296 233.834 71.4732C236.556 73.4072 239.051 75.6756 241.029 78.3702C242.001 79.7011 242.835 81.15 243.593 82.6513C245.522 87.1619 246.542 92.2691 247.046 97.1862C247.073 98.6614 247.059 100.15 246.921 101.644C246.722 103.762 246.343 105.873 245.819 107.991C242.8 120.146 234.24 132.32 219.326 145.787C210.257 153.969 199.746 161.364 187.183 168.425C186.941 168.556 186.673 168.615 186.411 168.615C186.287 168.615 186.169 168.602 186.045 168.576C185.708 168.497 185.398 168.307 185.184 168.025C175.515 155.182 164.963 139.591 160.015 121.437ZM123.722 44.9143C123.639 45.2749 123.57 45.6421 123.495 45.9895C123.667 46.6583 123.791 47.3204 123.915 47.976C124.087 54.7944 122.433 61.6193 118.967 67.5657C114.425 75.374 107.188 81.4647 98.4426 84.887C97.8637 85.1164 97.2848 85.3197 96.6921 85.5295C96.5336 85.5819 96.3544 85.6213 96.1821 85.6213C95.8857 85.6213 95.5894 85.5295 95.3344 85.3656C94.9416 85.1099 94.6866 84.6837 94.6728 84.2248C94.659 83.4971 94.6452 82.7759 94.6314 82.0744C94.6176 80.7566 94.6314 79.4716 94.6728 78.226C94.9416 68.6344 96.7335 60.7801 100.159 54.0863C100.903 52.6112 101.723 51.2017 102.626 49.8445C106.747 43.6556 112.233 38.3713 118.946 34.1295C119.325 33.887 119.807 33.8345 120.242 33.9656C120.676 34.0968 121.02 34.3983 121.186 34.8114C122.509 38.0566 123.35 41.4789 123.722 44.9143ZM84.1558 239.211C83.9421 239.696 83.4804 240.044 82.929 240.109C79.7381 240.47 76.5402 240.824 73.3493 241.198C68.5387 241.762 63.7144 242.352 58.8901 242.955C50.0892 244.03 41.0057 245.145 32.0186 246.095C31.9635 246.095 31.9084 246.108 31.8601 246.108C31.7016 246.108 31.5362 246.069 31.3777 246.017C31.0538 245.912 30.7574 245.695 30.5713 245.4C30.3163 244.987 30.3026 244.489 30.5162 244.069C30.5438 244.004 30.5713 243.932 30.6265 243.866C31.9635 242.004 33.5762 240.313 35.437 238.831C39.9098 235.265 45.7886 232.819 52.5151 231.77C54.1071 231.528 55.7336 231.344 57.4083 231.259C63.9419 230.898 69.4554 231.311 74.2659 232.504C78.6078 233.593 81.7574 235.31 83.9283 237.776C84.266 238.175 84.3625 238.726 84.1558 239.211ZM307.853 260.519C307.839 260.597 307.797 260.663 307.77 260.722C307.598 261.181 307.205 261.541 306.681 261.659C306.598 261.673 306.536 261.686 306.454 261.699C304.462 262.099 302.629 262.427 300.864 262.689C298.748 263.01 296.577 263.279 294.234 263.508C286.646 264.997 279.072 265.75 271.622 265.75C266.639 265.75 261.718 265.416 256.866 264.741C256.839 264.741 256.798 264.728 256.77 264.715C256.57 264.675 256.363 264.597 256.205 264.485C256.005 264.354 255.84 264.164 255.736 263.961C255.536 263.548 255.55 263.089 255.75 262.676C255.764 262.663 255.778 262.636 255.791 262.61C259.499 256.467 267.287 252.828 279.617 251.458C285.599 250.789 291.422 251.55 296.936 253.687C300.092 254.933 303.311 256.598 307.019 258.932C307.088 258.985 307.15 259.024 307.219 259.063C307.708 259.378 307.963 259.955 307.853 260.519ZM399.108 202.615C397.95 203.107 396.73 203.428 395.545 203.854C394.856 204.103 394.201 204.431 393.539 204.746C382.995 208.175 374.924 215.478 368.377 222.264C367.929 222.723 367.502 223.201 367.054 223.673C364.78 225.673 362.54 227.725 360.314 229.79C358.667 231.174 357.012 232.57 355.303 234.032C345.372 242.47 335.172 251.137 323.029 256.598C321.884 257.011 320.727 257.391 319.541 257.765C317.425 258.421 315.268 258.998 313.097 259.522C313.084 259.509 313.056 259.496 313.028 259.483C312.918 259.391 312.884 259.339 312.829 259.306C306.722 255.116 301.781 252.435 296.819 250.612C291.174 248.534 285.013 247.905 278.507 248.744C264.737 250.514 256.012 255.051 252.593 262.23C252.525 262.361 252.483 262.499 252.442 262.643C252.297 263.194 251.835 263.567 251.298 263.679C246.039 262.643 240.829 261.128 235.695 259.024C227.004 255.457 219.023 250.691 211.049 245.925C208.692 244.168 206.383 242.299 204.15 240.313C203.978 240.201 203.792 240.083 203.62 239.972C202.427 238.667 201.09 237.48 199.753 236.3C197.596 234.399 195.411 232.537 193.22 230.675C191.201 228.958 189.195 227.273 186.983 225.791C185.735 224.952 183.475 223.595 185.025 221.956C185.453 221.503 186.039 221.228 186.604 220.959C191.035 218.881 195.556 217.098 200.043 215.131C204.75 213.066 209.388 210.869 213.944 208.529C214.254 208.371 214.564 208.207 214.874 208.044C215.467 207.735 216.211 207.84 216.68 208.312C216.721 208.352 216.804 208.443 216.831 208.476C218.169 209.709 219.685 210.987 221.291 212.167C222.841 213.308 224.495 214.41 226.225 215.413C228.155 216.389 230.229 217.36 232.331 218.245C234.42 219.13 236.591 219.963 238.789 220.717C270.809 230.243 305.999 224.381 328.37 205.755C329.755 204.536 331.278 203.153 332.994 201.553C335.634 199.055 338.28 196.452 340.823 193.935C344.18 190.624 347.639 187.202 351.216 183.963C360.61 175.414 373.429 165.35 389.129 163.39C389.425 163.351 389.708 163.272 389.963 163.16C390.431 162.944 390.976 162.97 391.417 163.239C391.768 163.442 392.147 163.495 392.547 163.383C392.692 163.305 392.857 163.239 393.029 163.206C393.774 162.872 394.608 163.18 394.973 163.888C395.097 164.104 395.132 164.347 395.125 164.596C395.194 164.773 395.256 164.944 395.324 165.121C395.483 165.566 395.676 166.084 395.807 166.648C396.103 168.045 396.331 169.454 396.565 170.824L396.661 171.428C396.717 171.736 396.772 172.044 396.813 172.352C396.951 175.125 397.22 177.872 397.757 180.619C397.943 181.327 398.095 182.068 398.081 182.809C398.109 182.835 398.136 182.862 398.164 182.888C398.178 182.914 398.178 182.94 398.178 182.966C398.488 186.041 398.757 189.208 398.97 192.643C399.081 194.387 399.184 196.144 399.267 197.888C399.308 198.826 399.349 199.763 399.391 200.694L399.432 201.717C399.418 202.045 399.308 202.359 399.108 202.615ZM406.682 197.613L404.118 198.334C403.981 198.373 403.836 198.386 403.698 198.386C403.388 198.386 403.078 198.295 402.823 198.118C402.444 197.875 402.216 197.462 402.189 197.029C402.051 194.413 401.892 191.798 401.693 189.195C401.665 188.808 401.803 188.428 402.085 188.133C402.354 187.851 402.747 187.674 403.147 187.661C403.429 187.661 403.712 187.634 403.981 187.621L404.642 187.582C405.373 187.556 406.041 188.041 406.193 188.736L407.716 195.889C407.882 196.616 407.434 197.41 406.682 197.613ZM406.979 184.599C406.951 184.599 406.868 184.612 406.834 184.612C406.172 184.664 405.511 184.704 404.856 184.743C404.36 184.769 403.87 184.769 403.374 184.782L402.74 184.796H402.699C401.92 184.796 401.272 184.232 401.189 183.497L401.134 182.829C401.121 182.586 401.093 182.33 401.065 182.075C401.024 181.649 401.176 181.203 401.486 180.895C401.796 180.587 402.216 180.41 402.671 180.436C402.885 180.449 403.064 180.436 403.195 180.41C403.436 180.344 403.664 180.219 403.857 180.036C404.043 179.859 404.167 179.649 404.249 179.393C404.305 179.177 404.318 178.948 404.263 178.698L403.712 177.787L403.264 177.466C403.236 177.453 403.209 177.44 403.195 177.426C403.057 177.348 402.94 177.309 402.802 177.309C402.719 177.295 402.63 177.295 402.547 177.269C402.451 177.256 402.333 177.256 402.182 177.295C401.775 177.387 401.334 177.308 400.983 177.079C400.631 176.85 400.404 176.476 400.349 176.076C399.866 172.385 399.336 169.166 398.757 166.229C398.715 166.012 398.66 165.796 398.605 165.573C398.509 165.147 398.605 164.714 398.888 164.367C399.17 164.032 399.591 163.829 400.032 163.816L405.318 163.685C405.979 163.724 406.544 164.059 406.772 164.636C407.268 165.98 407.309 167.481 407.351 168.812C407.365 169.199 407.378 169.566 407.392 169.926L408.295 182.993C408.336 183.766 407.771 184.514 406.979 184.599Z" fill="black"/>
<path d="M432.837 130.616C436.538 130.898 440.784 130.19 444.326 129.193C446.173 128.669 445.325 125.935 443.472 126.459C441.625 126.984 439.743 127.266 437.834 127.489C436.118 127.692 434.305 127.974 432.582 127.738C429.143 127.272 426.228 124.656 423.623 122.663C419.295 119.359 415.084 115.878 410.384 113.078C410.659 113.032 410.942 112.993 411.218 112.941C413.009 112.6 414.822 111.944 416.655 111.852C419.66 111.708 422.603 112.967 425.601 113.131C427.531 113.236 427.427 110.384 425.518 110.279C422.5 110.115 419.633 108.869 416.573 109C414.974 109.072 413.437 109.545 411.893 109.885C409.887 110.331 407.868 110.639 405.821 110.836C404.408 110.974 403.74 112.842 405.166 113.524C412.155 116.841 417.779 122.021 423.926 126.492C426.593 128.446 429.378 130.354 432.837 130.616Z" fill="black"/>
<path d="M497.572 186.651C496.856 183.393 496.215 180.141 495.146 176.968C494.719 175.689 494.244 174.424 493.747 173.172C493.796 173.152 493.851 173.139 493.892 173.113C494.023 173.041 494.12 172.955 494.209 172.864C494.409 172.732 494.602 172.588 494.76 172.411C494.788 172.405 494.816 172.398 494.85 172.391C495.091 172.182 495.326 171.926 495.498 171.572C495.808 170.936 495.891 170.254 495.98 169.599L496.077 168.904C496.187 168.156 496.297 167.389 496.18 166.609C496.042 165.685 495.643 164.852 495.202 164.026C495.25 163.934 495.298 163.842 495.339 163.744C496.201 161.698 495.732 159.673 494.051 158.178C493.83 155.66 493.41 153.241 492.803 150.986C492.321 149.196 491.825 147.4 491.039 145.702C490.308 144.108 489.688 142.961 487.986 142.279C483.706 140.568 478.84 139.853 474.236 139.532C474.161 139.526 474.092 139.526 474.016 139.526C473.671 139.086 473.34 138.641 472.996 138.201C472.934 138.123 472.865 138.044 472.803 137.959C474.133 136.733 475.139 135.153 475.27 133.369C475.463 130.806 472.382 128.813 470.694 127.128C466.056 122.48 461.349 117.877 456.517 113.406C452.196 109.407 447.599 105.519 442.23 102.824C437.461 100.425 432.106 99.3301 427.351 96.9371C427.234 96.8322 427.089 96.7339 426.903 96.6617C426.758 96.6027 426.613 96.5372 426.469 96.4782C426.345 96.4126 426.221 96.3536 426.103 96.288C425.952 96.2028 425.807 96.17 425.662 96.1373C422.478 94.8129 419.405 93.305 416.407 91.6266C415.132 90.912 413.932 90.6563 412.637 91.5086C411.982 91.9348 411.472 92.5379 411.003 93.1411C410.941 93.2198 410.803 93.4099 410.645 93.6197C410.445 92.9444 410.259 92.2626 410.038 91.5873C409.742 90.676 409.384 89.7188 408.598 89.0698C407.675 88.3092 406.51 88.2961 405.359 88.2371C403.863 88.1585 402.368 88.0863 400.872 88.0142C394.456 87.693 388.04 87.3717 381.623 87.0505C381.375 87.0374 381.168 87.0767 380.982 87.1488C380.603 87.2472 380.266 87.4701 380.1 87.8372C379.721 88.6764 379.039 89.3386 378.653 90.1712C378.198 91.148 378.067 92.197 377.888 93.2394C377.536 95.3046 377.247 97.4026 377.295 99.5005C377.316 100.248 378.033 100.936 378.832 100.884C378.901 100.877 378.963 100.851 379.025 100.838C379.059 100.838 379.08 100.851 379.115 100.851C384.132 100.733 388.577 103.205 392.574 105.827C393.691 106.561 394.794 107.322 395.903 108.063C396.889 108.725 397.881 109.499 398.984 109.977C400.176 110.489 401.32 110.443 402.561 110.128C403.891 109.794 405.166 109.571 406.537 109.558C408.467 109.531 408.378 106.679 406.455 106.706C405.159 106.725 403.87 106.87 402.616 107.165C402.065 107.296 401.424 107.584 400.838 107.551C400.266 107.519 399.77 107.152 399.308 106.863C397.04 105.447 394.89 103.854 392.623 102.438C388.915 100.117 384.766 98.2549 380.293 98.0385C380.293 98.0189 380.293 97.9926 380.293 97.973C380.307 97.7304 380.321 97.4944 380.334 97.2518C380.341 97.1338 380.355 97.0092 380.362 96.8912C380.369 96.8584 380.376 96.7732 380.376 96.7273C380.472 95.7767 380.624 94.826 380.789 93.8819C380.817 93.6984 380.851 93.5083 380.886 93.3247C380.927 93.3443 380.955 93.3706 381.003 93.3837C386.358 95.0686 392.023 95.3374 397.509 96.4585C401.947 97.3632 406.262 98.7269 410.452 100.373C409.639 100.491 408.819 100.589 408.005 100.753C407.619 100.831 407.378 101.297 407.502 101.638C407.647 102.025 408.026 102.202 408.433 102.116C409.018 101.998 409.604 101.894 410.19 101.802C410.225 101.795 410.452 101.762 410.287 101.789C410.349 101.782 410.418 101.769 410.48 101.762C410.631 101.743 410.783 101.723 410.928 101.697C411.231 101.657 411.527 101.618 411.83 101.585C412.099 101.553 412.354 101.402 412.478 101.179C412.547 101.205 412.609 101.231 412.678 101.258C413.526 101.618 414.36 101.998 415.201 102.379C415.014 102.372 414.835 102.346 414.649 102.339C413.436 102.293 412.12 102.175 410.928 102.451C410.535 102.543 410.307 102.982 410.424 103.336C410.548 103.723 410.962 103.906 411.355 103.814C411.865 103.696 412.409 103.723 412.933 103.723C413.519 103.729 414.105 103.742 414.691 103.762C415.855 103.808 417.02 103.887 418.178 104.005C418.316 104.018 418.447 103.998 418.571 103.965C425.938 107.578 432.94 111.865 439.88 116.166C436.2 116.015 432.513 116.192 428.833 116.029C427.868 115.983 427.916 117.412 428.874 117.451C433.34 117.648 437.827 117.314 442.279 117.746C442.837 118.146 443.388 118.546 443.94 118.953C440.942 119.13 437.93 119.077 434.939 118.736C434.539 118.69 434.139 118.867 434.043 119.267C433.96 119.608 434.201 120.074 434.601 120.12C438.088 120.513 441.596 120.585 445.091 120.31C445.277 120.297 445.408 120.218 445.518 120.126C447.517 121.634 449.474 123.188 451.335 124.846C454.774 127.908 457.744 131.317 460.563 134.89C460.239 134.772 459.915 134.635 459.591 134.517C459.398 134.451 459.233 134.405 459.026 134.464C458.847 134.517 458.661 134.654 458.578 134.818C458.426 135.133 458.502 135.644 458.895 135.782C460.032 136.182 461.156 136.621 462.272 137.074C462.486 137.349 462.699 137.631 462.913 137.906C462.176 137.559 461.431 137.244 460.659 136.975C459.102 136.444 457.475 136.156 455.849 135.907C454.905 135.762 454.553 137.146 455.511 137.297C457.089 137.539 458.681 137.808 460.191 138.319C461.693 138.824 463.099 139.578 464.491 140.306C464.608 140.365 464.726 140.391 464.829 140.391C465.353 141.079 465.89 141.761 466.414 142.443C464.071 142.712 461.886 143.722 460.191 145.269C460.039 144.731 459.901 144.174 459.46 143.781C458.867 143.25 458.075 143.25 457.275 143.407C457.062 143.118 456.759 142.889 456.407 142.836C449.998 141.945 445.463 137.152 440.156 133.959C441.996 133.153 443.96 132.694 446.042 132.642C447.971 132.589 447.882 129.744 445.959 129.79C442.499 129.882 439.17 130.885 436.297 132.733C435.387 133.317 435.332 134.707 436.393 135.205C440.935 137.329 444.684 140.876 449.04 143.263C448.523 143.459 447.999 143.636 447.496 143.853C434.188 149.432 423.533 159.784 410.107 165.101C409.253 165.442 408.24 165.953 408.247 166.832C408.253 167.514 408.95 168.051 409.659 168.143C410.369 168.235 411.079 167.999 411.748 167.75C415.697 166.261 419.329 164.091 422.864 161.843C429.487 157.64 435.904 153.123 442.844 149.412C446.076 147.688 449.439 146.18 452.92 144.954C453.34 145.085 453.774 145.21 454.209 145.315C454.181 146.226 455.229 146.901 456.145 146.672C456.517 146.58 456.986 146.514 457.4 146.41C457.592 147.19 457.882 147.976 458.103 148.73C458.468 149.963 460.232 150.048 460.866 148.986C462.396 146.416 465.305 145.033 468.371 145.216C468.413 145.216 468.454 145.21 468.495 145.21C469.336 145.197 472.713 151.143 473.272 151.982C473.809 152.782 474.298 153.615 474.808 154.428C472.52 154.565 470.218 154.847 468.048 155.496C465.463 156.27 462.679 156.919 459.956 157.011C456.91 157.116 453.878 156.513 451.162 155.195C450.26 154.756 449.398 155.221 449.047 155.883C448.723 156.493 448.778 157.352 449.674 157.784C452.92 159.364 456.448 160.145 459.908 160.046C462.548 159.974 465.07 159.292 467.517 158.637C468.757 158.302 470.046 157.955 471.321 157.699C474.774 156.998 478.647 157.057 483.499 157.889C485.153 158.171 486.828 158.512 488.489 158.899L488.613 158.925C489.454 159.122 490.494 159.364 491.321 159.81C491.508 160.04 491.756 160.21 492.031 160.302C492.3 160.551 492.479 160.826 492.583 161.135C493.12 162.767 491.204 164.485 490.012 165.37C489.35 165.862 488.606 166.294 487.786 166.681C487.593 166.727 487.4 166.812 487.262 166.904C486.924 167.048 486.587 167.173 486.242 167.297C486.153 167.324 486.063 167.35 485.973 167.376C485.208 167.592 484.43 167.789 483.658 167.999C483.403 168.045 483.155 168.097 482.865 168.143C482.472 168.071 482.059 168.13 481.714 168.314C478.764 168.654 475.711 168.497 472.762 168.34L472.603 168.333C468.654 168.123 465.318 168.432 461.879 170.575C460.253 171.592 458.695 172.745 457.193 173.867C455.559 175.079 453.878 176.332 452.1 177.4C446.069 181.039 436.731 185.045 426.517 183.439C425.469 183.275 424.773 184.002 424.642 184.763C424.532 185.399 424.842 186.159 425.793 186.304C433.712 187.543 442.23 185.976 450.418 181.76C451.555 181.177 452.727 180.495 454.181 179.584C454.243 180.108 453.954 180.678 453.671 181.236L453.623 181.327C453.513 181.334 453.388 181.347 453.251 181.386C449.57 182.508 446.311 184.356 443.333 186.192C442.754 186.546 442.182 186.913 441.603 187.28C438.915 188.978 436.138 190.735 433.113 191.739C430.459 192.617 427.503 192.388 424.642 192.165C423.753 192.093 422.83 192.02 421.948 191.988C418.722 191.863 414.518 191.896 410.583 193.292C409.604 193.64 409.377 194.597 409.659 195.318C409.845 195.797 410.307 196.216 410.928 196.216C411.1 196.216 411.279 196.184 411.472 196.118C414.939 194.885 418.509 194.774 422.809 194.977C423.512 195.01 424.222 195.063 424.932 195.108C427.951 195.318 431.066 195.535 433.981 194.571C437.558 193.384 440.749 191.391 443.836 189.457C446.724 187.648 449.708 185.779 452.996 184.599C453.106 185.248 453.354 185.864 453.74 186.435C454.698 187.851 456.228 188.716 458.047 188.867C459.736 189.005 461.307 188.487 462.892 187.89C463.582 188.087 464.381 187.995 465.27 187.628C467.841 186.566 470.391 185.353 472.844 184.015C474.774 184.481 477.207 183.72 478.744 182.914C480.053 182.226 481.197 181.268 482.052 180.508C483.051 179.616 484.023 178.744 484.94 177.853C485.133 177.663 485.291 177.466 485.429 177.256C486.173 179.708 486.787 182.186 487.221 184.697C487.386 185.635 487.531 186.592 487.972 187.444C488.606 188.664 489.798 189.024 490.922 189.719C493.21 191.122 494.519 193.594 495.381 196.046C495.574 196.603 495.774 197.193 496.208 197.613C497.214 198.577 498.565 197.659 498.668 196.498C498.689 196.243 498.71 195.987 498.723 195.731C498.902 192.702 498.234 189.654 497.572 186.651ZM381.83 90.6432C381.995 90.4072 382.168 90.1712 382.326 89.9286C383.119 89.9679 383.918 90.0073 384.711 90.0466C384.986 90.5646 385.269 91.0825 385.572 91.5939C384.318 91.3316 383.064 91.0235 381.83 90.6432ZM387.564 91.9741C387.171 91.3709 386.792 90.7612 386.441 90.1318C387.095 90.1646 387.75 90.1974 388.405 90.2302C388.936 90.9317 389.466 91.6398 389.976 92.3609C389.17 92.2429 388.363 92.1183 387.564 91.9741ZM391.975 92.6625C391.43 91.8758 390.879 91.1022 390.314 90.3285C391.106 90.3679 391.899 90.4072 392.692 90.4465C392.705 90.5318 392.74 90.617 392.795 90.6891C393.078 91.0628 393.257 91.4824 393.477 91.8889C393.677 92.2626 393.905 92.6297 394.146 92.9772L394.153 92.9838C393.422 92.8789 392.698 92.7674 391.975 92.6625ZM396.365 93.3575C396 92.9772 395.655 92.5838 395.359 92.1446C395.118 91.7905 394.897 91.43 394.697 91.0497C394.608 90.8792 394.525 90.7022 394.435 90.5318L396.482 90.6367C396.565 90.6432 396.648 90.6432 396.723 90.6498C397.171 91.7053 397.709 92.715 398.288 93.7049C397.647 93.5804 397.006 93.4689 396.365 93.3575ZM400.335 94.2032C399.597 93.0952 398.949 91.9413 398.398 90.735C399.315 90.7809 400.238 90.8268 401.155 90.8727C401.816 92.3019 402.568 93.6918 403.436 95.0227C402.409 94.7342 401.375 94.4523 400.335 94.2032ZM405.676 95.6849C405.669 95.6783 405.669 95.6718 405.662 95.6587C404.573 94.1704 403.622 92.597 402.823 90.9579C403.057 90.971 403.291 90.9841 403.526 90.9907C404.484 91.0366 406.214 90.7875 406.854 91.5283C407.378 92.1315 407.523 93.5804 407.737 94.295C407.943 94.9899 408.116 95.8947 408.508 96.5896C407.578 96.2618 406.627 95.9733 405.676 95.6849ZM441.658 111.623C441.583 111.577 441.507 111.544 441.431 111.498C440.066 109.02 438.55 106.614 436.876 104.313C436.331 103.559 435.056 104.313 435.6 105.067C436.8 106.712 437.909 108.41 438.95 110.148C438.66 109.99 438.357 109.846 438.061 109.695C437.199 108.541 436.421 107.342 435.759 106.07C435.587 105.735 435.042 105.637 434.725 105.84C434.367 106.076 434.298 106.463 434.484 106.824C434.746 107.329 435.049 107.82 435.345 108.305C431.079 106.201 426.689 104.319 422.299 102.47C422.127 102.398 421.961 102.366 421.803 102.352C419.101 100.976 416.358 99.6776 413.546 98.5106C412.664 98.1434 411.775 97.8025 410.879 97.4616C412.203 96.9699 412.94 95.2718 413.822 94.3343C414.243 93.8951 414.194 93.8688 414.759 94.0065C415.194 94.1114 415.676 94.5244 416.055 94.7408C417.013 95.2718 417.978 95.7832 418.957 96.2684C420.941 97.2583 422.981 98.1565 425.042 98.9892C429.274 101.323 434.043 102.405 438.502 104.273C443.519 106.378 447.84 109.604 451.852 113.124C455.987 116.756 459.922 120.611 463.843 124.453C465.883 126.453 467.91 128.465 469.922 130.498C470.611 131.193 472.224 132.347 472.258 133.297C472.293 134.13 471.659 135.035 470.97 135.717C469.157 133.52 467.289 131.37 465.311 129.311C464.815 127.567 464.312 125.83 463.106 124.401C462.851 124.099 462.444 123.955 462.072 124.171C461.762 124.355 461.576 124.853 461.831 125.155C462.3 125.712 462.658 126.328 462.947 126.964C461.569 125.653 460.149 124.394 458.647 123.201C453.347 118.992 447.551 115.058 441.658 111.623ZM468.558 139.985C466.352 137.139 464.057 134.359 461.686 131.639C459.405 129.016 456.428 126.453 454.519 123.666C461.459 128.452 467.214 135.067 472.072 141.722C475.16 145.944 478.192 150.166 481.018 154.513C480.115 154.441 479.205 154.401 478.303 154.382C475.387 149.386 472.121 144.58 468.558 139.985ZM487.29 155.47C486.442 155.273 485.587 155.116 484.733 154.972C482.135 150.651 479.309 146.482 476.242 142.391C478.365 142.627 480.48 142.941 482.596 143.25C483.72 143.413 484.877 143.715 485.835 144.331C486.718 144.698 487.779 145.341 487.779 146.049C487.779 146.613 488.523 147.609 488.744 148.16C489.095 149.039 489.392 149.93 489.654 150.835C490.184 152.677 490.488 154.546 490.763 156.44C490.715 156.139 487.669 155.562 487.29 155.47ZM493.086 166.825C493.1 166.878 493.113 166.924 493.127 166.963C493.127 166.996 493.127 167.133 493.134 167.238L493.141 167.324C493.141 167.442 493.134 167.56 493.127 167.671L493.113 167.789C493.106 167.848 493.1 167.907 493.1 167.96V167.966L493.031 168.464C493.01 168.615 492.989 168.759 492.975 168.91C492.927 169.323 492.872 169.743 492.769 170.136C492.755 170.189 492.734 170.248 492.741 170.254L492.7 170.326C492.672 170.346 492.638 170.366 492.603 170.379C492.266 169.585 491.921 168.792 491.563 168.005C491.625 167.966 491.687 167.927 491.749 167.887C491.845 167.835 491.942 167.789 492.038 167.73C492.197 167.632 492.328 167.507 492.431 167.369C492.652 167.186 492.886 167.009 493.086 166.825ZM462.21 178.941C461.142 180.724 460.639 182.704 460.783 184.527C460.811 184.861 460.859 185.189 460.935 185.51C460.025 185.831 459.067 186.081 458.123 185.956C457.124 185.825 456.297 185.104 456.069 184.16C455.918 183.537 456.255 182.894 456.621 182.213C456.793 181.885 456.972 181.55 457.089 181.216C457.468 180.134 457.372 178.967 456.814 177.905C458.482 176.758 460.074 175.591 461.287 174.686C463.003 173.414 464.698 172.221 466.635 171.624C467.469 171.369 468.392 171.231 469.502 171.198L468.502 172.529C467.937 173.29 467.351 174.076 466.566 174.634C464.712 175.951 463.265 177.191 462.21 178.941ZM471.404 175.748C470.673 177.204 469.612 179.911 470.446 181.977C468.041 183.262 466.035 184.206 464.147 184.946C464.119 184.96 464.071 184.973 464.023 184.979C464.009 184.979 464.002 184.986 463.995 184.986V184.973C463.933 184.638 463.871 184.324 463.871 183.983C463.857 183.104 464.05 182.186 464.422 181.327C465.263 179.406 466.738 178.22 468.433 176.974C469.598 176.122 470.391 175.066 471.156 174.044L473.196 171.323C473.416 171.336 473.63 171.349 473.844 171.362C474.037 171.369 474.23 171.382 474.423 171.388C473.306 172.706 472.196 174.148 471.404 175.748ZM482.934 175.656C482.865 175.807 482.631 175.991 482.438 176.142C482.341 176.214 482.252 176.286 482.183 176.351C481.845 176.659 481.514 176.968 481.177 177.282L480.804 177.63C480.095 178.299 479.364 178.987 478.565 179.564C477.634 180.239 476.773 180.692 475.918 180.954C475.415 181.111 474.995 181.19 474.602 181.209L474.498 181.216C474.216 181.229 473.63 181.268 473.437 181.118C473.099 180.855 473.285 179.898 473.375 179.426C473.527 178.62 473.795 177.833 474.181 177.073C475.091 175.289 476.387 173.749 477.868 172.064C478.027 171.887 478.13 171.69 478.192 171.48C478.95 171.474 479.709 171.434 480.46 171.382C480.667 171.434 480.887 171.447 481.142 171.382C481.232 171.356 481.321 171.329 481.418 171.31C481.466 171.303 481.521 171.303 481.569 171.297L482.417 173.716C482.541 174.057 482.665 174.404 482.775 174.752L482.824 174.902C482.906 175.132 483.024 175.466 482.934 175.656ZM490.563 185.818C489.936 185.497 489.343 180.278 489.088 179.347C488.42 176.902 487.641 174.483 486.766 172.096C486.518 171.415 486.242 170.746 485.973 170.077C486.283 169.992 486.6 169.913 486.904 169.828C487.627 169.618 488.344 169.389 489.054 169.127C490.102 171.447 491.094 173.788 491.949 176.181C493.43 180.318 495.057 184.796 494.905 189.221C493.472 188.015 492.286 186.703 490.563 185.818Z" fill="black"/>
<path d="M500.729 222.467C499.874 219.333 498.668 216.285 498.53 213.02C498.461 211.374 495.781 211.643 495.849 213.288C495.856 213.433 495.884 213.57 495.898 213.715C495.746 213.833 495.608 213.983 495.512 214.206C494.264 217.078 492.789 219.95 491.873 222.933C491.094 225.476 491.135 228.479 493.065 230.577C494.954 232.622 498.331 233.095 500.274 230.846C502.328 228.486 501.459 225.155 500.729 222.467ZM497.51 229.725C496.325 230.151 495.153 229.194 494.63 228.263C493.982 227.102 493.975 225.758 494.237 224.499C494.568 222.9 495.298 221.405 495.953 219.904C496.201 219.327 496.449 218.756 496.697 218.186C497.035 219.438 497.414 220.677 497.786 221.916C498.227 223.391 498.668 224.893 498.82 226.427C498.93 227.541 498.834 229.246 497.51 229.725Z" fill="black"/>
<path d="M497.511 229.725C496.325 230.151 495.154 229.194 494.63 228.263C493.982 227.102 493.975 225.758 494.237 224.499C494.568 222.9 495.298 221.405 495.953 219.904C496.201 219.327 496.449 218.756 496.697 218.186C497.035 219.438 497.414 220.677 497.786 221.916C498.227 223.391 498.668 224.893 498.82 226.427C498.93 227.542 498.834 229.246 497.511 229.725Z" fill="#59C59F"/>
</svg>
