<svg width="123" height="33" viewBox="0 0 123 33" fill="none" xmlns="http://www.w3.org/2000/svg">
<path d="M51.4628 8.33149C51.4073 8.14471 51.2579 7.94168 51.0744 7.84828C50.7116 7.66556 50.1054 7.7224 49.9176 8.13658C49.2816 9.56185 48.9316 11.0764 48.9487 12.6316C48.9529 13.0539 49.3328 13.46 49.7938 13.4397C50.2463 13.4194 50.6433 13.0864 50.639 12.6316C50.6347 12.2824 50.6475 11.9332 50.6817 11.584C50.6902 11.5109 50.6987 11.4338 50.7073 11.3607C50.7116 11.3363 50.7201 11.2795 50.7244 11.247C50.75 11.0846 50.7798 10.9221 50.814 10.7597C50.8823 10.443 50.9634 10.1263 51.0616 9.8136C51.1128 9.64712 51.1726 9.48064 51.2366 9.31415C51.2622 9.24512 51.2921 9.17203 51.3177 9.103C51.3305 9.07458 51.45 8.79846 51.3817 8.9487C51.4714 8.74567 51.5268 8.55888 51.4628 8.33149Z" fill="#F7C300"/>
<path d="M50.4299 31.7246C50.2549 31.8099 50.0756 31.8789 49.8963 31.9398C49.9134 31.9439 49.9305 31.952 49.9475 31.9561C50.6988 32.1551 51.3818 31.952 52.005 31.5419C52.5898 31.1561 53.1575 30.742 53.7081 30.3156C54.882 29.4101 55.9704 28.4112 56.9693 27.3311C57.1571 27.128 57.2937 26.8194 57.187 26.5474C57.1016 26.3281 56.9992 26.121 56.901 25.9099C56.5296 26.7138 55.804 27.4529 55.2064 28.0945C53.8703 29.5278 52.2269 30.8557 50.4299 31.7246Z" fill="#F7C300"/>
<path d="M50.8481 29.6578C52.1714 28.8173 53.358 27.7859 54.3825 26.6246C54.6258 26.3444 54.8606 26.0601 55.0825 25.7637C55.2447 25.5444 55.5265 25.2683 55.4496 24.98C55.3557 24.6308 54.9886 24.245 54.7837 23.9405C54.7112 23.8309 54.6087 23.6156 54.4935 23.4492C54.3099 23.5263 54.1477 23.6603 54.0453 23.8349C53.9727 23.8918 53.9215 23.9649 53.8788 24.0501C52.4702 25.0978 51.0573 26.1332 49.6273 27.1524C48.9272 27.6519 47.9156 28.1514 47.6424 29.0041C47.5357 29.333 47.5613 29.6619 47.6808 29.9502C47.9455 30.1857 48.2314 30.3888 48.526 30.5187C49.2516 30.8395 50.2718 30.0233 50.8481 29.6578Z" fill="#F7C300"/>
<path d="M71.5507 20.1439C71.4397 19.9693 71.2519 19.8272 71.047 19.7744C70.8464 19.7216 70.5774 19.7459 70.3982 19.8556C70.2189 19.9652 70.0609 20.1317 70.0097 20.3388C69.9585 20.55 69.9756 20.7733 70.0951 20.9601C70.2274 21.1672 70.3384 21.3824 70.4408 21.6017C70.5262 21.8088 70.603 22.024 70.6628 22.2392C70.7183 22.4341 70.8677 22.6209 71.0512 22.7224C71.2305 22.824 71.4994 22.8686 71.7001 22.8037C71.905 22.7387 72.1013 22.6209 72.2038 22.4341C72.3105 22.2392 72.3489 22.0281 72.2891 21.8128C72.1269 21.2281 71.8751 20.6596 71.5507 20.1439Z" fill="#F7C300"/>
<path d="M67.9566 10.4308C66.9407 9.54964 65.6131 8.83903 64.3198 8.41673C64.038 8.32333 63.7521 8.25024 63.4618 8.18933C63.4917 8.70503 63.7563 9.21261 64.3454 9.56994C65.1778 10.0735 66.1083 10.5364 66.8425 11.1658C67.6194 11.8317 67.8669 12.7129 68.1401 13.6468C68.3621 14.4143 68.9384 14.8081 69.5701 14.9056C69.6 14.6132 69.6171 14.3168 69.6085 14.0204C69.5658 12.6722 69.092 11.4175 67.9566 10.4308Z" fill="#F7C300"/>
<path d="M71.8069 12.6845C71.3928 11.2673 70.8678 9.907 69.7793 8.83094C68.789 7.84827 67.4572 7.16203 66.262 6.43518C65.3998 5.91136 64.5631 6.155 64.0338 6.70318C64.6186 6.8453 65.1949 7.04021 65.7455 7.27979C67.3804 7.98227 69.028 8.98118 70.1037 10.3537C71.0257 11.5272 71.3843 12.989 71.3758 14.3655C71.7941 13.9717 72.0118 13.391 71.8069 12.6845Z" fill="#F7C300"/>
<path d="M45.3844 28.3421C45.3374 28.3909 45.299 28.4436 45.2691 28.4964C45.013 28.7401 44.8935 29.1664 45.1197 29.4588C45.7515 30.2912 46.4814 31.083 47.3693 31.6759C48.176 32.2159 49.0425 32.2281 49.8962 31.9398C49.3115 31.7733 48.7523 31.4322 48.3553 30.9896C48.1931 30.811 48.065 30.6201 47.9882 30.409C47.8559 30.279 47.7492 30.1207 47.6766 29.9501C47.3863 29.6902 47.1174 29.3938 46.8784 29.1015C47.9541 27.9848 49.0895 26.9169 50.289 25.9179C50.9335 25.3819 51.5909 24.8622 52.2653 24.3668C52.6068 24.115 52.9526 23.8714 53.3026 23.6318C53.5203 23.4816 53.9599 23.1121 54.2502 23.2176C54.3356 23.2501 54.4167 23.3395 54.4892 23.445C54.7582 23.3354 55.0783 23.3598 55.3387 23.6399C55.9875 24.3262 56.4997 25.0815 56.901 25.9098C56.9309 25.8489 56.9607 25.7839 56.9864 25.723C57.2297 25.0855 57.0376 24.513 56.7302 23.9689C57.187 23.6359 57.6651 23.3313 58.1645 23.0552C58.3438 22.9578 58.4846 22.775 58.5401 22.5882C58.5956 22.4015 58.57 22.1497 58.459 21.9873C58.2413 21.6624 57.8273 21.5203 57.4602 21.6543C57.4516 21.4675 57.3663 21.2564 57.2254 21.1305C57.0675 20.9924 56.8626 20.8909 56.6449 20.9031C56.4272 20.9112 56.2223 20.9802 56.0643 21.1305C55.7741 21.4147 55.4795 21.699 55.1893 21.9873C54.7582 21.6746 54.2417 21.5325 53.5886 21.7193C52.5684 22.0116 51.6592 22.8481 50.8353 23.4653C48.8718 24.9393 47.0534 26.5717 45.3844 28.3421Z" fill="#1E1E1E"/>
<path d="M54.4893 23.4491C54.6045 23.6197 54.707 23.8308 54.7795 23.9405C54.9844 24.245 55.3472 24.6308 55.4454 24.98C55.5222 25.2642 55.2405 25.5444 55.0783 25.7637C54.8564 26.0601 54.6259 26.3444 54.3783 26.6245C53.3581 27.7859 52.1714 28.8173 50.8439 29.6578C50.2677 30.0233 49.2475 30.8354 48.5133 30.5187C48.2145 30.3887 47.9327 30.1857 47.6681 29.9502C47.7407 30.1207 47.8474 30.2791 47.9797 30.409C48.0565 30.6202 48.1846 30.811 48.3468 30.9897C48.748 31.4282 49.303 31.7693 49.8877 31.9399C50.067 31.879 50.2463 31.8099 50.4213 31.7247C52.2184 30.8557 53.8618 29.5279 55.1978 28.0985C55.7954 27.457 56.5211 26.7179 56.8925 25.9139C56.4912 25.0896 55.979 24.3303 55.3302 23.6441C55.0783 23.3679 54.7582 23.3395 54.4893 23.4491Z" fill="#1E1E1E"/>
<path d="M69.5743 14.9056C69.3225 17.1998 67.8242 19.161 65.5533 20.1112C64.6527 20.4888 63.624 20.6837 62.5696 20.7081C62.2153 20.7162 61.861 20.704 61.511 20.6675C58.8133 20.5579 56.3162 18.6494 55.8295 16.079C55.4795 14.9583 56.8924 14.4061 56.6662 13.3666C56.8412 13.0783 57.0205 12.7981 57.1955 12.522C57.7461 11.6612 56.1966 10.7597 55.646 11.6205C55.5137 11.8276 55.3813 12.0388 55.2533 12.2499C55.1252 12.4611 54.9972 12.6763 54.8777 12.8956C53.8916 14.9543 53.8148 16.7409 55.1124 18.8687C56.6235 20.6634 58.7364 22.3486 61.511 22.2755C61.9549 22.3161 62.3989 22.3283 62.8343 22.3202C63.7051 22.2999 64.5502 22.178 65.3186 21.9588C68.7249 20.9923 71.0385 18.3327 71.3501 15.0355C71.3714 14.8162 71.3799 14.5929 71.3799 14.3655C70.9189 14.8 70.2146 15.0071 69.5743 14.9056Z" fill="#1E1E1E"/>
<path d="M64.0338 6.70313C62.8172 6.40265 61.5665 6.34174 60.4055 6.69095C58.5188 7.25943 57.2851 8.69688 56.2863 10.1749C55.7143 11.0195 57.2638 11.921 57.8358 11.0764C58.5486 10.0206 59.3767 8.94051 60.6402 8.38827C61.511 8.00252 62.4971 7.9944 63.466 8.19337C63.4276 7.64925 63.6538 7.09701 64.0338 6.70313Z" fill="#1E1E1E"/>
<path d="M65.7455 7.27973C65.1949 7.04422 64.6186 6.84931 64.0338 6.70312C63.6539 7.097 63.4277 7.64924 63.4618 8.1893C63.7521 8.25021 64.0381 8.3233 64.3198 8.4167C65.6132 8.839 66.9407 9.5496 67.9566 10.4307C69.0964 11.4175 69.5702 12.6722 69.6128 14.0203C69.6214 14.3208 69.6086 14.6172 69.5744 14.9055C70.2147 15.003 70.919 14.7959 71.38 14.3655C71.3886 12.9889 71.0257 11.523 70.108 10.3536C69.0281 8.98112 67.3804 7.98221 65.7455 7.27973Z" fill="#1E1E1E"/>
<path d="M69.7451 21.7964C69.5787 21.3903 69.1774 21.1102 68.7079 21.232C68.3024 21.3376 67.9523 21.8167 68.1188 22.2268C68.9683 24.3262 69.6299 26.4865 70.108 28.6914C67.7048 29.398 65.2332 29.873 62.7276 30.0883C62.2538 28.33 61.605 26.6245 60.7854 24.984C60.7683 24.8703 60.7427 24.7607 60.7085 24.6511C60.6445 24.4602 60.5634 24.2734 60.461 24.1029C60.4097 24.0095 60.3372 23.9323 60.2433 23.8755C60.1622 23.8024 60.064 23.7577 59.9573 23.7293C59.8463 23.6968 59.731 23.6927 59.6201 23.713C59.5091 23.7171 59.4024 23.7496 59.3042 23.8105C59.2487 23.8511 59.1889 23.8958 59.1334 23.9364C59.031 24.0379 58.9584 24.1556 58.9157 24.2937C58.9072 24.3668 58.8944 24.4358 58.8859 24.5089C58.8859 24.6551 58.9243 24.7891 59.0011 24.915C59.0182 24.9475 59.0353 24.98 59.0523 25.0165C59.0908 25.114 59.1164 25.2155 59.1377 25.317C59.142 25.4023 59.1633 25.4835 59.206 25.5566C59.2274 25.6134 59.253 25.6662 59.2914 25.7149C59.2914 25.7149 59.2914 25.7149 59.2914 25.719C60.1451 27.4082 60.7939 29.1949 61.2464 31.0303C61.319 31.3227 61.5793 31.5257 61.8739 31.5948C62.0105 31.6922 62.1769 31.7491 62.352 31.7369C65.3656 31.5136 68.3408 30.9572 71.2135 30.0558C71.5934 29.938 71.7727 29.6497 71.7941 29.3492C71.8752 29.1787 71.9008 28.9797 71.8624 28.7848C71.3672 26.3971 70.6629 24.0623 69.7451 21.7964Z" fill="#1E1E1E"/>
<path d="M67.2993 23.5913C67.2822 23.2015 66.9236 22.7264 66.4541 22.7832C65.6644 22.8807 64.8747 22.9781 64.0851 23.0796C63.3637 23.173 62.6423 23.2867 61.9508 23.5182C61.5367 23.6562 61.2123 24.0785 61.3617 24.513C61.494 24.9069 61.955 25.2277 62.399 25.0774C63.0649 24.8541 63.7564 24.7445 64.4564 24.647C64.4607 24.647 64.465 24.647 64.4692 24.647C64.5076 24.6429 64.5503 24.6389 64.5887 24.6308C64.6698 24.6226 64.7509 24.6105 64.8321 24.6023C65.0071 24.582 65.1863 24.5577 65.3614 24.5374C65.7285 24.4927 66.0955 24.444 66.4584 24.3993C66.6931 24.3709 66.881 24.3303 67.056 24.1638C67.1968 24.0217 67.3078 23.7902 67.2993 23.5913Z" fill="#1E1E1E"/>
<path d="M66.3686 25.7759C66.2235 25.3454 65.7923 25.1099 65.3313 25.2114C65.0197 25.2805 64.7039 25.3373 64.3837 25.382C63.9227 25.4348 63.4617 25.4673 63.0007 25.4673C62.561 25.4673 62.1341 25.8368 62.1555 26.2753C62.1768 26.7098 62.5269 27.0834 63.0007 27.0834C63.9355 27.0793 64.8746 26.9697 65.7795 26.7666C66.2107 26.6733 66.5052 26.1779 66.3686 25.7759Z" fill="#1E1E1E"/>
<path d="M63.8929 29.1949C64.6698 29.1259 65.4424 29 66.1937 28.801C66.3986 28.7482 66.5907 28.6061 66.6974 28.4315C66.8041 28.2569 66.8468 28.0051 66.7828 27.8102C66.6419 27.3961 66.2023 27.124 65.7455 27.2458C65.2461 27.3798 64.7381 27.4773 64.2259 27.5463C64.1149 27.5585 64.0039 27.5707 63.8929 27.5828C63.6624 27.6031 63.4618 27.66 63.2953 27.8184C63.1502 27.9564 63.0392 28.1879 63.0478 28.3909C63.0563 28.598 63.1289 28.8173 63.2953 28.9635C63.4533 29.0934 63.6752 29.2111 63.8929 29.1949Z" fill="#1E1E1E"/>
<path d="M51.0958 14.6781C51.0531 15.1126 51.5141 15.4862 51.941 15.4862C52.4361 15.4862 52.7392 15.1167 52.7861 14.6781C52.9996 12.5585 53.9088 10.4714 55.3302 8.82279C55.6205 8.48576 55.6759 8.01067 55.3302 7.68176C55.0314 7.39752 54.4295 7.34473 54.135 7.68176C52.402 9.68363 51.3562 12.0916 51.0958 14.6781Z" fill="#1E1E1E"/>
<path d="M48.1803 9.50093C48.0992 9.42784 48.0053 9.38317 47.8943 9.35475C47.6766 9.30602 47.4333 9.3182 47.2455 9.43596C47.0662 9.54966 46.9083 9.71208 46.857 9.91917C46.7973 10.1628 46.7589 10.4105 46.729 10.6582C46.7076 10.8409 46.6991 11.0277 46.6991 11.2104C46.7034 11.4175 46.7887 11.6327 46.9467 11.783C47.0235 11.8601 47.1132 11.917 47.2199 11.9495C47.3223 11.9982 47.429 12.0225 47.5443 12.0185C47.762 12.0104 47.9882 11.9413 48.1419 11.783C48.2913 11.6246 48.3938 11.4297 48.3895 11.2104C48.3852 11.0358 48.398 10.8612 48.4151 10.6866C48.4322 10.5729 48.4535 10.4592 48.4834 10.3455C48.5346 10.1384 48.5133 9.91105 48.398 9.72426C48.3468 9.63087 48.2742 9.55778 48.1803 9.50093Z" fill="#1E1E1E"/>
<path d="M64.4136 17.7075C64.3111 17.7441 64.2087 17.7766 64.102 17.8009C64.0849 17.805 64.0593 17.8131 64.0337 17.8212C64.0038 17.8253 63.9739 17.8253 63.9483 17.8253C63.8971 17.8294 63.8501 17.8253 63.7989 17.8253C63.7904 17.8212 63.7818 17.8212 63.7605 17.8172C63.3294 17.7197 62.8257 17.9471 62.7232 18.3816C62.625 18.7958 62.8513 19.2709 63.3123 19.3764C63.9782 19.5267 64.6057 19.3805 65.2203 19.1287C65.6259 18.9623 66.01 18.7552 66.3643 18.5034C67.1711 17.9268 67.8455 17.1634 68.0675 16.2011C68.1614 15.7909 67.9394 15.3077 67.4784 15.2062C67.0516 15.1128 66.5393 15.328 66.4412 15.7706C66.4198 15.8559 66.3985 15.9371 66.3729 16.0224C66.3601 16.0589 66.343 16.0955 66.3302 16.132C66.2533 16.2823 66.1722 16.4244 66.0741 16.5584C66.0655 16.5665 66.057 16.5746 66.0484 16.5868C66.057 16.5787 66.0613 16.5746 66.0741 16.5625C66.0484 16.5868 66.0271 16.6152 66.0058 16.6437C65.946 16.7086 65.8862 16.7736 65.8222 16.8345C65.7582 16.8954 65.6899 16.9563 65.6216 17.0172C65.5789 17.0538 65.5362 17.0863 65.4978 17.1188C65.4935 17.1228 65.4765 17.135 65.4594 17.1472C65.5362 17.0863 65.4124 17.1797 65.4039 17.1878C65.3655 17.2121 65.3271 17.2406 65.2886 17.2649C65.2118 17.3137 65.135 17.3624 65.0539 17.4071C64.8959 17.4964 64.7337 17.5817 64.563 17.6547C64.5374 17.6669 64.452 17.7157 64.4307 17.7116C64.4563 17.6994 64.4861 17.6913 64.5118 17.6791C64.4733 17.6832 64.4435 17.6954 64.4136 17.7075Z" fill="#1E1E1E"/>
<path d="M66.0443 16.5826C65.9675 16.6512 66.0059 16.627 66.0443 16.5826V16.5826Z" fill="#1E1E1E"/>
<g clip-path="url(#clip0)">
<path d="M97.1472 20.7144C94.6814 20.2867 92.2477 20.2745 89.7755 20.6777C89.0755 20.7938 88.6324 21.8384 88.8379 22.5592C89.0884 23.4266 89.7433 23.7504 90.4882 23.6282C90.5396 23.6221 90.5653 23.616 90.5846 23.6099C90.5974 23.6099 90.6167 23.6038 90.6423 23.6038C90.79 23.5854 90.9377 23.5671 91.0918 23.5488C91.3487 23.5182 91.6056 23.4938 91.8624 23.4755C92.3954 23.4327 92.9348 23.4144 93.4678 23.4205C93.9815 23.4266 94.4952 23.4449 95.0089 23.4877C95.2658 23.5121 95.5226 23.5366 95.7795 23.5671C95.863 23.5793 95.9529 23.5915 96.0363 23.5977C96.1134 23.6099 96.1519 23.616 96.1648 23.616C96.1712 23.616 96.1776 23.616 96.1905 23.6221C96.2739 23.6343 96.3574 23.6526 96.4473 23.6649C97.1408 23.787 97.9242 23.4694 98.0976 22.5958C98.2325 21.8689 97.8921 20.8426 97.1472 20.7144Z" fill="#F7C300"/>
<path d="M103.19 8.53998C98.7719 8.485 94.3218 8.2712 89.9103 8.42391C87.849 8.49111 87.8426 11.5454 89.9103 11.4782C94.3218 11.3316 98.7719 11.5393 103.183 11.5942C105.257 11.6187 105.257 8.56441 103.19 8.53998Z" fill="#F7C300"/>
<path d="M120.014 5.25977C119.95 5.16814 119.86 5.08262 119.789 5.00321C119.751 4.95434 119.718 4.9238 119.699 4.89936C119.686 4.88104 119.673 4.85049 119.635 4.78941C119.519 4.61226 119.378 4.47787 119.23 4.37402C118.53 3.67154 117.375 3.61045 116.514 4.25185C115.692 4.86271 114.896 5.51633 114.138 6.20049C112.7 7.49552 111.371 8.89438 110.073 10.3116C109.431 11.0141 108.808 11.7349 108.147 12.4191C107.543 13.0483 106.818 13.5431 106.176 14.1417C105.469 14.8014 104.936 15.6689 104.917 16.6218C104.898 17.8069 105.906 18.8575 107.203 18.7048C108.282 18.5765 109.11 17.5808 109.868 16.9089C110.69 16.182 111.518 15.4551 112.34 14.7281C114.035 13.2315 115.885 11.796 117.426 10.1528C117.811 9.74348 118.139 9.27922 118.543 8.87606C118.896 8.51565 119.333 8.23465 119.68 7.86814C120.117 7.40999 120.425 6.87244 120.393 6.23715C120.361 5.89506 120.219 5.54077 120.014 5.25977Z" fill="#F7C300"/>
<path d="M101.231 2.27872C97.6353 2.27261 94.0457 2.27261 90.4497 2.2665C89.5186 2.2665 88.5875 2.2665 87.6564 2.2665C87.1748 2.2665 86.4235 2.10157 86.1024 2.56582C85.974 2.75519 85.9932 3.10338 85.974 3.32329C85.8134 4.99093 85.7942 6.6769 85.7364 8.35065C85.5309 14.5386 85.6465 20.7388 86.0703 26.9207C86.1217 27.6476 86.1281 28.3929 86.2373 29.1137C86.2758 29.3642 86.34 29.5535 86.4235 29.7062C86.3528 29.5657 86.3015 29.3886 86.2694 29.1687C86.1602 28.4479 86.1538 27.7026 86.1024 26.9757C85.6722 20.7938 85.563 14.5936 85.7685 8.39951C85.8263 6.73187 85.8391 5.0398 86.0061 3.37215C86.0253 3.15225 86.0061 2.80406 86.1409 2.60858C86.462 2.14433 87.2133 2.30926 87.6949 2.30926C88.626 2.30926 89.5571 2.30926 90.4882 2.31537C94.0842 2.32148 97.6738 2.32148 101.27 2.32759C101.95 2.32759 102.188 1.67397 101.983 1.20972C102.13 1.66786 101.886 2.27872 101.231 2.27872Z" fill="#1E1E1E"/>
<path d="M108.552 9.08985C108.539 8.75388 108.436 8.37515 108.417 8.05751C108.378 7.50773 108.34 6.95185 108.314 6.40208C108.263 5.31476 108.256 4.22743 108.391 3.15232C108.462 2.60255 108.519 2.08332 108.134 1.6374C107.775 1.22202 107.299 0.953241 106.741 0.87383C106.066 0.782201 105.373 0.867721 104.705 0.727224C104.602 0.70279 104.493 0.678355 104.397 0.641704C103.408 0.293516 102.984 1.80844 103.96 2.15052C104.269 2.26047 104.609 2.32767 104.936 2.3521C105.405 2.38264 105.9 2.27269 106.349 2.44984C106.895 2.66364 106.702 3.21952 106.625 3.67766C106.516 4.3435 106.555 5.02766 106.599 5.6996C106.677 6.97018 106.754 8.23465 106.831 9.50524C106.869 10.1589 107.569 10.7819 108.179 10.1405C108.314 9.99392 108.391 9.80456 108.462 9.6213C108.5 9.52356 108.539 9.42583 108.545 9.32198C108.552 9.24257 108.558 9.16316 108.552 9.08985Z" fill="#1E1E1E"/>
<path d="M84.2786 4.92382C84.3429 3.74486 84.1631 2.05279 85.2226 1.2037C85.807 0.733336 86.5583 0.745553 87.2839 0.745553C88.1508 0.745553 89.0112 0.745553 89.8781 0.745553C93.6732 0.751662 97.4618 0.751662 101.257 0.75777C101.629 0.75777 101.86 0.959353 101.97 1.2098C101.873 0.92881 101.623 0.708902 101.225 0.708902C97.4361 0.702793 93.6475 0.702793 89.8524 0.696685C88.9855 0.696685 88.1251 0.690576 87.2582 0.696685C86.5326 0.696685 85.7813 0.684467 85.1969 1.15483C84.1374 1.99781 84.3108 3.69599 84.2465 4.86884C83.8677 12.1503 83.9255 19.45 84.4199 26.7254C84.497 27.8493 84.3814 29.352 84.9208 30.4394C84.4135 29.3582 84.5227 27.886 84.4456 26.7803C83.9576 19.505 83.8998 12.1992 84.2786 4.92382Z" fill="#1E1E1E"/>
<path d="M108.417 28.3754C108.603 25.9931 108.121 23.5741 108.346 21.1856C108.378 20.8558 108.423 20.5198 108.378 20.1899C108.333 19.8601 108.186 19.5302 107.903 19.3286C107.62 19.1331 107.19 19.1087 106.94 19.3408C106.696 19.5607 106.683 19.9212 106.683 20.2388C106.709 23.0304 106.728 25.8281 106.747 28.6198C106.754 29.0474 106.722 29.5361 106.458 29.9026C106.131 30.3485 105.54 30.3851 105.013 30.3974C100.717 30.489 96.428 30.5989 92.132 30.4462C90.668 30.3974 89.2039 30.3363 87.7462 30.2324C87.0591 30.1836 86.6417 30.1042 86.417 29.6949C86.3335 29.5483 86.2693 29.3589 86.2308 29.1023C86.1216 28.3815 86.1152 27.6363 86.0638 26.9094C85.6464 20.7397 85.5308 14.5395 85.7363 8.35154C85.7941 6.6839 85.8069 4.99183 85.9739 3.32418C85.9932 3.10427 85.9739 2.75609 86.1088 2.56061C86.4298 2.09636 87.1811 2.26129 87.6627 2.26129C88.5938 2.26129 89.5249 2.26129 90.456 2.26129C94.052 2.2674 97.6416 2.2674 101.238 2.27351C101.893 2.27351 102.143 1.66876 101.983 1.21062C101.873 0.960162 101.642 0.758579 101.27 0.758579C97.4682 0.758579 93.6732 0.752471 89.8781 0.752471C89.0112 0.752471 88.1508 0.746362 87.2839 0.752471C86.5583 0.752471 85.8069 0.740254 85.2226 1.21062C84.1631 2.04749 84.3364 3.74568 84.2786 4.92463C83.8998 12.206 83.9576 19.5058 84.452 26.7811C84.5291 27.8867 84.4135 29.3589 84.9272 30.4462C85.0043 30.6051 85.0877 30.7578 85.1905 30.8983C86.0895 32.1017 88.0223 31.8879 89.3773 31.9551C93.0953 32.1505 96.8261 32.2116 100.551 32.1383C101.861 32.1139 103.177 32.1322 104.487 32.0589C105.591 32.0039 106.766 32.0222 107.543 31.1426C108.044 30.5745 108.243 29.8232 108.346 29.084C108.372 28.8519 108.398 28.6137 108.417 28.3754ZM100.518 32.0833C98.6626 32.12 96.8068 32.12 94.951 32.0894C96.8068 32.12 98.6626 32.12 100.518 32.0833C101.668 32.0589 102.849 32.065 104.018 32.0222C102.849 32.065 101.668 32.0589 100.518 32.0833Z" fill="#1E1E1E"/>
<path d="M98.8361 5.57124C95.4584 5.74839 92.0743 5.72395 88.7031 5.49183C88.1829 5.45518 87.7399 5.93775 87.7399 6.4081C87.7399 6.93343 88.1829 7.28772 88.7031 7.32437C92.0743 7.55649 95.4584 7.58092 98.8361 7.40378C100.069 7.34269 100.075 5.50405 98.8361 5.57124Z" fill="#1E1E1E"/>
<path d="M105.033 9.12648C99.5038 9.02263 93.9749 8.92489 88.4461 8.82104C87.2068 8.79661 87.2068 10.6292 88.4461 10.6537C93.9749 10.7575 99.5038 10.8552 105.033 10.9591C106.272 10.9774 106.272 9.1448 105.033 9.12648Z" fill="#1E1E1E"/>
<path d="M96.4023 12.193C93.8016 12.3335 91.1945 12.2418 88.6131 11.9181C88.0994 11.8509 87.6499 12.3884 87.6499 12.8344C87.6499 13.3841 88.093 13.6835 88.6131 13.7507C91.1945 14.0805 93.8016 14.1721 96.4023 14.0255C96.9225 13.995 97.3655 13.6224 97.3655 13.1093C97.3655 12.6389 96.9225 12.1685 96.4023 12.193Z" fill="#1E1E1E"/>
<path d="M96.3637 21.2459C93.7951 21.2704 91.2266 21.2642 88.658 21.2276C87.4187 21.2093 87.4187 23.0419 88.658 23.0602C91.2266 23.103 93.7951 23.1091 96.3637 23.0785C97.5966 23.0663 97.603 21.2337 96.3637 21.2459Z" fill="#1E1E1E"/>
<path d="M104.532 24.1902C99.1955 24.2452 93.8657 24.1902 88.5295 24.0314C87.2902 23.9947 87.2902 25.8273 88.5295 25.8639C93.8593 26.0227 99.1955 26.0777 104.532 26.0227C105.765 26.0105 105.771 24.178 104.532 24.1902Z" fill="#1E1E1E"/>
<path d="M104.493 27.049L99.2149 27.0796C98.714 27.0796 98.226 27.501 98.2516 27.9958C98.2773 28.4906 98.6755 28.9121 99.2149 28.9121L104.493 28.8816C104.994 28.8816 105.482 28.4601 105.456 27.9653C105.437 27.4705 105.033 27.0429 104.493 27.049Z" fill="#1E1E1E"/>
<path d="M123 2.26042C123.006 1.90001 122.846 1.49685 122.557 1.25251C122.159 0.922642 121.703 0.843231 121.195 0.928751C120.913 0.977619 120.643 1.1059 120.393 1.24029C120.174 1.36246 119.962 1.48463 119.757 1.61902C119.34 1.89391 118.935 2.19323 118.543 2.49865C118.306 2.40092 118.049 2.35205 117.786 2.37648C117.567 2.39481 117.381 2.45589 117.195 2.53531C117.028 2.30318 116.765 2.13825 116.482 2.05884C116.078 1.94277 115.564 2.01608 115.159 2.09549C114.286 2.26042 113.721 2.84684 113.246 3.51879C113.143 3.65928 113.047 3.80589 112.937 3.94639C112.931 3.9586 112.873 4.0258 112.841 4.06245C112.828 4.07467 112.815 4.09299 112.79 4.12354C112.758 4.16019 112.726 4.19684 112.693 4.23349C112.449 4.50838 112.193 4.76494 111.923 5.01539C111.647 5.27806 111.364 5.52851 111.082 5.77896C111.03 5.82172 110.985 5.86448 110.934 5.90113C110.928 5.90724 110.895 5.91946 110.863 5.94389C110.433 5.77896 109.881 5.91335 109.656 6.31651C109.412 6.75022 109.528 7.31832 109.996 7.56877C110.831 8.02692 111.705 7.69705 112.366 7.13506C112.88 6.69525 113.387 6.23099 113.849 5.74231C114.113 5.46742 114.357 5.17421 114.588 4.86878C114.678 4.75272 114.761 4.63055 114.845 4.51448C114.896 4.44729 114.941 4.3801 114.992 4.30679C114.999 4.29458 115.044 4.2396 115.069 4.20295C115.101 4.1724 115.146 4.11743 115.159 4.10521C115.204 4.05634 115.262 4.01358 115.313 3.97082C115.326 3.96471 115.333 3.9586 115.358 3.94639C115.384 3.93417 115.403 3.92195 115.416 3.91584C115.429 3.91584 115.435 3.90974 115.455 3.90974C115.525 3.89141 115.596 3.87919 115.679 3.85476C115.692 3.85476 115.692 3.85476 115.737 3.85476C115.769 3.89141 115.801 3.92195 115.84 3.9525C115.911 4.01969 111.968 8.00859 111.608 8.38121C109.11 10.9651 106.041 13.0054 103.723 15.7482C102.682 16.9821 101.822 18.3504 101.283 19.8531C101.051 20.4884 101.796 21.197 102.464 20.9771C105.219 20.0547 107.383 18.2221 109.386 16.2552C112.751 12.9443 116.2 9.71288 119.693 6.5181C119.802 6.42036 119.911 6.31651 120.02 6.21878C120.084 6.15769 120.136 6.08439 120.181 6.01109C120.418 5.79118 120.528 5.47353 120.45 5.12534C120.412 4.94819 120.354 4.77104 120.29 4.6C120.348 4.58168 120.406 4.57557 120.463 4.55114C121.472 4.05634 122.974 3.53711 123 2.26042ZM113.836 9.56628C111.993 11.1912 110.163 12.8283 108.423 14.557C107.659 15.3144 106.869 16.0719 106.028 16.7744C105.97 16.6095 105.906 16.4506 105.835 16.2857C105.816 16.2491 105.79 16.2246 105.765 16.1941C105.553 15.9192 109.374 12.8893 109.669 12.6328C110.806 11.6432 111.923 10.6292 113.008 9.59071C114.061 8.5889 115.018 7.48936 116.078 6.49366C116.713 5.8095 117.285 5.04593 117.965 4.40453C118.139 4.48394 118.267 4.72828 118.357 4.89322C118.383 4.94819 118.408 5.00317 118.408 5.05815C118.402 5.13756 118.338 5.19865 118.28 5.25362C117.542 5.95611 116.803 6.65249 116.071 7.35497C115.692 7.72149 115.32 8.08189 114.947 8.45452C114.819 8.57669 113.952 9.59682 113.836 9.56628Z" fill="#1E1E1E"/>
</g>
<path d="M2.2361 1.15269C4.94449 1.06449 7.65776 1.04128 10.3661 1.07377C10.1319 0.623477 9.66831 0.266026 8.9656 0.224246C7.5504 0.140687 6.13521 0.117475 4.72002 0.182466C3.71962 0.228889 2.30442 0.12676 1.46506 0.707037C0.591546 1.30588 0.654992 2.56857 0.518353 3.45059C0.323153 4.68078 0.15723 5.91096 0.0108304 7.14579C-0.0867692 7.96747 0.489073 8.42705 1.18203 8.52917C1.25035 6.45875 1.37234 4.38832 1.57242 2.32717C1.27474 1.90009 1.49922 1.1759 2.2361 1.15269Z" fill="#F7C300"/>
<path d="M3.19267 2.59634C3.16827 2.85166 3.14387 3.11163 3.12435 3.36695C3.01211 4.68535 2.92915 6.00374 2.87059 7.32214C2.86083 7.56354 2.85595 7.80029 2.84619 8.04169C3.08531 7.81886 3.25611 7.52176 3.30003 7.14573C3.44643 5.90161 3.46594 4.41145 3.78314 3.11627C4.45169 3.06056 5.17881 3.10234 5.78392 3.08841C6.84775 3.0652 7.9067 3.10234 8.97053 3.16269C9.63908 3.20447 10.0929 2.93522 10.3369 2.54527C7.9555 2.52206 5.57409 2.5267 3.19267 2.59634Z" fill="#F7C300"/>
<path d="M6.26205 31.8285C6.41821 32.0142 6.63293 32.1767 6.92573 32.2927C7.98468 32.7198 9.58042 32.4367 10.7175 32.4367C12.4059 32.432 14.0944 32.4274 15.7829 32.4227C16.466 32.4227 16.9248 32.1117 17.1688 31.6985C17.1444 31.6985 17.12 31.6985 17.0956 31.6985C15.4461 31.6985 13.7918 31.6707 12.1473 31.7635C10.6443 31.8471 9.12171 32.1674 7.65284 31.7357C6.88669 31.5082 6.96476 30.6587 7.49668 30.408C7.04772 30.4544 6.56949 30.2316 6.59877 29.7395C6.69149 28.124 6.79397 26.5039 6.88668 24.8837C5.0079 25.204 6.50117 29.3588 5.94973 31.1972C6.00829 31.4246 6.10589 31.6382 6.26205 31.8285Z" fill="#F7C300"/>
<path d="M15.7829 29.4841C14.7679 29.4888 13.7577 29.4888 12.7427 29.4934C12.406 29.4934 12.0692 29.4934 11.7325 29.4981C7.83834 30.4637 10.7565 25.9468 8.51177 25.1854C8.42393 26.7034 8.32633 28.2215 8.23849 29.7395C8.21897 30.0412 8.02378 30.2408 7.77002 30.343C7.86762 30.3383 7.9701 30.3476 8.08722 30.3801C9.52681 30.8072 11.1713 30.394 12.6548 30.3337C14.1725 30.2733 15.6951 30.2919 17.2127 30.2919C16.9834 29.8323 16.51 29.4795 15.7829 29.4841Z" fill="#F7C300"/>
<path d="M23.1906 28.6672C22.5953 28.8807 21.9316 28.955 21.307 28.7786C20.2285 28.4675 19.3452 27.6087 19.1208 26.6107C18.9939 26.0397 19.0329 25.4501 19.3452 24.9302C19.5746 24.5449 19.9406 24.2896 20.3651 24.1457C20.3505 24.0899 20.3261 24.0389 20.3212 23.9785C20.3212 23.9692 20.3212 23.96 20.3212 23.9553C19.9308 24.0667 19.5697 24.2339 19.2867 24.5263C18.7011 25.1252 18.5254 25.8772 18.6864 26.6524C18.8036 27.2281 19.2281 27.7712 19.7356 28.1333C20.1797 28.449 20.6872 28.7089 21.2338 28.8668C21.3851 28.9318 21.5412 28.9921 21.6974 29.0478C21.9999 29.1499 22.3366 29.2056 22.6636 29.1871C23.1418 29.1639 23.5664 29.0107 23.9714 28.7878C24.3228 28.5975 24.6449 28.3608 24.8352 28.0265C24.9962 27.7387 25.0743 27.423 25.0694 27.1027C24.9718 27.3673 24.8352 27.6134 24.6302 27.8362C24.2593 28.2354 23.7226 28.4768 23.1906 28.6672Z" fill="#F7C300"/>
<path d="M23.5713 25.7286C23.5615 25.6961 23.5518 25.6729 23.5469 25.6636C23.5371 25.6451 23.5225 25.6219 23.5127 25.6033C23.4786 25.5429 23.4347 25.4919 23.3956 25.4362C23.3956 25.4362 23.3956 25.4362 23.3908 25.4362C23.3664 25.4176 23.3468 25.3897 23.3224 25.3712C23.2736 25.3248 23.2199 25.283 23.1614 25.2412C23.1565 25.2412 23.0443 25.1623 23.0101 25.1437C22.932 25.1019 22.8539 25.0601 22.771 25.023C22.7368 25.0091 22.7027 24.9952 22.6685 24.9812C22.6539 24.9766 22.6392 24.9719 22.6051 24.9627C22.5124 24.9348 22.4148 24.907 22.322 24.8837C22.2 24.8559 22.0731 24.828 21.9463 24.8095C21.9023 24.8002 21.8633 24.7955 21.8194 24.7909C21.8145 24.7909 21.7804 24.7863 21.7462 24.7816C21.7511 25.1762 21.39 25.4176 20.9996 25.4826C20.9947 25.4872 20.9898 25.4872 20.9849 25.4919C21.0532 25.4872 20.9556 25.5104 20.9703 25.5012C20.9459 25.5104 20.9264 25.5244 20.902 25.5337C20.8971 25.5337 20.8971 25.5383 20.8922 25.5383C20.8678 25.5615 20.8336 25.594 20.8092 25.6126C20.819 25.6033 20.819 25.6033 20.8288 25.5986C20.8532 25.5801 20.858 25.5754 20.858 25.5754C20.858 25.5754 20.8532 25.5801 20.8288 25.5986C20.819 25.6079 20.8044 25.6219 20.7995 25.6358C20.7946 25.6451 20.7751 25.6729 20.7653 25.6961C20.7556 25.724 20.7263 25.7936 20.7214 25.8029C20.7116 25.84 20.7019 25.8725 20.697 25.9097C20.697 25.919 20.697 25.9329 20.697 25.9468C20.697 25.9932 20.6921 26.0397 20.697 26.0861C20.697 26.0861 20.7019 26.1464 20.7019 26.1836C20.7068 26.2068 20.7068 26.23 20.7116 26.2393C20.7312 26.3275 20.7604 26.4203 20.7897 26.5039C20.7995 26.5271 20.8092 26.5457 20.8141 26.5689C20.819 26.5828 20.8288 26.6014 20.8336 26.6106C20.8824 26.6896 20.9312 26.7731 20.9898 26.8474C20.9947 26.8567 21.0191 26.8845 21.0337 26.9031C21.0386 26.9077 21.0435 26.917 21.0484 26.917C21.1069 26.9774 21.1704 27.0377 21.2387 27.0934C21.2728 27.1213 21.307 27.1491 21.3412 27.177C21.346 27.177 21.3509 27.1863 21.3607 27.1909C21.39 27.2095 21.4436 27.2373 21.4534 27.242C21.4924 27.2652 21.5315 27.2838 21.5705 27.3023C21.6096 27.3209 21.6486 27.3395 21.6925 27.358C21.6974 27.358 21.7023 27.3627 21.712 27.3627C21.7657 27.3766 21.8145 27.3905 21.8682 27.4045C21.878 27.4091 21.9365 27.4184 21.9658 27.423C21.9853 27.423 22.0097 27.4277 22.0097 27.4277C22.0634 27.4277 22.1171 27.4277 22.1756 27.423C22.1951 27.423 22.2098 27.423 22.2196 27.423C22.2244 27.4184 22.2293 27.4184 22.2391 27.4137C22.2879 27.3952 22.3464 27.3905 22.4001 27.3766C22.488 27.3534 22.5758 27.3255 22.6588 27.2977C22.6783 27.2884 22.7027 27.2838 22.7076 27.2791C22.7515 27.2606 22.7954 27.242 22.8393 27.2234C22.9125 27.1909 22.9906 27.1538 23.0638 27.1166C23.1175 27.0888 23.1663 27.0609 23.2151 27.0331C23.22 27.0284 23.2297 27.0238 23.2346 27.0192C23.2883 26.9727 23.3419 26.9217 23.3956 26.8799C23.4103 26.852 23.4347 26.8195 23.4542 26.7917C23.464 26.7778 23.4688 26.7731 23.4737 26.7638C23.4883 26.7267 23.503 26.6849 23.5176 26.6478C23.5518 26.5457 23.5713 26.4435 23.5908 26.3414C23.5908 26.3368 23.5908 26.3368 23.5908 26.3321C23.5957 26.2857 23.6006 26.2393 23.6055 26.1928C23.6104 26.0907 23.6104 25.9886 23.6055 25.8865C23.6006 25.8168 23.5859 25.775 23.5713 25.7286Z" fill="#F7C300"/>
<path d="M8.24337 25.1112C8.34097 25.1297 8.42881 25.1529 8.51665 25.1808C8.59961 23.7788 8.67769 22.3815 8.73625 20.9796C8.84849 18.2917 8.79969 15.5946 8.24337 12.9393C14.519 12.3265 20.8337 12.1222 27.1435 12.3172C26.7824 18.301 26.5677 24.2848 26.4994 30.2779L17.3641 30.2872C17.3153 30.2872 17.2665 30.2872 17.2128 30.2872C17.4324 30.7282 17.4177 31.2667 17.1689 31.6938C20.3896 31.6892 23.6104 31.6892 26.8312 31.6845C27.3095 31.9445 28.1244 31.7588 28.1342 31.1182C28.1976 24.6609 28.427 18.2082 28.8223 11.7648C28.8418 11.4723 28.6807 11.2774 28.4514 11.1706C28.3196 11.036 28.1195 10.9385 27.856 10.9292C21.0875 10.6832 14.3092 10.906 7.58457 11.593C7.14537 11.6394 6.89161 11.9133 6.8233 12.2151C6.62322 12.3683 6.50609 12.6004 6.56953 12.8836C7.19905 15.6225 7.20393 18.4217 7.08193 21.2024C7.02825 22.428 6.95505 23.6535 6.88673 24.879C7.21857 24.8233 7.65777 24.8883 8.24337 25.1112Z" fill="#1E1E1E"/>
<path d="M7.49187 30.4034C6.95995 30.6541 6.88188 31.5036 7.64803 31.7311C9.11691 32.1628 10.6395 31.8425 12.1425 31.759C13.787 31.6661 15.4413 31.6986 17.0908 31.694C17.1152 31.694 17.1396 31.694 17.164 31.694C17.4129 31.2669 17.4275 30.7284 17.2079 30.2874C15.6902 30.2874 14.1677 30.2688 12.65 30.3292C11.1665 30.3895 9.52194 30.798 8.08235 30.3756C7.97011 30.3431 7.86275 30.3338 7.76515 30.3384C8.01891 30.2409 8.21899 30.0413 8.23363 29.7349C8.32147 28.2169 8.41907 26.6989 8.50691 25.1809C8.42395 25.1531 8.33611 25.1252 8.23363 25.1113C7.65291 24.8885 7.20883 24.8235 6.87211 24.8838C6.77939 26.504 6.67692 28.1195 6.5842 29.7396C6.56468 30.2317 7.04291 30.4498 7.49187 30.4034Z" fill="#1E1E1E"/>
<path d="M29.8517 28.5975L32.0672 28.1983C32.2917 28.1751 32.5113 28.0915 32.6675 27.9523C33.0432 27.9105 33.4043 27.683 33.4531 27.2559C34.19 20.5154 34.2339 13.7285 33.5898 6.98334C33.8826 6.56089 33.663 5.83671 32.9261 5.8135C26.7725 5.60924 20.6091 5.71601 14.4701 6.13381C14.4018 6.11524 14.3286 6.10596 14.2651 6.10596C14.0504 6.11524 13.8308 6.17559 13.6844 6.3195C13.5283 6.47269 13.4697 6.63517 13.4453 6.83943C13.3477 7.64253 13.4648 8.48277 13.782 9.23946C13.8601 9.4205 13.9675 9.57834 14.1578 9.68047C14.3335 9.77331 14.5921 9.81045 14.7922 9.75474C15.1875 9.64333 15.5291 9.23481 15.368 8.84951C15.2411 8.54777 15.1533 8.23674 15.0996 7.92107C15.085 7.80501 15.0752 7.68431 15.0703 7.56826C20.6969 7.20616 26.3382 7.09939 31.9745 7.25723C32.5748 13.7424 32.5357 20.2647 31.8623 26.7499L29.8566 27.1259C29.4321 27.1724 29.0124 27.4323 29.0319 27.8594C29.0465 28.2261 29.393 28.6486 29.8517 28.5975Z" fill="#1E1E1E"/>
<path d="M10.3368 2.54529C13.5966 2.58243 16.8515 2.69848 20.1016 2.90738C20.0967 3.02343 20.087 3.14412 20.0723 3.26018C20.0138 3.57584 19.9259 3.88687 19.8039 4.18861C19.6429 4.5739 19.9845 4.97777 20.3798 5.09382C20.575 5.14953 20.8385 5.11239 21.0142 5.01955C21.2094 4.91742 21.3167 4.76423 21.3899 4.57855C21.7071 3.82188 21.8242 2.98165 21.7266 2.17856C21.7022 1.97431 21.6437 1.81183 21.4875 1.65864C21.3411 1.51473 21.1166 1.44974 20.9068 1.4451C20.8385 1.44046 20.7702 1.45439 20.697 1.47296C17.2615 1.24085 13.8162 1.11551 10.3709 1.07373C10.6149 1.54723 10.6052 2.11821 10.3368 2.54529Z" fill="#1E1E1E"/>
<path d="M1.70911 22.5951C1.75303 23.0175 2.11903 23.2497 2.49478 23.2914C2.65094 23.4261 2.87055 23.5143 3.09502 23.5375C3.37806 23.5653 3.66598 23.5978 3.94902 23.6257C4.26621 23.6582 4.58829 23.6907 4.91037 23.7278C4.98845 23.7371 5.0714 23.7464 5.1446 23.7232C5.26172 23.6907 5.33492 23.5932 5.39348 23.4957C5.53012 23.2543 5.57892 22.9526 5.44228 22.7112C5.3886 22.6183 5.31052 22.5348 5.22268 22.4651C5.09092 22.363 4.92988 22.2887 4.7542 22.2469C4.65661 22.2237 4.55413 22.2144 4.45165 22.2052C4.26621 22.1866 4.08077 22.168 3.90021 22.1495C3.81237 22.1402 3.72454 22.1309 3.6367 22.1216C3.55862 22.1123 3.42198 22.1216 3.34878 22.0937C3.25118 22.052 3.27558 21.7781 3.26094 21.6713C3.2463 21.5088 3.22678 21.3417 3.21214 21.1792C3.1487 20.52 3.09502 19.8608 3.04622 19.2016C2.94862 17.8833 2.87542 16.5649 2.8315 15.2465C2.78758 13.9281 2.76807 12.605 2.77295 11.2867C2.77783 10.205 2.8071 9.12802 2.84614 8.04639C2.41671 8.45026 1.75792 8.61738 1.18208 8.52918C1.02592 13.2178 1.19672 17.9204 1.70911 22.5951Z" fill="#1E1E1E"/>
<path d="M2.8412 8.04178C2.85096 7.80039 2.85584 7.56363 2.8656 7.32224C2.92416 6.00385 3.012 4.68545 3.11936 3.36706C3.13888 3.11174 3.16328 2.85178 3.18768 2.59645C5.56912 2.53146 7.95055 2.52218 10.332 2.55003C10.6004 2.12295 10.6102 1.54731 10.3662 1.07845C7.65775 1.04595 4.94447 1.06916 2.23608 1.15736C1.49432 1.18058 1.27472 1.90476 1.5724 2.3272C1.3772 4.39299 1.25033 6.45878 1.18201 8.52921C1.75784 8.61278 2.41176 8.44565 2.8412 8.04178Z" fill="#1E1E1E"/>
<path d="M17.5447 15.446C19.8139 15.4971 22.083 15.6549 24.3474 15.8128C25.4014 15.887 25.3966 14.4155 24.3474 14.3412C22.083 14.1833 19.8187 14.0255 17.5447 13.9744C15.3145 13.9234 13.0892 14.0069 10.864 14.0998C9.80983 14.1416 9.80495 15.6132 10.864 15.5714C13.0892 15.4785 15.3145 15.3996 17.5447 15.446Z" fill="#1E1E1E"/>
<path d="M11.0786 18.0178C14.3433 17.8368 17.6178 17.8693 20.8825 18.12C21.9366 18.1989 21.9317 16.732 20.8825 16.6484C17.6227 16.3977 14.3482 16.3652 11.0786 16.5463C10.0295 16.6066 10.0197 18.0736 11.0786 18.0178Z" fill="#1E1E1E"/>
<path d="M23.9714 19.8887C21.873 19.5266 19.7453 19.4802 17.6177 19.4895C15.5095 19.4988 13.4063 19.4709 11.2932 19.4059C10.2343 19.3734 10.2343 20.8404 11.2932 20.8775C13.3184 20.9425 15.3436 20.975 17.3737 20.9658C19.433 20.9565 21.5021 20.9611 23.5322 21.3139C24.5667 21.4857 25.0108 20.0651 23.9714 19.8887Z" fill="#1E1E1E"/>
<path d="M16.7345 22.0706C14.9338 21.7921 13.1135 21.7132 11.2933 21.8664C10.8639 21.9035 10.4491 22.1774 10.4686 22.5998C10.4881 22.9666 10.8346 23.3751 11.2933 23.3333C12.9671 23.1894 14.6947 23.2358 16.2953 23.4819C16.7198 23.5468 17.2029 23.3797 17.3054 22.9666C17.403 22.6138 17.1883 22.1403 16.7345 22.0706Z" fill="#1E1E1E"/>
<path d="M12.8598 3.95192C10.21 3.9612 7.56501 4.02155 4.92007 4.14226C3.866 4.18868 3.86112 5.66034 4.92007 5.61391C7.56501 5.49321 10.2148 5.42822 12.8598 5.42357C13.9187 5.41893 13.9187 3.94727 12.8598 3.95192Z" fill="#1E1E1E"/>
<path d="M4.91033 6.81618C4.46626 6.79761 4.10514 7.21078 4.12466 7.58217C4.14418 8.00926 4.53457 8.26459 4.98353 8.28316C7.02336 8.36208 9.06318 8.36208 11.103 8.28316C12.162 8.24138 12.0888 6.7744 11.0298 6.81618C8.98998 6.8951 6.94528 6.8951 4.91033 6.81618Z" fill="#1E1E1E"/>
<path d="M5.90094 16.1609C5.77893 16.0031 5.64717 15.8499 5.48613 15.7199C5.44221 15.6828 5.38852 15.6503 5.33972 15.6131C5.40804 15.5156 5.47637 15.4228 5.54957 15.3346C5.69109 15.1582 5.87654 15.0004 5.87166 14.7636C5.8619 14.2994 5.15428 14.0069 4.79804 13.7655C4.55891 13.6077 4.18803 13.733 4.04651 13.9419C3.88059 14.188 4.00746 14.4526 4.24171 14.6104C4.31491 14.6568 4.47107 14.7497 4.60771 14.8332C4.54427 14.9121 4.48083 14.9957 4.41739 15.0793C4.28563 15.2696 4.11971 15.4878 4.11971 15.7153C4.11483 16.0402 4.40275 16.2073 4.66139 16.393C4.41251 16.6112 4.16363 16.8247 3.89523 17.0244C3.66098 17.2008 3.70978 17.535 3.89523 17.7161C4.04163 17.86 4.18803 18.0085 4.33931 18.1524C4.22707 18.2128 4.11971 18.2778 4.00747 18.3428C3.5829 18.5841 3.7049 19.0855 4.13923 19.2387C4.23195 19.2712 4.31979 19.313 4.39787 19.3594C4.17339 19.5265 3.95379 19.6983 3.74395 19.8886C3.43162 20.1718 3.61218 20.5757 3.98795 20.7056C4.22707 20.7892 4.41739 20.9517 4.54915 21.142C4.92492 21.6759 5.87165 21.1838 5.49589 20.6453C5.35925 20.455 5.20308 20.2971 5.02252 20.1579C5.18356 20.0372 5.34949 19.9165 5.52517 19.8097C5.83261 19.6147 5.87165 19.299 5.63741 19.0391C5.53981 18.9323 5.43245 18.8395 5.31533 18.7559C5.35925 18.7281 5.40805 18.7048 5.45197 18.677C5.75941 18.5006 5.80821 18.1478 5.56421 17.9064C5.39341 17.7393 5.22748 17.5721 5.05668 17.405C5.31532 17.1915 5.56909 16.9779 5.80821 16.7458C5.97414 16.6066 6.04246 16.3373 5.90094 16.1609Z" fill="#F7C300"/>
<path d="M29.4273 24.582C29.6664 24.6655 29.8568 24.828 29.9885 25.0183C30.3643 25.5522 31.311 25.0601 30.9352 24.5216C30.7986 24.3313 30.6424 24.1735 30.4619 24.0342C30.6229 23.9135 30.7888 23.7928 30.9645 23.686C31.272 23.491 31.311 23.1754 31.0768 22.9154C30.9792 22.8086 30.8718 22.7158 30.7547 22.6322C30.7986 22.6044 30.8474 22.5812 30.8913 22.5533C31.1988 22.3769 31.2476 22.0241 31.0036 21.7827C30.8328 21.6156 30.6668 21.4485 30.496 21.2814C30.7547 21.0678 31.0084 20.8543 31.2476 20.6222C31.4037 20.4736 31.4769 20.209 31.3354 20.028C31.2134 19.8701 31.0816 19.7169 30.9206 19.5869C30.8767 19.5498 30.823 19.5173 30.7742 19.4802C30.8425 19.3827 30.9108 19.2898 30.984 19.2016C31.1256 19.0252 31.311 18.8674 31.3061 18.6306C31.3012 18.4496 31.189 18.2964 31.0377 18.1571C30.945 18.055 30.8425 17.9575 30.7303 17.8693C30.8913 17.7486 31.0572 17.6279 31.2329 17.5212C31.5404 17.3262 31.5794 17.0105 31.3452 16.7505C31.2476 16.6438 31.1402 16.5509 31.0231 16.4674C31.067 16.4395 31.1158 16.4163 31.1597 16.3885C31.4672 16.2121 31.516 15.8592 31.272 15.6178C31.1012 15.4507 30.9352 15.2836 30.7644 15.1165C31.0231 14.9029 31.2768 14.6894 31.516 14.4573C31.6721 14.3087 31.7453 14.0441 31.6038 13.8631C31.4818 13.7053 31.35 13.5521 31.189 13.4221C31.1451 13.3849 31.0914 13.3524 31.0426 13.3153C31.1109 13.2178 31.1792 13.125 31.2524 13.0368C31.394 12.8604 31.5794 12.7025 31.5745 12.4658C31.5648 12.0016 30.8572 11.7091 30.5009 11.4677C30.2618 11.3099 29.8909 11.4352 29.7494 11.6441C29.5835 11.8901 29.7103 12.1548 29.9446 12.3126C30.0178 12.359 30.1739 12.4519 30.3106 12.5354C30.2471 12.6143 30.1837 12.6979 30.1203 12.7815C29.9885 12.9718 29.8226 13.19 29.8226 13.4174C29.8177 13.7424 30.1056 13.9095 30.3643 14.0952C30.1154 14.3134 29.8665 14.5269 29.5981 14.7265C29.3639 14.9029 29.4127 15.2372 29.5981 15.4182C29.7445 15.5621 29.8909 15.7107 30.0422 15.8546C29.93 15.9149 29.8226 15.9799 29.7103 16.0449C29.2858 16.2863 29.4078 16.7877 29.8421 16.9409C29.9348 16.9734 30.0227 17.0152 30.1008 17.0616C29.8763 17.2287 29.6567 17.4005 29.4468 17.5908C29.1931 17.8229 29.2663 18.1246 29.5005 18.3057C29.5444 18.366 29.603 18.4264 29.6713 18.4728C29.7445 18.5192 29.9007 18.6121 30.0373 18.6956C29.9739 18.7746 29.9104 18.8581 29.847 18.9417C29.7152 19.132 29.5493 19.3502 29.5493 19.5777C29.5444 19.9026 29.8323 20.0697 30.091 20.2554C29.8421 20.4736 29.5932 20.6871 29.3248 20.8868C29.0906 21.0632 29.1394 21.3974 29.3248 21.5785C29.4712 21.7224 29.6176 21.8709 29.7689 22.0148C29.6567 22.0752 29.5493 22.1402 29.4371 22.2051C29.0125 22.4465 29.1345 22.9479 29.5688 23.1011C29.6616 23.1336 29.7494 23.1754 29.8275 23.2218C29.603 23.3889 29.3834 23.5607 29.1735 23.751C28.871 24.0481 29.0564 24.4473 29.4273 24.582Z" fill="#F7C300"/>
<path d="M24.7914 24.6563C23.9374 23.5886 22.5271 23.3472 21.1509 23.2451C20.7313 23.2126 20.3311 23.5886 20.3311 23.9553C20.6434 23.8671 20.9753 23.816 21.3022 23.7789C21.9854 23.7046 22.6588 23.7975 23.2835 24.0574C24.4986 24.5727 24.9232 25.7889 25.0647 26.8891C25.0744 26.9588 25.0744 27.0238 25.0744 27.0934C25.1818 26.8009 25.2404 26.4899 25.2599 26.1696C25.2892 25.6404 25.1428 25.0926 24.7914 24.6563Z" fill="#1E1E1E"/>
<path d="M23.2786 24.0574C22.654 23.7928 21.9806 23.7 21.2974 23.7789C20.9704 23.816 20.6386 23.8671 20.3262 23.9553C20.3262 23.9646 20.3214 23.9739 20.3262 23.9785C20.3311 24.0389 20.3506 24.0899 20.3702 24.1456C19.9456 24.2942 19.5796 24.5449 19.3503 24.9302C19.0379 25.4501 18.9989 26.0397 19.1258 26.6107C19.3503 27.6087 20.2287 28.4675 21.312 28.7786C21.9366 28.955 22.6003 28.8853 23.1957 28.6672C23.7276 28.4768 24.2644 28.2354 24.6353 27.8316C24.8402 27.6087 24.9769 27.3581 25.0745 27.0981C25.0745 27.0285 25.0745 26.9635 25.0647 26.8938C24.9232 25.789 24.4986 24.5727 23.2786 24.0574ZM23.5958 26.3136C23.5958 26.3182 23.5958 26.3182 23.5958 26.3228C23.5763 26.425 23.5519 26.5317 23.5226 26.6292C23.508 26.671 23.4933 26.7081 23.4787 26.7453C23.4738 26.7546 23.469 26.7592 23.4592 26.7731C23.4397 26.801 23.4153 26.8288 23.4006 26.8613C23.347 26.9031 23.2933 26.9542 23.2396 27.0006C23.2298 27.0052 23.225 27.0099 23.2201 27.0145C23.1713 27.0424 23.1176 27.0749 23.0688 27.0981C22.9956 27.1352 22.9224 27.1724 22.8443 27.2049C22.8004 27.2234 22.7565 27.242 22.7126 27.2606C22.7077 27.2652 22.6833 27.2698 22.6638 27.2791C22.5759 27.307 22.493 27.3348 22.4051 27.3581C22.3514 27.372 22.2929 27.3766 22.2441 27.3952C22.2343 27.3998 22.2246 27.3998 22.2246 27.4045C22.2099 27.4045 22.2002 27.4045 22.1806 27.4045C22.127 27.4091 22.0684 27.4091 22.0147 27.4091C22.0147 27.4091 21.9903 27.4091 21.9708 27.4045C21.9415 27.3998 21.883 27.3905 21.8732 27.3859C21.8195 27.372 21.7707 27.3581 21.717 27.3441C21.7073 27.3395 21.7024 27.3395 21.6975 27.3395C21.6585 27.3209 21.6146 27.307 21.5755 27.2838C21.5365 27.2652 21.4974 27.242 21.4584 27.2234C21.4486 27.2188 21.395 27.1863 21.3657 27.1724C21.3559 27.1677 21.351 27.1631 21.3462 27.1584C21.312 27.1306 21.2778 27.1027 21.2437 27.0749C21.1754 27.0192 21.1168 26.9588 21.0534 26.8985C21.0534 26.8985 21.0436 26.8892 21.0387 26.8845C21.0241 26.866 21.0046 26.8381 20.9948 26.8288C20.9362 26.7499 20.8923 26.671 20.8386 26.5921C20.8338 26.5828 20.824 26.5642 20.8191 26.5503C20.8094 26.5271 20.7996 26.5085 20.7947 26.4853C20.7606 26.3971 20.7362 26.3089 20.7166 26.2207C20.7166 26.2114 20.7118 26.1882 20.7069 26.165C20.7069 26.1279 20.702 26.0675 20.702 26.0675C20.702 26.0211 20.702 25.9747 20.702 25.9282C20.702 25.9143 20.702 25.9004 20.702 25.8911C20.7118 25.854 20.7166 25.8168 20.7264 25.7843C20.7313 25.7751 20.7557 25.7054 20.7703 25.6776C20.785 25.6544 20.7996 25.6265 20.8045 25.6172C20.8142 25.6033 20.824 25.594 20.8338 25.5801C20.8289 25.5847 20.824 25.5847 20.8142 25.594C20.8386 25.5754 20.8728 25.5429 20.8972 25.5197C20.9021 25.5197 20.9021 25.5151 20.907 25.5151C20.9314 25.5058 20.9509 25.4919 20.9753 25.4826C20.9606 25.4965 21.0631 25.4733 20.9899 25.4733C20.9948 25.4687 20.9997 25.4687 21.0046 25.464C21.395 25.399 21.761 25.1576 21.7512 24.7631C21.7805 24.7677 21.8146 24.7723 21.8244 24.7723C21.8683 24.777 21.9074 24.7863 21.9513 24.7909C22.0782 24.8141 22.2002 24.8373 22.327 24.8652C22.4246 24.8884 22.5174 24.9162 22.6101 24.9441C22.6394 24.9534 22.6589 24.958 22.6735 24.9627C22.7077 24.9766 22.7418 24.9905 22.776 25.0044C22.859 25.0416 22.937 25.0787 23.0151 25.1251C23.0493 25.1437 23.1615 25.2226 23.1664 25.2226C23.2201 25.2644 23.2738 25.3062 23.3274 25.3526C23.3518 25.3758 23.3713 25.399 23.3958 25.4176C23.4006 25.4176 23.3958 25.4176 23.4006 25.4176C23.4397 25.4733 23.4836 25.529 23.5177 25.5847C23.5275 25.6033 23.5422 25.6265 23.5519 25.6451C23.5568 25.6544 23.5666 25.6822 23.5763 25.7101C23.591 25.7565 23.6056 25.8029 23.6154 25.8493C23.6251 25.9515 23.6251 26.0536 23.6154 26.1557C23.6056 26.2207 23.6007 26.2671 23.5958 26.3136Z" fill="#1E1E1E"/>
<defs>
<clipPath id="clip0">
<rect width="39" height="33" fill="white" transform="translate(84)"/>
</clipPath>
</defs>
</svg>
