<svg width="150" height="15" viewBox="0 0 150 15" fill="none" xmlns="http://www.w3.org/2000/svg">
<path d="M149.417 10.7507C147.697 8.65161 145.862 6.7243 144.143 4.6252C142.427 2.69292 141.211 1.74169 139.223 3.66125C137.585 5.23224 135.6 7.31862 134.336 9.54199C134.216 9.54696 134.213 9.38014 134.093 9.38511C133.84 8.72776 133.232 8.25215 132.862 7.76659C132.001 6.63363 131.259 5.4957 130.401 4.52956C129.047 2.74919 127.581 1.30743 125.697 2.55473C123.81 3.6352 122.676 6.35407 121.165 8.25374C121.049 8.42553 120.933 8.59732 120.818 8.76912C121.168 8.42056 121.042 8.09188 120.564 8.11177C120.195 7.62621 119.594 7.48424 119.109 7.17048C118.259 6.53799 117.409 5.90549 116.558 5.273C114.615 3.85113 112.784 2.09064 110.952 0.330157C110.341 -0.312279 109.274 0.0661037 108.811 0.753278C108.009 2.28948 107.203 3.65885 106.401 5.19505C105.942 6.04905 105.483 6.90305 105.024 7.75704C104.909 7.92884 104.793 8.10063 104.681 8.43925C104.565 8.61104 104.565 8.61104 104.565 8.61104C103.476 7.98849 102.492 6.69367 101.514 5.7325C100.418 4.77631 99.3176 3.65329 98.1016 2.70206C96.0279 0.784691 93.9764 -0.13174 91.7604 2.29822C90.1301 4.20286 88.6193 6.10253 86.989 8.00717C85.6463 6.72727 84.3072 5.61419 82.8451 4.33926C81.5061 3.22618 80.156 1.61264 78.496 2.1827C76.9554 2.74779 75.5676 4.80931 74.2843 6.19857C73.5829 6.89568 72.8816 7.5928 72.2996 8.28494C71.5983 8.98206 71.1208 9.00194 70.2741 8.53627C67.4916 6.98237 65.2724 3.90222 62.1578 3.53099C58.9238 3.16474 56.7227 6.26199 54.268 8.7019C53.451 9.57081 53.5667 9.39901 52.7125 8.5997C51.9815 7.96223 51.3698 7.31979 50.6388 6.68233C49.1767 5.4074 47.7146 4.13247 46.0323 3.70159C44.3538 3.43754 42.9437 4.49812 41.4142 5.56368C40.5898 6.09894 39.7654 6.63421 38.9409 7.16947C38.1165 7.70474 36.8295 8.92717 35.7589 9.13873C34.3265 9.19838 32.4952 7.4379 31.2756 6.31985C29.9328 5.03995 28.814 3.08281 27.1317 2.65194C25.5688 2.21609 24.0356 3.11482 22.8717 4.49911C21.5884 5.88837 20.443 8.10678 18.757 7.50908C17.0748 7.0782 15.7209 5.29783 14.2625 4.18972C12.6811 2.91976 10.9877 1.98842 9.0704 1.73431C5.59395 1.21117 2.05384 3.19535 0.240548 7.61227C-0.889973 10.498 2.26923 12.8711 3.39976 9.98537C4.98546 6.07886 8.44705 5.9347 11.1139 7.66039C13.7808 9.38608 16.0037 12.6331 19.1109 12.6706C20.547 12.7778 21.8415 11.889 23.0128 10.8384C23.9455 9.79767 25.5572 7.05892 26.7731 8.01014C27.9853 8.79455 29.1005 10.5849 30.3201 11.7029C31.6591 12.816 33.2369 13.9191 34.6767 14.1931C36.2359 14.4621 37.5303 13.5734 38.9441 12.6796C40.7123 11.6041 42.4694 10.0281 44.2413 9.11945C45.7782 8.38754 47.2514 10.1629 48.4674 11.1142C49.687 12.2322 51.0446 14.1794 52.6038 14.4484C55.3678 15.1682 57.5317 10.4027 59.77 8.97371C62.3626 7.36294 64.9435 10.595 67.1292 12.1738C68.4683 13.2868 70.0423 14.2232 71.5866 13.8249C73.2503 13.4216 74.6418 11.5269 75.9251 10.1377C76.6265 9.44057 77.6673 7.89443 78.4955 7.52599C78.6148 7.52102 78.8424 7.01061 78.8424 7.01061C79.0812 7.00067 79.939 7.96681 80.1814 8.12369C81.8897 9.72232 83.7173 11.316 85.4256 12.9146C85.4256 12.9146 85.5449 12.9096 85.5486 13.0765C86.1603 13.7189 87.119 13.846 87.8129 12.8152C88.8612 11.6027 89.7901 10.3952 90.8384 9.18269C91.301 8.49551 91.8867 7.97019 92.3493 7.28302C92.7 6.93446 93.3902 5.73688 93.8639 5.55017C94.8151 5.34358 96.5382 7.60951 97.2693 8.24697C98.3658 9.20317 99.343 10.1643 100.44 11.1205C102.148 12.7192 104.233 15.137 106.091 12.722C107.02 11.5144 107.699 9.81638 108.385 8.45197C108.844 7.59798 109.419 6.57219 109.877 5.71819C112.928 8.59672 116.091 11.1366 119.478 12.9993C121.533 14.0826 122.69 12.3647 124.081 10.47C124.775 9.43919 125.462 8.07479 126.283 7.3727C126.984 6.67558 126.514 7.02911 127.122 7.50473C127.487 7.82346 127.983 8.63769 128.353 9.12324C129.214 10.2562 129.956 11.3941 130.814 12.3603C131.43 13.1695 132.172 14.3075 133.018 14.7731C134.951 15.6945 136.096 13.4761 137.376 11.9201C138.189 10.8843 139.002 9.8486 139.935 8.80789C139.935 8.80789 140.636 8.11078 140.987 7.76222C141.11 7.92407 141.233 8.08592 141.356 8.24778C143.075 10.3469 144.91 12.2742 146.63 14.3733C148.707 16.4575 151.136 12.8498 149.417 10.7507Z" fill="#59C69F"/>
</svg>
