<svg width="91" height="12" viewBox="0 0 91 12" fill="none" xmlns="http://www.w3.org/2000/svg">
<path d="M85.7032 6.41875C86.7358 6.85296 87.3181 6.83442 88.1734 6.18441C90.6436 5.52357 91 7.60418 91 9.218C91 10.5091 88.5359 11.1773 87.3038 11.35C85.4205 11.7214 83.5008 10.8483 81.8678 9.81045C79.2022 8.33838 76.0546 5.32471 72.8928 6.82663C70.1631 8.1591 67.5241 12.6026 64.1532 11.9314C62.2517 11.6806 60.5961 9.86495 59.1087 8.82245C57.6258 7.9355 55.8291 6.28007 53.9547 6.96253C51.7938 7.8098 49.651 9.27928 47.4945 10.2821C45.7703 11.1155 44.1917 11.9442 42.2901 11.6934C40.5342 11.4379 38.6101 10.4093 36.9771 9.37142C35.4896 8.32892 34.1297 6.65958 32.6513 5.92818C31.1684 5.04123 29.2028 7.59492 28.0654 8.5653C26.6369 9.54495 25.0582 10.3737 23.3068 10.2738C19.5174 10.2387 16.8065 7.21114 13.5541 5.60206C10.3017 3.99298 6.08004 4.12739 4.14619 7.76993C2.76746 10.4606 -1.08537 8.24789 0.293361 5.55719C2.50477 1.43872 6.82213 -0.411377 11.0619 0.0764095C13.4001 0.31335 15.4653 1.18176 17.394 2.36591C19.1725 3.39914 20.8237 5.05921 22.8753 5.46097C24.9314 6.01828 26.3282 3.94978 27.8933 2.65439C29.3128 1.36364 31.1826 0.525636 33.0886 0.932032C35.1402 1.33379 36.5048 3.15868 38.1423 4.3521C39.6297 5.3946 41.8631 7.03613 43.61 6.98051C44.9156 6.78324 46.4852 5.64341 47.4907 5.14431L50.5069 3.64703C52.3722 2.65347 54.0919 1.66455 56.139 1.91076C58.1906 2.31252 59.9737 3.5013 61.7568 4.69008C62.6483 5.28448 63.3943 5.8835 64.2859 6.47789C65.3275 7.2232 65.1865 7.38339 66.1828 6.57319C69.1765 4.29815 71.8608 1.41018 75.8049 1.75169C79.6034 2.09783 82.3097 4.96986 85.7032 6.41875Z" fill="#F7C300"/>
</svg>
