<svg width="161" height="14" viewBox="0 0 161 14" fill="none" xmlns="http://www.w3.org/2000/svg">
<path d="M160.374 10.034C158.528 8.07484 156.559 6.27601 154.713 4.31685C152.872 2.51339 151.567 1.62558 149.432 3.41716C147.675 4.88343 145.544 6.83071 144.187 8.90586C144.059 8.9105 144.055 8.7548 143.927 8.75944C143.655 8.14591 143.002 7.702 142.606 7.24882C141.681 6.19139 140.884 5.12932 139.964 4.22759C138.51 2.56591 136.937 1.22027 134.915 2.38441C132.889 3.39285 131.672 5.93046 130.05 7.70349C129.926 7.86383 129.802 8.02417 129.678 8.18451C130.054 7.85919 129.918 7.55243 129.405 7.57098C129.009 7.1178 128.365 6.98529 127.844 6.69245C126.931 6.10212 126.019 5.51179 125.106 4.92147C123.02 3.59439 121.054 1.95127 119.089 0.308147C118.432 -0.29146 117.287 0.0616968 116.791 0.703059C115.93 2.13685 115.065 3.41493 114.204 4.84872C113.711 5.64578 113.219 6.44284 112.726 7.23991C112.602 7.40025 112.478 7.56059 112.358 7.87663C112.234 8.03697 112.234 8.03697 112.234 8.03697C111.065 7.45592 110.008 6.24743 108.959 5.35034C107.782 4.45789 106.601 3.40973 105.296 2.52192C103.07 0.732378 100.868 -0.122957 98.4895 2.14501C96.7397 3.92267 95.118 5.6957 93.3682 7.47336C91.927 6.27879 90.4898 5.23991 88.9205 4.04998C87.4832 3.01111 86.0341 1.50513 84.2524 2.03718C82.5988 2.5646 81.1092 4.48869 79.7318 5.78533C78.979 6.43597 78.2262 7.08661 77.6016 7.73261C76.8488 8.38325 76.3363 8.40181 75.4276 7.96719C72.441 6.51688 70.0591 3.64207 66.716 3.29559C63.2449 2.95376 60.8824 5.84453 58.2477 8.12177C57.3708 8.93275 57.4949 8.77241 56.5781 8.02638C55.7935 7.43142 55.1369 6.83181 54.3523 6.23684C52.783 5.04691 51.2136 3.85697 49.408 3.45482C47.6064 3.20837 46.0929 4.19825 44.4512 5.19277C43.5664 5.69235 42.6815 6.19193 41.7966 6.69151C40.9117 7.19109 39.5303 8.33203 38.3812 8.52948C36.8438 8.58516 34.8782 6.94204 33.5691 5.89853C32.1279 4.70395 30.927 2.87729 29.1214 2.47514C27.4439 2.06835 25.7983 2.90717 24.549 4.19917C23.1715 5.49582 21.9422 7.56633 20.1326 7.00847C18.3269 6.60632 16.8738 4.94464 15.3085 3.91041C13.611 2.72511 11.7934 1.85586 9.73557 1.61869C6.00417 1.13043 2.20445 2.98233 0.258188 7.10479C-0.955238 9.7981 2.43564 12.013 3.64907 9.31968C5.35106 5.6736 9.0665 5.53905 11.929 7.1497C14.7914 8.76034 17.1773 11.7909 20.5124 11.8259C22.0538 11.926 23.4432 11.0964 24.7004 10.1158C25.7015 9.14449 27.4314 6.58832 28.7365 7.47613C30.0376 8.20825 31.2345 9.8792 32.5436 10.9227C33.9808 11.9616 35.6742 12.9912 37.2196 13.2469C38.8932 13.498 40.2825 12.6685 41.8 11.8343C43.6979 10.8305 45.5838 9.35958 47.4857 8.51149C49.1353 7.82837 50.7165 9.4854 52.0217 10.3732C53.3307 11.4167 54.7879 13.2341 56.4614 13.4852C59.4281 14.157 61.7507 9.70922 64.1531 8.37546C66.9358 6.87208 69.706 9.88867 72.052 11.3622C73.4893 12.401 75.1787 13.2749 76.8363 12.9032C78.622 12.5269 80.1156 10.7585 81.493 9.46184C82.2458 8.8112 83.363 7.36814 84.2518 7.02426C84.3799 7.01962 84.6242 6.54324 84.6242 6.54324C84.8804 6.53396 85.8012 7.43569 86.0614 7.58211C87.8949 9.07417 89.8566 10.5616 91.6901 12.0536C91.6901 12.0536 91.8182 12.049 91.8222 12.2047C92.4787 12.8043 93.5077 12.9229 94.2525 11.9609C95.3777 10.8292 96.3747 9.70217 97.4999 8.57051C97.9964 7.92915 98.625 7.43885 99.1216 6.79748C99.498 6.47216 100.239 5.35442 100.747 5.18016C101.768 4.98734 103.618 7.1022 104.402 7.69717C105.579 8.58962 106.628 9.48672 107.805 10.3792C109.639 11.8712 111.877 14.1279 113.871 11.8738C114.868 10.7468 115.597 9.16195 116.333 7.88851C116.826 7.09144 117.443 6.13404 117.935 5.33698C121.21 8.02361 124.605 10.3942 128.24 12.1327C130.446 13.1437 131.687 11.5403 133.181 9.77196C133.926 8.80991 134.662 7.53647 135.543 6.88119C136.296 6.23055 135.791 6.5605 136.444 7.00441C136.836 7.30189 137.369 8.06184 137.765 8.51503C138.69 9.57246 139.486 10.6345 140.407 11.5363C141.068 12.2916 141.864 13.3536 142.773 13.7883C144.847 14.6482 146.076 12.5777 147.45 11.1254C148.323 10.1587 149.196 9.19202 150.197 8.2207C150.197 8.2207 150.949 7.57006 151.326 7.24474C151.458 7.3958 151.59 7.54686 151.722 7.69792C153.568 9.65709 155.537 11.4559 157.383 13.4151C159.612 15.3603 162.219 11.9932 160.374 10.034Z" fill="#59C69F"/>
</svg>
