<svg width="187" height="13" viewBox="0 0 187 13" fill="none" xmlns="http://www.w3.org/2000/svg">
<path d="M186.273 9.31728C184.129 7.49806 181.841 5.82773 179.698 4.00851C177.559 2.33386 176.043 1.50947 173.564 3.17308C171.523 4.53461 169.049 6.3428 167.472 8.26972C167.323 8.27403 167.318 8.12945 167.17 8.13376C166.853 7.56406 166.096 7.15186 165.635 6.73105C164.561 5.74915 163.636 4.76294 162.566 3.92562C160.879 2.38263 159.051 1.13311 156.703 2.2141C154.35 3.1505 152.936 5.50686 151.052 7.15324C150.908 7.30213 150.764 7.45101 150.619 7.5999C151.057 7.29782 150.898 7.01297 150.303 7.0302C149.843 6.60938 149.094 6.48634 148.49 6.21442C147.43 5.66626 146.369 5.11809 145.309 4.56993C142.887 3.33765 140.604 1.81189 138.32 0.286136C137.558 -0.270642 136.228 0.0572899 135.651 0.652841C134.651 1.98421 133.647 3.17101 132.647 4.50238C132.074 5.24251 131.502 5.98264 130.93 6.72277C130.786 6.87166 130.642 7.02055 130.502 7.31401C130.358 7.4629 130.358 7.4629 130.358 7.4629C129 6.92336 127.773 5.80118 126.555 4.96817C125.188 4.13946 123.816 3.16618 122.3 2.34178C119.715 0.680066 117.157 -0.114175 114.395 1.99179C112.362 3.64248 110.479 5.28886 108.446 6.93955C106.772 5.8303 105.103 4.86563 103.28 3.76069C101.611 2.79603 99.9278 1.39762 97.8583 1.89167C95.9377 2.38141 94.2076 4.16807 92.6077 5.37209C91.7334 5.97626 90.859 6.58042 90.1335 7.18028C89.2592 7.78445 88.664 7.80168 87.6084 7.3981C84.1395 6.05139 81.373 3.38192 77.49 3.06019C73.4583 2.74277 70.7143 5.42706 67.6541 7.54164C66.6356 8.2947 66.7798 8.14581 65.715 7.45307C64.8036 6.9006 64.041 6.34382 63.1297 5.79135C61.3069 4.68641 59.4842 3.58147 57.387 3.20805C55.2944 2.9792 53.5364 3.89837 51.6297 4.82186C50.6019 5.28575 49.5742 5.74965 48.5464 6.21354C47.5186 6.67744 45.9141 7.73688 44.5795 7.92024C42.7938 7.97193 40.5107 6.44618 38.9902 5.4772C37.3163 4.36795 35.9214 2.67177 33.8242 2.29835C31.8758 1.92061 29.9644 2.69951 28.5134 3.89923C26.9135 5.10326 25.4856 7.02587 23.3838 6.50787C21.2866 6.13444 19.5987 4.59145 17.7806 3.63109C15.8091 2.53046 13.698 1.7233 11.3078 1.50307C6.97379 1.04968 2.56045 2.7693 0.299883 6.5973C-1.1095 9.09823 2.82898 11.1549 4.23836 8.65398C6.2152 5.26834 10.5307 5.14341 13.8554 6.63901C17.1801 8.1346 19.9513 10.9486 23.8249 10.9812C25.6153 11.0741 27.229 10.3038 28.6893 9.39326C29.852 8.49131 31.8613 6.11773 33.3771 6.94213C34.8884 7.62194 36.2786 9.17354 37.7991 10.1425C39.4684 11.1072 41.4353 12.0632 43.2303 12.3007C45.174 12.5339 46.7878 11.7636 48.5504 10.989C50.7547 10.0569 52.9452 8.69104 55.1542 7.90352C57.0702 7.2692 58.9068 8.80788 60.4227 9.63227C61.9432 10.6012 63.6356 12.2888 65.5794 12.522C69.0251 13.1458 71.7229 9.0157 74.5132 7.77721C77.7453 6.38122 80.9629 9.18234 83.6878 10.5506C85.3571 11.5153 87.3194 12.3267 89.2446 11.9816C91.3187 11.6321 93.0535 9.99002 94.6533 8.786C95.5277 8.18183 96.8253 6.84184 97.8577 6.52253C98.0065 6.51822 98.2902 6.07586 98.2902 6.07586C98.5878 6.06725 99.6573 6.90457 99.9595 7.04053C102.089 8.42601 104.368 9.80719 106.497 11.1927C106.497 11.1927 106.646 11.1884 106.651 11.3329C107.413 11.8897 108.608 11.9998 109.473 11.1065C110.78 10.0557 111.938 9.00916 113.245 7.95833C113.822 7.36278 114.552 6.9075 115.129 6.31195C115.566 6.00986 116.426 4.97196 117.017 4.81015C118.203 4.6311 120.351 6.5949 121.262 7.14737C122.629 7.97608 123.848 8.80909 125.215 9.6378C127.344 11.0233 129.944 13.1187 132.26 11.0257C133.418 9.97917 134.264 8.50753 135.12 7.32504C135.692 6.58491 136.408 5.69589 136.981 4.95576C140.784 7.45049 144.727 9.65176 148.949 11.2661C151.512 12.2049 152.953 10.716 154.688 9.07396C155.553 8.18063 156.409 6.99815 157.432 6.38967C158.307 5.78551 157.721 6.0919 158.478 6.5041C158.934 6.78033 159.553 7.486 160.013 7.90681C161.087 8.88871 162.012 9.87492 163.082 10.7122C163.849 11.4136 164.774 12.3998 165.83 12.8034C168.238 13.6019 169.666 11.6793 171.262 10.3307C172.275 9.43308 173.289 8.53545 174.452 7.63351C174.452 7.63351 175.326 7.02934 175.763 6.72726C175.917 6.86753 176.07 7.0078 176.224 7.14807C178.367 8.96729 180.655 10.6376 182.798 12.4568C185.388 14.2631 188.416 11.1365 186.273 9.31728Z" fill="#F7C300"/>
</svg>
