<svg width="64" height="58" viewBox="0 0 64 58" fill="none" xmlns="http://www.w3.org/2000/svg">
<path d="M13.5853 0.871792C12.6466 -0.174147 11.0702 -0.00740717 9.79802 0.0369024C8.39761 0.0858761 6.99957 0.238619 5.61781 0.472994C4.3923 0.680549 2.72834 0.822817 1.77451 1.70085C0.870831 2.5334 0.497669 4.20549 0.579292 5.38785C0.624768 6.0455 0.810167 6.7393 1.26259 7.23837C1.81413 7.84704 2.56625 7.89369 3.33234 7.96832C4.71294 8.10358 6.09355 8.24699 7.47647 8.37292C8.76961 8.48952 10.128 8.52218 11.3559 8.0371C12.6117 7.54154 13.7066 6.60755 14.0832 5.26893C14.2185 4.78969 14.2476 4.29642 14.1928 3.81252C14.3875 2.7794 14.3409 1.71251 13.5853 0.871792Z" fill="#F7C300"/>
<path d="M63.0686 16.7497C63.0512 15.5638 61.519 15.2024 60.8963 16.1609C59.6685 18.051 58.3753 19.8968 56.9901 21.675C56.3126 22.5437 55.6153 23.3973 54.9017 24.2369C54.5577 24.6415 54.2079 25.0426 53.8557 25.4402C53.738 25.5731 53.6179 25.7049 53.499 25.8378C53.4022 25.6617 53.31 25.4938 53.2482 25.411C52.9276 24.9866 52.5754 24.5937 52.1801 24.2357C51.4595 23.5815 50.6386 23.0253 49.7874 22.5577C47.6489 21.3835 45.2492 20.5731 42.8763 20.0379C40.3611 19.4712 37.7586 19.2112 35.1828 19.3022C33 19.3791 30.8346 19.6403 29.159 21.1655C28.6343 21.6424 28.7311 22.679 29.3946 22.9973C29.6231 23.1069 29.8493 23.2026 30.0744 23.2888C30.3309 23.5757 30.7005 23.7716 31.1693 23.7051C31.2905 23.6877 31.4107 23.6923 31.5319 23.6935C31.7581 23.7331 31.9925 23.7634 32.2327 23.7867C33.2308 24.0503 34.1975 24.7709 34.974 25.3108C35.9698 26.0034 37.0064 26.8406 37.1067 28.1466C37.2618 30.1767 35.5618 33.3168 33.7579 34.217C33.0559 34.5668 33.0454 35.53 33.5223 36.0489C33.8791 36.4372 34.6091 36.7695 34.8516 37.2184C35.0813 37.644 34.8924 38.4345 34.8493 38.894C34.7362 40.0903 34.5741 41.2867 34.503 42.4877C34.4039 44.1773 34.5263 46.0442 35.6084 47.4259C36.1331 48.0952 36.7989 48.5406 37.5883 48.8473C38.3439 49.1423 39.6125 49.2134 40.213 49.8116C41.0223 50.6174 40.7541 52.0796 39.7816 52.5098C39.1881 52.7722 38.2973 52.7302 37.6548 52.813C36.9097 52.9098 36.1634 53.0066 35.4183 53.1045C34.7268 53.1943 34.0167 53.7843 34.2942 54.5807C34.6079 55.4832 35.2178 55.8342 36.1634 55.8902C37.6758 55.9788 39.2593 55.7946 40.7728 55.7328C42.1172 55.678 43.4617 55.615 44.805 55.5439C45.8509 55.4879 47.4239 55.7013 48.3276 55.0483C49.2126 54.4093 49.0692 53.2736 49.0226 52.3116C48.9643 51.1094 48.8616 49.8991 48.6704 48.7109C48.4932 47.6148 48.1573 46.696 47.2956 45.9567C46.7627 45.4996 45.9208 45.2163 45.3296 44.7568C48.1106 43.6456 50.1046 40.9182 50.3005 37.9145C52.341 37.7116 54.2825 37.2755 56.0503 36.106C57.7503 34.9819 59.1519 33.4486 60.2189 31.7182C62.9602 27.2592 63.1433 21.829 63.0686 16.7497Z" fill="#F7C300"/>
<path d="M63.1678 9.0084C62.9124 7.80388 61.3697 8.01843 60.9919 8.94193C60.8636 9.10984 60.7622 9.30572 60.7412 9.56224C60.5104 12.3899 59.7687 15.1966 58.5502 17.7595C57.9427 19.0363 57.2291 20.2619 56.4141 21.4174C55.7541 22.3549 55.0102 23.3554 54.0878 24.0783C52.6186 22.6103 50.4427 21.7719 48.5957 20.9545C46.2963 19.9365 43.9432 19.1506 41.4386 18.8486C36.9925 18.3099 32.4507 19.2905 28.5643 21.4909C26.5517 18.2143 24.4529 14.9925 22.2281 11.8559C21.0084 10.136 19.7561 8.43936 18.4746 6.76493C17.3668 5.31904 16.3034 3.66092 14.896 2.48671C12.0497 0.109154 8.11774 0.645524 4.87964 1.79174C2.13711 2.76189 -1.26654 4.92025 0.475528 8.29361C0.730891 8.78685 1.29645 8.9116 1.79202 8.82998C4.73628 8.34374 8.71361 8.10936 10.809 10.6338C12.5895 12.7794 13.7008 15.6607 14.7199 18.226C16.7558 23.3577 18.3603 28.6993 21.4083 33.3565C21.4666 33.4451 21.5319 33.5186 21.6007 33.5839C20.2189 34.8514 18.9363 36.422 18.3976 38.2096C18.0827 39.252 18.2052 40.2665 18.0582 41.3182C17.9953 41.766 17.7574 42.1286 17.586 42.5391C17.3517 43.0988 17.3109 43.5722 17.4275 44.168C17.5942 45.0227 18.808 45.2991 19.3759 44.6823C19.6429 44.3919 19.9158 44.1097 20.2073 43.8427C20.2271 43.8241 20.2866 43.7798 20.353 43.7285C20.5991 43.9815 20.8871 44.245 21.1576 44.5237C21.4386 45.0227 21.75 45.5078 22.0718 45.9789C22.7796 47.0144 24.6231 46.4127 24.2033 45.0799C23.9818 44.3756 23.6028 43.8171 23.1282 43.2725C22.5813 42.2487 22.2817 41.1771 22.6851 39.9295C22.9055 39.2438 23.1049 38.4288 23.8407 38.1501C24.7082 37.8213 25.7285 38.0055 26.6333 37.9122C26.8117 37.8936 26.9855 37.8609 27.1581 37.8259C27.2035 37.9099 27.2432 37.9974 27.3038 38.0743C28.3661 39.4269 30.1898 39.912 31.8759 40.0811C31.7639 41.2086 31.7371 42.3409 31.8328 43.4766C31.9517 44.8782 32.1884 46.2891 32.902 47.5228C34.0016 49.4269 35.9722 50.72 38.1247 51.0465C38.1259 51.0582 38.127 51.0698 38.127 51.0698C38.1398 51.2063 38.1399 51.345 38.1399 51.4838C37.9533 51.4943 37.7667 51.5013 37.5801 51.5188C36.4642 51.6237 35.1886 51.7496 34.2033 52.3408C33.6622 52.6661 33.2611 53.1256 33.0396 53.7167C32.8204 54.3033 32.9101 55.0262 33.0465 55.6221C33.211 56.338 33.724 56.9257 34.4423 57.1181C35.0615 57.2837 35.7786 57.237 36.4141 57.2452C37.7923 57.2627 39.1694 57.2032 40.5407 57.0738C40.662 57.0621 40.7786 57.0248 40.8928 56.984C41.1657 57.1286 41.4724 57.237 41.8141 57.2825C42.6828 57.3991 43.5946 57.2708 44.4656 57.2254C45.4847 57.1717 46.5167 57.1624 47.5311 57.0575C49.2335 56.8814 50.0801 55.8098 50.1605 54.1459C50.2153 53.0148 50.1372 51.8616 50.1232 50.7294C50.1104 49.6706 50.2002 48.5407 49.981 47.4959C49.7396 46.3462 48.9595 45.5486 48.0524 44.8747C48.8091 44.5307 49.5088 44.0899 50.0591 43.4124C50.9803 42.2767 51.449 40.8367 51.6414 39.4036C51.6473 39.3616 51.6461 39.3208 51.6519 39.28C54.174 39.1226 56.9271 37.5916 58.5222 35.7259C60.4206 33.5046 61.5225 30.4915 62.3772 27.7339C64.2569 21.6751 64.4807 15.2047 63.1678 9.0084ZM39.9204 54.231C39.8423 54.4245 39.7921 54.6146 39.763 54.8012C38.8779 54.8677 37.9918 54.9131 37.1044 54.9178C36.5412 54.9213 35.9768 54.9108 35.4136 54.8886C35.367 54.8863 35.3192 54.884 35.2725 54.8816C35.2702 54.8688 35.2679 54.856 35.2655 54.8431C35.2585 54.7802 35.2504 54.7172 35.2469 54.6543C35.2434 54.5971 35.248 54.5376 35.2445 54.4817C35.2469 54.4747 35.2481 54.4723 35.2504 54.4619C35.2539 54.456 35.2562 54.449 35.2609 54.4444C35.2842 54.4246 35.3087 54.4036 35.3145 54.3966C35.318 54.3931 35.3169 54.3931 35.3192 54.3907C35.3449 54.3756 35.3717 54.3616 35.3798 54.3581C35.4486 54.3219 35.5186 54.2858 35.5874 54.2485C35.6247 54.2368 35.6609 54.2216 35.6982 54.2088C35.809 54.1715 35.9221 54.14 36.0352 54.1121C36.2684 54.0538 36.5051 54.0094 36.7406 53.9674C36.8607 53.9464 36.982 53.9301 37.1021 53.908C37.1149 53.9056 37.1172 53.9056 37.1266 53.9033C37.2163 53.8917 37.3073 53.8811 37.3971 53.8718C37.9859 53.8089 38.6132 53.859 39.1927 53.7377C40.9162 53.3809 40.5489 51.0407 40.248 49.8105C40.2014 49.6216 40.0859 49.463 39.9484 49.3243C39.7664 49.0316 39.4703 48.8089 39.0249 48.7984C37.2863 48.7576 35.6632 47.7396 34.8365 46.2121C34.3374 45.2898 34.2079 44.1949 34.1391 43.1641C34.0727 42.1694 34.11 41.169 34.2126 40.1767C35.634 40.172 37.0578 40.0846 38.4745 39.9971C38.485 42.2511 38.991 44.512 40.1524 46.3928C41.1027 47.932 42.5102 48.6596 44.1345 49.3208C44.3793 49.4211 44.6697 49.575 44.9146 49.6426C44.9449 49.6508 45.0043 49.6869 45.0649 49.7242C45.0789 49.807 45.0941 49.9015 45.0871 49.9633C45.0533 50.2431 45.0859 50.5836 45.0859 50.8588C45.0859 50.9952 45.0615 51.6552 45.2189 51.7893C44.77 51.9106 43.9467 51.9071 43.6727 51.9455C42.1825 52.1496 40.5302 52.7093 39.9204 54.231ZM60.5488 25.649C59.904 28.0988 59.0377 30.5883 57.7527 32.7828C56.5447 34.8444 54.1531 36.7275 51.6683 36.9397C51.4444 34.8467 50.592 32.8656 49.2184 31.2063C48.2611 30.0496 46.6193 31.7066 47.5696 32.8551C48.9199 34.4876 49.5647 36.6284 49.3886 38.7378C49.3082 39.6963 49.0505 40.7259 48.5398 41.5491C47.8087 42.7291 46.4432 43.0183 45.2142 43.4591C44.2475 43.8054 44.0808 45.0111 44.9356 45.5906C45.6527 46.078 46.5319 46.5293 47.1615 47.1333C47.9311 47.8702 47.7702 48.8544 47.783 49.8443C47.7946 50.8075 47.8063 51.7695 47.818 52.7326C47.8285 53.6165 48.1538 54.5482 47.1662 54.7557C46.1902 54.9609 45.0137 54.8688 44.0167 54.9201C43.5678 54.9434 43.1165 54.9808 42.6664 54.9912C42.3096 54.9994 42.0554 55.1778 42.2046 54.9259C42.5906 54.2765 43.8814 54.2555 44.5332 54.1692C45.3017 54.0666 46.2205 54.0386 46.8443 53.5197C47.5101 52.967 47.4181 52.0924 47.4192 51.3042C47.4204 50.5486 47.5475 49.6963 47.3691 48.9558C47.0018 47.4376 44.8038 47.2114 43.6448 46.5759C40.353 44.772 40.4264 39.3406 41.3243 36.2425C41.7429 34.7977 39.4936 34.182 39.075 35.6221C38.8861 36.2751 38.7531 36.9584 38.6494 37.651C36.8816 37.7583 35.1105 37.8633 33.3393 37.8353C32.0426 37.8143 30.4486 37.728 29.3957 36.8733C31.4864 35.4845 33.0396 33.002 34.2803 31.0128C35.0778 29.736 33.0605 28.5641 32.2665 29.8351C31.2263 31.5002 30.0697 33.2399 28.5958 34.5575C27.7539 35.3096 26.8852 35.6035 25.7658 35.6303C24.8038 35.6536 23.8442 35.6489 22.9358 36.0092C22.4053 36.2203 21.9762 36.5596 21.6135 36.9666C22.27 36.0524 23.1212 35.221 23.927 34.652C24.5776 34.1926 25.3787 34.0596 26.0119 33.5606C26.7033 33.0149 27.2024 32.2499 27.7423 31.5608C28.7544 30.2665 29.939 28.2819 31.7592 28.1431C33.2459 28.03 33.2588 25.6968 31.7592 25.8111C29.4924 25.9836 28.0128 27.4645 26.6765 29.1657C26.0317 29.9866 25.4136 31.0687 24.5869 31.7159C24.2558 31.9759 23.8465 32.0925 23.4629 32.2581C23.4477 32.2324 23.4396 32.2068 23.4221 32.18C19.882 26.7695 18.3416 20.4379 15.7017 14.5972C14.5799 12.1147 13.2647 9.15883 10.9186 7.59167C8.5387 6.00119 5.18748 6.03615 2.33768 6.40812C2.43096 4.20197 8.5504 3.1059 9.89368 3.12222C13.2122 3.16187 14.8062 5.77844 16.6275 8.16067C20.4137 13.1152 23.9153 18.2796 27.1452 23.6131C27.4811 24.1669 28.0419 24.2462 28.5153 24.0725C28.6821 24.0596 28.8547 24.013 29.0307 23.9034C32.6186 21.6868 36.8199 20.691 41.0234 21.1341C43.2389 21.3673 45.3879 22.0715 47.418 22.9682C49.2557 23.7798 51.5773 24.6042 52.8751 26.1935C53.0686 26.4302 53.2914 26.527 53.5153 26.5573C53.8243 26.7322 54.2021 26.7824 54.6044 26.5573C56.0374 25.7551 57.0717 24.4258 58.0372 23.1303C59.0143 21.8197 59.8597 20.4111 60.5617 18.9349C60.985 18.0441 61.3394 17.131 61.6589 16.2075C61.723 19.3838 61.3615 22.5613 60.5488 25.649Z" fill="black"/>
<path d="M9.44241 3.90234C7.94171 3.90234 7.93938 6.23443 9.44241 6.23443C10.9431 6.23443 10.9454 3.90234 9.44241 3.90234Z" fill="black"/>
</svg>
