<svg width="64" height="63" viewBox="0 0 64 63" fill="none" xmlns="http://www.w3.org/2000/svg">
<path d="M23.0166 12.3736C22.9213 10.4848 22.7656 8.59828 22.5319 6.72106C22.3936 5.60868 22.4017 4.22084 21.0859 3.8733C19.6899 3.50367 17.7895 3.86282 16.3574 3.88607C15.5298 3.90002 14.7011 3.91281 13.8723 3.92675C13.1028 3.93954 12.0893 3.81635 11.4035 4.28478C10.3085 5.0345 10.4619 6.55952 10.4154 7.71607C10.3341 9.72114 10.2876 11.7262 10.2655 13.7324C10.2225 17.5543 10.2655 21.3773 10.3155 25.1991C10.4282 33.6983 10.5445 42.1964 10.6584 50.6956C10.6596 50.7804 10.6921 50.842 10.7072 50.9176C10.6933 52.4066 10.6805 53.8955 10.6665 55.3857C10.6595 56.1866 10.5747 57.02 11.2431 57.5756C11.9521 58.1672 13.1935 58.2312 14.0722 58.3567C16.39 58.6868 18.6903 58.5857 20.986 58.1545C21.2045 58.1138 21.3637 58.0196 21.4939 57.9069C21.7717 57.7964 21.9938 57.5628 22.0507 57.149C22.5366 53.5945 22.4285 50.0505 22.3436 46.475C22.2541 42.6904 22.3448 38.908 22.5064 35.128C22.8318 27.5494 23.4002 19.9615 23.0166 12.3736Z" fill="#F7C300"/>
<path d="M59.8195 21.0797C59.7486 19.8767 59.6312 18.676 59.458 17.4811C59.3545 16.7732 59.3604 15.8898 58.377 15.6678C57.3332 15.4318 55.9128 15.6608 54.8422 15.6759C54.2227 15.684 53.6043 15.6933 52.9848 15.7015C52.4094 15.7096 51.6527 15.6306 51.1401 15.9293C50.3218 16.407 50.4369 17.3776 50.402 18.1145C50.3404 19.3908 50.3067 20.6683 50.2893 21.9457C50.2567 24.3797 50.2893 26.8125 50.3265 29.2465C50.4101 34.6573 50.4973 40.0681 50.5833 45.4789C50.5845 45.5323 50.6089 45.5718 50.6194 45.6195C50.6089 46.568 50.5996 47.5153 50.5892 48.4638C50.5845 48.9741 50.5206 49.5041 51.0192 49.8575C51.5493 50.2341 52.4768 50.2748 53.1335 50.355C54.8655 50.5654 56.5858 50.5003 58.3014 50.226C58.4653 50.1992 58.5839 50.14 58.6815 50.0679C58.8884 49.997 59.0547 49.8482 59.0977 49.5855C59.4603 47.3224 59.3801 45.0662 59.3162 42.7892C59.2488 40.3796 59.3173 37.9723 59.4382 35.5651C59.6811 30.7413 60.1054 25.9105 59.8195 21.0797Z" fill="#F7C300"/>
<path d="M44.046 56.6562C43.6124 57.8592 42.8581 59.3865 41.4202 59.5574C40.2579 59.6957 39.5523 58.452 39.4535 57.4524C39.3326 56.2331 37.4961 55.7751 37.1706 57.1432C36.8463 58.502 35.3388 59.2401 34.1101 59.6341C32.2492 60.2316 31.3391 58.3079 30.6556 56.9154C29.9965 55.5717 27.9915 56.7491 28.6482 58.0893C29.7745 60.3862 31.5959 62.7016 34.474 61.953C35.7258 61.6276 37.0509 60.9802 38.0331 60.0421C38.741 61.1255 39.8313 61.8984 41.2761 61.8845C43.9309 61.8601 45.485 59.5074 46.2882 57.2734C46.795 55.8646 44.5493 55.2567 44.046 56.6562Z" fill="black"/>
<path d="M62.8776 40.4493C61.1003 40.4946 59.3219 40.5377 57.5447 40.5807C57.5528 38.5093 57.5993 36.4438 57.5772 34.419C57.5191 28.8536 57.461 23.2882 57.4028 17.7228C57.4052 17.717 57.4063 17.71 57.4087 17.7042C57.5865 17.0754 57.2517 16.6186 56.7926 16.407C56.7298 16.3756 56.6717 16.3408 56.6043 16.3198C56.5822 16.314 56.559 16.314 56.5369 16.3082C55.8709 16.1467 55.0653 16.493 55.0746 17.3799V17.3985C54.927 17.9134 54.7736 18.4307 54.612 18.9456C52.7848 19.034 50.9564 19.0642 49.128 19.0131C49.1082 18.4667 49.0954 17.9193 49.0722 17.3729C49.0106 15.8828 46.6859 15.8747 46.7475 17.3729C46.8068 18.8026 46.8439 20.2324 46.887 21.6632C46.4092 23.129 45.7281 24.4761 44.3902 25.2933C42.7792 26.2766 40.8624 26.4812 38.9538 26.3197C38.3273 26.2662 37.7915 26.8916 37.7915 27.482C37.7915 28.155 38.325 28.5909 38.9538 28.6444C41.2379 28.8385 43.7149 28.477 45.6781 27.2286C46.1593 26.9229 46.5987 26.5603 46.9973 26.1581C47.0241 27.6296 47.0555 29.1 47.0694 30.5716C43.6753 32.6743 39.5722 32.708 35.8608 30.9377C31.6681 28.9361 28.7018 25.1689 26.3189 21.2983C23.7757 17.1672 21.652 12.7816 19.9097 8.25538C20.0201 8.07405 20.1015 7.8753 20.1015 7.66608C20.1015 7.00353 19.5679 6.54323 18.9391 6.50371C18.8415 6.4979 18.7427 6.49555 18.645 6.48974C18.5834 4.92985 18.5311 3.36996 18.4625 1.81007C18.3974 0.319917 16.0716 0.31178 16.1378 1.81007C16.2052 3.33276 16.2587 4.85547 16.3191 6.37701C14.0235 6.26774 11.7255 6.1922 9.42634 6.17244C9.45889 4.48934 9.49141 2.80507 9.52396 1.12197C9.55302 -0.37399 7.22829 -0.37399 7.19923 1.12197C6.9377 14.6937 6.67736 28.2654 6.41582 41.8372C4.65136 41.8802 2.88687 41.9244 1.12241 41.9674C-0.371228 42.0034 -0.37704 44.3281 1.12241 44.2921C2.87176 44.2502 4.62114 44.2049 6.37049 44.1631C6.27401 49.1856 6.17638 54.2082 6.0799 59.2308C5.60333 59.2273 5.12676 59.2238 4.65135 59.2192C3.15539 59.2075 3.15423 61.5323 4.65135 61.5439L20.4571 61.6659C21.9531 61.6776 21.9554 59.3528 20.4571 59.3412L19.6202 59.3342C19.6272 57.364 19.6051 55.395 19.6017 53.4248C19.7214 53.2528 19.8085 53.0563 19.8085 52.8111C19.8085 52.5925 19.7295 52.3612 19.5981 52.1624C19.5912 49.3879 19.5981 46.6133 19.5726 43.8388C28.7227 43.6144 37.8717 43.3913 47.0206 43.1635C46.9671 45.7916 46.8858 48.4196 46.7823 51.0466L45.4735 51.0326C43.9776 51.0164 43.9764 53.3411 45.4735 53.3574L61.0515 53.5294C62.5474 53.5457 62.5486 51.221 61.0515 51.2047C60.153 51.1942 59.2545 51.1849 58.356 51.1745C58.3513 51.1256 58.3652 51.085 58.3548 51.035C57.7864 48.3929 57.6039 45.6544 57.5586 42.9042C59.3312 42.8612 61.105 42.8194 62.8776 42.7729C64.3712 42.7357 64.377 40.411 62.8776 40.4493ZM16.4121 8.70872C16.5609 12.6631 16.6969 16.6174 16.8073 20.573C13.8073 16.9871 11.4128 12.9013 9.78202 8.50645C11.9928 8.5297 14.2025 8.60062 16.4121 8.70872ZM9.29264 13.178C11.2559 17.1963 13.8212 20.8798 16.8968 24.1135C17.0421 29.9334 17.1526 35.7534 17.2165 41.5745C14.3908 41.6431 11.5662 41.714 8.74168 41.7826C8.92534 32.2477 9.10899 22.7129 9.29264 13.178ZM8.69635 44.1084C11.5476 44.0387 14.3977 43.9678 17.2478 43.8981C17.2723 46.5227 17.2641 49.1473 17.2723 51.7708C14.3675 52.0241 11.45 51.9893 8.55105 51.6592L8.69635 44.1084ZM8.40576 59.2505L8.50689 53.9792C11.4221 54.314 14.3582 54.3512 17.2792 54.0955C17.2804 55.8367 17.3025 57.5779 17.2955 59.3191L8.40576 59.2505ZM55.4303 46.5843C53.3671 46.5529 51.3028 46.5726 49.2396 46.6575C49.2744 45.4742 49.3232 44.2909 49.3465 43.1077C51.319 43.0588 53.2927 43.01 55.2653 42.9624C55.2862 44.1735 55.3408 45.3812 55.4303 46.5843ZM55.1455 24.1344C55.1839 27.7517 55.2211 31.3689 55.2595 34.9874C55.2792 36.8518 55.2513 38.743 55.249 40.6376C53.2892 40.6853 51.3306 40.733 49.3709 40.7829C49.415 37.7747 49.4186 34.7665 49.4 31.7583C49.9579 31.3318 50.4973 30.8785 50.9971 30.3775C52.7964 28.57 54.1099 26.4243 55.1455 24.1344ZM53.796 21.3052C52.7696 24.0217 51.4213 26.6044 49.3779 28.6769C49.3477 26.4498 49.2896 24.2216 49.2233 21.9957C49.2872 21.7783 49.3488 21.5609 49.4081 21.3412C50.8704 21.375 52.3326 21.3587 53.796 21.3052ZM47.0462 40.8399C37.8774 41.0689 28.7088 41.292 19.54 41.5175C19.4842 36.488 19.3901 31.4584 19.2739 26.4301C20.5478 27.5808 21.8682 28.6828 23.277 29.6812C24.4998 30.5483 25.6622 28.5328 24.451 27.6738C22.5692 26.3406 20.821 24.8353 19.1995 23.208C19.1018 19.3932 18.967 15.5794 18.831 11.7657C20.1061 14.7704 21.5428 17.7042 23.1666 20.5392C25.21 24.1077 27.5499 27.6529 30.722 30.3252C33.6279 32.7719 37.2323 34.4748 41.0763 34.5899C43.2034 34.6538 45.2375 34.133 47.0845 33.209C47.0903 35.751 47.0833 38.2955 47.0462 40.8399ZM49.1082 51.0733C49.135 50.3771 49.1465 49.6808 49.171 48.9846C51.3341 48.8939 53.4996 48.873 55.6639 48.9113C55.7615 49.6622 55.8766 50.4096 56.0231 51.1501C53.717 51.1245 51.412 51.0989 49.1082 51.0733Z" fill="black"/>
</svg>
