<svg width="50" height="64" viewBox="0 0 50 64" fill="none" xmlns="http://www.w3.org/2000/svg">
<path d="M44.7498 33.2424C42.6034 32.0306 40.1129 31.2044 37.8348 30.2655C36.6634 29.7833 35.4888 29.3097 34.3109 28.8455C33.1639 28.3942 31.8395 27.6475 30.6065 27.5296C29.5965 27.433 28.7713 27.9237 27.893 28.3655C26.6472 28.9932 25.4014 29.623 24.1577 30.2559C21.748 31.4815 19.3424 32.7146 16.9411 33.9561C15.8568 34.5169 14.7724 35.0798 13.6902 35.6437C12.7843 36.1153 11.7286 36.5454 11.1232 37.4131C10.4573 38.3689 10.4308 39.5882 10.3394 40.7076C10.2194 42.1764 10.1217 43.6473 10.0495 45.1193C9.89442 48.2375 9.85407 51.3589 9.90823 54.4802C9.92522 55.4339 10.9575 55.708 11.5757 55.3288C16.9199 55.6389 22.2737 55.5688 27.62 55.3469C30.3527 55.2332 33.0843 55.0856 35.8159 54.9422C38.385 54.8063 41.2015 54.3485 43.7239 55.0006C44.2698 55.1419 44.889 54.8233 45.0302 54.2593C45.626 51.8856 45.5846 49.3888 45.694 46.9577C45.8151 44.2389 45.9372 41.519 46.0583 38.8001C46.1454 36.8789 46.7571 34.3756 44.7498 33.2424Z" fill="#F7C300"/>
<path d="M29.9406 3.36699C29.8525 2.78073 29.6698 2.19552 29.2471 1.76114C28.7575 1.25667 28.064 1.12393 27.3906 1.09101C26.7715 1.06127 26.1512 1.04215 25.532 1.01773C25.3048 1.00923 25.0913 1.10693 24.9097 1.24499C24.8215 1.22163 24.7344 1.18976 24.6442 1.19401C24.0452 1.22056 23.6119 1.66025 23.5821 2.25606C23.5269 3.36909 23.4982 4.48424 23.5099 5.59833C23.5152 6.09856 23.6554 6.56587 24.1036 6.84944C24.4445 7.06503 24.8332 7.06715 25.223 7.07246C25.772 7.07989 26.3211 7.06715 26.8692 7.03528C27.4172 7.00342 27.9641 6.95246 28.509 6.88237C29.0071 6.81865 29.4372 6.68056 29.7176 6.22069C29.9151 5.89783 29.9459 5.52718 29.9916 5.15971C30.0659 4.55859 30.0309 3.96704 29.9406 3.36699Z" fill="#F7C300"/>
<path d="M29.3735 12.2498C27.688 11.4108 25.2601 11.4692 24.2268 13.1791C23.7998 13.5763 23.4663 14.0511 23.306 14.6798C23.0776 15.5741 23.0118 16.6351 23.3325 17.5155C23.6692 18.4395 24.3351 19.167 25.2208 19.6003C26.0631 20.0113 27.0848 20.3118 28.0279 20.2545C29.8503 20.144 31.4678 18.7411 31.7503 16.9186C32.0424 15.0345 31.0961 13.108 29.3735 12.2498Z" fill="#F7C300"/>
<path d="M48.8398 61.7425C47.3243 61.7531 45.8087 61.7627 44.2921 61.7733C44.342 60.3693 44.4058 58.7273 42.5737 58.6371C41.6402 58.5914 40.662 58.7592 39.7285 58.8165C38.6293 58.8845 37.5279 58.9408 36.4277 58.9843C32.1901 59.1532 27.9419 59.0757 23.7022 59.0725C20.2813 59.0704 16.8583 59.1203 13.4385 58.9843C12.3372 58.9408 11.2369 58.8845 10.1377 58.8165C9.20413 58.7592 8.22597 58.5914 7.29243 58.6371C5.45933 58.7263 5.52413 60.3682 5.57405 61.7733C4.05851 61.7627 2.54295 61.7531 1.02634 61.7425C-0.343706 61.7329 -0.340519 63.857 1.02634 63.8666C2.38045 63.8762 3.73351 63.8847 5.08762 63.8942C7.92011 63.9133 10.7515 63.9324 13.584 63.9515C17.8269 63.9823 22.0709 64.0068 26.3137 63.9983C28.6874 63.994 31.0601 63.9866 33.4337 63.9707C36.4372 63.9505 39.4396 63.9303 42.4431 63.9101C44.4323 63.8963 46.4226 63.8836 48.4118 63.8698C48.5552 63.8687 48.6975 63.8677 48.8409 63.8666C50.2067 63.857 50.2099 61.7329 48.8398 61.7425ZM42.1468 61.7871C42.1404 61.6448 33.4688 61.8264 32.7742 61.8338C28.4973 61.8795 24.2205 61.8784 19.9425 61.8636C18.8305 61.8593 17.7175 61.854 16.6056 61.8466C13.6435 61.8264 10.6804 61.8062 7.71831 61.7871C7.73318 61.4462 7.75335 61.0808 7.68113 60.7835C8.02842 60.9321 8.81647 60.8535 9.16482 60.878C9.55353 60.9045 9.9412 60.9289 10.3299 60.9523C12.077 61.0575 13.8262 61.1329 15.5743 61.1785C19.8172 61.2847 24.0611 61.204 28.3051 61.1945C30.2996 61.1902 32.2941 61.2306 34.2887 61.1785C36.0379 61.1329 37.7871 61.0585 39.5331 60.9523C39.9218 60.9289 40.3094 60.9035 40.6982 60.878C41.0465 60.8546 41.8345 60.9332 42.1818 60.7888C42.1107 61.0808 42.1309 61.4462 42.1468 61.7871Z" fill="black"/>
<path d="M44.4578 36.7769C44.5884 36.3606 44.4971 35.8858 44.0053 35.6054C39.9876 33.3082 35.5673 31.7906 31.1386 30.3812C31.1428 30.3387 31.1641 30.3016 31.162 30.258C31.1014 28.631 31.1142 27.0018 31.2002 25.3747C31.2066 25.26 31.1747 25.1496 31.1375 25.0423C31.4115 25.0274 31.6845 25.0126 31.9574 24.9966C32.6159 24.9605 33.3009 24.9584 33.8458 24.5357C34.4607 24.0588 34.5297 23.3069 34.551 22.5805C34.5701 21.9369 34.5733 21.1584 34.3449 20.552C34.0624 19.8 33.4326 19.5611 32.7263 19.4867C32.669 16.7689 32.6594 14.0458 32.5447 11.3302C32.5108 10.5241 32.0679 10.0568 31.3457 9.93358C31.1025 8.71966 30.5598 7.59177 29.6347 6.73576C29.5296 6.63805 29.4191 6.55521 29.3098 6.47025C29.3257 6.39909 29.3544 6.33322 29.3544 6.25676L29.3512 3.59207C29.3501 2.66596 29.2757 1.69419 28.5334 1.0336C28.0013 0.55886 27.3641 0.332662 26.6907 0.203092C26.5229 0.0820182 26.3307 -0.00507998 26.1034 0.00023027C25.2145 0.0225333 24.3266 0.0448239 23.4377 0.067127C22.9704 0.0788095 22.5349 0.450549 22.1324 0.660835C21.0077 1.24815 20.7921 2.42809 20.7911 3.59103L20.7878 6.25569C20.7878 6.33322 20.8165 6.39802 20.8325 6.46918C20.7231 6.55414 20.6126 6.63698 20.5075 6.73469C19.5814 7.5907 19.0387 8.71965 18.7965 9.93251C18.0743 10.0568 17.6314 10.523 17.5975 11.3291C17.4828 14.0437 17.4732 16.7679 17.4159 19.4856C16.7096 19.56 16.0798 19.799 15.7973 20.5509C15.57 21.1573 15.5721 21.9358 15.5912 22.5794C15.6135 23.3048 15.6815 24.0578 16.2964 24.5347C16.8413 24.9574 17.5263 24.9595 18.1848 24.9956C18.4577 25.0104 18.7317 25.0253 19.0047 25.0412C18.9675 25.1485 18.9356 25.259 18.942 25.3737C19.028 26.9997 19.0408 28.6288 18.9802 30.2569C18.9781 30.3016 18.9994 30.3377 19.0036 30.3802C14.5749 31.7895 10.1546 33.3072 6.13689 35.6044C5.64622 35.8858 5.55487 36.3595 5.67701 36.8024C5.5793 37.5373 5.28513 38.5664 5.67065 39.2578C5.86713 39.6083 6.15492 39.7751 6.48203 39.8558C6.87075 45.4177 7.05237 50.9914 7.02901 56.5671C6.79004 57.182 7.10227 58.0572 7.96997 58.0986C13.3684 58.3556 18.7731 58.4055 24.1758 58.2675C24.8778 58.2855 25.5798 58.2877 26.2808 58.2728C31.5783 58.4013 36.879 58.3503 42.1733 58.0975C43.041 58.0561 43.3522 57.181 43.1143 56.566C43.0909 50.9903 43.2725 45.4167 43.6612 39.8547C43.9883 39.7729 44.2761 39.6073 44.4726 39.2568C44.8571 38.5675 44.5629 37.5384 44.4578 36.7769ZM30.5162 12.3158C30.5683 12.6046 30.4854 12.9126 30.4886 13.2036C30.4971 13.9248 30.4939 14.6459 30.5099 15.367C30.5386 16.667 30.5566 17.9669 30.6001 19.2669C30.6012 19.2966 30.6001 19.3295 30.5799 19.3518C30.5587 19.3752 30.5237 19.3763 30.4918 19.3763C30.0659 19.3763 29.6358 19.372 29.2089 19.3709C30.0734 18.1188 30.0808 16.3494 29.5413 14.8912C29.1749 13.8993 28.681 12.8988 28.047 12.0343C28.6428 11.9642 30.5162 11.652 30.5162 12.3158ZM22.3109 14.905C22.365 14.1605 22.6932 13.621 23.2231 13.1803C23.512 12.9392 23.8667 12.7501 24.2438 12.594C24.3054 12.6036 24.3617 12.6312 24.4254 12.6269C25.104 12.5834 25.7019 12.4921 26.1523 13.0167C26.627 13.569 26.9785 14.2933 27.2833 14.9518C27.5945 15.6219 27.8431 16.3547 27.8176 17.1013C27.8006 17.5878 27.6253 18.1422 27.1857 18.4714C26.2086 19.2042 24.6962 18.9748 23.7011 18.3939C23.203 18.1029 22.7102 17.6897 22.5052 17.1428C22.2535 16.4694 22.2599 15.6145 22.3109 14.905ZM22.9152 3.899C22.9152 3.69828 22.9151 3.49757 22.9162 3.29791C22.9162 3.20869 22.9173 3.1184 22.9215 3.02919C22.9226 3.01113 22.9226 2.97395 22.9215 2.93678C22.9258 2.872 22.947 2.80085 22.9651 2.74137C22.9693 2.72226 22.9767 2.70314 22.9874 2.67765C23.0309 2.62561 23.0373 2.60862 23.032 2.60437C23.0628 2.57676 23.0967 2.54915 23.1222 2.53216C23.6936 2.21142 24.4424 2.15088 25.0913 2.1477C25.394 2.14664 25.6977 2.16681 25.9962 2.22416C26.2107 2.26451 26.4295 2.29426 26.6387 2.35798C26.6982 2.37604 26.7555 2.39833 26.8309 2.42488C26.8946 2.45993 26.9573 2.49605 27.0338 2.53641C27.0455 2.54809 27.0794 2.57569 27.1102 2.6033C27.106 2.60861 27.1113 2.62456 27.1601 2.68404C27.1665 2.70316 27.174 2.72226 27.1782 2.74137C27.1952 2.80191 27.2175 2.872 27.2218 2.93678C27.2218 2.97395 27.2218 3.01007 27.2218 3.02919C27.2249 3.1184 27.226 3.20869 27.2271 3.29791C27.2281 3.49863 27.2271 3.69934 27.2281 3.899C27.2281 4.50331 27.2292 5.10655 27.2303 5.71085C26.8054 5.69386 26.3753 5.72468 25.9494 5.76822C25.4057 5.77247 24.8629 5.77564 24.3181 5.77989C23.8529 5.72997 23.3793 5.69174 22.913 5.71085C22.9141 5.10655 22.9141 4.50225 22.9152 3.899ZM21.1022 9.47476C21.0513 9.59478 21.0417 9.6192 21.0736 9.54698C21.0842 9.52255 21.0958 9.4992 21.1075 9.47583C21.1362 9.41636 21.1649 9.35796 21.1957 9.29955C21.2573 9.18379 21.3231 9.06907 21.3943 8.95862C21.4431 8.88109 21.5366 8.68037 21.6195 8.6347L21.5504 8.72603C21.5748 8.69524 21.6003 8.6655 21.6269 8.6347C21.6694 8.58478 21.7129 8.53592 21.7575 8.48707C21.8382 8.39998 21.9221 8.31715 22.0092 8.23643C22.057 8.19182 22.108 8.14935 22.1706 8.09094C22.4914 7.8764 22.6156 7.85409 23.0044 7.87427C23.409 7.89551 23.8136 7.90827 24.2193 7.91251C25.0085 7.92101 25.7965 7.89656 26.5845 7.84027C27.3609 7.78504 27.8494 7.91462 28.3847 8.48707C28.4293 8.53486 28.4728 8.58478 28.5153 8.6347C28.5408 8.66444 28.5663 8.69524 28.5918 8.72603L28.5228 8.6347C28.6056 8.68037 28.6991 8.88109 28.7479 8.95862C28.818 9.06907 28.8849 9.18379 28.9465 9.29955C28.9773 9.35796 29.0071 9.41636 29.0347 9.47583C29.0464 9.4992 29.057 9.52361 29.0686 9.54698C29.1005 9.6192 29.091 9.59478 29.041 9.47476C29.0899 9.47476 29.1525 9.78594 29.16 9.8263C28.6491 10.0111 27.8547 9.90596 27.3025 9.91977C26.6557 9.93676 26.0089 9.94525 25.3621 9.94525C23.9464 9.94631 22.5307 9.86668 21.116 9.85712C21.0651 9.85712 21.0141 9.85923 20.9673 9.84542C20.979 9.81143 21.0778 9.47264 21.1022 9.47476ZM19.6961 11.9897C19.8554 11.8283 20.2802 11.926 20.4767 11.9334C20.7878 11.9451 21.1012 11.9695 21.4134 11.9908C20.8919 12.5303 20.4979 13.1824 20.3184 13.9672C20.0752 15.0335 20.1347 16.2315 20.3524 17.2989C20.5202 18.122 20.9556 18.8112 21.5334 19.3805C20.9493 19.3879 20.3641 19.3794 19.781 19.3943C19.7014 19.3964 19.6228 19.4007 19.5431 19.4028C19.5729 18.0572 19.6026 16.7126 19.6324 15.367C19.6493 14.6023 19.6451 13.8366 19.6547 13.0719C19.6578 12.8733 19.5612 12.1267 19.6961 11.9897ZM18.4343 22.8853C18.3186 22.8789 17.9256 22.9182 17.7918 22.8619C17.7791 22.8566 17.7695 22.8502 17.7621 22.8439C17.6612 22.7515 17.7122 22.418 17.7132 22.2842C17.7143 22.0675 17.7355 21.8243 17.7536 21.6034C17.846 21.5906 17.9352 21.5768 17.9883 21.5747C18.7158 21.545 19.4433 21.5227 20.1719 21.5078C24.1259 21.426 28.0884 21.4738 32.0424 21.5503C32.1422 21.5524 32.2474 21.5556 32.3302 21.6108C32.4863 21.7138 32.4301 22.1238 32.4311 22.2831C32.4311 22.5263 32.498 22.7536 32.2877 22.846C32.0626 22.9458 31.6314 22.8895 31.3829 22.9054C30.7818 22.9437 30.1796 22.9787 29.5774 23.0106C28.3741 23.0743 27.1697 23.1264 25.9653 23.1646C25.3918 23.1827 24.8183 23.1986 24.2448 23.1901C23.718 23.1816 23.1913 23.1518 22.6656 23.1221C21.7256 23.069 20.7847 23.0159 19.8447 22.9628C19.3743 22.9384 18.9048 22.9118 18.4343 22.8853ZM28.955 29.6325C28.8828 29.658 28.8021 29.641 28.7267 29.6219C27.7422 29.3733 26.8267 28.9039 25.8358 28.6766C25.3865 28.5736 24.9075 28.5035 24.4509 28.597C23.9379 28.7021 23.4802 28.9793 22.9884 29.1503C22.7782 29.2236 21.116 29.5709 21.1118 29.7132C21.1511 28.2667 21.1426 26.8202 21.0661 25.3758C21.0618 25.2983 21.0353 25.2186 21.0194 25.1442C21.0374 25.2292 22.8875 25.2388 23.0755 25.2462C23.3771 25.2579 23.6798 25.2589 23.9815 25.2674C23.9995 25.6094 24.0144 25.9525 24.0547 26.2923C24.0494 26.4389 24.0802 26.5748 24.1461 26.7012C24.1886 26.8329 24.2618 26.9466 24.3659 27.0432C24.4626 27.1473 24.5762 27.2206 24.7079 27.2631C24.8343 27.33 24.9713 27.3597 25.1168 27.3544C25.3919 27.3417 25.6765 27.2514 25.8687 27.0432C25.9239 26.9721 25.9791 26.8998 26.0344 26.8287C26.13 26.663 26.1788 26.4846 26.1788 26.2923C26.1385 25.9557 26.1246 25.6169 26.1066 25.2791C27.1134 25.2579 28.1192 25.2101 29.126 25.1549C29.108 25.2282 29.0793 25.2961 29.075 25.3758C29.0156 26.5079 29.0081 27.6411 29.0145 28.7743C29.0156 28.9528 29.1738 29.5082 28.955 29.6325ZM13.2728 56.1572C11.8985 56.1243 10.5253 56.0775 9.15097 56.0202C9.15946 51.635 9.0352 47.2519 8.7888 42.8741C10.299 42.9219 11.8103 42.9548 13.3216 42.992C13.6339 47.3751 13.618 51.7752 13.2728 56.1572ZM15.8005 56.1911C15.6656 56.189 15.5296 56.1912 15.3948 56.189C15.4468 55.5359 15.4766 54.8827 15.5127 54.2285C15.5944 54.2476 15.6667 54.2795 15.7601 54.2795C15.8047 54.2795 15.8355 54.2603 15.8769 54.2561C15.8514 54.9008 15.826 55.5465 15.8005 56.1911ZM15.9587 52.1957C15.8918 52.184 15.8366 52.1554 15.7601 52.1554C15.7028 52.1554 15.6614 52.1787 15.6082 52.1862C15.7102 49.1391 15.6635 46.0889 15.4479 43.0451C15.7378 43.0515 16.0288 43.0515 16.3198 43.0568C16.2009 46.1038 16.0798 49.1498 15.9587 52.1957ZM17.9246 56.2007C18.0977 51.8293 18.2708 47.459 18.4439 43.0876C18.7859 43.0929 19.1289 43.0961 19.4709 43.1014C19.3828 47.4675 19.4199 51.8336 19.5792 56.1965C19.028 56.1975 18.4758 56.2028 17.9246 56.2007ZM21.5939 43.1311C21.9635 43.1364 22.3321 43.1407 22.7017 43.146L23.0203 52.3625C22.5541 52.406 22.0857 52.4188 21.6184 52.4166C21.5557 49.3208 21.5323 46.2259 21.5939 43.1311ZM21.7033 56.1922C21.6832 55.6421 21.6821 55.0909 21.6662 54.5397C22.1228 54.5407 22.5785 54.5269 23.033 54.4844C23.0543 54.4844 23.0734 54.4781 23.0936 54.477C23.1127 55.0388 23.1329 55.6006 23.152 56.1635C22.6688 56.172 22.1855 56.188 21.7033 56.1922ZM25.6021 56.1667C25.2485 56.1689 24.8938 56.1572 24.5401 56.1508V43.1619H25.6021V56.1667ZM28.4389 56.1922C28.27 56.1901 28.1011 56.1858 27.9312 56.1816C27.8208 56.1412 27.7039 56.1094 27.5765 56.1158C27.3811 56.1253 27.1867 56.1243 26.9913 56.1306C27.0104 55.5794 27.0295 55.0282 27.0487 54.4759C27.0699 54.477 27.089 54.4834 27.1092 54.4834C27.5637 54.5259 28.0194 54.5386 28.476 54.5386C28.4601 55.0909 28.459 55.6421 28.4389 56.1922ZM28.5238 52.4156C28.0565 52.4177 27.5882 52.405 27.1219 52.3614L27.4405 43.1449C27.8101 43.1386 28.1787 43.1354 28.5483 43.1301C28.6099 46.2259 28.5865 49.3208 28.5238 52.4156ZM30.563 56.1965C30.7223 51.8325 30.7594 47.4664 30.6713 43.1014C31.0133 43.0961 31.3563 43.0929 31.6983 43.0876C31.8714 47.459 32.0445 51.8293 32.2176 56.2007C31.6664 56.2028 31.1142 56.1975 30.563 56.1965ZM33.8213 43.0578C34.1113 43.0525 34.4023 43.0515 34.6933 43.0462C34.4777 46.09 34.431 49.1402 34.5329 52.1872C34.4798 52.1798 34.4394 52.1564 34.381 52.1564C34.3056 52.1564 34.2493 52.184 34.1824 52.1968C34.0624 49.1498 33.9424 46.1038 33.8213 43.0578ZM34.3417 56.1911C34.3162 55.5465 34.2908 54.9008 34.2653 54.2561C34.3067 54.2603 34.3375 54.2795 34.3821 54.2795C34.4766 54.2795 34.5488 54.2476 34.6296 54.2285C34.6667 54.8816 34.6965 55.5359 34.7474 56.189C34.6126 56.1912 34.4766 56.189 34.3417 56.1911ZM40.9912 56.0202C39.618 56.0786 38.2437 56.1243 36.8694 56.1572C36.5242 51.7752 36.5073 47.3751 36.8206 42.9909C38.3319 42.9548 39.8432 42.9209 41.3534 42.8731C41.1081 47.2508 40.9827 51.6339 40.9912 56.0202ZM41.484 40.7458C41.484 40.7574 41.483 40.7691 41.4819 40.7808C37.1583 40.8955 32.8326 40.9731 28.5068 41.0134C24.2236 41.0527 19.9446 41.0123 15.6624 40.9263C13.328 40.8796 10.9936 40.819 8.65926 40.7458C8.6412 40.4802 8.6295 40.2137 8.61145 39.9482C10.0696 39.9609 11.5268 39.9737 12.9839 39.9864C17.2555 40.0236 21.5249 40.1085 25.7975 40.0958C29.1696 40.0852 32.5415 40.0215 35.9125 39.9981C37.7838 39.9981 39.6541 39.9599 41.5254 39.9662L41.484 40.7458ZM41.5021 37.8251C41.1537 37.8283 40.8064 37.8315 40.4591 37.8347C38.8374 37.8485 37.2156 37.8634 35.5928 37.8772C31.3414 37.9175 27.0911 37.9866 22.8397 37.9589C20.0752 37.942 17.3118 37.9016 14.5483 37.8772C12.9266 37.8634 11.3048 37.8485 9.68199 37.8347C9.3347 37.8315 8.98742 37.8283 8.63906 37.8251C8.38842 37.823 8.04962 37.7773 7.73632 37.7699C7.76074 37.5628 7.76818 37.344 7.77774 37.1369C11.2793 35.2178 15.0591 33.8764 18.8507 32.654C20.0603 32.2642 21.2636 31.8543 22.4776 31.4762C23.4525 31.1724 24.4094 30.7774 25.4481 30.907C26.0354 30.9802 26.6026 31.1597 27.1665 31.3392C30.307 32.3365 33.4613 33.2966 36.5381 34.4807C38.5305 35.2475 40.4889 36.111 42.3623 37.1369C42.3719 37.344 42.3793 37.5628 42.4037 37.7699C42.0915 37.7773 41.7538 37.823 41.5021 37.8251Z" fill="black"/>
<path d="M26.2267 15.4011C26.2245 15.3915 26.2214 15.383 26.2182 15.3745C26.2171 15.3703 26.215 15.366 26.2129 15.3618C26.1821 15.2789 26.1396 15.1791 26.1024 15.0995C26.0939 15.0814 26.0833 15.0644 26.0716 15.0474C26.0175 14.9731 25.9559 14.887 25.8943 14.818C25.8879 14.8106 25.8794 14.8032 25.872 14.7957C25.8369 14.766 25.7732 14.7192 25.7573 14.7076C25.7296 14.6853 25.6797 14.6428 25.6393 14.6173C25.6319 14.612 25.6234 14.6088 25.616 14.6046C25.564 14.5791 25.4131 14.5164 25.3579 14.4952C25.3537 14.493 25.3494 14.492 25.3452 14.4899C25.3335 14.4867 25.3218 14.4845 25.3101 14.4824C25.2475 14.4718 25.0839 14.4474 25.0223 14.4442C25.0149 14.4442 25.0074 14.4431 25 14.4431C24.9947 14.4431 24.9894 14.4442 24.983 14.4442C24.915 14.4484 24.7621 14.4718 24.6952 14.4824C24.6718 14.4866 24.6495 14.493 24.6272 14.5026C24.6049 14.5111 24.5815 14.5217 24.5592 14.5313C24.5582 14.5313 24.5571 14.5313 24.5571 14.5313C24.4722 14.5674 24.3872 14.6024 24.3033 14.6385C24.2842 14.6491 24.2768 14.6715 24.2587 14.6832C24.1897 14.7341 24.1206 14.7872 24.0537 14.8414C24.0187 14.8701 23.9868 14.9008 23.9581 14.9359C23.8912 15.0187 23.8084 15.108 23.7553 15.2067C23.75 15.2173 23.7447 15.228 23.7394 15.2386C23.7064 15.3108 23.6586 15.4234 23.63 15.4967C23.6278 15.5041 23.6246 15.5126 23.6215 15.5211C23.6183 15.5317 23.6151 15.5434 23.613 15.5551C23.6119 15.5593 23.6119 15.5636 23.6109 15.5678C23.5981 15.6517 23.5769 15.7739 23.5726 15.8588C23.5726 15.8695 23.5716 15.879 23.5726 15.8886C23.5726 15.8939 23.5737 15.9003 23.5737 15.9056C23.5801 15.9778 23.5992 16.1254 23.613 16.1966C23.6247 16.2603 23.6565 16.3166 23.6809 16.3771C23.7064 16.4366 23.7255 16.5024 23.7638 16.5555C23.7956 16.5991 23.8976 16.734 23.9326 16.7733C23.9358 16.7775 23.939 16.7817 23.9433 16.786C23.9443 16.7871 23.9454 16.7881 23.9464 16.7892C23.9709 16.821 23.9974 16.855 24.0123 16.872C24.0144 16.8752 24.0176 16.8784 24.0208 16.8816C24.0272 16.889 24.0357 16.8954 24.0431 16.9028C24.0463 16.906 24.0495 16.9081 24.0537 16.9113C24.1036 16.9517 24.2194 17.0441 24.2725 17.0802C24.281 17.0855 24.2895 17.0919 24.298 17.0961C24.3054 17.1003 24.3139 17.1036 24.3213 17.1078C24.3957 17.1428 24.5062 17.1906 24.5837 17.2183C24.5869 17.2193 24.5911 17.2214 24.5954 17.2225C24.6039 17.2246 24.6124 17.2278 24.6198 17.2289C24.624 17.2299 24.6283 17.231 24.6325 17.231C24.7154 17.2459 24.8396 17.2628 24.9235 17.2703C24.9883 17.2756 25.0499 17.2597 25.1147 17.2512C25.1763 17.2427 25.2432 17.2416 25.3027 17.2193C25.3473 17.2034 25.5204 17.1312 25.5608 17.111C25.564 17.1089 25.5682 17.1078 25.5714 17.1057C25.616 17.0812 25.6776 17.026 25.6999 17.009C25.7286 16.9867 25.7891 16.9464 25.8252 16.9103C25.8284 16.9071 25.8316 16.9028 25.8359 16.8996L25.8422 16.8922C25.8974 16.82 25.9527 16.7488 26.0079 16.6777C26.0206 16.6596 26.0313 16.6416 26.0408 16.6214C26.0876 16.5215 26.13 16.4185 26.1693 16.3155C26.1885 16.2656 26.2076 16.2157 26.2203 16.1647C26.2384 16.0957 26.2437 16.0213 26.2532 15.9512C26.2617 15.8843 26.2787 15.8068 26.2745 15.7367C26.2649 15.623 26.2532 15.5105 26.2267 15.4011Z" fill="black"/>
</svg>
