<svg width="64" height="49" viewBox="0 0 64 49" fill="none" xmlns="http://www.w3.org/2000/svg">
<path d="M56.5964 14.7359C56.5899 14.5655 56.5552 14.4025 56.5084 14.2433C56.4644 13.8042 56.3089 13.365 55.9765 13.0597C55.5954 12.7095 55.1703 12.5503 54.6525 12.511C53.7414 12.4427 52.8284 12.4061 51.9154 12.3874C52.0943 10.4416 52.2722 8.49578 52.4511 6.55089C52.4595 6.45725 52.4501 6.36549 52.4389 6.27373C52.4398 6.24283 52.4501 6.21473 52.4511 6.18383C52.5953 4.97401 52.7394 3.76513 52.8836 2.55531C52.8911 2.51317 52.8939 2.46916 52.8995 2.42609C52.9005 2.41953 52.9005 2.41392 52.9014 2.40737C52.9014 2.4055 52.9014 2.40361 52.9014 2.40174C53.0063 1.3998 52.4136 0.290165 51.112 0.25271C39.2676 -0.0862641 27.4157 -0.0843735 15.5713 0.259282C15.5488 0.260219 15.5301 0.265839 15.5085 0.267712C14.4598 0.0748155 13.2518 0.661918 13.2705 2.03748C13.3042 4.5854 13.3379 7.1324 13.3707 9.68032C13.3876 10.9154 13.4035 12.1505 13.4204 13.3856C13.4279 14.0036 13.4363 14.6207 13.4447 15.2387C13.4485 15.5253 13.4859 15.8568 13.5074 16.1864C13.22 16.2182 12.9297 16.2397 12.6993 16.2837C12.2489 16.3689 11.7985 16.4542 11.3481 16.5394C10.3949 16.7192 9.18602 16.7641 8.31893 17.2407C6.45363 18.2651 6.98361 21.0378 6.94709 22.8123C6.9115 24.5212 6.26541 27.292 8.11946 28.2639C8.98188 28.7162 10.1355 28.6226 11.0803 28.7003L11.2817 28.7171C11.4867 32.253 11.5017 35.7963 11.3116 39.334C11.2994 39.4192 11.2704 39.495 11.2704 39.5858C11.2704 39.6401 11.2882 39.6945 11.2948 39.7488C11.2938 39.7581 11.2938 39.7684 11.2938 39.7778C11.2695 40.188 11.4193 40.57 11.6647 40.8837C11.9605 41.3181 12.4446 41.6318 13.1188 41.6571C19.6726 41.9043 26.2077 41.2049 32.7465 40.8968C39.2704 40.5897 45.8045 40.5362 52.333 40.7207C52.5138 40.7254 52.6758 40.7039 52.8294 40.6692C52.8359 40.6692 52.8425 40.6711 52.849 40.6702C53.8556 40.6252 54.7321 39.8471 54.7218 38.7974C54.6909 35.6858 54.6609 32.5751 54.63 29.4634C54.6366 29.4625 54.6431 29.4616 54.6488 29.4606C54.822 29.5159 55.0027 29.5543 55.1965 29.5543C56.1825 29.5543 57.1058 28.6966 57.0693 27.6815C56.9101 23.3676 56.7528 19.0517 56.5964 14.7359Z" fill="#F7C300"/>
<path d="M53.4615 14.9887C53.4596 14.969 53.4493 14.9513 53.4465 14.9316C53.5392 14.4119 53.2573 13.8023 52.5728 13.7817C51.9033 13.762 51.2328 13.7499 50.5633 13.7321C50.7159 10.5268 50.8677 7.32154 51.0203 4.11627C51.0531 3.43365 50.4687 3.15366 49.9434 3.24355C49.8797 3.22482 49.8264 3.19298 49.7543 3.18643C36.9744 1.93822 24.129 1.46909 11.292 1.78278C10.6974 1.79777 10.3977 2.26223 10.3912 2.72575C10.3228 2.8531 10.277 2.99075 10.2892 3.14151C10.557 6.54529 10.6337 9.95936 10.5186 13.3716C8.2937 13.3922 6.06787 13.4034 3.843 13.4381C3.26431 13.4474 2.96938 13.8856 2.9469 14.3361C2.55736 15.8006 2.65849 17.3653 2.65942 18.8654L2.66314 23.9003C2.66314 23.9238 2.67438 23.9387 2.67531 23.9612C2.23895 24.5259 2.45993 25.5446 3.35606 25.4744C4.75409 25.3639 6.15213 25.3265 7.55016 25.3124C6.98271 31.384 6.91811 37.4874 7.3863 43.5683C7.38818 43.5973 7.4041 43.617 7.40785 43.6451C7.00895 44.1864 7.23932 45.1714 8.11672 45.1696C11.3248 45.1658 14.5329 45.1424 17.74 45.1218C18.0471 45.28 18.403 45.2941 18.6614 45.1171C24.6993 45.0768 30.7371 45.0216 36.7759 44.942C37.0961 45.0993 37.4717 45.0946 37.747 44.9289C40.8567 44.8867 43.9683 44.8577 47.0781 44.8025C47.2775 44.7987 47.432 44.7322 47.5659 44.6442C48.051 44.5122 48.5435 44.4158 49.0407 44.3427C49.4041 44.2987 49.7674 44.2631 50.1335 44.25C50.6223 44.2322 51.0933 43.8324 51.0699 43.3136C51.0671 43.2556 51.0437 43.2013 51.0306 43.1451C51.0437 43.0814 51.0699 43.0271 51.0699 42.954V33.4956C51.0811 33.4412 51.1045 33.3935 51.1045 33.3336C51.1045 33.2783 51.0811 33.2203 51.0699 33.1622V25.5643C51.4014 25.6074 51.7329 25.6374 52.0634 25.687C52.2994 25.7216 52.4989 25.6626 52.673 25.5681C53.2115 25.5671 53.5673 25.1373 53.6075 24.6317C53.8632 21.417 53.8145 18.1921 53.4615 14.9887ZM41.0955 4.34383C43.7679 4.53111 46.4395 4.74553 49.1063 5.00023C48.9687 7.89555 48.831 10.7899 48.6934 13.6853C46.0012 13.615 43.3091 13.5589 40.617 13.5092C40.7762 10.4547 40.9354 7.39927 41.0955 4.34383ZM37.7441 15.3399C39.5747 15.367 41.4045 15.4007 43.2342 15.4363C43.1518 17.9992 43.0703 20.5621 42.9879 23.125C41.2181 23.0782 39.4474 23.0613 37.6757 23.0866C37.7834 20.505 37.8068 17.9224 37.7441 15.3399ZM21.8807 3.59378C24.6384 3.62281 27.3961 3.68367 30.1519 3.78199C30.15 3.81289 30.135 3.83535 30.135 3.86906C30.1706 7.04062 30.1612 10.2122 30.1144 13.3828C27.1882 13.3566 24.262 13.3379 21.3358 13.3313C21.6298 10.0923 21.8124 6.84493 21.8807 3.59378ZM19.0359 25.48C21.8545 25.4763 24.6711 25.3948 27.4878 25.2853C27.4887 28.1422 27.5206 30.9982 27.5927 33.8532C24.7067 33.7605 21.8208 33.6594 18.9348 33.5995C18.7663 30.8849 18.6698 28.1759 19.0359 25.48ZM26.6319 15.22C26.5926 17.9093 26.5533 20.5996 26.514 23.2889C26.513 23.347 26.5346 23.3891 26.543 23.4415C24.099 23.5305 21.6541 23.6007 19.2082 23.6073C19.1165 20.8065 19.1595 18.0039 19.3309 15.2069C21.7636 15.2022 24.1973 15.2088 26.6319 15.22ZM20.0088 3.58161C19.9405 6.83838 19.757 10.0904 19.463 13.3341C17.1061 13.3332 14.7492 13.3332 12.3923 13.351C12.5009 10.112 12.4316 6.87113 12.1956 3.63871C14.7997 3.5844 17.4038 3.56944 20.0088 3.58161ZM17.4563 15.2135C17.2859 18.003 17.2427 20.799 17.3336 23.5923C16.8167 23.5867 16.2998 23.5867 15.7829 23.5745C14.4869 23.5436 13.191 23.509 11.8959 23.4799C11.88 23.2945 11.8126 23.1419 11.7115 23.0145C11.7115 22.9855 11.7115 22.9574 11.7105 22.9284C11.7087 22.728 11.7078 22.5285 11.7059 22.3282C11.7031 21.9854 11.7003 21.6418 11.6975 21.2991C11.6918 20.5846 11.6853 19.8692 11.6797 19.1547C11.6684 17.8485 11.6581 16.5412 11.6469 15.235C13.5833 15.22 15.5198 15.2191 17.4563 15.2135ZM4.53781 23.5408C4.53687 22.0444 4.53591 20.5471 4.53404 19.0508C4.5331 17.8222 4.43103 16.5253 4.65108 15.3024C6.35906 15.2771 8.06611 15.2715 9.77409 15.2537C9.7872 16.8119 9.8003 18.37 9.81341 19.9282C9.81997 20.7569 9.82749 21.5865 9.83404 22.4152C9.83685 22.7476 9.81999 23.1072 9.86868 23.4453C8.09141 23.4265 6.31414 23.4406 4.53781 23.5408ZM9.42574 25.3012C11.5448 25.3218 13.6639 25.3976 15.7839 25.4473C16.2446 25.4585 16.7043 25.4585 17.165 25.4641C16.8523 28.1628 16.9834 30.868 17.1585 33.5733C14.4271 33.5358 11.6956 33.5396 8.96509 33.6529C9.00723 30.8652 9.16543 28.0804 9.42574 25.3012ZM8.96692 35.5256C11.7377 35.4114 14.5085 35.4077 17.2802 35.447C17.4478 38.0511 17.5611 40.6542 17.2774 43.2518C14.6012 43.2686 11.9241 43.2846 9.24691 43.2883C9.05308 40.7039 8.9716 38.1148 8.96692 35.5256ZM19.138 43.2415C19.3702 40.6571 19.227 38.0651 19.0575 35.4742C21.9228 35.535 24.7882 35.6352 27.6526 35.727C27.7285 38.2066 27.8268 40.6852 27.956 43.1629C25.0167 43.1938 22.0773 43.22 19.138 43.2415ZM28.3858 23.2889C28.4252 20.6033 28.4645 17.9177 28.5038 15.2322C30.96 15.2481 33.4152 15.2865 35.8713 15.3183C35.935 17.9206 35.9107 20.5228 35.802 23.1232C33.3244 23.1821 30.8448 23.2786 28.3671 23.3779C28.3699 23.346 28.3858 23.3226 28.3858 23.2889ZM29.827 43.1432C29.6987 40.6917 29.6022 38.2384 29.5263 35.785C31.6135 35.8459 33.7017 35.8955 35.789 35.9077C35.759 38.2974 35.8667 40.6899 36.1111 43.0748C34.0164 43.102 31.9217 43.1198 29.827 43.1432ZM35.832 34.0349C33.7101 34.0227 31.5883 33.9722 29.4664 33.9104C29.3925 31.0122 29.3606 28.1122 29.3606 25.2132C31.8617 25.1139 34.3666 25.0175 36.8714 24.965C36.3133 27.9662 35.9603 30.9954 35.832 34.0349ZM31.9872 13.4025C32.034 10.2243 32.0434 7.04626 32.0078 3.86815C32.0078 3.85785 32.0022 3.85127 32.0022 3.84097C34.4125 3.94023 36.8208 4.06196 39.2292 4.21646C39.0682 7.30281 38.9062 10.3892 38.7451 13.4755C36.4931 13.438 34.2402 13.4268 31.9872 13.4025ZM46.0649 42.9428C43.37 42.9887 40.675 43.013 37.9801 43.0505C37.7376 40.6739 37.6289 38.2908 37.6589 35.9086C40.4774 35.8946 43.296 35.8084 46.1126 35.5874C46.0958 38.0389 46.0799 40.4914 46.0649 42.9428ZM46.1239 33.7128C43.3185 33.9328 40.5121 34.0199 37.7048 34.0349C37.8349 30.9832 38.187 27.9409 38.7732 24.9313C40.2312 24.9182 41.6873 24.921 43.1434 24.9604C43.4767 25.3677 44.164 25.3864 44.5489 25.0091C45.0929 25.0315 45.636 25.053 46.1791 25.0868C46.1613 27.9624 46.1426 30.8381 46.1239 33.7128ZM49.1971 42.4634C48.7748 42.5074 48.3553 42.5711 47.9386 42.6479C47.9536 40.3921 47.9677 38.1363 47.9817 35.8806C48.4031 35.7467 48.8113 35.5743 49.1962 35.3524V42.4634H49.1971ZM49.1971 32.9702C49.0426 33.1294 48.8946 33.2933 48.7223 33.4328C48.492 33.5995 48.2485 33.7437 47.9957 33.872C48.0144 30.9926 48.0322 28.1132 48.051 25.2328C48.433 25.2656 48.8151 25.2918 49.1971 25.3302V32.9702ZM51.7825 23.7814C49.479 23.4696 47.1708 23.2823 44.8588 23.1784C44.9412 20.6099 45.0236 18.0404 45.106 15.4719C47.2859 15.5178 49.4649 15.5693 51.6449 15.633C51.907 18.3419 51.9529 21.065 51.7825 23.7814Z" fill="black"/>
<path d="M63.0968 45.9289C46.9375 46.6078 30.7642 47.2876 14.5862 47.0142C10.0222 46.9374 5.4601 46.781 0.901745 46.5338C-0.302454 46.4683 -0.298708 48.342 0.901745 48.4066C17.0582 49.2812 33.2457 48.9582 49.4059 48.3551C53.9708 48.1847 58.5338 47.9928 63.0968 47.8008C64.2982 47.7512 64.3039 45.8784 63.0968 45.9289Z" fill="black"/>
</svg>
