<svg width="64" height="54" viewBox="0 0 64 54" fill="none" xmlns="http://www.w3.org/2000/svg">
<path d="M61.679 25.0795C62.4825 23.2423 62.8442 21.1836 62.3787 19.206C62.1633 18.2879 61.7344 17.4459 61.2284 16.6572C60.7925 15.9783 60.158 15.328 60.2529 14.483C60.3606 13.5292 60.8103 12.6467 60.8795 11.6604C60.9447 10.7314 60.842 9.75097 60.5633 8.86249C60.0068 7.08454 58.7517 5.56752 57.0508 4.78478C56.1446 4.36772 55.1582 4.13644 54.1571 4.19376C53.663 4.22242 53.1866 4.31927 52.7112 4.44479C52.1054 4.6039 51.9275 4.56834 51.3246 4.32324C47.1224 2.61842 42.8885 1.15871 38.4659 0.131862C38.45 0.127909 38.4362 0.128886 38.4204 0.125921C38.0942 0.00435995 37.7227 -0.0410864 37.3076 0.0429191C35.7836 0.349292 33.8959 0.429323 32.5212 1.21996C30.9656 2.11437 30.6929 3.87357 30.3074 5.46177C29.9902 6.76632 29.6818 8.12227 29.0414 9.31218C28.6698 10.002 28.1875 10.5584 27.6341 11.0595C26.8671 11.6485 26.0686 12.2247 25.2404 12.789C19.5201 15.7747 11.6137 20.7162 13.5903 28.6226C15.5669 35.5407 24.4617 35.5407 28.32 40.5533C28.5631 41.2659 28.7904 41.9844 29.1699 42.6455C29.834 43.8038 30.8362 44.7546 31.9727 45.4414C34.2191 46.7993 37.4311 47.4803 40.0422 47.2223C41.9496 47.0336 43.3411 46.0423 44.0764 44.2565C44.2118 43.9264 44.3096 43.4204 44.5231 43.0824C44.7435 43.0438 44.957 42.9677 45.1468 42.8293C45.2881 42.7266 45.4354 42.6505 45.5816 42.5675C45.8554 42.527 46.1301 42.5023 46.3288 42.4696C47.0868 42.3481 47.7756 42.1672 48.4042 41.8806C49.3124 41.8668 50.2434 41.9686 51.1576 42.0437C53.3664 42.2265 55.7532 42.2976 57.628 40.9219C59.2251 39.7498 60.1057 37.8503 60.2361 35.8974C60.3132 34.7451 60.1106 33.5413 59.735 32.4532C59.5364 31.877 59.2893 31.3078 59.0234 30.7603C58.8742 30.4519 58.6479 30.1416 58.5342 29.8204C59.0234 29.0851 59.6658 28.417 60.1689 27.7064C60.7569 26.8772 61.2708 26.0115 61.679 25.0795ZM38.0814 10.0939C38.1812 9.63138 38.4827 9.18862 38.8464 8.89213C39.049 8.72709 39.2594 8.57588 39.4739 8.42763C39.5124 8.40095 39.55 8.3733 39.5885 8.34662C39.6113 8.32685 39.635 8.30706 39.6577 8.2873C39.9443 8.03528 40.2853 7.92164 40.6243 7.93547C41.2133 7.63997 41.9051 7.56388 42.5949 7.68544C43.5289 7.85049 44.4767 8.48792 44.9056 9.34774C45.1408 9.81916 45.2871 10.345 45.2337 10.8757C45.1645 11.5566 44.9046 12.1268 44.4688 12.6536C43.9321 13.3029 43.0575 13.7516 42.2352 13.9028C41.1827 14.0955 40.0946 13.9819 39.2387 13.2911C38.3354 12.5607 37.8363 11.2295 38.0814 10.0939ZM42.2915 41.8342C41.7302 42.1959 40.8467 41.9705 40.5383 41.3746C40.0758 40.4812 39.6251 39.5858 39.2486 38.6508C38.8799 37.7347 38.6032 36.7434 38.623 35.7482C38.6378 35.0297 39.1992 34.498 39.9048 34.4664C40.5867 34.4357 41.2005 35.0771 41.1866 35.7482C41.1847 35.8559 41.1856 35.9627 41.1916 36.0694C41.1936 36.106 41.2054 36.2206 41.2103 36.274C41.2192 36.3274 41.2291 36.3807 41.24 36.4331C41.2608 36.5349 41.2835 36.6367 41.3092 36.7375C41.415 37.1575 41.5592 37.5677 41.7213 37.9689C41.7243 37.9748 41.7351 38.0035 41.748 38.0341C41.7569 38.0549 41.7658 38.0737 41.7687 38.0826C41.8132 38.1834 41.8587 38.2842 41.9042 38.384C41.9951 38.5807 42.089 38.7763 42.1848 38.971C42.3687 39.3436 42.5604 39.7113 42.7521 40.0799C43.0812 40.7184 42.8993 41.4418 42.2915 41.8342ZM46.051 22.0602C46.0026 22.166 45.9433 22.2658 45.8761 22.3617C45.7476 22.5445 45.6093 22.7293 45.4511 22.8884C45.291 23.0495 45.1052 23.1889 44.9194 23.3174C44.7297 23.4488 44.5162 23.5318 44.3028 23.6188C44.1861 23.6652 44.0695 23.6988 43.946 23.7176C43.7799 23.7433 43.5922 23.7769 43.4172 23.776C43.2512 23.775 43.0831 23.7443 42.9201 23.7196C42.6809 23.683 42.4606 23.5842 42.2412 23.4824C42.1493 23.4399 42.0593 23.3905 41.9773 23.3312C41.829 23.2245 41.6729 23.1148 41.5464 22.9823C41.2776 22.7027 41.1224 22.421 40.991 22.0602C40.9069 21.829 40.8714 21.5612 40.8911 21.3161C40.9227 20.9207 40.9929 20.6539 41.1698 20.2991C41.2795 20.0777 41.4436 19.8662 41.6304 19.7041C41.9308 19.4432 42.1828 19.2979 42.5584 19.1635C42.8173 19.0706 43.1099 19.038 43.3836 19.0469C43.4914 19.0499 43.5862 19.0855 43.6851 19.1112C43.6979 19.1072 43.7058 19.0963 43.7196 19.0934C43.9825 19.0529 44.2543 19.0025 44.5212 19.0331C44.8641 19.0726 45.1695 19.1191 45.4699 19.3108C45.7249 19.4739 45.9601 19.6883 46.1054 19.9581C46.2704 20.2625 46.3258 20.5116 46.3485 20.8555C46.3772 21.2795 46.225 21.6817 46.051 22.0602ZM54.0009 22.7906C53.9199 22.9349 53.8092 23.0653 53.7025 23.1899C53.6669 23.2304 53.6274 23.267 53.5859 23.3016C53.4544 23.4103 53.322 23.5279 53.1718 23.6109C53.0324 23.687 52.8782 23.7552 52.725 23.7977C52.644 23.8204 52.555 23.8263 52.473 23.8372C52.3989 23.8471 52.3159 23.8639 52.2378 23.8649C52.0757 23.8669 51.9117 23.8402 51.7545 23.8026C51.548 23.7532 51.3384 23.6593 51.1655 23.5338C51.035 23.4389 50.8977 23.3411 50.784 23.2255C50.7059 23.1454 50.6397 23.0545 50.5715 22.9655C50.4569 22.8183 50.3511 22.674 50.2721 22.506C50.0546 22.0464 49.9222 21.6076 49.9034 21.0947C49.9034 21.0848 49.9044 21.0759 49.9044 21.066C49.8985 21.0463 49.8866 21.0275 49.8817 21.0077C49.8283 20.8377 49.8204 20.6667 49.859 20.4968C49.8669 20.3258 49.9173 20.1677 50.0112 20.0204C50.3432 19.547 50.7958 19.1003 51.3928 18.9975C51.7377 18.9382 52.0332 18.9234 52.3781 19.0212C52.5886 19.0805 52.8061 19.1715 52.9869 19.298C53.3585 19.5569 53.6599 19.8573 53.8912 20.2517C54.1294 20.6579 54.2411 21.0779 54.2846 21.5404C54.3261 21.9654 54.2095 22.419 54.0009 22.7906ZM57.1081 12.6694C56.1594 14.9168 52.7369 15.3635 51.0785 13.6547C50.1357 12.6833 49.9459 11.1405 50.444 9.90713C50.955 8.64309 52.0055 7.49371 53.405 7.24664C53.7617 7.18437 54.0721 7.2061 54.3933 7.37609C54.4031 7.38201 54.4091 7.3929 54.419 7.39883C54.4269 7.4008 54.4348 7.4008 54.4427 7.40278C55.4676 7.65776 56.3056 8.55613 56.782 9.46141C57.3008 10.4507 57.5558 11.608 57.1081 12.6694Z" fill="#F7C300"/>
<path d="M53.7329 28.4555C58.5894 26.2912 60.7884 18.8453 56.9587 14.9277C58.5568 13.6488 59.0055 11.4637 58.2277 9.60076C57.351 7.50062 55.3211 6.28403 53.1824 5.7711C52.713 5.65843 52.3483 5.86401 52.1407 6.1773C51.7859 6.33345 51.4608 6.54198 51.1583 6.77719C51.0951 6.57657 50.9647 6.3888 50.7176 6.25834C47.6479 4.64544 44.2679 3.83897 40.798 3.92199C37.1285 4.00995 33.3057 4.33906 29.736 5.2137C29.4662 5.27992 29.2932 5.43014 29.1806 5.61001C26.4321 6.63092 23.9287 8.14696 21.5094 9.80829C18.7708 11.688 15.9225 13.5362 13.3796 15.6768C8.87396 19.4689 6.422 25.12 5.46632 30.8304C4.98897 33.6827 4.56202 36.8798 5.17575 39.737C5.75094 42.4123 7.63367 45.6065 10.1617 46.8033C12.4655 47.8944 15.6873 48.4874 17.7677 46.6165C18.6937 45.7834 19.1889 44.6123 19.5199 43.4362C19.9933 41.7531 20.3422 40.0009 20.6258 38.2743C21.7821 38.2071 22.9394 38.1409 24.0957 38.0737C24.1313 38.0717 24.1639 38.0549 24.1985 38.049C24.2489 38.2101 24.2934 38.3741 24.3448 38.5352C25.4398 41.9369 26.8511 45.8249 29.6984 48.1682C31.1334 49.3492 32.8175 49.9382 34.6419 50.2061C36.4673 50.4739 38.4617 50.7298 40.292 50.4116C42.8329 49.9698 44.4923 47.9162 44.1572 45.733C44.2808 45.7637 44.4013 45.7972 44.5308 45.819C48.2241 46.4278 52.0962 44.2881 53.974 41.1433C56.0099 37.7327 55.6502 33.313 53.5224 30.0437C53.5333 30.0002 53.5461 29.9578 53.556 29.9133C53.6578 29.433 53.7082 28.9447 53.7329 28.4555ZM53.2951 7.86433C54.3447 8.19343 55.3646 8.71722 56.006 9.62646C56.7274 10.6503 56.93 12.0142 56.0989 13.0381C55.3606 13.9483 53.8782 14.3011 52.8306 13.8297C51.7909 13.3612 51.2078 12.1081 51.186 10.9468C51.1603 9.53059 51.9579 8.24977 53.2951 7.86433ZM17.9752 41.4043C17.7311 42.4815 17.5424 43.7079 16.897 44.631C15.9492 45.985 14.2405 46.0048 12.7778 45.65C11.5266 45.3466 10.2359 44.8208 9.40371 43.7989C8.50634 42.6969 7.65144 41.1819 7.24129 39.8249C6.4892 37.3344 6.91912 34.2727 7.31148 31.7407C8.10409 26.6292 10.052 21.5404 13.8501 17.9055C14.3156 17.4607 14.8156 17.0466 15.3167 16.6355C15.1596 21.8755 18.078 26.4898 18.8835 31.6497C19.3934 34.923 18.6957 38.219 17.9752 41.4043ZM22.2417 26.0648C22.3237 29.4527 22.8001 32.8406 23.652 36.1248C22.724 36.1781 21.795 36.2315 20.867 36.2858C21.1348 33.064 20.7207 30.0171 19.6632 26.8535C18.4259 23.1533 16.7053 19.3266 17.3951 15.3349C17.4139 15.2311 17.3971 15.1392 17.3882 15.0463C18.8429 14.0046 20.3462 13.0213 21.7871 12.0162C23.2201 11.017 24.6749 10.0416 26.1939 9.18569C22.9553 14.0076 22.1053 20.3792 22.2417 26.0648ZM52.1704 40.3023C51.272 41.7344 49.8657 42.866 48.2854 43.4609C47.1231 43.8987 44.4034 44.5362 43.5791 43.1931C43.1818 42.5457 43.3291 41.5386 43.2985 40.8142C43.254 39.7735 43.1343 38.7319 42.9505 37.706C42.6916 36.2651 42.3744 34.4921 41.0352 33.6441C39.9135 32.9335 38.4499 33.1598 37.7215 34.3043C37.0316 35.3885 37.1591 36.7652 37.417 37.962C37.7629 39.564 38.4725 41.1028 39.445 42.4192C40.2594 43.5222 41.9148 44.5777 42.2647 45.9376C42.8152 48.0792 39.8502 48.5971 38.3994 48.5625C36.6709 48.521 34.8129 48.4014 33.1614 47.8657C29.7152 46.747 28.0924 43.0606 26.9183 39.9307C25.5476 36.2789 24.668 32.4334 24.3498 28.5445C23.7508 21.2212 24.6087 12.2949 30.5711 7.215C30.6235 7.1982 30.6739 7.17745 30.7253 7.16065C30.8794 7.11223 31.004 7.03711 31.1038 6.94718C34.1408 6.28897 37.3073 6.02805 40.3997 5.91144C43.6651 5.78889 46.8197 6.44216 49.7194 7.96513C49.8162 8.01652 49.9092 8.02938 50.0031 8.04816C49.6364 8.63323 49.3844 9.29438 49.2816 9.99212C48.991 11.9717 49.7174 14.0807 51.3778 15.2607C52.4343 16.0118 53.808 16.1571 55.0621 15.8458C55.0829 15.8636 55.0977 15.8864 55.1205 15.9032C58.4609 18.3561 56.8984 24.4015 53.6173 26.3386C53.5471 25.9314 53.4522 25.5282 53.3307 25.1319C54.3437 24.6022 55.1224 23.6297 55.3784 22.5089C55.6976 21.1085 55.2035 19.6192 54.1213 18.6724C52.9492 17.6485 51.3372 17.2976 49.8894 17.9361C48.3377 18.621 47.81 20.5037 48.2923 22.0345C48.7489 23.4893 49.843 24.6743 51.2671 25.1299C51.694 26.2655 51.8709 27.4405 51.7642 28.6542C51.6782 29.6286 51.3926 30.868 50.5694 31.4017C49.168 32.3099 46.4393 32.129 45.6615 30.4262C45.1723 29.3559 45.4935 27.9802 45.7415 26.8525C45.8562 26.3317 45.5854 25.7832 45.0517 25.6369C44.5575 25.5015 43.9507 25.8039 43.836 26.3268C43.6611 27.1243 43.4951 27.9663 43.4585 28.8034C43.3548 28.4931 43.1195 28.2193 42.7963 28.1729C41.5629 27.997 40.7268 26.8446 40.0578 25.885C39.2642 24.7474 38.6386 23.5032 38.2709 22.163C37.6167 19.7832 37.8855 17.2601 39.1377 15.1471C40.3049 15.5068 41.6519 15.4327 42.8023 15.0384C43.0672 14.9475 43.2777 14.7636 43.4042 14.5344C44.7918 14.0906 45.9817 12.9906 46.3523 11.5606C46.8652 9.58001 45.7909 7.42157 43.8865 6.67935C41.9435 5.92231 39.4954 6.45798 37.9418 7.80009C36.4228 9.11255 35.9692 11.3352 36.7865 13.1527C36.9575 13.5342 37.1937 13.8425 37.4526 14.1193C35.8565 16.7383 35.56 20.0046 36.4327 22.931C36.9012 24.5014 37.6681 25.9808 38.6465 27.2923C39.5547 28.5099 40.6745 29.852 42.2706 30.0803C42.7835 30.1535 43.2796 29.9558 43.4595 29.4419C43.4813 29.8747 43.5425 30.3027 43.673 30.7197C44.1424 32.216 45.3531 33.235 46.8385 33.657C48.2142 34.0473 49.7421 33.9713 51.0496 33.3862C51.6367 33.1243 52.1042 32.7398 52.4817 32.2803C53.6459 34.8311 53.7092 37.8494 52.1704 40.3023ZM41.2744 41.4398C40.7209 40.7648 40.2228 40.0473 39.8621 39.1737C39.5201 38.3474 39.2158 37.3897 39.1861 36.4904C39.1762 36.183 39.1387 35.6593 39.3541 35.4151C39.9777 34.7115 40.4926 35.9913 40.6468 36.4687C41.1775 38.1083 41.1449 39.7755 41.2744 41.4398ZM51.8996 23.2897C51.8422 23.2739 51.7879 23.2541 51.7316 23.2383C51.7138 23.2334 51.7059 23.2314 51.6941 23.2284C51.6901 23.2255 51.6891 23.2255 51.6831 23.2215C51.5794 23.1652 51.4746 23.1158 51.3738 23.0535C51.3244 23.0229 51.277 22.9843 51.2256 22.9566C51.2108 22.9487 51.2108 22.9497 51.2078 22.9497C51.1999 22.9418 51.1969 22.9389 51.1781 22.9221C51.0872 22.844 50.9993 22.7649 50.9153 22.6789C50.8737 22.6364 50.8322 22.593 50.7917 22.5485C50.7967 22.5544 50.7334 22.4803 50.6988 22.4398C50.6781 22.4111 50.6474 22.3716 50.6405 22.3617C50.6059 22.3133 50.5733 22.2628 50.5417 22.2134C50.4636 22.0909 50.3914 21.9634 50.3262 21.8339C50.3035 21.7865 50.2798 21.7381 50.259 21.6887C50.2521 21.6669 50.2333 21.6155 50.2304 21.6046C50.1879 21.4584 50.1414 21.318 50.1107 21.1678C50.1088 21.154 50.0989 21.0818 50.093 21.0443C50.092 21.0038 50.0891 20.9435 50.0881 20.9316C50.0871 20.8693 50.0871 20.8071 50.089 20.7448C50.09 20.7102 50.095 20.6717 50.0969 20.647C50.1187 20.5432 50.1464 20.4414 50.1731 20.3377C50.18 20.307 50.179 20.306 50.1819 20.2912C50.1859 20.2863 50.1839 20.2932 50.1918 20.2803C50.2215 20.2279 50.2462 20.1736 50.2768 20.1212C50.2827 20.1113 50.3065 20.0728 50.3253 20.0421C50.347 20.0145 50.3826 19.971 50.3924 19.9611C50.434 19.9176 50.4804 19.8801 50.5219 19.8366C50.5298 19.8277 50.5268 19.8287 50.5298 19.8257C50.5397 19.8218 50.5456 19.8198 50.5713 19.805C50.6227 19.7763 50.6761 19.7467 50.7255 19.716C50.7502 19.7012 50.7482 19.7002 50.7611 19.6913C50.767 19.6903 50.7611 19.6943 50.7759 19.6913C50.8925 19.6607 51.0032 19.6192 51.1218 19.5944C51.1366 19.5915 51.192 19.5846 51.2266 19.5796C51.2592 19.5786 51.2957 19.5767 51.3076 19.5767C51.4202 19.5727 51.5339 19.5796 51.6456 19.5885C51.6654 19.5974 51.866 19.631 51.9035 19.6409C51.9559 19.6557 52.0083 19.6715 52.0607 19.6883C52.0706 19.6913 52.0953 19.7002 52.12 19.7081C52.1486 19.7199 52.1921 19.7377 52.205 19.7437C52.2544 19.7674 52.3028 19.7931 52.3503 19.8198C52.459 19.8801 52.5608 19.9483 52.6635 20.0174C52.6774 20.0263 52.6744 20.0234 52.6843 20.0293C52.6882 20.0342 52.6823 20.0303 52.6912 20.0402C52.7288 20.0787 52.7733 20.1123 52.8138 20.1499C52.8938 20.225 52.9699 20.304 53.042 20.3871C53.0509 20.3969 53.0757 20.4286 53.0954 20.4523C53.1122 20.476 53.131 20.5027 53.1369 20.5126C53.213 20.6262 53.2812 20.7439 53.3425 20.8664C53.3484 20.8783 53.3653 20.9168 53.3771 20.9455C53.386 20.9711 53.3959 20.9978 53.3988 21.0077C53.4334 21.1115 53.4621 21.2162 53.4848 21.323C53.4868 21.3348 53.4927 21.3674 53.4977 21.3951C53.4996 21.4238 53.5026 21.4544 53.5036 21.4673C53.5105 21.6007 53.5007 21.7302 53.4957 21.8626C53.4789 21.9268 53.469 21.994 53.4532 22.0583C53.4394 22.1107 53.4245 22.164 53.4077 22.2164C53.4028 22.2322 53.3741 22.3083 53.3613 22.3469C53.3138 22.4516 53.2615 22.5554 53.2022 22.6532C53.1735 22.7007 53.1419 22.7452 53.1132 22.7916C53.1014 22.8104 53.1024 22.8114 53.0965 22.8203C53.0955 22.8222 53.0964 22.8202 53.0945 22.8222C53.0124 22.9141 52.9333 23.0071 52.8434 23.093C52.8039 23.1306 52.7624 23.1662 52.7219 23.2027C52.7021 23.2195 52.7071 23.2176 52.6982 23.2265C52.6863 23.2324 52.6883 23.2294 52.6616 23.2462C52.5677 23.3045 52.4728 23.3559 52.3769 23.4093C52.2791 23.3747 52.1793 23.3431 52.0686 23.3302C52.2742 23.3569 51.9638 23.3075 51.8996 23.2897ZM40.2515 13.4196C40.0716 13.3958 39.8908 13.3513 39.7178 13.297C39.5043 13.2298 39.5449 13.2476 39.3541 13.1418C39.2069 13.0598 39.1031 12.9886 39.027 12.9224C38.9796 12.8799 38.9321 12.8345 38.8877 12.788C38.8748 12.7742 38.7997 12.6843 38.777 12.6615C38.692 12.542 38.6208 12.4145 38.5506 12.286C38.5368 12.2603 38.5279 12.2445 38.519 12.2316C38.5151 12.2168 38.5101 12.198 38.5012 12.1693C38.4825 12.1081 38.4607 12.0478 38.4429 11.9865C38.4162 11.8936 38.3984 11.7987 38.3757 11.7048C38.3737 11.695 38.3698 11.6732 38.3668 11.6525C38.346 11.4676 38.3411 11.2799 38.35 11.0951C38.352 11.0516 38.356 11.0091 38.3599 10.9666C38.3639 10.9606 38.3876 10.7848 38.3895 10.7739C38.4241 10.6128 38.4736 10.4586 38.522 10.3005C38.525 10.2906 38.5398 10.254 38.5487 10.2293C38.5832 10.1522 38.6218 10.0751 38.6633 10.001C38.695 9.9437 38.7285 9.88738 38.7631 9.83303C38.8333 9.72234 38.8551 9.69466 38.8847 9.65809C39.7514 8.6016 41.1331 8.19934 42.5009 8.36439C42.8122 8.40195 43.1443 8.47806 43.42 8.63025C43.5001 8.67374 43.5771 8.72315 43.6522 8.77454C43.67 8.78739 43.6898 8.80221 43.6967 8.80814C43.7688 8.87337 43.84 8.9386 43.9062 9.00877C43.9211 9.02458 43.9952 9.11255 44.0189 9.13825C44.1078 9.25882 44.1879 9.38828 44.2561 9.52071C44.2769 9.56222 44.2976 9.60471 44.3173 9.64721C44.3213 9.66697 44.3796 9.82214 44.3806 9.82609C44.4261 9.97137 44.4626 10.1216 44.4864 10.2718C44.4893 10.2955 44.4923 10.3203 44.4923 10.3311C44.4942 10.4458 44.5012 10.5584 44.4972 10.6731C44.4962 10.6978 44.4903 10.7719 44.4903 10.8015C44.4775 10.8806 44.4617 10.9597 44.4419 11.0368C44.4202 11.1198 44.3934 11.2018 44.3638 11.2828C44.3519 11.3026 44.2877 11.4479 44.2828 11.4568C44.2423 11.5319 44.1998 11.604 44.1533 11.6752C44.1286 11.7147 44.1019 11.7543 44.0742 11.7928C44.0634 11.8057 44.0574 11.8126 44.0337 11.8412C43.9082 11.9806 43.7787 12.114 43.6344 12.2326C43.6097 12.2524 43.6117 12.2534 43.6097 12.2563C43.5929 12.2662 43.587 12.2692 43.5485 12.2929C43.4615 12.3472 43.3765 12.4046 43.2875 12.455C43.0543 12.5864 43.0741 12.5765 42.8675 12.6437C42.7855 12.6704 42.7035 12.6931 42.6204 12.7139C42.5957 12.7198 42.4347 12.7505 42.3961 12.7603C42.2044 12.7821 42.0087 12.7821 41.817 12.7702C41.4019 12.7445 41.0411 13.0509 40.8988 13.4285C40.8544 13.4304 40.8089 13.4334 40.7644 13.4344C40.6705 13.4363 40.5776 13.4354 40.4838 13.4324C40.4472 13.4294 40.1359 13.4038 40.2515 13.4196Z" fill="black"/>
<path d="M42.2983 22.667C42.3123 22.672 42.3263 22.676 42.3403 22.681C42.3353 22.678 42.3153 22.672 42.2983 22.667C42.2973 22.666 42.2983 22.667 42.2983 22.667Z" fill="black"/>
<path d="M45.4253 17.6801C44.5951 17.3698 43.595 17.3846 42.7312 17.5279C41.9534 17.6564 41.2339 18.03 40.6558 18.5636C39.4688 19.6597 39.1357 21.3457 39.8078 22.8054C40.1725 23.599 40.8495 24.2157 41.6579 24.531C42.0977 24.7029 42.581 24.7533 43.0504 24.7692C43.2718 24.7761 43.4922 24.7721 43.7136 24.7741C43.8243 24.7751 43.9349 24.7771 44.0456 24.782C44.0901 24.784 44.439 24.8235 44.3293 24.8057C44.7542 24.8769 45.2148 24.7217 45.4332 24.3472C46.633 23.8214 47.5274 22.672 47.6865 21.3595C47.8743 19.7931 46.89 18.2286 45.4253 17.6801ZM45.6388 21.5236C45.6358 21.5335 45.6289 21.5513 45.6219 21.5681C45.5893 21.6353 45.5557 21.7025 45.5182 21.7677C45.4885 21.8191 45.456 21.8675 45.4243 21.9169C45.4036 21.9486 45.4056 21.9495 45.3986 21.9624C45.3888 21.9723 45.3878 21.9703 45.363 21.997C45.2622 22.1067 45.1584 22.2095 45.0478 22.3083C45.0774 22.2826 45.195 22.2085 45.0369 22.3162C44.9756 22.3577 44.9144 22.3982 44.8511 22.4368C44.7869 22.4743 44.7206 22.507 44.6564 22.5435C44.6356 22.5554 44.6347 22.5564 44.6248 22.5623C44.6218 22.5623 44.6228 22.5603 44.607 22.5662C44.4508 22.6186 44.2977 22.6611 44.1356 22.6918C44.0348 22.7105 43.9478 22.7639 43.8628 22.8202C43.4843 22.8104 43.1047 22.8094 42.7242 22.7738C42.8438 22.7847 42.4871 22.7264 42.4505 22.7165C42.413 22.7066 42.3774 22.6937 42.3418 22.6819C42.3596 22.6888 42.3309 22.6809 42.3003 22.6681C42.2884 22.6641 42.2776 22.6601 42.2647 22.6572C42.2835 22.6631 42.2874 22.6641 42.2993 22.6681C42.2874 22.6631 42.2756 22.6582 42.2667 22.6532C42.2054 22.6167 42.1431 22.585 42.0829 22.5475C42.072 22.5406 42.0364 22.5139 42.0097 22.4951C41.987 22.4743 41.9583 22.4496 41.9494 22.4417C41.8872 22.3834 41.8309 22.3202 41.7726 22.2579C41.7676 22.253 41.7705 22.2559 41.7666 22.253C41.735 22.2075 41.7044 22.1611 41.6747 22.1136C41.6421 22.0603 41.4929 21.74 41.564 21.9278C41.5225 21.8211 41.4869 21.7114 41.4593 21.6007C41.4454 21.5453 41.4385 21.488 41.4237 21.4327C41.478 21.6363 41.4237 21.4099 41.4207 21.3546C41.4168 21.2607 41.4217 21.1678 41.4286 21.0739C41.4336 21.0423 41.4405 20.9968 41.4464 20.9731C41.4593 20.9168 41.4741 20.8595 41.4909 20.8041C41.5087 20.7488 41.5294 20.6944 41.5472 20.6391C41.5502 20.6302 41.5472 20.6361 41.5482 20.6302C41.5571 20.6173 41.5571 20.6193 41.5709 20.5956C41.6391 20.4829 41.6994 20.3683 41.7745 20.2586C41.7854 20.2428 41.7794 20.2477 41.7824 20.2418C41.7933 20.2309 41.7913 20.2339 41.8081 20.2161C41.8486 20.1736 41.8862 20.1281 41.9267 20.0866C41.9959 20.0145 42.071 19.9482 42.1481 19.883C42.1649 19.8751 42.3062 19.7713 42.3468 19.7466C42.409 19.7081 42.4733 19.6725 42.5395 19.6389C42.5672 19.6251 42.5978 19.6103 42.6205 19.6004C43.1927 19.3849 43.6968 19.3839 44.3421 19.4412C44.352 19.4422 44.4044 19.4511 44.4311 19.4561C44.4924 19.4679 44.5526 19.4798 44.6119 19.4956C44.6683 19.5104 44.9993 19.6518 44.8214 19.5579C44.8847 19.5915 44.9479 19.6241 45.0092 19.6616C45.0181 19.6676 45.0478 19.6854 45.0734 19.7022C45.0991 19.7229 45.1407 19.7535 45.1525 19.7634C45.2158 19.8207 45.2771 19.8811 45.3354 19.9453C45.3433 19.9542 45.367 19.9828 45.3877 20.0075C45.4144 20.049 45.4688 20.1261 45.4668 20.1232C45.5172 20.2032 45.5597 20.2882 45.6012 20.3732C45.6012 20.3851 45.6655 20.5482 45.6793 20.5976C45.6951 20.6529 45.705 20.7102 45.7198 20.7656C45.7277 20.7942 45.7297 20.7932 45.7337 20.8051C45.7327 20.815 45.7307 20.815 45.7317 20.8446C45.7356 20.9721 45.7346 21.0986 45.7238 21.2261C45.7208 21.2439 45.7168 21.2627 45.7139 21.2736C45.6872 21.3546 45.6645 21.4386 45.6388 21.5236Z" fill="black"/>
<path d="M50.3549 28.3172C50.2185 28.1057 50.016 27.9209 49.764 27.8626L49.5011 27.827C49.3825 27.827 49.2718 27.8547 49.1641 27.8942C48.9812 27.9693 48.7895 28.0118 48.5958 28.0484C48.4347 28.0612 48.2746 28.0632 48.1145 28.0493C48.0295 28.0335 47.9455 28.0157 47.8634 27.99C47.8585 27.9861 47.8526 27.9851 47.8476 27.9811C47.8506 27.9841 47.8545 27.9861 47.8575 27.9891C47.8427 27.9841 47.8269 27.9831 47.8131 27.9782C47.6658 27.8902 47.5096 27.824 47.3228 27.824C47.0797 27.824 46.7902 27.9317 46.6241 28.1136C46.4512 28.3023 46.3227 28.5494 46.3345 28.8123C46.3454 29.0614 46.4255 29.345 46.6241 29.511C46.8297 29.684 46.9868 29.7749 47.2358 29.8718C47.3258 29.9064 47.4197 29.9311 47.5136 29.9518C47.7913 30.0121 48.0819 30.0497 48.3665 30.0487C48.6452 30.0477 48.9288 30.0101 49.2006 29.9528C49.4803 29.8935 49.7402 29.7848 50.0011 29.6692C50.2126 29.5753 50.3964 29.2916 50.4557 29.0782C50.519 28.842 50.4903 28.5277 50.3549 28.3172Z" fill="black"/>
<path d="M47.6906 49.5459C50.9322 49.8087 54.1807 49.873 57.4263 49.7366C58.4452 49.6941 58.4502 47.7175 57.4263 47.76C54.1797 47.8964 50.9312 47.8321 47.6906 47.5693C46.6706 47.4862 46.6746 49.4638 47.6906 49.5459Z" fill="black"/>
<path d="M62.4498 53.5721C62.6188 53.5583 62.7868 53.5395 62.9538 53.5128C63.3867 53.4436 63.8373 53.2035 63.9648 52.7835C64.0379 52.5433 63.9915 52.2765 63.8769 52.0531C63.7642 51.8327 63.5774 51.64 63.3403 51.5709C63.2068 51.5323 63.0645 51.5343 62.9251 51.5362C57.6723 51.6192 52.4175 51.6371 47.1628 51.6282C41.7953 51.6203 36.4279 51.5719 31.0614 51.4829C27.8148 51.4295 24.5673 51.3603 21.3217 51.2763C14.5301 51.1004 7.74049 50.8593 0.952845 50.5578C-0.319097 50.5015 -0.316132 52.4781 0.952845 52.5344C3.59753 52.5344 6.26196 52.7607 8.90665 52.8586C11.5849 52.9584 14.2632 53.0474 16.9425 53.1274C22.3001 53.2866 27.6597 53.4061 33.0192 53.4862C38.3788 53.5662 43.7393 53.6067 49.0988 53.6077C51.4302 53.6077 53.7626 53.6008 56.094 53.586C57.2731 53.5791 58.4521 53.5692 59.6321 53.5583C60.5542 53.5494 61.5188 53.6472 62.4498 53.5721Z" fill="black"/>
</svg>
