<svg width="64" height="41" viewBox="0 0 64 41" fill="none" xmlns="http://www.w3.org/2000/svg">
<path d="M61.1792 18.4354C61.1671 17.2036 61.155 15.9708 61.1429 14.739C61.1345 13.9026 61.3215 12.7797 60.7159 12.093C60.14 11.4408 59.1296 11.5906 58.3648 11.6064C57.4847 11.6241 56.6045 11.6427 55.7244 11.6604C55.7263 10.1951 55.7653 8.70834 55.6314 7.26254C55.5076 5.92931 54.5586 5.46223 53.3147 5.44642C49.4657 5.39804 45.5991 5.63344 41.7464 5.64088C41.1305 5.64181 40.5155 5.62412 39.8996 5.61947C41.1166 6.18514 42.327 6.76384 43.5541 7.30904C44.9413 7.92588 46.5583 8.40874 47.5734 9.60614C48.0869 10.2118 48.0246 11.4818 47.0412 11.6232C46.0624 11.7637 45.1814 11.6176 44.2222 11.4167C43.315 11.2259 42.3875 11.1785 41.4636 11.1441C40.8374 11.1208 40.2113 11.1375 39.5861 11.1627C39.5228 11.1952 39.467 11.238 39.3953 11.2594C37.7383 11.7721 35.4869 12.0344 33.6708 11.5441C31.1941 12.2382 28.4607 11.7237 25.9319 11.7023C22.9928 11.6772 20.0677 11.8688 17.1529 11.3813C16.0132 11.1906 16.1397 9.71778 16.8644 9.1763C18.3819 8.04217 20.1077 7.29322 21.7554 6.37773C22.4179 6.01023 23.0077 5.559 23.6264 5.17941C21.9006 5.12638 20.1747 5.07055 18.447 5.04171C16.9975 5.01752 14.7655 4.63236 14.1952 6.35541C13.69 7.87937 13.5914 9.67128 13.5877 11.3246C12.6591 11.3636 11.7316 11.4027 10.804 11.4418C9.82149 11.4827 8.5106 11.3292 7.59604 11.7693C6.84987 12.1284 6.53818 12.8485 6.48329 13.6431C6.44236 14.2329 6.44238 14.8311 6.45447 15.4303C7.05178 15.3596 7.66766 15.3698 8.26031 15.4033C9.16557 15.4554 10.0978 15.5661 10.9193 15.9755C11.4013 16.2155 11.7725 16.6277 11.9474 17.1357C12.126 17.6558 11.9986 18.2559 11.7185 18.7155C11.3548 19.3128 10.7091 19.4691 10.0671 19.5491C9.62612 19.604 9.17954 19.5974 8.73575 19.5826C8.01843 19.5584 7.30112 19.4867 6.58287 19.457C6.74382 24.1442 7.0927 28.8221 7.63976 33.4796C7.73187 34.2658 8.58782 34.5198 9.1079 34.2537C20.7562 34.3244 32.4036 34.3076 44.0519 34.2509C43.9235 34.2332 43.796 34.2202 43.6676 34.1969C42.6749 34.0127 42.4647 32.419 43.3792 31.9919C43.5411 31.9166 43.9486 31.6988 44.2463 31.6365C44.2519 31.5518 44.2594 31.4728 44.2584 31.4533C44.2482 30.7722 44.2519 30.0949 44.2463 29.4139C44.2352 27.7522 44.1319 26.0663 44.0342 24.4075C43.9524 23.0194 43.7867 21.4657 44.1291 20.1231C43.569 20.1296 43.0517 19.884 42.8852 19.2774C42.728 18.7052 43.0824 17.8865 43.7281 17.7935C44.6613 17.6586 45.5963 17.5748 46.5369 17.5078C47.7678 17.4194 48.1288 19.1788 47.1454 19.7565C46.2457 20.285 46.2783 21.4629 46.309 22.3876C46.3499 23.6427 46.4402 24.9025 46.4988 26.1575C46.576 27.8276 46.6039 29.4929 46.6616 31.1611C46.6718 31.4458 46.6737 31.7342 46.6486 32.018C47.8506 32.1334 48.0758 33.6834 47.3138 34.2323C51.6726 34.2062 56.0314 34.1978 60.3902 34.1532C60.8889 34.1485 61.3252 33.7308 61.3206 33.2228C61.2759 28.2918 61.2276 23.3636 61.1792 18.4354ZM20.4687 20.0375C20.238 20.3483 20.024 20.6776 19.9691 21.0507C19.8528 21.8443 19.9924 22.7459 20.0603 23.5395C20.2101 25.2932 20.4324 27.033 20.5087 28.7923C20.5469 29.666 20.5618 30.5378 20.5627 31.4123C20.5627 31.9324 20.7078 32.5316 20.558 33.0423C20.4129 33.5336 20.1003 33.821 19.7151 33.9959C19.7002 34.0034 19.6863 34.0117 19.6705 34.0183C18.902 34.342 17.8432 34.2025 17.0942 34.0741C15.7173 33.8387 16.1006 31.7044 17.4152 31.7044H18.1558C18.1493 31.429 18.1502 31.1527 18.1493 30.8773C18.1418 29.3729 18.0814 27.8685 17.9353 26.3715C17.7818 24.802 17.5622 23.2315 17.5464 21.6517C17.5408 21.0684 17.6367 20.5715 17.7948 20.1008H17.4161C15.8606 20.1008 15.8652 17.7079 17.4161 17.6874C18.0795 17.6781 18.7317 17.6344 19.3839 17.6874H20.0854C21.4968 17.6874 21.6196 19.6719 20.4687 20.0375ZM29.3678 20.1613C29.017 20.1268 28.6653 20.1101 28.3137 20.0998C28.3183 20.1771 28.3285 20.2515 28.3295 20.3315C28.3323 22.2044 28.2606 24.0726 28.2839 25.9473C28.3053 27.7308 28.3276 29.505 28.3834 31.2867C28.3853 31.3574 28.376 31.4207 28.3732 31.4877C29.6422 31.7491 29.5464 33.862 28.0941 33.8741C27.2456 33.8806 26.4306 33.8889 25.5886 33.7708C24.407 33.6052 24.4675 31.6626 25.5886 31.4439C25.6537 31.4309 25.8426 31.3918 25.9719 31.3602C25.97 31.2885 25.9682 31.2169 25.9626 31.1453C25.9458 30.8969 25.9161 30.6503 25.9003 30.4019C25.8128 29.011 25.8816 27.6135 25.8733 26.2217C25.8649 24.8243 25.8203 23.4325 25.8603 22.035C25.8789 21.3949 25.9496 20.7409 25.9114 20.1008C25.9114 20.0989 25.9114 20.098 25.9114 20.0961C24.4182 20.0384 24.4396 17.7069 25.97 17.6883C27.1042 17.6846 28.2374 17.6381 29.3678 17.7488C30.019 17.813 30.5745 18.2493 30.5745 18.9555C30.5745 19.5612 30.0172 20.2255 29.3678 20.1613ZM38.772 19.964C38.7692 20.0598 38.7571 20.1557 38.7227 20.2469C38.5738 20.6404 38.4185 20.9912 38.1152 21.2898C38.0547 21.3494 37.8147 21.5652 37.6295 21.6647C37.6323 21.8183 37.6146 21.9746 37.6146 22.129C37.6146 22.4528 37.6379 22.7784 37.6788 23.0994C37.8686 24.5973 38.3124 26.0515 38.3403 27.5717C38.3663 28.984 38.4994 30.4438 38.412 31.857C39.1684 32.5892 38.518 34.2165 37.2378 33.8927C37.1997 33.8834 37.1643 33.8834 37.128 33.8778C36.7764 34.0164 36.3716 34.0825 35.9204 34.0574C34.5388 33.9802 34.3081 32.1296 35.5994 31.6877C35.7306 31.643 35.8636 31.6114 35.9958 31.5789C35.9958 31.1434 35.9893 30.7071 35.9818 30.2735C35.9595 28.9254 36.0218 27.5298 35.7957 26.1975C35.5669 24.8522 35.2031 23.5022 35.2003 22.1299C35.1993 21.4936 35.2608 20.7958 35.6087 20.2469C35.6162 20.2338 35.6283 20.2254 35.6376 20.2124C35.3501 20.1445 35.0542 20.1082 34.7668 20.1017C33.4503 20.0747 33.0688 17.9665 34.4458 17.732C34.5537 17.7134 34.6607 17.7172 34.7686 17.706C34.7677 17.7004 34.7677 17.6948 34.7668 17.6893C34.8086 17.6902 34.8523 17.6948 34.8951 17.6958C36.0311 17.6027 37.1476 17.8279 38.2864 17.6893C38.9376 17.6102 39.493 18.3052 39.493 18.896C39.494 19.4151 39.1888 19.7761 38.772 19.964ZM46.7816 14.5185C41.3957 14.5167 36.0106 14.4506 30.6256 14.4422C28.082 14.4376 25.5346 14.4199 22.9919 14.5055C20.7999 14.579 18.5782 14.6758 16.4253 14.1724C14.9116 13.818 15.5563 11.492 17.0663 11.8456C19.2453 12.3554 21.5479 12.1312 23.7641 12.0679C26.2036 11.9981 28.6477 12.0251 31.088 12.0307C36.3195 12.0428 41.5501 12.1042 46.7816 12.1061C48.3372 12.1061 48.3344 14.5195 46.7816 14.5185ZM58.9109 18.8336C58.9081 19.4858 58.3583 20.0412 57.7042 20.0403C56.7822 20.0384 55.8667 19.9528 54.9559 19.8151C54.7382 19.7817 54.5437 19.6356 54.3921 19.4644C54.2107 19.4942 54.0246 19.4951 53.8636 19.4504C53.5343 19.3602 53.3398 19.1565 53.1426 18.896C52.8002 18.4438 52.8449 17.7739 52.9863 17.2604C53.0719 16.9487 53.2179 16.6491 53.2635 16.3281C53.3073 16.0257 53.5734 15.7652 53.8181 15.6071C54.0637 15.4489 54.3484 15.4368 54.6256 15.4703C54.5782 15.4638 54.5307 15.4573 54.4833 15.4508C54.9131 15.5085 55.356 15.474 55.7886 15.4666C56.3245 15.4573 56.8715 15.4573 57.3972 15.5745C58.1545 15.7438 58.6811 16.3793 58.8281 17.1264C58.9407 17.7004 58.9119 18.2568 58.9109 18.8336Z" fill="#F7C300"/>
<path d="M63.1024 38.6683C52.6673 39.0042 42.2238 38.8906 31.7989 38.3287C30.6025 38.2645 30.6062 40.1252 31.7989 40.1894C42.2238 40.7514 52.6673 40.8649 63.1024 40.5291C64.297 40.4909 64.3016 38.6302 63.1024 38.6683Z" fill="black"/>
<path d="M0.897349 38.6683C11.3324 39.0042 21.7759 38.8906 32.2008 38.3287C33.3972 38.2645 33.3935 40.1252 32.2008 40.1894C21.7759 40.7514 11.3324 40.8649 0.897349 40.5291C-0.296324 40.4909 -0.301906 38.6302 0.897349 38.6683Z" fill="black"/>
<path d="M60.1326 18.7136C59.9122 18.7257 59.6917 18.7303 59.4721 18.7415C59.4637 18.3163 59.4572 17.8912 59.4479 17.4651C59.4284 16.6556 59.6554 15.3298 59.0888 14.6525C58.5194 13.9705 57.3955 14.1976 56.6168 14.1985C55.544 14.2003 54.4713 14.2022 53.3986 14.2041C53.393 12.3061 53.393 10.4081 53.4181 8.51018C53.4265 7.88869 52.9306 7.59655 52.4487 7.61981C52.4003 7.61144 52.3556 7.59002 52.3054 7.59002C50.1748 7.5984 48.0452 7.57236 45.9156 7.51933C41.6107 5.29945 37.2017 3.27586 33.0345 0.799199C32.9862 0.448447 32.7824 0.153521 32.4 0.0297814C32.2735 -0.0111551 32.1367 -0.00555355 32.0018 0.020497C31.866 -0.00555355 31.7301 -0.0111551 31.6036 0.0297814C31.2212 0.153521 31.0184 0.447516 30.9691 0.799199C26.8019 3.27586 22.3938 5.29945 18.088 7.51933C15.9584 7.57236 13.8288 7.5984 11.6982 7.59002C11.648 7.59002 11.6033 7.61144 11.5549 7.61981C11.0721 7.59655 10.5771 7.88869 10.5855 8.51018C10.6097 10.4081 10.6097 12.3061 10.605 14.2041C9.5323 14.2022 8.45957 14.2003 7.38684 14.1985C6.60905 14.1976 5.48424 13.9705 4.91485 14.6525C4.34918 15.3298 4.57525 16.6556 4.55571 17.4651C4.54547 17.8902 4.53989 18.3154 4.53152 18.7415C4.31102 18.7303 4.09053 18.7257 3.87096 18.7136C3.36669 18.6866 2.94058 19.1611 2.94058 19.644C2.94058 20.1659 3.36856 20.5474 3.87096 20.5744C4.07936 20.5855 4.28776 20.5902 4.49617 20.6004C4.49431 20.74 4.49058 20.8786 4.48779 21.0172C4.41615 25.8626 4.43755 30.708 4.53617 35.5525C3.79466 35.9321 3.93514 37.3025 4.96414 37.3109C6.78954 37.3258 8.61495 37.3109 10.4403 37.3165C10.7688 37.5705 11.2777 37.5695 11.6229 37.3174C18.2574 37.3286 24.8919 37.2811 31.5245 37.1676C31.5217 37.1629 31.5217 37.1583 31.519 37.1546C38.4726 37.2821 45.4262 37.3295 52.3808 37.3174C52.7269 37.5695 53.2349 37.5705 53.5633 37.3165C55.3887 37.3109 57.2141 37.3258 59.0395 37.3109C60.0685 37.3025 60.2089 35.9321 59.4674 35.5525C59.5661 30.708 59.5865 25.8626 59.5158 21.0172C59.514 20.8786 59.5102 20.739 59.5074 20.6004C59.7158 20.5902 59.9242 20.5855 60.1326 20.5744C60.6351 20.5474 61.063 20.1659 61.063 19.644C61.063 19.1611 60.6369 18.6866 60.1326 18.7136ZM10.1594 35.4548C8.90337 35.451 7.64828 35.4529 6.39321 35.4511C6.30854 31.2672 6.28062 27.0823 6.32342 22.8984C6.33086 22.1579 6.35226 21.4182 6.36342 20.6786C7.74782 20.7279 9.13315 20.7642 10.5175 20.7735C10.4357 25.6682 10.3129 30.5619 10.1594 35.4548ZM10.5492 18.9127C9.16481 18.9043 7.78133 18.868 6.39786 18.8187C6.41368 18.0195 6.42018 17.2194 6.44065 16.4202C6.44344 16.3021 6.44717 16.1848 6.44996 16.0667C6.8798 16.1774 7.54686 16.0592 7.97949 16.0602C8.85218 16.062 9.72396 16.063 10.5967 16.0648C10.5892 17.0138 10.5613 17.9637 10.5492 18.9127ZM47.648 10.5663C46.9074 10.6072 46.1659 10.651 45.4243 10.6835C45.3564 10.597 45.2764 10.5142 45.1629 10.4463C43.0026 9.1633 40.8432 7.87938 38.6838 6.59639C36.7998 5.47715 34.9316 4.27789 32.9443 3.34379C32.9452 3.19865 32.9378 3.0535 32.9359 2.90836C37.7283 5.66786 42.8053 7.89798 47.648 10.5663ZM28.0421 9.34098C28.0691 9.64056 28.1221 9.93736 28.1994 10.2276C28.217 10.2928 28.337 10.5598 28.2998 10.6119C28.2561 10.6733 27.9165 10.6686 27.8393 10.677C27.2253 10.7468 26.6075 10.7803 25.9897 10.7942C24.7495 10.8231 23.5093 10.7775 22.2691 10.8026C22.1631 10.8045 22.0486 10.8184 21.9444 10.8036C21.9519 10.6956 22.3036 10.5495 22.405 10.4891C22.5883 10.3802 22.7715 10.2714 22.9548 10.1625C23.3214 9.94479 23.688 9.72711 24.0545 9.50847C24.7886 9.07306 25.5217 8.63671 26.2549 8.20129C26.962 7.78076 27.6691 7.34998 28.378 6.92294C27.9482 7.60211 27.9695 8.53062 28.0421 9.34098ZM25.9832 12.6931C27.2076 12.695 28.4394 12.6001 29.6675 12.5899C30.9263 12.5796 32.1851 12.5889 33.443 12.6196C34.6404 12.6485 35.8331 12.7006 37.0305 12.7043C38.2893 12.708 39.5472 12.6987 40.805 12.6764C41.3521 12.6671 47.3726 12.4801 47.3707 12.4401C47.3967 12.8615 47.406 13.283 47.3893 13.7044C47.3865 13.7705 40.4766 13.7259 39.8458 13.7249C37.3543 13.7193 34.8618 13.67 32.3674 13.6635C29.8685 13.657 27.3713 13.7026 24.8723 13.7138C22.3473 13.7259 19.8213 13.7249 17.2953 13.7091C17.0683 13.7082 16.8404 13.7063 16.6134 13.7044C16.5957 13.283 16.6059 12.8606 16.632 12.4401C19.746 12.6103 22.8646 12.6875 25.9832 12.6931ZM35.6219 6.92387C36.3308 7.35091 37.037 7.78167 37.745 8.2022C39.1973 9.06559 40.6496 9.92807 42.1029 10.7915C39.9416 10.8445 37.7794 10.8529 35.6182 10.8315C35.808 10.3598 35.914 9.84527 35.9596 9.34007C36.0313 8.53065 36.0527 7.60212 35.6219 6.92387ZM32.9387 5.40551C33.3006 5.59438 33.6597 5.78788 34.0151 5.98884C33.8179 5.95069 33.6179 5.91999 33.4151 5.89208C33.2234 5.86603 33.0336 5.84651 32.8447 5.83069C32.8885 5.69486 32.9219 5.55623 32.9387 5.40551ZM31.2249 7.87938C31.2491 7.86542 31.3505 7.81518 31.3813 7.79843C31.3999 7.79099 31.4175 7.78448 31.4213 7.78355C31.4882 7.76215 31.5543 7.74074 31.6222 7.72214C31.7022 7.70074 31.7832 7.68398 31.865 7.6691C31.9255 7.66259 31.9878 7.65888 32.0492 7.65516C32.2697 7.64399 32.4903 7.65236 32.7098 7.67004C32.8206 7.67934 32.9313 7.69142 33.041 7.70445C33.0662 7.70817 33.1992 7.72678 33.2234 7.72958C33.4095 7.75749 33.5965 7.78447 33.7798 7.83006C33.8505 7.84773 33.9184 7.871 33.9872 7.89147C34.0133 7.90636 34.0412 7.92403 34.0682 7.93892C34.071 7.94171 34.0738 7.94449 34.0775 7.94635C34.0821 7.95287 34.0877 7.95938 34.0905 7.96311C34.0998 7.97706 34.0998 7.97613 34.1054 7.98358C34.1054 7.9873 34.1026 7.98359 34.1035 7.99289C34.1054 8.01801 34.1305 8.14266 34.1398 8.16592C34.1398 8.1715 34.1407 8.17896 34.1407 8.18082C34.1417 8.22176 34.1435 8.26268 34.1445 8.30362C34.1482 8.50551 34.1361 8.70834 34.1258 8.91023C34.1193 9.0377 34.1119 9.16514 34.1017 9.2926C34.0989 9.32423 34.0821 9.45916 34.0793 9.49638C34.0421 9.71595 33.9826 9.9234 33.9184 10.1355C33.8914 10.1886 33.8663 10.2416 33.8365 10.2928C33.8161 10.3281 33.7425 10.4295 33.7379 10.4435C33.6839 10.503 33.629 10.5598 33.5695 10.6147C33.5127 10.6435 33.4578 10.6817 33.4011 10.7114C33.3611 10.7319 33.336 10.771 33.3015 10.7989C32.5889 10.7831 31.8771 10.7608 31.1654 10.7356C31.131 10.571 31.0686 10.4128 30.9337 10.29C30.877 10.2379 30.8249 10.183 30.7728 10.1253C30.903 10.2677 30.7579 10.0844 30.73 10.0313C30.7216 10.0155 30.7142 9.99876 30.7067 9.98294C30.7058 9.97829 30.7067 9.98015 30.7058 9.97457C30.6881 9.87688 30.6565 9.77082 30.6286 9.675C30.6277 9.6722 30.6276 9.67313 30.6267 9.67034C30.6248 9.64987 30.623 9.63033 30.6211 9.60986C30.6146 9.51775 30.6118 9.42474 30.6127 9.3317C30.6137 9.25169 30.6174 9.17259 30.623 9.09351C30.6258 9.05723 30.6304 9.02094 30.6332 8.98559C30.6332 8.98373 30.6332 8.98558 30.6332 8.98372C30.6769 8.78834 30.7114 8.59577 30.7746 8.40504C30.7746 8.40318 30.7858 8.3762 30.7951 8.35294C30.8119 8.32224 30.8407 8.26363 30.8472 8.2534C30.8686 8.21525 30.8919 8.17894 30.9151 8.14173C30.9207 8.13335 30.9216 8.13056 30.93 8.12125C30.9868 8.06078 31.0463 8.00496 31.1077 7.94914C30.984 8.05985 31.1784 7.90543 31.2249 7.87938ZM31.064 2.90745C31.0621 3.05259 31.0547 3.19772 31.0556 3.34286C29.0683 4.27695 27.2001 5.47621 25.3161 6.59545C23.1567 7.87844 20.9964 9.16236 18.837 10.4453C18.7235 10.5123 18.6435 10.5951 18.5755 10.6826C17.834 10.65 17.0935 10.6072 16.352 10.5654C21.1955 7.89798 26.2726 5.66788 31.064 2.90745ZM15.6514 15.9299C15.6542 15.8071 15.6709 15.6862 15.6784 15.5634C20.6298 15.6062 25.5813 15.5885 30.5327 15.5299C30.5318 15.5205 30.5318 15.5103 30.5318 15.501C36.462 15.5959 42.3922 15.6145 48.3225 15.5634C48.3299 15.6852 48.3467 15.8071 48.3495 15.9299C48.3513 16.0239 48.3495 16.1179 48.3495 16.2118C47.6991 16.2211 46.6943 16.2556 46.5343 16.2574C44.9498 16.2816 43.3663 16.3067 41.7828 16.3309C38.8978 16.3756 36.0126 16.4202 33.1276 16.4649C32.1553 16.4453 31.1831 16.4351 30.2108 16.4314C30.1746 16.4314 30.142 16.4491 30.1066 16.4528C27.4765 16.4119 24.8472 16.3709 22.218 16.33C20.6345 16.3058 19.051 16.2807 17.4666 16.2565C17.3065 16.2537 16.3026 16.2202 15.6514 16.2109C15.6504 16.1178 15.6495 16.0239 15.6514 15.9299ZM44.5693 19.3193C44.2818 19.2997 43.9943 19.2793 43.7069 19.2523C43.6482 19.2467 43.5915 19.2402 43.5329 19.2337C43.5273 19.1146 43.5189 18.9955 43.518 18.8764C43.5171 18.6383 43.5431 18.4019 43.5636 18.1656C44.6149 18.1507 45.6765 18.1638 46.7362 18.1545C46.7166 18.5917 46.6971 19.029 46.6776 19.4663C46.4989 19.4495 46.3324 19.4319 46.2961 19.43C45.7211 19.3928 45.1452 19.3574 44.5693 19.3193ZM45.9388 21.2675L45.7323 30.6206C45.4997 30.6038 45.2671 30.5871 45.0345 30.5722C44.9573 30.5666 44.8801 30.5629 44.8029 30.5573C44.5563 27.4396 44.5396 24.3098 44.7442 21.1884C44.9415 21.2014 45.1387 21.2163 45.336 21.2293C45.5378 21.2424 45.7379 21.2544 45.9388 21.2675ZM43.6697 32.6683C43.6873 32.5613 43.7041 32.4552 43.7208 32.3483C43.9618 32.3631 44.2037 32.378 44.4446 32.3939C44.9043 32.4236 45.3639 32.4543 45.8235 32.4869C46.0533 32.5027 46.2831 32.5195 46.512 32.5362C46.5929 32.5418 46.6738 32.5483 46.7557 32.5548C46.7613 32.7223 46.7687 32.8888 46.7557 33.0563C45.7072 33.0544 44.6577 33.0535 43.6092 33.0544C43.6287 32.9261 43.6492 32.7967 43.6697 32.6683ZM39.5248 30.7099C39.5248 27.4982 39.4588 24.2866 39.3285 21.0777C39.5137 21.0665 39.696 21.0358 39.8579 20.9456C40.5138 20.5799 40.3873 19.8245 40.3798 19.1946C40.3761 18.868 40.3724 18.5406 40.3677 18.214C40.8097 18.2075 41.2516 18.2 41.6935 18.1935C41.6638 18.5508 41.6498 18.909 41.6703 19.2681C41.7038 19.8524 41.7205 20.5343 42.2983 20.859C42.4797 20.9614 42.6853 21.0005 42.8928 21.0256C42.6788 24.1805 42.6928 27.3438 42.9393 30.4959C42.8035 30.5192 42.6686 30.5536 42.5383 30.6224C42.0564 30.8764 41.9978 31.4077 41.9224 31.8822L41.7354 33.0526C41.541 33.0516 41.3474 33.0535 41.153 33.0526C40.8543 33.0507 40.5557 33.0432 40.258 33.0414C40.2514 32.2106 40.3315 31.176 39.5248 30.7099ZM35.9373 21.1261C36.2025 21.1224 36.4676 21.1186 36.7328 21.1158C36.9774 21.1121 37.2221 21.1093 37.4678 21.1056C37.5943 24.2233 37.6585 27.3428 37.6613 30.4633C37.3701 30.4633 37.0789 30.4633 36.7867 30.4643C36.7197 30.4643 36.6518 30.4643 36.5848 30.4643C36.5848 30.4494 36.5932 30.4373 36.5923 30.4224C36.3746 27.3242 36.1559 24.2252 35.9373 21.1261ZM36.7867 32.325C37.3161 32.325 37.8492 32.338 38.3795 32.3306L38.3935 33.0182C37.3533 33.0061 36.3132 32.9967 35.273 32.9781C35.273 32.7604 35.273 32.5427 35.273 32.325C35.2776 32.325 35.2888 32.3259 35.2916 32.3259C35.4582 32.3259 35.6237 32.3259 35.7903 32.3259C36.1224 32.325 36.4546 32.325 36.7867 32.325ZM38.132 19.2355C37.6845 19.2411 37.2361 19.2476 36.7877 19.2532C36.3578 19.2588 35.9271 19.2644 35.4972 19.2709C35.3037 19.2737 35.1111 19.2755 34.9185 19.2783C34.912 19.1471 34.9055 19.016 34.9046 18.8839C34.9036 18.6876 34.9223 18.4931 34.9316 18.2977C36.1234 18.2791 37.3152 18.2605 38.507 18.2419L38.5144 18.882C38.5154 19.0002 38.5172 19.1183 38.5182 19.2365C38.3898 19.2365 38.2595 19.2346 38.132 19.2355ZM33.4085 32.9381C32.4716 32.9177 31.5338 32.8925 30.5969 32.8674C30.596 32.8646 30.5969 32.8609 30.596 32.8581C30.6221 32.0403 30.6946 31.0699 29.874 30.6475C29.6787 30.547 29.4684 30.5033 29.2553 30.4828C29.2581 30.4624 29.2684 30.4438 29.2702 30.4233C29.4889 27.3205 29.7075 24.2186 29.9261 21.1158C30.0648 21.0898 30.1997 21.0507 30.3253 20.9847C30.7951 20.7362 30.8956 20.2087 30.9291 19.7054C30.8463 19.2393 30.7244 18.7824 30.6193 18.2968C31.1124 18.2987 31.6064 18.3015 32.0995 18.307C32.1609 18.3173 32.2121 18.3424 32.2809 18.3415C32.5405 18.3377 32.801 18.3331 33.0606 18.3294C33.0457 18.6355 33.0392 18.9416 33.0522 19.2486C33.0773 19.8505 33.0587 20.6599 33.6765 20.9865C33.8021 21.0526 33.937 21.0917 34.0756 21.1177C34.2943 24.2205 34.5129 27.3223 34.7315 30.4252C34.7334 30.4456 34.7436 30.4643 34.7464 30.4847C34.5334 30.5052 34.3231 30.5489 34.1277 30.6494C33.2801 31.0839 33.3853 32.1045 33.4085 32.9381ZM27.4151 30.4643C27.3481 30.4643 27.2801 30.4643 27.2132 30.4643C26.9219 30.4643 26.6307 30.4642 26.3386 30.4633C26.3414 27.3428 26.4056 24.2233 26.5321 21.1056C26.7768 21.1093 27.0215 21.1121 27.2671 21.1158C27.5323 21.1196 27.7974 21.1233 28.0626 21.1261C27.8449 24.2252 27.6253 27.3233 27.4076 30.4224C27.4067 30.4373 27.4151 30.4494 27.4151 30.4643ZM27.2141 32.325C27.5462 32.325 27.8784 32.3259 28.2105 32.3259C28.3771 32.3259 28.5427 32.3259 28.7092 32.3259C28.712 32.3259 28.7232 32.325 28.7278 32.325C28.7278 32.5427 28.7278 32.7604 28.7278 32.9781C27.6877 32.9967 26.6475 33.0061 25.6073 33.0182L25.6213 32.3306C26.1516 32.338 26.6838 32.3241 27.2141 32.325ZM28.5045 19.2709C28.0747 19.2653 27.6439 19.2597 27.2141 19.2532C26.7656 19.2467 26.3172 19.2411 25.8697 19.2355C25.7422 19.2337 25.612 19.2365 25.4817 19.2374C25.4827 19.1193 25.4845 19.0011 25.4855 18.8829L25.4929 18.2428C26.6847 18.2615 27.8765 18.2801 29.0683 18.2987C29.0786 18.494 29.0972 18.6894 29.0953 18.8848C29.0944 19.016 29.0879 19.1472 29.0813 19.2793C28.8897 19.2765 28.6971 19.2737 28.5045 19.2709ZM23.7438 33.0414C23.4451 33.0442 23.1465 33.0507 22.8488 33.0526C22.6543 33.0535 22.4608 33.0526 22.2664 33.0526L22.0793 31.8822C22.004 31.4067 21.9444 30.8764 21.4634 30.6224C21.3332 30.5536 21.1983 30.5192 21.0624 30.4959C21.309 27.3438 21.3229 24.1796 21.109 21.0256C21.3164 21.0005 21.522 20.9614 21.7035 20.859C22.2822 20.5334 22.2989 19.8524 22.3315 19.2681C22.352 18.909 22.3371 18.5508 22.3082 18.1935C22.7501 18.2 23.1921 18.2075 23.634 18.214C23.6303 18.5406 23.6266 18.868 23.6219 19.1946C23.6145 19.8254 23.4879 20.5799 24.1439 20.9456C24.3067 21.0368 24.489 21.0665 24.6732 21.0777C24.543 24.2866 24.476 27.4982 24.4769 30.7099C23.6694 31.176 23.7494 32.2106 23.7438 33.0414ZM18.1783 32.4869C18.6379 32.4543 19.0975 32.4236 19.5571 32.3939C19.7981 32.378 20.04 32.3631 20.2809 32.3483C20.2977 32.4552 20.3144 32.5613 20.3321 32.6683C20.3526 32.7967 20.373 32.9261 20.3935 33.0544C19.345 33.0535 18.2955 33.0544 17.247 33.0563C17.2339 32.8888 17.2414 32.7223 17.247 32.5548C17.3279 32.5483 17.4089 32.5427 17.4907 32.5362C17.7187 32.5195 17.9485 32.5036 18.1783 32.4869ZM18.062 21.2675C18.2629 21.2544 18.4639 21.2424 18.6639 21.2293C18.8612 21.2172 19.0584 21.2014 19.2557 21.1884C19.4604 24.3089 19.4436 27.4387 19.197 30.5573C19.1198 30.5629 19.0426 30.5666 18.9654 30.5722C18.7328 30.588 18.5002 30.6047 18.2676 30.6206L18.062 21.2675ZM20.294 19.2523C20.0065 19.2793 19.719 19.3007 19.4315 19.3193C18.8556 19.3583 18.2788 19.3928 17.7029 19.43C17.6666 19.4319 17.5 19.4495 17.3214 19.4663C17.3019 19.029 17.2823 18.5917 17.2628 18.1545C18.3225 18.1638 19.3831 18.1517 20.4354 18.1656C20.4558 18.4019 20.4828 18.6383 20.481 18.8764C20.48 18.9955 20.4726 19.1146 20.4661 19.2337C20.4093 19.2402 20.3526 19.2467 20.294 19.2523ZM14.4084 33.7587C14.0102 34.2388 13.8986 34.8463 13.853 35.452C13.2417 35.452 12.6304 35.4585 12.0192 35.4576C12.2909 26.7883 12.5355 18.1172 12.4472 9.4424C13.1468 9.4424 13.8474 9.43774 14.547 9.43309C14.1014 9.68522 13.6539 9.93179 13.2138 10.1942C12.903 10.3793 12.7877 10.6547 12.7839 10.9329C12.7802 10.9431 12.7728 10.9505 12.7691 10.9608C12.6481 11.291 12.6128 11.6613 12.6918 12.0047C12.7439 12.2307 12.8696 12.4466 13.0342 12.6085C13.2743 12.8457 13.585 12.9443 13.9134 12.9676C14.186 12.9871 14.4651 12.9741 14.7405 12.9704C14.7387 13.2188 14.7415 13.4681 14.7517 13.7165C14.3061 13.7575 14.0521 14.0673 13.9851 14.4292C13.9348 14.5288 13.892 14.6367 13.8772 14.7632C13.7404 15.9578 13.4157 17.9637 15.0904 18.0809C15.1936 18.0884 15.2978 18.0893 15.4002 18.0949C15.4169 18.4689 15.4337 18.8429 15.4495 19.2169C15.4709 19.7147 15.4253 20.2869 15.6849 20.7325C15.8216 20.967 15.9984 21.1112 16.1984 21.2005C16.2692 24.3954 16.3389 27.5912 16.4096 30.7861C15.403 31.0532 15.3071 32.2087 15.3834 33.0907C15.3853 33.1121 15.3955 33.1298 15.3983 33.1502C15.0299 33.2414 14.6922 33.4163 14.4084 33.7587ZM29.7317 35.2687C29.594 35.2659 29.4749 35.2938 29.3689 35.3348C24.8202 35.3999 20.2716 35.4389 15.7221 35.4455C15.7742 35.1208 15.9128 34.9943 16.3808 34.9161C16.8367 34.8398 17.3781 34.9208 17.8405 34.9226C18.6751 34.9254 19.5096 34.9254 20.3442 34.9245C22.0133 34.9217 23.6824 34.9105 25.3515 34.8919C27.3936 34.8687 29.4349 34.8286 31.4771 34.7812C31.4771 34.7719 31.478 34.7635 31.4789 34.7542C33.8681 34.8138 36.2573 34.864 38.6475 34.891C40.3166 34.9096 41.9857 34.9208 43.6548 34.9235C44.4893 34.9254 45.3239 34.9245 46.1584 34.9217C46.6217 34.9198 47.1632 34.8389 47.6182 34.9152C48.0861 34.9933 48.2257 35.1208 48.2769 35.4446C42.0955 35.4371 35.9131 35.3961 29.7317 35.2687ZM50.1479 35.452C50.1023 34.8463 49.9906 34.2397 49.5924 33.7587C49.3087 33.4163 48.9709 33.2414 48.6016 33.1521C48.6044 33.1307 48.6146 33.1139 48.6165 33.0925C48.6928 32.2105 48.5969 31.055 47.5903 30.788C47.661 27.5931 47.7307 24.3973 47.8014 21.2024C48.0015 21.1131 48.1782 20.9688 48.315 20.7344C48.5746 20.2897 48.529 19.7175 48.5504 19.2188C48.5672 18.8448 48.5839 18.4708 48.5997 18.0968C48.703 18.0912 48.8072 18.0893 48.9095 18.0828C50.5842 17.9656 50.2595 15.9597 50.1227 14.7651C50.1078 14.6376 50.065 14.5306 50.0148 14.4311C49.9488 14.0682 49.6939 13.7594 49.2482 13.7184C49.2584 13.47 49.2621 13.2207 49.2594 12.9723C49.5338 12.976 49.8129 12.989 50.0864 12.9695C50.4158 12.9462 50.7256 12.8476 50.9657 12.6103C51.1294 12.4484 51.2559 12.2326 51.308 12.0065C51.3871 11.6623 51.3508 11.292 51.2308 10.9626C51.2271 10.9524 51.2206 10.945 51.2159 10.9347C51.2122 10.6565 51.0968 10.3811 50.7861 10.196C50.346 9.93457 49.8976 9.68709 49.4529 9.43496C50.1525 9.43961 50.8531 9.44427 51.5527 9.44427C51.4653 18.1182 51.71 26.7902 51.9807 35.4594C51.3704 35.4576 50.7582 35.452 50.1479 35.452ZM53.4051 16.0648C54.2778 16.063 55.1496 16.062 56.0222 16.0602C56.4539 16.0592 57.122 16.1765 57.5518 16.0667C57.5546 16.1848 57.5583 16.3021 57.5611 16.4202C57.5816 17.2194 57.5881 18.0195 57.6039 18.8187C56.2204 18.868 54.837 18.9043 53.4526 18.9127C53.4395 17.9637 53.4116 17.0138 53.4051 16.0648ZM57.6076 35.4511C56.3525 35.4529 55.0975 35.451 53.8414 35.4548C53.6879 30.5619 53.5642 25.6672 53.4823 20.7725C54.8677 20.7632 56.2521 20.7279 57.6365 20.6776C57.6476 21.4173 57.669 22.1579 57.6765 22.8975C57.7202 27.0833 57.6923 31.2681 57.6076 35.4511Z" fill="black"/>
</svg>
