<svg width="193" height="16" viewBox="0 0 193 16" fill="none" xmlns="http://www.w3.org/2000/svg">
<path fill-rule="evenodd" clip-rule="evenodd" d="M114.536 11.7068C114.736 11.9669 114.935 12.2292 115.132 12.4947C115.922 13.3707 116.778 13.0865 117.295 12.3538C117.465 12.2238 117.641 12.0618 117.826 11.8648C119.111 10.5032 120.668 8.69505 121.66 6.76813C121.707 6.76597 121.731 6.80104 121.756 6.83611C121.78 6.87118 121.804 6.90625 121.851 6.90409C121.986 7.29045 122.248 7.60436 122.494 7.89765C122.611 8.03684 122.723 8.17138 122.816 8.30681C123.046 8.63947 123.264 8.97262 123.479 9.30031C123.898 9.93986 124.303 10.5586 124.748 11.1122C125.81 12.6552 126.961 13.9047 128.439 12.8238C129.426 12.1995 130.151 10.9441 130.876 9.68873C131.238 9.06106 131.6 8.4334 131.996 7.88461L132.126 7.67159C132.066 7.871 132.193 8.02027 132.467 8.00765C132.66 8.28819 132.934 8.43639 133.208 8.58459C133.345 8.65869 133.482 8.73279 133.608 8.82344L135.61 10.4679C137.135 11.7002 138.572 13.226 140.009 14.7517C140.489 15.3085 141.326 14.9806 141.689 14.385C142.004 13.7193 142.32 13.0898 142.635 12.4602C142.95 11.8307 143.266 11.2012 143.581 10.5355L144.661 8.31508C144.752 8.16619 144.842 8.01731 144.93 7.72384L145.021 7.57495C145.625 7.95635 146.188 8.62888 146.737 9.28461C146.965 9.55651 147.19 9.82552 147.415 10.0697C147.733 10.3757 148.051 10.7015 148.374 11.0322C148.926 11.597 149.491 12.1761 150.093 12.6961C151.72 14.3578 153.33 15.152 155.069 13.0461C155.709 12.2207 156.325 11.3964 156.941 10.5722C157.557 9.74791 158.173 8.92364 158.813 8.0983C159.599 8.92576 160.383 9.67276 161.207 10.4576C161.488 10.7248 161.773 10.9965 162.065 11.2772C162.239 11.4375 162.414 11.6099 162.59 11.7836C163.474 12.6545 164.391 13.5581 165.477 13.1462C166.389 12.777 167.232 11.671 168.023 10.6331C168.281 10.294 168.534 9.96224 168.782 9.66576L168.782 9.66566L168.783 9.66534C169.333 9.06131 169.883 8.45728 170.34 7.85756C170.89 7.2534 171.265 7.23617 171.929 7.63975C172.728 8.13272 173.468 8.80295 174.205 9.47038C175.481 10.6262 176.748 11.7737 178.298 11.9777C180.407 12.2415 181.956 10.4317 183.525 8.59887C183.844 8.22653 184.164 7.85325 184.489 7.4962C185.037 6.85289 185.05 6.86779 185.46 7.31767C185.53 7.39442 185.612 7.48382 185.709 7.58478C185.996 7.86099 186.26 8.13828 186.523 8.41557C186.786 8.69291 187.05 8.97024 187.337 9.2465C188.058 10.2953 189.9 12.1202 191.5 11.0293C192.798 10.1447 191.376 8.49544 190.218 7.15112C189.591 6.42332 189.041 5.78489 189.041 5.40557C188.787 5.14885 188.526 4.84168 188.256 4.52449C187.508 3.64447 186.694 2.68726 185.795 2.51588C184.398 2.11413 183.196 3.68412 182.049 5.18362C181.415 6.01246 180.797 6.81976 180.172 7.26064C178.571 8.35864 176.977 6.86013 175.535 5.50458C175.143 5.13669 174.763 4.77933 174.397 4.48726C173.346 3.52259 172.111 2.71112 170.899 3.05628C169.822 3.3445 168.891 4.51189 168.033 5.58766C167.85 5.81631 167.671 6.04081 167.495 6.25185C167.316 6.44758 167.11 6.72053 166.891 7.01098C166.433 7.6171 165.917 8.29945 165.478 8.51532C165.384 8.51963 165.206 8.96199 165.206 8.96199C165.086 8.96748 164.769 8.6287 164.505 8.34737C164.356 8.18771 164.224 8.04654 164.155 7.99732C163.485 7.30458 162.791 6.61291 162.097 5.92124C161.404 5.22958 160.71 4.53792 160.04 3.84518C160.04 3.84518 159.946 3.84949 159.943 3.70491C159.463 3.14813 158.711 3.03801 158.167 3.93134C157.755 4.45675 157.367 4.98109 156.979 5.50543C156.592 6.02977 156.204 6.55411 155.792 7.07952C155.611 7.37731 155.405 7.64002 155.2 7.90274C154.994 8.16544 154.788 8.42814 154.607 8.7259C154.511 8.83131 154.382 9.02631 154.24 9.24242C153.974 9.64565 153.66 10.1224 153.418 10.2277C152.863 10.3609 151.972 9.30805 151.317 8.53271C151.091 8.26588 150.893 8.03192 150.746 7.89048C150.316 7.47612 149.909 7.06069 149.502 6.64526C149.095 6.22983 148.689 5.8144 148.258 5.40005C148.137 5.27507 148.014 5.14432 147.889 5.01138C146.624 3.67061 145.15 2.10792 143.824 4.01216C143.281 4.79159 142.847 5.80683 142.438 6.7628C142.298 7.09039 142.161 7.41102 142.024 7.71281C141.844 8.08287 141.641 8.49016 141.438 8.89745C141.235 9.30474 141.033 9.71202 140.853 10.0821C138.459 7.58736 135.977 5.38609 133.319 3.77176C131.762 2.86536 130.862 4.2219 129.819 5.79445C129.782 5.85068 129.745 5.9072 129.707 5.96389C129.553 6.21575 129.4 6.4906 129.245 6.76909C128.85 7.47837 128.442 8.21126 127.98 8.64818C127.745 8.90564 127.678 8.99774 127.64 8.98678C127.59 8.97201 127.595 8.7703 127.321 8.53376C127.127 8.34642 126.885 7.96158 126.659 7.60202C126.552 7.4314 126.449 7.26647 126.355 7.13104C126.126 6.79837 125.908 6.46519 125.693 6.13749C125.274 5.49796 124.869 4.87924 124.424 4.32561C124.346 4.21238 124.265 4.09173 124.182 3.96731C123.751 3.32101 123.251 2.57289 122.694 2.23446C121.432 1.5695 120.597 2.79144 119.774 3.99759C119.608 4.23988 119.443 4.48154 119.275 4.70714C118.637 5.60477 117.999 6.5024 117.267 7.40435L116.486 8.26172C116.077 7.73619 115.663 7.21844 115.249 6.70069C115.165 6.59574 115.081 6.49079 114.998 6.38578C114.777 6.10596 114.556 5.82779 114.334 5.55007C113.945 5.05617 113.559 4.55713 113.18 4.04635C112.982 3.80048 112.793 3.57294 112.609 3.36891C112.409 3.10883 112.21 2.8465 112.013 2.58101C111.223 1.70496 110.367 1.98922 109.85 2.72191C109.68 2.85185 109.504 3.01395 109.319 3.21092C108.034 4.57245 106.477 6.38064 105.485 8.30757C105.438 8.30972 105.414 8.27465 105.389 8.23959C105.365 8.20452 105.341 8.16945 105.294 8.17161C105.159 7.78524 104.897 7.47132 104.651 7.17802C104.534 7.03885 104.422 6.90431 104.329 6.76889C104.099 6.43625 103.881 6.10311 103.667 5.77543C103.247 5.13587 102.842 4.51712 102.397 3.96346C101.335 2.42047 100.184 1.17095 98.7061 2.25194C97.7187 2.87621 96.994 4.13157 96.2693 5.38693C95.9069 6.01461 95.5445 6.64229 95.1493 7.19108L95.0195 7.4041C95.0792 7.20469 94.9524 7.05543 94.6781 7.06804C94.485 6.7875 94.2111 6.6393 93.9373 6.4911C93.8004 6.417 93.6635 6.3429 93.5366 6.25226L91.5347 4.60777C90.0098 3.37549 88.5728 1.84973 87.1358 0.323978C86.6558 -0.2328 85.8186 0.0951317 85.4556 0.690682C85.1409 1.3564 84.8254 1.98597 84.51 2.61555C84.1946 3.24506 83.8791 3.87457 83.5644 4.54022L82.4842 6.76061C82.3934 6.9095 82.3027 7.05839 82.2148 7.35185L82.1241 7.50074C81.52 7.11935 80.9568 6.44682 80.4077 5.7911C80.18 5.5192 79.9548 5.25018 79.73 5.00601C79.4122 4.69996 79.094 4.37418 78.771 4.04347C78.2194 3.47872 77.6538 2.89956 77.052 2.37963C75.4247 0.717907 73.8149 -0.076333 72.0761 2.02963C71.4365 2.85498 70.8203 3.67925 70.2041 4.50351C69.5879 5.32778 68.9716 6.15205 68.332 6.97739C67.546 6.14992 66.7617 5.40291 65.9376 4.61811C65.657 4.35085 65.3718 4.07922 65.0804 3.79854C64.9057 3.63816 64.7308 3.4658 64.5545 3.29213C63.6707 2.4212 62.7537 1.5176 61.6676 1.92951C60.7564 2.29866 59.9133 3.40465 59.1221 4.44258C58.8636 4.78165 58.6107 5.11345 58.3627 5.40993C57.8124 6.0141 57.2621 6.61827 56.8054 7.21813C56.2551 7.82229 55.8804 7.83952 55.216 7.43594C54.4167 6.94297 53.6767 6.27274 52.9398 5.60531C51.6635 4.44946 50.3966 3.30199 48.8472 3.09804C46.738 2.83421 45.1887 4.644 43.6197 6.47681C43.3009 6.84915 42.9814 7.22244 42.6561 7.57949C42.1085 8.22279 42.0949 8.20789 41.6847 7.75802C41.6148 7.68127 41.5333 7.59187 41.4356 7.49091C41.1488 7.21468 40.8854 6.93737 40.6219 6.66005C40.3585 6.38274 40.0951 6.10543 39.8083 5.82919C38.661 4.72425 37.5137 3.61931 36.1937 3.24589C34.9415 3.02833 33.8797 3.84831 32.7469 4.72317C32.6881 4.76858 32.6291 4.81413 32.5699 4.8597L30.6291 6.25138C30.446 6.38269 30.2339 6.5617 30.0047 6.75505C29.4241 7.24483 28.7345 7.82662 28.1322 7.95808C27.0666 8.00709 25.7197 6.63831 24.7671 5.67028C24.7149 5.61723 24.6639 5.56539 24.6142 5.51504C24.2975 5.1816 23.9966 4.79513 23.6949 4.40749C22.9928 3.50558 22.2858 2.59736 21.3625 2.33619C20.1361 1.95845 18.9331 2.73736 18.0197 3.93707C17.7953 4.20542 17.5762 4.50947 17.3567 4.81423C16.591 5.87688 15.8191 6.94826 14.791 6.54571C13.89 6.29082 13.109 5.49102 12.34 4.70354C11.9824 4.33732 11.6275 3.97378 11.2642 3.66894C10.0232 2.56831 8.69444 1.76114 7.18998 1.54091C4.46203 1.08753 1.68414 2.80714 0.261266 6.63514C-0.625844 9.13608 1.85316 11.1928 2.74027 8.69183C3.98455 5.30618 6.70084 5.18125 8.79352 6.67685C9.47175 7.16156 10.1134 7.78475 10.7539 8.40686C12.0897 9.70431 13.4207 10.997 15.0687 11.0191C16.1956 11.1119 17.2113 10.3417 18.1305 9.4311C18.2804 9.24638 18.4526 8.99994 18.6399 8.73188C19.3673 7.69107 20.3224 6.32441 21.0811 6.97997C21.6373 7.37745 22.1674 8.07297 22.7031 8.7758C23.0836 9.27503 23.467 9.77794 23.8644 10.1804C24.9152 11.145 26.1532 12.1011 27.283 12.3385C28.4445 12.5599 29.4187 11.8769 30.4636 11.1444C30.5194 11.1053 30.5754 11.0661 30.6316 11.0268C31.2263 10.6273 31.8193 10.1482 32.4123 9.66907C33.2031 9.03022 33.9938 8.39138 34.7883 7.94136C35.7659 7.42718 36.7106 8.34081 37.5416 9.14443C37.7358 9.3322 37.9237 9.51397 38.1044 9.67012C38.358 9.92684 38.6192 10.234 38.8889 10.5512C39.6371 11.4312 40.4509 12.3884 41.3502 12.5598C42.747 12.9616 43.9486 11.3916 45.0961 9.89207C45.7304 9.06323 46.3483 8.25593 46.9735 7.81505C48.5736 6.71705 50.1681 8.21557 51.6104 9.57112C52.0019 9.93901 52.3821 10.2964 52.7482 10.5884C53.799 11.5531 55.0341 12.3646 56.2459 12.0194C57.3226 11.7312 58.254 10.5638 59.1123 9.48803C59.2947 9.25939 59.4738 9.03488 59.6503 8.82384C59.8286 8.62812 60.0348 8.35517 60.2543 8.06472C60.7123 7.4586 61.2279 6.77624 61.6672 6.56037C61.7609 6.55606 61.9395 6.1137 61.9395 6.1137C62.059 6.10821 62.3762 6.44699 62.6396 6.72832C62.7891 6.88798 62.9213 7.02915 62.9902 7.07837C63.6604 7.77113 64.3541 8.46281 65.0477 9.15449C65.7414 9.84614 66.435 10.5378 67.1052 11.2305C67.1052 11.2305 67.1989 11.2262 67.2018 11.3708C67.6818 11.9276 68.434 12.0377 68.9785 11.1444C69.3898 10.6189 69.7777 10.0946 70.1656 9.57027C70.5534 9.04593 70.9413 8.52159 71.3526 7.99617C71.5341 7.6984 71.7397 7.4357 71.9454 7.173C72.151 6.91028 72.3567 6.64757 72.5382 6.34979C72.6342 6.24438 72.7627 6.04936 72.9051 5.83324C73.1707 5.43002 73.4847 4.95334 73.7267 4.84799C74.282 4.71479 75.1726 5.76763 75.8284 6.54297C76.0541 6.8098 76.252 7.04377 76.3989 7.18522C76.8291 7.59959 77.2359 8.01503 77.6428 8.43048C78.0496 8.84589 78.4564 9.2613 78.8866 9.67564C79.0075 9.80063 79.1309 9.93139 79.2562 10.0643C80.5208 11.4051 81.9946 12.9678 83.3209 11.0635C83.8638 10.2841 84.298 9.2688 84.7067 8.31281C84.8468 7.98525 84.9839 7.66465 85.1214 7.36288C85.3014 6.99282 85.5041 6.58553 85.7069 6.17824C85.9096 5.77095 86.1123 5.36367 86.2924 4.99361C88.6865 7.48834 91.1684 9.6896 93.826 11.3039C95.383 12.2103 96.2827 10.8538 97.3256 9.28126C97.3629 9.22502 97.4004 9.1685 97.4381 9.1118C97.5916 8.85995 97.7447 8.58512 97.8997 8.30665C98.2947 7.59736 98.7029 6.86445 99.1653 6.42751C99.3998 6.17006 99.4674 6.07795 99.5047 6.08892C99.5549 6.10369 99.5501 6.30539 99.8239 6.54194C100.018 6.72927 100.26 7.11409 100.486 7.47364C100.593 7.64427 100.696 7.80922 100.79 7.94465C101.019 8.27733 101.237 8.6105 101.452 8.93821C101.871 9.57774 102.276 10.1965 102.721 10.7501C102.799 10.8633 102.88 10.984 102.963 11.1084C103.394 11.7547 103.894 12.5028 104.451 12.8412C105.713 13.5062 106.548 12.2842 107.371 11.0781C107.537 10.8358 107.702 10.5942 107.87 10.3686C108.508 9.47093 109.146 8.57329 109.878 7.67135L110.659 6.81398C111.068 7.33949 111.482 7.85723 111.896 8.37496C111.98 8.48013 112.064 8.58531 112.148 8.69054C112.368 8.96975 112.589 9.24732 112.81 9.52443C113.2 10.0187 113.586 10.5182 113.965 11.0293C114.163 11.2752 114.352 11.5028 114.536 11.7068Z" fill="#F7C300"/>
</svg>
