<svg width="171" height="14" viewBox="0 0 171 14" fill="none" xmlns="http://www.w3.org/2000/svg">
<path d="M170.335 10.034C168.375 8.07484 166.283 6.27601 164.323 4.31685C162.367 2.51339 160.981 1.62558 158.714 3.41716C156.847 4.88343 154.584 6.83071 153.143 8.90586C153.007 8.9105 153.002 8.7548 152.866 8.75944C152.577 8.14591 151.884 7.702 151.463 7.24882C150.481 6.19139 149.635 5.12932 148.657 4.22759C147.114 2.56591 145.443 1.22027 143.295 2.38441C141.143 3.39285 139.85 5.93046 138.128 7.70349C137.996 7.86383 137.864 8.02417 137.732 8.18451C138.132 7.85919 137.987 7.55243 137.443 7.57098C137.022 7.1178 136.338 6.98529 135.785 6.69245C134.815 6.10212 133.846 5.51179 132.876 4.92147C130.661 3.59439 128.573 1.95127 126.486 0.308147C125.788 -0.29146 124.572 0.0616968 124.045 0.703059C123.13 2.13685 122.212 3.41493 121.297 4.84872C120.774 5.64578 120.251 6.44284 119.728 7.23991C119.596 7.40025 119.464 7.56059 119.336 7.87663C119.205 8.03697 119.205 8.03697 119.205 8.03697C117.963 7.45592 116.84 6.24743 115.726 5.35034C114.476 4.45789 113.222 3.40973 111.836 2.52192C109.472 0.732378 107.133 -0.122957 104.607 2.14501C102.748 3.92267 101.026 5.6957 99.1674 7.47336C97.6367 6.27879 96.1103 5.23991 94.4435 4.04998C92.917 3.01111 91.3778 1.50513 89.4854 2.03718C87.7291 2.5646 86.147 4.48869 84.6841 5.78533C83.8845 6.43597 83.085 7.08661 82.4216 7.73261C81.622 8.38325 81.0777 8.40181 80.1125 7.96719C76.9404 6.51688 74.4106 3.64207 70.8599 3.29559C67.1731 2.95376 64.6639 5.84453 61.8655 8.12177C60.9342 8.93275 61.066 8.77241 60.0923 8.02638C59.2589 7.43142 58.5616 6.83181 57.7282 6.23684C56.0614 5.04691 54.3946 3.85697 52.4768 3.45482C50.5633 3.20837 48.9558 4.19825 47.2122 5.19277C46.2724 5.69235 45.3325 6.19193 44.3927 6.69151C43.4528 7.19109 41.9856 8.33203 40.7652 8.52948C39.1323 8.58516 37.0445 6.94204 35.6541 5.89853C34.1234 4.70395 32.8479 2.87729 30.9302 2.47514C29.1485 2.06835 27.4006 2.90717 26.0737 4.19917C24.6108 5.49582 23.305 7.56633 21.383 7.00847C19.4653 6.60632 17.9218 4.94464 16.2593 3.91041C14.4564 2.72511 12.526 1.85586 10.3403 1.61869C6.3771 1.13043 2.34137 2.98233 0.274224 7.10479C-1.01457 9.7981 2.58693 12.013 3.87572 9.31968C5.68342 5.6736 9.62964 5.53905 12.6699 7.1497C15.7102 8.76034 18.2442 11.7909 21.7864 11.8259C23.4236 11.926 24.8993 11.0964 26.2346 10.1158C27.2978 9.14449 29.1352 6.58832 30.5213 7.47613C31.9033 8.20825 33.1745 9.8792 34.5649 10.9227C36.0914 11.9616 37.89 12.9912 39.5314 13.2469C41.3089 13.498 42.7846 12.6685 44.3963 11.8343C46.4121 10.8305 48.4151 9.35958 50.4351 8.51149C52.1872 7.82837 53.8666 9.4854 55.2528 10.3732C56.6432 11.4167 58.1909 13.2341 59.9683 13.4852C63.1192 14.157 65.5862 9.70922 68.1377 8.37546C71.0933 6.87208 74.0356 9.88867 76.5273 11.3622C78.0538 12.401 79.8482 13.2749 81.6087 12.9032C83.5053 12.5269 85.0917 10.7585 86.5547 9.46184C87.3542 8.8112 88.5408 7.36814 89.4848 7.02426C89.6209 7.01962 89.8804 6.54324 89.8804 6.54324C90.1525 6.53396 91.1305 7.43569 91.4068 7.58211C93.3543 9.07417 95.4377 10.5616 97.3851 12.0536C97.3851 12.0536 97.5212 12.049 97.5255 12.2047C98.2228 12.8043 99.3156 12.9229 100.107 11.9609C101.302 10.8292 102.361 9.70217 103.556 8.57051C104.083 7.92915 104.751 7.43885 105.278 6.79748C105.678 6.47216 106.465 5.35442 107.005 5.18016C108.089 4.98734 110.054 7.1022 110.887 7.69717C112.137 8.58962 113.251 9.48672 114.501 10.3792C116.449 11.8712 118.825 14.1279 120.943 11.8738C122.002 10.7468 122.776 9.16195 123.559 7.88851C124.082 7.09144 124.737 6.13404 125.26 5.33698C128.738 8.02361 132.344 10.3942 136.205 12.1327C138.548 13.1437 139.866 11.5403 141.453 9.77196C142.244 8.80991 143.026 7.53647 143.962 6.88119C144.762 6.23055 144.226 6.5605 144.919 7.00441C145.336 7.30189 145.901 8.06184 146.322 8.51503C147.304 9.57246 148.15 10.6345 149.128 11.5363C149.83 12.2916 150.676 13.3536 151.641 13.7883C153.844 14.6482 155.149 12.5777 156.608 11.1254C157.535 10.1587 158.462 9.19202 159.526 8.2207C159.526 8.2207 160.325 7.57006 160.725 7.24474C160.865 7.3958 161.005 7.54686 161.146 7.69792C163.106 9.65709 165.198 11.4559 167.158 13.4151C169.526 15.3603 172.295 11.9932 170.335 10.034Z" fill="#59C69F"/>
</svg>
