<svg width="211" height="13" viewBox="0 0 211 13" fill="none" xmlns="http://www.w3.org/2000/svg">
<path d="M210.179 9.31728C207.761 7.49806 205.179 5.82773 202.761 4.00851C200.347 2.33386 198.637 1.50947 195.84 3.17308C193.536 4.53461 190.745 6.3428 188.966 8.26972C188.798 8.27403 188.792 8.12945 188.624 8.13376C188.268 7.56406 187.413 7.15186 186.893 6.73105C185.681 5.74915 184.637 4.76294 183.431 3.92562C181.526 2.38263 179.464 1.13311 176.814 2.2141C174.159 3.1505 172.564 5.50686 170.438 7.15324C170.276 7.30213 170.113 7.45101 169.95 7.5999C170.443 7.29782 170.265 7.01297 169.593 7.0302C169.074 6.60938 168.229 6.48634 167.547 6.21442C166.351 5.66626 165.155 5.11809 163.959 4.56993C161.225 3.33765 158.649 1.81189 156.073 0.286136C155.212 -0.270642 153.712 0.0572899 153.061 0.652841C151.933 1.98421 150.799 3.17101 149.671 4.50238C149.025 5.24251 148.38 5.98264 147.734 6.72277C147.572 6.87166 147.409 7.02055 147.251 7.31401C147.089 7.4629 147.089 7.4629 147.089 7.4629C145.557 6.92336 144.172 5.80118 142.797 4.96817C141.254 4.13946 139.707 3.16618 137.996 2.34178C135.079 0.680066 132.193 -0.114175 129.076 1.99179C126.783 3.64248 124.658 5.28886 122.365 6.93955C120.476 5.8303 118.592 4.86563 116.536 3.76069C114.652 2.79603 112.753 1.39762 110.418 1.89167C108.251 2.38141 106.298 4.16807 104.493 5.37209C103.507 5.97626 102.52 6.58042 101.701 7.18028C100.715 7.78445 100.043 7.80168 98.8523 7.3981C94.9381 6.05139 91.8166 3.38192 87.4353 3.06019C82.8861 2.74277 79.7899 5.42706 76.337 7.54164C75.1878 8.2947 75.3504 8.14581 74.149 7.45307C73.1206 6.9006 72.2602 6.34382 71.2319 5.79135C69.1752 4.68641 67.1185 3.58147 64.7521 3.20805C62.391 2.9792 60.4074 3.89837 58.256 4.82186C57.0963 5.28575 55.9366 5.74965 54.7769 6.21354C53.6173 6.67744 51.8068 7.73688 50.3009 7.92024C48.286 7.97193 45.7099 6.44618 43.9943 5.4772C42.1055 4.36795 40.5317 2.67177 38.1653 2.29835C35.9668 1.92061 33.8101 2.69951 32.1729 3.89923C30.3677 5.10326 28.7565 7.02587 26.3849 6.50787C24.0185 6.13444 22.1141 4.59145 20.0626 3.63109C17.838 2.53046 15.456 1.7233 12.759 1.50307C7.86882 1.04968 2.88907 2.7693 0.338371 6.5973C-1.2519 9.09823 3.19206 11.1549 4.78232 8.65398C7.01287 5.26834 11.8822 5.14341 15.6336 6.63901C19.385 8.1346 22.5119 10.9486 26.8827 10.9812C28.9028 11.0741 30.7236 10.3038 32.3714 9.39326C33.6833 8.49131 35.9504 6.11773 37.6608 6.94213C39.366 7.62194 40.9346 9.17354 42.6503 10.1425C44.5338 11.1072 46.7532 12.0632 48.7785 12.3007C50.9718 12.5339 52.7927 11.7636 54.7814 10.989C57.2687 10.0569 59.7403 8.69104 62.2328 7.90352C64.3947 7.2692 66.467 8.80788 68.1774 9.63227C69.8931 10.6012 71.8027 12.2888 73.996 12.522C77.884 13.1458 80.928 9.0157 84.0764 7.77721C87.7234 6.38122 91.3539 9.18234 94.4285 10.5506C96.312 11.5153 98.5262 12.3267 100.699 11.9816C103.039 11.6321 104.996 9.99002 106.801 8.786C107.788 8.18183 109.252 6.84184 110.417 6.52253C110.585 6.51822 110.905 6.07586 110.905 6.07586C111.241 6.06725 112.448 6.90457 112.789 7.04053C115.192 8.42601 117.762 9.80719 120.165 11.1927C120.165 11.1927 120.333 11.1884 120.338 11.3329C121.199 11.8897 122.547 11.9998 123.523 11.1065C124.998 10.0557 126.305 9.00916 127.779 7.95833C128.43 7.36278 129.254 6.9075 129.905 6.31195C130.398 6.00986 131.369 4.97196 132.035 4.81015C133.373 4.6311 135.797 6.5949 136.825 7.14737C138.368 7.97608 139.743 8.80909 141.285 9.6378C143.688 11.0233 146.621 13.1187 149.234 11.0257C150.541 9.97917 151.496 8.50753 152.462 7.32504C153.107 6.58491 153.915 5.69589 154.561 4.95576C158.853 7.45049 163.302 9.65176 168.066 11.2661C170.957 12.2049 172.584 10.716 174.541 9.07396C175.517 8.18063 176.483 6.99815 177.637 6.38967C178.624 5.78551 177.963 6.0919 178.818 6.5041C179.332 6.78033 180.03 7.486 180.549 7.90681C181.761 8.88871 182.805 9.87492 184.012 10.7122C184.878 11.4136 185.922 12.3998 187.113 12.8034C189.83 13.6019 191.442 11.6793 193.242 10.3307C194.386 9.43308 195.53 8.53545 196.842 7.63351C196.842 7.63351 197.828 7.02934 198.321 6.72726C198.494 6.86753 198.668 7.0078 198.841 7.14807C201.259 8.96729 203.841 10.6376 206.259 12.4568C209.182 14.2631 212.598 11.1365 210.179 9.31728Z" fill="#F7C300"/>
</svg>
