<svg width="72" height="64" viewBox="0 0 72 64" fill="none" xmlns="http://www.w3.org/2000/svg">
<path d="M70.9997 46.7235C70.4743 40.7921 68.5378 34.7051 66.2104 29.4817C60.8313 17.406 51.0479 7.3664 39.6018 0.879238C38.936 0.502458 38.4492 0.191206 37.6828 0.0554714C35.9007 -0.258121 34.7142 0.80201 33.7219 2.12308C26.817 11.3167 20.4551 21.1785 15.6962 31.664C13.6344 36.2064 12.0091 40.9735 11.1468 45.895C10.6775 48.5711 8.6977 56.4905 12.3848 57.7168C13.5373 58.1006 14.7894 57.966 15.9993 57.849C31.6461 56.329 47.4896 58.3884 63.1739 58.3159C64.9572 58.3077 67.0587 58.5335 68.6723 57.6056C70.8136 56.3735 70.94 53.9782 71.0816 51.7304C71.1846 50.0887 71.1495 48.4119 70.9997 46.7235Z" fill="#F7C300"/>
<path d="M66.454 61.3393C65.312 61.3885 64.1723 61.4142 63.0302 61.4411L61.8192 61.4704C61.6448 61.4715 61.495 61.4083 61.3804 61.289C61.2669 61.1696 61.2095 61.007 61.2201 60.8432C61.5793 55.9872 61.8496 51.2388 61.2201 46.5326C60.5589 41.5865 58.7675 36.9668 56.9327 32.7123C53.7313 25.2914 49.3597 17.0139 41.218 11.8888C36.8429 9.13313 31.9143 7.25859 27.5662 5.60521C27.3216 5.51277 27.1028 5.49756 26.9121 5.55841C26.8828 5.56777 26.7915 5.58532 26.7611 5.59C25.2587 6.0288 24.2418 7.32997 23.2566 8.59019C23.0776 8.81954 22.8997 9.04654 22.723 9.26535C21.4488 10.8345 20.2377 12.4387 19.1202 14.0348C16.8432 17.2936 14.7849 20.77 13.004 24.3705C9.41289 31.6311 6.92404 39.2685 5.60648 47.0673C5.59127 47.1563 5.55616 47.2405 5.50234 47.3142C5.26363 47.643 5.19225 48.1146 5.32331 48.5159C5.35022 48.6014 5.35841 48.6926 5.34671 48.7816C4.79792 52.5072 4.50071 56.2528 4.46327 59.9141C4.45976 60.2347 4.19882 60.4933 3.87821 60.4933L3.33176 60.4898C3.32825 60.4898 3.1773 60.5097 3.17379 60.5097C2.3863 60.4968 1.79773 60.5214 1.24777 60.5928C0.997366 60.5928 0.886204 60.6197 0.769192 60.6817C0.553889 60.7601 0.450918 60.828 0.360819 60.9251C0.138496 61.1474 -0.00893963 61.4914 0.000421353 61.743C0.0109525 61.9525 0.0659482 62.3398 0.325715 62.5785L0.642819 62.8219C0.764511 62.8862 0.958752 62.9389 1.17288 62.9389C2.02356 62.8242 2.96785 62.802 3.89927 62.8792C3.9332 62.8733 4.00926 62.8733 4.08064 62.8546C4.20701 62.8254 4.33924 62.8382 4.46912 62.8382C12.8062 62.8382 21.2674 63.1179 29.4559 63.3882C32.8926 63.5017 36.328 63.6152 39.7659 63.7088C39.815 63.71 39.863 63.7182 39.9098 63.731C40.1333 63.7942 40.3732 63.8024 40.606 63.7509C40.6481 63.7416 40.6903 63.7369 40.7324 63.7369C40.7371 63.7369 40.7429 63.7369 40.7476 63.7369C43.5243 63.8094 46.301 63.8586 49.0765 63.8913C49.1491 63.8925 49.2205 63.9066 49.2871 63.9335C49.5095 64.0236 49.7845 64.0212 50.0618 63.9311C50.1214 63.9112 50.1706 63.8925 50.2478 63.903C56.4448 63.9627 61.5758 63.8902 66.4025 63.6819C66.9654 63.6573 67.2462 63.3426 67.3808 63.084C67.5972 62.6697 67.5855 62.1245 67.3527 61.7582C67.1666 61.4622 66.8542 61.3264 66.454 61.3393ZM18.1911 35.3275C18.1947 35.173 18.2602 35.0256 18.3725 34.9179C18.4848 34.8103 18.6405 34.7506 18.7891 34.7565C21.1001 34.8126 23.5526 34.8431 26.5119 34.8524C26.6687 34.8524 26.8185 34.9156 26.9273 35.0279C27.0361 35.1403 27.0969 35.2912 27.0946 35.4468L26.9167 46.1464C26.9109 46.4659 26.65 46.7221 26.3317 46.7221C26.3305 46.7221 26.3293 46.7221 26.3282 46.7221C23.7282 46.7069 21.1305 46.6964 18.5305 46.7128C18.3398 46.6882 18.2192 46.6508 18.1104 46.5384C17.9992 46.4261 17.9396 46.2728 17.9419 46.1148L18.1911 35.3275ZM15.2799 60.0557C15.2717 60.374 15.0119 60.6267 14.6948 60.6267C14.6901 60.6267 14.6866 60.6267 14.6819 60.6267C12.2481 60.5741 9.81775 60.5308 7.38506 60.512C7.22944 60.5109 7.08083 60.4477 6.97201 60.3377C6.86202 60.2265 6.80234 60.0767 6.80351 59.9211C6.83862 56.5336 7.10072 53.0888 7.58047 49.6837C7.62026 49.3994 7.86013 49.1876 8.14564 49.1806C9.70893 49.1455 11.271 49.1303 12.8343 49.115L14.9265 49.0928C15.0845 49.1092 15.2389 49.1537 15.3489 49.266C15.4612 49.3783 15.5209 49.5328 15.5186 49.6907L15.2799 60.0557ZM15.6005 46.1815C15.5923 46.4963 15.3372 46.7491 15.0225 46.7526L12.9478 46.7736C11.5484 46.7853 10.1477 46.7982 8.74943 46.8286C8.74592 46.8286 8.74124 46.8286 8.73656 46.8286C8.56572 46.8286 8.4019 46.7537 8.29074 46.6227C8.17607 46.4881 8.12809 46.3091 8.16202 46.1359C8.86176 42.4056 9.86104 38.6307 11.1341 34.9168C11.2196 34.6664 11.4723 34.5061 11.7286 34.5236C12.7477 34.5704 13.7611 34.6032 14.7744 34.6371L15.2892 34.6547C15.6099 34.6652 15.8614 34.932 15.8544 35.2526L15.6005 46.1815ZM15.9363 31.7376C15.9328 31.8944 15.8661 32.0418 15.7538 32.1494C15.645 32.2524 15.501 32.3097 15.3513 32.3097C15.3442 32.3097 15.3384 32.3097 15.3314 32.3097L14.5404 32.2852C14.008 32.2688 13.4756 32.2524 12.9443 32.2313C12.7548 32.2243 12.5792 32.1249 12.4774 31.9657C12.3733 31.8066 12.3546 31.6077 12.4236 31.431C13.169 29.5494 14.022 27.6257 14.9581 25.7138C15.0798 25.468 15.3618 25.3393 15.6216 25.4025C15.8895 25.468 16.0744 25.7103 16.0685 25.9852L15.9363 31.7376ZM27.2245 60.7636C27.1133 60.8993 26.9483 60.9766 26.7728 60.9766C26.7658 60.9766 26.7599 60.9766 26.7529 60.9766C23.8978 60.883 21.0416 60.7917 18.1865 60.7156C17.8647 60.7074 17.6108 60.4395 17.6178 60.1177L17.86 49.6217C17.867 49.3046 18.1256 49.0519 18.4415 49.0495C21.0509 49.0331 23.6591 49.0448 26.2685 49.0589C26.4253 49.06 26.5762 49.1244 26.6851 49.2367C26.7939 49.3502 26.8536 49.5024 26.85 49.6592L26.822 50.6643C26.7295 53.8599 26.6347 57.1655 27.3427 60.2616C27.3848 60.4383 27.3403 60.6232 27.2245 60.7636ZM27.1555 31.9353C27.1496 32.2547 26.8887 32.511 26.5704 32.511C26.5692 32.511 26.5692 32.511 26.5681 32.511C23.6931 32.5016 21.1668 32.4701 18.8441 32.4151C18.5211 32.4069 18.266 32.1389 18.2731 31.816L18.5551 19.656C18.5586 19.5004 18.6253 19.353 18.7364 19.2453C18.8499 19.1377 19.0243 19.0839 19.1553 19.0839C21.464 19.1494 23.9563 19.1857 26.7752 19.195C26.932 19.195 27.0817 19.2594 27.1906 19.3705C27.3005 19.4829 27.3602 19.6338 27.3579 19.7894L27.1555 31.9353ZM27.4176 16.2709C27.4117 16.5903 27.1508 16.8466 26.8325 16.8466C26.8325 16.8466 26.8313 16.8466 26.8302 16.8466C24.9463 16.8407 23.0612 16.822 21.1773 16.7799C20.962 16.7752 20.7678 16.6535 20.6695 16.4628C20.5712 16.272 20.5852 16.0427 20.7057 15.8648C21.2381 15.0855 21.7717 14.3086 22.3322 13.5492C23.0039 12.6365 23.7176 11.7179 24.4501 10.8193C24.5894 10.6496 24.7497 10.4261 24.9252 10.1804C25.3944 9.52629 25.9783 8.71306 26.6067 8.2415C26.7845 8.10693 27.0232 8.08587 27.2233 8.18884C27.4234 8.28947 27.5463 8.49658 27.5428 8.72008L27.4176 16.2709ZM29.8655 9.85158C29.869 9.65851 29.9673 9.47949 30.1287 9.373C30.289 9.26652 30.4926 9.24546 30.6717 9.32035C33.5256 10.4846 35.9969 11.6653 38.2248 12.929C38.405 13.032 38.5185 13.2227 38.5209 13.431L38.5524 16.0743C38.556 16.3926 38.3044 16.6558 37.9873 16.6652C35.1369 16.7588 32.6398 16.8126 30.3487 16.8325C30.3475 16.8325 30.3452 16.8325 30.344 16.8325C30.1884 16.8325 30.0386 16.7705 29.9298 16.6594C29.8175 16.547 29.7578 16.3949 29.759 16.2381L29.8655 9.85158ZM29.6981 19.7555C29.704 19.4384 29.9614 19.1833 30.2785 19.1798C32.8785 19.1576 35.4715 19.1061 37.9896 19.0253C38.1335 19.0113 38.2985 19.078 38.412 19.1868C38.5255 19.2956 38.5899 19.4454 38.5922 19.6022L38.7373 31.7528C38.7408 32.0722 38.4881 32.3355 38.1686 32.3448C35.0936 32.4279 32.524 32.4747 30.0831 32.4899C30.0819 32.4899 30.0808 32.4899 30.0796 32.4899C29.9228 32.4899 29.773 32.4279 29.6642 32.3168C29.553 32.2044 29.4934 32.0523 29.4945 31.8955L29.6981 19.7555ZM29.4372 35.4106C29.443 35.0923 29.7016 34.8372 30.0187 34.8349C32.4631 34.8197 35.0561 34.7729 38.1803 34.6886C38.3231 34.6828 38.4881 34.7424 38.6016 34.8524C38.7151 34.9612 38.7783 35.111 38.7806 35.2666L38.9117 46.3056C38.914 46.4647 38.8508 46.6168 38.7385 46.728C38.6285 46.8368 38.4811 46.8977 38.3266 46.8977C38.3219 46.8977 38.3173 46.8977 38.3126 46.8977C35.4867 46.8298 32.6597 46.776 29.8339 46.7444C29.6782 46.7432 29.5296 46.6788 29.4208 46.5677C29.312 46.4554 29.2523 46.3056 29.2547 46.15L29.4372 35.4106ZM38.9093 61.1743C38.7993 61.282 38.6519 61.3428 38.4986 61.3428C38.4928 61.3428 38.4869 61.3428 38.4822 61.3428C35.7898 61.2668 33.0973 61.1837 30.4072 61.0948C30.1545 61.0866 29.9368 60.9169 29.8655 60.6747C28.9001 57.3691 29.0276 53.847 29.1529 50.4396L29.1798 49.6463C29.1915 49.328 29.4056 49.0483 29.7718 49.0811C32.6422 49.1127 35.5113 49.1689 38.3816 49.2367C38.6975 49.2438 38.9491 49.5 38.9526 49.8148L39.0825 60.7496C39.0872 60.9099 39.0228 61.0632 38.9093 61.1743ZM40.9325 19.4583C40.929 19.1424 41.1759 18.8802 41.493 18.8674L42.7111 18.8171C43.6741 18.7784 44.6371 18.7398 45.6013 18.6825C45.7686 18.6755 45.9418 18.7387 46.0611 18.8639C46.8077 19.6514 47.5062 20.4833 48.1369 21.3352C48.3312 21.5949 48.5102 21.8641 48.6904 22.1344L48.9279 22.4877C49.0578 22.6785 49.0637 22.9289 48.942 23.1255C48.832 23.3021 48.7852 23.5046 48.798 23.7456C48.9303 26.2649 49.0543 28.7853 49.1643 31.3046C49.1795 31.6241 48.9338 31.8967 48.6132 31.9142C46.3033 32.0441 43.9947 32.1588 41.6849 32.243C41.6778 32.243 41.6697 32.243 41.6626 32.243C41.5129 32.243 41.3678 32.1857 41.2589 32.0816C41.1443 31.9727 41.0799 31.823 41.0776 31.665L40.9325 19.4583ZM49.2298 50.3998C49.1736 51.4927 49.1175 52.5868 49.0285 53.6773L48.9115 55.0522C48.736 57.0719 48.5699 58.9803 48.6284 60.9333C48.633 61.0936 48.5722 61.248 48.4599 61.3615C48.3499 61.4739 48.1989 61.5359 48.0433 61.5359C48.041 61.5359 48.0375 61.5359 48.0351 61.5359C46.0213 61.5078 44.0087 61.4797 41.9961 61.4317C41.6802 61.4247 41.4286 61.1685 41.4251 60.8537L41.2952 49.9271C41.2929 49.768 41.3572 49.6147 41.4696 49.5035C41.5842 49.3924 41.7434 49.3374 41.8967 49.335C44.1597 49.4029 46.4192 49.4883 48.6787 49.5784C48.8355 49.5843 48.9829 49.6533 49.0882 49.7691C49.1935 49.885 49.2485 50.0371 49.2403 50.1939L49.2298 50.3998ZM49.4428 43.8869C49.4369 44.5773 49.417 45.2665 49.396 45.9569L49.3749 46.6718C49.3702 46.8286 49.3035 46.9761 49.19 47.0837C49.0812 47.1855 48.9384 47.2417 48.7898 47.2417C48.7817 47.2417 48.7735 47.2417 48.7664 47.2417C46.4508 47.1492 44.1351 47.0626 41.8194 46.9948C41.5058 46.9854 41.2554 46.7303 41.2519 46.4167L41.1197 35.1777C41.1162 34.8606 41.3666 34.5973 41.6825 34.5868C44.0169 34.5002 46.349 34.3855 48.6822 34.2545C48.8413 34.244 48.9946 34.3001 49.1093 34.4066C49.2263 34.5131 49.2942 34.6617 49.3 34.8185C49.4205 38.3464 49.465 41.2284 49.4428 43.8869ZM54.2321 33.8169C54.3784 33.7502 54.5422 33.7443 54.6884 33.8005C54.8359 33.8566 54.9552 33.9713 55.0161 34.1164C56.4062 37.3448 57.9297 41.2109 58.6973 45.3964C58.7967 45.9405 58.8728 46.4869 58.9465 47.0334C58.9699 47.2066 58.9137 47.3798 58.7944 47.5085C58.6832 47.6278 58.5276 47.6957 58.3661 47.6957C58.3544 47.6957 58.3439 47.6957 58.3334 47.6945C56.453 47.588 54.5691 47.5014 52.6864 47.4149L52.2733 47.3961C51.9562 47.3809 51.7081 47.1141 51.7152 46.7959L51.7222 46.5478C51.7514 45.4678 51.7818 44.3877 51.7865 43.3066C51.7994 40.744 51.7503 37.9907 51.6332 34.6406C51.6227 34.3247 51.8638 34.0567 52.1797 34.0357L53.7863 33.9362C53.9396 33.9233 54.0858 33.8859 54.2321 33.8169ZM51.8392 28.3688C52.1095 28.2951 52.388 28.4284 52.5097 28.6765C52.8595 29.3856 53.2047 30.0982 53.5359 30.8155C53.6154 30.9898 53.6061 31.1934 53.5089 31.3584C53.4107 31.5246 53.2387 31.6311 53.0456 31.6439L52.1188 31.7013C52.106 31.7013 52.0931 31.7024 52.0802 31.7024C51.9363 31.7024 51.7982 31.6498 51.6906 31.5538C51.5724 31.4485 51.5034 31.3011 51.4952 31.1431L51.4016 28.9632C51.3875 28.6859 51.5712 28.4378 51.8392 28.3688ZM58.8716 61.0222C58.8482 61.3241 58.599 61.5593 58.2959 61.5628C57.1609 61.578 56.0271 61.5839 54.892 61.5839C53.7594 61.5839 52.6255 61.578 51.494 61.571C51.1827 61.5698 50.9288 61.3253 50.9136 61.0152C50.8165 59.0985 51.0154 57.1585 51.2061 55.2828C51.2834 54.5233 51.3618 53.7651 51.4191 53.0139C51.4683 52.3738 51.4987 51.7314 51.5314 51.089L51.5724 50.2828C51.5888 49.9704 51.8462 49.7294 52.1563 49.7294C52.1645 49.7294 52.1738 49.7294 52.182 49.7294C54.3514 49.8276 56.522 49.9283 58.6914 50.0535C58.9933 50.071 59.2309 50.3132 59.2437 50.614C59.3736 53.9792 59.1513 57.3188 58.8716 61.0222Z" fill="#1E1E1E"/>
</svg>
