<svg width="34" height="65" viewBox="0 0 34 65" fill="none" xmlns="http://www.w3.org/2000/svg">
<path d="M31.2251 11.9517C29.2677 8.78149 26.8214 4.67071 23.5202 2.69577C20.5449 0.915736 17.6892 2.66173 14.9996 4.3046C12.1975 6.01553 8.44156 8.5216 6.94823 11.5258C5.30331 14.8373 8.391 17.4352 9.99881 20.1764C15.6019 29.7334 14.1539 41.1758 13.6228 51.8714C13.2485 53.1935 12.838 54.5053 12.3605 55.7986C12.014 56.7371 12.1316 57.5405 12.5214 58.1613C12.8514 59.3236 13.793 60.2765 15.3678 60.2507C17.2344 60.2208 18.9464 60.3167 20.7976 60.555C22.7241 60.8025 24.4092 58.3696 23.7812 56.6381C22.3796 52.7759 21.5267 48.8167 21.2431 44.8441C21.2493 44.7853 21.2606 44.7286 21.2668 44.6698C21.3174 44.216 21.272 43.821 21.1668 43.4714C20.9409 37.5806 21.9774 31.6816 24.3814 26.0496C24.4938 25.7856 24.5608 25.5257 24.6041 25.27C25.5488 24.0922 26.5739 22.9887 27.7321 21.9966C29.0748 20.8457 31.1529 20.0309 32.2038 18.5871C33.9323 16.2141 32.5699 14.1298 31.2251 11.9517Z" fill="#F7C300"/>
<path d="M18.5676 32.6571C18.6677 32.7695 18.8904 32.8293 19.1926 32.8128C19.6072 32.7932 19.9609 32.6685 20.1888 32.4632C20.5292 32.1528 20.6488 31.6464 20.7746 31.1102L20.8055 30.9771C20.9974 30.1758 21.2191 29.358 21.4666 28.5474C21.9823 26.8591 22.5948 25.2812 23.2848 23.857C23.6375 23.131 23.1373 22.5627 22.7145 22.3575C22.5278 22.2657 21.8895 22.0254 21.5409 22.7453C20.4013 25.0977 18.8419 28.6288 18.4676 32.1281C18.4428 32.3653 18.4789 32.5581 18.5676 32.6571Z" fill="#1E1E1E"/>
<path d="M9.47582 22.7905C9.32113 23.0195 9.18394 23.3897 9.41083 23.8559C15.018 35.4209 13.1699 48.6412 10.337 61.2045C10.2699 61.5067 10.3153 61.7769 10.4721 62.0058L11.0207 62.8051L10.0513 62.8134C7.03058 62.8391 4.0099 62.8773 0.988183 62.9361C0.193048 62.9516 -0.00703257 63.6271 0.000186553 64.0231C0.0104996 64.482 0.285877 65.0296 0.967568 64.9987C11.5931 64.7924 22.3712 64.7883 33.0029 64.9843C33.4103 64.9894 33.6475 64.8522 33.8166 64.5728C34.0188 64.2366 34.0239 63.7549 33.828 63.4002C33.7104 63.1867 33.4681 62.9309 32.9854 62.9216H32.9844C29.5419 62.8577 26.0973 62.8226 22.6528 62.801L21.6895 62.7948L22.2268 61.9976C22.3815 61.7687 22.4249 61.5026 22.3589 61.2045C21.3698 56.8184 20.1869 51.0235 19.8053 45.0956C19.6909 43.2959 19.7249 41.4901 19.7579 39.7431C19.7724 38.9645 19.7868 38.1848 19.7889 37.4031C19.7899 37.2092 19.7837 36.9936 19.7125 36.8843C19.6537 36.7967 19.5063 36.7214 19.2959 36.675C19.0381 36.6162 18.8019 36.6203 18.6152 36.6832C18.2202 36.8152 17.9645 37.236 17.8562 37.5856C17.7273 38.0023 17.719 38.4664 17.7108 38.9583L17.7015 39.3533C17.6561 40.6362 17.6561 41.981 17.7015 43.3516C17.786 45.8928 18.0233 48.5195 18.4255 51.3845C18.8658 54.5268 19.4867 57.8363 20.3798 61.8006C20.3994 61.8842 20.4272 61.9636 20.4695 62.0502L20.8294 62.7938L17.1621 62.7804L17.2797 62.1678C17.2921 62.1069 17.2952 62.045 17.29 61.9801C17.1467 60.3228 17.0714 58.6356 17.0642 56.9679C17.0631 56.6946 16.9332 56.409 16.7176 56.2027C16.5248 56.0191 16.302 55.9243 16.0555 55.9335C15.5358 55.9573 14.9995 56.3492 15.0015 56.9638C15.0088 58.6036 15.083 60.2619 15.2233 61.8945C15.2315 61.9873 15.2459 62.077 15.2655 62.1647L15.3986 62.7865L11.8499 62.8051L12.2232 62.0543C12.2665 61.9667 12.2954 61.8862 12.314 61.8037C15.2439 48.801 17.1302 35.0734 11.1527 22.7441C11.0022 22.4337 10.7825 22.2656 10.4989 22.245C10.4783 22.244 10.4586 22.2429 10.438 22.2429C10.0874 22.244 9.69858 22.4626 9.47582 22.7905Z" fill="#1E1E1E"/>
<path d="M26.2183 17.9139C23.2152 17.7242 20.146 17.7706 17.181 17.816C13.5838 17.8696 9.86081 17.9263 6.19762 17.5654C6.17596 17.5633 6.15741 17.5623 6.13678 17.5623C5.89545 17.5623 5.70053 17.7046 5.60152 17.7933C5.36638 18.0057 5.21582 18.3223 5.21582 18.5987C5.21582 19.2835 5.79852 19.5836 6.29767 19.6321C8.23239 19.8229 10.3125 19.9095 13.0393 19.9126H13.4157L13.5292 20.2715C13.6653 20.7005 13.8406 21.1182 14.0139 21.5348C14.3264 22.2846 14.6481 23.0591 14.7729 23.9151C14.8121 24.1915 15.1792 24.4906 15.4793 24.5731C15.7877 24.6576 16.2652 24.5844 16.4395 24.3575L16.6262 24.1172C17.1047 23.5026 17.5554 22.9209 17.906 22.2743C18.2536 21.6297 18.4866 20.9614 18.597 20.2849L18.6661 19.8569L19.0992 19.8518C21.3856 19.826 23.8329 19.8218 26.2823 19.9776C27.1011 20.024 27.2063 19.3351 27.2197 19.1216C27.2496 18.6647 27.0073 17.9645 26.2183 17.9139ZM16.6788 20.9841C16.6066 21.21 16.5117 21.4276 16.4034 21.6297C16.291 21.8401 16.0187 22.0907 15.7589 21.968C15.4732 21.8339 15.4103 21.3451 15.3381 21.078C15.2617 20.7954 15.1854 20.5128 15.1091 20.2313C15.0782 20.1168 15.0545 19.992 15.0689 19.8744C15.6444 19.8662 16.2188 19.8631 16.7932 19.8662C16.8067 19.9219 16.8293 19.9765 16.8304 20.0322C16.8376 20.3478 16.7788 20.6737 16.6788 20.9841Z" fill="#1E1E1E"/>
<path d="M31.7015 15.7729C32.0789 15.7729 32.3564 15.6244 32.5255 15.3325C32.7256 14.9881 32.7266 14.5054 32.5276 14.1589C32.411 13.9547 32.1707 13.7113 31.6963 13.7103C25.9117 13.6979 20.1262 13.6721 14.3405 13.6309C14.3375 13.6309 14.3344 13.6309 14.3313 13.6309C13.96 13.6309 13.6857 13.7763 13.5176 14.063C13.3175 14.4054 13.3154 14.888 13.5134 15.2366C13.63 15.4429 13.8713 15.6904 14.3478 15.6935C20.1323 15.7347 25.9159 15.7605 31.6984 15.7729C31.6994 15.7729 31.7005 15.7729 31.7015 15.7729Z" fill="#1E1E1E"/>
<path d="M1.13284 15.2088C4.01843 15.2336 6.94114 15.3625 9.81951 15.5904C10.0516 15.6111 10.2774 15.5069 10.4775 15.314C10.6941 15.1047 10.8219 14.8242 10.8116 14.5808C10.7848 13.9795 10.3733 13.5753 9.73907 13.5247C6.88339 13.2978 3.98543 13.171 1.12459 13.1462C1.1215 13.1462 1.11941 13.1462 1.11632 13.1462C0.854365 13.1462 0.576967 13.2721 0.372769 13.4835C0.18301 13.6794 0.0860542 13.9177 0.0953359 14.1538C0.124212 14.7499 0.568716 15.2037 1.13284 15.2088Z" fill="#1E1E1E"/>
<path d="M6.40091 11.1558C13.0642 11.163 19.8367 11.2043 26.533 11.2775C26.5381 11.2775 26.5433 11.2775 26.5484 11.2775C26.9145 11.2775 27.1858 11.1341 27.3518 10.8526C27.5529 10.5123 27.556 10.0306 27.359 9.68C27.2425 9.47064 27.0012 9.22107 26.5206 9.21488C25.4934 9.20353 24.4652 9.19941 23.437 9.19425L20.5256 9.17672L20.5494 8.40221C20.5535 8.11963 20.5318 7.85356 20.4844 7.56376C20.4658 7.45651 20.438 7.35028 20.4101 7.24406L20.3854 7.09967L20.3709 6.72944L20.7144 6.52214C21.0609 6.39014 21.4239 6.03949 21.4043 5.58469C21.3816 5.06698 20.9928 4.53173 20.3843 4.53173C20.3812 4.53173 20.3792 4.53173 20.3771 4.53173L17.2378 4.55545L17.1285 1.04902C17.1202 0.758191 17.0099 0.486958 16.8263 0.303386C16.6438 0.119814 16.3354 -0.0142551 16.1199 0.00121444C15.5981 0.0239031 15.0473 0.419924 15.0659 1.01705L15.1763 4.57092L11.5244 4.59876C11.247 4.60083 10.9592 4.7318 10.754 4.94838C10.5715 5.1402 10.4776 5.37327 10.4879 5.60635C10.5127 6.17047 10.9262 6.62012 11.4481 6.65209L11.8823 6.6789L11.9287 7.11205C11.9813 7.59676 11.9885 8.11241 11.9514 8.64354L11.9184 9.12619L9.94447 9.11175C8.7626 9.10247 7.58173 9.09318 6.39883 9.09215H6.39779C6.0193 9.09215 5.74085 9.24169 5.57068 9.53561C5.37164 9.88007 5.37064 10.3627 5.56968 10.7092C5.68725 10.9124 5.92754 11.1548 6.40091 11.1558ZM18.3073 6.61084L18.3516 7.27396C18.3568 7.38431 18.362 7.4957 18.3795 7.60811C18.395 7.70814 18.4207 7.80612 18.4455 7.90409L18.4826 8.09798C18.4888 8.26917 18.4868 8.4414 18.4837 8.61157L18.4733 9.12103L17.9618 9.16434L13.981 9.13959L14.0336 8.46203C14.0408 8.38055 14.049 8.30011 14.0501 8.21864C14.0583 7.8649 14.0264 7.51116 13.9934 7.21106L13.9315 6.64384L18.3073 6.61084Z" fill="#1E1E1E"/>
</svg>
