<svg width="70" height="44" viewBox="0 0 70 44" fill="none" xmlns="http://www.w3.org/2000/svg">
<path d="M69.5861 13.946C69.5644 13.3339 69.334 12.7383 68.9693 12.2539C68.8491 12.0348 68.7041 11.8268 68.5028 11.6517C63.4163 7.19867 57.7746 3.45678 51.6621 0.633021C51.6264 0.616508 51.5874 0.6066 51.5506 0.591187C51.1296 0.230099 50.5733 -0.00218624 49.8634 1.55163e-05C38.0486 0.0473533 26.2349 0.330279 14.4321 0.847692C14.3487 0.850995 14.2773 0.871911 14.1983 0.881819C14.1171 0.875214 14.0349 0.856499 13.9559 0.859801C13.2567 0.891727 12.5306 1.12511 12.0425 1.66565C11.5912 2.16544 11.1648 2.90523 11.2503 3.612L11.9342 9.29694C11.7048 10.2008 11.9126 11.1805 12.6074 11.9214C14.2307 13.6553 16.0998 15.1602 18.1051 16.435C18.1636 16.6178 18.2263 16.7983 18.2837 16.98C18.4817 17.6119 18.6787 18.2449 18.8551 18.8834C19.261 20.3509 19.459 21.4473 19.498 22.8631C19.5359 24.2348 19.5023 25.6186 19.432 26.9892C19.4136 27.3415 19.3854 27.6926 19.3573 28.0438C19.3443 28.2067 19.3443 28.2552 19.3476 28.2662C19.34 28.2926 19.3248 28.3565 19.2956 28.5029C19.2371 28.7957 19.1831 29.0885 19.1073 29.377C19.1041 29.3902 19.0997 29.4023 19.0965 29.4155C18.9655 29.6929 18.8216 29.9637 18.6798 30.2357C17.6106 31.3696 16.5424 32.5024 15.4731 33.6363C15.1571 33.9709 14.9439 34.3904 14.8195 34.8351C14.2643 36.4589 15.0695 38.6012 17.2556 38.5605C31.7489 38.2908 46.2477 38.5187 60.7259 39.2453C61.0765 39.2629 61.3817 39.21 61.662 39.1231C62.2118 39.0174 62.6793 38.7664 63.1382 38.3756C65.781 36.1188 67.9898 33.2499 69.5211 30.1047C69.6889 29.7601 69.8058 29.4034 69.8556 29.0368C69.9476 28.7638 70.0071 28.4743 69.9995 28.1638C69.8891 23.4223 69.7517 18.6841 69.5861 13.946Z" fill="#F7C300"/>
<path d="M57.1943 41.7948L54.3739 41.7464L60.0319 34.6545C61.6282 32.674 63.2786 30.6264 64.1097 28.2044L64.1552 28.069L64.2613 27.9744C64.4993 27.7586 64.64 27.4558 64.6444 27.1454C64.705 23.4861 64.5946 19.7519 64.3175 16.0441L64.2992 15.7975L64.468 15.6203C64.7321 15.3407 64.8705 14.9444 64.8283 14.5866C64.7926 14.2761 64.6249 14.0229 64.3327 13.8336L56.1131 8.53284C53.941 7.13032 51.6954 5.67936 49.2365 4.8504L49.0731 4.79536L48.9703 4.65444C48.7853 4.39794 48.5147 4.26583 48.1662 4.26363C35.2876 4.16015 22.2283 4.12382 9.35287 4.15575C9.01522 4.15575 8.75001 4.27684 8.56603 4.51463C8.44266 4.64343 8.39289 4.70508 8.36259 4.76453L8.22189 5.11131C8.19159 5.24231 8.19158 5.43497 8.24461 5.63312L8.89399 10.4219L8.85608 10.5419C8.74353 10.892 8.73491 11.3533 9.04334 11.5966L14.8993 16.2368L14.7219 27.7377C14.7208 27.8092 14.7316 27.8885 14.7532 27.9788L14.8084 28.2044L14.4773 28.7549C14.2283 29.1765 13.9696 29.6114 13.6504 30.0319C12.9523 30.95 12.1429 31.7878 11.3604 32.5981C11.0877 32.8799 10.816 33.1617 10.5498 33.4457L3.65052 40.858L1.01639 40.8117C1.00774 40.8117 1.00012 40.8117 0.992548 40.8117C0.273942 40.8117 0.00880248 41.3754 0.000144575 41.862C-0.00418438 42.1647 0.0888622 42.4575 0.257691 42.6645C0.441672 42.8902 0.702551 43.008 1.03588 43.0135L57.2148 43.9988C57.5557 44.0131 57.7873 43.9052 57.9659 43.7004C58.1282 43.5144 58.2257 43.2403 58.2311 42.9496C58.2354 42.6469 58.1423 42.354 57.9735 42.1471C57.7873 41.9181 57.5265 41.8014 57.1943 41.7948ZM62.1455 16.0728L62.1801 16.5759C62.3923 19.6594 62.4961 22.689 62.4853 25.5788L62.4831 26.1546L61.9171 26.126C47.1749 25.3752 32.227 25.5128 17.488 26.5388L16.9004 26.5795L17.0454 17.2111L17.5421 17.1769C32.1372 16.1707 46.9725 15.7986 61.6499 16.064L62.1455 16.0728ZM48.3221 6.8551C50.6673 7.58168 52.7387 8.93796 54.743 10.2491L60.2927 13.8325L58.3869 13.8105C57.6077 13.8016 56.8263 13.8039 56.0471 13.8039L54.1683 13.8027L54.0125 13.5297C53.8134 13.1819 53.467 12.8461 53.0093 12.561L48.2809 9.6084L48.2128 9.4774C48.1814 9.41685 48.1446 9.3596 48.1013 9.30676L48.0007 9.11521C47.8383 8.56146 47.7128 8.00552 47.6294 7.46609L47.4963 6.5975L48.3221 6.8551ZM10.5011 6.3575L11.1202 6.3564C22.1482 6.33549 33.5095 6.36631 44.8947 6.44667L45.3946 6.44998L45.4304 6.95748C45.4628 7.42646 45.5245 7.89433 45.6002 8.3578L45.7052 8.99301L10.9037 9.34749L10.5011 6.3575ZM12.4437 11.5327L46.6662 11.1849L50.8275 13.7829L48.9368 13.7961C38.2464 13.8688 27.5193 14.2772 17.0562 15.0093L16.8506 15.0236L12.4437 11.5327ZM6.53796 40.9075L12.6602 34.3892C13.3842 33.6307 14.1309 32.8458 14.8084 32.0366C15.3712 31.3662 15.7824 30.8025 16.1093 30.2631C16.1753 30.153 16.2478 30.0055 16.3235 29.8503C16.4978 29.4991 16.6785 29.1369 16.8906 28.9167L17.0346 28.7681L17.2391 28.7538C31.6978 27.7432 46.3967 27.5836 60.9279 28.2837L61.7851 28.3255L61.3793 29.0951C60.5903 30.5879 59.4994 31.9133 58.4432 33.1958C58.1553 33.5437 57.8718 33.8894 57.5969 34.234L51.6456 41.699L6.53796 40.9075Z" fill="#1E1E1E"/>
<path d="M66.339 41.143C65.9202 41.1122 65.4938 41.0957 65.0609 41.0957C63.877 41.0957 62.6454 41.2135 61.3835 41.448C61.1963 41.4832 60.9149 41.7155 60.7818 41.9445C60.6465 42.1801 60.5956 42.5434 60.6671 42.769C60.7666 43.0828 60.9431 43.3261 61.1508 43.4384C61.4225 43.5848 61.6941 43.6178 62.0523 43.5507C62.2211 43.5187 62.3943 43.4923 62.5675 43.4659L62.6778 43.4494C63.9376 43.2898 65.1951 43.2556 66.4202 43.3481C66.6183 43.3668 66.9581 43.216 67.1454 43.0244C67.3358 42.8307 67.4732 42.5059 67.4624 42.2692C67.4332 41.6252 67.0024 41.1937 66.339 41.143Z" fill="#1E1E1E"/>
</svg>
