<svg width="154" height="13" viewBox="0 0 154 13" fill="none" xmlns="http://www.w3.org/2000/svg">
<path d="M153.401 9.31728C151.636 7.49806 149.752 5.82773 147.987 4.00851C146.225 2.33386 144.977 1.50947 142.935 3.17308C141.254 4.53461 139.216 6.3428 137.918 8.26973C137.795 8.27403 137.792 8.12945 137.669 8.13376C137.409 7.56406 136.785 7.15186 136.405 6.73105C135.521 5.74915 134.759 4.76294 133.878 3.92562C132.488 2.38263 130.983 1.13311 129.049 2.2141C127.111 3.1505 125.947 5.50686 124.396 7.15324C124.277 7.30213 124.158 7.45101 124.039 7.5999C124.4 7.29782 124.269 7.01297 123.779 7.0302C123.4 6.60938 122.784 6.48634 122.286 6.21442C121.413 5.66626 120.54 5.11809 119.666 4.56993C117.671 3.33765 115.791 1.81189 113.911 0.286136C113.283 -0.270642 112.188 0.0572899 111.713 0.652841C110.889 1.98421 110.062 3.17101 109.238 4.50238C108.767 5.24251 108.296 5.98264 107.825 6.72277C107.706 6.87166 107.587 7.02055 107.473 7.31401C107.354 7.4629 107.354 7.4629 107.354 7.4629C106.236 6.92336 105.225 5.80118 104.221 4.96817C103.096 4.13947 101.966 3.16618 100.718 2.34178C98.5886 0.680066 96.4824 -0.114175 94.2074 1.99179C92.5336 3.64248 90.9824 5.28886 89.3087 6.93955C87.9302 5.8303 86.5554 4.86563 85.0544 3.76069C83.6796 2.79603 82.2935 1.39762 80.5892 1.89167C79.0075 2.38141 77.5827 4.16807 76.2652 5.37209C75.5451 5.97626 74.8251 6.58043 74.2276 7.18028C73.5076 7.78445 73.0174 7.80168 72.1481 7.3981C69.2914 6.05139 67.013 3.38192 63.8153 3.06019C60.4951 2.74277 58.2353 5.42706 55.7152 7.54164C54.8764 8.2947 54.9951 8.14581 54.1182 7.45307C53.3677 6.9006 52.7397 6.34382 51.9891 5.79135C50.488 4.68641 48.987 3.58147 47.2598 3.20805C45.5365 2.9792 44.0888 3.89837 42.5186 4.82186C41.6722 5.28575 40.8258 5.74965 39.9794 6.21354C39.133 6.67744 37.8116 7.73688 36.7125 7.92024C35.2419 7.97193 33.3618 6.44618 32.1096 5.4772C30.731 4.36795 29.5824 2.67177 27.8552 2.29835C26.2507 1.92061 24.6766 2.69951 23.4816 3.89923C22.1641 5.10326 20.9882 7.02587 19.2572 6.50787C17.5301 6.13444 16.1401 4.59146 14.6429 3.63109C13.0192 2.53046 11.2807 1.7233 9.31228 1.50307C5.74312 1.04968 2.10861 2.7693 0.246962 6.5973C-0.913706 9.09824 2.32975 11.1549 3.49042 8.65399C5.1184 5.26834 8.67231 5.14341 11.4103 6.63901C14.1483 8.1346 16.4305 10.9487 19.6205 10.9812C21.0949 11.0741 22.4239 10.3038 23.6265 9.39326C24.584 8.49131 26.2387 6.11773 27.4871 6.94213C28.7316 7.62194 29.8765 9.17355 31.1286 10.1425C32.5034 11.1072 34.1232 12.0632 35.6014 12.3007C37.2022 12.5339 38.5311 11.7636 39.9827 10.989C41.798 10.0569 43.6019 8.69104 45.4211 7.90352C46.999 7.2692 48.5115 8.80788 49.7598 9.63227C51.012 10.6013 52.4058 12.2888 54.0066 12.522C56.8442 13.1458 59.0659 9.0157 61.3638 7.77721C64.0256 6.38122 66.6754 9.18234 68.9193 10.5506C70.2941 11.5153 71.9101 12.3267 73.4956 11.9816C75.2036 11.6321 76.6323 9.99002 77.9498 8.786C78.6699 8.18183 79.7385 6.84184 80.5887 6.52253C80.7112 6.51822 80.9449 6.07586 80.9449 6.07586C81.19 6.06725 82.0707 6.90457 82.3196 7.04053C84.0734 8.42601 85.9498 9.80719 87.7036 11.1927C87.7036 11.1927 87.8261 11.1884 87.8299 11.3329C88.4579 11.8897 89.4421 11.9998 90.1546 11.1065C91.2308 10.0557 92.1845 9.00916 93.2607 7.95833C93.7357 7.36278 94.337 6.9075 94.8119 6.31195C95.172 6.00987 95.8806 4.97196 96.367 4.81015C97.3435 4.6311 99.1126 6.5949 99.8631 7.14737C100.989 7.97608 101.992 8.80909 103.118 9.6378C104.872 11.0233 107.012 13.1187 108.92 11.0257C109.873 9.97917 110.571 8.50753 111.275 7.32504C111.747 6.58491 112.336 5.69589 112.808 4.95576C115.94 7.4505 119.187 9.65176 122.664 11.2661C124.774 12.2049 125.962 10.716 127.39 9.07396C128.103 8.18063 128.807 6.99815 129.65 6.38967C130.37 5.78551 129.888 6.0919 130.512 6.5041C130.887 6.78033 131.396 7.486 131.775 7.90681C132.66 8.88871 133.422 9.87492 134.303 10.7122C134.934 11.4136 135.696 12.3998 136.566 12.8034C138.549 13.6019 139.725 11.6793 141.039 10.3307C141.874 9.43308 142.709 8.53545 143.666 7.63351C143.666 7.63351 144.386 7.02934 144.746 6.72726C144.873 6.86753 144.999 7.0078 145.125 7.14807C146.891 8.96729 148.775 10.6376 150.54 12.4569C152.673 14.2631 155.166 11.1365 153.401 9.31728Z" fill="#F7C300"/>
</svg>
