<svg width="193" height="15" viewBox="0 0 193 15" fill="none" xmlns="http://www.w3.org/2000/svg">
<path d="M0.75064 4.24931C2.96294 6.34841 5.32402 8.27572 7.53632 10.3748C9.74382 12.3071 11.3083 13.2583 13.8667 11.3388C15.9739 9.76777 18.5274 7.6814 20.1547 5.45802C20.3083 5.45305 20.3131 5.61988 20.4667 5.61491C20.793 6.27225 21.5752 6.74787 22.0503 7.23342C23.1588 8.36638 24.1138 9.50432 25.2175 10.4705C26.9595 12.2508 28.8455 13.6926 31.2694 12.4453C33.6981 11.3648 35.1575 8.64595 37.1015 6.74628C37.2503 6.57448 37.3991 6.40269 37.5479 6.2309C37.0967 6.57945 37.2599 6.90813 37.8742 6.88825C38.3493 7.3738 39.122 7.51577 39.7458 7.82953C40.8401 8.46203 41.9342 9.09452 43.0284 9.72701C45.5288 11.1489 47.8851 12.9094 50.2414 14.6699C51.0285 15.3123 52.4012 14.9339 52.9964 14.2467C54.0284 12.7105 55.0653 11.3412 56.0974 9.80496C56.6878 8.95096 57.2783 8.09697 57.8687 7.24297C58.0175 7.07118 58.1663 6.89938 58.3103 6.56077C58.4592 6.38897 58.4592 6.38897 58.4592 6.38897C59.8605 7.01153 61.1274 8.30634 62.3848 9.26751C63.7957 10.2237 65.2114 11.3467 66.7759 12.298C69.4441 14.2153 72.0837 15.1318 74.9349 12.7018C77.0325 10.7971 78.9766 8.89748 81.0742 6.99284C82.8018 8.27274 84.5247 9.38582 86.4059 10.6607C88.1288 11.7738 89.866 13.3874 92.0018 12.8173C93.9841 12.2522 95.7697 10.1907 97.4209 8.80144C98.3233 8.10432 99.2257 7.40721 99.9745 6.71507C100.877 6.01795 101.491 5.99807 102.581 6.46374C106.161 8.01763 109.016 11.0978 113.024 11.469C117.185 11.8353 120.017 8.73801 123.175 6.29811C124.226 5.4292 124.078 5.60099 125.177 6.40031C126.117 7.03778 126.904 7.68021 127.845 8.31768C129.726 9.59261 131.607 10.8675 133.772 11.2984C135.931 11.5625 137.746 10.5019 139.714 9.43632C140.774 8.90106 141.835 8.3658 142.896 7.83053C143.957 7.29527 145.613 6.07283 146.99 5.86127C148.833 5.80162 151.189 7.56211 152.759 8.68015C154.486 9.96006 155.926 11.9172 158.091 12.3481C160.101 12.7839 162.074 11.8852 163.572 10.5009C165.223 9.11163 166.697 6.89323 168.866 7.49092C171.03 7.9218 172.772 9.70217 174.649 10.8103C176.684 12.0802 178.863 13.0116 181.329 13.2657C185.802 13.7888 190.357 11.8047 192.69 7.38773C194.145 4.50204 190.08 2.12894 188.626 5.01463C186.585 8.92115 182.131 9.0653 178.7 7.33961C175.269 5.61392 172.409 2.36694 168.411 2.32936C166.563 2.22219 164.897 3.11098 163.39 4.16163C162.19 5.20233 160.116 7.94109 158.552 6.98986C156.992 6.20545 155.557 4.41514 153.988 3.29709C152.265 2.18402 150.235 1.08088 148.383 0.806882C146.377 0.537858 144.711 1.42665 142.892 2.32042C140.617 3.39591 138.356 4.97188 136.076 5.88056C134.099 6.61247 132.203 4.83707 130.639 3.88584C129.069 2.76779 127.323 0.820602 125.316 0.551578C121.76 -0.168205 118.976 4.59727 116.096 6.0263C112.76 7.63706 109.439 4.405 106.627 2.82625C104.904 1.71317 102.879 0.776857 100.892 1.17512C98.7513 1.57836 96.9608 3.47306 95.3096 4.86232C94.4073 5.55943 93.068 7.10558 92.0025 7.47402C91.8489 7.47899 91.5561 7.9894 91.5561 7.9894C91.2489 7.99934 90.1451 7.0332 89.8332 6.87632C87.6352 5.27769 85.2837 3.68402 83.0858 2.08539C83.0858 2.08539 82.9322 2.09036 82.9274 1.92354C82.1404 1.2811 80.9069 1.15404 80.0141 2.1848C78.6653 3.3973 77.4701 4.60483 76.1213 5.81732C75.526 6.5045 74.7725 7.02982 74.1772 7.71699C73.726 8.06555 72.838 9.26313 72.2284 9.44984C71.0045 9.65643 68.7875 7.39051 67.8469 6.75304C66.4359 5.79684 65.1786 4.83567 63.7677 3.87947C61.5697 2.28084 58.8871 -0.136992 56.4967 2.27806C55.3015 3.48558 54.4277 5.18363 53.5445 6.54804C52.954 7.40204 52.2148 8.42783 51.6244 9.28182C47.6988 6.40329 43.6291 3.86337 39.2715 2.00068C36.6271 0.917427 35.139 2.63536 33.3486 4.53006C32.4557 5.56082 31.5725 6.92523 30.5165 7.62731C29.6141 8.32443 30.2189 7.9709 29.4366 7.49529C28.9663 7.17656 28.3281 6.36233 27.853 5.87677C26.7445 4.74381 25.7895 3.60588 24.6858 2.63974C23.894 1.83048 22.939 0.692545 21.8496 0.226874C19.3636 -0.694528 17.8899 1.52387 16.2435 3.07996C15.1971 4.11569 14.1506 5.15142 12.9506 6.19212C12.9506 6.19212 12.0482 6.88924 11.5971 7.2378C11.4387 7.07594 11.2803 6.91409 11.122 6.75224C8.90968 4.65314 6.5486 2.72583 4.3363 0.626729C1.66327 -1.45746 -1.46164 2.1502 0.75064 4.24931Z" fill="#59C69F"/>
</svg>
